<svg version="1.1" viewBox="0 0 1024 1024" xmlns="http://www.w3.org/2000/svg">
  <!-- <g stroke="lightgray" stroke-width="4"
     transform="scale(4, 4)">
    <line x1="0" y1="0" x2="256" y2="0"></line>
    <line x1="0" y1="0" x2="0" y2="256"></line>
    <line x1="256" y1="0" x2="256" y2="256"></line>
    <line x1="0" y1="256" x2="256" y2="256"></line>
  </g>        -->
  <g transform="scale(0.92, -0.92) translate(60, -830)">
    <style type="text/css">
      
        @keyframes keyframes0 {
          from {
            stroke: black;
            stroke-dashoffset: 927;
            stroke-width: 128;
          }
          75% {
            animation-timing-function: step-end;
            stroke: black;
            stroke-dashoffset: 0;
            stroke-width: 128;
          }
          to {
            stroke: black;
            stroke-width: 151;
          }
        }
        #make-me-a-hanzi-animation-0 {
          animation: keyframes0 1.00439453125s both;
          animation-delay: 0s;
          animation-timing-function: linear;
        }
      
        @keyframes keyframes1 {
          from {
            stroke: black;
            stroke-dashoffset: 595;
            stroke-width: 128;
          }
          66% {
            animation-timing-function: step-end;
            stroke: black;
            stroke-dashoffset: 0;
            stroke-width: 128;
          }
          to {
            stroke: black;
            stroke-width: 151;
          }
        }
        #make-me-a-hanzi-animation-1 {
          animation: keyframes1 0.7342122395833334s both;
          animation-delay: 1.00439453125s;
          animation-timing-function: linear;
        }
      
        @keyframes keyframes2 {
          from {
            stroke: black;
            stroke-dashoffset: 1003;
            stroke-width: 128;
          }
          77% {
            animation-timing-function: step-end;
            stroke: black;
            stroke-dashoffset: 0;
            stroke-width: 128;
          }
          to {
            stroke: black;
            stroke-width: 151;
          }
        }
        #make-me-a-hanzi-animation-2 {
          animation: keyframes2 1.0662434895833333s both;
          animation-delay: 1.7386067708333335s;
          animation-timing-function: linear;
        }
      
        @keyframes keyframes3 {
          from {
            stroke: black;
            stroke-dashoffset: 1181;
            stroke-width: 128;
          }
          79% {
            animation-timing-function: step-end;
            stroke: black;
            stroke-dashoffset: 0;
            stroke-width: 128;
          }
          to {
            stroke: black;
            stroke-width: 151;
          }
        }
        #make-me-a-hanzi-animation-3 {
          animation: keyframes3 1.2111002604166667s both;
          animation-delay: 2.804850260416667s;
          animation-timing-function: linear;
        }
      
    </style>
    
      <path d="M 154 690 Q 154 675 167 666 Q 174 659 195.5 658.5 Q 217 658 235 658 Q 269 658 329 659 L 478 662 L 548 660 L 692 660 Q 811 660 840.5 666 Q 870 672 870 690 Q 870 693 869 696 Q 869 698 869 701 Q 869 724 842.5 729 Q 816 734 730 734 Q 703 734 671 734 Q 593 734 499.5 733 Q 406 732 338 732 Q 239 731 205.5 728 Q 172 725 167 718 Q 154 705 154 690 Z" fill="lightgray"></path>
    
      <path d="M 478 662 L 478 576 Q 478 538 479 493 Q 480 448 482 416 L 485 344 C 486 314 568 311 561 340 Q 559 342 557 363 Q 555 383 555 412 L 555 479 L 550 552 L 550 606 L 548 660 C 547 690 478 692 478 662 Z" fill="lightgray"></path>
    
      <path d="M 485 344 L 377 344 Q 346 343 325 343 Q 298 343 285 345 Q 272 346 272 350 Q 272 352 273 353 Q 275 358 278 378 Q 280 398 284 423 Q 285 448 289 468 L 294 493 Q 294 496 294 499 Q 294 510 288 523 Q 282 536 267 540 Q 263 541 260 541 Q 240 541 227 515 Q 213 488 204 412 Q 203 390 199 369 Q 195 347 192 336 Q 187 320 187 307 Q 187 283 206 273 Q 212 268 280 266 Q 347 264 505 264 L 789 264 C 819 264 821 335 791 335 L 678 336 Q 631 336 598 337 Q 564 338 561 340 L 485 344 Z" fill="lightgray"></path>
    
      <path d="M 789 264 L 789 250 Q 788 223 780 176 Q 771 128 762 90 L 748 39 L 725 57 Q 699 78 683 78 Q 682 78 674 78 Q 665 77 654 54 Q 650 42 650 35 Q 650 33 651 29 Q 651 25 660 12 Q 676 -9 716 -39 Q 755 -69 770 -72 Q 782 -72 793 -57 Q 804 -42 813 -15 Q 838 74 854 197 Q 869 319 869 434 Q 869 441 869 448 Q 870 461 870 471 Q 870 524 849 537 Q 828 549 726 549 Q 712 549 696 549 L 550 552 C 520 553 525 479 555 479 L 809 475 L 806 430 Q 802 412 800 392 Q 798 371 797 360 L 791 335 L 789 264 Z" fill="lightgray"></path>
    
    
      <clipPath id="make-me-a-hanzi-clip-0">
        <path d="M 154 690 Q 154 675 167 666 Q 174 659 195.5 658.5 Q 217 658 235 658 Q 269 658 329 659 L 478 662 L 548 660 L 692 660 Q 811 660 840.5 666 Q 870 672 870 690 Q 870 693 869 696 Q 869 698 869 701 Q 869 724 842.5 729 Q 816 734 730 734 Q 703 734 671 734 Q 593 734 499.5 733 Q 406 732 338 732 Q 239 731 205.5 728 Q 172 725 167 718 Q 154 705 154 690 Z"></path>
      </clipPath>
      <path clip-path="url(#make-me-a-hanzi-clip-0)" d="M 182 690 L 308 696 L 837 698 L 851 690" fill="none" id="make-me-a-hanzi-animation-0" stroke-dasharray="799 1598" stroke-linecap="round"></path>
    
      <clipPath id="make-me-a-hanzi-clip-1">
        <path d="M 478 662 L 478 576 Q 478 538 479 493 Q 480 448 482 416 L 485 344 C 486 314 568 311 561 340 Q 559 342 557 363 Q 555 383 555 412 L 555 479 L 550 552 L 550 606 L 548 660 C 547 690 478 692 478 662 Z"></path>
      </clipPath>
      <path clip-path="url(#make-me-a-hanzi-clip-1)" d="M 485 655 L 514 625 L 521 378 L 548 354 L 553 341" fill="none" id="make-me-a-hanzi-animation-1" stroke-dasharray="467 934" stroke-linecap="round"></path>
    
      <clipPath id="make-me-a-hanzi-clip-2">
        <path d="M 485 344 L 377 344 Q 346 343 325 343 Q 298 343 285 345 Q 272 346 272 350 Q 272 352 273 353 Q 275 358 278 378 Q 280 398 284 423 Q 285 448 289 468 L 294 493 Q 294 496 294 499 Q 294 510 288 523 Q 282 536 267 540 Q 263 541 260 541 Q 240 541 227 515 Q 213 488 204 412 Q 203 390 199 369 Q 195 347 192 336 Q 187 320 187 307 Q 187 283 206 273 Q 212 268 280 266 Q 347 264 505 264 L 789 264 C 819 264 821 335 791 335 L 678 336 Q 631 336 598 337 Q 564 338 561 340 L 485 344 Z"></path>
      </clipPath>
      <path clip-path="url(#make-me-a-hanzi-clip-2)" d="M 259 509 L 249 450 L 241 439 L 246 406 L 237 386 L 232 344 L 237 317 L 255 306 L 458 304 L 468 297 L 502 306 L 533 299 L 576 302 L 590 295 L 615 303 L 647 296 L 656 301 L 750 299 L 763 318" fill="none" id="make-me-a-hanzi-animation-2" stroke-dasharray="875 1750" stroke-linecap="round"></path>
    
      <clipPath id="make-me-a-hanzi-clip-3">
        <path d="M 789 264 L 789 250 Q 788 223 780 176 Q 771 128 762 90 L 748 39 L 725 57 Q 699 78 683 78 Q 682 78 674 78 Q 665 77 654 54 Q 650 42 650 35 Q 650 33 651 29 Q 651 25 660 12 Q 676 -9 716 -39 Q 755 -69 770 -72 Q 782 -72 793 -57 Q 804 -42 813 -15 Q 838 74 854 197 Q 869 319 869 434 Q 869 441 869 448 Q 870 461 870 471 Q 870 524 849 537 Q 828 549 726 549 Q 712 549 696 549 L 550 552 C 520 553 525 479 555 479 L 809 475 L 806 430 Q 802 412 800 392 Q 798 371 797 360 L 791 335 L 789 264 Z"></path>
      </clipPath>
      <path clip-path="url(#make-me-a-hanzi-clip-3)" d="M 557 545 L 595 514 L 821 508 L 831 503 L 840 480 L 818 192 L 780 14 L 761 -10 L 733 -1 L 688 37 L 679 59" fill="none" id="make-me-a-hanzi-animation-3" stroke-dasharray="1053 2106" stroke-linecap="round"></path>
    
  </g>
</svg>