<svg version="1.1" viewBox="0 0 1024 1024" xmlns="http://www.w3.org/2000/svg">
  <!-- <g stroke="lightgray" stroke-width="4"
     transform="scale(4, 4)">
    <line x1="0" y1="0" x2="256" y2="0"></line>
    <line x1="0" y1="0" x2="0" y2="256"></line>
    <line x1="256" y1="0" x2="256" y2="256"></line>
    <line x1="0" y1="256" x2="256" y2="256"></line>
  </g>        -->
  <g transform="scale(0.92, -0.92) translate(60, -830)">
    <style type="text/css">
      
        @keyframes keyframes0 {
          from {
            stroke: black;
            stroke-dashoffset: 802;
            stroke-width: 128;
          }
          72% {
            animation-timing-function: step-end;
            stroke: black;
            stroke-dashoffset: 0;
            stroke-width: 128;
          }
          to {
            stroke: black;
            stroke-width: 151;
          }
        }
        #make-me-a-hanzi-animation-0 {
          animation: keyframes0 0.9026692708333334s both;
          animation-delay: 0s;
          animation-timing-function: linear;
        }
      
        @keyframes keyframes1 {
          from {
            stroke: black;
            stroke-dashoffset: 832;
            stroke-width: 128;
          }
          73% {
            animation-timing-function: step-end;
            stroke: black;
            stroke-dashoffset: 0;
            stroke-width: 128;
          }
          to {
            stroke: black;
            stroke-width: 151;
          }
        }
        #make-me-a-hanzi-animation-1 {
          animation: keyframes1 0.9270833333333334s both;
          animation-delay: 0.9026692708333334s;
          animation-timing-function: linear;
        }
      
        @keyframes keyframes2 {
          from {
            stroke: black;
            stroke-dashoffset: 752;
            stroke-width: 128;
          }
          71% {
            animation-timing-function: step-end;
            stroke: black;
            stroke-dashoffset: 0;
            stroke-width: 128;
          }
          to {
            stroke: black;
            stroke-width: 151;
          }
        }
        #make-me-a-hanzi-animation-2 {
          animation: keyframes2 0.8619791666666666s both;
          animation-delay: 1.8297526041666667s;
          animation-timing-function: linear;
        }
      
        @keyframes keyframes3 {
          from {
            stroke: black;
            stroke-dashoffset: 641;
            stroke-width: 128;
          }
          68% {
            animation-timing-function: step-end;
            stroke: black;
            stroke-dashoffset: 0;
            stroke-width: 128;
          }
          to {
            stroke: black;
            stroke-width: 151;
          }
        }
        #make-me-a-hanzi-animation-3 {
          animation: keyframes3 0.7716471354166666s both;
          animation-delay: 2.6917317708333335s;
          animation-timing-function: linear;
        }
      
        @keyframes keyframes4 {
          from {
            stroke: black;
            stroke-dashoffset: 860;
            stroke-width: 128;
          }
          74% {
            animation-timing-function: step-end;
            stroke: black;
            stroke-dashoffset: 0;
            stroke-width: 128;
          }
          to {
            stroke: black;
            stroke-width: 151;
          }
        }
        #make-me-a-hanzi-animation-4 {
          animation: keyframes4 0.9498697916666666s both;
          animation-delay: 3.46337890625s;
          animation-timing-function: linear;
        }
      
    </style>
    
      <path d="M 239 508 Q 260 574 286 636 Q 328 740 332 765 Q 332 774 323 788 Q 312 795 307 795 Q 298 795 292 789 Q 251 663 195.5 538.5 Q 140 414 58 302 L 57 298 Q 57 287 75 276 L 80 275 Q 86 275 90 278 Q 94 281 210 451 L 239 508 Z" fill="lightgray"></path>
    
      <path d="M 218 -86 Q 225 -86 235 -79 Q 244 -67 244 -51 Q 244 9 246 69 Q 248 214 248 359 L 255 477 L 252 492 L 239 508 C 220 531 212 481 210 451 Q 201 297 200 -4 L 197 -48 Q 197 -70 203 -79 L 214 -85 L 218 -86 Z" fill="lightgray"></path>
    
      <path d="M 383 608 Q 630 655 862 684 Q 869 687 873.5 692 Q 878 697 878 698 L 878 713 Q 878 722 861 727 Q 611 698 377 652 Q 372 651 369 647.5 Q 366 644 364.5 641.5 Q 363 639 362 639 Q 362 622 365 619.5 Q 368 617 372.5 614.5 Q 377 612 383 608 Z" fill="lightgray"></path>
    
      <path d="M 422 327 Q 616 363 810 377 Q 815 384 818.5 387 Q 822 390 822 405 Q 822 413 805 419 Q 613 406 422 371 Q 410 364 405 353 L 405 341 Q 406 332 422 327 Z" fill="lightgray"></path>
    
      <path d="M 328 -4 Q 408 13 482 15 Q 560 17 635 25 Q 754 35 855 38 Q 919 38 928 40 Q 936 46 942 55 Q 943 55 943 69 L 938 76 Q 932 82 928 83 Q 820 83 771 79 Q 736 75 633 69 Q 555 62 475.5 59 Q 396 56 315 34 L 310 19 L 315 5 L 328 -4 Z" fill="lightgray"></path>
    
    
      <clipPath id="make-me-a-hanzi-clip-0">
        <path d="M 239 508 Q 260 574 286 636 Q 328 740 332 765 Q 332 774 323 788 Q 312 795 307 795 Q 298 795 292 789 Q 251 663 195.5 538.5 Q 140 414 58 302 L 57 298 Q 57 287 75 276 L 80 275 Q 86 275 90 278 Q 94 281 210 451 L 239 508 Z"></path>
      </clipPath>
      <path clip-path="url(#make-me-a-hanzi-clip-0)" d="M 306 778 L 305 752 L 213 512 L 169 429 L 83 302 L 82 286" fill="none" id="make-me-a-hanzi-animation-0" stroke-dasharray="674 1348" stroke-linecap="round"></path>
    
      <clipPath id="make-me-a-hanzi-clip-1">
        <path d="M 218 -86 Q 225 -86 235 -79 Q 244 -67 244 -51 Q 244 9 246 69 Q 248 214 248 359 L 255 477 L 252 492 L 239 508 C 220 531 212 481 210 451 Q 201 297 200 -4 L 197 -48 Q 197 -70 203 -79 L 214 -85 L 218 -86 Z"></path>
      </clipPath>
      <path clip-path="url(#make-me-a-hanzi-clip-1)" d="M 237 500 L 242 490 L 230 434 L 226 361 L 219 -73" fill="none" id="make-me-a-hanzi-animation-1" stroke-dasharray="704 1408" stroke-linecap="round"></path>
    
      <clipPath id="make-me-a-hanzi-clip-2">
        <path d="M 383 608 Q 630 655 862 684 Q 869 687 873.5 692 Q 878 697 878 698 L 878 713 Q 878 722 861 727 Q 611 698 377 652 Q 372 651 369 647.5 Q 366 644 364.5 641.5 Q 363 639 362 639 Q 362 622 365 619.5 Q 368 617 372.5 614.5 Q 377 612 383 608 Z"></path>
      </clipPath>
      <path clip-path="url(#make-me-a-hanzi-clip-2)" d="M 371 633 L 862 706" fill="none" id="make-me-a-hanzi-animation-2" stroke-dasharray="624 1248" stroke-linecap="round"></path>
    
      <clipPath id="make-me-a-hanzi-clip-3">
        <path d="M 422 327 Q 616 363 810 377 Q 815 384 818.5 387 Q 822 390 822 405 Q 822 413 805 419 Q 613 406 422 371 Q 410 364 405 353 L 405 341 Q 406 332 422 327 Z"></path>
      </clipPath>
      <path clip-path="url(#make-me-a-hanzi-clip-3)" d="M 424 347 L 570 374 L 805 400" fill="none" id="make-me-a-hanzi-animation-3" stroke-dasharray="513 1026" stroke-linecap="round"></path>
    
      <clipPath id="make-me-a-hanzi-clip-4">
        <path d="M 328 -4 Q 408 13 482 15 Q 560 17 635 25 Q 754 35 855 38 Q 919 38 928 40 Q 936 46 942 55 Q 943 55 943 69 L 938 76 Q 932 82 928 83 Q 820 83 771 79 Q 736 75 633 69 Q 555 62 475.5 59 Q 396 56 315 34 L 310 19 L 315 5 L 328 -4 Z"></path>
      </clipPath>
      <path clip-path="url(#make-me-a-hanzi-clip-4)" d="M 326 22 L 348 20 L 441 35 L 843 61 L 916 62 L 923 53" fill="none" id="make-me-a-hanzi-animation-4" stroke-dasharray="732 1464" stroke-linecap="round"></path>
    
  </g>
</svg>