<svg version="1.1" viewBox="0 0 1024 1024" xmlns="http://www.w3.org/2000/svg">
  <!-- <g stroke="lightgray" stroke-width="4"
     transform="scale(4, 4)">
    <line x1="0" y1="0" x2="256" y2="0"></line>
    <line x1="0" y1="0" x2="0" y2="256"></line>
    <line x1="256" y1="0" x2="256" y2="256"></line>
    <line x1="0" y1="256" x2="256" y2="256"></line>
  </g>        -->
  <g transform="scale(0.92, -0.92) translate(60, -830)">
    <style type="text/css">
      
        @keyframes keyframes0 {
          from {
            stroke: black;
            stroke-dashoffset: 754;
            stroke-width: 128;
          }
          71% {
            animation-timing-function: step-end;
            stroke: black;
            stroke-dashoffset: 0;
            stroke-width: 128;
          }
          to {
            stroke: black;
            stroke-width: 151;
          }
        }
        #make-me-a-hanzi-animation-0 {
          animation: keyframes0 0.8636067708333334s both;
          animation-delay: 0s;
          animation-timing-function: linear;
        }
      
        @keyframes keyframes1 {
          from {
            stroke: black;
            stroke-dashoffset: 860;
            stroke-width: 128;
          }
          74% {
            animation-timing-function: step-end;
            stroke: black;
            stroke-dashoffset: 0;
            stroke-width: 128;
          }
          to {
            stroke: black;
            stroke-width: 151;
          }
        }
        #make-me-a-hanzi-animation-1 {
          animation: keyframes1 0.9498697916666666s both;
          animation-delay: 0.8636067708333334s;
          animation-timing-function: linear;
        }
      
        @keyframes keyframes2 {
          from {
            stroke: black;
            stroke-dashoffset: 858;
            stroke-width: 128;
          }
          74% {
            animation-timing-function: step-end;
            stroke: black;
            stroke-dashoffset: 0;
            stroke-width: 128;
          }
          to {
            stroke: black;
            stroke-width: 151;
          }
        }
        #make-me-a-hanzi-animation-2 {
          animation: keyframes2 0.9482421875s both;
          animation-delay: 1.8134765625s;
          animation-timing-function: linear;
        }
      
        @keyframes keyframes3 {
          from {
            stroke: black;
            stroke-dashoffset: 485;
            stroke-width: 128;
          }
          61% {
            animation-timing-function: step-end;
            stroke: black;
            stroke-dashoffset: 0;
            stroke-width: 128;
          }
          to {
            stroke: black;
            stroke-width: 151;
          }
        }
        #make-me-a-hanzi-animation-3 {
          animation: keyframes3 0.6446940104166666s both;
          animation-delay: 2.76171875s;
          animation-timing-function: linear;
        }
      
        @keyframes keyframes4 {
          from {
            stroke: black;
            stroke-dashoffset: 1073;
            stroke-width: 128;
          }
          78% {
            animation-timing-function: step-end;
            stroke: black;
            stroke-dashoffset: 0;
            stroke-width: 128;
          }
          to {
            stroke: black;
            stroke-width: 151;
          }
        }
        #make-me-a-hanzi-animation-4 {
          animation: keyframes4 1.1232096354166667s both;
          animation-delay: 3.4064127604166665s;
          animation-timing-function: linear;
        }
      
        @keyframes keyframes5 {
          from {
            stroke: black;
            stroke-dashoffset: 841;
            stroke-width: 128;
          }
          73% {
            animation-timing-function: step-end;
            stroke: black;
            stroke-dashoffset: 0;
            stroke-width: 128;
          }
          to {
            stroke: black;
            stroke-width: 151;
          }
        }
        #make-me-a-hanzi-animation-5 {
          animation: keyframes5 0.9344075520833334s both;
          animation-delay: 4.529622395833333s;
          animation-timing-function: linear;
        }
      
    </style>
    
      <path d="M 233 538 Q 253 598 277 652 Q 316 742 316 777 Q 311 790 303 791 Q 289 791 283 787 Q 241 673 189.5 558.5 Q 138 444 63 345 L 63 332 Q 64 328 70 325 Q 75 319 78 318 L 89 318 Q 120 346 143 385.5 Q 166 425 207 473 L 233 538 Z" fill="lightgray"></path>
    
      <path d="M 233 -88 Q 241 -87 246 -73 Q 244 -44 244 -13 Q 244 19 240 48 L 240 178 Q 244 228 245 279 Q 246 329 251 380 L 253 505 Q 253 518 248 528 L 233 538 C 209 555 207 503 207 473 Q 207 380 197 178 L 197 48 L 205 -74 Q 206 -77 211 -82 Q 215 -87 218 -88 L 233 -88 Z" fill="lightgray"></path>
    
      <path d="M 643 518 Q 784 663 843 718 L 843 731 Q 842 734 837 739 Q 832 744 830 745 Q 725 735 620 720 Q 515 704 410 690 Q 398 686 396 677 Q 396 664 400 655 L 417 646 Q 577 670 727 689 L 743 684 L 606 549 C 585 528 622 497 643 518 Z" fill="lightgray"></path>
    
      <path d="M 676 448 Q 688 457 693 466 Q 693 478 688 485 Q 661 510 643 518 L 606 549 L 556 588 Q 528 605 505 615 L 487 615 Q 475 611 474 601 Q 474 587 478 580 Q 496 566 506 564 Q 571 526 636 471 L 664 448 L 676 448 Z" fill="lightgray"></path>
    
      <path d="M 651 369 Q 740 380 832 395 L 854 391 Q 790 323 693 239 L 693 227 Q 694 224 700 219 Q 704 214 707 213 L 722 213 Q 823 287 933 412 L 933 431 Q 928 441 918 445 Q 609 415 336 360 Q 318 350 317 345 Q 317 328 320 325 L 338 315 Q 578 363 606 363 L 651 369 Z" fill="lightgray"></path>
    
      <path d="M 620 -88 L 637 -81 Q 648 -68 650 -51 Q 651 -33 654 -14 L 654 62 Q 650 160 649 257 L 651 369 C 652 399 607 393 606 363 L 605 328 Q 606 139 609 62 Q 609 -14 606 -35 Q 527 -12 488 10 Q 477 10 469 6 L 460 -11 L 468 -30 Q 507 -50 554 -65 Q 589 -76 620 -88 Z" fill="lightgray"></path>
    
    
      <clipPath id="make-me-a-hanzi-clip-0">
        <path d="M 233 538 Q 253 598 277 652 Q 316 742 316 777 Q 311 790 303 791 Q 289 791 283 787 Q 241 673 189.5 558.5 Q 138 444 63 345 L 63 332 Q 64 328 70 325 Q 75 319 78 318 L 89 318 Q 120 346 143 385.5 Q 166 425 207 473 L 233 538 Z"></path>
      </clipPath>
      <path clip-path="url(#make-me-a-hanzi-clip-0)" d="M 292 776 L 296 766 L 282 720 L 186 489 L 83 340 L 84 332" fill="none" id="make-me-a-hanzi-animation-0" stroke-dasharray="626 1252" stroke-linecap="round"></path>
    
      <clipPath id="make-me-a-hanzi-clip-1">
        <path d="M 233 -88 Q 241 -87 246 -73 Q 244 -44 244 -13 Q 244 19 240 48 L 240 178 Q 244 228 245 279 Q 246 329 251 380 L 253 505 Q 253 518 248 528 L 233 538 C 209 555 207 503 207 473 Q 207 380 197 178 L 197 48 L 205 -74 Q 206 -77 211 -82 Q 215 -87 218 -88 L 233 -88 Z"></path>
      </clipPath>
      <path clip-path="url(#make-me-a-hanzi-clip-1)" d="M 233 530 L 239 519 L 229 457 L 218 171 L 226 -71" fill="none" id="make-me-a-hanzi-animation-1" stroke-dasharray="732 1464" stroke-linecap="round"></path>
    
      <clipPath id="make-me-a-hanzi-clip-2">
        <path d="M 643 518 Q 784 663 843 718 L 843 731 Q 842 734 837 739 Q 832 744 830 745 Q 725 735 620 720 Q 515 704 410 690 Q 398 686 396 677 Q 396 664 400 655 L 417 646 Q 577 670 727 689 L 743 684 L 606 549 C 585 528 622 497 643 518 Z"></path>
      </clipPath>
      <path clip-path="url(#make-me-a-hanzi-clip-2)" d="M 410 663 L 418 670 L 720 711 L 751 710 L 775 701 L 764 672 L 665 572 L 641 551 L 615 550" fill="none" id="make-me-a-hanzi-animation-2" stroke-dasharray="730 1460" stroke-linecap="round"></path>
    
      <clipPath id="make-me-a-hanzi-clip-3">
        <path d="M 676 448 Q 688 457 693 466 Q 693 478 688 485 Q 661 510 643 518 L 606 549 L 556 588 Q 528 605 505 615 L 487 615 Q 475 611 474 601 Q 474 587 478 580 Q 496 566 506 564 Q 571 526 636 471 L 664 448 L 676 448 Z"></path>
      </clipPath>
      <path clip-path="url(#make-me-a-hanzi-clip-3)" d="M 490 599 L 538 572 L 679 470" fill="none" id="make-me-a-hanzi-animation-3" stroke-dasharray="357 714" stroke-linecap="round"></path>
    
      <clipPath id="make-me-a-hanzi-clip-4">
        <path d="M 651 369 Q 740 380 832 395 L 854 391 Q 790 323 693 239 L 693 227 Q 694 224 700 219 Q 704 214 707 213 L 722 213 Q 823 287 933 412 L 933 431 Q 928 441 918 445 Q 609 415 336 360 Q 318 350 317 345 Q 317 328 320 325 L 338 315 Q 578 363 606 363 L 651 369 Z"></path>
      </clipPath>
      <path clip-path="url(#make-me-a-hanzi-clip-4)" d="M 330 332 L 340 339 L 605 386 L 829 416 L 884 408 L 876 383 L 811 315 L 715 232 L 708 233" fill="none" id="make-me-a-hanzi-animation-4" stroke-dasharray="945 1890" stroke-linecap="round"></path>
    
      <clipPath id="make-me-a-hanzi-clip-5">
        <path d="M 620 -88 L 637 -81 Q 648 -68 650 -51 Q 651 -33 654 -14 L 654 62 Q 650 160 649 257 L 651 369 C 652 399 607 393 606 363 L 605 328 Q 606 139 609 62 Q 609 -14 606 -35 Q 527 -12 488 10 Q 477 10 469 6 L 460 -11 L 468 -30 Q 507 -50 554 -65 Q 589 -76 620 -88 Z"></path>
      </clipPath>
      <path clip-path="url(#make-me-a-hanzi-clip-5)" d="M 644 362 L 628 343 L 626 317 L 632 -6 L 625 -52 L 619 -59 L 609 -59 L 472 -12" fill="none" id="make-me-a-hanzi-animation-5" stroke-dasharray="713 1426" stroke-linecap="round"></path>
    
  </g>
</svg>