<svg xmlns="http://www.w3.org/2000/svg" version="1.1" viewBox="0 0 1024 1024">
  <g transform="scale(1.0, -1.0) translate(23.50, -892.00)">
    <style type="text/css">
      
        @keyframes keyframes0 {
          from {
            stroke: black;
            stroke-dashoffset: 772;
            stroke-width: 128;
          }
          72% {
            animation-timing-function: step-end;
            stroke: black;
            stroke-dashoffset: 0;
            stroke-width: 128;
          }
          to {
            stroke: black;
            stroke-width: 1024;
          }
        }
        #make-me-a-hanzi-animation-0 {
          animation: keyframes0 0.8782552083333334s both;
          animation-delay: 0s;
          animation-timing-function: linear;
        }
      
        @keyframes keyframes1 {
          from {
            stroke: black;
            stroke-dashoffset: 957;
            stroke-width: 128;
          }
          76% {
            animation-timing-function: step-end;
            stroke: black;
            stroke-dashoffset: 0;
            stroke-width: 128;
          }
          to {
            stroke: black;
            stroke-width: 1024;
          }
        }
        #make-me-a-hanzi-animation-1 {
          animation: keyframes1 1.02880859375s both;
          animation-delay: 0.8782552083333334s;
          animation-timing-function: linear;
        }
      
        @keyframes keyframes2 {
          from {
            stroke: black;
            stroke-dashoffset: 475;
            stroke-width: 128;
          }
          61% {
            animation-timing-function: step-end;
            stroke: black;
            stroke-dashoffset: 0;
            stroke-width: 128;
          }
          to {
            stroke: black;
            stroke-width: 1024;
          }
        }
        #make-me-a-hanzi-animation-2 {
          animation: keyframes2 0.6365559895833334s both;
          animation-delay: 1.9070638020833335s;
          animation-timing-function: linear;
        }
      
        @keyframes keyframes3 {
          from {
            stroke: black;
            stroke-dashoffset: 495;
            stroke-width: 128;
          }
          62% {
            animation-timing-function: step-end;
            stroke: black;
            stroke-dashoffset: 0;
            stroke-width: 128;
          }
          to {
            stroke: black;
            stroke-width: 1024;
          }
        }
        #make-me-a-hanzi-animation-3 {
          animation: keyframes3 0.65283203125s both;
          animation-delay: 2.543619791666667s;
          animation-timing-function: linear;
        }
      
        @keyframes keyframes4 {
          from {
            stroke: black;
            stroke-dashoffset: 528;
            stroke-width: 128;
          }
          63% {
            animation-timing-function: step-end;
            stroke: black;
            stroke-dashoffset: 0;
            stroke-width: 128;
          }
          to {
            stroke: black;
            stroke-width: 1024;
          }
        }
        #make-me-a-hanzi-animation-4 {
          animation: keyframes4 0.6796875s both;
          animation-delay: 3.196451822916667s;
          animation-timing-function: linear;
        }
      
        @keyframes keyframes5 {
          from {
            stroke: black;
            stroke-dashoffset: 966;
            stroke-width: 128;
          }
          76% {
            animation-timing-function: step-end;
            stroke: black;
            stroke-dashoffset: 0;
            stroke-width: 128;
          }
          to {
            stroke: black;
            stroke-width: 1024;
          }
        }
        #make-me-a-hanzi-animation-5 {
          animation: keyframes5 1.0361328125s both;
          animation-delay: 3.876139322916667s;
          animation-timing-function: linear;
        }
      
        @keyframes keyframes6 {
          from {
            stroke: black;
            stroke-dashoffset: 486;
            stroke-width: 128;
          }
          61% {
            animation-timing-function: step-end;
            stroke: black;
            stroke-dashoffset: 0;
            stroke-width: 128;
          }
          to {
            stroke: black;
            stroke-width: 1024;
          }
        }
        #make-me-a-hanzi-animation-6 {
          animation: keyframes6 0.6455078125s both;
          animation-delay: 4.912272135416667s;
          animation-timing-function: linear;
        }
      
        @keyframes keyframes7 {
          from {
            stroke: black;
            stroke-dashoffset: 576;
            stroke-width: 128;
          }
          65% {
            animation-timing-function: step-end;
            stroke: black;
            stroke-dashoffset: 0;
            stroke-width: 128;
          }
          to {
            stroke: black;
            stroke-width: 1024;
          }
        }
        #make-me-a-hanzi-animation-7 {
          animation: keyframes7 0.71875s both;
          animation-delay: 5.557779947916667s;
          animation-timing-function: linear;
        }
      
        @keyframes keyframes8 {
          from {
            stroke: black;
            stroke-dashoffset: 535;
            stroke-width: 128;
          }
          64% {
            animation-timing-function: step-end;
            stroke: black;
            stroke-dashoffset: 0;
            stroke-width: 128;
          }
          to {
            stroke: black;
            stroke-width: 1024;
          }
        }
        #make-me-a-hanzi-animation-8 {
          animation: keyframes8 0.6853841145833334s both;
          animation-delay: 6.276529947916667s;
          animation-timing-function: linear;
        }
      
        @keyframes keyframes9 {
          from {
            stroke: black;
            stroke-dashoffset: 920;
            stroke-width: 128;
          }
          75% {
            animation-timing-function: step-end;
            stroke: black;
            stroke-dashoffset: 0;
            stroke-width: 128;
          }
          to {
            stroke: black;
            stroke-width: 1024;
          }
        }
        #make-me-a-hanzi-animation-9 {
          animation: keyframes9 0.9986979166666666s both;
          animation-delay: 6.9619140625s;
          animation-timing-function: linear;
        }
      
    </style>
    
      <path d="M 280 831 Q 251 753 209.5 677 Q 168 601 120 535 Q 72 469 20 418 Q 25 414 31 405 Q 37 396 42 387.5 Q 47 379 50 374 Q 104 429 154.5 500 Q 205 571 249 652 Q 293 733 326 817 L 280 831 Z" fill="lightgray" />
    
      <path d="M 172 584 L 217 630 L 218 629 L 218 -72 L 172 -72 L 172 584 Z" fill="lightgray" />
    
      <path d="M 500 835 Q 491 806 477 770 Q 463 734 448 699 Q 433 664 418 638 L 457 623 Q 479 660 503 715 Q 527 770 548 817 L 500 835 Z" fill="lightgray" />
    
      <path d="M 299 603 L 299 557 L 598 557 L 598 603 L 299 603 Z" fill="lightgray" />
    
      <path d="M 273 305 L 273 258 L 599 258 L 599 305 L 273 305 Z" fill="lightgray" />
    
      <path d="M 442 590 L 490 590 L 490 368 Q 490 317 484 259 Q 478 201 459 141.5 Q 440 82 401 26.5 Q 362 -29 295 -75 Q 292 -70 286.5 -63.5 Q 281 -57 275 -50.5 Q 269 -44 263 -40 Q 326 2 362.5 53 Q 399 104 416 159 Q 433 214 437.5 268 Q 442 322 442 368 L 442 590 Z" fill="lightgray" />
    
      <path d="M 801 835 Q 788 806 770 769.5 Q 752 733 732.5 698.5 Q 713 664 696 638 L 734 620 Q 761 658 792 712 Q 823 766 848 815 L 801 835 Z" fill="lightgray" />
    
      <path d="M 620 603 L 620 557 L 944 557 L 944 603 L 620 603 Z" fill="lightgray" />
    
      <path d="M 622 305 L 622 258 L 957 258 L 957 305 L 622 305 Z" fill="lightgray" />
    
      <path d="M 732 592 L 780 592 L 780 -73 L 732 -73 L 732 592 Z" fill="lightgray" />
    
    
      <clipPath id="make-me-a-hanzi-clip-0">
        <path d="M 280 831 Q 251 753 209.5 677 Q 168 601 120 535 Q 72 469 20 418 Q 25 414 31 405 Q 37 396 42 387.5 Q 47 379 50 374 Q 104 429 154.5 500 Q 205 571 249 652 Q 293 733 326 817 L 280 831 Z" />
      </clipPath>
      <path clip-path="url(#make-me-a-hanzi-clip-0)" d="M 318 812 L 293 801 L 218 643 L 131 507 L 54 414 L 50 383" fill="none" id="make-me-a-hanzi-animation-0" stroke-dasharray="644 1288" stroke-linecap="round" />
    
      <clipPath id="make-me-a-hanzi-clip-1">
        <path d="M 172 584 L 217 630 L 218 629 L 218 -72 L 172 -72 L 172 584 Z" />
      </clipPath>
      <path clip-path="url(#make-me-a-hanzi-clip-1)" d="M 213 625 L 216 621 L 195 573 L 195 -49 L 180 -64" fill="none" id="make-me-a-hanzi-animation-1" stroke-dasharray="829 1658" stroke-linecap="round" />
    
      <clipPath id="make-me-a-hanzi-clip-2">
        <path d="M 500 835 Q 491 806 477 770 Q 463 734 448 699 Q 433 664 418 638 L 457 623 Q 479 660 503 715 Q 527 770 548 817 L 500 835 Z" />
      </clipPath>
      <path clip-path="url(#make-me-a-hanzi-clip-2)" d="M 540 813 L 515 803 L 455 661 L 448 649 L 426 640" fill="none" id="make-me-a-hanzi-animation-2" stroke-dasharray="347 694" stroke-linecap="round" />
    
      <clipPath id="make-me-a-hanzi-clip-3">
        <path d="M 299 603 L 299 557 L 598 557 L 598 603 L 299 603 Z" />
      </clipPath>
      <path clip-path="url(#make-me-a-hanzi-clip-3)" d="M 329 580 L 568 580" fill="none" id="make-me-a-hanzi-animation-3" stroke-dasharray="367 734" stroke-linecap="round" />
    
      <clipPath id="make-me-a-hanzi-clip-4">
        <path d="M 273 305 L 273 258 L 599 258 L 599 305 L 273 305 Z" />
      </clipPath>
      <path clip-path="url(#make-me-a-hanzi-clip-4)" d="M 300 282 L 572 282" fill="none" id="make-me-a-hanzi-animation-4" stroke-dasharray="400 800" stroke-linecap="round" />
    
      <clipPath id="make-me-a-hanzi-clip-5">
        <path d="M 442 590 L 490 590 L 490 368 Q 490 317 484 259 Q 478 201 459 141.5 Q 440 82 401 26.5 Q 362 -29 295 -75 Q 292 -70 286.5 -63.5 Q 281 -57 275 -50.5 Q 269 -44 263 -40 Q 326 2 362.5 53 Q 399 104 416 159 Q 433 214 437.5 268 Q 442 322 442 368 L 442 590 Z" />
      </clipPath>
      <path clip-path="url(#make-me-a-hanzi-clip-5)" d="M 448 582 L 466 565 L 466 332 L 448 184 L 421 105 L 371 24 L 300 -43 L 273 -40" fill="none" id="make-me-a-hanzi-animation-5" stroke-dasharray="838 1676" stroke-linecap="round" />
    
      <clipPath id="make-me-a-hanzi-clip-6">
        <path d="M 801 835 Q 788 806 770 769.5 Q 752 733 732.5 698.5 Q 713 664 696 638 L 734 620 Q 761 658 792 712 Q 823 766 848 815 L 801 835 Z" />
      </clipPath>
      <path clip-path="url(#make-me-a-hanzi-clip-6)" d="M 840 812 L 813 803 L 727 647 L 705 640" fill="none" id="make-me-a-hanzi-animation-6" stroke-dasharray="358 716" stroke-linecap="round" />
    
      <clipPath id="make-me-a-hanzi-clip-7">
        <path d="M 620 603 L 620 557 L 944 557 L 944 603 L 620 603 Z" />
      </clipPath>
      <path clip-path="url(#make-me-a-hanzi-clip-7)" d="M 628 565 L 643 580 L 921 580 L 936 565" fill="none" id="make-me-a-hanzi-animation-7" stroke-dasharray="448 896" stroke-linecap="round" />
    
      <clipPath id="make-me-a-hanzi-clip-8">
        <path d="M 622 305 L 622 258 L 957 258 L 957 305 L 622 305 Z" />
      </clipPath>
      <path clip-path="url(#make-me-a-hanzi-clip-8)" d="M 650 281 L 929 281" fill="none" id="make-me-a-hanzi-animation-8" stroke-dasharray="407 814" stroke-linecap="round" />
    
      <clipPath id="make-me-a-hanzi-clip-9">
        <path d="M 732 592 L 780 592 L 780 -73 L 732 -73 L 732 592 Z" />
      </clipPath>
      <path clip-path="url(#make-me-a-hanzi-clip-9)" d="M 738 584 L 756 567 L 756 -33 L 754 -49 L 738 -65" fill="none" id="make-me-a-hanzi-animation-9" stroke-dasharray="792 1584" stroke-linecap="round" />
    
  </g>
</svg>