<?xml version="1.0" standalone="no"?>
<!DOCTYPE svg PUBLIC "-//W3C//DTD SVG 1.1//EN"   "http://www.w3.org/Graphics/SVG/1.1/DTD/svg11.dtd">
<svg width="400px" height="400px"  version="1.1" xmlns="http://www.w3.org/2000/svg">
  <defs>
    <marker id="Triangle" viewBox="0 0 10 10" refX="0" refY="5" markerUnits="strokeWidth" markerWidth="3" style="stroke-opacity:0%;fill:#aaaaaa;" markerHeight="2" orient="auto">
      <path d="M 0 0 L 10 5 L 0 10 z" />
    </marker>
    
    <marker id="Arrow" viewBox="0 0 10 10" refX="5" refY="5" markerUnits="strokeWidth" markerWidth="1.8" style="stroke-opacity:0%;fill:#770000;" markerHeight="2" orient="auto">
      <path d="M 0 4 L 6 4 L 4 1 L 10 5 L 4 9 L 6 6 L 0 6 z" />
        <circle cx="5" cy="5" r="5" />
      </marker>
    
    <marker id="TriangleRed" viewBox="0 0 10 10" refX="0" refY="5" markerUnits="strokeWidth" markerWidth="3" style="stroke-opacity:0%;fill:#CC0000;" markerHeight="2" orient="auto">
      <path d="M 0 0 L 10 5 L 0 10 z" />
    </marker>
    
    <marker id="ArrowRed" viewBox="0 0 10 10" refX="5" refY="5" markerUnits="strokeWidth" markerWidth="1.8" style="stroke-opacity:0%;fill:#CC0000;" markerHeight="2" orient="auto">
      <path d="M 0 4 L 6 4 L 4 1 L 10 5 L 4 9 L 6 6 L 0 6 z" />
        <circle cx="5" cy="5" r="5" />
      </marker>
    
  </defs>
  
  <path style="fill:#ffffff; fill-opacity:100%; fill-rule:evenodd; stroke-width:0;" d="M 0 0 L 400px 0 L 400px 400px L 0 400px L 0 0" />

  <g transform="scale(3.6697247706422 3.6697247706422)">
<path style="fill:none; fill-opacity:0%; fill-rule:evenodd; stroke:#aaaaaa; stroke-opacity:100%; stroke-width: 1.5pt; stroke-linejoin:round; stroke-linecap:round;" d="M9.25 32.79c0.37 0.51 0.76 0.94 0.92 1.58c1.29 5.07 2.84 19.04 3.73 28.13"></path>
<path style="fill:none; fill-opacity:0%; fill-rule:evenodd; stroke:#aaaaaa; stroke-opacity:100%; stroke-width: 1.5pt; stroke-linejoin:round; stroke-linecap:round;" d="M11.58 35.22C21 33 27.62 32.16 31.99 31.49c1.6-0.24 2.56 1.44 2.33 2.87c-0.95 5.92-3.05 13.57-4.46 21.75"></path>
<path style="fill:none; fill-opacity:0%; fill-rule:evenodd; stroke:#aaaaaa; stroke-opacity:100%; stroke-width: 1.5pt; stroke-linejoin:round; stroke-linecap:round;" d="M14.07 59.05c5.14-0.75 11.33-1.05 18.39-2.21"></path>
<path style="fill:none; fill-opacity:0%; fill-rule:evenodd; stroke:#aaaaaa; stroke-opacity:100%; stroke-width: 1.5pt; stroke-linejoin:round; stroke-linecap:round;" d="M64.49 12c0.88 0.36 2.15 2.12 2.13 3.15c-0.07 3.26-0.07 10.95-0.07 13.92"></path>
<path style="fill:none; fill-opacity:0%; fill-rule:evenodd; stroke:#aaaaaa; stroke-opacity:100%; stroke-width: 1.5pt; stroke-linejoin:round; stroke-linecap:round;" d="M44.58 29.34c0 3.98-2.92 14.92-4.24 17.58"></path>
<path style="fill:none; fill-opacity:0%; fill-rule:evenodd; stroke:#aaaaaa; stroke-opacity:100%; stroke-width: 1.5pt; stroke-linejoin:round; stroke-linecap:round;" d="M44.45 31.89c6.45-0.19 40.07-4.52 45.26-4.52c9.45 0 2.1 6.93 0.08 8.7"></path>
<path style="fill:none; fill-opacity:0%; fill-rule:evenodd; stroke:#aaaaaa; stroke-opacity:100%; stroke-width: 1.5pt; stroke-linejoin:round; stroke-linecap:round;" d="M78.85 33.69c0.09 0.47-0.17 2.56-0.67 3.09c-6.17 6.63-14.79 12.01-30.87 17.35"></path>
<path style="fill:none; fill-opacity:0%; fill-rule:evenodd; stroke:#aaaaaa; stroke-opacity:100%; stroke-width: 1.5pt; stroke-linejoin:round; stroke-linecap:round;" d="M41.15 68.13c1.09 0.47 3.1 0.59 4.2 0.47c12.68-1.36 35.41-7.83 45.77-9.24c1.81-0.25 2.92-0.25 3.83-0.01"></path>
<path style="fill:none; fill-opacity:0%; fill-rule:evenodd; stroke:#aaaaaa; stroke-opacity:100%; stroke-width: 1.5pt; stroke-linejoin:round; stroke-linecap:round;" d="M64.11 50.4c0.6 0.95 1.4 2.99 1.4 4.28c0 4.02-0.29 25.21-0.29 29.16c0 10.48 2.2 11.91 17.07 11.91c16.34 0 13.77-4.51 13.77-11.25"></path>

<path style="fill:none; fill-opacity:0%; fill-rule:evenodd; stroke:#000000; stroke-opacity:100%; stroke-width: 2.7pt; stroke-linejoin:round; stroke-linecap:round;" d="M9.25 32.79c0.37 0.51 0.76 0.94 0.92 1.58c1.29 5.07 2.84 19.04 3.73 28.13" pathLength="100" stroke-dashoffset="100" stroke-dasharray="100 105"><animate id="dashAnim1" attributeName="stroke-dashoffset" from="100" to="0" dur="1s" calcMode="linear" fill="freeze"/></path>
<path style="fill:none; fill-opacity:0%; fill-rule:evenodd; stroke:#000000; stroke-opacity:100%; stroke-width: 2.7pt; stroke-linejoin:round; stroke-linecap:round;" d="M11.58 35.22C21 33 27.62 32.16 31.99 31.49c1.6-0.24 2.56 1.44 2.33 2.87c-0.95 5.92-3.05 13.57-4.46 21.75" pathLength="100" stroke-dashoffset="100" stroke-dasharray="100 105"><animate id="dashAnim2" attributeName="stroke-dashoffset" from="100" to="0" dur="1s" calcMode="linear" begin="dashAnim1.end" fill="freeze"/></path>
<path style="fill:none; fill-opacity:0%; fill-rule:evenodd; stroke:#000000; stroke-opacity:100%; stroke-width: 2.7pt; stroke-linejoin:round; stroke-linecap:round;" d="M14.07 59.05c5.14-0.75 11.33-1.05 18.39-2.21" pathLength="100" stroke-dashoffset="100" stroke-dasharray="100 105"><animate id="dashAnim3" attributeName="stroke-dashoffset" from="100" to="0" dur="1s" calcMode="linear" begin="dashAnim2.end" fill="freeze"/></path>
<path style="fill:none; fill-opacity:0%; fill-rule:evenodd; stroke:#000000; stroke-opacity:100%; stroke-width: 2.7pt; stroke-linejoin:round; stroke-linecap:round;" d="M64.49 12c0.88 0.36 2.15 2.12 2.13 3.15c-0.07 3.26-0.07 10.95-0.07 13.92" pathLength="100" stroke-dashoffset="100" stroke-dasharray="100 105"><animate id="dashAnim4" attributeName="stroke-dashoffset" from="100" to="0" dur="1s" calcMode="linear" begin="dashAnim3.end" fill="freeze"/></path>
<path style="fill:none; fill-opacity:0%; fill-rule:evenodd; stroke:#000000; stroke-opacity:100%; stroke-width: 2.7pt; stroke-linejoin:round; stroke-linecap:round;" d="M44.58 29.34c0 3.98-2.92 14.92-4.24 17.58" pathLength="100" stroke-dashoffset="100" stroke-dasharray="100 105"><animate id="dashAnim5" attributeName="stroke-dashoffset" from="100" to="0" dur="1s" calcMode="linear" begin="dashAnim4.end" fill="freeze"/></path>
<path style="fill:none; fill-opacity:0%; fill-rule:evenodd; stroke:#000000; stroke-opacity:100%; stroke-width: 2.7pt; stroke-linejoin:round; stroke-linecap:round;" d="M44.45 31.89c6.45-0.19 40.07-4.52 45.26-4.52c9.45 0 2.1 6.93 0.08 8.7" pathLength="100" stroke-dashoffset="100" stroke-dasharray="100 105"><animate id="dashAnim6" attributeName="stroke-dashoffset" from="100" to="0" dur="1s" calcMode="linear" begin="dashAnim5.end" fill="freeze"/></path>
<path style="fill:none; fill-opacity:0%; fill-rule:evenodd; stroke:#000000; stroke-opacity:100%; stroke-width: 2.7pt; stroke-linejoin:round; stroke-linecap:round;" d="M78.85 33.69c0.09 0.47-0.17 2.56-0.67 3.09c-6.17 6.63-14.79 12.01-30.87 17.35" pathLength="100" stroke-dashoffset="100" stroke-dasharray="100 105"><animate id="dashAnim7" attributeName="stroke-dashoffset" from="100" to="0" dur="1s" calcMode="linear" begin="dashAnim6.end" fill="freeze"/></path>
<path style="fill:none; fill-opacity:0%; fill-rule:evenodd; stroke:#000000; stroke-opacity:100%; stroke-width: 2.7pt; stroke-linejoin:round; stroke-linecap:round;" d="M41.15 68.13c1.09 0.47 3.1 0.59 4.2 0.47c12.68-1.36 35.41-7.83 45.77-9.24c1.81-0.25 2.92-0.25 3.83-0.01" pathLength="100" stroke-dashoffset="100" stroke-dasharray="100 105"><animate id="dashAnim8" attributeName="stroke-dashoffset" from="100" to="0" dur="1s" calcMode="linear" begin="dashAnim7.end" fill="freeze"/></path>
<path style="fill:none; fill-opacity:0%; fill-rule:evenodd; stroke:#000000; stroke-opacity:100%; stroke-width: 2.7pt; stroke-linejoin:round; stroke-linecap:round;" d="M64.11 50.4c0.6 0.95 1.4 2.99 1.4 4.28c0 4.02-0.29 25.21-0.29 29.16c0 10.48 2.2 11.91 17.07 11.91c16.34 0 13.77-4.51 13.77-11.25" pathLength="100" stroke-dashoffset="100" stroke-dasharray="100 105"><animate id="dashAnim9" attributeName="stroke-dashoffset" from="100" to="0" dur="1s" calcMode="linear" begin="dashAnim8.end" fill="freeze"/></path>

</g>

</svg>  
          
