<?xml version="1.0" standalone="no"?>
<!DOCTYPE svg PUBLIC "-//W3C//DTD SVG 1.1//EN"   "http://www.w3.org/Graphics/SVG/1.1/DTD/svg11.dtd">
<svg width="400px" height="400px"  version="1.1" xmlns="http://www.w3.org/2000/svg">
  <defs>
    <marker id="Triangle" viewBox="0 0 10 10" refX="0" refY="5" markerUnits="strokeWidth" markerWidth="3" style="stroke-opacity:0%;fill:#aaaaaa;" markerHeight="2" orient="auto">
      <path d="M 0 0 L 10 5 L 0 10 z" />
    </marker>
    
    <marker id="Arrow" viewBox="0 0 10 10" refX="5" refY="5" markerUnits="strokeWidth" markerWidth="1.8" style="stroke-opacity:0%;fill:#770000;" markerHeight="2" orient="auto">
      <path d="M 0 4 L 6 4 L 4 1 L 10 5 L 4 9 L 6 6 L 0 6 z" />
        <circle cx="5" cy="5" r="5" />
      </marker>
    
    <marker id="TriangleRed" viewBox="0 0 10 10" refX="0" refY="5" markerUnits="strokeWidth" markerWidth="3" style="stroke-opacity:0%;fill:#CC0000;" markerHeight="2" orient="auto">
      <path d="M 0 0 L 10 5 L 0 10 z" />
    </marker>
    
    <marker id="ArrowRed" viewBox="0 0 10 10" refX="5" refY="5" markerUnits="strokeWidth" markerWidth="1.8" style="stroke-opacity:0%;fill:#CC0000;" markerHeight="2" orient="auto">
      <path d="M 0 4 L 6 4 L 4 1 L 10 5 L 4 9 L 6 6 L 0 6 z" />
        <circle cx="5" cy="5" r="5" />
      </marker>
    
  </defs>
  
  <path style="fill:#ffffff; fill-opacity:100%; fill-rule:evenodd; stroke-width:0;" d="M 0 0 L 400px 0 L 400px 400px L 0 400px L 0 0" />

  <g transform="scale(3.6697247706422 3.6697247706422)">
<path style="fill:none; fill-opacity:0%; fill-rule:evenodd; stroke:#aaaaaa; stroke-opacity:100%; stroke-width: 1.5pt; stroke-linejoin:round; stroke-linecap:round;" d="M27.85 21.94c2.32 0.52 5.22 0.34 7.54 0.06c11.08-1.34 25.13-2.82 35.24-3.58c2.63-0.2 5.25-0.43 7.74-0.08"></path>
<path style="fill:none; fill-opacity:0%; fill-rule:evenodd; stroke:#aaaaaa; stroke-opacity:100%; stroke-width: 1.5pt; stroke-linejoin:round; stroke-linecap:round;" d="M52.82 8.25c0.71 0.86 0.62 1.97 0.55 3.01c-0.94 14.15-14.12 29.31-25.69 32.37"></path>
<path style="fill:none; fill-opacity:0%; fill-rule:evenodd; stroke:#aaaaaa; stroke-opacity:100%; stroke-width: 1.5pt; stroke-linejoin:round; stroke-linecap:round;" d="M53.75 23.75c7.31 3.89 15.78 10.19 20.25 16"></path>
<path style="fill:none; fill-opacity:0%; fill-rule:evenodd; stroke:#aaaaaa; stroke-opacity:100%; stroke-width: 1.5pt; stroke-linejoin:round; stroke-linecap:round;" d="M12.63 50.48c3.09 1.1 7.28 0.67 10.49 0.37c13.21-1.23 44.89-4.24 60.77-5.56c3.95-0.33 8.1-0.55 11.99 0.29"></path>
<path style="fill:none; fill-opacity:0%; fill-rule:evenodd; stroke:#aaaaaa; stroke-opacity:100%; stroke-width: 1.5pt; stroke-linejoin:round; stroke-linecap:round;" d="M30.88 62.88c0.72 0.75 1.11 1.65 1.18 2.7c0.69 3.03 1.42 7.94 2.01 12.4c0.21 1.61 0.4 3.15 0.57 4.53"></path>
<path style="fill:none; fill-opacity:0%; fill-rule:evenodd; stroke:#aaaaaa; stroke-opacity:100%; stroke-width: 1.5pt; stroke-linejoin:round; stroke-linecap:round;" d="M32.57 64.61c6.45-1.49 14.34-3 19.16-3.61c2.81-0.36 5.04-0.42 4.26 3.03c-0.77 3.44-1.38 7.15-2.62 11.92"></path>
<path style="fill:none; fill-opacity:0%; fill-rule:evenodd; stroke:#aaaaaa; stroke-opacity:100%; stroke-width: 1.5pt; stroke-linejoin:round; stroke-linecap:round;" d="M35.56 79.56c4.15-0.4 9.32-1.3 14.96-1.93c1.31-0.15 2.63-0.29 3.95-0.44"></path>
<path style="fill:none; fill-opacity:0%; fill-rule:evenodd; stroke:#aaaaaa; stroke-opacity:100%; stroke-width: 1.5pt; stroke-linejoin:round; stroke-linecap:round;" d="M72.21 49.83c1.04 1.04 1.51 2.67 1.51 4.77c0 14.56-0.01 33.94-0.01 38.9c0 10.12-7.96 2.62-11.21 0"></path>

<path style="fill:none; fill-opacity:0%; fill-rule:evenodd; stroke:#000000; stroke-opacity:100%; stroke-width: 2.7pt; stroke-linejoin:round; stroke-linecap:round;" d="M27.85 21.94c2.32 0.52 5.22 0.34 7.54 0.06c11.08-1.34 25.13-2.82 35.24-3.58c2.63-0.2 5.25-0.43 7.74-0.08" pathLength="100" stroke-dashoffset="100" stroke-dasharray="100 105"><animate id="dashAnim1" attributeName="stroke-dashoffset" from="100" to="0" dur="1s" calcMode="linear" fill="freeze"/></path>
<path style="fill:none; fill-opacity:0%; fill-rule:evenodd; stroke:#000000; stroke-opacity:100%; stroke-width: 2.7pt; stroke-linejoin:round; stroke-linecap:round;" d="M52.82 8.25c0.71 0.86 0.62 1.97 0.55 3.01c-0.94 14.15-14.12 29.31-25.69 32.37" pathLength="100" stroke-dashoffset="100" stroke-dasharray="100 105"><animate id="dashAnim2" attributeName="stroke-dashoffset" from="100" to="0" dur="1s" calcMode="linear" begin="dashAnim1.end" fill="freeze"/></path>
<path style="fill:none; fill-opacity:0%; fill-rule:evenodd; stroke:#000000; stroke-opacity:100%; stroke-width: 2.7pt; stroke-linejoin:round; stroke-linecap:round;" d="M53.75 23.75c7.31 3.89 15.78 10.19 20.25 16" pathLength="100" stroke-dashoffset="100" stroke-dasharray="100 105"><animate id="dashAnim3" attributeName="stroke-dashoffset" from="100" to="0" dur="1s" calcMode="linear" begin="dashAnim2.end" fill="freeze"/></path>
<path style="fill:none; fill-opacity:0%; fill-rule:evenodd; stroke:#000000; stroke-opacity:100%; stroke-width: 2.7pt; stroke-linejoin:round; stroke-linecap:round;" d="M12.63 50.48c3.09 1.1 7.28 0.67 10.49 0.37c13.21-1.23 44.89-4.24 60.77-5.56c3.95-0.33 8.1-0.55 11.99 0.29" pathLength="100" stroke-dashoffset="100" stroke-dasharray="100 105"><animate id="dashAnim4" attributeName="stroke-dashoffset" from="100" to="0" dur="1s" calcMode="linear" begin="dashAnim3.end" fill="freeze"/></path>
<path style="fill:none; fill-opacity:0%; fill-rule:evenodd; stroke:#000000; stroke-opacity:100%; stroke-width: 2.7pt; stroke-linejoin:round; stroke-linecap:round;" d="M30.88 62.88c0.72 0.75 1.11 1.65 1.18 2.7c0.69 3.03 1.42 7.94 2.01 12.4c0.21 1.61 0.4 3.15 0.57 4.53" pathLength="100" stroke-dashoffset="100" stroke-dasharray="100 105"><animate id="dashAnim5" attributeName="stroke-dashoffset" from="100" to="0" dur="1s" calcMode="linear" begin="dashAnim4.end" fill="freeze"/></path>
<path style="fill:none; fill-opacity:0%; fill-rule:evenodd; stroke:#000000; stroke-opacity:100%; stroke-width: 2.7pt; stroke-linejoin:round; stroke-linecap:round;" d="M32.57 64.61c6.45-1.49 14.34-3 19.16-3.61c2.81-0.36 5.04-0.42 4.26 3.03c-0.77 3.44-1.38 7.15-2.62 11.92" pathLength="100" stroke-dashoffset="100" stroke-dasharray="100 105"><animate id="dashAnim6" attributeName="stroke-dashoffset" from="100" to="0" dur="1s" calcMode="linear" begin="dashAnim5.end" fill="freeze"/></path>
<path style="fill:none; fill-opacity:0%; fill-rule:evenodd; stroke:#000000; stroke-opacity:100%; stroke-width: 2.7pt; stroke-linejoin:round; stroke-linecap:round;" d="M35.56 79.56c4.15-0.4 9.32-1.3 14.96-1.93c1.31-0.15 2.63-0.29 3.95-0.44" pathLength="100" stroke-dashoffset="100" stroke-dasharray="100 105"><animate id="dashAnim7" attributeName="stroke-dashoffset" from="100" to="0" dur="1s" calcMode="linear" begin="dashAnim6.end" fill="freeze"/></path>
<path style="fill:none; fill-opacity:0%; fill-rule:evenodd; stroke:#000000; stroke-opacity:100%; stroke-width: 2.7pt; stroke-linejoin:round; stroke-linecap:round;" d="M72.21 49.83c1.04 1.04 1.51 2.67 1.51 4.77c0 14.56-0.01 33.94-0.01 38.9c0 10.12-7.96 2.62-11.21 0" pathLength="100" stroke-dashoffset="100" stroke-dasharray="100 105"><animate id="dashAnim8" attributeName="stroke-dashoffset" from="100" to="0" dur="1s" calcMode="linear" begin="dashAnim7.end" fill="freeze"/></path>

</g>

</svg>  
          
