<?xml version="1.0" standalone="no"?>
<!DOCTYPE svg PUBLIC "-//W3C//DTD SVG 1.1//EN"   "http://www.w3.org/Graphics/SVG/1.1/DTD/svg11.dtd">
<svg width="400px" height="400px"  version="1.1" xmlns="http://www.w3.org/2000/svg">
  <defs>
    <marker id="Triangle" viewBox="0 0 10 10" refX="0" refY="5" markerUnits="strokeWidth" markerWidth="3" style="stroke-opacity:0%;fill:#aaaaaa;" markerHeight="2" orient="auto">
      <path d="M 0 0 L 10 5 L 0 10 z" />
    </marker>
    
    <marker id="Arrow" viewBox="0 0 10 10" refX="5" refY="5" markerUnits="strokeWidth" markerWidth="1.8" style="stroke-opacity:0%;fill:#770000;" markerHeight="2" orient="auto">
      <path d="M 0 4 L 6 4 L 4 1 L 10 5 L 4 9 L 6 6 L 0 6 z" />
        <circle cx="5" cy="5" r="5" />
      </marker>
    
    <marker id="TriangleRed" viewBox="0 0 10 10" refX="0" refY="5" markerUnits="strokeWidth" markerWidth="3" style="stroke-opacity:0%;fill:#CC0000;" markerHeight="2" orient="auto">
      <path d="M 0 0 L 10 5 L 0 10 z" />
    </marker>
    
    <marker id="ArrowRed" viewBox="0 0 10 10" refX="5" refY="5" markerUnits="strokeWidth" markerWidth="1.8" style="stroke-opacity:0%;fill:#CC0000;" markerHeight="2" orient="auto">
      <path d="M 0 4 L 6 4 L 4 1 L 10 5 L 4 9 L 6 6 L 0 6 z" />
        <circle cx="5" cy="5" r="5" />
      </marker>
    
  </defs>
  
  <path style="fill:#ffffff; fill-opacity:100%; fill-rule:evenodd; stroke-width:0;" d="M 0 0 L 400px 0 L 400px 400px L 0 400px L 0 0" />

  <g transform="scale(3.6697247706422 3.6697247706422)">
<path style="fill:none; fill-opacity:0%; fill-rule:evenodd; stroke:#aaaaaa; stroke-opacity:100%; stroke-width: 1.5pt; stroke-linejoin:round; stroke-linecap:round;" d="M15 18.59c0.75 0.66 3.51 1.26 4.69 1.04c2.06-0.38 12.67-2.46 15.27-3.29c2.4-0.76 2.7 1.84 1.74 3.89c-0.68 1.45-2.07 6.42-3.04 10.24c-0.4 1.55-0.73 2.91-0.91 3.77"></path>
<path style="fill:none; fill-opacity:0%; fill-rule:evenodd; stroke:#aaaaaa; stroke-opacity:100%; stroke-width: 1.5pt; stroke-linejoin:round; stroke-linecap:round;" d="M19 36.75c2.57 0 9.53-1.5 11.37-1.5s3.67-0.5 5.13-0.5"></path>
<path style="fill:none; fill-opacity:0%; fill-rule:evenodd; stroke:#aaaaaa; stroke-opacity:100%; stroke-width: 1.5pt; stroke-linejoin:round; stroke-linecap:round;" d="M18.13 35.18c0.55 0.96 0.46 4.56 0.11 6.08C17.83 43 14.85 53.53 14.5 54.44c-1 2.56-0.25 4.56 2.75 3.06c1.21-0.6 11.75-2.75 15.96-3.19c2.99-0.31 2 5.21 1.79 6.94c-1.09 8.88-4.97 26.7-8.75 33c-3.75 6.25"></path>
<path style="fill:none; fill-opacity:0%; fill-rule:evenodd; stroke:#aaaaaa; stroke-opacity:100%; stroke-width: 1.5pt; stroke-linejoin:round; stroke-linecap:round;" d="M44.24 17.88c1.22 0.39 3.46 0.52 4.68 0.39C60.75 17 76.25 14.5 88.6 13.76c2.03-0.12 3.26 0.19 4.27 0.38"></path>
<path style="fill:none; fill-opacity:0%; fill-rule:evenodd; stroke:#aaaaaa; stroke-opacity:100%; stroke-width: 1.5pt; stroke-linejoin:round; stroke-linecap:round;" d="M56.01 22.39c0.03 0.34 0.07 0.89-0.06 1.38c-0.76 2.91-5.15 9.29-11.14 13.19"></path>
<path style="fill:none; fill-opacity:0%; fill-rule:evenodd; stroke:#aaaaaa; stroke-opacity:100%; stroke-width: 1.5pt; stroke-linejoin:round; stroke-linecap:round;" d="M77.42 20.83C82.92 22.63 91.62 28.21 93 31"></path>
<path style="fill:none; fill-opacity:0%; fill-rule:evenodd; stroke:#aaaaaa; stroke-opacity:100%; stroke-width: 1.5pt; stroke-linejoin:round; stroke-linecap:round;" d="M45.53 40.13c0.74 1.12 0.98 2.78 0.98 4.73c0 5.55 0.11 37.07 0.15 49.13c0.01 2.36 0.01 3.98 0.01 4.51"></path>
<path style="fill:none; fill-opacity:0%; fill-rule:evenodd; stroke:#aaaaaa; stroke-opacity:100%; stroke-width: 1.5pt; stroke-linejoin:round; stroke-linecap:round;" d="M46.51 42.78c0.87-0.13 2.36-0.35 4.26-0.64c11.06-1.67 36.25-5.52 37.27-5.66c1.71-0.23 3.69 1.27 3.69 3.58c0 3.69-0.11 44.12-0.11 49.06c0 13.12-4.12 5.38-7.09 2.29"></path>
<path style="fill:none; fill-opacity:0%; fill-rule:evenodd; stroke:#aaaaaa; stroke-opacity:100%; stroke-width: 1.5pt; stroke-linejoin:round; stroke-linecap:round;" d="M66.13 18.13c1.21 1.12 1.6 2.78 1.6 4.73c0 4.35-0.24 50.04-0.31 65.89c-0.01 2.87-0.02 4.76-0.02 5.25"></path>
<path style="fill:none; fill-opacity:0%; fill-rule:evenodd; stroke:#aaaaaa; stroke-opacity:100%; stroke-width: 1.5pt; stroke-linejoin:round; stroke-linecap:round;" d="M60.41 45.14c0.03 0.4 0.05 1.02-0.04 1.59c-0.56 3.36-3.74 10.72-8.1 15.23"></path>
<path style="fill:none; fill-opacity:0%; fill-rule:evenodd; stroke:#aaaaaa; stroke-opacity:100%; stroke-width: 1.5pt; stroke-linejoin:round; stroke-linecap:round;" d="M52.86 50.4c3.22 0.93 7.49 5.62 8.75 8.86"></path>
<path style="fill:none; fill-opacity:0%; fill-rule:evenodd; stroke:#aaaaaa; stroke-opacity:100%; stroke-width: 1.5pt; stroke-linejoin:round; stroke-linecap:round;" d="M61.55 69.39c0.03 0.35 0.05 0.9-0.05 1.4c-0.61 2.96-4.08 9.45-8.84 13.42"></path>
<path style="fill:none; fill-opacity:0%; fill-rule:evenodd; stroke:#aaaaaa; stroke-opacity:100%; stroke-width: 1.5pt; stroke-linejoin:round; stroke-linecap:round;" d="M52.68 73.9c3.34 0.95 7.77 5.78 9.07 9.11"></path>
<path style="fill:none; fill-opacity:0%; fill-rule:evenodd; stroke:#aaaaaa; stroke-opacity:100%; stroke-width: 1.5pt; stroke-linejoin:round; stroke-linecap:round;" d="M83.9 44.14c0.03 0.4 0.06 1.04-0.06 1.62c-0.72 3.41-4.85 10.88-10.5 15.46"></path>
<path style="fill:none; fill-opacity:0%; fill-rule:evenodd; stroke:#aaaaaa; stroke-opacity:100%; stroke-width: 1.5pt; stroke-linejoin:round; stroke-linecap:round;" d="M74.79 49.63c3.58 0.92 8.33 5.58 9.72 8.8"></path>
<path style="fill:none; fill-opacity:0%; fill-rule:evenodd; stroke:#aaaaaa; stroke-opacity:100%; stroke-width: 1.5pt; stroke-linejoin:round; stroke-linecap:round;" d="M83.95 68.64c0.03 0.37 0.06 0.96-0.06 1.5c-0.71 3.16-4.77 10.09-10.33 14.33"></path>
<path style="fill:none; fill-opacity:0%; fill-rule:evenodd; stroke:#aaaaaa; stroke-opacity:100%; stroke-width: 1.5pt; stroke-linejoin:round; stroke-linecap:round;" d="M74.65 73.15c3.79 2.02 8.31 6.49 10.43 9.61"></path>

<path style="fill:none; fill-opacity:0%; fill-rule:evenodd; stroke:#000000; stroke-opacity:100%; stroke-width: 2.7pt; stroke-linejoin:round; stroke-linecap:round;" d="M15 18.59c0.75 0.66 3.51 1.26 4.69 1.04c2.06-0.38 12.67-2.46 15.27-3.29c2.4-0.76 2.7 1.84 1.74 3.89c-0.68 1.45-2.07 6.42-3.04 10.24c-0.4 1.55-0.73 2.91-0.91 3.77" pathLength="100" stroke-dashoffset="100" stroke-dasharray="100 105"><animate id="dashAnim1" attributeName="stroke-dashoffset" from="100" to="0" dur="1s" calcMode="linear" fill="freeze"/></path>
<path style="fill:none; fill-opacity:0%; fill-rule:evenodd; stroke:#000000; stroke-opacity:100%; stroke-width: 2.7pt; stroke-linejoin:round; stroke-linecap:round;" d="M19 36.75c2.57 0 9.53-1.5 11.37-1.5s3.67-0.5 5.13-0.5" pathLength="100" stroke-dashoffset="100" stroke-dasharray="100 105"><animate id="dashAnim2" attributeName="stroke-dashoffset" from="100" to="0" dur="1s" calcMode="linear" begin="dashAnim1.end" fill="freeze"/></path>
<path style="fill:none; fill-opacity:0%; fill-rule:evenodd; stroke:#000000; stroke-opacity:100%; stroke-width: 2.7pt; stroke-linejoin:round; stroke-linecap:round;" d="M18.13 35.18c0.55 0.96 0.46 4.56 0.11 6.08C17.83 43 14.85 53.53 14.5 54.44c-1 2.56-0.25 4.56 2.75 3.06c1.21-0.6 11.75-2.75 15.96-3.19c2.99-0.31 2 5.21 1.79 6.94c-1.09 8.88-4.97 26.7-8.75 33c-3.75 6.25" pathLength="100" stroke-dashoffset="100" stroke-dasharray="100 105"><animate id="dashAnim3" attributeName="stroke-dashoffset" from="100" to="0" dur="1s" calcMode="linear" begin="dashAnim2.end" fill="freeze"/></path>
<path style="fill:none; fill-opacity:0%; fill-rule:evenodd; stroke:#000000; stroke-opacity:100%; stroke-width: 2.7pt; stroke-linejoin:round; stroke-linecap:round;" d="M44.24 17.88c1.22 0.39 3.46 0.52 4.68 0.39C60.75 17 76.25 14.5 88.6 13.76c2.03-0.12 3.26 0.19 4.27 0.38" pathLength="100" stroke-dashoffset="100" stroke-dasharray="100 105"><animate id="dashAnim4" attributeName="stroke-dashoffset" from="100" to="0" dur="1s" calcMode="linear" begin="dashAnim3.end" fill="freeze"/></path>
<path style="fill:none; fill-opacity:0%; fill-rule:evenodd; stroke:#000000; stroke-opacity:100%; stroke-width: 2.7pt; stroke-linejoin:round; stroke-linecap:round;" d="M56.01 22.39c0.03 0.34 0.07 0.89-0.06 1.38c-0.76 2.91-5.15 9.29-11.14 13.19" pathLength="100" stroke-dashoffset="100" stroke-dasharray="100 105"><animate id="dashAnim5" attributeName="stroke-dashoffset" from="100" to="0" dur="1s" calcMode="linear" begin="dashAnim4.end" fill="freeze"/></path>
<path style="fill:none; fill-opacity:0%; fill-rule:evenodd; stroke:#000000; stroke-opacity:100%; stroke-width: 2.7pt; stroke-linejoin:round; stroke-linecap:round;" d="M77.42 20.83C82.92 22.63 91.62 28.21 93 31" pathLength="100" stroke-dashoffset="100" stroke-dasharray="100 105"><animate id="dashAnim6" attributeName="stroke-dashoffset" from="100" to="0" dur="1s" calcMode="linear" begin="dashAnim5.end" fill="freeze"/></path>
<path style="fill:none; fill-opacity:0%; fill-rule:evenodd; stroke:#000000; stroke-opacity:100%; stroke-width: 2.7pt; stroke-linejoin:round; stroke-linecap:round;" d="M45.53 40.13c0.74 1.12 0.98 2.78 0.98 4.73c0 5.55 0.11 37.07 0.15 49.13c0.01 2.36 0.01 3.98 0.01 4.51" pathLength="100" stroke-dashoffset="100" stroke-dasharray="100 105"><animate id="dashAnim7" attributeName="stroke-dashoffset" from="100" to="0" dur="1s" calcMode="linear" begin="dashAnim6.end" fill="freeze"/></path>
<path style="fill:none; fill-opacity:0%; fill-rule:evenodd; stroke:#000000; stroke-opacity:100%; stroke-width: 2.7pt; stroke-linejoin:round; stroke-linecap:round;" d="M46.51 42.78c0.87-0.13 2.36-0.35 4.26-0.64c11.06-1.67 36.25-5.52 37.27-5.66c1.71-0.23 3.69 1.27 3.69 3.58c0 3.69-0.11 44.12-0.11 49.06c0 13.12-4.12 5.38-7.09 2.29" pathLength="100" stroke-dashoffset="100" stroke-dasharray="100 105"><animate id="dashAnim8" attributeName="stroke-dashoffset" from="100" to="0" dur="1s" calcMode="linear" begin="dashAnim7.end" fill="freeze"/></path>
<path style="fill:none; fill-opacity:0%; fill-rule:evenodd; stroke:#000000; stroke-opacity:100%; stroke-width: 2.7pt; stroke-linejoin:round; stroke-linecap:round;" d="M66.13 18.13c1.21 1.12 1.6 2.78 1.6 4.73c0 4.35-0.24 50.04-0.31 65.89c-0.01 2.87-0.02 4.76-0.02 5.25" pathLength="100" stroke-dashoffset="100" stroke-dasharray="100 105"><animate id="dashAnim9" attributeName="stroke-dashoffset" from="100" to="0" dur="1s" calcMode="linear" begin="dashAnim8.end" fill="freeze"/></path>
<path style="fill:none; fill-opacity:0%; fill-rule:evenodd; stroke:#000000; stroke-opacity:100%; stroke-width: 2.7pt; stroke-linejoin:round; stroke-linecap:round;" d="M60.41 45.14c0.03 0.4 0.05 1.02-0.04 1.59c-0.56 3.36-3.74 10.72-8.1 15.23" pathLength="100" stroke-dashoffset="100" stroke-dasharray="100 105"><animate id="dashAnim10" attributeName="stroke-dashoffset" from="100" to="0" dur="1s" calcMode="linear" begin="dashAnim9.end" fill="freeze"/></path>
<path style="fill:none; fill-opacity:0%; fill-rule:evenodd; stroke:#000000; stroke-opacity:100%; stroke-width: 2.7pt; stroke-linejoin:round; stroke-linecap:round;" d="M52.86 50.4c3.22 0.93 7.49 5.62 8.75 8.86" pathLength="100" stroke-dashoffset="100" stroke-dasharray="100 105"><animate id="dashAnim11" attributeName="stroke-dashoffset" from="100" to="0" dur="1s" calcMode="linear" begin="dashAnim10.end" fill="freeze"/></path>
<path style="fill:none; fill-opacity:0%; fill-rule:evenodd; stroke:#000000; stroke-opacity:100%; stroke-width: 2.7pt; stroke-linejoin:round; stroke-linecap:round;" d="M61.55 69.39c0.03 0.35 0.05 0.9-0.05 1.4c-0.61 2.96-4.08 9.45-8.84 13.42" pathLength="100" stroke-dashoffset="100" stroke-dasharray="100 105"><animate id="dashAnim12" attributeName="stroke-dashoffset" from="100" to="0" dur="1s" calcMode="linear" begin="dashAnim11.end" fill="freeze"/></path>
<path style="fill:none; fill-opacity:0%; fill-rule:evenodd; stroke:#000000; stroke-opacity:100%; stroke-width: 2.7pt; stroke-linejoin:round; stroke-linecap:round;" d="M52.68 73.9c3.34 0.95 7.77 5.78 9.07 9.11" pathLength="100" stroke-dashoffset="100" stroke-dasharray="100 105"><animate id="dashAnim13" attributeName="stroke-dashoffset" from="100" to="0" dur="1s" calcMode="linear" begin="dashAnim12.end" fill="freeze"/></path>
<path style="fill:none; fill-opacity:0%; fill-rule:evenodd; stroke:#000000; stroke-opacity:100%; stroke-width: 2.7pt; stroke-linejoin:round; stroke-linecap:round;" d="M83.9 44.14c0.03 0.4 0.06 1.04-0.06 1.62c-0.72 3.41-4.85 10.88-10.5 15.46" pathLength="100" stroke-dashoffset="100" stroke-dasharray="100 105"><animate id="dashAnim14" attributeName="stroke-dashoffset" from="100" to="0" dur="1s" calcMode="linear" begin="dashAnim13.end" fill="freeze"/></path>
<path style="fill:none; fill-opacity:0%; fill-rule:evenodd; stroke:#000000; stroke-opacity:100%; stroke-width: 2.7pt; stroke-linejoin:round; stroke-linecap:round;" d="M74.79 49.63c3.58 0.92 8.33 5.58 9.72 8.8" pathLength="100" stroke-dashoffset="100" stroke-dasharray="100 105"><animate id="dashAnim15" attributeName="stroke-dashoffset" from="100" to="0" dur="1s" calcMode="linear" begin="dashAnim14.end" fill="freeze"/></path>
<path style="fill:none; fill-opacity:0%; fill-rule:evenodd; stroke:#000000; stroke-opacity:100%; stroke-width: 2.7pt; stroke-linejoin:round; stroke-linecap:round;" d="M83.95 68.64c0.03 0.37 0.06 0.96-0.06 1.5c-0.71 3.16-4.77 10.09-10.33 14.33" pathLength="100" stroke-dashoffset="100" stroke-dasharray="100 105"><animate id="dashAnim16" attributeName="stroke-dashoffset" from="100" to="0" dur="1s" calcMode="linear" begin="dashAnim15.end" fill="freeze"/></path>
<path style="fill:none; fill-opacity:0%; fill-rule:evenodd; stroke:#000000; stroke-opacity:100%; stroke-width: 2.7pt; stroke-linejoin:round; stroke-linecap:round;" d="M74.65 73.15c3.79 2.02 8.31 6.49 10.43 9.61" pathLength="100" stroke-dashoffset="100" stroke-dasharray="100 105"><animate id="dashAnim17" attributeName="stroke-dashoffset" from="100" to="0" dur="1s" calcMode="linear" begin="dashAnim16.end" fill="freeze"/></path>

</g>

</svg>  
          
