<?xml version="1.0" standalone="no"?>
<!DOCTYPE svg PUBLIC "-//W3C//DTD SVG 1.1//EN"   "http://www.w3.org/Graphics/SVG/1.1/DTD/svg11.dtd">
<svg width="400px" height="400px"  version="1.1" xmlns="http://www.w3.org/2000/svg">
  <defs>
    <marker id="Triangle" viewBox="0 0 10 10" refX="0" refY="5" markerUnits="strokeWidth" markerWidth="3" style="stroke-opacity:0%;fill:#aaaaaa;" markerHeight="2" orient="auto">
      <path d="M 0 0 L 10 5 L 0 10 z" />
    </marker>
    
    <marker id="Arrow" viewBox="0 0 10 10" refX="5" refY="5" markerUnits="strokeWidth" markerWidth="1.8" style="stroke-opacity:0%;fill:#770000;" markerHeight="2" orient="auto">
      <path d="M 0 4 L 6 4 L 4 1 L 10 5 L 4 9 L 6 6 L 0 6 z" />
        <circle cx="5" cy="5" r="5" />
      </marker>
    
    <marker id="TriangleRed" viewBox="0 0 10 10" refX="0" refY="5" markerUnits="strokeWidth" markerWidth="3" style="stroke-opacity:0%;fill:#CC0000;" markerHeight="2" orient="auto">
      <path d="M 0 0 L 10 5 L 0 10 z" />
    </marker>
    
    <marker id="ArrowRed" viewBox="0 0 10 10" refX="5" refY="5" markerUnits="strokeWidth" markerWidth="1.8" style="stroke-opacity:0%;fill:#CC0000;" markerHeight="2" orient="auto">
      <path d="M 0 4 L 6 4 L 4 1 L 10 5 L 4 9 L 6 6 L 0 6 z" />
        <circle cx="5" cy="5" r="5" />
      </marker>
    
  </defs>
  
  <path style="fill:#ffffff; fill-opacity:100%; fill-rule:evenodd; stroke-width:0;" d="M 0 0 L 400px 0 L 400px 400px L 0 400px L 0 0" />

  <g transform="scale(3.6697247706422 3.6697247706422)">
<path style="fill:none; fill-opacity:0%; fill-rule:evenodd; stroke:#aaaaaa; stroke-opacity:100%; stroke-width: 1.5pt; stroke-linejoin:round; stroke-linecap:round;" d="M15.72 36c0.03 4.31-2.47 14.14-4.69 17.5"></path>
<path style="fill:none; fill-opacity:0%; fill-rule:evenodd; stroke:#aaaaaa; stroke-opacity:100%; stroke-width: 1.5pt; stroke-linejoin:round; stroke-linecap:round;" d="M29.27 30.33c2.22 1.96 5.74 8.08 6.29 11.13"></path>
<path style="fill:none; fill-opacity:0%; fill-rule:evenodd; stroke:#aaaaaa; stroke-opacity:100%; stroke-width: 1.5pt; stroke-linejoin:round; stroke-linecap:round;" d="M21.37 13.75c1.09 0.5 1.74 2.25 1.96 3.25c0.22 1 0 72.25-0.22 78.5"></path>
<path style="fill:none; fill-opacity:0%; fill-rule:evenodd; stroke:#aaaaaa; stroke-opacity:100%; stroke-width: 1.5pt; stroke-linejoin:round; stroke-linecap:round;" d="M62.25 14.37c1.25 0.63 1.91 2.85 1.97 4.49c0.31 7.9-0.2 25.57-0.2 28.26"></path>
<path style="fill:none; fill-opacity:0%; fill-rule:evenodd; stroke:#aaaaaa; stroke-opacity:100%; stroke-width: 1.5pt; stroke-linejoin:round; stroke-linecap:round;" d="M42.94 26.83c3.27 2.32 8.44 9.53 9.26 13.13"></path>
<path style="fill:none; fill-opacity:0%; fill-rule:evenodd; stroke:#aaaaaa; stroke-opacity:100%; stroke-width: 1.5pt; stroke-linejoin:round; stroke-linecap:round;" d="M84.17 23.25c0.03 0.38 0.06 0.97-0.06 1.51c-0.73 3.19-4.9 10.18-10.62 14.46"></path>
<path style="fill:none; fill-opacity:0%; fill-rule:evenodd; stroke:#aaaaaa; stroke-opacity:100%; stroke-width: 1.5pt; stroke-linejoin:round; stroke-linecap:round;" d="M37.38 48.98c1.09 0.54 3.09 0.59 4.18 0.54C53.25 49 76 45.25 91.43 45.29c1.82 0 2.91 0.26 3.82 0.53"></path>
<path style="fill:none; fill-opacity:0%; fill-rule:evenodd; stroke:#aaaaaa; stroke-opacity:100%; stroke-width: 1.5pt; stroke-linejoin:round; stroke-linecap:round;" d="M55.84 52.5c0.06 0.98 0.17 2.55-0.12 3.95c-2.43 11.88-7.22 29.8-21.21 37.8"></path>
<path style="fill:none; fill-opacity:0%; fill-rule:evenodd; stroke:#aaaaaa; stroke-opacity:100%; stroke-width: 1.5pt; stroke-linejoin:round; stroke-linecap:round;" d="M69.82 49.87c0.52 1.19 0.94 2.59 0.97 4.43c0.09 5.5-0.33 19.39-0.33 27.19c0 12.01 2.54 12.54 12.75 12.54c10.04 0 11.68-0.78 11.68-12.62"></path>

<path style="fill:none; fill-opacity:0%; fill-rule:evenodd; stroke:#000000; stroke-opacity:100%; stroke-width: 2.7pt; stroke-linejoin:round; stroke-linecap:round;" d="M15.72 36c0.03 4.31-2.47 14.14-4.69 17.5" pathLength="100" stroke-dashoffset="100" stroke-dasharray="100 105"><animate id="dashAnim1" attributeName="stroke-dashoffset" from="100" to="0" dur="1s" calcMode="linear" fill="freeze"/></path>
<path style="fill:none; fill-opacity:0%; fill-rule:evenodd; stroke:#000000; stroke-opacity:100%; stroke-width: 2.7pt; stroke-linejoin:round; stroke-linecap:round;" d="M29.27 30.33c2.22 1.96 5.74 8.08 6.29 11.13" pathLength="100" stroke-dashoffset="100" stroke-dasharray="100 105"><animate id="dashAnim2" attributeName="stroke-dashoffset" from="100" to="0" dur="1s" calcMode="linear" begin="dashAnim1.end" fill="freeze"/></path>
<path style="fill:none; fill-opacity:0%; fill-rule:evenodd; stroke:#000000; stroke-opacity:100%; stroke-width: 2.7pt; stroke-linejoin:round; stroke-linecap:round;" d="M21.37 13.75c1.09 0.5 1.74 2.25 1.96 3.25c0.22 1 0 72.25-0.22 78.5" pathLength="100" stroke-dashoffset="100" stroke-dasharray="100 105"><animate id="dashAnim3" attributeName="stroke-dashoffset" from="100" to="0" dur="1s" calcMode="linear" begin="dashAnim2.end" fill="freeze"/></path>
<path style="fill:none; fill-opacity:0%; fill-rule:evenodd; stroke:#000000; stroke-opacity:100%; stroke-width: 2.7pt; stroke-linejoin:round; stroke-linecap:round;" d="M62.25 14.37c1.25 0.63 1.91 2.85 1.97 4.49c0.31 7.9-0.2 25.57-0.2 28.26" pathLength="100" stroke-dashoffset="100" stroke-dasharray="100 105"><animate id="dashAnim4" attributeName="stroke-dashoffset" from="100" to="0" dur="1s" calcMode="linear" begin="dashAnim3.end" fill="freeze"/></path>
<path style="fill:none; fill-opacity:0%; fill-rule:evenodd; stroke:#000000; stroke-opacity:100%; stroke-width: 2.7pt; stroke-linejoin:round; stroke-linecap:round;" d="M42.94 26.83c3.27 2.32 8.44 9.53 9.26 13.13" pathLength="100" stroke-dashoffset="100" stroke-dasharray="100 105"><animate id="dashAnim5" attributeName="stroke-dashoffset" from="100" to="0" dur="1s" calcMode="linear" begin="dashAnim4.end" fill="freeze"/></path>
<path style="fill:none; fill-opacity:0%; fill-rule:evenodd; stroke:#000000; stroke-opacity:100%; stroke-width: 2.7pt; stroke-linejoin:round; stroke-linecap:round;" d="M84.17 23.25c0.03 0.38 0.06 0.97-0.06 1.51c-0.73 3.19-4.9 10.18-10.62 14.46" pathLength="100" stroke-dashoffset="100" stroke-dasharray="100 105"><animate id="dashAnim6" attributeName="stroke-dashoffset" from="100" to="0" dur="1s" calcMode="linear" begin="dashAnim5.end" fill="freeze"/></path>
<path style="fill:none; fill-opacity:0%; fill-rule:evenodd; stroke:#000000; stroke-opacity:100%; stroke-width: 2.7pt; stroke-linejoin:round; stroke-linecap:round;" d="M37.38 48.98c1.09 0.54 3.09 0.59 4.18 0.54C53.25 49 76 45.25 91.43 45.29c1.82 0 2.91 0.26 3.82 0.53" pathLength="100" stroke-dashoffset="100" stroke-dasharray="100 105"><animate id="dashAnim7" attributeName="stroke-dashoffset" from="100" to="0" dur="1s" calcMode="linear" begin="dashAnim6.end" fill="freeze"/></path>
<path style="fill:none; fill-opacity:0%; fill-rule:evenodd; stroke:#000000; stroke-opacity:100%; stroke-width: 2.7pt; stroke-linejoin:round; stroke-linecap:round;" d="M55.84 52.5c0.06 0.98 0.17 2.55-0.12 3.95c-2.43 11.88-7.22 29.8-21.21 37.8" pathLength="100" stroke-dashoffset="100" stroke-dasharray="100 105"><animate id="dashAnim8" attributeName="stroke-dashoffset" from="100" to="0" dur="1s" calcMode="linear" begin="dashAnim7.end" fill="freeze"/></path>
<path style="fill:none; fill-opacity:0%; fill-rule:evenodd; stroke:#000000; stroke-opacity:100%; stroke-width: 2.7pt; stroke-linejoin:round; stroke-linecap:round;" d="M69.82 49.87c0.52 1.19 0.94 2.59 0.97 4.43c0.09 5.5-0.33 19.39-0.33 27.19c0 12.01 2.54 12.54 12.75 12.54c10.04 0 11.68-0.78 11.68-12.62" pathLength="100" stroke-dashoffset="100" stroke-dasharray="100 105"><animate id="dashAnim9" attributeName="stroke-dashoffset" from="100" to="0" dur="1s" calcMode="linear" begin="dashAnim8.end" fill="freeze"/></path>

</g>

</svg>  
          
