<?xml version="1.0" standalone="no"?>
<!DOCTYPE svg PUBLIC "-//W3C//DTD SVG 1.1//EN"   "http://www.w3.org/Graphics/SVG/1.1/DTD/svg11.dtd">
<svg width="400px" height="400px"  version="1.1" xmlns="http://www.w3.org/2000/svg">
  <defs>
    <marker id="Triangle" viewBox="0 0 10 10" refX="0" refY="5" markerUnits="strokeWidth" markerWidth="3" style="stroke-opacity:0%;fill:#aaaaaa;" markerHeight="2" orient="auto">
      <path d="M 0 0 L 10 5 L 0 10 z" />
    </marker>
    
    <marker id="Arrow" viewBox="0 0 10 10" refX="5" refY="5" markerUnits="strokeWidth" markerWidth="1.8" style="stroke-opacity:0%;fill:#770000;" markerHeight="2" orient="auto">
      <path d="M 0 4 L 6 4 L 4 1 L 10 5 L 4 9 L 6 6 L 0 6 z" />
        <circle cx="5" cy="5" r="5" />
      </marker>
    
    <marker id="TriangleRed" viewBox="0 0 10 10" refX="0" refY="5" markerUnits="strokeWidth" markerWidth="3" style="stroke-opacity:0%;fill:#CC0000;" markerHeight="2" orient="auto">
      <path d="M 0 0 L 10 5 L 0 10 z" />
    </marker>
    
    <marker id="ArrowRed" viewBox="0 0 10 10" refX="5" refY="5" markerUnits="strokeWidth" markerWidth="1.8" style="stroke-opacity:0%;fill:#CC0000;" markerHeight="2" orient="auto">
      <path d="M 0 4 L 6 4 L 4 1 L 10 5 L 4 9 L 6 6 L 0 6 z" />
        <circle cx="5" cy="5" r="5" />
      </marker>
    
  </defs>
  
  <path style="fill:#ffffff; fill-opacity:100%; fill-rule:evenodd; stroke-width:0;" d="M 0 0 L 400px 0 L 400px 400px L 0 400px L 0 0" />

  <g transform="scale(3.6697247706422 3.6697247706422)">
<path style="fill:none; fill-opacity:0%; fill-rule:evenodd; stroke:#aaaaaa; stroke-opacity:100%; stroke-width: 1.5pt; stroke-linejoin:round; stroke-linecap:round;" d="M13.69 25.14c2.83 2.39 7.1 9.14 7.81 12.86"></path>
<path style="fill:none; fill-opacity:0%; fill-rule:evenodd; stroke:#aaaaaa; stroke-opacity:100%; stroke-width: 1.5pt; stroke-linejoin:round; stroke-linecap:round;" d="M43.76 24.22c0.02 0.28 0.04 0.73-0.04 1.14c-0.44 2.4-2.99 7.67-6.48 10.89"></path>
<path style="fill:none; fill-opacity:0%; fill-rule:evenodd; stroke:#aaaaaa; stroke-opacity:100%; stroke-width: 1.5pt; stroke-linejoin:round; stroke-linecap:round;" d="M10.95 46.12c0.59 0.16 2.16 0.58 3.71 0.49c5.6-0.32 21.68-2.65 28.01-3.17c1.55-0.13 1.96-0.16 2.93 0"></path>
<path style="fill:none; fill-opacity:0%; fill-rule:evenodd; stroke:#aaaaaa; stroke-opacity:100%; stroke-width: 1.5pt; stroke-linejoin:round; stroke-linecap:round;" d="M29.02 16.46c0.88 0.45 1.41 2.03 1.59 2.94s0 69.24-0.18 74.89"></path>
<path style="fill:none; fill-opacity:0%; fill-rule:evenodd; stroke:#aaaaaa; stroke-opacity:100%; stroke-width: 1.5pt; stroke-linejoin:round; stroke-linecap:round;" d="M30.52 46.96C26.47 58.21 16.62 74.01 7.5 80.5"></path>
<path style="fill:none; fill-opacity:0%; fill-rule:evenodd; stroke:#aaaaaa; stroke-opacity:100%; stroke-width: 1.5pt; stroke-linejoin:round; stroke-linecap:round;" d="M33.37 52.82c4.7 2.45 8.16 5.27 9.9 9.4"></path>
<path style="fill:none; fill-opacity:0%; fill-rule:evenodd; stroke:#aaaaaa; stroke-opacity:100%; stroke-width: 1.5pt; stroke-linejoin:round; stroke-linecap:round;" d="M49.99 22.37c1.19 0.36 3.38 0.47 4.57 0.33c10.73-1.17 23.93-2.62 39.29-3.48c1.98-0.11 3.18 0.15 4.17 0.33"></path>
<path style="fill:none; fill-opacity:0%; fill-rule:evenodd; stroke:#aaaaaa; stroke-opacity:100%; stroke-width: 1.5pt; stroke-linejoin:round; stroke-linecap:round;" d="M70.98 23.79c0.23 0.51 0.27 1.12 0.21 1.57c-0.33 2.6-3.14 9.65-5.69 13.15"></path>
<path style="fill:none; fill-opacity:0%; fill-rule:evenodd; stroke:#aaaaaa; stroke-opacity:100%; stroke-width: 1.5pt; stroke-linejoin:round; stroke-linecap:round;" d="M54.55 39.39c0.72 1.34 1.45 2.02 1.45 3.81C56 56 56.5 84 56.14 94.23"></path>
<path style="fill:none; fill-opacity:0%; fill-rule:evenodd; stroke:#aaaaaa; stroke-opacity:100%; stroke-width: 1.5pt; stroke-linejoin:round; stroke-linecap:round;" d="M56.2 41.08c3.19-0.22 29.16-2.78 32.06-3.04c2.42-0.22 3.98 1.49 3.79 2.81c-0.38 2.67-1.34 38.43-1.64 52.66"></path>
<path style="fill:none; fill-opacity:0%; fill-rule:evenodd; stroke:#aaaaaa; stroke-opacity:100%; stroke-width: 1.5pt; stroke-linejoin:round; stroke-linecap:round;" d="M57.11 63.61c13.94-1.25 24.14-2.11 33.78-2.71"></path>
<path style="fill:none; fill-opacity:0%; fill-rule:evenodd; stroke:#aaaaaa; stroke-opacity:100%; stroke-width: 1.5pt; stroke-linejoin:round; stroke-linecap:round;" d="M56.79 90.62c11.06-1.06 22.82-1.98 33.22-2"></path>

<path style="fill:none; fill-opacity:0%; fill-rule:evenodd; stroke:#000000; stroke-opacity:100%; stroke-width: 2.7pt; stroke-linejoin:round; stroke-linecap:round;" d="M13.69 25.14c2.83 2.39 7.1 9.14 7.81 12.86" pathLength="100" stroke-dashoffset="100" stroke-dasharray="100 105"><animate id="dashAnim1" attributeName="stroke-dashoffset" from="100" to="0" dur="1s" calcMode="linear" fill="freeze"/></path>
<path style="fill:none; fill-opacity:0%; fill-rule:evenodd; stroke:#000000; stroke-opacity:100%; stroke-width: 2.7pt; stroke-linejoin:round; stroke-linecap:round;" d="M43.76 24.22c0.02 0.28 0.04 0.73-0.04 1.14c-0.44 2.4-2.99 7.67-6.48 10.89" pathLength="100" stroke-dashoffset="100" stroke-dasharray="100 105"><animate id="dashAnim2" attributeName="stroke-dashoffset" from="100" to="0" dur="1s" calcMode="linear" begin="dashAnim1.end" fill="freeze"/></path>
<path style="fill:none; fill-opacity:0%; fill-rule:evenodd; stroke:#000000; stroke-opacity:100%; stroke-width: 2.7pt; stroke-linejoin:round; stroke-linecap:round;" d="M10.95 46.12c0.59 0.16 2.16 0.58 3.71 0.49c5.6-0.32 21.68-2.65 28.01-3.17c1.55-0.13 1.96-0.16 2.93 0" pathLength="100" stroke-dashoffset="100" stroke-dasharray="100 105"><animate id="dashAnim3" attributeName="stroke-dashoffset" from="100" to="0" dur="1s" calcMode="linear" begin="dashAnim2.end" fill="freeze"/></path>
<path style="fill:none; fill-opacity:0%; fill-rule:evenodd; stroke:#000000; stroke-opacity:100%; stroke-width: 2.7pt; stroke-linejoin:round; stroke-linecap:round;" d="M29.02 16.46c0.88 0.45 1.41 2.03 1.59 2.94s0 69.24-0.18 74.89" pathLength="100" stroke-dashoffset="100" stroke-dasharray="100 105"><animate id="dashAnim4" attributeName="stroke-dashoffset" from="100" to="0" dur="1s" calcMode="linear" begin="dashAnim3.end" fill="freeze"/></path>
<path style="fill:none; fill-opacity:0%; fill-rule:evenodd; stroke:#000000; stroke-opacity:100%; stroke-width: 2.7pt; stroke-linejoin:round; stroke-linecap:round;" d="M30.52 46.96C26.47 58.21 16.62 74.01 7.5 80.5" pathLength="100" stroke-dashoffset="100" stroke-dasharray="100 105"><animate id="dashAnim5" attributeName="stroke-dashoffset" from="100" to="0" dur="1s" calcMode="linear" begin="dashAnim4.end" fill="freeze"/></path>
<path style="fill:none; fill-opacity:0%; fill-rule:evenodd; stroke:#000000; stroke-opacity:100%; stroke-width: 2.7pt; stroke-linejoin:round; stroke-linecap:round;" d="M33.37 52.82c4.7 2.45 8.16 5.27 9.9 9.4" pathLength="100" stroke-dashoffset="100" stroke-dasharray="100 105"><animate id="dashAnim6" attributeName="stroke-dashoffset" from="100" to="0" dur="1s" calcMode="linear" begin="dashAnim5.end" fill="freeze"/></path>
<path style="fill:none; fill-opacity:0%; fill-rule:evenodd; stroke:#000000; stroke-opacity:100%; stroke-width: 2.7pt; stroke-linejoin:round; stroke-linecap:round;" d="M49.99 22.37c1.19 0.36 3.38 0.47 4.57 0.33c10.73-1.17 23.93-2.62 39.29-3.48c1.98-0.11 3.18 0.15 4.17 0.33" pathLength="100" stroke-dashoffset="100" stroke-dasharray="100 105"><animate id="dashAnim7" attributeName="stroke-dashoffset" from="100" to="0" dur="1s" calcMode="linear" begin="dashAnim6.end" fill="freeze"/></path>
<path style="fill:none; fill-opacity:0%; fill-rule:evenodd; stroke:#000000; stroke-opacity:100%; stroke-width: 2.7pt; stroke-linejoin:round; stroke-linecap:round;" d="M70.98 23.79c0.23 0.51 0.27 1.12 0.21 1.57c-0.33 2.6-3.14 9.65-5.69 13.15" pathLength="100" stroke-dashoffset="100" stroke-dasharray="100 105"><animate id="dashAnim8" attributeName="stroke-dashoffset" from="100" to="0" dur="1s" calcMode="linear" begin="dashAnim7.end" fill="freeze"/></path>
<path style="fill:none; fill-opacity:0%; fill-rule:evenodd; stroke:#000000; stroke-opacity:100%; stroke-width: 2.7pt; stroke-linejoin:round; stroke-linecap:round;" d="M54.55 39.39c0.72 1.34 1.45 2.02 1.45 3.81C56 56 56.5 84 56.14 94.23" pathLength="100" stroke-dashoffset="100" stroke-dasharray="100 105"><animate id="dashAnim9" attributeName="stroke-dashoffset" from="100" to="0" dur="1s" calcMode="linear" begin="dashAnim8.end" fill="freeze"/></path>
<path style="fill:none; fill-opacity:0%; fill-rule:evenodd; stroke:#000000; stroke-opacity:100%; stroke-width: 2.7pt; stroke-linejoin:round; stroke-linecap:round;" d="M56.2 41.08c3.19-0.22 29.16-2.78 32.06-3.04c2.42-0.22 3.98 1.49 3.79 2.81c-0.38 2.67-1.34 38.43-1.64 52.66" pathLength="100" stroke-dashoffset="100" stroke-dasharray="100 105"><animate id="dashAnim10" attributeName="stroke-dashoffset" from="100" to="0" dur="1s" calcMode="linear" begin="dashAnim9.end" fill="freeze"/></path>
<path style="fill:none; fill-opacity:0%; fill-rule:evenodd; stroke:#000000; stroke-opacity:100%; stroke-width: 2.7pt; stroke-linejoin:round; stroke-linecap:round;" d="M57.11 63.61c13.94-1.25 24.14-2.11 33.78-2.71" pathLength="100" stroke-dashoffset="100" stroke-dasharray="100 105"><animate id="dashAnim11" attributeName="stroke-dashoffset" from="100" to="0" dur="1s" calcMode="linear" begin="dashAnim10.end" fill="freeze"/></path>
<path style="fill:none; fill-opacity:0%; fill-rule:evenodd; stroke:#000000; stroke-opacity:100%; stroke-width: 2.7pt; stroke-linejoin:round; stroke-linecap:round;" d="M56.79 90.62c11.06-1.06 22.82-1.98 33.22-2" pathLength="100" stroke-dashoffset="100" stroke-dasharray="100 105"><animate id="dashAnim12" attributeName="stroke-dashoffset" from="100" to="0" dur="1s" calcMode="linear" begin="dashAnim11.end" fill="freeze"/></path>

</g>

</svg>  
          
