<?xml version="1.0" standalone="no"?>
<!DOCTYPE svg PUBLIC "-//W3C//DTD SVG 1.1//EN"   "http://www.w3.org/Graphics/SVG/1.1/DTD/svg11.dtd">
<svg width="400px" height="400px"  version="1.1" xmlns="http://www.w3.org/2000/svg">
  <defs>
    <marker id="Triangle" viewBox="0 0 10 10" refX="0" refY="5" markerUnits="strokeWidth" markerWidth="3" style="stroke-opacity:0%;fill:#aaaaaa;" markerHeight="2" orient="auto">
      <path d="M 0 0 L 10 5 L 0 10 z" />
    </marker>
    
    <marker id="Arrow" viewBox="0 0 10 10" refX="5" refY="5" markerUnits="strokeWidth" markerWidth="1.8" style="stroke-opacity:0%;fill:#770000;" markerHeight="2" orient="auto">
      <path d="M 0 4 L 6 4 L 4 1 L 10 5 L 4 9 L 6 6 L 0 6 z" />
        <circle cx="5" cy="5" r="5" />
      </marker>
    
    <marker id="TriangleRed" viewBox="0 0 10 10" refX="0" refY="5" markerUnits="strokeWidth" markerWidth="3" style="stroke-opacity:0%;fill:#CC0000;" markerHeight="2" orient="auto">
      <path d="M 0 0 L 10 5 L 0 10 z" />
    </marker>
    
    <marker id="ArrowRed" viewBox="0 0 10 10" refX="5" refY="5" markerUnits="strokeWidth" markerWidth="1.8" style="stroke-opacity:0%;fill:#CC0000;" markerHeight="2" orient="auto">
      <path d="M 0 4 L 6 4 L 4 1 L 10 5 L 4 9 L 6 6 L 0 6 z" />
        <circle cx="5" cy="5" r="5" />
      </marker>
    
  </defs>
  
  <path style="fill:#ffffff; fill-opacity:100%; fill-rule:evenodd; stroke-width:0;" d="M 0 0 L 400px 0 L 400px 400px L 0 400px L 0 0" />

  <g transform="scale(3.6697247706422 3.6697247706422)">
<path style="fill:none; fill-opacity:0%; fill-rule:evenodd; stroke:#aaaaaa; stroke-opacity:100%; stroke-width: 1.5pt; stroke-linejoin:round; stroke-linecap:round;" d="M24.49 15.25c0.03 0.54 0.07 1.4-0.07 2.18c-0.82 4.59-5.5 14.66-11.92 20.82"></path>
<path style="fill:none; fill-opacity:0%; fill-rule:evenodd; stroke:#aaaaaa; stroke-opacity:100%; stroke-width: 1.5pt; stroke-linejoin:round; stroke-linecap:round;" d="M22.89 22c2 0 11.11-1.75 14.82-2.75c2.16-0.58 3.06 0.98 2 2.75c-1.96 3.25-5.21 8.75-7.15 15.5"></path>
<path style="fill:none; fill-opacity:0%; fill-rule:evenodd; stroke:#aaaaaa; stroke-opacity:100%; stroke-width: 1.5pt; stroke-linejoin:round; stroke-linecap:round;" d="M18.14 39c0.63 0.72 1.25 2.74 1.25 3.49c0.02 1.85-0.45 22.97-0.57 24.58C18.04 77.47 16.28 87.05 11 93.5"></path>
<path style="fill:none; fill-opacity:0%; fill-rule:evenodd; stroke:#aaaaaa; stroke-opacity:100%; stroke-width: 1.5pt; stroke-linejoin:round; stroke-linecap:round;" d="M19.57 40.2c2.5-0.21 17.42-2.73 19.28-2.96c3.33-0.42 4.58 2.71 4.16 3.96c-0.4 1.2-0.62 30.05-0.62 46.93c0 12.12-4.39 3.37-6.68 1.62"></path>
<path style="fill:none; fill-opacity:0%; fill-rule:evenodd; stroke:#aaaaaa; stroke-opacity:100%; stroke-width: 1.5pt; stroke-linejoin:round; stroke-linecap:round;" d="M29.42 39.37c0.05 0.24 0.68 1.25 0.73 2.77C30.38 49.42 30 66.52 30 69"></path>
<path style="fill:none; fill-opacity:0%; fill-rule:evenodd; stroke:#aaaaaa; stroke-opacity:100%; stroke-width: 1.5pt; stroke-linejoin:round; stroke-linecap:round;" d="M19.57 54.85C30 53.5 32.5 53.75 42.7 52.5"></path>
<path style="fill:none; fill-opacity:0%; fill-rule:evenodd; stroke:#aaaaaa; stroke-opacity:100%; stroke-width: 1.5pt; stroke-linejoin:round; stroke-linecap:round;" d="M19.07 70.25c6.68-0.5 13.43-1.75 23.19-2.5"></path>
<path style="fill:none; fill-opacity:0%; fill-rule:evenodd; stroke:#aaaaaa; stroke-opacity:100%; stroke-width: 1.5pt; stroke-linejoin:round; stroke-linecap:round;" d="M83.85 15c0.07 0.4-0.11 1.7-0.52 2.15c-5.14 5.69-12.37 10.38-25.78 14.98"></path>
<path style="fill:none; fill-opacity:0%; fill-rule:evenodd; stroke:#aaaaaa; stroke-opacity:100%; stroke-width: 1.5pt; stroke-linejoin:round; stroke-linecap:round;" d="M56.14 31.28c0.26 0.73 0.67 2 0.74 4.08c0.71 21.57-0.47 46.83-9.06 57.1"></path>
<path style="fill:none; fill-opacity:0%; fill-rule:evenodd; stroke:#aaaaaa; stroke-opacity:100%; stroke-width: 1.5pt; stroke-linejoin:round; stroke-linecap:round;" d="M68.08 30.76c0.87 0.62 1.56 2.75 1.56 4.01c0 6.44-1.17 38.09-1.17 48.55"></path>
<path style="fill:none; fill-opacity:0%; fill-rule:evenodd; stroke:#aaaaaa; stroke-opacity:100%; stroke-width: 1.5pt; stroke-linejoin:round; stroke-linecap:round;" d="M58.59 85.8c0.55 0.37 1.62 1.08 2.77 0.68c6.08-2.12 10.68-4.03 17.18-6.39"></path>
<path style="fill:none; fill-opacity:0%; fill-rule:evenodd; stroke:#aaaaaa; stroke-opacity:100%; stroke-width: 1.5pt; stroke-linejoin:round; stroke-linecap:round;" d="M76.47 72.43c2.13 3.07 5.49 12.6 6.02 17.37"></path>
<path style="fill:none; fill-opacity:0%; fill-rule:evenodd; stroke:#aaaaaa; stroke-opacity:100%; stroke-width: 1.5pt; stroke-linejoin:round; stroke-linecap:round;" d="M77.12 28.17c0.2 0 0.87 0.58 1.08 1.76c3.05 16.82 8.05 38.82 15.18 56.19c1.05 2.55 2.69 3.95 3.61 4.73"></path>

<path style="fill:none; fill-opacity:0%; fill-rule:evenodd; stroke:#000000; stroke-opacity:100%; stroke-width: 2.7pt; stroke-linejoin:round; stroke-linecap:round;" d="M24.49 15.25c0.03 0.54 0.07 1.4-0.07 2.18c-0.82 4.59-5.5 14.66-11.92 20.82" pathLength="100" stroke-dashoffset="100" stroke-dasharray="100 105"><animate id="dashAnim1" attributeName="stroke-dashoffset" from="100" to="0" dur="1s" calcMode="linear" fill="freeze"/></path>
<path style="fill:none; fill-opacity:0%; fill-rule:evenodd; stroke:#000000; stroke-opacity:100%; stroke-width: 2.7pt; stroke-linejoin:round; stroke-linecap:round;" d="M22.89 22c2 0 11.11-1.75 14.82-2.75c2.16-0.58 3.06 0.98 2 2.75c-1.96 3.25-5.21 8.75-7.15 15.5" pathLength="100" stroke-dashoffset="100" stroke-dasharray="100 105"><animate id="dashAnim2" attributeName="stroke-dashoffset" from="100" to="0" dur="1s" calcMode="linear" begin="dashAnim1.end" fill="freeze"/></path>
<path style="fill:none; fill-opacity:0%; fill-rule:evenodd; stroke:#000000; stroke-opacity:100%; stroke-width: 2.7pt; stroke-linejoin:round; stroke-linecap:round;" d="M18.14 39c0.63 0.72 1.25 2.74 1.25 3.49c0.02 1.85-0.45 22.97-0.57 24.58C18.04 77.47 16.28 87.05 11 93.5" pathLength="100" stroke-dashoffset="100" stroke-dasharray="100 105"><animate id="dashAnim3" attributeName="stroke-dashoffset" from="100" to="0" dur="1s" calcMode="linear" begin="dashAnim2.end" fill="freeze"/></path>
<path style="fill:none; fill-opacity:0%; fill-rule:evenodd; stroke:#000000; stroke-opacity:100%; stroke-width: 2.7pt; stroke-linejoin:round; stroke-linecap:round;" d="M19.57 40.2c2.5-0.21 17.42-2.73 19.28-2.96c3.33-0.42 4.58 2.71 4.16 3.96c-0.4 1.2-0.62 30.05-0.62 46.93c0 12.12-4.39 3.37-6.68 1.62" pathLength="100" stroke-dashoffset="100" stroke-dasharray="100 105"><animate id="dashAnim4" attributeName="stroke-dashoffset" from="100" to="0" dur="1s" calcMode="linear" begin="dashAnim3.end" fill="freeze"/></path>
<path style="fill:none; fill-opacity:0%; fill-rule:evenodd; stroke:#000000; stroke-opacity:100%; stroke-width: 2.7pt; stroke-linejoin:round; stroke-linecap:round;" d="M29.42 39.37c0.05 0.24 0.68 1.25 0.73 2.77C30.38 49.42 30 66.52 30 69" pathLength="100" stroke-dashoffset="100" stroke-dasharray="100 105"><animate id="dashAnim5" attributeName="stroke-dashoffset" from="100" to="0" dur="1s" calcMode="linear" begin="dashAnim4.end" fill="freeze"/></path>
<path style="fill:none; fill-opacity:0%; fill-rule:evenodd; stroke:#000000; stroke-opacity:100%; stroke-width: 2.7pt; stroke-linejoin:round; stroke-linecap:round;" d="M19.57 54.85C30 53.5 32.5 53.75 42.7 52.5" pathLength="100" stroke-dashoffset="100" stroke-dasharray="100 105"><animate id="dashAnim6" attributeName="stroke-dashoffset" from="100" to="0" dur="1s" calcMode="linear" begin="dashAnim5.end" fill="freeze"/></path>
<path style="fill:none; fill-opacity:0%; fill-rule:evenodd; stroke:#000000; stroke-opacity:100%; stroke-width: 2.7pt; stroke-linejoin:round; stroke-linecap:round;" d="M19.07 70.25c6.68-0.5 13.43-1.75 23.19-2.5" pathLength="100" stroke-dashoffset="100" stroke-dasharray="100 105"><animate id="dashAnim7" attributeName="stroke-dashoffset" from="100" to="0" dur="1s" calcMode="linear" begin="dashAnim6.end" fill="freeze"/></path>
<path style="fill:none; fill-opacity:0%; fill-rule:evenodd; stroke:#000000; stroke-opacity:100%; stroke-width: 2.7pt; stroke-linejoin:round; stroke-linecap:round;" d="M83.85 15c0.07 0.4-0.11 1.7-0.52 2.15c-5.14 5.69-12.37 10.38-25.78 14.98" pathLength="100" stroke-dashoffset="100" stroke-dasharray="100 105"><animate id="dashAnim8" attributeName="stroke-dashoffset" from="100" to="0" dur="1s" calcMode="linear" begin="dashAnim7.end" fill="freeze"/></path>
<path style="fill:none; fill-opacity:0%; fill-rule:evenodd; stroke:#000000; stroke-opacity:100%; stroke-width: 2.7pt; stroke-linejoin:round; stroke-linecap:round;" d="M56.14 31.28c0.26 0.73 0.67 2 0.74 4.08c0.71 21.57-0.47 46.83-9.06 57.1" pathLength="100" stroke-dashoffset="100" stroke-dasharray="100 105"><animate id="dashAnim9" attributeName="stroke-dashoffset" from="100" to="0" dur="1s" calcMode="linear" begin="dashAnim8.end" fill="freeze"/></path>
<path style="fill:none; fill-opacity:0%; fill-rule:evenodd; stroke:#000000; stroke-opacity:100%; stroke-width: 2.7pt; stroke-linejoin:round; stroke-linecap:round;" d="M68.08 30.76c0.87 0.62 1.56 2.75 1.56 4.01c0 6.44-1.17 38.09-1.17 48.55" pathLength="100" stroke-dashoffset="100" stroke-dasharray="100 105"><animate id="dashAnim10" attributeName="stroke-dashoffset" from="100" to="0" dur="1s" calcMode="linear" begin="dashAnim9.end" fill="freeze"/></path>
<path style="fill:none; fill-opacity:0%; fill-rule:evenodd; stroke:#000000; stroke-opacity:100%; stroke-width: 2.7pt; stroke-linejoin:round; stroke-linecap:round;" d="M58.59 85.8c0.55 0.37 1.62 1.08 2.77 0.68c6.08-2.12 10.68-4.03 17.18-6.39" pathLength="100" stroke-dashoffset="100" stroke-dasharray="100 105"><animate id="dashAnim11" attributeName="stroke-dashoffset" from="100" to="0" dur="1s" calcMode="linear" begin="dashAnim10.end" fill="freeze"/></path>
<path style="fill:none; fill-opacity:0%; fill-rule:evenodd; stroke:#000000; stroke-opacity:100%; stroke-width: 2.7pt; stroke-linejoin:round; stroke-linecap:round;" d="M76.47 72.43c2.13 3.07 5.49 12.6 6.02 17.37" pathLength="100" stroke-dashoffset="100" stroke-dasharray="100 105"><animate id="dashAnim12" attributeName="stroke-dashoffset" from="100" to="0" dur="1s" calcMode="linear" begin="dashAnim11.end" fill="freeze"/></path>
<path style="fill:none; fill-opacity:0%; fill-rule:evenodd; stroke:#000000; stroke-opacity:100%; stroke-width: 2.7pt; stroke-linejoin:round; stroke-linecap:round;" d="M77.12 28.17c0.2 0 0.87 0.58 1.08 1.76c3.05 16.82 8.05 38.82 15.18 56.19c1.05 2.55 2.69 3.95 3.61 4.73" pathLength="100" stroke-dashoffset="100" stroke-dasharray="100 105"><animate id="dashAnim13" attributeName="stroke-dashoffset" from="100" to="0" dur="1s" calcMode="linear" begin="dashAnim12.end" fill="freeze"/></path>

</g>

</svg>  
          
