<?xml version="1.0" standalone="no"?>
<!DOCTYPE svg PUBLIC "-//W3C//DTD SVG 1.1//EN"
 "http://www.w3.org/Graphics/SVG/1.1/DTD/svg11.dtd">
<!-- generate by Japanese dictionary app com.asnsami.kanjidictionary -->

<svg xmlns="http://www.w3.org/2000/svg" xmlns:sodipodi="http://sodipodi.sourceforge.net/DTD/sodipodi-0.dtd" version="1.1" width="640" height="256" viewBox="0 0 5120 2048">
	<g id="id0:id0" transform="translate(0.0,0)">
		<g id="id0:id0:id0" transform="matrix(1.0,0,0,1.0,0,0.0)">			<g stroke="lightgray" stroke-width="4" transform="scale(4, 4)"> <rect x="0" y="0" width="256" height="256" fill="white" stroke-width="4"/></g>
			<g transform="scale(0.92, -0.92) translate(60, -920)">					<path d="M 418 561 Q 367 527 313 509 Q 234 483 210 477 L 186 481 Q 227 554 247 626 Q 259 668 289 764 L 289 784 Q 287 797 282 798 Q 274 799 269 794 Q 242 714 212 629 Q 182 544 122 468 L 107 456 L 99 443 L 100 433 Q 103 423 109 422 L 126 420 Q 251 437 301 453 Q 350 469 440 527 C 465 543 443 577 418 561 Z" fill="red"></path>
				<path d="M 568 399 Q 589 405 589 419 Q 589 431 576 446 Q 566 459 552 472 Q 516 503 449 577 Q 411 619 372 673 L 362 673 Q 354 668 354 660 Q 352 642 356 639 Q 382 619 418 561 L 440 527 Q 462 502 490 472 Q 502 459 549 409 L 568 399 Z" fill="lightgray"></path>
				<path d="M 182 27 Q 169 79 161 128 Q 153 176 132 229 C 121 257 97 269 92 239 L 89 234 Q 111 168 123 100 Q 135 31 151 -36 L 169 -53 Q 200 -53 197 -32 L 195 -20 L 182 27 Z" fill="lightgray"></path>
				<path d="M 132 229 Q 232 254 298 264 Q 363 275 430 289 L 438 289 Q 424 150 406 56 L 406 42 C 404 12 424 8 430 37 Q 443 104 450 170 Q 457 235 470 299 L 470 315 Q 466 325 454 335 Q 377 320 300 308 Q 223 296 105 271 Q 94 268 90 257 L 92 239 C 93 219 103 222 132 229 Z" fill="lightgray"></path>
				<path d="M 195 24 L 182 27 C 153 34 166 -28 195 -20 Q 243 -7 282 -6 Q 321 -5 360 -1 L 389 -1 Q 400 -1 409 -9 L 418 -7 L 432 -12 Q 444 -8 446 3 Q 446 23 444 25 L 430 37 L 406 42 Q 352 40 301 39 Q 250 37 195 24 Z" fill="lightgray"></path>
				<path d="M 890 -54 Q 904 -54 910 -50 Q 926 -11 931 38 Q 940 124 940 163 Q 939 172 925 177 Q 912 177 907 173 Q 892 134 891 86.5 Q 890 39 878 -10 Q 790 -4 682 44 Q 663 62 660 98 L 660 303 L 664 356 L 664 463 L 668 519 L 668 606 L 664 639 Q 664 698 670 733 L 670 749 Q 669 753 663.5 757 Q 658 761 655 762 Q 641 762 635 758 Q 624 744 622.5 723 Q 621 702 619 680 L 624 606 L 624 519 L 619 463 L 619 356 L 615 303 L 615 86 Q 619 47 639 25 Q 683 -10 738.5 -27 Q 794 -44 849 -54 L 886 -52 L 890 -54 Z" fill="lightgray"></path>
</g>
		<text x="40" y="140" font-size="128" fill="#999999">1</text></g>
		<g id="id0:id1:id1" transform="matrix(1.0,0,0,1.0,1024,0.0)">			<g stroke="lightgray" stroke-width="4" transform="scale(4, 4)"> <rect x="0" y="0" width="256" height="256" fill="white" stroke-width="4"/></g>
			<g transform="scale(0.92, -0.92) translate(60, -920)">					<path d="M 418 561 Q 367 527 313 509 Q 234 483 210 477 L 186 481 Q 227 554 247 626 Q 259 668 289 764 L 289 784 Q 287 797 282 798 Q 274 799 269 794 Q 242 714 212 629 Q 182 544 122 468 L 107 456 L 99 443 L 100 433 Q 103 423 109 422 L 126 420 Q 251 437 301 453 Q 350 469 440 527 C 465 543 443 577 418 561 Z" fill="black"></path>
				<path d="M 568 399 Q 589 405 589 419 Q 589 431 576 446 Q 566 459 552 472 Q 516 503 449 577 Q 411 619 372 673 L 362 673 Q 354 668 354 660 Q 352 642 356 639 Q 382 619 418 561 L 440 527 Q 462 502 490 472 Q 502 459 549 409 L 568 399 Z" fill="red"></path>
				<path d="M 182 27 Q 169 79 161 128 Q 153 176 132 229 C 121 257 97 269 92 239 L 89 234 Q 111 168 123 100 Q 135 31 151 -36 L 169 -53 Q 200 -53 197 -32 L 195 -20 L 182 27 Z" fill="lightgray"></path>
				<path d="M 132 229 Q 232 254 298 264 Q 363 275 430 289 L 438 289 Q 424 150 406 56 L 406 42 C 404 12 424 8 430 37 Q 443 104 450 170 Q 457 235 470 299 L 470 315 Q 466 325 454 335 Q 377 320 300 308 Q 223 296 105 271 Q 94 268 90 257 L 92 239 C 93 219 103 222 132 229 Z" fill="lightgray"></path>
				<path d="M 195 24 L 182 27 C 153 34 166 -28 195 -20 Q 243 -7 282 -6 Q 321 -5 360 -1 L 389 -1 Q 400 -1 409 -9 L 418 -7 L 432 -12 Q 444 -8 446 3 Q 446 23 444 25 L 430 37 L 406 42 Q 352 40 301 39 Q 250 37 195 24 Z" fill="lightgray"></path>
				<path d="M 890 -54 Q 904 -54 910 -50 Q 926 -11 931 38 Q 940 124 940 163 Q 939 172 925 177 Q 912 177 907 173 Q 892 134 891 86.5 Q 890 39 878 -10 Q 790 -4 682 44 Q 663 62 660 98 L 660 303 L 664 356 L 664 463 L 668 519 L 668 606 L 664 639 Q 664 698 670 733 L 670 749 Q 669 753 663.5 757 Q 658 761 655 762 Q 641 762 635 758 Q 624 744 622.5 723 Q 621 702 619 680 L 624 606 L 624 519 L 619 463 L 619 356 L 615 303 L 615 86 Q 619 47 639 25 Q 683 -10 738.5 -27 Q 794 -44 849 -54 L 886 -52 L 890 -54 Z" fill="lightgray"></path>
</g>
		<text x="40" y="140" font-size="128" fill="#999999">2</text></g>
		<g id="id0:id2:id2" transform="matrix(1.0,0,0,1.0,2048,0.0)">			<g stroke="lightgray" stroke-width="4" transform="scale(4, 4)"> <rect x="0" y="0" width="256" height="256" fill="white" stroke-width="4"/></g>
			<g transform="scale(0.92, -0.92) translate(60, -920)">					<path d="M 418 561 Q 367 527 313 509 Q 234 483 210 477 L 186 481 Q 227 554 247 626 Q 259 668 289 764 L 289 784 Q 287 797 282 798 Q 274 799 269 794 Q 242 714 212 629 Q 182 544 122 468 L 107 456 L 99 443 L 100 433 Q 103 423 109 422 L 126 420 Q 251 437 301 453 Q 350 469 440 527 C 465 543 443 577 418 561 Z" fill="black"></path>
				<path d="M 568 399 Q 589 405 589 419 Q 589 431 576 446 Q 566 459 552 472 Q 516 503 449 577 Q 411 619 372 673 L 362 673 Q 354 668 354 660 Q 352 642 356 639 Q 382 619 418 561 L 440 527 Q 462 502 490 472 Q 502 459 549 409 L 568 399 Z" fill="black"></path>
				<path d="M 182 27 Q 169 79 161 128 Q 153 176 132 229 C 121 257 97 269 92 239 L 89 234 Q 111 168 123 100 Q 135 31 151 -36 L 169 -53 Q 200 -53 197 -32 L 195 -20 L 182 27 Z" fill="red"></path>
				<path d="M 132 229 Q 232 254 298 264 Q 363 275 430 289 L 438 289 Q 424 150 406 56 L 406 42 C 404 12 424 8 430 37 Q 443 104 450 170 Q 457 235 470 299 L 470 315 Q 466 325 454 335 Q 377 320 300 308 Q 223 296 105 271 Q 94 268 90 257 L 92 239 C 93 219 103 222 132 229 Z" fill="lightgray"></path>
				<path d="M 195 24 L 182 27 C 153 34 166 -28 195 -20 Q 243 -7 282 -6 Q 321 -5 360 -1 L 389 -1 Q 400 -1 409 -9 L 418 -7 L 432 -12 Q 444 -8 446 3 Q 446 23 444 25 L 430 37 L 406 42 Q 352 40 301 39 Q 250 37 195 24 Z" fill="lightgray"></path>
				<path d="M 890 -54 Q 904 -54 910 -50 Q 926 -11 931 38 Q 940 124 940 163 Q 939 172 925 177 Q 912 177 907 173 Q 892 134 891 86.5 Q 890 39 878 -10 Q 790 -4 682 44 Q 663 62 660 98 L 660 303 L 664 356 L 664 463 L 668 519 L 668 606 L 664 639 Q 664 698 670 733 L 670 749 Q 669 753 663.5 757 Q 658 761 655 762 Q 641 762 635 758 Q 624 744 622.5 723 Q 621 702 619 680 L 624 606 L 624 519 L 619 463 L 619 356 L 615 303 L 615 86 Q 619 47 639 25 Q 683 -10 738.5 -27 Q 794 -44 849 -54 L 886 -52 L 890 -54 Z" fill="lightgray"></path>
</g>
		<text x="40" y="140" font-size="128" fill="#999999">3</text></g>
		<g id="id0:id3:id3" transform="matrix(1.0,0,0,1.0,3072,0.0)">			<g stroke="lightgray" stroke-width="4" transform="scale(4, 4)"> <rect x="0" y="0" width="256" height="256" fill="white" stroke-width="4"/></g>
			<g transform="scale(0.92, -0.92) translate(60, -920)">					<path d="M 418 561 Q 367 527 313 509 Q 234 483 210 477 L 186 481 Q 227 554 247 626 Q 259 668 289 764 L 289 784 Q 287 797 282 798 Q 274 799 269 794 Q 242 714 212 629 Q 182 544 122 468 L 107 456 L 99 443 L 100 433 Q 103 423 109 422 L 126 420 Q 251 437 301 453 Q 350 469 440 527 C 465 543 443 577 418 561 Z" fill="black"></path>
				<path d="M 568 399 Q 589 405 589 419 Q 589 431 576 446 Q 566 459 552 472 Q 516 503 449 577 Q 411 619 372 673 L 362 673 Q 354 668 354 660 Q 352 642 356 639 Q 382 619 418 561 L 440 527 Q 462 502 490 472 Q 502 459 549 409 L 568 399 Z" fill="black"></path>
				<path d="M 182 27 Q 169 79 161 128 Q 153 176 132 229 C 121 257 97 269 92 239 L 89 234 Q 111 168 123 100 Q 135 31 151 -36 L 169 -53 Q 200 -53 197 -32 L 195 -20 L 182 27 Z" fill="black"></path>
				<path d="M 132 229 Q 232 254 298 264 Q 363 275 430 289 L 438 289 Q 424 150 406 56 L 406 42 C 404 12 424 8 430 37 Q 443 104 450 170 Q 457 235 470 299 L 470 315 Q 466 325 454 335 Q 377 320 300 308 Q 223 296 105 271 Q 94 268 90 257 L 92 239 C 93 219 103 222 132 229 Z" fill="red"></path>
				<path d="M 195 24 L 182 27 C 153 34 166 -28 195 -20 Q 243 -7 282 -6 Q 321 -5 360 -1 L 389 -1 Q 400 -1 409 -9 L 418 -7 L 432 -12 Q 444 -8 446 3 Q 446 23 444 25 L 430 37 L 406 42 Q 352 40 301 39 Q 250 37 195 24 Z" fill="lightgray"></path>
				<path d="M 890 -54 Q 904 -54 910 -50 Q 926 -11 931 38 Q 940 124 940 163 Q 939 172 925 177 Q 912 177 907 173 Q 892 134 891 86.5 Q 890 39 878 -10 Q 790 -4 682 44 Q 663 62 660 98 L 660 303 L 664 356 L 664 463 L 668 519 L 668 606 L 664 639 Q 664 698 670 733 L 670 749 Q 669 753 663.5 757 Q 658 761 655 762 Q 641 762 635 758 Q 624 744 622.5 723 Q 621 702 619 680 L 624 606 L 624 519 L 619 463 L 619 356 L 615 303 L 615 86 Q 619 47 639 25 Q 683 -10 738.5 -27 Q 794 -44 849 -54 L 886 -52 L 890 -54 Z" fill="lightgray"></path>
</g>
		<text x="40" y="140" font-size="128" fill="#999999">4</text></g>
		<g id="id0:id4:id4" transform="matrix(1.0,0,0,1.0,4096,0.0)">			<g stroke="lightgray" stroke-width="4" transform="scale(4, 4)"> <rect x="0" y="0" width="256" height="256" fill="white" stroke-width="4"/></g>
			<g transform="scale(0.92, -0.92) translate(60, -920)">					<path d="M 418 561 Q 367 527 313 509 Q 234 483 210 477 L 186 481 Q 227 554 247 626 Q 259 668 289 764 L 289 784 Q 287 797 282 798 Q 274 799 269 794 Q 242 714 212 629 Q 182 544 122 468 L 107 456 L 99 443 L 100 433 Q 103 423 109 422 L 126 420 Q 251 437 301 453 Q 350 469 440 527 C 465 543 443 577 418 561 Z" fill="black"></path>
				<path d="M 568 399 Q 589 405 589 419 Q 589 431 576 446 Q 566 459 552 472 Q 516 503 449 577 Q 411 619 372 673 L 362 673 Q 354 668 354 660 Q 352 642 356 639 Q 382 619 418 561 L 440 527 Q 462 502 490 472 Q 502 459 549 409 L 568 399 Z" fill="black"></path>
				<path d="M 182 27 Q 169 79 161 128 Q 153 176 132 229 C 121 257 97 269 92 239 L 89 234 Q 111 168 123 100 Q 135 31 151 -36 L 169 -53 Q 200 -53 197 -32 L 195 -20 L 182 27 Z" fill="black"></path>
				<path d="M 132 229 Q 232 254 298 264 Q 363 275 430 289 L 438 289 Q 424 150 406 56 L 406 42 C 404 12 424 8 430 37 Q 443 104 450 170 Q 457 235 470 299 L 470 315 Q 466 325 454 335 Q 377 320 300 308 Q 223 296 105 271 Q 94 268 90 257 L 92 239 C 93 219 103 222 132 229 Z" fill="black"></path>
				<path d="M 195 24 L 182 27 C 153 34 166 -28 195 -20 Q 243 -7 282 -6 Q 321 -5 360 -1 L 389 -1 Q 400 -1 409 -9 L 418 -7 L 432 -12 Q 444 -8 446 3 Q 446 23 444 25 L 430 37 L 406 42 Q 352 40 301 39 Q 250 37 195 24 Z" fill="red"></path>
				<path d="M 890 -54 Q 904 -54 910 -50 Q 926 -11 931 38 Q 940 124 940 163 Q 939 172 925 177 Q 912 177 907 173 Q 892 134 891 86.5 Q 890 39 878 -10 Q 790 -4 682 44 Q 663 62 660 98 L 660 303 L 664 356 L 664 463 L 668 519 L 668 606 L 664 639 Q 664 698 670 733 L 670 749 Q 669 753 663.5 757 Q 658 761 655 762 Q 641 762 635 758 Q 624 744 622.5 723 Q 621 702 619 680 L 624 606 L 624 519 L 619 463 L 619 356 L 615 303 L 615 86 Q 619 47 639 25 Q 683 -10 738.5 -27 Q 794 -44 849 -54 L 886 -52 L 890 -54 Z" fill="lightgray"></path>
</g>
		<text x="40" y="140" font-size="128" fill="#999999">5</text></g>
</g>
	<g id="id1:id1" transform="translate(0.0,1024)">
		<g id="id1:id0:id0" transform="matrix(1.0,0,0,1.0,0,0.0)">			<g stroke="lightgray" stroke-width="4" transform="scale(4, 4)"> <rect x="0" y="0" width="256" height="256" fill="white" stroke-width="4"/></g>
			<g transform="scale(0.92, -0.92) translate(60, -920)">					<path d="M 418 561 Q 367 527 313 509 Q 234 483 210 477 L 186 481 Q 227 554 247 626 Q 259 668 289 764 L 289 784 Q 287 797 282 798 Q 274 799 269 794 Q 242 714 212 629 Q 182 544 122 468 L 107 456 L 99 443 L 100 433 Q 103 423 109 422 L 126 420 Q 251 437 301 453 Q 350 469 440 527 C 465 543 443 577 418 561 Z" fill="black"></path>
				<path d="M 568 399 Q 589 405 589 419 Q 589 431 576 446 Q 566 459 552 472 Q 516 503 449 577 Q 411 619 372 673 L 362 673 Q 354 668 354 660 Q 352 642 356 639 Q 382 619 418 561 L 440 527 Q 462 502 490 472 Q 502 459 549 409 L 568 399 Z" fill="black"></path>
				<path d="M 182 27 Q 169 79 161 128 Q 153 176 132 229 C 121 257 97 269 92 239 L 89 234 Q 111 168 123 100 Q 135 31 151 -36 L 169 -53 Q 200 -53 197 -32 L 195 -20 L 182 27 Z" fill="black"></path>
				<path d="M 132 229 Q 232 254 298 264 Q 363 275 430 289 L 438 289 Q 424 150 406 56 L 406 42 C 404 12 424 8 430 37 Q 443 104 450 170 Q 457 235 470 299 L 470 315 Q 466 325 454 335 Q 377 320 300 308 Q 223 296 105 271 Q 94 268 90 257 L 92 239 C 93 219 103 222 132 229 Z" fill="black"></path>
				<path d="M 195 24 L 182 27 C 153 34 166 -28 195 -20 Q 243 -7 282 -6 Q 321 -5 360 -1 L 389 -1 Q 400 -1 409 -9 L 418 -7 L 432 -12 Q 444 -8 446 3 Q 446 23 444 25 L 430 37 L 406 42 Q 352 40 301 39 Q 250 37 195 24 Z" fill="black"></path>
				<path d="M 890 -54 Q 904 -54 910 -50 Q 926 -11 931 38 Q 940 124 940 163 Q 939 172 925 177 Q 912 177 907 173 Q 892 134 891 86.5 Q 890 39 878 -10 Q 790 -4 682 44 Q 663 62 660 98 L 660 303 L 664 356 L 664 463 L 668 519 L 668 606 L 664 639 Q 664 698 670 733 L 670 749 Q 669 753 663.5 757 Q 658 761 655 762 Q 641 762 635 758 Q 624 744 622.5 723 Q 621 702 619 680 L 624 606 L 624 519 L 619 463 L 619 356 L 615 303 L 615 86 Q 619 47 639 25 Q 683 -10 738.5 -27 Q 794 -44 849 -54 L 886 -52 L 890 -54 Z" fill="red"></path>
</g>
		<text x="40" y="140" font-size="128" fill="#999999">6</text></g>
		<g id="id1:id1:id1" transform="matrix(1.0,0,0,1.0,1024,0.0)">			<g stroke="white" stroke-width="4" transform="scale(4, 4)"> <rect x="1" y="1" width="255" height="255" fill="white" stroke-width="0"/></g>
</g>
		<g id="id1:id2:id2" transform="matrix(1.0,0,0,1.0,2048,0.0)">			<g stroke="white" stroke-width="4" transform="scale(4, 4)"> <rect x="1" y="1" width="255" height="255" fill="white" stroke-width="0"/></g>
</g>
		<g id="id1:id3:id3" transform="matrix(1.0,0,0,1.0,3072,0.0)">			<g stroke="white" stroke-width="4" transform="scale(4, 4)"> <rect x="1" y="1" width="255" height="255" fill="white" stroke-width="0"/></g>
</g>
		<g id="id1:id4:id4" transform="matrix(1.0,0,0,1.0,4096,0.0)">			<g stroke="white" stroke-width="4" transform="scale(4, 4)"> <rect x="1" y="1" width="255" height="255" fill="white" stroke-width="0"/></g>
</g>
</g>
</svg>
