<?xml version="1.0" standalone="no"?>
<!DOCTYPE svg PUBLIC "-//W3C//DTD SVG 1.1//EN"
 "http://www.w3.org/Graphics/SVG/1.1/DTD/svg11.dtd">
<!-- generate by Japanese dictionary app com.asnsami.kanjidictionary -->

<svg xmlns="http://www.w3.org/2000/svg" xmlns:sodipodi="http://sodipodi.sourceforge.net/DTD/sodipodi-0.dtd" version="1.1" width="640" height="256" viewBox="0 0 5120 2048">
	<g id="id0:id0" transform="translate(0.0,0)">
		<g id="id0:id0:id0" transform="matrix(1.0,0,0,1.0,0,0.0)">			<g stroke="lightgray" stroke-width="4" transform="scale(4, 4)"> <rect x="0" y="0" width="256" height="256" fill="white" stroke-width="4"/></g>
			<g transform="scale(0.92, -0.92) translate(60, -920)">					<path d="M 292 320 Q 290 424 290 527 L 288 574 L 291 750 Q 291 764 285 775 Q 272 782 270 782 Q 264 782 252 775 Q 247 766 247 740 Q 247 727 245 715 L 248 418 Q 248 324 247 308 C 246 278 293 290 292 320 Z" fill="red"></path>
				<path d="M 290 527 Q 355 544 417 550 Q 479 555 535 573 Q 541 585 541 588 Q 541 597 535 604 L 523 610 Q 470 601 415 594 Q 360 587 306 574 L 288 574 C 258 574 261 520 290 527 Z" fill="lightgray"></path>
				<path d="M 190 19 Q 182 113 144 230 L 144 241 C 144 271 143 279 128 282 Q 120 284 114 284 Q 106 284 102 281 Q 97 278 95 278 L 91 269 Q 114 191 130 110 Q 146 29 161 -49 L 171 -54 L 176 -55 Q 180 -55 192 -49 L 198 -26 L 190 19 Z" fill="lightgray"></path>
				<path d="M 144 241 Q 210 252 456 310 L 408 64 C 402 35 390 26 394 19 L 406 -2 L 416 -8 Q 427 -8 431 -6 Q 434 -3 437 -2 Q 456 75 473 155 Q 488 236 508 314 L 509 322 Q 509 341 488 354 Q 437 354 394 342 Q 351 330 292 320 L 247 308 Q 199 301 128 282 C 99 274 114 236 144 241 Z" fill="lightgray"></path>
				<path d="M 408 64 Q 330 60 190 19 C 161 11 170 -35 198 -26 Q 315 13 394 19 C 424 22 438 66 408 64 Z" fill="lightgray"></path>
				<path d="M 855 -60 Q 878 -60 887 -52 L 894 -41 L 890 -21 Q 927 115 927 146 Q 927 159 911 165 Q 907 167 904 167 Q 898 167 894 164 Q 890 161 889 160 Q 879 121 869 77.5 Q 859 34 846 -15 Q 798 -7 753 -4.5 Q 708 -2 669 23 L 656 50 Q 658 61 658 734 Q 656 748 656 761.5 Q 656 775 649 782 Q 636 789 633 789 Q 624 789 617 783 L 609 772 L 614 724 L 612 60 Q 612 26 628 -2 Q 673 -42 735 -48 Q 797 -54 855 -60 Z" fill="lightgray"></path>
</g>
		<text x="40" y="140" font-size="128" fill="#999999">1</text></g>
		<g id="id0:id1:id1" transform="matrix(1.0,0,0,1.0,1024,0.0)">			<g stroke="lightgray" stroke-width="4" transform="scale(4, 4)"> <rect x="0" y="0" width="256" height="256" fill="white" stroke-width="4"/></g>
			<g transform="scale(0.92, -0.92) translate(60, -920)">					<path d="M 292 320 Q 290 424 290 527 L 288 574 L 291 750 Q 291 764 285 775 Q 272 782 270 782 Q 264 782 252 775 Q 247 766 247 740 Q 247 727 245 715 L 248 418 Q 248 324 247 308 C 246 278 293 290 292 320 Z" fill="black"></path>
				<path d="M 290 527 Q 355 544 417 550 Q 479 555 535 573 Q 541 585 541 588 Q 541 597 535 604 L 523 610 Q 470 601 415 594 Q 360 587 306 574 L 288 574 C 258 574 261 520 290 527 Z" fill="red"></path>
				<path d="M 190 19 Q 182 113 144 230 L 144 241 C 144 271 143 279 128 282 Q 120 284 114 284 Q 106 284 102 281 Q 97 278 95 278 L 91 269 Q 114 191 130 110 Q 146 29 161 -49 L 171 -54 L 176 -55 Q 180 -55 192 -49 L 198 -26 L 190 19 Z" fill="lightgray"></path>
				<path d="M 144 241 Q 210 252 456 310 L 408 64 C 402 35 390 26 394 19 L 406 -2 L 416 -8 Q 427 -8 431 -6 Q 434 -3 437 -2 Q 456 75 473 155 Q 488 236 508 314 L 509 322 Q 509 341 488 354 Q 437 354 394 342 Q 351 330 292 320 L 247 308 Q 199 301 128 282 C 99 274 114 236 144 241 Z" fill="lightgray"></path>
				<path d="M 408 64 Q 330 60 190 19 C 161 11 170 -35 198 -26 Q 315 13 394 19 C 424 22 438 66 408 64 Z" fill="lightgray"></path>
				<path d="M 855 -60 Q 878 -60 887 -52 L 894 -41 L 890 -21 Q 927 115 927 146 Q 927 159 911 165 Q 907 167 904 167 Q 898 167 894 164 Q 890 161 889 160 Q 879 121 869 77.5 Q 859 34 846 -15 Q 798 -7 753 -4.5 Q 708 -2 669 23 L 656 50 Q 658 61 658 734 Q 656 748 656 761.5 Q 656 775 649 782 Q 636 789 633 789 Q 624 789 617 783 L 609 772 L 614 724 L 612 60 Q 612 26 628 -2 Q 673 -42 735 -48 Q 797 -54 855 -60 Z" fill="lightgray"></path>
</g>
		<text x="40" y="140" font-size="128" fill="#999999">2</text></g>
		<g id="id0:id2:id2" transform="matrix(1.0,0,0,1.0,2048,0.0)">			<g stroke="lightgray" stroke-width="4" transform="scale(4, 4)"> <rect x="0" y="0" width="256" height="256" fill="white" stroke-width="4"/></g>
			<g transform="scale(0.92, -0.92) translate(60, -920)">					<path d="M 292 320 Q 290 424 290 527 L 288 574 L 291 750 Q 291 764 285 775 Q 272 782 270 782 Q 264 782 252 775 Q 247 766 247 740 Q 247 727 245 715 L 248 418 Q 248 324 247 308 C 246 278 293 290 292 320 Z" fill="black"></path>
				<path d="M 290 527 Q 355 544 417 550 Q 479 555 535 573 Q 541 585 541 588 Q 541 597 535 604 L 523 610 Q 470 601 415 594 Q 360 587 306 574 L 288 574 C 258 574 261 520 290 527 Z" fill="black"></path>
				<path d="M 190 19 Q 182 113 144 230 L 144 241 C 144 271 143 279 128 282 Q 120 284 114 284 Q 106 284 102 281 Q 97 278 95 278 L 91 269 Q 114 191 130 110 Q 146 29 161 -49 L 171 -54 L 176 -55 Q 180 -55 192 -49 L 198 -26 L 190 19 Z" fill="red"></path>
				<path d="M 144 241 Q 210 252 456 310 L 408 64 C 402 35 390 26 394 19 L 406 -2 L 416 -8 Q 427 -8 431 -6 Q 434 -3 437 -2 Q 456 75 473 155 Q 488 236 508 314 L 509 322 Q 509 341 488 354 Q 437 354 394 342 Q 351 330 292 320 L 247 308 Q 199 301 128 282 C 99 274 114 236 144 241 Z" fill="lightgray"></path>
				<path d="M 408 64 Q 330 60 190 19 C 161 11 170 -35 198 -26 Q 315 13 394 19 C 424 22 438 66 408 64 Z" fill="lightgray"></path>
				<path d="M 855 -60 Q 878 -60 887 -52 L 894 -41 L 890 -21 Q 927 115 927 146 Q 927 159 911 165 Q 907 167 904 167 Q 898 167 894 164 Q 890 161 889 160 Q 879 121 869 77.5 Q 859 34 846 -15 Q 798 -7 753 -4.5 Q 708 -2 669 23 L 656 50 Q 658 61 658 734 Q 656 748 656 761.5 Q 656 775 649 782 Q 636 789 633 789 Q 624 789 617 783 L 609 772 L 614 724 L 612 60 Q 612 26 628 -2 Q 673 -42 735 -48 Q 797 -54 855 -60 Z" fill="lightgray"></path>
</g>
		<text x="40" y="140" font-size="128" fill="#999999">3</text></g>
		<g id="id0:id3:id3" transform="matrix(1.0,0,0,1.0,3072,0.0)">			<g stroke="lightgray" stroke-width="4" transform="scale(4, 4)"> <rect x="0" y="0" width="256" height="256" fill="white" stroke-width="4"/></g>
			<g transform="scale(0.92, -0.92) translate(60, -920)">					<path d="M 292 320 Q 290 424 290 527 L 288 574 L 291 750 Q 291 764 285 775 Q 272 782 270 782 Q 264 782 252 775 Q 247 766 247 740 Q 247 727 245 715 L 248 418 Q 248 324 247 308 C 246 278 293 290 292 320 Z" fill="black"></path>
				<path d="M 290 527 Q 355 544 417 550 Q 479 555 535 573 Q 541 585 541 588 Q 541 597 535 604 L 523 610 Q 470 601 415 594 Q 360 587 306 574 L 288 574 C 258 574 261 520 290 527 Z" fill="black"></path>
				<path d="M 190 19 Q 182 113 144 230 L 144 241 C 144 271 143 279 128 282 Q 120 284 114 284 Q 106 284 102 281 Q 97 278 95 278 L 91 269 Q 114 191 130 110 Q 146 29 161 -49 L 171 -54 L 176 -55 Q 180 -55 192 -49 L 198 -26 L 190 19 Z" fill="black"></path>
				<path d="M 144 241 Q 210 252 456 310 L 408 64 C 402 35 390 26 394 19 L 406 -2 L 416 -8 Q 427 -8 431 -6 Q 434 -3 437 -2 Q 456 75 473 155 Q 488 236 508 314 L 509 322 Q 509 341 488 354 Q 437 354 394 342 Q 351 330 292 320 L 247 308 Q 199 301 128 282 C 99 274 114 236 144 241 Z" fill="red"></path>
				<path d="M 408 64 Q 330 60 190 19 C 161 11 170 -35 198 -26 Q 315 13 394 19 C 424 22 438 66 408 64 Z" fill="lightgray"></path>
				<path d="M 855 -60 Q 878 -60 887 -52 L 894 -41 L 890 -21 Q 927 115 927 146 Q 927 159 911 165 Q 907 167 904 167 Q 898 167 894 164 Q 890 161 889 160 Q 879 121 869 77.5 Q 859 34 846 -15 Q 798 -7 753 -4.5 Q 708 -2 669 23 L 656 50 Q 658 61 658 734 Q 656 748 656 761.5 Q 656 775 649 782 Q 636 789 633 789 Q 624 789 617 783 L 609 772 L 614 724 L 612 60 Q 612 26 628 -2 Q 673 -42 735 -48 Q 797 -54 855 -60 Z" fill="lightgray"></path>
</g>
		<text x="40" y="140" font-size="128" fill="#999999">4</text></g>
		<g id="id0:id4:id4" transform="matrix(1.0,0,0,1.0,4096,0.0)">			<g stroke="lightgray" stroke-width="4" transform="scale(4, 4)"> <rect x="0" y="0" width="256" height="256" fill="white" stroke-width="4"/></g>
			<g transform="scale(0.92, -0.92) translate(60, -920)">					<path d="M 292 320 Q 290 424 290 527 L 288 574 L 291 750 Q 291 764 285 775 Q 272 782 270 782 Q 264 782 252 775 Q 247 766 247 740 Q 247 727 245 715 L 248 418 Q 248 324 247 308 C 246 278 293 290 292 320 Z" fill="black"></path>
				<path d="M 290 527 Q 355 544 417 550 Q 479 555 535 573 Q 541 585 541 588 Q 541 597 535 604 L 523 610 Q 470 601 415 594 Q 360 587 306 574 L 288 574 C 258 574 261 520 290 527 Z" fill="black"></path>
				<path d="M 190 19 Q 182 113 144 230 L 144 241 C 144 271 143 279 128 282 Q 120 284 114 284 Q 106 284 102 281 Q 97 278 95 278 L 91 269 Q 114 191 130 110 Q 146 29 161 -49 L 171 -54 L 176 -55 Q 180 -55 192 -49 L 198 -26 L 190 19 Z" fill="black"></path>
				<path d="M 144 241 Q 210 252 456 310 L 408 64 C 402 35 390 26 394 19 L 406 -2 L 416 -8 Q 427 -8 431 -6 Q 434 -3 437 -2 Q 456 75 473 155 Q 488 236 508 314 L 509 322 Q 509 341 488 354 Q 437 354 394 342 Q 351 330 292 320 L 247 308 Q 199 301 128 282 C 99 274 114 236 144 241 Z" fill="black"></path>
				<path d="M 408 64 Q 330 60 190 19 C 161 11 170 -35 198 -26 Q 315 13 394 19 C 424 22 438 66 408 64 Z" fill="red"></path>
				<path d="M 855 -60 Q 878 -60 887 -52 L 894 -41 L 890 -21 Q 927 115 927 146 Q 927 159 911 165 Q 907 167 904 167 Q 898 167 894 164 Q 890 161 889 160 Q 879 121 869 77.5 Q 859 34 846 -15 Q 798 -7 753 -4.5 Q 708 -2 669 23 L 656 50 Q 658 61 658 734 Q 656 748 656 761.5 Q 656 775 649 782 Q 636 789 633 789 Q 624 789 617 783 L 609 772 L 614 724 L 612 60 Q 612 26 628 -2 Q 673 -42 735 -48 Q 797 -54 855 -60 Z" fill="lightgray"></path>
</g>
		<text x="40" y="140" font-size="128" fill="#999999">5</text></g>
</g>
	<g id="id1:id1" transform="translate(0.0,1024)">
		<g id="id1:id0:id0" transform="matrix(1.0,0,0,1.0,0,0.0)">			<g stroke="lightgray" stroke-width="4" transform="scale(4, 4)"> <rect x="0" y="0" width="256" height="256" fill="white" stroke-width="4"/></g>
			<g transform="scale(0.92, -0.92) translate(60, -920)">					<path d="M 292 320 Q 290 424 290 527 L 288 574 L 291 750 Q 291 764 285 775 Q 272 782 270 782 Q 264 782 252 775 Q 247 766 247 740 Q 247 727 245 715 L 248 418 Q 248 324 247 308 C 246 278 293 290 292 320 Z" fill="black"></path>
				<path d="M 290 527 Q 355 544 417 550 Q 479 555 535 573 Q 541 585 541 588 Q 541 597 535 604 L 523 610 Q 470 601 415 594 Q 360 587 306 574 L 288 574 C 258 574 261 520 290 527 Z" fill="black"></path>
				<path d="M 190 19 Q 182 113 144 230 L 144 241 C 144 271 143 279 128 282 Q 120 284 114 284 Q 106 284 102 281 Q 97 278 95 278 L 91 269 Q 114 191 130 110 Q 146 29 161 -49 L 171 -54 L 176 -55 Q 180 -55 192 -49 L 198 -26 L 190 19 Z" fill="black"></path>
				<path d="M 144 241 Q 210 252 456 310 L 408 64 C 402 35 390 26 394 19 L 406 -2 L 416 -8 Q 427 -8 431 -6 Q 434 -3 437 -2 Q 456 75 473 155 Q 488 236 508 314 L 509 322 Q 509 341 488 354 Q 437 354 394 342 Q 351 330 292 320 L 247 308 Q 199 301 128 282 C 99 274 114 236 144 241 Z" fill="black"></path>
				<path d="M 408 64 Q 330 60 190 19 C 161 11 170 -35 198 -26 Q 315 13 394 19 C 424 22 438 66 408 64 Z" fill="black"></path>
				<path d="M 855 -60 Q 878 -60 887 -52 L 894 -41 L 890 -21 Q 927 115 927 146 Q 927 159 911 165 Q 907 167 904 167 Q 898 167 894 164 Q 890 161 889 160 Q 879 121 869 77.5 Q 859 34 846 -15 Q 798 -7 753 -4.5 Q 708 -2 669 23 L 656 50 Q 658 61 658 734 Q 656 748 656 761.5 Q 656 775 649 782 Q 636 789 633 789 Q 624 789 617 783 L 609 772 L 614 724 L 612 60 Q 612 26 628 -2 Q 673 -42 735 -48 Q 797 -54 855 -60 Z" fill="red"></path>
</g>
		<text x="40" y="140" font-size="128" fill="#999999">6</text></g>
		<g id="id1:id1:id1" transform="matrix(1.0,0,0,1.0,1024,0.0)">			<g stroke="white" stroke-width="4" transform="scale(4, 4)"> <rect x="1" y="1" width="255" height="255" fill="white" stroke-width="0"/></g>
</g>
		<g id="id1:id2:id2" transform="matrix(1.0,0,0,1.0,2048,0.0)">			<g stroke="white" stroke-width="4" transform="scale(4, 4)"> <rect x="1" y="1" width="255" height="255" fill="white" stroke-width="0"/></g>
</g>
		<g id="id1:id3:id3" transform="matrix(1.0,0,0,1.0,3072,0.0)">			<g stroke="white" stroke-width="4" transform="scale(4, 4)"> <rect x="1" y="1" width="255" height="255" fill="white" stroke-width="0"/></g>
</g>
		<g id="id1:id4:id4" transform="matrix(1.0,0,0,1.0,4096,0.0)">			<g stroke="white" stroke-width="4" transform="scale(4, 4)"> <rect x="1" y="1" width="255" height="255" fill="white" stroke-width="0"/></g>
</g>
</g>
</svg>
