<?xml version="1.0" standalone="no"?>
<!DOCTYPE svg PUBLIC "-//W3C//DTD SVG 1.1//EN"
 "http://www.w3.org/Graphics/SVG/1.1/DTD/svg11.dtd">
<!-- generate by Japanese dictionary app com.asnsami.kanjidictionary -->

<svg xmlns="http://www.w3.org/2000/svg" xmlns:sodipodi="http://sodipodi.sourceforge.net/DTD/sodipodi-0.dtd" version="1.1" width="640" height="128" viewBox="0 0 5120 1024">
	<g id="id0:id0" transform="translate(0.0,0)">
		<g id="id0:id0:id0" transform="matrix(1.0,0,0,1.0,0,0.0)">			<g stroke="lightgray" stroke-width="4" transform="scale(4, 4)"> <rect x="0" y="0" width="256" height="256" fill="white" stroke-width="4"/></g>
			<g transform="scale(0.92, -0.92) translate(60, -920)">					<path d="M 206 641 Q 474 670 793 718 L 799 728 Q 799 737 793 749 L 783 754 Q 553 738 196 678 L 190 668 L 189 664 Q 189 659 197 646 L 206 641 Z" fill="red"></path>
				<path d="M 537 443 Q 624 453 709 459 Q 794 465 873 480 L 879 489 Q 879 501 872 510 L 863 516 Q 679 501 493.5 484.5 Q 308 468 129 436 Q 123 424 123 421 Q 123 417 129 405 L 139 399 Q 219 412 300 419 Q 381 426 463 438 L 492 438 L 537 443 Z" fill="lightgray"></path>
				<path d="M 507 -52 Q 513 -52 533 -42 Q 542 -25 542 1 Q 542 26 546 48 Q 544 112 543 177 Q 541 241 537 304 L 537 443 C 537 473 492 468 492 438 L 492 292 L 502 79 L 498 -1 Q 447 19 407 41 Q 340 77 320 80 Q 316 80 312 78 Q 307 76 304 74 Q 298 61 298 58 Q 298 50 304 43 Q 352 17 401 -9 Q 450 -34 501 -51 L 507 -52 Z" fill="lightgray"></path>
</g>
		<text x="40" y="140" font-size="128" fill="#999999">1</text></g>
		<g id="id0:id1:id1" transform="matrix(1.0,0,0,1.0,1024,0.0)">			<g stroke="lightgray" stroke-width="4" transform="scale(4, 4)"> <rect x="0" y="0" width="256" height="256" fill="white" stroke-width="4"/></g>
			<g transform="scale(0.92, -0.92) translate(60, -920)">					<path d="M 206 641 Q 474 670 793 718 L 799 728 Q 799 737 793 749 L 783 754 Q 553 738 196 678 L 190 668 L 189 664 Q 189 659 197 646 L 206 641 Z" fill="black"></path>
				<path d="M 537 443 Q 624 453 709 459 Q 794 465 873 480 L 879 489 Q 879 501 872 510 L 863 516 Q 679 501 493.5 484.5 Q 308 468 129 436 Q 123 424 123 421 Q 123 417 129 405 L 139 399 Q 219 412 300 419 Q 381 426 463 438 L 492 438 L 537 443 Z" fill="red"></path>
				<path d="M 507 -52 Q 513 -52 533 -42 Q 542 -25 542 1 Q 542 26 546 48 Q 544 112 543 177 Q 541 241 537 304 L 537 443 C 537 473 492 468 492 438 L 492 292 L 502 79 L 498 -1 Q 447 19 407 41 Q 340 77 320 80 Q 316 80 312 78 Q 307 76 304 74 Q 298 61 298 58 Q 298 50 304 43 Q 352 17 401 -9 Q 450 -34 501 -51 L 507 -52 Z" fill="lightgray"></path>
</g>
		<text x="40" y="140" font-size="128" fill="#999999">2</text></g>
		<g id="id0:id2:id2" transform="matrix(1.0,0,0,1.0,2048,0.0)">			<g stroke="lightgray" stroke-width="4" transform="scale(4, 4)"> <rect x="0" y="0" width="256" height="256" fill="white" stroke-width="4"/></g>
			<g transform="scale(0.92, -0.92) translate(60, -920)">					<path d="M 206 641 Q 474 670 793 718 L 799 728 Q 799 737 793 749 L 783 754 Q 553 738 196 678 L 190 668 L 189 664 Q 189 659 197 646 L 206 641 Z" fill="black"></path>
				<path d="M 537 443 Q 624 453 709 459 Q 794 465 873 480 L 879 489 Q 879 501 872 510 L 863 516 Q 679 501 493.5 484.5 Q 308 468 129 436 Q 123 424 123 421 Q 123 417 129 405 L 139 399 Q 219 412 300 419 Q 381 426 463 438 L 492 438 L 537 443 Z" fill="black"></path>
				<path d="M 507 -52 Q 513 -52 533 -42 Q 542 -25 542 1 Q 542 26 546 48 Q 544 112 543 177 Q 541 241 537 304 L 537 443 C 537 473 492 468 492 438 L 492 292 L 502 79 L 498 -1 Q 447 19 407 41 Q 340 77 320 80 Q 316 80 312 78 Q 307 76 304 74 Q 298 61 298 58 Q 298 50 304 43 Q 352 17 401 -9 Q 450 -34 501 -51 L 507 -52 Z" fill="red"></path>
</g>
		<text x="40" y="140" font-size="128" fill="#999999">3</text></g>
		<g id="id0:id3:id3" transform="matrix(1.0,0,0,1.0,3072,0.0)">			<g stroke="white" stroke-width="4" transform="scale(4, 4)"> <rect x="1" y="1" width="255" height="255" fill="white" stroke-width="0"/></g>
</g>
		<g id="id0:id4:id4" transform="matrix(1.0,0,0,1.0,4096,0.0)">			<g stroke="white" stroke-width="4" transform="scale(4, 4)"> <rect x="1" y="1" width="255" height="255" fill="white" stroke-width="0"/></g>
</g>
</g>
</svg>
