<?xml version="1.0" standalone="no"?>
<!DOCTYPE svg PUBLIC "-//W3C//DTD SVG 1.1//EN"   "http://www.w3.org/Graphics/SVG/1.1/DTD/svg11.dtd">
<svg width="751" height="151"  version="1.1" xmlns="http://www.w3.org/2000/svg">
  <defs>
    <marker id="Triangle" viewBox="0 0 10 10" refX="0" refY="5" markerUnits="strokeWidth" markerWidth="3" style="stroke-opacity:0%;fill:#aaaaaa;" markerHeight="2" orient="auto">
      <path d="M 0 0 L 10 5 L 0 10 z" />
    </marker>
    
    <marker id="Arrow" viewBox="0 0 10 10" refX="5" refY="5" markerUnits="strokeWidth" markerWidth="1.8" style="stroke-opacity:0%;fill:#770000;" markerHeight="2" orient="auto">
      <path d="M 0 4 L 6 4 L 4 1 L 10 5 L 4 9 L 6 6 L 0 6 z" />
        <circle cx="5" cy="5" r="5" />
      </marker>
    
    <marker id="TriangleRed" viewBox="0 0 10 10" refX="0" refY="5" markerUnits="strokeWidth" markerWidth="3" style="stroke-opacity:0%;fill:#CC0000;" markerHeight="2" orient="auto">
      <path d="M 0 0 L 10 5 L 0 10 z" />
    </marker>
    
    <marker id="ArrowRed" viewBox="0 0 10 10" refX="5" refY="5" markerUnits="strokeWidth" markerWidth="1.8" style="stroke-opacity:0%;fill:#CC0000;" markerHeight="2" orient="auto">
      <path d="M 0 4 L 6 4 L 4 1 L 10 5 L 4 9 L 6 6 L 0 6 z" />
        <circle cx="5" cy="5" r="5" />
      </marker>
    
  </defs>
  
  <path style="fill:#ffffff; fill-opacity:100%; fill-rule:evenodd; stroke-width:0;" d="M 0 0 L 751 0 L 751 151 L 0 151 L 0 0" />

  <g transform="scale(1.3761467889908 1.3761467889908) translate(0, 0)">
<path style="fill:none; fill-rule:evenodd; stroke:#aaaaaa;  stroke-width:1pt; stroke-linecap:round;" d="m 109 0 L 0 0 L 0 109 L 109 109 L 109 0"></path><path style="fill:none; fill-opacity:0%; fill-rule:evenodd; stroke:#aaaaaa; stroke-opacity:100%; stroke-width: 1.5pt; stroke-linejoin:round; stroke-linecap:round;" d="M51.11 12.25c1.13 0.61 2.98 2.96 2.98 4.16c0 4.45-0.35 6.38-0.15 10.15"></path>
<path style="fill:none; fill-opacity:0%; fill-rule:evenodd; stroke:#aaaaaa; stroke-opacity:100%; stroke-width: 1.5pt; stroke-linejoin:round; stroke-linecap:round;" d="M19.5 30.11c1.42 0.1 4.67 0.65 6.06 0.55c12.19-0.91 42.94-3.91 57.14-4.2c2.35-0.05 3.55 0.05 5.3 0.7"></path>
<path style="fill:none; fill-opacity:0%; fill-rule:evenodd; stroke:#aaaaaa; stroke-opacity:100%; stroke-width: 1.5pt; stroke-linejoin:round; stroke-linecap:round;" d="M39.79 44c0.71 1 0.78 3.36 0.87 5.25c0.18 4.04 0.19 9.72 0.09 17.25C40.5 86 25.25 96.25 16.5 99.5"></path>
<path style="fill:none; fill-opacity:0%; fill-rule:evenodd; stroke:#aaaaaa; stroke-opacity:100%; stroke-width: 1.5pt; stroke-linejoin:round; stroke-linecap:round;" d="M41.75 46c6.5-1 13.5-2.5 20-3.75c2.88-0.55 5 1.5 4.81 4.05c-0.62 8.16-0.41 33.14-0.41 38.7c0 11 6.44 11.53 13.27 11.53c7.21 0 11.08-0.53 12.97-2.62c1.96-2.18 1.56-3 1.75-6.5"></path>

<text x="5" y="20" font-size="20" fill="#999999">1</text><path style="fill:none; fill-opacity:0%; fill-rule:evenodd; stroke:#CC0000; stroke-opacity:100%; stroke-width: 3pt; stroke-linejoin:round; stroke-linecap:round;" d="M51.11 12.25c1.13 0.61 2.98 2.96 2.98 4.16c0 4.45-0.35 6.38-0.15 10.15"  ></path>




</g><g transform="scale(1.3761467889908 1.3761467889908) translate(109, 0)">
<path style="fill:none; fill-rule:evenodd; stroke:#aaaaaa;  stroke-width:1pt; stroke-linecap:round;" d="m 109 0 L 0 0 L 0 109 L 109 109 L 109 0"></path><path style="fill:none; fill-opacity:0%; fill-rule:evenodd; stroke:#aaaaaa; stroke-opacity:100%; stroke-width: 1.5pt; stroke-linejoin:round; stroke-linecap:round;" d="M51.11 12.25c1.13 0.61 2.98 2.96 2.98 4.16c0 4.45-0.35 6.38-0.15 10.15"></path>
<path style="fill:none; fill-opacity:0%; fill-rule:evenodd; stroke:#aaaaaa; stroke-opacity:100%; stroke-width: 1.5pt; stroke-linejoin:round; stroke-linecap:round;" d="M19.5 30.11c1.42 0.1 4.67 0.65 6.06 0.55c12.19-0.91 42.94-3.91 57.14-4.2c2.35-0.05 3.55 0.05 5.3 0.7"></path>
<path style="fill:none; fill-opacity:0%; fill-rule:evenodd; stroke:#aaaaaa; stroke-opacity:100%; stroke-width: 1.5pt; stroke-linejoin:round; stroke-linecap:round;" d="M39.79 44c0.71 1 0.78 3.36 0.87 5.25c0.18 4.04 0.19 9.72 0.09 17.25C40.5 86 25.25 96.25 16.5 99.5"></path>
<path style="fill:none; fill-opacity:0%; fill-rule:evenodd; stroke:#aaaaaa; stroke-opacity:100%; stroke-width: 1.5pt; stroke-linejoin:round; stroke-linecap:round;" d="M41.75 46c6.5-1 13.5-2.5 20-3.75c2.88-0.55 5 1.5 4.81 4.05c-0.62 8.16-0.41 33.14-0.41 38.7c0 11 6.44 11.53 13.27 11.53c7.21 0 11.08-0.53 12.97-2.62c1.96-2.18 1.56-3 1.75-6.5"></path>

<path style="fill:none; fill-opacity:0%; fill-rule:evenodd; stroke:#000000; stroke-opacity:100%; stroke-width: 3pt; stroke-linejoin:round; stroke-linecap:round;" d="M51.11 12.25c1.13 0.61 2.98 2.96 2.98 4.16c0 4.45-0.35 6.38-0.15 10.15"></path>
<text x="5" y="20" font-size="20" fill="#999999">2</text><path style="fill:none; fill-opacity:0%; fill-rule:evenodd; stroke:#CC0000; stroke-opacity:100%; stroke-width: 3pt; stroke-linejoin:round; stroke-linecap:round;" d="M19.5 30.11c1.42 0.1 4.67 0.65 6.06 0.55c12.19-0.91 42.94-3.91 57.14-4.2c2.35-0.05 3.55 0.05 5.3 0.7"  ></path>



</g><g transform="scale(1.3761467889908 1.3761467889908) translate(218, 0)">
<path style="fill:none; fill-rule:evenodd; stroke:#aaaaaa;  stroke-width:1pt; stroke-linecap:round;" d="m 109 0 L 0 0 L 0 109 L 109 109 L 109 0"></path><path style="fill:none; fill-opacity:0%; fill-rule:evenodd; stroke:#aaaaaa; stroke-opacity:100%; stroke-width: 1.5pt; stroke-linejoin:round; stroke-linecap:round;" d="M51.11 12.25c1.13 0.61 2.98 2.96 2.98 4.16c0 4.45-0.35 6.38-0.15 10.15"></path>
<path style="fill:none; fill-opacity:0%; fill-rule:evenodd; stroke:#aaaaaa; stroke-opacity:100%; stroke-width: 1.5pt; stroke-linejoin:round; stroke-linecap:round;" d="M19.5 30.11c1.42 0.1 4.67 0.65 6.06 0.55c12.19-0.91 42.94-3.91 57.14-4.2c2.35-0.05 3.55 0.05 5.3 0.7"></path>
<path style="fill:none; fill-opacity:0%; fill-rule:evenodd; stroke:#aaaaaa; stroke-opacity:100%; stroke-width: 1.5pt; stroke-linejoin:round; stroke-linecap:round;" d="M39.79 44c0.71 1 0.78 3.36 0.87 5.25c0.18 4.04 0.19 9.72 0.09 17.25C40.5 86 25.25 96.25 16.5 99.5"></path>
<path style="fill:none; fill-opacity:0%; fill-rule:evenodd; stroke:#aaaaaa; stroke-opacity:100%; stroke-width: 1.5pt; stroke-linejoin:round; stroke-linecap:round;" d="M41.75 46c6.5-1 13.5-2.5 20-3.75c2.88-0.55 5 1.5 4.81 4.05c-0.62 8.16-0.41 33.14-0.41 38.7c0 11 6.44 11.53 13.27 11.53c7.21 0 11.08-0.53 12.97-2.62c1.96-2.18 1.56-3 1.75-6.5"></path>

<path style="fill:none; fill-opacity:0%; fill-rule:evenodd; stroke:#000000; stroke-opacity:100%; stroke-width: 3pt; stroke-linejoin:round; stroke-linecap:round;" d="M51.11 12.25c1.13 0.61 2.98 2.96 2.98 4.16c0 4.45-0.35 6.38-0.15 10.15"></path>
<path style="fill:none; fill-opacity:0%; fill-rule:evenodd; stroke:#000000; stroke-opacity:100%; stroke-width: 3pt; stroke-linejoin:round; stroke-linecap:round;" d="M19.5 30.11c1.42 0.1 4.67 0.65 6.06 0.55c12.19-0.91 42.94-3.91 57.14-4.2c2.35-0.05 3.55 0.05 5.3 0.7"></path>
<text x="5" y="20" font-size="20" fill="#999999">3</text><path style="fill:none; fill-opacity:0%; fill-rule:evenodd; stroke:#CC0000; stroke-opacity:100%; stroke-width: 3pt; stroke-linejoin:round; stroke-linecap:round;" d="M39.79 44c0.71 1 0.78 3.36 0.87 5.25c0.18 4.04 0.19 9.72 0.09 17.25C40.5 86 25.25 96.25 16.5 99.5"  ></path>


</g><g transform="scale(1.3761467889908 1.3761467889908) translate(327, 0)">
<path style="fill:none; fill-rule:evenodd; stroke:#aaaaaa;  stroke-width:1pt; stroke-linecap:round;" d="m 109 0 L 0 0 L 0 109 L 109 109 L 109 0"></path><path style="fill:none; fill-opacity:0%; fill-rule:evenodd; stroke:#aaaaaa; stroke-opacity:100%; stroke-width: 1.5pt; stroke-linejoin:round; stroke-linecap:round;" d="M51.11 12.25c1.13 0.61 2.98 2.96 2.98 4.16c0 4.45-0.35 6.38-0.15 10.15"></path>
<path style="fill:none; fill-opacity:0%; fill-rule:evenodd; stroke:#aaaaaa; stroke-opacity:100%; stroke-width: 1.5pt; stroke-linejoin:round; stroke-linecap:round;" d="M19.5 30.11c1.42 0.1 4.67 0.65 6.06 0.55c12.19-0.91 42.94-3.91 57.14-4.2c2.35-0.05 3.55 0.05 5.3 0.7"></path>
<path style="fill:none; fill-opacity:0%; fill-rule:evenodd; stroke:#aaaaaa; stroke-opacity:100%; stroke-width: 1.5pt; stroke-linejoin:round; stroke-linecap:round;" d="M39.79 44c0.71 1 0.78 3.36 0.87 5.25c0.18 4.04 0.19 9.72 0.09 17.25C40.5 86 25.25 96.25 16.5 99.5"></path>
<path style="fill:none; fill-opacity:0%; fill-rule:evenodd; stroke:#aaaaaa; stroke-opacity:100%; stroke-width: 1.5pt; stroke-linejoin:round; stroke-linecap:round;" d="M41.75 46c6.5-1 13.5-2.5 20-3.75c2.88-0.55 5 1.5 4.81 4.05c-0.62 8.16-0.41 33.14-0.41 38.7c0 11 6.44 11.53 13.27 11.53c7.21 0 11.08-0.53 12.97-2.62c1.96-2.18 1.56-3 1.75-6.5"></path>

<path style="fill:none; fill-opacity:0%; fill-rule:evenodd; stroke:#000000; stroke-opacity:100%; stroke-width: 3pt; stroke-linejoin:round; stroke-linecap:round;" d="M51.11 12.25c1.13 0.61 2.98 2.96 2.98 4.16c0 4.45-0.35 6.38-0.15 10.15"></path>
<path style="fill:none; fill-opacity:0%; fill-rule:evenodd; stroke:#000000; stroke-opacity:100%; stroke-width: 3pt; stroke-linejoin:round; stroke-linecap:round;" d="M19.5 30.11c1.42 0.1 4.67 0.65 6.06 0.55c12.19-0.91 42.94-3.91 57.14-4.2c2.35-0.05 3.55 0.05 5.3 0.7"></path>
<path style="fill:none; fill-opacity:0%; fill-rule:evenodd; stroke:#000000; stroke-opacity:100%; stroke-width: 3pt; stroke-linejoin:round; stroke-linecap:round;" d="M39.79 44c0.71 1 0.78 3.36 0.87 5.25c0.18 4.04 0.19 9.72 0.09 17.25C40.5 86 25.25 96.25 16.5 99.5"></path>
<text x="5" y="20" font-size="20" fill="#999999">4</text><path style="fill:none; fill-opacity:0%; fill-rule:evenodd; stroke:#CC0000; stroke-opacity:100%; stroke-width: 3pt; stroke-linejoin:round; stroke-linecap:round;" d="M41.75 46c6.5-1 13.5-2.5 20-3.75c2.88-0.55 5 1.5 4.81 4.05c-0.62 8.16-0.41 33.14-0.41 38.7c0 11 6.44 11.53 13.27 11.53c7.21 0 11.08-0.53 12.97-2.62c1.96-2.18 1.56-3 1.75-6.5"  ></path>

</g>

</svg>  
          
