<?xml version="1.0" standalone="no"?>
<!DOCTYPE svg PUBLIC "-//W3C//DTD SVG 1.1//EN"   "http://www.w3.org/Graphics/SVG/1.1/DTD/svg11.dtd">
<svg width="751" height="301"  version="1.1" xmlns="http://www.w3.org/2000/svg">
  <defs>
    <marker id="Triangle" viewBox="0 0 10 10" refX="0" refY="5" markerUnits="strokeWidth" markerWidth="3" style="stroke-opacity:0%;fill:#aaaaaa;" markerHeight="2" orient="auto">
      <path d="M 0 0 L 10 5 L 0 10 z" />
    </marker>
    
    <marker id="Arrow" viewBox="0 0 10 10" refX="5" refY="5" markerUnits="strokeWidth" markerWidth="1.8" style="stroke-opacity:0%;fill:#770000;" markerHeight="2" orient="auto">
      <path d="M 0 4 L 6 4 L 4 1 L 10 5 L 4 9 L 6 6 L 0 6 z" />
        <circle cx="5" cy="5" r="5" />
      </marker>
    
    <marker id="TriangleRed" viewBox="0 0 10 10" refX="0" refY="5" markerUnits="strokeWidth" markerWidth="3" style="stroke-opacity:0%;fill:#CC0000;" markerHeight="2" orient="auto">
      <path d="M 0 0 L 10 5 L 0 10 z" />
    </marker>
    
    <marker id="ArrowRed" viewBox="0 0 10 10" refX="5" refY="5" markerUnits="strokeWidth" markerWidth="1.8" style="stroke-opacity:0%;fill:#CC0000;" markerHeight="2" orient="auto">
      <path d="M 0 4 L 6 4 L 4 1 L 10 5 L 4 9 L 6 6 L 0 6 z" />
        <circle cx="5" cy="5" r="5" />
      </marker>
    
  </defs>
  
  <path style="fill:#ffffff; fill-opacity:100%; fill-rule:evenodd; stroke-width:0;" d="M 0 0 L 751 0 L 751 301 L 0 301 L 0 0" />

  <g transform="scale(1.3761467889908 1.3761467889908) translate(0, 0)">
<path style="fill:none; fill-rule:evenodd; stroke:#aaaaaa;  stroke-width:1pt; stroke-linecap:round;" d="m 109 0 L 0 0 L 0 109 L 109 109 L 109 0"></path><path style="fill:none; fill-opacity:0%; fill-rule:evenodd; stroke:#aaaaaa; stroke-opacity:100%; stroke-width: 1.5pt; stroke-linejoin:round; stroke-linecap:round;" d="M52.79 9.61c1.13 1.13 1.34 2.32 1.34 3.27c0 3.49 0.09 4.25 0.09 7.31"></path>
<path style="fill:none; fill-opacity:0%; fill-rule:evenodd; stroke:#aaaaaa; stroke-opacity:100%; stroke-width: 1.5pt; stroke-linejoin:round; stroke-linecap:round;" d="M22 23.83c2.62 0.67 5.28 0.72 8.13 0.4c11.13-1.23 35.9-3.83 48.5-4.39c2.66-0.12 5.09-0.2 7.62 0.75"></path>
<path style="fill:none; fill-opacity:0%; fill-rule:evenodd; stroke:#aaaaaa; stroke-opacity:100%; stroke-width: 1.5pt; stroke-linejoin:round; stroke-linecap:round;" d="M35.64 33.39c0.82 0.51 1.52 1.25 1.59 2.24c0.82 2.52 1.95 6.15 2.67 9.4c0.21 0.95 0.41 1.87 0.61 2.72"></path>
<path style="fill:none; fill-opacity:0%; fill-rule:evenodd; stroke:#aaaaaa; stroke-opacity:100%; stroke-width: 1.5pt; stroke-linejoin:round; stroke-linecap:round;" d="M37.56 34.13c6.53-0.88 21.98-3.2 29.69-4.19c3.62-0.46 5.6-0.24 4.46 3.99c-0.58 2.14-1.3 4.11-2.54 8.02"></path>
<path style="fill:none; fill-opacity:0%; fill-rule:evenodd; stroke:#aaaaaa; stroke-opacity:100%; stroke-width: 1.5pt; stroke-linejoin:round; stroke-linecap:round;" d="M40.97 45.69c5.75-0.77 18.06-2.32 25.78-3.18c1.71-0.19 3.22-0.35 4.42-0.45"></path>
<path style="fill:none; fill-opacity:0%; fill-rule:evenodd; stroke:#aaaaaa; stroke-opacity:100%; stroke-width: 1.5pt; stroke-linejoin:round; stroke-linecap:round;" d="M22.29 55.69c-0.11 3.81-2.82 13.79-3.79 16.06"></path>
<path style="fill:none; fill-opacity:0%; fill-rule:evenodd; stroke:#aaaaaa; stroke-opacity:100%; stroke-width: 1.5pt; stroke-linejoin:round; stroke-linecap:round;" d="M23.22 57.75C34 57 67.48 51.96 85.19 51.5c9.56-0.25 4.06 5.75-0.69 9.5"></path>
<path style="fill:none; fill-opacity:0%; fill-rule:evenodd; stroke:#aaaaaa; stroke-opacity:100%; stroke-width: 1.5pt; stroke-linejoin:round; stroke-linecap:round;" d="M29.27 70.84c2.15 0.84 5.32 0.46 7.53 0.21c9.47-1.07 24.6-3.02 35.21-3.79c2.58-0.19 5.18-0.24 7.73 0.36"></path>
<path style="fill:none; fill-opacity:0%; fill-rule:evenodd; stroke:#aaaaaa; stroke-opacity:100%; stroke-width: 1.5pt; stroke-linejoin:round; stroke-linecap:round;" d="M55.01 70.79c0.85 0.85 1.08 1.96 1.08 3.44c0 9.74-0.09 17.33-0.09 20.64c0 9.3-5.88 1.12-7.36-0.75"></path>

<text x="5" y="20" font-size="20" fill="#999999">1</text><path style="fill:none; fill-opacity:0%; fill-rule:evenodd; stroke:#CC0000; stroke-opacity:100%; stroke-width: 3pt; stroke-linejoin:round; stroke-linecap:round;" d="M52.79 9.61c1.13 1.13 1.34 2.32 1.34 3.27c0 3.49 0.09 4.25 0.09 7.31" marker-end="url(#TriangleRed)" marker-start="url(#ArrowRed)" ></path>









</g><g transform="scale(1.3761467889908 1.3761467889908) translate(109, 0)">
<path style="fill:none; fill-rule:evenodd; stroke:#aaaaaa;  stroke-width:1pt; stroke-linecap:round;" d="m 109 0 L 0 0 L 0 109 L 109 109 L 109 0"></path><path style="fill:none; fill-opacity:0%; fill-rule:evenodd; stroke:#aaaaaa; stroke-opacity:100%; stroke-width: 1.5pt; stroke-linejoin:round; stroke-linecap:round;" d="M52.79 9.61c1.13 1.13 1.34 2.32 1.34 3.27c0 3.49 0.09 4.25 0.09 7.31"></path>
<path style="fill:none; fill-opacity:0%; fill-rule:evenodd; stroke:#aaaaaa; stroke-opacity:100%; stroke-width: 1.5pt; stroke-linejoin:round; stroke-linecap:round;" d="M22 23.83c2.62 0.67 5.28 0.72 8.13 0.4c11.13-1.23 35.9-3.83 48.5-4.39c2.66-0.12 5.09-0.2 7.62 0.75"></path>
<path style="fill:none; fill-opacity:0%; fill-rule:evenodd; stroke:#aaaaaa; stroke-opacity:100%; stroke-width: 1.5pt; stroke-linejoin:round; stroke-linecap:round;" d="M35.64 33.39c0.82 0.51 1.52 1.25 1.59 2.24c0.82 2.52 1.95 6.15 2.67 9.4c0.21 0.95 0.41 1.87 0.61 2.72"></path>
<path style="fill:none; fill-opacity:0%; fill-rule:evenodd; stroke:#aaaaaa; stroke-opacity:100%; stroke-width: 1.5pt; stroke-linejoin:round; stroke-linecap:round;" d="M37.56 34.13c6.53-0.88 21.98-3.2 29.69-4.19c3.62-0.46 5.6-0.24 4.46 3.99c-0.58 2.14-1.3 4.11-2.54 8.02"></path>
<path style="fill:none; fill-opacity:0%; fill-rule:evenodd; stroke:#aaaaaa; stroke-opacity:100%; stroke-width: 1.5pt; stroke-linejoin:round; stroke-linecap:round;" d="M40.97 45.69c5.75-0.77 18.06-2.32 25.78-3.18c1.71-0.19 3.22-0.35 4.42-0.45"></path>
<path style="fill:none; fill-opacity:0%; fill-rule:evenodd; stroke:#aaaaaa; stroke-opacity:100%; stroke-width: 1.5pt; stroke-linejoin:round; stroke-linecap:round;" d="M22.29 55.69c-0.11 3.81-2.82 13.79-3.79 16.06"></path>
<path style="fill:none; fill-opacity:0%; fill-rule:evenodd; stroke:#aaaaaa; stroke-opacity:100%; stroke-width: 1.5pt; stroke-linejoin:round; stroke-linecap:round;" d="M23.22 57.75C34 57 67.48 51.96 85.19 51.5c9.56-0.25 4.06 5.75-0.69 9.5"></path>
<path style="fill:none; fill-opacity:0%; fill-rule:evenodd; stroke:#aaaaaa; stroke-opacity:100%; stroke-width: 1.5pt; stroke-linejoin:round; stroke-linecap:round;" d="M29.27 70.84c2.15 0.84 5.32 0.46 7.53 0.21c9.47-1.07 24.6-3.02 35.21-3.79c2.58-0.19 5.18-0.24 7.73 0.36"></path>
<path style="fill:none; fill-opacity:0%; fill-rule:evenodd; stroke:#aaaaaa; stroke-opacity:100%; stroke-width: 1.5pt; stroke-linejoin:round; stroke-linecap:round;" d="M55.01 70.79c0.85 0.85 1.08 1.96 1.08 3.44c0 9.74-0.09 17.33-0.09 20.64c0 9.3-5.88 1.12-7.36-0.75"></path>

<path style="fill:none; fill-opacity:0%; fill-rule:evenodd; stroke:#000000; stroke-opacity:100%; stroke-width: 3pt; stroke-linejoin:round; stroke-linecap:round;" d="M52.79 9.61c1.13 1.13 1.34 2.32 1.34 3.27c0 3.49 0.09 4.25 0.09 7.31"></path>
<text x="5" y="20" font-size="20" fill="#999999">2</text><path style="fill:none; fill-opacity:0%; fill-rule:evenodd; stroke:#CC0000; stroke-opacity:100%; stroke-width: 3pt; stroke-linejoin:round; stroke-linecap:round;" d="M22 23.83c2.62 0.67 5.28 0.72 8.13 0.4c11.13-1.23 35.9-3.83 48.5-4.39c2.66-0.12 5.09-0.2 7.62 0.75" marker-end="url(#TriangleRed)" marker-start="url(#ArrowRed)" ></path>








</g><g transform="scale(1.3761467889908 1.3761467889908) translate(218, 0)">
<path style="fill:none; fill-rule:evenodd; stroke:#aaaaaa;  stroke-width:1pt; stroke-linecap:round;" d="m 109 0 L 0 0 L 0 109 L 109 109 L 109 0"></path><path style="fill:none; fill-opacity:0%; fill-rule:evenodd; stroke:#aaaaaa; stroke-opacity:100%; stroke-width: 1.5pt; stroke-linejoin:round; stroke-linecap:round;" d="M52.79 9.61c1.13 1.13 1.34 2.32 1.34 3.27c0 3.49 0.09 4.25 0.09 7.31"></path>
<path style="fill:none; fill-opacity:0%; fill-rule:evenodd; stroke:#aaaaaa; stroke-opacity:100%; stroke-width: 1.5pt; stroke-linejoin:round; stroke-linecap:round;" d="M22 23.83c2.62 0.67 5.28 0.72 8.13 0.4c11.13-1.23 35.9-3.83 48.5-4.39c2.66-0.12 5.09-0.2 7.62 0.75"></path>
<path style="fill:none; fill-opacity:0%; fill-rule:evenodd; stroke:#aaaaaa; stroke-opacity:100%; stroke-width: 1.5pt; stroke-linejoin:round; stroke-linecap:round;" d="M35.64 33.39c0.82 0.51 1.52 1.25 1.59 2.24c0.82 2.52 1.95 6.15 2.67 9.4c0.21 0.95 0.41 1.87 0.61 2.72"></path>
<path style="fill:none; fill-opacity:0%; fill-rule:evenodd; stroke:#aaaaaa; stroke-opacity:100%; stroke-width: 1.5pt; stroke-linejoin:round; stroke-linecap:round;" d="M37.56 34.13c6.53-0.88 21.98-3.2 29.69-4.19c3.62-0.46 5.6-0.24 4.46 3.99c-0.58 2.14-1.3 4.11-2.54 8.02"></path>
<path style="fill:none; fill-opacity:0%; fill-rule:evenodd; stroke:#aaaaaa; stroke-opacity:100%; stroke-width: 1.5pt; stroke-linejoin:round; stroke-linecap:round;" d="M40.97 45.69c5.75-0.77 18.06-2.32 25.78-3.18c1.71-0.19 3.22-0.35 4.42-0.45"></path>
<path style="fill:none; fill-opacity:0%; fill-rule:evenodd; stroke:#aaaaaa; stroke-opacity:100%; stroke-width: 1.5pt; stroke-linejoin:round; stroke-linecap:round;" d="M22.29 55.69c-0.11 3.81-2.82 13.79-3.79 16.06"></path>
<path style="fill:none; fill-opacity:0%; fill-rule:evenodd; stroke:#aaaaaa; stroke-opacity:100%; stroke-width: 1.5pt; stroke-linejoin:round; stroke-linecap:round;" d="M23.22 57.75C34 57 67.48 51.96 85.19 51.5c9.56-0.25 4.06 5.75-0.69 9.5"></path>
<path style="fill:none; fill-opacity:0%; fill-rule:evenodd; stroke:#aaaaaa; stroke-opacity:100%; stroke-width: 1.5pt; stroke-linejoin:round; stroke-linecap:round;" d="M29.27 70.84c2.15 0.84 5.32 0.46 7.53 0.21c9.47-1.07 24.6-3.02 35.21-3.79c2.58-0.19 5.18-0.24 7.73 0.36"></path>
<path style="fill:none; fill-opacity:0%; fill-rule:evenodd; stroke:#aaaaaa; stroke-opacity:100%; stroke-width: 1.5pt; stroke-linejoin:round; stroke-linecap:round;" d="M55.01 70.79c0.85 0.85 1.08 1.96 1.08 3.44c0 9.74-0.09 17.33-0.09 20.64c0 9.3-5.88 1.12-7.36-0.75"></path>

<path style="fill:none; fill-opacity:0%; fill-rule:evenodd; stroke:#000000; stroke-opacity:100%; stroke-width: 3pt; stroke-linejoin:round; stroke-linecap:round;" d="M52.79 9.61c1.13 1.13 1.34 2.32 1.34 3.27c0 3.49 0.09 4.25 0.09 7.31"></path>
<path style="fill:none; fill-opacity:0%; fill-rule:evenodd; stroke:#000000; stroke-opacity:100%; stroke-width: 3pt; stroke-linejoin:round; stroke-linecap:round;" d="M22 23.83c2.62 0.67 5.28 0.72 8.13 0.4c11.13-1.23 35.9-3.83 48.5-4.39c2.66-0.12 5.09-0.2 7.62 0.75"></path>
<text x="5" y="20" font-size="20" fill="#999999">3</text><path style="fill:none; fill-opacity:0%; fill-rule:evenodd; stroke:#CC0000; stroke-opacity:100%; stroke-width: 3pt; stroke-linejoin:round; stroke-linecap:round;" d="M35.64 33.39c0.82 0.51 1.52 1.25 1.59 2.24c0.82 2.52 1.95 6.15 2.67 9.4c0.21 0.95 0.41 1.87 0.61 2.72" marker-end="url(#TriangleRed)" marker-start="url(#ArrowRed)" ></path>







</g><g transform="scale(1.3761467889908 1.3761467889908) translate(327, 0)">
<path style="fill:none; fill-rule:evenodd; stroke:#aaaaaa;  stroke-width:1pt; stroke-linecap:round;" d="m 109 0 L 0 0 L 0 109 L 109 109 L 109 0"></path><path style="fill:none; fill-opacity:0%; fill-rule:evenodd; stroke:#aaaaaa; stroke-opacity:100%; stroke-width: 1.5pt; stroke-linejoin:round; stroke-linecap:round;" d="M52.79 9.61c1.13 1.13 1.34 2.32 1.34 3.27c0 3.49 0.09 4.25 0.09 7.31"></path>
<path style="fill:none; fill-opacity:0%; fill-rule:evenodd; stroke:#aaaaaa; stroke-opacity:100%; stroke-width: 1.5pt; stroke-linejoin:round; stroke-linecap:round;" d="M22 23.83c2.62 0.67 5.28 0.72 8.13 0.4c11.13-1.23 35.9-3.83 48.5-4.39c2.66-0.12 5.09-0.2 7.62 0.75"></path>
<path style="fill:none; fill-opacity:0%; fill-rule:evenodd; stroke:#aaaaaa; stroke-opacity:100%; stroke-width: 1.5pt; stroke-linejoin:round; stroke-linecap:round;" d="M35.64 33.39c0.82 0.51 1.52 1.25 1.59 2.24c0.82 2.52 1.95 6.15 2.67 9.4c0.21 0.95 0.41 1.87 0.61 2.72"></path>
<path style="fill:none; fill-opacity:0%; fill-rule:evenodd; stroke:#aaaaaa; stroke-opacity:100%; stroke-width: 1.5pt; stroke-linejoin:round; stroke-linecap:round;" d="M37.56 34.13c6.53-0.88 21.98-3.2 29.69-4.19c3.62-0.46 5.6-0.24 4.46 3.99c-0.58 2.14-1.3 4.11-2.54 8.02"></path>
<path style="fill:none; fill-opacity:0%; fill-rule:evenodd; stroke:#aaaaaa; stroke-opacity:100%; stroke-width: 1.5pt; stroke-linejoin:round; stroke-linecap:round;" d="M40.97 45.69c5.75-0.77 18.06-2.32 25.78-3.18c1.71-0.19 3.22-0.35 4.42-0.45"></path>
<path style="fill:none; fill-opacity:0%; fill-rule:evenodd; stroke:#aaaaaa; stroke-opacity:100%; stroke-width: 1.5pt; stroke-linejoin:round; stroke-linecap:round;" d="M22.29 55.69c-0.11 3.81-2.82 13.79-3.79 16.06"></path>
<path style="fill:none; fill-opacity:0%; fill-rule:evenodd; stroke:#aaaaaa; stroke-opacity:100%; stroke-width: 1.5pt; stroke-linejoin:round; stroke-linecap:round;" d="M23.22 57.75C34 57 67.48 51.96 85.19 51.5c9.56-0.25 4.06 5.75-0.69 9.5"></path>
<path style="fill:none; fill-opacity:0%; fill-rule:evenodd; stroke:#aaaaaa; stroke-opacity:100%; stroke-width: 1.5pt; stroke-linejoin:round; stroke-linecap:round;" d="M29.27 70.84c2.15 0.84 5.32 0.46 7.53 0.21c9.47-1.07 24.6-3.02 35.21-3.79c2.58-0.19 5.18-0.24 7.73 0.36"></path>
<path style="fill:none; fill-opacity:0%; fill-rule:evenodd; stroke:#aaaaaa; stroke-opacity:100%; stroke-width: 1.5pt; stroke-linejoin:round; stroke-linecap:round;" d="M55.01 70.79c0.85 0.85 1.08 1.96 1.08 3.44c0 9.74-0.09 17.33-0.09 20.64c0 9.3-5.88 1.12-7.36-0.75"></path>

<path style="fill:none; fill-opacity:0%; fill-rule:evenodd; stroke:#000000; stroke-opacity:100%; stroke-width: 3pt; stroke-linejoin:round; stroke-linecap:round;" d="M52.79 9.61c1.13 1.13 1.34 2.32 1.34 3.27c0 3.49 0.09 4.25 0.09 7.31"></path>
<path style="fill:none; fill-opacity:0%; fill-rule:evenodd; stroke:#000000; stroke-opacity:100%; stroke-width: 3pt; stroke-linejoin:round; stroke-linecap:round;" d="M22 23.83c2.62 0.67 5.28 0.72 8.13 0.4c11.13-1.23 35.9-3.83 48.5-4.39c2.66-0.12 5.09-0.2 7.62 0.75"></path>
<path style="fill:none; fill-opacity:0%; fill-rule:evenodd; stroke:#000000; stroke-opacity:100%; stroke-width: 3pt; stroke-linejoin:round; stroke-linecap:round;" d="M35.64 33.39c0.82 0.51 1.52 1.25 1.59 2.24c0.82 2.52 1.95 6.15 2.67 9.4c0.21 0.95 0.41 1.87 0.61 2.72"></path>
<text x="5" y="20" font-size="20" fill="#999999">4</text><path style="fill:none; fill-opacity:0%; fill-rule:evenodd; stroke:#CC0000; stroke-opacity:100%; stroke-width: 3pt; stroke-linejoin:round; stroke-linecap:round;" d="M37.56 34.13c6.53-0.88 21.98-3.2 29.69-4.19c3.62-0.46 5.6-0.24 4.46 3.99c-0.58 2.14-1.3 4.11-2.54 8.02" marker-end="url(#TriangleRed)" marker-start="url(#ArrowRed)" ></path>






</g><g transform="scale(1.3761467889908 1.3761467889908) translate(436, 0)">
<path style="fill:none; fill-rule:evenodd; stroke:#aaaaaa;  stroke-width:1pt; stroke-linecap:round;" d="m 109 0 L 0 0 L 0 109 L 109 109 L 109 0"></path><path style="fill:none; fill-opacity:0%; fill-rule:evenodd; stroke:#aaaaaa; stroke-opacity:100%; stroke-width: 1.5pt; stroke-linejoin:round; stroke-linecap:round;" d="M52.79 9.61c1.13 1.13 1.34 2.32 1.34 3.27c0 3.49 0.09 4.25 0.09 7.31"></path>
<path style="fill:none; fill-opacity:0%; fill-rule:evenodd; stroke:#aaaaaa; stroke-opacity:100%; stroke-width: 1.5pt; stroke-linejoin:round; stroke-linecap:round;" d="M22 23.83c2.62 0.67 5.28 0.72 8.13 0.4c11.13-1.23 35.9-3.83 48.5-4.39c2.66-0.12 5.09-0.2 7.62 0.75"></path>
<path style="fill:none; fill-opacity:0%; fill-rule:evenodd; stroke:#aaaaaa; stroke-opacity:100%; stroke-width: 1.5pt; stroke-linejoin:round; stroke-linecap:round;" d="M35.64 33.39c0.82 0.51 1.52 1.25 1.59 2.24c0.82 2.52 1.95 6.15 2.67 9.4c0.21 0.95 0.41 1.87 0.61 2.72"></path>
<path style="fill:none; fill-opacity:0%; fill-rule:evenodd; stroke:#aaaaaa; stroke-opacity:100%; stroke-width: 1.5pt; stroke-linejoin:round; stroke-linecap:round;" d="M37.56 34.13c6.53-0.88 21.98-3.2 29.69-4.19c3.62-0.46 5.6-0.24 4.46 3.99c-0.58 2.14-1.3 4.11-2.54 8.02"></path>
<path style="fill:none; fill-opacity:0%; fill-rule:evenodd; stroke:#aaaaaa; stroke-opacity:100%; stroke-width: 1.5pt; stroke-linejoin:round; stroke-linecap:round;" d="M40.97 45.69c5.75-0.77 18.06-2.32 25.78-3.18c1.71-0.19 3.22-0.35 4.42-0.45"></path>
<path style="fill:none; fill-opacity:0%; fill-rule:evenodd; stroke:#aaaaaa; stroke-opacity:100%; stroke-width: 1.5pt; stroke-linejoin:round; stroke-linecap:round;" d="M22.29 55.69c-0.11 3.81-2.82 13.79-3.79 16.06"></path>
<path style="fill:none; fill-opacity:0%; fill-rule:evenodd; stroke:#aaaaaa; stroke-opacity:100%; stroke-width: 1.5pt; stroke-linejoin:round; stroke-linecap:round;" d="M23.22 57.75C34 57 67.48 51.96 85.19 51.5c9.56-0.25 4.06 5.75-0.69 9.5"></path>
<path style="fill:none; fill-opacity:0%; fill-rule:evenodd; stroke:#aaaaaa; stroke-opacity:100%; stroke-width: 1.5pt; stroke-linejoin:round; stroke-linecap:round;" d="M29.27 70.84c2.15 0.84 5.32 0.46 7.53 0.21c9.47-1.07 24.6-3.02 35.21-3.79c2.58-0.19 5.18-0.24 7.73 0.36"></path>
<path style="fill:none; fill-opacity:0%; fill-rule:evenodd; stroke:#aaaaaa; stroke-opacity:100%; stroke-width: 1.5pt; stroke-linejoin:round; stroke-linecap:round;" d="M55.01 70.79c0.85 0.85 1.08 1.96 1.08 3.44c0 9.74-0.09 17.33-0.09 20.64c0 9.3-5.88 1.12-7.36-0.75"></path>

<path style="fill:none; fill-opacity:0%; fill-rule:evenodd; stroke:#000000; stroke-opacity:100%; stroke-width: 3pt; stroke-linejoin:round; stroke-linecap:round;" d="M52.79 9.61c1.13 1.13 1.34 2.32 1.34 3.27c0 3.49 0.09 4.25 0.09 7.31"></path>
<path style="fill:none; fill-opacity:0%; fill-rule:evenodd; stroke:#000000; stroke-opacity:100%; stroke-width: 3pt; stroke-linejoin:round; stroke-linecap:round;" d="M22 23.83c2.62 0.67 5.28 0.72 8.13 0.4c11.13-1.23 35.9-3.83 48.5-4.39c2.66-0.12 5.09-0.2 7.62 0.75"></path>
<path style="fill:none; fill-opacity:0%; fill-rule:evenodd; stroke:#000000; stroke-opacity:100%; stroke-width: 3pt; stroke-linejoin:round; stroke-linecap:round;" d="M35.64 33.39c0.82 0.51 1.52 1.25 1.59 2.24c0.82 2.52 1.95 6.15 2.67 9.4c0.21 0.95 0.41 1.87 0.61 2.72"></path>
<path style="fill:none; fill-opacity:0%; fill-rule:evenodd; stroke:#000000; stroke-opacity:100%; stroke-width: 3pt; stroke-linejoin:round; stroke-linecap:round;" d="M37.56 34.13c6.53-0.88 21.98-3.2 29.69-4.19c3.62-0.46 5.6-0.24 4.46 3.99c-0.58 2.14-1.3 4.11-2.54 8.02"></path>
<text x="5" y="20" font-size="20" fill="#999999">5</text><path style="fill:none; fill-opacity:0%; fill-rule:evenodd; stroke:#CC0000; stroke-opacity:100%; stroke-width: 3pt; stroke-linejoin:round; stroke-linecap:round;" d="M40.97 45.69c5.75-0.77 18.06-2.32 25.78-3.18c1.71-0.19 3.22-0.35 4.42-0.45" marker-end="url(#TriangleRed)" marker-start="url(#ArrowRed)" ></path>





</g><g transform="scale(1.3761467889908 1.3761467889908) translate(0, 109)">
<path style="fill:none; fill-rule:evenodd; stroke:#aaaaaa;  stroke-width:1pt; stroke-linecap:round;" d="m 109 0 L 0 0 L 0 109 L 109 109 L 109 0"></path><path style="fill:none; fill-opacity:0%; fill-rule:evenodd; stroke:#aaaaaa; stroke-opacity:100%; stroke-width: 1.5pt; stroke-linejoin:round; stroke-linecap:round;" d="M52.79 9.61c1.13 1.13 1.34 2.32 1.34 3.27c0 3.49 0.09 4.25 0.09 7.31"></path>
<path style="fill:none; fill-opacity:0%; fill-rule:evenodd; stroke:#aaaaaa; stroke-opacity:100%; stroke-width: 1.5pt; stroke-linejoin:round; stroke-linecap:round;" d="M22 23.83c2.62 0.67 5.28 0.72 8.13 0.4c11.13-1.23 35.9-3.83 48.5-4.39c2.66-0.12 5.09-0.2 7.62 0.75"></path>
<path style="fill:none; fill-opacity:0%; fill-rule:evenodd; stroke:#aaaaaa; stroke-opacity:100%; stroke-width: 1.5pt; stroke-linejoin:round; stroke-linecap:round;" d="M35.64 33.39c0.82 0.51 1.52 1.25 1.59 2.24c0.82 2.52 1.95 6.15 2.67 9.4c0.21 0.95 0.41 1.87 0.61 2.72"></path>
<path style="fill:none; fill-opacity:0%; fill-rule:evenodd; stroke:#aaaaaa; stroke-opacity:100%; stroke-width: 1.5pt; stroke-linejoin:round; stroke-linecap:round;" d="M37.56 34.13c6.53-0.88 21.98-3.2 29.69-4.19c3.62-0.46 5.6-0.24 4.46 3.99c-0.58 2.14-1.3 4.11-2.54 8.02"></path>
<path style="fill:none; fill-opacity:0%; fill-rule:evenodd; stroke:#aaaaaa; stroke-opacity:100%; stroke-width: 1.5pt; stroke-linejoin:round; stroke-linecap:round;" d="M40.97 45.69c5.75-0.77 18.06-2.32 25.78-3.18c1.71-0.19 3.22-0.35 4.42-0.45"></path>
<path style="fill:none; fill-opacity:0%; fill-rule:evenodd; stroke:#aaaaaa; stroke-opacity:100%; stroke-width: 1.5pt; stroke-linejoin:round; stroke-linecap:round;" d="M22.29 55.69c-0.11 3.81-2.82 13.79-3.79 16.06"></path>
<path style="fill:none; fill-opacity:0%; fill-rule:evenodd; stroke:#aaaaaa; stroke-opacity:100%; stroke-width: 1.5pt; stroke-linejoin:round; stroke-linecap:round;" d="M23.22 57.75C34 57 67.48 51.96 85.19 51.5c9.56-0.25 4.06 5.75-0.69 9.5"></path>
<path style="fill:none; fill-opacity:0%; fill-rule:evenodd; stroke:#aaaaaa; stroke-opacity:100%; stroke-width: 1.5pt; stroke-linejoin:round; stroke-linecap:round;" d="M29.27 70.84c2.15 0.84 5.32 0.46 7.53 0.21c9.47-1.07 24.6-3.02 35.21-3.79c2.58-0.19 5.18-0.24 7.73 0.36"></path>
<path style="fill:none; fill-opacity:0%; fill-rule:evenodd; stroke:#aaaaaa; stroke-opacity:100%; stroke-width: 1.5pt; stroke-linejoin:round; stroke-linecap:round;" d="M55.01 70.79c0.85 0.85 1.08 1.96 1.08 3.44c0 9.74-0.09 17.33-0.09 20.64c0 9.3-5.88 1.12-7.36-0.75"></path>

<path style="fill:none; fill-opacity:0%; fill-rule:evenodd; stroke:#000000; stroke-opacity:100%; stroke-width: 3pt; stroke-linejoin:round; stroke-linecap:round;" d="M52.79 9.61c1.13 1.13 1.34 2.32 1.34 3.27c0 3.49 0.09 4.25 0.09 7.31"></path>
<path style="fill:none; fill-opacity:0%; fill-rule:evenodd; stroke:#000000; stroke-opacity:100%; stroke-width: 3pt; stroke-linejoin:round; stroke-linecap:round;" d="M22 23.83c2.62 0.67 5.28 0.72 8.13 0.4c11.13-1.23 35.9-3.83 48.5-4.39c2.66-0.12 5.09-0.2 7.62 0.75"></path>
<path style="fill:none; fill-opacity:0%; fill-rule:evenodd; stroke:#000000; stroke-opacity:100%; stroke-width: 3pt; stroke-linejoin:round; stroke-linecap:round;" d="M35.64 33.39c0.82 0.51 1.52 1.25 1.59 2.24c0.82 2.52 1.95 6.15 2.67 9.4c0.21 0.95 0.41 1.87 0.61 2.72"></path>
<path style="fill:none; fill-opacity:0%; fill-rule:evenodd; stroke:#000000; stroke-opacity:100%; stroke-width: 3pt; stroke-linejoin:round; stroke-linecap:round;" d="M37.56 34.13c6.53-0.88 21.98-3.2 29.69-4.19c3.62-0.46 5.6-0.24 4.46 3.99c-0.58 2.14-1.3 4.11-2.54 8.02"></path>
<path style="fill:none; fill-opacity:0%; fill-rule:evenodd; stroke:#000000; stroke-opacity:100%; stroke-width: 3pt; stroke-linejoin:round; stroke-linecap:round;" d="M40.97 45.69c5.75-0.77 18.06-2.32 25.78-3.18c1.71-0.19 3.22-0.35 4.42-0.45"></path>
<text x="5" y="20" font-size="20" fill="#999999">6</text><path style="fill:none; fill-opacity:0%; fill-rule:evenodd; stroke:#CC0000; stroke-opacity:100%; stroke-width: 3pt; stroke-linejoin:round; stroke-linecap:round;" d="M22.29 55.69c-0.11 3.81-2.82 13.79-3.79 16.06" marker-end="url(#TriangleRed)" marker-start="url(#ArrowRed)" ></path>




</g><g transform="scale(1.3761467889908 1.3761467889908) translate(109, 109)">
<path style="fill:none; fill-rule:evenodd; stroke:#aaaaaa;  stroke-width:1pt; stroke-linecap:round;" d="m 109 0 L 0 0 L 0 109 L 109 109 L 109 0"></path><path style="fill:none; fill-opacity:0%; fill-rule:evenodd; stroke:#aaaaaa; stroke-opacity:100%; stroke-width: 1.5pt; stroke-linejoin:round; stroke-linecap:round;" d="M52.79 9.61c1.13 1.13 1.34 2.32 1.34 3.27c0 3.49 0.09 4.25 0.09 7.31"></path>
<path style="fill:none; fill-opacity:0%; fill-rule:evenodd; stroke:#aaaaaa; stroke-opacity:100%; stroke-width: 1.5pt; stroke-linejoin:round; stroke-linecap:round;" d="M22 23.83c2.62 0.67 5.28 0.72 8.13 0.4c11.13-1.23 35.9-3.83 48.5-4.39c2.66-0.12 5.09-0.2 7.62 0.75"></path>
<path style="fill:none; fill-opacity:0%; fill-rule:evenodd; stroke:#aaaaaa; stroke-opacity:100%; stroke-width: 1.5pt; stroke-linejoin:round; stroke-linecap:round;" d="M35.64 33.39c0.82 0.51 1.52 1.25 1.59 2.24c0.82 2.52 1.95 6.15 2.67 9.4c0.21 0.95 0.41 1.87 0.61 2.72"></path>
<path style="fill:none; fill-opacity:0%; fill-rule:evenodd; stroke:#aaaaaa; stroke-opacity:100%; stroke-width: 1.5pt; stroke-linejoin:round; stroke-linecap:round;" d="M37.56 34.13c6.53-0.88 21.98-3.2 29.69-4.19c3.62-0.46 5.6-0.24 4.46 3.99c-0.58 2.14-1.3 4.11-2.54 8.02"></path>
<path style="fill:none; fill-opacity:0%; fill-rule:evenodd; stroke:#aaaaaa; stroke-opacity:100%; stroke-width: 1.5pt; stroke-linejoin:round; stroke-linecap:round;" d="M40.97 45.69c5.75-0.77 18.06-2.32 25.78-3.18c1.71-0.19 3.22-0.35 4.42-0.45"></path>
<path style="fill:none; fill-opacity:0%; fill-rule:evenodd; stroke:#aaaaaa; stroke-opacity:100%; stroke-width: 1.5pt; stroke-linejoin:round; stroke-linecap:round;" d="M22.29 55.69c-0.11 3.81-2.82 13.79-3.79 16.06"></path>
<path style="fill:none; fill-opacity:0%; fill-rule:evenodd; stroke:#aaaaaa; stroke-opacity:100%; stroke-width: 1.5pt; stroke-linejoin:round; stroke-linecap:round;" d="M23.22 57.75C34 57 67.48 51.96 85.19 51.5c9.56-0.25 4.06 5.75-0.69 9.5"></path>
<path style="fill:none; fill-opacity:0%; fill-rule:evenodd; stroke:#aaaaaa; stroke-opacity:100%; stroke-width: 1.5pt; stroke-linejoin:round; stroke-linecap:round;" d="M29.27 70.84c2.15 0.84 5.32 0.46 7.53 0.21c9.47-1.07 24.6-3.02 35.21-3.79c2.58-0.19 5.18-0.24 7.73 0.36"></path>
<path style="fill:none; fill-opacity:0%; fill-rule:evenodd; stroke:#aaaaaa; stroke-opacity:100%; stroke-width: 1.5pt; stroke-linejoin:round; stroke-linecap:round;" d="M55.01 70.79c0.85 0.85 1.08 1.96 1.08 3.44c0 9.74-0.09 17.33-0.09 20.64c0 9.3-5.88 1.12-7.36-0.75"></path>

<path style="fill:none; fill-opacity:0%; fill-rule:evenodd; stroke:#000000; stroke-opacity:100%; stroke-width: 3pt; stroke-linejoin:round; stroke-linecap:round;" d="M52.79 9.61c1.13 1.13 1.34 2.32 1.34 3.27c0 3.49 0.09 4.25 0.09 7.31"></path>
<path style="fill:none; fill-opacity:0%; fill-rule:evenodd; stroke:#000000; stroke-opacity:100%; stroke-width: 3pt; stroke-linejoin:round; stroke-linecap:round;" d="M22 23.83c2.62 0.67 5.28 0.72 8.13 0.4c11.13-1.23 35.9-3.83 48.5-4.39c2.66-0.12 5.09-0.2 7.62 0.75"></path>
<path style="fill:none; fill-opacity:0%; fill-rule:evenodd; stroke:#000000; stroke-opacity:100%; stroke-width: 3pt; stroke-linejoin:round; stroke-linecap:round;" d="M35.64 33.39c0.82 0.51 1.52 1.25 1.59 2.24c0.82 2.52 1.95 6.15 2.67 9.4c0.21 0.95 0.41 1.87 0.61 2.72"></path>
<path style="fill:none; fill-opacity:0%; fill-rule:evenodd; stroke:#000000; stroke-opacity:100%; stroke-width: 3pt; stroke-linejoin:round; stroke-linecap:round;" d="M37.56 34.13c6.53-0.88 21.98-3.2 29.69-4.19c3.62-0.46 5.6-0.24 4.46 3.99c-0.58 2.14-1.3 4.11-2.54 8.02"></path>
<path style="fill:none; fill-opacity:0%; fill-rule:evenodd; stroke:#000000; stroke-opacity:100%; stroke-width: 3pt; stroke-linejoin:round; stroke-linecap:round;" d="M40.97 45.69c5.75-0.77 18.06-2.32 25.78-3.18c1.71-0.19 3.22-0.35 4.42-0.45"></path>
<path style="fill:none; fill-opacity:0%; fill-rule:evenodd; stroke:#000000; stroke-opacity:100%; stroke-width: 3pt; stroke-linejoin:round; stroke-linecap:round;" d="M22.29 55.69c-0.11 3.81-2.82 13.79-3.79 16.06"></path>
<text x="5" y="20" font-size="20" fill="#999999">7</text><path style="fill:none; fill-opacity:0%; fill-rule:evenodd; stroke:#CC0000; stroke-opacity:100%; stroke-width: 3pt; stroke-linejoin:round; stroke-linecap:round;" d="M23.22 57.75C34 57 67.48 51.96 85.19 51.5c9.56-0.25 4.06 5.75-0.69 9.5" marker-end="url(#TriangleRed)" marker-start="url(#ArrowRed)" ></path>



</g><g transform="scale(1.3761467889908 1.3761467889908) translate(218, 109)">
<path style="fill:none; fill-rule:evenodd; stroke:#aaaaaa;  stroke-width:1pt; stroke-linecap:round;" d="m 109 0 L 0 0 L 0 109 L 109 109 L 109 0"></path><path style="fill:none; fill-opacity:0%; fill-rule:evenodd; stroke:#aaaaaa; stroke-opacity:100%; stroke-width: 1.5pt; stroke-linejoin:round; stroke-linecap:round;" d="M52.79 9.61c1.13 1.13 1.34 2.32 1.34 3.27c0 3.49 0.09 4.25 0.09 7.31"></path>
<path style="fill:none; fill-opacity:0%; fill-rule:evenodd; stroke:#aaaaaa; stroke-opacity:100%; stroke-width: 1.5pt; stroke-linejoin:round; stroke-linecap:round;" d="M22 23.83c2.62 0.67 5.28 0.72 8.13 0.4c11.13-1.23 35.9-3.83 48.5-4.39c2.66-0.12 5.09-0.2 7.62 0.75"></path>
<path style="fill:none; fill-opacity:0%; fill-rule:evenodd; stroke:#aaaaaa; stroke-opacity:100%; stroke-width: 1.5pt; stroke-linejoin:round; stroke-linecap:round;" d="M35.64 33.39c0.82 0.51 1.52 1.25 1.59 2.24c0.82 2.52 1.95 6.15 2.67 9.4c0.21 0.95 0.41 1.87 0.61 2.72"></path>
<path style="fill:none; fill-opacity:0%; fill-rule:evenodd; stroke:#aaaaaa; stroke-opacity:100%; stroke-width: 1.5pt; stroke-linejoin:round; stroke-linecap:round;" d="M37.56 34.13c6.53-0.88 21.98-3.2 29.69-4.19c3.62-0.46 5.6-0.24 4.46 3.99c-0.58 2.14-1.3 4.11-2.54 8.02"></path>
<path style="fill:none; fill-opacity:0%; fill-rule:evenodd; stroke:#aaaaaa; stroke-opacity:100%; stroke-width: 1.5pt; stroke-linejoin:round; stroke-linecap:round;" d="M40.97 45.69c5.75-0.77 18.06-2.32 25.78-3.18c1.71-0.19 3.22-0.35 4.42-0.45"></path>
<path style="fill:none; fill-opacity:0%; fill-rule:evenodd; stroke:#aaaaaa; stroke-opacity:100%; stroke-width: 1.5pt; stroke-linejoin:round; stroke-linecap:round;" d="M22.29 55.69c-0.11 3.81-2.82 13.79-3.79 16.06"></path>
<path style="fill:none; fill-opacity:0%; fill-rule:evenodd; stroke:#aaaaaa; stroke-opacity:100%; stroke-width: 1.5pt; stroke-linejoin:round; stroke-linecap:round;" d="M23.22 57.75C34 57 67.48 51.96 85.19 51.5c9.56-0.25 4.06 5.75-0.69 9.5"></path>
<path style="fill:none; fill-opacity:0%; fill-rule:evenodd; stroke:#aaaaaa; stroke-opacity:100%; stroke-width: 1.5pt; stroke-linejoin:round; stroke-linecap:round;" d="M29.27 70.84c2.15 0.84 5.32 0.46 7.53 0.21c9.47-1.07 24.6-3.02 35.21-3.79c2.58-0.19 5.18-0.24 7.73 0.36"></path>
<path style="fill:none; fill-opacity:0%; fill-rule:evenodd; stroke:#aaaaaa; stroke-opacity:100%; stroke-width: 1.5pt; stroke-linejoin:round; stroke-linecap:round;" d="M55.01 70.79c0.85 0.85 1.08 1.96 1.08 3.44c0 9.74-0.09 17.33-0.09 20.64c0 9.3-5.88 1.12-7.36-0.75"></path>

<path style="fill:none; fill-opacity:0%; fill-rule:evenodd; stroke:#000000; stroke-opacity:100%; stroke-width: 3pt; stroke-linejoin:round; stroke-linecap:round;" d="M52.79 9.61c1.13 1.13 1.34 2.32 1.34 3.27c0 3.49 0.09 4.25 0.09 7.31"></path>
<path style="fill:none; fill-opacity:0%; fill-rule:evenodd; stroke:#000000; stroke-opacity:100%; stroke-width: 3pt; stroke-linejoin:round; stroke-linecap:round;" d="M22 23.83c2.62 0.67 5.28 0.72 8.13 0.4c11.13-1.23 35.9-3.83 48.5-4.39c2.66-0.12 5.09-0.2 7.62 0.75"></path>
<path style="fill:none; fill-opacity:0%; fill-rule:evenodd; stroke:#000000; stroke-opacity:100%; stroke-width: 3pt; stroke-linejoin:round; stroke-linecap:round;" d="M35.64 33.39c0.82 0.51 1.52 1.25 1.59 2.24c0.82 2.52 1.95 6.15 2.67 9.4c0.21 0.95 0.41 1.87 0.61 2.72"></path>
<path style="fill:none; fill-opacity:0%; fill-rule:evenodd; stroke:#000000; stroke-opacity:100%; stroke-width: 3pt; stroke-linejoin:round; stroke-linecap:round;" d="M37.56 34.13c6.53-0.88 21.98-3.2 29.69-4.19c3.62-0.46 5.6-0.24 4.46 3.99c-0.58 2.14-1.3 4.11-2.54 8.02"></path>
<path style="fill:none; fill-opacity:0%; fill-rule:evenodd; stroke:#000000; stroke-opacity:100%; stroke-width: 3pt; stroke-linejoin:round; stroke-linecap:round;" d="M40.97 45.69c5.75-0.77 18.06-2.32 25.78-3.18c1.71-0.19 3.22-0.35 4.42-0.45"></path>
<path style="fill:none; fill-opacity:0%; fill-rule:evenodd; stroke:#000000; stroke-opacity:100%; stroke-width: 3pt; stroke-linejoin:round; stroke-linecap:round;" d="M22.29 55.69c-0.11 3.81-2.82 13.79-3.79 16.06"></path>
<path style="fill:none; fill-opacity:0%; fill-rule:evenodd; stroke:#000000; stroke-opacity:100%; stroke-width: 3pt; stroke-linejoin:round; stroke-linecap:round;" d="M23.22 57.75C34 57 67.48 51.96 85.19 51.5c9.56-0.25 4.06 5.75-0.69 9.5"></path>
<text x="5" y="20" font-size="20" fill="#999999">8</text><path style="fill:none; fill-opacity:0%; fill-rule:evenodd; stroke:#CC0000; stroke-opacity:100%; stroke-width: 3pt; stroke-linejoin:round; stroke-linecap:round;" d="M29.27 70.84c2.15 0.84 5.32 0.46 7.53 0.21c9.47-1.07 24.6-3.02 35.21-3.79c2.58-0.19 5.18-0.24 7.73 0.36" marker-end="url(#TriangleRed)" marker-start="url(#ArrowRed)" ></path>


</g><g transform="scale(1.3761467889908 1.3761467889908) translate(327, 109)">
<path style="fill:none; fill-rule:evenodd; stroke:#aaaaaa;  stroke-width:1pt; stroke-linecap:round;" d="m 109 0 L 0 0 L 0 109 L 109 109 L 109 0"></path><path style="fill:none; fill-opacity:0%; fill-rule:evenodd; stroke:#aaaaaa; stroke-opacity:100%; stroke-width: 1.5pt; stroke-linejoin:round; stroke-linecap:round;" d="M52.79 9.61c1.13 1.13 1.34 2.32 1.34 3.27c0 3.49 0.09 4.25 0.09 7.31"></path>
<path style="fill:none; fill-opacity:0%; fill-rule:evenodd; stroke:#aaaaaa; stroke-opacity:100%; stroke-width: 1.5pt; stroke-linejoin:round; stroke-linecap:round;" d="M22 23.83c2.62 0.67 5.28 0.72 8.13 0.4c11.13-1.23 35.9-3.83 48.5-4.39c2.66-0.12 5.09-0.2 7.62 0.75"></path>
<path style="fill:none; fill-opacity:0%; fill-rule:evenodd; stroke:#aaaaaa; stroke-opacity:100%; stroke-width: 1.5pt; stroke-linejoin:round; stroke-linecap:round;" d="M35.64 33.39c0.82 0.51 1.52 1.25 1.59 2.24c0.82 2.52 1.95 6.15 2.67 9.4c0.21 0.95 0.41 1.87 0.61 2.72"></path>
<path style="fill:none; fill-opacity:0%; fill-rule:evenodd; stroke:#aaaaaa; stroke-opacity:100%; stroke-width: 1.5pt; stroke-linejoin:round; stroke-linecap:round;" d="M37.56 34.13c6.53-0.88 21.98-3.2 29.69-4.19c3.62-0.46 5.6-0.24 4.46 3.99c-0.58 2.14-1.3 4.11-2.54 8.02"></path>
<path style="fill:none; fill-opacity:0%; fill-rule:evenodd; stroke:#aaaaaa; stroke-opacity:100%; stroke-width: 1.5pt; stroke-linejoin:round; stroke-linecap:round;" d="M40.97 45.69c5.75-0.77 18.06-2.32 25.78-3.18c1.71-0.19 3.22-0.35 4.42-0.45"></path>
<path style="fill:none; fill-opacity:0%; fill-rule:evenodd; stroke:#aaaaaa; stroke-opacity:100%; stroke-width: 1.5pt; stroke-linejoin:round; stroke-linecap:round;" d="M22.29 55.69c-0.11 3.81-2.82 13.79-3.79 16.06"></path>
<path style="fill:none; fill-opacity:0%; fill-rule:evenodd; stroke:#aaaaaa; stroke-opacity:100%; stroke-width: 1.5pt; stroke-linejoin:round; stroke-linecap:round;" d="M23.22 57.75C34 57 67.48 51.96 85.19 51.5c9.56-0.25 4.06 5.75-0.69 9.5"></path>
<path style="fill:none; fill-opacity:0%; fill-rule:evenodd; stroke:#aaaaaa; stroke-opacity:100%; stroke-width: 1.5pt; stroke-linejoin:round; stroke-linecap:round;" d="M29.27 70.84c2.15 0.84 5.32 0.46 7.53 0.21c9.47-1.07 24.6-3.02 35.21-3.79c2.58-0.19 5.18-0.24 7.73 0.36"></path>
<path style="fill:none; fill-opacity:0%; fill-rule:evenodd; stroke:#aaaaaa; stroke-opacity:100%; stroke-width: 1.5pt; stroke-linejoin:round; stroke-linecap:round;" d="M55.01 70.79c0.85 0.85 1.08 1.96 1.08 3.44c0 9.74-0.09 17.33-0.09 20.64c0 9.3-5.88 1.12-7.36-0.75"></path>

<path style="fill:none; fill-opacity:0%; fill-rule:evenodd; stroke:#000000; stroke-opacity:100%; stroke-width: 3pt; stroke-linejoin:round; stroke-linecap:round;" d="M52.79 9.61c1.13 1.13 1.34 2.32 1.34 3.27c0 3.49 0.09 4.25 0.09 7.31"></path>
<path style="fill:none; fill-opacity:0%; fill-rule:evenodd; stroke:#000000; stroke-opacity:100%; stroke-width: 3pt; stroke-linejoin:round; stroke-linecap:round;" d="M22 23.83c2.62 0.67 5.28 0.72 8.13 0.4c11.13-1.23 35.9-3.83 48.5-4.39c2.66-0.12 5.09-0.2 7.62 0.75"></path>
<path style="fill:none; fill-opacity:0%; fill-rule:evenodd; stroke:#000000; stroke-opacity:100%; stroke-width: 3pt; stroke-linejoin:round; stroke-linecap:round;" d="M35.64 33.39c0.82 0.51 1.52 1.25 1.59 2.24c0.82 2.52 1.95 6.15 2.67 9.4c0.21 0.95 0.41 1.87 0.61 2.72"></path>
<path style="fill:none; fill-opacity:0%; fill-rule:evenodd; stroke:#000000; stroke-opacity:100%; stroke-width: 3pt; stroke-linejoin:round; stroke-linecap:round;" d="M37.56 34.13c6.53-0.88 21.98-3.2 29.69-4.19c3.62-0.46 5.6-0.24 4.46 3.99c-0.58 2.14-1.3 4.11-2.54 8.02"></path>
<path style="fill:none; fill-opacity:0%; fill-rule:evenodd; stroke:#000000; stroke-opacity:100%; stroke-width: 3pt; stroke-linejoin:round; stroke-linecap:round;" d="M40.97 45.69c5.75-0.77 18.06-2.32 25.78-3.18c1.71-0.19 3.22-0.35 4.42-0.45"></path>
<path style="fill:none; fill-opacity:0%; fill-rule:evenodd; stroke:#000000; stroke-opacity:100%; stroke-width: 3pt; stroke-linejoin:round; stroke-linecap:round;" d="M22.29 55.69c-0.11 3.81-2.82 13.79-3.79 16.06"></path>
<path style="fill:none; fill-opacity:0%; fill-rule:evenodd; stroke:#000000; stroke-opacity:100%; stroke-width: 3pt; stroke-linejoin:round; stroke-linecap:round;" d="M23.22 57.75C34 57 67.48 51.96 85.19 51.5c9.56-0.25 4.06 5.75-0.69 9.5"></path>
<path style="fill:none; fill-opacity:0%; fill-rule:evenodd; stroke:#000000; stroke-opacity:100%; stroke-width: 3pt; stroke-linejoin:round; stroke-linecap:round;" d="M29.27 70.84c2.15 0.84 5.32 0.46 7.53 0.21c9.47-1.07 24.6-3.02 35.21-3.79c2.58-0.19 5.18-0.24 7.73 0.36"></path>
<text x="5" y="20" font-size="20" fill="#999999">9</text><path style="fill:none; fill-opacity:0%; fill-rule:evenodd; stroke:#CC0000; stroke-opacity:100%; stroke-width: 3pt; stroke-linejoin:round; stroke-linecap:round;" d="M55.01 70.79c0.85 0.85 1.08 1.96 1.08 3.44c0 9.74-0.09 17.33-0.09 20.64c0 9.3-5.88 1.12-7.36-0.75" marker-end="url(#TriangleRed)" marker-start="url(#ArrowRed)" ></path>

</g>

</svg>  
          
