<?xml version="1.0" standalone="no"?>
<!DOCTYPE svg PUBLIC "-//W3C//DTD SVG 1.1//EN"   "http://www.w3.org/Graphics/SVG/1.1/DTD/svg11.dtd">
<svg width="751" height="151"  version="1.1" xmlns="http://www.w3.org/2000/svg">
  <defs>
    <marker id="Triangle" viewBox="0 0 10 10" refX="0" refY="5" markerUnits="strokeWidth" markerWidth="3" style="stroke-opacity:0%;fill:#aaaaaa;" markerHeight="2" orient="auto">
      <path d="M 0 0 L 10 5 L 0 10 z" />
    </marker>
    
    <marker id="Arrow" viewBox="0 0 10 10" refX="5" refY="5" markerUnits="strokeWidth" markerWidth="1.8" style="stroke-opacity:0%;fill:#770000;" markerHeight="2" orient="auto">
      <path d="M 0 4 L 6 4 L 4 1 L 10 5 L 4 9 L 6 6 L 0 6 z" />
        <circle cx="5" cy="5" r="5" />
      </marker>
    
    <marker id="TriangleRed" viewBox="0 0 10 10" refX="0" refY="5" markerUnits="strokeWidth" markerWidth="3" style="stroke-opacity:0%;fill:#CC0000;" markerHeight="2" orient="auto">
      <path d="M 0 0 L 10 5 L 0 10 z" />
    </marker>
    
    <marker id="ArrowRed" viewBox="0 0 10 10" refX="5" refY="5" markerUnits="strokeWidth" markerWidth="1.8" style="stroke-opacity:0%;fill:#CC0000;" markerHeight="2" orient="auto">
      <path d="M 0 4 L 6 4 L 4 1 L 10 5 L 4 9 L 6 6 L 0 6 z" />
        <circle cx="5" cy="5" r="5" />
      </marker>
    
  </defs>
  
  <path style="fill:#ffffff; fill-opacity:100%; fill-rule:evenodd; stroke-width:0;" d="M 0 0 L 751 0 L 751 151 L 0 151 L 0 0" />

  <g transform="scale(1.3761467889908 1.3761467889908) translate(0, 0)">
<path style="fill:none; fill-rule:evenodd; stroke:#aaaaaa;  stroke-width:1pt; stroke-linecap:round;" d="m 109 0 L 0 0 L 0 109 L 109 109 L 109 0"></path><path style="fill:none; fill-opacity:0%; fill-rule:evenodd; stroke:#aaaaaa; stroke-opacity:100%; stroke-width: 1.5pt; stroke-linejoin:round; stroke-linecap:round;" d="M32.26 15.75c0.36 1.62 0.19 3.35-0.48 5.24C27.5 33.05 21.32 45.87 11.5 60.54"></path>
<path style="fill:none; fill-opacity:0%; fill-rule:evenodd; stroke:#aaaaaa; stroke-opacity:100%; stroke-width: 1.5pt; stroke-linejoin:round; stroke-linecap:round;" d="M24.28 44.25c0.8 0.8 1.26 2.22 1.26 3.48c0 12.15 0.14 30.73 0.01 41.77c-0.03 2.58-0.05 4.73-0.05 6.25"></path>
<path style="fill:none; fill-opacity:0%; fill-rule:evenodd; stroke:#aaaaaa; stroke-opacity:100%; stroke-width: 1.5pt; stroke-linejoin:round; stroke-linecap:round;" d="M49 36c1.88 0.5 3.97 0.52 5.62 0.34c6.32-0.67 19.78-1.91 27.12-2.55c1.93-0.17 4.13-0.1 6.01 0.36"></path>
<path style="fill:none; fill-opacity:0%; fill-rule:evenodd; stroke:#aaaaaa; stroke-opacity:100%; stroke-width: 1.5pt; stroke-linejoin:round; stroke-linecap:round;" d="M36.5 77.83c2.6 0.93 5.92 0.75 8.62 0.48c9.77-0.97 32.2-2.55 45.38-3.15c2.69-0.12 5.61-0.03 8.25 0.53"></path>

<text x="5" y="20" font-size="20" fill="#999999">1</text><path style="fill:none; fill-opacity:0%; fill-rule:evenodd; stroke:#CC0000; stroke-opacity:100%; stroke-width: 3pt; stroke-linejoin:round; stroke-linecap:round;" d="M32.26 15.75c0.36 1.62 0.19 3.35-0.48 5.24C27.5 33.05 21.32 45.87 11.5 60.54" marker-end="url(#TriangleRed)" marker-start="url(#ArrowRed)" ></path>




</g><g transform="scale(1.3761467889908 1.3761467889908) translate(109, 0)">
<path style="fill:none; fill-rule:evenodd; stroke:#aaaaaa;  stroke-width:1pt; stroke-linecap:round;" d="m 109 0 L 0 0 L 0 109 L 109 109 L 109 0"></path><path style="fill:none; fill-opacity:0%; fill-rule:evenodd; stroke:#aaaaaa; stroke-opacity:100%; stroke-width: 1.5pt; stroke-linejoin:round; stroke-linecap:round;" d="M32.26 15.75c0.36 1.62 0.19 3.35-0.48 5.24C27.5 33.05 21.32 45.87 11.5 60.54"></path>
<path style="fill:none; fill-opacity:0%; fill-rule:evenodd; stroke:#aaaaaa; stroke-opacity:100%; stroke-width: 1.5pt; stroke-linejoin:round; stroke-linecap:round;" d="M24.28 44.25c0.8 0.8 1.26 2.22 1.26 3.48c0 12.15 0.14 30.73 0.01 41.77c-0.03 2.58-0.05 4.73-0.05 6.25"></path>
<path style="fill:none; fill-opacity:0%; fill-rule:evenodd; stroke:#aaaaaa; stroke-opacity:100%; stroke-width: 1.5pt; stroke-linejoin:round; stroke-linecap:round;" d="M49 36c1.88 0.5 3.97 0.52 5.62 0.34c6.32-0.67 19.78-1.91 27.12-2.55c1.93-0.17 4.13-0.1 6.01 0.36"></path>
<path style="fill:none; fill-opacity:0%; fill-rule:evenodd; stroke:#aaaaaa; stroke-opacity:100%; stroke-width: 1.5pt; stroke-linejoin:round; stroke-linecap:round;" d="M36.5 77.83c2.6 0.93 5.92 0.75 8.62 0.48c9.77-0.97 32.2-2.55 45.38-3.15c2.69-0.12 5.61-0.03 8.25 0.53"></path>

<path style="fill:none; fill-opacity:0%; fill-rule:evenodd; stroke:#000000; stroke-opacity:100%; stroke-width: 3pt; stroke-linejoin:round; stroke-linecap:round;" d="M32.26 15.75c0.36 1.62 0.19 3.35-0.48 5.24C27.5 33.05 21.32 45.87 11.5 60.54"></path>
<text x="5" y="20" font-size="20" fill="#999999">2</text><path style="fill:none; fill-opacity:0%; fill-rule:evenodd; stroke:#CC0000; stroke-opacity:100%; stroke-width: 3pt; stroke-linejoin:round; stroke-linecap:round;" d="M24.28 44.25c0.8 0.8 1.26 2.22 1.26 3.48c0 12.15 0.14 30.73 0.01 41.77c-0.03 2.58-0.05 4.73-0.05 6.25" marker-end="url(#TriangleRed)" marker-start="url(#ArrowRed)" ></path>



</g><g transform="scale(1.3761467889908 1.3761467889908) translate(218, 0)">
<path style="fill:none; fill-rule:evenodd; stroke:#aaaaaa;  stroke-width:1pt; stroke-linecap:round;" d="m 109 0 L 0 0 L 0 109 L 109 109 L 109 0"></path><path style="fill:none; fill-opacity:0%; fill-rule:evenodd; stroke:#aaaaaa; stroke-opacity:100%; stroke-width: 1.5pt; stroke-linejoin:round; stroke-linecap:round;" d="M32.26 15.75c0.36 1.62 0.19 3.35-0.48 5.24C27.5 33.05 21.32 45.87 11.5 60.54"></path>
<path style="fill:none; fill-opacity:0%; fill-rule:evenodd; stroke:#aaaaaa; stroke-opacity:100%; stroke-width: 1.5pt; stroke-linejoin:round; stroke-linecap:round;" d="M24.28 44.25c0.8 0.8 1.26 2.22 1.26 3.48c0 12.15 0.14 30.73 0.01 41.77c-0.03 2.58-0.05 4.73-0.05 6.25"></path>
<path style="fill:none; fill-opacity:0%; fill-rule:evenodd; stroke:#aaaaaa; stroke-opacity:100%; stroke-width: 1.5pt; stroke-linejoin:round; stroke-linecap:round;" d="M49 36c1.88 0.5 3.97 0.52 5.62 0.34c6.32-0.67 19.78-1.91 27.12-2.55c1.93-0.17 4.13-0.1 6.01 0.36"></path>
<path style="fill:none; fill-opacity:0%; fill-rule:evenodd; stroke:#aaaaaa; stroke-opacity:100%; stroke-width: 1.5pt; stroke-linejoin:round; stroke-linecap:round;" d="M36.5 77.83c2.6 0.93 5.92 0.75 8.62 0.48c9.77-0.97 32.2-2.55 45.38-3.15c2.69-0.12 5.61-0.03 8.25 0.53"></path>

<path style="fill:none; fill-opacity:0%; fill-rule:evenodd; stroke:#000000; stroke-opacity:100%; stroke-width: 3pt; stroke-linejoin:round; stroke-linecap:round;" d="M32.26 15.75c0.36 1.62 0.19 3.35-0.48 5.24C27.5 33.05 21.32 45.87 11.5 60.54"></path>
<path style="fill:none; fill-opacity:0%; fill-rule:evenodd; stroke:#000000; stroke-opacity:100%; stroke-width: 3pt; stroke-linejoin:round; stroke-linecap:round;" d="M24.28 44.25c0.8 0.8 1.26 2.22 1.26 3.48c0 12.15 0.14 30.73 0.01 41.77c-0.03 2.58-0.05 4.73-0.05 6.25"></path>
<text x="5" y="20" font-size="20" fill="#999999">3</text><path style="fill:none; fill-opacity:0%; fill-rule:evenodd; stroke:#CC0000; stroke-opacity:100%; stroke-width: 3pt; stroke-linejoin:round; stroke-linecap:round;" d="M49 36c1.88 0.5 3.97 0.52 5.62 0.34c6.32-0.67 19.78-1.91 27.12-2.55c1.93-0.17 4.13-0.1 6.01 0.36" marker-end="url(#TriangleRed)" marker-start="url(#ArrowRed)" ></path>


</g><g transform="scale(1.3761467889908 1.3761467889908) translate(327, 0)">
<path style="fill:none; fill-rule:evenodd; stroke:#aaaaaa;  stroke-width:1pt; stroke-linecap:round;" d="m 109 0 L 0 0 L 0 109 L 109 109 L 109 0"></path><path style="fill:none; fill-opacity:0%; fill-rule:evenodd; stroke:#aaaaaa; stroke-opacity:100%; stroke-width: 1.5pt; stroke-linejoin:round; stroke-linecap:round;" d="M32.26 15.75c0.36 1.62 0.19 3.35-0.48 5.24C27.5 33.05 21.32 45.87 11.5 60.54"></path>
<path style="fill:none; fill-opacity:0%; fill-rule:evenodd; stroke:#aaaaaa; stroke-opacity:100%; stroke-width: 1.5pt; stroke-linejoin:round; stroke-linecap:round;" d="M24.28 44.25c0.8 0.8 1.26 2.22 1.26 3.48c0 12.15 0.14 30.73 0.01 41.77c-0.03 2.58-0.05 4.73-0.05 6.25"></path>
<path style="fill:none; fill-opacity:0%; fill-rule:evenodd; stroke:#aaaaaa; stroke-opacity:100%; stroke-width: 1.5pt; stroke-linejoin:round; stroke-linecap:round;" d="M49 36c1.88 0.5 3.97 0.52 5.62 0.34c6.32-0.67 19.78-1.91 27.12-2.55c1.93-0.17 4.13-0.1 6.01 0.36"></path>
<path style="fill:none; fill-opacity:0%; fill-rule:evenodd; stroke:#aaaaaa; stroke-opacity:100%; stroke-width: 1.5pt; stroke-linejoin:round; stroke-linecap:round;" d="M36.5 77.83c2.6 0.93 5.92 0.75 8.62 0.48c9.77-0.97 32.2-2.55 45.38-3.15c2.69-0.12 5.61-0.03 8.25 0.53"></path>

<path style="fill:none; fill-opacity:0%; fill-rule:evenodd; stroke:#000000; stroke-opacity:100%; stroke-width: 3pt; stroke-linejoin:round; stroke-linecap:round;" d="M32.26 15.75c0.36 1.62 0.19 3.35-0.48 5.24C27.5 33.05 21.32 45.87 11.5 60.54"></path>
<path style="fill:none; fill-opacity:0%; fill-rule:evenodd; stroke:#000000; stroke-opacity:100%; stroke-width: 3pt; stroke-linejoin:round; stroke-linecap:round;" d="M24.28 44.25c0.8 0.8 1.26 2.22 1.26 3.48c0 12.15 0.14 30.73 0.01 41.77c-0.03 2.58-0.05 4.73-0.05 6.25"></path>
<path style="fill:none; fill-opacity:0%; fill-rule:evenodd; stroke:#000000; stroke-opacity:100%; stroke-width: 3pt; stroke-linejoin:round; stroke-linecap:round;" d="M49 36c1.88 0.5 3.97 0.52 5.62 0.34c6.32-0.67 19.78-1.91 27.12-2.55c1.93-0.17 4.13-0.1 6.01 0.36"></path>
<text x="5" y="20" font-size="20" fill="#999999">4</text><path style="fill:none; fill-opacity:0%; fill-rule:evenodd; stroke:#CC0000; stroke-opacity:100%; stroke-width: 3pt; stroke-linejoin:round; stroke-linecap:round;" d="M36.5 77.83c2.6 0.93 5.92 0.75 8.62 0.48c9.77-0.97 32.2-2.55 45.38-3.15c2.69-0.12 5.61-0.03 8.25 0.53" marker-end="url(#TriangleRed)" marker-start="url(#ArrowRed)" ></path>

</g>

</svg>  
          
