<?xml version="1.0" standalone="no"?>
<!DOCTYPE svg PUBLIC "-//W3C//DTD SVG 1.1//EN"
 "http://www.w3.org/Graphics/SVG/1.1/DTD/svg11.dtd">
<!-- generate by Japanese dictionary app com.asnsami.kanjidictionary -->

<svg xmlns="http://www.w3.org/2000/svg" xmlns:sodipodi="http://sodipodi.sourceforge.net/DTD/sodipodi-0.dtd" version="1.1" width="640" height="256" viewBox="0 0 5120 2048">
	<g id="id0:id0" transform="translate(0.0,0)">
		<g id="id0:id0:id0" transform="matrix(1.0,0,0,1.0,0,0.0)">			<g stroke="lightgray" stroke-width="4" transform="scale(4, 4)"> <rect x="0" y="0" width="256" height="256" fill="white" stroke-width="4"/></g>
			<g transform="scale(0.92, -0.92) translate(60, -920)">					<path d="M 239 557 L 320 724 Q 339 746 339 767 Q 339 783 328 799 Q 316 811 302 811 Q 292 811 282 806 Q 250 759 158 580 Q 66 401 44 330 Q 48 298 81 294 Q 98 294 108 308 Q 117 315 165 417 L 239 557 Z" fill="red"></path>
				<path d="M 211 -93 Q 225 -93 238 -80 Q 246 -70 246 -38 Q 246 60 239 557 C 239 587 165 447 165 417 Q 170 109 170 29 L 170 4 Q 170 -42 188 -84 Q 200 -93 211 -93 Z" fill="lightgray"></path>
				<path d="M 467 476 L 561 476 L 635 475 L 744 480 L 821 481 L 879 484 L 894 483 Q 920 483 941 496 Q 952 509 952 522 Q 952 534 944 545 Q 918 563 885 563 Q 875 563 863 561 L 824 558 L 746 558 L 636 551 L 560 551 L 466 551 L 392 549 L 316 556 Q 311 549 304 543 Q 292 526 292 513 Q 292 492 322 480 Q 343 476 392 476 L 467 476 Z" fill="lightgray"></path>
				<path d="M 561 476 Q 561 335 576 219 Q 587 182 624 182 C 649 178 646 225 645 255 L 635 475 L 636 551 L 644 771 Q 627 795 603 795 Q 582 795 569 764 Q 564 726 560 551 L 561 476 Z" fill="lightgray"></path>
				<path d="M 739 181 Q 757 180 759 180 Q 790 180 806 208 Q 818 279 821 481 L 824 558 L 826 771 Q 801 796 786 796 Q 773 796 761 786 L 750 777 L 746 558 L 744 480 L 738 255 C 737 225 736 181 739 181 Z" fill="lightgray"></path>
				<path d="M 624 182 Q 721 182 739 181 C 769 180 768 255 738 255 L 645 255 C 615 255 594 182 624 182 Z" fill="lightgray"></path>
				<path d="M 414 -76 L 922 -71 L 933 -61 Q 945 -48 945 -35 Q 945 -22 932 -9 L 920 3 L 467 -3 L 467 476 L 466 551 L 471 775 Q 450 801 433 801 Q 420 801 406 789 L 396 778 L 392 549 L 392 476 L 393 -54 Q 396 -71 414 -76 Z" fill="lightgray"></path>
</g>
		<text x="40" y="140" font-size="128" fill="#999999">1</text></g>
		<g id="id0:id1:id1" transform="matrix(1.0,0,0,1.0,1024,0.0)">			<g stroke="lightgray" stroke-width="4" transform="scale(4, 4)"> <rect x="0" y="0" width="256" height="256" fill="white" stroke-width="4"/></g>
			<g transform="scale(0.92, -0.92) translate(60, -920)">					<path d="M 239 557 L 320 724 Q 339 746 339 767 Q 339 783 328 799 Q 316 811 302 811 Q 292 811 282 806 Q 250 759 158 580 Q 66 401 44 330 Q 48 298 81 294 Q 98 294 108 308 Q 117 315 165 417 L 239 557 Z" fill="black"></path>
				<path d="M 211 -93 Q 225 -93 238 -80 Q 246 -70 246 -38 Q 246 60 239 557 C 239 587 165 447 165 417 Q 170 109 170 29 L 170 4 Q 170 -42 188 -84 Q 200 -93 211 -93 Z" fill="red"></path>
				<path d="M 467 476 L 561 476 L 635 475 L 744 480 L 821 481 L 879 484 L 894 483 Q 920 483 941 496 Q 952 509 952 522 Q 952 534 944 545 Q 918 563 885 563 Q 875 563 863 561 L 824 558 L 746 558 L 636 551 L 560 551 L 466 551 L 392 549 L 316 556 Q 311 549 304 543 Q 292 526 292 513 Q 292 492 322 480 Q 343 476 392 476 L 467 476 Z" fill="lightgray"></path>
				<path d="M 561 476 Q 561 335 576 219 Q 587 182 624 182 C 649 178 646 225 645 255 L 635 475 L 636 551 L 644 771 Q 627 795 603 795 Q 582 795 569 764 Q 564 726 560 551 L 561 476 Z" fill="lightgray"></path>
				<path d="M 739 181 Q 757 180 759 180 Q 790 180 806 208 Q 818 279 821 481 L 824 558 L 826 771 Q 801 796 786 796 Q 773 796 761 786 L 750 777 L 746 558 L 744 480 L 738 255 C 737 225 736 181 739 181 Z" fill="lightgray"></path>
				<path d="M 624 182 Q 721 182 739 181 C 769 180 768 255 738 255 L 645 255 C 615 255 594 182 624 182 Z" fill="lightgray"></path>
				<path d="M 414 -76 L 922 -71 L 933 -61 Q 945 -48 945 -35 Q 945 -22 932 -9 L 920 3 L 467 -3 L 467 476 L 466 551 L 471 775 Q 450 801 433 801 Q 420 801 406 789 L 396 778 L 392 549 L 392 476 L 393 -54 Q 396 -71 414 -76 Z" fill="lightgray"></path>
</g>
		<text x="40" y="140" font-size="128" fill="#999999">2</text></g>
		<g id="id0:id2:id2" transform="matrix(1.0,0,0,1.0,2048,0.0)">			<g stroke="lightgray" stroke-width="4" transform="scale(4, 4)"> <rect x="0" y="0" width="256" height="256" fill="white" stroke-width="4"/></g>
			<g transform="scale(0.92, -0.92) translate(60, -920)">					<path d="M 239 557 L 320 724 Q 339 746 339 767 Q 339 783 328 799 Q 316 811 302 811 Q 292 811 282 806 Q 250 759 158 580 Q 66 401 44 330 Q 48 298 81 294 Q 98 294 108 308 Q 117 315 165 417 L 239 557 Z" fill="black"></path>
				<path d="M 211 -93 Q 225 -93 238 -80 Q 246 -70 246 -38 Q 246 60 239 557 C 239 587 165 447 165 417 Q 170 109 170 29 L 170 4 Q 170 -42 188 -84 Q 200 -93 211 -93 Z" fill="black"></path>
				<path d="M 467 476 L 561 476 L 635 475 L 744 480 L 821 481 L 879 484 L 894 483 Q 920 483 941 496 Q 952 509 952 522 Q 952 534 944 545 Q 918 563 885 563 Q 875 563 863 561 L 824 558 L 746 558 L 636 551 L 560 551 L 466 551 L 392 549 L 316 556 Q 311 549 304 543 Q 292 526 292 513 Q 292 492 322 480 Q 343 476 392 476 L 467 476 Z" fill="red"></path>
				<path d="M 561 476 Q 561 335 576 219 Q 587 182 624 182 C 649 178 646 225 645 255 L 635 475 L 636 551 L 644 771 Q 627 795 603 795 Q 582 795 569 764 Q 564 726 560 551 L 561 476 Z" fill="lightgray"></path>
				<path d="M 739 181 Q 757 180 759 180 Q 790 180 806 208 Q 818 279 821 481 L 824 558 L 826 771 Q 801 796 786 796 Q 773 796 761 786 L 750 777 L 746 558 L 744 480 L 738 255 C 737 225 736 181 739 181 Z" fill="lightgray"></path>
				<path d="M 624 182 Q 721 182 739 181 C 769 180 768 255 738 255 L 645 255 C 615 255 594 182 624 182 Z" fill="lightgray"></path>
				<path d="M 414 -76 L 922 -71 L 933 -61 Q 945 -48 945 -35 Q 945 -22 932 -9 L 920 3 L 467 -3 L 467 476 L 466 551 L 471 775 Q 450 801 433 801 Q 420 801 406 789 L 396 778 L 392 549 L 392 476 L 393 -54 Q 396 -71 414 -76 Z" fill="lightgray"></path>
</g>
		<text x="40" y="140" font-size="128" fill="#999999">3</text></g>
		<g id="id0:id3:id3" transform="matrix(1.0,0,0,1.0,3072,0.0)">			<g stroke="lightgray" stroke-width="4" transform="scale(4, 4)"> <rect x="0" y="0" width="256" height="256" fill="white" stroke-width="4"/></g>
			<g transform="scale(0.92, -0.92) translate(60, -920)">					<path d="M 239 557 L 320 724 Q 339 746 339 767 Q 339 783 328 799 Q 316 811 302 811 Q 292 811 282 806 Q 250 759 158 580 Q 66 401 44 330 Q 48 298 81 294 Q 98 294 108 308 Q 117 315 165 417 L 239 557 Z" fill="black"></path>
				<path d="M 211 -93 Q 225 -93 238 -80 Q 246 -70 246 -38 Q 246 60 239 557 C 239 587 165 447 165 417 Q 170 109 170 29 L 170 4 Q 170 -42 188 -84 Q 200 -93 211 -93 Z" fill="black"></path>
				<path d="M 467 476 L 561 476 L 635 475 L 744 480 L 821 481 L 879 484 L 894 483 Q 920 483 941 496 Q 952 509 952 522 Q 952 534 944 545 Q 918 563 885 563 Q 875 563 863 561 L 824 558 L 746 558 L 636 551 L 560 551 L 466 551 L 392 549 L 316 556 Q 311 549 304 543 Q 292 526 292 513 Q 292 492 322 480 Q 343 476 392 476 L 467 476 Z" fill="black"></path>
				<path d="M 561 476 Q 561 335 576 219 Q 587 182 624 182 C 649 178 646 225 645 255 L 635 475 L 636 551 L 644 771 Q 627 795 603 795 Q 582 795 569 764 Q 564 726 560 551 L 561 476 Z" fill="red"></path>
				<path d="M 739 181 Q 757 180 759 180 Q 790 180 806 208 Q 818 279 821 481 L 824 558 L 826 771 Q 801 796 786 796 Q 773 796 761 786 L 750 777 L 746 558 L 744 480 L 738 255 C 737 225 736 181 739 181 Z" fill="lightgray"></path>
				<path d="M 624 182 Q 721 182 739 181 C 769 180 768 255 738 255 L 645 255 C 615 255 594 182 624 182 Z" fill="lightgray"></path>
				<path d="M 414 -76 L 922 -71 L 933 -61 Q 945 -48 945 -35 Q 945 -22 932 -9 L 920 3 L 467 -3 L 467 476 L 466 551 L 471 775 Q 450 801 433 801 Q 420 801 406 789 L 396 778 L 392 549 L 392 476 L 393 -54 Q 396 -71 414 -76 Z" fill="lightgray"></path>
</g>
		<text x="40" y="140" font-size="128" fill="#999999">4</text></g>
		<g id="id0:id4:id4" transform="matrix(1.0,0,0,1.0,4096,0.0)">			<g stroke="lightgray" stroke-width="4" transform="scale(4, 4)"> <rect x="0" y="0" width="256" height="256" fill="white" stroke-width="4"/></g>
			<g transform="scale(0.92, -0.92) translate(60, -920)">					<path d="M 239 557 L 320 724 Q 339 746 339 767 Q 339 783 328 799 Q 316 811 302 811 Q 292 811 282 806 Q 250 759 158 580 Q 66 401 44 330 Q 48 298 81 294 Q 98 294 108 308 Q 117 315 165 417 L 239 557 Z" fill="black"></path>
				<path d="M 211 -93 Q 225 -93 238 -80 Q 246 -70 246 -38 Q 246 60 239 557 C 239 587 165 447 165 417 Q 170 109 170 29 L 170 4 Q 170 -42 188 -84 Q 200 -93 211 -93 Z" fill="black"></path>
				<path d="M 467 476 L 561 476 L 635 475 L 744 480 L 821 481 L 879 484 L 894 483 Q 920 483 941 496 Q 952 509 952 522 Q 952 534 944 545 Q 918 563 885 563 Q 875 563 863 561 L 824 558 L 746 558 L 636 551 L 560 551 L 466 551 L 392 549 L 316 556 Q 311 549 304 543 Q 292 526 292 513 Q 292 492 322 480 Q 343 476 392 476 L 467 476 Z" fill="black"></path>
				<path d="M 561 476 Q 561 335 576 219 Q 587 182 624 182 C 649 178 646 225 645 255 L 635 475 L 636 551 L 644 771 Q 627 795 603 795 Q 582 795 569 764 Q 564 726 560 551 L 561 476 Z" fill="black"></path>
				<path d="M 739 181 Q 757 180 759 180 Q 790 180 806 208 Q 818 279 821 481 L 824 558 L 826 771 Q 801 796 786 796 Q 773 796 761 786 L 750 777 L 746 558 L 744 480 L 738 255 C 737 225 736 181 739 181 Z" fill="red"></path>
				<path d="M 624 182 Q 721 182 739 181 C 769 180 768 255 738 255 L 645 255 C 615 255 594 182 624 182 Z" fill="lightgray"></path>
				<path d="M 414 -76 L 922 -71 L 933 -61 Q 945 -48 945 -35 Q 945 -22 932 -9 L 920 3 L 467 -3 L 467 476 L 466 551 L 471 775 Q 450 801 433 801 Q 420 801 406 789 L 396 778 L 392 549 L 392 476 L 393 -54 Q 396 -71 414 -76 Z" fill="lightgray"></path>
</g>
		<text x="40" y="140" font-size="128" fill="#999999">5</text></g>
</g>
	<g id="id1:id1" transform="translate(0.0,1024)">
		<g id="id1:id0:id0" transform="matrix(1.0,0,0,1.0,0,0.0)">			<g stroke="lightgray" stroke-width="4" transform="scale(4, 4)"> <rect x="0" y="0" width="256" height="256" fill="white" stroke-width="4"/></g>
			<g transform="scale(0.92, -0.92) translate(60, -920)">					<path d="M 239 557 L 320 724 Q 339 746 339 767 Q 339 783 328 799 Q 316 811 302 811 Q 292 811 282 806 Q 250 759 158 580 Q 66 401 44 330 Q 48 298 81 294 Q 98 294 108 308 Q 117 315 165 417 L 239 557 Z" fill="black"></path>
				<path d="M 211 -93 Q 225 -93 238 -80 Q 246 -70 246 -38 Q 246 60 239 557 C 239 587 165 447 165 417 Q 170 109 170 29 L 170 4 Q 170 -42 188 -84 Q 200 -93 211 -93 Z" fill="black"></path>
				<path d="M 467 476 L 561 476 L 635 475 L 744 480 L 821 481 L 879 484 L 894 483 Q 920 483 941 496 Q 952 509 952 522 Q 952 534 944 545 Q 918 563 885 563 Q 875 563 863 561 L 824 558 L 746 558 L 636 551 L 560 551 L 466 551 L 392 549 L 316 556 Q 311 549 304 543 Q 292 526 292 513 Q 292 492 322 480 Q 343 476 392 476 L 467 476 Z" fill="black"></path>
				<path d="M 561 476 Q 561 335 576 219 Q 587 182 624 182 C 649 178 646 225 645 255 L 635 475 L 636 551 L 644 771 Q 627 795 603 795 Q 582 795 569 764 Q 564 726 560 551 L 561 476 Z" fill="black"></path>
				<path d="M 739 181 Q 757 180 759 180 Q 790 180 806 208 Q 818 279 821 481 L 824 558 L 826 771 Q 801 796 786 796 Q 773 796 761 786 L 750 777 L 746 558 L 744 480 L 738 255 C 737 225 736 181 739 181 Z" fill="black"></path>
				<path d="M 624 182 Q 721 182 739 181 C 769 180 768 255 738 255 L 645 255 C 615 255 594 182 624 182 Z" fill="red"></path>
				<path d="M 414 -76 L 922 -71 L 933 -61 Q 945 -48 945 -35 Q 945 -22 932 -9 L 920 3 L 467 -3 L 467 476 L 466 551 L 471 775 Q 450 801 433 801 Q 420 801 406 789 L 396 778 L 392 549 L 392 476 L 393 -54 Q 396 -71 414 -76 Z" fill="lightgray"></path>
</g>
		<text x="40" y="140" font-size="128" fill="#999999">6</text></g>
		<g id="id1:id1:id1" transform="matrix(1.0,0,0,1.0,1024,0.0)">			<g stroke="lightgray" stroke-width="4" transform="scale(4, 4)"> <rect x="0" y="0" width="256" height="256" fill="white" stroke-width="4"/></g>
			<g transform="scale(0.92, -0.92) translate(60, -920)">					<path d="M 239 557 L 320 724 Q 339 746 339 767 Q 339 783 328 799 Q 316 811 302 811 Q 292 811 282 806 Q 250 759 158 580 Q 66 401 44 330 Q 48 298 81 294 Q 98 294 108 308 Q 117 315 165 417 L 239 557 Z" fill="black"></path>
				<path d="M 211 -93 Q 225 -93 238 -80 Q 246 -70 246 -38 Q 246 60 239 557 C 239 587 165 447 165 417 Q 170 109 170 29 L 170 4 Q 170 -42 188 -84 Q 200 -93 211 -93 Z" fill="black"></path>
				<path d="M 467 476 L 561 476 L 635 475 L 744 480 L 821 481 L 879 484 L 894 483 Q 920 483 941 496 Q 952 509 952 522 Q 952 534 944 545 Q 918 563 885 563 Q 875 563 863 561 L 824 558 L 746 558 L 636 551 L 560 551 L 466 551 L 392 549 L 316 556 Q 311 549 304 543 Q 292 526 292 513 Q 292 492 322 480 Q 343 476 392 476 L 467 476 Z" fill="black"></path>
				<path d="M 561 476 Q 561 335 576 219 Q 587 182 624 182 C 649 178 646 225 645 255 L 635 475 L 636 551 L 644 771 Q 627 795 603 795 Q 582 795 569 764 Q 564 726 560 551 L 561 476 Z" fill="black"></path>
				<path d="M 739 181 Q 757 180 759 180 Q 790 180 806 208 Q 818 279 821 481 L 824 558 L 826 771 Q 801 796 786 796 Q 773 796 761 786 L 750 777 L 746 558 L 744 480 L 738 255 C 737 225 736 181 739 181 Z" fill="black"></path>
				<path d="M 624 182 Q 721 182 739 181 C 769 180 768 255 738 255 L 645 255 C 615 255 594 182 624 182 Z" fill="black"></path>
				<path d="M 414 -76 L 922 -71 L 933 -61 Q 945 -48 945 -35 Q 945 -22 932 -9 L 920 3 L 467 -3 L 467 476 L 466 551 L 471 775 Q 450 801 433 801 Q 420 801 406 789 L 396 778 L 392 549 L 392 476 L 393 -54 Q 396 -71 414 -76 Z" fill="red"></path>
</g>
		<text x="40" y="140" font-size="128" fill="#999999">7</text></g>
		<g id="id1:id2:id2" transform="matrix(1.0,0,0,1.0,2048,0.0)">			<g stroke="white" stroke-width="4" transform="scale(4, 4)"> <rect x="1" y="1" width="255" height="255" fill="white" stroke-width="0"/></g>
</g>
		<g id="id1:id3:id3" transform="matrix(1.0,0,0,1.0,3072,0.0)">			<g stroke="white" stroke-width="4" transform="scale(4, 4)"> <rect x="1" y="1" width="255" height="255" fill="white" stroke-width="0"/></g>
</g>
		<g id="id1:id4:id4" transform="matrix(1.0,0,0,1.0,4096,0.0)">			<g stroke="white" stroke-width="4" transform="scale(4, 4)"> <rect x="1" y="1" width="255" height="255" fill="white" stroke-width="0"/></g>
</g>
</g>
</svg>
