<?xml version="1.0" standalone="no"?>
<!DOCTYPE svg PUBLIC "-//W3C//DTD SVG 1.1//EN"   "http://www.w3.org/Graphics/SVG/1.1/DTD/svg11.dtd">
<svg width="751" height="301"  version="1.1" xmlns="http://www.w3.org/2000/svg">
  <defs>
    <marker id="Triangle" viewBox="0 0 10 10" refX="0" refY="5" markerUnits="strokeWidth" markerWidth="3" style="stroke-opacity:0%;fill:#aaaaaa;" markerHeight="2" orient="auto">
      <path d="M 0 0 L 10 5 L 0 10 z" />
    </marker>
    
    <marker id="Arrow" viewBox="0 0 10 10" refX="5" refY="5" markerUnits="strokeWidth" markerWidth="1.8" style="stroke-opacity:0%;fill:#770000;" markerHeight="2" orient="auto">
      <path d="M 0 4 L 6 4 L 4 1 L 10 5 L 4 9 L 6 6 L 0 6 z" />
        <circle cx="5" cy="5" r="5" />
      </marker>
    
    <marker id="TriangleRed" viewBox="0 0 10 10" refX="0" refY="5" markerUnits="strokeWidth" markerWidth="3" style="stroke-opacity:0%;fill:#CC0000;" markerHeight="2" orient="auto">
      <path d="M 0 0 L 10 5 L 0 10 z" />
    </marker>
    
    <marker id="ArrowRed" viewBox="0 0 10 10" refX="5" refY="5" markerUnits="strokeWidth" markerWidth="1.8" style="stroke-opacity:0%;fill:#CC0000;" markerHeight="2" orient="auto">
      <path d="M 0 4 L 6 4 L 4 1 L 10 5 L 4 9 L 6 6 L 0 6 z" />
        <circle cx="5" cy="5" r="5" />
      </marker>
    
  </defs>
  
  <path style="fill:#ffffff; fill-opacity:100%; fill-rule:evenodd; stroke-width:0;" d="M 0 0 L 751 0 L 751 301 L 0 301 L 0 0" />

  <g transform="scale(1.3761467889908 1.3761467889908) translate(0, 0)">
<path style="fill:none; fill-rule:evenodd; stroke:#aaaaaa;  stroke-width:1pt; stroke-linecap:round;" d="m 109 0 L 0 0 L 0 109 L 109 109 L 109 0"></path><path style="fill:none; fill-opacity:0%; fill-rule:evenodd; stroke:#aaaaaa; stroke-opacity:100%; stroke-width: 1.5pt; stroke-linejoin:round; stroke-linecap:round;" d="M31.26 16c0.49 1.38 0.19 2.81-0.48 4.63c-4.28 11.59-9.72 24.31-19.53 38.41"></path>
<path style="fill:none; fill-opacity:0%; fill-rule:evenodd; stroke:#aaaaaa; stroke-opacity:100%; stroke-width: 1.5pt; stroke-linejoin:round; stroke-linecap:round;" d="M24.03 41.5c0.86 0.86 1.26 1.88 1.26 3.73c0 10.01-0.03 32.49-0.04 44.27c0 2.66 0 4.82 0 6.25"></path>
<path style="fill:none; fill-opacity:0%; fill-rule:evenodd; stroke:#aaaaaa; stroke-opacity:100%; stroke-width: 1.5pt; stroke-linejoin:round; stroke-linecap:round;" d="M53.9 17.42c0.96 0.96 1.34 2.08 1.34 3.3c0 54.03 0.89 58.9-13.22 76.02"></path>
<path style="fill:none; fill-opacity:0%; fill-rule:evenodd; stroke:#aaaaaa; stroke-opacity:100%; stroke-width: 1.5pt; stroke-linejoin:round; stroke-linecap:round;" d="M38.55 40.17c1.29 0 2.8 0.28 4.1 0c1.29-0.28 7.47-1.79 9.94-2.29"></path>
<path style="fill:none; fill-opacity:0%; fill-rule:evenodd; stroke:#aaaaaa; stroke-opacity:100%; stroke-width: 1.5pt; stroke-linejoin:round; stroke-linecap:round;" d="M37.83 55.34c1.27 0 2.75 0.26 4.01 0c1.27-0.26 7.56-1.56 10.94-2.33"></path>
<path style="fill:none; fill-opacity:0%; fill-rule:evenodd; stroke:#aaaaaa; stroke-opacity:100%; stroke-width: 1.5pt; stroke-linejoin:round; stroke-linecap:round;" d="M35.73 73.01c1.15 0.87 2.4 0.62 3.59 0c1.14-0.59 8.18-4.25 15.04-7.91"></path>
<path style="fill:none; fill-opacity:0%; fill-rule:evenodd; stroke:#aaaaaa; stroke-opacity:100%; stroke-width: 1.5pt; stroke-linejoin:round; stroke-linecap:round;" d="M72.29 13c0.98 0.98 1.34 2.38 1.34 3.8c0 0.69 0.03 55.95 0.04 75.2c0 3.35 0 5.6 0 6.3"></path>
<path style="fill:none; fill-opacity:0%; fill-rule:evenodd; stroke:#aaaaaa; stroke-opacity:100%; stroke-width: 1.5pt; stroke-linejoin:round; stroke-linecap:round;" d="M75.37 34.21c4.45-0.62 12.72-1.56 16.77-2.24c1.44-0.24 2.48-0.39 3.92-0.39"></path>
<path style="fill:none; fill-opacity:0%; fill-rule:evenodd; stroke:#aaaaaa; stroke-opacity:100%; stroke-width: 1.5pt; stroke-linejoin:round; stroke-linecap:round;" d="M75.47 51.66c3.55-0.3 9.37-1.13 13.18-1.73c1.56-0.25 2.97-0.43 4.22-0.19"></path>
<path style="fill:none; fill-opacity:0%; fill-rule:evenodd; stroke:#aaaaaa; stroke-opacity:100%; stroke-width: 1.5pt; stroke-linejoin:round; stroke-linecap:round;" d="M75.11 70.76c3.54-0.3 14.24-1.48 19.3-2.2c1.5-0.21 3.1-0.22 4.61-0.22"></path>

<text x="5" y="20" font-size="20" fill="#999999">1</text><path style="fill:none; fill-opacity:0%; fill-rule:evenodd; stroke:#CC0000; stroke-opacity:100%; stroke-width: 3pt; stroke-linejoin:round; stroke-linecap:round;" d="M31.26 16c0.49 1.38 0.19 2.81-0.48 4.63c-4.28 11.59-9.72 24.31-19.53 38.41"  ></path>










</g><g transform="scale(1.3761467889908 1.3761467889908) translate(109, 0)">
<path style="fill:none; fill-rule:evenodd; stroke:#aaaaaa;  stroke-width:1pt; stroke-linecap:round;" d="m 109 0 L 0 0 L 0 109 L 109 109 L 109 0"></path><path style="fill:none; fill-opacity:0%; fill-rule:evenodd; stroke:#aaaaaa; stroke-opacity:100%; stroke-width: 1.5pt; stroke-linejoin:round; stroke-linecap:round;" d="M31.26 16c0.49 1.38 0.19 2.81-0.48 4.63c-4.28 11.59-9.72 24.31-19.53 38.41"></path>
<path style="fill:none; fill-opacity:0%; fill-rule:evenodd; stroke:#aaaaaa; stroke-opacity:100%; stroke-width: 1.5pt; stroke-linejoin:round; stroke-linecap:round;" d="M24.03 41.5c0.86 0.86 1.26 1.88 1.26 3.73c0 10.01-0.03 32.49-0.04 44.27c0 2.66 0 4.82 0 6.25"></path>
<path style="fill:none; fill-opacity:0%; fill-rule:evenodd; stroke:#aaaaaa; stroke-opacity:100%; stroke-width: 1.5pt; stroke-linejoin:round; stroke-linecap:round;" d="M53.9 17.42c0.96 0.96 1.34 2.08 1.34 3.3c0 54.03 0.89 58.9-13.22 76.02"></path>
<path style="fill:none; fill-opacity:0%; fill-rule:evenodd; stroke:#aaaaaa; stroke-opacity:100%; stroke-width: 1.5pt; stroke-linejoin:round; stroke-linecap:round;" d="M38.55 40.17c1.29 0 2.8 0.28 4.1 0c1.29-0.28 7.47-1.79 9.94-2.29"></path>
<path style="fill:none; fill-opacity:0%; fill-rule:evenodd; stroke:#aaaaaa; stroke-opacity:100%; stroke-width: 1.5pt; stroke-linejoin:round; stroke-linecap:round;" d="M37.83 55.34c1.27 0 2.75 0.26 4.01 0c1.27-0.26 7.56-1.56 10.94-2.33"></path>
<path style="fill:none; fill-opacity:0%; fill-rule:evenodd; stroke:#aaaaaa; stroke-opacity:100%; stroke-width: 1.5pt; stroke-linejoin:round; stroke-linecap:round;" d="M35.73 73.01c1.15 0.87 2.4 0.62 3.59 0c1.14-0.59 8.18-4.25 15.04-7.91"></path>
<path style="fill:none; fill-opacity:0%; fill-rule:evenodd; stroke:#aaaaaa; stroke-opacity:100%; stroke-width: 1.5pt; stroke-linejoin:round; stroke-linecap:round;" d="M72.29 13c0.98 0.98 1.34 2.38 1.34 3.8c0 0.69 0.03 55.95 0.04 75.2c0 3.35 0 5.6 0 6.3"></path>
<path style="fill:none; fill-opacity:0%; fill-rule:evenodd; stroke:#aaaaaa; stroke-opacity:100%; stroke-width: 1.5pt; stroke-linejoin:round; stroke-linecap:round;" d="M75.37 34.21c4.45-0.62 12.72-1.56 16.77-2.24c1.44-0.24 2.48-0.39 3.92-0.39"></path>
<path style="fill:none; fill-opacity:0%; fill-rule:evenodd; stroke:#aaaaaa; stroke-opacity:100%; stroke-width: 1.5pt; stroke-linejoin:round; stroke-linecap:round;" d="M75.47 51.66c3.55-0.3 9.37-1.13 13.18-1.73c1.56-0.25 2.97-0.43 4.22-0.19"></path>
<path style="fill:none; fill-opacity:0%; fill-rule:evenodd; stroke:#aaaaaa; stroke-opacity:100%; stroke-width: 1.5pt; stroke-linejoin:round; stroke-linecap:round;" d="M75.11 70.76c3.54-0.3 14.24-1.48 19.3-2.2c1.5-0.21 3.1-0.22 4.61-0.22"></path>

<path style="fill:none; fill-opacity:0%; fill-rule:evenodd; stroke:#000000; stroke-opacity:100%; stroke-width: 3pt; stroke-linejoin:round; stroke-linecap:round;" d="M31.26 16c0.49 1.38 0.19 2.81-0.48 4.63c-4.28 11.59-9.72 24.31-19.53 38.41"></path>
<text x="5" y="20" font-size="20" fill="#999999">2</text><path style="fill:none; fill-opacity:0%; fill-rule:evenodd; stroke:#CC0000; stroke-opacity:100%; stroke-width: 3pt; stroke-linejoin:round; stroke-linecap:round;" d="M24.03 41.5c0.86 0.86 1.26 1.88 1.26 3.73c0 10.01-0.03 32.49-0.04 44.27c0 2.66 0 4.82 0 6.25"  ></path>









</g><g transform="scale(1.3761467889908 1.3761467889908) translate(218, 0)">
<path style="fill:none; fill-rule:evenodd; stroke:#aaaaaa;  stroke-width:1pt; stroke-linecap:round;" d="m 109 0 L 0 0 L 0 109 L 109 109 L 109 0"></path><path style="fill:none; fill-opacity:0%; fill-rule:evenodd; stroke:#aaaaaa; stroke-opacity:100%; stroke-width: 1.5pt; stroke-linejoin:round; stroke-linecap:round;" d="M31.26 16c0.49 1.38 0.19 2.81-0.48 4.63c-4.28 11.59-9.72 24.31-19.53 38.41"></path>
<path style="fill:none; fill-opacity:0%; fill-rule:evenodd; stroke:#aaaaaa; stroke-opacity:100%; stroke-width: 1.5pt; stroke-linejoin:round; stroke-linecap:round;" d="M24.03 41.5c0.86 0.86 1.26 1.88 1.26 3.73c0 10.01-0.03 32.49-0.04 44.27c0 2.66 0 4.82 0 6.25"></path>
<path style="fill:none; fill-opacity:0%; fill-rule:evenodd; stroke:#aaaaaa; stroke-opacity:100%; stroke-width: 1.5pt; stroke-linejoin:round; stroke-linecap:round;" d="M53.9 17.42c0.96 0.96 1.34 2.08 1.34 3.3c0 54.03 0.89 58.9-13.22 76.02"></path>
<path style="fill:none; fill-opacity:0%; fill-rule:evenodd; stroke:#aaaaaa; stroke-opacity:100%; stroke-width: 1.5pt; stroke-linejoin:round; stroke-linecap:round;" d="M38.55 40.17c1.29 0 2.8 0.28 4.1 0c1.29-0.28 7.47-1.79 9.94-2.29"></path>
<path style="fill:none; fill-opacity:0%; fill-rule:evenodd; stroke:#aaaaaa; stroke-opacity:100%; stroke-width: 1.5pt; stroke-linejoin:round; stroke-linecap:round;" d="M37.83 55.34c1.27 0 2.75 0.26 4.01 0c1.27-0.26 7.56-1.56 10.94-2.33"></path>
<path style="fill:none; fill-opacity:0%; fill-rule:evenodd; stroke:#aaaaaa; stroke-opacity:100%; stroke-width: 1.5pt; stroke-linejoin:round; stroke-linecap:round;" d="M35.73 73.01c1.15 0.87 2.4 0.62 3.59 0c1.14-0.59 8.18-4.25 15.04-7.91"></path>
<path style="fill:none; fill-opacity:0%; fill-rule:evenodd; stroke:#aaaaaa; stroke-opacity:100%; stroke-width: 1.5pt; stroke-linejoin:round; stroke-linecap:round;" d="M72.29 13c0.98 0.98 1.34 2.38 1.34 3.8c0 0.69 0.03 55.95 0.04 75.2c0 3.35 0 5.6 0 6.3"></path>
<path style="fill:none; fill-opacity:0%; fill-rule:evenodd; stroke:#aaaaaa; stroke-opacity:100%; stroke-width: 1.5pt; stroke-linejoin:round; stroke-linecap:round;" d="M75.37 34.21c4.45-0.62 12.72-1.56 16.77-2.24c1.44-0.24 2.48-0.39 3.92-0.39"></path>
<path style="fill:none; fill-opacity:0%; fill-rule:evenodd; stroke:#aaaaaa; stroke-opacity:100%; stroke-width: 1.5pt; stroke-linejoin:round; stroke-linecap:round;" d="M75.47 51.66c3.55-0.3 9.37-1.13 13.18-1.73c1.56-0.25 2.97-0.43 4.22-0.19"></path>
<path style="fill:none; fill-opacity:0%; fill-rule:evenodd; stroke:#aaaaaa; stroke-opacity:100%; stroke-width: 1.5pt; stroke-linejoin:round; stroke-linecap:round;" d="M75.11 70.76c3.54-0.3 14.24-1.48 19.3-2.2c1.5-0.21 3.1-0.22 4.61-0.22"></path>

<path style="fill:none; fill-opacity:0%; fill-rule:evenodd; stroke:#000000; stroke-opacity:100%; stroke-width: 3pt; stroke-linejoin:round; stroke-linecap:round;" d="M31.26 16c0.49 1.38 0.19 2.81-0.48 4.63c-4.28 11.59-9.72 24.31-19.53 38.41"></path>
<path style="fill:none; fill-opacity:0%; fill-rule:evenodd; stroke:#000000; stroke-opacity:100%; stroke-width: 3pt; stroke-linejoin:round; stroke-linecap:round;" d="M24.03 41.5c0.86 0.86 1.26 1.88 1.26 3.73c0 10.01-0.03 32.49-0.04 44.27c0 2.66 0 4.82 0 6.25"></path>
<text x="5" y="20" font-size="20" fill="#999999">3</text><path style="fill:none; fill-opacity:0%; fill-rule:evenodd; stroke:#CC0000; stroke-opacity:100%; stroke-width: 3pt; stroke-linejoin:round; stroke-linecap:round;" d="M53.9 17.42c0.96 0.96 1.34 2.08 1.34 3.3c0 54.03 0.89 58.9-13.22 76.02"  ></path>








</g><g transform="scale(1.3761467889908 1.3761467889908) translate(327, 0)">
<path style="fill:none; fill-rule:evenodd; stroke:#aaaaaa;  stroke-width:1pt; stroke-linecap:round;" d="m 109 0 L 0 0 L 0 109 L 109 109 L 109 0"></path><path style="fill:none; fill-opacity:0%; fill-rule:evenodd; stroke:#aaaaaa; stroke-opacity:100%; stroke-width: 1.5pt; stroke-linejoin:round; stroke-linecap:round;" d="M31.26 16c0.49 1.38 0.19 2.81-0.48 4.63c-4.28 11.59-9.72 24.31-19.53 38.41"></path>
<path style="fill:none; fill-opacity:0%; fill-rule:evenodd; stroke:#aaaaaa; stroke-opacity:100%; stroke-width: 1.5pt; stroke-linejoin:round; stroke-linecap:round;" d="M24.03 41.5c0.86 0.86 1.26 1.88 1.26 3.73c0 10.01-0.03 32.49-0.04 44.27c0 2.66 0 4.82 0 6.25"></path>
<path style="fill:none; fill-opacity:0%; fill-rule:evenodd; stroke:#aaaaaa; stroke-opacity:100%; stroke-width: 1.5pt; stroke-linejoin:round; stroke-linecap:round;" d="M53.9 17.42c0.96 0.96 1.34 2.08 1.34 3.3c0 54.03 0.89 58.9-13.22 76.02"></path>
<path style="fill:none; fill-opacity:0%; fill-rule:evenodd; stroke:#aaaaaa; stroke-opacity:100%; stroke-width: 1.5pt; stroke-linejoin:round; stroke-linecap:round;" d="M38.55 40.17c1.29 0 2.8 0.28 4.1 0c1.29-0.28 7.47-1.79 9.94-2.29"></path>
<path style="fill:none; fill-opacity:0%; fill-rule:evenodd; stroke:#aaaaaa; stroke-opacity:100%; stroke-width: 1.5pt; stroke-linejoin:round; stroke-linecap:round;" d="M37.83 55.34c1.27 0 2.75 0.26 4.01 0c1.27-0.26 7.56-1.56 10.94-2.33"></path>
<path style="fill:none; fill-opacity:0%; fill-rule:evenodd; stroke:#aaaaaa; stroke-opacity:100%; stroke-width: 1.5pt; stroke-linejoin:round; stroke-linecap:round;" d="M35.73 73.01c1.15 0.87 2.4 0.62 3.59 0c1.14-0.59 8.18-4.25 15.04-7.91"></path>
<path style="fill:none; fill-opacity:0%; fill-rule:evenodd; stroke:#aaaaaa; stroke-opacity:100%; stroke-width: 1.5pt; stroke-linejoin:round; stroke-linecap:round;" d="M72.29 13c0.98 0.98 1.34 2.38 1.34 3.8c0 0.69 0.03 55.95 0.04 75.2c0 3.35 0 5.6 0 6.3"></path>
<path style="fill:none; fill-opacity:0%; fill-rule:evenodd; stroke:#aaaaaa; stroke-opacity:100%; stroke-width: 1.5pt; stroke-linejoin:round; stroke-linecap:round;" d="M75.37 34.21c4.45-0.62 12.72-1.56 16.77-2.24c1.44-0.24 2.48-0.39 3.92-0.39"></path>
<path style="fill:none; fill-opacity:0%; fill-rule:evenodd; stroke:#aaaaaa; stroke-opacity:100%; stroke-width: 1.5pt; stroke-linejoin:round; stroke-linecap:round;" d="M75.47 51.66c3.55-0.3 9.37-1.13 13.18-1.73c1.56-0.25 2.97-0.43 4.22-0.19"></path>
<path style="fill:none; fill-opacity:0%; fill-rule:evenodd; stroke:#aaaaaa; stroke-opacity:100%; stroke-width: 1.5pt; stroke-linejoin:round; stroke-linecap:round;" d="M75.11 70.76c3.54-0.3 14.24-1.48 19.3-2.2c1.5-0.21 3.1-0.22 4.61-0.22"></path>

<path style="fill:none; fill-opacity:0%; fill-rule:evenodd; stroke:#000000; stroke-opacity:100%; stroke-width: 3pt; stroke-linejoin:round; stroke-linecap:round;" d="M31.26 16c0.49 1.38 0.19 2.81-0.48 4.63c-4.28 11.59-9.72 24.31-19.53 38.41"></path>
<path style="fill:none; fill-opacity:0%; fill-rule:evenodd; stroke:#000000; stroke-opacity:100%; stroke-width: 3pt; stroke-linejoin:round; stroke-linecap:round;" d="M24.03 41.5c0.86 0.86 1.26 1.88 1.26 3.73c0 10.01-0.03 32.49-0.04 44.27c0 2.66 0 4.82 0 6.25"></path>
<path style="fill:none; fill-opacity:0%; fill-rule:evenodd; stroke:#000000; stroke-opacity:100%; stroke-width: 3pt; stroke-linejoin:round; stroke-linecap:round;" d="M53.9 17.42c0.96 0.96 1.34 2.08 1.34 3.3c0 54.03 0.89 58.9-13.22 76.02"></path>
<text x="5" y="20" font-size="20" fill="#999999">4</text><path style="fill:none; fill-opacity:0%; fill-rule:evenodd; stroke:#CC0000; stroke-opacity:100%; stroke-width: 3pt; stroke-linejoin:round; stroke-linecap:round;" d="M38.55 40.17c1.29 0 2.8 0.28 4.1 0c1.29-0.28 7.47-1.79 9.94-2.29"  ></path>







</g><g transform="scale(1.3761467889908 1.3761467889908) translate(436, 0)">
<path style="fill:none; fill-rule:evenodd; stroke:#aaaaaa;  stroke-width:1pt; stroke-linecap:round;" d="m 109 0 L 0 0 L 0 109 L 109 109 L 109 0"></path><path style="fill:none; fill-opacity:0%; fill-rule:evenodd; stroke:#aaaaaa; stroke-opacity:100%; stroke-width: 1.5pt; stroke-linejoin:round; stroke-linecap:round;" d="M31.26 16c0.49 1.38 0.19 2.81-0.48 4.63c-4.28 11.59-9.72 24.31-19.53 38.41"></path>
<path style="fill:none; fill-opacity:0%; fill-rule:evenodd; stroke:#aaaaaa; stroke-opacity:100%; stroke-width: 1.5pt; stroke-linejoin:round; stroke-linecap:round;" d="M24.03 41.5c0.86 0.86 1.26 1.88 1.26 3.73c0 10.01-0.03 32.49-0.04 44.27c0 2.66 0 4.82 0 6.25"></path>
<path style="fill:none; fill-opacity:0%; fill-rule:evenodd; stroke:#aaaaaa; stroke-opacity:100%; stroke-width: 1.5pt; stroke-linejoin:round; stroke-linecap:round;" d="M53.9 17.42c0.96 0.96 1.34 2.08 1.34 3.3c0 54.03 0.89 58.9-13.22 76.02"></path>
<path style="fill:none; fill-opacity:0%; fill-rule:evenodd; stroke:#aaaaaa; stroke-opacity:100%; stroke-width: 1.5pt; stroke-linejoin:round; stroke-linecap:round;" d="M38.55 40.17c1.29 0 2.8 0.28 4.1 0c1.29-0.28 7.47-1.79 9.94-2.29"></path>
<path style="fill:none; fill-opacity:0%; fill-rule:evenodd; stroke:#aaaaaa; stroke-opacity:100%; stroke-width: 1.5pt; stroke-linejoin:round; stroke-linecap:round;" d="M37.83 55.34c1.27 0 2.75 0.26 4.01 0c1.27-0.26 7.56-1.56 10.94-2.33"></path>
<path style="fill:none; fill-opacity:0%; fill-rule:evenodd; stroke:#aaaaaa; stroke-opacity:100%; stroke-width: 1.5pt; stroke-linejoin:round; stroke-linecap:round;" d="M35.73 73.01c1.15 0.87 2.4 0.62 3.59 0c1.14-0.59 8.18-4.25 15.04-7.91"></path>
<path style="fill:none; fill-opacity:0%; fill-rule:evenodd; stroke:#aaaaaa; stroke-opacity:100%; stroke-width: 1.5pt; stroke-linejoin:round; stroke-linecap:round;" d="M72.29 13c0.98 0.98 1.34 2.38 1.34 3.8c0 0.69 0.03 55.95 0.04 75.2c0 3.35 0 5.6 0 6.3"></path>
<path style="fill:none; fill-opacity:0%; fill-rule:evenodd; stroke:#aaaaaa; stroke-opacity:100%; stroke-width: 1.5pt; stroke-linejoin:round; stroke-linecap:round;" d="M75.37 34.21c4.45-0.62 12.72-1.56 16.77-2.24c1.44-0.24 2.48-0.39 3.92-0.39"></path>
<path style="fill:none; fill-opacity:0%; fill-rule:evenodd; stroke:#aaaaaa; stroke-opacity:100%; stroke-width: 1.5pt; stroke-linejoin:round; stroke-linecap:round;" d="M75.47 51.66c3.55-0.3 9.37-1.13 13.18-1.73c1.56-0.25 2.97-0.43 4.22-0.19"></path>
<path style="fill:none; fill-opacity:0%; fill-rule:evenodd; stroke:#aaaaaa; stroke-opacity:100%; stroke-width: 1.5pt; stroke-linejoin:round; stroke-linecap:round;" d="M75.11 70.76c3.54-0.3 14.24-1.48 19.3-2.2c1.5-0.21 3.1-0.22 4.61-0.22"></path>

<path style="fill:none; fill-opacity:0%; fill-rule:evenodd; stroke:#000000; stroke-opacity:100%; stroke-width: 3pt; stroke-linejoin:round; stroke-linecap:round;" d="M31.26 16c0.49 1.38 0.19 2.81-0.48 4.63c-4.28 11.59-9.72 24.31-19.53 38.41"></path>
<path style="fill:none; fill-opacity:0%; fill-rule:evenodd; stroke:#000000; stroke-opacity:100%; stroke-width: 3pt; stroke-linejoin:round; stroke-linecap:round;" d="M24.03 41.5c0.86 0.86 1.26 1.88 1.26 3.73c0 10.01-0.03 32.49-0.04 44.27c0 2.66 0 4.82 0 6.25"></path>
<path style="fill:none; fill-opacity:0%; fill-rule:evenodd; stroke:#000000; stroke-opacity:100%; stroke-width: 3pt; stroke-linejoin:round; stroke-linecap:round;" d="M53.9 17.42c0.96 0.96 1.34 2.08 1.34 3.3c0 54.03 0.89 58.9-13.22 76.02"></path>
<path style="fill:none; fill-opacity:0%; fill-rule:evenodd; stroke:#000000; stroke-opacity:100%; stroke-width: 3pt; stroke-linejoin:round; stroke-linecap:round;" d="M38.55 40.17c1.29 0 2.8 0.28 4.1 0c1.29-0.28 7.47-1.79 9.94-2.29"></path>
<text x="5" y="20" font-size="20" fill="#999999">5</text><path style="fill:none; fill-opacity:0%; fill-rule:evenodd; stroke:#CC0000; stroke-opacity:100%; stroke-width: 3pt; stroke-linejoin:round; stroke-linecap:round;" d="M37.83 55.34c1.27 0 2.75 0.26 4.01 0c1.27-0.26 7.56-1.56 10.94-2.33"  ></path>






</g><g transform="scale(1.3761467889908 1.3761467889908) translate(0, 109)">
<path style="fill:none; fill-rule:evenodd; stroke:#aaaaaa;  stroke-width:1pt; stroke-linecap:round;" d="m 109 0 L 0 0 L 0 109 L 109 109 L 109 0"></path><path style="fill:none; fill-opacity:0%; fill-rule:evenodd; stroke:#aaaaaa; stroke-opacity:100%; stroke-width: 1.5pt; stroke-linejoin:round; stroke-linecap:round;" d="M31.26 16c0.49 1.38 0.19 2.81-0.48 4.63c-4.28 11.59-9.72 24.31-19.53 38.41"></path>
<path style="fill:none; fill-opacity:0%; fill-rule:evenodd; stroke:#aaaaaa; stroke-opacity:100%; stroke-width: 1.5pt; stroke-linejoin:round; stroke-linecap:round;" d="M24.03 41.5c0.86 0.86 1.26 1.88 1.26 3.73c0 10.01-0.03 32.49-0.04 44.27c0 2.66 0 4.82 0 6.25"></path>
<path style="fill:none; fill-opacity:0%; fill-rule:evenodd; stroke:#aaaaaa; stroke-opacity:100%; stroke-width: 1.5pt; stroke-linejoin:round; stroke-linecap:round;" d="M53.9 17.42c0.96 0.96 1.34 2.08 1.34 3.3c0 54.03 0.89 58.9-13.22 76.02"></path>
<path style="fill:none; fill-opacity:0%; fill-rule:evenodd; stroke:#aaaaaa; stroke-opacity:100%; stroke-width: 1.5pt; stroke-linejoin:round; stroke-linecap:round;" d="M38.55 40.17c1.29 0 2.8 0.28 4.1 0c1.29-0.28 7.47-1.79 9.94-2.29"></path>
<path style="fill:none; fill-opacity:0%; fill-rule:evenodd; stroke:#aaaaaa; stroke-opacity:100%; stroke-width: 1.5pt; stroke-linejoin:round; stroke-linecap:round;" d="M37.83 55.34c1.27 0 2.75 0.26 4.01 0c1.27-0.26 7.56-1.56 10.94-2.33"></path>
<path style="fill:none; fill-opacity:0%; fill-rule:evenodd; stroke:#aaaaaa; stroke-opacity:100%; stroke-width: 1.5pt; stroke-linejoin:round; stroke-linecap:round;" d="M35.73 73.01c1.15 0.87 2.4 0.62 3.59 0c1.14-0.59 8.18-4.25 15.04-7.91"></path>
<path style="fill:none; fill-opacity:0%; fill-rule:evenodd; stroke:#aaaaaa; stroke-opacity:100%; stroke-width: 1.5pt; stroke-linejoin:round; stroke-linecap:round;" d="M72.29 13c0.98 0.98 1.34 2.38 1.34 3.8c0 0.69 0.03 55.95 0.04 75.2c0 3.35 0 5.6 0 6.3"></path>
<path style="fill:none; fill-opacity:0%; fill-rule:evenodd; stroke:#aaaaaa; stroke-opacity:100%; stroke-width: 1.5pt; stroke-linejoin:round; stroke-linecap:round;" d="M75.37 34.21c4.45-0.62 12.72-1.56 16.77-2.24c1.44-0.24 2.48-0.39 3.92-0.39"></path>
<path style="fill:none; fill-opacity:0%; fill-rule:evenodd; stroke:#aaaaaa; stroke-opacity:100%; stroke-width: 1.5pt; stroke-linejoin:round; stroke-linecap:round;" d="M75.47 51.66c3.55-0.3 9.37-1.13 13.18-1.73c1.56-0.25 2.97-0.43 4.22-0.19"></path>
<path style="fill:none; fill-opacity:0%; fill-rule:evenodd; stroke:#aaaaaa; stroke-opacity:100%; stroke-width: 1.5pt; stroke-linejoin:round; stroke-linecap:round;" d="M75.11 70.76c3.54-0.3 14.24-1.48 19.3-2.2c1.5-0.21 3.1-0.22 4.61-0.22"></path>

<path style="fill:none; fill-opacity:0%; fill-rule:evenodd; stroke:#000000; stroke-opacity:100%; stroke-width: 3pt; stroke-linejoin:round; stroke-linecap:round;" d="M31.26 16c0.49 1.38 0.19 2.81-0.48 4.63c-4.28 11.59-9.72 24.31-19.53 38.41"></path>
<path style="fill:none; fill-opacity:0%; fill-rule:evenodd; stroke:#000000; stroke-opacity:100%; stroke-width: 3pt; stroke-linejoin:round; stroke-linecap:round;" d="M24.03 41.5c0.86 0.86 1.26 1.88 1.26 3.73c0 10.01-0.03 32.49-0.04 44.27c0 2.66 0 4.82 0 6.25"></path>
<path style="fill:none; fill-opacity:0%; fill-rule:evenodd; stroke:#000000; stroke-opacity:100%; stroke-width: 3pt; stroke-linejoin:round; stroke-linecap:round;" d="M53.9 17.42c0.96 0.96 1.34 2.08 1.34 3.3c0 54.03 0.89 58.9-13.22 76.02"></path>
<path style="fill:none; fill-opacity:0%; fill-rule:evenodd; stroke:#000000; stroke-opacity:100%; stroke-width: 3pt; stroke-linejoin:round; stroke-linecap:round;" d="M38.55 40.17c1.29 0 2.8 0.28 4.1 0c1.29-0.28 7.47-1.79 9.94-2.29"></path>
<path style="fill:none; fill-opacity:0%; fill-rule:evenodd; stroke:#000000; stroke-opacity:100%; stroke-width: 3pt; stroke-linejoin:round; stroke-linecap:round;" d="M37.83 55.34c1.27 0 2.75 0.26 4.01 0c1.27-0.26 7.56-1.56 10.94-2.33"></path>
<text x="5" y="20" font-size="20" fill="#999999">6</text><path style="fill:none; fill-opacity:0%; fill-rule:evenodd; stroke:#CC0000; stroke-opacity:100%; stroke-width: 3pt; stroke-linejoin:round; stroke-linecap:round;" d="M35.73 73.01c1.15 0.87 2.4 0.62 3.59 0c1.14-0.59 8.18-4.25 15.04-7.91"  ></path>





</g><g transform="scale(1.3761467889908 1.3761467889908) translate(109, 109)">
<path style="fill:none; fill-rule:evenodd; stroke:#aaaaaa;  stroke-width:1pt; stroke-linecap:round;" d="m 109 0 L 0 0 L 0 109 L 109 109 L 109 0"></path><path style="fill:none; fill-opacity:0%; fill-rule:evenodd; stroke:#aaaaaa; stroke-opacity:100%; stroke-width: 1.5pt; stroke-linejoin:round; stroke-linecap:round;" d="M31.26 16c0.49 1.38 0.19 2.81-0.48 4.63c-4.28 11.59-9.72 24.31-19.53 38.41"></path>
<path style="fill:none; fill-opacity:0%; fill-rule:evenodd; stroke:#aaaaaa; stroke-opacity:100%; stroke-width: 1.5pt; stroke-linejoin:round; stroke-linecap:round;" d="M24.03 41.5c0.86 0.86 1.26 1.88 1.26 3.73c0 10.01-0.03 32.49-0.04 44.27c0 2.66 0 4.82 0 6.25"></path>
<path style="fill:none; fill-opacity:0%; fill-rule:evenodd; stroke:#aaaaaa; stroke-opacity:100%; stroke-width: 1.5pt; stroke-linejoin:round; stroke-linecap:round;" d="M53.9 17.42c0.96 0.96 1.34 2.08 1.34 3.3c0 54.03 0.89 58.9-13.22 76.02"></path>
<path style="fill:none; fill-opacity:0%; fill-rule:evenodd; stroke:#aaaaaa; stroke-opacity:100%; stroke-width: 1.5pt; stroke-linejoin:round; stroke-linecap:round;" d="M38.55 40.17c1.29 0 2.8 0.28 4.1 0c1.29-0.28 7.47-1.79 9.94-2.29"></path>
<path style="fill:none; fill-opacity:0%; fill-rule:evenodd; stroke:#aaaaaa; stroke-opacity:100%; stroke-width: 1.5pt; stroke-linejoin:round; stroke-linecap:round;" d="M37.83 55.34c1.27 0 2.75 0.26 4.01 0c1.27-0.26 7.56-1.56 10.94-2.33"></path>
<path style="fill:none; fill-opacity:0%; fill-rule:evenodd; stroke:#aaaaaa; stroke-opacity:100%; stroke-width: 1.5pt; stroke-linejoin:round; stroke-linecap:round;" d="M35.73 73.01c1.15 0.87 2.4 0.62 3.59 0c1.14-0.59 8.18-4.25 15.04-7.91"></path>
<path style="fill:none; fill-opacity:0%; fill-rule:evenodd; stroke:#aaaaaa; stroke-opacity:100%; stroke-width: 1.5pt; stroke-linejoin:round; stroke-linecap:round;" d="M72.29 13c0.98 0.98 1.34 2.38 1.34 3.8c0 0.69 0.03 55.95 0.04 75.2c0 3.35 0 5.6 0 6.3"></path>
<path style="fill:none; fill-opacity:0%; fill-rule:evenodd; stroke:#aaaaaa; stroke-opacity:100%; stroke-width: 1.5pt; stroke-linejoin:round; stroke-linecap:round;" d="M75.37 34.21c4.45-0.62 12.72-1.56 16.77-2.24c1.44-0.24 2.48-0.39 3.92-0.39"></path>
<path style="fill:none; fill-opacity:0%; fill-rule:evenodd; stroke:#aaaaaa; stroke-opacity:100%; stroke-width: 1.5pt; stroke-linejoin:round; stroke-linecap:round;" d="M75.47 51.66c3.55-0.3 9.37-1.13 13.18-1.73c1.56-0.25 2.97-0.43 4.22-0.19"></path>
<path style="fill:none; fill-opacity:0%; fill-rule:evenodd; stroke:#aaaaaa; stroke-opacity:100%; stroke-width: 1.5pt; stroke-linejoin:round; stroke-linecap:round;" d="M75.11 70.76c3.54-0.3 14.24-1.48 19.3-2.2c1.5-0.21 3.1-0.22 4.61-0.22"></path>

<path style="fill:none; fill-opacity:0%; fill-rule:evenodd; stroke:#000000; stroke-opacity:100%; stroke-width: 3pt; stroke-linejoin:round; stroke-linecap:round;" d="M31.26 16c0.49 1.38 0.19 2.81-0.48 4.63c-4.28 11.59-9.72 24.31-19.53 38.41"></path>
<path style="fill:none; fill-opacity:0%; fill-rule:evenodd; stroke:#000000; stroke-opacity:100%; stroke-width: 3pt; stroke-linejoin:round; stroke-linecap:round;" d="M24.03 41.5c0.86 0.86 1.26 1.88 1.26 3.73c0 10.01-0.03 32.49-0.04 44.27c0 2.66 0 4.82 0 6.25"></path>
<path style="fill:none; fill-opacity:0%; fill-rule:evenodd; stroke:#000000; stroke-opacity:100%; stroke-width: 3pt; stroke-linejoin:round; stroke-linecap:round;" d="M53.9 17.42c0.96 0.96 1.34 2.08 1.34 3.3c0 54.03 0.89 58.9-13.22 76.02"></path>
<path style="fill:none; fill-opacity:0%; fill-rule:evenodd; stroke:#000000; stroke-opacity:100%; stroke-width: 3pt; stroke-linejoin:round; stroke-linecap:round;" d="M38.55 40.17c1.29 0 2.8 0.28 4.1 0c1.29-0.28 7.47-1.79 9.94-2.29"></path>
<path style="fill:none; fill-opacity:0%; fill-rule:evenodd; stroke:#000000; stroke-opacity:100%; stroke-width: 3pt; stroke-linejoin:round; stroke-linecap:round;" d="M37.83 55.34c1.27 0 2.75 0.26 4.01 0c1.27-0.26 7.56-1.56 10.94-2.33"></path>
<path style="fill:none; fill-opacity:0%; fill-rule:evenodd; stroke:#000000; stroke-opacity:100%; stroke-width: 3pt; stroke-linejoin:round; stroke-linecap:round;" d="M35.73 73.01c1.15 0.87 2.4 0.62 3.59 0c1.14-0.59 8.18-4.25 15.04-7.91"></path>
<text x="5" y="20" font-size="20" fill="#999999">7</text><path style="fill:none; fill-opacity:0%; fill-rule:evenodd; stroke:#CC0000; stroke-opacity:100%; stroke-width: 3pt; stroke-linejoin:round; stroke-linecap:round;" d="M72.29 13c0.98 0.98 1.34 2.38 1.34 3.8c0 0.69 0.03 55.95 0.04 75.2c0 3.35 0 5.6 0 6.3"  ></path>




</g><g transform="scale(1.3761467889908 1.3761467889908) translate(218, 109)">
<path style="fill:none; fill-rule:evenodd; stroke:#aaaaaa;  stroke-width:1pt; stroke-linecap:round;" d="m 109 0 L 0 0 L 0 109 L 109 109 L 109 0"></path><path style="fill:none; fill-opacity:0%; fill-rule:evenodd; stroke:#aaaaaa; stroke-opacity:100%; stroke-width: 1.5pt; stroke-linejoin:round; stroke-linecap:round;" d="M31.26 16c0.49 1.38 0.19 2.81-0.48 4.63c-4.28 11.59-9.72 24.31-19.53 38.41"></path>
<path style="fill:none; fill-opacity:0%; fill-rule:evenodd; stroke:#aaaaaa; stroke-opacity:100%; stroke-width: 1.5pt; stroke-linejoin:round; stroke-linecap:round;" d="M24.03 41.5c0.86 0.86 1.26 1.88 1.26 3.73c0 10.01-0.03 32.49-0.04 44.27c0 2.66 0 4.82 0 6.25"></path>
<path style="fill:none; fill-opacity:0%; fill-rule:evenodd; stroke:#aaaaaa; stroke-opacity:100%; stroke-width: 1.5pt; stroke-linejoin:round; stroke-linecap:round;" d="M53.9 17.42c0.96 0.96 1.34 2.08 1.34 3.3c0 54.03 0.89 58.9-13.22 76.02"></path>
<path style="fill:none; fill-opacity:0%; fill-rule:evenodd; stroke:#aaaaaa; stroke-opacity:100%; stroke-width: 1.5pt; stroke-linejoin:round; stroke-linecap:round;" d="M38.55 40.17c1.29 0 2.8 0.28 4.1 0c1.29-0.28 7.47-1.79 9.94-2.29"></path>
<path style="fill:none; fill-opacity:0%; fill-rule:evenodd; stroke:#aaaaaa; stroke-opacity:100%; stroke-width: 1.5pt; stroke-linejoin:round; stroke-linecap:round;" d="M37.83 55.34c1.27 0 2.75 0.26 4.01 0c1.27-0.26 7.56-1.56 10.94-2.33"></path>
<path style="fill:none; fill-opacity:0%; fill-rule:evenodd; stroke:#aaaaaa; stroke-opacity:100%; stroke-width: 1.5pt; stroke-linejoin:round; stroke-linecap:round;" d="M35.73 73.01c1.15 0.87 2.4 0.62 3.59 0c1.14-0.59 8.18-4.25 15.04-7.91"></path>
<path style="fill:none; fill-opacity:0%; fill-rule:evenodd; stroke:#aaaaaa; stroke-opacity:100%; stroke-width: 1.5pt; stroke-linejoin:round; stroke-linecap:round;" d="M72.29 13c0.98 0.98 1.34 2.38 1.34 3.8c0 0.69 0.03 55.95 0.04 75.2c0 3.35 0 5.6 0 6.3"></path>
<path style="fill:none; fill-opacity:0%; fill-rule:evenodd; stroke:#aaaaaa; stroke-opacity:100%; stroke-width: 1.5pt; stroke-linejoin:round; stroke-linecap:round;" d="M75.37 34.21c4.45-0.62 12.72-1.56 16.77-2.24c1.44-0.24 2.48-0.39 3.92-0.39"></path>
<path style="fill:none; fill-opacity:0%; fill-rule:evenodd; stroke:#aaaaaa; stroke-opacity:100%; stroke-width: 1.5pt; stroke-linejoin:round; stroke-linecap:round;" d="M75.47 51.66c3.55-0.3 9.37-1.13 13.18-1.73c1.56-0.25 2.97-0.43 4.22-0.19"></path>
<path style="fill:none; fill-opacity:0%; fill-rule:evenodd; stroke:#aaaaaa; stroke-opacity:100%; stroke-width: 1.5pt; stroke-linejoin:round; stroke-linecap:round;" d="M75.11 70.76c3.54-0.3 14.24-1.48 19.3-2.2c1.5-0.21 3.1-0.22 4.61-0.22"></path>

<path style="fill:none; fill-opacity:0%; fill-rule:evenodd; stroke:#000000; stroke-opacity:100%; stroke-width: 3pt; stroke-linejoin:round; stroke-linecap:round;" d="M31.26 16c0.49 1.38 0.19 2.81-0.48 4.63c-4.28 11.59-9.72 24.31-19.53 38.41"></path>
<path style="fill:none; fill-opacity:0%; fill-rule:evenodd; stroke:#000000; stroke-opacity:100%; stroke-width: 3pt; stroke-linejoin:round; stroke-linecap:round;" d="M24.03 41.5c0.86 0.86 1.26 1.88 1.26 3.73c0 10.01-0.03 32.49-0.04 44.27c0 2.66 0 4.82 0 6.25"></path>
<path style="fill:none; fill-opacity:0%; fill-rule:evenodd; stroke:#000000; stroke-opacity:100%; stroke-width: 3pt; stroke-linejoin:round; stroke-linecap:round;" d="M53.9 17.42c0.96 0.96 1.34 2.08 1.34 3.3c0 54.03 0.89 58.9-13.22 76.02"></path>
<path style="fill:none; fill-opacity:0%; fill-rule:evenodd; stroke:#000000; stroke-opacity:100%; stroke-width: 3pt; stroke-linejoin:round; stroke-linecap:round;" d="M38.55 40.17c1.29 0 2.8 0.28 4.1 0c1.29-0.28 7.47-1.79 9.94-2.29"></path>
<path style="fill:none; fill-opacity:0%; fill-rule:evenodd; stroke:#000000; stroke-opacity:100%; stroke-width: 3pt; stroke-linejoin:round; stroke-linecap:round;" d="M37.83 55.34c1.27 0 2.75 0.26 4.01 0c1.27-0.26 7.56-1.56 10.94-2.33"></path>
<path style="fill:none; fill-opacity:0%; fill-rule:evenodd; stroke:#000000; stroke-opacity:100%; stroke-width: 3pt; stroke-linejoin:round; stroke-linecap:round;" d="M35.73 73.01c1.15 0.87 2.4 0.62 3.59 0c1.14-0.59 8.18-4.25 15.04-7.91"></path>
<path style="fill:none; fill-opacity:0%; fill-rule:evenodd; stroke:#000000; stroke-opacity:100%; stroke-width: 3pt; stroke-linejoin:round; stroke-linecap:round;" d="M72.29 13c0.98 0.98 1.34 2.38 1.34 3.8c0 0.69 0.03 55.95 0.04 75.2c0 3.35 0 5.6 0 6.3"></path>
<text x="5" y="20" font-size="20" fill="#999999">8</text><path style="fill:none; fill-opacity:0%; fill-rule:evenodd; stroke:#CC0000; stroke-opacity:100%; stroke-width: 3pt; stroke-linejoin:round; stroke-linecap:round;" d="M75.37 34.21c4.45-0.62 12.72-1.56 16.77-2.24c1.44-0.24 2.48-0.39 3.92-0.39"  ></path>



</g><g transform="scale(1.3761467889908 1.3761467889908) translate(327, 109)">
<path style="fill:none; fill-rule:evenodd; stroke:#aaaaaa;  stroke-width:1pt; stroke-linecap:round;" d="m 109 0 L 0 0 L 0 109 L 109 109 L 109 0"></path><path style="fill:none; fill-opacity:0%; fill-rule:evenodd; stroke:#aaaaaa; stroke-opacity:100%; stroke-width: 1.5pt; stroke-linejoin:round; stroke-linecap:round;" d="M31.26 16c0.49 1.38 0.19 2.81-0.48 4.63c-4.28 11.59-9.72 24.31-19.53 38.41"></path>
<path style="fill:none; fill-opacity:0%; fill-rule:evenodd; stroke:#aaaaaa; stroke-opacity:100%; stroke-width: 1.5pt; stroke-linejoin:round; stroke-linecap:round;" d="M24.03 41.5c0.86 0.86 1.26 1.88 1.26 3.73c0 10.01-0.03 32.49-0.04 44.27c0 2.66 0 4.82 0 6.25"></path>
<path style="fill:none; fill-opacity:0%; fill-rule:evenodd; stroke:#aaaaaa; stroke-opacity:100%; stroke-width: 1.5pt; stroke-linejoin:round; stroke-linecap:round;" d="M53.9 17.42c0.96 0.96 1.34 2.08 1.34 3.3c0 54.03 0.89 58.9-13.22 76.02"></path>
<path style="fill:none; fill-opacity:0%; fill-rule:evenodd; stroke:#aaaaaa; stroke-opacity:100%; stroke-width: 1.5pt; stroke-linejoin:round; stroke-linecap:round;" d="M38.55 40.17c1.29 0 2.8 0.28 4.1 0c1.29-0.28 7.47-1.79 9.94-2.29"></path>
<path style="fill:none; fill-opacity:0%; fill-rule:evenodd; stroke:#aaaaaa; stroke-opacity:100%; stroke-width: 1.5pt; stroke-linejoin:round; stroke-linecap:round;" d="M37.83 55.34c1.27 0 2.75 0.26 4.01 0c1.27-0.26 7.56-1.56 10.94-2.33"></path>
<path style="fill:none; fill-opacity:0%; fill-rule:evenodd; stroke:#aaaaaa; stroke-opacity:100%; stroke-width: 1.5pt; stroke-linejoin:round; stroke-linecap:round;" d="M35.73 73.01c1.15 0.87 2.4 0.62 3.59 0c1.14-0.59 8.18-4.25 15.04-7.91"></path>
<path style="fill:none; fill-opacity:0%; fill-rule:evenodd; stroke:#aaaaaa; stroke-opacity:100%; stroke-width: 1.5pt; stroke-linejoin:round; stroke-linecap:round;" d="M72.29 13c0.98 0.98 1.34 2.38 1.34 3.8c0 0.69 0.03 55.95 0.04 75.2c0 3.35 0 5.6 0 6.3"></path>
<path style="fill:none; fill-opacity:0%; fill-rule:evenodd; stroke:#aaaaaa; stroke-opacity:100%; stroke-width: 1.5pt; stroke-linejoin:round; stroke-linecap:round;" d="M75.37 34.21c4.45-0.62 12.72-1.56 16.77-2.24c1.44-0.24 2.48-0.39 3.92-0.39"></path>
<path style="fill:none; fill-opacity:0%; fill-rule:evenodd; stroke:#aaaaaa; stroke-opacity:100%; stroke-width: 1.5pt; stroke-linejoin:round; stroke-linecap:round;" d="M75.47 51.66c3.55-0.3 9.37-1.13 13.18-1.73c1.56-0.25 2.97-0.43 4.22-0.19"></path>
<path style="fill:none; fill-opacity:0%; fill-rule:evenodd; stroke:#aaaaaa; stroke-opacity:100%; stroke-width: 1.5pt; stroke-linejoin:round; stroke-linecap:round;" d="M75.11 70.76c3.54-0.3 14.24-1.48 19.3-2.2c1.5-0.21 3.1-0.22 4.61-0.22"></path>

<path style="fill:none; fill-opacity:0%; fill-rule:evenodd; stroke:#000000; stroke-opacity:100%; stroke-width: 3pt; stroke-linejoin:round; stroke-linecap:round;" d="M31.26 16c0.49 1.38 0.19 2.81-0.48 4.63c-4.28 11.59-9.72 24.31-19.53 38.41"></path>
<path style="fill:none; fill-opacity:0%; fill-rule:evenodd; stroke:#000000; stroke-opacity:100%; stroke-width: 3pt; stroke-linejoin:round; stroke-linecap:round;" d="M24.03 41.5c0.86 0.86 1.26 1.88 1.26 3.73c0 10.01-0.03 32.49-0.04 44.27c0 2.66 0 4.82 0 6.25"></path>
<path style="fill:none; fill-opacity:0%; fill-rule:evenodd; stroke:#000000; stroke-opacity:100%; stroke-width: 3pt; stroke-linejoin:round; stroke-linecap:round;" d="M53.9 17.42c0.96 0.96 1.34 2.08 1.34 3.3c0 54.03 0.89 58.9-13.22 76.02"></path>
<path style="fill:none; fill-opacity:0%; fill-rule:evenodd; stroke:#000000; stroke-opacity:100%; stroke-width: 3pt; stroke-linejoin:round; stroke-linecap:round;" d="M38.55 40.17c1.29 0 2.8 0.28 4.1 0c1.29-0.28 7.47-1.79 9.94-2.29"></path>
<path style="fill:none; fill-opacity:0%; fill-rule:evenodd; stroke:#000000; stroke-opacity:100%; stroke-width: 3pt; stroke-linejoin:round; stroke-linecap:round;" d="M37.83 55.34c1.27 0 2.75 0.26 4.01 0c1.27-0.26 7.56-1.56 10.94-2.33"></path>
<path style="fill:none; fill-opacity:0%; fill-rule:evenodd; stroke:#000000; stroke-opacity:100%; stroke-width: 3pt; stroke-linejoin:round; stroke-linecap:round;" d="M35.73 73.01c1.15 0.87 2.4 0.62 3.59 0c1.14-0.59 8.18-4.25 15.04-7.91"></path>
<path style="fill:none; fill-opacity:0%; fill-rule:evenodd; stroke:#000000; stroke-opacity:100%; stroke-width: 3pt; stroke-linejoin:round; stroke-linecap:round;" d="M72.29 13c0.98 0.98 1.34 2.38 1.34 3.8c0 0.69 0.03 55.95 0.04 75.2c0 3.35 0 5.6 0 6.3"></path>
<path style="fill:none; fill-opacity:0%; fill-rule:evenodd; stroke:#000000; stroke-opacity:100%; stroke-width: 3pt; stroke-linejoin:round; stroke-linecap:round;" d="M75.37 34.21c4.45-0.62 12.72-1.56 16.77-2.24c1.44-0.24 2.48-0.39 3.92-0.39"></path>
<text x="5" y="20" font-size="20" fill="#999999">9</text><path style="fill:none; fill-opacity:0%; fill-rule:evenodd; stroke:#CC0000; stroke-opacity:100%; stroke-width: 3pt; stroke-linejoin:round; stroke-linecap:round;" d="M75.47 51.66c3.55-0.3 9.37-1.13 13.18-1.73c1.56-0.25 2.97-0.43 4.22-0.19"  ></path>


</g><g transform="scale(1.3761467889908 1.3761467889908) translate(436, 109)">
<path style="fill:none; fill-rule:evenodd; stroke:#aaaaaa;  stroke-width:1pt; stroke-linecap:round;" d="m 109 0 L 0 0 L 0 109 L 109 109 L 109 0"></path><path style="fill:none; fill-opacity:0%; fill-rule:evenodd; stroke:#aaaaaa; stroke-opacity:100%; stroke-width: 1.5pt; stroke-linejoin:round; stroke-linecap:round;" d="M31.26 16c0.49 1.38 0.19 2.81-0.48 4.63c-4.28 11.59-9.72 24.31-19.53 38.41"></path>
<path style="fill:none; fill-opacity:0%; fill-rule:evenodd; stroke:#aaaaaa; stroke-opacity:100%; stroke-width: 1.5pt; stroke-linejoin:round; stroke-linecap:round;" d="M24.03 41.5c0.86 0.86 1.26 1.88 1.26 3.73c0 10.01-0.03 32.49-0.04 44.27c0 2.66 0 4.82 0 6.25"></path>
<path style="fill:none; fill-opacity:0%; fill-rule:evenodd; stroke:#aaaaaa; stroke-opacity:100%; stroke-width: 1.5pt; stroke-linejoin:round; stroke-linecap:round;" d="M53.9 17.42c0.96 0.96 1.34 2.08 1.34 3.3c0 54.03 0.89 58.9-13.22 76.02"></path>
<path style="fill:none; fill-opacity:0%; fill-rule:evenodd; stroke:#aaaaaa; stroke-opacity:100%; stroke-width: 1.5pt; stroke-linejoin:round; stroke-linecap:round;" d="M38.55 40.17c1.29 0 2.8 0.28 4.1 0c1.29-0.28 7.47-1.79 9.94-2.29"></path>
<path style="fill:none; fill-opacity:0%; fill-rule:evenodd; stroke:#aaaaaa; stroke-opacity:100%; stroke-width: 1.5pt; stroke-linejoin:round; stroke-linecap:round;" d="M37.83 55.34c1.27 0 2.75 0.26 4.01 0c1.27-0.26 7.56-1.56 10.94-2.33"></path>
<path style="fill:none; fill-opacity:0%; fill-rule:evenodd; stroke:#aaaaaa; stroke-opacity:100%; stroke-width: 1.5pt; stroke-linejoin:round; stroke-linecap:round;" d="M35.73 73.01c1.15 0.87 2.4 0.62 3.59 0c1.14-0.59 8.18-4.25 15.04-7.91"></path>
<path style="fill:none; fill-opacity:0%; fill-rule:evenodd; stroke:#aaaaaa; stroke-opacity:100%; stroke-width: 1.5pt; stroke-linejoin:round; stroke-linecap:round;" d="M72.29 13c0.98 0.98 1.34 2.38 1.34 3.8c0 0.69 0.03 55.95 0.04 75.2c0 3.35 0 5.6 0 6.3"></path>
<path style="fill:none; fill-opacity:0%; fill-rule:evenodd; stroke:#aaaaaa; stroke-opacity:100%; stroke-width: 1.5pt; stroke-linejoin:round; stroke-linecap:round;" d="M75.37 34.21c4.45-0.62 12.72-1.56 16.77-2.24c1.44-0.24 2.48-0.39 3.92-0.39"></path>
<path style="fill:none; fill-opacity:0%; fill-rule:evenodd; stroke:#aaaaaa; stroke-opacity:100%; stroke-width: 1.5pt; stroke-linejoin:round; stroke-linecap:round;" d="M75.47 51.66c3.55-0.3 9.37-1.13 13.18-1.73c1.56-0.25 2.97-0.43 4.22-0.19"></path>
<path style="fill:none; fill-opacity:0%; fill-rule:evenodd; stroke:#aaaaaa; stroke-opacity:100%; stroke-width: 1.5pt; stroke-linejoin:round; stroke-linecap:round;" d="M75.11 70.76c3.54-0.3 14.24-1.48 19.3-2.2c1.5-0.21 3.1-0.22 4.61-0.22"></path>

<path style="fill:none; fill-opacity:0%; fill-rule:evenodd; stroke:#000000; stroke-opacity:100%; stroke-width: 3pt; stroke-linejoin:round; stroke-linecap:round;" d="M31.26 16c0.49 1.38 0.19 2.81-0.48 4.63c-4.28 11.59-9.72 24.31-19.53 38.41"></path>
<path style="fill:none; fill-opacity:0%; fill-rule:evenodd; stroke:#000000; stroke-opacity:100%; stroke-width: 3pt; stroke-linejoin:round; stroke-linecap:round;" d="M24.03 41.5c0.86 0.86 1.26 1.88 1.26 3.73c0 10.01-0.03 32.49-0.04 44.27c0 2.66 0 4.82 0 6.25"></path>
<path style="fill:none; fill-opacity:0%; fill-rule:evenodd; stroke:#000000; stroke-opacity:100%; stroke-width: 3pt; stroke-linejoin:round; stroke-linecap:round;" d="M53.9 17.42c0.96 0.96 1.34 2.08 1.34 3.3c0 54.03 0.89 58.9-13.22 76.02"></path>
<path style="fill:none; fill-opacity:0%; fill-rule:evenodd; stroke:#000000; stroke-opacity:100%; stroke-width: 3pt; stroke-linejoin:round; stroke-linecap:round;" d="M38.55 40.17c1.29 0 2.8 0.28 4.1 0c1.29-0.28 7.47-1.79 9.94-2.29"></path>
<path style="fill:none; fill-opacity:0%; fill-rule:evenodd; stroke:#000000; stroke-opacity:100%; stroke-width: 3pt; stroke-linejoin:round; stroke-linecap:round;" d="M37.83 55.34c1.27 0 2.75 0.26 4.01 0c1.27-0.26 7.56-1.56 10.94-2.33"></path>
<path style="fill:none; fill-opacity:0%; fill-rule:evenodd; stroke:#000000; stroke-opacity:100%; stroke-width: 3pt; stroke-linejoin:round; stroke-linecap:round;" d="M35.73 73.01c1.15 0.87 2.4 0.62 3.59 0c1.14-0.59 8.18-4.25 15.04-7.91"></path>
<path style="fill:none; fill-opacity:0%; fill-rule:evenodd; stroke:#000000; stroke-opacity:100%; stroke-width: 3pt; stroke-linejoin:round; stroke-linecap:round;" d="M72.29 13c0.98 0.98 1.34 2.38 1.34 3.8c0 0.69 0.03 55.95 0.04 75.2c0 3.35 0 5.6 0 6.3"></path>
<path style="fill:none; fill-opacity:0%; fill-rule:evenodd; stroke:#000000; stroke-opacity:100%; stroke-width: 3pt; stroke-linejoin:round; stroke-linecap:round;" d="M75.37 34.21c4.45-0.62 12.72-1.56 16.77-2.24c1.44-0.24 2.48-0.39 3.92-0.39"></path>
<path style="fill:none; fill-opacity:0%; fill-rule:evenodd; stroke:#000000; stroke-opacity:100%; stroke-width: 3pt; stroke-linejoin:round; stroke-linecap:round;" d="M75.47 51.66c3.55-0.3 9.37-1.13 13.18-1.73c1.56-0.25 2.97-0.43 4.22-0.19"></path>
<text x="5" y="20" font-size="20" fill="#999999">10</text><path style="fill:none; fill-opacity:0%; fill-rule:evenodd; stroke:#CC0000; stroke-opacity:100%; stroke-width: 3pt; stroke-linejoin:round; stroke-linecap:round;" d="M75.11 70.76c3.54-0.3 14.24-1.48 19.3-2.2c1.5-0.21 3.1-0.22 4.61-0.22"  ></path>

</g>

</svg>  
          
