<?xml version="1.0" standalone="no"?>
<!DOCTYPE svg PUBLIC "-//W3C//DTD SVG 1.1//EN"   "http://www.w3.org/Graphics/SVG/1.1/DTD/svg11.dtd">
<svg width="751" height="301"  version="1.1" xmlns="http://www.w3.org/2000/svg">
  <defs>
    <marker id="Triangle" viewBox="0 0 10 10" refX="0" refY="5" markerUnits="strokeWidth" markerWidth="3" style="stroke-opacity:0%;fill:#aaaaaa;" markerHeight="2" orient="auto">
      <path d="M 0 0 L 10 5 L 0 10 z" />
    </marker>
    
    <marker id="Arrow" viewBox="0 0 10 10" refX="5" refY="5" markerUnits="strokeWidth" markerWidth="1.8" style="stroke-opacity:0%;fill:#770000;" markerHeight="2" orient="auto">
      <path d="M 0 4 L 6 4 L 4 1 L 10 5 L 4 9 L 6 6 L 0 6 z" />
        <circle cx="5" cy="5" r="5" />
      </marker>
    
    <marker id="TriangleRed" viewBox="0 0 10 10" refX="0" refY="5" markerUnits="strokeWidth" markerWidth="3" style="stroke-opacity:0%;fill:#CC0000;" markerHeight="2" orient="auto">
      <path d="M 0 0 L 10 5 L 0 10 z" />
    </marker>
    
    <marker id="ArrowRed" viewBox="0 0 10 10" refX="5" refY="5" markerUnits="strokeWidth" markerWidth="1.8" style="stroke-opacity:0%;fill:#CC0000;" markerHeight="2" orient="auto">
      <path d="M 0 4 L 6 4 L 4 1 L 10 5 L 4 9 L 6 6 L 0 6 z" />
        <circle cx="5" cy="5" r="5" />
      </marker>
    
  </defs>
  
  <path style="fill:#ffffff; fill-opacity:100%; fill-rule:evenodd; stroke-width:0;" d="M 0 0 L 751 0 L 751 301 L 0 301 L 0 0" />

  <g transform="scale(1.3761467889908 1.3761467889908) translate(0, 0)">
<path style="fill:none; fill-rule:evenodd; stroke:#aaaaaa;  stroke-width:1pt; stroke-linecap:round;" d="m 109 0 L 0 0 L 0 109 L 109 109 L 109 0"></path><path style="fill:none; fill-opacity:0%; fill-rule:evenodd; stroke:#aaaaaa; stroke-opacity:100%; stroke-width: 1.5pt; stroke-linejoin:round; stroke-linecap:round;" d="M33.5 17.14c0.25 1.23-0.14 2.35-0.61 3.71c-4.83 13.91-9.35 23.2-20.33 37.37"></path>
<path style="fill:none; fill-opacity:0%; fill-rule:evenodd; stroke:#aaaaaa; stroke-opacity:100%; stroke-width: 1.5pt; stroke-linejoin:round; stroke-linecap:round;" d="M26.28 41c0.86 0.86 1.01 2.22 1.01 3.48c0 9.66-0.02 28.75-0.03 41.52c0 4.44-0.01 8.12-0.01 10.37"></path>
<path style="fill:none; fill-opacity:0%; fill-rule:evenodd; stroke:#aaaaaa; stroke-opacity:100%; stroke-width: 1.5pt; stroke-linejoin:round; stroke-linecap:round;" d="M39.24 31.69c3.29 0.68 6.55 0.47 9.88 0.02c9.88-1.34 20.5-2.59 30.5-3.66c3.05-0.33 6.06-0.51 9.1-0.04"></path>
<path style="fill:none; fill-opacity:0%; fill-rule:evenodd; stroke:#aaaaaa; stroke-opacity:100%; stroke-width: 1.5pt; stroke-linejoin:round; stroke-linecap:round;" d="M63.21 13.25c0 1.38-0.24 2.6-0.69 3.86C55.93 35.7 47.82 47.98 33.5 58.88"></path>
<path style="fill:none; fill-opacity:0%; fill-rule:evenodd; stroke:#aaaaaa; stroke-opacity:100%; stroke-width: 1.5pt; stroke-linejoin:round; stroke-linecap:round;" d="M64.36 29.67c6.55 5.51 21.83 19.54 28.37 23.23c2.23 1.25 3 1.44 4.01 1.56"></path>
<path style="fill:none; fill-opacity:0%; fill-rule:evenodd; stroke:#aaaaaa; stroke-opacity:100%; stroke-width: 1.5pt; stroke-linejoin:round; stroke-linecap:round;" d="M43.94 53.89c0.84 0.84 1.16 1.81 1.28 2.52c0.65 3.72 2.4 14.84 3.24 20.82"></path>
<path style="fill:none; fill-opacity:0%; fill-rule:evenodd; stroke:#aaaaaa; stroke-opacity:100%; stroke-width: 1.5pt; stroke-linejoin:round; stroke-linecap:round;" d="M45.81 55.01c9.58-1.54 21.98-3.17 30.59-4.3c2.61-0.34 4.84 1.23 4.45 4.04c-0.76 5.44-1.72 11.17-2.91 18.65"></path>
<path style="fill:none; fill-opacity:0%; fill-rule:evenodd; stroke:#aaaaaa; stroke-opacity:100%; stroke-width: 1.5pt; stroke-linejoin:round; stroke-linecap:round;" d="M47.85 64.58c8.02-1.08 24.27-2.95 31.62-3.7"></path>
<path style="fill:none; fill-opacity:0%; fill-rule:evenodd; stroke:#aaaaaa; stroke-opacity:100%; stroke-width: 1.5pt; stroke-linejoin:round; stroke-linecap:round;" d="M49.21 74.72c8.54-0.97 20.29-2.09 27.93-2.84"></path>
<path style="fill:none; fill-opacity:0%; fill-rule:evenodd; stroke:#aaaaaa; stroke-opacity:100%; stroke-width: 1.5pt; stroke-linejoin:round; stroke-linecap:round;" d="M61.17 42.09c0.93 0.93 1.11 2.15 1.11 3.85c0 10.56 0.08 35.12 0.08 40.27c0 7.91 2.1 9.09 15.41 9.07c14.49-0.03 15.97-1.88 15.97-10.3"></path>

<text x="5" y="20" font-size="20" fill="#999999">1</text><path style="fill:none; fill-opacity:0%; fill-rule:evenodd; stroke:#CC0000; stroke-opacity:100%; stroke-width: 3pt; stroke-linejoin:round; stroke-linecap:round;" d="M33.5 17.14c0.25 1.23-0.14 2.35-0.61 3.71c-4.83 13.91-9.35 23.2-20.33 37.37" marker-end="url(#TriangleRed)" marker-start="url(#ArrowRed)" ></path>










</g><g transform="scale(1.3761467889908 1.3761467889908) translate(109, 0)">
<path style="fill:none; fill-rule:evenodd; stroke:#aaaaaa;  stroke-width:1pt; stroke-linecap:round;" d="m 109 0 L 0 0 L 0 109 L 109 109 L 109 0"></path><path style="fill:none; fill-opacity:0%; fill-rule:evenodd; stroke:#aaaaaa; stroke-opacity:100%; stroke-width: 1.5pt; stroke-linejoin:round; stroke-linecap:round;" d="M33.5 17.14c0.25 1.23-0.14 2.35-0.61 3.71c-4.83 13.91-9.35 23.2-20.33 37.37"></path>
<path style="fill:none; fill-opacity:0%; fill-rule:evenodd; stroke:#aaaaaa; stroke-opacity:100%; stroke-width: 1.5pt; stroke-linejoin:round; stroke-linecap:round;" d="M26.28 41c0.86 0.86 1.01 2.22 1.01 3.48c0 9.66-0.02 28.75-0.03 41.52c0 4.44-0.01 8.12-0.01 10.37"></path>
<path style="fill:none; fill-opacity:0%; fill-rule:evenodd; stroke:#aaaaaa; stroke-opacity:100%; stroke-width: 1.5pt; stroke-linejoin:round; stroke-linecap:round;" d="M39.24 31.69c3.29 0.68 6.55 0.47 9.88 0.02c9.88-1.34 20.5-2.59 30.5-3.66c3.05-0.33 6.06-0.51 9.1-0.04"></path>
<path style="fill:none; fill-opacity:0%; fill-rule:evenodd; stroke:#aaaaaa; stroke-opacity:100%; stroke-width: 1.5pt; stroke-linejoin:round; stroke-linecap:round;" d="M63.21 13.25c0 1.38-0.24 2.6-0.69 3.86C55.93 35.7 47.82 47.98 33.5 58.88"></path>
<path style="fill:none; fill-opacity:0%; fill-rule:evenodd; stroke:#aaaaaa; stroke-opacity:100%; stroke-width: 1.5pt; stroke-linejoin:round; stroke-linecap:round;" d="M64.36 29.67c6.55 5.51 21.83 19.54 28.37 23.23c2.23 1.25 3 1.44 4.01 1.56"></path>
<path style="fill:none; fill-opacity:0%; fill-rule:evenodd; stroke:#aaaaaa; stroke-opacity:100%; stroke-width: 1.5pt; stroke-linejoin:round; stroke-linecap:round;" d="M43.94 53.89c0.84 0.84 1.16 1.81 1.28 2.52c0.65 3.72 2.4 14.84 3.24 20.82"></path>
<path style="fill:none; fill-opacity:0%; fill-rule:evenodd; stroke:#aaaaaa; stroke-opacity:100%; stroke-width: 1.5pt; stroke-linejoin:round; stroke-linecap:round;" d="M45.81 55.01c9.58-1.54 21.98-3.17 30.59-4.3c2.61-0.34 4.84 1.23 4.45 4.04c-0.76 5.44-1.72 11.17-2.91 18.65"></path>
<path style="fill:none; fill-opacity:0%; fill-rule:evenodd; stroke:#aaaaaa; stroke-opacity:100%; stroke-width: 1.5pt; stroke-linejoin:round; stroke-linecap:round;" d="M47.85 64.58c8.02-1.08 24.27-2.95 31.62-3.7"></path>
<path style="fill:none; fill-opacity:0%; fill-rule:evenodd; stroke:#aaaaaa; stroke-opacity:100%; stroke-width: 1.5pt; stroke-linejoin:round; stroke-linecap:round;" d="M49.21 74.72c8.54-0.97 20.29-2.09 27.93-2.84"></path>
<path style="fill:none; fill-opacity:0%; fill-rule:evenodd; stroke:#aaaaaa; stroke-opacity:100%; stroke-width: 1.5pt; stroke-linejoin:round; stroke-linecap:round;" d="M61.17 42.09c0.93 0.93 1.11 2.15 1.11 3.85c0 10.56 0.08 35.12 0.08 40.27c0 7.91 2.1 9.09 15.41 9.07c14.49-0.03 15.97-1.88 15.97-10.3"></path>

<path style="fill:none; fill-opacity:0%; fill-rule:evenodd; stroke:#000000; stroke-opacity:100%; stroke-width: 3pt; stroke-linejoin:round; stroke-linecap:round;" d="M33.5 17.14c0.25 1.23-0.14 2.35-0.61 3.71c-4.83 13.91-9.35 23.2-20.33 37.37"></path>
<text x="5" y="20" font-size="20" fill="#999999">2</text><path style="fill:none; fill-opacity:0%; fill-rule:evenodd; stroke:#CC0000; stroke-opacity:100%; stroke-width: 3pt; stroke-linejoin:round; stroke-linecap:round;" d="M26.28 41c0.86 0.86 1.01 2.22 1.01 3.48c0 9.66-0.02 28.75-0.03 41.52c0 4.44-0.01 8.12-0.01 10.37" marker-end="url(#TriangleRed)" marker-start="url(#ArrowRed)" ></path>









</g><g transform="scale(1.3761467889908 1.3761467889908) translate(218, 0)">
<path style="fill:none; fill-rule:evenodd; stroke:#aaaaaa;  stroke-width:1pt; stroke-linecap:round;" d="m 109 0 L 0 0 L 0 109 L 109 109 L 109 0"></path><path style="fill:none; fill-opacity:0%; fill-rule:evenodd; stroke:#aaaaaa; stroke-opacity:100%; stroke-width: 1.5pt; stroke-linejoin:round; stroke-linecap:round;" d="M33.5 17.14c0.25 1.23-0.14 2.35-0.61 3.71c-4.83 13.91-9.35 23.2-20.33 37.37"></path>
<path style="fill:none; fill-opacity:0%; fill-rule:evenodd; stroke:#aaaaaa; stroke-opacity:100%; stroke-width: 1.5pt; stroke-linejoin:round; stroke-linecap:round;" d="M26.28 41c0.86 0.86 1.01 2.22 1.01 3.48c0 9.66-0.02 28.75-0.03 41.52c0 4.44-0.01 8.12-0.01 10.37"></path>
<path style="fill:none; fill-opacity:0%; fill-rule:evenodd; stroke:#aaaaaa; stroke-opacity:100%; stroke-width: 1.5pt; stroke-linejoin:round; stroke-linecap:round;" d="M39.24 31.69c3.29 0.68 6.55 0.47 9.88 0.02c9.88-1.34 20.5-2.59 30.5-3.66c3.05-0.33 6.06-0.51 9.1-0.04"></path>
<path style="fill:none; fill-opacity:0%; fill-rule:evenodd; stroke:#aaaaaa; stroke-opacity:100%; stroke-width: 1.5pt; stroke-linejoin:round; stroke-linecap:round;" d="M63.21 13.25c0 1.38-0.24 2.6-0.69 3.86C55.93 35.7 47.82 47.98 33.5 58.88"></path>
<path style="fill:none; fill-opacity:0%; fill-rule:evenodd; stroke:#aaaaaa; stroke-opacity:100%; stroke-width: 1.5pt; stroke-linejoin:round; stroke-linecap:round;" d="M64.36 29.67c6.55 5.51 21.83 19.54 28.37 23.23c2.23 1.25 3 1.44 4.01 1.56"></path>
<path style="fill:none; fill-opacity:0%; fill-rule:evenodd; stroke:#aaaaaa; stroke-opacity:100%; stroke-width: 1.5pt; stroke-linejoin:round; stroke-linecap:round;" d="M43.94 53.89c0.84 0.84 1.16 1.81 1.28 2.52c0.65 3.72 2.4 14.84 3.24 20.82"></path>
<path style="fill:none; fill-opacity:0%; fill-rule:evenodd; stroke:#aaaaaa; stroke-opacity:100%; stroke-width: 1.5pt; stroke-linejoin:round; stroke-linecap:round;" d="M45.81 55.01c9.58-1.54 21.98-3.17 30.59-4.3c2.61-0.34 4.84 1.23 4.45 4.04c-0.76 5.44-1.72 11.17-2.91 18.65"></path>
<path style="fill:none; fill-opacity:0%; fill-rule:evenodd; stroke:#aaaaaa; stroke-opacity:100%; stroke-width: 1.5pt; stroke-linejoin:round; stroke-linecap:round;" d="M47.85 64.58c8.02-1.08 24.27-2.95 31.62-3.7"></path>
<path style="fill:none; fill-opacity:0%; fill-rule:evenodd; stroke:#aaaaaa; stroke-opacity:100%; stroke-width: 1.5pt; stroke-linejoin:round; stroke-linecap:round;" d="M49.21 74.72c8.54-0.97 20.29-2.09 27.93-2.84"></path>
<path style="fill:none; fill-opacity:0%; fill-rule:evenodd; stroke:#aaaaaa; stroke-opacity:100%; stroke-width: 1.5pt; stroke-linejoin:round; stroke-linecap:round;" d="M61.17 42.09c0.93 0.93 1.11 2.15 1.11 3.85c0 10.56 0.08 35.12 0.08 40.27c0 7.91 2.1 9.09 15.41 9.07c14.49-0.03 15.97-1.88 15.97-10.3"></path>

<path style="fill:none; fill-opacity:0%; fill-rule:evenodd; stroke:#000000; stroke-opacity:100%; stroke-width: 3pt; stroke-linejoin:round; stroke-linecap:round;" d="M33.5 17.14c0.25 1.23-0.14 2.35-0.61 3.71c-4.83 13.91-9.35 23.2-20.33 37.37"></path>
<path style="fill:none; fill-opacity:0%; fill-rule:evenodd; stroke:#000000; stroke-opacity:100%; stroke-width: 3pt; stroke-linejoin:round; stroke-linecap:round;" d="M26.28 41c0.86 0.86 1.01 2.22 1.01 3.48c0 9.66-0.02 28.75-0.03 41.52c0 4.44-0.01 8.12-0.01 10.37"></path>
<text x="5" y="20" font-size="20" fill="#999999">3</text><path style="fill:none; fill-opacity:0%; fill-rule:evenodd; stroke:#CC0000; stroke-opacity:100%; stroke-width: 3pt; stroke-linejoin:round; stroke-linecap:round;" d="M39.24 31.69c3.29 0.68 6.55 0.47 9.88 0.02c9.88-1.34 20.5-2.59 30.5-3.66c3.05-0.33 6.06-0.51 9.1-0.04" marker-end="url(#TriangleRed)" marker-start="url(#ArrowRed)" ></path>








</g><g transform="scale(1.3761467889908 1.3761467889908) translate(327, 0)">
<path style="fill:none; fill-rule:evenodd; stroke:#aaaaaa;  stroke-width:1pt; stroke-linecap:round;" d="m 109 0 L 0 0 L 0 109 L 109 109 L 109 0"></path><path style="fill:none; fill-opacity:0%; fill-rule:evenodd; stroke:#aaaaaa; stroke-opacity:100%; stroke-width: 1.5pt; stroke-linejoin:round; stroke-linecap:round;" d="M33.5 17.14c0.25 1.23-0.14 2.35-0.61 3.71c-4.83 13.91-9.35 23.2-20.33 37.37"></path>
<path style="fill:none; fill-opacity:0%; fill-rule:evenodd; stroke:#aaaaaa; stroke-opacity:100%; stroke-width: 1.5pt; stroke-linejoin:round; stroke-linecap:round;" d="M26.28 41c0.86 0.86 1.01 2.22 1.01 3.48c0 9.66-0.02 28.75-0.03 41.52c0 4.44-0.01 8.12-0.01 10.37"></path>
<path style="fill:none; fill-opacity:0%; fill-rule:evenodd; stroke:#aaaaaa; stroke-opacity:100%; stroke-width: 1.5pt; stroke-linejoin:round; stroke-linecap:round;" d="M39.24 31.69c3.29 0.68 6.55 0.47 9.88 0.02c9.88-1.34 20.5-2.59 30.5-3.66c3.05-0.33 6.06-0.51 9.1-0.04"></path>
<path style="fill:none; fill-opacity:0%; fill-rule:evenodd; stroke:#aaaaaa; stroke-opacity:100%; stroke-width: 1.5pt; stroke-linejoin:round; stroke-linecap:round;" d="M63.21 13.25c0 1.38-0.24 2.6-0.69 3.86C55.93 35.7 47.82 47.98 33.5 58.88"></path>
<path style="fill:none; fill-opacity:0%; fill-rule:evenodd; stroke:#aaaaaa; stroke-opacity:100%; stroke-width: 1.5pt; stroke-linejoin:round; stroke-linecap:round;" d="M64.36 29.67c6.55 5.51 21.83 19.54 28.37 23.23c2.23 1.25 3 1.44 4.01 1.56"></path>
<path style="fill:none; fill-opacity:0%; fill-rule:evenodd; stroke:#aaaaaa; stroke-opacity:100%; stroke-width: 1.5pt; stroke-linejoin:round; stroke-linecap:round;" d="M43.94 53.89c0.84 0.84 1.16 1.81 1.28 2.52c0.65 3.72 2.4 14.84 3.24 20.82"></path>
<path style="fill:none; fill-opacity:0%; fill-rule:evenodd; stroke:#aaaaaa; stroke-opacity:100%; stroke-width: 1.5pt; stroke-linejoin:round; stroke-linecap:round;" d="M45.81 55.01c9.58-1.54 21.98-3.17 30.59-4.3c2.61-0.34 4.84 1.23 4.45 4.04c-0.76 5.44-1.72 11.17-2.91 18.65"></path>
<path style="fill:none; fill-opacity:0%; fill-rule:evenodd; stroke:#aaaaaa; stroke-opacity:100%; stroke-width: 1.5pt; stroke-linejoin:round; stroke-linecap:round;" d="M47.85 64.58c8.02-1.08 24.27-2.95 31.62-3.7"></path>
<path style="fill:none; fill-opacity:0%; fill-rule:evenodd; stroke:#aaaaaa; stroke-opacity:100%; stroke-width: 1.5pt; stroke-linejoin:round; stroke-linecap:round;" d="M49.21 74.72c8.54-0.97 20.29-2.09 27.93-2.84"></path>
<path style="fill:none; fill-opacity:0%; fill-rule:evenodd; stroke:#aaaaaa; stroke-opacity:100%; stroke-width: 1.5pt; stroke-linejoin:round; stroke-linecap:round;" d="M61.17 42.09c0.93 0.93 1.11 2.15 1.11 3.85c0 10.56 0.08 35.12 0.08 40.27c0 7.91 2.1 9.09 15.41 9.07c14.49-0.03 15.97-1.88 15.97-10.3"></path>

<path style="fill:none; fill-opacity:0%; fill-rule:evenodd; stroke:#000000; stroke-opacity:100%; stroke-width: 3pt; stroke-linejoin:round; stroke-linecap:round;" d="M33.5 17.14c0.25 1.23-0.14 2.35-0.61 3.71c-4.83 13.91-9.35 23.2-20.33 37.37"></path>
<path style="fill:none; fill-opacity:0%; fill-rule:evenodd; stroke:#000000; stroke-opacity:100%; stroke-width: 3pt; stroke-linejoin:round; stroke-linecap:round;" d="M26.28 41c0.86 0.86 1.01 2.22 1.01 3.48c0 9.66-0.02 28.75-0.03 41.52c0 4.44-0.01 8.12-0.01 10.37"></path>
<path style="fill:none; fill-opacity:0%; fill-rule:evenodd; stroke:#000000; stroke-opacity:100%; stroke-width: 3pt; stroke-linejoin:round; stroke-linecap:round;" d="M39.24 31.69c3.29 0.68 6.55 0.47 9.88 0.02c9.88-1.34 20.5-2.59 30.5-3.66c3.05-0.33 6.06-0.51 9.1-0.04"></path>
<text x="5" y="20" font-size="20" fill="#999999">4</text><path style="fill:none; fill-opacity:0%; fill-rule:evenodd; stroke:#CC0000; stroke-opacity:100%; stroke-width: 3pt; stroke-linejoin:round; stroke-linecap:round;" d="M63.21 13.25c0 1.38-0.24 2.6-0.69 3.86C55.93 35.7 47.82 47.98 33.5 58.88" marker-end="url(#TriangleRed)" marker-start="url(#ArrowRed)" ></path>







</g><g transform="scale(1.3761467889908 1.3761467889908) translate(436, 0)">
<path style="fill:none; fill-rule:evenodd; stroke:#aaaaaa;  stroke-width:1pt; stroke-linecap:round;" d="m 109 0 L 0 0 L 0 109 L 109 109 L 109 0"></path><path style="fill:none; fill-opacity:0%; fill-rule:evenodd; stroke:#aaaaaa; stroke-opacity:100%; stroke-width: 1.5pt; stroke-linejoin:round; stroke-linecap:round;" d="M33.5 17.14c0.25 1.23-0.14 2.35-0.61 3.71c-4.83 13.91-9.35 23.2-20.33 37.37"></path>
<path style="fill:none; fill-opacity:0%; fill-rule:evenodd; stroke:#aaaaaa; stroke-opacity:100%; stroke-width: 1.5pt; stroke-linejoin:round; stroke-linecap:round;" d="M26.28 41c0.86 0.86 1.01 2.22 1.01 3.48c0 9.66-0.02 28.75-0.03 41.52c0 4.44-0.01 8.12-0.01 10.37"></path>
<path style="fill:none; fill-opacity:0%; fill-rule:evenodd; stroke:#aaaaaa; stroke-opacity:100%; stroke-width: 1.5pt; stroke-linejoin:round; stroke-linecap:round;" d="M39.24 31.69c3.29 0.68 6.55 0.47 9.88 0.02c9.88-1.34 20.5-2.59 30.5-3.66c3.05-0.33 6.06-0.51 9.1-0.04"></path>
<path style="fill:none; fill-opacity:0%; fill-rule:evenodd; stroke:#aaaaaa; stroke-opacity:100%; stroke-width: 1.5pt; stroke-linejoin:round; stroke-linecap:round;" d="M63.21 13.25c0 1.38-0.24 2.6-0.69 3.86C55.93 35.7 47.82 47.98 33.5 58.88"></path>
<path style="fill:none; fill-opacity:0%; fill-rule:evenodd; stroke:#aaaaaa; stroke-opacity:100%; stroke-width: 1.5pt; stroke-linejoin:round; stroke-linecap:round;" d="M64.36 29.67c6.55 5.51 21.83 19.54 28.37 23.23c2.23 1.25 3 1.44 4.01 1.56"></path>
<path style="fill:none; fill-opacity:0%; fill-rule:evenodd; stroke:#aaaaaa; stroke-opacity:100%; stroke-width: 1.5pt; stroke-linejoin:round; stroke-linecap:round;" d="M43.94 53.89c0.84 0.84 1.16 1.81 1.28 2.52c0.65 3.72 2.4 14.84 3.24 20.82"></path>
<path style="fill:none; fill-opacity:0%; fill-rule:evenodd; stroke:#aaaaaa; stroke-opacity:100%; stroke-width: 1.5pt; stroke-linejoin:round; stroke-linecap:round;" d="M45.81 55.01c9.58-1.54 21.98-3.17 30.59-4.3c2.61-0.34 4.84 1.23 4.45 4.04c-0.76 5.44-1.72 11.17-2.91 18.65"></path>
<path style="fill:none; fill-opacity:0%; fill-rule:evenodd; stroke:#aaaaaa; stroke-opacity:100%; stroke-width: 1.5pt; stroke-linejoin:round; stroke-linecap:round;" d="M47.85 64.58c8.02-1.08 24.27-2.95 31.62-3.7"></path>
<path style="fill:none; fill-opacity:0%; fill-rule:evenodd; stroke:#aaaaaa; stroke-opacity:100%; stroke-width: 1.5pt; stroke-linejoin:round; stroke-linecap:round;" d="M49.21 74.72c8.54-0.97 20.29-2.09 27.93-2.84"></path>
<path style="fill:none; fill-opacity:0%; fill-rule:evenodd; stroke:#aaaaaa; stroke-opacity:100%; stroke-width: 1.5pt; stroke-linejoin:round; stroke-linecap:round;" d="M61.17 42.09c0.93 0.93 1.11 2.15 1.11 3.85c0 10.56 0.08 35.12 0.08 40.27c0 7.91 2.1 9.09 15.41 9.07c14.49-0.03 15.97-1.88 15.97-10.3"></path>

<path style="fill:none; fill-opacity:0%; fill-rule:evenodd; stroke:#000000; stroke-opacity:100%; stroke-width: 3pt; stroke-linejoin:round; stroke-linecap:round;" d="M33.5 17.14c0.25 1.23-0.14 2.35-0.61 3.71c-4.83 13.91-9.35 23.2-20.33 37.37"></path>
<path style="fill:none; fill-opacity:0%; fill-rule:evenodd; stroke:#000000; stroke-opacity:100%; stroke-width: 3pt; stroke-linejoin:round; stroke-linecap:round;" d="M26.28 41c0.86 0.86 1.01 2.22 1.01 3.48c0 9.66-0.02 28.75-0.03 41.52c0 4.44-0.01 8.12-0.01 10.37"></path>
<path style="fill:none; fill-opacity:0%; fill-rule:evenodd; stroke:#000000; stroke-opacity:100%; stroke-width: 3pt; stroke-linejoin:round; stroke-linecap:round;" d="M39.24 31.69c3.29 0.68 6.55 0.47 9.88 0.02c9.88-1.34 20.5-2.59 30.5-3.66c3.05-0.33 6.06-0.51 9.1-0.04"></path>
<path style="fill:none; fill-opacity:0%; fill-rule:evenodd; stroke:#000000; stroke-opacity:100%; stroke-width: 3pt; stroke-linejoin:round; stroke-linecap:round;" d="M63.21 13.25c0 1.38-0.24 2.6-0.69 3.86C55.93 35.7 47.82 47.98 33.5 58.88"></path>
<text x="5" y="20" font-size="20" fill="#999999">5</text><path style="fill:none; fill-opacity:0%; fill-rule:evenodd; stroke:#CC0000; stroke-opacity:100%; stroke-width: 3pt; stroke-linejoin:round; stroke-linecap:round;" d="M64.36 29.67c6.55 5.51 21.83 19.54 28.37 23.23c2.23 1.25 3 1.44 4.01 1.56" marker-end="url(#TriangleRed)" marker-start="url(#ArrowRed)" ></path>






</g><g transform="scale(1.3761467889908 1.3761467889908) translate(0, 109)">
<path style="fill:none; fill-rule:evenodd; stroke:#aaaaaa;  stroke-width:1pt; stroke-linecap:round;" d="m 109 0 L 0 0 L 0 109 L 109 109 L 109 0"></path><path style="fill:none; fill-opacity:0%; fill-rule:evenodd; stroke:#aaaaaa; stroke-opacity:100%; stroke-width: 1.5pt; stroke-linejoin:round; stroke-linecap:round;" d="M33.5 17.14c0.25 1.23-0.14 2.35-0.61 3.71c-4.83 13.91-9.35 23.2-20.33 37.37"></path>
<path style="fill:none; fill-opacity:0%; fill-rule:evenodd; stroke:#aaaaaa; stroke-opacity:100%; stroke-width: 1.5pt; stroke-linejoin:round; stroke-linecap:round;" d="M26.28 41c0.86 0.86 1.01 2.22 1.01 3.48c0 9.66-0.02 28.75-0.03 41.52c0 4.44-0.01 8.12-0.01 10.37"></path>
<path style="fill:none; fill-opacity:0%; fill-rule:evenodd; stroke:#aaaaaa; stroke-opacity:100%; stroke-width: 1.5pt; stroke-linejoin:round; stroke-linecap:round;" d="M39.24 31.69c3.29 0.68 6.55 0.47 9.88 0.02c9.88-1.34 20.5-2.59 30.5-3.66c3.05-0.33 6.06-0.51 9.1-0.04"></path>
<path style="fill:none; fill-opacity:0%; fill-rule:evenodd; stroke:#aaaaaa; stroke-opacity:100%; stroke-width: 1.5pt; stroke-linejoin:round; stroke-linecap:round;" d="M63.21 13.25c0 1.38-0.24 2.6-0.69 3.86C55.93 35.7 47.82 47.98 33.5 58.88"></path>
<path style="fill:none; fill-opacity:0%; fill-rule:evenodd; stroke:#aaaaaa; stroke-opacity:100%; stroke-width: 1.5pt; stroke-linejoin:round; stroke-linecap:round;" d="M64.36 29.67c6.55 5.51 21.83 19.54 28.37 23.23c2.23 1.25 3 1.44 4.01 1.56"></path>
<path style="fill:none; fill-opacity:0%; fill-rule:evenodd; stroke:#aaaaaa; stroke-opacity:100%; stroke-width: 1.5pt; stroke-linejoin:round; stroke-linecap:round;" d="M43.94 53.89c0.84 0.84 1.16 1.81 1.28 2.52c0.65 3.72 2.4 14.84 3.24 20.82"></path>
<path style="fill:none; fill-opacity:0%; fill-rule:evenodd; stroke:#aaaaaa; stroke-opacity:100%; stroke-width: 1.5pt; stroke-linejoin:round; stroke-linecap:round;" d="M45.81 55.01c9.58-1.54 21.98-3.17 30.59-4.3c2.61-0.34 4.84 1.23 4.45 4.04c-0.76 5.44-1.72 11.17-2.91 18.65"></path>
<path style="fill:none; fill-opacity:0%; fill-rule:evenodd; stroke:#aaaaaa; stroke-opacity:100%; stroke-width: 1.5pt; stroke-linejoin:round; stroke-linecap:round;" d="M47.85 64.58c8.02-1.08 24.27-2.95 31.62-3.7"></path>
<path style="fill:none; fill-opacity:0%; fill-rule:evenodd; stroke:#aaaaaa; stroke-opacity:100%; stroke-width: 1.5pt; stroke-linejoin:round; stroke-linecap:round;" d="M49.21 74.72c8.54-0.97 20.29-2.09 27.93-2.84"></path>
<path style="fill:none; fill-opacity:0%; fill-rule:evenodd; stroke:#aaaaaa; stroke-opacity:100%; stroke-width: 1.5pt; stroke-linejoin:round; stroke-linecap:round;" d="M61.17 42.09c0.93 0.93 1.11 2.15 1.11 3.85c0 10.56 0.08 35.12 0.08 40.27c0 7.91 2.1 9.09 15.41 9.07c14.49-0.03 15.97-1.88 15.97-10.3"></path>

<path style="fill:none; fill-opacity:0%; fill-rule:evenodd; stroke:#000000; stroke-opacity:100%; stroke-width: 3pt; stroke-linejoin:round; stroke-linecap:round;" d="M33.5 17.14c0.25 1.23-0.14 2.35-0.61 3.71c-4.83 13.91-9.35 23.2-20.33 37.37"></path>
<path style="fill:none; fill-opacity:0%; fill-rule:evenodd; stroke:#000000; stroke-opacity:100%; stroke-width: 3pt; stroke-linejoin:round; stroke-linecap:round;" d="M26.28 41c0.86 0.86 1.01 2.22 1.01 3.48c0 9.66-0.02 28.75-0.03 41.52c0 4.44-0.01 8.12-0.01 10.37"></path>
<path style="fill:none; fill-opacity:0%; fill-rule:evenodd; stroke:#000000; stroke-opacity:100%; stroke-width: 3pt; stroke-linejoin:round; stroke-linecap:round;" d="M39.24 31.69c3.29 0.68 6.55 0.47 9.88 0.02c9.88-1.34 20.5-2.59 30.5-3.66c3.05-0.33 6.06-0.51 9.1-0.04"></path>
<path style="fill:none; fill-opacity:0%; fill-rule:evenodd; stroke:#000000; stroke-opacity:100%; stroke-width: 3pt; stroke-linejoin:round; stroke-linecap:round;" d="M63.21 13.25c0 1.38-0.24 2.6-0.69 3.86C55.93 35.7 47.82 47.98 33.5 58.88"></path>
<path style="fill:none; fill-opacity:0%; fill-rule:evenodd; stroke:#000000; stroke-opacity:100%; stroke-width: 3pt; stroke-linejoin:round; stroke-linecap:round;" d="M64.36 29.67c6.55 5.51 21.83 19.54 28.37 23.23c2.23 1.25 3 1.44 4.01 1.56"></path>
<text x="5" y="20" font-size="20" fill="#999999">6</text><path style="fill:none; fill-opacity:0%; fill-rule:evenodd; stroke:#CC0000; stroke-opacity:100%; stroke-width: 3pt; stroke-linejoin:round; stroke-linecap:round;" d="M43.94 53.89c0.84 0.84 1.16 1.81 1.28 2.52c0.65 3.72 2.4 14.84 3.24 20.82" marker-end="url(#TriangleRed)" marker-start="url(#ArrowRed)" ></path>





</g><g transform="scale(1.3761467889908 1.3761467889908) translate(109, 109)">
<path style="fill:none; fill-rule:evenodd; stroke:#aaaaaa;  stroke-width:1pt; stroke-linecap:round;" d="m 109 0 L 0 0 L 0 109 L 109 109 L 109 0"></path><path style="fill:none; fill-opacity:0%; fill-rule:evenodd; stroke:#aaaaaa; stroke-opacity:100%; stroke-width: 1.5pt; stroke-linejoin:round; stroke-linecap:round;" d="M33.5 17.14c0.25 1.23-0.14 2.35-0.61 3.71c-4.83 13.91-9.35 23.2-20.33 37.37"></path>
<path style="fill:none; fill-opacity:0%; fill-rule:evenodd; stroke:#aaaaaa; stroke-opacity:100%; stroke-width: 1.5pt; stroke-linejoin:round; stroke-linecap:round;" d="M26.28 41c0.86 0.86 1.01 2.22 1.01 3.48c0 9.66-0.02 28.75-0.03 41.52c0 4.44-0.01 8.12-0.01 10.37"></path>
<path style="fill:none; fill-opacity:0%; fill-rule:evenodd; stroke:#aaaaaa; stroke-opacity:100%; stroke-width: 1.5pt; stroke-linejoin:round; stroke-linecap:round;" d="M39.24 31.69c3.29 0.68 6.55 0.47 9.88 0.02c9.88-1.34 20.5-2.59 30.5-3.66c3.05-0.33 6.06-0.51 9.1-0.04"></path>
<path style="fill:none; fill-opacity:0%; fill-rule:evenodd; stroke:#aaaaaa; stroke-opacity:100%; stroke-width: 1.5pt; stroke-linejoin:round; stroke-linecap:round;" d="M63.21 13.25c0 1.38-0.24 2.6-0.69 3.86C55.93 35.7 47.82 47.98 33.5 58.88"></path>
<path style="fill:none; fill-opacity:0%; fill-rule:evenodd; stroke:#aaaaaa; stroke-opacity:100%; stroke-width: 1.5pt; stroke-linejoin:round; stroke-linecap:round;" d="M64.36 29.67c6.55 5.51 21.83 19.54 28.37 23.23c2.23 1.25 3 1.44 4.01 1.56"></path>
<path style="fill:none; fill-opacity:0%; fill-rule:evenodd; stroke:#aaaaaa; stroke-opacity:100%; stroke-width: 1.5pt; stroke-linejoin:round; stroke-linecap:round;" d="M43.94 53.89c0.84 0.84 1.16 1.81 1.28 2.52c0.65 3.72 2.4 14.84 3.24 20.82"></path>
<path style="fill:none; fill-opacity:0%; fill-rule:evenodd; stroke:#aaaaaa; stroke-opacity:100%; stroke-width: 1.5pt; stroke-linejoin:round; stroke-linecap:round;" d="M45.81 55.01c9.58-1.54 21.98-3.17 30.59-4.3c2.61-0.34 4.84 1.23 4.45 4.04c-0.76 5.44-1.72 11.17-2.91 18.65"></path>
<path style="fill:none; fill-opacity:0%; fill-rule:evenodd; stroke:#aaaaaa; stroke-opacity:100%; stroke-width: 1.5pt; stroke-linejoin:round; stroke-linecap:round;" d="M47.85 64.58c8.02-1.08 24.27-2.95 31.62-3.7"></path>
<path style="fill:none; fill-opacity:0%; fill-rule:evenodd; stroke:#aaaaaa; stroke-opacity:100%; stroke-width: 1.5pt; stroke-linejoin:round; stroke-linecap:round;" d="M49.21 74.72c8.54-0.97 20.29-2.09 27.93-2.84"></path>
<path style="fill:none; fill-opacity:0%; fill-rule:evenodd; stroke:#aaaaaa; stroke-opacity:100%; stroke-width: 1.5pt; stroke-linejoin:round; stroke-linecap:round;" d="M61.17 42.09c0.93 0.93 1.11 2.15 1.11 3.85c0 10.56 0.08 35.12 0.08 40.27c0 7.91 2.1 9.09 15.41 9.07c14.49-0.03 15.97-1.88 15.97-10.3"></path>

<path style="fill:none; fill-opacity:0%; fill-rule:evenodd; stroke:#000000; stroke-opacity:100%; stroke-width: 3pt; stroke-linejoin:round; stroke-linecap:round;" d="M33.5 17.14c0.25 1.23-0.14 2.35-0.61 3.71c-4.83 13.91-9.35 23.2-20.33 37.37"></path>
<path style="fill:none; fill-opacity:0%; fill-rule:evenodd; stroke:#000000; stroke-opacity:100%; stroke-width: 3pt; stroke-linejoin:round; stroke-linecap:round;" d="M26.28 41c0.86 0.86 1.01 2.22 1.01 3.48c0 9.66-0.02 28.75-0.03 41.52c0 4.44-0.01 8.12-0.01 10.37"></path>
<path style="fill:none; fill-opacity:0%; fill-rule:evenodd; stroke:#000000; stroke-opacity:100%; stroke-width: 3pt; stroke-linejoin:round; stroke-linecap:round;" d="M39.24 31.69c3.29 0.68 6.55 0.47 9.88 0.02c9.88-1.34 20.5-2.59 30.5-3.66c3.05-0.33 6.06-0.51 9.1-0.04"></path>
<path style="fill:none; fill-opacity:0%; fill-rule:evenodd; stroke:#000000; stroke-opacity:100%; stroke-width: 3pt; stroke-linejoin:round; stroke-linecap:round;" d="M63.21 13.25c0 1.38-0.24 2.6-0.69 3.86C55.93 35.7 47.82 47.98 33.5 58.88"></path>
<path style="fill:none; fill-opacity:0%; fill-rule:evenodd; stroke:#000000; stroke-opacity:100%; stroke-width: 3pt; stroke-linejoin:round; stroke-linecap:round;" d="M64.36 29.67c6.55 5.51 21.83 19.54 28.37 23.23c2.23 1.25 3 1.44 4.01 1.56"></path>
<path style="fill:none; fill-opacity:0%; fill-rule:evenodd; stroke:#000000; stroke-opacity:100%; stroke-width: 3pt; stroke-linejoin:round; stroke-linecap:round;" d="M43.94 53.89c0.84 0.84 1.16 1.81 1.28 2.52c0.65 3.72 2.4 14.84 3.24 20.82"></path>
<text x="5" y="20" font-size="20" fill="#999999">7</text><path style="fill:none; fill-opacity:0%; fill-rule:evenodd; stroke:#CC0000; stroke-opacity:100%; stroke-width: 3pt; stroke-linejoin:round; stroke-linecap:round;" d="M45.81 55.01c9.58-1.54 21.98-3.17 30.59-4.3c2.61-0.34 4.84 1.23 4.45 4.04c-0.76 5.44-1.72 11.17-2.91 18.65" marker-end="url(#TriangleRed)" marker-start="url(#ArrowRed)" ></path>




</g><g transform="scale(1.3761467889908 1.3761467889908) translate(218, 109)">
<path style="fill:none; fill-rule:evenodd; stroke:#aaaaaa;  stroke-width:1pt; stroke-linecap:round;" d="m 109 0 L 0 0 L 0 109 L 109 109 L 109 0"></path><path style="fill:none; fill-opacity:0%; fill-rule:evenodd; stroke:#aaaaaa; stroke-opacity:100%; stroke-width: 1.5pt; stroke-linejoin:round; stroke-linecap:round;" d="M33.5 17.14c0.25 1.23-0.14 2.35-0.61 3.71c-4.83 13.91-9.35 23.2-20.33 37.37"></path>
<path style="fill:none; fill-opacity:0%; fill-rule:evenodd; stroke:#aaaaaa; stroke-opacity:100%; stroke-width: 1.5pt; stroke-linejoin:round; stroke-linecap:round;" d="M26.28 41c0.86 0.86 1.01 2.22 1.01 3.48c0 9.66-0.02 28.75-0.03 41.52c0 4.44-0.01 8.12-0.01 10.37"></path>
<path style="fill:none; fill-opacity:0%; fill-rule:evenodd; stroke:#aaaaaa; stroke-opacity:100%; stroke-width: 1.5pt; stroke-linejoin:round; stroke-linecap:round;" d="M39.24 31.69c3.29 0.68 6.55 0.47 9.88 0.02c9.88-1.34 20.5-2.59 30.5-3.66c3.05-0.33 6.06-0.51 9.1-0.04"></path>
<path style="fill:none; fill-opacity:0%; fill-rule:evenodd; stroke:#aaaaaa; stroke-opacity:100%; stroke-width: 1.5pt; stroke-linejoin:round; stroke-linecap:round;" d="M63.21 13.25c0 1.38-0.24 2.6-0.69 3.86C55.93 35.7 47.82 47.98 33.5 58.88"></path>
<path style="fill:none; fill-opacity:0%; fill-rule:evenodd; stroke:#aaaaaa; stroke-opacity:100%; stroke-width: 1.5pt; stroke-linejoin:round; stroke-linecap:round;" d="M64.36 29.67c6.55 5.51 21.83 19.54 28.37 23.23c2.23 1.25 3 1.44 4.01 1.56"></path>
<path style="fill:none; fill-opacity:0%; fill-rule:evenodd; stroke:#aaaaaa; stroke-opacity:100%; stroke-width: 1.5pt; stroke-linejoin:round; stroke-linecap:round;" d="M43.94 53.89c0.84 0.84 1.16 1.81 1.28 2.52c0.65 3.72 2.4 14.84 3.24 20.82"></path>
<path style="fill:none; fill-opacity:0%; fill-rule:evenodd; stroke:#aaaaaa; stroke-opacity:100%; stroke-width: 1.5pt; stroke-linejoin:round; stroke-linecap:round;" d="M45.81 55.01c9.58-1.54 21.98-3.17 30.59-4.3c2.61-0.34 4.84 1.23 4.45 4.04c-0.76 5.44-1.72 11.17-2.91 18.65"></path>
<path style="fill:none; fill-opacity:0%; fill-rule:evenodd; stroke:#aaaaaa; stroke-opacity:100%; stroke-width: 1.5pt; stroke-linejoin:round; stroke-linecap:round;" d="M47.85 64.58c8.02-1.08 24.27-2.95 31.62-3.7"></path>
<path style="fill:none; fill-opacity:0%; fill-rule:evenodd; stroke:#aaaaaa; stroke-opacity:100%; stroke-width: 1.5pt; stroke-linejoin:round; stroke-linecap:round;" d="M49.21 74.72c8.54-0.97 20.29-2.09 27.93-2.84"></path>
<path style="fill:none; fill-opacity:0%; fill-rule:evenodd; stroke:#aaaaaa; stroke-opacity:100%; stroke-width: 1.5pt; stroke-linejoin:round; stroke-linecap:round;" d="M61.17 42.09c0.93 0.93 1.11 2.15 1.11 3.85c0 10.56 0.08 35.12 0.08 40.27c0 7.91 2.1 9.09 15.41 9.07c14.49-0.03 15.97-1.88 15.97-10.3"></path>

<path style="fill:none; fill-opacity:0%; fill-rule:evenodd; stroke:#000000; stroke-opacity:100%; stroke-width: 3pt; stroke-linejoin:round; stroke-linecap:round;" d="M33.5 17.14c0.25 1.23-0.14 2.35-0.61 3.71c-4.83 13.91-9.35 23.2-20.33 37.37"></path>
<path style="fill:none; fill-opacity:0%; fill-rule:evenodd; stroke:#000000; stroke-opacity:100%; stroke-width: 3pt; stroke-linejoin:round; stroke-linecap:round;" d="M26.28 41c0.86 0.86 1.01 2.22 1.01 3.48c0 9.66-0.02 28.75-0.03 41.52c0 4.44-0.01 8.12-0.01 10.37"></path>
<path style="fill:none; fill-opacity:0%; fill-rule:evenodd; stroke:#000000; stroke-opacity:100%; stroke-width: 3pt; stroke-linejoin:round; stroke-linecap:round;" d="M39.24 31.69c3.29 0.68 6.55 0.47 9.88 0.02c9.88-1.34 20.5-2.59 30.5-3.66c3.05-0.33 6.06-0.51 9.1-0.04"></path>
<path style="fill:none; fill-opacity:0%; fill-rule:evenodd; stroke:#000000; stroke-opacity:100%; stroke-width: 3pt; stroke-linejoin:round; stroke-linecap:round;" d="M63.21 13.25c0 1.38-0.24 2.6-0.69 3.86C55.93 35.7 47.82 47.98 33.5 58.88"></path>
<path style="fill:none; fill-opacity:0%; fill-rule:evenodd; stroke:#000000; stroke-opacity:100%; stroke-width: 3pt; stroke-linejoin:round; stroke-linecap:round;" d="M64.36 29.67c6.55 5.51 21.83 19.54 28.37 23.23c2.23 1.25 3 1.44 4.01 1.56"></path>
<path style="fill:none; fill-opacity:0%; fill-rule:evenodd; stroke:#000000; stroke-opacity:100%; stroke-width: 3pt; stroke-linejoin:round; stroke-linecap:round;" d="M43.94 53.89c0.84 0.84 1.16 1.81 1.28 2.52c0.65 3.72 2.4 14.84 3.24 20.82"></path>
<path style="fill:none; fill-opacity:0%; fill-rule:evenodd; stroke:#000000; stroke-opacity:100%; stroke-width: 3pt; stroke-linejoin:round; stroke-linecap:round;" d="M45.81 55.01c9.58-1.54 21.98-3.17 30.59-4.3c2.61-0.34 4.84 1.23 4.45 4.04c-0.76 5.44-1.72 11.17-2.91 18.65"></path>
<text x="5" y="20" font-size="20" fill="#999999">8</text><path style="fill:none; fill-opacity:0%; fill-rule:evenodd; stroke:#CC0000; stroke-opacity:100%; stroke-width: 3pt; stroke-linejoin:round; stroke-linecap:round;" d="M47.85 64.58c8.02-1.08 24.27-2.95 31.62-3.7" marker-end="url(#TriangleRed)" marker-start="url(#ArrowRed)" ></path>



</g><g transform="scale(1.3761467889908 1.3761467889908) translate(327, 109)">
<path style="fill:none; fill-rule:evenodd; stroke:#aaaaaa;  stroke-width:1pt; stroke-linecap:round;" d="m 109 0 L 0 0 L 0 109 L 109 109 L 109 0"></path><path style="fill:none; fill-opacity:0%; fill-rule:evenodd; stroke:#aaaaaa; stroke-opacity:100%; stroke-width: 1.5pt; stroke-linejoin:round; stroke-linecap:round;" d="M33.5 17.14c0.25 1.23-0.14 2.35-0.61 3.71c-4.83 13.91-9.35 23.2-20.33 37.37"></path>
<path style="fill:none; fill-opacity:0%; fill-rule:evenodd; stroke:#aaaaaa; stroke-opacity:100%; stroke-width: 1.5pt; stroke-linejoin:round; stroke-linecap:round;" d="M26.28 41c0.86 0.86 1.01 2.22 1.01 3.48c0 9.66-0.02 28.75-0.03 41.52c0 4.44-0.01 8.12-0.01 10.37"></path>
<path style="fill:none; fill-opacity:0%; fill-rule:evenodd; stroke:#aaaaaa; stroke-opacity:100%; stroke-width: 1.5pt; stroke-linejoin:round; stroke-linecap:round;" d="M39.24 31.69c3.29 0.68 6.55 0.47 9.88 0.02c9.88-1.34 20.5-2.59 30.5-3.66c3.05-0.33 6.06-0.51 9.1-0.04"></path>
<path style="fill:none; fill-opacity:0%; fill-rule:evenodd; stroke:#aaaaaa; stroke-opacity:100%; stroke-width: 1.5pt; stroke-linejoin:round; stroke-linecap:round;" d="M63.21 13.25c0 1.38-0.24 2.6-0.69 3.86C55.93 35.7 47.82 47.98 33.5 58.88"></path>
<path style="fill:none; fill-opacity:0%; fill-rule:evenodd; stroke:#aaaaaa; stroke-opacity:100%; stroke-width: 1.5pt; stroke-linejoin:round; stroke-linecap:round;" d="M64.36 29.67c6.55 5.51 21.83 19.54 28.37 23.23c2.23 1.25 3 1.44 4.01 1.56"></path>
<path style="fill:none; fill-opacity:0%; fill-rule:evenodd; stroke:#aaaaaa; stroke-opacity:100%; stroke-width: 1.5pt; stroke-linejoin:round; stroke-linecap:round;" d="M43.94 53.89c0.84 0.84 1.16 1.81 1.28 2.52c0.65 3.72 2.4 14.84 3.24 20.82"></path>
<path style="fill:none; fill-opacity:0%; fill-rule:evenodd; stroke:#aaaaaa; stroke-opacity:100%; stroke-width: 1.5pt; stroke-linejoin:round; stroke-linecap:round;" d="M45.81 55.01c9.58-1.54 21.98-3.17 30.59-4.3c2.61-0.34 4.84 1.23 4.45 4.04c-0.76 5.44-1.72 11.17-2.91 18.65"></path>
<path style="fill:none; fill-opacity:0%; fill-rule:evenodd; stroke:#aaaaaa; stroke-opacity:100%; stroke-width: 1.5pt; stroke-linejoin:round; stroke-linecap:round;" d="M47.85 64.58c8.02-1.08 24.27-2.95 31.62-3.7"></path>
<path style="fill:none; fill-opacity:0%; fill-rule:evenodd; stroke:#aaaaaa; stroke-opacity:100%; stroke-width: 1.5pt; stroke-linejoin:round; stroke-linecap:round;" d="M49.21 74.72c8.54-0.97 20.29-2.09 27.93-2.84"></path>
<path style="fill:none; fill-opacity:0%; fill-rule:evenodd; stroke:#aaaaaa; stroke-opacity:100%; stroke-width: 1.5pt; stroke-linejoin:round; stroke-linecap:round;" d="M61.17 42.09c0.93 0.93 1.11 2.15 1.11 3.85c0 10.56 0.08 35.12 0.08 40.27c0 7.91 2.1 9.09 15.41 9.07c14.49-0.03 15.97-1.88 15.97-10.3"></path>

<path style="fill:none; fill-opacity:0%; fill-rule:evenodd; stroke:#000000; stroke-opacity:100%; stroke-width: 3pt; stroke-linejoin:round; stroke-linecap:round;" d="M33.5 17.14c0.25 1.23-0.14 2.35-0.61 3.71c-4.83 13.91-9.35 23.2-20.33 37.37"></path>
<path style="fill:none; fill-opacity:0%; fill-rule:evenodd; stroke:#000000; stroke-opacity:100%; stroke-width: 3pt; stroke-linejoin:round; stroke-linecap:round;" d="M26.28 41c0.86 0.86 1.01 2.22 1.01 3.48c0 9.66-0.02 28.75-0.03 41.52c0 4.44-0.01 8.12-0.01 10.37"></path>
<path style="fill:none; fill-opacity:0%; fill-rule:evenodd; stroke:#000000; stroke-opacity:100%; stroke-width: 3pt; stroke-linejoin:round; stroke-linecap:round;" d="M39.24 31.69c3.29 0.68 6.55 0.47 9.88 0.02c9.88-1.34 20.5-2.59 30.5-3.66c3.05-0.33 6.06-0.51 9.1-0.04"></path>
<path style="fill:none; fill-opacity:0%; fill-rule:evenodd; stroke:#000000; stroke-opacity:100%; stroke-width: 3pt; stroke-linejoin:round; stroke-linecap:round;" d="M63.21 13.25c0 1.38-0.24 2.6-0.69 3.86C55.93 35.7 47.82 47.98 33.5 58.88"></path>
<path style="fill:none; fill-opacity:0%; fill-rule:evenodd; stroke:#000000; stroke-opacity:100%; stroke-width: 3pt; stroke-linejoin:round; stroke-linecap:round;" d="M64.36 29.67c6.55 5.51 21.83 19.54 28.37 23.23c2.23 1.25 3 1.44 4.01 1.56"></path>
<path style="fill:none; fill-opacity:0%; fill-rule:evenodd; stroke:#000000; stroke-opacity:100%; stroke-width: 3pt; stroke-linejoin:round; stroke-linecap:round;" d="M43.94 53.89c0.84 0.84 1.16 1.81 1.28 2.52c0.65 3.72 2.4 14.84 3.24 20.82"></path>
<path style="fill:none; fill-opacity:0%; fill-rule:evenodd; stroke:#000000; stroke-opacity:100%; stroke-width: 3pt; stroke-linejoin:round; stroke-linecap:round;" d="M45.81 55.01c9.58-1.54 21.98-3.17 30.59-4.3c2.61-0.34 4.84 1.23 4.45 4.04c-0.76 5.44-1.72 11.17-2.91 18.65"></path>
<path style="fill:none; fill-opacity:0%; fill-rule:evenodd; stroke:#000000; stroke-opacity:100%; stroke-width: 3pt; stroke-linejoin:round; stroke-linecap:round;" d="M47.85 64.58c8.02-1.08 24.27-2.95 31.62-3.7"></path>
<text x="5" y="20" font-size="20" fill="#999999">9</text><path style="fill:none; fill-opacity:0%; fill-rule:evenodd; stroke:#CC0000; stroke-opacity:100%; stroke-width: 3pt; stroke-linejoin:round; stroke-linecap:round;" d="M49.21 74.72c8.54-0.97 20.29-2.09 27.93-2.84" marker-end="url(#TriangleRed)" marker-start="url(#ArrowRed)" ></path>


</g><g transform="scale(1.3761467889908 1.3761467889908) translate(436, 109)">
<path style="fill:none; fill-rule:evenodd; stroke:#aaaaaa;  stroke-width:1pt; stroke-linecap:round;" d="m 109 0 L 0 0 L 0 109 L 109 109 L 109 0"></path><path style="fill:none; fill-opacity:0%; fill-rule:evenodd; stroke:#aaaaaa; stroke-opacity:100%; stroke-width: 1.5pt; stroke-linejoin:round; stroke-linecap:round;" d="M33.5 17.14c0.25 1.23-0.14 2.35-0.61 3.71c-4.83 13.91-9.35 23.2-20.33 37.37"></path>
<path style="fill:none; fill-opacity:0%; fill-rule:evenodd; stroke:#aaaaaa; stroke-opacity:100%; stroke-width: 1.5pt; stroke-linejoin:round; stroke-linecap:round;" d="M26.28 41c0.86 0.86 1.01 2.22 1.01 3.48c0 9.66-0.02 28.75-0.03 41.52c0 4.44-0.01 8.12-0.01 10.37"></path>
<path style="fill:none; fill-opacity:0%; fill-rule:evenodd; stroke:#aaaaaa; stroke-opacity:100%; stroke-width: 1.5pt; stroke-linejoin:round; stroke-linecap:round;" d="M39.24 31.69c3.29 0.68 6.55 0.47 9.88 0.02c9.88-1.34 20.5-2.59 30.5-3.66c3.05-0.33 6.06-0.51 9.1-0.04"></path>
<path style="fill:none; fill-opacity:0%; fill-rule:evenodd; stroke:#aaaaaa; stroke-opacity:100%; stroke-width: 1.5pt; stroke-linejoin:round; stroke-linecap:round;" d="M63.21 13.25c0 1.38-0.24 2.6-0.69 3.86C55.93 35.7 47.82 47.98 33.5 58.88"></path>
<path style="fill:none; fill-opacity:0%; fill-rule:evenodd; stroke:#aaaaaa; stroke-opacity:100%; stroke-width: 1.5pt; stroke-linejoin:round; stroke-linecap:round;" d="M64.36 29.67c6.55 5.51 21.83 19.54 28.37 23.23c2.23 1.25 3 1.44 4.01 1.56"></path>
<path style="fill:none; fill-opacity:0%; fill-rule:evenodd; stroke:#aaaaaa; stroke-opacity:100%; stroke-width: 1.5pt; stroke-linejoin:round; stroke-linecap:round;" d="M43.94 53.89c0.84 0.84 1.16 1.81 1.28 2.52c0.65 3.72 2.4 14.84 3.24 20.82"></path>
<path style="fill:none; fill-opacity:0%; fill-rule:evenodd; stroke:#aaaaaa; stroke-opacity:100%; stroke-width: 1.5pt; stroke-linejoin:round; stroke-linecap:round;" d="M45.81 55.01c9.58-1.54 21.98-3.17 30.59-4.3c2.61-0.34 4.84 1.23 4.45 4.04c-0.76 5.44-1.72 11.17-2.91 18.65"></path>
<path style="fill:none; fill-opacity:0%; fill-rule:evenodd; stroke:#aaaaaa; stroke-opacity:100%; stroke-width: 1.5pt; stroke-linejoin:round; stroke-linecap:round;" d="M47.85 64.58c8.02-1.08 24.27-2.95 31.62-3.7"></path>
<path style="fill:none; fill-opacity:0%; fill-rule:evenodd; stroke:#aaaaaa; stroke-opacity:100%; stroke-width: 1.5pt; stroke-linejoin:round; stroke-linecap:round;" d="M49.21 74.72c8.54-0.97 20.29-2.09 27.93-2.84"></path>
<path style="fill:none; fill-opacity:0%; fill-rule:evenodd; stroke:#aaaaaa; stroke-opacity:100%; stroke-width: 1.5pt; stroke-linejoin:round; stroke-linecap:round;" d="M61.17 42.09c0.93 0.93 1.11 2.15 1.11 3.85c0 10.56 0.08 35.12 0.08 40.27c0 7.91 2.1 9.09 15.41 9.07c14.49-0.03 15.97-1.88 15.97-10.3"></path>

<path style="fill:none; fill-opacity:0%; fill-rule:evenodd; stroke:#000000; stroke-opacity:100%; stroke-width: 3pt; stroke-linejoin:round; stroke-linecap:round;" d="M33.5 17.14c0.25 1.23-0.14 2.35-0.61 3.71c-4.83 13.91-9.35 23.2-20.33 37.37"></path>
<path style="fill:none; fill-opacity:0%; fill-rule:evenodd; stroke:#000000; stroke-opacity:100%; stroke-width: 3pt; stroke-linejoin:round; stroke-linecap:round;" d="M26.28 41c0.86 0.86 1.01 2.22 1.01 3.48c0 9.66-0.02 28.75-0.03 41.52c0 4.44-0.01 8.12-0.01 10.37"></path>
<path style="fill:none; fill-opacity:0%; fill-rule:evenodd; stroke:#000000; stroke-opacity:100%; stroke-width: 3pt; stroke-linejoin:round; stroke-linecap:round;" d="M39.24 31.69c3.29 0.68 6.55 0.47 9.88 0.02c9.88-1.34 20.5-2.59 30.5-3.66c3.05-0.33 6.06-0.51 9.1-0.04"></path>
<path style="fill:none; fill-opacity:0%; fill-rule:evenodd; stroke:#000000; stroke-opacity:100%; stroke-width: 3pt; stroke-linejoin:round; stroke-linecap:round;" d="M63.21 13.25c0 1.38-0.24 2.6-0.69 3.86C55.93 35.7 47.82 47.98 33.5 58.88"></path>
<path style="fill:none; fill-opacity:0%; fill-rule:evenodd; stroke:#000000; stroke-opacity:100%; stroke-width: 3pt; stroke-linejoin:round; stroke-linecap:round;" d="M64.36 29.67c6.55 5.51 21.83 19.54 28.37 23.23c2.23 1.25 3 1.44 4.01 1.56"></path>
<path style="fill:none; fill-opacity:0%; fill-rule:evenodd; stroke:#000000; stroke-opacity:100%; stroke-width: 3pt; stroke-linejoin:round; stroke-linecap:round;" d="M43.94 53.89c0.84 0.84 1.16 1.81 1.28 2.52c0.65 3.72 2.4 14.84 3.24 20.82"></path>
<path style="fill:none; fill-opacity:0%; fill-rule:evenodd; stroke:#000000; stroke-opacity:100%; stroke-width: 3pt; stroke-linejoin:round; stroke-linecap:round;" d="M45.81 55.01c9.58-1.54 21.98-3.17 30.59-4.3c2.61-0.34 4.84 1.23 4.45 4.04c-0.76 5.44-1.72 11.17-2.91 18.65"></path>
<path style="fill:none; fill-opacity:0%; fill-rule:evenodd; stroke:#000000; stroke-opacity:100%; stroke-width: 3pt; stroke-linejoin:round; stroke-linecap:round;" d="M47.85 64.58c8.02-1.08 24.27-2.95 31.62-3.7"></path>
<path style="fill:none; fill-opacity:0%; fill-rule:evenodd; stroke:#000000; stroke-opacity:100%; stroke-width: 3pt; stroke-linejoin:round; stroke-linecap:round;" d="M49.21 74.72c8.54-0.97 20.29-2.09 27.93-2.84"></path>
<text x="5" y="20" font-size="20" fill="#999999">10</text><path style="fill:none; fill-opacity:0%; fill-rule:evenodd; stroke:#CC0000; stroke-opacity:100%; stroke-width: 3pt; stroke-linejoin:round; stroke-linecap:round;" d="M61.17 42.09c0.93 0.93 1.11 2.15 1.11 3.85c0 10.56 0.08 35.12 0.08 40.27c0 7.91 2.1 9.09 15.41 9.07c14.49-0.03 15.97-1.88 15.97-10.3" marker-end="url(#TriangleRed)" marker-start="url(#ArrowRed)" ></path>

</g>

</svg>  
          
