<?xml version="1.0" standalone="no"?>
<!DOCTYPE svg PUBLIC "-//W3C//DTD SVG 1.1//EN"   "http://www.w3.org/Graphics/SVG/1.1/DTD/svg11.dtd">
<svg width="751" height="301"  version="1.1" xmlns="http://www.w3.org/2000/svg">
  <defs>
    <marker id="Triangle" viewBox="0 0 10 10" refX="0" refY="5" markerUnits="strokeWidth" markerWidth="3" style="stroke-opacity:0%;fill:#aaaaaa;" markerHeight="2" orient="auto">
      <path d="M 0 0 L 10 5 L 0 10 z" />
    </marker>
    
    <marker id="Arrow" viewBox="0 0 10 10" refX="5" refY="5" markerUnits="strokeWidth" markerWidth="1.8" style="stroke-opacity:0%;fill:#770000;" markerHeight="2" orient="auto">
      <path d="M 0 4 L 6 4 L 4 1 L 10 5 L 4 9 L 6 6 L 0 6 z" />
        <circle cx="5" cy="5" r="5" />
      </marker>
    
    <marker id="TriangleRed" viewBox="0 0 10 10" refX="0" refY="5" markerUnits="strokeWidth" markerWidth="3" style="stroke-opacity:0%;fill:#CC0000;" markerHeight="2" orient="auto">
      <path d="M 0 0 L 10 5 L 0 10 z" />
    </marker>
    
    <marker id="ArrowRed" viewBox="0 0 10 10" refX="5" refY="5" markerUnits="strokeWidth" markerWidth="1.8" style="stroke-opacity:0%;fill:#CC0000;" markerHeight="2" orient="auto">
      <path d="M 0 4 L 6 4 L 4 1 L 10 5 L 4 9 L 6 6 L 0 6 z" />
        <circle cx="5" cy="5" r="5" />
      </marker>
    
  </defs>
  
  <path style="fill:#ffffff; fill-opacity:100%; fill-rule:evenodd; stroke-width:0;" d="M 0 0 L 751 0 L 751 301 L 0 301 L 0 0" />

  <g transform="scale(1.3761467889908 1.3761467889908) translate(0, 0)">
<path style="fill:none; fill-rule:evenodd; stroke:#aaaaaa;  stroke-width:1pt; stroke-linecap:round;" d="m 109 0 L 0 0 L 0 109 L 109 109 L 109 0"></path><path style="fill:none; fill-opacity:0%; fill-rule:evenodd; stroke:#aaaaaa; stroke-opacity:100%; stroke-width: 1.5pt; stroke-linejoin:round; stroke-linecap:round;" d="M17.33 32.84c0.69 0.34 1.96 0.38 2.65 0.34c6.07-0.34 22.1-2.27 31.23-2.79c1.15-0.07 1.84 0.16 2.42 0.33"></path>
<path style="fill:none; fill-opacity:0%; fill-rule:evenodd; stroke:#aaaaaa; stroke-opacity:100%; stroke-width: 1.5pt; stroke-linejoin:round; stroke-linecap:round;" d="M35.67 13c0.09 0.31 1.26 1.63 1.35 3.61c0.43 9.52 0.11 31.2 0.11 34.44"></path>
<path style="fill:none; fill-opacity:0%; fill-rule:evenodd; stroke:#aaaaaa; stroke-opacity:100%; stroke-width: 1.5pt; stroke-linejoin:round; stroke-linecap:round;" d="M10.25 53c1.05 0.48 2.98 0.62 4.04 0.48c13.46-1.73 29.46-3.23 41.03-4.48c1.74-0.19 2.81 0.23 3.68 0.47"></path>
<path style="fill:none; fill-opacity:0%; fill-rule:evenodd; stroke:#aaaaaa; stroke-opacity:100%; stroke-width: 1.5pt; stroke-linejoin:round; stroke-linecap:round;" d="M34.72 55.13c0.24 1.09 0.08 2.65-0.21 3.28c-4.51 9.84-9.12 20.11-14.49 27.1c-1.68 2.19-1.43 4.46 1.25 3.66c7.11-2.13 20.56-6.62 30.86-9.9"></path>
<path style="fill:none; fill-opacity:0%; fill-rule:evenodd; stroke:#aaaaaa; stroke-opacity:100%; stroke-width: 1.5pt; stroke-linejoin:round; stroke-linecap:round;" d="M43.78 66.85c3.79 3.25 9.78 13.35 10.72 18.4"></path>
<path style="fill:none; fill-opacity:0%; fill-rule:evenodd; stroke:#aaaaaa; stroke-opacity:100%; stroke-width: 1.5pt; stroke-linejoin:round; stroke-linecap:round;" d="M58.58 24.82c1.43 0.9 3.22 1.16 4.49 0.98c11.19-1.55 19.77-2.62 25.44-3.54c3.68-0.6 5.57 1.23 5.5 4.37c-0.25 12.87-3 47.62-7.79 63.1c-2.59 8.4-5.72 3.77-9.33-0.4"></path>
<path style="fill:none; fill-opacity:0%; fill-rule:evenodd; stroke:#aaaaaa; stroke-opacity:100%; stroke-width: 1.5pt; stroke-linejoin:round; stroke-linecap:round;" d="M72.01 26.68c0.49 1.82 0.63 4.17 0.4 6.48C70.7 50.25 68 76.75 54.14 94.65"></path>

<text x="5" y="20" font-size="20" fill="#999999">1</text><path style="fill:none; fill-opacity:0%; fill-rule:evenodd; stroke:#CC0000; stroke-opacity:100%; stroke-width: 3pt; stroke-linejoin:round; stroke-linecap:round;" d="M17.33 32.84c0.69 0.34 1.96 0.38 2.65 0.34c6.07-0.34 22.1-2.27 31.23-2.79c1.15-0.07 1.84 0.16 2.42 0.33" marker-end="url(#TriangleRed)" marker-start="url(#ArrowRed)" ></path>







</g><g transform="scale(1.3761467889908 1.3761467889908) translate(109, 0)">
<path style="fill:none; fill-rule:evenodd; stroke:#aaaaaa;  stroke-width:1pt; stroke-linecap:round;" d="m 109 0 L 0 0 L 0 109 L 109 109 L 109 0"></path><path style="fill:none; fill-opacity:0%; fill-rule:evenodd; stroke:#aaaaaa; stroke-opacity:100%; stroke-width: 1.5pt; stroke-linejoin:round; stroke-linecap:round;" d="M17.33 32.84c0.69 0.34 1.96 0.38 2.65 0.34c6.07-0.34 22.1-2.27 31.23-2.79c1.15-0.07 1.84 0.16 2.42 0.33"></path>
<path style="fill:none; fill-opacity:0%; fill-rule:evenodd; stroke:#aaaaaa; stroke-opacity:100%; stroke-width: 1.5pt; stroke-linejoin:round; stroke-linecap:round;" d="M35.67 13c0.09 0.31 1.26 1.63 1.35 3.61c0.43 9.52 0.11 31.2 0.11 34.44"></path>
<path style="fill:none; fill-opacity:0%; fill-rule:evenodd; stroke:#aaaaaa; stroke-opacity:100%; stroke-width: 1.5pt; stroke-linejoin:round; stroke-linecap:round;" d="M10.25 53c1.05 0.48 2.98 0.62 4.04 0.48c13.46-1.73 29.46-3.23 41.03-4.48c1.74-0.19 2.81 0.23 3.68 0.47"></path>
<path style="fill:none; fill-opacity:0%; fill-rule:evenodd; stroke:#aaaaaa; stroke-opacity:100%; stroke-width: 1.5pt; stroke-linejoin:round; stroke-linecap:round;" d="M34.72 55.13c0.24 1.09 0.08 2.65-0.21 3.28c-4.51 9.84-9.12 20.11-14.49 27.1c-1.68 2.19-1.43 4.46 1.25 3.66c7.11-2.13 20.56-6.62 30.86-9.9"></path>
<path style="fill:none; fill-opacity:0%; fill-rule:evenodd; stroke:#aaaaaa; stroke-opacity:100%; stroke-width: 1.5pt; stroke-linejoin:round; stroke-linecap:round;" d="M43.78 66.85c3.79 3.25 9.78 13.35 10.72 18.4"></path>
<path style="fill:none; fill-opacity:0%; fill-rule:evenodd; stroke:#aaaaaa; stroke-opacity:100%; stroke-width: 1.5pt; stroke-linejoin:round; stroke-linecap:round;" d="M58.58 24.82c1.43 0.9 3.22 1.16 4.49 0.98c11.19-1.55 19.77-2.62 25.44-3.54c3.68-0.6 5.57 1.23 5.5 4.37c-0.25 12.87-3 47.62-7.79 63.1c-2.59 8.4-5.72 3.77-9.33-0.4"></path>
<path style="fill:none; fill-opacity:0%; fill-rule:evenodd; stroke:#aaaaaa; stroke-opacity:100%; stroke-width: 1.5pt; stroke-linejoin:round; stroke-linecap:round;" d="M72.01 26.68c0.49 1.82 0.63 4.17 0.4 6.48C70.7 50.25 68 76.75 54.14 94.65"></path>

<path style="fill:none; fill-opacity:0%; fill-rule:evenodd; stroke:#000000; stroke-opacity:100%; stroke-width: 3pt; stroke-linejoin:round; stroke-linecap:round;" d="M17.33 32.84c0.69 0.34 1.96 0.38 2.65 0.34c6.07-0.34 22.1-2.27 31.23-2.79c1.15-0.07 1.84 0.16 2.42 0.33"></path>
<text x="5" y="20" font-size="20" fill="#999999">2</text><path style="fill:none; fill-opacity:0%; fill-rule:evenodd; stroke:#CC0000; stroke-opacity:100%; stroke-width: 3pt; stroke-linejoin:round; stroke-linecap:round;" d="M35.67 13c0.09 0.31 1.26 1.63 1.35 3.61c0.43 9.52 0.11 31.2 0.11 34.44" marker-end="url(#TriangleRed)" marker-start="url(#ArrowRed)" ></path>






</g><g transform="scale(1.3761467889908 1.3761467889908) translate(218, 0)">
<path style="fill:none; fill-rule:evenodd; stroke:#aaaaaa;  stroke-width:1pt; stroke-linecap:round;" d="m 109 0 L 0 0 L 0 109 L 109 109 L 109 0"></path><path style="fill:none; fill-opacity:0%; fill-rule:evenodd; stroke:#aaaaaa; stroke-opacity:100%; stroke-width: 1.5pt; stroke-linejoin:round; stroke-linecap:round;" d="M17.33 32.84c0.69 0.34 1.96 0.38 2.65 0.34c6.07-0.34 22.1-2.27 31.23-2.79c1.15-0.07 1.84 0.16 2.42 0.33"></path>
<path style="fill:none; fill-opacity:0%; fill-rule:evenodd; stroke:#aaaaaa; stroke-opacity:100%; stroke-width: 1.5pt; stroke-linejoin:round; stroke-linecap:round;" d="M35.67 13c0.09 0.31 1.26 1.63 1.35 3.61c0.43 9.52 0.11 31.2 0.11 34.44"></path>
<path style="fill:none; fill-opacity:0%; fill-rule:evenodd; stroke:#aaaaaa; stroke-opacity:100%; stroke-width: 1.5pt; stroke-linejoin:round; stroke-linecap:round;" d="M10.25 53c1.05 0.48 2.98 0.62 4.04 0.48c13.46-1.73 29.46-3.23 41.03-4.48c1.74-0.19 2.81 0.23 3.68 0.47"></path>
<path style="fill:none; fill-opacity:0%; fill-rule:evenodd; stroke:#aaaaaa; stroke-opacity:100%; stroke-width: 1.5pt; stroke-linejoin:round; stroke-linecap:round;" d="M34.72 55.13c0.24 1.09 0.08 2.65-0.21 3.28c-4.51 9.84-9.12 20.11-14.49 27.1c-1.68 2.19-1.43 4.46 1.25 3.66c7.11-2.13 20.56-6.62 30.86-9.9"></path>
<path style="fill:none; fill-opacity:0%; fill-rule:evenodd; stroke:#aaaaaa; stroke-opacity:100%; stroke-width: 1.5pt; stroke-linejoin:round; stroke-linecap:round;" d="M43.78 66.85c3.79 3.25 9.78 13.35 10.72 18.4"></path>
<path style="fill:none; fill-opacity:0%; fill-rule:evenodd; stroke:#aaaaaa; stroke-opacity:100%; stroke-width: 1.5pt; stroke-linejoin:round; stroke-linecap:round;" d="M58.58 24.82c1.43 0.9 3.22 1.16 4.49 0.98c11.19-1.55 19.77-2.62 25.44-3.54c3.68-0.6 5.57 1.23 5.5 4.37c-0.25 12.87-3 47.62-7.79 63.1c-2.59 8.4-5.72 3.77-9.33-0.4"></path>
<path style="fill:none; fill-opacity:0%; fill-rule:evenodd; stroke:#aaaaaa; stroke-opacity:100%; stroke-width: 1.5pt; stroke-linejoin:round; stroke-linecap:round;" d="M72.01 26.68c0.49 1.82 0.63 4.17 0.4 6.48C70.7 50.25 68 76.75 54.14 94.65"></path>

<path style="fill:none; fill-opacity:0%; fill-rule:evenodd; stroke:#000000; stroke-opacity:100%; stroke-width: 3pt; stroke-linejoin:round; stroke-linecap:round;" d="M17.33 32.84c0.69 0.34 1.96 0.38 2.65 0.34c6.07-0.34 22.1-2.27 31.23-2.79c1.15-0.07 1.84 0.16 2.42 0.33"></path>
<path style="fill:none; fill-opacity:0%; fill-rule:evenodd; stroke:#000000; stroke-opacity:100%; stroke-width: 3pt; stroke-linejoin:round; stroke-linecap:round;" d="M35.67 13c0.09 0.31 1.26 1.63 1.35 3.61c0.43 9.52 0.11 31.2 0.11 34.44"></path>
<text x="5" y="20" font-size="20" fill="#999999">3</text><path style="fill:none; fill-opacity:0%; fill-rule:evenodd; stroke:#CC0000; stroke-opacity:100%; stroke-width: 3pt; stroke-linejoin:round; stroke-linecap:round;" d="M10.25 53c1.05 0.48 2.98 0.62 4.04 0.48c13.46-1.73 29.46-3.23 41.03-4.48c1.74-0.19 2.81 0.23 3.68 0.47" marker-end="url(#TriangleRed)" marker-start="url(#ArrowRed)" ></path>





</g><g transform="scale(1.3761467889908 1.3761467889908) translate(327, 0)">
<path style="fill:none; fill-rule:evenodd; stroke:#aaaaaa;  stroke-width:1pt; stroke-linecap:round;" d="m 109 0 L 0 0 L 0 109 L 109 109 L 109 0"></path><path style="fill:none; fill-opacity:0%; fill-rule:evenodd; stroke:#aaaaaa; stroke-opacity:100%; stroke-width: 1.5pt; stroke-linejoin:round; stroke-linecap:round;" d="M17.33 32.84c0.69 0.34 1.96 0.38 2.65 0.34c6.07-0.34 22.1-2.27 31.23-2.79c1.15-0.07 1.84 0.16 2.42 0.33"></path>
<path style="fill:none; fill-opacity:0%; fill-rule:evenodd; stroke:#aaaaaa; stroke-opacity:100%; stroke-width: 1.5pt; stroke-linejoin:round; stroke-linecap:round;" d="M35.67 13c0.09 0.31 1.26 1.63 1.35 3.61c0.43 9.52 0.11 31.2 0.11 34.44"></path>
<path style="fill:none; fill-opacity:0%; fill-rule:evenodd; stroke:#aaaaaa; stroke-opacity:100%; stroke-width: 1.5pt; stroke-linejoin:round; stroke-linecap:round;" d="M10.25 53c1.05 0.48 2.98 0.62 4.04 0.48c13.46-1.73 29.46-3.23 41.03-4.48c1.74-0.19 2.81 0.23 3.68 0.47"></path>
<path style="fill:none; fill-opacity:0%; fill-rule:evenodd; stroke:#aaaaaa; stroke-opacity:100%; stroke-width: 1.5pt; stroke-linejoin:round; stroke-linecap:round;" d="M34.72 55.13c0.24 1.09 0.08 2.65-0.21 3.28c-4.51 9.84-9.12 20.11-14.49 27.1c-1.68 2.19-1.43 4.46 1.25 3.66c7.11-2.13 20.56-6.62 30.86-9.9"></path>
<path style="fill:none; fill-opacity:0%; fill-rule:evenodd; stroke:#aaaaaa; stroke-opacity:100%; stroke-width: 1.5pt; stroke-linejoin:round; stroke-linecap:round;" d="M43.78 66.85c3.79 3.25 9.78 13.35 10.72 18.4"></path>
<path style="fill:none; fill-opacity:0%; fill-rule:evenodd; stroke:#aaaaaa; stroke-opacity:100%; stroke-width: 1.5pt; stroke-linejoin:round; stroke-linecap:round;" d="M58.58 24.82c1.43 0.9 3.22 1.16 4.49 0.98c11.19-1.55 19.77-2.62 25.44-3.54c3.68-0.6 5.57 1.23 5.5 4.37c-0.25 12.87-3 47.62-7.79 63.1c-2.59 8.4-5.72 3.77-9.33-0.4"></path>
<path style="fill:none; fill-opacity:0%; fill-rule:evenodd; stroke:#aaaaaa; stroke-opacity:100%; stroke-width: 1.5pt; stroke-linejoin:round; stroke-linecap:round;" d="M72.01 26.68c0.49 1.82 0.63 4.17 0.4 6.48C70.7 50.25 68 76.75 54.14 94.65"></path>

<path style="fill:none; fill-opacity:0%; fill-rule:evenodd; stroke:#000000; stroke-opacity:100%; stroke-width: 3pt; stroke-linejoin:round; stroke-linecap:round;" d="M17.33 32.84c0.69 0.34 1.96 0.38 2.65 0.34c6.07-0.34 22.1-2.27 31.23-2.79c1.15-0.07 1.84 0.16 2.42 0.33"></path>
<path style="fill:none; fill-opacity:0%; fill-rule:evenodd; stroke:#000000; stroke-opacity:100%; stroke-width: 3pt; stroke-linejoin:round; stroke-linecap:round;" d="M35.67 13c0.09 0.31 1.26 1.63 1.35 3.61c0.43 9.52 0.11 31.2 0.11 34.44"></path>
<path style="fill:none; fill-opacity:0%; fill-rule:evenodd; stroke:#000000; stroke-opacity:100%; stroke-width: 3pt; stroke-linejoin:round; stroke-linecap:round;" d="M10.25 53c1.05 0.48 2.98 0.62 4.04 0.48c13.46-1.73 29.46-3.23 41.03-4.48c1.74-0.19 2.81 0.23 3.68 0.47"></path>
<text x="5" y="20" font-size="20" fill="#999999">4</text><path style="fill:none; fill-opacity:0%; fill-rule:evenodd; stroke:#CC0000; stroke-opacity:100%; stroke-width: 3pt; stroke-linejoin:round; stroke-linecap:round;" d="M34.72 55.13c0.24 1.09 0.08 2.65-0.21 3.28c-4.51 9.84-9.12 20.11-14.49 27.1c-1.68 2.19-1.43 4.46 1.25 3.66c7.11-2.13 20.56-6.62 30.86-9.9" marker-end="url(#TriangleRed)" marker-start="url(#ArrowRed)" ></path>




</g><g transform="scale(1.3761467889908 1.3761467889908) translate(436, 0)">
<path style="fill:none; fill-rule:evenodd; stroke:#aaaaaa;  stroke-width:1pt; stroke-linecap:round;" d="m 109 0 L 0 0 L 0 109 L 109 109 L 109 0"></path><path style="fill:none; fill-opacity:0%; fill-rule:evenodd; stroke:#aaaaaa; stroke-opacity:100%; stroke-width: 1.5pt; stroke-linejoin:round; stroke-linecap:round;" d="M17.33 32.84c0.69 0.34 1.96 0.38 2.65 0.34c6.07-0.34 22.1-2.27 31.23-2.79c1.15-0.07 1.84 0.16 2.42 0.33"></path>
<path style="fill:none; fill-opacity:0%; fill-rule:evenodd; stroke:#aaaaaa; stroke-opacity:100%; stroke-width: 1.5pt; stroke-linejoin:round; stroke-linecap:round;" d="M35.67 13c0.09 0.31 1.26 1.63 1.35 3.61c0.43 9.52 0.11 31.2 0.11 34.44"></path>
<path style="fill:none; fill-opacity:0%; fill-rule:evenodd; stroke:#aaaaaa; stroke-opacity:100%; stroke-width: 1.5pt; stroke-linejoin:round; stroke-linecap:round;" d="M10.25 53c1.05 0.48 2.98 0.62 4.04 0.48c13.46-1.73 29.46-3.23 41.03-4.48c1.74-0.19 2.81 0.23 3.68 0.47"></path>
<path style="fill:none; fill-opacity:0%; fill-rule:evenodd; stroke:#aaaaaa; stroke-opacity:100%; stroke-width: 1.5pt; stroke-linejoin:round; stroke-linecap:round;" d="M34.72 55.13c0.24 1.09 0.08 2.65-0.21 3.28c-4.51 9.84-9.12 20.11-14.49 27.1c-1.68 2.19-1.43 4.46 1.25 3.66c7.11-2.13 20.56-6.62 30.86-9.9"></path>
<path style="fill:none; fill-opacity:0%; fill-rule:evenodd; stroke:#aaaaaa; stroke-opacity:100%; stroke-width: 1.5pt; stroke-linejoin:round; stroke-linecap:round;" d="M43.78 66.85c3.79 3.25 9.78 13.35 10.72 18.4"></path>
<path style="fill:none; fill-opacity:0%; fill-rule:evenodd; stroke:#aaaaaa; stroke-opacity:100%; stroke-width: 1.5pt; stroke-linejoin:round; stroke-linecap:round;" d="M58.58 24.82c1.43 0.9 3.22 1.16 4.49 0.98c11.19-1.55 19.77-2.62 25.44-3.54c3.68-0.6 5.57 1.23 5.5 4.37c-0.25 12.87-3 47.62-7.79 63.1c-2.59 8.4-5.72 3.77-9.33-0.4"></path>
<path style="fill:none; fill-opacity:0%; fill-rule:evenodd; stroke:#aaaaaa; stroke-opacity:100%; stroke-width: 1.5pt; stroke-linejoin:round; stroke-linecap:round;" d="M72.01 26.68c0.49 1.82 0.63 4.17 0.4 6.48C70.7 50.25 68 76.75 54.14 94.65"></path>

<path style="fill:none; fill-opacity:0%; fill-rule:evenodd; stroke:#000000; stroke-opacity:100%; stroke-width: 3pt; stroke-linejoin:round; stroke-linecap:round;" d="M17.33 32.84c0.69 0.34 1.96 0.38 2.65 0.34c6.07-0.34 22.1-2.27 31.23-2.79c1.15-0.07 1.84 0.16 2.42 0.33"></path>
<path style="fill:none; fill-opacity:0%; fill-rule:evenodd; stroke:#000000; stroke-opacity:100%; stroke-width: 3pt; stroke-linejoin:round; stroke-linecap:round;" d="M35.67 13c0.09 0.31 1.26 1.63 1.35 3.61c0.43 9.52 0.11 31.2 0.11 34.44"></path>
<path style="fill:none; fill-opacity:0%; fill-rule:evenodd; stroke:#000000; stroke-opacity:100%; stroke-width: 3pt; stroke-linejoin:round; stroke-linecap:round;" d="M10.25 53c1.05 0.48 2.98 0.62 4.04 0.48c13.46-1.73 29.46-3.23 41.03-4.48c1.74-0.19 2.81 0.23 3.68 0.47"></path>
<path style="fill:none; fill-opacity:0%; fill-rule:evenodd; stroke:#000000; stroke-opacity:100%; stroke-width: 3pt; stroke-linejoin:round; stroke-linecap:round;" d="M34.72 55.13c0.24 1.09 0.08 2.65-0.21 3.28c-4.51 9.84-9.12 20.11-14.49 27.1c-1.68 2.19-1.43 4.46 1.25 3.66c7.11-2.13 20.56-6.62 30.86-9.9"></path>
<text x="5" y="20" font-size="20" fill="#999999">5</text><path style="fill:none; fill-opacity:0%; fill-rule:evenodd; stroke:#CC0000; stroke-opacity:100%; stroke-width: 3pt; stroke-linejoin:round; stroke-linecap:round;" d="M43.78 66.85c3.79 3.25 9.78 13.35 10.72 18.4" marker-end="url(#TriangleRed)" marker-start="url(#ArrowRed)" ></path>



</g><g transform="scale(1.3761467889908 1.3761467889908) translate(0, 109)">
<path style="fill:none; fill-rule:evenodd; stroke:#aaaaaa;  stroke-width:1pt; stroke-linecap:round;" d="m 109 0 L 0 0 L 0 109 L 109 109 L 109 0"></path><path style="fill:none; fill-opacity:0%; fill-rule:evenodd; stroke:#aaaaaa; stroke-opacity:100%; stroke-width: 1.5pt; stroke-linejoin:round; stroke-linecap:round;" d="M17.33 32.84c0.69 0.34 1.96 0.38 2.65 0.34c6.07-0.34 22.1-2.27 31.23-2.79c1.15-0.07 1.84 0.16 2.42 0.33"></path>
<path style="fill:none; fill-opacity:0%; fill-rule:evenodd; stroke:#aaaaaa; stroke-opacity:100%; stroke-width: 1.5pt; stroke-linejoin:round; stroke-linecap:round;" d="M35.67 13c0.09 0.31 1.26 1.63 1.35 3.61c0.43 9.52 0.11 31.2 0.11 34.44"></path>
<path style="fill:none; fill-opacity:0%; fill-rule:evenodd; stroke:#aaaaaa; stroke-opacity:100%; stroke-width: 1.5pt; stroke-linejoin:round; stroke-linecap:round;" d="M10.25 53c1.05 0.48 2.98 0.62 4.04 0.48c13.46-1.73 29.46-3.23 41.03-4.48c1.74-0.19 2.81 0.23 3.68 0.47"></path>
<path style="fill:none; fill-opacity:0%; fill-rule:evenodd; stroke:#aaaaaa; stroke-opacity:100%; stroke-width: 1.5pt; stroke-linejoin:round; stroke-linecap:round;" d="M34.72 55.13c0.24 1.09 0.08 2.65-0.21 3.28c-4.51 9.84-9.12 20.11-14.49 27.1c-1.68 2.19-1.43 4.46 1.25 3.66c7.11-2.13 20.56-6.62 30.86-9.9"></path>
<path style="fill:none; fill-opacity:0%; fill-rule:evenodd; stroke:#aaaaaa; stroke-opacity:100%; stroke-width: 1.5pt; stroke-linejoin:round; stroke-linecap:round;" d="M43.78 66.85c3.79 3.25 9.78 13.35 10.72 18.4"></path>
<path style="fill:none; fill-opacity:0%; fill-rule:evenodd; stroke:#aaaaaa; stroke-opacity:100%; stroke-width: 1.5pt; stroke-linejoin:round; stroke-linecap:round;" d="M58.58 24.82c1.43 0.9 3.22 1.16 4.49 0.98c11.19-1.55 19.77-2.62 25.44-3.54c3.68-0.6 5.57 1.23 5.5 4.37c-0.25 12.87-3 47.62-7.79 63.1c-2.59 8.4-5.72 3.77-9.33-0.4"></path>
<path style="fill:none; fill-opacity:0%; fill-rule:evenodd; stroke:#aaaaaa; stroke-opacity:100%; stroke-width: 1.5pt; stroke-linejoin:round; stroke-linecap:round;" d="M72.01 26.68c0.49 1.82 0.63 4.17 0.4 6.48C70.7 50.25 68 76.75 54.14 94.65"></path>

<path style="fill:none; fill-opacity:0%; fill-rule:evenodd; stroke:#000000; stroke-opacity:100%; stroke-width: 3pt; stroke-linejoin:round; stroke-linecap:round;" d="M17.33 32.84c0.69 0.34 1.96 0.38 2.65 0.34c6.07-0.34 22.1-2.27 31.23-2.79c1.15-0.07 1.84 0.16 2.42 0.33"></path>
<path style="fill:none; fill-opacity:0%; fill-rule:evenodd; stroke:#000000; stroke-opacity:100%; stroke-width: 3pt; stroke-linejoin:round; stroke-linecap:round;" d="M35.67 13c0.09 0.31 1.26 1.63 1.35 3.61c0.43 9.52 0.11 31.2 0.11 34.44"></path>
<path style="fill:none; fill-opacity:0%; fill-rule:evenodd; stroke:#000000; stroke-opacity:100%; stroke-width: 3pt; stroke-linejoin:round; stroke-linecap:round;" d="M10.25 53c1.05 0.48 2.98 0.62 4.04 0.48c13.46-1.73 29.46-3.23 41.03-4.48c1.74-0.19 2.81 0.23 3.68 0.47"></path>
<path style="fill:none; fill-opacity:0%; fill-rule:evenodd; stroke:#000000; stroke-opacity:100%; stroke-width: 3pt; stroke-linejoin:round; stroke-linecap:round;" d="M34.72 55.13c0.24 1.09 0.08 2.65-0.21 3.28c-4.51 9.84-9.12 20.11-14.49 27.1c-1.68 2.19-1.43 4.46 1.25 3.66c7.11-2.13 20.56-6.62 30.86-9.9"></path>
<path style="fill:none; fill-opacity:0%; fill-rule:evenodd; stroke:#000000; stroke-opacity:100%; stroke-width: 3pt; stroke-linejoin:round; stroke-linecap:round;" d="M43.78 66.85c3.79 3.25 9.78 13.35 10.72 18.4"></path>
<text x="5" y="20" font-size="20" fill="#999999">6</text><path style="fill:none; fill-opacity:0%; fill-rule:evenodd; stroke:#CC0000; stroke-opacity:100%; stroke-width: 3pt; stroke-linejoin:round; stroke-linecap:round;" d="M58.58 24.82c1.43 0.9 3.22 1.16 4.49 0.98c11.19-1.55 19.77-2.62 25.44-3.54c3.68-0.6 5.57 1.23 5.5 4.37c-0.25 12.87-3 47.62-7.79 63.1c-2.59 8.4-5.72 3.77-9.33-0.4" marker-end="url(#TriangleRed)" marker-start="url(#ArrowRed)" ></path>


</g><g transform="scale(1.3761467889908 1.3761467889908) translate(109, 109)">
<path style="fill:none; fill-rule:evenodd; stroke:#aaaaaa;  stroke-width:1pt; stroke-linecap:round;" d="m 109 0 L 0 0 L 0 109 L 109 109 L 109 0"></path><path style="fill:none; fill-opacity:0%; fill-rule:evenodd; stroke:#aaaaaa; stroke-opacity:100%; stroke-width: 1.5pt; stroke-linejoin:round; stroke-linecap:round;" d="M17.33 32.84c0.69 0.34 1.96 0.38 2.65 0.34c6.07-0.34 22.1-2.27 31.23-2.79c1.15-0.07 1.84 0.16 2.42 0.33"></path>
<path style="fill:none; fill-opacity:0%; fill-rule:evenodd; stroke:#aaaaaa; stroke-opacity:100%; stroke-width: 1.5pt; stroke-linejoin:round; stroke-linecap:round;" d="M35.67 13c0.09 0.31 1.26 1.63 1.35 3.61c0.43 9.52 0.11 31.2 0.11 34.44"></path>
<path style="fill:none; fill-opacity:0%; fill-rule:evenodd; stroke:#aaaaaa; stroke-opacity:100%; stroke-width: 1.5pt; stroke-linejoin:round; stroke-linecap:round;" d="M10.25 53c1.05 0.48 2.98 0.62 4.04 0.48c13.46-1.73 29.46-3.23 41.03-4.48c1.74-0.19 2.81 0.23 3.68 0.47"></path>
<path style="fill:none; fill-opacity:0%; fill-rule:evenodd; stroke:#aaaaaa; stroke-opacity:100%; stroke-width: 1.5pt; stroke-linejoin:round; stroke-linecap:round;" d="M34.72 55.13c0.24 1.09 0.08 2.65-0.21 3.28c-4.51 9.84-9.12 20.11-14.49 27.1c-1.68 2.19-1.43 4.46 1.25 3.66c7.11-2.13 20.56-6.62 30.86-9.9"></path>
<path style="fill:none; fill-opacity:0%; fill-rule:evenodd; stroke:#aaaaaa; stroke-opacity:100%; stroke-width: 1.5pt; stroke-linejoin:round; stroke-linecap:round;" d="M43.78 66.85c3.79 3.25 9.78 13.35 10.72 18.4"></path>
<path style="fill:none; fill-opacity:0%; fill-rule:evenodd; stroke:#aaaaaa; stroke-opacity:100%; stroke-width: 1.5pt; stroke-linejoin:round; stroke-linecap:round;" d="M58.58 24.82c1.43 0.9 3.22 1.16 4.49 0.98c11.19-1.55 19.77-2.62 25.44-3.54c3.68-0.6 5.57 1.23 5.5 4.37c-0.25 12.87-3 47.62-7.79 63.1c-2.59 8.4-5.72 3.77-9.33-0.4"></path>
<path style="fill:none; fill-opacity:0%; fill-rule:evenodd; stroke:#aaaaaa; stroke-opacity:100%; stroke-width: 1.5pt; stroke-linejoin:round; stroke-linecap:round;" d="M72.01 26.68c0.49 1.82 0.63 4.17 0.4 6.48C70.7 50.25 68 76.75 54.14 94.65"></path>

<path style="fill:none; fill-opacity:0%; fill-rule:evenodd; stroke:#000000; stroke-opacity:100%; stroke-width: 3pt; stroke-linejoin:round; stroke-linecap:round;" d="M17.33 32.84c0.69 0.34 1.96 0.38 2.65 0.34c6.07-0.34 22.1-2.27 31.23-2.79c1.15-0.07 1.84 0.16 2.42 0.33"></path>
<path style="fill:none; fill-opacity:0%; fill-rule:evenodd; stroke:#000000; stroke-opacity:100%; stroke-width: 3pt; stroke-linejoin:round; stroke-linecap:round;" d="M35.67 13c0.09 0.31 1.26 1.63 1.35 3.61c0.43 9.52 0.11 31.2 0.11 34.44"></path>
<path style="fill:none; fill-opacity:0%; fill-rule:evenodd; stroke:#000000; stroke-opacity:100%; stroke-width: 3pt; stroke-linejoin:round; stroke-linecap:round;" d="M10.25 53c1.05 0.48 2.98 0.62 4.04 0.48c13.46-1.73 29.46-3.23 41.03-4.48c1.74-0.19 2.81 0.23 3.68 0.47"></path>
<path style="fill:none; fill-opacity:0%; fill-rule:evenodd; stroke:#000000; stroke-opacity:100%; stroke-width: 3pt; stroke-linejoin:round; stroke-linecap:round;" d="M34.72 55.13c0.24 1.09 0.08 2.65-0.21 3.28c-4.51 9.84-9.12 20.11-14.49 27.1c-1.68 2.19-1.43 4.46 1.25 3.66c7.11-2.13 20.56-6.62 30.86-9.9"></path>
<path style="fill:none; fill-opacity:0%; fill-rule:evenodd; stroke:#000000; stroke-opacity:100%; stroke-width: 3pt; stroke-linejoin:round; stroke-linecap:round;" d="M43.78 66.85c3.79 3.25 9.78 13.35 10.72 18.4"></path>
<path style="fill:none; fill-opacity:0%; fill-rule:evenodd; stroke:#000000; stroke-opacity:100%; stroke-width: 3pt; stroke-linejoin:round; stroke-linecap:round;" d="M58.58 24.82c1.43 0.9 3.22 1.16 4.49 0.98c11.19-1.55 19.77-2.62 25.44-3.54c3.68-0.6 5.57 1.23 5.5 4.37c-0.25 12.87-3 47.62-7.79 63.1c-2.59 8.4-5.72 3.77-9.33-0.4"></path>
<text x="5" y="20" font-size="20" fill="#999999">7</text><path style="fill:none; fill-opacity:0%; fill-rule:evenodd; stroke:#CC0000; stroke-opacity:100%; stroke-width: 3pt; stroke-linejoin:round; stroke-linecap:round;" d="M72.01 26.68c0.49 1.82 0.63 4.17 0.4 6.48C70.7 50.25 68 76.75 54.14 94.65" marker-end="url(#TriangleRed)" marker-start="url(#ArrowRed)" ></path>

</g>

</svg>  
          
