<?xml version="1.0" standalone="no"?>
<!DOCTYPE svg PUBLIC "-//W3C//DTD SVG 1.1//EN"   "http://www.w3.org/Graphics/SVG/1.1/DTD/svg11.dtd">
<svg width="751" height="301"  version="1.1" xmlns="http://www.w3.org/2000/svg">
  <defs>
    <marker id="Triangle" viewBox="0 0 10 10" refX="0" refY="5" markerUnits="strokeWidth" markerWidth="3" style="stroke-opacity:0%;fill:#aaaaaa;" markerHeight="2" orient="auto">
      <path d="M 0 0 L 10 5 L 0 10 z" />
    </marker>
    
    <marker id="Arrow" viewBox="0 0 10 10" refX="5" refY="5" markerUnits="strokeWidth" markerWidth="1.8" style="stroke-opacity:0%;fill:#770000;" markerHeight="2" orient="auto">
      <path d="M 0 4 L 6 4 L 4 1 L 10 5 L 4 9 L 6 6 L 0 6 z" />
        <circle cx="5" cy="5" r="5" />
      </marker>
    
    <marker id="TriangleRed" viewBox="0 0 10 10" refX="0" refY="5" markerUnits="strokeWidth" markerWidth="3" style="stroke-opacity:0%;fill:#CC0000;" markerHeight="2" orient="auto">
      <path d="M 0 0 L 10 5 L 0 10 z" />
    </marker>
    
    <marker id="ArrowRed" viewBox="0 0 10 10" refX="5" refY="5" markerUnits="strokeWidth" markerWidth="1.8" style="stroke-opacity:0%;fill:#CC0000;" markerHeight="2" orient="auto">
      <path d="M 0 4 L 6 4 L 4 1 L 10 5 L 4 9 L 6 6 L 0 6 z" />
        <circle cx="5" cy="5" r="5" />
      </marker>
    
  </defs>
  
  <path style="fill:#ffffff; fill-opacity:100%; fill-rule:evenodd; stroke-width:0;" d="M 0 0 L 751 0 L 751 301 L 0 301 L 0 0" />

  <g transform="scale(1.3761467889908 1.3761467889908) translate(0, 0)">
<path style="fill:none; fill-rule:evenodd; stroke:#aaaaaa;  stroke-width:1pt; stroke-linecap:round;" d="m 109 0 L 0 0 L 0 109 L 109 109 L 109 0"></path><path style="fill:none; fill-opacity:0%; fill-rule:evenodd; stroke:#aaaaaa; stroke-opacity:100%; stroke-width: 1.5pt; stroke-linejoin:round; stroke-linecap:round;" d="M40.32 15.25c0.13 0.78-0.24 1.68-0.71 2.22c-3.83 4.42-8.62 8.41-16.86 12.57"></path>
<path style="fill:none; fill-opacity:0%; fill-rule:evenodd; stroke:#aaaaaa; stroke-opacity:100%; stroke-width: 1.5pt; stroke-linejoin:round; stroke-linecap:round;" d="M18.87 30.51c0.81 0.81 1.03 2.11 1.03 3.49c0 3.88-0.08 23.12-0.08 27.22c0 3.53 1.38 3.93 3.51 2.87C27.5 62 36.75 57.75 44 54.25"></path>
<path style="fill:none; fill-opacity:0%; fill-rule:evenodd; stroke:#aaaaaa; stroke-opacity:100%; stroke-width: 1.5pt; stroke-linejoin:round; stroke-linecap:round;" d="M29.02 38.33c2.31 1.92 5.97 7.9 6.54 10.88"></path>
<path style="fill:none; fill-opacity:0%; fill-rule:evenodd; stroke:#aaaaaa; stroke-opacity:100%; stroke-width: 1.5pt; stroke-linejoin:round; stroke-linecap:round;" d="M44.47 30.68c0.78 0.82 1.17 2.03 1.17 4.14c0 16.44 0.36 42.94-15.75 58.84"></path>
<path style="fill:none; fill-opacity:0%; fill-rule:evenodd; stroke:#aaaaaa; stroke-opacity:100%; stroke-width: 1.5pt; stroke-linejoin:round; stroke-linecap:round;" d="M61.75 25.99c1.12 0.51 2.56 1.38 4.28 1.28c4.84-0.28 20.76-2.89 22.9-3.1c2.14-0.21 5.35-0.43 5.56 4.07c0.1 2.15-1.7 26.56-3.92 36.38C88 76 83.94 66.69 83.3 66.26"></path>
<path style="fill:none; fill-opacity:0%; fill-rule:evenodd; stroke:#aaaaaa; stroke-opacity:100%; stroke-width: 1.5pt; stroke-linejoin:round; stroke-linecap:round;" d="M73.52 38.96c2.6 2.17 6.71 8.92 7.36 12.29"></path>
<path style="fill:none; fill-opacity:0%; fill-rule:evenodd; stroke:#aaaaaa; stroke-opacity:100%; stroke-width: 1.5pt; stroke-linejoin:round; stroke-linecap:round;" d="M62.97 27.11c0.96 0.96 1.25 2.49 1.26 3.63c0.02 10.15-0.01 39.72-0.11 55.01c-0.03 4.38-0.06 7.56-0.1 8.75"></path>

<text x="5" y="20" font-size="20" fill="#999999">1</text><path style="fill:none; fill-opacity:0%; fill-rule:evenodd; stroke:#CC0000; stroke-opacity:100%; stroke-width: 3pt; stroke-linejoin:round; stroke-linecap:round;" d="M40.32 15.25c0.13 0.78-0.24 1.68-0.71 2.22c-3.83 4.42-8.62 8.41-16.86 12.57"  ></path>







</g><g transform="scale(1.3761467889908 1.3761467889908) translate(109, 0)">
<path style="fill:none; fill-rule:evenodd; stroke:#aaaaaa;  stroke-width:1pt; stroke-linecap:round;" d="m 109 0 L 0 0 L 0 109 L 109 109 L 109 0"></path><path style="fill:none; fill-opacity:0%; fill-rule:evenodd; stroke:#aaaaaa; stroke-opacity:100%; stroke-width: 1.5pt; stroke-linejoin:round; stroke-linecap:round;" d="M40.32 15.25c0.13 0.78-0.24 1.68-0.71 2.22c-3.83 4.42-8.62 8.41-16.86 12.57"></path>
<path style="fill:none; fill-opacity:0%; fill-rule:evenodd; stroke:#aaaaaa; stroke-opacity:100%; stroke-width: 1.5pt; stroke-linejoin:round; stroke-linecap:round;" d="M18.87 30.51c0.81 0.81 1.03 2.11 1.03 3.49c0 3.88-0.08 23.12-0.08 27.22c0 3.53 1.38 3.93 3.51 2.87C27.5 62 36.75 57.75 44 54.25"></path>
<path style="fill:none; fill-opacity:0%; fill-rule:evenodd; stroke:#aaaaaa; stroke-opacity:100%; stroke-width: 1.5pt; stroke-linejoin:round; stroke-linecap:round;" d="M29.02 38.33c2.31 1.92 5.97 7.9 6.54 10.88"></path>
<path style="fill:none; fill-opacity:0%; fill-rule:evenodd; stroke:#aaaaaa; stroke-opacity:100%; stroke-width: 1.5pt; stroke-linejoin:round; stroke-linecap:round;" d="M44.47 30.68c0.78 0.82 1.17 2.03 1.17 4.14c0 16.44 0.36 42.94-15.75 58.84"></path>
<path style="fill:none; fill-opacity:0%; fill-rule:evenodd; stroke:#aaaaaa; stroke-opacity:100%; stroke-width: 1.5pt; stroke-linejoin:round; stroke-linecap:round;" d="M61.75 25.99c1.12 0.51 2.56 1.38 4.28 1.28c4.84-0.28 20.76-2.89 22.9-3.1c2.14-0.21 5.35-0.43 5.56 4.07c0.1 2.15-1.7 26.56-3.92 36.38C88 76 83.94 66.69 83.3 66.26"></path>
<path style="fill:none; fill-opacity:0%; fill-rule:evenodd; stroke:#aaaaaa; stroke-opacity:100%; stroke-width: 1.5pt; stroke-linejoin:round; stroke-linecap:round;" d="M73.52 38.96c2.6 2.17 6.71 8.92 7.36 12.29"></path>
<path style="fill:none; fill-opacity:0%; fill-rule:evenodd; stroke:#aaaaaa; stroke-opacity:100%; stroke-width: 1.5pt; stroke-linejoin:round; stroke-linecap:round;" d="M62.97 27.11c0.96 0.96 1.25 2.49 1.26 3.63c0.02 10.15-0.01 39.72-0.11 55.01c-0.03 4.38-0.06 7.56-0.1 8.75"></path>

<path style="fill:none; fill-opacity:0%; fill-rule:evenodd; stroke:#000000; stroke-opacity:100%; stroke-width: 3pt; stroke-linejoin:round; stroke-linecap:round;" d="M40.32 15.25c0.13 0.78-0.24 1.68-0.71 2.22c-3.83 4.42-8.62 8.41-16.86 12.57"></path>
<text x="5" y="20" font-size="20" fill="#999999">2</text><path style="fill:none; fill-opacity:0%; fill-rule:evenodd; stroke:#CC0000; stroke-opacity:100%; stroke-width: 3pt; stroke-linejoin:round; stroke-linecap:round;" d="M18.87 30.51c0.81 0.81 1.03 2.11 1.03 3.49c0 3.88-0.08 23.12-0.08 27.22c0 3.53 1.38 3.93 3.51 2.87C27.5 62 36.75 57.75 44 54.25"  ></path>






</g><g transform="scale(1.3761467889908 1.3761467889908) translate(218, 0)">
<path style="fill:none; fill-rule:evenodd; stroke:#aaaaaa;  stroke-width:1pt; stroke-linecap:round;" d="m 109 0 L 0 0 L 0 109 L 109 109 L 109 0"></path><path style="fill:none; fill-opacity:0%; fill-rule:evenodd; stroke:#aaaaaa; stroke-opacity:100%; stroke-width: 1.5pt; stroke-linejoin:round; stroke-linecap:round;" d="M40.32 15.25c0.13 0.78-0.24 1.68-0.71 2.22c-3.83 4.42-8.62 8.41-16.86 12.57"></path>
<path style="fill:none; fill-opacity:0%; fill-rule:evenodd; stroke:#aaaaaa; stroke-opacity:100%; stroke-width: 1.5pt; stroke-linejoin:round; stroke-linecap:round;" d="M18.87 30.51c0.81 0.81 1.03 2.11 1.03 3.49c0 3.88-0.08 23.12-0.08 27.22c0 3.53 1.38 3.93 3.51 2.87C27.5 62 36.75 57.75 44 54.25"></path>
<path style="fill:none; fill-opacity:0%; fill-rule:evenodd; stroke:#aaaaaa; stroke-opacity:100%; stroke-width: 1.5pt; stroke-linejoin:round; stroke-linecap:round;" d="M29.02 38.33c2.31 1.92 5.97 7.9 6.54 10.88"></path>
<path style="fill:none; fill-opacity:0%; fill-rule:evenodd; stroke:#aaaaaa; stroke-opacity:100%; stroke-width: 1.5pt; stroke-linejoin:round; stroke-linecap:round;" d="M44.47 30.68c0.78 0.82 1.17 2.03 1.17 4.14c0 16.44 0.36 42.94-15.75 58.84"></path>
<path style="fill:none; fill-opacity:0%; fill-rule:evenodd; stroke:#aaaaaa; stroke-opacity:100%; stroke-width: 1.5pt; stroke-linejoin:round; stroke-linecap:round;" d="M61.75 25.99c1.12 0.51 2.56 1.38 4.28 1.28c4.84-0.28 20.76-2.89 22.9-3.1c2.14-0.21 5.35-0.43 5.56 4.07c0.1 2.15-1.7 26.56-3.92 36.38C88 76 83.94 66.69 83.3 66.26"></path>
<path style="fill:none; fill-opacity:0%; fill-rule:evenodd; stroke:#aaaaaa; stroke-opacity:100%; stroke-width: 1.5pt; stroke-linejoin:round; stroke-linecap:round;" d="M73.52 38.96c2.6 2.17 6.71 8.92 7.36 12.29"></path>
<path style="fill:none; fill-opacity:0%; fill-rule:evenodd; stroke:#aaaaaa; stroke-opacity:100%; stroke-width: 1.5pt; stroke-linejoin:round; stroke-linecap:round;" d="M62.97 27.11c0.96 0.96 1.25 2.49 1.26 3.63c0.02 10.15-0.01 39.72-0.11 55.01c-0.03 4.38-0.06 7.56-0.1 8.75"></path>

<path style="fill:none; fill-opacity:0%; fill-rule:evenodd; stroke:#000000; stroke-opacity:100%; stroke-width: 3pt; stroke-linejoin:round; stroke-linecap:round;" d="M40.32 15.25c0.13 0.78-0.24 1.68-0.71 2.22c-3.83 4.42-8.62 8.41-16.86 12.57"></path>
<path style="fill:none; fill-opacity:0%; fill-rule:evenodd; stroke:#000000; stroke-opacity:100%; stroke-width: 3pt; stroke-linejoin:round; stroke-linecap:round;" d="M18.87 30.51c0.81 0.81 1.03 2.11 1.03 3.49c0 3.88-0.08 23.12-0.08 27.22c0 3.53 1.38 3.93 3.51 2.87C27.5 62 36.75 57.75 44 54.25"></path>
<text x="5" y="20" font-size="20" fill="#999999">3</text><path style="fill:none; fill-opacity:0%; fill-rule:evenodd; stroke:#CC0000; stroke-opacity:100%; stroke-width: 3pt; stroke-linejoin:round; stroke-linecap:round;" d="M29.02 38.33c2.31 1.92 5.97 7.9 6.54 10.88"  ></path>





</g><g transform="scale(1.3761467889908 1.3761467889908) translate(327, 0)">
<path style="fill:none; fill-rule:evenodd; stroke:#aaaaaa;  stroke-width:1pt; stroke-linecap:round;" d="m 109 0 L 0 0 L 0 109 L 109 109 L 109 0"></path><path style="fill:none; fill-opacity:0%; fill-rule:evenodd; stroke:#aaaaaa; stroke-opacity:100%; stroke-width: 1.5pt; stroke-linejoin:round; stroke-linecap:round;" d="M40.32 15.25c0.13 0.78-0.24 1.68-0.71 2.22c-3.83 4.42-8.62 8.41-16.86 12.57"></path>
<path style="fill:none; fill-opacity:0%; fill-rule:evenodd; stroke:#aaaaaa; stroke-opacity:100%; stroke-width: 1.5pt; stroke-linejoin:round; stroke-linecap:round;" d="M18.87 30.51c0.81 0.81 1.03 2.11 1.03 3.49c0 3.88-0.08 23.12-0.08 27.22c0 3.53 1.38 3.93 3.51 2.87C27.5 62 36.75 57.75 44 54.25"></path>
<path style="fill:none; fill-opacity:0%; fill-rule:evenodd; stroke:#aaaaaa; stroke-opacity:100%; stroke-width: 1.5pt; stroke-linejoin:round; stroke-linecap:round;" d="M29.02 38.33c2.31 1.92 5.97 7.9 6.54 10.88"></path>
<path style="fill:none; fill-opacity:0%; fill-rule:evenodd; stroke:#aaaaaa; stroke-opacity:100%; stroke-width: 1.5pt; stroke-linejoin:round; stroke-linecap:round;" d="M44.47 30.68c0.78 0.82 1.17 2.03 1.17 4.14c0 16.44 0.36 42.94-15.75 58.84"></path>
<path style="fill:none; fill-opacity:0%; fill-rule:evenodd; stroke:#aaaaaa; stroke-opacity:100%; stroke-width: 1.5pt; stroke-linejoin:round; stroke-linecap:round;" d="M61.75 25.99c1.12 0.51 2.56 1.38 4.28 1.28c4.84-0.28 20.76-2.89 22.9-3.1c2.14-0.21 5.35-0.43 5.56 4.07c0.1 2.15-1.7 26.56-3.92 36.38C88 76 83.94 66.69 83.3 66.26"></path>
<path style="fill:none; fill-opacity:0%; fill-rule:evenodd; stroke:#aaaaaa; stroke-opacity:100%; stroke-width: 1.5pt; stroke-linejoin:round; stroke-linecap:round;" d="M73.52 38.96c2.6 2.17 6.71 8.92 7.36 12.29"></path>
<path style="fill:none; fill-opacity:0%; fill-rule:evenodd; stroke:#aaaaaa; stroke-opacity:100%; stroke-width: 1.5pt; stroke-linejoin:round; stroke-linecap:round;" d="M62.97 27.11c0.96 0.96 1.25 2.49 1.26 3.63c0.02 10.15-0.01 39.72-0.11 55.01c-0.03 4.38-0.06 7.56-0.1 8.75"></path>

<path style="fill:none; fill-opacity:0%; fill-rule:evenodd; stroke:#000000; stroke-opacity:100%; stroke-width: 3pt; stroke-linejoin:round; stroke-linecap:round;" d="M40.32 15.25c0.13 0.78-0.24 1.68-0.71 2.22c-3.83 4.42-8.62 8.41-16.86 12.57"></path>
<path style="fill:none; fill-opacity:0%; fill-rule:evenodd; stroke:#000000; stroke-opacity:100%; stroke-width: 3pt; stroke-linejoin:round; stroke-linecap:round;" d="M18.87 30.51c0.81 0.81 1.03 2.11 1.03 3.49c0 3.88-0.08 23.12-0.08 27.22c0 3.53 1.38 3.93 3.51 2.87C27.5 62 36.75 57.75 44 54.25"></path>
<path style="fill:none; fill-opacity:0%; fill-rule:evenodd; stroke:#000000; stroke-opacity:100%; stroke-width: 3pt; stroke-linejoin:round; stroke-linecap:round;" d="M29.02 38.33c2.31 1.92 5.97 7.9 6.54 10.88"></path>
<text x="5" y="20" font-size="20" fill="#999999">4</text><path style="fill:none; fill-opacity:0%; fill-rule:evenodd; stroke:#CC0000; stroke-opacity:100%; stroke-width: 3pt; stroke-linejoin:round; stroke-linecap:round;" d="M44.47 30.68c0.78 0.82 1.17 2.03 1.17 4.14c0 16.44 0.36 42.94-15.75 58.84"  ></path>




</g><g transform="scale(1.3761467889908 1.3761467889908) translate(436, 0)">
<path style="fill:none; fill-rule:evenodd; stroke:#aaaaaa;  stroke-width:1pt; stroke-linecap:round;" d="m 109 0 L 0 0 L 0 109 L 109 109 L 109 0"></path><path style="fill:none; fill-opacity:0%; fill-rule:evenodd; stroke:#aaaaaa; stroke-opacity:100%; stroke-width: 1.5pt; stroke-linejoin:round; stroke-linecap:round;" d="M40.32 15.25c0.13 0.78-0.24 1.68-0.71 2.22c-3.83 4.42-8.62 8.41-16.86 12.57"></path>
<path style="fill:none; fill-opacity:0%; fill-rule:evenodd; stroke:#aaaaaa; stroke-opacity:100%; stroke-width: 1.5pt; stroke-linejoin:round; stroke-linecap:round;" d="M18.87 30.51c0.81 0.81 1.03 2.11 1.03 3.49c0 3.88-0.08 23.12-0.08 27.22c0 3.53 1.38 3.93 3.51 2.87C27.5 62 36.75 57.75 44 54.25"></path>
<path style="fill:none; fill-opacity:0%; fill-rule:evenodd; stroke:#aaaaaa; stroke-opacity:100%; stroke-width: 1.5pt; stroke-linejoin:round; stroke-linecap:round;" d="M29.02 38.33c2.31 1.92 5.97 7.9 6.54 10.88"></path>
<path style="fill:none; fill-opacity:0%; fill-rule:evenodd; stroke:#aaaaaa; stroke-opacity:100%; stroke-width: 1.5pt; stroke-linejoin:round; stroke-linecap:round;" d="M44.47 30.68c0.78 0.82 1.17 2.03 1.17 4.14c0 16.44 0.36 42.94-15.75 58.84"></path>
<path style="fill:none; fill-opacity:0%; fill-rule:evenodd; stroke:#aaaaaa; stroke-opacity:100%; stroke-width: 1.5pt; stroke-linejoin:round; stroke-linecap:round;" d="M61.75 25.99c1.12 0.51 2.56 1.38 4.28 1.28c4.84-0.28 20.76-2.89 22.9-3.1c2.14-0.21 5.35-0.43 5.56 4.07c0.1 2.15-1.7 26.56-3.92 36.38C88 76 83.94 66.69 83.3 66.26"></path>
<path style="fill:none; fill-opacity:0%; fill-rule:evenodd; stroke:#aaaaaa; stroke-opacity:100%; stroke-width: 1.5pt; stroke-linejoin:round; stroke-linecap:round;" d="M73.52 38.96c2.6 2.17 6.71 8.92 7.36 12.29"></path>
<path style="fill:none; fill-opacity:0%; fill-rule:evenodd; stroke:#aaaaaa; stroke-opacity:100%; stroke-width: 1.5pt; stroke-linejoin:round; stroke-linecap:round;" d="M62.97 27.11c0.96 0.96 1.25 2.49 1.26 3.63c0.02 10.15-0.01 39.72-0.11 55.01c-0.03 4.38-0.06 7.56-0.1 8.75"></path>

<path style="fill:none; fill-opacity:0%; fill-rule:evenodd; stroke:#000000; stroke-opacity:100%; stroke-width: 3pt; stroke-linejoin:round; stroke-linecap:round;" d="M40.32 15.25c0.13 0.78-0.24 1.68-0.71 2.22c-3.83 4.42-8.62 8.41-16.86 12.57"></path>
<path style="fill:none; fill-opacity:0%; fill-rule:evenodd; stroke:#000000; stroke-opacity:100%; stroke-width: 3pt; stroke-linejoin:round; stroke-linecap:round;" d="M18.87 30.51c0.81 0.81 1.03 2.11 1.03 3.49c0 3.88-0.08 23.12-0.08 27.22c0 3.53 1.38 3.93 3.51 2.87C27.5 62 36.75 57.75 44 54.25"></path>
<path style="fill:none; fill-opacity:0%; fill-rule:evenodd; stroke:#000000; stroke-opacity:100%; stroke-width: 3pt; stroke-linejoin:round; stroke-linecap:round;" d="M29.02 38.33c2.31 1.92 5.97 7.9 6.54 10.88"></path>
<path style="fill:none; fill-opacity:0%; fill-rule:evenodd; stroke:#000000; stroke-opacity:100%; stroke-width: 3pt; stroke-linejoin:round; stroke-linecap:round;" d="M44.47 30.68c0.78 0.82 1.17 2.03 1.17 4.14c0 16.44 0.36 42.94-15.75 58.84"></path>
<text x="5" y="20" font-size="20" fill="#999999">5</text><path style="fill:none; fill-opacity:0%; fill-rule:evenodd; stroke:#CC0000; stroke-opacity:100%; stroke-width: 3pt; stroke-linejoin:round; stroke-linecap:round;" d="M61.75 25.99c1.12 0.51 2.56 1.38 4.28 1.28c4.84-0.28 20.76-2.89 22.9-3.1c2.14-0.21 5.35-0.43 5.56 4.07c0.1 2.15-1.7 26.56-3.92 36.38C88 76 83.94 66.69 83.3 66.26"  ></path>



</g><g transform="scale(1.3761467889908 1.3761467889908) translate(0, 109)">
<path style="fill:none; fill-rule:evenodd; stroke:#aaaaaa;  stroke-width:1pt; stroke-linecap:round;" d="m 109 0 L 0 0 L 0 109 L 109 109 L 109 0"></path><path style="fill:none; fill-opacity:0%; fill-rule:evenodd; stroke:#aaaaaa; stroke-opacity:100%; stroke-width: 1.5pt; stroke-linejoin:round; stroke-linecap:round;" d="M40.32 15.25c0.13 0.78-0.24 1.68-0.71 2.22c-3.83 4.42-8.62 8.41-16.86 12.57"></path>
<path style="fill:none; fill-opacity:0%; fill-rule:evenodd; stroke:#aaaaaa; stroke-opacity:100%; stroke-width: 1.5pt; stroke-linejoin:round; stroke-linecap:round;" d="M18.87 30.51c0.81 0.81 1.03 2.11 1.03 3.49c0 3.88-0.08 23.12-0.08 27.22c0 3.53 1.38 3.93 3.51 2.87C27.5 62 36.75 57.75 44 54.25"></path>
<path style="fill:none; fill-opacity:0%; fill-rule:evenodd; stroke:#aaaaaa; stroke-opacity:100%; stroke-width: 1.5pt; stroke-linejoin:round; stroke-linecap:round;" d="M29.02 38.33c2.31 1.92 5.97 7.9 6.54 10.88"></path>
<path style="fill:none; fill-opacity:0%; fill-rule:evenodd; stroke:#aaaaaa; stroke-opacity:100%; stroke-width: 1.5pt; stroke-linejoin:round; stroke-linecap:round;" d="M44.47 30.68c0.78 0.82 1.17 2.03 1.17 4.14c0 16.44 0.36 42.94-15.75 58.84"></path>
<path style="fill:none; fill-opacity:0%; fill-rule:evenodd; stroke:#aaaaaa; stroke-opacity:100%; stroke-width: 1.5pt; stroke-linejoin:round; stroke-linecap:round;" d="M61.75 25.99c1.12 0.51 2.56 1.38 4.28 1.28c4.84-0.28 20.76-2.89 22.9-3.1c2.14-0.21 5.35-0.43 5.56 4.07c0.1 2.15-1.7 26.56-3.92 36.38C88 76 83.94 66.69 83.3 66.26"></path>
<path style="fill:none; fill-opacity:0%; fill-rule:evenodd; stroke:#aaaaaa; stroke-opacity:100%; stroke-width: 1.5pt; stroke-linejoin:round; stroke-linecap:round;" d="M73.52 38.96c2.6 2.17 6.71 8.92 7.36 12.29"></path>
<path style="fill:none; fill-opacity:0%; fill-rule:evenodd; stroke:#aaaaaa; stroke-opacity:100%; stroke-width: 1.5pt; stroke-linejoin:round; stroke-linecap:round;" d="M62.97 27.11c0.96 0.96 1.25 2.49 1.26 3.63c0.02 10.15-0.01 39.72-0.11 55.01c-0.03 4.38-0.06 7.56-0.1 8.75"></path>

<path style="fill:none; fill-opacity:0%; fill-rule:evenodd; stroke:#000000; stroke-opacity:100%; stroke-width: 3pt; stroke-linejoin:round; stroke-linecap:round;" d="M40.32 15.25c0.13 0.78-0.24 1.68-0.71 2.22c-3.83 4.42-8.62 8.41-16.86 12.57"></path>
<path style="fill:none; fill-opacity:0%; fill-rule:evenodd; stroke:#000000; stroke-opacity:100%; stroke-width: 3pt; stroke-linejoin:round; stroke-linecap:round;" d="M18.87 30.51c0.81 0.81 1.03 2.11 1.03 3.49c0 3.88-0.08 23.12-0.08 27.22c0 3.53 1.38 3.93 3.51 2.87C27.5 62 36.75 57.75 44 54.25"></path>
<path style="fill:none; fill-opacity:0%; fill-rule:evenodd; stroke:#000000; stroke-opacity:100%; stroke-width: 3pt; stroke-linejoin:round; stroke-linecap:round;" d="M29.02 38.33c2.31 1.92 5.97 7.9 6.54 10.88"></path>
<path style="fill:none; fill-opacity:0%; fill-rule:evenodd; stroke:#000000; stroke-opacity:100%; stroke-width: 3pt; stroke-linejoin:round; stroke-linecap:round;" d="M44.47 30.68c0.78 0.82 1.17 2.03 1.17 4.14c0 16.44 0.36 42.94-15.75 58.84"></path>
<path style="fill:none; fill-opacity:0%; fill-rule:evenodd; stroke:#000000; stroke-opacity:100%; stroke-width: 3pt; stroke-linejoin:round; stroke-linecap:round;" d="M61.75 25.99c1.12 0.51 2.56 1.38 4.28 1.28c4.84-0.28 20.76-2.89 22.9-3.1c2.14-0.21 5.35-0.43 5.56 4.07c0.1 2.15-1.7 26.56-3.92 36.38C88 76 83.94 66.69 83.3 66.26"></path>
<text x="5" y="20" font-size="20" fill="#999999">6</text><path style="fill:none; fill-opacity:0%; fill-rule:evenodd; stroke:#CC0000; stroke-opacity:100%; stroke-width: 3pt; stroke-linejoin:round; stroke-linecap:round;" d="M73.52 38.96c2.6 2.17 6.71 8.92 7.36 12.29"  ></path>


</g><g transform="scale(1.3761467889908 1.3761467889908) translate(109, 109)">
<path style="fill:none; fill-rule:evenodd; stroke:#aaaaaa;  stroke-width:1pt; stroke-linecap:round;" d="m 109 0 L 0 0 L 0 109 L 109 109 L 109 0"></path><path style="fill:none; fill-opacity:0%; fill-rule:evenodd; stroke:#aaaaaa; stroke-opacity:100%; stroke-width: 1.5pt; stroke-linejoin:round; stroke-linecap:round;" d="M40.32 15.25c0.13 0.78-0.24 1.68-0.71 2.22c-3.83 4.42-8.62 8.41-16.86 12.57"></path>
<path style="fill:none; fill-opacity:0%; fill-rule:evenodd; stroke:#aaaaaa; stroke-opacity:100%; stroke-width: 1.5pt; stroke-linejoin:round; stroke-linecap:round;" d="M18.87 30.51c0.81 0.81 1.03 2.11 1.03 3.49c0 3.88-0.08 23.12-0.08 27.22c0 3.53 1.38 3.93 3.51 2.87C27.5 62 36.75 57.75 44 54.25"></path>
<path style="fill:none; fill-opacity:0%; fill-rule:evenodd; stroke:#aaaaaa; stroke-opacity:100%; stroke-width: 1.5pt; stroke-linejoin:round; stroke-linecap:round;" d="M29.02 38.33c2.31 1.92 5.97 7.9 6.54 10.88"></path>
<path style="fill:none; fill-opacity:0%; fill-rule:evenodd; stroke:#aaaaaa; stroke-opacity:100%; stroke-width: 1.5pt; stroke-linejoin:round; stroke-linecap:round;" d="M44.47 30.68c0.78 0.82 1.17 2.03 1.17 4.14c0 16.44 0.36 42.94-15.75 58.84"></path>
<path style="fill:none; fill-opacity:0%; fill-rule:evenodd; stroke:#aaaaaa; stroke-opacity:100%; stroke-width: 1.5pt; stroke-linejoin:round; stroke-linecap:round;" d="M61.75 25.99c1.12 0.51 2.56 1.38 4.28 1.28c4.84-0.28 20.76-2.89 22.9-3.1c2.14-0.21 5.35-0.43 5.56 4.07c0.1 2.15-1.7 26.56-3.92 36.38C88 76 83.94 66.69 83.3 66.26"></path>
<path style="fill:none; fill-opacity:0%; fill-rule:evenodd; stroke:#aaaaaa; stroke-opacity:100%; stroke-width: 1.5pt; stroke-linejoin:round; stroke-linecap:round;" d="M73.52 38.96c2.6 2.17 6.71 8.92 7.36 12.29"></path>
<path style="fill:none; fill-opacity:0%; fill-rule:evenodd; stroke:#aaaaaa; stroke-opacity:100%; stroke-width: 1.5pt; stroke-linejoin:round; stroke-linecap:round;" d="M62.97 27.11c0.96 0.96 1.25 2.49 1.26 3.63c0.02 10.15-0.01 39.72-0.11 55.01c-0.03 4.38-0.06 7.56-0.1 8.75"></path>

<path style="fill:none; fill-opacity:0%; fill-rule:evenodd; stroke:#000000; stroke-opacity:100%; stroke-width: 3pt; stroke-linejoin:round; stroke-linecap:round;" d="M40.32 15.25c0.13 0.78-0.24 1.68-0.71 2.22c-3.83 4.42-8.62 8.41-16.86 12.57"></path>
<path style="fill:none; fill-opacity:0%; fill-rule:evenodd; stroke:#000000; stroke-opacity:100%; stroke-width: 3pt; stroke-linejoin:round; stroke-linecap:round;" d="M18.87 30.51c0.81 0.81 1.03 2.11 1.03 3.49c0 3.88-0.08 23.12-0.08 27.22c0 3.53 1.38 3.93 3.51 2.87C27.5 62 36.75 57.75 44 54.25"></path>
<path style="fill:none; fill-opacity:0%; fill-rule:evenodd; stroke:#000000; stroke-opacity:100%; stroke-width: 3pt; stroke-linejoin:round; stroke-linecap:round;" d="M29.02 38.33c2.31 1.92 5.97 7.9 6.54 10.88"></path>
<path style="fill:none; fill-opacity:0%; fill-rule:evenodd; stroke:#000000; stroke-opacity:100%; stroke-width: 3pt; stroke-linejoin:round; stroke-linecap:round;" d="M44.47 30.68c0.78 0.82 1.17 2.03 1.17 4.14c0 16.44 0.36 42.94-15.75 58.84"></path>
<path style="fill:none; fill-opacity:0%; fill-rule:evenodd; stroke:#000000; stroke-opacity:100%; stroke-width: 3pt; stroke-linejoin:round; stroke-linecap:round;" d="M61.75 25.99c1.12 0.51 2.56 1.38 4.28 1.28c4.84-0.28 20.76-2.89 22.9-3.1c2.14-0.21 5.35-0.43 5.56 4.07c0.1 2.15-1.7 26.56-3.92 36.38C88 76 83.94 66.69 83.3 66.26"></path>
<path style="fill:none; fill-opacity:0%; fill-rule:evenodd; stroke:#000000; stroke-opacity:100%; stroke-width: 3pt; stroke-linejoin:round; stroke-linecap:round;" d="M73.52 38.96c2.6 2.17 6.71 8.92 7.36 12.29"></path>
<text x="5" y="20" font-size="20" fill="#999999">7</text><path style="fill:none; fill-opacity:0%; fill-rule:evenodd; stroke:#CC0000; stroke-opacity:100%; stroke-width: 3pt; stroke-linejoin:round; stroke-linecap:round;" d="M62.97 27.11c0.96 0.96 1.25 2.49 1.26 3.63c0.02 10.15-0.01 39.72-0.11 55.01c-0.03 4.38-0.06 7.56-0.1 8.75"  ></path>

</g>

</svg>  
          
