<?xml version="1.0" standalone="no"?>
<!DOCTYPE svg PUBLIC "-//W3C//DTD SVG 1.1//EN"   "http://www.w3.org/Graphics/SVG/1.1/DTD/svg11.dtd">
<svg width="751" height="301"  version="1.1" xmlns="http://www.w3.org/2000/svg">
  <defs>
    <marker id="Triangle" viewBox="0 0 10 10" refX="0" refY="5" markerUnits="strokeWidth" markerWidth="3" style="stroke-opacity:0%;fill:#aaaaaa;" markerHeight="2" orient="auto">
      <path d="M 0 0 L 10 5 L 0 10 z" />
    </marker>
    
    <marker id="Arrow" viewBox="0 0 10 10" refX="5" refY="5" markerUnits="strokeWidth" markerWidth="1.8" style="stroke-opacity:0%;fill:#770000;" markerHeight="2" orient="auto">
      <path d="M 0 4 L 6 4 L 4 1 L 10 5 L 4 9 L 6 6 L 0 6 z" />
        <circle cx="5" cy="5" r="5" />
      </marker>
    
    <marker id="TriangleRed" viewBox="0 0 10 10" refX="0" refY="5" markerUnits="strokeWidth" markerWidth="3" style="stroke-opacity:0%;fill:#CC0000;" markerHeight="2" orient="auto">
      <path d="M 0 0 L 10 5 L 0 10 z" />
    </marker>
    
    <marker id="ArrowRed" viewBox="0 0 10 10" refX="5" refY="5" markerUnits="strokeWidth" markerWidth="1.8" style="stroke-opacity:0%;fill:#CC0000;" markerHeight="2" orient="auto">
      <path d="M 0 4 L 6 4 L 4 1 L 10 5 L 4 9 L 6 6 L 0 6 z" />
        <circle cx="5" cy="5" r="5" />
      </marker>
    
  </defs>
  
  <path style="fill:#ffffff; fill-opacity:100%; fill-rule:evenodd; stroke-width:0;" d="M 0 0 L 751 0 L 751 301 L 0 301 L 0 0" />

  <g transform="scale(1.3761467889908 1.3761467889908) translate(0, 0)">
<path style="fill:none; fill-rule:evenodd; stroke:#aaaaaa;  stroke-width:1pt; stroke-linecap:round;" d="m 109 0 L 0 0 L 0 109 L 109 109 L 109 0"></path><path style="fill:none; fill-opacity:0%; fill-rule:evenodd; stroke:#aaaaaa; stroke-opacity:100%; stroke-width: 1.5pt; stroke-linejoin:round; stroke-linecap:round;" d="M10.25 33.29c0.37 0.51 0.76 0.94 0.92 1.58c1.29 5.07 3.34 18.54 4.23 27.63"></path>
<path style="fill:none; fill-opacity:0%; fill-rule:evenodd; stroke:#aaaaaa; stroke-opacity:100%; stroke-width: 1.5pt; stroke-linejoin:round; stroke-linecap:round;" d="M12.58 35.72c9.42-2.22 16.55-3.56 20.92-4.23c1.6-0.24 2.56 1.44 2.33 2.87c-0.95 5.92-3.05 13.07-4.46 21.25"></path>
<path style="fill:none; fill-opacity:0%; fill-rule:evenodd; stroke:#aaaaaa; stroke-opacity:100%; stroke-width: 1.5pt; stroke-linejoin:round; stroke-linecap:round;" d="M15.57 58.55c5.14-0.75 11.33-1.05 18.39-2.21"></path>
<path style="fill:none; fill-opacity:0%; fill-rule:evenodd; stroke:#aaaaaa; stroke-opacity:100%; stroke-width: 1.5pt; stroke-linejoin:round; stroke-linecap:round;" d="M82.77 11.5c0.08 0.37 0.33 1.09-0.16 1.48c-6.71 5.43-15.28 9.54-29.42 14.21"></path>
<path style="fill:none; fill-opacity:0%; fill-rule:evenodd; stroke:#aaaaaa; stroke-opacity:100%; stroke-width: 1.5pt; stroke-linejoin:round; stroke-linecap:round;" d="M49.42 25.33c1.02 1.96 1 3.84 1 5.98c0 21.16-0.42 44.94-14.62 57.71"></path>
<path style="fill:none; fill-opacity:0%; fill-rule:evenodd; stroke:#aaaaaa; stroke-opacity:100%; stroke-width: 1.5pt; stroke-linejoin:round; stroke-linecap:round;" d="M52.59 45.35c0.53 0.2 2.63 0.34 4.04 0.12c7.81-1.26 25.44-3.59 34.33-4.21c1.43-0.1 3.9-0.2 4.79 0"></path>
<path style="fill:none; fill-opacity:0%; fill-rule:evenodd; stroke:#aaaaaa; stroke-opacity:100%; stroke-width: 1.5pt; stroke-linejoin:round; stroke-linecap:round;" d="M73.18 45.98c0.94 0.63 1.5 2.84 1.69 4.1c0.19 1.26 0 40.54-0.19 48.42"></path>

<text x="5" y="20" font-size="20" fill="#999999">1</text><path style="fill:none; fill-opacity:0%; fill-rule:evenodd; stroke:#CC0000; stroke-opacity:100%; stroke-width: 3pt; stroke-linejoin:round; stroke-linecap:round;" d="M10.25 33.29c0.37 0.51 0.76 0.94 0.92 1.58c1.29 5.07 3.34 18.54 4.23 27.63" marker-end="url(#TriangleRed)" marker-start="url(#ArrowRed)" ></path>







</g><g transform="scale(1.3761467889908 1.3761467889908) translate(109, 0)">
<path style="fill:none; fill-rule:evenodd; stroke:#aaaaaa;  stroke-width:1pt; stroke-linecap:round;" d="m 109 0 L 0 0 L 0 109 L 109 109 L 109 0"></path><path style="fill:none; fill-opacity:0%; fill-rule:evenodd; stroke:#aaaaaa; stroke-opacity:100%; stroke-width: 1.5pt; stroke-linejoin:round; stroke-linecap:round;" d="M10.25 33.29c0.37 0.51 0.76 0.94 0.92 1.58c1.29 5.07 3.34 18.54 4.23 27.63"></path>
<path style="fill:none; fill-opacity:0%; fill-rule:evenodd; stroke:#aaaaaa; stroke-opacity:100%; stroke-width: 1.5pt; stroke-linejoin:round; stroke-linecap:round;" d="M12.58 35.72c9.42-2.22 16.55-3.56 20.92-4.23c1.6-0.24 2.56 1.44 2.33 2.87c-0.95 5.92-3.05 13.07-4.46 21.25"></path>
<path style="fill:none; fill-opacity:0%; fill-rule:evenodd; stroke:#aaaaaa; stroke-opacity:100%; stroke-width: 1.5pt; stroke-linejoin:round; stroke-linecap:round;" d="M15.57 58.55c5.14-0.75 11.33-1.05 18.39-2.21"></path>
<path style="fill:none; fill-opacity:0%; fill-rule:evenodd; stroke:#aaaaaa; stroke-opacity:100%; stroke-width: 1.5pt; stroke-linejoin:round; stroke-linecap:round;" d="M82.77 11.5c0.08 0.37 0.33 1.09-0.16 1.48c-6.71 5.43-15.28 9.54-29.42 14.21"></path>
<path style="fill:none; fill-opacity:0%; fill-rule:evenodd; stroke:#aaaaaa; stroke-opacity:100%; stroke-width: 1.5pt; stroke-linejoin:round; stroke-linecap:round;" d="M49.42 25.33c1.02 1.96 1 3.84 1 5.98c0 21.16-0.42 44.94-14.62 57.71"></path>
<path style="fill:none; fill-opacity:0%; fill-rule:evenodd; stroke:#aaaaaa; stroke-opacity:100%; stroke-width: 1.5pt; stroke-linejoin:round; stroke-linecap:round;" d="M52.59 45.35c0.53 0.2 2.63 0.34 4.04 0.12c7.81-1.26 25.44-3.59 34.33-4.21c1.43-0.1 3.9-0.2 4.79 0"></path>
<path style="fill:none; fill-opacity:0%; fill-rule:evenodd; stroke:#aaaaaa; stroke-opacity:100%; stroke-width: 1.5pt; stroke-linejoin:round; stroke-linecap:round;" d="M73.18 45.98c0.94 0.63 1.5 2.84 1.69 4.1c0.19 1.26 0 40.54-0.19 48.42"></path>

<path style="fill:none; fill-opacity:0%; fill-rule:evenodd; stroke:#000000; stroke-opacity:100%; stroke-width: 3pt; stroke-linejoin:round; stroke-linecap:round;" d="M10.25 33.29c0.37 0.51 0.76 0.94 0.92 1.58c1.29 5.07 3.34 18.54 4.23 27.63"></path>
<text x="5" y="20" font-size="20" fill="#999999">2</text><path style="fill:none; fill-opacity:0%; fill-rule:evenodd; stroke:#CC0000; stroke-opacity:100%; stroke-width: 3pt; stroke-linejoin:round; stroke-linecap:round;" d="M12.58 35.72c9.42-2.22 16.55-3.56 20.92-4.23c1.6-0.24 2.56 1.44 2.33 2.87c-0.95 5.92-3.05 13.07-4.46 21.25" marker-end="url(#TriangleRed)" marker-start="url(#ArrowRed)" ></path>






</g><g transform="scale(1.3761467889908 1.3761467889908) translate(218, 0)">
<path style="fill:none; fill-rule:evenodd; stroke:#aaaaaa;  stroke-width:1pt; stroke-linecap:round;" d="m 109 0 L 0 0 L 0 109 L 109 109 L 109 0"></path><path style="fill:none; fill-opacity:0%; fill-rule:evenodd; stroke:#aaaaaa; stroke-opacity:100%; stroke-width: 1.5pt; stroke-linejoin:round; stroke-linecap:round;" d="M10.25 33.29c0.37 0.51 0.76 0.94 0.92 1.58c1.29 5.07 3.34 18.54 4.23 27.63"></path>
<path style="fill:none; fill-opacity:0%; fill-rule:evenodd; stroke:#aaaaaa; stroke-opacity:100%; stroke-width: 1.5pt; stroke-linejoin:round; stroke-linecap:round;" d="M12.58 35.72c9.42-2.22 16.55-3.56 20.92-4.23c1.6-0.24 2.56 1.44 2.33 2.87c-0.95 5.92-3.05 13.07-4.46 21.25"></path>
<path style="fill:none; fill-opacity:0%; fill-rule:evenodd; stroke:#aaaaaa; stroke-opacity:100%; stroke-width: 1.5pt; stroke-linejoin:round; stroke-linecap:round;" d="M15.57 58.55c5.14-0.75 11.33-1.05 18.39-2.21"></path>
<path style="fill:none; fill-opacity:0%; fill-rule:evenodd; stroke:#aaaaaa; stroke-opacity:100%; stroke-width: 1.5pt; stroke-linejoin:round; stroke-linecap:round;" d="M82.77 11.5c0.08 0.37 0.33 1.09-0.16 1.48c-6.71 5.43-15.28 9.54-29.42 14.21"></path>
<path style="fill:none; fill-opacity:0%; fill-rule:evenodd; stroke:#aaaaaa; stroke-opacity:100%; stroke-width: 1.5pt; stroke-linejoin:round; stroke-linecap:round;" d="M49.42 25.33c1.02 1.96 1 3.84 1 5.98c0 21.16-0.42 44.94-14.62 57.71"></path>
<path style="fill:none; fill-opacity:0%; fill-rule:evenodd; stroke:#aaaaaa; stroke-opacity:100%; stroke-width: 1.5pt; stroke-linejoin:round; stroke-linecap:round;" d="M52.59 45.35c0.53 0.2 2.63 0.34 4.04 0.12c7.81-1.26 25.44-3.59 34.33-4.21c1.43-0.1 3.9-0.2 4.79 0"></path>
<path style="fill:none; fill-opacity:0%; fill-rule:evenodd; stroke:#aaaaaa; stroke-opacity:100%; stroke-width: 1.5pt; stroke-linejoin:round; stroke-linecap:round;" d="M73.18 45.98c0.94 0.63 1.5 2.84 1.69 4.1c0.19 1.26 0 40.54-0.19 48.42"></path>

<path style="fill:none; fill-opacity:0%; fill-rule:evenodd; stroke:#000000; stroke-opacity:100%; stroke-width: 3pt; stroke-linejoin:round; stroke-linecap:round;" d="M10.25 33.29c0.37 0.51 0.76 0.94 0.92 1.58c1.29 5.07 3.34 18.54 4.23 27.63"></path>
<path style="fill:none; fill-opacity:0%; fill-rule:evenodd; stroke:#000000; stroke-opacity:100%; stroke-width: 3pt; stroke-linejoin:round; stroke-linecap:round;" d="M12.58 35.72c9.42-2.22 16.55-3.56 20.92-4.23c1.6-0.24 2.56 1.44 2.33 2.87c-0.95 5.92-3.05 13.07-4.46 21.25"></path>
<text x="5" y="20" font-size="20" fill="#999999">3</text><path style="fill:none; fill-opacity:0%; fill-rule:evenodd; stroke:#CC0000; stroke-opacity:100%; stroke-width: 3pt; stroke-linejoin:round; stroke-linecap:round;" d="M15.57 58.55c5.14-0.75 11.33-1.05 18.39-2.21" marker-end="url(#TriangleRed)" marker-start="url(#ArrowRed)" ></path>





</g><g transform="scale(1.3761467889908 1.3761467889908) translate(327, 0)">
<path style="fill:none; fill-rule:evenodd; stroke:#aaaaaa;  stroke-width:1pt; stroke-linecap:round;" d="m 109 0 L 0 0 L 0 109 L 109 109 L 109 0"></path><path style="fill:none; fill-opacity:0%; fill-rule:evenodd; stroke:#aaaaaa; stroke-opacity:100%; stroke-width: 1.5pt; stroke-linejoin:round; stroke-linecap:round;" d="M10.25 33.29c0.37 0.51 0.76 0.94 0.92 1.58c1.29 5.07 3.34 18.54 4.23 27.63"></path>
<path style="fill:none; fill-opacity:0%; fill-rule:evenodd; stroke:#aaaaaa; stroke-opacity:100%; stroke-width: 1.5pt; stroke-linejoin:round; stroke-linecap:round;" d="M12.58 35.72c9.42-2.22 16.55-3.56 20.92-4.23c1.6-0.24 2.56 1.44 2.33 2.87c-0.95 5.92-3.05 13.07-4.46 21.25"></path>
<path style="fill:none; fill-opacity:0%; fill-rule:evenodd; stroke:#aaaaaa; stroke-opacity:100%; stroke-width: 1.5pt; stroke-linejoin:round; stroke-linecap:round;" d="M15.57 58.55c5.14-0.75 11.33-1.05 18.39-2.21"></path>
<path style="fill:none; fill-opacity:0%; fill-rule:evenodd; stroke:#aaaaaa; stroke-opacity:100%; stroke-width: 1.5pt; stroke-linejoin:round; stroke-linecap:round;" d="M82.77 11.5c0.08 0.37 0.33 1.09-0.16 1.48c-6.71 5.43-15.28 9.54-29.42 14.21"></path>
<path style="fill:none; fill-opacity:0%; fill-rule:evenodd; stroke:#aaaaaa; stroke-opacity:100%; stroke-width: 1.5pt; stroke-linejoin:round; stroke-linecap:round;" d="M49.42 25.33c1.02 1.96 1 3.84 1 5.98c0 21.16-0.42 44.94-14.62 57.71"></path>
<path style="fill:none; fill-opacity:0%; fill-rule:evenodd; stroke:#aaaaaa; stroke-opacity:100%; stroke-width: 1.5pt; stroke-linejoin:round; stroke-linecap:round;" d="M52.59 45.35c0.53 0.2 2.63 0.34 4.04 0.12c7.81-1.26 25.44-3.59 34.33-4.21c1.43-0.1 3.9-0.2 4.79 0"></path>
<path style="fill:none; fill-opacity:0%; fill-rule:evenodd; stroke:#aaaaaa; stroke-opacity:100%; stroke-width: 1.5pt; stroke-linejoin:round; stroke-linecap:round;" d="M73.18 45.98c0.94 0.63 1.5 2.84 1.69 4.1c0.19 1.26 0 40.54-0.19 48.42"></path>

<path style="fill:none; fill-opacity:0%; fill-rule:evenodd; stroke:#000000; stroke-opacity:100%; stroke-width: 3pt; stroke-linejoin:round; stroke-linecap:round;" d="M10.25 33.29c0.37 0.51 0.76 0.94 0.92 1.58c1.29 5.07 3.34 18.54 4.23 27.63"></path>
<path style="fill:none; fill-opacity:0%; fill-rule:evenodd; stroke:#000000; stroke-opacity:100%; stroke-width: 3pt; stroke-linejoin:round; stroke-linecap:round;" d="M12.58 35.72c9.42-2.22 16.55-3.56 20.92-4.23c1.6-0.24 2.56 1.44 2.33 2.87c-0.95 5.92-3.05 13.07-4.46 21.25"></path>
<path style="fill:none; fill-opacity:0%; fill-rule:evenodd; stroke:#000000; stroke-opacity:100%; stroke-width: 3pt; stroke-linejoin:round; stroke-linecap:round;" d="M15.57 58.55c5.14-0.75 11.33-1.05 18.39-2.21"></path>
<text x="5" y="20" font-size="20" fill="#999999">4</text><path style="fill:none; fill-opacity:0%; fill-rule:evenodd; stroke:#CC0000; stroke-opacity:100%; stroke-width: 3pt; stroke-linejoin:round; stroke-linecap:round;" d="M82.77 11.5c0.08 0.37 0.33 1.09-0.16 1.48c-6.71 5.43-15.28 9.54-29.42 14.21" marker-end="url(#TriangleRed)" marker-start="url(#ArrowRed)" ></path>




</g><g transform="scale(1.3761467889908 1.3761467889908) translate(436, 0)">
<path style="fill:none; fill-rule:evenodd; stroke:#aaaaaa;  stroke-width:1pt; stroke-linecap:round;" d="m 109 0 L 0 0 L 0 109 L 109 109 L 109 0"></path><path style="fill:none; fill-opacity:0%; fill-rule:evenodd; stroke:#aaaaaa; stroke-opacity:100%; stroke-width: 1.5pt; stroke-linejoin:round; stroke-linecap:round;" d="M10.25 33.29c0.37 0.51 0.76 0.94 0.92 1.58c1.29 5.07 3.34 18.54 4.23 27.63"></path>
<path style="fill:none; fill-opacity:0%; fill-rule:evenodd; stroke:#aaaaaa; stroke-opacity:100%; stroke-width: 1.5pt; stroke-linejoin:round; stroke-linecap:round;" d="M12.58 35.72c9.42-2.22 16.55-3.56 20.92-4.23c1.6-0.24 2.56 1.44 2.33 2.87c-0.95 5.92-3.05 13.07-4.46 21.25"></path>
<path style="fill:none; fill-opacity:0%; fill-rule:evenodd; stroke:#aaaaaa; stroke-opacity:100%; stroke-width: 1.5pt; stroke-linejoin:round; stroke-linecap:round;" d="M15.57 58.55c5.14-0.75 11.33-1.05 18.39-2.21"></path>
<path style="fill:none; fill-opacity:0%; fill-rule:evenodd; stroke:#aaaaaa; stroke-opacity:100%; stroke-width: 1.5pt; stroke-linejoin:round; stroke-linecap:round;" d="M82.77 11.5c0.08 0.37 0.33 1.09-0.16 1.48c-6.71 5.43-15.28 9.54-29.42 14.21"></path>
<path style="fill:none; fill-opacity:0%; fill-rule:evenodd; stroke:#aaaaaa; stroke-opacity:100%; stroke-width: 1.5pt; stroke-linejoin:round; stroke-linecap:round;" d="M49.42 25.33c1.02 1.96 1 3.84 1 5.98c0 21.16-0.42 44.94-14.62 57.71"></path>
<path style="fill:none; fill-opacity:0%; fill-rule:evenodd; stroke:#aaaaaa; stroke-opacity:100%; stroke-width: 1.5pt; stroke-linejoin:round; stroke-linecap:round;" d="M52.59 45.35c0.53 0.2 2.63 0.34 4.04 0.12c7.81-1.26 25.44-3.59 34.33-4.21c1.43-0.1 3.9-0.2 4.79 0"></path>
<path style="fill:none; fill-opacity:0%; fill-rule:evenodd; stroke:#aaaaaa; stroke-opacity:100%; stroke-width: 1.5pt; stroke-linejoin:round; stroke-linecap:round;" d="M73.18 45.98c0.94 0.63 1.5 2.84 1.69 4.1c0.19 1.26 0 40.54-0.19 48.42"></path>

<path style="fill:none; fill-opacity:0%; fill-rule:evenodd; stroke:#000000; stroke-opacity:100%; stroke-width: 3pt; stroke-linejoin:round; stroke-linecap:round;" d="M10.25 33.29c0.37 0.51 0.76 0.94 0.92 1.58c1.29 5.07 3.34 18.54 4.23 27.63"></path>
<path style="fill:none; fill-opacity:0%; fill-rule:evenodd; stroke:#000000; stroke-opacity:100%; stroke-width: 3pt; stroke-linejoin:round; stroke-linecap:round;" d="M12.58 35.72c9.42-2.22 16.55-3.56 20.92-4.23c1.6-0.24 2.56 1.44 2.33 2.87c-0.95 5.92-3.05 13.07-4.46 21.25"></path>
<path style="fill:none; fill-opacity:0%; fill-rule:evenodd; stroke:#000000; stroke-opacity:100%; stroke-width: 3pt; stroke-linejoin:round; stroke-linecap:round;" d="M15.57 58.55c5.14-0.75 11.33-1.05 18.39-2.21"></path>
<path style="fill:none; fill-opacity:0%; fill-rule:evenodd; stroke:#000000; stroke-opacity:100%; stroke-width: 3pt; stroke-linejoin:round; stroke-linecap:round;" d="M82.77 11.5c0.08 0.37 0.33 1.09-0.16 1.48c-6.71 5.43-15.28 9.54-29.42 14.21"></path>
<text x="5" y="20" font-size="20" fill="#999999">5</text><path style="fill:none; fill-opacity:0%; fill-rule:evenodd; stroke:#CC0000; stroke-opacity:100%; stroke-width: 3pt; stroke-linejoin:round; stroke-linecap:round;" d="M49.42 25.33c1.02 1.96 1 3.84 1 5.98c0 21.16-0.42 44.94-14.62 57.71" marker-end="url(#TriangleRed)" marker-start="url(#ArrowRed)" ></path>



</g><g transform="scale(1.3761467889908 1.3761467889908) translate(0, 109)">
<path style="fill:none; fill-rule:evenodd; stroke:#aaaaaa;  stroke-width:1pt; stroke-linecap:round;" d="m 109 0 L 0 0 L 0 109 L 109 109 L 109 0"></path><path style="fill:none; fill-opacity:0%; fill-rule:evenodd; stroke:#aaaaaa; stroke-opacity:100%; stroke-width: 1.5pt; stroke-linejoin:round; stroke-linecap:round;" d="M10.25 33.29c0.37 0.51 0.76 0.94 0.92 1.58c1.29 5.07 3.34 18.54 4.23 27.63"></path>
<path style="fill:none; fill-opacity:0%; fill-rule:evenodd; stroke:#aaaaaa; stroke-opacity:100%; stroke-width: 1.5pt; stroke-linejoin:round; stroke-linecap:round;" d="M12.58 35.72c9.42-2.22 16.55-3.56 20.92-4.23c1.6-0.24 2.56 1.44 2.33 2.87c-0.95 5.92-3.05 13.07-4.46 21.25"></path>
<path style="fill:none; fill-opacity:0%; fill-rule:evenodd; stroke:#aaaaaa; stroke-opacity:100%; stroke-width: 1.5pt; stroke-linejoin:round; stroke-linecap:round;" d="M15.57 58.55c5.14-0.75 11.33-1.05 18.39-2.21"></path>
<path style="fill:none; fill-opacity:0%; fill-rule:evenodd; stroke:#aaaaaa; stroke-opacity:100%; stroke-width: 1.5pt; stroke-linejoin:round; stroke-linecap:round;" d="M82.77 11.5c0.08 0.37 0.33 1.09-0.16 1.48c-6.71 5.43-15.28 9.54-29.42 14.21"></path>
<path style="fill:none; fill-opacity:0%; fill-rule:evenodd; stroke:#aaaaaa; stroke-opacity:100%; stroke-width: 1.5pt; stroke-linejoin:round; stroke-linecap:round;" d="M49.42 25.33c1.02 1.96 1 3.84 1 5.98c0 21.16-0.42 44.94-14.62 57.71"></path>
<path style="fill:none; fill-opacity:0%; fill-rule:evenodd; stroke:#aaaaaa; stroke-opacity:100%; stroke-width: 1.5pt; stroke-linejoin:round; stroke-linecap:round;" d="M52.59 45.35c0.53 0.2 2.63 0.34 4.04 0.12c7.81-1.26 25.44-3.59 34.33-4.21c1.43-0.1 3.9-0.2 4.79 0"></path>
<path style="fill:none; fill-opacity:0%; fill-rule:evenodd; stroke:#aaaaaa; stroke-opacity:100%; stroke-width: 1.5pt; stroke-linejoin:round; stroke-linecap:round;" d="M73.18 45.98c0.94 0.63 1.5 2.84 1.69 4.1c0.19 1.26 0 40.54-0.19 48.42"></path>

<path style="fill:none; fill-opacity:0%; fill-rule:evenodd; stroke:#000000; stroke-opacity:100%; stroke-width: 3pt; stroke-linejoin:round; stroke-linecap:round;" d="M10.25 33.29c0.37 0.51 0.76 0.94 0.92 1.58c1.29 5.07 3.34 18.54 4.23 27.63"></path>
<path style="fill:none; fill-opacity:0%; fill-rule:evenodd; stroke:#000000; stroke-opacity:100%; stroke-width: 3pt; stroke-linejoin:round; stroke-linecap:round;" d="M12.58 35.72c9.42-2.22 16.55-3.56 20.92-4.23c1.6-0.24 2.56 1.44 2.33 2.87c-0.95 5.92-3.05 13.07-4.46 21.25"></path>
<path style="fill:none; fill-opacity:0%; fill-rule:evenodd; stroke:#000000; stroke-opacity:100%; stroke-width: 3pt; stroke-linejoin:round; stroke-linecap:round;" d="M15.57 58.55c5.14-0.75 11.33-1.05 18.39-2.21"></path>
<path style="fill:none; fill-opacity:0%; fill-rule:evenodd; stroke:#000000; stroke-opacity:100%; stroke-width: 3pt; stroke-linejoin:round; stroke-linecap:round;" d="M82.77 11.5c0.08 0.37 0.33 1.09-0.16 1.48c-6.71 5.43-15.28 9.54-29.42 14.21"></path>
<path style="fill:none; fill-opacity:0%; fill-rule:evenodd; stroke:#000000; stroke-opacity:100%; stroke-width: 3pt; stroke-linejoin:round; stroke-linecap:round;" d="M49.42 25.33c1.02 1.96 1 3.84 1 5.98c0 21.16-0.42 44.94-14.62 57.71"></path>
<text x="5" y="20" font-size="20" fill="#999999">6</text><path style="fill:none; fill-opacity:0%; fill-rule:evenodd; stroke:#CC0000; stroke-opacity:100%; stroke-width: 3pt; stroke-linejoin:round; stroke-linecap:round;" d="M52.59 45.35c0.53 0.2 2.63 0.34 4.04 0.12c7.81-1.26 25.44-3.59 34.33-4.21c1.43-0.1 3.9-0.2 4.79 0" marker-end="url(#TriangleRed)" marker-start="url(#ArrowRed)" ></path>


</g><g transform="scale(1.3761467889908 1.3761467889908) translate(109, 109)">
<path style="fill:none; fill-rule:evenodd; stroke:#aaaaaa;  stroke-width:1pt; stroke-linecap:round;" d="m 109 0 L 0 0 L 0 109 L 109 109 L 109 0"></path><path style="fill:none; fill-opacity:0%; fill-rule:evenodd; stroke:#aaaaaa; stroke-opacity:100%; stroke-width: 1.5pt; stroke-linejoin:round; stroke-linecap:round;" d="M10.25 33.29c0.37 0.51 0.76 0.94 0.92 1.58c1.29 5.07 3.34 18.54 4.23 27.63"></path>
<path style="fill:none; fill-opacity:0%; fill-rule:evenodd; stroke:#aaaaaa; stroke-opacity:100%; stroke-width: 1.5pt; stroke-linejoin:round; stroke-linecap:round;" d="M12.58 35.72c9.42-2.22 16.55-3.56 20.92-4.23c1.6-0.24 2.56 1.44 2.33 2.87c-0.95 5.92-3.05 13.07-4.46 21.25"></path>
<path style="fill:none; fill-opacity:0%; fill-rule:evenodd; stroke:#aaaaaa; stroke-opacity:100%; stroke-width: 1.5pt; stroke-linejoin:round; stroke-linecap:round;" d="M15.57 58.55c5.14-0.75 11.33-1.05 18.39-2.21"></path>
<path style="fill:none; fill-opacity:0%; fill-rule:evenodd; stroke:#aaaaaa; stroke-opacity:100%; stroke-width: 1.5pt; stroke-linejoin:round; stroke-linecap:round;" d="M82.77 11.5c0.08 0.37 0.33 1.09-0.16 1.48c-6.71 5.43-15.28 9.54-29.42 14.21"></path>
<path style="fill:none; fill-opacity:0%; fill-rule:evenodd; stroke:#aaaaaa; stroke-opacity:100%; stroke-width: 1.5pt; stroke-linejoin:round; stroke-linecap:round;" d="M49.42 25.33c1.02 1.96 1 3.84 1 5.98c0 21.16-0.42 44.94-14.62 57.71"></path>
<path style="fill:none; fill-opacity:0%; fill-rule:evenodd; stroke:#aaaaaa; stroke-opacity:100%; stroke-width: 1.5pt; stroke-linejoin:round; stroke-linecap:round;" d="M52.59 45.35c0.53 0.2 2.63 0.34 4.04 0.12c7.81-1.26 25.44-3.59 34.33-4.21c1.43-0.1 3.9-0.2 4.79 0"></path>
<path style="fill:none; fill-opacity:0%; fill-rule:evenodd; stroke:#aaaaaa; stroke-opacity:100%; stroke-width: 1.5pt; stroke-linejoin:round; stroke-linecap:round;" d="M73.18 45.98c0.94 0.63 1.5 2.84 1.69 4.1c0.19 1.26 0 40.54-0.19 48.42"></path>

<path style="fill:none; fill-opacity:0%; fill-rule:evenodd; stroke:#000000; stroke-opacity:100%; stroke-width: 3pt; stroke-linejoin:round; stroke-linecap:round;" d="M10.25 33.29c0.37 0.51 0.76 0.94 0.92 1.58c1.29 5.07 3.34 18.54 4.23 27.63"></path>
<path style="fill:none; fill-opacity:0%; fill-rule:evenodd; stroke:#000000; stroke-opacity:100%; stroke-width: 3pt; stroke-linejoin:round; stroke-linecap:round;" d="M12.58 35.72c9.42-2.22 16.55-3.56 20.92-4.23c1.6-0.24 2.56 1.44 2.33 2.87c-0.95 5.92-3.05 13.07-4.46 21.25"></path>
<path style="fill:none; fill-opacity:0%; fill-rule:evenodd; stroke:#000000; stroke-opacity:100%; stroke-width: 3pt; stroke-linejoin:round; stroke-linecap:round;" d="M15.57 58.55c5.14-0.75 11.33-1.05 18.39-2.21"></path>
<path style="fill:none; fill-opacity:0%; fill-rule:evenodd; stroke:#000000; stroke-opacity:100%; stroke-width: 3pt; stroke-linejoin:round; stroke-linecap:round;" d="M82.77 11.5c0.08 0.37 0.33 1.09-0.16 1.48c-6.71 5.43-15.28 9.54-29.42 14.21"></path>
<path style="fill:none; fill-opacity:0%; fill-rule:evenodd; stroke:#000000; stroke-opacity:100%; stroke-width: 3pt; stroke-linejoin:round; stroke-linecap:round;" d="M49.42 25.33c1.02 1.96 1 3.84 1 5.98c0 21.16-0.42 44.94-14.62 57.71"></path>
<path style="fill:none; fill-opacity:0%; fill-rule:evenodd; stroke:#000000; stroke-opacity:100%; stroke-width: 3pt; stroke-linejoin:round; stroke-linecap:round;" d="M52.59 45.35c0.53 0.2 2.63 0.34 4.04 0.12c7.81-1.26 25.44-3.59 34.33-4.21c1.43-0.1 3.9-0.2 4.79 0"></path>
<text x="5" y="20" font-size="20" fill="#999999">7</text><path style="fill:none; fill-opacity:0%; fill-rule:evenodd; stroke:#CC0000; stroke-opacity:100%; stroke-width: 3pt; stroke-linejoin:round; stroke-linecap:round;" d="M73.18 45.98c0.94 0.63 1.5 2.84 1.69 4.1c0.19 1.26 0 40.54-0.19 48.42" marker-end="url(#TriangleRed)" marker-start="url(#ArrowRed)" ></path>

</g>

</svg>  
          
