<?xml version="1.0" standalone="no"?>
<!DOCTYPE svg PUBLIC "-//W3C//DTD SVG 1.1//EN"   "http://www.w3.org/Graphics/SVG/1.1/DTD/svg11.dtd">
<svg width="751" height="301"  version="1.1" xmlns="http://www.w3.org/2000/svg">
  <defs>
    <marker id="Triangle" viewBox="0 0 10 10" refX="0" refY="5" markerUnits="strokeWidth" markerWidth="3" style="stroke-opacity:0%;fill:#aaaaaa;" markerHeight="2" orient="auto">
      <path d="M 0 0 L 10 5 L 0 10 z" />
    </marker>
    
    <marker id="Arrow" viewBox="0 0 10 10" refX="5" refY="5" markerUnits="strokeWidth" markerWidth="1.8" style="stroke-opacity:0%;fill:#770000;" markerHeight="2" orient="auto">
      <path d="M 0 4 L 6 4 L 4 1 L 10 5 L 4 9 L 6 6 L 0 6 z" />
        <circle cx="5" cy="5" r="5" />
      </marker>
    
    <marker id="TriangleRed" viewBox="0 0 10 10" refX="0" refY="5" markerUnits="strokeWidth" markerWidth="3" style="stroke-opacity:0%;fill:#CC0000;" markerHeight="2" orient="auto">
      <path d="M 0 0 L 10 5 L 0 10 z" />
    </marker>
    
    <marker id="ArrowRed" viewBox="0 0 10 10" refX="5" refY="5" markerUnits="strokeWidth" markerWidth="1.8" style="stroke-opacity:0%;fill:#CC0000;" markerHeight="2" orient="auto">
      <path d="M 0 4 L 6 4 L 4 1 L 10 5 L 4 9 L 6 6 L 0 6 z" />
        <circle cx="5" cy="5" r="5" />
      </marker>
    
  </defs>
  
  <path style="fill:#ffffff; fill-opacity:100%; fill-rule:evenodd; stroke-width:0;" d="M 0 0 L 751 0 L 751 301 L 0 301 L 0 0" />

  <g transform="scale(1.3761467889908 1.3761467889908) translate(0, 0)">
<path style="fill:none; fill-rule:evenodd; stroke:#aaaaaa;  stroke-width:1pt; stroke-linecap:round;" d="m 109 0 L 0 0 L 0 109 L 109 109 L 109 0"></path><path style="fill:none; fill-opacity:0%; fill-rule:evenodd; stroke:#aaaaaa; stroke-opacity:100%; stroke-width: 1.5pt; stroke-linejoin:round; stroke-linecap:round;" d="M11.5 27.54c1.11 1.1 1.43 2.24 1.51 3.43c0.72 5.71 1.64 14.09 2.39 21.42c0.27 2.65 0.53 5.16 0.74 7.37"></path>
<path style="fill:none; fill-opacity:0%; fill-rule:evenodd; stroke:#aaaaaa; stroke-opacity:100%; stroke-width: 1.5pt; stroke-linejoin:round; stroke-linecap:round;" d="M14.08 30.22c8.38-1.73 12.55-2.5 16.32-3.47c1.98-0.51 4.23 0.37 3.92 2.61c-0.8 5.94-2.05 14.07-3.46 22.25"></path>
<path style="fill:none; fill-opacity:0%; fill-rule:evenodd; stroke:#aaaaaa; stroke-opacity:100%; stroke-width: 1.5pt; stroke-linejoin:round; stroke-linecap:round;" d="M16.57 54.8c3.84-0.56 7.77-1.15 12.41-1.79c1.57-0.22 3.22-0.44 4.97-0.67"></path>
<path style="fill:none; fill-opacity:0%; fill-rule:evenodd; stroke:#aaaaaa; stroke-opacity:100%; stroke-width: 1.5pt; stroke-linejoin:round; stroke-linecap:round;" d="M55.76 13c0.04 0.98-0.15 2.35-0.58 3.68C51.5 28.12 48.12 39.5 40.31 53.5"></path>
<path style="fill:none; fill-opacity:0%; fill-rule:evenodd; stroke:#aaaaaa; stroke-opacity:100%; stroke-width: 1.5pt; stroke-linejoin:round; stroke-linecap:round;" d="M54.36 31.67c2.52 0.25 5.02 0.13 7.51-0.35c9.17-1.32 20.36-3.94 27.96-5.31c2.53-0.7 5.17-0.76 7.63-0.64"></path>
<path style="fill:none; fill-opacity:0%; fill-rule:evenodd; stroke:#aaaaaa; stroke-opacity:100%; stroke-width: 1.5pt; stroke-linejoin:round; stroke-linecap:round;" d="M62.5 33.25c1.13 1.13 1.19 2.25 1.19 3.84c0 0.74-0.04 31.76-0.06 49.66c-0.01 5.61-0.01 9.93-0.01 11.62"></path>
<path style="fill:none; fill-opacity:0%; fill-rule:evenodd; stroke:#aaaaaa; stroke-opacity:100%; stroke-width: 1.5pt; stroke-linejoin:round; stroke-linecap:round;" d="M65.32 48.38c5.65-0.95 12.61-2.46 18.92-3.42c2.05-0.45 4.13-0.5 6.23-0.13"></path>
<path style="fill:none; fill-opacity:0%; fill-rule:evenodd; stroke:#aaaaaa; stroke-opacity:100%; stroke-width: 1.5pt; stroke-linejoin:round; stroke-linecap:round;" d="M64.99 67.84c4.85-0.58 12.34-1.98 23.02-3.29c2.56-0.49 5.14-0.53 7.73-0.13"></path>

<text x="5" y="20" font-size="20" fill="#999999">1</text><path style="fill:none; fill-opacity:0%; fill-rule:evenodd; stroke:#CC0000; stroke-opacity:100%; stroke-width: 3pt; stroke-linejoin:round; stroke-linecap:round;" d="M11.5 27.54c1.11 1.1 1.43 2.24 1.51 3.43c0.72 5.71 1.64 14.09 2.39 21.42c0.27 2.65 0.53 5.16 0.74 7.37" marker-end="url(#TriangleRed)" marker-start="url(#ArrowRed)" ></path>








</g><g transform="scale(1.3761467889908 1.3761467889908) translate(109, 0)">
<path style="fill:none; fill-rule:evenodd; stroke:#aaaaaa;  stroke-width:1pt; stroke-linecap:round;" d="m 109 0 L 0 0 L 0 109 L 109 109 L 109 0"></path><path style="fill:none; fill-opacity:0%; fill-rule:evenodd; stroke:#aaaaaa; stroke-opacity:100%; stroke-width: 1.5pt; stroke-linejoin:round; stroke-linecap:round;" d="M11.5 27.54c1.11 1.1 1.43 2.24 1.51 3.43c0.72 5.71 1.64 14.09 2.39 21.42c0.27 2.65 0.53 5.16 0.74 7.37"></path>
<path style="fill:none; fill-opacity:0%; fill-rule:evenodd; stroke:#aaaaaa; stroke-opacity:100%; stroke-width: 1.5pt; stroke-linejoin:round; stroke-linecap:round;" d="M14.08 30.22c8.38-1.73 12.55-2.5 16.32-3.47c1.98-0.51 4.23 0.37 3.92 2.61c-0.8 5.94-2.05 14.07-3.46 22.25"></path>
<path style="fill:none; fill-opacity:0%; fill-rule:evenodd; stroke:#aaaaaa; stroke-opacity:100%; stroke-width: 1.5pt; stroke-linejoin:round; stroke-linecap:round;" d="M16.57 54.8c3.84-0.56 7.77-1.15 12.41-1.79c1.57-0.22 3.22-0.44 4.97-0.67"></path>
<path style="fill:none; fill-opacity:0%; fill-rule:evenodd; stroke:#aaaaaa; stroke-opacity:100%; stroke-width: 1.5pt; stroke-linejoin:round; stroke-linecap:round;" d="M55.76 13c0.04 0.98-0.15 2.35-0.58 3.68C51.5 28.12 48.12 39.5 40.31 53.5"></path>
<path style="fill:none; fill-opacity:0%; fill-rule:evenodd; stroke:#aaaaaa; stroke-opacity:100%; stroke-width: 1.5pt; stroke-linejoin:round; stroke-linecap:round;" d="M54.36 31.67c2.52 0.25 5.02 0.13 7.51-0.35c9.17-1.32 20.36-3.94 27.96-5.31c2.53-0.7 5.17-0.76 7.63-0.64"></path>
<path style="fill:none; fill-opacity:0%; fill-rule:evenodd; stroke:#aaaaaa; stroke-opacity:100%; stroke-width: 1.5pt; stroke-linejoin:round; stroke-linecap:round;" d="M62.5 33.25c1.13 1.13 1.19 2.25 1.19 3.84c0 0.74-0.04 31.76-0.06 49.66c-0.01 5.61-0.01 9.93-0.01 11.62"></path>
<path style="fill:none; fill-opacity:0%; fill-rule:evenodd; stroke:#aaaaaa; stroke-opacity:100%; stroke-width: 1.5pt; stroke-linejoin:round; stroke-linecap:round;" d="M65.32 48.38c5.65-0.95 12.61-2.46 18.92-3.42c2.05-0.45 4.13-0.5 6.23-0.13"></path>
<path style="fill:none; fill-opacity:0%; fill-rule:evenodd; stroke:#aaaaaa; stroke-opacity:100%; stroke-width: 1.5pt; stroke-linejoin:round; stroke-linecap:round;" d="M64.99 67.84c4.85-0.58 12.34-1.98 23.02-3.29c2.56-0.49 5.14-0.53 7.73-0.13"></path>

<path style="fill:none; fill-opacity:0%; fill-rule:evenodd; stroke:#000000; stroke-opacity:100%; stroke-width: 3pt; stroke-linejoin:round; stroke-linecap:round;" d="M11.5 27.54c1.11 1.1 1.43 2.24 1.51 3.43c0.72 5.71 1.64 14.09 2.39 21.42c0.27 2.65 0.53 5.16 0.74 7.37"></path>
<text x="5" y="20" font-size="20" fill="#999999">2</text><path style="fill:none; fill-opacity:0%; fill-rule:evenodd; stroke:#CC0000; stroke-opacity:100%; stroke-width: 3pt; stroke-linejoin:round; stroke-linecap:round;" d="M14.08 30.22c8.38-1.73 12.55-2.5 16.32-3.47c1.98-0.51 4.23 0.37 3.92 2.61c-0.8 5.94-2.05 14.07-3.46 22.25" marker-end="url(#TriangleRed)" marker-start="url(#ArrowRed)" ></path>







</g><g transform="scale(1.3761467889908 1.3761467889908) translate(218, 0)">
<path style="fill:none; fill-rule:evenodd; stroke:#aaaaaa;  stroke-width:1pt; stroke-linecap:round;" d="m 109 0 L 0 0 L 0 109 L 109 109 L 109 0"></path><path style="fill:none; fill-opacity:0%; fill-rule:evenodd; stroke:#aaaaaa; stroke-opacity:100%; stroke-width: 1.5pt; stroke-linejoin:round; stroke-linecap:round;" d="M11.5 27.54c1.11 1.1 1.43 2.24 1.51 3.43c0.72 5.71 1.64 14.09 2.39 21.42c0.27 2.65 0.53 5.16 0.74 7.37"></path>
<path style="fill:none; fill-opacity:0%; fill-rule:evenodd; stroke:#aaaaaa; stroke-opacity:100%; stroke-width: 1.5pt; stroke-linejoin:round; stroke-linecap:round;" d="M14.08 30.22c8.38-1.73 12.55-2.5 16.32-3.47c1.98-0.51 4.23 0.37 3.92 2.61c-0.8 5.94-2.05 14.07-3.46 22.25"></path>
<path style="fill:none; fill-opacity:0%; fill-rule:evenodd; stroke:#aaaaaa; stroke-opacity:100%; stroke-width: 1.5pt; stroke-linejoin:round; stroke-linecap:round;" d="M16.57 54.8c3.84-0.56 7.77-1.15 12.41-1.79c1.57-0.22 3.22-0.44 4.97-0.67"></path>
<path style="fill:none; fill-opacity:0%; fill-rule:evenodd; stroke:#aaaaaa; stroke-opacity:100%; stroke-width: 1.5pt; stroke-linejoin:round; stroke-linecap:round;" d="M55.76 13c0.04 0.98-0.15 2.35-0.58 3.68C51.5 28.12 48.12 39.5 40.31 53.5"></path>
<path style="fill:none; fill-opacity:0%; fill-rule:evenodd; stroke:#aaaaaa; stroke-opacity:100%; stroke-width: 1.5pt; stroke-linejoin:round; stroke-linecap:round;" d="M54.36 31.67c2.52 0.25 5.02 0.13 7.51-0.35c9.17-1.32 20.36-3.94 27.96-5.31c2.53-0.7 5.17-0.76 7.63-0.64"></path>
<path style="fill:none; fill-opacity:0%; fill-rule:evenodd; stroke:#aaaaaa; stroke-opacity:100%; stroke-width: 1.5pt; stroke-linejoin:round; stroke-linecap:round;" d="M62.5 33.25c1.13 1.13 1.19 2.25 1.19 3.84c0 0.74-0.04 31.76-0.06 49.66c-0.01 5.61-0.01 9.93-0.01 11.62"></path>
<path style="fill:none; fill-opacity:0%; fill-rule:evenodd; stroke:#aaaaaa; stroke-opacity:100%; stroke-width: 1.5pt; stroke-linejoin:round; stroke-linecap:round;" d="M65.32 48.38c5.65-0.95 12.61-2.46 18.92-3.42c2.05-0.45 4.13-0.5 6.23-0.13"></path>
<path style="fill:none; fill-opacity:0%; fill-rule:evenodd; stroke:#aaaaaa; stroke-opacity:100%; stroke-width: 1.5pt; stroke-linejoin:round; stroke-linecap:round;" d="M64.99 67.84c4.85-0.58 12.34-1.98 23.02-3.29c2.56-0.49 5.14-0.53 7.73-0.13"></path>

<path style="fill:none; fill-opacity:0%; fill-rule:evenodd; stroke:#000000; stroke-opacity:100%; stroke-width: 3pt; stroke-linejoin:round; stroke-linecap:round;" d="M11.5 27.54c1.11 1.1 1.43 2.24 1.51 3.43c0.72 5.71 1.64 14.09 2.39 21.42c0.27 2.65 0.53 5.16 0.74 7.37"></path>
<path style="fill:none; fill-opacity:0%; fill-rule:evenodd; stroke:#000000; stroke-opacity:100%; stroke-width: 3pt; stroke-linejoin:round; stroke-linecap:round;" d="M14.08 30.22c8.38-1.73 12.55-2.5 16.32-3.47c1.98-0.51 4.23 0.37 3.92 2.61c-0.8 5.94-2.05 14.07-3.46 22.25"></path>
<text x="5" y="20" font-size="20" fill="#999999">3</text><path style="fill:none; fill-opacity:0%; fill-rule:evenodd; stroke:#CC0000; stroke-opacity:100%; stroke-width: 3pt; stroke-linejoin:round; stroke-linecap:round;" d="M16.57 54.8c3.84-0.56 7.77-1.15 12.41-1.79c1.57-0.22 3.22-0.44 4.97-0.67" marker-end="url(#TriangleRed)" marker-start="url(#ArrowRed)" ></path>






</g><g transform="scale(1.3761467889908 1.3761467889908) translate(327, 0)">
<path style="fill:none; fill-rule:evenodd; stroke:#aaaaaa;  stroke-width:1pt; stroke-linecap:round;" d="m 109 0 L 0 0 L 0 109 L 109 109 L 109 0"></path><path style="fill:none; fill-opacity:0%; fill-rule:evenodd; stroke:#aaaaaa; stroke-opacity:100%; stroke-width: 1.5pt; stroke-linejoin:round; stroke-linecap:round;" d="M11.5 27.54c1.11 1.1 1.43 2.24 1.51 3.43c0.72 5.71 1.64 14.09 2.39 21.42c0.27 2.65 0.53 5.16 0.74 7.37"></path>
<path style="fill:none; fill-opacity:0%; fill-rule:evenodd; stroke:#aaaaaa; stroke-opacity:100%; stroke-width: 1.5pt; stroke-linejoin:round; stroke-linecap:round;" d="M14.08 30.22c8.38-1.73 12.55-2.5 16.32-3.47c1.98-0.51 4.23 0.37 3.92 2.61c-0.8 5.94-2.05 14.07-3.46 22.25"></path>
<path style="fill:none; fill-opacity:0%; fill-rule:evenodd; stroke:#aaaaaa; stroke-opacity:100%; stroke-width: 1.5pt; stroke-linejoin:round; stroke-linecap:round;" d="M16.57 54.8c3.84-0.56 7.77-1.15 12.41-1.79c1.57-0.22 3.22-0.44 4.97-0.67"></path>
<path style="fill:none; fill-opacity:0%; fill-rule:evenodd; stroke:#aaaaaa; stroke-opacity:100%; stroke-width: 1.5pt; stroke-linejoin:round; stroke-linecap:round;" d="M55.76 13c0.04 0.98-0.15 2.35-0.58 3.68C51.5 28.12 48.12 39.5 40.31 53.5"></path>
<path style="fill:none; fill-opacity:0%; fill-rule:evenodd; stroke:#aaaaaa; stroke-opacity:100%; stroke-width: 1.5pt; stroke-linejoin:round; stroke-linecap:round;" d="M54.36 31.67c2.52 0.25 5.02 0.13 7.51-0.35c9.17-1.32 20.36-3.94 27.96-5.31c2.53-0.7 5.17-0.76 7.63-0.64"></path>
<path style="fill:none; fill-opacity:0%; fill-rule:evenodd; stroke:#aaaaaa; stroke-opacity:100%; stroke-width: 1.5pt; stroke-linejoin:round; stroke-linecap:round;" d="M62.5 33.25c1.13 1.13 1.19 2.25 1.19 3.84c0 0.74-0.04 31.76-0.06 49.66c-0.01 5.61-0.01 9.93-0.01 11.62"></path>
<path style="fill:none; fill-opacity:0%; fill-rule:evenodd; stroke:#aaaaaa; stroke-opacity:100%; stroke-width: 1.5pt; stroke-linejoin:round; stroke-linecap:round;" d="M65.32 48.38c5.65-0.95 12.61-2.46 18.92-3.42c2.05-0.45 4.13-0.5 6.23-0.13"></path>
<path style="fill:none; fill-opacity:0%; fill-rule:evenodd; stroke:#aaaaaa; stroke-opacity:100%; stroke-width: 1.5pt; stroke-linejoin:round; stroke-linecap:round;" d="M64.99 67.84c4.85-0.58 12.34-1.98 23.02-3.29c2.56-0.49 5.14-0.53 7.73-0.13"></path>

<path style="fill:none; fill-opacity:0%; fill-rule:evenodd; stroke:#000000; stroke-opacity:100%; stroke-width: 3pt; stroke-linejoin:round; stroke-linecap:round;" d="M11.5 27.54c1.11 1.1 1.43 2.24 1.51 3.43c0.72 5.71 1.64 14.09 2.39 21.42c0.27 2.65 0.53 5.16 0.74 7.37"></path>
<path style="fill:none; fill-opacity:0%; fill-rule:evenodd; stroke:#000000; stroke-opacity:100%; stroke-width: 3pt; stroke-linejoin:round; stroke-linecap:round;" d="M14.08 30.22c8.38-1.73 12.55-2.5 16.32-3.47c1.98-0.51 4.23 0.37 3.92 2.61c-0.8 5.94-2.05 14.07-3.46 22.25"></path>
<path style="fill:none; fill-opacity:0%; fill-rule:evenodd; stroke:#000000; stroke-opacity:100%; stroke-width: 3pt; stroke-linejoin:round; stroke-linecap:round;" d="M16.57 54.8c3.84-0.56 7.77-1.15 12.41-1.79c1.57-0.22 3.22-0.44 4.97-0.67"></path>
<text x="5" y="20" font-size="20" fill="#999999">4</text><path style="fill:none; fill-opacity:0%; fill-rule:evenodd; stroke:#CC0000; stroke-opacity:100%; stroke-width: 3pt; stroke-linejoin:round; stroke-linecap:round;" d="M55.76 13c0.04 0.98-0.15 2.35-0.58 3.68C51.5 28.12 48.12 39.5 40.31 53.5" marker-end="url(#TriangleRed)" marker-start="url(#ArrowRed)" ></path>





</g><g transform="scale(1.3761467889908 1.3761467889908) translate(436, 0)">
<path style="fill:none; fill-rule:evenodd; stroke:#aaaaaa;  stroke-width:1pt; stroke-linecap:round;" d="m 109 0 L 0 0 L 0 109 L 109 109 L 109 0"></path><path style="fill:none; fill-opacity:0%; fill-rule:evenodd; stroke:#aaaaaa; stroke-opacity:100%; stroke-width: 1.5pt; stroke-linejoin:round; stroke-linecap:round;" d="M11.5 27.54c1.11 1.1 1.43 2.24 1.51 3.43c0.72 5.71 1.64 14.09 2.39 21.42c0.27 2.65 0.53 5.16 0.74 7.37"></path>
<path style="fill:none; fill-opacity:0%; fill-rule:evenodd; stroke:#aaaaaa; stroke-opacity:100%; stroke-width: 1.5pt; stroke-linejoin:round; stroke-linecap:round;" d="M14.08 30.22c8.38-1.73 12.55-2.5 16.32-3.47c1.98-0.51 4.23 0.37 3.92 2.61c-0.8 5.94-2.05 14.07-3.46 22.25"></path>
<path style="fill:none; fill-opacity:0%; fill-rule:evenodd; stroke:#aaaaaa; stroke-opacity:100%; stroke-width: 1.5pt; stroke-linejoin:round; stroke-linecap:round;" d="M16.57 54.8c3.84-0.56 7.77-1.15 12.41-1.79c1.57-0.22 3.22-0.44 4.97-0.67"></path>
<path style="fill:none; fill-opacity:0%; fill-rule:evenodd; stroke:#aaaaaa; stroke-opacity:100%; stroke-width: 1.5pt; stroke-linejoin:round; stroke-linecap:round;" d="M55.76 13c0.04 0.98-0.15 2.35-0.58 3.68C51.5 28.12 48.12 39.5 40.31 53.5"></path>
<path style="fill:none; fill-opacity:0%; fill-rule:evenodd; stroke:#aaaaaa; stroke-opacity:100%; stroke-width: 1.5pt; stroke-linejoin:round; stroke-linecap:round;" d="M54.36 31.67c2.52 0.25 5.02 0.13 7.51-0.35c9.17-1.32 20.36-3.94 27.96-5.31c2.53-0.7 5.17-0.76 7.63-0.64"></path>
<path style="fill:none; fill-opacity:0%; fill-rule:evenodd; stroke:#aaaaaa; stroke-opacity:100%; stroke-width: 1.5pt; stroke-linejoin:round; stroke-linecap:round;" d="M62.5 33.25c1.13 1.13 1.19 2.25 1.19 3.84c0 0.74-0.04 31.76-0.06 49.66c-0.01 5.61-0.01 9.93-0.01 11.62"></path>
<path style="fill:none; fill-opacity:0%; fill-rule:evenodd; stroke:#aaaaaa; stroke-opacity:100%; stroke-width: 1.5pt; stroke-linejoin:round; stroke-linecap:round;" d="M65.32 48.38c5.65-0.95 12.61-2.46 18.92-3.42c2.05-0.45 4.13-0.5 6.23-0.13"></path>
<path style="fill:none; fill-opacity:0%; fill-rule:evenodd; stroke:#aaaaaa; stroke-opacity:100%; stroke-width: 1.5pt; stroke-linejoin:round; stroke-linecap:round;" d="M64.99 67.84c4.85-0.58 12.34-1.98 23.02-3.29c2.56-0.49 5.14-0.53 7.73-0.13"></path>

<path style="fill:none; fill-opacity:0%; fill-rule:evenodd; stroke:#000000; stroke-opacity:100%; stroke-width: 3pt; stroke-linejoin:round; stroke-linecap:round;" d="M11.5 27.54c1.11 1.1 1.43 2.24 1.51 3.43c0.72 5.71 1.64 14.09 2.39 21.42c0.27 2.65 0.53 5.16 0.74 7.37"></path>
<path style="fill:none; fill-opacity:0%; fill-rule:evenodd; stroke:#000000; stroke-opacity:100%; stroke-width: 3pt; stroke-linejoin:round; stroke-linecap:round;" d="M14.08 30.22c8.38-1.73 12.55-2.5 16.32-3.47c1.98-0.51 4.23 0.37 3.92 2.61c-0.8 5.94-2.05 14.07-3.46 22.25"></path>
<path style="fill:none; fill-opacity:0%; fill-rule:evenodd; stroke:#000000; stroke-opacity:100%; stroke-width: 3pt; stroke-linejoin:round; stroke-linecap:round;" d="M16.57 54.8c3.84-0.56 7.77-1.15 12.41-1.79c1.57-0.22 3.22-0.44 4.97-0.67"></path>
<path style="fill:none; fill-opacity:0%; fill-rule:evenodd; stroke:#000000; stroke-opacity:100%; stroke-width: 3pt; stroke-linejoin:round; stroke-linecap:round;" d="M55.76 13c0.04 0.98-0.15 2.35-0.58 3.68C51.5 28.12 48.12 39.5 40.31 53.5"></path>
<text x="5" y="20" font-size="20" fill="#999999">5</text><path style="fill:none; fill-opacity:0%; fill-rule:evenodd; stroke:#CC0000; stroke-opacity:100%; stroke-width: 3pt; stroke-linejoin:round; stroke-linecap:round;" d="M54.36 31.67c2.52 0.25 5.02 0.13 7.51-0.35c9.17-1.32 20.36-3.94 27.96-5.31c2.53-0.7 5.17-0.76 7.63-0.64" marker-end="url(#TriangleRed)" marker-start="url(#ArrowRed)" ></path>




</g><g transform="scale(1.3761467889908 1.3761467889908) translate(0, 109)">
<path style="fill:none; fill-rule:evenodd; stroke:#aaaaaa;  stroke-width:1pt; stroke-linecap:round;" d="m 109 0 L 0 0 L 0 109 L 109 109 L 109 0"></path><path style="fill:none; fill-opacity:0%; fill-rule:evenodd; stroke:#aaaaaa; stroke-opacity:100%; stroke-width: 1.5pt; stroke-linejoin:round; stroke-linecap:round;" d="M11.5 27.54c1.11 1.1 1.43 2.24 1.51 3.43c0.72 5.71 1.64 14.09 2.39 21.42c0.27 2.65 0.53 5.16 0.74 7.37"></path>
<path style="fill:none; fill-opacity:0%; fill-rule:evenodd; stroke:#aaaaaa; stroke-opacity:100%; stroke-width: 1.5pt; stroke-linejoin:round; stroke-linecap:round;" d="M14.08 30.22c8.38-1.73 12.55-2.5 16.32-3.47c1.98-0.51 4.23 0.37 3.92 2.61c-0.8 5.94-2.05 14.07-3.46 22.25"></path>
<path style="fill:none; fill-opacity:0%; fill-rule:evenodd; stroke:#aaaaaa; stroke-opacity:100%; stroke-width: 1.5pt; stroke-linejoin:round; stroke-linecap:round;" d="M16.57 54.8c3.84-0.56 7.77-1.15 12.41-1.79c1.57-0.22 3.22-0.44 4.97-0.67"></path>
<path style="fill:none; fill-opacity:0%; fill-rule:evenodd; stroke:#aaaaaa; stroke-opacity:100%; stroke-width: 1.5pt; stroke-linejoin:round; stroke-linecap:round;" d="M55.76 13c0.04 0.98-0.15 2.35-0.58 3.68C51.5 28.12 48.12 39.5 40.31 53.5"></path>
<path style="fill:none; fill-opacity:0%; fill-rule:evenodd; stroke:#aaaaaa; stroke-opacity:100%; stroke-width: 1.5pt; stroke-linejoin:round; stroke-linecap:round;" d="M54.36 31.67c2.52 0.25 5.02 0.13 7.51-0.35c9.17-1.32 20.36-3.94 27.96-5.31c2.53-0.7 5.17-0.76 7.63-0.64"></path>
<path style="fill:none; fill-opacity:0%; fill-rule:evenodd; stroke:#aaaaaa; stroke-opacity:100%; stroke-width: 1.5pt; stroke-linejoin:round; stroke-linecap:round;" d="M62.5 33.25c1.13 1.13 1.19 2.25 1.19 3.84c0 0.74-0.04 31.76-0.06 49.66c-0.01 5.61-0.01 9.93-0.01 11.62"></path>
<path style="fill:none; fill-opacity:0%; fill-rule:evenodd; stroke:#aaaaaa; stroke-opacity:100%; stroke-width: 1.5pt; stroke-linejoin:round; stroke-linecap:round;" d="M65.32 48.38c5.65-0.95 12.61-2.46 18.92-3.42c2.05-0.45 4.13-0.5 6.23-0.13"></path>
<path style="fill:none; fill-opacity:0%; fill-rule:evenodd; stroke:#aaaaaa; stroke-opacity:100%; stroke-width: 1.5pt; stroke-linejoin:round; stroke-linecap:round;" d="M64.99 67.84c4.85-0.58 12.34-1.98 23.02-3.29c2.56-0.49 5.14-0.53 7.73-0.13"></path>

<path style="fill:none; fill-opacity:0%; fill-rule:evenodd; stroke:#000000; stroke-opacity:100%; stroke-width: 3pt; stroke-linejoin:round; stroke-linecap:round;" d="M11.5 27.54c1.11 1.1 1.43 2.24 1.51 3.43c0.72 5.71 1.64 14.09 2.39 21.42c0.27 2.65 0.53 5.16 0.74 7.37"></path>
<path style="fill:none; fill-opacity:0%; fill-rule:evenodd; stroke:#000000; stroke-opacity:100%; stroke-width: 3pt; stroke-linejoin:round; stroke-linecap:round;" d="M14.08 30.22c8.38-1.73 12.55-2.5 16.32-3.47c1.98-0.51 4.23 0.37 3.92 2.61c-0.8 5.94-2.05 14.07-3.46 22.25"></path>
<path style="fill:none; fill-opacity:0%; fill-rule:evenodd; stroke:#000000; stroke-opacity:100%; stroke-width: 3pt; stroke-linejoin:round; stroke-linecap:round;" d="M16.57 54.8c3.84-0.56 7.77-1.15 12.41-1.79c1.57-0.22 3.22-0.44 4.97-0.67"></path>
<path style="fill:none; fill-opacity:0%; fill-rule:evenodd; stroke:#000000; stroke-opacity:100%; stroke-width: 3pt; stroke-linejoin:round; stroke-linecap:round;" d="M55.76 13c0.04 0.98-0.15 2.35-0.58 3.68C51.5 28.12 48.12 39.5 40.31 53.5"></path>
<path style="fill:none; fill-opacity:0%; fill-rule:evenodd; stroke:#000000; stroke-opacity:100%; stroke-width: 3pt; stroke-linejoin:round; stroke-linecap:round;" d="M54.36 31.67c2.52 0.25 5.02 0.13 7.51-0.35c9.17-1.32 20.36-3.94 27.96-5.31c2.53-0.7 5.17-0.76 7.63-0.64"></path>
<text x="5" y="20" font-size="20" fill="#999999">6</text><path style="fill:none; fill-opacity:0%; fill-rule:evenodd; stroke:#CC0000; stroke-opacity:100%; stroke-width: 3pt; stroke-linejoin:round; stroke-linecap:round;" d="M62.5 33.25c1.13 1.13 1.19 2.25 1.19 3.84c0 0.74-0.04 31.76-0.06 49.66c-0.01 5.61-0.01 9.93-0.01 11.62" marker-end="url(#TriangleRed)" marker-start="url(#ArrowRed)" ></path>



</g><g transform="scale(1.3761467889908 1.3761467889908) translate(109, 109)">
<path style="fill:none; fill-rule:evenodd; stroke:#aaaaaa;  stroke-width:1pt; stroke-linecap:round;" d="m 109 0 L 0 0 L 0 109 L 109 109 L 109 0"></path><path style="fill:none; fill-opacity:0%; fill-rule:evenodd; stroke:#aaaaaa; stroke-opacity:100%; stroke-width: 1.5pt; stroke-linejoin:round; stroke-linecap:round;" d="M11.5 27.54c1.11 1.1 1.43 2.24 1.51 3.43c0.72 5.71 1.64 14.09 2.39 21.42c0.27 2.65 0.53 5.16 0.74 7.37"></path>
<path style="fill:none; fill-opacity:0%; fill-rule:evenodd; stroke:#aaaaaa; stroke-opacity:100%; stroke-width: 1.5pt; stroke-linejoin:round; stroke-linecap:round;" d="M14.08 30.22c8.38-1.73 12.55-2.5 16.32-3.47c1.98-0.51 4.23 0.37 3.92 2.61c-0.8 5.94-2.05 14.07-3.46 22.25"></path>
<path style="fill:none; fill-opacity:0%; fill-rule:evenodd; stroke:#aaaaaa; stroke-opacity:100%; stroke-width: 1.5pt; stroke-linejoin:round; stroke-linecap:round;" d="M16.57 54.8c3.84-0.56 7.77-1.15 12.41-1.79c1.57-0.22 3.22-0.44 4.97-0.67"></path>
<path style="fill:none; fill-opacity:0%; fill-rule:evenodd; stroke:#aaaaaa; stroke-opacity:100%; stroke-width: 1.5pt; stroke-linejoin:round; stroke-linecap:round;" d="M55.76 13c0.04 0.98-0.15 2.35-0.58 3.68C51.5 28.12 48.12 39.5 40.31 53.5"></path>
<path style="fill:none; fill-opacity:0%; fill-rule:evenodd; stroke:#aaaaaa; stroke-opacity:100%; stroke-width: 1.5pt; stroke-linejoin:round; stroke-linecap:round;" d="M54.36 31.67c2.52 0.25 5.02 0.13 7.51-0.35c9.17-1.32 20.36-3.94 27.96-5.31c2.53-0.7 5.17-0.76 7.63-0.64"></path>
<path style="fill:none; fill-opacity:0%; fill-rule:evenodd; stroke:#aaaaaa; stroke-opacity:100%; stroke-width: 1.5pt; stroke-linejoin:round; stroke-linecap:round;" d="M62.5 33.25c1.13 1.13 1.19 2.25 1.19 3.84c0 0.74-0.04 31.76-0.06 49.66c-0.01 5.61-0.01 9.93-0.01 11.62"></path>
<path style="fill:none; fill-opacity:0%; fill-rule:evenodd; stroke:#aaaaaa; stroke-opacity:100%; stroke-width: 1.5pt; stroke-linejoin:round; stroke-linecap:round;" d="M65.32 48.38c5.65-0.95 12.61-2.46 18.92-3.42c2.05-0.45 4.13-0.5 6.23-0.13"></path>
<path style="fill:none; fill-opacity:0%; fill-rule:evenodd; stroke:#aaaaaa; stroke-opacity:100%; stroke-width: 1.5pt; stroke-linejoin:round; stroke-linecap:round;" d="M64.99 67.84c4.85-0.58 12.34-1.98 23.02-3.29c2.56-0.49 5.14-0.53 7.73-0.13"></path>

<path style="fill:none; fill-opacity:0%; fill-rule:evenodd; stroke:#000000; stroke-opacity:100%; stroke-width: 3pt; stroke-linejoin:round; stroke-linecap:round;" d="M11.5 27.54c1.11 1.1 1.43 2.24 1.51 3.43c0.72 5.71 1.64 14.09 2.39 21.42c0.27 2.65 0.53 5.16 0.74 7.37"></path>
<path style="fill:none; fill-opacity:0%; fill-rule:evenodd; stroke:#000000; stroke-opacity:100%; stroke-width: 3pt; stroke-linejoin:round; stroke-linecap:round;" d="M14.08 30.22c8.38-1.73 12.55-2.5 16.32-3.47c1.98-0.51 4.23 0.37 3.92 2.61c-0.8 5.94-2.05 14.07-3.46 22.25"></path>
<path style="fill:none; fill-opacity:0%; fill-rule:evenodd; stroke:#000000; stroke-opacity:100%; stroke-width: 3pt; stroke-linejoin:round; stroke-linecap:round;" d="M16.57 54.8c3.84-0.56 7.77-1.15 12.41-1.79c1.57-0.22 3.22-0.44 4.97-0.67"></path>
<path style="fill:none; fill-opacity:0%; fill-rule:evenodd; stroke:#000000; stroke-opacity:100%; stroke-width: 3pt; stroke-linejoin:round; stroke-linecap:round;" d="M55.76 13c0.04 0.98-0.15 2.35-0.58 3.68C51.5 28.12 48.12 39.5 40.31 53.5"></path>
<path style="fill:none; fill-opacity:0%; fill-rule:evenodd; stroke:#000000; stroke-opacity:100%; stroke-width: 3pt; stroke-linejoin:round; stroke-linecap:round;" d="M54.36 31.67c2.52 0.25 5.02 0.13 7.51-0.35c9.17-1.32 20.36-3.94 27.96-5.31c2.53-0.7 5.17-0.76 7.63-0.64"></path>
<path style="fill:none; fill-opacity:0%; fill-rule:evenodd; stroke:#000000; stroke-opacity:100%; stroke-width: 3pt; stroke-linejoin:round; stroke-linecap:round;" d="M62.5 33.25c1.13 1.13 1.19 2.25 1.19 3.84c0 0.74-0.04 31.76-0.06 49.66c-0.01 5.61-0.01 9.93-0.01 11.62"></path>
<text x="5" y="20" font-size="20" fill="#999999">7</text><path style="fill:none; fill-opacity:0%; fill-rule:evenodd; stroke:#CC0000; stroke-opacity:100%; stroke-width: 3pt; stroke-linejoin:round; stroke-linecap:round;" d="M65.32 48.38c5.65-0.95 12.61-2.46 18.92-3.42c2.05-0.45 4.13-0.5 6.23-0.13" marker-end="url(#TriangleRed)" marker-start="url(#ArrowRed)" ></path>


</g><g transform="scale(1.3761467889908 1.3761467889908) translate(218, 109)">
<path style="fill:none; fill-rule:evenodd; stroke:#aaaaaa;  stroke-width:1pt; stroke-linecap:round;" d="m 109 0 L 0 0 L 0 109 L 109 109 L 109 0"></path><path style="fill:none; fill-opacity:0%; fill-rule:evenodd; stroke:#aaaaaa; stroke-opacity:100%; stroke-width: 1.5pt; stroke-linejoin:round; stroke-linecap:round;" d="M11.5 27.54c1.11 1.1 1.43 2.24 1.51 3.43c0.72 5.71 1.64 14.09 2.39 21.42c0.27 2.65 0.53 5.16 0.74 7.37"></path>
<path style="fill:none; fill-opacity:0%; fill-rule:evenodd; stroke:#aaaaaa; stroke-opacity:100%; stroke-width: 1.5pt; stroke-linejoin:round; stroke-linecap:round;" d="M14.08 30.22c8.38-1.73 12.55-2.5 16.32-3.47c1.98-0.51 4.23 0.37 3.92 2.61c-0.8 5.94-2.05 14.07-3.46 22.25"></path>
<path style="fill:none; fill-opacity:0%; fill-rule:evenodd; stroke:#aaaaaa; stroke-opacity:100%; stroke-width: 1.5pt; stroke-linejoin:round; stroke-linecap:round;" d="M16.57 54.8c3.84-0.56 7.77-1.15 12.41-1.79c1.57-0.22 3.22-0.44 4.97-0.67"></path>
<path style="fill:none; fill-opacity:0%; fill-rule:evenodd; stroke:#aaaaaa; stroke-opacity:100%; stroke-width: 1.5pt; stroke-linejoin:round; stroke-linecap:round;" d="M55.76 13c0.04 0.98-0.15 2.35-0.58 3.68C51.5 28.12 48.12 39.5 40.31 53.5"></path>
<path style="fill:none; fill-opacity:0%; fill-rule:evenodd; stroke:#aaaaaa; stroke-opacity:100%; stroke-width: 1.5pt; stroke-linejoin:round; stroke-linecap:round;" d="M54.36 31.67c2.52 0.25 5.02 0.13 7.51-0.35c9.17-1.32 20.36-3.94 27.96-5.31c2.53-0.7 5.17-0.76 7.63-0.64"></path>
<path style="fill:none; fill-opacity:0%; fill-rule:evenodd; stroke:#aaaaaa; stroke-opacity:100%; stroke-width: 1.5pt; stroke-linejoin:round; stroke-linecap:round;" d="M62.5 33.25c1.13 1.13 1.19 2.25 1.19 3.84c0 0.74-0.04 31.76-0.06 49.66c-0.01 5.61-0.01 9.93-0.01 11.62"></path>
<path style="fill:none; fill-opacity:0%; fill-rule:evenodd; stroke:#aaaaaa; stroke-opacity:100%; stroke-width: 1.5pt; stroke-linejoin:round; stroke-linecap:round;" d="M65.32 48.38c5.65-0.95 12.61-2.46 18.92-3.42c2.05-0.45 4.13-0.5 6.23-0.13"></path>
<path style="fill:none; fill-opacity:0%; fill-rule:evenodd; stroke:#aaaaaa; stroke-opacity:100%; stroke-width: 1.5pt; stroke-linejoin:round; stroke-linecap:round;" d="M64.99 67.84c4.85-0.58 12.34-1.98 23.02-3.29c2.56-0.49 5.14-0.53 7.73-0.13"></path>

<path style="fill:none; fill-opacity:0%; fill-rule:evenodd; stroke:#000000; stroke-opacity:100%; stroke-width: 3pt; stroke-linejoin:round; stroke-linecap:round;" d="M11.5 27.54c1.11 1.1 1.43 2.24 1.51 3.43c0.72 5.71 1.64 14.09 2.39 21.42c0.27 2.65 0.53 5.16 0.74 7.37"></path>
<path style="fill:none; fill-opacity:0%; fill-rule:evenodd; stroke:#000000; stroke-opacity:100%; stroke-width: 3pt; stroke-linejoin:round; stroke-linecap:round;" d="M14.08 30.22c8.38-1.73 12.55-2.5 16.32-3.47c1.98-0.51 4.23 0.37 3.92 2.61c-0.8 5.94-2.05 14.07-3.46 22.25"></path>
<path style="fill:none; fill-opacity:0%; fill-rule:evenodd; stroke:#000000; stroke-opacity:100%; stroke-width: 3pt; stroke-linejoin:round; stroke-linecap:round;" d="M16.57 54.8c3.84-0.56 7.77-1.15 12.41-1.79c1.57-0.22 3.22-0.44 4.97-0.67"></path>
<path style="fill:none; fill-opacity:0%; fill-rule:evenodd; stroke:#000000; stroke-opacity:100%; stroke-width: 3pt; stroke-linejoin:round; stroke-linecap:round;" d="M55.76 13c0.04 0.98-0.15 2.35-0.58 3.68C51.5 28.12 48.12 39.5 40.31 53.5"></path>
<path style="fill:none; fill-opacity:0%; fill-rule:evenodd; stroke:#000000; stroke-opacity:100%; stroke-width: 3pt; stroke-linejoin:round; stroke-linecap:round;" d="M54.36 31.67c2.52 0.25 5.02 0.13 7.51-0.35c9.17-1.32 20.36-3.94 27.96-5.31c2.53-0.7 5.17-0.76 7.63-0.64"></path>
<path style="fill:none; fill-opacity:0%; fill-rule:evenodd; stroke:#000000; stroke-opacity:100%; stroke-width: 3pt; stroke-linejoin:round; stroke-linecap:round;" d="M62.5 33.25c1.13 1.13 1.19 2.25 1.19 3.84c0 0.74-0.04 31.76-0.06 49.66c-0.01 5.61-0.01 9.93-0.01 11.62"></path>
<path style="fill:none; fill-opacity:0%; fill-rule:evenodd; stroke:#000000; stroke-opacity:100%; stroke-width: 3pt; stroke-linejoin:round; stroke-linecap:round;" d="M65.32 48.38c5.65-0.95 12.61-2.46 18.92-3.42c2.05-0.45 4.13-0.5 6.23-0.13"></path>
<text x="5" y="20" font-size="20" fill="#999999">8</text><path style="fill:none; fill-opacity:0%; fill-rule:evenodd; stroke:#CC0000; stroke-opacity:100%; stroke-width: 3pt; stroke-linejoin:round; stroke-linecap:round;" d="M64.99 67.84c4.85-0.58 12.34-1.98 23.02-3.29c2.56-0.49 5.14-0.53 7.73-0.13" marker-end="url(#TriangleRed)" marker-start="url(#ArrowRed)" ></path>

</g>

</svg>  
          
