<?xml version="1.0" standalone="no"?>
<!DOCTYPE svg PUBLIC "-//W3C//DTD SVG 1.1//EN"   "http://www.w3.org/Graphics/SVG/1.1/DTD/svg11.dtd">
<svg width="751" height="301"  version="1.1" xmlns="http://www.w3.org/2000/svg">
  <defs>
    <marker id="Triangle" viewBox="0 0 10 10" refX="0" refY="5" markerUnits="strokeWidth" markerWidth="3" style="stroke-opacity:0%;fill:#aaaaaa;" markerHeight="2" orient="auto">
      <path d="M 0 0 L 10 5 L 0 10 z" />
    </marker>
    
    <marker id="Arrow" viewBox="0 0 10 10" refX="5" refY="5" markerUnits="strokeWidth" markerWidth="1.8" style="stroke-opacity:0%;fill:#770000;" markerHeight="2" orient="auto">
      <path d="M 0 4 L 6 4 L 4 1 L 10 5 L 4 9 L 6 6 L 0 6 z" />
        <circle cx="5" cy="5" r="5" />
      </marker>
    
    <marker id="TriangleRed" viewBox="0 0 10 10" refX="0" refY="5" markerUnits="strokeWidth" markerWidth="3" style="stroke-opacity:0%;fill:#CC0000;" markerHeight="2" orient="auto">
      <path d="M 0 0 L 10 5 L 0 10 z" />
    </marker>
    
    <marker id="ArrowRed" viewBox="0 0 10 10" refX="5" refY="5" markerUnits="strokeWidth" markerWidth="1.8" style="stroke-opacity:0%;fill:#CC0000;" markerHeight="2" orient="auto">
      <path d="M 0 4 L 6 4 L 4 1 L 10 5 L 4 9 L 6 6 L 0 6 z" />
        <circle cx="5" cy="5" r="5" />
      </marker>
    
  </defs>
  
  <path style="fill:#ffffff; fill-opacity:100%; fill-rule:evenodd; stroke-width:0;" d="M 0 0 L 751 0 L 751 301 L 0 301 L 0 0" />

  <g transform="scale(1.3761467889908 1.3761467889908) translate(0, 0)">
<path style="fill:none; fill-rule:evenodd; stroke:#aaaaaa;  stroke-width:1pt; stroke-linecap:round;" d="m 109 0 L 0 0 L 0 109 L 109 109 L 109 0"></path><path style="fill:none; fill-opacity:0%; fill-rule:evenodd; stroke:#aaaaaa; stroke-opacity:100%; stroke-width: 1.5pt; stroke-linejoin:round; stroke-linecap:round;" d="M8.75 33.29c0.37 0.51 0.76 0.94 0.92 1.58c1.29 5.07 2.84 18.54 3.73 27.63"></path>
<path style="fill:none; fill-opacity:0%; fill-rule:evenodd; stroke:#aaaaaa; stroke-opacity:100%; stroke-width: 1.5pt; stroke-linejoin:round; stroke-linecap:round;" d="M11.08 35.22c9.42-2.22 16.55-3.06 20.92-3.73c1.6-0.24 2.69 1.47 2.33 2.87c-1.57 6.14-3.05 14.57-4.46 22.75"></path>
<path style="fill:none; fill-opacity:0%; fill-rule:evenodd; stroke:#aaaaaa; stroke-opacity:100%; stroke-width: 1.5pt; stroke-linejoin:round; stroke-linecap:round;" d="M13.57 59.05c5.14-0.75 11.33-1.05 18.39-2.21"></path>
<path style="fill:none; fill-opacity:0%; fill-rule:evenodd; stroke:#aaaaaa; stroke-opacity:100%; stroke-width: 1.5pt; stroke-linejoin:round; stroke-linecap:round;" d="M41.45 21.23c0.9 0.39 4.06 0.43 4.96 0.39c11.94-0.47 31.69-3.7 45.93-3.93c1.5-0.02 2.91 0.19 3.66 0.39"></path>
<path style="fill:none; fill-opacity:0%; fill-rule:evenodd; stroke:#aaaaaa; stroke-opacity:100%; stroke-width: 1.5pt; stroke-linejoin:round; stroke-linecap:round;" d="M41.79 42.38c0.82 0.79 1.86 3.36 2.02 4.4c1.11 7.58 2.45 32.29 4.02 46.63"></path>
<path style="fill:none; fill-opacity:0%; fill-rule:evenodd; stroke:#aaaaaa; stroke-opacity:100%; stroke-width: 1.5pt; stroke-linejoin:round; stroke-linecap:round;" d="M43.39 44.67c12.48-1.52 41.38-4.69 49.89-4.92c3.53-0.1 5.11 2.7 4.68 6.41c-1.05 9.01-2.36 32.28-5.71 45.72"></path>
<path style="fill:none; fill-opacity:0%; fill-rule:evenodd; stroke:#aaaaaa; stroke-opacity:100%; stroke-width: 1.5pt; stroke-linejoin:round; stroke-linecap:round;" d="M61.95 23.1c0.37 1.32 0.71 4.23 0.63 6.07c-0.65 16.53-1.89 37.79-9.55 44.11"></path>
<path style="fill:none; fill-opacity:0%; fill-rule:evenodd; stroke:#aaaaaa; stroke-opacity:100%; stroke-width: 1.5pt; stroke-linejoin:round; stroke-linecap:round;" d="M73.92 21.77c0.73 1.1 1.36 2.4 1.36 4.09c0 14.82-0.35 28.65-0.35 33.14c0 5.76 0.82 7.43 6.36 7.43c4.69 0 7.78-1.16 8.04-1.5"></path>
<path style="fill:none; fill-opacity:0%; fill-rule:evenodd; stroke:#aaaaaa; stroke-opacity:100%; stroke-width: 1.5pt; stroke-linejoin:round; stroke-linecap:round;" d="M48.5 90.74c10.47-0.54 31.07-2.26 43.81-2.49"></path>

<text x="5" y="20" font-size="20" fill="#999999">1</text><path style="fill:none; fill-opacity:0%; fill-rule:evenodd; stroke:#CC0000; stroke-opacity:100%; stroke-width: 3pt; stroke-linejoin:round; stroke-linecap:round;" d="M8.75 33.29c0.37 0.51 0.76 0.94 0.92 1.58c1.29 5.07 2.84 18.54 3.73 27.63" marker-end="url(#TriangleRed)" marker-start="url(#ArrowRed)" ></path>









</g><g transform="scale(1.3761467889908 1.3761467889908) translate(109, 0)">
<path style="fill:none; fill-rule:evenodd; stroke:#aaaaaa;  stroke-width:1pt; stroke-linecap:round;" d="m 109 0 L 0 0 L 0 109 L 109 109 L 109 0"></path><path style="fill:none; fill-opacity:0%; fill-rule:evenodd; stroke:#aaaaaa; stroke-opacity:100%; stroke-width: 1.5pt; stroke-linejoin:round; stroke-linecap:round;" d="M8.75 33.29c0.37 0.51 0.76 0.94 0.92 1.58c1.29 5.07 2.84 18.54 3.73 27.63"></path>
<path style="fill:none; fill-opacity:0%; fill-rule:evenodd; stroke:#aaaaaa; stroke-opacity:100%; stroke-width: 1.5pt; stroke-linejoin:round; stroke-linecap:round;" d="M11.08 35.22c9.42-2.22 16.55-3.06 20.92-3.73c1.6-0.24 2.69 1.47 2.33 2.87c-1.57 6.14-3.05 14.57-4.46 22.75"></path>
<path style="fill:none; fill-opacity:0%; fill-rule:evenodd; stroke:#aaaaaa; stroke-opacity:100%; stroke-width: 1.5pt; stroke-linejoin:round; stroke-linecap:round;" d="M13.57 59.05c5.14-0.75 11.33-1.05 18.39-2.21"></path>
<path style="fill:none; fill-opacity:0%; fill-rule:evenodd; stroke:#aaaaaa; stroke-opacity:100%; stroke-width: 1.5pt; stroke-linejoin:round; stroke-linecap:round;" d="M41.45 21.23c0.9 0.39 4.06 0.43 4.96 0.39c11.94-0.47 31.69-3.7 45.93-3.93c1.5-0.02 2.91 0.19 3.66 0.39"></path>
<path style="fill:none; fill-opacity:0%; fill-rule:evenodd; stroke:#aaaaaa; stroke-opacity:100%; stroke-width: 1.5pt; stroke-linejoin:round; stroke-linecap:round;" d="M41.79 42.38c0.82 0.79 1.86 3.36 2.02 4.4c1.11 7.58 2.45 32.29 4.02 46.63"></path>
<path style="fill:none; fill-opacity:0%; fill-rule:evenodd; stroke:#aaaaaa; stroke-opacity:100%; stroke-width: 1.5pt; stroke-linejoin:round; stroke-linecap:round;" d="M43.39 44.67c12.48-1.52 41.38-4.69 49.89-4.92c3.53-0.1 5.11 2.7 4.68 6.41c-1.05 9.01-2.36 32.28-5.71 45.72"></path>
<path style="fill:none; fill-opacity:0%; fill-rule:evenodd; stroke:#aaaaaa; stroke-opacity:100%; stroke-width: 1.5pt; stroke-linejoin:round; stroke-linecap:round;" d="M61.95 23.1c0.37 1.32 0.71 4.23 0.63 6.07c-0.65 16.53-1.89 37.79-9.55 44.11"></path>
<path style="fill:none; fill-opacity:0%; fill-rule:evenodd; stroke:#aaaaaa; stroke-opacity:100%; stroke-width: 1.5pt; stroke-linejoin:round; stroke-linecap:round;" d="M73.92 21.77c0.73 1.1 1.36 2.4 1.36 4.09c0 14.82-0.35 28.65-0.35 33.14c0 5.76 0.82 7.43 6.36 7.43c4.69 0 7.78-1.16 8.04-1.5"></path>
<path style="fill:none; fill-opacity:0%; fill-rule:evenodd; stroke:#aaaaaa; stroke-opacity:100%; stroke-width: 1.5pt; stroke-linejoin:round; stroke-linecap:round;" d="M48.5 90.74c10.47-0.54 31.07-2.26 43.81-2.49"></path>

<path style="fill:none; fill-opacity:0%; fill-rule:evenodd; stroke:#000000; stroke-opacity:100%; stroke-width: 3pt; stroke-linejoin:round; stroke-linecap:round;" d="M8.75 33.29c0.37 0.51 0.76 0.94 0.92 1.58c1.29 5.07 2.84 18.54 3.73 27.63"></path>
<text x="5" y="20" font-size="20" fill="#999999">2</text><path style="fill:none; fill-opacity:0%; fill-rule:evenodd; stroke:#CC0000; stroke-opacity:100%; stroke-width: 3pt; stroke-linejoin:round; stroke-linecap:round;" d="M11.08 35.22c9.42-2.22 16.55-3.06 20.92-3.73c1.6-0.24 2.69 1.47 2.33 2.87c-1.57 6.14-3.05 14.57-4.46 22.75" marker-end="url(#TriangleRed)" marker-start="url(#ArrowRed)" ></path>








</g><g transform="scale(1.3761467889908 1.3761467889908) translate(218, 0)">
<path style="fill:none; fill-rule:evenodd; stroke:#aaaaaa;  stroke-width:1pt; stroke-linecap:round;" d="m 109 0 L 0 0 L 0 109 L 109 109 L 109 0"></path><path style="fill:none; fill-opacity:0%; fill-rule:evenodd; stroke:#aaaaaa; stroke-opacity:100%; stroke-width: 1.5pt; stroke-linejoin:round; stroke-linecap:round;" d="M8.75 33.29c0.37 0.51 0.76 0.94 0.92 1.58c1.29 5.07 2.84 18.54 3.73 27.63"></path>
<path style="fill:none; fill-opacity:0%; fill-rule:evenodd; stroke:#aaaaaa; stroke-opacity:100%; stroke-width: 1.5pt; stroke-linejoin:round; stroke-linecap:round;" d="M11.08 35.22c9.42-2.22 16.55-3.06 20.92-3.73c1.6-0.24 2.69 1.47 2.33 2.87c-1.57 6.14-3.05 14.57-4.46 22.75"></path>
<path style="fill:none; fill-opacity:0%; fill-rule:evenodd; stroke:#aaaaaa; stroke-opacity:100%; stroke-width: 1.5pt; stroke-linejoin:round; stroke-linecap:round;" d="M13.57 59.05c5.14-0.75 11.33-1.05 18.39-2.21"></path>
<path style="fill:none; fill-opacity:0%; fill-rule:evenodd; stroke:#aaaaaa; stroke-opacity:100%; stroke-width: 1.5pt; stroke-linejoin:round; stroke-linecap:round;" d="M41.45 21.23c0.9 0.39 4.06 0.43 4.96 0.39c11.94-0.47 31.69-3.7 45.93-3.93c1.5-0.02 2.91 0.19 3.66 0.39"></path>
<path style="fill:none; fill-opacity:0%; fill-rule:evenodd; stroke:#aaaaaa; stroke-opacity:100%; stroke-width: 1.5pt; stroke-linejoin:round; stroke-linecap:round;" d="M41.79 42.38c0.82 0.79 1.86 3.36 2.02 4.4c1.11 7.58 2.45 32.29 4.02 46.63"></path>
<path style="fill:none; fill-opacity:0%; fill-rule:evenodd; stroke:#aaaaaa; stroke-opacity:100%; stroke-width: 1.5pt; stroke-linejoin:round; stroke-linecap:round;" d="M43.39 44.67c12.48-1.52 41.38-4.69 49.89-4.92c3.53-0.1 5.11 2.7 4.68 6.41c-1.05 9.01-2.36 32.28-5.71 45.72"></path>
<path style="fill:none; fill-opacity:0%; fill-rule:evenodd; stroke:#aaaaaa; stroke-opacity:100%; stroke-width: 1.5pt; stroke-linejoin:round; stroke-linecap:round;" d="M61.95 23.1c0.37 1.32 0.71 4.23 0.63 6.07c-0.65 16.53-1.89 37.79-9.55 44.11"></path>
<path style="fill:none; fill-opacity:0%; fill-rule:evenodd; stroke:#aaaaaa; stroke-opacity:100%; stroke-width: 1.5pt; stroke-linejoin:round; stroke-linecap:round;" d="M73.92 21.77c0.73 1.1 1.36 2.4 1.36 4.09c0 14.82-0.35 28.65-0.35 33.14c0 5.76 0.82 7.43 6.36 7.43c4.69 0 7.78-1.16 8.04-1.5"></path>
<path style="fill:none; fill-opacity:0%; fill-rule:evenodd; stroke:#aaaaaa; stroke-opacity:100%; stroke-width: 1.5pt; stroke-linejoin:round; stroke-linecap:round;" d="M48.5 90.74c10.47-0.54 31.07-2.26 43.81-2.49"></path>

<path style="fill:none; fill-opacity:0%; fill-rule:evenodd; stroke:#000000; stroke-opacity:100%; stroke-width: 3pt; stroke-linejoin:round; stroke-linecap:round;" d="M8.75 33.29c0.37 0.51 0.76 0.94 0.92 1.58c1.29 5.07 2.84 18.54 3.73 27.63"></path>
<path style="fill:none; fill-opacity:0%; fill-rule:evenodd; stroke:#000000; stroke-opacity:100%; stroke-width: 3pt; stroke-linejoin:round; stroke-linecap:round;" d="M11.08 35.22c9.42-2.22 16.55-3.06 20.92-3.73c1.6-0.24 2.69 1.47 2.33 2.87c-1.57 6.14-3.05 14.57-4.46 22.75"></path>
<text x="5" y="20" font-size="20" fill="#999999">3</text><path style="fill:none; fill-opacity:0%; fill-rule:evenodd; stroke:#CC0000; stroke-opacity:100%; stroke-width: 3pt; stroke-linejoin:round; stroke-linecap:round;" d="M13.57 59.05c5.14-0.75 11.33-1.05 18.39-2.21" marker-end="url(#TriangleRed)" marker-start="url(#ArrowRed)" ></path>







</g><g transform="scale(1.3761467889908 1.3761467889908) translate(327, 0)">
<path style="fill:none; fill-rule:evenodd; stroke:#aaaaaa;  stroke-width:1pt; stroke-linecap:round;" d="m 109 0 L 0 0 L 0 109 L 109 109 L 109 0"></path><path style="fill:none; fill-opacity:0%; fill-rule:evenodd; stroke:#aaaaaa; stroke-opacity:100%; stroke-width: 1.5pt; stroke-linejoin:round; stroke-linecap:round;" d="M8.75 33.29c0.37 0.51 0.76 0.94 0.92 1.58c1.29 5.07 2.84 18.54 3.73 27.63"></path>
<path style="fill:none; fill-opacity:0%; fill-rule:evenodd; stroke:#aaaaaa; stroke-opacity:100%; stroke-width: 1.5pt; stroke-linejoin:round; stroke-linecap:round;" d="M11.08 35.22c9.42-2.22 16.55-3.06 20.92-3.73c1.6-0.24 2.69 1.47 2.33 2.87c-1.57 6.14-3.05 14.57-4.46 22.75"></path>
<path style="fill:none; fill-opacity:0%; fill-rule:evenodd; stroke:#aaaaaa; stroke-opacity:100%; stroke-width: 1.5pt; stroke-linejoin:round; stroke-linecap:round;" d="M13.57 59.05c5.14-0.75 11.33-1.05 18.39-2.21"></path>
<path style="fill:none; fill-opacity:0%; fill-rule:evenodd; stroke:#aaaaaa; stroke-opacity:100%; stroke-width: 1.5pt; stroke-linejoin:round; stroke-linecap:round;" d="M41.45 21.23c0.9 0.39 4.06 0.43 4.96 0.39c11.94-0.47 31.69-3.7 45.93-3.93c1.5-0.02 2.91 0.19 3.66 0.39"></path>
<path style="fill:none; fill-opacity:0%; fill-rule:evenodd; stroke:#aaaaaa; stroke-opacity:100%; stroke-width: 1.5pt; stroke-linejoin:round; stroke-linecap:round;" d="M41.79 42.38c0.82 0.79 1.86 3.36 2.02 4.4c1.11 7.58 2.45 32.29 4.02 46.63"></path>
<path style="fill:none; fill-opacity:0%; fill-rule:evenodd; stroke:#aaaaaa; stroke-opacity:100%; stroke-width: 1.5pt; stroke-linejoin:round; stroke-linecap:round;" d="M43.39 44.67c12.48-1.52 41.38-4.69 49.89-4.92c3.53-0.1 5.11 2.7 4.68 6.41c-1.05 9.01-2.36 32.28-5.71 45.72"></path>
<path style="fill:none; fill-opacity:0%; fill-rule:evenodd; stroke:#aaaaaa; stroke-opacity:100%; stroke-width: 1.5pt; stroke-linejoin:round; stroke-linecap:round;" d="M61.95 23.1c0.37 1.32 0.71 4.23 0.63 6.07c-0.65 16.53-1.89 37.79-9.55 44.11"></path>
<path style="fill:none; fill-opacity:0%; fill-rule:evenodd; stroke:#aaaaaa; stroke-opacity:100%; stroke-width: 1.5pt; stroke-linejoin:round; stroke-linecap:round;" d="M73.92 21.77c0.73 1.1 1.36 2.4 1.36 4.09c0 14.82-0.35 28.65-0.35 33.14c0 5.76 0.82 7.43 6.36 7.43c4.69 0 7.78-1.16 8.04-1.5"></path>
<path style="fill:none; fill-opacity:0%; fill-rule:evenodd; stroke:#aaaaaa; stroke-opacity:100%; stroke-width: 1.5pt; stroke-linejoin:round; stroke-linecap:round;" d="M48.5 90.74c10.47-0.54 31.07-2.26 43.81-2.49"></path>

<path style="fill:none; fill-opacity:0%; fill-rule:evenodd; stroke:#000000; stroke-opacity:100%; stroke-width: 3pt; stroke-linejoin:round; stroke-linecap:round;" d="M8.75 33.29c0.37 0.51 0.76 0.94 0.92 1.58c1.29 5.07 2.84 18.54 3.73 27.63"></path>
<path style="fill:none; fill-opacity:0%; fill-rule:evenodd; stroke:#000000; stroke-opacity:100%; stroke-width: 3pt; stroke-linejoin:round; stroke-linecap:round;" d="M11.08 35.22c9.42-2.22 16.55-3.06 20.92-3.73c1.6-0.24 2.69 1.47 2.33 2.87c-1.57 6.14-3.05 14.57-4.46 22.75"></path>
<path style="fill:none; fill-opacity:0%; fill-rule:evenodd; stroke:#000000; stroke-opacity:100%; stroke-width: 3pt; stroke-linejoin:round; stroke-linecap:round;" d="M13.57 59.05c5.14-0.75 11.33-1.05 18.39-2.21"></path>
<text x="5" y="20" font-size="20" fill="#999999">4</text><path style="fill:none; fill-opacity:0%; fill-rule:evenodd; stroke:#CC0000; stroke-opacity:100%; stroke-width: 3pt; stroke-linejoin:round; stroke-linecap:round;" d="M41.45 21.23c0.9 0.39 4.06 0.43 4.96 0.39c11.94-0.47 31.69-3.7 45.93-3.93c1.5-0.02 2.91 0.19 3.66 0.39" marker-end="url(#TriangleRed)" marker-start="url(#ArrowRed)" ></path>






</g><g transform="scale(1.3761467889908 1.3761467889908) translate(436, 0)">
<path style="fill:none; fill-rule:evenodd; stroke:#aaaaaa;  stroke-width:1pt; stroke-linecap:round;" d="m 109 0 L 0 0 L 0 109 L 109 109 L 109 0"></path><path style="fill:none; fill-opacity:0%; fill-rule:evenodd; stroke:#aaaaaa; stroke-opacity:100%; stroke-width: 1.5pt; stroke-linejoin:round; stroke-linecap:round;" d="M8.75 33.29c0.37 0.51 0.76 0.94 0.92 1.58c1.29 5.07 2.84 18.54 3.73 27.63"></path>
<path style="fill:none; fill-opacity:0%; fill-rule:evenodd; stroke:#aaaaaa; stroke-opacity:100%; stroke-width: 1.5pt; stroke-linejoin:round; stroke-linecap:round;" d="M11.08 35.22c9.42-2.22 16.55-3.06 20.92-3.73c1.6-0.24 2.69 1.47 2.33 2.87c-1.57 6.14-3.05 14.57-4.46 22.75"></path>
<path style="fill:none; fill-opacity:0%; fill-rule:evenodd; stroke:#aaaaaa; stroke-opacity:100%; stroke-width: 1.5pt; stroke-linejoin:round; stroke-linecap:round;" d="M13.57 59.05c5.14-0.75 11.33-1.05 18.39-2.21"></path>
<path style="fill:none; fill-opacity:0%; fill-rule:evenodd; stroke:#aaaaaa; stroke-opacity:100%; stroke-width: 1.5pt; stroke-linejoin:round; stroke-linecap:round;" d="M41.45 21.23c0.9 0.39 4.06 0.43 4.96 0.39c11.94-0.47 31.69-3.7 45.93-3.93c1.5-0.02 2.91 0.19 3.66 0.39"></path>
<path style="fill:none; fill-opacity:0%; fill-rule:evenodd; stroke:#aaaaaa; stroke-opacity:100%; stroke-width: 1.5pt; stroke-linejoin:round; stroke-linecap:round;" d="M41.79 42.38c0.82 0.79 1.86 3.36 2.02 4.4c1.11 7.58 2.45 32.29 4.02 46.63"></path>
<path style="fill:none; fill-opacity:0%; fill-rule:evenodd; stroke:#aaaaaa; stroke-opacity:100%; stroke-width: 1.5pt; stroke-linejoin:round; stroke-linecap:round;" d="M43.39 44.67c12.48-1.52 41.38-4.69 49.89-4.92c3.53-0.1 5.11 2.7 4.68 6.41c-1.05 9.01-2.36 32.28-5.71 45.72"></path>
<path style="fill:none; fill-opacity:0%; fill-rule:evenodd; stroke:#aaaaaa; stroke-opacity:100%; stroke-width: 1.5pt; stroke-linejoin:round; stroke-linecap:round;" d="M61.95 23.1c0.37 1.32 0.71 4.23 0.63 6.07c-0.65 16.53-1.89 37.79-9.55 44.11"></path>
<path style="fill:none; fill-opacity:0%; fill-rule:evenodd; stroke:#aaaaaa; stroke-opacity:100%; stroke-width: 1.5pt; stroke-linejoin:round; stroke-linecap:round;" d="M73.92 21.77c0.73 1.1 1.36 2.4 1.36 4.09c0 14.82-0.35 28.65-0.35 33.14c0 5.76 0.82 7.43 6.36 7.43c4.69 0 7.78-1.16 8.04-1.5"></path>
<path style="fill:none; fill-opacity:0%; fill-rule:evenodd; stroke:#aaaaaa; stroke-opacity:100%; stroke-width: 1.5pt; stroke-linejoin:round; stroke-linecap:round;" d="M48.5 90.74c10.47-0.54 31.07-2.26 43.81-2.49"></path>

<path style="fill:none; fill-opacity:0%; fill-rule:evenodd; stroke:#000000; stroke-opacity:100%; stroke-width: 3pt; stroke-linejoin:round; stroke-linecap:round;" d="M8.75 33.29c0.37 0.51 0.76 0.94 0.92 1.58c1.29 5.07 2.84 18.54 3.73 27.63"></path>
<path style="fill:none; fill-opacity:0%; fill-rule:evenodd; stroke:#000000; stroke-opacity:100%; stroke-width: 3pt; stroke-linejoin:round; stroke-linecap:round;" d="M11.08 35.22c9.42-2.22 16.55-3.06 20.92-3.73c1.6-0.24 2.69 1.47 2.33 2.87c-1.57 6.14-3.05 14.57-4.46 22.75"></path>
<path style="fill:none; fill-opacity:0%; fill-rule:evenodd; stroke:#000000; stroke-opacity:100%; stroke-width: 3pt; stroke-linejoin:round; stroke-linecap:round;" d="M13.57 59.05c5.14-0.75 11.33-1.05 18.39-2.21"></path>
<path style="fill:none; fill-opacity:0%; fill-rule:evenodd; stroke:#000000; stroke-opacity:100%; stroke-width: 3pt; stroke-linejoin:round; stroke-linecap:round;" d="M41.45 21.23c0.9 0.39 4.06 0.43 4.96 0.39c11.94-0.47 31.69-3.7 45.93-3.93c1.5-0.02 2.91 0.19 3.66 0.39"></path>
<text x="5" y="20" font-size="20" fill="#999999">5</text><path style="fill:none; fill-opacity:0%; fill-rule:evenodd; stroke:#CC0000; stroke-opacity:100%; stroke-width: 3pt; stroke-linejoin:round; stroke-linecap:round;" d="M41.79 42.38c0.82 0.79 1.86 3.36 2.02 4.4c1.11 7.58 2.45 32.29 4.02 46.63" marker-end="url(#TriangleRed)" marker-start="url(#ArrowRed)" ></path>





</g><g transform="scale(1.3761467889908 1.3761467889908) translate(0, 109)">
<path style="fill:none; fill-rule:evenodd; stroke:#aaaaaa;  stroke-width:1pt; stroke-linecap:round;" d="m 109 0 L 0 0 L 0 109 L 109 109 L 109 0"></path><path style="fill:none; fill-opacity:0%; fill-rule:evenodd; stroke:#aaaaaa; stroke-opacity:100%; stroke-width: 1.5pt; stroke-linejoin:round; stroke-linecap:round;" d="M8.75 33.29c0.37 0.51 0.76 0.94 0.92 1.58c1.29 5.07 2.84 18.54 3.73 27.63"></path>
<path style="fill:none; fill-opacity:0%; fill-rule:evenodd; stroke:#aaaaaa; stroke-opacity:100%; stroke-width: 1.5pt; stroke-linejoin:round; stroke-linecap:round;" d="M11.08 35.22c9.42-2.22 16.55-3.06 20.92-3.73c1.6-0.24 2.69 1.47 2.33 2.87c-1.57 6.14-3.05 14.57-4.46 22.75"></path>
<path style="fill:none; fill-opacity:0%; fill-rule:evenodd; stroke:#aaaaaa; stroke-opacity:100%; stroke-width: 1.5pt; stroke-linejoin:round; stroke-linecap:round;" d="M13.57 59.05c5.14-0.75 11.33-1.05 18.39-2.21"></path>
<path style="fill:none; fill-opacity:0%; fill-rule:evenodd; stroke:#aaaaaa; stroke-opacity:100%; stroke-width: 1.5pt; stroke-linejoin:round; stroke-linecap:round;" d="M41.45 21.23c0.9 0.39 4.06 0.43 4.96 0.39c11.94-0.47 31.69-3.7 45.93-3.93c1.5-0.02 2.91 0.19 3.66 0.39"></path>
<path style="fill:none; fill-opacity:0%; fill-rule:evenodd; stroke:#aaaaaa; stroke-opacity:100%; stroke-width: 1.5pt; stroke-linejoin:round; stroke-linecap:round;" d="M41.79 42.38c0.82 0.79 1.86 3.36 2.02 4.4c1.11 7.58 2.45 32.29 4.02 46.63"></path>
<path style="fill:none; fill-opacity:0%; fill-rule:evenodd; stroke:#aaaaaa; stroke-opacity:100%; stroke-width: 1.5pt; stroke-linejoin:round; stroke-linecap:round;" d="M43.39 44.67c12.48-1.52 41.38-4.69 49.89-4.92c3.53-0.1 5.11 2.7 4.68 6.41c-1.05 9.01-2.36 32.28-5.71 45.72"></path>
<path style="fill:none; fill-opacity:0%; fill-rule:evenodd; stroke:#aaaaaa; stroke-opacity:100%; stroke-width: 1.5pt; stroke-linejoin:round; stroke-linecap:round;" d="M61.95 23.1c0.37 1.32 0.71 4.23 0.63 6.07c-0.65 16.53-1.89 37.79-9.55 44.11"></path>
<path style="fill:none; fill-opacity:0%; fill-rule:evenodd; stroke:#aaaaaa; stroke-opacity:100%; stroke-width: 1.5pt; stroke-linejoin:round; stroke-linecap:round;" d="M73.92 21.77c0.73 1.1 1.36 2.4 1.36 4.09c0 14.82-0.35 28.65-0.35 33.14c0 5.76 0.82 7.43 6.36 7.43c4.69 0 7.78-1.16 8.04-1.5"></path>
<path style="fill:none; fill-opacity:0%; fill-rule:evenodd; stroke:#aaaaaa; stroke-opacity:100%; stroke-width: 1.5pt; stroke-linejoin:round; stroke-linecap:round;" d="M48.5 90.74c10.47-0.54 31.07-2.26 43.81-2.49"></path>

<path style="fill:none; fill-opacity:0%; fill-rule:evenodd; stroke:#000000; stroke-opacity:100%; stroke-width: 3pt; stroke-linejoin:round; stroke-linecap:round;" d="M8.75 33.29c0.37 0.51 0.76 0.94 0.92 1.58c1.29 5.07 2.84 18.54 3.73 27.63"></path>
<path style="fill:none; fill-opacity:0%; fill-rule:evenodd; stroke:#000000; stroke-opacity:100%; stroke-width: 3pt; stroke-linejoin:round; stroke-linecap:round;" d="M11.08 35.22c9.42-2.22 16.55-3.06 20.92-3.73c1.6-0.24 2.69 1.47 2.33 2.87c-1.57 6.14-3.05 14.57-4.46 22.75"></path>
<path style="fill:none; fill-opacity:0%; fill-rule:evenodd; stroke:#000000; stroke-opacity:100%; stroke-width: 3pt; stroke-linejoin:round; stroke-linecap:round;" d="M13.57 59.05c5.14-0.75 11.33-1.05 18.39-2.21"></path>
<path style="fill:none; fill-opacity:0%; fill-rule:evenodd; stroke:#000000; stroke-opacity:100%; stroke-width: 3pt; stroke-linejoin:round; stroke-linecap:round;" d="M41.45 21.23c0.9 0.39 4.06 0.43 4.96 0.39c11.94-0.47 31.69-3.7 45.93-3.93c1.5-0.02 2.91 0.19 3.66 0.39"></path>
<path style="fill:none; fill-opacity:0%; fill-rule:evenodd; stroke:#000000; stroke-opacity:100%; stroke-width: 3pt; stroke-linejoin:round; stroke-linecap:round;" d="M41.79 42.38c0.82 0.79 1.86 3.36 2.02 4.4c1.11 7.58 2.45 32.29 4.02 46.63"></path>
<text x="5" y="20" font-size="20" fill="#999999">6</text><path style="fill:none; fill-opacity:0%; fill-rule:evenodd; stroke:#CC0000; stroke-opacity:100%; stroke-width: 3pt; stroke-linejoin:round; stroke-linecap:round;" d="M43.39 44.67c12.48-1.52 41.38-4.69 49.89-4.92c3.53-0.1 5.11 2.7 4.68 6.41c-1.05 9.01-2.36 32.28-5.71 45.72" marker-end="url(#TriangleRed)" marker-start="url(#ArrowRed)" ></path>




</g><g transform="scale(1.3761467889908 1.3761467889908) translate(109, 109)">
<path style="fill:none; fill-rule:evenodd; stroke:#aaaaaa;  stroke-width:1pt; stroke-linecap:round;" d="m 109 0 L 0 0 L 0 109 L 109 109 L 109 0"></path><path style="fill:none; fill-opacity:0%; fill-rule:evenodd; stroke:#aaaaaa; stroke-opacity:100%; stroke-width: 1.5pt; stroke-linejoin:round; stroke-linecap:round;" d="M8.75 33.29c0.37 0.51 0.76 0.94 0.92 1.58c1.29 5.07 2.84 18.54 3.73 27.63"></path>
<path style="fill:none; fill-opacity:0%; fill-rule:evenodd; stroke:#aaaaaa; stroke-opacity:100%; stroke-width: 1.5pt; stroke-linejoin:round; stroke-linecap:round;" d="M11.08 35.22c9.42-2.22 16.55-3.06 20.92-3.73c1.6-0.24 2.69 1.47 2.33 2.87c-1.57 6.14-3.05 14.57-4.46 22.75"></path>
<path style="fill:none; fill-opacity:0%; fill-rule:evenodd; stroke:#aaaaaa; stroke-opacity:100%; stroke-width: 1.5pt; stroke-linejoin:round; stroke-linecap:round;" d="M13.57 59.05c5.14-0.75 11.33-1.05 18.39-2.21"></path>
<path style="fill:none; fill-opacity:0%; fill-rule:evenodd; stroke:#aaaaaa; stroke-opacity:100%; stroke-width: 1.5pt; stroke-linejoin:round; stroke-linecap:round;" d="M41.45 21.23c0.9 0.39 4.06 0.43 4.96 0.39c11.94-0.47 31.69-3.7 45.93-3.93c1.5-0.02 2.91 0.19 3.66 0.39"></path>
<path style="fill:none; fill-opacity:0%; fill-rule:evenodd; stroke:#aaaaaa; stroke-opacity:100%; stroke-width: 1.5pt; stroke-linejoin:round; stroke-linecap:round;" d="M41.79 42.38c0.82 0.79 1.86 3.36 2.02 4.4c1.11 7.58 2.45 32.29 4.02 46.63"></path>
<path style="fill:none; fill-opacity:0%; fill-rule:evenodd; stroke:#aaaaaa; stroke-opacity:100%; stroke-width: 1.5pt; stroke-linejoin:round; stroke-linecap:round;" d="M43.39 44.67c12.48-1.52 41.38-4.69 49.89-4.92c3.53-0.1 5.11 2.7 4.68 6.41c-1.05 9.01-2.36 32.28-5.71 45.72"></path>
<path style="fill:none; fill-opacity:0%; fill-rule:evenodd; stroke:#aaaaaa; stroke-opacity:100%; stroke-width: 1.5pt; stroke-linejoin:round; stroke-linecap:round;" d="M61.95 23.1c0.37 1.32 0.71 4.23 0.63 6.07c-0.65 16.53-1.89 37.79-9.55 44.11"></path>
<path style="fill:none; fill-opacity:0%; fill-rule:evenodd; stroke:#aaaaaa; stroke-opacity:100%; stroke-width: 1.5pt; stroke-linejoin:round; stroke-linecap:round;" d="M73.92 21.77c0.73 1.1 1.36 2.4 1.36 4.09c0 14.82-0.35 28.65-0.35 33.14c0 5.76 0.82 7.43 6.36 7.43c4.69 0 7.78-1.16 8.04-1.5"></path>
<path style="fill:none; fill-opacity:0%; fill-rule:evenodd; stroke:#aaaaaa; stroke-opacity:100%; stroke-width: 1.5pt; stroke-linejoin:round; stroke-linecap:round;" d="M48.5 90.74c10.47-0.54 31.07-2.26 43.81-2.49"></path>

<path style="fill:none; fill-opacity:0%; fill-rule:evenodd; stroke:#000000; stroke-opacity:100%; stroke-width: 3pt; stroke-linejoin:round; stroke-linecap:round;" d="M8.75 33.29c0.37 0.51 0.76 0.94 0.92 1.58c1.29 5.07 2.84 18.54 3.73 27.63"></path>
<path style="fill:none; fill-opacity:0%; fill-rule:evenodd; stroke:#000000; stroke-opacity:100%; stroke-width: 3pt; stroke-linejoin:round; stroke-linecap:round;" d="M11.08 35.22c9.42-2.22 16.55-3.06 20.92-3.73c1.6-0.24 2.69 1.47 2.33 2.87c-1.57 6.14-3.05 14.57-4.46 22.75"></path>
<path style="fill:none; fill-opacity:0%; fill-rule:evenodd; stroke:#000000; stroke-opacity:100%; stroke-width: 3pt; stroke-linejoin:round; stroke-linecap:round;" d="M13.57 59.05c5.14-0.75 11.33-1.05 18.39-2.21"></path>
<path style="fill:none; fill-opacity:0%; fill-rule:evenodd; stroke:#000000; stroke-opacity:100%; stroke-width: 3pt; stroke-linejoin:round; stroke-linecap:round;" d="M41.45 21.23c0.9 0.39 4.06 0.43 4.96 0.39c11.94-0.47 31.69-3.7 45.93-3.93c1.5-0.02 2.91 0.19 3.66 0.39"></path>
<path style="fill:none; fill-opacity:0%; fill-rule:evenodd; stroke:#000000; stroke-opacity:100%; stroke-width: 3pt; stroke-linejoin:round; stroke-linecap:round;" d="M41.79 42.38c0.82 0.79 1.86 3.36 2.02 4.4c1.11 7.58 2.45 32.29 4.02 46.63"></path>
<path style="fill:none; fill-opacity:0%; fill-rule:evenodd; stroke:#000000; stroke-opacity:100%; stroke-width: 3pt; stroke-linejoin:round; stroke-linecap:round;" d="M43.39 44.67c12.48-1.52 41.38-4.69 49.89-4.92c3.53-0.1 5.11 2.7 4.68 6.41c-1.05 9.01-2.36 32.28-5.71 45.72"></path>
<text x="5" y="20" font-size="20" fill="#999999">7</text><path style="fill:none; fill-opacity:0%; fill-rule:evenodd; stroke:#CC0000; stroke-opacity:100%; stroke-width: 3pt; stroke-linejoin:round; stroke-linecap:round;" d="M61.95 23.1c0.37 1.32 0.71 4.23 0.63 6.07c-0.65 16.53-1.89 37.79-9.55 44.11" marker-end="url(#TriangleRed)" marker-start="url(#ArrowRed)" ></path>



</g><g transform="scale(1.3761467889908 1.3761467889908) translate(218, 109)">
<path style="fill:none; fill-rule:evenodd; stroke:#aaaaaa;  stroke-width:1pt; stroke-linecap:round;" d="m 109 0 L 0 0 L 0 109 L 109 109 L 109 0"></path><path style="fill:none; fill-opacity:0%; fill-rule:evenodd; stroke:#aaaaaa; stroke-opacity:100%; stroke-width: 1.5pt; stroke-linejoin:round; stroke-linecap:round;" d="M8.75 33.29c0.37 0.51 0.76 0.94 0.92 1.58c1.29 5.07 2.84 18.54 3.73 27.63"></path>
<path style="fill:none; fill-opacity:0%; fill-rule:evenodd; stroke:#aaaaaa; stroke-opacity:100%; stroke-width: 1.5pt; stroke-linejoin:round; stroke-linecap:round;" d="M11.08 35.22c9.42-2.22 16.55-3.06 20.92-3.73c1.6-0.24 2.69 1.47 2.33 2.87c-1.57 6.14-3.05 14.57-4.46 22.75"></path>
<path style="fill:none; fill-opacity:0%; fill-rule:evenodd; stroke:#aaaaaa; stroke-opacity:100%; stroke-width: 1.5pt; stroke-linejoin:round; stroke-linecap:round;" d="M13.57 59.05c5.14-0.75 11.33-1.05 18.39-2.21"></path>
<path style="fill:none; fill-opacity:0%; fill-rule:evenodd; stroke:#aaaaaa; stroke-opacity:100%; stroke-width: 1.5pt; stroke-linejoin:round; stroke-linecap:round;" d="M41.45 21.23c0.9 0.39 4.06 0.43 4.96 0.39c11.94-0.47 31.69-3.7 45.93-3.93c1.5-0.02 2.91 0.19 3.66 0.39"></path>
<path style="fill:none; fill-opacity:0%; fill-rule:evenodd; stroke:#aaaaaa; stroke-opacity:100%; stroke-width: 1.5pt; stroke-linejoin:round; stroke-linecap:round;" d="M41.79 42.38c0.82 0.79 1.86 3.36 2.02 4.4c1.11 7.58 2.45 32.29 4.02 46.63"></path>
<path style="fill:none; fill-opacity:0%; fill-rule:evenodd; stroke:#aaaaaa; stroke-opacity:100%; stroke-width: 1.5pt; stroke-linejoin:round; stroke-linecap:round;" d="M43.39 44.67c12.48-1.52 41.38-4.69 49.89-4.92c3.53-0.1 5.11 2.7 4.68 6.41c-1.05 9.01-2.36 32.28-5.71 45.72"></path>
<path style="fill:none; fill-opacity:0%; fill-rule:evenodd; stroke:#aaaaaa; stroke-opacity:100%; stroke-width: 1.5pt; stroke-linejoin:round; stroke-linecap:round;" d="M61.95 23.1c0.37 1.32 0.71 4.23 0.63 6.07c-0.65 16.53-1.89 37.79-9.55 44.11"></path>
<path style="fill:none; fill-opacity:0%; fill-rule:evenodd; stroke:#aaaaaa; stroke-opacity:100%; stroke-width: 1.5pt; stroke-linejoin:round; stroke-linecap:round;" d="M73.92 21.77c0.73 1.1 1.36 2.4 1.36 4.09c0 14.82-0.35 28.65-0.35 33.14c0 5.76 0.82 7.43 6.36 7.43c4.69 0 7.78-1.16 8.04-1.5"></path>
<path style="fill:none; fill-opacity:0%; fill-rule:evenodd; stroke:#aaaaaa; stroke-opacity:100%; stroke-width: 1.5pt; stroke-linejoin:round; stroke-linecap:round;" d="M48.5 90.74c10.47-0.54 31.07-2.26 43.81-2.49"></path>

<path style="fill:none; fill-opacity:0%; fill-rule:evenodd; stroke:#000000; stroke-opacity:100%; stroke-width: 3pt; stroke-linejoin:round; stroke-linecap:round;" d="M8.75 33.29c0.37 0.51 0.76 0.94 0.92 1.58c1.29 5.07 2.84 18.54 3.73 27.63"></path>
<path style="fill:none; fill-opacity:0%; fill-rule:evenodd; stroke:#000000; stroke-opacity:100%; stroke-width: 3pt; stroke-linejoin:round; stroke-linecap:round;" d="M11.08 35.22c9.42-2.22 16.55-3.06 20.92-3.73c1.6-0.24 2.69 1.47 2.33 2.87c-1.57 6.14-3.05 14.57-4.46 22.75"></path>
<path style="fill:none; fill-opacity:0%; fill-rule:evenodd; stroke:#000000; stroke-opacity:100%; stroke-width: 3pt; stroke-linejoin:round; stroke-linecap:round;" d="M13.57 59.05c5.14-0.75 11.33-1.05 18.39-2.21"></path>
<path style="fill:none; fill-opacity:0%; fill-rule:evenodd; stroke:#000000; stroke-opacity:100%; stroke-width: 3pt; stroke-linejoin:round; stroke-linecap:round;" d="M41.45 21.23c0.9 0.39 4.06 0.43 4.96 0.39c11.94-0.47 31.69-3.7 45.93-3.93c1.5-0.02 2.91 0.19 3.66 0.39"></path>
<path style="fill:none; fill-opacity:0%; fill-rule:evenodd; stroke:#000000; stroke-opacity:100%; stroke-width: 3pt; stroke-linejoin:round; stroke-linecap:round;" d="M41.79 42.38c0.82 0.79 1.86 3.36 2.02 4.4c1.11 7.58 2.45 32.29 4.02 46.63"></path>
<path style="fill:none; fill-opacity:0%; fill-rule:evenodd; stroke:#000000; stroke-opacity:100%; stroke-width: 3pt; stroke-linejoin:round; stroke-linecap:round;" d="M43.39 44.67c12.48-1.52 41.38-4.69 49.89-4.92c3.53-0.1 5.11 2.7 4.68 6.41c-1.05 9.01-2.36 32.28-5.71 45.72"></path>
<path style="fill:none; fill-opacity:0%; fill-rule:evenodd; stroke:#000000; stroke-opacity:100%; stroke-width: 3pt; stroke-linejoin:round; stroke-linecap:round;" d="M61.95 23.1c0.37 1.32 0.71 4.23 0.63 6.07c-0.65 16.53-1.89 37.79-9.55 44.11"></path>
<text x="5" y="20" font-size="20" fill="#999999">8</text><path style="fill:none; fill-opacity:0%; fill-rule:evenodd; stroke:#CC0000; stroke-opacity:100%; stroke-width: 3pt; stroke-linejoin:round; stroke-linecap:round;" d="M73.92 21.77c0.73 1.1 1.36 2.4 1.36 4.09c0 14.82-0.35 28.65-0.35 33.14c0 5.76 0.82 7.43 6.36 7.43c4.69 0 7.78-1.16 8.04-1.5" marker-end="url(#TriangleRed)" marker-start="url(#ArrowRed)" ></path>


</g><g transform="scale(1.3761467889908 1.3761467889908) translate(327, 109)">
<path style="fill:none; fill-rule:evenodd; stroke:#aaaaaa;  stroke-width:1pt; stroke-linecap:round;" d="m 109 0 L 0 0 L 0 109 L 109 109 L 109 0"></path><path style="fill:none; fill-opacity:0%; fill-rule:evenodd; stroke:#aaaaaa; stroke-opacity:100%; stroke-width: 1.5pt; stroke-linejoin:round; stroke-linecap:round;" d="M8.75 33.29c0.37 0.51 0.76 0.94 0.92 1.58c1.29 5.07 2.84 18.54 3.73 27.63"></path>
<path style="fill:none; fill-opacity:0%; fill-rule:evenodd; stroke:#aaaaaa; stroke-opacity:100%; stroke-width: 1.5pt; stroke-linejoin:round; stroke-linecap:round;" d="M11.08 35.22c9.42-2.22 16.55-3.06 20.92-3.73c1.6-0.24 2.69 1.47 2.33 2.87c-1.57 6.14-3.05 14.57-4.46 22.75"></path>
<path style="fill:none; fill-opacity:0%; fill-rule:evenodd; stroke:#aaaaaa; stroke-opacity:100%; stroke-width: 1.5pt; stroke-linejoin:round; stroke-linecap:round;" d="M13.57 59.05c5.14-0.75 11.33-1.05 18.39-2.21"></path>
<path style="fill:none; fill-opacity:0%; fill-rule:evenodd; stroke:#aaaaaa; stroke-opacity:100%; stroke-width: 1.5pt; stroke-linejoin:round; stroke-linecap:round;" d="M41.45 21.23c0.9 0.39 4.06 0.43 4.96 0.39c11.94-0.47 31.69-3.7 45.93-3.93c1.5-0.02 2.91 0.19 3.66 0.39"></path>
<path style="fill:none; fill-opacity:0%; fill-rule:evenodd; stroke:#aaaaaa; stroke-opacity:100%; stroke-width: 1.5pt; stroke-linejoin:round; stroke-linecap:round;" d="M41.79 42.38c0.82 0.79 1.86 3.36 2.02 4.4c1.11 7.58 2.45 32.29 4.02 46.63"></path>
<path style="fill:none; fill-opacity:0%; fill-rule:evenodd; stroke:#aaaaaa; stroke-opacity:100%; stroke-width: 1.5pt; stroke-linejoin:round; stroke-linecap:round;" d="M43.39 44.67c12.48-1.52 41.38-4.69 49.89-4.92c3.53-0.1 5.11 2.7 4.68 6.41c-1.05 9.01-2.36 32.28-5.71 45.72"></path>
<path style="fill:none; fill-opacity:0%; fill-rule:evenodd; stroke:#aaaaaa; stroke-opacity:100%; stroke-width: 1.5pt; stroke-linejoin:round; stroke-linecap:round;" d="M61.95 23.1c0.37 1.32 0.71 4.23 0.63 6.07c-0.65 16.53-1.89 37.79-9.55 44.11"></path>
<path style="fill:none; fill-opacity:0%; fill-rule:evenodd; stroke:#aaaaaa; stroke-opacity:100%; stroke-width: 1.5pt; stroke-linejoin:round; stroke-linecap:round;" d="M73.92 21.77c0.73 1.1 1.36 2.4 1.36 4.09c0 14.82-0.35 28.65-0.35 33.14c0 5.76 0.82 7.43 6.36 7.43c4.69 0 7.78-1.16 8.04-1.5"></path>
<path style="fill:none; fill-opacity:0%; fill-rule:evenodd; stroke:#aaaaaa; stroke-opacity:100%; stroke-width: 1.5pt; stroke-linejoin:round; stroke-linecap:round;" d="M48.5 90.74c10.47-0.54 31.07-2.26 43.81-2.49"></path>

<path style="fill:none; fill-opacity:0%; fill-rule:evenodd; stroke:#000000; stroke-opacity:100%; stroke-width: 3pt; stroke-linejoin:round; stroke-linecap:round;" d="M8.75 33.29c0.37 0.51 0.76 0.94 0.92 1.58c1.29 5.07 2.84 18.54 3.73 27.63"></path>
<path style="fill:none; fill-opacity:0%; fill-rule:evenodd; stroke:#000000; stroke-opacity:100%; stroke-width: 3pt; stroke-linejoin:round; stroke-linecap:round;" d="M11.08 35.22c9.42-2.22 16.55-3.06 20.92-3.73c1.6-0.24 2.69 1.47 2.33 2.87c-1.57 6.14-3.05 14.57-4.46 22.75"></path>
<path style="fill:none; fill-opacity:0%; fill-rule:evenodd; stroke:#000000; stroke-opacity:100%; stroke-width: 3pt; stroke-linejoin:round; stroke-linecap:round;" d="M13.57 59.05c5.14-0.75 11.33-1.05 18.39-2.21"></path>
<path style="fill:none; fill-opacity:0%; fill-rule:evenodd; stroke:#000000; stroke-opacity:100%; stroke-width: 3pt; stroke-linejoin:round; stroke-linecap:round;" d="M41.45 21.23c0.9 0.39 4.06 0.43 4.96 0.39c11.94-0.47 31.69-3.7 45.93-3.93c1.5-0.02 2.91 0.19 3.66 0.39"></path>
<path style="fill:none; fill-opacity:0%; fill-rule:evenodd; stroke:#000000; stroke-opacity:100%; stroke-width: 3pt; stroke-linejoin:round; stroke-linecap:round;" d="M41.79 42.38c0.82 0.79 1.86 3.36 2.02 4.4c1.11 7.58 2.45 32.29 4.02 46.63"></path>
<path style="fill:none; fill-opacity:0%; fill-rule:evenodd; stroke:#000000; stroke-opacity:100%; stroke-width: 3pt; stroke-linejoin:round; stroke-linecap:round;" d="M43.39 44.67c12.48-1.52 41.38-4.69 49.89-4.92c3.53-0.1 5.11 2.7 4.68 6.41c-1.05 9.01-2.36 32.28-5.71 45.72"></path>
<path style="fill:none; fill-opacity:0%; fill-rule:evenodd; stroke:#000000; stroke-opacity:100%; stroke-width: 3pt; stroke-linejoin:round; stroke-linecap:round;" d="M61.95 23.1c0.37 1.32 0.71 4.23 0.63 6.07c-0.65 16.53-1.89 37.79-9.55 44.11"></path>
<path style="fill:none; fill-opacity:0%; fill-rule:evenodd; stroke:#000000; stroke-opacity:100%; stroke-width: 3pt; stroke-linejoin:round; stroke-linecap:round;" d="M73.92 21.77c0.73 1.1 1.36 2.4 1.36 4.09c0 14.82-0.35 28.65-0.35 33.14c0 5.76 0.82 7.43 6.36 7.43c4.69 0 7.78-1.16 8.04-1.5"></path>
<text x="5" y="20" font-size="20" fill="#999999">9</text><path style="fill:none; fill-opacity:0%; fill-rule:evenodd; stroke:#CC0000; stroke-opacity:100%; stroke-width: 3pt; stroke-linejoin:round; stroke-linecap:round;" d="M48.5 90.74c10.47-0.54 31.07-2.26 43.81-2.49" marker-end="url(#TriangleRed)" marker-start="url(#ArrowRed)" ></path>

</g>

</svg>  
          
