<?xml version="1.0" standalone="no"?>
<!DOCTYPE svg PUBLIC "-//W3C//DTD SVG 1.1//EN"   "http://www.w3.org/Graphics/SVG/1.1/DTD/svg11.dtd">
<svg width="751" height="301"  version="1.1" xmlns="http://www.w3.org/2000/svg">
  <defs>
    <marker id="Triangle" viewBox="0 0 10 10" refX="0" refY="5" markerUnits="strokeWidth" markerWidth="3" style="stroke-opacity:0%;fill:#aaaaaa;" markerHeight="2" orient="auto">
      <path d="M 0 0 L 10 5 L 0 10 z" />
    </marker>
    
    <marker id="Arrow" viewBox="0 0 10 10" refX="5" refY="5" markerUnits="strokeWidth" markerWidth="1.8" style="stroke-opacity:0%;fill:#770000;" markerHeight="2" orient="auto">
      <path d="M 0 4 L 6 4 L 4 1 L 10 5 L 4 9 L 6 6 L 0 6 z" />
        <circle cx="5" cy="5" r="5" />
      </marker>
    
    <marker id="TriangleRed" viewBox="0 0 10 10" refX="0" refY="5" markerUnits="strokeWidth" markerWidth="3" style="stroke-opacity:0%;fill:#CC0000;" markerHeight="2" orient="auto">
      <path d="M 0 0 L 10 5 L 0 10 z" />
    </marker>
    
    <marker id="ArrowRed" viewBox="0 0 10 10" refX="5" refY="5" markerUnits="strokeWidth" markerWidth="1.8" style="stroke-opacity:0%;fill:#CC0000;" markerHeight="2" orient="auto">
      <path d="M 0 4 L 6 4 L 4 1 L 10 5 L 4 9 L 6 6 L 0 6 z" />
        <circle cx="5" cy="5" r="5" />
      </marker>
    
  </defs>
  
  <path style="fill:#ffffff; fill-opacity:100%; fill-rule:evenodd; stroke-width:0;" d="M 0 0 L 751 0 L 751 301 L 0 301 L 0 0" />

  <g transform="scale(1.3761467889908 1.3761467889908) translate(0, 0)">
<path style="fill:none; fill-rule:evenodd; stroke:#aaaaaa;  stroke-width:1pt; stroke-linecap:round;" d="m 109 0 L 0 0 L 0 109 L 109 109 L 109 0"></path><path style="fill:none; fill-opacity:0%; fill-rule:evenodd; stroke:#aaaaaa; stroke-opacity:100%; stroke-width: 1.5pt; stroke-linejoin:round; stroke-linecap:round;" d="M18.75 16.32c1.22 1.22 1.86 3.01 1.86 4.91c0 12.2-0.05 48.6-0.06 68.4c0 2.96 0 5.54 0 7.62"></path>
<path style="fill:none; fill-opacity:0%; fill-rule:evenodd; stroke:#aaaaaa; stroke-opacity:100%; stroke-width: 1.5pt; stroke-linejoin:round; stroke-linecap:round;" d="M21.23 18.4c18.9-1.27 51.45-3.15 63.52-3.15c2.75 0 4.55 1.74 4.5 4.75c-0.22 13.86-0.05 45.05-0.01 67.75c0.01 3.1 0.01 6.04 0.01 8.75"></path>
<path style="fill:none; fill-opacity:0%; fill-rule:evenodd; stroke:#aaaaaa; stroke-opacity:100%; stroke-width: 1.5pt; stroke-linejoin:round; stroke-linecap:round;" d="M32.11 45.55c2.2 0.53 4.69 0.23 6.89 0c10.93-1.16 23.62-2.45 33.64-3.32c2.15-0.19 4.36-0.35 6.41 0"></path>
<path style="fill:none; fill-opacity:0%; fill-rule:evenodd; stroke:#aaaaaa; stroke-opacity:100%; stroke-width: 1.5pt; stroke-linejoin:round; stroke-linecap:round;" d="M53.55 24.5c0.41 0.81 0.62 1.73 0.61 3.47C54.12 56.38 46 73 29.75 83.25"></path>
<path style="fill:none; fill-opacity:0%; fill-rule:evenodd; stroke:#aaaaaa; stroke-opacity:100%; stroke-width: 1.5pt; stroke-linejoin:round; stroke-linecap:round;" d="M54.97 54.31c8.18 5.54 18.49 15.5 23.44 26.3"></path>
<path style="fill:none; fill-opacity:0%; fill-rule:evenodd; stroke:#aaaaaa; stroke-opacity:100%; stroke-width: 1.5pt; stroke-linejoin:round; stroke-linecap:round;" d="M21.75 94.51C41.62 93.75 69.96 92.41 88 92"></path>

<text x="5" y="20" font-size="20" fill="#999999">1</text><path style="fill:none; fill-opacity:0%; fill-rule:evenodd; stroke:#CC0000; stroke-opacity:100%; stroke-width: 3pt; stroke-linejoin:round; stroke-linecap:round;" d="M18.75 16.32c1.22 1.22 1.86 3.01 1.86 4.91c0 12.2-0.05 48.6-0.06 68.4c0 2.96 0 5.54 0 7.62"  ></path>






</g><g transform="scale(1.3761467889908 1.3761467889908) translate(109, 0)">
<path style="fill:none; fill-rule:evenodd; stroke:#aaaaaa;  stroke-width:1pt; stroke-linecap:round;" d="m 109 0 L 0 0 L 0 109 L 109 109 L 109 0"></path><path style="fill:none; fill-opacity:0%; fill-rule:evenodd; stroke:#aaaaaa; stroke-opacity:100%; stroke-width: 1.5pt; stroke-linejoin:round; stroke-linecap:round;" d="M18.75 16.32c1.22 1.22 1.86 3.01 1.86 4.91c0 12.2-0.05 48.6-0.06 68.4c0 2.96 0 5.54 0 7.62"></path>
<path style="fill:none; fill-opacity:0%; fill-rule:evenodd; stroke:#aaaaaa; stroke-opacity:100%; stroke-width: 1.5pt; stroke-linejoin:round; stroke-linecap:round;" d="M21.23 18.4c18.9-1.27 51.45-3.15 63.52-3.15c2.75 0 4.55 1.74 4.5 4.75c-0.22 13.86-0.05 45.05-0.01 67.75c0.01 3.1 0.01 6.04 0.01 8.75"></path>
<path style="fill:none; fill-opacity:0%; fill-rule:evenodd; stroke:#aaaaaa; stroke-opacity:100%; stroke-width: 1.5pt; stroke-linejoin:round; stroke-linecap:round;" d="M32.11 45.55c2.2 0.53 4.69 0.23 6.89 0c10.93-1.16 23.62-2.45 33.64-3.32c2.15-0.19 4.36-0.35 6.41 0"></path>
<path style="fill:none; fill-opacity:0%; fill-rule:evenodd; stroke:#aaaaaa; stroke-opacity:100%; stroke-width: 1.5pt; stroke-linejoin:round; stroke-linecap:round;" d="M53.55 24.5c0.41 0.81 0.62 1.73 0.61 3.47C54.12 56.38 46 73 29.75 83.25"></path>
<path style="fill:none; fill-opacity:0%; fill-rule:evenodd; stroke:#aaaaaa; stroke-opacity:100%; stroke-width: 1.5pt; stroke-linejoin:round; stroke-linecap:round;" d="M54.97 54.31c8.18 5.54 18.49 15.5 23.44 26.3"></path>
<path style="fill:none; fill-opacity:0%; fill-rule:evenodd; stroke:#aaaaaa; stroke-opacity:100%; stroke-width: 1.5pt; stroke-linejoin:round; stroke-linecap:round;" d="M21.75 94.51C41.62 93.75 69.96 92.41 88 92"></path>

<path style="fill:none; fill-opacity:0%; fill-rule:evenodd; stroke:#000000; stroke-opacity:100%; stroke-width: 3pt; stroke-linejoin:round; stroke-linecap:round;" d="M18.75 16.32c1.22 1.22 1.86 3.01 1.86 4.91c0 12.2-0.05 48.6-0.06 68.4c0 2.96 0 5.54 0 7.62"></path>
<text x="5" y="20" font-size="20" fill="#999999">2</text><path style="fill:none; fill-opacity:0%; fill-rule:evenodd; stroke:#CC0000; stroke-opacity:100%; stroke-width: 3pt; stroke-linejoin:round; stroke-linecap:round;" d="M21.23 18.4c18.9-1.27 51.45-3.15 63.52-3.15c2.75 0 4.55 1.74 4.5 4.75c-0.22 13.86-0.05 45.05-0.01 67.75c0.01 3.1 0.01 6.04 0.01 8.75"  ></path>





</g><g transform="scale(1.3761467889908 1.3761467889908) translate(218, 0)">
<path style="fill:none; fill-rule:evenodd; stroke:#aaaaaa;  stroke-width:1pt; stroke-linecap:round;" d="m 109 0 L 0 0 L 0 109 L 109 109 L 109 0"></path><path style="fill:none; fill-opacity:0%; fill-rule:evenodd; stroke:#aaaaaa; stroke-opacity:100%; stroke-width: 1.5pt; stroke-linejoin:round; stroke-linecap:round;" d="M18.75 16.32c1.22 1.22 1.86 3.01 1.86 4.91c0 12.2-0.05 48.6-0.06 68.4c0 2.96 0 5.54 0 7.62"></path>
<path style="fill:none; fill-opacity:0%; fill-rule:evenodd; stroke:#aaaaaa; stroke-opacity:100%; stroke-width: 1.5pt; stroke-linejoin:round; stroke-linecap:round;" d="M21.23 18.4c18.9-1.27 51.45-3.15 63.52-3.15c2.75 0 4.55 1.74 4.5 4.75c-0.22 13.86-0.05 45.05-0.01 67.75c0.01 3.1 0.01 6.04 0.01 8.75"></path>
<path style="fill:none; fill-opacity:0%; fill-rule:evenodd; stroke:#aaaaaa; stroke-opacity:100%; stroke-width: 1.5pt; stroke-linejoin:round; stroke-linecap:round;" d="M32.11 45.55c2.2 0.53 4.69 0.23 6.89 0c10.93-1.16 23.62-2.45 33.64-3.32c2.15-0.19 4.36-0.35 6.41 0"></path>
<path style="fill:none; fill-opacity:0%; fill-rule:evenodd; stroke:#aaaaaa; stroke-opacity:100%; stroke-width: 1.5pt; stroke-linejoin:round; stroke-linecap:round;" d="M53.55 24.5c0.41 0.81 0.62 1.73 0.61 3.47C54.12 56.38 46 73 29.75 83.25"></path>
<path style="fill:none; fill-opacity:0%; fill-rule:evenodd; stroke:#aaaaaa; stroke-opacity:100%; stroke-width: 1.5pt; stroke-linejoin:round; stroke-linecap:round;" d="M54.97 54.31c8.18 5.54 18.49 15.5 23.44 26.3"></path>
<path style="fill:none; fill-opacity:0%; fill-rule:evenodd; stroke:#aaaaaa; stroke-opacity:100%; stroke-width: 1.5pt; stroke-linejoin:round; stroke-linecap:round;" d="M21.75 94.51C41.62 93.75 69.96 92.41 88 92"></path>

<path style="fill:none; fill-opacity:0%; fill-rule:evenodd; stroke:#000000; stroke-opacity:100%; stroke-width: 3pt; stroke-linejoin:round; stroke-linecap:round;" d="M18.75 16.32c1.22 1.22 1.86 3.01 1.86 4.91c0 12.2-0.05 48.6-0.06 68.4c0 2.96 0 5.54 0 7.62"></path>
<path style="fill:none; fill-opacity:0%; fill-rule:evenodd; stroke:#000000; stroke-opacity:100%; stroke-width: 3pt; stroke-linejoin:round; stroke-linecap:round;" d="M21.23 18.4c18.9-1.27 51.45-3.15 63.52-3.15c2.75 0 4.55 1.74 4.5 4.75c-0.22 13.86-0.05 45.05-0.01 67.75c0.01 3.1 0.01 6.04 0.01 8.75"></path>
<text x="5" y="20" font-size="20" fill="#999999">3</text><path style="fill:none; fill-opacity:0%; fill-rule:evenodd; stroke:#CC0000; stroke-opacity:100%; stroke-width: 3pt; stroke-linejoin:round; stroke-linecap:round;" d="M32.11 45.55c2.2 0.53 4.69 0.23 6.89 0c10.93-1.16 23.62-2.45 33.64-3.32c2.15-0.19 4.36-0.35 6.41 0"  ></path>




</g><g transform="scale(1.3761467889908 1.3761467889908) translate(327, 0)">
<path style="fill:none; fill-rule:evenodd; stroke:#aaaaaa;  stroke-width:1pt; stroke-linecap:round;" d="m 109 0 L 0 0 L 0 109 L 109 109 L 109 0"></path><path style="fill:none; fill-opacity:0%; fill-rule:evenodd; stroke:#aaaaaa; stroke-opacity:100%; stroke-width: 1.5pt; stroke-linejoin:round; stroke-linecap:round;" d="M18.75 16.32c1.22 1.22 1.86 3.01 1.86 4.91c0 12.2-0.05 48.6-0.06 68.4c0 2.96 0 5.54 0 7.62"></path>
<path style="fill:none; fill-opacity:0%; fill-rule:evenodd; stroke:#aaaaaa; stroke-opacity:100%; stroke-width: 1.5pt; stroke-linejoin:round; stroke-linecap:round;" d="M21.23 18.4c18.9-1.27 51.45-3.15 63.52-3.15c2.75 0 4.55 1.74 4.5 4.75c-0.22 13.86-0.05 45.05-0.01 67.75c0.01 3.1 0.01 6.04 0.01 8.75"></path>
<path style="fill:none; fill-opacity:0%; fill-rule:evenodd; stroke:#aaaaaa; stroke-opacity:100%; stroke-width: 1.5pt; stroke-linejoin:round; stroke-linecap:round;" d="M32.11 45.55c2.2 0.53 4.69 0.23 6.89 0c10.93-1.16 23.62-2.45 33.64-3.32c2.15-0.19 4.36-0.35 6.41 0"></path>
<path style="fill:none; fill-opacity:0%; fill-rule:evenodd; stroke:#aaaaaa; stroke-opacity:100%; stroke-width: 1.5pt; stroke-linejoin:round; stroke-linecap:round;" d="M53.55 24.5c0.41 0.81 0.62 1.73 0.61 3.47C54.12 56.38 46 73 29.75 83.25"></path>
<path style="fill:none; fill-opacity:0%; fill-rule:evenodd; stroke:#aaaaaa; stroke-opacity:100%; stroke-width: 1.5pt; stroke-linejoin:round; stroke-linecap:round;" d="M54.97 54.31c8.18 5.54 18.49 15.5 23.44 26.3"></path>
<path style="fill:none; fill-opacity:0%; fill-rule:evenodd; stroke:#aaaaaa; stroke-opacity:100%; stroke-width: 1.5pt; stroke-linejoin:round; stroke-linecap:round;" d="M21.75 94.51C41.62 93.75 69.96 92.41 88 92"></path>

<path style="fill:none; fill-opacity:0%; fill-rule:evenodd; stroke:#000000; stroke-opacity:100%; stroke-width: 3pt; stroke-linejoin:round; stroke-linecap:round;" d="M18.75 16.32c1.22 1.22 1.86 3.01 1.86 4.91c0 12.2-0.05 48.6-0.06 68.4c0 2.96 0 5.54 0 7.62"></path>
<path style="fill:none; fill-opacity:0%; fill-rule:evenodd; stroke:#000000; stroke-opacity:100%; stroke-width: 3pt; stroke-linejoin:round; stroke-linecap:round;" d="M21.23 18.4c18.9-1.27 51.45-3.15 63.52-3.15c2.75 0 4.55 1.74 4.5 4.75c-0.22 13.86-0.05 45.05-0.01 67.75c0.01 3.1 0.01 6.04 0.01 8.75"></path>
<path style="fill:none; fill-opacity:0%; fill-rule:evenodd; stroke:#000000; stroke-opacity:100%; stroke-width: 3pt; stroke-linejoin:round; stroke-linecap:round;" d="M32.11 45.55c2.2 0.53 4.69 0.23 6.89 0c10.93-1.16 23.62-2.45 33.64-3.32c2.15-0.19 4.36-0.35 6.41 0"></path>
<text x="5" y="20" font-size="20" fill="#999999">4</text><path style="fill:none; fill-opacity:0%; fill-rule:evenodd; stroke:#CC0000; stroke-opacity:100%; stroke-width: 3pt; stroke-linejoin:round; stroke-linecap:round;" d="M53.55 24.5c0.41 0.81 0.62 1.73 0.61 3.47C54.12 56.38 46 73 29.75 83.25"  ></path>



</g><g transform="scale(1.3761467889908 1.3761467889908) translate(436, 0)">
<path style="fill:none; fill-rule:evenodd; stroke:#aaaaaa;  stroke-width:1pt; stroke-linecap:round;" d="m 109 0 L 0 0 L 0 109 L 109 109 L 109 0"></path><path style="fill:none; fill-opacity:0%; fill-rule:evenodd; stroke:#aaaaaa; stroke-opacity:100%; stroke-width: 1.5pt; stroke-linejoin:round; stroke-linecap:round;" d="M18.75 16.32c1.22 1.22 1.86 3.01 1.86 4.91c0 12.2-0.05 48.6-0.06 68.4c0 2.96 0 5.54 0 7.62"></path>
<path style="fill:none; fill-opacity:0%; fill-rule:evenodd; stroke:#aaaaaa; stroke-opacity:100%; stroke-width: 1.5pt; stroke-linejoin:round; stroke-linecap:round;" d="M21.23 18.4c18.9-1.27 51.45-3.15 63.52-3.15c2.75 0 4.55 1.74 4.5 4.75c-0.22 13.86-0.05 45.05-0.01 67.75c0.01 3.1 0.01 6.04 0.01 8.75"></path>
<path style="fill:none; fill-opacity:0%; fill-rule:evenodd; stroke:#aaaaaa; stroke-opacity:100%; stroke-width: 1.5pt; stroke-linejoin:round; stroke-linecap:round;" d="M32.11 45.55c2.2 0.53 4.69 0.23 6.89 0c10.93-1.16 23.62-2.45 33.64-3.32c2.15-0.19 4.36-0.35 6.41 0"></path>
<path style="fill:none; fill-opacity:0%; fill-rule:evenodd; stroke:#aaaaaa; stroke-opacity:100%; stroke-width: 1.5pt; stroke-linejoin:round; stroke-linecap:round;" d="M53.55 24.5c0.41 0.81 0.62 1.73 0.61 3.47C54.12 56.38 46 73 29.75 83.25"></path>
<path style="fill:none; fill-opacity:0%; fill-rule:evenodd; stroke:#aaaaaa; stroke-opacity:100%; stroke-width: 1.5pt; stroke-linejoin:round; stroke-linecap:round;" d="M54.97 54.31c8.18 5.54 18.49 15.5 23.44 26.3"></path>
<path style="fill:none; fill-opacity:0%; fill-rule:evenodd; stroke:#aaaaaa; stroke-opacity:100%; stroke-width: 1.5pt; stroke-linejoin:round; stroke-linecap:round;" d="M21.75 94.51C41.62 93.75 69.96 92.41 88 92"></path>

<path style="fill:none; fill-opacity:0%; fill-rule:evenodd; stroke:#000000; stroke-opacity:100%; stroke-width: 3pt; stroke-linejoin:round; stroke-linecap:round;" d="M18.75 16.32c1.22 1.22 1.86 3.01 1.86 4.91c0 12.2-0.05 48.6-0.06 68.4c0 2.96 0 5.54 0 7.62"></path>
<path style="fill:none; fill-opacity:0%; fill-rule:evenodd; stroke:#000000; stroke-opacity:100%; stroke-width: 3pt; stroke-linejoin:round; stroke-linecap:round;" d="M21.23 18.4c18.9-1.27 51.45-3.15 63.52-3.15c2.75 0 4.55 1.74 4.5 4.75c-0.22 13.86-0.05 45.05-0.01 67.75c0.01 3.1 0.01 6.04 0.01 8.75"></path>
<path style="fill:none; fill-opacity:0%; fill-rule:evenodd; stroke:#000000; stroke-opacity:100%; stroke-width: 3pt; stroke-linejoin:round; stroke-linecap:round;" d="M32.11 45.55c2.2 0.53 4.69 0.23 6.89 0c10.93-1.16 23.62-2.45 33.64-3.32c2.15-0.19 4.36-0.35 6.41 0"></path>
<path style="fill:none; fill-opacity:0%; fill-rule:evenodd; stroke:#000000; stroke-opacity:100%; stroke-width: 3pt; stroke-linejoin:round; stroke-linecap:round;" d="M53.55 24.5c0.41 0.81 0.62 1.73 0.61 3.47C54.12 56.38 46 73 29.75 83.25"></path>
<text x="5" y="20" font-size="20" fill="#999999">5</text><path style="fill:none; fill-opacity:0%; fill-rule:evenodd; stroke:#CC0000; stroke-opacity:100%; stroke-width: 3pt; stroke-linejoin:round; stroke-linecap:round;" d="M54.97 54.31c8.18 5.54 18.49 15.5 23.44 26.3"  ></path>


</g><g transform="scale(1.3761467889908 1.3761467889908) translate(0, 109)">
<path style="fill:none; fill-rule:evenodd; stroke:#aaaaaa;  stroke-width:1pt; stroke-linecap:round;" d="m 109 0 L 0 0 L 0 109 L 109 109 L 109 0"></path><path style="fill:none; fill-opacity:0%; fill-rule:evenodd; stroke:#aaaaaa; stroke-opacity:100%; stroke-width: 1.5pt; stroke-linejoin:round; stroke-linecap:round;" d="M18.75 16.32c1.22 1.22 1.86 3.01 1.86 4.91c0 12.2-0.05 48.6-0.06 68.4c0 2.96 0 5.54 0 7.62"></path>
<path style="fill:none; fill-opacity:0%; fill-rule:evenodd; stroke:#aaaaaa; stroke-opacity:100%; stroke-width: 1.5pt; stroke-linejoin:round; stroke-linecap:round;" d="M21.23 18.4c18.9-1.27 51.45-3.15 63.52-3.15c2.75 0 4.55 1.74 4.5 4.75c-0.22 13.86-0.05 45.05-0.01 67.75c0.01 3.1 0.01 6.04 0.01 8.75"></path>
<path style="fill:none; fill-opacity:0%; fill-rule:evenodd; stroke:#aaaaaa; stroke-opacity:100%; stroke-width: 1.5pt; stroke-linejoin:round; stroke-linecap:round;" d="M32.11 45.55c2.2 0.53 4.69 0.23 6.89 0c10.93-1.16 23.62-2.45 33.64-3.32c2.15-0.19 4.36-0.35 6.41 0"></path>
<path style="fill:none; fill-opacity:0%; fill-rule:evenodd; stroke:#aaaaaa; stroke-opacity:100%; stroke-width: 1.5pt; stroke-linejoin:round; stroke-linecap:round;" d="M53.55 24.5c0.41 0.81 0.62 1.73 0.61 3.47C54.12 56.38 46 73 29.75 83.25"></path>
<path style="fill:none; fill-opacity:0%; fill-rule:evenodd; stroke:#aaaaaa; stroke-opacity:100%; stroke-width: 1.5pt; stroke-linejoin:round; stroke-linecap:round;" d="M54.97 54.31c8.18 5.54 18.49 15.5 23.44 26.3"></path>
<path style="fill:none; fill-opacity:0%; fill-rule:evenodd; stroke:#aaaaaa; stroke-opacity:100%; stroke-width: 1.5pt; stroke-linejoin:round; stroke-linecap:round;" d="M21.75 94.51C41.62 93.75 69.96 92.41 88 92"></path>

<path style="fill:none; fill-opacity:0%; fill-rule:evenodd; stroke:#000000; stroke-opacity:100%; stroke-width: 3pt; stroke-linejoin:round; stroke-linecap:round;" d="M18.75 16.32c1.22 1.22 1.86 3.01 1.86 4.91c0 12.2-0.05 48.6-0.06 68.4c0 2.96 0 5.54 0 7.62"></path>
<path style="fill:none; fill-opacity:0%; fill-rule:evenodd; stroke:#000000; stroke-opacity:100%; stroke-width: 3pt; stroke-linejoin:round; stroke-linecap:round;" d="M21.23 18.4c18.9-1.27 51.45-3.15 63.52-3.15c2.75 0 4.55 1.74 4.5 4.75c-0.22 13.86-0.05 45.05-0.01 67.75c0.01 3.1 0.01 6.04 0.01 8.75"></path>
<path style="fill:none; fill-opacity:0%; fill-rule:evenodd; stroke:#000000; stroke-opacity:100%; stroke-width: 3pt; stroke-linejoin:round; stroke-linecap:round;" d="M32.11 45.55c2.2 0.53 4.69 0.23 6.89 0c10.93-1.16 23.62-2.45 33.64-3.32c2.15-0.19 4.36-0.35 6.41 0"></path>
<path style="fill:none; fill-opacity:0%; fill-rule:evenodd; stroke:#000000; stroke-opacity:100%; stroke-width: 3pt; stroke-linejoin:round; stroke-linecap:round;" d="M53.55 24.5c0.41 0.81 0.62 1.73 0.61 3.47C54.12 56.38 46 73 29.75 83.25"></path>
<path style="fill:none; fill-opacity:0%; fill-rule:evenodd; stroke:#000000; stroke-opacity:100%; stroke-width: 3pt; stroke-linejoin:round; stroke-linecap:round;" d="M54.97 54.31c8.18 5.54 18.49 15.5 23.44 26.3"></path>
<text x="5" y="20" font-size="20" fill="#999999">6</text><path style="fill:none; fill-opacity:0%; fill-rule:evenodd; stroke:#CC0000; stroke-opacity:100%; stroke-width: 3pt; stroke-linejoin:round; stroke-linecap:round;" d="M21.75 94.51C41.62 93.75 69.96 92.41 88 92"  ></path>

</g>

</svg>  
          
