<?xml version="1.0" standalone="no"?>
<!DOCTYPE svg PUBLIC "-//W3C//DTD SVG 1.1//EN"   "http://www.w3.org/Graphics/SVG/1.1/DTD/svg11.dtd">
<svg width="751" height="301"  version="1.1" xmlns="http://www.w3.org/2000/svg">
  <defs>
    <marker id="Triangle" viewBox="0 0 10 10" refX="0" refY="5" markerUnits="strokeWidth" markerWidth="3" style="stroke-opacity:0%;fill:#aaaaaa;" markerHeight="2" orient="auto">
      <path d="M 0 0 L 10 5 L 0 10 z" />
    </marker>
    
    <marker id="Arrow" viewBox="0 0 10 10" refX="5" refY="5" markerUnits="strokeWidth" markerWidth="1.8" style="stroke-opacity:0%;fill:#770000;" markerHeight="2" orient="auto">
      <path d="M 0 4 L 6 4 L 4 1 L 10 5 L 4 9 L 6 6 L 0 6 z" />
        <circle cx="5" cy="5" r="5" />
      </marker>
    
    <marker id="TriangleRed" viewBox="0 0 10 10" refX="0" refY="5" markerUnits="strokeWidth" markerWidth="3" style="stroke-opacity:0%;fill:#CC0000;" markerHeight="2" orient="auto">
      <path d="M 0 0 L 10 5 L 0 10 z" />
    </marker>
    
    <marker id="ArrowRed" viewBox="0 0 10 10" refX="5" refY="5" markerUnits="strokeWidth" markerWidth="1.8" style="stroke-opacity:0%;fill:#CC0000;" markerHeight="2" orient="auto">
      <path d="M 0 4 L 6 4 L 4 1 L 10 5 L 4 9 L 6 6 L 0 6 z" />
        <circle cx="5" cy="5" r="5" />
      </marker>
    
  </defs>
  
  <path style="fill:#ffffff; fill-opacity:100%; fill-rule:evenodd; stroke-width:0;" d="M 0 0 L 751 0 L 751 301 L 0 301 L 0 0" />

  <g transform="scale(1.3761467889908 1.3761467889908) translate(0, 0)">
<path style="fill:none; fill-rule:evenodd; stroke:#aaaaaa;  stroke-width:1pt; stroke-linecap:round;" d="m 109 0 L 0 0 L 0 109 L 109 109 L 109 0"></path><path style="fill:none; fill-opacity:0%; fill-rule:evenodd; stroke:#aaaaaa; stroke-opacity:100%; stroke-width: 1.5pt; stroke-linejoin:round; stroke-linecap:round;" d="M10.25 46.43c0.8 0.52 2.37 0.54 3.18 0.5C20.25 46.5 30.5 44 36.81 42.61c1.31-0.29 2.77-0.25 3.44 0.01"></path>
<path style="fill:none; fill-opacity:0%; fill-rule:evenodd; stroke:#aaaaaa; stroke-opacity:100%; stroke-width: 1.5pt; stroke-linejoin:round; stroke-linecap:round;" d="M25.87 20.5c1.09 0.5 1.96 2.23 1.96 3.25c0 7.25 0.03 38.75 0.03 49.5"></path>
<path style="fill:none; fill-opacity:0%; fill-rule:evenodd; stroke:#aaaaaa; stroke-opacity:100%; stroke-width: 1.5pt; stroke-linejoin:round; stroke-linecap:round;" d="M12 79.79c0.75 0.96 2.25 1.46 4.5 0.21c6.25-3.5 17.5-9.75 23.75-13.25"></path>
<path style="fill:none; fill-opacity:0%; fill-rule:evenodd; stroke:#aaaaaa; stroke-opacity:100%; stroke-width: 1.5pt; stroke-linejoin:round; stroke-linecap:round;" d="M68.75 16c0.84 0.53 1.35 2.39 1.52 3.46c0.17 1.06 0 64.67-0.17 71.32"></path>
<path style="fill:none; fill-opacity:0%; fill-rule:evenodd; stroke:#aaaaaa; stroke-opacity:100%; stroke-width: 1.5pt; stroke-linejoin:round; stroke-linecap:round;" d="M70.19 50.63c5.51-0.8 13.84-1.89 19.25-2.69c1.34-0.2 1.68-0.27 2.53 0"></path>
<path style="fill:none; fill-opacity:0%; fill-rule:evenodd; stroke:#aaaaaa; stroke-opacity:100%; stroke-width: 1.5pt; stroke-linejoin:round; stroke-linecap:round;" d="M49.71 50.24c0.84 0.53 1.85 2.39 2.02 3.46c0.17 1.06 2 31.77 1.83 38.41"></path>
<path style="fill:none; fill-opacity:0%; fill-rule:evenodd; stroke:#aaaaaa; stroke-opacity:100%; stroke-width: 1.5pt; stroke-linejoin:round; stroke-linecap:round;" d="M36.75 92.7c0.64 0.27 2.34 0.9 4.03 0.8c9.14-0.53 39.73-3.82 51.35-3.82c1.7 0 4.65 0.53 5.62 0.8"></path>

<text x="5" y="20" font-size="20" fill="#999999">1</text><path style="fill:none; fill-opacity:0%; fill-rule:evenodd; stroke:#CC0000; stroke-opacity:100%; stroke-width: 3pt; stroke-linejoin:round; stroke-linecap:round;" d="M10.25 46.43c0.8 0.52 2.37 0.54 3.18 0.5C20.25 46.5 30.5 44 36.81 42.61c1.31-0.29 2.77-0.25 3.44 0.01" marker-end="url(#TriangleRed)" marker-start="url(#ArrowRed)" ></path>







</g><g transform="scale(1.3761467889908 1.3761467889908) translate(109, 0)">
<path style="fill:none; fill-rule:evenodd; stroke:#aaaaaa;  stroke-width:1pt; stroke-linecap:round;" d="m 109 0 L 0 0 L 0 109 L 109 109 L 109 0"></path><path style="fill:none; fill-opacity:0%; fill-rule:evenodd; stroke:#aaaaaa; stroke-opacity:100%; stroke-width: 1.5pt; stroke-linejoin:round; stroke-linecap:round;" d="M10.25 46.43c0.8 0.52 2.37 0.54 3.18 0.5C20.25 46.5 30.5 44 36.81 42.61c1.31-0.29 2.77-0.25 3.44 0.01"></path>
<path style="fill:none; fill-opacity:0%; fill-rule:evenodd; stroke:#aaaaaa; stroke-opacity:100%; stroke-width: 1.5pt; stroke-linejoin:round; stroke-linecap:round;" d="M25.87 20.5c1.09 0.5 1.96 2.23 1.96 3.25c0 7.25 0.03 38.75 0.03 49.5"></path>
<path style="fill:none; fill-opacity:0%; fill-rule:evenodd; stroke:#aaaaaa; stroke-opacity:100%; stroke-width: 1.5pt; stroke-linejoin:round; stroke-linecap:round;" d="M12 79.79c0.75 0.96 2.25 1.46 4.5 0.21c6.25-3.5 17.5-9.75 23.75-13.25"></path>
<path style="fill:none; fill-opacity:0%; fill-rule:evenodd; stroke:#aaaaaa; stroke-opacity:100%; stroke-width: 1.5pt; stroke-linejoin:round; stroke-linecap:round;" d="M68.75 16c0.84 0.53 1.35 2.39 1.52 3.46c0.17 1.06 0 64.67-0.17 71.32"></path>
<path style="fill:none; fill-opacity:0%; fill-rule:evenodd; stroke:#aaaaaa; stroke-opacity:100%; stroke-width: 1.5pt; stroke-linejoin:round; stroke-linecap:round;" d="M70.19 50.63c5.51-0.8 13.84-1.89 19.25-2.69c1.34-0.2 1.68-0.27 2.53 0"></path>
<path style="fill:none; fill-opacity:0%; fill-rule:evenodd; stroke:#aaaaaa; stroke-opacity:100%; stroke-width: 1.5pt; stroke-linejoin:round; stroke-linecap:round;" d="M49.71 50.24c0.84 0.53 1.85 2.39 2.02 3.46c0.17 1.06 2 31.77 1.83 38.41"></path>
<path style="fill:none; fill-opacity:0%; fill-rule:evenodd; stroke:#aaaaaa; stroke-opacity:100%; stroke-width: 1.5pt; stroke-linejoin:round; stroke-linecap:round;" d="M36.75 92.7c0.64 0.27 2.34 0.9 4.03 0.8c9.14-0.53 39.73-3.82 51.35-3.82c1.7 0 4.65 0.53 5.62 0.8"></path>

<path style="fill:none; fill-opacity:0%; fill-rule:evenodd; stroke:#000000; stroke-opacity:100%; stroke-width: 3pt; stroke-linejoin:round; stroke-linecap:round;" d="M10.25 46.43c0.8 0.52 2.37 0.54 3.18 0.5C20.25 46.5 30.5 44 36.81 42.61c1.31-0.29 2.77-0.25 3.44 0.01"></path>
<text x="5" y="20" font-size="20" fill="#999999">2</text><path style="fill:none; fill-opacity:0%; fill-rule:evenodd; stroke:#CC0000; stroke-opacity:100%; stroke-width: 3pt; stroke-linejoin:round; stroke-linecap:round;" d="M25.87 20.5c1.09 0.5 1.96 2.23 1.96 3.25c0 7.25 0.03 38.75 0.03 49.5" marker-end="url(#TriangleRed)" marker-start="url(#ArrowRed)" ></path>






</g><g transform="scale(1.3761467889908 1.3761467889908) translate(218, 0)">
<path style="fill:none; fill-rule:evenodd; stroke:#aaaaaa;  stroke-width:1pt; stroke-linecap:round;" d="m 109 0 L 0 0 L 0 109 L 109 109 L 109 0"></path><path style="fill:none; fill-opacity:0%; fill-rule:evenodd; stroke:#aaaaaa; stroke-opacity:100%; stroke-width: 1.5pt; stroke-linejoin:round; stroke-linecap:round;" d="M10.25 46.43c0.8 0.52 2.37 0.54 3.18 0.5C20.25 46.5 30.5 44 36.81 42.61c1.31-0.29 2.77-0.25 3.44 0.01"></path>
<path style="fill:none; fill-opacity:0%; fill-rule:evenodd; stroke:#aaaaaa; stroke-opacity:100%; stroke-width: 1.5pt; stroke-linejoin:round; stroke-linecap:round;" d="M25.87 20.5c1.09 0.5 1.96 2.23 1.96 3.25c0 7.25 0.03 38.75 0.03 49.5"></path>
<path style="fill:none; fill-opacity:0%; fill-rule:evenodd; stroke:#aaaaaa; stroke-opacity:100%; stroke-width: 1.5pt; stroke-linejoin:round; stroke-linecap:round;" d="M12 79.79c0.75 0.96 2.25 1.46 4.5 0.21c6.25-3.5 17.5-9.75 23.75-13.25"></path>
<path style="fill:none; fill-opacity:0%; fill-rule:evenodd; stroke:#aaaaaa; stroke-opacity:100%; stroke-width: 1.5pt; stroke-linejoin:round; stroke-linecap:round;" d="M68.75 16c0.84 0.53 1.35 2.39 1.52 3.46c0.17 1.06 0 64.67-0.17 71.32"></path>
<path style="fill:none; fill-opacity:0%; fill-rule:evenodd; stroke:#aaaaaa; stroke-opacity:100%; stroke-width: 1.5pt; stroke-linejoin:round; stroke-linecap:round;" d="M70.19 50.63c5.51-0.8 13.84-1.89 19.25-2.69c1.34-0.2 1.68-0.27 2.53 0"></path>
<path style="fill:none; fill-opacity:0%; fill-rule:evenodd; stroke:#aaaaaa; stroke-opacity:100%; stroke-width: 1.5pt; stroke-linejoin:round; stroke-linecap:round;" d="M49.71 50.24c0.84 0.53 1.85 2.39 2.02 3.46c0.17 1.06 2 31.77 1.83 38.41"></path>
<path style="fill:none; fill-opacity:0%; fill-rule:evenodd; stroke:#aaaaaa; stroke-opacity:100%; stroke-width: 1.5pt; stroke-linejoin:round; stroke-linecap:round;" d="M36.75 92.7c0.64 0.27 2.34 0.9 4.03 0.8c9.14-0.53 39.73-3.82 51.35-3.82c1.7 0 4.65 0.53 5.62 0.8"></path>

<path style="fill:none; fill-opacity:0%; fill-rule:evenodd; stroke:#000000; stroke-opacity:100%; stroke-width: 3pt; stroke-linejoin:round; stroke-linecap:round;" d="M10.25 46.43c0.8 0.52 2.37 0.54 3.18 0.5C20.25 46.5 30.5 44 36.81 42.61c1.31-0.29 2.77-0.25 3.44 0.01"></path>
<path style="fill:none; fill-opacity:0%; fill-rule:evenodd; stroke:#000000; stroke-opacity:100%; stroke-width: 3pt; stroke-linejoin:round; stroke-linecap:round;" d="M25.87 20.5c1.09 0.5 1.96 2.23 1.96 3.25c0 7.25 0.03 38.75 0.03 49.5"></path>
<text x="5" y="20" font-size="20" fill="#999999">3</text><path style="fill:none; fill-opacity:0%; fill-rule:evenodd; stroke:#CC0000; stroke-opacity:100%; stroke-width: 3pt; stroke-linejoin:round; stroke-linecap:round;" d="M12 79.79c0.75 0.96 2.25 1.46 4.5 0.21c6.25-3.5 17.5-9.75 23.75-13.25" marker-end="url(#TriangleRed)" marker-start="url(#ArrowRed)" ></path>





</g><g transform="scale(1.3761467889908 1.3761467889908) translate(327, 0)">
<path style="fill:none; fill-rule:evenodd; stroke:#aaaaaa;  stroke-width:1pt; stroke-linecap:round;" d="m 109 0 L 0 0 L 0 109 L 109 109 L 109 0"></path><path style="fill:none; fill-opacity:0%; fill-rule:evenodd; stroke:#aaaaaa; stroke-opacity:100%; stroke-width: 1.5pt; stroke-linejoin:round; stroke-linecap:round;" d="M10.25 46.43c0.8 0.52 2.37 0.54 3.18 0.5C20.25 46.5 30.5 44 36.81 42.61c1.31-0.29 2.77-0.25 3.44 0.01"></path>
<path style="fill:none; fill-opacity:0%; fill-rule:evenodd; stroke:#aaaaaa; stroke-opacity:100%; stroke-width: 1.5pt; stroke-linejoin:round; stroke-linecap:round;" d="M25.87 20.5c1.09 0.5 1.96 2.23 1.96 3.25c0 7.25 0.03 38.75 0.03 49.5"></path>
<path style="fill:none; fill-opacity:0%; fill-rule:evenodd; stroke:#aaaaaa; stroke-opacity:100%; stroke-width: 1.5pt; stroke-linejoin:round; stroke-linecap:round;" d="M12 79.79c0.75 0.96 2.25 1.46 4.5 0.21c6.25-3.5 17.5-9.75 23.75-13.25"></path>
<path style="fill:none; fill-opacity:0%; fill-rule:evenodd; stroke:#aaaaaa; stroke-opacity:100%; stroke-width: 1.5pt; stroke-linejoin:round; stroke-linecap:round;" d="M68.75 16c0.84 0.53 1.35 2.39 1.52 3.46c0.17 1.06 0 64.67-0.17 71.32"></path>
<path style="fill:none; fill-opacity:0%; fill-rule:evenodd; stroke:#aaaaaa; stroke-opacity:100%; stroke-width: 1.5pt; stroke-linejoin:round; stroke-linecap:round;" d="M70.19 50.63c5.51-0.8 13.84-1.89 19.25-2.69c1.34-0.2 1.68-0.27 2.53 0"></path>
<path style="fill:none; fill-opacity:0%; fill-rule:evenodd; stroke:#aaaaaa; stroke-opacity:100%; stroke-width: 1.5pt; stroke-linejoin:round; stroke-linecap:round;" d="M49.71 50.24c0.84 0.53 1.85 2.39 2.02 3.46c0.17 1.06 2 31.77 1.83 38.41"></path>
<path style="fill:none; fill-opacity:0%; fill-rule:evenodd; stroke:#aaaaaa; stroke-opacity:100%; stroke-width: 1.5pt; stroke-linejoin:round; stroke-linecap:round;" d="M36.75 92.7c0.64 0.27 2.34 0.9 4.03 0.8c9.14-0.53 39.73-3.82 51.35-3.82c1.7 0 4.65 0.53 5.62 0.8"></path>

<path style="fill:none; fill-opacity:0%; fill-rule:evenodd; stroke:#000000; stroke-opacity:100%; stroke-width: 3pt; stroke-linejoin:round; stroke-linecap:round;" d="M10.25 46.43c0.8 0.52 2.37 0.54 3.18 0.5C20.25 46.5 30.5 44 36.81 42.61c1.31-0.29 2.77-0.25 3.44 0.01"></path>
<path style="fill:none; fill-opacity:0%; fill-rule:evenodd; stroke:#000000; stroke-opacity:100%; stroke-width: 3pt; stroke-linejoin:round; stroke-linecap:round;" d="M25.87 20.5c1.09 0.5 1.96 2.23 1.96 3.25c0 7.25 0.03 38.75 0.03 49.5"></path>
<path style="fill:none; fill-opacity:0%; fill-rule:evenodd; stroke:#000000; stroke-opacity:100%; stroke-width: 3pt; stroke-linejoin:round; stroke-linecap:round;" d="M12 79.79c0.75 0.96 2.25 1.46 4.5 0.21c6.25-3.5 17.5-9.75 23.75-13.25"></path>
<text x="5" y="20" font-size="20" fill="#999999">4</text><path style="fill:none; fill-opacity:0%; fill-rule:evenodd; stroke:#CC0000; stroke-opacity:100%; stroke-width: 3pt; stroke-linejoin:round; stroke-linecap:round;" d="M68.75 16c0.84 0.53 1.35 2.39 1.52 3.46c0.17 1.06 0 64.67-0.17 71.32" marker-end="url(#TriangleRed)" marker-start="url(#ArrowRed)" ></path>




</g><g transform="scale(1.3761467889908 1.3761467889908) translate(436, 0)">
<path style="fill:none; fill-rule:evenodd; stroke:#aaaaaa;  stroke-width:1pt; stroke-linecap:round;" d="m 109 0 L 0 0 L 0 109 L 109 109 L 109 0"></path><path style="fill:none; fill-opacity:0%; fill-rule:evenodd; stroke:#aaaaaa; stroke-opacity:100%; stroke-width: 1.5pt; stroke-linejoin:round; stroke-linecap:round;" d="M10.25 46.43c0.8 0.52 2.37 0.54 3.18 0.5C20.25 46.5 30.5 44 36.81 42.61c1.31-0.29 2.77-0.25 3.44 0.01"></path>
<path style="fill:none; fill-opacity:0%; fill-rule:evenodd; stroke:#aaaaaa; stroke-opacity:100%; stroke-width: 1.5pt; stroke-linejoin:round; stroke-linecap:round;" d="M25.87 20.5c1.09 0.5 1.96 2.23 1.96 3.25c0 7.25 0.03 38.75 0.03 49.5"></path>
<path style="fill:none; fill-opacity:0%; fill-rule:evenodd; stroke:#aaaaaa; stroke-opacity:100%; stroke-width: 1.5pt; stroke-linejoin:round; stroke-linecap:round;" d="M12 79.79c0.75 0.96 2.25 1.46 4.5 0.21c6.25-3.5 17.5-9.75 23.75-13.25"></path>
<path style="fill:none; fill-opacity:0%; fill-rule:evenodd; stroke:#aaaaaa; stroke-opacity:100%; stroke-width: 1.5pt; stroke-linejoin:round; stroke-linecap:round;" d="M68.75 16c0.84 0.53 1.35 2.39 1.52 3.46c0.17 1.06 0 64.67-0.17 71.32"></path>
<path style="fill:none; fill-opacity:0%; fill-rule:evenodd; stroke:#aaaaaa; stroke-opacity:100%; stroke-width: 1.5pt; stroke-linejoin:round; stroke-linecap:round;" d="M70.19 50.63c5.51-0.8 13.84-1.89 19.25-2.69c1.34-0.2 1.68-0.27 2.53 0"></path>
<path style="fill:none; fill-opacity:0%; fill-rule:evenodd; stroke:#aaaaaa; stroke-opacity:100%; stroke-width: 1.5pt; stroke-linejoin:round; stroke-linecap:round;" d="M49.71 50.24c0.84 0.53 1.85 2.39 2.02 3.46c0.17 1.06 2 31.77 1.83 38.41"></path>
<path style="fill:none; fill-opacity:0%; fill-rule:evenodd; stroke:#aaaaaa; stroke-opacity:100%; stroke-width: 1.5pt; stroke-linejoin:round; stroke-linecap:round;" d="M36.75 92.7c0.64 0.27 2.34 0.9 4.03 0.8c9.14-0.53 39.73-3.82 51.35-3.82c1.7 0 4.65 0.53 5.62 0.8"></path>

<path style="fill:none; fill-opacity:0%; fill-rule:evenodd; stroke:#000000; stroke-opacity:100%; stroke-width: 3pt; stroke-linejoin:round; stroke-linecap:round;" d="M10.25 46.43c0.8 0.52 2.37 0.54 3.18 0.5C20.25 46.5 30.5 44 36.81 42.61c1.31-0.29 2.77-0.25 3.44 0.01"></path>
<path style="fill:none; fill-opacity:0%; fill-rule:evenodd; stroke:#000000; stroke-opacity:100%; stroke-width: 3pt; stroke-linejoin:round; stroke-linecap:round;" d="M25.87 20.5c1.09 0.5 1.96 2.23 1.96 3.25c0 7.25 0.03 38.75 0.03 49.5"></path>
<path style="fill:none; fill-opacity:0%; fill-rule:evenodd; stroke:#000000; stroke-opacity:100%; stroke-width: 3pt; stroke-linejoin:round; stroke-linecap:round;" d="M12 79.79c0.75 0.96 2.25 1.46 4.5 0.21c6.25-3.5 17.5-9.75 23.75-13.25"></path>
<path style="fill:none; fill-opacity:0%; fill-rule:evenodd; stroke:#000000; stroke-opacity:100%; stroke-width: 3pt; stroke-linejoin:round; stroke-linecap:round;" d="M68.75 16c0.84 0.53 1.35 2.39 1.52 3.46c0.17 1.06 0 64.67-0.17 71.32"></path>
<text x="5" y="20" font-size="20" fill="#999999">5</text><path style="fill:none; fill-opacity:0%; fill-rule:evenodd; stroke:#CC0000; stroke-opacity:100%; stroke-width: 3pt; stroke-linejoin:round; stroke-linecap:round;" d="M70.19 50.63c5.51-0.8 13.84-1.89 19.25-2.69c1.34-0.2 1.68-0.27 2.53 0" marker-end="url(#TriangleRed)" marker-start="url(#ArrowRed)" ></path>



</g><g transform="scale(1.3761467889908 1.3761467889908) translate(0, 109)">
<path style="fill:none; fill-rule:evenodd; stroke:#aaaaaa;  stroke-width:1pt; stroke-linecap:round;" d="m 109 0 L 0 0 L 0 109 L 109 109 L 109 0"></path><path style="fill:none; fill-opacity:0%; fill-rule:evenodd; stroke:#aaaaaa; stroke-opacity:100%; stroke-width: 1.5pt; stroke-linejoin:round; stroke-linecap:round;" d="M10.25 46.43c0.8 0.52 2.37 0.54 3.18 0.5C20.25 46.5 30.5 44 36.81 42.61c1.31-0.29 2.77-0.25 3.44 0.01"></path>
<path style="fill:none; fill-opacity:0%; fill-rule:evenodd; stroke:#aaaaaa; stroke-opacity:100%; stroke-width: 1.5pt; stroke-linejoin:round; stroke-linecap:round;" d="M25.87 20.5c1.09 0.5 1.96 2.23 1.96 3.25c0 7.25 0.03 38.75 0.03 49.5"></path>
<path style="fill:none; fill-opacity:0%; fill-rule:evenodd; stroke:#aaaaaa; stroke-opacity:100%; stroke-width: 1.5pt; stroke-linejoin:round; stroke-linecap:round;" d="M12 79.79c0.75 0.96 2.25 1.46 4.5 0.21c6.25-3.5 17.5-9.75 23.75-13.25"></path>
<path style="fill:none; fill-opacity:0%; fill-rule:evenodd; stroke:#aaaaaa; stroke-opacity:100%; stroke-width: 1.5pt; stroke-linejoin:round; stroke-linecap:round;" d="M68.75 16c0.84 0.53 1.35 2.39 1.52 3.46c0.17 1.06 0 64.67-0.17 71.32"></path>
<path style="fill:none; fill-opacity:0%; fill-rule:evenodd; stroke:#aaaaaa; stroke-opacity:100%; stroke-width: 1.5pt; stroke-linejoin:round; stroke-linecap:round;" d="M70.19 50.63c5.51-0.8 13.84-1.89 19.25-2.69c1.34-0.2 1.68-0.27 2.53 0"></path>
<path style="fill:none; fill-opacity:0%; fill-rule:evenodd; stroke:#aaaaaa; stroke-opacity:100%; stroke-width: 1.5pt; stroke-linejoin:round; stroke-linecap:round;" d="M49.71 50.24c0.84 0.53 1.85 2.39 2.02 3.46c0.17 1.06 2 31.77 1.83 38.41"></path>
<path style="fill:none; fill-opacity:0%; fill-rule:evenodd; stroke:#aaaaaa; stroke-opacity:100%; stroke-width: 1.5pt; stroke-linejoin:round; stroke-linecap:round;" d="M36.75 92.7c0.64 0.27 2.34 0.9 4.03 0.8c9.14-0.53 39.73-3.82 51.35-3.82c1.7 0 4.65 0.53 5.62 0.8"></path>

<path style="fill:none; fill-opacity:0%; fill-rule:evenodd; stroke:#000000; stroke-opacity:100%; stroke-width: 3pt; stroke-linejoin:round; stroke-linecap:round;" d="M10.25 46.43c0.8 0.52 2.37 0.54 3.18 0.5C20.25 46.5 30.5 44 36.81 42.61c1.31-0.29 2.77-0.25 3.44 0.01"></path>
<path style="fill:none; fill-opacity:0%; fill-rule:evenodd; stroke:#000000; stroke-opacity:100%; stroke-width: 3pt; stroke-linejoin:round; stroke-linecap:round;" d="M25.87 20.5c1.09 0.5 1.96 2.23 1.96 3.25c0 7.25 0.03 38.75 0.03 49.5"></path>
<path style="fill:none; fill-opacity:0%; fill-rule:evenodd; stroke:#000000; stroke-opacity:100%; stroke-width: 3pt; stroke-linejoin:round; stroke-linecap:round;" d="M12 79.79c0.75 0.96 2.25 1.46 4.5 0.21c6.25-3.5 17.5-9.75 23.75-13.25"></path>
<path style="fill:none; fill-opacity:0%; fill-rule:evenodd; stroke:#000000; stroke-opacity:100%; stroke-width: 3pt; stroke-linejoin:round; stroke-linecap:round;" d="M68.75 16c0.84 0.53 1.35 2.39 1.52 3.46c0.17 1.06 0 64.67-0.17 71.32"></path>
<path style="fill:none; fill-opacity:0%; fill-rule:evenodd; stroke:#000000; stroke-opacity:100%; stroke-width: 3pt; stroke-linejoin:round; stroke-linecap:round;" d="M70.19 50.63c5.51-0.8 13.84-1.89 19.25-2.69c1.34-0.2 1.68-0.27 2.53 0"></path>
<text x="5" y="20" font-size="20" fill="#999999">6</text><path style="fill:none; fill-opacity:0%; fill-rule:evenodd; stroke:#CC0000; stroke-opacity:100%; stroke-width: 3pt; stroke-linejoin:round; stroke-linecap:round;" d="M49.71 50.24c0.84 0.53 1.85 2.39 2.02 3.46c0.17 1.06 2 31.77 1.83 38.41" marker-end="url(#TriangleRed)" marker-start="url(#ArrowRed)" ></path>


</g><g transform="scale(1.3761467889908 1.3761467889908) translate(109, 109)">
<path style="fill:none; fill-rule:evenodd; stroke:#aaaaaa;  stroke-width:1pt; stroke-linecap:round;" d="m 109 0 L 0 0 L 0 109 L 109 109 L 109 0"></path><path style="fill:none; fill-opacity:0%; fill-rule:evenodd; stroke:#aaaaaa; stroke-opacity:100%; stroke-width: 1.5pt; stroke-linejoin:round; stroke-linecap:round;" d="M10.25 46.43c0.8 0.52 2.37 0.54 3.18 0.5C20.25 46.5 30.5 44 36.81 42.61c1.31-0.29 2.77-0.25 3.44 0.01"></path>
<path style="fill:none; fill-opacity:0%; fill-rule:evenodd; stroke:#aaaaaa; stroke-opacity:100%; stroke-width: 1.5pt; stroke-linejoin:round; stroke-linecap:round;" d="M25.87 20.5c1.09 0.5 1.96 2.23 1.96 3.25c0 7.25 0.03 38.75 0.03 49.5"></path>
<path style="fill:none; fill-opacity:0%; fill-rule:evenodd; stroke:#aaaaaa; stroke-opacity:100%; stroke-width: 1.5pt; stroke-linejoin:round; stroke-linecap:round;" d="M12 79.79c0.75 0.96 2.25 1.46 4.5 0.21c6.25-3.5 17.5-9.75 23.75-13.25"></path>
<path style="fill:none; fill-opacity:0%; fill-rule:evenodd; stroke:#aaaaaa; stroke-opacity:100%; stroke-width: 1.5pt; stroke-linejoin:round; stroke-linecap:round;" d="M68.75 16c0.84 0.53 1.35 2.39 1.52 3.46c0.17 1.06 0 64.67-0.17 71.32"></path>
<path style="fill:none; fill-opacity:0%; fill-rule:evenodd; stroke:#aaaaaa; stroke-opacity:100%; stroke-width: 1.5pt; stroke-linejoin:round; stroke-linecap:round;" d="M70.19 50.63c5.51-0.8 13.84-1.89 19.25-2.69c1.34-0.2 1.68-0.27 2.53 0"></path>
<path style="fill:none; fill-opacity:0%; fill-rule:evenodd; stroke:#aaaaaa; stroke-opacity:100%; stroke-width: 1.5pt; stroke-linejoin:round; stroke-linecap:round;" d="M49.71 50.24c0.84 0.53 1.85 2.39 2.02 3.46c0.17 1.06 2 31.77 1.83 38.41"></path>
<path style="fill:none; fill-opacity:0%; fill-rule:evenodd; stroke:#aaaaaa; stroke-opacity:100%; stroke-width: 1.5pt; stroke-linejoin:round; stroke-linecap:round;" d="M36.75 92.7c0.64 0.27 2.34 0.9 4.03 0.8c9.14-0.53 39.73-3.82 51.35-3.82c1.7 0 4.65 0.53 5.62 0.8"></path>

<path style="fill:none; fill-opacity:0%; fill-rule:evenodd; stroke:#000000; stroke-opacity:100%; stroke-width: 3pt; stroke-linejoin:round; stroke-linecap:round;" d="M10.25 46.43c0.8 0.52 2.37 0.54 3.18 0.5C20.25 46.5 30.5 44 36.81 42.61c1.31-0.29 2.77-0.25 3.44 0.01"></path>
<path style="fill:none; fill-opacity:0%; fill-rule:evenodd; stroke:#000000; stroke-opacity:100%; stroke-width: 3pt; stroke-linejoin:round; stroke-linecap:round;" d="M25.87 20.5c1.09 0.5 1.96 2.23 1.96 3.25c0 7.25 0.03 38.75 0.03 49.5"></path>
<path style="fill:none; fill-opacity:0%; fill-rule:evenodd; stroke:#000000; stroke-opacity:100%; stroke-width: 3pt; stroke-linejoin:round; stroke-linecap:round;" d="M12 79.79c0.75 0.96 2.25 1.46 4.5 0.21c6.25-3.5 17.5-9.75 23.75-13.25"></path>
<path style="fill:none; fill-opacity:0%; fill-rule:evenodd; stroke:#000000; stroke-opacity:100%; stroke-width: 3pt; stroke-linejoin:round; stroke-linecap:round;" d="M68.75 16c0.84 0.53 1.35 2.39 1.52 3.46c0.17 1.06 0 64.67-0.17 71.32"></path>
<path style="fill:none; fill-opacity:0%; fill-rule:evenodd; stroke:#000000; stroke-opacity:100%; stroke-width: 3pt; stroke-linejoin:round; stroke-linecap:round;" d="M70.19 50.63c5.51-0.8 13.84-1.89 19.25-2.69c1.34-0.2 1.68-0.27 2.53 0"></path>
<path style="fill:none; fill-opacity:0%; fill-rule:evenodd; stroke:#000000; stroke-opacity:100%; stroke-width: 3pt; stroke-linejoin:round; stroke-linecap:round;" d="M49.71 50.24c0.84 0.53 1.85 2.39 2.02 3.46c0.17 1.06 2 31.77 1.83 38.41"></path>
<text x="5" y="20" font-size="20" fill="#999999">7</text><path style="fill:none; fill-opacity:0%; fill-rule:evenodd; stroke:#CC0000; stroke-opacity:100%; stroke-width: 3pt; stroke-linejoin:round; stroke-linecap:round;" d="M36.75 92.7c0.64 0.27 2.34 0.9 4.03 0.8c9.14-0.53 39.73-3.82 51.35-3.82c1.7 0 4.65 0.53 5.62 0.8" marker-end="url(#TriangleRed)" marker-start="url(#ArrowRed)" ></path>

</g>

</svg>  
          
