<?xml version="1.0" standalone="no"?>
<!DOCTYPE svg PUBLIC "-//W3C//DTD SVG 1.1//EN"   "http://www.w3.org/Graphics/SVG/1.1/DTD/svg11.dtd">
<svg width="751" height="301"  version="1.1" xmlns="http://www.w3.org/2000/svg">
  <defs>
    <marker id="Triangle" viewBox="0 0 10 10" refX="0" refY="5" markerUnits="strokeWidth" markerWidth="3" style="stroke-opacity:0%;fill:#aaaaaa;" markerHeight="2" orient="auto">
      <path d="M 0 0 L 10 5 L 0 10 z" />
    </marker>
    
    <marker id="Arrow" viewBox="0 0 10 10" refX="5" refY="5" markerUnits="strokeWidth" markerWidth="1.8" style="stroke-opacity:0%;fill:#770000;" markerHeight="2" orient="auto">
      <path d="M 0 4 L 6 4 L 4 1 L 10 5 L 4 9 L 6 6 L 0 6 z" />
        <circle cx="5" cy="5" r="5" />
      </marker>
    
    <marker id="TriangleRed" viewBox="0 0 10 10" refX="0" refY="5" markerUnits="strokeWidth" markerWidth="3" style="stroke-opacity:0%;fill:#CC0000;" markerHeight="2" orient="auto">
      <path d="M 0 0 L 10 5 L 0 10 z" />
    </marker>
    
    <marker id="ArrowRed" viewBox="0 0 10 10" refX="5" refY="5" markerUnits="strokeWidth" markerWidth="1.8" style="stroke-opacity:0%;fill:#CC0000;" markerHeight="2" orient="auto">
      <path d="M 0 4 L 6 4 L 4 1 L 10 5 L 4 9 L 6 6 L 0 6 z" />
        <circle cx="5" cy="5" r="5" />
      </marker>
    
  </defs>
  
  <path style="fill:#ffffff; fill-opacity:100%; fill-rule:evenodd; stroke-width:0;" d="M 0 0 L 751 0 L 751 301 L 0 301 L 0 0" />

  <g transform="scale(1.3761467889908 1.3761467889908) translate(0, 0)">
<path style="fill:none; fill-rule:evenodd; stroke:#aaaaaa;  stroke-width:1pt; stroke-linecap:round;" d="m 109 0 L 0 0 L 0 109 L 109 109 L 109 0"></path><path style="fill:none; fill-opacity:0%; fill-rule:evenodd; stroke:#aaaaaa; stroke-opacity:100%; stroke-width: 1.5pt; stroke-linejoin:round; stroke-linecap:round;" d="M34.12 16.25c1.19 1.19 1.46 3 1.46 4.5c0 0.65 0.04 45.06 0.04 65c0 5.58 0 9.25-0.01 9.5"></path>
<path style="fill:none; fill-opacity:0%; fill-rule:evenodd; stroke:#aaaaaa; stroke-opacity:100%; stroke-width: 1.5pt; stroke-linejoin:round; stroke-linecap:round;" d="M13.88 30.25c4.02 2.43 10.37 9.98 11.38 13.75"></path>
<path style="fill:none; fill-opacity:0%; fill-rule:evenodd; stroke:#aaaaaa; stroke-opacity:100%; stroke-width: 1.5pt; stroke-linejoin:round; stroke-linecap:round;" d="M12.5 76.3c1.88 0.95 3.08 0.2 4.34-0.76c3.66-2.8 7.33-6.22 10.66-9.78"></path>
<path style="fill:none; fill-opacity:0%; fill-rule:evenodd; stroke:#aaaaaa; stroke-opacity:100%; stroke-width: 1.5pt; stroke-linejoin:round; stroke-linecap:round;" d="M44.63 46.23c2.12 0.65 5.24 0.48 7.25 0.18c11.12-1.65 26.75-3.78 38.5-4.62c1.96-0.14 4.25-0.15 6.25 0.29"></path>
<path style="fill:none; fill-opacity:0%; fill-rule:evenodd; stroke:#aaaaaa; stroke-opacity:100%; stroke-width: 1.5pt; stroke-linejoin:round; stroke-linecap:round;" d="M69 17.25c1.19 1.19 1.75 2.75 1.75 4.75c0 1.03 0 45.25 0 60.5"></path>
<path style="fill:none; fill-opacity:0%; fill-rule:evenodd; stroke:#aaaaaa; stroke-opacity:100%; stroke-width: 1.5pt; stroke-linejoin:round; stroke-linecap:round;" d="M47.5 83.75c2.88 0.75 4.73 0.7 7.25 0.46c10.56-1 22.05-2.24 33.26-2.41c2.12-0.03 4.53 0.11 6.61 0.59"></path>

<text x="5" y="20" font-size="20" fill="#999999">1</text><path style="fill:none; fill-opacity:0%; fill-rule:evenodd; stroke:#CC0000; stroke-opacity:100%; stroke-width: 3pt; stroke-linejoin:round; stroke-linecap:round;" d="M34.12 16.25c1.19 1.19 1.46 3 1.46 4.5c0 0.65 0.04 45.06 0.04 65c0 5.58 0 9.25-0.01 9.5"  ></path>






</g><g transform="scale(1.3761467889908 1.3761467889908) translate(109, 0)">
<path style="fill:none; fill-rule:evenodd; stroke:#aaaaaa;  stroke-width:1pt; stroke-linecap:round;" d="m 109 0 L 0 0 L 0 109 L 109 109 L 109 0"></path><path style="fill:none; fill-opacity:0%; fill-rule:evenodd; stroke:#aaaaaa; stroke-opacity:100%; stroke-width: 1.5pt; stroke-linejoin:round; stroke-linecap:round;" d="M34.12 16.25c1.19 1.19 1.46 3 1.46 4.5c0 0.65 0.04 45.06 0.04 65c0 5.58 0 9.25-0.01 9.5"></path>
<path style="fill:none; fill-opacity:0%; fill-rule:evenodd; stroke:#aaaaaa; stroke-opacity:100%; stroke-width: 1.5pt; stroke-linejoin:round; stroke-linecap:round;" d="M13.88 30.25c4.02 2.43 10.37 9.98 11.38 13.75"></path>
<path style="fill:none; fill-opacity:0%; fill-rule:evenodd; stroke:#aaaaaa; stroke-opacity:100%; stroke-width: 1.5pt; stroke-linejoin:round; stroke-linecap:round;" d="M12.5 76.3c1.88 0.95 3.08 0.2 4.34-0.76c3.66-2.8 7.33-6.22 10.66-9.78"></path>
<path style="fill:none; fill-opacity:0%; fill-rule:evenodd; stroke:#aaaaaa; stroke-opacity:100%; stroke-width: 1.5pt; stroke-linejoin:round; stroke-linecap:round;" d="M44.63 46.23c2.12 0.65 5.24 0.48 7.25 0.18c11.12-1.65 26.75-3.78 38.5-4.62c1.96-0.14 4.25-0.15 6.25 0.29"></path>
<path style="fill:none; fill-opacity:0%; fill-rule:evenodd; stroke:#aaaaaa; stroke-opacity:100%; stroke-width: 1.5pt; stroke-linejoin:round; stroke-linecap:round;" d="M69 17.25c1.19 1.19 1.75 2.75 1.75 4.75c0 1.03 0 45.25 0 60.5"></path>
<path style="fill:none; fill-opacity:0%; fill-rule:evenodd; stroke:#aaaaaa; stroke-opacity:100%; stroke-width: 1.5pt; stroke-linejoin:round; stroke-linecap:round;" d="M47.5 83.75c2.88 0.75 4.73 0.7 7.25 0.46c10.56-1 22.05-2.24 33.26-2.41c2.12-0.03 4.53 0.11 6.61 0.59"></path>

<path style="fill:none; fill-opacity:0%; fill-rule:evenodd; stroke:#000000; stroke-opacity:100%; stroke-width: 3pt; stroke-linejoin:round; stroke-linecap:round;" d="M34.12 16.25c1.19 1.19 1.46 3 1.46 4.5c0 0.65 0.04 45.06 0.04 65c0 5.58 0 9.25-0.01 9.5"></path>
<text x="5" y="20" font-size="20" fill="#999999">2</text><path style="fill:none; fill-opacity:0%; fill-rule:evenodd; stroke:#CC0000; stroke-opacity:100%; stroke-width: 3pt; stroke-linejoin:round; stroke-linecap:round;" d="M13.88 30.25c4.02 2.43 10.37 9.98 11.38 13.75"  ></path>





</g><g transform="scale(1.3761467889908 1.3761467889908) translate(218, 0)">
<path style="fill:none; fill-rule:evenodd; stroke:#aaaaaa;  stroke-width:1pt; stroke-linecap:round;" d="m 109 0 L 0 0 L 0 109 L 109 109 L 109 0"></path><path style="fill:none; fill-opacity:0%; fill-rule:evenodd; stroke:#aaaaaa; stroke-opacity:100%; stroke-width: 1.5pt; stroke-linejoin:round; stroke-linecap:round;" d="M34.12 16.25c1.19 1.19 1.46 3 1.46 4.5c0 0.65 0.04 45.06 0.04 65c0 5.58 0 9.25-0.01 9.5"></path>
<path style="fill:none; fill-opacity:0%; fill-rule:evenodd; stroke:#aaaaaa; stroke-opacity:100%; stroke-width: 1.5pt; stroke-linejoin:round; stroke-linecap:round;" d="M13.88 30.25c4.02 2.43 10.37 9.98 11.38 13.75"></path>
<path style="fill:none; fill-opacity:0%; fill-rule:evenodd; stroke:#aaaaaa; stroke-opacity:100%; stroke-width: 1.5pt; stroke-linejoin:round; stroke-linecap:round;" d="M12.5 76.3c1.88 0.95 3.08 0.2 4.34-0.76c3.66-2.8 7.33-6.22 10.66-9.78"></path>
<path style="fill:none; fill-opacity:0%; fill-rule:evenodd; stroke:#aaaaaa; stroke-opacity:100%; stroke-width: 1.5pt; stroke-linejoin:round; stroke-linecap:round;" d="M44.63 46.23c2.12 0.65 5.24 0.48 7.25 0.18c11.12-1.65 26.75-3.78 38.5-4.62c1.96-0.14 4.25-0.15 6.25 0.29"></path>
<path style="fill:none; fill-opacity:0%; fill-rule:evenodd; stroke:#aaaaaa; stroke-opacity:100%; stroke-width: 1.5pt; stroke-linejoin:round; stroke-linecap:round;" d="M69 17.25c1.19 1.19 1.75 2.75 1.75 4.75c0 1.03 0 45.25 0 60.5"></path>
<path style="fill:none; fill-opacity:0%; fill-rule:evenodd; stroke:#aaaaaa; stroke-opacity:100%; stroke-width: 1.5pt; stroke-linejoin:round; stroke-linecap:round;" d="M47.5 83.75c2.88 0.75 4.73 0.7 7.25 0.46c10.56-1 22.05-2.24 33.26-2.41c2.12-0.03 4.53 0.11 6.61 0.59"></path>

<path style="fill:none; fill-opacity:0%; fill-rule:evenodd; stroke:#000000; stroke-opacity:100%; stroke-width: 3pt; stroke-linejoin:round; stroke-linecap:round;" d="M34.12 16.25c1.19 1.19 1.46 3 1.46 4.5c0 0.65 0.04 45.06 0.04 65c0 5.58 0 9.25-0.01 9.5"></path>
<path style="fill:none; fill-opacity:0%; fill-rule:evenodd; stroke:#000000; stroke-opacity:100%; stroke-width: 3pt; stroke-linejoin:round; stroke-linecap:round;" d="M13.88 30.25c4.02 2.43 10.37 9.98 11.38 13.75"></path>
<text x="5" y="20" font-size="20" fill="#999999">3</text><path style="fill:none; fill-opacity:0%; fill-rule:evenodd; stroke:#CC0000; stroke-opacity:100%; stroke-width: 3pt; stroke-linejoin:round; stroke-linecap:round;" d="M12.5 76.3c1.88 0.95 3.08 0.2 4.34-0.76c3.66-2.8 7.33-6.22 10.66-9.78"  ></path>




</g><g transform="scale(1.3761467889908 1.3761467889908) translate(327, 0)">
<path style="fill:none; fill-rule:evenodd; stroke:#aaaaaa;  stroke-width:1pt; stroke-linecap:round;" d="m 109 0 L 0 0 L 0 109 L 109 109 L 109 0"></path><path style="fill:none; fill-opacity:0%; fill-rule:evenodd; stroke:#aaaaaa; stroke-opacity:100%; stroke-width: 1.5pt; stroke-linejoin:round; stroke-linecap:round;" d="M34.12 16.25c1.19 1.19 1.46 3 1.46 4.5c0 0.65 0.04 45.06 0.04 65c0 5.58 0 9.25-0.01 9.5"></path>
<path style="fill:none; fill-opacity:0%; fill-rule:evenodd; stroke:#aaaaaa; stroke-opacity:100%; stroke-width: 1.5pt; stroke-linejoin:round; stroke-linecap:round;" d="M13.88 30.25c4.02 2.43 10.37 9.98 11.38 13.75"></path>
<path style="fill:none; fill-opacity:0%; fill-rule:evenodd; stroke:#aaaaaa; stroke-opacity:100%; stroke-width: 1.5pt; stroke-linejoin:round; stroke-linecap:round;" d="M12.5 76.3c1.88 0.95 3.08 0.2 4.34-0.76c3.66-2.8 7.33-6.22 10.66-9.78"></path>
<path style="fill:none; fill-opacity:0%; fill-rule:evenodd; stroke:#aaaaaa; stroke-opacity:100%; stroke-width: 1.5pt; stroke-linejoin:round; stroke-linecap:round;" d="M44.63 46.23c2.12 0.65 5.24 0.48 7.25 0.18c11.12-1.65 26.75-3.78 38.5-4.62c1.96-0.14 4.25-0.15 6.25 0.29"></path>
<path style="fill:none; fill-opacity:0%; fill-rule:evenodd; stroke:#aaaaaa; stroke-opacity:100%; stroke-width: 1.5pt; stroke-linejoin:round; stroke-linecap:round;" d="M69 17.25c1.19 1.19 1.75 2.75 1.75 4.75c0 1.03 0 45.25 0 60.5"></path>
<path style="fill:none; fill-opacity:0%; fill-rule:evenodd; stroke:#aaaaaa; stroke-opacity:100%; stroke-width: 1.5pt; stroke-linejoin:round; stroke-linecap:round;" d="M47.5 83.75c2.88 0.75 4.73 0.7 7.25 0.46c10.56-1 22.05-2.24 33.26-2.41c2.12-0.03 4.53 0.11 6.61 0.59"></path>

<path style="fill:none; fill-opacity:0%; fill-rule:evenodd; stroke:#000000; stroke-opacity:100%; stroke-width: 3pt; stroke-linejoin:round; stroke-linecap:round;" d="M34.12 16.25c1.19 1.19 1.46 3 1.46 4.5c0 0.65 0.04 45.06 0.04 65c0 5.58 0 9.25-0.01 9.5"></path>
<path style="fill:none; fill-opacity:0%; fill-rule:evenodd; stroke:#000000; stroke-opacity:100%; stroke-width: 3pt; stroke-linejoin:round; stroke-linecap:round;" d="M13.88 30.25c4.02 2.43 10.37 9.98 11.38 13.75"></path>
<path style="fill:none; fill-opacity:0%; fill-rule:evenodd; stroke:#000000; stroke-opacity:100%; stroke-width: 3pt; stroke-linejoin:round; stroke-linecap:round;" d="M12.5 76.3c1.88 0.95 3.08 0.2 4.34-0.76c3.66-2.8 7.33-6.22 10.66-9.78"></path>
<text x="5" y="20" font-size="20" fill="#999999">4</text><path style="fill:none; fill-opacity:0%; fill-rule:evenodd; stroke:#CC0000; stroke-opacity:100%; stroke-width: 3pt; stroke-linejoin:round; stroke-linecap:round;" d="M44.63 46.23c2.12 0.65 5.24 0.48 7.25 0.18c11.12-1.65 26.75-3.78 38.5-4.62c1.96-0.14 4.25-0.15 6.25 0.29"  ></path>



</g><g transform="scale(1.3761467889908 1.3761467889908) translate(436, 0)">
<path style="fill:none; fill-rule:evenodd; stroke:#aaaaaa;  stroke-width:1pt; stroke-linecap:round;" d="m 109 0 L 0 0 L 0 109 L 109 109 L 109 0"></path><path style="fill:none; fill-opacity:0%; fill-rule:evenodd; stroke:#aaaaaa; stroke-opacity:100%; stroke-width: 1.5pt; stroke-linejoin:round; stroke-linecap:round;" d="M34.12 16.25c1.19 1.19 1.46 3 1.46 4.5c0 0.65 0.04 45.06 0.04 65c0 5.58 0 9.25-0.01 9.5"></path>
<path style="fill:none; fill-opacity:0%; fill-rule:evenodd; stroke:#aaaaaa; stroke-opacity:100%; stroke-width: 1.5pt; stroke-linejoin:round; stroke-linecap:round;" d="M13.88 30.25c4.02 2.43 10.37 9.98 11.38 13.75"></path>
<path style="fill:none; fill-opacity:0%; fill-rule:evenodd; stroke:#aaaaaa; stroke-opacity:100%; stroke-width: 1.5pt; stroke-linejoin:round; stroke-linecap:round;" d="M12.5 76.3c1.88 0.95 3.08 0.2 4.34-0.76c3.66-2.8 7.33-6.22 10.66-9.78"></path>
<path style="fill:none; fill-opacity:0%; fill-rule:evenodd; stroke:#aaaaaa; stroke-opacity:100%; stroke-width: 1.5pt; stroke-linejoin:round; stroke-linecap:round;" d="M44.63 46.23c2.12 0.65 5.24 0.48 7.25 0.18c11.12-1.65 26.75-3.78 38.5-4.62c1.96-0.14 4.25-0.15 6.25 0.29"></path>
<path style="fill:none; fill-opacity:0%; fill-rule:evenodd; stroke:#aaaaaa; stroke-opacity:100%; stroke-width: 1.5pt; stroke-linejoin:round; stroke-linecap:round;" d="M69 17.25c1.19 1.19 1.75 2.75 1.75 4.75c0 1.03 0 45.25 0 60.5"></path>
<path style="fill:none; fill-opacity:0%; fill-rule:evenodd; stroke:#aaaaaa; stroke-opacity:100%; stroke-width: 1.5pt; stroke-linejoin:round; stroke-linecap:round;" d="M47.5 83.75c2.88 0.75 4.73 0.7 7.25 0.46c10.56-1 22.05-2.24 33.26-2.41c2.12-0.03 4.53 0.11 6.61 0.59"></path>

<path style="fill:none; fill-opacity:0%; fill-rule:evenodd; stroke:#000000; stroke-opacity:100%; stroke-width: 3pt; stroke-linejoin:round; stroke-linecap:round;" d="M34.12 16.25c1.19 1.19 1.46 3 1.46 4.5c0 0.65 0.04 45.06 0.04 65c0 5.58 0 9.25-0.01 9.5"></path>
<path style="fill:none; fill-opacity:0%; fill-rule:evenodd; stroke:#000000; stroke-opacity:100%; stroke-width: 3pt; stroke-linejoin:round; stroke-linecap:round;" d="M13.88 30.25c4.02 2.43 10.37 9.98 11.38 13.75"></path>
<path style="fill:none; fill-opacity:0%; fill-rule:evenodd; stroke:#000000; stroke-opacity:100%; stroke-width: 3pt; stroke-linejoin:round; stroke-linecap:round;" d="M12.5 76.3c1.88 0.95 3.08 0.2 4.34-0.76c3.66-2.8 7.33-6.22 10.66-9.78"></path>
<path style="fill:none; fill-opacity:0%; fill-rule:evenodd; stroke:#000000; stroke-opacity:100%; stroke-width: 3pt; stroke-linejoin:round; stroke-linecap:round;" d="M44.63 46.23c2.12 0.65 5.24 0.48 7.25 0.18c11.12-1.65 26.75-3.78 38.5-4.62c1.96-0.14 4.25-0.15 6.25 0.29"></path>
<text x="5" y="20" font-size="20" fill="#999999">5</text><path style="fill:none; fill-opacity:0%; fill-rule:evenodd; stroke:#CC0000; stroke-opacity:100%; stroke-width: 3pt; stroke-linejoin:round; stroke-linecap:round;" d="M69 17.25c1.19 1.19 1.75 2.75 1.75 4.75c0 1.03 0 45.25 0 60.5"  ></path>


</g><g transform="scale(1.3761467889908 1.3761467889908) translate(0, 109)">
<path style="fill:none; fill-rule:evenodd; stroke:#aaaaaa;  stroke-width:1pt; stroke-linecap:round;" d="m 109 0 L 0 0 L 0 109 L 109 109 L 109 0"></path><path style="fill:none; fill-opacity:0%; fill-rule:evenodd; stroke:#aaaaaa; stroke-opacity:100%; stroke-width: 1.5pt; stroke-linejoin:round; stroke-linecap:round;" d="M34.12 16.25c1.19 1.19 1.46 3 1.46 4.5c0 0.65 0.04 45.06 0.04 65c0 5.58 0 9.25-0.01 9.5"></path>
<path style="fill:none; fill-opacity:0%; fill-rule:evenodd; stroke:#aaaaaa; stroke-opacity:100%; stroke-width: 1.5pt; stroke-linejoin:round; stroke-linecap:round;" d="M13.88 30.25c4.02 2.43 10.37 9.98 11.38 13.75"></path>
<path style="fill:none; fill-opacity:0%; fill-rule:evenodd; stroke:#aaaaaa; stroke-opacity:100%; stroke-width: 1.5pt; stroke-linejoin:round; stroke-linecap:round;" d="M12.5 76.3c1.88 0.95 3.08 0.2 4.34-0.76c3.66-2.8 7.33-6.22 10.66-9.78"></path>
<path style="fill:none; fill-opacity:0%; fill-rule:evenodd; stroke:#aaaaaa; stroke-opacity:100%; stroke-width: 1.5pt; stroke-linejoin:round; stroke-linecap:round;" d="M44.63 46.23c2.12 0.65 5.24 0.48 7.25 0.18c11.12-1.65 26.75-3.78 38.5-4.62c1.96-0.14 4.25-0.15 6.25 0.29"></path>
<path style="fill:none; fill-opacity:0%; fill-rule:evenodd; stroke:#aaaaaa; stroke-opacity:100%; stroke-width: 1.5pt; stroke-linejoin:round; stroke-linecap:round;" d="M69 17.25c1.19 1.19 1.75 2.75 1.75 4.75c0 1.03 0 45.25 0 60.5"></path>
<path style="fill:none; fill-opacity:0%; fill-rule:evenodd; stroke:#aaaaaa; stroke-opacity:100%; stroke-width: 1.5pt; stroke-linejoin:round; stroke-linecap:round;" d="M47.5 83.75c2.88 0.75 4.73 0.7 7.25 0.46c10.56-1 22.05-2.24 33.26-2.41c2.12-0.03 4.53 0.11 6.61 0.59"></path>

<path style="fill:none; fill-opacity:0%; fill-rule:evenodd; stroke:#000000; stroke-opacity:100%; stroke-width: 3pt; stroke-linejoin:round; stroke-linecap:round;" d="M34.12 16.25c1.19 1.19 1.46 3 1.46 4.5c0 0.65 0.04 45.06 0.04 65c0 5.58 0 9.25-0.01 9.5"></path>
<path style="fill:none; fill-opacity:0%; fill-rule:evenodd; stroke:#000000; stroke-opacity:100%; stroke-width: 3pt; stroke-linejoin:round; stroke-linecap:round;" d="M13.88 30.25c4.02 2.43 10.37 9.98 11.38 13.75"></path>
<path style="fill:none; fill-opacity:0%; fill-rule:evenodd; stroke:#000000; stroke-opacity:100%; stroke-width: 3pt; stroke-linejoin:round; stroke-linecap:round;" d="M12.5 76.3c1.88 0.95 3.08 0.2 4.34-0.76c3.66-2.8 7.33-6.22 10.66-9.78"></path>
<path style="fill:none; fill-opacity:0%; fill-rule:evenodd; stroke:#000000; stroke-opacity:100%; stroke-width: 3pt; stroke-linejoin:round; stroke-linecap:round;" d="M44.63 46.23c2.12 0.65 5.24 0.48 7.25 0.18c11.12-1.65 26.75-3.78 38.5-4.62c1.96-0.14 4.25-0.15 6.25 0.29"></path>
<path style="fill:none; fill-opacity:0%; fill-rule:evenodd; stroke:#000000; stroke-opacity:100%; stroke-width: 3pt; stroke-linejoin:round; stroke-linecap:round;" d="M69 17.25c1.19 1.19 1.75 2.75 1.75 4.75c0 1.03 0 45.25 0 60.5"></path>
<text x="5" y="20" font-size="20" fill="#999999">6</text><path style="fill:none; fill-opacity:0%; fill-rule:evenodd; stroke:#CC0000; stroke-opacity:100%; stroke-width: 3pt; stroke-linejoin:round; stroke-linecap:round;" d="M47.5 83.75c2.88 0.75 4.73 0.7 7.25 0.46c10.56-1 22.05-2.24 33.26-2.41c2.12-0.03 4.53 0.11 6.61 0.59"  ></path>

</g>

</svg>  
          
