<?xml version="1.0" standalone="no"?>
<!DOCTYPE svg PUBLIC "-//W3C//DTD SVG 1.1//EN"   "http://www.w3.org/Graphics/SVG/1.1/DTD/svg11.dtd">
<svg width="751" height="301"  version="1.1" xmlns="http://www.w3.org/2000/svg">
  <defs>
    <marker id="Triangle" viewBox="0 0 10 10" refX="0" refY="5" markerUnits="strokeWidth" markerWidth="3" style="stroke-opacity:0%;fill:#aaaaaa;" markerHeight="2" orient="auto">
      <path d="M 0 0 L 10 5 L 0 10 z" />
    </marker>
    
    <marker id="Arrow" viewBox="0 0 10 10" refX="5" refY="5" markerUnits="strokeWidth" markerWidth="1.8" style="stroke-opacity:0%;fill:#770000;" markerHeight="2" orient="auto">
      <path d="M 0 4 L 6 4 L 4 1 L 10 5 L 4 9 L 6 6 L 0 6 z" />
        <circle cx="5" cy="5" r="5" />
      </marker>
    
    <marker id="TriangleRed" viewBox="0 0 10 10" refX="0" refY="5" markerUnits="strokeWidth" markerWidth="3" style="stroke-opacity:0%;fill:#CC0000;" markerHeight="2" orient="auto">
      <path d="M 0 0 L 10 5 L 0 10 z" />
    </marker>
    
    <marker id="ArrowRed" viewBox="0 0 10 10" refX="5" refY="5" markerUnits="strokeWidth" markerWidth="1.8" style="stroke-opacity:0%;fill:#CC0000;" markerHeight="2" orient="auto">
      <path d="M 0 4 L 6 4 L 4 1 L 10 5 L 4 9 L 6 6 L 0 6 z" />
        <circle cx="5" cy="5" r="5" />
      </marker>
    
  </defs>
  
  <path style="fill:#ffffff; fill-opacity:100%; fill-rule:evenodd; stroke-width:0;" d="M 0 0 L 751 0 L 751 301 L 0 301 L 0 0" />

  <g transform="scale(1.3761467889908 1.3761467889908) translate(0, 0)">
<path style="fill:none; fill-rule:evenodd; stroke:#aaaaaa;  stroke-width:1pt; stroke-linecap:round;" d="m 109 0 L 0 0 L 0 109 L 109 109 L 109 0"></path><path style="fill:none; fill-opacity:0%; fill-rule:evenodd; stroke:#aaaaaa; stroke-opacity:100%; stroke-width: 1.5pt; stroke-linejoin:round; stroke-linecap:round;" d="M27.98 16.87c0.39 1.04 1.08 2.74 0.89 4.24c-0.98 7.39-7.32 34.16-11.63 42.79c-0.89 1.77 0.4 2.46 0.89 2.63C27.5 69.75 36 76.16 41.25 83.78"></path>
<path style="fill:none; fill-opacity:0%; fill-rule:evenodd; stroke:#aaaaaa; stroke-opacity:100%; stroke-width: 1.5pt; stroke-linejoin:round; stroke-linecap:round;" d="M39.75 36.89c0.08 1.27 0.14 4.34-0.16 6.18C37.18 57.91 31 79.75 13 90"></path>
<path style="fill:none; fill-opacity:0%; fill-rule:evenodd; stroke:#aaaaaa; stroke-opacity:100%; stroke-width: 1.5pt; stroke-linejoin:round; stroke-linecap:round;" d="M8.5 47.22c0.75 0.94 1.75 1.62 3.75 1.39c2.15-0.24 21.34-4.85 30.25-7.23"></path>
<path style="fill:none; fill-opacity:0%; fill-rule:evenodd; stroke:#aaaaaa; stroke-opacity:100%; stroke-width: 1.5pt; stroke-linejoin:round; stroke-linecap:round;" d="M48.08 20.39c1.22 0.45 3.44 0.5 4.66 0.45c7.31-0.32 24.65-3.56 35.6-3.4c2.03 0.03 3.24 0.21 4.25 0.44"></path>
<path style="fill:none; fill-opacity:0%; fill-rule:evenodd; stroke:#aaaaaa; stroke-opacity:100%; stroke-width: 1.5pt; stroke-linejoin:round; stroke-linecap:round;" d="M45.06 52.26c1.02 0.4 2.88 0.51 3.9 0.4c13.29-1.4 37.55-4.71 46.72-4.56c1.7 0.03 2.71 0.19 3.56 0.39"></path>
<path style="fill:none; fill-opacity:0%; fill-rule:evenodd; stroke:#aaaaaa; stroke-opacity:100%; stroke-width: 1.5pt; stroke-linejoin:round; stroke-linecap:round;" d="M59.38 22.98c0.87 1.02 1.62 2.35 1.62 3.92s0 4.97 0 18.31c0 13.34-0.76 37.04-16.26 48.39"></path>
<path style="fill:none; fill-opacity:0%; fill-rule:evenodd; stroke:#aaaaaa; stroke-opacity:100%; stroke-width: 1.5pt; stroke-linejoin:round; stroke-linecap:round;" d="M79.16 21.14c1.08 1.05 1.9 2.09 1.9 3.14s0 69.58 0 72.72"></path>

<text x="5" y="20" font-size="20" fill="#999999">1</text><path style="fill:none; fill-opacity:0%; fill-rule:evenodd; stroke:#CC0000; stroke-opacity:100%; stroke-width: 3pt; stroke-linejoin:round; stroke-linecap:round;" d="M27.98 16.87c0.39 1.04 1.08 2.74 0.89 4.24c-0.98 7.39-7.32 34.16-11.63 42.79c-0.89 1.77 0.4 2.46 0.89 2.63C27.5 69.75 36 76.16 41.25 83.78" marker-end="url(#TriangleRed)" marker-start="url(#ArrowRed)" ></path>







</g><g transform="scale(1.3761467889908 1.3761467889908) translate(109, 0)">
<path style="fill:none; fill-rule:evenodd; stroke:#aaaaaa;  stroke-width:1pt; stroke-linecap:round;" d="m 109 0 L 0 0 L 0 109 L 109 109 L 109 0"></path><path style="fill:none; fill-opacity:0%; fill-rule:evenodd; stroke:#aaaaaa; stroke-opacity:100%; stroke-width: 1.5pt; stroke-linejoin:round; stroke-linecap:round;" d="M27.98 16.87c0.39 1.04 1.08 2.74 0.89 4.24c-0.98 7.39-7.32 34.16-11.63 42.79c-0.89 1.77 0.4 2.46 0.89 2.63C27.5 69.75 36 76.16 41.25 83.78"></path>
<path style="fill:none; fill-opacity:0%; fill-rule:evenodd; stroke:#aaaaaa; stroke-opacity:100%; stroke-width: 1.5pt; stroke-linejoin:round; stroke-linecap:round;" d="M39.75 36.89c0.08 1.27 0.14 4.34-0.16 6.18C37.18 57.91 31 79.75 13 90"></path>
<path style="fill:none; fill-opacity:0%; fill-rule:evenodd; stroke:#aaaaaa; stroke-opacity:100%; stroke-width: 1.5pt; stroke-linejoin:round; stroke-linecap:round;" d="M8.5 47.22c0.75 0.94 1.75 1.62 3.75 1.39c2.15-0.24 21.34-4.85 30.25-7.23"></path>
<path style="fill:none; fill-opacity:0%; fill-rule:evenodd; stroke:#aaaaaa; stroke-opacity:100%; stroke-width: 1.5pt; stroke-linejoin:round; stroke-linecap:round;" d="M48.08 20.39c1.22 0.45 3.44 0.5 4.66 0.45c7.31-0.32 24.65-3.56 35.6-3.4c2.03 0.03 3.24 0.21 4.25 0.44"></path>
<path style="fill:none; fill-opacity:0%; fill-rule:evenodd; stroke:#aaaaaa; stroke-opacity:100%; stroke-width: 1.5pt; stroke-linejoin:round; stroke-linecap:round;" d="M45.06 52.26c1.02 0.4 2.88 0.51 3.9 0.4c13.29-1.4 37.55-4.71 46.72-4.56c1.7 0.03 2.71 0.19 3.56 0.39"></path>
<path style="fill:none; fill-opacity:0%; fill-rule:evenodd; stroke:#aaaaaa; stroke-opacity:100%; stroke-width: 1.5pt; stroke-linejoin:round; stroke-linecap:round;" d="M59.38 22.98c0.87 1.02 1.62 2.35 1.62 3.92s0 4.97 0 18.31c0 13.34-0.76 37.04-16.26 48.39"></path>
<path style="fill:none; fill-opacity:0%; fill-rule:evenodd; stroke:#aaaaaa; stroke-opacity:100%; stroke-width: 1.5pt; stroke-linejoin:round; stroke-linecap:round;" d="M79.16 21.14c1.08 1.05 1.9 2.09 1.9 3.14s0 69.58 0 72.72"></path>

<path style="fill:none; fill-opacity:0%; fill-rule:evenodd; stroke:#000000; stroke-opacity:100%; stroke-width: 3pt; stroke-linejoin:round; stroke-linecap:round;" d="M27.98 16.87c0.39 1.04 1.08 2.74 0.89 4.24c-0.98 7.39-7.32 34.16-11.63 42.79c-0.89 1.77 0.4 2.46 0.89 2.63C27.5 69.75 36 76.16 41.25 83.78"></path>
<text x="5" y="20" font-size="20" fill="#999999">2</text><path style="fill:none; fill-opacity:0%; fill-rule:evenodd; stroke:#CC0000; stroke-opacity:100%; stroke-width: 3pt; stroke-linejoin:round; stroke-linecap:round;" d="M39.75 36.89c0.08 1.27 0.14 4.34-0.16 6.18C37.18 57.91 31 79.75 13 90" marker-end="url(#TriangleRed)" marker-start="url(#ArrowRed)" ></path>






</g><g transform="scale(1.3761467889908 1.3761467889908) translate(218, 0)">
<path style="fill:none; fill-rule:evenodd; stroke:#aaaaaa;  stroke-width:1pt; stroke-linecap:round;" d="m 109 0 L 0 0 L 0 109 L 109 109 L 109 0"></path><path style="fill:none; fill-opacity:0%; fill-rule:evenodd; stroke:#aaaaaa; stroke-opacity:100%; stroke-width: 1.5pt; stroke-linejoin:round; stroke-linecap:round;" d="M27.98 16.87c0.39 1.04 1.08 2.74 0.89 4.24c-0.98 7.39-7.32 34.16-11.63 42.79c-0.89 1.77 0.4 2.46 0.89 2.63C27.5 69.75 36 76.16 41.25 83.78"></path>
<path style="fill:none; fill-opacity:0%; fill-rule:evenodd; stroke:#aaaaaa; stroke-opacity:100%; stroke-width: 1.5pt; stroke-linejoin:round; stroke-linecap:round;" d="M39.75 36.89c0.08 1.27 0.14 4.34-0.16 6.18C37.18 57.91 31 79.75 13 90"></path>
<path style="fill:none; fill-opacity:0%; fill-rule:evenodd; stroke:#aaaaaa; stroke-opacity:100%; stroke-width: 1.5pt; stroke-linejoin:round; stroke-linecap:round;" d="M8.5 47.22c0.75 0.94 1.75 1.62 3.75 1.39c2.15-0.24 21.34-4.85 30.25-7.23"></path>
<path style="fill:none; fill-opacity:0%; fill-rule:evenodd; stroke:#aaaaaa; stroke-opacity:100%; stroke-width: 1.5pt; stroke-linejoin:round; stroke-linecap:round;" d="M48.08 20.39c1.22 0.45 3.44 0.5 4.66 0.45c7.31-0.32 24.65-3.56 35.6-3.4c2.03 0.03 3.24 0.21 4.25 0.44"></path>
<path style="fill:none; fill-opacity:0%; fill-rule:evenodd; stroke:#aaaaaa; stroke-opacity:100%; stroke-width: 1.5pt; stroke-linejoin:round; stroke-linecap:round;" d="M45.06 52.26c1.02 0.4 2.88 0.51 3.9 0.4c13.29-1.4 37.55-4.71 46.72-4.56c1.7 0.03 2.71 0.19 3.56 0.39"></path>
<path style="fill:none; fill-opacity:0%; fill-rule:evenodd; stroke:#aaaaaa; stroke-opacity:100%; stroke-width: 1.5pt; stroke-linejoin:round; stroke-linecap:round;" d="M59.38 22.98c0.87 1.02 1.62 2.35 1.62 3.92s0 4.97 0 18.31c0 13.34-0.76 37.04-16.26 48.39"></path>
<path style="fill:none; fill-opacity:0%; fill-rule:evenodd; stroke:#aaaaaa; stroke-opacity:100%; stroke-width: 1.5pt; stroke-linejoin:round; stroke-linecap:round;" d="M79.16 21.14c1.08 1.05 1.9 2.09 1.9 3.14s0 69.58 0 72.72"></path>

<path style="fill:none; fill-opacity:0%; fill-rule:evenodd; stroke:#000000; stroke-opacity:100%; stroke-width: 3pt; stroke-linejoin:round; stroke-linecap:round;" d="M27.98 16.87c0.39 1.04 1.08 2.74 0.89 4.24c-0.98 7.39-7.32 34.16-11.63 42.79c-0.89 1.77 0.4 2.46 0.89 2.63C27.5 69.75 36 76.16 41.25 83.78"></path>
<path style="fill:none; fill-opacity:0%; fill-rule:evenodd; stroke:#000000; stroke-opacity:100%; stroke-width: 3pt; stroke-linejoin:round; stroke-linecap:round;" d="M39.75 36.89c0.08 1.27 0.14 4.34-0.16 6.18C37.18 57.91 31 79.75 13 90"></path>
<text x="5" y="20" font-size="20" fill="#999999">3</text><path style="fill:none; fill-opacity:0%; fill-rule:evenodd; stroke:#CC0000; stroke-opacity:100%; stroke-width: 3pt; stroke-linejoin:round; stroke-linecap:round;" d="M8.5 47.22c0.75 0.94 1.75 1.62 3.75 1.39c2.15-0.24 21.34-4.85 30.25-7.23" marker-end="url(#TriangleRed)" marker-start="url(#ArrowRed)" ></path>





</g><g transform="scale(1.3761467889908 1.3761467889908) translate(327, 0)">
<path style="fill:none; fill-rule:evenodd; stroke:#aaaaaa;  stroke-width:1pt; stroke-linecap:round;" d="m 109 0 L 0 0 L 0 109 L 109 109 L 109 0"></path><path style="fill:none; fill-opacity:0%; fill-rule:evenodd; stroke:#aaaaaa; stroke-opacity:100%; stroke-width: 1.5pt; stroke-linejoin:round; stroke-linecap:round;" d="M27.98 16.87c0.39 1.04 1.08 2.74 0.89 4.24c-0.98 7.39-7.32 34.16-11.63 42.79c-0.89 1.77 0.4 2.46 0.89 2.63C27.5 69.75 36 76.16 41.25 83.78"></path>
<path style="fill:none; fill-opacity:0%; fill-rule:evenodd; stroke:#aaaaaa; stroke-opacity:100%; stroke-width: 1.5pt; stroke-linejoin:round; stroke-linecap:round;" d="M39.75 36.89c0.08 1.27 0.14 4.34-0.16 6.18C37.18 57.91 31 79.75 13 90"></path>
<path style="fill:none; fill-opacity:0%; fill-rule:evenodd; stroke:#aaaaaa; stroke-opacity:100%; stroke-width: 1.5pt; stroke-linejoin:round; stroke-linecap:round;" d="M8.5 47.22c0.75 0.94 1.75 1.62 3.75 1.39c2.15-0.24 21.34-4.85 30.25-7.23"></path>
<path style="fill:none; fill-opacity:0%; fill-rule:evenodd; stroke:#aaaaaa; stroke-opacity:100%; stroke-width: 1.5pt; stroke-linejoin:round; stroke-linecap:round;" d="M48.08 20.39c1.22 0.45 3.44 0.5 4.66 0.45c7.31-0.32 24.65-3.56 35.6-3.4c2.03 0.03 3.24 0.21 4.25 0.44"></path>
<path style="fill:none; fill-opacity:0%; fill-rule:evenodd; stroke:#aaaaaa; stroke-opacity:100%; stroke-width: 1.5pt; stroke-linejoin:round; stroke-linecap:round;" d="M45.06 52.26c1.02 0.4 2.88 0.51 3.9 0.4c13.29-1.4 37.55-4.71 46.72-4.56c1.7 0.03 2.71 0.19 3.56 0.39"></path>
<path style="fill:none; fill-opacity:0%; fill-rule:evenodd; stroke:#aaaaaa; stroke-opacity:100%; stroke-width: 1.5pt; stroke-linejoin:round; stroke-linecap:round;" d="M59.38 22.98c0.87 1.02 1.62 2.35 1.62 3.92s0 4.97 0 18.31c0 13.34-0.76 37.04-16.26 48.39"></path>
<path style="fill:none; fill-opacity:0%; fill-rule:evenodd; stroke:#aaaaaa; stroke-opacity:100%; stroke-width: 1.5pt; stroke-linejoin:round; stroke-linecap:round;" d="M79.16 21.14c1.08 1.05 1.9 2.09 1.9 3.14s0 69.58 0 72.72"></path>

<path style="fill:none; fill-opacity:0%; fill-rule:evenodd; stroke:#000000; stroke-opacity:100%; stroke-width: 3pt; stroke-linejoin:round; stroke-linecap:round;" d="M27.98 16.87c0.39 1.04 1.08 2.74 0.89 4.24c-0.98 7.39-7.32 34.16-11.63 42.79c-0.89 1.77 0.4 2.46 0.89 2.63C27.5 69.75 36 76.16 41.25 83.78"></path>
<path style="fill:none; fill-opacity:0%; fill-rule:evenodd; stroke:#000000; stroke-opacity:100%; stroke-width: 3pt; stroke-linejoin:round; stroke-linecap:round;" d="M39.75 36.89c0.08 1.27 0.14 4.34-0.16 6.18C37.18 57.91 31 79.75 13 90"></path>
<path style="fill:none; fill-opacity:0%; fill-rule:evenodd; stroke:#000000; stroke-opacity:100%; stroke-width: 3pt; stroke-linejoin:round; stroke-linecap:round;" d="M8.5 47.22c0.75 0.94 1.75 1.62 3.75 1.39c2.15-0.24 21.34-4.85 30.25-7.23"></path>
<text x="5" y="20" font-size="20" fill="#999999">4</text><path style="fill:none; fill-opacity:0%; fill-rule:evenodd; stroke:#CC0000; stroke-opacity:100%; stroke-width: 3pt; stroke-linejoin:round; stroke-linecap:round;" d="M48.08 20.39c1.22 0.45 3.44 0.5 4.66 0.45c7.31-0.32 24.65-3.56 35.6-3.4c2.03 0.03 3.24 0.21 4.25 0.44" marker-end="url(#TriangleRed)" marker-start="url(#ArrowRed)" ></path>




</g><g transform="scale(1.3761467889908 1.3761467889908) translate(436, 0)">
<path style="fill:none; fill-rule:evenodd; stroke:#aaaaaa;  stroke-width:1pt; stroke-linecap:round;" d="m 109 0 L 0 0 L 0 109 L 109 109 L 109 0"></path><path style="fill:none; fill-opacity:0%; fill-rule:evenodd; stroke:#aaaaaa; stroke-opacity:100%; stroke-width: 1.5pt; stroke-linejoin:round; stroke-linecap:round;" d="M27.98 16.87c0.39 1.04 1.08 2.74 0.89 4.24c-0.98 7.39-7.32 34.16-11.63 42.79c-0.89 1.77 0.4 2.46 0.89 2.63C27.5 69.75 36 76.16 41.25 83.78"></path>
<path style="fill:none; fill-opacity:0%; fill-rule:evenodd; stroke:#aaaaaa; stroke-opacity:100%; stroke-width: 1.5pt; stroke-linejoin:round; stroke-linecap:round;" d="M39.75 36.89c0.08 1.27 0.14 4.34-0.16 6.18C37.18 57.91 31 79.75 13 90"></path>
<path style="fill:none; fill-opacity:0%; fill-rule:evenodd; stroke:#aaaaaa; stroke-opacity:100%; stroke-width: 1.5pt; stroke-linejoin:round; stroke-linecap:round;" d="M8.5 47.22c0.75 0.94 1.75 1.62 3.75 1.39c2.15-0.24 21.34-4.85 30.25-7.23"></path>
<path style="fill:none; fill-opacity:0%; fill-rule:evenodd; stroke:#aaaaaa; stroke-opacity:100%; stroke-width: 1.5pt; stroke-linejoin:round; stroke-linecap:round;" d="M48.08 20.39c1.22 0.45 3.44 0.5 4.66 0.45c7.31-0.32 24.65-3.56 35.6-3.4c2.03 0.03 3.24 0.21 4.25 0.44"></path>
<path style="fill:none; fill-opacity:0%; fill-rule:evenodd; stroke:#aaaaaa; stroke-opacity:100%; stroke-width: 1.5pt; stroke-linejoin:round; stroke-linecap:round;" d="M45.06 52.26c1.02 0.4 2.88 0.51 3.9 0.4c13.29-1.4 37.55-4.71 46.72-4.56c1.7 0.03 2.71 0.19 3.56 0.39"></path>
<path style="fill:none; fill-opacity:0%; fill-rule:evenodd; stroke:#aaaaaa; stroke-opacity:100%; stroke-width: 1.5pt; stroke-linejoin:round; stroke-linecap:round;" d="M59.38 22.98c0.87 1.02 1.62 2.35 1.62 3.92s0 4.97 0 18.31c0 13.34-0.76 37.04-16.26 48.39"></path>
<path style="fill:none; fill-opacity:0%; fill-rule:evenodd; stroke:#aaaaaa; stroke-opacity:100%; stroke-width: 1.5pt; stroke-linejoin:round; stroke-linecap:round;" d="M79.16 21.14c1.08 1.05 1.9 2.09 1.9 3.14s0 69.58 0 72.72"></path>

<path style="fill:none; fill-opacity:0%; fill-rule:evenodd; stroke:#000000; stroke-opacity:100%; stroke-width: 3pt; stroke-linejoin:round; stroke-linecap:round;" d="M27.98 16.87c0.39 1.04 1.08 2.74 0.89 4.24c-0.98 7.39-7.32 34.16-11.63 42.79c-0.89 1.77 0.4 2.46 0.89 2.63C27.5 69.75 36 76.16 41.25 83.78"></path>
<path style="fill:none; fill-opacity:0%; fill-rule:evenodd; stroke:#000000; stroke-opacity:100%; stroke-width: 3pt; stroke-linejoin:round; stroke-linecap:round;" d="M39.75 36.89c0.08 1.27 0.14 4.34-0.16 6.18C37.18 57.91 31 79.75 13 90"></path>
<path style="fill:none; fill-opacity:0%; fill-rule:evenodd; stroke:#000000; stroke-opacity:100%; stroke-width: 3pt; stroke-linejoin:round; stroke-linecap:round;" d="M8.5 47.22c0.75 0.94 1.75 1.62 3.75 1.39c2.15-0.24 21.34-4.85 30.25-7.23"></path>
<path style="fill:none; fill-opacity:0%; fill-rule:evenodd; stroke:#000000; stroke-opacity:100%; stroke-width: 3pt; stroke-linejoin:round; stroke-linecap:round;" d="M48.08 20.39c1.22 0.45 3.44 0.5 4.66 0.45c7.31-0.32 24.65-3.56 35.6-3.4c2.03 0.03 3.24 0.21 4.25 0.44"></path>
<text x="5" y="20" font-size="20" fill="#999999">5</text><path style="fill:none; fill-opacity:0%; fill-rule:evenodd; stroke:#CC0000; stroke-opacity:100%; stroke-width: 3pt; stroke-linejoin:round; stroke-linecap:round;" d="M45.06 52.26c1.02 0.4 2.88 0.51 3.9 0.4c13.29-1.4 37.55-4.71 46.72-4.56c1.7 0.03 2.71 0.19 3.56 0.39" marker-end="url(#TriangleRed)" marker-start="url(#ArrowRed)" ></path>



</g><g transform="scale(1.3761467889908 1.3761467889908) translate(0, 109)">
<path style="fill:none; fill-rule:evenodd; stroke:#aaaaaa;  stroke-width:1pt; stroke-linecap:round;" d="m 109 0 L 0 0 L 0 109 L 109 109 L 109 0"></path><path style="fill:none; fill-opacity:0%; fill-rule:evenodd; stroke:#aaaaaa; stroke-opacity:100%; stroke-width: 1.5pt; stroke-linejoin:round; stroke-linecap:round;" d="M27.98 16.87c0.39 1.04 1.08 2.74 0.89 4.24c-0.98 7.39-7.32 34.16-11.63 42.79c-0.89 1.77 0.4 2.46 0.89 2.63C27.5 69.75 36 76.16 41.25 83.78"></path>
<path style="fill:none; fill-opacity:0%; fill-rule:evenodd; stroke:#aaaaaa; stroke-opacity:100%; stroke-width: 1.5pt; stroke-linejoin:round; stroke-linecap:round;" d="M39.75 36.89c0.08 1.27 0.14 4.34-0.16 6.18C37.18 57.91 31 79.75 13 90"></path>
<path style="fill:none; fill-opacity:0%; fill-rule:evenodd; stroke:#aaaaaa; stroke-opacity:100%; stroke-width: 1.5pt; stroke-linejoin:round; stroke-linecap:round;" d="M8.5 47.22c0.75 0.94 1.75 1.62 3.75 1.39c2.15-0.24 21.34-4.85 30.25-7.23"></path>
<path style="fill:none; fill-opacity:0%; fill-rule:evenodd; stroke:#aaaaaa; stroke-opacity:100%; stroke-width: 1.5pt; stroke-linejoin:round; stroke-linecap:round;" d="M48.08 20.39c1.22 0.45 3.44 0.5 4.66 0.45c7.31-0.32 24.65-3.56 35.6-3.4c2.03 0.03 3.24 0.21 4.25 0.44"></path>
<path style="fill:none; fill-opacity:0%; fill-rule:evenodd; stroke:#aaaaaa; stroke-opacity:100%; stroke-width: 1.5pt; stroke-linejoin:round; stroke-linecap:round;" d="M45.06 52.26c1.02 0.4 2.88 0.51 3.9 0.4c13.29-1.4 37.55-4.71 46.72-4.56c1.7 0.03 2.71 0.19 3.56 0.39"></path>
<path style="fill:none; fill-opacity:0%; fill-rule:evenodd; stroke:#aaaaaa; stroke-opacity:100%; stroke-width: 1.5pt; stroke-linejoin:round; stroke-linecap:round;" d="M59.38 22.98c0.87 1.02 1.62 2.35 1.62 3.92s0 4.97 0 18.31c0 13.34-0.76 37.04-16.26 48.39"></path>
<path style="fill:none; fill-opacity:0%; fill-rule:evenodd; stroke:#aaaaaa; stroke-opacity:100%; stroke-width: 1.5pt; stroke-linejoin:round; stroke-linecap:round;" d="M79.16 21.14c1.08 1.05 1.9 2.09 1.9 3.14s0 69.58 0 72.72"></path>

<path style="fill:none; fill-opacity:0%; fill-rule:evenodd; stroke:#000000; stroke-opacity:100%; stroke-width: 3pt; stroke-linejoin:round; stroke-linecap:round;" d="M27.98 16.87c0.39 1.04 1.08 2.74 0.89 4.24c-0.98 7.39-7.32 34.16-11.63 42.79c-0.89 1.77 0.4 2.46 0.89 2.63C27.5 69.75 36 76.16 41.25 83.78"></path>
<path style="fill:none; fill-opacity:0%; fill-rule:evenodd; stroke:#000000; stroke-opacity:100%; stroke-width: 3pt; stroke-linejoin:round; stroke-linecap:round;" d="M39.75 36.89c0.08 1.27 0.14 4.34-0.16 6.18C37.18 57.91 31 79.75 13 90"></path>
<path style="fill:none; fill-opacity:0%; fill-rule:evenodd; stroke:#000000; stroke-opacity:100%; stroke-width: 3pt; stroke-linejoin:round; stroke-linecap:round;" d="M8.5 47.22c0.75 0.94 1.75 1.62 3.75 1.39c2.15-0.24 21.34-4.85 30.25-7.23"></path>
<path style="fill:none; fill-opacity:0%; fill-rule:evenodd; stroke:#000000; stroke-opacity:100%; stroke-width: 3pt; stroke-linejoin:round; stroke-linecap:round;" d="M48.08 20.39c1.22 0.45 3.44 0.5 4.66 0.45c7.31-0.32 24.65-3.56 35.6-3.4c2.03 0.03 3.24 0.21 4.25 0.44"></path>
<path style="fill:none; fill-opacity:0%; fill-rule:evenodd; stroke:#000000; stroke-opacity:100%; stroke-width: 3pt; stroke-linejoin:round; stroke-linecap:round;" d="M45.06 52.26c1.02 0.4 2.88 0.51 3.9 0.4c13.29-1.4 37.55-4.71 46.72-4.56c1.7 0.03 2.71 0.19 3.56 0.39"></path>
<text x="5" y="20" font-size="20" fill="#999999">6</text><path style="fill:none; fill-opacity:0%; fill-rule:evenodd; stroke:#CC0000; stroke-opacity:100%; stroke-width: 3pt; stroke-linejoin:round; stroke-linecap:round;" d="M59.38 22.98c0.87 1.02 1.62 2.35 1.62 3.92s0 4.97 0 18.31c0 13.34-0.76 37.04-16.26 48.39" marker-end="url(#TriangleRed)" marker-start="url(#ArrowRed)" ></path>


</g><g transform="scale(1.3761467889908 1.3761467889908) translate(109, 109)">
<path style="fill:none; fill-rule:evenodd; stroke:#aaaaaa;  stroke-width:1pt; stroke-linecap:round;" d="m 109 0 L 0 0 L 0 109 L 109 109 L 109 0"></path><path style="fill:none; fill-opacity:0%; fill-rule:evenodd; stroke:#aaaaaa; stroke-opacity:100%; stroke-width: 1.5pt; stroke-linejoin:round; stroke-linecap:round;" d="M27.98 16.87c0.39 1.04 1.08 2.74 0.89 4.24c-0.98 7.39-7.32 34.16-11.63 42.79c-0.89 1.77 0.4 2.46 0.89 2.63C27.5 69.75 36 76.16 41.25 83.78"></path>
<path style="fill:none; fill-opacity:0%; fill-rule:evenodd; stroke:#aaaaaa; stroke-opacity:100%; stroke-width: 1.5pt; stroke-linejoin:round; stroke-linecap:round;" d="M39.75 36.89c0.08 1.27 0.14 4.34-0.16 6.18C37.18 57.91 31 79.75 13 90"></path>
<path style="fill:none; fill-opacity:0%; fill-rule:evenodd; stroke:#aaaaaa; stroke-opacity:100%; stroke-width: 1.5pt; stroke-linejoin:round; stroke-linecap:round;" d="M8.5 47.22c0.75 0.94 1.75 1.62 3.75 1.39c2.15-0.24 21.34-4.85 30.25-7.23"></path>
<path style="fill:none; fill-opacity:0%; fill-rule:evenodd; stroke:#aaaaaa; stroke-opacity:100%; stroke-width: 1.5pt; stroke-linejoin:round; stroke-linecap:round;" d="M48.08 20.39c1.22 0.45 3.44 0.5 4.66 0.45c7.31-0.32 24.65-3.56 35.6-3.4c2.03 0.03 3.24 0.21 4.25 0.44"></path>
<path style="fill:none; fill-opacity:0%; fill-rule:evenodd; stroke:#aaaaaa; stroke-opacity:100%; stroke-width: 1.5pt; stroke-linejoin:round; stroke-linecap:round;" d="M45.06 52.26c1.02 0.4 2.88 0.51 3.9 0.4c13.29-1.4 37.55-4.71 46.72-4.56c1.7 0.03 2.71 0.19 3.56 0.39"></path>
<path style="fill:none; fill-opacity:0%; fill-rule:evenodd; stroke:#aaaaaa; stroke-opacity:100%; stroke-width: 1.5pt; stroke-linejoin:round; stroke-linecap:round;" d="M59.38 22.98c0.87 1.02 1.62 2.35 1.62 3.92s0 4.97 0 18.31c0 13.34-0.76 37.04-16.26 48.39"></path>
<path style="fill:none; fill-opacity:0%; fill-rule:evenodd; stroke:#aaaaaa; stroke-opacity:100%; stroke-width: 1.5pt; stroke-linejoin:round; stroke-linecap:round;" d="M79.16 21.14c1.08 1.05 1.9 2.09 1.9 3.14s0 69.58 0 72.72"></path>

<path style="fill:none; fill-opacity:0%; fill-rule:evenodd; stroke:#000000; stroke-opacity:100%; stroke-width: 3pt; stroke-linejoin:round; stroke-linecap:round;" d="M27.98 16.87c0.39 1.04 1.08 2.74 0.89 4.24c-0.98 7.39-7.32 34.16-11.63 42.79c-0.89 1.77 0.4 2.46 0.89 2.63C27.5 69.75 36 76.16 41.25 83.78"></path>
<path style="fill:none; fill-opacity:0%; fill-rule:evenodd; stroke:#000000; stroke-opacity:100%; stroke-width: 3pt; stroke-linejoin:round; stroke-linecap:round;" d="M39.75 36.89c0.08 1.27 0.14 4.34-0.16 6.18C37.18 57.91 31 79.75 13 90"></path>
<path style="fill:none; fill-opacity:0%; fill-rule:evenodd; stroke:#000000; stroke-opacity:100%; stroke-width: 3pt; stroke-linejoin:round; stroke-linecap:round;" d="M8.5 47.22c0.75 0.94 1.75 1.62 3.75 1.39c2.15-0.24 21.34-4.85 30.25-7.23"></path>
<path style="fill:none; fill-opacity:0%; fill-rule:evenodd; stroke:#000000; stroke-opacity:100%; stroke-width: 3pt; stroke-linejoin:round; stroke-linecap:round;" d="M48.08 20.39c1.22 0.45 3.44 0.5 4.66 0.45c7.31-0.32 24.65-3.56 35.6-3.4c2.03 0.03 3.24 0.21 4.25 0.44"></path>
<path style="fill:none; fill-opacity:0%; fill-rule:evenodd; stroke:#000000; stroke-opacity:100%; stroke-width: 3pt; stroke-linejoin:round; stroke-linecap:round;" d="M45.06 52.26c1.02 0.4 2.88 0.51 3.9 0.4c13.29-1.4 37.55-4.71 46.72-4.56c1.7 0.03 2.71 0.19 3.56 0.39"></path>
<path style="fill:none; fill-opacity:0%; fill-rule:evenodd; stroke:#000000; stroke-opacity:100%; stroke-width: 3pt; stroke-linejoin:round; stroke-linecap:round;" d="M59.38 22.98c0.87 1.02 1.62 2.35 1.62 3.92s0 4.97 0 18.31c0 13.34-0.76 37.04-16.26 48.39"></path>
<text x="5" y="20" font-size="20" fill="#999999">7</text><path style="fill:none; fill-opacity:0%; fill-rule:evenodd; stroke:#CC0000; stroke-opacity:100%; stroke-width: 3pt; stroke-linejoin:round; stroke-linecap:round;" d="M79.16 21.14c1.08 1.05 1.9 2.09 1.9 3.14s0 69.58 0 72.72" marker-end="url(#TriangleRed)" marker-start="url(#ArrowRed)" ></path>

</g>

</svg>  
          
