<?xml version="1.0" standalone="no"?>
<!DOCTYPE svg PUBLIC "-//W3C//DTD SVG 1.1//EN"   "http://www.w3.org/Graphics/SVG/1.1/DTD/svg11.dtd">
<svg width="751" height="301"  version="1.1" xmlns="http://www.w3.org/2000/svg">
  <defs>
    <marker id="Triangle" viewBox="0 0 10 10" refX="0" refY="5" markerUnits="strokeWidth" markerWidth="3" style="stroke-opacity:0%;fill:#aaaaaa;" markerHeight="2" orient="auto">
      <path d="M 0 0 L 10 5 L 0 10 z" />
    </marker>
    
    <marker id="Arrow" viewBox="0 0 10 10" refX="5" refY="5" markerUnits="strokeWidth" markerWidth="1.8" style="stroke-opacity:0%;fill:#770000;" markerHeight="2" orient="auto">
      <path d="M 0 4 L 6 4 L 4 1 L 10 5 L 4 9 L 6 6 L 0 6 z" />
        <circle cx="5" cy="5" r="5" />
      </marker>
    
    <marker id="TriangleRed" viewBox="0 0 10 10" refX="0" refY="5" markerUnits="strokeWidth" markerWidth="3" style="stroke-opacity:0%;fill:#CC0000;" markerHeight="2" orient="auto">
      <path d="M 0 0 L 10 5 L 0 10 z" />
    </marker>
    
    <marker id="ArrowRed" viewBox="0 0 10 10" refX="5" refY="5" markerUnits="strokeWidth" markerWidth="1.8" style="stroke-opacity:0%;fill:#CC0000;" markerHeight="2" orient="auto">
      <path d="M 0 4 L 6 4 L 4 1 L 10 5 L 4 9 L 6 6 L 0 6 z" />
        <circle cx="5" cy="5" r="5" />
      </marker>
    
  </defs>
  
  <path style="fill:#ffffff; fill-opacity:100%; fill-rule:evenodd; stroke-width:0;" d="M 0 0 L 751 0 L 751 301 L 0 301 L 0 0" />

  <g transform="scale(1.3761467889908 1.3761467889908) translate(0, 0)">
<path style="fill:none; fill-rule:evenodd; stroke:#aaaaaa;  stroke-width:1pt; stroke-linecap:round;" d="m 109 0 L 0 0 L 0 109 L 109 109 L 109 0"></path><path style="fill:none; fill-opacity:0%; fill-rule:evenodd; stroke:#aaaaaa; stroke-opacity:100%; stroke-width: 1.5pt; stroke-linejoin:round; stroke-linecap:round;" d="M52.73 9.5c1.01 1.01 1.75 2.25 1.75 3.76c0 3.53-0.09 5.73-0.1 8.95"></path>
<path style="fill:none; fill-opacity:0%; fill-rule:evenodd; stroke:#aaaaaa; stroke-opacity:100%; stroke-width: 1.5pt; stroke-linejoin:round; stroke-linecap:round;" d="M21.88 24c0 3.37-4.06 14.25-5.62 16.5"></path>
<path style="fill:none; fill-opacity:0%; fill-rule:evenodd; stroke:#aaaaaa; stroke-opacity:100%; stroke-width: 1.5pt; stroke-linejoin:round; stroke-linecap:round;" d="M24.07 26.66c16.68-1.91 42.18-5.28 63-5.78c10.95-0.26 4.68 5.37 0.52 8.4"></path>
<path style="fill:none; fill-opacity:0%; fill-rule:evenodd; stroke:#aaaaaa; stroke-opacity:100%; stroke-width: 1.5pt; stroke-linejoin:round; stroke-linecap:round;" d="M34.91 36.19c2.09 1.06 4.35 1.5 6.87 1.26c4.73-0.45 19.99-2.86 26.18-4.24c3.17-0.71 4.92 0.67 2.1 3.7c-2.15 2.31-9.34 9.46-14.25 12.73"></path>
<path style="fill:none; fill-opacity:0%; fill-rule:evenodd; stroke:#aaaaaa; stroke-opacity:100%; stroke-width: 1.5pt; stroke-linejoin:round; stroke-linecap:round;" d="M52.71 51.03c5.42 5.22 9.29 26.84 3.67 43.18c-2.57 7.47-8.5 2.78-10.58 0.81"></path>
<path style="fill:none; fill-opacity:0%; fill-rule:evenodd; stroke:#aaaaaa; stroke-opacity:100%; stroke-width: 1.5pt; stroke-linejoin:round; stroke-linecap:round;" d="M14.38 63.51c3.88 1.24 8.65 0.84 12.38 0.47c15.18-1.5 43-4.92 59.75-5.41c3.45-0.1 7.13-0.23 10.37 1.15"></path>

<text x="5" y="20" font-size="20" fill="#999999">1</text><path style="fill:none; fill-opacity:0%; fill-rule:evenodd; stroke:#CC0000; stroke-opacity:100%; stroke-width: 3pt; stroke-linejoin:round; stroke-linecap:round;" d="M52.73 9.5c1.01 1.01 1.75 2.25 1.75 3.76c0 3.53-0.09 5.73-0.1 8.95" marker-end="url(#TriangleRed)" marker-start="url(#ArrowRed)" ></path>






</g><g transform="scale(1.3761467889908 1.3761467889908) translate(109, 0)">
<path style="fill:none; fill-rule:evenodd; stroke:#aaaaaa;  stroke-width:1pt; stroke-linecap:round;" d="m 109 0 L 0 0 L 0 109 L 109 109 L 109 0"></path><path style="fill:none; fill-opacity:0%; fill-rule:evenodd; stroke:#aaaaaa; stroke-opacity:100%; stroke-width: 1.5pt; stroke-linejoin:round; stroke-linecap:round;" d="M52.73 9.5c1.01 1.01 1.75 2.25 1.75 3.76c0 3.53-0.09 5.73-0.1 8.95"></path>
<path style="fill:none; fill-opacity:0%; fill-rule:evenodd; stroke:#aaaaaa; stroke-opacity:100%; stroke-width: 1.5pt; stroke-linejoin:round; stroke-linecap:round;" d="M21.88 24c0 3.37-4.06 14.25-5.62 16.5"></path>
<path style="fill:none; fill-opacity:0%; fill-rule:evenodd; stroke:#aaaaaa; stroke-opacity:100%; stroke-width: 1.5pt; stroke-linejoin:round; stroke-linecap:round;" d="M24.07 26.66c16.68-1.91 42.18-5.28 63-5.78c10.95-0.26 4.68 5.37 0.52 8.4"></path>
<path style="fill:none; fill-opacity:0%; fill-rule:evenodd; stroke:#aaaaaa; stroke-opacity:100%; stroke-width: 1.5pt; stroke-linejoin:round; stroke-linecap:round;" d="M34.91 36.19c2.09 1.06 4.35 1.5 6.87 1.26c4.73-0.45 19.99-2.86 26.18-4.24c3.17-0.71 4.92 0.67 2.1 3.7c-2.15 2.31-9.34 9.46-14.25 12.73"></path>
<path style="fill:none; fill-opacity:0%; fill-rule:evenodd; stroke:#aaaaaa; stroke-opacity:100%; stroke-width: 1.5pt; stroke-linejoin:round; stroke-linecap:round;" d="M52.71 51.03c5.42 5.22 9.29 26.84 3.67 43.18c-2.57 7.47-8.5 2.78-10.58 0.81"></path>
<path style="fill:none; fill-opacity:0%; fill-rule:evenodd; stroke:#aaaaaa; stroke-opacity:100%; stroke-width: 1.5pt; stroke-linejoin:round; stroke-linecap:round;" d="M14.38 63.51c3.88 1.24 8.65 0.84 12.38 0.47c15.18-1.5 43-4.92 59.75-5.41c3.45-0.1 7.13-0.23 10.37 1.15"></path>

<path style="fill:none; fill-opacity:0%; fill-rule:evenodd; stroke:#000000; stroke-opacity:100%; stroke-width: 3pt; stroke-linejoin:round; stroke-linecap:round;" d="M52.73 9.5c1.01 1.01 1.75 2.25 1.75 3.76c0 3.53-0.09 5.73-0.1 8.95"></path>
<text x="5" y="20" font-size="20" fill="#999999">2</text><path style="fill:none; fill-opacity:0%; fill-rule:evenodd; stroke:#CC0000; stroke-opacity:100%; stroke-width: 3pt; stroke-linejoin:round; stroke-linecap:round;" d="M21.88 24c0 3.37-4.06 14.25-5.62 16.5" marker-end="url(#TriangleRed)" marker-start="url(#ArrowRed)" ></path>





</g><g transform="scale(1.3761467889908 1.3761467889908) translate(218, 0)">
<path style="fill:none; fill-rule:evenodd; stroke:#aaaaaa;  stroke-width:1pt; stroke-linecap:round;" d="m 109 0 L 0 0 L 0 109 L 109 109 L 109 0"></path><path style="fill:none; fill-opacity:0%; fill-rule:evenodd; stroke:#aaaaaa; stroke-opacity:100%; stroke-width: 1.5pt; stroke-linejoin:round; stroke-linecap:round;" d="M52.73 9.5c1.01 1.01 1.75 2.25 1.75 3.76c0 3.53-0.09 5.73-0.1 8.95"></path>
<path style="fill:none; fill-opacity:0%; fill-rule:evenodd; stroke:#aaaaaa; stroke-opacity:100%; stroke-width: 1.5pt; stroke-linejoin:round; stroke-linecap:round;" d="M21.88 24c0 3.37-4.06 14.25-5.62 16.5"></path>
<path style="fill:none; fill-opacity:0%; fill-rule:evenodd; stroke:#aaaaaa; stroke-opacity:100%; stroke-width: 1.5pt; stroke-linejoin:round; stroke-linecap:round;" d="M24.07 26.66c16.68-1.91 42.18-5.28 63-5.78c10.95-0.26 4.68 5.37 0.52 8.4"></path>
<path style="fill:none; fill-opacity:0%; fill-rule:evenodd; stroke:#aaaaaa; stroke-opacity:100%; stroke-width: 1.5pt; stroke-linejoin:round; stroke-linecap:round;" d="M34.91 36.19c2.09 1.06 4.35 1.5 6.87 1.26c4.73-0.45 19.99-2.86 26.18-4.24c3.17-0.71 4.92 0.67 2.1 3.7c-2.15 2.31-9.34 9.46-14.25 12.73"></path>
<path style="fill:none; fill-opacity:0%; fill-rule:evenodd; stroke:#aaaaaa; stroke-opacity:100%; stroke-width: 1.5pt; stroke-linejoin:round; stroke-linecap:round;" d="M52.71 51.03c5.42 5.22 9.29 26.84 3.67 43.18c-2.57 7.47-8.5 2.78-10.58 0.81"></path>
<path style="fill:none; fill-opacity:0%; fill-rule:evenodd; stroke:#aaaaaa; stroke-opacity:100%; stroke-width: 1.5pt; stroke-linejoin:round; stroke-linecap:round;" d="M14.38 63.51c3.88 1.24 8.65 0.84 12.38 0.47c15.18-1.5 43-4.92 59.75-5.41c3.45-0.1 7.13-0.23 10.37 1.15"></path>

<path style="fill:none; fill-opacity:0%; fill-rule:evenodd; stroke:#000000; stroke-opacity:100%; stroke-width: 3pt; stroke-linejoin:round; stroke-linecap:round;" d="M52.73 9.5c1.01 1.01 1.75 2.25 1.75 3.76c0 3.53-0.09 5.73-0.1 8.95"></path>
<path style="fill:none; fill-opacity:0%; fill-rule:evenodd; stroke:#000000; stroke-opacity:100%; stroke-width: 3pt; stroke-linejoin:round; stroke-linecap:round;" d="M21.88 24c0 3.37-4.06 14.25-5.62 16.5"></path>
<text x="5" y="20" font-size="20" fill="#999999">3</text><path style="fill:none; fill-opacity:0%; fill-rule:evenodd; stroke:#CC0000; stroke-opacity:100%; stroke-width: 3pt; stroke-linejoin:round; stroke-linecap:round;" d="M24.07 26.66c16.68-1.91 42.18-5.28 63-5.78c10.95-0.26 4.68 5.37 0.52 8.4" marker-end="url(#TriangleRed)" marker-start="url(#ArrowRed)" ></path>




</g><g transform="scale(1.3761467889908 1.3761467889908) translate(327, 0)">
<path style="fill:none; fill-rule:evenodd; stroke:#aaaaaa;  stroke-width:1pt; stroke-linecap:round;" d="m 109 0 L 0 0 L 0 109 L 109 109 L 109 0"></path><path style="fill:none; fill-opacity:0%; fill-rule:evenodd; stroke:#aaaaaa; stroke-opacity:100%; stroke-width: 1.5pt; stroke-linejoin:round; stroke-linecap:round;" d="M52.73 9.5c1.01 1.01 1.75 2.25 1.75 3.76c0 3.53-0.09 5.73-0.1 8.95"></path>
<path style="fill:none; fill-opacity:0%; fill-rule:evenodd; stroke:#aaaaaa; stroke-opacity:100%; stroke-width: 1.5pt; stroke-linejoin:round; stroke-linecap:round;" d="M21.88 24c0 3.37-4.06 14.25-5.62 16.5"></path>
<path style="fill:none; fill-opacity:0%; fill-rule:evenodd; stroke:#aaaaaa; stroke-opacity:100%; stroke-width: 1.5pt; stroke-linejoin:round; stroke-linecap:round;" d="M24.07 26.66c16.68-1.91 42.18-5.28 63-5.78c10.95-0.26 4.68 5.37 0.52 8.4"></path>
<path style="fill:none; fill-opacity:0%; fill-rule:evenodd; stroke:#aaaaaa; stroke-opacity:100%; stroke-width: 1.5pt; stroke-linejoin:round; stroke-linecap:round;" d="M34.91 36.19c2.09 1.06 4.35 1.5 6.87 1.26c4.73-0.45 19.99-2.86 26.18-4.24c3.17-0.71 4.92 0.67 2.1 3.7c-2.15 2.31-9.34 9.46-14.25 12.73"></path>
<path style="fill:none; fill-opacity:0%; fill-rule:evenodd; stroke:#aaaaaa; stroke-opacity:100%; stroke-width: 1.5pt; stroke-linejoin:round; stroke-linecap:round;" d="M52.71 51.03c5.42 5.22 9.29 26.84 3.67 43.18c-2.57 7.47-8.5 2.78-10.58 0.81"></path>
<path style="fill:none; fill-opacity:0%; fill-rule:evenodd; stroke:#aaaaaa; stroke-opacity:100%; stroke-width: 1.5pt; stroke-linejoin:round; stroke-linecap:round;" d="M14.38 63.51c3.88 1.24 8.65 0.84 12.38 0.47c15.18-1.5 43-4.92 59.75-5.41c3.45-0.1 7.13-0.23 10.37 1.15"></path>

<path style="fill:none; fill-opacity:0%; fill-rule:evenodd; stroke:#000000; stroke-opacity:100%; stroke-width: 3pt; stroke-linejoin:round; stroke-linecap:round;" d="M52.73 9.5c1.01 1.01 1.75 2.25 1.75 3.76c0 3.53-0.09 5.73-0.1 8.95"></path>
<path style="fill:none; fill-opacity:0%; fill-rule:evenodd; stroke:#000000; stroke-opacity:100%; stroke-width: 3pt; stroke-linejoin:round; stroke-linecap:round;" d="M21.88 24c0 3.37-4.06 14.25-5.62 16.5"></path>
<path style="fill:none; fill-opacity:0%; fill-rule:evenodd; stroke:#000000; stroke-opacity:100%; stroke-width: 3pt; stroke-linejoin:round; stroke-linecap:round;" d="M24.07 26.66c16.68-1.91 42.18-5.28 63-5.78c10.95-0.26 4.68 5.37 0.52 8.4"></path>
<text x="5" y="20" font-size="20" fill="#999999">4</text><path style="fill:none; fill-opacity:0%; fill-rule:evenodd; stroke:#CC0000; stroke-opacity:100%; stroke-width: 3pt; stroke-linejoin:round; stroke-linecap:round;" d="M34.91 36.19c2.09 1.06 4.35 1.5 6.87 1.26c4.73-0.45 19.99-2.86 26.18-4.24c3.17-0.71 4.92 0.67 2.1 3.7c-2.15 2.31-9.34 9.46-14.25 12.73" marker-end="url(#TriangleRed)" marker-start="url(#ArrowRed)" ></path>



</g><g transform="scale(1.3761467889908 1.3761467889908) translate(436, 0)">
<path style="fill:none; fill-rule:evenodd; stroke:#aaaaaa;  stroke-width:1pt; stroke-linecap:round;" d="m 109 0 L 0 0 L 0 109 L 109 109 L 109 0"></path><path style="fill:none; fill-opacity:0%; fill-rule:evenodd; stroke:#aaaaaa; stroke-opacity:100%; stroke-width: 1.5pt; stroke-linejoin:round; stroke-linecap:round;" d="M52.73 9.5c1.01 1.01 1.75 2.25 1.75 3.76c0 3.53-0.09 5.73-0.1 8.95"></path>
<path style="fill:none; fill-opacity:0%; fill-rule:evenodd; stroke:#aaaaaa; stroke-opacity:100%; stroke-width: 1.5pt; stroke-linejoin:round; stroke-linecap:round;" d="M21.88 24c0 3.37-4.06 14.25-5.62 16.5"></path>
<path style="fill:none; fill-opacity:0%; fill-rule:evenodd; stroke:#aaaaaa; stroke-opacity:100%; stroke-width: 1.5pt; stroke-linejoin:round; stroke-linecap:round;" d="M24.07 26.66c16.68-1.91 42.18-5.28 63-5.78c10.95-0.26 4.68 5.37 0.52 8.4"></path>
<path style="fill:none; fill-opacity:0%; fill-rule:evenodd; stroke:#aaaaaa; stroke-opacity:100%; stroke-width: 1.5pt; stroke-linejoin:round; stroke-linecap:round;" d="M34.91 36.19c2.09 1.06 4.35 1.5 6.87 1.26c4.73-0.45 19.99-2.86 26.18-4.24c3.17-0.71 4.92 0.67 2.1 3.7c-2.15 2.31-9.34 9.46-14.25 12.73"></path>
<path style="fill:none; fill-opacity:0%; fill-rule:evenodd; stroke:#aaaaaa; stroke-opacity:100%; stroke-width: 1.5pt; stroke-linejoin:round; stroke-linecap:round;" d="M52.71 51.03c5.42 5.22 9.29 26.84 3.67 43.18c-2.57 7.47-8.5 2.78-10.58 0.81"></path>
<path style="fill:none; fill-opacity:0%; fill-rule:evenodd; stroke:#aaaaaa; stroke-opacity:100%; stroke-width: 1.5pt; stroke-linejoin:round; stroke-linecap:round;" d="M14.38 63.51c3.88 1.24 8.65 0.84 12.38 0.47c15.18-1.5 43-4.92 59.75-5.41c3.45-0.1 7.13-0.23 10.37 1.15"></path>

<path style="fill:none; fill-opacity:0%; fill-rule:evenodd; stroke:#000000; stroke-opacity:100%; stroke-width: 3pt; stroke-linejoin:round; stroke-linecap:round;" d="M52.73 9.5c1.01 1.01 1.75 2.25 1.75 3.76c0 3.53-0.09 5.73-0.1 8.95"></path>
<path style="fill:none; fill-opacity:0%; fill-rule:evenodd; stroke:#000000; stroke-opacity:100%; stroke-width: 3pt; stroke-linejoin:round; stroke-linecap:round;" d="M21.88 24c0 3.37-4.06 14.25-5.62 16.5"></path>
<path style="fill:none; fill-opacity:0%; fill-rule:evenodd; stroke:#000000; stroke-opacity:100%; stroke-width: 3pt; stroke-linejoin:round; stroke-linecap:round;" d="M24.07 26.66c16.68-1.91 42.18-5.28 63-5.78c10.95-0.26 4.68 5.37 0.52 8.4"></path>
<path style="fill:none; fill-opacity:0%; fill-rule:evenodd; stroke:#000000; stroke-opacity:100%; stroke-width: 3pt; stroke-linejoin:round; stroke-linecap:round;" d="M34.91 36.19c2.09 1.06 4.35 1.5 6.87 1.26c4.73-0.45 19.99-2.86 26.18-4.24c3.17-0.71 4.92 0.67 2.1 3.7c-2.15 2.31-9.34 9.46-14.25 12.73"></path>
<text x="5" y="20" font-size="20" fill="#999999">5</text><path style="fill:none; fill-opacity:0%; fill-rule:evenodd; stroke:#CC0000; stroke-opacity:100%; stroke-width: 3pt; stroke-linejoin:round; stroke-linecap:round;" d="M52.71 51.03c5.42 5.22 9.29 26.84 3.67 43.18c-2.57 7.47-8.5 2.78-10.58 0.81" marker-end="url(#TriangleRed)" marker-start="url(#ArrowRed)" ></path>


</g><g transform="scale(1.3761467889908 1.3761467889908) translate(0, 109)">
<path style="fill:none; fill-rule:evenodd; stroke:#aaaaaa;  stroke-width:1pt; stroke-linecap:round;" d="m 109 0 L 0 0 L 0 109 L 109 109 L 109 0"></path><path style="fill:none; fill-opacity:0%; fill-rule:evenodd; stroke:#aaaaaa; stroke-opacity:100%; stroke-width: 1.5pt; stroke-linejoin:round; stroke-linecap:round;" d="M52.73 9.5c1.01 1.01 1.75 2.25 1.75 3.76c0 3.53-0.09 5.73-0.1 8.95"></path>
<path style="fill:none; fill-opacity:0%; fill-rule:evenodd; stroke:#aaaaaa; stroke-opacity:100%; stroke-width: 1.5pt; stroke-linejoin:round; stroke-linecap:round;" d="M21.88 24c0 3.37-4.06 14.25-5.62 16.5"></path>
<path style="fill:none; fill-opacity:0%; fill-rule:evenodd; stroke:#aaaaaa; stroke-opacity:100%; stroke-width: 1.5pt; stroke-linejoin:round; stroke-linecap:round;" d="M24.07 26.66c16.68-1.91 42.18-5.28 63-5.78c10.95-0.26 4.68 5.37 0.52 8.4"></path>
<path style="fill:none; fill-opacity:0%; fill-rule:evenodd; stroke:#aaaaaa; stroke-opacity:100%; stroke-width: 1.5pt; stroke-linejoin:round; stroke-linecap:round;" d="M34.91 36.19c2.09 1.06 4.35 1.5 6.87 1.26c4.73-0.45 19.99-2.86 26.18-4.24c3.17-0.71 4.92 0.67 2.1 3.7c-2.15 2.31-9.34 9.46-14.25 12.73"></path>
<path style="fill:none; fill-opacity:0%; fill-rule:evenodd; stroke:#aaaaaa; stroke-opacity:100%; stroke-width: 1.5pt; stroke-linejoin:round; stroke-linecap:round;" d="M52.71 51.03c5.42 5.22 9.29 26.84 3.67 43.18c-2.57 7.47-8.5 2.78-10.58 0.81"></path>
<path style="fill:none; fill-opacity:0%; fill-rule:evenodd; stroke:#aaaaaa; stroke-opacity:100%; stroke-width: 1.5pt; stroke-linejoin:round; stroke-linecap:round;" d="M14.38 63.51c3.88 1.24 8.65 0.84 12.38 0.47c15.18-1.5 43-4.92 59.75-5.41c3.45-0.1 7.13-0.23 10.37 1.15"></path>

<path style="fill:none; fill-opacity:0%; fill-rule:evenodd; stroke:#000000; stroke-opacity:100%; stroke-width: 3pt; stroke-linejoin:round; stroke-linecap:round;" d="M52.73 9.5c1.01 1.01 1.75 2.25 1.75 3.76c0 3.53-0.09 5.73-0.1 8.95"></path>
<path style="fill:none; fill-opacity:0%; fill-rule:evenodd; stroke:#000000; stroke-opacity:100%; stroke-width: 3pt; stroke-linejoin:round; stroke-linecap:round;" d="M21.88 24c0 3.37-4.06 14.25-5.62 16.5"></path>
<path style="fill:none; fill-opacity:0%; fill-rule:evenodd; stroke:#000000; stroke-opacity:100%; stroke-width: 3pt; stroke-linejoin:round; stroke-linecap:round;" d="M24.07 26.66c16.68-1.91 42.18-5.28 63-5.78c10.95-0.26 4.68 5.37 0.52 8.4"></path>
<path style="fill:none; fill-opacity:0%; fill-rule:evenodd; stroke:#000000; stroke-opacity:100%; stroke-width: 3pt; stroke-linejoin:round; stroke-linecap:round;" d="M34.91 36.19c2.09 1.06 4.35 1.5 6.87 1.26c4.73-0.45 19.99-2.86 26.18-4.24c3.17-0.71 4.92 0.67 2.1 3.7c-2.15 2.31-9.34 9.46-14.25 12.73"></path>
<path style="fill:none; fill-opacity:0%; fill-rule:evenodd; stroke:#000000; stroke-opacity:100%; stroke-width: 3pt; stroke-linejoin:round; stroke-linecap:round;" d="M52.71 51.03c5.42 5.22 9.29 26.84 3.67 43.18c-2.57 7.47-8.5 2.78-10.58 0.81"></path>
<text x="5" y="20" font-size="20" fill="#999999">6</text><path style="fill:none; fill-opacity:0%; fill-rule:evenodd; stroke:#CC0000; stroke-opacity:100%; stroke-width: 3pt; stroke-linejoin:round; stroke-linecap:round;" d="M14.38 63.51c3.88 1.24 8.65 0.84 12.38 0.47c15.18-1.5 43-4.92 59.75-5.41c3.45-0.1 7.13-0.23 10.37 1.15" marker-end="url(#TriangleRed)" marker-start="url(#ArrowRed)" ></path>

</g>

</svg>  
          
