<?xml version="1.0" standalone="no"?>
<!DOCTYPE svg PUBLIC "-//W3C//DTD SVG 1.1//EN"   "http://www.w3.org/Graphics/SVG/1.1/DTD/svg11.dtd">
<svg width="751" height="151"  version="1.1" xmlns="http://www.w3.org/2000/svg">
  <defs>
    <marker id="Triangle" viewBox="0 0 10 10" refX="0" refY="5" markerUnits="strokeWidth" markerWidth="3" style="stroke-opacity:0%;fill:#aaaaaa;" markerHeight="2" orient="auto">
      <path d="M 0 0 L 10 5 L 0 10 z" />
    </marker>
    
    <marker id="Arrow" viewBox="0 0 10 10" refX="5" refY="5" markerUnits="strokeWidth" markerWidth="1.8" style="stroke-opacity:0%;fill:#770000;" markerHeight="2" orient="auto">
      <path d="M 0 4 L 6 4 L 4 1 L 10 5 L 4 9 L 6 6 L 0 6 z" />
        <circle cx="5" cy="5" r="5" />
      </marker>
    
    <marker id="TriangleRed" viewBox="0 0 10 10" refX="0" refY="5" markerUnits="strokeWidth" markerWidth="3" style="stroke-opacity:0%;fill:#CC0000;" markerHeight="2" orient="auto">
      <path d="M 0 0 L 10 5 L 0 10 z" />
    </marker>
    
    <marker id="ArrowRed" viewBox="0 0 10 10" refX="5" refY="5" markerUnits="strokeWidth" markerWidth="1.8" style="stroke-opacity:0%;fill:#CC0000;" markerHeight="2" orient="auto">
      <path d="M 0 4 L 6 4 L 4 1 L 10 5 L 4 9 L 6 6 L 0 6 z" />
        <circle cx="5" cy="5" r="5" />
      </marker>
    
  </defs>
  
  <path style="fill:#ffffff; fill-opacity:100%; fill-rule:evenodd; stroke-width:0;" d="M 0 0 L 751 0 L 751 151 L 0 151 L 0 0" />

  <g transform="scale(1.3761467889908 1.3761467889908) translate(0, 0)">
<path style="fill:none; fill-rule:evenodd; stroke:#aaaaaa;  stroke-width:1pt; stroke-linecap:round;" d="m 109 0 L 0 0 L 0 109 L 109 109 L 109 0"></path><path style="fill:none; fill-opacity:0%; fill-rule:evenodd; stroke:#aaaaaa; stroke-opacity:100%; stroke-width: 1.5pt; stroke-linejoin:round; stroke-linecap:round;" d="M44.76 18.23c0.51 0.78 0.3 2.57-0.24 3.77c-4.77 10.5-10.27 21.5-29.14 33.66"></path>
<path style="fill:none; fill-opacity:0%; fill-rule:evenodd; stroke:#aaaaaa; stroke-opacity:100%; stroke-width: 1.5pt; stroke-linejoin:round; stroke-linecap:round;" d="M28.99 15.95c1.41 0.5 3.42 0.6 4.82 0.5c10.86-0.83 27.53-3.31 37.98-4.47c2.62-0.29 3.92 1.15 3.02 2.48c-2.81 4.13-6.14 12.06-8.95 16.35c-0.56 0.85-0.2 2.33 1.41 1.98c4.62-0.99 14.24-2.37 18.57-3.48c3."></path>
<path style="fill:none; fill-opacity:0%; fill-rule:evenodd; stroke:#aaaaaa; stroke-opacity:100%; stroke-width: 1.5pt; stroke-linejoin:round; stroke-linecap:round;" d="M35.07 45.34c1.02 0.24 2.96 0.63 4.5 0.42C41.46 45.5 66.81 42 68.6 42c1.79 0 3.24 1.24 1.44 2.71c-1.79 1.47-12 9.72-16.54 12.39"></path>
<path style="fill:none; fill-opacity:0%; fill-rule:evenodd; stroke:#aaaaaa; stroke-opacity:100%; stroke-width: 1.5pt; stroke-linejoin:round; stroke-linecap:round;" d="M50.86 57.79c6.08 2.05 13.14 21.17 6.97 36.23c-2.65 6.46-6.82 4.23-9.93 0.68"></path>
<path style="fill:none; fill-opacity:0%; fill-rule:evenodd; stroke:#aaaaaa; stroke-opacity:100%; stroke-width: 1.5pt; stroke-linejoin:round; stroke-linecap:round;" d="M20.58 69.89c1.2 0.72 4.32 0.97 6.48 0.79c7.57-0.63 50.93-5.83 60.09-5.2c2.16 0.15 4.08 0.24 5.52 0.96"></path>

<text x="5" y="20" font-size="20" fill="#999999">1</text><path style="fill:none; fill-opacity:0%; fill-rule:evenodd; stroke:#CC0000; stroke-opacity:100%; stroke-width: 3pt; stroke-linejoin:round; stroke-linecap:round;" d="M44.76 18.23c0.51 0.78 0.3 2.57-0.24 3.77c-4.77 10.5-10.27 21.5-29.14 33.66" marker-end="url(#TriangleRed)" marker-start="url(#ArrowRed)" ></path>





</g><g transform="scale(1.3761467889908 1.3761467889908) translate(109, 0)">
<path style="fill:none; fill-rule:evenodd; stroke:#aaaaaa;  stroke-width:1pt; stroke-linecap:round;" d="m 109 0 L 0 0 L 0 109 L 109 109 L 109 0"></path><path style="fill:none; fill-opacity:0%; fill-rule:evenodd; stroke:#aaaaaa; stroke-opacity:100%; stroke-width: 1.5pt; stroke-linejoin:round; stroke-linecap:round;" d="M44.76 18.23c0.51 0.78 0.3 2.57-0.24 3.77c-4.77 10.5-10.27 21.5-29.14 33.66"></path>
<path style="fill:none; fill-opacity:0%; fill-rule:evenodd; stroke:#aaaaaa; stroke-opacity:100%; stroke-width: 1.5pt; stroke-linejoin:round; stroke-linecap:round;" d="M28.99 15.95c1.41 0.5 3.42 0.6 4.82 0.5c10.86-0.83 27.53-3.31 37.98-4.47c2.62-0.29 3.92 1.15 3.02 2.48c-2.81 4.13-6.14 12.06-8.95 16.35c-0.56 0.85-0.2 2.33 1.41 1.98c4.62-0.99 14.24-2.37 18.57-3.48c3."></path>
<path style="fill:none; fill-opacity:0%; fill-rule:evenodd; stroke:#aaaaaa; stroke-opacity:100%; stroke-width: 1.5pt; stroke-linejoin:round; stroke-linecap:round;" d="M35.07 45.34c1.02 0.24 2.96 0.63 4.5 0.42C41.46 45.5 66.81 42 68.6 42c1.79 0 3.24 1.24 1.44 2.71c-1.79 1.47-12 9.72-16.54 12.39"></path>
<path style="fill:none; fill-opacity:0%; fill-rule:evenodd; stroke:#aaaaaa; stroke-opacity:100%; stroke-width: 1.5pt; stroke-linejoin:round; stroke-linecap:round;" d="M50.86 57.79c6.08 2.05 13.14 21.17 6.97 36.23c-2.65 6.46-6.82 4.23-9.93 0.68"></path>
<path style="fill:none; fill-opacity:0%; fill-rule:evenodd; stroke:#aaaaaa; stroke-opacity:100%; stroke-width: 1.5pt; stroke-linejoin:round; stroke-linecap:round;" d="M20.58 69.89c1.2 0.72 4.32 0.97 6.48 0.79c7.57-0.63 50.93-5.83 60.09-5.2c2.16 0.15 4.08 0.24 5.52 0.96"></path>

<path style="fill:none; fill-opacity:0%; fill-rule:evenodd; stroke:#000000; stroke-opacity:100%; stroke-width: 3pt; stroke-linejoin:round; stroke-linecap:round;" d="M44.76 18.23c0.51 0.78 0.3 2.57-0.24 3.77c-4.77 10.5-10.27 21.5-29.14 33.66"></path>
<text x="5" y="20" font-size="20" fill="#999999">2</text><path style="fill:none; fill-opacity:0%; fill-rule:evenodd; stroke:#CC0000; stroke-opacity:100%; stroke-width: 3pt; stroke-linejoin:round; stroke-linecap:round;" d="M28.99 15.95c1.41 0.5 3.42 0.6 4.82 0.5c10.86-0.83 27.53-3.31 37.98-4.47c2.62-0.29 3.92 1.15 3.02 2.48c-2.81 4.13-6.14 12.06-8.95 16.35c-0.56 0.85-0.2 2.33 1.41 1.98c4.62-0.99 14.24-2.37 18.57-3.48c3." marker-end="url(#TriangleRed)" marker-start="url(#ArrowRed)" ></path>




</g><g transform="scale(1.3761467889908 1.3761467889908) translate(218, 0)">
<path style="fill:none; fill-rule:evenodd; stroke:#aaaaaa;  stroke-width:1pt; stroke-linecap:round;" d="m 109 0 L 0 0 L 0 109 L 109 109 L 109 0"></path><path style="fill:none; fill-opacity:0%; fill-rule:evenodd; stroke:#aaaaaa; stroke-opacity:100%; stroke-width: 1.5pt; stroke-linejoin:round; stroke-linecap:round;" d="M44.76 18.23c0.51 0.78 0.3 2.57-0.24 3.77c-4.77 10.5-10.27 21.5-29.14 33.66"></path>
<path style="fill:none; fill-opacity:0%; fill-rule:evenodd; stroke:#aaaaaa; stroke-opacity:100%; stroke-width: 1.5pt; stroke-linejoin:round; stroke-linecap:round;" d="M28.99 15.95c1.41 0.5 3.42 0.6 4.82 0.5c10.86-0.83 27.53-3.31 37.98-4.47c2.62-0.29 3.92 1.15 3.02 2.48c-2.81 4.13-6.14 12.06-8.95 16.35c-0.56 0.85-0.2 2.33 1.41 1.98c4.62-0.99 14.24-2.37 18.57-3.48c3."></path>
<path style="fill:none; fill-opacity:0%; fill-rule:evenodd; stroke:#aaaaaa; stroke-opacity:100%; stroke-width: 1.5pt; stroke-linejoin:round; stroke-linecap:round;" d="M35.07 45.34c1.02 0.24 2.96 0.63 4.5 0.42C41.46 45.5 66.81 42 68.6 42c1.79 0 3.24 1.24 1.44 2.71c-1.79 1.47-12 9.72-16.54 12.39"></path>
<path style="fill:none; fill-opacity:0%; fill-rule:evenodd; stroke:#aaaaaa; stroke-opacity:100%; stroke-width: 1.5pt; stroke-linejoin:round; stroke-linecap:round;" d="M50.86 57.79c6.08 2.05 13.14 21.17 6.97 36.23c-2.65 6.46-6.82 4.23-9.93 0.68"></path>
<path style="fill:none; fill-opacity:0%; fill-rule:evenodd; stroke:#aaaaaa; stroke-opacity:100%; stroke-width: 1.5pt; stroke-linejoin:round; stroke-linecap:round;" d="M20.58 69.89c1.2 0.72 4.32 0.97 6.48 0.79c7.57-0.63 50.93-5.83 60.09-5.2c2.16 0.15 4.08 0.24 5.52 0.96"></path>

<path style="fill:none; fill-opacity:0%; fill-rule:evenodd; stroke:#000000; stroke-opacity:100%; stroke-width: 3pt; stroke-linejoin:round; stroke-linecap:round;" d="M44.76 18.23c0.51 0.78 0.3 2.57-0.24 3.77c-4.77 10.5-10.27 21.5-29.14 33.66"></path>
<path style="fill:none; fill-opacity:0%; fill-rule:evenodd; stroke:#000000; stroke-opacity:100%; stroke-width: 3pt; stroke-linejoin:round; stroke-linecap:round;" d="M28.99 15.95c1.41 0.5 3.42 0.6 4.82 0.5c10.86-0.83 27.53-3.31 37.98-4.47c2.62-0.29 3.92 1.15 3.02 2.48c-2.81 4.13-6.14 12.06-8.95 16.35c-0.56 0.85-0.2 2.33 1.41 1.98c4.62-0.99 14.24-2.37 18.57-3.48c3."></path>
<text x="5" y="20" font-size="20" fill="#999999">3</text><path style="fill:none; fill-opacity:0%; fill-rule:evenodd; stroke:#CC0000; stroke-opacity:100%; stroke-width: 3pt; stroke-linejoin:round; stroke-linecap:round;" d="M35.07 45.34c1.02 0.24 2.96 0.63 4.5 0.42C41.46 45.5 66.81 42 68.6 42c1.79 0 3.24 1.24 1.44 2.71c-1.79 1.47-12 9.72-16.54 12.39" marker-end="url(#TriangleRed)" marker-start="url(#ArrowRed)" ></path>



</g><g transform="scale(1.3761467889908 1.3761467889908) translate(327, 0)">
<path style="fill:none; fill-rule:evenodd; stroke:#aaaaaa;  stroke-width:1pt; stroke-linecap:round;" d="m 109 0 L 0 0 L 0 109 L 109 109 L 109 0"></path><path style="fill:none; fill-opacity:0%; fill-rule:evenodd; stroke:#aaaaaa; stroke-opacity:100%; stroke-width: 1.5pt; stroke-linejoin:round; stroke-linecap:round;" d="M44.76 18.23c0.51 0.78 0.3 2.57-0.24 3.77c-4.77 10.5-10.27 21.5-29.14 33.66"></path>
<path style="fill:none; fill-opacity:0%; fill-rule:evenodd; stroke:#aaaaaa; stroke-opacity:100%; stroke-width: 1.5pt; stroke-linejoin:round; stroke-linecap:round;" d="M28.99 15.95c1.41 0.5 3.42 0.6 4.82 0.5c10.86-0.83 27.53-3.31 37.98-4.47c2.62-0.29 3.92 1.15 3.02 2.48c-2.81 4.13-6.14 12.06-8.95 16.35c-0.56 0.85-0.2 2.33 1.41 1.98c4.62-0.99 14.24-2.37 18.57-3.48c3."></path>
<path style="fill:none; fill-opacity:0%; fill-rule:evenodd; stroke:#aaaaaa; stroke-opacity:100%; stroke-width: 1.5pt; stroke-linejoin:round; stroke-linecap:round;" d="M35.07 45.34c1.02 0.24 2.96 0.63 4.5 0.42C41.46 45.5 66.81 42 68.6 42c1.79 0 3.24 1.24 1.44 2.71c-1.79 1.47-12 9.72-16.54 12.39"></path>
<path style="fill:none; fill-opacity:0%; fill-rule:evenodd; stroke:#aaaaaa; stroke-opacity:100%; stroke-width: 1.5pt; stroke-linejoin:round; stroke-linecap:round;" d="M50.86 57.79c6.08 2.05 13.14 21.17 6.97 36.23c-2.65 6.46-6.82 4.23-9.93 0.68"></path>
<path style="fill:none; fill-opacity:0%; fill-rule:evenodd; stroke:#aaaaaa; stroke-opacity:100%; stroke-width: 1.5pt; stroke-linejoin:round; stroke-linecap:round;" d="M20.58 69.89c1.2 0.72 4.32 0.97 6.48 0.79c7.57-0.63 50.93-5.83 60.09-5.2c2.16 0.15 4.08 0.24 5.52 0.96"></path>

<path style="fill:none; fill-opacity:0%; fill-rule:evenodd; stroke:#000000; stroke-opacity:100%; stroke-width: 3pt; stroke-linejoin:round; stroke-linecap:round;" d="M44.76 18.23c0.51 0.78 0.3 2.57-0.24 3.77c-4.77 10.5-10.27 21.5-29.14 33.66"></path>
<path style="fill:none; fill-opacity:0%; fill-rule:evenodd; stroke:#000000; stroke-opacity:100%; stroke-width: 3pt; stroke-linejoin:round; stroke-linecap:round;" d="M28.99 15.95c1.41 0.5 3.42 0.6 4.82 0.5c10.86-0.83 27.53-3.31 37.98-4.47c2.62-0.29 3.92 1.15 3.02 2.48c-2.81 4.13-6.14 12.06-8.95 16.35c-0.56 0.85-0.2 2.33 1.41 1.98c4.62-0.99 14.24-2.37 18.57-3.48c3."></path>
<path style="fill:none; fill-opacity:0%; fill-rule:evenodd; stroke:#000000; stroke-opacity:100%; stroke-width: 3pt; stroke-linejoin:round; stroke-linecap:round;" d="M35.07 45.34c1.02 0.24 2.96 0.63 4.5 0.42C41.46 45.5 66.81 42 68.6 42c1.79 0 3.24 1.24 1.44 2.71c-1.79 1.47-12 9.72-16.54 12.39"></path>
<text x="5" y="20" font-size="20" fill="#999999">4</text><path style="fill:none; fill-opacity:0%; fill-rule:evenodd; stroke:#CC0000; stroke-opacity:100%; stroke-width: 3pt; stroke-linejoin:round; stroke-linecap:round;" d="M50.86 57.79c6.08 2.05 13.14 21.17 6.97 36.23c-2.65 6.46-6.82 4.23-9.93 0.68" marker-end="url(#TriangleRed)" marker-start="url(#ArrowRed)" ></path>


</g><g transform="scale(1.3761467889908 1.3761467889908) translate(436, 0)">
<path style="fill:none; fill-rule:evenodd; stroke:#aaaaaa;  stroke-width:1pt; stroke-linecap:round;" d="m 109 0 L 0 0 L 0 109 L 109 109 L 109 0"></path><path style="fill:none; fill-opacity:0%; fill-rule:evenodd; stroke:#aaaaaa; stroke-opacity:100%; stroke-width: 1.5pt; stroke-linejoin:round; stroke-linecap:round;" d="M44.76 18.23c0.51 0.78 0.3 2.57-0.24 3.77c-4.77 10.5-10.27 21.5-29.14 33.66"></path>
<path style="fill:none; fill-opacity:0%; fill-rule:evenodd; stroke:#aaaaaa; stroke-opacity:100%; stroke-width: 1.5pt; stroke-linejoin:round; stroke-linecap:round;" d="M28.99 15.95c1.41 0.5 3.42 0.6 4.82 0.5c10.86-0.83 27.53-3.31 37.98-4.47c2.62-0.29 3.92 1.15 3.02 2.48c-2.81 4.13-6.14 12.06-8.95 16.35c-0.56 0.85-0.2 2.33 1.41 1.98c4.62-0.99 14.24-2.37 18.57-3.48c3."></path>
<path style="fill:none; fill-opacity:0%; fill-rule:evenodd; stroke:#aaaaaa; stroke-opacity:100%; stroke-width: 1.5pt; stroke-linejoin:round; stroke-linecap:round;" d="M35.07 45.34c1.02 0.24 2.96 0.63 4.5 0.42C41.46 45.5 66.81 42 68.6 42c1.79 0 3.24 1.24 1.44 2.71c-1.79 1.47-12 9.72-16.54 12.39"></path>
<path style="fill:none; fill-opacity:0%; fill-rule:evenodd; stroke:#aaaaaa; stroke-opacity:100%; stroke-width: 1.5pt; stroke-linejoin:round; stroke-linecap:round;" d="M50.86 57.79c6.08 2.05 13.14 21.17 6.97 36.23c-2.65 6.46-6.82 4.23-9.93 0.68"></path>
<path style="fill:none; fill-opacity:0%; fill-rule:evenodd; stroke:#aaaaaa; stroke-opacity:100%; stroke-width: 1.5pt; stroke-linejoin:round; stroke-linecap:round;" d="M20.58 69.89c1.2 0.72 4.32 0.97 6.48 0.79c7.57-0.63 50.93-5.83 60.09-5.2c2.16 0.15 4.08 0.24 5.52 0.96"></path>

<path style="fill:none; fill-opacity:0%; fill-rule:evenodd; stroke:#000000; stroke-opacity:100%; stroke-width: 3pt; stroke-linejoin:round; stroke-linecap:round;" d="M44.76 18.23c0.51 0.78 0.3 2.57-0.24 3.77c-4.77 10.5-10.27 21.5-29.14 33.66"></path>
<path style="fill:none; fill-opacity:0%; fill-rule:evenodd; stroke:#000000; stroke-opacity:100%; stroke-width: 3pt; stroke-linejoin:round; stroke-linecap:round;" d="M28.99 15.95c1.41 0.5 3.42 0.6 4.82 0.5c10.86-0.83 27.53-3.31 37.98-4.47c2.62-0.29 3.92 1.15 3.02 2.48c-2.81 4.13-6.14 12.06-8.95 16.35c-0.56 0.85-0.2 2.33 1.41 1.98c4.62-0.99 14.24-2.37 18.57-3.48c3."></path>
<path style="fill:none; fill-opacity:0%; fill-rule:evenodd; stroke:#000000; stroke-opacity:100%; stroke-width: 3pt; stroke-linejoin:round; stroke-linecap:round;" d="M35.07 45.34c1.02 0.24 2.96 0.63 4.5 0.42C41.46 45.5 66.81 42 68.6 42c1.79 0 3.24 1.24 1.44 2.71c-1.79 1.47-12 9.72-16.54 12.39"></path>
<path style="fill:none; fill-opacity:0%; fill-rule:evenodd; stroke:#000000; stroke-opacity:100%; stroke-width: 3pt; stroke-linejoin:round; stroke-linecap:round;" d="M50.86 57.79c6.08 2.05 13.14 21.17 6.97 36.23c-2.65 6.46-6.82 4.23-9.93 0.68"></path>
<text x="5" y="20" font-size="20" fill="#999999">5</text><path style="fill:none; fill-opacity:0%; fill-rule:evenodd; stroke:#CC0000; stroke-opacity:100%; stroke-width: 3pt; stroke-linejoin:round; stroke-linecap:round;" d="M20.58 69.89c1.2 0.72 4.32 0.97 6.48 0.79c7.57-0.63 50.93-5.83 60.09-5.2c2.16 0.15 4.08 0.24 5.52 0.96" marker-end="url(#TriangleRed)" marker-start="url(#ArrowRed)" ></path>

</g>

</svg>  
          
