<?xml version="1.0" standalone="no"?>
<!DOCTYPE svg PUBLIC "-//W3C//DTD SVG 1.1//EN"   "http://www.w3.org/Graphics/SVG/1.1/DTD/svg11.dtd">
<svg width="751" height="301"  version="1.1" xmlns="http://www.w3.org/2000/svg">
  <defs>
    <marker id="Triangle" viewBox="0 0 10 10" refX="0" refY="5" markerUnits="strokeWidth" markerWidth="3" style="stroke-opacity:0%;fill:#aaaaaa;" markerHeight="2" orient="auto">
      <path d="M 0 0 L 10 5 L 0 10 z" />
    </marker>
    
    <marker id="Arrow" viewBox="0 0 10 10" refX="5" refY="5" markerUnits="strokeWidth" markerWidth="1.8" style="stroke-opacity:0%;fill:#770000;" markerHeight="2" orient="auto">
      <path d="M 0 4 L 6 4 L 4 1 L 10 5 L 4 9 L 6 6 L 0 6 z" />
        <circle cx="5" cy="5" r="5" />
      </marker>
    
    <marker id="TriangleRed" viewBox="0 0 10 10" refX="0" refY="5" markerUnits="strokeWidth" markerWidth="3" style="stroke-opacity:0%;fill:#CC0000;" markerHeight="2" orient="auto">
      <path d="M 0 0 L 10 5 L 0 10 z" />
    </marker>
    
    <marker id="ArrowRed" viewBox="0 0 10 10" refX="5" refY="5" markerUnits="strokeWidth" markerWidth="1.8" style="stroke-opacity:0%;fill:#CC0000;" markerHeight="2" orient="auto">
      <path d="M 0 4 L 6 4 L 4 1 L 10 5 L 4 9 L 6 6 L 0 6 z" />
        <circle cx="5" cy="5" r="5" />
      </marker>
    
  </defs>
  
  <path style="fill:#ffffff; fill-opacity:100%; fill-rule:evenodd; stroke-width:0;" d="M 0 0 L 751 0 L 751 301 L 0 301 L 0 0" />

  <g transform="scale(1.3761467889908 1.3761467889908) translate(0, 0)">
<path style="fill:none; fill-rule:evenodd; stroke:#aaaaaa;  stroke-width:1pt; stroke-linecap:round;" d="m 109 0 L 0 0 L 0 109 L 109 109 L 109 0"></path><path style="fill:none; fill-opacity:0%; fill-rule:evenodd; stroke:#aaaaaa; stroke-opacity:100%; stroke-width: 1.5pt; stroke-linejoin:round; stroke-linecap:round;" d="M24.5 17.24c1.74 0.65 3.12 1.24 4.97 1.1c9.98-0.73 40.17-4.29 44.18-4.55c1.98-0.13 3.27 1.66 2.85 3.57c-0.75 3.39-1.5 5.14-3.11 10.24"></path>
<path style="fill:none; fill-opacity:0%; fill-rule:evenodd; stroke:#aaaaaa; stroke-opacity:100%; stroke-width: 1.5pt; stroke-linejoin:round; stroke-linecap:round;" d="M29.5 32.25c4.9-0.21 28.49-2.74 41.26-3.64c2.23-0.16 4.12-0.28 5.49-0.36"></path>
<path style="fill:none; fill-opacity:0%; fill-rule:evenodd; stroke:#aaaaaa; stroke-opacity:100%; stroke-width: 1.5pt; stroke-linejoin:round; stroke-linecap:round;" d="M27.75 18.75c0.75 0.75 1 2.18 0.99 3.25C28.5 52.18 24.76 70.23 11 91"></path>
<path style="fill:none; fill-opacity:0%; fill-rule:evenodd; stroke:#aaaaaa; stroke-opacity:100%; stroke-width: 1.5pt; stroke-linejoin:round; stroke-linecap:round;" d="M35.5 48.73c2.62 0.39 4.65 0.18 6.76-0.09c7.9-1 24.46-2.91 31.74-3.29c1.88-0.1 4.12-0.23 5.74 0.06"></path>
<path style="fill:none; fill-opacity:0%; fill-rule:evenodd; stroke:#aaaaaa; stroke-opacity:100%; stroke-width: 1.5pt; stroke-linejoin:round; stroke-linecap:round;" d="M45.62 37.25c0.88 0.88 1.21 2.25 1.21 3.75c0 1.02 0.05 12.5 0.28 20"></path>
<path style="fill:none; fill-opacity:0%; fill-rule:evenodd; stroke:#aaaaaa; stroke-opacity:100%; stroke-width: 1.5pt; stroke-linejoin:round; stroke-linecap:round;" d="M64.62 35.75c0.88 0.88 1.06 2.13 0.96 3.5c-0.33 4.62-1.08 11-2.08 20"></path>
<path style="fill:none; fill-opacity:0%; fill-rule:evenodd; stroke:#aaaaaa; stroke-opacity:100%; stroke-width: 1.5pt; stroke-linejoin:round; stroke-linecap:round;" d="M29.25 63.06c2.2 0.69 5.42 0.42 7.74 0.21c9.96-0.89 32.01-3.65 42.51-4.24c2.28-0.13 4.38 0.07 6.5 0.33"></path>
<path style="fill:none; fill-opacity:0%; fill-rule:evenodd; stroke:#aaaaaa; stroke-opacity:100%; stroke-width: 1.5pt; stroke-linejoin:round; stroke-linecap:round;" d="M41.43 64.99c0.85 0.85 1.15 2.14 1.15 3.56c0 10.71-0.04 16.83-0.04 22.37c0 1.81 1.32 2.83 2.67 1.48c1.35-1.36 12.71-10.45 14.52-11.8"></path>
<path style="fill:none; fill-opacity:0%; fill-rule:evenodd; stroke:#aaaaaa; stroke-opacity:100%; stroke-width: 1.5pt; stroke-linejoin:round; stroke-linecap:round;" d="M76.6 65.64c0 0.73-0.22 1.36-0.63 1.88c-1.84 2.35-3.96 3.85-7.95 6.69"></path>
<path style="fill:none; fill-opacity:0%; fill-rule:evenodd; stroke:#aaaaaa; stroke-opacity:100%; stroke-width: 1.5pt; stroke-linejoin:round; stroke-linecap:round;" d="M51.86 67.25c4.52 0.1 21.76 15.17 30.34 21.93c1.66 1.3 5.17 3.82 8.27 5.39"></path>

<text x="5" y="20" font-size="20" fill="#999999">1</text><path style="fill:none; fill-opacity:0%; fill-rule:evenodd; stroke:#CC0000; stroke-opacity:100%; stroke-width: 3pt; stroke-linejoin:round; stroke-linecap:round;" d="M24.5 17.24c1.74 0.65 3.12 1.24 4.97 1.1c9.98-0.73 40.17-4.29 44.18-4.55c1.98-0.13 3.27 1.66 2.85 3.57c-0.75 3.39-1.5 5.14-3.11 10.24"  ></path>










</g><g transform="scale(1.3761467889908 1.3761467889908) translate(109, 0)">
<path style="fill:none; fill-rule:evenodd; stroke:#aaaaaa;  stroke-width:1pt; stroke-linecap:round;" d="m 109 0 L 0 0 L 0 109 L 109 109 L 109 0"></path><path style="fill:none; fill-opacity:0%; fill-rule:evenodd; stroke:#aaaaaa; stroke-opacity:100%; stroke-width: 1.5pt; stroke-linejoin:round; stroke-linecap:round;" d="M24.5 17.24c1.74 0.65 3.12 1.24 4.97 1.1c9.98-0.73 40.17-4.29 44.18-4.55c1.98-0.13 3.27 1.66 2.85 3.57c-0.75 3.39-1.5 5.14-3.11 10.24"></path>
<path style="fill:none; fill-opacity:0%; fill-rule:evenodd; stroke:#aaaaaa; stroke-opacity:100%; stroke-width: 1.5pt; stroke-linejoin:round; stroke-linecap:round;" d="M29.5 32.25c4.9-0.21 28.49-2.74 41.26-3.64c2.23-0.16 4.12-0.28 5.49-0.36"></path>
<path style="fill:none; fill-opacity:0%; fill-rule:evenodd; stroke:#aaaaaa; stroke-opacity:100%; stroke-width: 1.5pt; stroke-linejoin:round; stroke-linecap:round;" d="M27.75 18.75c0.75 0.75 1 2.18 0.99 3.25C28.5 52.18 24.76 70.23 11 91"></path>
<path style="fill:none; fill-opacity:0%; fill-rule:evenodd; stroke:#aaaaaa; stroke-opacity:100%; stroke-width: 1.5pt; stroke-linejoin:round; stroke-linecap:round;" d="M35.5 48.73c2.62 0.39 4.65 0.18 6.76-0.09c7.9-1 24.46-2.91 31.74-3.29c1.88-0.1 4.12-0.23 5.74 0.06"></path>
<path style="fill:none; fill-opacity:0%; fill-rule:evenodd; stroke:#aaaaaa; stroke-opacity:100%; stroke-width: 1.5pt; stroke-linejoin:round; stroke-linecap:round;" d="M45.62 37.25c0.88 0.88 1.21 2.25 1.21 3.75c0 1.02 0.05 12.5 0.28 20"></path>
<path style="fill:none; fill-opacity:0%; fill-rule:evenodd; stroke:#aaaaaa; stroke-opacity:100%; stroke-width: 1.5pt; stroke-linejoin:round; stroke-linecap:round;" d="M64.62 35.75c0.88 0.88 1.06 2.13 0.96 3.5c-0.33 4.62-1.08 11-2.08 20"></path>
<path style="fill:none; fill-opacity:0%; fill-rule:evenodd; stroke:#aaaaaa; stroke-opacity:100%; stroke-width: 1.5pt; stroke-linejoin:round; stroke-linecap:round;" d="M29.25 63.06c2.2 0.69 5.42 0.42 7.74 0.21c9.96-0.89 32.01-3.65 42.51-4.24c2.28-0.13 4.38 0.07 6.5 0.33"></path>
<path style="fill:none; fill-opacity:0%; fill-rule:evenodd; stroke:#aaaaaa; stroke-opacity:100%; stroke-width: 1.5pt; stroke-linejoin:round; stroke-linecap:round;" d="M41.43 64.99c0.85 0.85 1.15 2.14 1.15 3.56c0 10.71-0.04 16.83-0.04 22.37c0 1.81 1.32 2.83 2.67 1.48c1.35-1.36 12.71-10.45 14.52-11.8"></path>
<path style="fill:none; fill-opacity:0%; fill-rule:evenodd; stroke:#aaaaaa; stroke-opacity:100%; stroke-width: 1.5pt; stroke-linejoin:round; stroke-linecap:round;" d="M76.6 65.64c0 0.73-0.22 1.36-0.63 1.88c-1.84 2.35-3.96 3.85-7.95 6.69"></path>
<path style="fill:none; fill-opacity:0%; fill-rule:evenodd; stroke:#aaaaaa; stroke-opacity:100%; stroke-width: 1.5pt; stroke-linejoin:round; stroke-linecap:round;" d="M51.86 67.25c4.52 0.1 21.76 15.17 30.34 21.93c1.66 1.3 5.17 3.82 8.27 5.39"></path>

<path style="fill:none; fill-opacity:0%; fill-rule:evenodd; stroke:#000000; stroke-opacity:100%; stroke-width: 3pt; stroke-linejoin:round; stroke-linecap:round;" d="M24.5 17.24c1.74 0.65 3.12 1.24 4.97 1.1c9.98-0.73 40.17-4.29 44.18-4.55c1.98-0.13 3.27 1.66 2.85 3.57c-0.75 3.39-1.5 5.14-3.11 10.24"></path>
<text x="5" y="20" font-size="20" fill="#999999">2</text><path style="fill:none; fill-opacity:0%; fill-rule:evenodd; stroke:#CC0000; stroke-opacity:100%; stroke-width: 3pt; stroke-linejoin:round; stroke-linecap:round;" d="M29.5 32.25c4.9-0.21 28.49-2.74 41.26-3.64c2.23-0.16 4.12-0.28 5.49-0.36"  ></path>









</g><g transform="scale(1.3761467889908 1.3761467889908) translate(218, 0)">
<path style="fill:none; fill-rule:evenodd; stroke:#aaaaaa;  stroke-width:1pt; stroke-linecap:round;" d="m 109 0 L 0 0 L 0 109 L 109 109 L 109 0"></path><path style="fill:none; fill-opacity:0%; fill-rule:evenodd; stroke:#aaaaaa; stroke-opacity:100%; stroke-width: 1.5pt; stroke-linejoin:round; stroke-linecap:round;" d="M24.5 17.24c1.74 0.65 3.12 1.24 4.97 1.1c9.98-0.73 40.17-4.29 44.18-4.55c1.98-0.13 3.27 1.66 2.85 3.57c-0.75 3.39-1.5 5.14-3.11 10.24"></path>
<path style="fill:none; fill-opacity:0%; fill-rule:evenodd; stroke:#aaaaaa; stroke-opacity:100%; stroke-width: 1.5pt; stroke-linejoin:round; stroke-linecap:round;" d="M29.5 32.25c4.9-0.21 28.49-2.74 41.26-3.64c2.23-0.16 4.12-0.28 5.49-0.36"></path>
<path style="fill:none; fill-opacity:0%; fill-rule:evenodd; stroke:#aaaaaa; stroke-opacity:100%; stroke-width: 1.5pt; stroke-linejoin:round; stroke-linecap:round;" d="M27.75 18.75c0.75 0.75 1 2.18 0.99 3.25C28.5 52.18 24.76 70.23 11 91"></path>
<path style="fill:none; fill-opacity:0%; fill-rule:evenodd; stroke:#aaaaaa; stroke-opacity:100%; stroke-width: 1.5pt; stroke-linejoin:round; stroke-linecap:round;" d="M35.5 48.73c2.62 0.39 4.65 0.18 6.76-0.09c7.9-1 24.46-2.91 31.74-3.29c1.88-0.1 4.12-0.23 5.74 0.06"></path>
<path style="fill:none; fill-opacity:0%; fill-rule:evenodd; stroke:#aaaaaa; stroke-opacity:100%; stroke-width: 1.5pt; stroke-linejoin:round; stroke-linecap:round;" d="M45.62 37.25c0.88 0.88 1.21 2.25 1.21 3.75c0 1.02 0.05 12.5 0.28 20"></path>
<path style="fill:none; fill-opacity:0%; fill-rule:evenodd; stroke:#aaaaaa; stroke-opacity:100%; stroke-width: 1.5pt; stroke-linejoin:round; stroke-linecap:round;" d="M64.62 35.75c0.88 0.88 1.06 2.13 0.96 3.5c-0.33 4.62-1.08 11-2.08 20"></path>
<path style="fill:none; fill-opacity:0%; fill-rule:evenodd; stroke:#aaaaaa; stroke-opacity:100%; stroke-width: 1.5pt; stroke-linejoin:round; stroke-linecap:round;" d="M29.25 63.06c2.2 0.69 5.42 0.42 7.74 0.21c9.96-0.89 32.01-3.65 42.51-4.24c2.28-0.13 4.38 0.07 6.5 0.33"></path>
<path style="fill:none; fill-opacity:0%; fill-rule:evenodd; stroke:#aaaaaa; stroke-opacity:100%; stroke-width: 1.5pt; stroke-linejoin:round; stroke-linecap:round;" d="M41.43 64.99c0.85 0.85 1.15 2.14 1.15 3.56c0 10.71-0.04 16.83-0.04 22.37c0 1.81 1.32 2.83 2.67 1.48c1.35-1.36 12.71-10.45 14.52-11.8"></path>
<path style="fill:none; fill-opacity:0%; fill-rule:evenodd; stroke:#aaaaaa; stroke-opacity:100%; stroke-width: 1.5pt; stroke-linejoin:round; stroke-linecap:round;" d="M76.6 65.64c0 0.73-0.22 1.36-0.63 1.88c-1.84 2.35-3.96 3.85-7.95 6.69"></path>
<path style="fill:none; fill-opacity:0%; fill-rule:evenodd; stroke:#aaaaaa; stroke-opacity:100%; stroke-width: 1.5pt; stroke-linejoin:round; stroke-linecap:round;" d="M51.86 67.25c4.52 0.1 21.76 15.17 30.34 21.93c1.66 1.3 5.17 3.82 8.27 5.39"></path>

<path style="fill:none; fill-opacity:0%; fill-rule:evenodd; stroke:#000000; stroke-opacity:100%; stroke-width: 3pt; stroke-linejoin:round; stroke-linecap:round;" d="M24.5 17.24c1.74 0.65 3.12 1.24 4.97 1.1c9.98-0.73 40.17-4.29 44.18-4.55c1.98-0.13 3.27 1.66 2.85 3.57c-0.75 3.39-1.5 5.14-3.11 10.24"></path>
<path style="fill:none; fill-opacity:0%; fill-rule:evenodd; stroke:#000000; stroke-opacity:100%; stroke-width: 3pt; stroke-linejoin:round; stroke-linecap:round;" d="M29.5 32.25c4.9-0.21 28.49-2.74 41.26-3.64c2.23-0.16 4.12-0.28 5.49-0.36"></path>
<text x="5" y="20" font-size="20" fill="#999999">3</text><path style="fill:none; fill-opacity:0%; fill-rule:evenodd; stroke:#CC0000; stroke-opacity:100%; stroke-width: 3pt; stroke-linejoin:round; stroke-linecap:round;" d="M27.75 18.75c0.75 0.75 1 2.18 0.99 3.25C28.5 52.18 24.76 70.23 11 91"  ></path>








</g><g transform="scale(1.3761467889908 1.3761467889908) translate(327, 0)">
<path style="fill:none; fill-rule:evenodd; stroke:#aaaaaa;  stroke-width:1pt; stroke-linecap:round;" d="m 109 0 L 0 0 L 0 109 L 109 109 L 109 0"></path><path style="fill:none; fill-opacity:0%; fill-rule:evenodd; stroke:#aaaaaa; stroke-opacity:100%; stroke-width: 1.5pt; stroke-linejoin:round; stroke-linecap:round;" d="M24.5 17.24c1.74 0.65 3.12 1.24 4.97 1.1c9.98-0.73 40.17-4.29 44.18-4.55c1.98-0.13 3.27 1.66 2.85 3.57c-0.75 3.39-1.5 5.14-3.11 10.24"></path>
<path style="fill:none; fill-opacity:0%; fill-rule:evenodd; stroke:#aaaaaa; stroke-opacity:100%; stroke-width: 1.5pt; stroke-linejoin:round; stroke-linecap:round;" d="M29.5 32.25c4.9-0.21 28.49-2.74 41.26-3.64c2.23-0.16 4.12-0.28 5.49-0.36"></path>
<path style="fill:none; fill-opacity:0%; fill-rule:evenodd; stroke:#aaaaaa; stroke-opacity:100%; stroke-width: 1.5pt; stroke-linejoin:round; stroke-linecap:round;" d="M27.75 18.75c0.75 0.75 1 2.18 0.99 3.25C28.5 52.18 24.76 70.23 11 91"></path>
<path style="fill:none; fill-opacity:0%; fill-rule:evenodd; stroke:#aaaaaa; stroke-opacity:100%; stroke-width: 1.5pt; stroke-linejoin:round; stroke-linecap:round;" d="M35.5 48.73c2.62 0.39 4.65 0.18 6.76-0.09c7.9-1 24.46-2.91 31.74-3.29c1.88-0.1 4.12-0.23 5.74 0.06"></path>
<path style="fill:none; fill-opacity:0%; fill-rule:evenodd; stroke:#aaaaaa; stroke-opacity:100%; stroke-width: 1.5pt; stroke-linejoin:round; stroke-linecap:round;" d="M45.62 37.25c0.88 0.88 1.21 2.25 1.21 3.75c0 1.02 0.05 12.5 0.28 20"></path>
<path style="fill:none; fill-opacity:0%; fill-rule:evenodd; stroke:#aaaaaa; stroke-opacity:100%; stroke-width: 1.5pt; stroke-linejoin:round; stroke-linecap:round;" d="M64.62 35.75c0.88 0.88 1.06 2.13 0.96 3.5c-0.33 4.62-1.08 11-2.08 20"></path>
<path style="fill:none; fill-opacity:0%; fill-rule:evenodd; stroke:#aaaaaa; stroke-opacity:100%; stroke-width: 1.5pt; stroke-linejoin:round; stroke-linecap:round;" d="M29.25 63.06c2.2 0.69 5.42 0.42 7.74 0.21c9.96-0.89 32.01-3.65 42.51-4.24c2.28-0.13 4.38 0.07 6.5 0.33"></path>
<path style="fill:none; fill-opacity:0%; fill-rule:evenodd; stroke:#aaaaaa; stroke-opacity:100%; stroke-width: 1.5pt; stroke-linejoin:round; stroke-linecap:round;" d="M41.43 64.99c0.85 0.85 1.15 2.14 1.15 3.56c0 10.71-0.04 16.83-0.04 22.37c0 1.81 1.32 2.83 2.67 1.48c1.35-1.36 12.71-10.45 14.52-11.8"></path>
<path style="fill:none; fill-opacity:0%; fill-rule:evenodd; stroke:#aaaaaa; stroke-opacity:100%; stroke-width: 1.5pt; stroke-linejoin:round; stroke-linecap:round;" d="M76.6 65.64c0 0.73-0.22 1.36-0.63 1.88c-1.84 2.35-3.96 3.85-7.95 6.69"></path>
<path style="fill:none; fill-opacity:0%; fill-rule:evenodd; stroke:#aaaaaa; stroke-opacity:100%; stroke-width: 1.5pt; stroke-linejoin:round; stroke-linecap:round;" d="M51.86 67.25c4.52 0.1 21.76 15.17 30.34 21.93c1.66 1.3 5.17 3.82 8.27 5.39"></path>

<path style="fill:none; fill-opacity:0%; fill-rule:evenodd; stroke:#000000; stroke-opacity:100%; stroke-width: 3pt; stroke-linejoin:round; stroke-linecap:round;" d="M24.5 17.24c1.74 0.65 3.12 1.24 4.97 1.1c9.98-0.73 40.17-4.29 44.18-4.55c1.98-0.13 3.27 1.66 2.85 3.57c-0.75 3.39-1.5 5.14-3.11 10.24"></path>
<path style="fill:none; fill-opacity:0%; fill-rule:evenodd; stroke:#000000; stroke-opacity:100%; stroke-width: 3pt; stroke-linejoin:round; stroke-linecap:round;" d="M29.5 32.25c4.9-0.21 28.49-2.74 41.26-3.64c2.23-0.16 4.12-0.28 5.49-0.36"></path>
<path style="fill:none; fill-opacity:0%; fill-rule:evenodd; stroke:#000000; stroke-opacity:100%; stroke-width: 3pt; stroke-linejoin:round; stroke-linecap:round;" d="M27.75 18.75c0.75 0.75 1 2.18 0.99 3.25C28.5 52.18 24.76 70.23 11 91"></path>
<text x="5" y="20" font-size="20" fill="#999999">4</text><path style="fill:none; fill-opacity:0%; fill-rule:evenodd; stroke:#CC0000; stroke-opacity:100%; stroke-width: 3pt; stroke-linejoin:round; stroke-linecap:round;" d="M35.5 48.73c2.62 0.39 4.65 0.18 6.76-0.09c7.9-1 24.46-2.91 31.74-3.29c1.88-0.1 4.12-0.23 5.74 0.06"  ></path>







</g><g transform="scale(1.3761467889908 1.3761467889908) translate(436, 0)">
<path style="fill:none; fill-rule:evenodd; stroke:#aaaaaa;  stroke-width:1pt; stroke-linecap:round;" d="m 109 0 L 0 0 L 0 109 L 109 109 L 109 0"></path><path style="fill:none; fill-opacity:0%; fill-rule:evenodd; stroke:#aaaaaa; stroke-opacity:100%; stroke-width: 1.5pt; stroke-linejoin:round; stroke-linecap:round;" d="M24.5 17.24c1.74 0.65 3.12 1.24 4.97 1.1c9.98-0.73 40.17-4.29 44.18-4.55c1.98-0.13 3.27 1.66 2.85 3.57c-0.75 3.39-1.5 5.14-3.11 10.24"></path>
<path style="fill:none; fill-opacity:0%; fill-rule:evenodd; stroke:#aaaaaa; stroke-opacity:100%; stroke-width: 1.5pt; stroke-linejoin:round; stroke-linecap:round;" d="M29.5 32.25c4.9-0.21 28.49-2.74 41.26-3.64c2.23-0.16 4.12-0.28 5.49-0.36"></path>
<path style="fill:none; fill-opacity:0%; fill-rule:evenodd; stroke:#aaaaaa; stroke-opacity:100%; stroke-width: 1.5pt; stroke-linejoin:round; stroke-linecap:round;" d="M27.75 18.75c0.75 0.75 1 2.18 0.99 3.25C28.5 52.18 24.76 70.23 11 91"></path>
<path style="fill:none; fill-opacity:0%; fill-rule:evenodd; stroke:#aaaaaa; stroke-opacity:100%; stroke-width: 1.5pt; stroke-linejoin:round; stroke-linecap:round;" d="M35.5 48.73c2.62 0.39 4.65 0.18 6.76-0.09c7.9-1 24.46-2.91 31.74-3.29c1.88-0.1 4.12-0.23 5.74 0.06"></path>
<path style="fill:none; fill-opacity:0%; fill-rule:evenodd; stroke:#aaaaaa; stroke-opacity:100%; stroke-width: 1.5pt; stroke-linejoin:round; stroke-linecap:round;" d="M45.62 37.25c0.88 0.88 1.21 2.25 1.21 3.75c0 1.02 0.05 12.5 0.28 20"></path>
<path style="fill:none; fill-opacity:0%; fill-rule:evenodd; stroke:#aaaaaa; stroke-opacity:100%; stroke-width: 1.5pt; stroke-linejoin:round; stroke-linecap:round;" d="M64.62 35.75c0.88 0.88 1.06 2.13 0.96 3.5c-0.33 4.62-1.08 11-2.08 20"></path>
<path style="fill:none; fill-opacity:0%; fill-rule:evenodd; stroke:#aaaaaa; stroke-opacity:100%; stroke-width: 1.5pt; stroke-linejoin:round; stroke-linecap:round;" d="M29.25 63.06c2.2 0.69 5.42 0.42 7.74 0.21c9.96-0.89 32.01-3.65 42.51-4.24c2.28-0.13 4.38 0.07 6.5 0.33"></path>
<path style="fill:none; fill-opacity:0%; fill-rule:evenodd; stroke:#aaaaaa; stroke-opacity:100%; stroke-width: 1.5pt; stroke-linejoin:round; stroke-linecap:round;" d="M41.43 64.99c0.85 0.85 1.15 2.14 1.15 3.56c0 10.71-0.04 16.83-0.04 22.37c0 1.81 1.32 2.83 2.67 1.48c1.35-1.36 12.71-10.45 14.52-11.8"></path>
<path style="fill:none; fill-opacity:0%; fill-rule:evenodd; stroke:#aaaaaa; stroke-opacity:100%; stroke-width: 1.5pt; stroke-linejoin:round; stroke-linecap:round;" d="M76.6 65.64c0 0.73-0.22 1.36-0.63 1.88c-1.84 2.35-3.96 3.85-7.95 6.69"></path>
<path style="fill:none; fill-opacity:0%; fill-rule:evenodd; stroke:#aaaaaa; stroke-opacity:100%; stroke-width: 1.5pt; stroke-linejoin:round; stroke-linecap:round;" d="M51.86 67.25c4.52 0.1 21.76 15.17 30.34 21.93c1.66 1.3 5.17 3.82 8.27 5.39"></path>

<path style="fill:none; fill-opacity:0%; fill-rule:evenodd; stroke:#000000; stroke-opacity:100%; stroke-width: 3pt; stroke-linejoin:round; stroke-linecap:round;" d="M24.5 17.24c1.74 0.65 3.12 1.24 4.97 1.1c9.98-0.73 40.17-4.29 44.18-4.55c1.98-0.13 3.27 1.66 2.85 3.57c-0.75 3.39-1.5 5.14-3.11 10.24"></path>
<path style="fill:none; fill-opacity:0%; fill-rule:evenodd; stroke:#000000; stroke-opacity:100%; stroke-width: 3pt; stroke-linejoin:round; stroke-linecap:round;" d="M29.5 32.25c4.9-0.21 28.49-2.74 41.26-3.64c2.23-0.16 4.12-0.28 5.49-0.36"></path>
<path style="fill:none; fill-opacity:0%; fill-rule:evenodd; stroke:#000000; stroke-opacity:100%; stroke-width: 3pt; stroke-linejoin:round; stroke-linecap:round;" d="M27.75 18.75c0.75 0.75 1 2.18 0.99 3.25C28.5 52.18 24.76 70.23 11 91"></path>
<path style="fill:none; fill-opacity:0%; fill-rule:evenodd; stroke:#000000; stroke-opacity:100%; stroke-width: 3pt; stroke-linejoin:round; stroke-linecap:round;" d="M35.5 48.73c2.62 0.39 4.65 0.18 6.76-0.09c7.9-1 24.46-2.91 31.74-3.29c1.88-0.1 4.12-0.23 5.74 0.06"></path>
<text x="5" y="20" font-size="20" fill="#999999">5</text><path style="fill:none; fill-opacity:0%; fill-rule:evenodd; stroke:#CC0000; stroke-opacity:100%; stroke-width: 3pt; stroke-linejoin:round; stroke-linecap:round;" d="M45.62 37.25c0.88 0.88 1.21 2.25 1.21 3.75c0 1.02 0.05 12.5 0.28 20"  ></path>






</g><g transform="scale(1.3761467889908 1.3761467889908) translate(0, 109)">
<path style="fill:none; fill-rule:evenodd; stroke:#aaaaaa;  stroke-width:1pt; stroke-linecap:round;" d="m 109 0 L 0 0 L 0 109 L 109 109 L 109 0"></path><path style="fill:none; fill-opacity:0%; fill-rule:evenodd; stroke:#aaaaaa; stroke-opacity:100%; stroke-width: 1.5pt; stroke-linejoin:round; stroke-linecap:round;" d="M24.5 17.24c1.74 0.65 3.12 1.24 4.97 1.1c9.98-0.73 40.17-4.29 44.18-4.55c1.98-0.13 3.27 1.66 2.85 3.57c-0.75 3.39-1.5 5.14-3.11 10.24"></path>
<path style="fill:none; fill-opacity:0%; fill-rule:evenodd; stroke:#aaaaaa; stroke-opacity:100%; stroke-width: 1.5pt; stroke-linejoin:round; stroke-linecap:round;" d="M29.5 32.25c4.9-0.21 28.49-2.74 41.26-3.64c2.23-0.16 4.12-0.28 5.49-0.36"></path>
<path style="fill:none; fill-opacity:0%; fill-rule:evenodd; stroke:#aaaaaa; stroke-opacity:100%; stroke-width: 1.5pt; stroke-linejoin:round; stroke-linecap:round;" d="M27.75 18.75c0.75 0.75 1 2.18 0.99 3.25C28.5 52.18 24.76 70.23 11 91"></path>
<path style="fill:none; fill-opacity:0%; fill-rule:evenodd; stroke:#aaaaaa; stroke-opacity:100%; stroke-width: 1.5pt; stroke-linejoin:round; stroke-linecap:round;" d="M35.5 48.73c2.62 0.39 4.65 0.18 6.76-0.09c7.9-1 24.46-2.91 31.74-3.29c1.88-0.1 4.12-0.23 5.74 0.06"></path>
<path style="fill:none; fill-opacity:0%; fill-rule:evenodd; stroke:#aaaaaa; stroke-opacity:100%; stroke-width: 1.5pt; stroke-linejoin:round; stroke-linecap:round;" d="M45.62 37.25c0.88 0.88 1.21 2.25 1.21 3.75c0 1.02 0.05 12.5 0.28 20"></path>
<path style="fill:none; fill-opacity:0%; fill-rule:evenodd; stroke:#aaaaaa; stroke-opacity:100%; stroke-width: 1.5pt; stroke-linejoin:round; stroke-linecap:round;" d="M64.62 35.75c0.88 0.88 1.06 2.13 0.96 3.5c-0.33 4.62-1.08 11-2.08 20"></path>
<path style="fill:none; fill-opacity:0%; fill-rule:evenodd; stroke:#aaaaaa; stroke-opacity:100%; stroke-width: 1.5pt; stroke-linejoin:round; stroke-linecap:round;" d="M29.25 63.06c2.2 0.69 5.42 0.42 7.74 0.21c9.96-0.89 32.01-3.65 42.51-4.24c2.28-0.13 4.38 0.07 6.5 0.33"></path>
<path style="fill:none; fill-opacity:0%; fill-rule:evenodd; stroke:#aaaaaa; stroke-opacity:100%; stroke-width: 1.5pt; stroke-linejoin:round; stroke-linecap:round;" d="M41.43 64.99c0.85 0.85 1.15 2.14 1.15 3.56c0 10.71-0.04 16.83-0.04 22.37c0 1.81 1.32 2.83 2.67 1.48c1.35-1.36 12.71-10.45 14.52-11.8"></path>
<path style="fill:none; fill-opacity:0%; fill-rule:evenodd; stroke:#aaaaaa; stroke-opacity:100%; stroke-width: 1.5pt; stroke-linejoin:round; stroke-linecap:round;" d="M76.6 65.64c0 0.73-0.22 1.36-0.63 1.88c-1.84 2.35-3.96 3.85-7.95 6.69"></path>
<path style="fill:none; fill-opacity:0%; fill-rule:evenodd; stroke:#aaaaaa; stroke-opacity:100%; stroke-width: 1.5pt; stroke-linejoin:round; stroke-linecap:round;" d="M51.86 67.25c4.52 0.1 21.76 15.17 30.34 21.93c1.66 1.3 5.17 3.82 8.27 5.39"></path>

<path style="fill:none; fill-opacity:0%; fill-rule:evenodd; stroke:#000000; stroke-opacity:100%; stroke-width: 3pt; stroke-linejoin:round; stroke-linecap:round;" d="M24.5 17.24c1.74 0.65 3.12 1.24 4.97 1.1c9.98-0.73 40.17-4.29 44.18-4.55c1.98-0.13 3.27 1.66 2.85 3.57c-0.75 3.39-1.5 5.14-3.11 10.24"></path>
<path style="fill:none; fill-opacity:0%; fill-rule:evenodd; stroke:#000000; stroke-opacity:100%; stroke-width: 3pt; stroke-linejoin:round; stroke-linecap:round;" d="M29.5 32.25c4.9-0.21 28.49-2.74 41.26-3.64c2.23-0.16 4.12-0.28 5.49-0.36"></path>
<path style="fill:none; fill-opacity:0%; fill-rule:evenodd; stroke:#000000; stroke-opacity:100%; stroke-width: 3pt; stroke-linejoin:round; stroke-linecap:round;" d="M27.75 18.75c0.75 0.75 1 2.18 0.99 3.25C28.5 52.18 24.76 70.23 11 91"></path>
<path style="fill:none; fill-opacity:0%; fill-rule:evenodd; stroke:#000000; stroke-opacity:100%; stroke-width: 3pt; stroke-linejoin:round; stroke-linecap:round;" d="M35.5 48.73c2.62 0.39 4.65 0.18 6.76-0.09c7.9-1 24.46-2.91 31.74-3.29c1.88-0.1 4.12-0.23 5.74 0.06"></path>
<path style="fill:none; fill-opacity:0%; fill-rule:evenodd; stroke:#000000; stroke-opacity:100%; stroke-width: 3pt; stroke-linejoin:round; stroke-linecap:round;" d="M45.62 37.25c0.88 0.88 1.21 2.25 1.21 3.75c0 1.02 0.05 12.5 0.28 20"></path>
<text x="5" y="20" font-size="20" fill="#999999">6</text><path style="fill:none; fill-opacity:0%; fill-rule:evenodd; stroke:#CC0000; stroke-opacity:100%; stroke-width: 3pt; stroke-linejoin:round; stroke-linecap:round;" d="M64.62 35.75c0.88 0.88 1.06 2.13 0.96 3.5c-0.33 4.62-1.08 11-2.08 20"  ></path>





</g><g transform="scale(1.3761467889908 1.3761467889908) translate(109, 109)">
<path style="fill:none; fill-rule:evenodd; stroke:#aaaaaa;  stroke-width:1pt; stroke-linecap:round;" d="m 109 0 L 0 0 L 0 109 L 109 109 L 109 0"></path><path style="fill:none; fill-opacity:0%; fill-rule:evenodd; stroke:#aaaaaa; stroke-opacity:100%; stroke-width: 1.5pt; stroke-linejoin:round; stroke-linecap:round;" d="M24.5 17.24c1.74 0.65 3.12 1.24 4.97 1.1c9.98-0.73 40.17-4.29 44.18-4.55c1.98-0.13 3.27 1.66 2.85 3.57c-0.75 3.39-1.5 5.14-3.11 10.24"></path>
<path style="fill:none; fill-opacity:0%; fill-rule:evenodd; stroke:#aaaaaa; stroke-opacity:100%; stroke-width: 1.5pt; stroke-linejoin:round; stroke-linecap:round;" d="M29.5 32.25c4.9-0.21 28.49-2.74 41.26-3.64c2.23-0.16 4.12-0.28 5.49-0.36"></path>
<path style="fill:none; fill-opacity:0%; fill-rule:evenodd; stroke:#aaaaaa; stroke-opacity:100%; stroke-width: 1.5pt; stroke-linejoin:round; stroke-linecap:round;" d="M27.75 18.75c0.75 0.75 1 2.18 0.99 3.25C28.5 52.18 24.76 70.23 11 91"></path>
<path style="fill:none; fill-opacity:0%; fill-rule:evenodd; stroke:#aaaaaa; stroke-opacity:100%; stroke-width: 1.5pt; stroke-linejoin:round; stroke-linecap:round;" d="M35.5 48.73c2.62 0.39 4.65 0.18 6.76-0.09c7.9-1 24.46-2.91 31.74-3.29c1.88-0.1 4.12-0.23 5.74 0.06"></path>
<path style="fill:none; fill-opacity:0%; fill-rule:evenodd; stroke:#aaaaaa; stroke-opacity:100%; stroke-width: 1.5pt; stroke-linejoin:round; stroke-linecap:round;" d="M45.62 37.25c0.88 0.88 1.21 2.25 1.21 3.75c0 1.02 0.05 12.5 0.28 20"></path>
<path style="fill:none; fill-opacity:0%; fill-rule:evenodd; stroke:#aaaaaa; stroke-opacity:100%; stroke-width: 1.5pt; stroke-linejoin:round; stroke-linecap:round;" d="M64.62 35.75c0.88 0.88 1.06 2.13 0.96 3.5c-0.33 4.62-1.08 11-2.08 20"></path>
<path style="fill:none; fill-opacity:0%; fill-rule:evenodd; stroke:#aaaaaa; stroke-opacity:100%; stroke-width: 1.5pt; stroke-linejoin:round; stroke-linecap:round;" d="M29.25 63.06c2.2 0.69 5.42 0.42 7.74 0.21c9.96-0.89 32.01-3.65 42.51-4.24c2.28-0.13 4.38 0.07 6.5 0.33"></path>
<path style="fill:none; fill-opacity:0%; fill-rule:evenodd; stroke:#aaaaaa; stroke-opacity:100%; stroke-width: 1.5pt; stroke-linejoin:round; stroke-linecap:round;" d="M41.43 64.99c0.85 0.85 1.15 2.14 1.15 3.56c0 10.71-0.04 16.83-0.04 22.37c0 1.81 1.32 2.83 2.67 1.48c1.35-1.36 12.71-10.45 14.52-11.8"></path>
<path style="fill:none; fill-opacity:0%; fill-rule:evenodd; stroke:#aaaaaa; stroke-opacity:100%; stroke-width: 1.5pt; stroke-linejoin:round; stroke-linecap:round;" d="M76.6 65.64c0 0.73-0.22 1.36-0.63 1.88c-1.84 2.35-3.96 3.85-7.95 6.69"></path>
<path style="fill:none; fill-opacity:0%; fill-rule:evenodd; stroke:#aaaaaa; stroke-opacity:100%; stroke-width: 1.5pt; stroke-linejoin:round; stroke-linecap:round;" d="M51.86 67.25c4.52 0.1 21.76 15.17 30.34 21.93c1.66 1.3 5.17 3.82 8.27 5.39"></path>

<path style="fill:none; fill-opacity:0%; fill-rule:evenodd; stroke:#000000; stroke-opacity:100%; stroke-width: 3pt; stroke-linejoin:round; stroke-linecap:round;" d="M24.5 17.24c1.74 0.65 3.12 1.24 4.97 1.1c9.98-0.73 40.17-4.29 44.18-4.55c1.98-0.13 3.27 1.66 2.85 3.57c-0.75 3.39-1.5 5.14-3.11 10.24"></path>
<path style="fill:none; fill-opacity:0%; fill-rule:evenodd; stroke:#000000; stroke-opacity:100%; stroke-width: 3pt; stroke-linejoin:round; stroke-linecap:round;" d="M29.5 32.25c4.9-0.21 28.49-2.74 41.26-3.64c2.23-0.16 4.12-0.28 5.49-0.36"></path>
<path style="fill:none; fill-opacity:0%; fill-rule:evenodd; stroke:#000000; stroke-opacity:100%; stroke-width: 3pt; stroke-linejoin:round; stroke-linecap:round;" d="M27.75 18.75c0.75 0.75 1 2.18 0.99 3.25C28.5 52.18 24.76 70.23 11 91"></path>
<path style="fill:none; fill-opacity:0%; fill-rule:evenodd; stroke:#000000; stroke-opacity:100%; stroke-width: 3pt; stroke-linejoin:round; stroke-linecap:round;" d="M35.5 48.73c2.62 0.39 4.65 0.18 6.76-0.09c7.9-1 24.46-2.91 31.74-3.29c1.88-0.1 4.12-0.23 5.74 0.06"></path>
<path style="fill:none; fill-opacity:0%; fill-rule:evenodd; stroke:#000000; stroke-opacity:100%; stroke-width: 3pt; stroke-linejoin:round; stroke-linecap:round;" d="M45.62 37.25c0.88 0.88 1.21 2.25 1.21 3.75c0 1.02 0.05 12.5 0.28 20"></path>
<path style="fill:none; fill-opacity:0%; fill-rule:evenodd; stroke:#000000; stroke-opacity:100%; stroke-width: 3pt; stroke-linejoin:round; stroke-linecap:round;" d="M64.62 35.75c0.88 0.88 1.06 2.13 0.96 3.5c-0.33 4.62-1.08 11-2.08 20"></path>
<text x="5" y="20" font-size="20" fill="#999999">7</text><path style="fill:none; fill-opacity:0%; fill-rule:evenodd; stroke:#CC0000; stroke-opacity:100%; stroke-width: 3pt; stroke-linejoin:round; stroke-linecap:round;" d="M29.25 63.06c2.2 0.69 5.42 0.42 7.74 0.21c9.96-0.89 32.01-3.65 42.51-4.24c2.28-0.13 4.38 0.07 6.5 0.33"  ></path>




</g><g transform="scale(1.3761467889908 1.3761467889908) translate(218, 109)">
<path style="fill:none; fill-rule:evenodd; stroke:#aaaaaa;  stroke-width:1pt; stroke-linecap:round;" d="m 109 0 L 0 0 L 0 109 L 109 109 L 109 0"></path><path style="fill:none; fill-opacity:0%; fill-rule:evenodd; stroke:#aaaaaa; stroke-opacity:100%; stroke-width: 1.5pt; stroke-linejoin:round; stroke-linecap:round;" d="M24.5 17.24c1.74 0.65 3.12 1.24 4.97 1.1c9.98-0.73 40.17-4.29 44.18-4.55c1.98-0.13 3.27 1.66 2.85 3.57c-0.75 3.39-1.5 5.14-3.11 10.24"></path>
<path style="fill:none; fill-opacity:0%; fill-rule:evenodd; stroke:#aaaaaa; stroke-opacity:100%; stroke-width: 1.5pt; stroke-linejoin:round; stroke-linecap:round;" d="M29.5 32.25c4.9-0.21 28.49-2.74 41.26-3.64c2.23-0.16 4.12-0.28 5.49-0.36"></path>
<path style="fill:none; fill-opacity:0%; fill-rule:evenodd; stroke:#aaaaaa; stroke-opacity:100%; stroke-width: 1.5pt; stroke-linejoin:round; stroke-linecap:round;" d="M27.75 18.75c0.75 0.75 1 2.18 0.99 3.25C28.5 52.18 24.76 70.23 11 91"></path>
<path style="fill:none; fill-opacity:0%; fill-rule:evenodd; stroke:#aaaaaa; stroke-opacity:100%; stroke-width: 1.5pt; stroke-linejoin:round; stroke-linecap:round;" d="M35.5 48.73c2.62 0.39 4.65 0.18 6.76-0.09c7.9-1 24.46-2.91 31.74-3.29c1.88-0.1 4.12-0.23 5.74 0.06"></path>
<path style="fill:none; fill-opacity:0%; fill-rule:evenodd; stroke:#aaaaaa; stroke-opacity:100%; stroke-width: 1.5pt; stroke-linejoin:round; stroke-linecap:round;" d="M45.62 37.25c0.88 0.88 1.21 2.25 1.21 3.75c0 1.02 0.05 12.5 0.28 20"></path>
<path style="fill:none; fill-opacity:0%; fill-rule:evenodd; stroke:#aaaaaa; stroke-opacity:100%; stroke-width: 1.5pt; stroke-linejoin:round; stroke-linecap:round;" d="M64.62 35.75c0.88 0.88 1.06 2.13 0.96 3.5c-0.33 4.62-1.08 11-2.08 20"></path>
<path style="fill:none; fill-opacity:0%; fill-rule:evenodd; stroke:#aaaaaa; stroke-opacity:100%; stroke-width: 1.5pt; stroke-linejoin:round; stroke-linecap:round;" d="M29.25 63.06c2.2 0.69 5.42 0.42 7.74 0.21c9.96-0.89 32.01-3.65 42.51-4.24c2.28-0.13 4.38 0.07 6.5 0.33"></path>
<path style="fill:none; fill-opacity:0%; fill-rule:evenodd; stroke:#aaaaaa; stroke-opacity:100%; stroke-width: 1.5pt; stroke-linejoin:round; stroke-linecap:round;" d="M41.43 64.99c0.85 0.85 1.15 2.14 1.15 3.56c0 10.71-0.04 16.83-0.04 22.37c0 1.81 1.32 2.83 2.67 1.48c1.35-1.36 12.71-10.45 14.52-11.8"></path>
<path style="fill:none; fill-opacity:0%; fill-rule:evenodd; stroke:#aaaaaa; stroke-opacity:100%; stroke-width: 1.5pt; stroke-linejoin:round; stroke-linecap:round;" d="M76.6 65.64c0 0.73-0.22 1.36-0.63 1.88c-1.84 2.35-3.96 3.85-7.95 6.69"></path>
<path style="fill:none; fill-opacity:0%; fill-rule:evenodd; stroke:#aaaaaa; stroke-opacity:100%; stroke-width: 1.5pt; stroke-linejoin:round; stroke-linecap:round;" d="M51.86 67.25c4.52 0.1 21.76 15.17 30.34 21.93c1.66 1.3 5.17 3.82 8.27 5.39"></path>

<path style="fill:none; fill-opacity:0%; fill-rule:evenodd; stroke:#000000; stroke-opacity:100%; stroke-width: 3pt; stroke-linejoin:round; stroke-linecap:round;" d="M24.5 17.24c1.74 0.65 3.12 1.24 4.97 1.1c9.98-0.73 40.17-4.29 44.18-4.55c1.98-0.13 3.27 1.66 2.85 3.57c-0.75 3.39-1.5 5.14-3.11 10.24"></path>
<path style="fill:none; fill-opacity:0%; fill-rule:evenodd; stroke:#000000; stroke-opacity:100%; stroke-width: 3pt; stroke-linejoin:round; stroke-linecap:round;" d="M29.5 32.25c4.9-0.21 28.49-2.74 41.26-3.64c2.23-0.16 4.12-0.28 5.49-0.36"></path>
<path style="fill:none; fill-opacity:0%; fill-rule:evenodd; stroke:#000000; stroke-opacity:100%; stroke-width: 3pt; stroke-linejoin:round; stroke-linecap:round;" d="M27.75 18.75c0.75 0.75 1 2.18 0.99 3.25C28.5 52.18 24.76 70.23 11 91"></path>
<path style="fill:none; fill-opacity:0%; fill-rule:evenodd; stroke:#000000; stroke-opacity:100%; stroke-width: 3pt; stroke-linejoin:round; stroke-linecap:round;" d="M35.5 48.73c2.62 0.39 4.65 0.18 6.76-0.09c7.9-1 24.46-2.91 31.74-3.29c1.88-0.1 4.12-0.23 5.74 0.06"></path>
<path style="fill:none; fill-opacity:0%; fill-rule:evenodd; stroke:#000000; stroke-opacity:100%; stroke-width: 3pt; stroke-linejoin:round; stroke-linecap:round;" d="M45.62 37.25c0.88 0.88 1.21 2.25 1.21 3.75c0 1.02 0.05 12.5 0.28 20"></path>
<path style="fill:none; fill-opacity:0%; fill-rule:evenodd; stroke:#000000; stroke-opacity:100%; stroke-width: 3pt; stroke-linejoin:round; stroke-linecap:round;" d="M64.62 35.75c0.88 0.88 1.06 2.13 0.96 3.5c-0.33 4.62-1.08 11-2.08 20"></path>
<path style="fill:none; fill-opacity:0%; fill-rule:evenodd; stroke:#000000; stroke-opacity:100%; stroke-width: 3pt; stroke-linejoin:round; stroke-linecap:round;" d="M29.25 63.06c2.2 0.69 5.42 0.42 7.74 0.21c9.96-0.89 32.01-3.65 42.51-4.24c2.28-0.13 4.38 0.07 6.5 0.33"></path>
<text x="5" y="20" font-size="20" fill="#999999">8</text><path style="fill:none; fill-opacity:0%; fill-rule:evenodd; stroke:#CC0000; stroke-opacity:100%; stroke-width: 3pt; stroke-linejoin:round; stroke-linecap:round;" d="M41.43 64.99c0.85 0.85 1.15 2.14 1.15 3.56c0 10.71-0.04 16.83-0.04 22.37c0 1.81 1.32 2.83 2.67 1.48c1.35-1.36 12.71-10.45 14.52-11.8"  ></path>



</g><g transform="scale(1.3761467889908 1.3761467889908) translate(327, 109)">
<path style="fill:none; fill-rule:evenodd; stroke:#aaaaaa;  stroke-width:1pt; stroke-linecap:round;" d="m 109 0 L 0 0 L 0 109 L 109 109 L 109 0"></path><path style="fill:none; fill-opacity:0%; fill-rule:evenodd; stroke:#aaaaaa; stroke-opacity:100%; stroke-width: 1.5pt; stroke-linejoin:round; stroke-linecap:round;" d="M24.5 17.24c1.74 0.65 3.12 1.24 4.97 1.1c9.98-0.73 40.17-4.29 44.18-4.55c1.98-0.13 3.27 1.66 2.85 3.57c-0.75 3.39-1.5 5.14-3.11 10.24"></path>
<path style="fill:none; fill-opacity:0%; fill-rule:evenodd; stroke:#aaaaaa; stroke-opacity:100%; stroke-width: 1.5pt; stroke-linejoin:round; stroke-linecap:round;" d="M29.5 32.25c4.9-0.21 28.49-2.74 41.26-3.64c2.23-0.16 4.12-0.28 5.49-0.36"></path>
<path style="fill:none; fill-opacity:0%; fill-rule:evenodd; stroke:#aaaaaa; stroke-opacity:100%; stroke-width: 1.5pt; stroke-linejoin:round; stroke-linecap:round;" d="M27.75 18.75c0.75 0.75 1 2.18 0.99 3.25C28.5 52.18 24.76 70.23 11 91"></path>
<path style="fill:none; fill-opacity:0%; fill-rule:evenodd; stroke:#aaaaaa; stroke-opacity:100%; stroke-width: 1.5pt; stroke-linejoin:round; stroke-linecap:round;" d="M35.5 48.73c2.62 0.39 4.65 0.18 6.76-0.09c7.9-1 24.46-2.91 31.74-3.29c1.88-0.1 4.12-0.23 5.74 0.06"></path>
<path style="fill:none; fill-opacity:0%; fill-rule:evenodd; stroke:#aaaaaa; stroke-opacity:100%; stroke-width: 1.5pt; stroke-linejoin:round; stroke-linecap:round;" d="M45.62 37.25c0.88 0.88 1.21 2.25 1.21 3.75c0 1.02 0.05 12.5 0.28 20"></path>
<path style="fill:none; fill-opacity:0%; fill-rule:evenodd; stroke:#aaaaaa; stroke-opacity:100%; stroke-width: 1.5pt; stroke-linejoin:round; stroke-linecap:round;" d="M64.62 35.75c0.88 0.88 1.06 2.13 0.96 3.5c-0.33 4.62-1.08 11-2.08 20"></path>
<path style="fill:none; fill-opacity:0%; fill-rule:evenodd; stroke:#aaaaaa; stroke-opacity:100%; stroke-width: 1.5pt; stroke-linejoin:round; stroke-linecap:round;" d="M29.25 63.06c2.2 0.69 5.42 0.42 7.74 0.21c9.96-0.89 32.01-3.65 42.51-4.24c2.28-0.13 4.38 0.07 6.5 0.33"></path>
<path style="fill:none; fill-opacity:0%; fill-rule:evenodd; stroke:#aaaaaa; stroke-opacity:100%; stroke-width: 1.5pt; stroke-linejoin:round; stroke-linecap:round;" d="M41.43 64.99c0.85 0.85 1.15 2.14 1.15 3.56c0 10.71-0.04 16.83-0.04 22.37c0 1.81 1.32 2.83 2.67 1.48c1.35-1.36 12.71-10.45 14.52-11.8"></path>
<path style="fill:none; fill-opacity:0%; fill-rule:evenodd; stroke:#aaaaaa; stroke-opacity:100%; stroke-width: 1.5pt; stroke-linejoin:round; stroke-linecap:round;" d="M76.6 65.64c0 0.73-0.22 1.36-0.63 1.88c-1.84 2.35-3.96 3.85-7.95 6.69"></path>
<path style="fill:none; fill-opacity:0%; fill-rule:evenodd; stroke:#aaaaaa; stroke-opacity:100%; stroke-width: 1.5pt; stroke-linejoin:round; stroke-linecap:round;" d="M51.86 67.25c4.52 0.1 21.76 15.17 30.34 21.93c1.66 1.3 5.17 3.82 8.27 5.39"></path>

<path style="fill:none; fill-opacity:0%; fill-rule:evenodd; stroke:#000000; stroke-opacity:100%; stroke-width: 3pt; stroke-linejoin:round; stroke-linecap:round;" d="M24.5 17.24c1.74 0.65 3.12 1.24 4.97 1.1c9.98-0.73 40.17-4.29 44.18-4.55c1.98-0.13 3.27 1.66 2.85 3.57c-0.75 3.39-1.5 5.14-3.11 10.24"></path>
<path style="fill:none; fill-opacity:0%; fill-rule:evenodd; stroke:#000000; stroke-opacity:100%; stroke-width: 3pt; stroke-linejoin:round; stroke-linecap:round;" d="M29.5 32.25c4.9-0.21 28.49-2.74 41.26-3.64c2.23-0.16 4.12-0.28 5.49-0.36"></path>
<path style="fill:none; fill-opacity:0%; fill-rule:evenodd; stroke:#000000; stroke-opacity:100%; stroke-width: 3pt; stroke-linejoin:round; stroke-linecap:round;" d="M27.75 18.75c0.75 0.75 1 2.18 0.99 3.25C28.5 52.18 24.76 70.23 11 91"></path>
<path style="fill:none; fill-opacity:0%; fill-rule:evenodd; stroke:#000000; stroke-opacity:100%; stroke-width: 3pt; stroke-linejoin:round; stroke-linecap:round;" d="M35.5 48.73c2.62 0.39 4.65 0.18 6.76-0.09c7.9-1 24.46-2.91 31.74-3.29c1.88-0.1 4.12-0.23 5.74 0.06"></path>
<path style="fill:none; fill-opacity:0%; fill-rule:evenodd; stroke:#000000; stroke-opacity:100%; stroke-width: 3pt; stroke-linejoin:round; stroke-linecap:round;" d="M45.62 37.25c0.88 0.88 1.21 2.25 1.21 3.75c0 1.02 0.05 12.5 0.28 20"></path>
<path style="fill:none; fill-opacity:0%; fill-rule:evenodd; stroke:#000000; stroke-opacity:100%; stroke-width: 3pt; stroke-linejoin:round; stroke-linecap:round;" d="M64.62 35.75c0.88 0.88 1.06 2.13 0.96 3.5c-0.33 4.62-1.08 11-2.08 20"></path>
<path style="fill:none; fill-opacity:0%; fill-rule:evenodd; stroke:#000000; stroke-opacity:100%; stroke-width: 3pt; stroke-linejoin:round; stroke-linecap:round;" d="M29.25 63.06c2.2 0.69 5.42 0.42 7.74 0.21c9.96-0.89 32.01-3.65 42.51-4.24c2.28-0.13 4.38 0.07 6.5 0.33"></path>
<path style="fill:none; fill-opacity:0%; fill-rule:evenodd; stroke:#000000; stroke-opacity:100%; stroke-width: 3pt; stroke-linejoin:round; stroke-linecap:round;" d="M41.43 64.99c0.85 0.85 1.15 2.14 1.15 3.56c0 10.71-0.04 16.83-0.04 22.37c0 1.81 1.32 2.83 2.67 1.48c1.35-1.36 12.71-10.45 14.52-11.8"></path>
<text x="5" y="20" font-size="20" fill="#999999">9</text><path style="fill:none; fill-opacity:0%; fill-rule:evenodd; stroke:#CC0000; stroke-opacity:100%; stroke-width: 3pt; stroke-linejoin:round; stroke-linecap:round;" d="M76.6 65.64c0 0.73-0.22 1.36-0.63 1.88c-1.84 2.35-3.96 3.85-7.95 6.69"  ></path>


</g><g transform="scale(1.3761467889908 1.3761467889908) translate(436, 109)">
<path style="fill:none; fill-rule:evenodd; stroke:#aaaaaa;  stroke-width:1pt; stroke-linecap:round;" d="m 109 0 L 0 0 L 0 109 L 109 109 L 109 0"></path><path style="fill:none; fill-opacity:0%; fill-rule:evenodd; stroke:#aaaaaa; stroke-opacity:100%; stroke-width: 1.5pt; stroke-linejoin:round; stroke-linecap:round;" d="M24.5 17.24c1.74 0.65 3.12 1.24 4.97 1.1c9.98-0.73 40.17-4.29 44.18-4.55c1.98-0.13 3.27 1.66 2.85 3.57c-0.75 3.39-1.5 5.14-3.11 10.24"></path>
<path style="fill:none; fill-opacity:0%; fill-rule:evenodd; stroke:#aaaaaa; stroke-opacity:100%; stroke-width: 1.5pt; stroke-linejoin:round; stroke-linecap:round;" d="M29.5 32.25c4.9-0.21 28.49-2.74 41.26-3.64c2.23-0.16 4.12-0.28 5.49-0.36"></path>
<path style="fill:none; fill-opacity:0%; fill-rule:evenodd; stroke:#aaaaaa; stroke-opacity:100%; stroke-width: 1.5pt; stroke-linejoin:round; stroke-linecap:round;" d="M27.75 18.75c0.75 0.75 1 2.18 0.99 3.25C28.5 52.18 24.76 70.23 11 91"></path>
<path style="fill:none; fill-opacity:0%; fill-rule:evenodd; stroke:#aaaaaa; stroke-opacity:100%; stroke-width: 1.5pt; stroke-linejoin:round; stroke-linecap:round;" d="M35.5 48.73c2.62 0.39 4.65 0.18 6.76-0.09c7.9-1 24.46-2.91 31.74-3.29c1.88-0.1 4.12-0.23 5.74 0.06"></path>
<path style="fill:none; fill-opacity:0%; fill-rule:evenodd; stroke:#aaaaaa; stroke-opacity:100%; stroke-width: 1.5pt; stroke-linejoin:round; stroke-linecap:round;" d="M45.62 37.25c0.88 0.88 1.21 2.25 1.21 3.75c0 1.02 0.05 12.5 0.28 20"></path>
<path style="fill:none; fill-opacity:0%; fill-rule:evenodd; stroke:#aaaaaa; stroke-opacity:100%; stroke-width: 1.5pt; stroke-linejoin:round; stroke-linecap:round;" d="M64.62 35.75c0.88 0.88 1.06 2.13 0.96 3.5c-0.33 4.62-1.08 11-2.08 20"></path>
<path style="fill:none; fill-opacity:0%; fill-rule:evenodd; stroke:#aaaaaa; stroke-opacity:100%; stroke-width: 1.5pt; stroke-linejoin:round; stroke-linecap:round;" d="M29.25 63.06c2.2 0.69 5.42 0.42 7.74 0.21c9.96-0.89 32.01-3.65 42.51-4.24c2.28-0.13 4.38 0.07 6.5 0.33"></path>
<path style="fill:none; fill-opacity:0%; fill-rule:evenodd; stroke:#aaaaaa; stroke-opacity:100%; stroke-width: 1.5pt; stroke-linejoin:round; stroke-linecap:round;" d="M41.43 64.99c0.85 0.85 1.15 2.14 1.15 3.56c0 10.71-0.04 16.83-0.04 22.37c0 1.81 1.32 2.83 2.67 1.48c1.35-1.36 12.71-10.45 14.52-11.8"></path>
<path style="fill:none; fill-opacity:0%; fill-rule:evenodd; stroke:#aaaaaa; stroke-opacity:100%; stroke-width: 1.5pt; stroke-linejoin:round; stroke-linecap:round;" d="M76.6 65.64c0 0.73-0.22 1.36-0.63 1.88c-1.84 2.35-3.96 3.85-7.95 6.69"></path>
<path style="fill:none; fill-opacity:0%; fill-rule:evenodd; stroke:#aaaaaa; stroke-opacity:100%; stroke-width: 1.5pt; stroke-linejoin:round; stroke-linecap:round;" d="M51.86 67.25c4.52 0.1 21.76 15.17 30.34 21.93c1.66 1.3 5.17 3.82 8.27 5.39"></path>

<path style="fill:none; fill-opacity:0%; fill-rule:evenodd; stroke:#000000; stroke-opacity:100%; stroke-width: 3pt; stroke-linejoin:round; stroke-linecap:round;" d="M24.5 17.24c1.74 0.65 3.12 1.24 4.97 1.1c9.98-0.73 40.17-4.29 44.18-4.55c1.98-0.13 3.27 1.66 2.85 3.57c-0.75 3.39-1.5 5.14-3.11 10.24"></path>
<path style="fill:none; fill-opacity:0%; fill-rule:evenodd; stroke:#000000; stroke-opacity:100%; stroke-width: 3pt; stroke-linejoin:round; stroke-linecap:round;" d="M29.5 32.25c4.9-0.21 28.49-2.74 41.26-3.64c2.23-0.16 4.12-0.28 5.49-0.36"></path>
<path style="fill:none; fill-opacity:0%; fill-rule:evenodd; stroke:#000000; stroke-opacity:100%; stroke-width: 3pt; stroke-linejoin:round; stroke-linecap:round;" d="M27.75 18.75c0.75 0.75 1 2.18 0.99 3.25C28.5 52.18 24.76 70.23 11 91"></path>
<path style="fill:none; fill-opacity:0%; fill-rule:evenodd; stroke:#000000; stroke-opacity:100%; stroke-width: 3pt; stroke-linejoin:round; stroke-linecap:round;" d="M35.5 48.73c2.62 0.39 4.65 0.18 6.76-0.09c7.9-1 24.46-2.91 31.74-3.29c1.88-0.1 4.12-0.23 5.74 0.06"></path>
<path style="fill:none; fill-opacity:0%; fill-rule:evenodd; stroke:#000000; stroke-opacity:100%; stroke-width: 3pt; stroke-linejoin:round; stroke-linecap:round;" d="M45.62 37.25c0.88 0.88 1.21 2.25 1.21 3.75c0 1.02 0.05 12.5 0.28 20"></path>
<path style="fill:none; fill-opacity:0%; fill-rule:evenodd; stroke:#000000; stroke-opacity:100%; stroke-width: 3pt; stroke-linejoin:round; stroke-linecap:round;" d="M64.62 35.75c0.88 0.88 1.06 2.13 0.96 3.5c-0.33 4.62-1.08 11-2.08 20"></path>
<path style="fill:none; fill-opacity:0%; fill-rule:evenodd; stroke:#000000; stroke-opacity:100%; stroke-width: 3pt; stroke-linejoin:round; stroke-linecap:round;" d="M29.25 63.06c2.2 0.69 5.42 0.42 7.74 0.21c9.96-0.89 32.01-3.65 42.51-4.24c2.28-0.13 4.38 0.07 6.5 0.33"></path>
<path style="fill:none; fill-opacity:0%; fill-rule:evenodd; stroke:#000000; stroke-opacity:100%; stroke-width: 3pt; stroke-linejoin:round; stroke-linecap:round;" d="M41.43 64.99c0.85 0.85 1.15 2.14 1.15 3.56c0 10.71-0.04 16.83-0.04 22.37c0 1.81 1.32 2.83 2.67 1.48c1.35-1.36 12.71-10.45 14.52-11.8"></path>
<path style="fill:none; fill-opacity:0%; fill-rule:evenodd; stroke:#000000; stroke-opacity:100%; stroke-width: 3pt; stroke-linejoin:round; stroke-linecap:round;" d="M76.6 65.64c0 0.73-0.22 1.36-0.63 1.88c-1.84 2.35-3.96 3.85-7.95 6.69"></path>
<text x="5" y="20" font-size="20" fill="#999999">10</text><path style="fill:none; fill-opacity:0%; fill-rule:evenodd; stroke:#CC0000; stroke-opacity:100%; stroke-width: 3pt; stroke-linejoin:round; stroke-linecap:round;" d="M51.86 67.25c4.52 0.1 21.76 15.17 30.34 21.93c1.66 1.3 5.17 3.82 8.27 5.39"  ></path>

</g>

</svg>  
          
