<?xml version="1.0" standalone="no"?>
<!DOCTYPE svg PUBLIC "-//W3C//DTD SVG 1.1//EN"   "http://www.w3.org/Graphics/SVG/1.1/DTD/svg11.dtd">
<svg width="751" height="151"  version="1.1" xmlns="http://www.w3.org/2000/svg">
  <defs>
    <marker id="Triangle" viewBox="0 0 10 10" refX="0" refY="5" markerUnits="strokeWidth" markerWidth="3" style="stroke-opacity:0%;fill:#aaaaaa;" markerHeight="2" orient="auto">
      <path d="M 0 0 L 10 5 L 0 10 z" />
    </marker>
    
    <marker id="Arrow" viewBox="0 0 10 10" refX="5" refY="5" markerUnits="strokeWidth" markerWidth="1.8" style="stroke-opacity:0%;fill:#770000;" markerHeight="2" orient="auto">
      <path d="M 0 4 L 6 4 L 4 1 L 10 5 L 4 9 L 6 6 L 0 6 z" />
        <circle cx="5" cy="5" r="5" />
      </marker>
    
    <marker id="TriangleRed" viewBox="0 0 10 10" refX="0" refY="5" markerUnits="strokeWidth" markerWidth="3" style="stroke-opacity:0%;fill:#CC0000;" markerHeight="2" orient="auto">
      <path d="M 0 0 L 10 5 L 0 10 z" />
    </marker>
    
    <marker id="ArrowRed" viewBox="0 0 10 10" refX="5" refY="5" markerUnits="strokeWidth" markerWidth="1.8" style="stroke-opacity:0%;fill:#CC0000;" markerHeight="2" orient="auto">
      <path d="M 0 4 L 6 4 L 4 1 L 10 5 L 4 9 L 6 6 L 0 6 z" />
        <circle cx="5" cy="5" r="5" />
      </marker>
    
  </defs>
  
  <path style="fill:#ffffff; fill-opacity:100%; fill-rule:evenodd; stroke-width:0;" d="M 0 0 L 751 0 L 751 151 L 0 151 L 0 0" />

  <g transform="scale(1.3761467889908 1.3761467889908) translate(0, 0)">
<path style="fill:none; fill-rule:evenodd; stroke:#aaaaaa;  stroke-width:1pt; stroke-linecap:round;" d="m 109 0 L 0 0 L 0 109 L 109 109 L 109 0"></path><path style="fill:none; fill-opacity:0%; fill-rule:evenodd; stroke:#aaaaaa; stroke-opacity:100%; stroke-width: 1.5pt; stroke-linejoin:round; stroke-linecap:round;" d="M52.29 10.13c0.69 0.41 2.15 3.06 2.29 3.87c0.14 0.82 0.41 14.15 0.27 19.25"></path>
<path style="fill:none; fill-opacity:0%; fill-rule:evenodd; stroke:#aaaaaa; stroke-opacity:100%; stroke-width: 1.5pt; stroke-linejoin:round; stroke-linecap:round;" d="M26.43 24.25c0.56 0.33 1.12 1.73 1.12 2.41c0 2.59-0.3 3.84-1.59 7.76c-0.48 1.45 0.81 2.53 2.11 2.28c19.18-3.7 49.33-4.42 54.35-4.55"></path>
<path style="fill:none; fill-opacity:0%; fill-rule:evenodd; stroke:#aaaaaa; stroke-opacity:100%; stroke-width: 1.5pt; stroke-linejoin:round; stroke-linecap:round;" d="M84.04 17.88c0.64 0.38 1.38 2.83 1.28 3.59c-0.63 4.65-1.88 9.97-2.9 14.49"></path>
<path style="fill:none; fill-opacity:0%; fill-rule:evenodd; stroke:#aaaaaa; stroke-opacity:100%; stroke-width: 1.5pt; stroke-linejoin:round; stroke-linecap:round;" d="M19.34 51.84c2.19 0.58 4.96 0.51 6.87 0.31c15.64-1.6 42.52-4.33 51.19-4.92c5.64-0.38 6.84 1.02 6.33 4.85c-0.94 7.1-3.5 27.92-10.17 41.31c-3.63 7.29-7.58 5.36-12.54 0.18"></path>
<path style="fill:none; fill-opacity:0%; fill-rule:evenodd; stroke:#aaaaaa; stroke-opacity:100%; stroke-width: 1.5pt; stroke-linejoin:round; stroke-linecap:round;" d="M48.88 53.18c0.09 1.01 0.13 2.61-0.18 4.06C45.67 71.48 37.5 88.5 18.25 98.6"></path>

<text x="5" y="20" font-size="20" fill="#999999">1</text><path style="fill:none; fill-opacity:0%; fill-rule:evenodd; stroke:#CC0000; stroke-opacity:100%; stroke-width: 3pt; stroke-linejoin:round; stroke-linecap:round;" d="M52.29 10.13c0.69 0.41 2.15 3.06 2.29 3.87c0.14 0.82 0.41 14.15 0.27 19.25" marker-end="url(#TriangleRed)" marker-start="url(#ArrowRed)" ></path>





</g><g transform="scale(1.3761467889908 1.3761467889908) translate(109, 0)">
<path style="fill:none; fill-rule:evenodd; stroke:#aaaaaa;  stroke-width:1pt; stroke-linecap:round;" d="m 109 0 L 0 0 L 0 109 L 109 109 L 109 0"></path><path style="fill:none; fill-opacity:0%; fill-rule:evenodd; stroke:#aaaaaa; stroke-opacity:100%; stroke-width: 1.5pt; stroke-linejoin:round; stroke-linecap:round;" d="M52.29 10.13c0.69 0.41 2.15 3.06 2.29 3.87c0.14 0.82 0.41 14.15 0.27 19.25"></path>
<path style="fill:none; fill-opacity:0%; fill-rule:evenodd; stroke:#aaaaaa; stroke-opacity:100%; stroke-width: 1.5pt; stroke-linejoin:round; stroke-linecap:round;" d="M26.43 24.25c0.56 0.33 1.12 1.73 1.12 2.41c0 2.59-0.3 3.84-1.59 7.76c-0.48 1.45 0.81 2.53 2.11 2.28c19.18-3.7 49.33-4.42 54.35-4.55"></path>
<path style="fill:none; fill-opacity:0%; fill-rule:evenodd; stroke:#aaaaaa; stroke-opacity:100%; stroke-width: 1.5pt; stroke-linejoin:round; stroke-linecap:round;" d="M84.04 17.88c0.64 0.38 1.38 2.83 1.28 3.59c-0.63 4.65-1.88 9.97-2.9 14.49"></path>
<path style="fill:none; fill-opacity:0%; fill-rule:evenodd; stroke:#aaaaaa; stroke-opacity:100%; stroke-width: 1.5pt; stroke-linejoin:round; stroke-linecap:round;" d="M19.34 51.84c2.19 0.58 4.96 0.51 6.87 0.31c15.64-1.6 42.52-4.33 51.19-4.92c5.64-0.38 6.84 1.02 6.33 4.85c-0.94 7.1-3.5 27.92-10.17 41.31c-3.63 7.29-7.58 5.36-12.54 0.18"></path>
<path style="fill:none; fill-opacity:0%; fill-rule:evenodd; stroke:#aaaaaa; stroke-opacity:100%; stroke-width: 1.5pt; stroke-linejoin:round; stroke-linecap:round;" d="M48.88 53.18c0.09 1.01 0.13 2.61-0.18 4.06C45.67 71.48 37.5 88.5 18.25 98.6"></path>

<path style="fill:none; fill-opacity:0%; fill-rule:evenodd; stroke:#000000; stroke-opacity:100%; stroke-width: 3pt; stroke-linejoin:round; stroke-linecap:round;" d="M52.29 10.13c0.69 0.41 2.15 3.06 2.29 3.87c0.14 0.82 0.41 14.15 0.27 19.25"></path>
<text x="5" y="20" font-size="20" fill="#999999">2</text><path style="fill:none; fill-opacity:0%; fill-rule:evenodd; stroke:#CC0000; stroke-opacity:100%; stroke-width: 3pt; stroke-linejoin:round; stroke-linecap:round;" d="M26.43 24.25c0.56 0.33 1.12 1.73 1.12 2.41c0 2.59-0.3 3.84-1.59 7.76c-0.48 1.45 0.81 2.53 2.11 2.28c19.18-3.7 49.33-4.42 54.35-4.55" marker-end="url(#TriangleRed)" marker-start="url(#ArrowRed)" ></path>




</g><g transform="scale(1.3761467889908 1.3761467889908) translate(218, 0)">
<path style="fill:none; fill-rule:evenodd; stroke:#aaaaaa;  stroke-width:1pt; stroke-linecap:round;" d="m 109 0 L 0 0 L 0 109 L 109 109 L 109 0"></path><path style="fill:none; fill-opacity:0%; fill-rule:evenodd; stroke:#aaaaaa; stroke-opacity:100%; stroke-width: 1.5pt; stroke-linejoin:round; stroke-linecap:round;" d="M52.29 10.13c0.69 0.41 2.15 3.06 2.29 3.87c0.14 0.82 0.41 14.15 0.27 19.25"></path>
<path style="fill:none; fill-opacity:0%; fill-rule:evenodd; stroke:#aaaaaa; stroke-opacity:100%; stroke-width: 1.5pt; stroke-linejoin:round; stroke-linecap:round;" d="M26.43 24.25c0.56 0.33 1.12 1.73 1.12 2.41c0 2.59-0.3 3.84-1.59 7.76c-0.48 1.45 0.81 2.53 2.11 2.28c19.18-3.7 49.33-4.42 54.35-4.55"></path>
<path style="fill:none; fill-opacity:0%; fill-rule:evenodd; stroke:#aaaaaa; stroke-opacity:100%; stroke-width: 1.5pt; stroke-linejoin:round; stroke-linecap:round;" d="M84.04 17.88c0.64 0.38 1.38 2.83 1.28 3.59c-0.63 4.65-1.88 9.97-2.9 14.49"></path>
<path style="fill:none; fill-opacity:0%; fill-rule:evenodd; stroke:#aaaaaa; stroke-opacity:100%; stroke-width: 1.5pt; stroke-linejoin:round; stroke-linecap:round;" d="M19.34 51.84c2.19 0.58 4.96 0.51 6.87 0.31c15.64-1.6 42.52-4.33 51.19-4.92c5.64-0.38 6.84 1.02 6.33 4.85c-0.94 7.1-3.5 27.92-10.17 41.31c-3.63 7.29-7.58 5.36-12.54 0.18"></path>
<path style="fill:none; fill-opacity:0%; fill-rule:evenodd; stroke:#aaaaaa; stroke-opacity:100%; stroke-width: 1.5pt; stroke-linejoin:round; stroke-linecap:round;" d="M48.88 53.18c0.09 1.01 0.13 2.61-0.18 4.06C45.67 71.48 37.5 88.5 18.25 98.6"></path>

<path style="fill:none; fill-opacity:0%; fill-rule:evenodd; stroke:#000000; stroke-opacity:100%; stroke-width: 3pt; stroke-linejoin:round; stroke-linecap:round;" d="M52.29 10.13c0.69 0.41 2.15 3.06 2.29 3.87c0.14 0.82 0.41 14.15 0.27 19.25"></path>
<path style="fill:none; fill-opacity:0%; fill-rule:evenodd; stroke:#000000; stroke-opacity:100%; stroke-width: 3pt; stroke-linejoin:round; stroke-linecap:round;" d="M26.43 24.25c0.56 0.33 1.12 1.73 1.12 2.41c0 2.59-0.3 3.84-1.59 7.76c-0.48 1.45 0.81 2.53 2.11 2.28c19.18-3.7 49.33-4.42 54.35-4.55"></path>
<text x="5" y="20" font-size="20" fill="#999999">3</text><path style="fill:none; fill-opacity:0%; fill-rule:evenodd; stroke:#CC0000; stroke-opacity:100%; stroke-width: 3pt; stroke-linejoin:round; stroke-linecap:round;" d="M84.04 17.88c0.64 0.38 1.38 2.83 1.28 3.59c-0.63 4.65-1.88 9.97-2.9 14.49" marker-end="url(#TriangleRed)" marker-start="url(#ArrowRed)" ></path>



</g><g transform="scale(1.3761467889908 1.3761467889908) translate(327, 0)">
<path style="fill:none; fill-rule:evenodd; stroke:#aaaaaa;  stroke-width:1pt; stroke-linecap:round;" d="m 109 0 L 0 0 L 0 109 L 109 109 L 109 0"></path><path style="fill:none; fill-opacity:0%; fill-rule:evenodd; stroke:#aaaaaa; stroke-opacity:100%; stroke-width: 1.5pt; stroke-linejoin:round; stroke-linecap:round;" d="M52.29 10.13c0.69 0.41 2.15 3.06 2.29 3.87c0.14 0.82 0.41 14.15 0.27 19.25"></path>
<path style="fill:none; fill-opacity:0%; fill-rule:evenodd; stroke:#aaaaaa; stroke-opacity:100%; stroke-width: 1.5pt; stroke-linejoin:round; stroke-linecap:round;" d="M26.43 24.25c0.56 0.33 1.12 1.73 1.12 2.41c0 2.59-0.3 3.84-1.59 7.76c-0.48 1.45 0.81 2.53 2.11 2.28c19.18-3.7 49.33-4.42 54.35-4.55"></path>
<path style="fill:none; fill-opacity:0%; fill-rule:evenodd; stroke:#aaaaaa; stroke-opacity:100%; stroke-width: 1.5pt; stroke-linejoin:round; stroke-linecap:round;" d="M84.04 17.88c0.64 0.38 1.38 2.83 1.28 3.59c-0.63 4.65-1.88 9.97-2.9 14.49"></path>
<path style="fill:none; fill-opacity:0%; fill-rule:evenodd; stroke:#aaaaaa; stroke-opacity:100%; stroke-width: 1.5pt; stroke-linejoin:round; stroke-linecap:round;" d="M19.34 51.84c2.19 0.58 4.96 0.51 6.87 0.31c15.64-1.6 42.52-4.33 51.19-4.92c5.64-0.38 6.84 1.02 6.33 4.85c-0.94 7.1-3.5 27.92-10.17 41.31c-3.63 7.29-7.58 5.36-12.54 0.18"></path>
<path style="fill:none; fill-opacity:0%; fill-rule:evenodd; stroke:#aaaaaa; stroke-opacity:100%; stroke-width: 1.5pt; stroke-linejoin:round; stroke-linecap:round;" d="M48.88 53.18c0.09 1.01 0.13 2.61-0.18 4.06C45.67 71.48 37.5 88.5 18.25 98.6"></path>

<path style="fill:none; fill-opacity:0%; fill-rule:evenodd; stroke:#000000; stroke-opacity:100%; stroke-width: 3pt; stroke-linejoin:round; stroke-linecap:round;" d="M52.29 10.13c0.69 0.41 2.15 3.06 2.29 3.87c0.14 0.82 0.41 14.15 0.27 19.25"></path>
<path style="fill:none; fill-opacity:0%; fill-rule:evenodd; stroke:#000000; stroke-opacity:100%; stroke-width: 3pt; stroke-linejoin:round; stroke-linecap:round;" d="M26.43 24.25c0.56 0.33 1.12 1.73 1.12 2.41c0 2.59-0.3 3.84-1.59 7.76c-0.48 1.45 0.81 2.53 2.11 2.28c19.18-3.7 49.33-4.42 54.35-4.55"></path>
<path style="fill:none; fill-opacity:0%; fill-rule:evenodd; stroke:#000000; stroke-opacity:100%; stroke-width: 3pt; stroke-linejoin:round; stroke-linecap:round;" d="M84.04 17.88c0.64 0.38 1.38 2.83 1.28 3.59c-0.63 4.65-1.88 9.97-2.9 14.49"></path>
<text x="5" y="20" font-size="20" fill="#999999">4</text><path style="fill:none; fill-opacity:0%; fill-rule:evenodd; stroke:#CC0000; stroke-opacity:100%; stroke-width: 3pt; stroke-linejoin:round; stroke-linecap:round;" d="M19.34 51.84c2.19 0.58 4.96 0.51 6.87 0.31c15.64-1.6 42.52-4.33 51.19-4.92c5.64-0.38 6.84 1.02 6.33 4.85c-0.94 7.1-3.5 27.92-10.17 41.31c-3.63 7.29-7.58 5.36-12.54 0.18" marker-end="url(#TriangleRed)" marker-start="url(#ArrowRed)" ></path>


</g><g transform="scale(1.3761467889908 1.3761467889908) translate(436, 0)">
<path style="fill:none; fill-rule:evenodd; stroke:#aaaaaa;  stroke-width:1pt; stroke-linecap:round;" d="m 109 0 L 0 0 L 0 109 L 109 109 L 109 0"></path><path style="fill:none; fill-opacity:0%; fill-rule:evenodd; stroke:#aaaaaa; stroke-opacity:100%; stroke-width: 1.5pt; stroke-linejoin:round; stroke-linecap:round;" d="M52.29 10.13c0.69 0.41 2.15 3.06 2.29 3.87c0.14 0.82 0.41 14.15 0.27 19.25"></path>
<path style="fill:none; fill-opacity:0%; fill-rule:evenodd; stroke:#aaaaaa; stroke-opacity:100%; stroke-width: 1.5pt; stroke-linejoin:round; stroke-linecap:round;" d="M26.43 24.25c0.56 0.33 1.12 1.73 1.12 2.41c0 2.59-0.3 3.84-1.59 7.76c-0.48 1.45 0.81 2.53 2.11 2.28c19.18-3.7 49.33-4.42 54.35-4.55"></path>
<path style="fill:none; fill-opacity:0%; fill-rule:evenodd; stroke:#aaaaaa; stroke-opacity:100%; stroke-width: 1.5pt; stroke-linejoin:round; stroke-linecap:round;" d="M84.04 17.88c0.64 0.38 1.38 2.83 1.28 3.59c-0.63 4.65-1.88 9.97-2.9 14.49"></path>
<path style="fill:none; fill-opacity:0%; fill-rule:evenodd; stroke:#aaaaaa; stroke-opacity:100%; stroke-width: 1.5pt; stroke-linejoin:round; stroke-linecap:round;" d="M19.34 51.84c2.19 0.58 4.96 0.51 6.87 0.31c15.64-1.6 42.52-4.33 51.19-4.92c5.64-0.38 6.84 1.02 6.33 4.85c-0.94 7.1-3.5 27.92-10.17 41.31c-3.63 7.29-7.58 5.36-12.54 0.18"></path>
<path style="fill:none; fill-opacity:0%; fill-rule:evenodd; stroke:#aaaaaa; stroke-opacity:100%; stroke-width: 1.5pt; stroke-linejoin:round; stroke-linecap:round;" d="M48.88 53.18c0.09 1.01 0.13 2.61-0.18 4.06C45.67 71.48 37.5 88.5 18.25 98.6"></path>

<path style="fill:none; fill-opacity:0%; fill-rule:evenodd; stroke:#000000; stroke-opacity:100%; stroke-width: 3pt; stroke-linejoin:round; stroke-linecap:round;" d="M52.29 10.13c0.69 0.41 2.15 3.06 2.29 3.87c0.14 0.82 0.41 14.15 0.27 19.25"></path>
<path style="fill:none; fill-opacity:0%; fill-rule:evenodd; stroke:#000000; stroke-opacity:100%; stroke-width: 3pt; stroke-linejoin:round; stroke-linecap:round;" d="M26.43 24.25c0.56 0.33 1.12 1.73 1.12 2.41c0 2.59-0.3 3.84-1.59 7.76c-0.48 1.45 0.81 2.53 2.11 2.28c19.18-3.7 49.33-4.42 54.35-4.55"></path>
<path style="fill:none; fill-opacity:0%; fill-rule:evenodd; stroke:#000000; stroke-opacity:100%; stroke-width: 3pt; stroke-linejoin:round; stroke-linecap:round;" d="M84.04 17.88c0.64 0.38 1.38 2.83 1.28 3.59c-0.63 4.65-1.88 9.97-2.9 14.49"></path>
<path style="fill:none; fill-opacity:0%; fill-rule:evenodd; stroke:#000000; stroke-opacity:100%; stroke-width: 3pt; stroke-linejoin:round; stroke-linecap:round;" d="M19.34 51.84c2.19 0.58 4.96 0.51 6.87 0.31c15.64-1.6 42.52-4.33 51.19-4.92c5.64-0.38 6.84 1.02 6.33 4.85c-0.94 7.1-3.5 27.92-10.17 41.31c-3.63 7.29-7.58 5.36-12.54 0.18"></path>
<text x="5" y="20" font-size="20" fill="#999999">5</text><path style="fill:none; fill-opacity:0%; fill-rule:evenodd; stroke:#CC0000; stroke-opacity:100%; stroke-width: 3pt; stroke-linejoin:round; stroke-linecap:round;" d="M48.88 53.18c0.09 1.01 0.13 2.61-0.18 4.06C45.67 71.48 37.5 88.5 18.25 98.6" marker-end="url(#TriangleRed)" marker-start="url(#ArrowRed)" ></path>

</g>

</svg>  
          
