<?xml version="1.0" standalone="no"?>
<!DOCTYPE svg PUBLIC "-//W3C//DTD SVG 1.1//EN"   "http://www.w3.org/Graphics/SVG/1.1/DTD/svg11.dtd">
<svg width="751" height="301"  version="1.1" xmlns="http://www.w3.org/2000/svg">
  <defs>
    <marker id="Triangle" viewBox="0 0 10 10" refX="0" refY="5" markerUnits="strokeWidth" markerWidth="3" style="stroke-opacity:0%;fill:#aaaaaa;" markerHeight="2" orient="auto">
      <path d="M 0 0 L 10 5 L 0 10 z" />
    </marker>
    
    <marker id="Arrow" viewBox="0 0 10 10" refX="5" refY="5" markerUnits="strokeWidth" markerWidth="1.8" style="stroke-opacity:0%;fill:#770000;" markerHeight="2" orient="auto">
      <path d="M 0 4 L 6 4 L 4 1 L 10 5 L 4 9 L 6 6 L 0 6 z" />
        <circle cx="5" cy="5" r="5" />
      </marker>
    
    <marker id="TriangleRed" viewBox="0 0 10 10" refX="0" refY="5" markerUnits="strokeWidth" markerWidth="3" style="stroke-opacity:0%;fill:#CC0000;" markerHeight="2" orient="auto">
      <path d="M 0 0 L 10 5 L 0 10 z" />
    </marker>
    
    <marker id="ArrowRed" viewBox="0 0 10 10" refX="5" refY="5" markerUnits="strokeWidth" markerWidth="1.8" style="stroke-opacity:0%;fill:#CC0000;" markerHeight="2" orient="auto">
      <path d="M 0 4 L 6 4 L 4 1 L 10 5 L 4 9 L 6 6 L 0 6 z" />
        <circle cx="5" cy="5" r="5" />
      </marker>
    
  </defs>
  
  <path style="fill:#ffffff; fill-opacity:100%; fill-rule:evenodd; stroke-width:0;" d="M 0 0 L 751 0 L 751 301 L 0 301 L 0 0" />

  <g transform="scale(1.3761467889908 1.3761467889908) translate(0, 0)">
<path style="fill:none; fill-rule:evenodd; stroke:#aaaaaa;  stroke-width:1pt; stroke-linecap:round;" d="m 109 0 L 0 0 L 0 109 L 109 109 L 109 0"></path><path style="fill:none; fill-opacity:0%; fill-rule:evenodd; stroke:#aaaaaa; stroke-opacity:100%; stroke-width: 1.5pt; stroke-linejoin:round; stroke-linecap:round;" d="M52.96 9.68c0.1 0.69-0.01 1.33-0.32 1.94c-1.24 2.86-4.42 6.01-9.65 10.95"></path>
<path style="fill:none; fill-opacity:0%; fill-rule:evenodd; stroke:#aaaaaa; stroke-opacity:100%; stroke-width: 1.5pt; stroke-linejoin:round; stroke-linecap:round;" d="M34.63 23.65c0.8 0.8 1.32 2.1 1.32 3.81c0 6.57-0.17 25.1-0.21 37.3c-0.01 2.04-0.01 3.92-0.01 5.53"></path>
<path style="fill:none; fill-opacity:0%; fill-rule:evenodd; stroke:#aaaaaa; stroke-opacity:100%; stroke-width: 1.5pt; stroke-linejoin:round; stroke-linecap:round;" d="M36.77 26.05c7.48-1.55 23.86-4.43 31.67-5.25c2.88-0.3 4.68 1.63 4.1 4.49c-0.56 2.76-2.21 10.46-3.75 17.07c-0.27 1.15-0.54 2.27-1.04 3.83"></path>
<path style="fill:none; fill-opacity:0%; fill-rule:evenodd; stroke:#aaaaaa; stroke-opacity:100%; stroke-width: 1.5pt; stroke-linejoin:round; stroke-linecap:round;" d="M36.86 36.33c11.14-1.7 24.77-3.45 33.12-3.9"></path>
<path style="fill:none; fill-opacity:0%; fill-rule:evenodd; stroke:#aaaaaa; stroke-opacity:100%; stroke-width: 1.5pt; stroke-linejoin:round; stroke-linecap:round;" d="M36.99 47.73c9.14-1.36 22.89-2.98 30.23-3.47"></path>
<path style="fill:none; fill-opacity:0%; fill-rule:evenodd; stroke:#aaaaaa; stroke-opacity:100%; stroke-width: 1.5pt; stroke-linejoin:round; stroke-linecap:round;" d="M37.03 58.56c11.22-1.31 35.09-4.06 42.22-5.08c2.24-0.32 5.25-0.36 7.13-0.35"></path>
<path style="fill:none; fill-opacity:0%; fill-rule:evenodd; stroke:#aaaaaa; stroke-opacity:100%; stroke-width: 1.5pt; stroke-linejoin:round; stroke-linecap:round;" d="M36.73 69.99c15.77-2.24 35.41-4.4 49.02-5.69c5.75-0.55 7.12 0.95 6 5.78c-2.23 9.56-6.25 18.11-10 24.15c-3.75 6.02-6.25 3.4-9.5 0.25"></path>
<path style="fill:none; fill-opacity:0%; fill-rule:evenodd; stroke:#aaaaaa; stroke-opacity:100%; stroke-width: 1.5pt; stroke-linejoin:round; stroke-linecap:round;" d="M45.9 71.5c0.86 0.86 1.4 1.88 1.4 3.05c0 2.7-0.16 6.7-0.16 11.09"></path>
<path style="fill:none; fill-opacity:0%; fill-rule:evenodd; stroke:#aaaaaa; stroke-opacity:100%; stroke-width: 1.5pt; stroke-linejoin:round; stroke-linecap:round;" d="M26.57 77.43c0.81 0.81 1.14 2.31 1 2.89c-0.82 3.31-1.44 5.93-2.05 8.3c-0.34 1.31 0.53 2.29 1.74 1.97c8.38-2.21 30.5-5.84 40.2-5.94"></path>
<path style="fill:none; fill-opacity:0%; fill-rule:evenodd; stroke:#aaaaaa; stroke-opacity:100%; stroke-width: 1.5pt; stroke-linejoin:round; stroke-linecap:round;" d="M69.68 71.56c0.75 0.75 0.85 1.96 0.75 2.55c-0.68 3.85-1.24 6.07-2.24 11.15c-0.17 0.89-0.36 1.85-0.57 2.92"></path>

<text x="5" y="20" font-size="20" fill="#999999">1</text><path style="fill:none; fill-opacity:0%; fill-rule:evenodd; stroke:#CC0000; stroke-opacity:100%; stroke-width: 3pt; stroke-linejoin:round; stroke-linecap:round;" d="M52.96 9.68c0.1 0.69-0.01 1.33-0.32 1.94c-1.24 2.86-4.42 6.01-9.65 10.95" marker-end="url(#TriangleRed)" marker-start="url(#ArrowRed)" ></path>










</g><g transform="scale(1.3761467889908 1.3761467889908) translate(109, 0)">
<path style="fill:none; fill-rule:evenodd; stroke:#aaaaaa;  stroke-width:1pt; stroke-linecap:round;" d="m 109 0 L 0 0 L 0 109 L 109 109 L 109 0"></path><path style="fill:none; fill-opacity:0%; fill-rule:evenodd; stroke:#aaaaaa; stroke-opacity:100%; stroke-width: 1.5pt; stroke-linejoin:round; stroke-linecap:round;" d="M52.96 9.68c0.1 0.69-0.01 1.33-0.32 1.94c-1.24 2.86-4.42 6.01-9.65 10.95"></path>
<path style="fill:none; fill-opacity:0%; fill-rule:evenodd; stroke:#aaaaaa; stroke-opacity:100%; stroke-width: 1.5pt; stroke-linejoin:round; stroke-linecap:round;" d="M34.63 23.65c0.8 0.8 1.32 2.1 1.32 3.81c0 6.57-0.17 25.1-0.21 37.3c-0.01 2.04-0.01 3.92-0.01 5.53"></path>
<path style="fill:none; fill-opacity:0%; fill-rule:evenodd; stroke:#aaaaaa; stroke-opacity:100%; stroke-width: 1.5pt; stroke-linejoin:round; stroke-linecap:round;" d="M36.77 26.05c7.48-1.55 23.86-4.43 31.67-5.25c2.88-0.3 4.68 1.63 4.1 4.49c-0.56 2.76-2.21 10.46-3.75 17.07c-0.27 1.15-0.54 2.27-1.04 3.83"></path>
<path style="fill:none; fill-opacity:0%; fill-rule:evenodd; stroke:#aaaaaa; stroke-opacity:100%; stroke-width: 1.5pt; stroke-linejoin:round; stroke-linecap:round;" d="M36.86 36.33c11.14-1.7 24.77-3.45 33.12-3.9"></path>
<path style="fill:none; fill-opacity:0%; fill-rule:evenodd; stroke:#aaaaaa; stroke-opacity:100%; stroke-width: 1.5pt; stroke-linejoin:round; stroke-linecap:round;" d="M36.99 47.73c9.14-1.36 22.89-2.98 30.23-3.47"></path>
<path style="fill:none; fill-opacity:0%; fill-rule:evenodd; stroke:#aaaaaa; stroke-opacity:100%; stroke-width: 1.5pt; stroke-linejoin:round; stroke-linecap:round;" d="M37.03 58.56c11.22-1.31 35.09-4.06 42.22-5.08c2.24-0.32 5.25-0.36 7.13-0.35"></path>
<path style="fill:none; fill-opacity:0%; fill-rule:evenodd; stroke:#aaaaaa; stroke-opacity:100%; stroke-width: 1.5pt; stroke-linejoin:round; stroke-linecap:round;" d="M36.73 69.99c15.77-2.24 35.41-4.4 49.02-5.69c5.75-0.55 7.12 0.95 6 5.78c-2.23 9.56-6.25 18.11-10 24.15c-3.75 6.02-6.25 3.4-9.5 0.25"></path>
<path style="fill:none; fill-opacity:0%; fill-rule:evenodd; stroke:#aaaaaa; stroke-opacity:100%; stroke-width: 1.5pt; stroke-linejoin:round; stroke-linecap:round;" d="M45.9 71.5c0.86 0.86 1.4 1.88 1.4 3.05c0 2.7-0.16 6.7-0.16 11.09"></path>
<path style="fill:none; fill-opacity:0%; fill-rule:evenodd; stroke:#aaaaaa; stroke-opacity:100%; stroke-width: 1.5pt; stroke-linejoin:round; stroke-linecap:round;" d="M26.57 77.43c0.81 0.81 1.14 2.31 1 2.89c-0.82 3.31-1.44 5.93-2.05 8.3c-0.34 1.31 0.53 2.29 1.74 1.97c8.38-2.21 30.5-5.84 40.2-5.94"></path>
<path style="fill:none; fill-opacity:0%; fill-rule:evenodd; stroke:#aaaaaa; stroke-opacity:100%; stroke-width: 1.5pt; stroke-linejoin:round; stroke-linecap:round;" d="M69.68 71.56c0.75 0.75 0.85 1.96 0.75 2.55c-0.68 3.85-1.24 6.07-2.24 11.15c-0.17 0.89-0.36 1.85-0.57 2.92"></path>

<path style="fill:none; fill-opacity:0%; fill-rule:evenodd; stroke:#000000; stroke-opacity:100%; stroke-width: 3pt; stroke-linejoin:round; stroke-linecap:round;" d="M52.96 9.68c0.1 0.69-0.01 1.33-0.32 1.94c-1.24 2.86-4.42 6.01-9.65 10.95"></path>
<text x="5" y="20" font-size="20" fill="#999999">2</text><path style="fill:none; fill-opacity:0%; fill-rule:evenodd; stroke:#CC0000; stroke-opacity:100%; stroke-width: 3pt; stroke-linejoin:round; stroke-linecap:round;" d="M34.63 23.65c0.8 0.8 1.32 2.1 1.32 3.81c0 6.57-0.17 25.1-0.21 37.3c-0.01 2.04-0.01 3.92-0.01 5.53" marker-end="url(#TriangleRed)" marker-start="url(#ArrowRed)" ></path>









</g><g transform="scale(1.3761467889908 1.3761467889908) translate(218, 0)">
<path style="fill:none; fill-rule:evenodd; stroke:#aaaaaa;  stroke-width:1pt; stroke-linecap:round;" d="m 109 0 L 0 0 L 0 109 L 109 109 L 109 0"></path><path style="fill:none; fill-opacity:0%; fill-rule:evenodd; stroke:#aaaaaa; stroke-opacity:100%; stroke-width: 1.5pt; stroke-linejoin:round; stroke-linecap:round;" d="M52.96 9.68c0.1 0.69-0.01 1.33-0.32 1.94c-1.24 2.86-4.42 6.01-9.65 10.95"></path>
<path style="fill:none; fill-opacity:0%; fill-rule:evenodd; stroke:#aaaaaa; stroke-opacity:100%; stroke-width: 1.5pt; stroke-linejoin:round; stroke-linecap:round;" d="M34.63 23.65c0.8 0.8 1.32 2.1 1.32 3.81c0 6.57-0.17 25.1-0.21 37.3c-0.01 2.04-0.01 3.92-0.01 5.53"></path>
<path style="fill:none; fill-opacity:0%; fill-rule:evenodd; stroke:#aaaaaa; stroke-opacity:100%; stroke-width: 1.5pt; stroke-linejoin:round; stroke-linecap:round;" d="M36.77 26.05c7.48-1.55 23.86-4.43 31.67-5.25c2.88-0.3 4.68 1.63 4.1 4.49c-0.56 2.76-2.21 10.46-3.75 17.07c-0.27 1.15-0.54 2.27-1.04 3.83"></path>
<path style="fill:none; fill-opacity:0%; fill-rule:evenodd; stroke:#aaaaaa; stroke-opacity:100%; stroke-width: 1.5pt; stroke-linejoin:round; stroke-linecap:round;" d="M36.86 36.33c11.14-1.7 24.77-3.45 33.12-3.9"></path>
<path style="fill:none; fill-opacity:0%; fill-rule:evenodd; stroke:#aaaaaa; stroke-opacity:100%; stroke-width: 1.5pt; stroke-linejoin:round; stroke-linecap:round;" d="M36.99 47.73c9.14-1.36 22.89-2.98 30.23-3.47"></path>
<path style="fill:none; fill-opacity:0%; fill-rule:evenodd; stroke:#aaaaaa; stroke-opacity:100%; stroke-width: 1.5pt; stroke-linejoin:round; stroke-linecap:round;" d="M37.03 58.56c11.22-1.31 35.09-4.06 42.22-5.08c2.24-0.32 5.25-0.36 7.13-0.35"></path>
<path style="fill:none; fill-opacity:0%; fill-rule:evenodd; stroke:#aaaaaa; stroke-opacity:100%; stroke-width: 1.5pt; stroke-linejoin:round; stroke-linecap:round;" d="M36.73 69.99c15.77-2.24 35.41-4.4 49.02-5.69c5.75-0.55 7.12 0.95 6 5.78c-2.23 9.56-6.25 18.11-10 24.15c-3.75 6.02-6.25 3.4-9.5 0.25"></path>
<path style="fill:none; fill-opacity:0%; fill-rule:evenodd; stroke:#aaaaaa; stroke-opacity:100%; stroke-width: 1.5pt; stroke-linejoin:round; stroke-linecap:round;" d="M45.9 71.5c0.86 0.86 1.4 1.88 1.4 3.05c0 2.7-0.16 6.7-0.16 11.09"></path>
<path style="fill:none; fill-opacity:0%; fill-rule:evenodd; stroke:#aaaaaa; stroke-opacity:100%; stroke-width: 1.5pt; stroke-linejoin:round; stroke-linecap:round;" d="M26.57 77.43c0.81 0.81 1.14 2.31 1 2.89c-0.82 3.31-1.44 5.93-2.05 8.3c-0.34 1.31 0.53 2.29 1.74 1.97c8.38-2.21 30.5-5.84 40.2-5.94"></path>
<path style="fill:none; fill-opacity:0%; fill-rule:evenodd; stroke:#aaaaaa; stroke-opacity:100%; stroke-width: 1.5pt; stroke-linejoin:round; stroke-linecap:round;" d="M69.68 71.56c0.75 0.75 0.85 1.96 0.75 2.55c-0.68 3.85-1.24 6.07-2.24 11.15c-0.17 0.89-0.36 1.85-0.57 2.92"></path>

<path style="fill:none; fill-opacity:0%; fill-rule:evenodd; stroke:#000000; stroke-opacity:100%; stroke-width: 3pt; stroke-linejoin:round; stroke-linecap:round;" d="M52.96 9.68c0.1 0.69-0.01 1.33-0.32 1.94c-1.24 2.86-4.42 6.01-9.65 10.95"></path>
<path style="fill:none; fill-opacity:0%; fill-rule:evenodd; stroke:#000000; stroke-opacity:100%; stroke-width: 3pt; stroke-linejoin:round; stroke-linecap:round;" d="M34.63 23.65c0.8 0.8 1.32 2.1 1.32 3.81c0 6.57-0.17 25.1-0.21 37.3c-0.01 2.04-0.01 3.92-0.01 5.53"></path>
<text x="5" y="20" font-size="20" fill="#999999">3</text><path style="fill:none; fill-opacity:0%; fill-rule:evenodd; stroke:#CC0000; stroke-opacity:100%; stroke-width: 3pt; stroke-linejoin:round; stroke-linecap:round;" d="M36.77 26.05c7.48-1.55 23.86-4.43 31.67-5.25c2.88-0.3 4.68 1.63 4.1 4.49c-0.56 2.76-2.21 10.46-3.75 17.07c-0.27 1.15-0.54 2.27-1.04 3.83" marker-end="url(#TriangleRed)" marker-start="url(#ArrowRed)" ></path>








</g><g transform="scale(1.3761467889908 1.3761467889908) translate(327, 0)">
<path style="fill:none; fill-rule:evenodd; stroke:#aaaaaa;  stroke-width:1pt; stroke-linecap:round;" d="m 109 0 L 0 0 L 0 109 L 109 109 L 109 0"></path><path style="fill:none; fill-opacity:0%; fill-rule:evenodd; stroke:#aaaaaa; stroke-opacity:100%; stroke-width: 1.5pt; stroke-linejoin:round; stroke-linecap:round;" d="M52.96 9.68c0.1 0.69-0.01 1.33-0.32 1.94c-1.24 2.86-4.42 6.01-9.65 10.95"></path>
<path style="fill:none; fill-opacity:0%; fill-rule:evenodd; stroke:#aaaaaa; stroke-opacity:100%; stroke-width: 1.5pt; stroke-linejoin:round; stroke-linecap:round;" d="M34.63 23.65c0.8 0.8 1.32 2.1 1.32 3.81c0 6.57-0.17 25.1-0.21 37.3c-0.01 2.04-0.01 3.92-0.01 5.53"></path>
<path style="fill:none; fill-opacity:0%; fill-rule:evenodd; stroke:#aaaaaa; stroke-opacity:100%; stroke-width: 1.5pt; stroke-linejoin:round; stroke-linecap:round;" d="M36.77 26.05c7.48-1.55 23.86-4.43 31.67-5.25c2.88-0.3 4.68 1.63 4.1 4.49c-0.56 2.76-2.21 10.46-3.75 17.07c-0.27 1.15-0.54 2.27-1.04 3.83"></path>
<path style="fill:none; fill-opacity:0%; fill-rule:evenodd; stroke:#aaaaaa; stroke-opacity:100%; stroke-width: 1.5pt; stroke-linejoin:round; stroke-linecap:round;" d="M36.86 36.33c11.14-1.7 24.77-3.45 33.12-3.9"></path>
<path style="fill:none; fill-opacity:0%; fill-rule:evenodd; stroke:#aaaaaa; stroke-opacity:100%; stroke-width: 1.5pt; stroke-linejoin:round; stroke-linecap:round;" d="M36.99 47.73c9.14-1.36 22.89-2.98 30.23-3.47"></path>
<path style="fill:none; fill-opacity:0%; fill-rule:evenodd; stroke:#aaaaaa; stroke-opacity:100%; stroke-width: 1.5pt; stroke-linejoin:round; stroke-linecap:round;" d="M37.03 58.56c11.22-1.31 35.09-4.06 42.22-5.08c2.24-0.32 5.25-0.36 7.13-0.35"></path>
<path style="fill:none; fill-opacity:0%; fill-rule:evenodd; stroke:#aaaaaa; stroke-opacity:100%; stroke-width: 1.5pt; stroke-linejoin:round; stroke-linecap:round;" d="M36.73 69.99c15.77-2.24 35.41-4.4 49.02-5.69c5.75-0.55 7.12 0.95 6 5.78c-2.23 9.56-6.25 18.11-10 24.15c-3.75 6.02-6.25 3.4-9.5 0.25"></path>
<path style="fill:none; fill-opacity:0%; fill-rule:evenodd; stroke:#aaaaaa; stroke-opacity:100%; stroke-width: 1.5pt; stroke-linejoin:round; stroke-linecap:round;" d="M45.9 71.5c0.86 0.86 1.4 1.88 1.4 3.05c0 2.7-0.16 6.7-0.16 11.09"></path>
<path style="fill:none; fill-opacity:0%; fill-rule:evenodd; stroke:#aaaaaa; stroke-opacity:100%; stroke-width: 1.5pt; stroke-linejoin:round; stroke-linecap:round;" d="M26.57 77.43c0.81 0.81 1.14 2.31 1 2.89c-0.82 3.31-1.44 5.93-2.05 8.3c-0.34 1.31 0.53 2.29 1.74 1.97c8.38-2.21 30.5-5.84 40.2-5.94"></path>
<path style="fill:none; fill-opacity:0%; fill-rule:evenodd; stroke:#aaaaaa; stroke-opacity:100%; stroke-width: 1.5pt; stroke-linejoin:round; stroke-linecap:round;" d="M69.68 71.56c0.75 0.75 0.85 1.96 0.75 2.55c-0.68 3.85-1.24 6.07-2.24 11.15c-0.17 0.89-0.36 1.85-0.57 2.92"></path>

<path style="fill:none; fill-opacity:0%; fill-rule:evenodd; stroke:#000000; stroke-opacity:100%; stroke-width: 3pt; stroke-linejoin:round; stroke-linecap:round;" d="M52.96 9.68c0.1 0.69-0.01 1.33-0.32 1.94c-1.24 2.86-4.42 6.01-9.65 10.95"></path>
<path style="fill:none; fill-opacity:0%; fill-rule:evenodd; stroke:#000000; stroke-opacity:100%; stroke-width: 3pt; stroke-linejoin:round; stroke-linecap:round;" d="M34.63 23.65c0.8 0.8 1.32 2.1 1.32 3.81c0 6.57-0.17 25.1-0.21 37.3c-0.01 2.04-0.01 3.92-0.01 5.53"></path>
<path style="fill:none; fill-opacity:0%; fill-rule:evenodd; stroke:#000000; stroke-opacity:100%; stroke-width: 3pt; stroke-linejoin:round; stroke-linecap:round;" d="M36.77 26.05c7.48-1.55 23.86-4.43 31.67-5.25c2.88-0.3 4.68 1.63 4.1 4.49c-0.56 2.76-2.21 10.46-3.75 17.07c-0.27 1.15-0.54 2.27-1.04 3.83"></path>
<text x="5" y="20" font-size="20" fill="#999999">4</text><path style="fill:none; fill-opacity:0%; fill-rule:evenodd; stroke:#CC0000; stroke-opacity:100%; stroke-width: 3pt; stroke-linejoin:round; stroke-linecap:round;" d="M36.86 36.33c11.14-1.7 24.77-3.45 33.12-3.9" marker-end="url(#TriangleRed)" marker-start="url(#ArrowRed)" ></path>







</g><g transform="scale(1.3761467889908 1.3761467889908) translate(436, 0)">
<path style="fill:none; fill-rule:evenodd; stroke:#aaaaaa;  stroke-width:1pt; stroke-linecap:round;" d="m 109 0 L 0 0 L 0 109 L 109 109 L 109 0"></path><path style="fill:none; fill-opacity:0%; fill-rule:evenodd; stroke:#aaaaaa; stroke-opacity:100%; stroke-width: 1.5pt; stroke-linejoin:round; stroke-linecap:round;" d="M52.96 9.68c0.1 0.69-0.01 1.33-0.32 1.94c-1.24 2.86-4.42 6.01-9.65 10.95"></path>
<path style="fill:none; fill-opacity:0%; fill-rule:evenodd; stroke:#aaaaaa; stroke-opacity:100%; stroke-width: 1.5pt; stroke-linejoin:round; stroke-linecap:round;" d="M34.63 23.65c0.8 0.8 1.32 2.1 1.32 3.81c0 6.57-0.17 25.1-0.21 37.3c-0.01 2.04-0.01 3.92-0.01 5.53"></path>
<path style="fill:none; fill-opacity:0%; fill-rule:evenodd; stroke:#aaaaaa; stroke-opacity:100%; stroke-width: 1.5pt; stroke-linejoin:round; stroke-linecap:round;" d="M36.77 26.05c7.48-1.55 23.86-4.43 31.67-5.25c2.88-0.3 4.68 1.63 4.1 4.49c-0.56 2.76-2.21 10.46-3.75 17.07c-0.27 1.15-0.54 2.27-1.04 3.83"></path>
<path style="fill:none; fill-opacity:0%; fill-rule:evenodd; stroke:#aaaaaa; stroke-opacity:100%; stroke-width: 1.5pt; stroke-linejoin:round; stroke-linecap:round;" d="M36.86 36.33c11.14-1.7 24.77-3.45 33.12-3.9"></path>
<path style="fill:none; fill-opacity:0%; fill-rule:evenodd; stroke:#aaaaaa; stroke-opacity:100%; stroke-width: 1.5pt; stroke-linejoin:round; stroke-linecap:round;" d="M36.99 47.73c9.14-1.36 22.89-2.98 30.23-3.47"></path>
<path style="fill:none; fill-opacity:0%; fill-rule:evenodd; stroke:#aaaaaa; stroke-opacity:100%; stroke-width: 1.5pt; stroke-linejoin:round; stroke-linecap:round;" d="M37.03 58.56c11.22-1.31 35.09-4.06 42.22-5.08c2.24-0.32 5.25-0.36 7.13-0.35"></path>
<path style="fill:none; fill-opacity:0%; fill-rule:evenodd; stroke:#aaaaaa; stroke-opacity:100%; stroke-width: 1.5pt; stroke-linejoin:round; stroke-linecap:round;" d="M36.73 69.99c15.77-2.24 35.41-4.4 49.02-5.69c5.75-0.55 7.12 0.95 6 5.78c-2.23 9.56-6.25 18.11-10 24.15c-3.75 6.02-6.25 3.4-9.5 0.25"></path>
<path style="fill:none; fill-opacity:0%; fill-rule:evenodd; stroke:#aaaaaa; stroke-opacity:100%; stroke-width: 1.5pt; stroke-linejoin:round; stroke-linecap:round;" d="M45.9 71.5c0.86 0.86 1.4 1.88 1.4 3.05c0 2.7-0.16 6.7-0.16 11.09"></path>
<path style="fill:none; fill-opacity:0%; fill-rule:evenodd; stroke:#aaaaaa; stroke-opacity:100%; stroke-width: 1.5pt; stroke-linejoin:round; stroke-linecap:round;" d="M26.57 77.43c0.81 0.81 1.14 2.31 1 2.89c-0.82 3.31-1.44 5.93-2.05 8.3c-0.34 1.31 0.53 2.29 1.74 1.97c8.38-2.21 30.5-5.84 40.2-5.94"></path>
<path style="fill:none; fill-opacity:0%; fill-rule:evenodd; stroke:#aaaaaa; stroke-opacity:100%; stroke-width: 1.5pt; stroke-linejoin:round; stroke-linecap:round;" d="M69.68 71.56c0.75 0.75 0.85 1.96 0.75 2.55c-0.68 3.85-1.24 6.07-2.24 11.15c-0.17 0.89-0.36 1.85-0.57 2.92"></path>

<path style="fill:none; fill-opacity:0%; fill-rule:evenodd; stroke:#000000; stroke-opacity:100%; stroke-width: 3pt; stroke-linejoin:round; stroke-linecap:round;" d="M52.96 9.68c0.1 0.69-0.01 1.33-0.32 1.94c-1.24 2.86-4.42 6.01-9.65 10.95"></path>
<path style="fill:none; fill-opacity:0%; fill-rule:evenodd; stroke:#000000; stroke-opacity:100%; stroke-width: 3pt; stroke-linejoin:round; stroke-linecap:round;" d="M34.63 23.65c0.8 0.8 1.32 2.1 1.32 3.81c0 6.57-0.17 25.1-0.21 37.3c-0.01 2.04-0.01 3.92-0.01 5.53"></path>
<path style="fill:none; fill-opacity:0%; fill-rule:evenodd; stroke:#000000; stroke-opacity:100%; stroke-width: 3pt; stroke-linejoin:round; stroke-linecap:round;" d="M36.77 26.05c7.48-1.55 23.86-4.43 31.67-5.25c2.88-0.3 4.68 1.63 4.1 4.49c-0.56 2.76-2.21 10.46-3.75 17.07c-0.27 1.15-0.54 2.27-1.04 3.83"></path>
<path style="fill:none; fill-opacity:0%; fill-rule:evenodd; stroke:#000000; stroke-opacity:100%; stroke-width: 3pt; stroke-linejoin:round; stroke-linecap:round;" d="M36.86 36.33c11.14-1.7 24.77-3.45 33.12-3.9"></path>
<text x="5" y="20" font-size="20" fill="#999999">5</text><path style="fill:none; fill-opacity:0%; fill-rule:evenodd; stroke:#CC0000; stroke-opacity:100%; stroke-width: 3pt; stroke-linejoin:round; stroke-linecap:round;" d="M36.99 47.73c9.14-1.36 22.89-2.98 30.23-3.47" marker-end="url(#TriangleRed)" marker-start="url(#ArrowRed)" ></path>






</g><g transform="scale(1.3761467889908 1.3761467889908) translate(0, 109)">
<path style="fill:none; fill-rule:evenodd; stroke:#aaaaaa;  stroke-width:1pt; stroke-linecap:round;" d="m 109 0 L 0 0 L 0 109 L 109 109 L 109 0"></path><path style="fill:none; fill-opacity:0%; fill-rule:evenodd; stroke:#aaaaaa; stroke-opacity:100%; stroke-width: 1.5pt; stroke-linejoin:round; stroke-linecap:round;" d="M52.96 9.68c0.1 0.69-0.01 1.33-0.32 1.94c-1.24 2.86-4.42 6.01-9.65 10.95"></path>
<path style="fill:none; fill-opacity:0%; fill-rule:evenodd; stroke:#aaaaaa; stroke-opacity:100%; stroke-width: 1.5pt; stroke-linejoin:round; stroke-linecap:round;" d="M34.63 23.65c0.8 0.8 1.32 2.1 1.32 3.81c0 6.57-0.17 25.1-0.21 37.3c-0.01 2.04-0.01 3.92-0.01 5.53"></path>
<path style="fill:none; fill-opacity:0%; fill-rule:evenodd; stroke:#aaaaaa; stroke-opacity:100%; stroke-width: 1.5pt; stroke-linejoin:round; stroke-linecap:round;" d="M36.77 26.05c7.48-1.55 23.86-4.43 31.67-5.25c2.88-0.3 4.68 1.63 4.1 4.49c-0.56 2.76-2.21 10.46-3.75 17.07c-0.27 1.15-0.54 2.27-1.04 3.83"></path>
<path style="fill:none; fill-opacity:0%; fill-rule:evenodd; stroke:#aaaaaa; stroke-opacity:100%; stroke-width: 1.5pt; stroke-linejoin:round; stroke-linecap:round;" d="M36.86 36.33c11.14-1.7 24.77-3.45 33.12-3.9"></path>
<path style="fill:none; fill-opacity:0%; fill-rule:evenodd; stroke:#aaaaaa; stroke-opacity:100%; stroke-width: 1.5pt; stroke-linejoin:round; stroke-linecap:round;" d="M36.99 47.73c9.14-1.36 22.89-2.98 30.23-3.47"></path>
<path style="fill:none; fill-opacity:0%; fill-rule:evenodd; stroke:#aaaaaa; stroke-opacity:100%; stroke-width: 1.5pt; stroke-linejoin:round; stroke-linecap:round;" d="M37.03 58.56c11.22-1.31 35.09-4.06 42.22-5.08c2.24-0.32 5.25-0.36 7.13-0.35"></path>
<path style="fill:none; fill-opacity:0%; fill-rule:evenodd; stroke:#aaaaaa; stroke-opacity:100%; stroke-width: 1.5pt; stroke-linejoin:round; stroke-linecap:round;" d="M36.73 69.99c15.77-2.24 35.41-4.4 49.02-5.69c5.75-0.55 7.12 0.95 6 5.78c-2.23 9.56-6.25 18.11-10 24.15c-3.75 6.02-6.25 3.4-9.5 0.25"></path>
<path style="fill:none; fill-opacity:0%; fill-rule:evenodd; stroke:#aaaaaa; stroke-opacity:100%; stroke-width: 1.5pt; stroke-linejoin:round; stroke-linecap:round;" d="M45.9 71.5c0.86 0.86 1.4 1.88 1.4 3.05c0 2.7-0.16 6.7-0.16 11.09"></path>
<path style="fill:none; fill-opacity:0%; fill-rule:evenodd; stroke:#aaaaaa; stroke-opacity:100%; stroke-width: 1.5pt; stroke-linejoin:round; stroke-linecap:round;" d="M26.57 77.43c0.81 0.81 1.14 2.31 1 2.89c-0.82 3.31-1.44 5.93-2.05 8.3c-0.34 1.31 0.53 2.29 1.74 1.97c8.38-2.21 30.5-5.84 40.2-5.94"></path>
<path style="fill:none; fill-opacity:0%; fill-rule:evenodd; stroke:#aaaaaa; stroke-opacity:100%; stroke-width: 1.5pt; stroke-linejoin:round; stroke-linecap:round;" d="M69.68 71.56c0.75 0.75 0.85 1.96 0.75 2.55c-0.68 3.85-1.24 6.07-2.24 11.15c-0.17 0.89-0.36 1.85-0.57 2.92"></path>

<path style="fill:none; fill-opacity:0%; fill-rule:evenodd; stroke:#000000; stroke-opacity:100%; stroke-width: 3pt; stroke-linejoin:round; stroke-linecap:round;" d="M52.96 9.68c0.1 0.69-0.01 1.33-0.32 1.94c-1.24 2.86-4.42 6.01-9.65 10.95"></path>
<path style="fill:none; fill-opacity:0%; fill-rule:evenodd; stroke:#000000; stroke-opacity:100%; stroke-width: 3pt; stroke-linejoin:round; stroke-linecap:round;" d="M34.63 23.65c0.8 0.8 1.32 2.1 1.32 3.81c0 6.57-0.17 25.1-0.21 37.3c-0.01 2.04-0.01 3.92-0.01 5.53"></path>
<path style="fill:none; fill-opacity:0%; fill-rule:evenodd; stroke:#000000; stroke-opacity:100%; stroke-width: 3pt; stroke-linejoin:round; stroke-linecap:round;" d="M36.77 26.05c7.48-1.55 23.86-4.43 31.67-5.25c2.88-0.3 4.68 1.63 4.1 4.49c-0.56 2.76-2.21 10.46-3.75 17.07c-0.27 1.15-0.54 2.27-1.04 3.83"></path>
<path style="fill:none; fill-opacity:0%; fill-rule:evenodd; stroke:#000000; stroke-opacity:100%; stroke-width: 3pt; stroke-linejoin:round; stroke-linecap:round;" d="M36.86 36.33c11.14-1.7 24.77-3.45 33.12-3.9"></path>
<path style="fill:none; fill-opacity:0%; fill-rule:evenodd; stroke:#000000; stroke-opacity:100%; stroke-width: 3pt; stroke-linejoin:round; stroke-linecap:round;" d="M36.99 47.73c9.14-1.36 22.89-2.98 30.23-3.47"></path>
<text x="5" y="20" font-size="20" fill="#999999">6</text><path style="fill:none; fill-opacity:0%; fill-rule:evenodd; stroke:#CC0000; stroke-opacity:100%; stroke-width: 3pt; stroke-linejoin:round; stroke-linecap:round;" d="M37.03 58.56c11.22-1.31 35.09-4.06 42.22-5.08c2.24-0.32 5.25-0.36 7.13-0.35" marker-end="url(#TriangleRed)" marker-start="url(#ArrowRed)" ></path>





</g><g transform="scale(1.3761467889908 1.3761467889908) translate(109, 109)">
<path style="fill:none; fill-rule:evenodd; stroke:#aaaaaa;  stroke-width:1pt; stroke-linecap:round;" d="m 109 0 L 0 0 L 0 109 L 109 109 L 109 0"></path><path style="fill:none; fill-opacity:0%; fill-rule:evenodd; stroke:#aaaaaa; stroke-opacity:100%; stroke-width: 1.5pt; stroke-linejoin:round; stroke-linecap:round;" d="M52.96 9.68c0.1 0.69-0.01 1.33-0.32 1.94c-1.24 2.86-4.42 6.01-9.65 10.95"></path>
<path style="fill:none; fill-opacity:0%; fill-rule:evenodd; stroke:#aaaaaa; stroke-opacity:100%; stroke-width: 1.5pt; stroke-linejoin:round; stroke-linecap:round;" d="M34.63 23.65c0.8 0.8 1.32 2.1 1.32 3.81c0 6.57-0.17 25.1-0.21 37.3c-0.01 2.04-0.01 3.92-0.01 5.53"></path>
<path style="fill:none; fill-opacity:0%; fill-rule:evenodd; stroke:#aaaaaa; stroke-opacity:100%; stroke-width: 1.5pt; stroke-linejoin:round; stroke-linecap:round;" d="M36.77 26.05c7.48-1.55 23.86-4.43 31.67-5.25c2.88-0.3 4.68 1.63 4.1 4.49c-0.56 2.76-2.21 10.46-3.75 17.07c-0.27 1.15-0.54 2.27-1.04 3.83"></path>
<path style="fill:none; fill-opacity:0%; fill-rule:evenodd; stroke:#aaaaaa; stroke-opacity:100%; stroke-width: 1.5pt; stroke-linejoin:round; stroke-linecap:round;" d="M36.86 36.33c11.14-1.7 24.77-3.45 33.12-3.9"></path>
<path style="fill:none; fill-opacity:0%; fill-rule:evenodd; stroke:#aaaaaa; stroke-opacity:100%; stroke-width: 1.5pt; stroke-linejoin:round; stroke-linecap:round;" d="M36.99 47.73c9.14-1.36 22.89-2.98 30.23-3.47"></path>
<path style="fill:none; fill-opacity:0%; fill-rule:evenodd; stroke:#aaaaaa; stroke-opacity:100%; stroke-width: 1.5pt; stroke-linejoin:round; stroke-linecap:round;" d="M37.03 58.56c11.22-1.31 35.09-4.06 42.22-5.08c2.24-0.32 5.25-0.36 7.13-0.35"></path>
<path style="fill:none; fill-opacity:0%; fill-rule:evenodd; stroke:#aaaaaa; stroke-opacity:100%; stroke-width: 1.5pt; stroke-linejoin:round; stroke-linecap:round;" d="M36.73 69.99c15.77-2.24 35.41-4.4 49.02-5.69c5.75-0.55 7.12 0.95 6 5.78c-2.23 9.56-6.25 18.11-10 24.15c-3.75 6.02-6.25 3.4-9.5 0.25"></path>
<path style="fill:none; fill-opacity:0%; fill-rule:evenodd; stroke:#aaaaaa; stroke-opacity:100%; stroke-width: 1.5pt; stroke-linejoin:round; stroke-linecap:round;" d="M45.9 71.5c0.86 0.86 1.4 1.88 1.4 3.05c0 2.7-0.16 6.7-0.16 11.09"></path>
<path style="fill:none; fill-opacity:0%; fill-rule:evenodd; stroke:#aaaaaa; stroke-opacity:100%; stroke-width: 1.5pt; stroke-linejoin:round; stroke-linecap:round;" d="M26.57 77.43c0.81 0.81 1.14 2.31 1 2.89c-0.82 3.31-1.44 5.93-2.05 8.3c-0.34 1.31 0.53 2.29 1.74 1.97c8.38-2.21 30.5-5.84 40.2-5.94"></path>
<path style="fill:none; fill-opacity:0%; fill-rule:evenodd; stroke:#aaaaaa; stroke-opacity:100%; stroke-width: 1.5pt; stroke-linejoin:round; stroke-linecap:round;" d="M69.68 71.56c0.75 0.75 0.85 1.96 0.75 2.55c-0.68 3.85-1.24 6.07-2.24 11.15c-0.17 0.89-0.36 1.85-0.57 2.92"></path>

<path style="fill:none; fill-opacity:0%; fill-rule:evenodd; stroke:#000000; stroke-opacity:100%; stroke-width: 3pt; stroke-linejoin:round; stroke-linecap:round;" d="M52.96 9.68c0.1 0.69-0.01 1.33-0.32 1.94c-1.24 2.86-4.42 6.01-9.65 10.95"></path>
<path style="fill:none; fill-opacity:0%; fill-rule:evenodd; stroke:#000000; stroke-opacity:100%; stroke-width: 3pt; stroke-linejoin:round; stroke-linecap:round;" d="M34.63 23.65c0.8 0.8 1.32 2.1 1.32 3.81c0 6.57-0.17 25.1-0.21 37.3c-0.01 2.04-0.01 3.92-0.01 5.53"></path>
<path style="fill:none; fill-opacity:0%; fill-rule:evenodd; stroke:#000000; stroke-opacity:100%; stroke-width: 3pt; stroke-linejoin:round; stroke-linecap:round;" d="M36.77 26.05c7.48-1.55 23.86-4.43 31.67-5.25c2.88-0.3 4.68 1.63 4.1 4.49c-0.56 2.76-2.21 10.46-3.75 17.07c-0.27 1.15-0.54 2.27-1.04 3.83"></path>
<path style="fill:none; fill-opacity:0%; fill-rule:evenodd; stroke:#000000; stroke-opacity:100%; stroke-width: 3pt; stroke-linejoin:round; stroke-linecap:round;" d="M36.86 36.33c11.14-1.7 24.77-3.45 33.12-3.9"></path>
<path style="fill:none; fill-opacity:0%; fill-rule:evenodd; stroke:#000000; stroke-opacity:100%; stroke-width: 3pt; stroke-linejoin:round; stroke-linecap:round;" d="M36.99 47.73c9.14-1.36 22.89-2.98 30.23-3.47"></path>
<path style="fill:none; fill-opacity:0%; fill-rule:evenodd; stroke:#000000; stroke-opacity:100%; stroke-width: 3pt; stroke-linejoin:round; stroke-linecap:round;" d="M37.03 58.56c11.22-1.31 35.09-4.06 42.22-5.08c2.24-0.32 5.25-0.36 7.13-0.35"></path>
<text x="5" y="20" font-size="20" fill="#999999">7</text><path style="fill:none; fill-opacity:0%; fill-rule:evenodd; stroke:#CC0000; stroke-opacity:100%; stroke-width: 3pt; stroke-linejoin:round; stroke-linecap:round;" d="M36.73 69.99c15.77-2.24 35.41-4.4 49.02-5.69c5.75-0.55 7.12 0.95 6 5.78c-2.23 9.56-6.25 18.11-10 24.15c-3.75 6.02-6.25 3.4-9.5 0.25" marker-end="url(#TriangleRed)" marker-start="url(#ArrowRed)" ></path>




</g><g transform="scale(1.3761467889908 1.3761467889908) translate(218, 109)">
<path style="fill:none; fill-rule:evenodd; stroke:#aaaaaa;  stroke-width:1pt; stroke-linecap:round;" d="m 109 0 L 0 0 L 0 109 L 109 109 L 109 0"></path><path style="fill:none; fill-opacity:0%; fill-rule:evenodd; stroke:#aaaaaa; stroke-opacity:100%; stroke-width: 1.5pt; stroke-linejoin:round; stroke-linecap:round;" d="M52.96 9.68c0.1 0.69-0.01 1.33-0.32 1.94c-1.24 2.86-4.42 6.01-9.65 10.95"></path>
<path style="fill:none; fill-opacity:0%; fill-rule:evenodd; stroke:#aaaaaa; stroke-opacity:100%; stroke-width: 1.5pt; stroke-linejoin:round; stroke-linecap:round;" d="M34.63 23.65c0.8 0.8 1.32 2.1 1.32 3.81c0 6.57-0.17 25.1-0.21 37.3c-0.01 2.04-0.01 3.92-0.01 5.53"></path>
<path style="fill:none; fill-opacity:0%; fill-rule:evenodd; stroke:#aaaaaa; stroke-opacity:100%; stroke-width: 1.5pt; stroke-linejoin:round; stroke-linecap:round;" d="M36.77 26.05c7.48-1.55 23.86-4.43 31.67-5.25c2.88-0.3 4.68 1.63 4.1 4.49c-0.56 2.76-2.21 10.46-3.75 17.07c-0.27 1.15-0.54 2.27-1.04 3.83"></path>
<path style="fill:none; fill-opacity:0%; fill-rule:evenodd; stroke:#aaaaaa; stroke-opacity:100%; stroke-width: 1.5pt; stroke-linejoin:round; stroke-linecap:round;" d="M36.86 36.33c11.14-1.7 24.77-3.45 33.12-3.9"></path>
<path style="fill:none; fill-opacity:0%; fill-rule:evenodd; stroke:#aaaaaa; stroke-opacity:100%; stroke-width: 1.5pt; stroke-linejoin:round; stroke-linecap:round;" d="M36.99 47.73c9.14-1.36 22.89-2.98 30.23-3.47"></path>
<path style="fill:none; fill-opacity:0%; fill-rule:evenodd; stroke:#aaaaaa; stroke-opacity:100%; stroke-width: 1.5pt; stroke-linejoin:round; stroke-linecap:round;" d="M37.03 58.56c11.22-1.31 35.09-4.06 42.22-5.08c2.24-0.32 5.25-0.36 7.13-0.35"></path>
<path style="fill:none; fill-opacity:0%; fill-rule:evenodd; stroke:#aaaaaa; stroke-opacity:100%; stroke-width: 1.5pt; stroke-linejoin:round; stroke-linecap:round;" d="M36.73 69.99c15.77-2.24 35.41-4.4 49.02-5.69c5.75-0.55 7.12 0.95 6 5.78c-2.23 9.56-6.25 18.11-10 24.15c-3.75 6.02-6.25 3.4-9.5 0.25"></path>
<path style="fill:none; fill-opacity:0%; fill-rule:evenodd; stroke:#aaaaaa; stroke-opacity:100%; stroke-width: 1.5pt; stroke-linejoin:round; stroke-linecap:round;" d="M45.9 71.5c0.86 0.86 1.4 1.88 1.4 3.05c0 2.7-0.16 6.7-0.16 11.09"></path>
<path style="fill:none; fill-opacity:0%; fill-rule:evenodd; stroke:#aaaaaa; stroke-opacity:100%; stroke-width: 1.5pt; stroke-linejoin:round; stroke-linecap:round;" d="M26.57 77.43c0.81 0.81 1.14 2.31 1 2.89c-0.82 3.31-1.44 5.93-2.05 8.3c-0.34 1.31 0.53 2.29 1.74 1.97c8.38-2.21 30.5-5.84 40.2-5.94"></path>
<path style="fill:none; fill-opacity:0%; fill-rule:evenodd; stroke:#aaaaaa; stroke-opacity:100%; stroke-width: 1.5pt; stroke-linejoin:round; stroke-linecap:round;" d="M69.68 71.56c0.75 0.75 0.85 1.96 0.75 2.55c-0.68 3.85-1.24 6.07-2.24 11.15c-0.17 0.89-0.36 1.85-0.57 2.92"></path>

<path style="fill:none; fill-opacity:0%; fill-rule:evenodd; stroke:#000000; stroke-opacity:100%; stroke-width: 3pt; stroke-linejoin:round; stroke-linecap:round;" d="M52.96 9.68c0.1 0.69-0.01 1.33-0.32 1.94c-1.24 2.86-4.42 6.01-9.65 10.95"></path>
<path style="fill:none; fill-opacity:0%; fill-rule:evenodd; stroke:#000000; stroke-opacity:100%; stroke-width: 3pt; stroke-linejoin:round; stroke-linecap:round;" d="M34.63 23.65c0.8 0.8 1.32 2.1 1.32 3.81c0 6.57-0.17 25.1-0.21 37.3c-0.01 2.04-0.01 3.92-0.01 5.53"></path>
<path style="fill:none; fill-opacity:0%; fill-rule:evenodd; stroke:#000000; stroke-opacity:100%; stroke-width: 3pt; stroke-linejoin:round; stroke-linecap:round;" d="M36.77 26.05c7.48-1.55 23.86-4.43 31.67-5.25c2.88-0.3 4.68 1.63 4.1 4.49c-0.56 2.76-2.21 10.46-3.75 17.07c-0.27 1.15-0.54 2.27-1.04 3.83"></path>
<path style="fill:none; fill-opacity:0%; fill-rule:evenodd; stroke:#000000; stroke-opacity:100%; stroke-width: 3pt; stroke-linejoin:round; stroke-linecap:round;" d="M36.86 36.33c11.14-1.7 24.77-3.45 33.12-3.9"></path>
<path style="fill:none; fill-opacity:0%; fill-rule:evenodd; stroke:#000000; stroke-opacity:100%; stroke-width: 3pt; stroke-linejoin:round; stroke-linecap:round;" d="M36.99 47.73c9.14-1.36 22.89-2.98 30.23-3.47"></path>
<path style="fill:none; fill-opacity:0%; fill-rule:evenodd; stroke:#000000; stroke-opacity:100%; stroke-width: 3pt; stroke-linejoin:round; stroke-linecap:round;" d="M37.03 58.56c11.22-1.31 35.09-4.06 42.22-5.08c2.24-0.32 5.25-0.36 7.13-0.35"></path>
<path style="fill:none; fill-opacity:0%; fill-rule:evenodd; stroke:#000000; stroke-opacity:100%; stroke-width: 3pt; stroke-linejoin:round; stroke-linecap:round;" d="M36.73 69.99c15.77-2.24 35.41-4.4 49.02-5.69c5.75-0.55 7.12 0.95 6 5.78c-2.23 9.56-6.25 18.11-10 24.15c-3.75 6.02-6.25 3.4-9.5 0.25"></path>
<text x="5" y="20" font-size="20" fill="#999999">8</text><path style="fill:none; fill-opacity:0%; fill-rule:evenodd; stroke:#CC0000; stroke-opacity:100%; stroke-width: 3pt; stroke-linejoin:round; stroke-linecap:round;" d="M45.9 71.5c0.86 0.86 1.4 1.88 1.4 3.05c0 2.7-0.16 6.7-0.16 11.09" marker-end="url(#TriangleRed)" marker-start="url(#ArrowRed)" ></path>



</g><g transform="scale(1.3761467889908 1.3761467889908) translate(327, 109)">
<path style="fill:none; fill-rule:evenodd; stroke:#aaaaaa;  stroke-width:1pt; stroke-linecap:round;" d="m 109 0 L 0 0 L 0 109 L 109 109 L 109 0"></path><path style="fill:none; fill-opacity:0%; fill-rule:evenodd; stroke:#aaaaaa; stroke-opacity:100%; stroke-width: 1.5pt; stroke-linejoin:round; stroke-linecap:round;" d="M52.96 9.68c0.1 0.69-0.01 1.33-0.32 1.94c-1.24 2.86-4.42 6.01-9.65 10.95"></path>
<path style="fill:none; fill-opacity:0%; fill-rule:evenodd; stroke:#aaaaaa; stroke-opacity:100%; stroke-width: 1.5pt; stroke-linejoin:round; stroke-linecap:round;" d="M34.63 23.65c0.8 0.8 1.32 2.1 1.32 3.81c0 6.57-0.17 25.1-0.21 37.3c-0.01 2.04-0.01 3.92-0.01 5.53"></path>
<path style="fill:none; fill-opacity:0%; fill-rule:evenodd; stroke:#aaaaaa; stroke-opacity:100%; stroke-width: 1.5pt; stroke-linejoin:round; stroke-linecap:round;" d="M36.77 26.05c7.48-1.55 23.86-4.43 31.67-5.25c2.88-0.3 4.68 1.63 4.1 4.49c-0.56 2.76-2.21 10.46-3.75 17.07c-0.27 1.15-0.54 2.27-1.04 3.83"></path>
<path style="fill:none; fill-opacity:0%; fill-rule:evenodd; stroke:#aaaaaa; stroke-opacity:100%; stroke-width: 1.5pt; stroke-linejoin:round; stroke-linecap:round;" d="M36.86 36.33c11.14-1.7 24.77-3.45 33.12-3.9"></path>
<path style="fill:none; fill-opacity:0%; fill-rule:evenodd; stroke:#aaaaaa; stroke-opacity:100%; stroke-width: 1.5pt; stroke-linejoin:round; stroke-linecap:round;" d="M36.99 47.73c9.14-1.36 22.89-2.98 30.23-3.47"></path>
<path style="fill:none; fill-opacity:0%; fill-rule:evenodd; stroke:#aaaaaa; stroke-opacity:100%; stroke-width: 1.5pt; stroke-linejoin:round; stroke-linecap:round;" d="M37.03 58.56c11.22-1.31 35.09-4.06 42.22-5.08c2.24-0.32 5.25-0.36 7.13-0.35"></path>
<path style="fill:none; fill-opacity:0%; fill-rule:evenodd; stroke:#aaaaaa; stroke-opacity:100%; stroke-width: 1.5pt; stroke-linejoin:round; stroke-linecap:round;" d="M36.73 69.99c15.77-2.24 35.41-4.4 49.02-5.69c5.75-0.55 7.12 0.95 6 5.78c-2.23 9.56-6.25 18.11-10 24.15c-3.75 6.02-6.25 3.4-9.5 0.25"></path>
<path style="fill:none; fill-opacity:0%; fill-rule:evenodd; stroke:#aaaaaa; stroke-opacity:100%; stroke-width: 1.5pt; stroke-linejoin:round; stroke-linecap:round;" d="M45.9 71.5c0.86 0.86 1.4 1.88 1.4 3.05c0 2.7-0.16 6.7-0.16 11.09"></path>
<path style="fill:none; fill-opacity:0%; fill-rule:evenodd; stroke:#aaaaaa; stroke-opacity:100%; stroke-width: 1.5pt; stroke-linejoin:round; stroke-linecap:round;" d="M26.57 77.43c0.81 0.81 1.14 2.31 1 2.89c-0.82 3.31-1.44 5.93-2.05 8.3c-0.34 1.31 0.53 2.29 1.74 1.97c8.38-2.21 30.5-5.84 40.2-5.94"></path>
<path style="fill:none; fill-opacity:0%; fill-rule:evenodd; stroke:#aaaaaa; stroke-opacity:100%; stroke-width: 1.5pt; stroke-linejoin:round; stroke-linecap:round;" d="M69.68 71.56c0.75 0.75 0.85 1.96 0.75 2.55c-0.68 3.85-1.24 6.07-2.24 11.15c-0.17 0.89-0.36 1.85-0.57 2.92"></path>

<path style="fill:none; fill-opacity:0%; fill-rule:evenodd; stroke:#000000; stroke-opacity:100%; stroke-width: 3pt; stroke-linejoin:round; stroke-linecap:round;" d="M52.96 9.68c0.1 0.69-0.01 1.33-0.32 1.94c-1.24 2.86-4.42 6.01-9.65 10.95"></path>
<path style="fill:none; fill-opacity:0%; fill-rule:evenodd; stroke:#000000; stroke-opacity:100%; stroke-width: 3pt; stroke-linejoin:round; stroke-linecap:round;" d="M34.63 23.65c0.8 0.8 1.32 2.1 1.32 3.81c0 6.57-0.17 25.1-0.21 37.3c-0.01 2.04-0.01 3.92-0.01 5.53"></path>
<path style="fill:none; fill-opacity:0%; fill-rule:evenodd; stroke:#000000; stroke-opacity:100%; stroke-width: 3pt; stroke-linejoin:round; stroke-linecap:round;" d="M36.77 26.05c7.48-1.55 23.86-4.43 31.67-5.25c2.88-0.3 4.68 1.63 4.1 4.49c-0.56 2.76-2.21 10.46-3.75 17.07c-0.27 1.15-0.54 2.27-1.04 3.83"></path>
<path style="fill:none; fill-opacity:0%; fill-rule:evenodd; stroke:#000000; stroke-opacity:100%; stroke-width: 3pt; stroke-linejoin:round; stroke-linecap:round;" d="M36.86 36.33c11.14-1.7 24.77-3.45 33.12-3.9"></path>
<path style="fill:none; fill-opacity:0%; fill-rule:evenodd; stroke:#000000; stroke-opacity:100%; stroke-width: 3pt; stroke-linejoin:round; stroke-linecap:round;" d="M36.99 47.73c9.14-1.36 22.89-2.98 30.23-3.47"></path>
<path style="fill:none; fill-opacity:0%; fill-rule:evenodd; stroke:#000000; stroke-opacity:100%; stroke-width: 3pt; stroke-linejoin:round; stroke-linecap:round;" d="M37.03 58.56c11.22-1.31 35.09-4.06 42.22-5.08c2.24-0.32 5.25-0.36 7.13-0.35"></path>
<path style="fill:none; fill-opacity:0%; fill-rule:evenodd; stroke:#000000; stroke-opacity:100%; stroke-width: 3pt; stroke-linejoin:round; stroke-linecap:round;" d="M36.73 69.99c15.77-2.24 35.41-4.4 49.02-5.69c5.75-0.55 7.12 0.95 6 5.78c-2.23 9.56-6.25 18.11-10 24.15c-3.75 6.02-6.25 3.4-9.5 0.25"></path>
<path style="fill:none; fill-opacity:0%; fill-rule:evenodd; stroke:#000000; stroke-opacity:100%; stroke-width: 3pt; stroke-linejoin:round; stroke-linecap:round;" d="M45.9 71.5c0.86 0.86 1.4 1.88 1.4 3.05c0 2.7-0.16 6.7-0.16 11.09"></path>
<text x="5" y="20" font-size="20" fill="#999999">9</text><path style="fill:none; fill-opacity:0%; fill-rule:evenodd; stroke:#CC0000; stroke-opacity:100%; stroke-width: 3pt; stroke-linejoin:round; stroke-linecap:round;" d="M26.57 77.43c0.81 0.81 1.14 2.31 1 2.89c-0.82 3.31-1.44 5.93-2.05 8.3c-0.34 1.31 0.53 2.29 1.74 1.97c8.38-2.21 30.5-5.84 40.2-5.94" marker-end="url(#TriangleRed)" marker-start="url(#ArrowRed)" ></path>


</g><g transform="scale(1.3761467889908 1.3761467889908) translate(436, 109)">
<path style="fill:none; fill-rule:evenodd; stroke:#aaaaaa;  stroke-width:1pt; stroke-linecap:round;" d="m 109 0 L 0 0 L 0 109 L 109 109 L 109 0"></path><path style="fill:none; fill-opacity:0%; fill-rule:evenodd; stroke:#aaaaaa; stroke-opacity:100%; stroke-width: 1.5pt; stroke-linejoin:round; stroke-linecap:round;" d="M52.96 9.68c0.1 0.69-0.01 1.33-0.32 1.94c-1.24 2.86-4.42 6.01-9.65 10.95"></path>
<path style="fill:none; fill-opacity:0%; fill-rule:evenodd; stroke:#aaaaaa; stroke-opacity:100%; stroke-width: 1.5pt; stroke-linejoin:round; stroke-linecap:round;" d="M34.63 23.65c0.8 0.8 1.32 2.1 1.32 3.81c0 6.57-0.17 25.1-0.21 37.3c-0.01 2.04-0.01 3.92-0.01 5.53"></path>
<path style="fill:none; fill-opacity:0%; fill-rule:evenodd; stroke:#aaaaaa; stroke-opacity:100%; stroke-width: 1.5pt; stroke-linejoin:round; stroke-linecap:round;" d="M36.77 26.05c7.48-1.55 23.86-4.43 31.67-5.25c2.88-0.3 4.68 1.63 4.1 4.49c-0.56 2.76-2.21 10.46-3.75 17.07c-0.27 1.15-0.54 2.27-1.04 3.83"></path>
<path style="fill:none; fill-opacity:0%; fill-rule:evenodd; stroke:#aaaaaa; stroke-opacity:100%; stroke-width: 1.5pt; stroke-linejoin:round; stroke-linecap:round;" d="M36.86 36.33c11.14-1.7 24.77-3.45 33.12-3.9"></path>
<path style="fill:none; fill-opacity:0%; fill-rule:evenodd; stroke:#aaaaaa; stroke-opacity:100%; stroke-width: 1.5pt; stroke-linejoin:round; stroke-linecap:round;" d="M36.99 47.73c9.14-1.36 22.89-2.98 30.23-3.47"></path>
<path style="fill:none; fill-opacity:0%; fill-rule:evenodd; stroke:#aaaaaa; stroke-opacity:100%; stroke-width: 1.5pt; stroke-linejoin:round; stroke-linecap:round;" d="M37.03 58.56c11.22-1.31 35.09-4.06 42.22-5.08c2.24-0.32 5.25-0.36 7.13-0.35"></path>
<path style="fill:none; fill-opacity:0%; fill-rule:evenodd; stroke:#aaaaaa; stroke-opacity:100%; stroke-width: 1.5pt; stroke-linejoin:round; stroke-linecap:round;" d="M36.73 69.99c15.77-2.24 35.41-4.4 49.02-5.69c5.75-0.55 7.12 0.95 6 5.78c-2.23 9.56-6.25 18.11-10 24.15c-3.75 6.02-6.25 3.4-9.5 0.25"></path>
<path style="fill:none; fill-opacity:0%; fill-rule:evenodd; stroke:#aaaaaa; stroke-opacity:100%; stroke-width: 1.5pt; stroke-linejoin:round; stroke-linecap:round;" d="M45.9 71.5c0.86 0.86 1.4 1.88 1.4 3.05c0 2.7-0.16 6.7-0.16 11.09"></path>
<path style="fill:none; fill-opacity:0%; fill-rule:evenodd; stroke:#aaaaaa; stroke-opacity:100%; stroke-width: 1.5pt; stroke-linejoin:round; stroke-linecap:round;" d="M26.57 77.43c0.81 0.81 1.14 2.31 1 2.89c-0.82 3.31-1.44 5.93-2.05 8.3c-0.34 1.31 0.53 2.29 1.74 1.97c8.38-2.21 30.5-5.84 40.2-5.94"></path>
<path style="fill:none; fill-opacity:0%; fill-rule:evenodd; stroke:#aaaaaa; stroke-opacity:100%; stroke-width: 1.5pt; stroke-linejoin:round; stroke-linecap:round;" d="M69.68 71.56c0.75 0.75 0.85 1.96 0.75 2.55c-0.68 3.85-1.24 6.07-2.24 11.15c-0.17 0.89-0.36 1.85-0.57 2.92"></path>

<path style="fill:none; fill-opacity:0%; fill-rule:evenodd; stroke:#000000; stroke-opacity:100%; stroke-width: 3pt; stroke-linejoin:round; stroke-linecap:round;" d="M52.96 9.68c0.1 0.69-0.01 1.33-0.32 1.94c-1.24 2.86-4.42 6.01-9.65 10.95"></path>
<path style="fill:none; fill-opacity:0%; fill-rule:evenodd; stroke:#000000; stroke-opacity:100%; stroke-width: 3pt; stroke-linejoin:round; stroke-linecap:round;" d="M34.63 23.65c0.8 0.8 1.32 2.1 1.32 3.81c0 6.57-0.17 25.1-0.21 37.3c-0.01 2.04-0.01 3.92-0.01 5.53"></path>
<path style="fill:none; fill-opacity:0%; fill-rule:evenodd; stroke:#000000; stroke-opacity:100%; stroke-width: 3pt; stroke-linejoin:round; stroke-linecap:round;" d="M36.77 26.05c7.48-1.55 23.86-4.43 31.67-5.25c2.88-0.3 4.68 1.63 4.1 4.49c-0.56 2.76-2.21 10.46-3.75 17.07c-0.27 1.15-0.54 2.27-1.04 3.83"></path>
<path style="fill:none; fill-opacity:0%; fill-rule:evenodd; stroke:#000000; stroke-opacity:100%; stroke-width: 3pt; stroke-linejoin:round; stroke-linecap:round;" d="M36.86 36.33c11.14-1.7 24.77-3.45 33.12-3.9"></path>
<path style="fill:none; fill-opacity:0%; fill-rule:evenodd; stroke:#000000; stroke-opacity:100%; stroke-width: 3pt; stroke-linejoin:round; stroke-linecap:round;" d="M36.99 47.73c9.14-1.36 22.89-2.98 30.23-3.47"></path>
<path style="fill:none; fill-opacity:0%; fill-rule:evenodd; stroke:#000000; stroke-opacity:100%; stroke-width: 3pt; stroke-linejoin:round; stroke-linecap:round;" d="M37.03 58.56c11.22-1.31 35.09-4.06 42.22-5.08c2.24-0.32 5.25-0.36 7.13-0.35"></path>
<path style="fill:none; fill-opacity:0%; fill-rule:evenodd; stroke:#000000; stroke-opacity:100%; stroke-width: 3pt; stroke-linejoin:round; stroke-linecap:round;" d="M36.73 69.99c15.77-2.24 35.41-4.4 49.02-5.69c5.75-0.55 7.12 0.95 6 5.78c-2.23 9.56-6.25 18.11-10 24.15c-3.75 6.02-6.25 3.4-9.5 0.25"></path>
<path style="fill:none; fill-opacity:0%; fill-rule:evenodd; stroke:#000000; stroke-opacity:100%; stroke-width: 3pt; stroke-linejoin:round; stroke-linecap:round;" d="M45.9 71.5c0.86 0.86 1.4 1.88 1.4 3.05c0 2.7-0.16 6.7-0.16 11.09"></path>
<path style="fill:none; fill-opacity:0%; fill-rule:evenodd; stroke:#000000; stroke-opacity:100%; stroke-width: 3pt; stroke-linejoin:round; stroke-linecap:round;" d="M26.57 77.43c0.81 0.81 1.14 2.31 1 2.89c-0.82 3.31-1.44 5.93-2.05 8.3c-0.34 1.31 0.53 2.29 1.74 1.97c8.38-2.21 30.5-5.84 40.2-5.94"></path>
<text x="5" y="20" font-size="20" fill="#999999">10</text><path style="fill:none; fill-opacity:0%; fill-rule:evenodd; stroke:#CC0000; stroke-opacity:100%; stroke-width: 3pt; stroke-linejoin:round; stroke-linecap:round;" d="M69.68 71.56c0.75 0.75 0.85 1.96 0.75 2.55c-0.68 3.85-1.24 6.07-2.24 11.15c-0.17 0.89-0.36 1.85-0.57 2.92" marker-end="url(#TriangleRed)" marker-start="url(#ArrowRed)" ></path>

</g>

</svg>  
          
