<?xml version="1.0" standalone="no"?>
<!DOCTYPE svg PUBLIC "-//W3C//DTD SVG 1.1//EN"   "http://www.w3.org/Graphics/SVG/1.1/DTD/svg11.dtd">
<svg width="751" height="151"  version="1.1" xmlns="http://www.w3.org/2000/svg">
  <defs>
    <marker id="Triangle" viewBox="0 0 10 10" refX="0" refY="5" markerUnits="strokeWidth" markerWidth="3" style="stroke-opacity:0%;fill:#aaaaaa;" markerHeight="2" orient="auto">
      <path d="M 0 0 L 10 5 L 0 10 z" />
    </marker>
    
    <marker id="Arrow" viewBox="0 0 10 10" refX="5" refY="5" markerUnits="strokeWidth" markerWidth="1.8" style="stroke-opacity:0%;fill:#770000;" markerHeight="2" orient="auto">
      <path d="M 0 4 L 6 4 L 4 1 L 10 5 L 4 9 L 6 6 L 0 6 z" />
        <circle cx="5" cy="5" r="5" />
      </marker>
    
    <marker id="TriangleRed" viewBox="0 0 10 10" refX="0" refY="5" markerUnits="strokeWidth" markerWidth="3" style="stroke-opacity:0%;fill:#CC0000;" markerHeight="2" orient="auto">
      <path d="M 0 0 L 10 5 L 0 10 z" />
    </marker>
    
    <marker id="ArrowRed" viewBox="0 0 10 10" refX="5" refY="5" markerUnits="strokeWidth" markerWidth="1.8" style="stroke-opacity:0%;fill:#CC0000;" markerHeight="2" orient="auto">
      <path d="M 0 4 L 6 4 L 4 1 L 10 5 L 4 9 L 6 6 L 0 6 z" />
        <circle cx="5" cy="5" r="5" />
      </marker>
    
  </defs>
  
  <path style="fill:#ffffff; fill-opacity:100%; fill-rule:evenodd; stroke-width:0;" d="M 0 0 L 751 0 L 751 151 L 0 151 L 0 0" />

  <g transform="scale(1.3761467889908 1.3761467889908) translate(0, 0)">
<path style="fill:none; fill-rule:evenodd; stroke:#aaaaaa;  stroke-width:1pt; stroke-linecap:round;" d="m 109 0 L 0 0 L 0 109 L 109 109 L 109 0"></path><path style="fill:none; fill-opacity:0%; fill-rule:evenodd; stroke:#aaaaaa; stroke-opacity:100%; stroke-width: 1.5pt; stroke-linejoin:round; stroke-linecap:round;" d="M35.21 14.37c1.04 0.88 1.49 4 0.75 5.75C32 29.5 27.25 40.75 20.5 52.75c-1.3 2.32-0.52 2.11 0 3C27 67 34.75 80 37.5 95.25"></path>
<path style="fill:none; fill-opacity:0%; fill-rule:evenodd; stroke:#aaaaaa; stroke-opacity:100%; stroke-width: 1.5pt; stroke-linejoin:round; stroke-linecap:round;" d="M58.21 13.87c1.04 0.88 1.39 3.96 0.75 5.75C55.5 29.25 52.75 40.75 46.25 52c-0.71 1.22-0.29 2.37 0.25 3.25c6.5 10.5 13 22 17 39"></path>
<path style="fill:none; fill-opacity:0%; fill-rule:evenodd; stroke:#aaaaaa; stroke-opacity:100%; stroke-width: 1.5pt; stroke-linejoin:round; stroke-linecap:round;" d="M84.21 14.87c1.04 0.88 1.35 3.94 0.75 5.75C81.5 31 77.25 41.75 70.75 53c-0.71 1.22-0.29 2.37 0.25 3.25c6.5 10.5 13 21 17 38"></path>

<text x="5" y="20" font-size="20" fill="#999999">1</text><path style="fill:none; fill-opacity:0%; fill-rule:evenodd; stroke:#CC0000; stroke-opacity:100%; stroke-width: 3pt; stroke-linejoin:round; stroke-linecap:round;" d="M35.21 14.37c1.04 0.88 1.49 4 0.75 5.75C32 29.5 27.25 40.75 20.5 52.75c-1.3 2.32-0.52 2.11 0 3C27 67 34.75 80 37.5 95.25" marker-end="url(#TriangleRed)" marker-start="url(#ArrowRed)" ></path>



</g><g transform="scale(1.3761467889908 1.3761467889908) translate(109, 0)">
<path style="fill:none; fill-rule:evenodd; stroke:#aaaaaa;  stroke-width:1pt; stroke-linecap:round;" d="m 109 0 L 0 0 L 0 109 L 109 109 L 109 0"></path><path style="fill:none; fill-opacity:0%; fill-rule:evenodd; stroke:#aaaaaa; stroke-opacity:100%; stroke-width: 1.5pt; stroke-linejoin:round; stroke-linecap:round;" d="M35.21 14.37c1.04 0.88 1.49 4 0.75 5.75C32 29.5 27.25 40.75 20.5 52.75c-1.3 2.32-0.52 2.11 0 3C27 67 34.75 80 37.5 95.25"></path>
<path style="fill:none; fill-opacity:0%; fill-rule:evenodd; stroke:#aaaaaa; stroke-opacity:100%; stroke-width: 1.5pt; stroke-linejoin:round; stroke-linecap:round;" d="M58.21 13.87c1.04 0.88 1.39 3.96 0.75 5.75C55.5 29.25 52.75 40.75 46.25 52c-0.71 1.22-0.29 2.37 0.25 3.25c6.5 10.5 13 22 17 39"></path>
<path style="fill:none; fill-opacity:0%; fill-rule:evenodd; stroke:#aaaaaa; stroke-opacity:100%; stroke-width: 1.5pt; stroke-linejoin:round; stroke-linecap:round;" d="M84.21 14.87c1.04 0.88 1.35 3.94 0.75 5.75C81.5 31 77.25 41.75 70.75 53c-0.71 1.22-0.29 2.37 0.25 3.25c6.5 10.5 13 21 17 38"></path>

<path style="fill:none; fill-opacity:0%; fill-rule:evenodd; stroke:#000000; stroke-opacity:100%; stroke-width: 3pt; stroke-linejoin:round; stroke-linecap:round;" d="M35.21 14.37c1.04 0.88 1.49 4 0.75 5.75C32 29.5 27.25 40.75 20.5 52.75c-1.3 2.32-0.52 2.11 0 3C27 67 34.75 80 37.5 95.25"></path>
<text x="5" y="20" font-size="20" fill="#999999">2</text><path style="fill:none; fill-opacity:0%; fill-rule:evenodd; stroke:#CC0000; stroke-opacity:100%; stroke-width: 3pt; stroke-linejoin:round; stroke-linecap:round;" d="M58.21 13.87c1.04 0.88 1.39 3.96 0.75 5.75C55.5 29.25 52.75 40.75 46.25 52c-0.71 1.22-0.29 2.37 0.25 3.25c6.5 10.5 13 22 17 39" marker-end="url(#TriangleRed)" marker-start="url(#ArrowRed)" ></path>


</g><g transform="scale(1.3761467889908 1.3761467889908) translate(218, 0)">
<path style="fill:none; fill-rule:evenodd; stroke:#aaaaaa;  stroke-width:1pt; stroke-linecap:round;" d="m 109 0 L 0 0 L 0 109 L 109 109 L 109 0"></path><path style="fill:none; fill-opacity:0%; fill-rule:evenodd; stroke:#aaaaaa; stroke-opacity:100%; stroke-width: 1.5pt; stroke-linejoin:round; stroke-linecap:round;" d="M35.21 14.37c1.04 0.88 1.49 4 0.75 5.75C32 29.5 27.25 40.75 20.5 52.75c-1.3 2.32-0.52 2.11 0 3C27 67 34.75 80 37.5 95.25"></path>
<path style="fill:none; fill-opacity:0%; fill-rule:evenodd; stroke:#aaaaaa; stroke-opacity:100%; stroke-width: 1.5pt; stroke-linejoin:round; stroke-linecap:round;" d="M58.21 13.87c1.04 0.88 1.39 3.96 0.75 5.75C55.5 29.25 52.75 40.75 46.25 52c-0.71 1.22-0.29 2.37 0.25 3.25c6.5 10.5 13 22 17 39"></path>
<path style="fill:none; fill-opacity:0%; fill-rule:evenodd; stroke:#aaaaaa; stroke-opacity:100%; stroke-width: 1.5pt; stroke-linejoin:round; stroke-linecap:round;" d="M84.21 14.87c1.04 0.88 1.35 3.94 0.75 5.75C81.5 31 77.25 41.75 70.75 53c-0.71 1.22-0.29 2.37 0.25 3.25c6.5 10.5 13 21 17 38"></path>

<path style="fill:none; fill-opacity:0%; fill-rule:evenodd; stroke:#000000; stroke-opacity:100%; stroke-width: 3pt; stroke-linejoin:round; stroke-linecap:round;" d="M35.21 14.37c1.04 0.88 1.49 4 0.75 5.75C32 29.5 27.25 40.75 20.5 52.75c-1.3 2.32-0.52 2.11 0 3C27 67 34.75 80 37.5 95.25"></path>
<path style="fill:none; fill-opacity:0%; fill-rule:evenodd; stroke:#000000; stroke-opacity:100%; stroke-width: 3pt; stroke-linejoin:round; stroke-linecap:round;" d="M58.21 13.87c1.04 0.88 1.39 3.96 0.75 5.75C55.5 29.25 52.75 40.75 46.25 52c-0.71 1.22-0.29 2.37 0.25 3.25c6.5 10.5 13 22 17 39"></path>
<text x="5" y="20" font-size="20" fill="#999999">3</text><path style="fill:none; fill-opacity:0%; fill-rule:evenodd; stroke:#CC0000; stroke-opacity:100%; stroke-width: 3pt; stroke-linejoin:round; stroke-linecap:round;" d="M84.21 14.87c1.04 0.88 1.35 3.94 0.75 5.75C81.5 31 77.25 41.75 70.75 53c-0.71 1.22-0.29 2.37 0.25 3.25c6.5 10.5 13 21 17 38" marker-end="url(#TriangleRed)" marker-start="url(#ArrowRed)" ></path>

</g>

</svg>  
          
