<?xml version="1.0" standalone="no"?>
<!DOCTYPE svg PUBLIC "-//W3C//DTD SVG 1.1//EN"   "http://www.w3.org/Graphics/SVG/1.1/DTD/svg11.dtd">
<svg width="751" height="151"  version="1.1" xmlns="http://www.w3.org/2000/svg">
  <defs>
    <marker id="Triangle" viewBox="0 0 10 10" refX="0" refY="5" markerUnits="strokeWidth" markerWidth="3" style="stroke-opacity:0%;fill:#aaaaaa;" markerHeight="2" orient="auto">
      <path d="M 0 0 L 10 5 L 0 10 z" />
    </marker>
    
    <marker id="Arrow" viewBox="0 0 10 10" refX="5" refY="5" markerUnits="strokeWidth" markerWidth="1.8" style="stroke-opacity:0%;fill:#770000;" markerHeight="2" orient="auto">
      <path d="M 0 4 L 6 4 L 4 1 L 10 5 L 4 9 L 6 6 L 0 6 z" />
        <circle cx="5" cy="5" r="5" />
      </marker>
    
    <marker id="TriangleRed" viewBox="0 0 10 10" refX="0" refY="5" markerUnits="strokeWidth" markerWidth="3" style="stroke-opacity:0%;fill:#CC0000;" markerHeight="2" orient="auto">
      <path d="M 0 0 L 10 5 L 0 10 z" />
    </marker>
    
    <marker id="ArrowRed" viewBox="0 0 10 10" refX="5" refY="5" markerUnits="strokeWidth" markerWidth="1.8" style="stroke-opacity:0%;fill:#CC0000;" markerHeight="2" orient="auto">
      <path d="M 0 4 L 6 4 L 4 1 L 10 5 L 4 9 L 6 6 L 0 6 z" />
        <circle cx="5" cy="5" r="5" />
      </marker>
    
  </defs>
  
  <path style="fill:#ffffff; fill-opacity:100%; fill-rule:evenodd; stroke-width:0;" d="M 0 0 L 751 0 L 751 151 L 0 151 L 0 0" />

  <g transform="scale(1.3761467889908 1.3761467889908) translate(0, 0)">
<path style="fill:none; fill-rule:evenodd; stroke:#aaaaaa;  stroke-width:1pt; stroke-linecap:round;" d="m 109 0 L 0 0 L 0 109 L 109 109 L 109 0"></path><path style="fill:none; fill-opacity:0%; fill-rule:evenodd; stroke:#aaaaaa; stroke-opacity:100%; stroke-width: 1.5pt; stroke-linejoin:round; stroke-linecap:round;" d="M26.5 23.62c2.1 0.95 4.3 0.39 6.47 0.08c14.07-2.03 32.29-4.05 41.9-4.86c4.24-0.36 7.77 1.41 6.23 6.74c-1.78 6.14-3.48 12.8-6.55 22.47"></path>
<path style="fill:none; fill-opacity:0%; fill-rule:evenodd; stroke:#aaaaaa; stroke-opacity:100%; stroke-width: 1.5pt; stroke-linejoin:round; stroke-linecap:round;" d="M53.06 24.13c0.94 1.49 0.89 2.87 0.76 4.25C53.25 34.88 52.75 40.88 52 46.5"></path>
<path style="fill:none; fill-opacity:0%; fill-rule:evenodd; stroke:#aaaaaa; stroke-opacity:100%; stroke-width: 1.5pt; stroke-linejoin:round; stroke-linecap:round;" d="M31 49.75c5.25-0.5 31.12-3 43-3.5"></path>
<path style="fill:none; fill-opacity:0%; fill-rule:evenodd; stroke:#aaaaaa; stroke-opacity:100%; stroke-width: 1.5pt; stroke-linejoin:round; stroke-linecap:round;" d="M28.13 24.5c0.87 0.87 1.29 1.94 1.29 4.03c0 9.72-0.05 35.32-0.05 41.6c0 21 0.5 21.67 31.36 21.67c31.14 0 32.39-5.79 32.26-15.39"></path>

<text x="5" y="20" font-size="20" fill="#999999">1</text><path style="fill:none; fill-opacity:0%; fill-rule:evenodd; stroke:#CC0000; stroke-opacity:100%; stroke-width: 3pt; stroke-linejoin:round; stroke-linecap:round;" d="M26.5 23.62c2.1 0.95 4.3 0.39 6.47 0.08c14.07-2.03 32.29-4.05 41.9-4.86c4.24-0.36 7.77 1.41 6.23 6.74c-1.78 6.14-3.48 12.8-6.55 22.47" marker-end="url(#TriangleRed)" marker-start="url(#ArrowRed)" ></path>




</g><g transform="scale(1.3761467889908 1.3761467889908) translate(109, 0)">
<path style="fill:none; fill-rule:evenodd; stroke:#aaaaaa;  stroke-width:1pt; stroke-linecap:round;" d="m 109 0 L 0 0 L 0 109 L 109 109 L 109 0"></path><path style="fill:none; fill-opacity:0%; fill-rule:evenodd; stroke:#aaaaaa; stroke-opacity:100%; stroke-width: 1.5pt; stroke-linejoin:round; stroke-linecap:round;" d="M26.5 23.62c2.1 0.95 4.3 0.39 6.47 0.08c14.07-2.03 32.29-4.05 41.9-4.86c4.24-0.36 7.77 1.41 6.23 6.74c-1.78 6.14-3.48 12.8-6.55 22.47"></path>
<path style="fill:none; fill-opacity:0%; fill-rule:evenodd; stroke:#aaaaaa; stroke-opacity:100%; stroke-width: 1.5pt; stroke-linejoin:round; stroke-linecap:round;" d="M53.06 24.13c0.94 1.49 0.89 2.87 0.76 4.25C53.25 34.88 52.75 40.88 52 46.5"></path>
<path style="fill:none; fill-opacity:0%; fill-rule:evenodd; stroke:#aaaaaa; stroke-opacity:100%; stroke-width: 1.5pt; stroke-linejoin:round; stroke-linecap:round;" d="M31 49.75c5.25-0.5 31.12-3 43-3.5"></path>
<path style="fill:none; fill-opacity:0%; fill-rule:evenodd; stroke:#aaaaaa; stroke-opacity:100%; stroke-width: 1.5pt; stroke-linejoin:round; stroke-linecap:round;" d="M28.13 24.5c0.87 0.87 1.29 1.94 1.29 4.03c0 9.72-0.05 35.32-0.05 41.6c0 21 0.5 21.67 31.36 21.67c31.14 0 32.39-5.79 32.26-15.39"></path>

<path style="fill:none; fill-opacity:0%; fill-rule:evenodd; stroke:#000000; stroke-opacity:100%; stroke-width: 3pt; stroke-linejoin:round; stroke-linecap:round;" d="M26.5 23.62c2.1 0.95 4.3 0.39 6.47 0.08c14.07-2.03 32.29-4.05 41.9-4.86c4.24-0.36 7.77 1.41 6.23 6.74c-1.78 6.14-3.48 12.8-6.55 22.47"></path>
<text x="5" y="20" font-size="20" fill="#999999">2</text><path style="fill:none; fill-opacity:0%; fill-rule:evenodd; stroke:#CC0000; stroke-opacity:100%; stroke-width: 3pt; stroke-linejoin:round; stroke-linecap:round;" d="M53.06 24.13c0.94 1.49 0.89 2.87 0.76 4.25C53.25 34.88 52.75 40.88 52 46.5" marker-end="url(#TriangleRed)" marker-start="url(#ArrowRed)" ></path>



</g><g transform="scale(1.3761467889908 1.3761467889908) translate(218, 0)">
<path style="fill:none; fill-rule:evenodd; stroke:#aaaaaa;  stroke-width:1pt; stroke-linecap:round;" d="m 109 0 L 0 0 L 0 109 L 109 109 L 109 0"></path><path style="fill:none; fill-opacity:0%; fill-rule:evenodd; stroke:#aaaaaa; stroke-opacity:100%; stroke-width: 1.5pt; stroke-linejoin:round; stroke-linecap:round;" d="M26.5 23.62c2.1 0.95 4.3 0.39 6.47 0.08c14.07-2.03 32.29-4.05 41.9-4.86c4.24-0.36 7.77 1.41 6.23 6.74c-1.78 6.14-3.48 12.8-6.55 22.47"></path>
<path style="fill:none; fill-opacity:0%; fill-rule:evenodd; stroke:#aaaaaa; stroke-opacity:100%; stroke-width: 1.5pt; stroke-linejoin:round; stroke-linecap:round;" d="M53.06 24.13c0.94 1.49 0.89 2.87 0.76 4.25C53.25 34.88 52.75 40.88 52 46.5"></path>
<path style="fill:none; fill-opacity:0%; fill-rule:evenodd; stroke:#aaaaaa; stroke-opacity:100%; stroke-width: 1.5pt; stroke-linejoin:round; stroke-linecap:round;" d="M31 49.75c5.25-0.5 31.12-3 43-3.5"></path>
<path style="fill:none; fill-opacity:0%; fill-rule:evenodd; stroke:#aaaaaa; stroke-opacity:100%; stroke-width: 1.5pt; stroke-linejoin:round; stroke-linecap:round;" d="M28.13 24.5c0.87 0.87 1.29 1.94 1.29 4.03c0 9.72-0.05 35.32-0.05 41.6c0 21 0.5 21.67 31.36 21.67c31.14 0 32.39-5.79 32.26-15.39"></path>

<path style="fill:none; fill-opacity:0%; fill-rule:evenodd; stroke:#000000; stroke-opacity:100%; stroke-width: 3pt; stroke-linejoin:round; stroke-linecap:round;" d="M26.5 23.62c2.1 0.95 4.3 0.39 6.47 0.08c14.07-2.03 32.29-4.05 41.9-4.86c4.24-0.36 7.77 1.41 6.23 6.74c-1.78 6.14-3.48 12.8-6.55 22.47"></path>
<path style="fill:none; fill-opacity:0%; fill-rule:evenodd; stroke:#000000; stroke-opacity:100%; stroke-width: 3pt; stroke-linejoin:round; stroke-linecap:round;" d="M53.06 24.13c0.94 1.49 0.89 2.87 0.76 4.25C53.25 34.88 52.75 40.88 52 46.5"></path>
<text x="5" y="20" font-size="20" fill="#999999">3</text><path style="fill:none; fill-opacity:0%; fill-rule:evenodd; stroke:#CC0000; stroke-opacity:100%; stroke-width: 3pt; stroke-linejoin:round; stroke-linecap:round;" d="M31 49.75c5.25-0.5 31.12-3 43-3.5" marker-end="url(#TriangleRed)" marker-start="url(#ArrowRed)" ></path>


</g><g transform="scale(1.3761467889908 1.3761467889908) translate(327, 0)">
<path style="fill:none; fill-rule:evenodd; stroke:#aaaaaa;  stroke-width:1pt; stroke-linecap:round;" d="m 109 0 L 0 0 L 0 109 L 109 109 L 109 0"></path><path style="fill:none; fill-opacity:0%; fill-rule:evenodd; stroke:#aaaaaa; stroke-opacity:100%; stroke-width: 1.5pt; stroke-linejoin:round; stroke-linecap:round;" d="M26.5 23.62c2.1 0.95 4.3 0.39 6.47 0.08c14.07-2.03 32.29-4.05 41.9-4.86c4.24-0.36 7.77 1.41 6.23 6.74c-1.78 6.14-3.48 12.8-6.55 22.47"></path>
<path style="fill:none; fill-opacity:0%; fill-rule:evenodd; stroke:#aaaaaa; stroke-opacity:100%; stroke-width: 1.5pt; stroke-linejoin:round; stroke-linecap:round;" d="M53.06 24.13c0.94 1.49 0.89 2.87 0.76 4.25C53.25 34.88 52.75 40.88 52 46.5"></path>
<path style="fill:none; fill-opacity:0%; fill-rule:evenodd; stroke:#aaaaaa; stroke-opacity:100%; stroke-width: 1.5pt; stroke-linejoin:round; stroke-linecap:round;" d="M31 49.75c5.25-0.5 31.12-3 43-3.5"></path>
<path style="fill:none; fill-opacity:0%; fill-rule:evenodd; stroke:#aaaaaa; stroke-opacity:100%; stroke-width: 1.5pt; stroke-linejoin:round; stroke-linecap:round;" d="M28.13 24.5c0.87 0.87 1.29 1.94 1.29 4.03c0 9.72-0.05 35.32-0.05 41.6c0 21 0.5 21.67 31.36 21.67c31.14 0 32.39-5.79 32.26-15.39"></path>

<path style="fill:none; fill-opacity:0%; fill-rule:evenodd; stroke:#000000; stroke-opacity:100%; stroke-width: 3pt; stroke-linejoin:round; stroke-linecap:round;" d="M26.5 23.62c2.1 0.95 4.3 0.39 6.47 0.08c14.07-2.03 32.29-4.05 41.9-4.86c4.24-0.36 7.77 1.41 6.23 6.74c-1.78 6.14-3.48 12.8-6.55 22.47"></path>
<path style="fill:none; fill-opacity:0%; fill-rule:evenodd; stroke:#000000; stroke-opacity:100%; stroke-width: 3pt; stroke-linejoin:round; stroke-linecap:round;" d="M53.06 24.13c0.94 1.49 0.89 2.87 0.76 4.25C53.25 34.88 52.75 40.88 52 46.5"></path>
<path style="fill:none; fill-opacity:0%; fill-rule:evenodd; stroke:#000000; stroke-opacity:100%; stroke-width: 3pt; stroke-linejoin:round; stroke-linecap:round;" d="M31 49.75c5.25-0.5 31.12-3 43-3.5"></path>
<text x="5" y="20" font-size="20" fill="#999999">4</text><path style="fill:none; fill-opacity:0%; fill-rule:evenodd; stroke:#CC0000; stroke-opacity:100%; stroke-width: 3pt; stroke-linejoin:round; stroke-linecap:round;" d="M28.13 24.5c0.87 0.87 1.29 1.94 1.29 4.03c0 9.72-0.05 35.32-0.05 41.6c0 21 0.5 21.67 31.36 21.67c31.14 0 32.39-5.79 32.26-15.39" marker-end="url(#TriangleRed)" marker-start="url(#ArrowRed)" ></path>

</g>

</svg>  
          
