<?xml version="1.0" standalone="no"?>
<!DOCTYPE svg PUBLIC "-//W3C//DTD SVG 1.1//EN"   "http://www.w3.org/Graphics/SVG/1.1/DTD/svg11.dtd">
<svg width="751" height="301"  version="1.1" xmlns="http://www.w3.org/2000/svg">
  <defs>
    <marker id="Triangle" viewBox="0 0 10 10" refX="0" refY="5" markerUnits="strokeWidth" markerWidth="3" style="stroke-opacity:0%;fill:#aaaaaa;" markerHeight="2" orient="auto">
      <path d="M 0 0 L 10 5 L 0 10 z" />
    </marker>
    
    <marker id="Arrow" viewBox="0 0 10 10" refX="5" refY="5" markerUnits="strokeWidth" markerWidth="1.8" style="stroke-opacity:0%;fill:#770000;" markerHeight="2" orient="auto">
      <path d="M 0 4 L 6 4 L 4 1 L 10 5 L 4 9 L 6 6 L 0 6 z" />
        <circle cx="5" cy="5" r="5" />
      </marker>
    
    <marker id="TriangleRed" viewBox="0 0 10 10" refX="0" refY="5" markerUnits="strokeWidth" markerWidth="3" style="stroke-opacity:0%;fill:#CC0000;" markerHeight="2" orient="auto">
      <path d="M 0 0 L 10 5 L 0 10 z" />
    </marker>
    
    <marker id="ArrowRed" viewBox="0 0 10 10" refX="5" refY="5" markerUnits="strokeWidth" markerWidth="1.8" style="stroke-opacity:0%;fill:#CC0000;" markerHeight="2" orient="auto">
      <path d="M 0 4 L 6 4 L 4 1 L 10 5 L 4 9 L 6 6 L 0 6 z" />
        <circle cx="5" cy="5" r="5" />
      </marker>
    
  </defs>
  
  <path style="fill:#ffffff; fill-opacity:100%; fill-rule:evenodd; stroke-width:0;" d="M 0 0 L 751 0 L 751 301 L 0 301 L 0 0" />

  <g transform="scale(1.3761467889908 1.3761467889908) translate(0, 0)">
<path style="fill:none; fill-rule:evenodd; stroke:#aaaaaa;  stroke-width:1pt; stroke-linecap:round;" d="m 109 0 L 0 0 L 0 109 L 109 109 L 109 0"></path><path style="fill:none; fill-opacity:0%; fill-rule:evenodd; stroke:#aaaaaa; stroke-opacity:100%; stroke-width: 1.5pt; stroke-linejoin:round; stroke-linecap:round;" d="M40.92 13.5c0.11 0.99-0.28 1.94-0.65 2.85c-2.77 5.02-7.82 12.04-14.67 18.47"></path>
<path style="fill:none; fill-opacity:0%; fill-rule:evenodd; stroke:#aaaaaa; stroke-opacity:100%; stroke-width: 1.5pt; stroke-linejoin:round; stroke-linecap:round;" d="M39.45 23.77c2.55 0.73 4.11 0.59 6.42 0.32c7.19-1.02 22.76-3.34 30.51-4.27c4.43-0.53 6.37 0.85 5.22 5.25c-1.72 6.6-5.73 20.92-13.02 29.36c-5.03 5.82-7.37 6.03-10.91 3.55"></path>
<path style="fill:none; fill-opacity:0%; fill-rule:evenodd; stroke:#aaaaaa; stroke-opacity:100%; stroke-width: 1.5pt; stroke-linejoin:round; stroke-linecap:round;" d="M48.84 27.03c0 1.1-0.31 2.05-0.85 2.95c-3.12 5.27-7.24 9.9-16.11 15.46"></path>
<path style="fill:none; fill-opacity:0%; fill-rule:evenodd; stroke:#aaaaaa; stroke-opacity:100%; stroke-width: 1.5pt; stroke-linejoin:round; stroke-linecap:round;" d="M66.04 25.02c0.09 0.79 0.07 1.85-0.43 2.94C62.25 35.25 51.62 49 34.2 58.18"></path>
<path style="fill:none; fill-opacity:0%; fill-rule:evenodd; stroke:#aaaaaa; stroke-opacity:100%; stroke-width: 1.5pt; stroke-linejoin:round; stroke-linecap:round;" d="M21.89 78.32c0.39 2.39-4.17 12.69-7.31 16.67"></path>
<path style="fill:none; fill-opacity:0%; fill-rule:evenodd; stroke:#aaaaaa; stroke-opacity:100%; stroke-width: 1.5pt; stroke-linejoin:round; stroke-linecap:round;" d="M33.58 72.75c6.92 14 18.68 24.22 43.14 22.93c13.03-0.68 13.9-3.56 3.38-10.3"></path>
<path style="fill:none; fill-opacity:0%; fill-rule:evenodd; stroke:#aaaaaa; stroke-opacity:100%; stroke-width: 1.5pt; stroke-linejoin:round; stroke-linecap:round;" d="M53.16 71.25c2.17 5.25 5.57 10.75 7.88 2.71"></path>
<path style="fill:none; fill-opacity:0%; fill-rule:evenodd; stroke:#aaaaaa; stroke-opacity:100%; stroke-width: 1.5pt; stroke-linejoin:round; stroke-linecap:round;" d="M83.13 67.23c4.74 2.89 7.87 5.52 11.35 11.86"></path>

<text x="5" y="20" font-size="20" fill="#999999">1</text><path style="fill:none; fill-opacity:0%; fill-rule:evenodd; stroke:#CC0000; stroke-opacity:100%; stroke-width: 3pt; stroke-linejoin:round; stroke-linecap:round;" d="M40.92 13.5c0.11 0.99-0.28 1.94-0.65 2.85c-2.77 5.02-7.82 12.04-14.67 18.47" marker-end="url(#TriangleRed)" marker-start="url(#ArrowRed)" ></path>








</g><g transform="scale(1.3761467889908 1.3761467889908) translate(109, 0)">
<path style="fill:none; fill-rule:evenodd; stroke:#aaaaaa;  stroke-width:1pt; stroke-linecap:round;" d="m 109 0 L 0 0 L 0 109 L 109 109 L 109 0"></path><path style="fill:none; fill-opacity:0%; fill-rule:evenodd; stroke:#aaaaaa; stroke-opacity:100%; stroke-width: 1.5pt; stroke-linejoin:round; stroke-linecap:round;" d="M40.92 13.5c0.11 0.99-0.28 1.94-0.65 2.85c-2.77 5.02-7.82 12.04-14.67 18.47"></path>
<path style="fill:none; fill-opacity:0%; fill-rule:evenodd; stroke:#aaaaaa; stroke-opacity:100%; stroke-width: 1.5pt; stroke-linejoin:round; stroke-linecap:round;" d="M39.45 23.77c2.55 0.73 4.11 0.59 6.42 0.32c7.19-1.02 22.76-3.34 30.51-4.27c4.43-0.53 6.37 0.85 5.22 5.25c-1.72 6.6-5.73 20.92-13.02 29.36c-5.03 5.82-7.37 6.03-10.91 3.55"></path>
<path style="fill:none; fill-opacity:0%; fill-rule:evenodd; stroke:#aaaaaa; stroke-opacity:100%; stroke-width: 1.5pt; stroke-linejoin:round; stroke-linecap:round;" d="M48.84 27.03c0 1.1-0.31 2.05-0.85 2.95c-3.12 5.27-7.24 9.9-16.11 15.46"></path>
<path style="fill:none; fill-opacity:0%; fill-rule:evenodd; stroke:#aaaaaa; stroke-opacity:100%; stroke-width: 1.5pt; stroke-linejoin:round; stroke-linecap:round;" d="M66.04 25.02c0.09 0.79 0.07 1.85-0.43 2.94C62.25 35.25 51.62 49 34.2 58.18"></path>
<path style="fill:none; fill-opacity:0%; fill-rule:evenodd; stroke:#aaaaaa; stroke-opacity:100%; stroke-width: 1.5pt; stroke-linejoin:round; stroke-linecap:round;" d="M21.89 78.32c0.39 2.39-4.17 12.69-7.31 16.67"></path>
<path style="fill:none; fill-opacity:0%; fill-rule:evenodd; stroke:#aaaaaa; stroke-opacity:100%; stroke-width: 1.5pt; stroke-linejoin:round; stroke-linecap:round;" d="M33.58 72.75c6.92 14 18.68 24.22 43.14 22.93c13.03-0.68 13.9-3.56 3.38-10.3"></path>
<path style="fill:none; fill-opacity:0%; fill-rule:evenodd; stroke:#aaaaaa; stroke-opacity:100%; stroke-width: 1.5pt; stroke-linejoin:round; stroke-linecap:round;" d="M53.16 71.25c2.17 5.25 5.57 10.75 7.88 2.71"></path>
<path style="fill:none; fill-opacity:0%; fill-rule:evenodd; stroke:#aaaaaa; stroke-opacity:100%; stroke-width: 1.5pt; stroke-linejoin:round; stroke-linecap:round;" d="M83.13 67.23c4.74 2.89 7.87 5.52 11.35 11.86"></path>

<path style="fill:none; fill-opacity:0%; fill-rule:evenodd; stroke:#000000; stroke-opacity:100%; stroke-width: 3pt; stroke-linejoin:round; stroke-linecap:round;" d="M40.92 13.5c0.11 0.99-0.28 1.94-0.65 2.85c-2.77 5.02-7.82 12.04-14.67 18.47"></path>
<text x="5" y="20" font-size="20" fill="#999999">2</text><path style="fill:none; fill-opacity:0%; fill-rule:evenodd; stroke:#CC0000; stroke-opacity:100%; stroke-width: 3pt; stroke-linejoin:round; stroke-linecap:round;" d="M39.45 23.77c2.55 0.73 4.11 0.59 6.42 0.32c7.19-1.02 22.76-3.34 30.51-4.27c4.43-0.53 6.37 0.85 5.22 5.25c-1.72 6.6-5.73 20.92-13.02 29.36c-5.03 5.82-7.37 6.03-10.91 3.55" marker-end="url(#TriangleRed)" marker-start="url(#ArrowRed)" ></path>







</g><g transform="scale(1.3761467889908 1.3761467889908) translate(218, 0)">
<path style="fill:none; fill-rule:evenodd; stroke:#aaaaaa;  stroke-width:1pt; stroke-linecap:round;" d="m 109 0 L 0 0 L 0 109 L 109 109 L 109 0"></path><path style="fill:none; fill-opacity:0%; fill-rule:evenodd; stroke:#aaaaaa; stroke-opacity:100%; stroke-width: 1.5pt; stroke-linejoin:round; stroke-linecap:round;" d="M40.92 13.5c0.11 0.99-0.28 1.94-0.65 2.85c-2.77 5.02-7.82 12.04-14.67 18.47"></path>
<path style="fill:none; fill-opacity:0%; fill-rule:evenodd; stroke:#aaaaaa; stroke-opacity:100%; stroke-width: 1.5pt; stroke-linejoin:round; stroke-linecap:round;" d="M39.45 23.77c2.55 0.73 4.11 0.59 6.42 0.32c7.19-1.02 22.76-3.34 30.51-4.27c4.43-0.53 6.37 0.85 5.22 5.25c-1.72 6.6-5.73 20.92-13.02 29.36c-5.03 5.82-7.37 6.03-10.91 3.55"></path>
<path style="fill:none; fill-opacity:0%; fill-rule:evenodd; stroke:#aaaaaa; stroke-opacity:100%; stroke-width: 1.5pt; stroke-linejoin:round; stroke-linecap:round;" d="M48.84 27.03c0 1.1-0.31 2.05-0.85 2.95c-3.12 5.27-7.24 9.9-16.11 15.46"></path>
<path style="fill:none; fill-opacity:0%; fill-rule:evenodd; stroke:#aaaaaa; stroke-opacity:100%; stroke-width: 1.5pt; stroke-linejoin:round; stroke-linecap:round;" d="M66.04 25.02c0.09 0.79 0.07 1.85-0.43 2.94C62.25 35.25 51.62 49 34.2 58.18"></path>
<path style="fill:none; fill-opacity:0%; fill-rule:evenodd; stroke:#aaaaaa; stroke-opacity:100%; stroke-width: 1.5pt; stroke-linejoin:round; stroke-linecap:round;" d="M21.89 78.32c0.39 2.39-4.17 12.69-7.31 16.67"></path>
<path style="fill:none; fill-opacity:0%; fill-rule:evenodd; stroke:#aaaaaa; stroke-opacity:100%; stroke-width: 1.5pt; stroke-linejoin:round; stroke-linecap:round;" d="M33.58 72.75c6.92 14 18.68 24.22 43.14 22.93c13.03-0.68 13.9-3.56 3.38-10.3"></path>
<path style="fill:none; fill-opacity:0%; fill-rule:evenodd; stroke:#aaaaaa; stroke-opacity:100%; stroke-width: 1.5pt; stroke-linejoin:round; stroke-linecap:round;" d="M53.16 71.25c2.17 5.25 5.57 10.75 7.88 2.71"></path>
<path style="fill:none; fill-opacity:0%; fill-rule:evenodd; stroke:#aaaaaa; stroke-opacity:100%; stroke-width: 1.5pt; stroke-linejoin:round; stroke-linecap:round;" d="M83.13 67.23c4.74 2.89 7.87 5.52 11.35 11.86"></path>

<path style="fill:none; fill-opacity:0%; fill-rule:evenodd; stroke:#000000; stroke-opacity:100%; stroke-width: 3pt; stroke-linejoin:round; stroke-linecap:round;" d="M40.92 13.5c0.11 0.99-0.28 1.94-0.65 2.85c-2.77 5.02-7.82 12.04-14.67 18.47"></path>
<path style="fill:none; fill-opacity:0%; fill-rule:evenodd; stroke:#000000; stroke-opacity:100%; stroke-width: 3pt; stroke-linejoin:round; stroke-linecap:round;" d="M39.45 23.77c2.55 0.73 4.11 0.59 6.42 0.32c7.19-1.02 22.76-3.34 30.51-4.27c4.43-0.53 6.37 0.85 5.22 5.25c-1.72 6.6-5.73 20.92-13.02 29.36c-5.03 5.82-7.37 6.03-10.91 3.55"></path>
<text x="5" y="20" font-size="20" fill="#999999">3</text><path style="fill:none; fill-opacity:0%; fill-rule:evenodd; stroke:#CC0000; stroke-opacity:100%; stroke-width: 3pt; stroke-linejoin:round; stroke-linecap:round;" d="M48.84 27.03c0 1.1-0.31 2.05-0.85 2.95c-3.12 5.27-7.24 9.9-16.11 15.46" marker-end="url(#TriangleRed)" marker-start="url(#ArrowRed)" ></path>






</g><g transform="scale(1.3761467889908 1.3761467889908) translate(327, 0)">
<path style="fill:none; fill-rule:evenodd; stroke:#aaaaaa;  stroke-width:1pt; stroke-linecap:round;" d="m 109 0 L 0 0 L 0 109 L 109 109 L 109 0"></path><path style="fill:none; fill-opacity:0%; fill-rule:evenodd; stroke:#aaaaaa; stroke-opacity:100%; stroke-width: 1.5pt; stroke-linejoin:round; stroke-linecap:round;" d="M40.92 13.5c0.11 0.99-0.28 1.94-0.65 2.85c-2.77 5.02-7.82 12.04-14.67 18.47"></path>
<path style="fill:none; fill-opacity:0%; fill-rule:evenodd; stroke:#aaaaaa; stroke-opacity:100%; stroke-width: 1.5pt; stroke-linejoin:round; stroke-linecap:round;" d="M39.45 23.77c2.55 0.73 4.11 0.59 6.42 0.32c7.19-1.02 22.76-3.34 30.51-4.27c4.43-0.53 6.37 0.85 5.22 5.25c-1.72 6.6-5.73 20.92-13.02 29.36c-5.03 5.82-7.37 6.03-10.91 3.55"></path>
<path style="fill:none; fill-opacity:0%; fill-rule:evenodd; stroke:#aaaaaa; stroke-opacity:100%; stroke-width: 1.5pt; stroke-linejoin:round; stroke-linecap:round;" d="M48.84 27.03c0 1.1-0.31 2.05-0.85 2.95c-3.12 5.27-7.24 9.9-16.11 15.46"></path>
<path style="fill:none; fill-opacity:0%; fill-rule:evenodd; stroke:#aaaaaa; stroke-opacity:100%; stroke-width: 1.5pt; stroke-linejoin:round; stroke-linecap:round;" d="M66.04 25.02c0.09 0.79 0.07 1.85-0.43 2.94C62.25 35.25 51.62 49 34.2 58.18"></path>
<path style="fill:none; fill-opacity:0%; fill-rule:evenodd; stroke:#aaaaaa; stroke-opacity:100%; stroke-width: 1.5pt; stroke-linejoin:round; stroke-linecap:round;" d="M21.89 78.32c0.39 2.39-4.17 12.69-7.31 16.67"></path>
<path style="fill:none; fill-opacity:0%; fill-rule:evenodd; stroke:#aaaaaa; stroke-opacity:100%; stroke-width: 1.5pt; stroke-linejoin:round; stroke-linecap:round;" d="M33.58 72.75c6.92 14 18.68 24.22 43.14 22.93c13.03-0.68 13.9-3.56 3.38-10.3"></path>
<path style="fill:none; fill-opacity:0%; fill-rule:evenodd; stroke:#aaaaaa; stroke-opacity:100%; stroke-width: 1.5pt; stroke-linejoin:round; stroke-linecap:round;" d="M53.16 71.25c2.17 5.25 5.57 10.75 7.88 2.71"></path>
<path style="fill:none; fill-opacity:0%; fill-rule:evenodd; stroke:#aaaaaa; stroke-opacity:100%; stroke-width: 1.5pt; stroke-linejoin:round; stroke-linecap:round;" d="M83.13 67.23c4.74 2.89 7.87 5.52 11.35 11.86"></path>

<path style="fill:none; fill-opacity:0%; fill-rule:evenodd; stroke:#000000; stroke-opacity:100%; stroke-width: 3pt; stroke-linejoin:round; stroke-linecap:round;" d="M40.92 13.5c0.11 0.99-0.28 1.94-0.65 2.85c-2.77 5.02-7.82 12.04-14.67 18.47"></path>
<path style="fill:none; fill-opacity:0%; fill-rule:evenodd; stroke:#000000; stroke-opacity:100%; stroke-width: 3pt; stroke-linejoin:round; stroke-linecap:round;" d="M39.45 23.77c2.55 0.73 4.11 0.59 6.42 0.32c7.19-1.02 22.76-3.34 30.51-4.27c4.43-0.53 6.37 0.85 5.22 5.25c-1.72 6.6-5.73 20.92-13.02 29.36c-5.03 5.82-7.37 6.03-10.91 3.55"></path>
<path style="fill:none; fill-opacity:0%; fill-rule:evenodd; stroke:#000000; stroke-opacity:100%; stroke-width: 3pt; stroke-linejoin:round; stroke-linecap:round;" d="M48.84 27.03c0 1.1-0.31 2.05-0.85 2.95c-3.12 5.27-7.24 9.9-16.11 15.46"></path>
<text x="5" y="20" font-size="20" fill="#999999">4</text><path style="fill:none; fill-opacity:0%; fill-rule:evenodd; stroke:#CC0000; stroke-opacity:100%; stroke-width: 3pt; stroke-linejoin:round; stroke-linecap:round;" d="M66.04 25.02c0.09 0.79 0.07 1.85-0.43 2.94C62.25 35.25 51.62 49 34.2 58.18" marker-end="url(#TriangleRed)" marker-start="url(#ArrowRed)" ></path>





</g><g transform="scale(1.3761467889908 1.3761467889908) translate(436, 0)">
<path style="fill:none; fill-rule:evenodd; stroke:#aaaaaa;  stroke-width:1pt; stroke-linecap:round;" d="m 109 0 L 0 0 L 0 109 L 109 109 L 109 0"></path><path style="fill:none; fill-opacity:0%; fill-rule:evenodd; stroke:#aaaaaa; stroke-opacity:100%; stroke-width: 1.5pt; stroke-linejoin:round; stroke-linecap:round;" d="M40.92 13.5c0.11 0.99-0.28 1.94-0.65 2.85c-2.77 5.02-7.82 12.04-14.67 18.47"></path>
<path style="fill:none; fill-opacity:0%; fill-rule:evenodd; stroke:#aaaaaa; stroke-opacity:100%; stroke-width: 1.5pt; stroke-linejoin:round; stroke-linecap:round;" d="M39.45 23.77c2.55 0.73 4.11 0.59 6.42 0.32c7.19-1.02 22.76-3.34 30.51-4.27c4.43-0.53 6.37 0.85 5.22 5.25c-1.72 6.6-5.73 20.92-13.02 29.36c-5.03 5.82-7.37 6.03-10.91 3.55"></path>
<path style="fill:none; fill-opacity:0%; fill-rule:evenodd; stroke:#aaaaaa; stroke-opacity:100%; stroke-width: 1.5pt; stroke-linejoin:round; stroke-linecap:round;" d="M48.84 27.03c0 1.1-0.31 2.05-0.85 2.95c-3.12 5.27-7.24 9.9-16.11 15.46"></path>
<path style="fill:none; fill-opacity:0%; fill-rule:evenodd; stroke:#aaaaaa; stroke-opacity:100%; stroke-width: 1.5pt; stroke-linejoin:round; stroke-linecap:round;" d="M66.04 25.02c0.09 0.79 0.07 1.85-0.43 2.94C62.25 35.25 51.62 49 34.2 58.18"></path>
<path style="fill:none; fill-opacity:0%; fill-rule:evenodd; stroke:#aaaaaa; stroke-opacity:100%; stroke-width: 1.5pt; stroke-linejoin:round; stroke-linecap:round;" d="M21.89 78.32c0.39 2.39-4.17 12.69-7.31 16.67"></path>
<path style="fill:none; fill-opacity:0%; fill-rule:evenodd; stroke:#aaaaaa; stroke-opacity:100%; stroke-width: 1.5pt; stroke-linejoin:round; stroke-linecap:round;" d="M33.58 72.75c6.92 14 18.68 24.22 43.14 22.93c13.03-0.68 13.9-3.56 3.38-10.3"></path>
<path style="fill:none; fill-opacity:0%; fill-rule:evenodd; stroke:#aaaaaa; stroke-opacity:100%; stroke-width: 1.5pt; stroke-linejoin:round; stroke-linecap:round;" d="M53.16 71.25c2.17 5.25 5.57 10.75 7.88 2.71"></path>
<path style="fill:none; fill-opacity:0%; fill-rule:evenodd; stroke:#aaaaaa; stroke-opacity:100%; stroke-width: 1.5pt; stroke-linejoin:round; stroke-linecap:round;" d="M83.13 67.23c4.74 2.89 7.87 5.52 11.35 11.86"></path>

<path style="fill:none; fill-opacity:0%; fill-rule:evenodd; stroke:#000000; stroke-opacity:100%; stroke-width: 3pt; stroke-linejoin:round; stroke-linecap:round;" d="M40.92 13.5c0.11 0.99-0.28 1.94-0.65 2.85c-2.77 5.02-7.82 12.04-14.67 18.47"></path>
<path style="fill:none; fill-opacity:0%; fill-rule:evenodd; stroke:#000000; stroke-opacity:100%; stroke-width: 3pt; stroke-linejoin:round; stroke-linecap:round;" d="M39.45 23.77c2.55 0.73 4.11 0.59 6.42 0.32c7.19-1.02 22.76-3.34 30.51-4.27c4.43-0.53 6.37 0.85 5.22 5.25c-1.72 6.6-5.73 20.92-13.02 29.36c-5.03 5.82-7.37 6.03-10.91 3.55"></path>
<path style="fill:none; fill-opacity:0%; fill-rule:evenodd; stroke:#000000; stroke-opacity:100%; stroke-width: 3pt; stroke-linejoin:round; stroke-linecap:round;" d="M48.84 27.03c0 1.1-0.31 2.05-0.85 2.95c-3.12 5.27-7.24 9.9-16.11 15.46"></path>
<path style="fill:none; fill-opacity:0%; fill-rule:evenodd; stroke:#000000; stroke-opacity:100%; stroke-width: 3pt; stroke-linejoin:round; stroke-linecap:round;" d="M66.04 25.02c0.09 0.79 0.07 1.85-0.43 2.94C62.25 35.25 51.62 49 34.2 58.18"></path>
<text x="5" y="20" font-size="20" fill="#999999">5</text><path style="fill:none; fill-opacity:0%; fill-rule:evenodd; stroke:#CC0000; stroke-opacity:100%; stroke-width: 3pt; stroke-linejoin:round; stroke-linecap:round;" d="M21.89 78.32c0.39 2.39-4.17 12.69-7.31 16.67" marker-end="url(#TriangleRed)" marker-start="url(#ArrowRed)" ></path>




</g><g transform="scale(1.3761467889908 1.3761467889908) translate(0, 109)">
<path style="fill:none; fill-rule:evenodd; stroke:#aaaaaa;  stroke-width:1pt; stroke-linecap:round;" d="m 109 0 L 0 0 L 0 109 L 109 109 L 109 0"></path><path style="fill:none; fill-opacity:0%; fill-rule:evenodd; stroke:#aaaaaa; stroke-opacity:100%; stroke-width: 1.5pt; stroke-linejoin:round; stroke-linecap:round;" d="M40.92 13.5c0.11 0.99-0.28 1.94-0.65 2.85c-2.77 5.02-7.82 12.04-14.67 18.47"></path>
<path style="fill:none; fill-opacity:0%; fill-rule:evenodd; stroke:#aaaaaa; stroke-opacity:100%; stroke-width: 1.5pt; stroke-linejoin:round; stroke-linecap:round;" d="M39.45 23.77c2.55 0.73 4.11 0.59 6.42 0.32c7.19-1.02 22.76-3.34 30.51-4.27c4.43-0.53 6.37 0.85 5.22 5.25c-1.72 6.6-5.73 20.92-13.02 29.36c-5.03 5.82-7.37 6.03-10.91 3.55"></path>
<path style="fill:none; fill-opacity:0%; fill-rule:evenodd; stroke:#aaaaaa; stroke-opacity:100%; stroke-width: 1.5pt; stroke-linejoin:round; stroke-linecap:round;" d="M48.84 27.03c0 1.1-0.31 2.05-0.85 2.95c-3.12 5.27-7.24 9.9-16.11 15.46"></path>
<path style="fill:none; fill-opacity:0%; fill-rule:evenodd; stroke:#aaaaaa; stroke-opacity:100%; stroke-width: 1.5pt; stroke-linejoin:round; stroke-linecap:round;" d="M66.04 25.02c0.09 0.79 0.07 1.85-0.43 2.94C62.25 35.25 51.62 49 34.2 58.18"></path>
<path style="fill:none; fill-opacity:0%; fill-rule:evenodd; stroke:#aaaaaa; stroke-opacity:100%; stroke-width: 1.5pt; stroke-linejoin:round; stroke-linecap:round;" d="M21.89 78.32c0.39 2.39-4.17 12.69-7.31 16.67"></path>
<path style="fill:none; fill-opacity:0%; fill-rule:evenodd; stroke:#aaaaaa; stroke-opacity:100%; stroke-width: 1.5pt; stroke-linejoin:round; stroke-linecap:round;" d="M33.58 72.75c6.92 14 18.68 24.22 43.14 22.93c13.03-0.68 13.9-3.56 3.38-10.3"></path>
<path style="fill:none; fill-opacity:0%; fill-rule:evenodd; stroke:#aaaaaa; stroke-opacity:100%; stroke-width: 1.5pt; stroke-linejoin:round; stroke-linecap:round;" d="M53.16 71.25c2.17 5.25 5.57 10.75 7.88 2.71"></path>
<path style="fill:none; fill-opacity:0%; fill-rule:evenodd; stroke:#aaaaaa; stroke-opacity:100%; stroke-width: 1.5pt; stroke-linejoin:round; stroke-linecap:round;" d="M83.13 67.23c4.74 2.89 7.87 5.52 11.35 11.86"></path>

<path style="fill:none; fill-opacity:0%; fill-rule:evenodd; stroke:#000000; stroke-opacity:100%; stroke-width: 3pt; stroke-linejoin:round; stroke-linecap:round;" d="M40.92 13.5c0.11 0.99-0.28 1.94-0.65 2.85c-2.77 5.02-7.82 12.04-14.67 18.47"></path>
<path style="fill:none; fill-opacity:0%; fill-rule:evenodd; stroke:#000000; stroke-opacity:100%; stroke-width: 3pt; stroke-linejoin:round; stroke-linecap:round;" d="M39.45 23.77c2.55 0.73 4.11 0.59 6.42 0.32c7.19-1.02 22.76-3.34 30.51-4.27c4.43-0.53 6.37 0.85 5.22 5.25c-1.72 6.6-5.73 20.92-13.02 29.36c-5.03 5.82-7.37 6.03-10.91 3.55"></path>
<path style="fill:none; fill-opacity:0%; fill-rule:evenodd; stroke:#000000; stroke-opacity:100%; stroke-width: 3pt; stroke-linejoin:round; stroke-linecap:round;" d="M48.84 27.03c0 1.1-0.31 2.05-0.85 2.95c-3.12 5.27-7.24 9.9-16.11 15.46"></path>
<path style="fill:none; fill-opacity:0%; fill-rule:evenodd; stroke:#000000; stroke-opacity:100%; stroke-width: 3pt; stroke-linejoin:round; stroke-linecap:round;" d="M66.04 25.02c0.09 0.79 0.07 1.85-0.43 2.94C62.25 35.25 51.62 49 34.2 58.18"></path>
<path style="fill:none; fill-opacity:0%; fill-rule:evenodd; stroke:#000000; stroke-opacity:100%; stroke-width: 3pt; stroke-linejoin:round; stroke-linecap:round;" d="M21.89 78.32c0.39 2.39-4.17 12.69-7.31 16.67"></path>
<text x="5" y="20" font-size="20" fill="#999999">6</text><path style="fill:none; fill-opacity:0%; fill-rule:evenodd; stroke:#CC0000; stroke-opacity:100%; stroke-width: 3pt; stroke-linejoin:round; stroke-linecap:round;" d="M33.58 72.75c6.92 14 18.68 24.22 43.14 22.93c13.03-0.68 13.9-3.56 3.38-10.3" marker-end="url(#TriangleRed)" marker-start="url(#ArrowRed)" ></path>



</g><g transform="scale(1.3761467889908 1.3761467889908) translate(109, 109)">
<path style="fill:none; fill-rule:evenodd; stroke:#aaaaaa;  stroke-width:1pt; stroke-linecap:round;" d="m 109 0 L 0 0 L 0 109 L 109 109 L 109 0"></path><path style="fill:none; fill-opacity:0%; fill-rule:evenodd; stroke:#aaaaaa; stroke-opacity:100%; stroke-width: 1.5pt; stroke-linejoin:round; stroke-linecap:round;" d="M40.92 13.5c0.11 0.99-0.28 1.94-0.65 2.85c-2.77 5.02-7.82 12.04-14.67 18.47"></path>
<path style="fill:none; fill-opacity:0%; fill-rule:evenodd; stroke:#aaaaaa; stroke-opacity:100%; stroke-width: 1.5pt; stroke-linejoin:round; stroke-linecap:round;" d="M39.45 23.77c2.55 0.73 4.11 0.59 6.42 0.32c7.19-1.02 22.76-3.34 30.51-4.27c4.43-0.53 6.37 0.85 5.22 5.25c-1.72 6.6-5.73 20.92-13.02 29.36c-5.03 5.82-7.37 6.03-10.91 3.55"></path>
<path style="fill:none; fill-opacity:0%; fill-rule:evenodd; stroke:#aaaaaa; stroke-opacity:100%; stroke-width: 1.5pt; stroke-linejoin:round; stroke-linecap:round;" d="M48.84 27.03c0 1.1-0.31 2.05-0.85 2.95c-3.12 5.27-7.24 9.9-16.11 15.46"></path>
<path style="fill:none; fill-opacity:0%; fill-rule:evenodd; stroke:#aaaaaa; stroke-opacity:100%; stroke-width: 1.5pt; stroke-linejoin:round; stroke-linecap:round;" d="M66.04 25.02c0.09 0.79 0.07 1.85-0.43 2.94C62.25 35.25 51.62 49 34.2 58.18"></path>
<path style="fill:none; fill-opacity:0%; fill-rule:evenodd; stroke:#aaaaaa; stroke-opacity:100%; stroke-width: 1.5pt; stroke-linejoin:round; stroke-linecap:round;" d="M21.89 78.32c0.39 2.39-4.17 12.69-7.31 16.67"></path>
<path style="fill:none; fill-opacity:0%; fill-rule:evenodd; stroke:#aaaaaa; stroke-opacity:100%; stroke-width: 1.5pt; stroke-linejoin:round; stroke-linecap:round;" d="M33.58 72.75c6.92 14 18.68 24.22 43.14 22.93c13.03-0.68 13.9-3.56 3.38-10.3"></path>
<path style="fill:none; fill-opacity:0%; fill-rule:evenodd; stroke:#aaaaaa; stroke-opacity:100%; stroke-width: 1.5pt; stroke-linejoin:round; stroke-linecap:round;" d="M53.16 71.25c2.17 5.25 5.57 10.75 7.88 2.71"></path>
<path style="fill:none; fill-opacity:0%; fill-rule:evenodd; stroke:#aaaaaa; stroke-opacity:100%; stroke-width: 1.5pt; stroke-linejoin:round; stroke-linecap:round;" d="M83.13 67.23c4.74 2.89 7.87 5.52 11.35 11.86"></path>

<path style="fill:none; fill-opacity:0%; fill-rule:evenodd; stroke:#000000; stroke-opacity:100%; stroke-width: 3pt; stroke-linejoin:round; stroke-linecap:round;" d="M40.92 13.5c0.11 0.99-0.28 1.94-0.65 2.85c-2.77 5.02-7.82 12.04-14.67 18.47"></path>
<path style="fill:none; fill-opacity:0%; fill-rule:evenodd; stroke:#000000; stroke-opacity:100%; stroke-width: 3pt; stroke-linejoin:round; stroke-linecap:round;" d="M39.45 23.77c2.55 0.73 4.11 0.59 6.42 0.32c7.19-1.02 22.76-3.34 30.51-4.27c4.43-0.53 6.37 0.85 5.22 5.25c-1.72 6.6-5.73 20.92-13.02 29.36c-5.03 5.82-7.37 6.03-10.91 3.55"></path>
<path style="fill:none; fill-opacity:0%; fill-rule:evenodd; stroke:#000000; stroke-opacity:100%; stroke-width: 3pt; stroke-linejoin:round; stroke-linecap:round;" d="M48.84 27.03c0 1.1-0.31 2.05-0.85 2.95c-3.12 5.27-7.24 9.9-16.11 15.46"></path>
<path style="fill:none; fill-opacity:0%; fill-rule:evenodd; stroke:#000000; stroke-opacity:100%; stroke-width: 3pt; stroke-linejoin:round; stroke-linecap:round;" d="M66.04 25.02c0.09 0.79 0.07 1.85-0.43 2.94C62.25 35.25 51.62 49 34.2 58.18"></path>
<path style="fill:none; fill-opacity:0%; fill-rule:evenodd; stroke:#000000; stroke-opacity:100%; stroke-width: 3pt; stroke-linejoin:round; stroke-linecap:round;" d="M21.89 78.32c0.39 2.39-4.17 12.69-7.31 16.67"></path>
<path style="fill:none; fill-opacity:0%; fill-rule:evenodd; stroke:#000000; stroke-opacity:100%; stroke-width: 3pt; stroke-linejoin:round; stroke-linecap:round;" d="M33.58 72.75c6.92 14 18.68 24.22 43.14 22.93c13.03-0.68 13.9-3.56 3.38-10.3"></path>
<text x="5" y="20" font-size="20" fill="#999999">7</text><path style="fill:none; fill-opacity:0%; fill-rule:evenodd; stroke:#CC0000; stroke-opacity:100%; stroke-width: 3pt; stroke-linejoin:round; stroke-linecap:round;" d="M53.16 71.25c2.17 5.25 5.57 10.75 7.88 2.71" marker-end="url(#TriangleRed)" marker-start="url(#ArrowRed)" ></path>


</g><g transform="scale(1.3761467889908 1.3761467889908) translate(218, 109)">
<path style="fill:none; fill-rule:evenodd; stroke:#aaaaaa;  stroke-width:1pt; stroke-linecap:round;" d="m 109 0 L 0 0 L 0 109 L 109 109 L 109 0"></path><path style="fill:none; fill-opacity:0%; fill-rule:evenodd; stroke:#aaaaaa; stroke-opacity:100%; stroke-width: 1.5pt; stroke-linejoin:round; stroke-linecap:round;" d="M40.92 13.5c0.11 0.99-0.28 1.94-0.65 2.85c-2.77 5.02-7.82 12.04-14.67 18.47"></path>
<path style="fill:none; fill-opacity:0%; fill-rule:evenodd; stroke:#aaaaaa; stroke-opacity:100%; stroke-width: 1.5pt; stroke-linejoin:round; stroke-linecap:round;" d="M39.45 23.77c2.55 0.73 4.11 0.59 6.42 0.32c7.19-1.02 22.76-3.34 30.51-4.27c4.43-0.53 6.37 0.85 5.22 5.25c-1.72 6.6-5.73 20.92-13.02 29.36c-5.03 5.82-7.37 6.03-10.91 3.55"></path>
<path style="fill:none; fill-opacity:0%; fill-rule:evenodd; stroke:#aaaaaa; stroke-opacity:100%; stroke-width: 1.5pt; stroke-linejoin:round; stroke-linecap:round;" d="M48.84 27.03c0 1.1-0.31 2.05-0.85 2.95c-3.12 5.27-7.24 9.9-16.11 15.46"></path>
<path style="fill:none; fill-opacity:0%; fill-rule:evenodd; stroke:#aaaaaa; stroke-opacity:100%; stroke-width: 1.5pt; stroke-linejoin:round; stroke-linecap:round;" d="M66.04 25.02c0.09 0.79 0.07 1.85-0.43 2.94C62.25 35.25 51.62 49 34.2 58.18"></path>
<path style="fill:none; fill-opacity:0%; fill-rule:evenodd; stroke:#aaaaaa; stroke-opacity:100%; stroke-width: 1.5pt; stroke-linejoin:round; stroke-linecap:round;" d="M21.89 78.32c0.39 2.39-4.17 12.69-7.31 16.67"></path>
<path style="fill:none; fill-opacity:0%; fill-rule:evenodd; stroke:#aaaaaa; stroke-opacity:100%; stroke-width: 1.5pt; stroke-linejoin:round; stroke-linecap:round;" d="M33.58 72.75c6.92 14 18.68 24.22 43.14 22.93c13.03-0.68 13.9-3.56 3.38-10.3"></path>
<path style="fill:none; fill-opacity:0%; fill-rule:evenodd; stroke:#aaaaaa; stroke-opacity:100%; stroke-width: 1.5pt; stroke-linejoin:round; stroke-linecap:round;" d="M53.16 71.25c2.17 5.25 5.57 10.75 7.88 2.71"></path>
<path style="fill:none; fill-opacity:0%; fill-rule:evenodd; stroke:#aaaaaa; stroke-opacity:100%; stroke-width: 1.5pt; stroke-linejoin:round; stroke-linecap:round;" d="M83.13 67.23c4.74 2.89 7.87 5.52 11.35 11.86"></path>

<path style="fill:none; fill-opacity:0%; fill-rule:evenodd; stroke:#000000; stroke-opacity:100%; stroke-width: 3pt; stroke-linejoin:round; stroke-linecap:round;" d="M40.92 13.5c0.11 0.99-0.28 1.94-0.65 2.85c-2.77 5.02-7.82 12.04-14.67 18.47"></path>
<path style="fill:none; fill-opacity:0%; fill-rule:evenodd; stroke:#000000; stroke-opacity:100%; stroke-width: 3pt; stroke-linejoin:round; stroke-linecap:round;" d="M39.45 23.77c2.55 0.73 4.11 0.59 6.42 0.32c7.19-1.02 22.76-3.34 30.51-4.27c4.43-0.53 6.37 0.85 5.22 5.25c-1.72 6.6-5.73 20.92-13.02 29.36c-5.03 5.82-7.37 6.03-10.91 3.55"></path>
<path style="fill:none; fill-opacity:0%; fill-rule:evenodd; stroke:#000000; stroke-opacity:100%; stroke-width: 3pt; stroke-linejoin:round; stroke-linecap:round;" d="M48.84 27.03c0 1.1-0.31 2.05-0.85 2.95c-3.12 5.27-7.24 9.9-16.11 15.46"></path>
<path style="fill:none; fill-opacity:0%; fill-rule:evenodd; stroke:#000000; stroke-opacity:100%; stroke-width: 3pt; stroke-linejoin:round; stroke-linecap:round;" d="M66.04 25.02c0.09 0.79 0.07 1.85-0.43 2.94C62.25 35.25 51.62 49 34.2 58.18"></path>
<path style="fill:none; fill-opacity:0%; fill-rule:evenodd; stroke:#000000; stroke-opacity:100%; stroke-width: 3pt; stroke-linejoin:round; stroke-linecap:round;" d="M21.89 78.32c0.39 2.39-4.17 12.69-7.31 16.67"></path>
<path style="fill:none; fill-opacity:0%; fill-rule:evenodd; stroke:#000000; stroke-opacity:100%; stroke-width: 3pt; stroke-linejoin:round; stroke-linecap:round;" d="M33.58 72.75c6.92 14 18.68 24.22 43.14 22.93c13.03-0.68 13.9-3.56 3.38-10.3"></path>
<path style="fill:none; fill-opacity:0%; fill-rule:evenodd; stroke:#000000; stroke-opacity:100%; stroke-width: 3pt; stroke-linejoin:round; stroke-linecap:round;" d="M53.16 71.25c2.17 5.25 5.57 10.75 7.88 2.71"></path>
<text x="5" y="20" font-size="20" fill="#999999">8</text><path style="fill:none; fill-opacity:0%; fill-rule:evenodd; stroke:#CC0000; stroke-opacity:100%; stroke-width: 3pt; stroke-linejoin:round; stroke-linecap:round;" d="M83.13 67.23c4.74 2.89 7.87 5.52 11.35 11.86" marker-end="url(#TriangleRed)" marker-start="url(#ArrowRed)" ></path>

</g>

</svg>  
          
