<?xml version="1.0" standalone="no"?>
<!DOCTYPE svg PUBLIC "-//W3C//DTD SVG 1.1//EN"   "http://www.w3.org/Graphics/SVG/1.1/DTD/svg11.dtd">
<svg width="751" height="301"  version="1.1" xmlns="http://www.w3.org/2000/svg">
  <defs>
    <marker id="Triangle" viewBox="0 0 10 10" refX="0" refY="5" markerUnits="strokeWidth" markerWidth="3" style="stroke-opacity:0%;fill:#aaaaaa;" markerHeight="2" orient="auto">
      <path d="M 0 0 L 10 5 L 0 10 z" />
    </marker>
    
    <marker id="Arrow" viewBox="0 0 10 10" refX="5" refY="5" markerUnits="strokeWidth" markerWidth="1.8" style="stroke-opacity:0%;fill:#770000;" markerHeight="2" orient="auto">
      <path d="M 0 4 L 6 4 L 4 1 L 10 5 L 4 9 L 6 6 L 0 6 z" />
        <circle cx="5" cy="5" r="5" />
      </marker>
    
    <marker id="TriangleRed" viewBox="0 0 10 10" refX="0" refY="5" markerUnits="strokeWidth" markerWidth="3" style="stroke-opacity:0%;fill:#CC0000;" markerHeight="2" orient="auto">
      <path d="M 0 0 L 10 5 L 0 10 z" />
    </marker>
    
    <marker id="ArrowRed" viewBox="0 0 10 10" refX="5" refY="5" markerUnits="strokeWidth" markerWidth="1.8" style="stroke-opacity:0%;fill:#CC0000;" markerHeight="2" orient="auto">
      <path d="M 0 4 L 6 4 L 4 1 L 10 5 L 4 9 L 6 6 L 0 6 z" />
        <circle cx="5" cy="5" r="5" />
      </marker>
    
  </defs>
  
  <path style="fill:#ffffff; fill-opacity:100%; fill-rule:evenodd; stroke-width:0;" d="M 0 0 L 751 0 L 751 301 L 0 301 L 0 0" />

  <g transform="scale(1.3761467889908 1.3761467889908) translate(0, 0)">
<path style="fill:none; fill-rule:evenodd; stroke:#aaaaaa;  stroke-width:1pt; stroke-linecap:round;" d="m 109 0 L 0 0 L 0 109 L 109 109 L 109 0"></path><path style="fill:none; fill-opacity:0%; fill-rule:evenodd; stroke:#aaaaaa; stroke-opacity:100%; stroke-width: 1.5pt; stroke-linejoin:round; stroke-linecap:round;" d="M10.75 37.42c1.99 0.24 3.85 0.45 5.89 0.17c4.67-0.64 11.73-2.04 18.36-3.07c1.21-0.19 2.37-0.27 3.66-0.27"></path>
<path style="fill:none; fill-opacity:0%; fill-rule:evenodd; stroke:#aaaaaa; stroke-opacity:100%; stroke-width: 1.5pt; stroke-linejoin:round; stroke-linecap:round;" d="M27.27 14.75c1.05 1.05 1.51 2.62 1.51 5.02c0 15.23-0.01 54.21-0.01 65.65c0 11.58-4.82 3.78-6.27 2.25"></path>
<path style="fill:none; fill-opacity:0%; fill-rule:evenodd; stroke:#aaaaaa; stroke-opacity:100%; stroke-width: 1.5pt; stroke-linejoin:round; stroke-linecap:round;" d="M11 68.68c1.1 1.1 2.62 0.82 4.5-0.43c5.01-3.34 12.75-9.75 24-17.83"></path>
<path style="fill:none; fill-opacity:0%; fill-rule:evenodd; stroke:#aaaaaa; stroke-opacity:100%; stroke-width: 1.5pt; stroke-linejoin:round; stroke-linecap:round;" d="M45.13 36.46c2.03 0.6 4.9 0.47 7 0.09C63.25 34.5 71.88 32.88 82 31.67c2.17-0.26 4.53-0.15 6.63 0.22"></path>
<path style="fill:none; fill-opacity:0%; fill-rule:evenodd; stroke:#aaaaaa; stroke-opacity:100%; stroke-width: 1.5pt; stroke-linejoin:round; stroke-linecap:round;" d="M60.97 15.64c0.53 0.86 0.67 1.55 0.61 3.04C60.88 36.5 55.5 69.38 36 87.5"></path>
<path style="fill:none; fill-opacity:0%; fill-rule:evenodd; stroke:#aaaaaa; stroke-opacity:100%; stroke-width: 1.5pt; stroke-linejoin:round; stroke-linecap:round;" d="M59.58 51.93c1.6 0.18 3.17 0.01 4.72-0.39c5.81-1.48 10.6-3.16 14.84-4.17c3.09-0.74 3.97 1.09 3.18 3.1C77.99 61.46 65.25 84 44 94.5"></path>
<path style="fill:none; fill-opacity:0%; fill-rule:evenodd; stroke:#aaaaaa; stroke-opacity:100%; stroke-width: 1.5pt; stroke-linejoin:round; stroke-linecap:round;" d="M57 58.75c5.59 4.75 19.07 18.97 27.3 26.09c2.6 2.25 5.42 4.28 8.45 5.91"></path>

<text x="5" y="20" font-size="20" fill="#999999">1</text><path style="fill:none; fill-opacity:0%; fill-rule:evenodd; stroke:#CC0000; stroke-opacity:100%; stroke-width: 3pt; stroke-linejoin:round; stroke-linecap:round;" d="M10.75 37.42c1.99 0.24 3.85 0.45 5.89 0.17c4.67-0.64 11.73-2.04 18.36-3.07c1.21-0.19 2.37-0.27 3.66-0.27" marker-end="url(#TriangleRed)" marker-start="url(#ArrowRed)" ></path>







</g><g transform="scale(1.3761467889908 1.3761467889908) translate(109, 0)">
<path style="fill:none; fill-rule:evenodd; stroke:#aaaaaa;  stroke-width:1pt; stroke-linecap:round;" d="m 109 0 L 0 0 L 0 109 L 109 109 L 109 0"></path><path style="fill:none; fill-opacity:0%; fill-rule:evenodd; stroke:#aaaaaa; stroke-opacity:100%; stroke-width: 1.5pt; stroke-linejoin:round; stroke-linecap:round;" d="M10.75 37.42c1.99 0.24 3.85 0.45 5.89 0.17c4.67-0.64 11.73-2.04 18.36-3.07c1.21-0.19 2.37-0.27 3.66-0.27"></path>
<path style="fill:none; fill-opacity:0%; fill-rule:evenodd; stroke:#aaaaaa; stroke-opacity:100%; stroke-width: 1.5pt; stroke-linejoin:round; stroke-linecap:round;" d="M27.27 14.75c1.05 1.05 1.51 2.62 1.51 5.02c0 15.23-0.01 54.21-0.01 65.65c0 11.58-4.82 3.78-6.27 2.25"></path>
<path style="fill:none; fill-opacity:0%; fill-rule:evenodd; stroke:#aaaaaa; stroke-opacity:100%; stroke-width: 1.5pt; stroke-linejoin:round; stroke-linecap:round;" d="M11 68.68c1.1 1.1 2.62 0.82 4.5-0.43c5.01-3.34 12.75-9.75 24-17.83"></path>
<path style="fill:none; fill-opacity:0%; fill-rule:evenodd; stroke:#aaaaaa; stroke-opacity:100%; stroke-width: 1.5pt; stroke-linejoin:round; stroke-linecap:round;" d="M45.13 36.46c2.03 0.6 4.9 0.47 7 0.09C63.25 34.5 71.88 32.88 82 31.67c2.17-0.26 4.53-0.15 6.63 0.22"></path>
<path style="fill:none; fill-opacity:0%; fill-rule:evenodd; stroke:#aaaaaa; stroke-opacity:100%; stroke-width: 1.5pt; stroke-linejoin:round; stroke-linecap:round;" d="M60.97 15.64c0.53 0.86 0.67 1.55 0.61 3.04C60.88 36.5 55.5 69.38 36 87.5"></path>
<path style="fill:none; fill-opacity:0%; fill-rule:evenodd; stroke:#aaaaaa; stroke-opacity:100%; stroke-width: 1.5pt; stroke-linejoin:round; stroke-linecap:round;" d="M59.58 51.93c1.6 0.18 3.17 0.01 4.72-0.39c5.81-1.48 10.6-3.16 14.84-4.17c3.09-0.74 3.97 1.09 3.18 3.1C77.99 61.46 65.25 84 44 94.5"></path>
<path style="fill:none; fill-opacity:0%; fill-rule:evenodd; stroke:#aaaaaa; stroke-opacity:100%; stroke-width: 1.5pt; stroke-linejoin:round; stroke-linecap:round;" d="M57 58.75c5.59 4.75 19.07 18.97 27.3 26.09c2.6 2.25 5.42 4.28 8.45 5.91"></path>

<path style="fill:none; fill-opacity:0%; fill-rule:evenodd; stroke:#000000; stroke-opacity:100%; stroke-width: 3pt; stroke-linejoin:round; stroke-linecap:round;" d="M10.75 37.42c1.99 0.24 3.85 0.45 5.89 0.17c4.67-0.64 11.73-2.04 18.36-3.07c1.21-0.19 2.37-0.27 3.66-0.27"></path>
<text x="5" y="20" font-size="20" fill="#999999">2</text><path style="fill:none; fill-opacity:0%; fill-rule:evenodd; stroke:#CC0000; stroke-opacity:100%; stroke-width: 3pt; stroke-linejoin:round; stroke-linecap:round;" d="M27.27 14.75c1.05 1.05 1.51 2.62 1.51 5.02c0 15.23-0.01 54.21-0.01 65.65c0 11.58-4.82 3.78-6.27 2.25" marker-end="url(#TriangleRed)" marker-start="url(#ArrowRed)" ></path>






</g><g transform="scale(1.3761467889908 1.3761467889908) translate(218, 0)">
<path style="fill:none; fill-rule:evenodd; stroke:#aaaaaa;  stroke-width:1pt; stroke-linecap:round;" d="m 109 0 L 0 0 L 0 109 L 109 109 L 109 0"></path><path style="fill:none; fill-opacity:0%; fill-rule:evenodd; stroke:#aaaaaa; stroke-opacity:100%; stroke-width: 1.5pt; stroke-linejoin:round; stroke-linecap:round;" d="M10.75 37.42c1.99 0.24 3.85 0.45 5.89 0.17c4.67-0.64 11.73-2.04 18.36-3.07c1.21-0.19 2.37-0.27 3.66-0.27"></path>
<path style="fill:none; fill-opacity:0%; fill-rule:evenodd; stroke:#aaaaaa; stroke-opacity:100%; stroke-width: 1.5pt; stroke-linejoin:round; stroke-linecap:round;" d="M27.27 14.75c1.05 1.05 1.51 2.62 1.51 5.02c0 15.23-0.01 54.21-0.01 65.65c0 11.58-4.82 3.78-6.27 2.25"></path>
<path style="fill:none; fill-opacity:0%; fill-rule:evenodd; stroke:#aaaaaa; stroke-opacity:100%; stroke-width: 1.5pt; stroke-linejoin:round; stroke-linecap:round;" d="M11 68.68c1.1 1.1 2.62 0.82 4.5-0.43c5.01-3.34 12.75-9.75 24-17.83"></path>
<path style="fill:none; fill-opacity:0%; fill-rule:evenodd; stroke:#aaaaaa; stroke-opacity:100%; stroke-width: 1.5pt; stroke-linejoin:round; stroke-linecap:round;" d="M45.13 36.46c2.03 0.6 4.9 0.47 7 0.09C63.25 34.5 71.88 32.88 82 31.67c2.17-0.26 4.53-0.15 6.63 0.22"></path>
<path style="fill:none; fill-opacity:0%; fill-rule:evenodd; stroke:#aaaaaa; stroke-opacity:100%; stroke-width: 1.5pt; stroke-linejoin:round; stroke-linecap:round;" d="M60.97 15.64c0.53 0.86 0.67 1.55 0.61 3.04C60.88 36.5 55.5 69.38 36 87.5"></path>
<path style="fill:none; fill-opacity:0%; fill-rule:evenodd; stroke:#aaaaaa; stroke-opacity:100%; stroke-width: 1.5pt; stroke-linejoin:round; stroke-linecap:round;" d="M59.58 51.93c1.6 0.18 3.17 0.01 4.72-0.39c5.81-1.48 10.6-3.16 14.84-4.17c3.09-0.74 3.97 1.09 3.18 3.1C77.99 61.46 65.25 84 44 94.5"></path>
<path style="fill:none; fill-opacity:0%; fill-rule:evenodd; stroke:#aaaaaa; stroke-opacity:100%; stroke-width: 1.5pt; stroke-linejoin:round; stroke-linecap:round;" d="M57 58.75c5.59 4.75 19.07 18.97 27.3 26.09c2.6 2.25 5.42 4.28 8.45 5.91"></path>

<path style="fill:none; fill-opacity:0%; fill-rule:evenodd; stroke:#000000; stroke-opacity:100%; stroke-width: 3pt; stroke-linejoin:round; stroke-linecap:round;" d="M10.75 37.42c1.99 0.24 3.85 0.45 5.89 0.17c4.67-0.64 11.73-2.04 18.36-3.07c1.21-0.19 2.37-0.27 3.66-0.27"></path>
<path style="fill:none; fill-opacity:0%; fill-rule:evenodd; stroke:#000000; stroke-opacity:100%; stroke-width: 3pt; stroke-linejoin:round; stroke-linecap:round;" d="M27.27 14.75c1.05 1.05 1.51 2.62 1.51 5.02c0 15.23-0.01 54.21-0.01 65.65c0 11.58-4.82 3.78-6.27 2.25"></path>
<text x="5" y="20" font-size="20" fill="#999999">3</text><path style="fill:none; fill-opacity:0%; fill-rule:evenodd; stroke:#CC0000; stroke-opacity:100%; stroke-width: 3pt; stroke-linejoin:round; stroke-linecap:round;" d="M11 68.68c1.1 1.1 2.62 0.82 4.5-0.43c5.01-3.34 12.75-9.75 24-17.83" marker-end="url(#TriangleRed)" marker-start="url(#ArrowRed)" ></path>





</g><g transform="scale(1.3761467889908 1.3761467889908) translate(327, 0)">
<path style="fill:none; fill-rule:evenodd; stroke:#aaaaaa;  stroke-width:1pt; stroke-linecap:round;" d="m 109 0 L 0 0 L 0 109 L 109 109 L 109 0"></path><path style="fill:none; fill-opacity:0%; fill-rule:evenodd; stroke:#aaaaaa; stroke-opacity:100%; stroke-width: 1.5pt; stroke-linejoin:round; stroke-linecap:round;" d="M10.75 37.42c1.99 0.24 3.85 0.45 5.89 0.17c4.67-0.64 11.73-2.04 18.36-3.07c1.21-0.19 2.37-0.27 3.66-0.27"></path>
<path style="fill:none; fill-opacity:0%; fill-rule:evenodd; stroke:#aaaaaa; stroke-opacity:100%; stroke-width: 1.5pt; stroke-linejoin:round; stroke-linecap:round;" d="M27.27 14.75c1.05 1.05 1.51 2.62 1.51 5.02c0 15.23-0.01 54.21-0.01 65.65c0 11.58-4.82 3.78-6.27 2.25"></path>
<path style="fill:none; fill-opacity:0%; fill-rule:evenodd; stroke:#aaaaaa; stroke-opacity:100%; stroke-width: 1.5pt; stroke-linejoin:round; stroke-linecap:round;" d="M11 68.68c1.1 1.1 2.62 0.82 4.5-0.43c5.01-3.34 12.75-9.75 24-17.83"></path>
<path style="fill:none; fill-opacity:0%; fill-rule:evenodd; stroke:#aaaaaa; stroke-opacity:100%; stroke-width: 1.5pt; stroke-linejoin:round; stroke-linecap:round;" d="M45.13 36.46c2.03 0.6 4.9 0.47 7 0.09C63.25 34.5 71.88 32.88 82 31.67c2.17-0.26 4.53-0.15 6.63 0.22"></path>
<path style="fill:none; fill-opacity:0%; fill-rule:evenodd; stroke:#aaaaaa; stroke-opacity:100%; stroke-width: 1.5pt; stroke-linejoin:round; stroke-linecap:round;" d="M60.97 15.64c0.53 0.86 0.67 1.55 0.61 3.04C60.88 36.5 55.5 69.38 36 87.5"></path>
<path style="fill:none; fill-opacity:0%; fill-rule:evenodd; stroke:#aaaaaa; stroke-opacity:100%; stroke-width: 1.5pt; stroke-linejoin:round; stroke-linecap:round;" d="M59.58 51.93c1.6 0.18 3.17 0.01 4.72-0.39c5.81-1.48 10.6-3.16 14.84-4.17c3.09-0.74 3.97 1.09 3.18 3.1C77.99 61.46 65.25 84 44 94.5"></path>
<path style="fill:none; fill-opacity:0%; fill-rule:evenodd; stroke:#aaaaaa; stroke-opacity:100%; stroke-width: 1.5pt; stroke-linejoin:round; stroke-linecap:round;" d="M57 58.75c5.59 4.75 19.07 18.97 27.3 26.09c2.6 2.25 5.42 4.28 8.45 5.91"></path>

<path style="fill:none; fill-opacity:0%; fill-rule:evenodd; stroke:#000000; stroke-opacity:100%; stroke-width: 3pt; stroke-linejoin:round; stroke-linecap:round;" d="M10.75 37.42c1.99 0.24 3.85 0.45 5.89 0.17c4.67-0.64 11.73-2.04 18.36-3.07c1.21-0.19 2.37-0.27 3.66-0.27"></path>
<path style="fill:none; fill-opacity:0%; fill-rule:evenodd; stroke:#000000; stroke-opacity:100%; stroke-width: 3pt; stroke-linejoin:round; stroke-linecap:round;" d="M27.27 14.75c1.05 1.05 1.51 2.62 1.51 5.02c0 15.23-0.01 54.21-0.01 65.65c0 11.58-4.82 3.78-6.27 2.25"></path>
<path style="fill:none; fill-opacity:0%; fill-rule:evenodd; stroke:#000000; stroke-opacity:100%; stroke-width: 3pt; stroke-linejoin:round; stroke-linecap:round;" d="M11 68.68c1.1 1.1 2.62 0.82 4.5-0.43c5.01-3.34 12.75-9.75 24-17.83"></path>
<text x="5" y="20" font-size="20" fill="#999999">4</text><path style="fill:none; fill-opacity:0%; fill-rule:evenodd; stroke:#CC0000; stroke-opacity:100%; stroke-width: 3pt; stroke-linejoin:round; stroke-linecap:round;" d="M45.13 36.46c2.03 0.6 4.9 0.47 7 0.09C63.25 34.5 71.88 32.88 82 31.67c2.17-0.26 4.53-0.15 6.63 0.22" marker-end="url(#TriangleRed)" marker-start="url(#ArrowRed)" ></path>




</g><g transform="scale(1.3761467889908 1.3761467889908) translate(436, 0)">
<path style="fill:none; fill-rule:evenodd; stroke:#aaaaaa;  stroke-width:1pt; stroke-linecap:round;" d="m 109 0 L 0 0 L 0 109 L 109 109 L 109 0"></path><path style="fill:none; fill-opacity:0%; fill-rule:evenodd; stroke:#aaaaaa; stroke-opacity:100%; stroke-width: 1.5pt; stroke-linejoin:round; stroke-linecap:round;" d="M10.75 37.42c1.99 0.24 3.85 0.45 5.89 0.17c4.67-0.64 11.73-2.04 18.36-3.07c1.21-0.19 2.37-0.27 3.66-0.27"></path>
<path style="fill:none; fill-opacity:0%; fill-rule:evenodd; stroke:#aaaaaa; stroke-opacity:100%; stroke-width: 1.5pt; stroke-linejoin:round; stroke-linecap:round;" d="M27.27 14.75c1.05 1.05 1.51 2.62 1.51 5.02c0 15.23-0.01 54.21-0.01 65.65c0 11.58-4.82 3.78-6.27 2.25"></path>
<path style="fill:none; fill-opacity:0%; fill-rule:evenodd; stroke:#aaaaaa; stroke-opacity:100%; stroke-width: 1.5pt; stroke-linejoin:round; stroke-linecap:round;" d="M11 68.68c1.1 1.1 2.62 0.82 4.5-0.43c5.01-3.34 12.75-9.75 24-17.83"></path>
<path style="fill:none; fill-opacity:0%; fill-rule:evenodd; stroke:#aaaaaa; stroke-opacity:100%; stroke-width: 1.5pt; stroke-linejoin:round; stroke-linecap:round;" d="M45.13 36.46c2.03 0.6 4.9 0.47 7 0.09C63.25 34.5 71.88 32.88 82 31.67c2.17-0.26 4.53-0.15 6.63 0.22"></path>
<path style="fill:none; fill-opacity:0%; fill-rule:evenodd; stroke:#aaaaaa; stroke-opacity:100%; stroke-width: 1.5pt; stroke-linejoin:round; stroke-linecap:round;" d="M60.97 15.64c0.53 0.86 0.67 1.55 0.61 3.04C60.88 36.5 55.5 69.38 36 87.5"></path>
<path style="fill:none; fill-opacity:0%; fill-rule:evenodd; stroke:#aaaaaa; stroke-opacity:100%; stroke-width: 1.5pt; stroke-linejoin:round; stroke-linecap:round;" d="M59.58 51.93c1.6 0.18 3.17 0.01 4.72-0.39c5.81-1.48 10.6-3.16 14.84-4.17c3.09-0.74 3.97 1.09 3.18 3.1C77.99 61.46 65.25 84 44 94.5"></path>
<path style="fill:none; fill-opacity:0%; fill-rule:evenodd; stroke:#aaaaaa; stroke-opacity:100%; stroke-width: 1.5pt; stroke-linejoin:round; stroke-linecap:round;" d="M57 58.75c5.59 4.75 19.07 18.97 27.3 26.09c2.6 2.25 5.42 4.28 8.45 5.91"></path>

<path style="fill:none; fill-opacity:0%; fill-rule:evenodd; stroke:#000000; stroke-opacity:100%; stroke-width: 3pt; stroke-linejoin:round; stroke-linecap:round;" d="M10.75 37.42c1.99 0.24 3.85 0.45 5.89 0.17c4.67-0.64 11.73-2.04 18.36-3.07c1.21-0.19 2.37-0.27 3.66-0.27"></path>
<path style="fill:none; fill-opacity:0%; fill-rule:evenodd; stroke:#000000; stroke-opacity:100%; stroke-width: 3pt; stroke-linejoin:round; stroke-linecap:round;" d="M27.27 14.75c1.05 1.05 1.51 2.62 1.51 5.02c0 15.23-0.01 54.21-0.01 65.65c0 11.58-4.82 3.78-6.27 2.25"></path>
<path style="fill:none; fill-opacity:0%; fill-rule:evenodd; stroke:#000000; stroke-opacity:100%; stroke-width: 3pt; stroke-linejoin:round; stroke-linecap:round;" d="M11 68.68c1.1 1.1 2.62 0.82 4.5-0.43c5.01-3.34 12.75-9.75 24-17.83"></path>
<path style="fill:none; fill-opacity:0%; fill-rule:evenodd; stroke:#000000; stroke-opacity:100%; stroke-width: 3pt; stroke-linejoin:round; stroke-linecap:round;" d="M45.13 36.46c2.03 0.6 4.9 0.47 7 0.09C63.25 34.5 71.88 32.88 82 31.67c2.17-0.26 4.53-0.15 6.63 0.22"></path>
<text x="5" y="20" font-size="20" fill="#999999">5</text><path style="fill:none; fill-opacity:0%; fill-rule:evenodd; stroke:#CC0000; stroke-opacity:100%; stroke-width: 3pt; stroke-linejoin:round; stroke-linecap:round;" d="M60.97 15.64c0.53 0.86 0.67 1.55 0.61 3.04C60.88 36.5 55.5 69.38 36 87.5" marker-end="url(#TriangleRed)" marker-start="url(#ArrowRed)" ></path>



</g><g transform="scale(1.3761467889908 1.3761467889908) translate(0, 109)">
<path style="fill:none; fill-rule:evenodd; stroke:#aaaaaa;  stroke-width:1pt; stroke-linecap:round;" d="m 109 0 L 0 0 L 0 109 L 109 109 L 109 0"></path><path style="fill:none; fill-opacity:0%; fill-rule:evenodd; stroke:#aaaaaa; stroke-opacity:100%; stroke-width: 1.5pt; stroke-linejoin:round; stroke-linecap:round;" d="M10.75 37.42c1.99 0.24 3.85 0.45 5.89 0.17c4.67-0.64 11.73-2.04 18.36-3.07c1.21-0.19 2.37-0.27 3.66-0.27"></path>
<path style="fill:none; fill-opacity:0%; fill-rule:evenodd; stroke:#aaaaaa; stroke-opacity:100%; stroke-width: 1.5pt; stroke-linejoin:round; stroke-linecap:round;" d="M27.27 14.75c1.05 1.05 1.51 2.62 1.51 5.02c0 15.23-0.01 54.21-0.01 65.65c0 11.58-4.82 3.78-6.27 2.25"></path>
<path style="fill:none; fill-opacity:0%; fill-rule:evenodd; stroke:#aaaaaa; stroke-opacity:100%; stroke-width: 1.5pt; stroke-linejoin:round; stroke-linecap:round;" d="M11 68.68c1.1 1.1 2.62 0.82 4.5-0.43c5.01-3.34 12.75-9.75 24-17.83"></path>
<path style="fill:none; fill-opacity:0%; fill-rule:evenodd; stroke:#aaaaaa; stroke-opacity:100%; stroke-width: 1.5pt; stroke-linejoin:round; stroke-linecap:round;" d="M45.13 36.46c2.03 0.6 4.9 0.47 7 0.09C63.25 34.5 71.88 32.88 82 31.67c2.17-0.26 4.53-0.15 6.63 0.22"></path>
<path style="fill:none; fill-opacity:0%; fill-rule:evenodd; stroke:#aaaaaa; stroke-opacity:100%; stroke-width: 1.5pt; stroke-linejoin:round; stroke-linecap:round;" d="M60.97 15.64c0.53 0.86 0.67 1.55 0.61 3.04C60.88 36.5 55.5 69.38 36 87.5"></path>
<path style="fill:none; fill-opacity:0%; fill-rule:evenodd; stroke:#aaaaaa; stroke-opacity:100%; stroke-width: 1.5pt; stroke-linejoin:round; stroke-linecap:round;" d="M59.58 51.93c1.6 0.18 3.17 0.01 4.72-0.39c5.81-1.48 10.6-3.16 14.84-4.17c3.09-0.74 3.97 1.09 3.18 3.1C77.99 61.46 65.25 84 44 94.5"></path>
<path style="fill:none; fill-opacity:0%; fill-rule:evenodd; stroke:#aaaaaa; stroke-opacity:100%; stroke-width: 1.5pt; stroke-linejoin:round; stroke-linecap:round;" d="M57 58.75c5.59 4.75 19.07 18.97 27.3 26.09c2.6 2.25 5.42 4.28 8.45 5.91"></path>

<path style="fill:none; fill-opacity:0%; fill-rule:evenodd; stroke:#000000; stroke-opacity:100%; stroke-width: 3pt; stroke-linejoin:round; stroke-linecap:round;" d="M10.75 37.42c1.99 0.24 3.85 0.45 5.89 0.17c4.67-0.64 11.73-2.04 18.36-3.07c1.21-0.19 2.37-0.27 3.66-0.27"></path>
<path style="fill:none; fill-opacity:0%; fill-rule:evenodd; stroke:#000000; stroke-opacity:100%; stroke-width: 3pt; stroke-linejoin:round; stroke-linecap:round;" d="M27.27 14.75c1.05 1.05 1.51 2.62 1.51 5.02c0 15.23-0.01 54.21-0.01 65.65c0 11.58-4.82 3.78-6.27 2.25"></path>
<path style="fill:none; fill-opacity:0%; fill-rule:evenodd; stroke:#000000; stroke-opacity:100%; stroke-width: 3pt; stroke-linejoin:round; stroke-linecap:round;" d="M11 68.68c1.1 1.1 2.62 0.82 4.5-0.43c5.01-3.34 12.75-9.75 24-17.83"></path>
<path style="fill:none; fill-opacity:0%; fill-rule:evenodd; stroke:#000000; stroke-opacity:100%; stroke-width: 3pt; stroke-linejoin:round; stroke-linecap:round;" d="M45.13 36.46c2.03 0.6 4.9 0.47 7 0.09C63.25 34.5 71.88 32.88 82 31.67c2.17-0.26 4.53-0.15 6.63 0.22"></path>
<path style="fill:none; fill-opacity:0%; fill-rule:evenodd; stroke:#000000; stroke-opacity:100%; stroke-width: 3pt; stroke-linejoin:round; stroke-linecap:round;" d="M60.97 15.64c0.53 0.86 0.67 1.55 0.61 3.04C60.88 36.5 55.5 69.38 36 87.5"></path>
<text x="5" y="20" font-size="20" fill="#999999">6</text><path style="fill:none; fill-opacity:0%; fill-rule:evenodd; stroke:#CC0000; stroke-opacity:100%; stroke-width: 3pt; stroke-linejoin:round; stroke-linecap:round;" d="M59.58 51.93c1.6 0.18 3.17 0.01 4.72-0.39c5.81-1.48 10.6-3.16 14.84-4.17c3.09-0.74 3.97 1.09 3.18 3.1C77.99 61.46 65.25 84 44 94.5" marker-end="url(#TriangleRed)" marker-start="url(#ArrowRed)" ></path>


</g><g transform="scale(1.3761467889908 1.3761467889908) translate(109, 109)">
<path style="fill:none; fill-rule:evenodd; stroke:#aaaaaa;  stroke-width:1pt; stroke-linecap:round;" d="m 109 0 L 0 0 L 0 109 L 109 109 L 109 0"></path><path style="fill:none; fill-opacity:0%; fill-rule:evenodd; stroke:#aaaaaa; stroke-opacity:100%; stroke-width: 1.5pt; stroke-linejoin:round; stroke-linecap:round;" d="M10.75 37.42c1.99 0.24 3.85 0.45 5.89 0.17c4.67-0.64 11.73-2.04 18.36-3.07c1.21-0.19 2.37-0.27 3.66-0.27"></path>
<path style="fill:none; fill-opacity:0%; fill-rule:evenodd; stroke:#aaaaaa; stroke-opacity:100%; stroke-width: 1.5pt; stroke-linejoin:round; stroke-linecap:round;" d="M27.27 14.75c1.05 1.05 1.51 2.62 1.51 5.02c0 15.23-0.01 54.21-0.01 65.65c0 11.58-4.82 3.78-6.27 2.25"></path>
<path style="fill:none; fill-opacity:0%; fill-rule:evenodd; stroke:#aaaaaa; stroke-opacity:100%; stroke-width: 1.5pt; stroke-linejoin:round; stroke-linecap:round;" d="M11 68.68c1.1 1.1 2.62 0.82 4.5-0.43c5.01-3.34 12.75-9.75 24-17.83"></path>
<path style="fill:none; fill-opacity:0%; fill-rule:evenodd; stroke:#aaaaaa; stroke-opacity:100%; stroke-width: 1.5pt; stroke-linejoin:round; stroke-linecap:round;" d="M45.13 36.46c2.03 0.6 4.9 0.47 7 0.09C63.25 34.5 71.88 32.88 82 31.67c2.17-0.26 4.53-0.15 6.63 0.22"></path>
<path style="fill:none; fill-opacity:0%; fill-rule:evenodd; stroke:#aaaaaa; stroke-opacity:100%; stroke-width: 1.5pt; stroke-linejoin:round; stroke-linecap:round;" d="M60.97 15.64c0.53 0.86 0.67 1.55 0.61 3.04C60.88 36.5 55.5 69.38 36 87.5"></path>
<path style="fill:none; fill-opacity:0%; fill-rule:evenodd; stroke:#aaaaaa; stroke-opacity:100%; stroke-width: 1.5pt; stroke-linejoin:round; stroke-linecap:round;" d="M59.58 51.93c1.6 0.18 3.17 0.01 4.72-0.39c5.81-1.48 10.6-3.16 14.84-4.17c3.09-0.74 3.97 1.09 3.18 3.1C77.99 61.46 65.25 84 44 94.5"></path>
<path style="fill:none; fill-opacity:0%; fill-rule:evenodd; stroke:#aaaaaa; stroke-opacity:100%; stroke-width: 1.5pt; stroke-linejoin:round; stroke-linecap:round;" d="M57 58.75c5.59 4.75 19.07 18.97 27.3 26.09c2.6 2.25 5.42 4.28 8.45 5.91"></path>

<path style="fill:none; fill-opacity:0%; fill-rule:evenodd; stroke:#000000; stroke-opacity:100%; stroke-width: 3pt; stroke-linejoin:round; stroke-linecap:round;" d="M10.75 37.42c1.99 0.24 3.85 0.45 5.89 0.17c4.67-0.64 11.73-2.04 18.36-3.07c1.21-0.19 2.37-0.27 3.66-0.27"></path>
<path style="fill:none; fill-opacity:0%; fill-rule:evenodd; stroke:#000000; stroke-opacity:100%; stroke-width: 3pt; stroke-linejoin:round; stroke-linecap:round;" d="M27.27 14.75c1.05 1.05 1.51 2.62 1.51 5.02c0 15.23-0.01 54.21-0.01 65.65c0 11.58-4.82 3.78-6.27 2.25"></path>
<path style="fill:none; fill-opacity:0%; fill-rule:evenodd; stroke:#000000; stroke-opacity:100%; stroke-width: 3pt; stroke-linejoin:round; stroke-linecap:round;" d="M11 68.68c1.1 1.1 2.62 0.82 4.5-0.43c5.01-3.34 12.75-9.75 24-17.83"></path>
<path style="fill:none; fill-opacity:0%; fill-rule:evenodd; stroke:#000000; stroke-opacity:100%; stroke-width: 3pt; stroke-linejoin:round; stroke-linecap:round;" d="M45.13 36.46c2.03 0.6 4.9 0.47 7 0.09C63.25 34.5 71.88 32.88 82 31.67c2.17-0.26 4.53-0.15 6.63 0.22"></path>
<path style="fill:none; fill-opacity:0%; fill-rule:evenodd; stroke:#000000; stroke-opacity:100%; stroke-width: 3pt; stroke-linejoin:round; stroke-linecap:round;" d="M60.97 15.64c0.53 0.86 0.67 1.55 0.61 3.04C60.88 36.5 55.5 69.38 36 87.5"></path>
<path style="fill:none; fill-opacity:0%; fill-rule:evenodd; stroke:#000000; stroke-opacity:100%; stroke-width: 3pt; stroke-linejoin:round; stroke-linecap:round;" d="M59.58 51.93c1.6 0.18 3.17 0.01 4.72-0.39c5.81-1.48 10.6-3.16 14.84-4.17c3.09-0.74 3.97 1.09 3.18 3.1C77.99 61.46 65.25 84 44 94.5"></path>
<text x="5" y="20" font-size="20" fill="#999999">7</text><path style="fill:none; fill-opacity:0%; fill-rule:evenodd; stroke:#CC0000; stroke-opacity:100%; stroke-width: 3pt; stroke-linejoin:round; stroke-linecap:round;" d="M57 58.75c5.59 4.75 19.07 18.97 27.3 26.09c2.6 2.25 5.42 4.28 8.45 5.91" marker-end="url(#TriangleRed)" marker-start="url(#ArrowRed)" ></path>

</g>

</svg>  
          
