<?xml version="1.0" standalone="no"?>
<!DOCTYPE svg PUBLIC "-//W3C//DTD SVG 1.1//EN"   "http://www.w3.org/Graphics/SVG/1.1/DTD/svg11.dtd">
<svg width="751" height="301"  version="1.1" xmlns="http://www.w3.org/2000/svg">
  <defs>
    <marker id="Triangle" viewBox="0 0 10 10" refX="0" refY="5" markerUnits="strokeWidth" markerWidth="3" style="stroke-opacity:0%;fill:#aaaaaa;" markerHeight="2" orient="auto">
      <path d="M 0 0 L 10 5 L 0 10 z" />
    </marker>
    
    <marker id="Arrow" viewBox="0 0 10 10" refX="5" refY="5" markerUnits="strokeWidth" markerWidth="1.8" style="stroke-opacity:0%;fill:#770000;" markerHeight="2" orient="auto">
      <path d="M 0 4 L 6 4 L 4 1 L 10 5 L 4 9 L 6 6 L 0 6 z" />
        <circle cx="5" cy="5" r="5" />
      </marker>
    
    <marker id="TriangleRed" viewBox="0 0 10 10" refX="0" refY="5" markerUnits="strokeWidth" markerWidth="3" style="stroke-opacity:0%;fill:#CC0000;" markerHeight="2" orient="auto">
      <path d="M 0 0 L 10 5 L 0 10 z" />
    </marker>
    
    <marker id="ArrowRed" viewBox="0 0 10 10" refX="5" refY="5" markerUnits="strokeWidth" markerWidth="1.8" style="stroke-opacity:0%;fill:#CC0000;" markerHeight="2" orient="auto">
      <path d="M 0 4 L 6 4 L 4 1 L 10 5 L 4 9 L 6 6 L 0 6 z" />
        <circle cx="5" cy="5" r="5" />
      </marker>
    
  </defs>
  
  <path style="fill:#ffffff; fill-opacity:100%; fill-rule:evenodd; stroke-width:0;" d="M 0 0 L 751 0 L 751 301 L 0 301 L 0 0" />

  <g transform="scale(1.3761467889908 1.3761467889908) translate(0, 0)">
<path style="fill:none; fill-rule:evenodd; stroke:#aaaaaa;  stroke-width:1pt; stroke-linecap:round;" d="m 109 0 L 0 0 L 0 109 L 109 109 L 109 0"></path><path style="fill:none; fill-opacity:0%; fill-rule:evenodd; stroke:#aaaaaa; stroke-opacity:100%; stroke-width: 1.5pt; stroke-linejoin:round; stroke-linecap:round;" d="M11.75 40.05c2.27 0.27 1.38 0.6 3.81 0.27c5.99-0.82 16.38-2.22 26.36-3.49"></path>
<path style="fill:none; fill-opacity:0%; fill-rule:evenodd; stroke:#aaaaaa; stroke-opacity:100%; stroke-width: 1.5pt; stroke-linejoin:round; stroke-linecap:round;" d="M28.77 14.5c0.48 0.92 1.76 2.49 1.76 5.52c0 15.23 0.24 56.46 0.24 67.9c0 14.25-6.32 3.53-7.77 2"></path>
<path style="fill:none; fill-opacity:0%; fill-rule:evenodd; stroke:#aaaaaa; stroke-opacity:100%; stroke-width: 1.5pt; stroke-linejoin:round; stroke-linecap:round;" d="M11 67.29c1.05 1.24 2.71 1.97 5.02 0.82c1.36-0.68 20.76-13.45 26.53-16.7"></path>
<path style="fill:none; fill-opacity:0%; fill-rule:evenodd; stroke:#aaaaaa; stroke-opacity:100%; stroke-width: 1.5pt; stroke-linejoin:round; stroke-linecap:round;" d="M46.42 32.5c1.31 0.47 3.72 0.44 5.03 0.29C65.09 31.19 80.83 30 90.5 29.5c2.19-0.11 3.5 0.08 4.59 0.3"></path>
<path style="fill:none; fill-opacity:0%; fill-rule:evenodd; stroke:#aaaaaa; stroke-opacity:100%; stroke-width: 1.5pt; stroke-linejoin:round; stroke-linecap:round;" d="M67.69 13.76c1.08 0.44 1.73 2.16 1.94 3.14c0.22 0.99 0.3 24.85 0.3 33.8"></path>
<path style="fill:none; fill-opacity:0%; fill-rule:evenodd; stroke:#aaaaaa; stroke-opacity:100%; stroke-width: 1.5pt; stroke-linejoin:round; stroke-linecap:round;" d="M49.38 52.18c1.04 0.21 2.94 0.17 3.98 0.11c13.74-0.77 15.89-2.21 35.79-2.97c1.73-0.07 2.77 0.02 3.64 0.12"></path>
<path style="fill:none; fill-opacity:0%; fill-rule:evenodd; stroke:#aaaaaa; stroke-opacity:100%; stroke-width: 1.5pt; stroke-linejoin:round; stroke-linecap:round;" d="M51.57 66.09c0.42 0.52 0.85 0.95 1.03 1.6c1.45 5.15 2.18 16.51 3.17 25.77"></path>
<path style="fill:none; fill-opacity:0%; fill-rule:evenodd; stroke:#aaaaaa; stroke-opacity:100%; stroke-width: 1.5pt; stroke-linejoin:round; stroke-linecap:round;" d="M53.67 68.29c11.16-1.38 25.49-3.29 30.76-4.02c1.93-0.27 3.08 2.69 2.81 4.26c-1.14 6.49-2.74 13.71-3.89 19.72"></path>
<path style="fill:none; fill-opacity:0%; fill-rule:evenodd; stroke:#aaaaaa; stroke-opacity:100%; stroke-width: 1.5pt; stroke-linejoin:round; stroke-linecap:round;" d="M56.18 91.05c7.32-0.55 20.57-1.9 31.09-2.5"></path>

<text x="5" y="20" font-size="20" fill="#999999">1</text><path style="fill:none; fill-opacity:0%; fill-rule:evenodd; stroke:#CC0000; stroke-opacity:100%; stroke-width: 3pt; stroke-linejoin:round; stroke-linecap:round;" d="M11.75 40.05c2.27 0.27 1.38 0.6 3.81 0.27c5.99-0.82 16.38-2.22 26.36-3.49"  ></path>









</g><g transform="scale(1.3761467889908 1.3761467889908) translate(109, 0)">
<path style="fill:none; fill-rule:evenodd; stroke:#aaaaaa;  stroke-width:1pt; stroke-linecap:round;" d="m 109 0 L 0 0 L 0 109 L 109 109 L 109 0"></path><path style="fill:none; fill-opacity:0%; fill-rule:evenodd; stroke:#aaaaaa; stroke-opacity:100%; stroke-width: 1.5pt; stroke-linejoin:round; stroke-linecap:round;" d="M11.75 40.05c2.27 0.27 1.38 0.6 3.81 0.27c5.99-0.82 16.38-2.22 26.36-3.49"></path>
<path style="fill:none; fill-opacity:0%; fill-rule:evenodd; stroke:#aaaaaa; stroke-opacity:100%; stroke-width: 1.5pt; stroke-linejoin:round; stroke-linecap:round;" d="M28.77 14.5c0.48 0.92 1.76 2.49 1.76 5.52c0 15.23 0.24 56.46 0.24 67.9c0 14.25-6.32 3.53-7.77 2"></path>
<path style="fill:none; fill-opacity:0%; fill-rule:evenodd; stroke:#aaaaaa; stroke-opacity:100%; stroke-width: 1.5pt; stroke-linejoin:round; stroke-linecap:round;" d="M11 67.29c1.05 1.24 2.71 1.97 5.02 0.82c1.36-0.68 20.76-13.45 26.53-16.7"></path>
<path style="fill:none; fill-opacity:0%; fill-rule:evenodd; stroke:#aaaaaa; stroke-opacity:100%; stroke-width: 1.5pt; stroke-linejoin:round; stroke-linecap:round;" d="M46.42 32.5c1.31 0.47 3.72 0.44 5.03 0.29C65.09 31.19 80.83 30 90.5 29.5c2.19-0.11 3.5 0.08 4.59 0.3"></path>
<path style="fill:none; fill-opacity:0%; fill-rule:evenodd; stroke:#aaaaaa; stroke-opacity:100%; stroke-width: 1.5pt; stroke-linejoin:round; stroke-linecap:round;" d="M67.69 13.76c1.08 0.44 1.73 2.16 1.94 3.14c0.22 0.99 0.3 24.85 0.3 33.8"></path>
<path style="fill:none; fill-opacity:0%; fill-rule:evenodd; stroke:#aaaaaa; stroke-opacity:100%; stroke-width: 1.5pt; stroke-linejoin:round; stroke-linecap:round;" d="M49.38 52.18c1.04 0.21 2.94 0.17 3.98 0.11c13.74-0.77 15.89-2.21 35.79-2.97c1.73-0.07 2.77 0.02 3.64 0.12"></path>
<path style="fill:none; fill-opacity:0%; fill-rule:evenodd; stroke:#aaaaaa; stroke-opacity:100%; stroke-width: 1.5pt; stroke-linejoin:round; stroke-linecap:round;" d="M51.57 66.09c0.42 0.52 0.85 0.95 1.03 1.6c1.45 5.15 2.18 16.51 3.17 25.77"></path>
<path style="fill:none; fill-opacity:0%; fill-rule:evenodd; stroke:#aaaaaa; stroke-opacity:100%; stroke-width: 1.5pt; stroke-linejoin:round; stroke-linecap:round;" d="M53.67 68.29c11.16-1.38 25.49-3.29 30.76-4.02c1.93-0.27 3.08 2.69 2.81 4.26c-1.14 6.49-2.74 13.71-3.89 19.72"></path>
<path style="fill:none; fill-opacity:0%; fill-rule:evenodd; stroke:#aaaaaa; stroke-opacity:100%; stroke-width: 1.5pt; stroke-linejoin:round; stroke-linecap:round;" d="M56.18 91.05c7.32-0.55 20.57-1.9 31.09-2.5"></path>

<path style="fill:none; fill-opacity:0%; fill-rule:evenodd; stroke:#000000; stroke-opacity:100%; stroke-width: 3pt; stroke-linejoin:round; stroke-linecap:round;" d="M11.75 40.05c2.27 0.27 1.38 0.6 3.81 0.27c5.99-0.82 16.38-2.22 26.36-3.49"></path>
<text x="5" y="20" font-size="20" fill="#999999">2</text><path style="fill:none; fill-opacity:0%; fill-rule:evenodd; stroke:#CC0000; stroke-opacity:100%; stroke-width: 3pt; stroke-linejoin:round; stroke-linecap:round;" d="M28.77 14.5c0.48 0.92 1.76 2.49 1.76 5.52c0 15.23 0.24 56.46 0.24 67.9c0 14.25-6.32 3.53-7.77 2"  ></path>








</g><g transform="scale(1.3761467889908 1.3761467889908) translate(218, 0)">
<path style="fill:none; fill-rule:evenodd; stroke:#aaaaaa;  stroke-width:1pt; stroke-linecap:round;" d="m 109 0 L 0 0 L 0 109 L 109 109 L 109 0"></path><path style="fill:none; fill-opacity:0%; fill-rule:evenodd; stroke:#aaaaaa; stroke-opacity:100%; stroke-width: 1.5pt; stroke-linejoin:round; stroke-linecap:round;" d="M11.75 40.05c2.27 0.27 1.38 0.6 3.81 0.27c5.99-0.82 16.38-2.22 26.36-3.49"></path>
<path style="fill:none; fill-opacity:0%; fill-rule:evenodd; stroke:#aaaaaa; stroke-opacity:100%; stroke-width: 1.5pt; stroke-linejoin:round; stroke-linecap:round;" d="M28.77 14.5c0.48 0.92 1.76 2.49 1.76 5.52c0 15.23 0.24 56.46 0.24 67.9c0 14.25-6.32 3.53-7.77 2"></path>
<path style="fill:none; fill-opacity:0%; fill-rule:evenodd; stroke:#aaaaaa; stroke-opacity:100%; stroke-width: 1.5pt; stroke-linejoin:round; stroke-linecap:round;" d="M11 67.29c1.05 1.24 2.71 1.97 5.02 0.82c1.36-0.68 20.76-13.45 26.53-16.7"></path>
<path style="fill:none; fill-opacity:0%; fill-rule:evenodd; stroke:#aaaaaa; stroke-opacity:100%; stroke-width: 1.5pt; stroke-linejoin:round; stroke-linecap:round;" d="M46.42 32.5c1.31 0.47 3.72 0.44 5.03 0.29C65.09 31.19 80.83 30 90.5 29.5c2.19-0.11 3.5 0.08 4.59 0.3"></path>
<path style="fill:none; fill-opacity:0%; fill-rule:evenodd; stroke:#aaaaaa; stroke-opacity:100%; stroke-width: 1.5pt; stroke-linejoin:round; stroke-linecap:round;" d="M67.69 13.76c1.08 0.44 1.73 2.16 1.94 3.14c0.22 0.99 0.3 24.85 0.3 33.8"></path>
<path style="fill:none; fill-opacity:0%; fill-rule:evenodd; stroke:#aaaaaa; stroke-opacity:100%; stroke-width: 1.5pt; stroke-linejoin:round; stroke-linecap:round;" d="M49.38 52.18c1.04 0.21 2.94 0.17 3.98 0.11c13.74-0.77 15.89-2.21 35.79-2.97c1.73-0.07 2.77 0.02 3.64 0.12"></path>
<path style="fill:none; fill-opacity:0%; fill-rule:evenodd; stroke:#aaaaaa; stroke-opacity:100%; stroke-width: 1.5pt; stroke-linejoin:round; stroke-linecap:round;" d="M51.57 66.09c0.42 0.52 0.85 0.95 1.03 1.6c1.45 5.15 2.18 16.51 3.17 25.77"></path>
<path style="fill:none; fill-opacity:0%; fill-rule:evenodd; stroke:#aaaaaa; stroke-opacity:100%; stroke-width: 1.5pt; stroke-linejoin:round; stroke-linecap:round;" d="M53.67 68.29c11.16-1.38 25.49-3.29 30.76-4.02c1.93-0.27 3.08 2.69 2.81 4.26c-1.14 6.49-2.74 13.71-3.89 19.72"></path>
<path style="fill:none; fill-opacity:0%; fill-rule:evenodd; stroke:#aaaaaa; stroke-opacity:100%; stroke-width: 1.5pt; stroke-linejoin:round; stroke-linecap:round;" d="M56.18 91.05c7.32-0.55 20.57-1.9 31.09-2.5"></path>

<path style="fill:none; fill-opacity:0%; fill-rule:evenodd; stroke:#000000; stroke-opacity:100%; stroke-width: 3pt; stroke-linejoin:round; stroke-linecap:round;" d="M11.75 40.05c2.27 0.27 1.38 0.6 3.81 0.27c5.99-0.82 16.38-2.22 26.36-3.49"></path>
<path style="fill:none; fill-opacity:0%; fill-rule:evenodd; stroke:#000000; stroke-opacity:100%; stroke-width: 3pt; stroke-linejoin:round; stroke-linecap:round;" d="M28.77 14.5c0.48 0.92 1.76 2.49 1.76 5.52c0 15.23 0.24 56.46 0.24 67.9c0 14.25-6.32 3.53-7.77 2"></path>
<text x="5" y="20" font-size="20" fill="#999999">3</text><path style="fill:none; fill-opacity:0%; fill-rule:evenodd; stroke:#CC0000; stroke-opacity:100%; stroke-width: 3pt; stroke-linejoin:round; stroke-linecap:round;" d="M11 67.29c1.05 1.24 2.71 1.97 5.02 0.82c1.36-0.68 20.76-13.45 26.53-16.7"  ></path>







</g><g transform="scale(1.3761467889908 1.3761467889908) translate(327, 0)">
<path style="fill:none; fill-rule:evenodd; stroke:#aaaaaa;  stroke-width:1pt; stroke-linecap:round;" d="m 109 0 L 0 0 L 0 109 L 109 109 L 109 0"></path><path style="fill:none; fill-opacity:0%; fill-rule:evenodd; stroke:#aaaaaa; stroke-opacity:100%; stroke-width: 1.5pt; stroke-linejoin:round; stroke-linecap:round;" d="M11.75 40.05c2.27 0.27 1.38 0.6 3.81 0.27c5.99-0.82 16.38-2.22 26.36-3.49"></path>
<path style="fill:none; fill-opacity:0%; fill-rule:evenodd; stroke:#aaaaaa; stroke-opacity:100%; stroke-width: 1.5pt; stroke-linejoin:round; stroke-linecap:round;" d="M28.77 14.5c0.48 0.92 1.76 2.49 1.76 5.52c0 15.23 0.24 56.46 0.24 67.9c0 14.25-6.32 3.53-7.77 2"></path>
<path style="fill:none; fill-opacity:0%; fill-rule:evenodd; stroke:#aaaaaa; stroke-opacity:100%; stroke-width: 1.5pt; stroke-linejoin:round; stroke-linecap:round;" d="M11 67.29c1.05 1.24 2.71 1.97 5.02 0.82c1.36-0.68 20.76-13.45 26.53-16.7"></path>
<path style="fill:none; fill-opacity:0%; fill-rule:evenodd; stroke:#aaaaaa; stroke-opacity:100%; stroke-width: 1.5pt; stroke-linejoin:round; stroke-linecap:round;" d="M46.42 32.5c1.31 0.47 3.72 0.44 5.03 0.29C65.09 31.19 80.83 30 90.5 29.5c2.19-0.11 3.5 0.08 4.59 0.3"></path>
<path style="fill:none; fill-opacity:0%; fill-rule:evenodd; stroke:#aaaaaa; stroke-opacity:100%; stroke-width: 1.5pt; stroke-linejoin:round; stroke-linecap:round;" d="M67.69 13.76c1.08 0.44 1.73 2.16 1.94 3.14c0.22 0.99 0.3 24.85 0.3 33.8"></path>
<path style="fill:none; fill-opacity:0%; fill-rule:evenodd; stroke:#aaaaaa; stroke-opacity:100%; stroke-width: 1.5pt; stroke-linejoin:round; stroke-linecap:round;" d="M49.38 52.18c1.04 0.21 2.94 0.17 3.98 0.11c13.74-0.77 15.89-2.21 35.79-2.97c1.73-0.07 2.77 0.02 3.64 0.12"></path>
<path style="fill:none; fill-opacity:0%; fill-rule:evenodd; stroke:#aaaaaa; stroke-opacity:100%; stroke-width: 1.5pt; stroke-linejoin:round; stroke-linecap:round;" d="M51.57 66.09c0.42 0.52 0.85 0.95 1.03 1.6c1.45 5.15 2.18 16.51 3.17 25.77"></path>
<path style="fill:none; fill-opacity:0%; fill-rule:evenodd; stroke:#aaaaaa; stroke-opacity:100%; stroke-width: 1.5pt; stroke-linejoin:round; stroke-linecap:round;" d="M53.67 68.29c11.16-1.38 25.49-3.29 30.76-4.02c1.93-0.27 3.08 2.69 2.81 4.26c-1.14 6.49-2.74 13.71-3.89 19.72"></path>
<path style="fill:none; fill-opacity:0%; fill-rule:evenodd; stroke:#aaaaaa; stroke-opacity:100%; stroke-width: 1.5pt; stroke-linejoin:round; stroke-linecap:round;" d="M56.18 91.05c7.32-0.55 20.57-1.9 31.09-2.5"></path>

<path style="fill:none; fill-opacity:0%; fill-rule:evenodd; stroke:#000000; stroke-opacity:100%; stroke-width: 3pt; stroke-linejoin:round; stroke-linecap:round;" d="M11.75 40.05c2.27 0.27 1.38 0.6 3.81 0.27c5.99-0.82 16.38-2.22 26.36-3.49"></path>
<path style="fill:none; fill-opacity:0%; fill-rule:evenodd; stroke:#000000; stroke-opacity:100%; stroke-width: 3pt; stroke-linejoin:round; stroke-linecap:round;" d="M28.77 14.5c0.48 0.92 1.76 2.49 1.76 5.52c0 15.23 0.24 56.46 0.24 67.9c0 14.25-6.32 3.53-7.77 2"></path>
<path style="fill:none; fill-opacity:0%; fill-rule:evenodd; stroke:#000000; stroke-opacity:100%; stroke-width: 3pt; stroke-linejoin:round; stroke-linecap:round;" d="M11 67.29c1.05 1.24 2.71 1.97 5.02 0.82c1.36-0.68 20.76-13.45 26.53-16.7"></path>
<text x="5" y="20" font-size="20" fill="#999999">4</text><path style="fill:none; fill-opacity:0%; fill-rule:evenodd; stroke:#CC0000; stroke-opacity:100%; stroke-width: 3pt; stroke-linejoin:round; stroke-linecap:round;" d="M46.42 32.5c1.31 0.47 3.72 0.44 5.03 0.29C65.09 31.19 80.83 30 90.5 29.5c2.19-0.11 3.5 0.08 4.59 0.3"  ></path>






</g><g transform="scale(1.3761467889908 1.3761467889908) translate(436, 0)">
<path style="fill:none; fill-rule:evenodd; stroke:#aaaaaa;  stroke-width:1pt; stroke-linecap:round;" d="m 109 0 L 0 0 L 0 109 L 109 109 L 109 0"></path><path style="fill:none; fill-opacity:0%; fill-rule:evenodd; stroke:#aaaaaa; stroke-opacity:100%; stroke-width: 1.5pt; stroke-linejoin:round; stroke-linecap:round;" d="M11.75 40.05c2.27 0.27 1.38 0.6 3.81 0.27c5.99-0.82 16.38-2.22 26.36-3.49"></path>
<path style="fill:none; fill-opacity:0%; fill-rule:evenodd; stroke:#aaaaaa; stroke-opacity:100%; stroke-width: 1.5pt; stroke-linejoin:round; stroke-linecap:round;" d="M28.77 14.5c0.48 0.92 1.76 2.49 1.76 5.52c0 15.23 0.24 56.46 0.24 67.9c0 14.25-6.32 3.53-7.77 2"></path>
<path style="fill:none; fill-opacity:0%; fill-rule:evenodd; stroke:#aaaaaa; stroke-opacity:100%; stroke-width: 1.5pt; stroke-linejoin:round; stroke-linecap:round;" d="M11 67.29c1.05 1.24 2.71 1.97 5.02 0.82c1.36-0.68 20.76-13.45 26.53-16.7"></path>
<path style="fill:none; fill-opacity:0%; fill-rule:evenodd; stroke:#aaaaaa; stroke-opacity:100%; stroke-width: 1.5pt; stroke-linejoin:round; stroke-linecap:round;" d="M46.42 32.5c1.31 0.47 3.72 0.44 5.03 0.29C65.09 31.19 80.83 30 90.5 29.5c2.19-0.11 3.5 0.08 4.59 0.3"></path>
<path style="fill:none; fill-opacity:0%; fill-rule:evenodd; stroke:#aaaaaa; stroke-opacity:100%; stroke-width: 1.5pt; stroke-linejoin:round; stroke-linecap:round;" d="M67.69 13.76c1.08 0.44 1.73 2.16 1.94 3.14c0.22 0.99 0.3 24.85 0.3 33.8"></path>
<path style="fill:none; fill-opacity:0%; fill-rule:evenodd; stroke:#aaaaaa; stroke-opacity:100%; stroke-width: 1.5pt; stroke-linejoin:round; stroke-linecap:round;" d="M49.38 52.18c1.04 0.21 2.94 0.17 3.98 0.11c13.74-0.77 15.89-2.21 35.79-2.97c1.73-0.07 2.77 0.02 3.64 0.12"></path>
<path style="fill:none; fill-opacity:0%; fill-rule:evenodd; stroke:#aaaaaa; stroke-opacity:100%; stroke-width: 1.5pt; stroke-linejoin:round; stroke-linecap:round;" d="M51.57 66.09c0.42 0.52 0.85 0.95 1.03 1.6c1.45 5.15 2.18 16.51 3.17 25.77"></path>
<path style="fill:none; fill-opacity:0%; fill-rule:evenodd; stroke:#aaaaaa; stroke-opacity:100%; stroke-width: 1.5pt; stroke-linejoin:round; stroke-linecap:round;" d="M53.67 68.29c11.16-1.38 25.49-3.29 30.76-4.02c1.93-0.27 3.08 2.69 2.81 4.26c-1.14 6.49-2.74 13.71-3.89 19.72"></path>
<path style="fill:none; fill-opacity:0%; fill-rule:evenodd; stroke:#aaaaaa; stroke-opacity:100%; stroke-width: 1.5pt; stroke-linejoin:round; stroke-linecap:round;" d="M56.18 91.05c7.32-0.55 20.57-1.9 31.09-2.5"></path>

<path style="fill:none; fill-opacity:0%; fill-rule:evenodd; stroke:#000000; stroke-opacity:100%; stroke-width: 3pt; stroke-linejoin:round; stroke-linecap:round;" d="M11.75 40.05c2.27 0.27 1.38 0.6 3.81 0.27c5.99-0.82 16.38-2.22 26.36-3.49"></path>
<path style="fill:none; fill-opacity:0%; fill-rule:evenodd; stroke:#000000; stroke-opacity:100%; stroke-width: 3pt; stroke-linejoin:round; stroke-linecap:round;" d="M28.77 14.5c0.48 0.92 1.76 2.49 1.76 5.52c0 15.23 0.24 56.46 0.24 67.9c0 14.25-6.32 3.53-7.77 2"></path>
<path style="fill:none; fill-opacity:0%; fill-rule:evenodd; stroke:#000000; stroke-opacity:100%; stroke-width: 3pt; stroke-linejoin:round; stroke-linecap:round;" d="M11 67.29c1.05 1.24 2.71 1.97 5.02 0.82c1.36-0.68 20.76-13.45 26.53-16.7"></path>
<path style="fill:none; fill-opacity:0%; fill-rule:evenodd; stroke:#000000; stroke-opacity:100%; stroke-width: 3pt; stroke-linejoin:round; stroke-linecap:round;" d="M46.42 32.5c1.31 0.47 3.72 0.44 5.03 0.29C65.09 31.19 80.83 30 90.5 29.5c2.19-0.11 3.5 0.08 4.59 0.3"></path>
<text x="5" y="20" font-size="20" fill="#999999">5</text><path style="fill:none; fill-opacity:0%; fill-rule:evenodd; stroke:#CC0000; stroke-opacity:100%; stroke-width: 3pt; stroke-linejoin:round; stroke-linecap:round;" d="M67.69 13.76c1.08 0.44 1.73 2.16 1.94 3.14c0.22 0.99 0.3 24.85 0.3 33.8"  ></path>





</g><g transform="scale(1.3761467889908 1.3761467889908) translate(0, 109)">
<path style="fill:none; fill-rule:evenodd; stroke:#aaaaaa;  stroke-width:1pt; stroke-linecap:round;" d="m 109 0 L 0 0 L 0 109 L 109 109 L 109 0"></path><path style="fill:none; fill-opacity:0%; fill-rule:evenodd; stroke:#aaaaaa; stroke-opacity:100%; stroke-width: 1.5pt; stroke-linejoin:round; stroke-linecap:round;" d="M11.75 40.05c2.27 0.27 1.38 0.6 3.81 0.27c5.99-0.82 16.38-2.22 26.36-3.49"></path>
<path style="fill:none; fill-opacity:0%; fill-rule:evenodd; stroke:#aaaaaa; stroke-opacity:100%; stroke-width: 1.5pt; stroke-linejoin:round; stroke-linecap:round;" d="M28.77 14.5c0.48 0.92 1.76 2.49 1.76 5.52c0 15.23 0.24 56.46 0.24 67.9c0 14.25-6.32 3.53-7.77 2"></path>
<path style="fill:none; fill-opacity:0%; fill-rule:evenodd; stroke:#aaaaaa; stroke-opacity:100%; stroke-width: 1.5pt; stroke-linejoin:round; stroke-linecap:round;" d="M11 67.29c1.05 1.24 2.71 1.97 5.02 0.82c1.36-0.68 20.76-13.45 26.53-16.7"></path>
<path style="fill:none; fill-opacity:0%; fill-rule:evenodd; stroke:#aaaaaa; stroke-opacity:100%; stroke-width: 1.5pt; stroke-linejoin:round; stroke-linecap:round;" d="M46.42 32.5c1.31 0.47 3.72 0.44 5.03 0.29C65.09 31.19 80.83 30 90.5 29.5c2.19-0.11 3.5 0.08 4.59 0.3"></path>
<path style="fill:none; fill-opacity:0%; fill-rule:evenodd; stroke:#aaaaaa; stroke-opacity:100%; stroke-width: 1.5pt; stroke-linejoin:round; stroke-linecap:round;" d="M67.69 13.76c1.08 0.44 1.73 2.16 1.94 3.14c0.22 0.99 0.3 24.85 0.3 33.8"></path>
<path style="fill:none; fill-opacity:0%; fill-rule:evenodd; stroke:#aaaaaa; stroke-opacity:100%; stroke-width: 1.5pt; stroke-linejoin:round; stroke-linecap:round;" d="M49.38 52.18c1.04 0.21 2.94 0.17 3.98 0.11c13.74-0.77 15.89-2.21 35.79-2.97c1.73-0.07 2.77 0.02 3.64 0.12"></path>
<path style="fill:none; fill-opacity:0%; fill-rule:evenodd; stroke:#aaaaaa; stroke-opacity:100%; stroke-width: 1.5pt; stroke-linejoin:round; stroke-linecap:round;" d="M51.57 66.09c0.42 0.52 0.85 0.95 1.03 1.6c1.45 5.15 2.18 16.51 3.17 25.77"></path>
<path style="fill:none; fill-opacity:0%; fill-rule:evenodd; stroke:#aaaaaa; stroke-opacity:100%; stroke-width: 1.5pt; stroke-linejoin:round; stroke-linecap:round;" d="M53.67 68.29c11.16-1.38 25.49-3.29 30.76-4.02c1.93-0.27 3.08 2.69 2.81 4.26c-1.14 6.49-2.74 13.71-3.89 19.72"></path>
<path style="fill:none; fill-opacity:0%; fill-rule:evenodd; stroke:#aaaaaa; stroke-opacity:100%; stroke-width: 1.5pt; stroke-linejoin:round; stroke-linecap:round;" d="M56.18 91.05c7.32-0.55 20.57-1.9 31.09-2.5"></path>

<path style="fill:none; fill-opacity:0%; fill-rule:evenodd; stroke:#000000; stroke-opacity:100%; stroke-width: 3pt; stroke-linejoin:round; stroke-linecap:round;" d="M11.75 40.05c2.27 0.27 1.38 0.6 3.81 0.27c5.99-0.82 16.38-2.22 26.36-3.49"></path>
<path style="fill:none; fill-opacity:0%; fill-rule:evenodd; stroke:#000000; stroke-opacity:100%; stroke-width: 3pt; stroke-linejoin:round; stroke-linecap:round;" d="M28.77 14.5c0.48 0.92 1.76 2.49 1.76 5.52c0 15.23 0.24 56.46 0.24 67.9c0 14.25-6.32 3.53-7.77 2"></path>
<path style="fill:none; fill-opacity:0%; fill-rule:evenodd; stroke:#000000; stroke-opacity:100%; stroke-width: 3pt; stroke-linejoin:round; stroke-linecap:round;" d="M11 67.29c1.05 1.24 2.71 1.97 5.02 0.82c1.36-0.68 20.76-13.45 26.53-16.7"></path>
<path style="fill:none; fill-opacity:0%; fill-rule:evenodd; stroke:#000000; stroke-opacity:100%; stroke-width: 3pt; stroke-linejoin:round; stroke-linecap:round;" d="M46.42 32.5c1.31 0.47 3.72 0.44 5.03 0.29C65.09 31.19 80.83 30 90.5 29.5c2.19-0.11 3.5 0.08 4.59 0.3"></path>
<path style="fill:none; fill-opacity:0%; fill-rule:evenodd; stroke:#000000; stroke-opacity:100%; stroke-width: 3pt; stroke-linejoin:round; stroke-linecap:round;" d="M67.69 13.76c1.08 0.44 1.73 2.16 1.94 3.14c0.22 0.99 0.3 24.85 0.3 33.8"></path>
<text x="5" y="20" font-size="20" fill="#999999">6</text><path style="fill:none; fill-opacity:0%; fill-rule:evenodd; stroke:#CC0000; stroke-opacity:100%; stroke-width: 3pt; stroke-linejoin:round; stroke-linecap:round;" d="M49.38 52.18c1.04 0.21 2.94 0.17 3.98 0.11c13.74-0.77 15.89-2.21 35.79-2.97c1.73-0.07 2.77 0.02 3.64 0.12"  ></path>




</g><g transform="scale(1.3761467889908 1.3761467889908) translate(109, 109)">
<path style="fill:none; fill-rule:evenodd; stroke:#aaaaaa;  stroke-width:1pt; stroke-linecap:round;" d="m 109 0 L 0 0 L 0 109 L 109 109 L 109 0"></path><path style="fill:none; fill-opacity:0%; fill-rule:evenodd; stroke:#aaaaaa; stroke-opacity:100%; stroke-width: 1.5pt; stroke-linejoin:round; stroke-linecap:round;" d="M11.75 40.05c2.27 0.27 1.38 0.6 3.81 0.27c5.99-0.82 16.38-2.22 26.36-3.49"></path>
<path style="fill:none; fill-opacity:0%; fill-rule:evenodd; stroke:#aaaaaa; stroke-opacity:100%; stroke-width: 1.5pt; stroke-linejoin:round; stroke-linecap:round;" d="M28.77 14.5c0.48 0.92 1.76 2.49 1.76 5.52c0 15.23 0.24 56.46 0.24 67.9c0 14.25-6.32 3.53-7.77 2"></path>
<path style="fill:none; fill-opacity:0%; fill-rule:evenodd; stroke:#aaaaaa; stroke-opacity:100%; stroke-width: 1.5pt; stroke-linejoin:round; stroke-linecap:round;" d="M11 67.29c1.05 1.24 2.71 1.97 5.02 0.82c1.36-0.68 20.76-13.45 26.53-16.7"></path>
<path style="fill:none; fill-opacity:0%; fill-rule:evenodd; stroke:#aaaaaa; stroke-opacity:100%; stroke-width: 1.5pt; stroke-linejoin:round; stroke-linecap:round;" d="M46.42 32.5c1.31 0.47 3.72 0.44 5.03 0.29C65.09 31.19 80.83 30 90.5 29.5c2.19-0.11 3.5 0.08 4.59 0.3"></path>
<path style="fill:none; fill-opacity:0%; fill-rule:evenodd; stroke:#aaaaaa; stroke-opacity:100%; stroke-width: 1.5pt; stroke-linejoin:round; stroke-linecap:round;" d="M67.69 13.76c1.08 0.44 1.73 2.16 1.94 3.14c0.22 0.99 0.3 24.85 0.3 33.8"></path>
<path style="fill:none; fill-opacity:0%; fill-rule:evenodd; stroke:#aaaaaa; stroke-opacity:100%; stroke-width: 1.5pt; stroke-linejoin:round; stroke-linecap:round;" d="M49.38 52.18c1.04 0.21 2.94 0.17 3.98 0.11c13.74-0.77 15.89-2.21 35.79-2.97c1.73-0.07 2.77 0.02 3.64 0.12"></path>
<path style="fill:none; fill-opacity:0%; fill-rule:evenodd; stroke:#aaaaaa; stroke-opacity:100%; stroke-width: 1.5pt; stroke-linejoin:round; stroke-linecap:round;" d="M51.57 66.09c0.42 0.52 0.85 0.95 1.03 1.6c1.45 5.15 2.18 16.51 3.17 25.77"></path>
<path style="fill:none; fill-opacity:0%; fill-rule:evenodd; stroke:#aaaaaa; stroke-opacity:100%; stroke-width: 1.5pt; stroke-linejoin:round; stroke-linecap:round;" d="M53.67 68.29c11.16-1.38 25.49-3.29 30.76-4.02c1.93-0.27 3.08 2.69 2.81 4.26c-1.14 6.49-2.74 13.71-3.89 19.72"></path>
<path style="fill:none; fill-opacity:0%; fill-rule:evenodd; stroke:#aaaaaa; stroke-opacity:100%; stroke-width: 1.5pt; stroke-linejoin:round; stroke-linecap:round;" d="M56.18 91.05c7.32-0.55 20.57-1.9 31.09-2.5"></path>

<path style="fill:none; fill-opacity:0%; fill-rule:evenodd; stroke:#000000; stroke-opacity:100%; stroke-width: 3pt; stroke-linejoin:round; stroke-linecap:round;" d="M11.75 40.05c2.27 0.27 1.38 0.6 3.81 0.27c5.99-0.82 16.38-2.22 26.36-3.49"></path>
<path style="fill:none; fill-opacity:0%; fill-rule:evenodd; stroke:#000000; stroke-opacity:100%; stroke-width: 3pt; stroke-linejoin:round; stroke-linecap:round;" d="M28.77 14.5c0.48 0.92 1.76 2.49 1.76 5.52c0 15.23 0.24 56.46 0.24 67.9c0 14.25-6.32 3.53-7.77 2"></path>
<path style="fill:none; fill-opacity:0%; fill-rule:evenodd; stroke:#000000; stroke-opacity:100%; stroke-width: 3pt; stroke-linejoin:round; stroke-linecap:round;" d="M11 67.29c1.05 1.24 2.71 1.97 5.02 0.82c1.36-0.68 20.76-13.45 26.53-16.7"></path>
<path style="fill:none; fill-opacity:0%; fill-rule:evenodd; stroke:#000000; stroke-opacity:100%; stroke-width: 3pt; stroke-linejoin:round; stroke-linecap:round;" d="M46.42 32.5c1.31 0.47 3.72 0.44 5.03 0.29C65.09 31.19 80.83 30 90.5 29.5c2.19-0.11 3.5 0.08 4.59 0.3"></path>
<path style="fill:none; fill-opacity:0%; fill-rule:evenodd; stroke:#000000; stroke-opacity:100%; stroke-width: 3pt; stroke-linejoin:round; stroke-linecap:round;" d="M67.69 13.76c1.08 0.44 1.73 2.16 1.94 3.14c0.22 0.99 0.3 24.85 0.3 33.8"></path>
<path style="fill:none; fill-opacity:0%; fill-rule:evenodd; stroke:#000000; stroke-opacity:100%; stroke-width: 3pt; stroke-linejoin:round; stroke-linecap:round;" d="M49.38 52.18c1.04 0.21 2.94 0.17 3.98 0.11c13.74-0.77 15.89-2.21 35.79-2.97c1.73-0.07 2.77 0.02 3.64 0.12"></path>
<text x="5" y="20" font-size="20" fill="#999999">7</text><path style="fill:none; fill-opacity:0%; fill-rule:evenodd; stroke:#CC0000; stroke-opacity:100%; stroke-width: 3pt; stroke-linejoin:round; stroke-linecap:round;" d="M51.57 66.09c0.42 0.52 0.85 0.95 1.03 1.6c1.45 5.15 2.18 16.51 3.17 25.77"  ></path>



</g><g transform="scale(1.3761467889908 1.3761467889908) translate(218, 109)">
<path style="fill:none; fill-rule:evenodd; stroke:#aaaaaa;  stroke-width:1pt; stroke-linecap:round;" d="m 109 0 L 0 0 L 0 109 L 109 109 L 109 0"></path><path style="fill:none; fill-opacity:0%; fill-rule:evenodd; stroke:#aaaaaa; stroke-opacity:100%; stroke-width: 1.5pt; stroke-linejoin:round; stroke-linecap:round;" d="M11.75 40.05c2.27 0.27 1.38 0.6 3.81 0.27c5.99-0.82 16.38-2.22 26.36-3.49"></path>
<path style="fill:none; fill-opacity:0%; fill-rule:evenodd; stroke:#aaaaaa; stroke-opacity:100%; stroke-width: 1.5pt; stroke-linejoin:round; stroke-linecap:round;" d="M28.77 14.5c0.48 0.92 1.76 2.49 1.76 5.52c0 15.23 0.24 56.46 0.24 67.9c0 14.25-6.32 3.53-7.77 2"></path>
<path style="fill:none; fill-opacity:0%; fill-rule:evenodd; stroke:#aaaaaa; stroke-opacity:100%; stroke-width: 1.5pt; stroke-linejoin:round; stroke-linecap:round;" d="M11 67.29c1.05 1.24 2.71 1.97 5.02 0.82c1.36-0.68 20.76-13.45 26.53-16.7"></path>
<path style="fill:none; fill-opacity:0%; fill-rule:evenodd; stroke:#aaaaaa; stroke-opacity:100%; stroke-width: 1.5pt; stroke-linejoin:round; stroke-linecap:round;" d="M46.42 32.5c1.31 0.47 3.72 0.44 5.03 0.29C65.09 31.19 80.83 30 90.5 29.5c2.19-0.11 3.5 0.08 4.59 0.3"></path>
<path style="fill:none; fill-opacity:0%; fill-rule:evenodd; stroke:#aaaaaa; stroke-opacity:100%; stroke-width: 1.5pt; stroke-linejoin:round; stroke-linecap:round;" d="M67.69 13.76c1.08 0.44 1.73 2.16 1.94 3.14c0.22 0.99 0.3 24.85 0.3 33.8"></path>
<path style="fill:none; fill-opacity:0%; fill-rule:evenodd; stroke:#aaaaaa; stroke-opacity:100%; stroke-width: 1.5pt; stroke-linejoin:round; stroke-linecap:round;" d="M49.38 52.18c1.04 0.21 2.94 0.17 3.98 0.11c13.74-0.77 15.89-2.21 35.79-2.97c1.73-0.07 2.77 0.02 3.64 0.12"></path>
<path style="fill:none; fill-opacity:0%; fill-rule:evenodd; stroke:#aaaaaa; stroke-opacity:100%; stroke-width: 1.5pt; stroke-linejoin:round; stroke-linecap:round;" d="M51.57 66.09c0.42 0.52 0.85 0.95 1.03 1.6c1.45 5.15 2.18 16.51 3.17 25.77"></path>
<path style="fill:none; fill-opacity:0%; fill-rule:evenodd; stroke:#aaaaaa; stroke-opacity:100%; stroke-width: 1.5pt; stroke-linejoin:round; stroke-linecap:round;" d="M53.67 68.29c11.16-1.38 25.49-3.29 30.76-4.02c1.93-0.27 3.08 2.69 2.81 4.26c-1.14 6.49-2.74 13.71-3.89 19.72"></path>
<path style="fill:none; fill-opacity:0%; fill-rule:evenodd; stroke:#aaaaaa; stroke-opacity:100%; stroke-width: 1.5pt; stroke-linejoin:round; stroke-linecap:round;" d="M56.18 91.05c7.32-0.55 20.57-1.9 31.09-2.5"></path>

<path style="fill:none; fill-opacity:0%; fill-rule:evenodd; stroke:#000000; stroke-opacity:100%; stroke-width: 3pt; stroke-linejoin:round; stroke-linecap:round;" d="M11.75 40.05c2.27 0.27 1.38 0.6 3.81 0.27c5.99-0.82 16.38-2.22 26.36-3.49"></path>
<path style="fill:none; fill-opacity:0%; fill-rule:evenodd; stroke:#000000; stroke-opacity:100%; stroke-width: 3pt; stroke-linejoin:round; stroke-linecap:round;" d="M28.77 14.5c0.48 0.92 1.76 2.49 1.76 5.52c0 15.23 0.24 56.46 0.24 67.9c0 14.25-6.32 3.53-7.77 2"></path>
<path style="fill:none; fill-opacity:0%; fill-rule:evenodd; stroke:#000000; stroke-opacity:100%; stroke-width: 3pt; stroke-linejoin:round; stroke-linecap:round;" d="M11 67.29c1.05 1.24 2.71 1.97 5.02 0.82c1.36-0.68 20.76-13.45 26.53-16.7"></path>
<path style="fill:none; fill-opacity:0%; fill-rule:evenodd; stroke:#000000; stroke-opacity:100%; stroke-width: 3pt; stroke-linejoin:round; stroke-linecap:round;" d="M46.42 32.5c1.31 0.47 3.72 0.44 5.03 0.29C65.09 31.19 80.83 30 90.5 29.5c2.19-0.11 3.5 0.08 4.59 0.3"></path>
<path style="fill:none; fill-opacity:0%; fill-rule:evenodd; stroke:#000000; stroke-opacity:100%; stroke-width: 3pt; stroke-linejoin:round; stroke-linecap:round;" d="M67.69 13.76c1.08 0.44 1.73 2.16 1.94 3.14c0.22 0.99 0.3 24.85 0.3 33.8"></path>
<path style="fill:none; fill-opacity:0%; fill-rule:evenodd; stroke:#000000; stroke-opacity:100%; stroke-width: 3pt; stroke-linejoin:round; stroke-linecap:round;" d="M49.38 52.18c1.04 0.21 2.94 0.17 3.98 0.11c13.74-0.77 15.89-2.21 35.79-2.97c1.73-0.07 2.77 0.02 3.64 0.12"></path>
<path style="fill:none; fill-opacity:0%; fill-rule:evenodd; stroke:#000000; stroke-opacity:100%; stroke-width: 3pt; stroke-linejoin:round; stroke-linecap:round;" d="M51.57 66.09c0.42 0.52 0.85 0.95 1.03 1.6c1.45 5.15 2.18 16.51 3.17 25.77"></path>
<text x="5" y="20" font-size="20" fill="#999999">8</text><path style="fill:none; fill-opacity:0%; fill-rule:evenodd; stroke:#CC0000; stroke-opacity:100%; stroke-width: 3pt; stroke-linejoin:round; stroke-linecap:round;" d="M53.67 68.29c11.16-1.38 25.49-3.29 30.76-4.02c1.93-0.27 3.08 2.69 2.81 4.26c-1.14 6.49-2.74 13.71-3.89 19.72"  ></path>


</g><g transform="scale(1.3761467889908 1.3761467889908) translate(327, 109)">
<path style="fill:none; fill-rule:evenodd; stroke:#aaaaaa;  stroke-width:1pt; stroke-linecap:round;" d="m 109 0 L 0 0 L 0 109 L 109 109 L 109 0"></path><path style="fill:none; fill-opacity:0%; fill-rule:evenodd; stroke:#aaaaaa; stroke-opacity:100%; stroke-width: 1.5pt; stroke-linejoin:round; stroke-linecap:round;" d="M11.75 40.05c2.27 0.27 1.38 0.6 3.81 0.27c5.99-0.82 16.38-2.22 26.36-3.49"></path>
<path style="fill:none; fill-opacity:0%; fill-rule:evenodd; stroke:#aaaaaa; stroke-opacity:100%; stroke-width: 1.5pt; stroke-linejoin:round; stroke-linecap:round;" d="M28.77 14.5c0.48 0.92 1.76 2.49 1.76 5.52c0 15.23 0.24 56.46 0.24 67.9c0 14.25-6.32 3.53-7.77 2"></path>
<path style="fill:none; fill-opacity:0%; fill-rule:evenodd; stroke:#aaaaaa; stroke-opacity:100%; stroke-width: 1.5pt; stroke-linejoin:round; stroke-linecap:round;" d="M11 67.29c1.05 1.24 2.71 1.97 5.02 0.82c1.36-0.68 20.76-13.45 26.53-16.7"></path>
<path style="fill:none; fill-opacity:0%; fill-rule:evenodd; stroke:#aaaaaa; stroke-opacity:100%; stroke-width: 1.5pt; stroke-linejoin:round; stroke-linecap:round;" d="M46.42 32.5c1.31 0.47 3.72 0.44 5.03 0.29C65.09 31.19 80.83 30 90.5 29.5c2.19-0.11 3.5 0.08 4.59 0.3"></path>
<path style="fill:none; fill-opacity:0%; fill-rule:evenodd; stroke:#aaaaaa; stroke-opacity:100%; stroke-width: 1.5pt; stroke-linejoin:round; stroke-linecap:round;" d="M67.69 13.76c1.08 0.44 1.73 2.16 1.94 3.14c0.22 0.99 0.3 24.85 0.3 33.8"></path>
<path style="fill:none; fill-opacity:0%; fill-rule:evenodd; stroke:#aaaaaa; stroke-opacity:100%; stroke-width: 1.5pt; stroke-linejoin:round; stroke-linecap:round;" d="M49.38 52.18c1.04 0.21 2.94 0.17 3.98 0.11c13.74-0.77 15.89-2.21 35.79-2.97c1.73-0.07 2.77 0.02 3.64 0.12"></path>
<path style="fill:none; fill-opacity:0%; fill-rule:evenodd; stroke:#aaaaaa; stroke-opacity:100%; stroke-width: 1.5pt; stroke-linejoin:round; stroke-linecap:round;" d="M51.57 66.09c0.42 0.52 0.85 0.95 1.03 1.6c1.45 5.15 2.18 16.51 3.17 25.77"></path>
<path style="fill:none; fill-opacity:0%; fill-rule:evenodd; stroke:#aaaaaa; stroke-opacity:100%; stroke-width: 1.5pt; stroke-linejoin:round; stroke-linecap:round;" d="M53.67 68.29c11.16-1.38 25.49-3.29 30.76-4.02c1.93-0.27 3.08 2.69 2.81 4.26c-1.14 6.49-2.74 13.71-3.89 19.72"></path>
<path style="fill:none; fill-opacity:0%; fill-rule:evenodd; stroke:#aaaaaa; stroke-opacity:100%; stroke-width: 1.5pt; stroke-linejoin:round; stroke-linecap:round;" d="M56.18 91.05c7.32-0.55 20.57-1.9 31.09-2.5"></path>

<path style="fill:none; fill-opacity:0%; fill-rule:evenodd; stroke:#000000; stroke-opacity:100%; stroke-width: 3pt; stroke-linejoin:round; stroke-linecap:round;" d="M11.75 40.05c2.27 0.27 1.38 0.6 3.81 0.27c5.99-0.82 16.38-2.22 26.36-3.49"></path>
<path style="fill:none; fill-opacity:0%; fill-rule:evenodd; stroke:#000000; stroke-opacity:100%; stroke-width: 3pt; stroke-linejoin:round; stroke-linecap:round;" d="M28.77 14.5c0.48 0.92 1.76 2.49 1.76 5.52c0 15.23 0.24 56.46 0.24 67.9c0 14.25-6.32 3.53-7.77 2"></path>
<path style="fill:none; fill-opacity:0%; fill-rule:evenodd; stroke:#000000; stroke-opacity:100%; stroke-width: 3pt; stroke-linejoin:round; stroke-linecap:round;" d="M11 67.29c1.05 1.24 2.71 1.97 5.02 0.82c1.36-0.68 20.76-13.45 26.53-16.7"></path>
<path style="fill:none; fill-opacity:0%; fill-rule:evenodd; stroke:#000000; stroke-opacity:100%; stroke-width: 3pt; stroke-linejoin:round; stroke-linecap:round;" d="M46.42 32.5c1.31 0.47 3.72 0.44 5.03 0.29C65.09 31.19 80.83 30 90.5 29.5c2.19-0.11 3.5 0.08 4.59 0.3"></path>
<path style="fill:none; fill-opacity:0%; fill-rule:evenodd; stroke:#000000; stroke-opacity:100%; stroke-width: 3pt; stroke-linejoin:round; stroke-linecap:round;" d="M67.69 13.76c1.08 0.44 1.73 2.16 1.94 3.14c0.22 0.99 0.3 24.85 0.3 33.8"></path>
<path style="fill:none; fill-opacity:0%; fill-rule:evenodd; stroke:#000000; stroke-opacity:100%; stroke-width: 3pt; stroke-linejoin:round; stroke-linecap:round;" d="M49.38 52.18c1.04 0.21 2.94 0.17 3.98 0.11c13.74-0.77 15.89-2.21 35.79-2.97c1.73-0.07 2.77 0.02 3.64 0.12"></path>
<path style="fill:none; fill-opacity:0%; fill-rule:evenodd; stroke:#000000; stroke-opacity:100%; stroke-width: 3pt; stroke-linejoin:round; stroke-linecap:round;" d="M51.57 66.09c0.42 0.52 0.85 0.95 1.03 1.6c1.45 5.15 2.18 16.51 3.17 25.77"></path>
<path style="fill:none; fill-opacity:0%; fill-rule:evenodd; stroke:#000000; stroke-opacity:100%; stroke-width: 3pt; stroke-linejoin:round; stroke-linecap:round;" d="M53.67 68.29c11.16-1.38 25.49-3.29 30.76-4.02c1.93-0.27 3.08 2.69 2.81 4.26c-1.14 6.49-2.74 13.71-3.89 19.72"></path>
<text x="5" y="20" font-size="20" fill="#999999">9</text><path style="fill:none; fill-opacity:0%; fill-rule:evenodd; stroke:#CC0000; stroke-opacity:100%; stroke-width: 3pt; stroke-linejoin:round; stroke-linecap:round;" d="M56.18 91.05c7.32-0.55 20.57-1.9 31.09-2.5"  ></path>

</g>

</svg>  
          
