<?xml version="1.0" standalone="no"?>
<!DOCTYPE svg PUBLIC "-//W3C//DTD SVG 1.1//EN"   "http://www.w3.org/Graphics/SVG/1.1/DTD/svg11.dtd">
<svg width="751" height="301"  version="1.1" xmlns="http://www.w3.org/2000/svg">
  <defs>
    <marker id="Triangle" viewBox="0 0 10 10" refX="0" refY="5" markerUnits="strokeWidth" markerWidth="3" style="stroke-opacity:0%;fill:#aaaaaa;" markerHeight="2" orient="auto">
      <path d="M 0 0 L 10 5 L 0 10 z" />
    </marker>
    
    <marker id="Arrow" viewBox="0 0 10 10" refX="5" refY="5" markerUnits="strokeWidth" markerWidth="1.8" style="stroke-opacity:0%;fill:#770000;" markerHeight="2" orient="auto">
      <path d="M 0 4 L 6 4 L 4 1 L 10 5 L 4 9 L 6 6 L 0 6 z" />
        <circle cx="5" cy="5" r="5" />
      </marker>
    
    <marker id="TriangleRed" viewBox="0 0 10 10" refX="0" refY="5" markerUnits="strokeWidth" markerWidth="3" style="stroke-opacity:0%;fill:#CC0000;" markerHeight="2" orient="auto">
      <path d="M 0 0 L 10 5 L 0 10 z" />
    </marker>
    
    <marker id="ArrowRed" viewBox="0 0 10 10" refX="5" refY="5" markerUnits="strokeWidth" markerWidth="1.8" style="stroke-opacity:0%;fill:#CC0000;" markerHeight="2" orient="auto">
      <path d="M 0 4 L 6 4 L 4 1 L 10 5 L 4 9 L 6 6 L 0 6 z" />
        <circle cx="5" cy="5" r="5" />
      </marker>
    
  </defs>
  
  <path style="fill:#ffffff; fill-opacity:100%; fill-rule:evenodd; stroke-width:0;" d="M 0 0 L 751 0 L 751 301 L 0 301 L 0 0" />

  <g transform="scale(1.3761467889908 1.3761467889908) translate(0, 0)">
<path style="fill:none; fill-rule:evenodd; stroke:#aaaaaa;  stroke-width:1pt; stroke-linecap:round;" d="m 109 0 L 0 0 L 0 109 L 109 109 L 109 0"></path><path style="fill:none; fill-opacity:0%; fill-rule:evenodd; stroke:#aaaaaa; stroke-opacity:100%; stroke-width: 1.5pt; stroke-linejoin:round; stroke-linecap:round;" d="M15 39.42c1.84 0.22 3.48 0.49 5.38 0.26c4.62-0.57 10.92-1.65 18.39-3.28c0.93-0.2 1.98-0.14 2.9-0.14"></path>
<path style="fill:none; fill-opacity:0%; fill-rule:evenodd; stroke:#aaaaaa; stroke-opacity:100%; stroke-width: 1.5pt; stroke-linejoin:round; stroke-linecap:round;" d="M31.52 15.75c0.87 0.87 1.51 2.38 1.51 4.77c0 15.23-0.01 53.71-0.01 65.15c0 14.25-6.32 3.53-7.77 2"></path>
<path style="fill:none; fill-opacity:0%; fill-rule:evenodd; stroke:#aaaaaa; stroke-opacity:100%; stroke-width: 1.5pt; stroke-linejoin:round; stroke-linecap:round;" d="M13.25 67.68c1.5 1.32 2.93 1.55 4.8 0.19c5.83-4.24 11.2-8.12 22.7-16.95"></path>
<path style="fill:none; fill-opacity:0%; fill-rule:evenodd; stroke:#aaaaaa; stroke-opacity:100%; stroke-width: 1.5pt; stroke-linejoin:round; stroke-linecap:round;" d="M46 30.89c2.17 0.88 5.38 0.42 7.62 0.07c6.64-1.03 17.52-2.55 24.02-3c2.41-0.17 4.72-0.53 7.11 0.05"></path>
<path style="fill:none; fill-opacity:0%; fill-rule:evenodd; stroke:#aaaaaa; stroke-opacity:100%; stroke-width: 1.5pt; stroke-linejoin:round; stroke-linecap:round;" d="M46.88 40.62c2.15 2.07 5.56 8.51 6.1 11.73"></path>
<path style="fill:none; fill-opacity:0%; fill-rule:evenodd; stroke:#aaaaaa; stroke-opacity:100%; stroke-width: 1.5pt; stroke-linejoin:round; stroke-linecap:round;" d="M81.53 36.14c0.13 0.93-0.03 1.81-0.48 2.62c-1.42 3.58-3.72 7.5-7.55 12.23"></path>
<path style="fill:none; fill-opacity:0%; fill-rule:evenodd; stroke:#aaaaaa; stroke-opacity:100%; stroke-width: 1.5pt; stroke-linejoin:round; stroke-linecap:round;" d="M41.88 58.86c2.72 0.65 5.24 0.5 7.97 0.17c9.96-1.2 22.78-2.41 34.79-3.33c2.35-0.18 5.24-0.33 7.37 0.05"></path>
<path style="fill:none; fill-opacity:0%; fill-rule:evenodd; stroke:#aaaaaa; stroke-opacity:100%; stroke-width: 1.5pt; stroke-linejoin:round; stroke-linecap:round;" d="M62.83 13.5c0.96 0.96 1.17 2.38 1.17 4.33C63.99 62.75 65.25 76 38.75 95"></path>
<path style="fill:none; fill-opacity:0%; fill-rule:evenodd; stroke:#aaaaaa; stroke-opacity:100%; stroke-width: 1.5pt; stroke-linejoin:round; stroke-linecap:round;" d="M63.5 60c5.18 5.69 14.4 17.72 21.89 25.48c4.23 4.39 6.73 6.27 9.36 7.77"></path>

<text x="5" y="20" font-size="20" fill="#999999">1</text><path style="fill:none; fill-opacity:0%; fill-rule:evenodd; stroke:#CC0000; stroke-opacity:100%; stroke-width: 3pt; stroke-linejoin:round; stroke-linecap:round;" d="M15 39.42c1.84 0.22 3.48 0.49 5.38 0.26c4.62-0.57 10.92-1.65 18.39-3.28c0.93-0.2 1.98-0.14 2.9-0.14"  ></path>









</g><g transform="scale(1.3761467889908 1.3761467889908) translate(109, 0)">
<path style="fill:none; fill-rule:evenodd; stroke:#aaaaaa;  stroke-width:1pt; stroke-linecap:round;" d="m 109 0 L 0 0 L 0 109 L 109 109 L 109 0"></path><path style="fill:none; fill-opacity:0%; fill-rule:evenodd; stroke:#aaaaaa; stroke-opacity:100%; stroke-width: 1.5pt; stroke-linejoin:round; stroke-linecap:round;" d="M15 39.42c1.84 0.22 3.48 0.49 5.38 0.26c4.62-0.57 10.92-1.65 18.39-3.28c0.93-0.2 1.98-0.14 2.9-0.14"></path>
<path style="fill:none; fill-opacity:0%; fill-rule:evenodd; stroke:#aaaaaa; stroke-opacity:100%; stroke-width: 1.5pt; stroke-linejoin:round; stroke-linecap:round;" d="M31.52 15.75c0.87 0.87 1.51 2.38 1.51 4.77c0 15.23-0.01 53.71-0.01 65.15c0 14.25-6.32 3.53-7.77 2"></path>
<path style="fill:none; fill-opacity:0%; fill-rule:evenodd; stroke:#aaaaaa; stroke-opacity:100%; stroke-width: 1.5pt; stroke-linejoin:round; stroke-linecap:round;" d="M13.25 67.68c1.5 1.32 2.93 1.55 4.8 0.19c5.83-4.24 11.2-8.12 22.7-16.95"></path>
<path style="fill:none; fill-opacity:0%; fill-rule:evenodd; stroke:#aaaaaa; stroke-opacity:100%; stroke-width: 1.5pt; stroke-linejoin:round; stroke-linecap:round;" d="M46 30.89c2.17 0.88 5.38 0.42 7.62 0.07c6.64-1.03 17.52-2.55 24.02-3c2.41-0.17 4.72-0.53 7.11 0.05"></path>
<path style="fill:none; fill-opacity:0%; fill-rule:evenodd; stroke:#aaaaaa; stroke-opacity:100%; stroke-width: 1.5pt; stroke-linejoin:round; stroke-linecap:round;" d="M46.88 40.62c2.15 2.07 5.56 8.51 6.1 11.73"></path>
<path style="fill:none; fill-opacity:0%; fill-rule:evenodd; stroke:#aaaaaa; stroke-opacity:100%; stroke-width: 1.5pt; stroke-linejoin:round; stroke-linecap:round;" d="M81.53 36.14c0.13 0.93-0.03 1.81-0.48 2.62c-1.42 3.58-3.72 7.5-7.55 12.23"></path>
<path style="fill:none; fill-opacity:0%; fill-rule:evenodd; stroke:#aaaaaa; stroke-opacity:100%; stroke-width: 1.5pt; stroke-linejoin:round; stroke-linecap:round;" d="M41.88 58.86c2.72 0.65 5.24 0.5 7.97 0.17c9.96-1.2 22.78-2.41 34.79-3.33c2.35-0.18 5.24-0.33 7.37 0.05"></path>
<path style="fill:none; fill-opacity:0%; fill-rule:evenodd; stroke:#aaaaaa; stroke-opacity:100%; stroke-width: 1.5pt; stroke-linejoin:round; stroke-linecap:round;" d="M62.83 13.5c0.96 0.96 1.17 2.38 1.17 4.33C63.99 62.75 65.25 76 38.75 95"></path>
<path style="fill:none; fill-opacity:0%; fill-rule:evenodd; stroke:#aaaaaa; stroke-opacity:100%; stroke-width: 1.5pt; stroke-linejoin:round; stroke-linecap:round;" d="M63.5 60c5.18 5.69 14.4 17.72 21.89 25.48c4.23 4.39 6.73 6.27 9.36 7.77"></path>

<path style="fill:none; fill-opacity:0%; fill-rule:evenodd; stroke:#000000; stroke-opacity:100%; stroke-width: 3pt; stroke-linejoin:round; stroke-linecap:round;" d="M15 39.42c1.84 0.22 3.48 0.49 5.38 0.26c4.62-0.57 10.92-1.65 18.39-3.28c0.93-0.2 1.98-0.14 2.9-0.14"></path>
<text x="5" y="20" font-size="20" fill="#999999">2</text><path style="fill:none; fill-opacity:0%; fill-rule:evenodd; stroke:#CC0000; stroke-opacity:100%; stroke-width: 3pt; stroke-linejoin:round; stroke-linecap:round;" d="M31.52 15.75c0.87 0.87 1.51 2.38 1.51 4.77c0 15.23-0.01 53.71-0.01 65.15c0 14.25-6.32 3.53-7.77 2"  ></path>








</g><g transform="scale(1.3761467889908 1.3761467889908) translate(218, 0)">
<path style="fill:none; fill-rule:evenodd; stroke:#aaaaaa;  stroke-width:1pt; stroke-linecap:round;" d="m 109 0 L 0 0 L 0 109 L 109 109 L 109 0"></path><path style="fill:none; fill-opacity:0%; fill-rule:evenodd; stroke:#aaaaaa; stroke-opacity:100%; stroke-width: 1.5pt; stroke-linejoin:round; stroke-linecap:round;" d="M15 39.42c1.84 0.22 3.48 0.49 5.38 0.26c4.62-0.57 10.92-1.65 18.39-3.28c0.93-0.2 1.98-0.14 2.9-0.14"></path>
<path style="fill:none; fill-opacity:0%; fill-rule:evenodd; stroke:#aaaaaa; stroke-opacity:100%; stroke-width: 1.5pt; stroke-linejoin:round; stroke-linecap:round;" d="M31.52 15.75c0.87 0.87 1.51 2.38 1.51 4.77c0 15.23-0.01 53.71-0.01 65.15c0 14.25-6.32 3.53-7.77 2"></path>
<path style="fill:none; fill-opacity:0%; fill-rule:evenodd; stroke:#aaaaaa; stroke-opacity:100%; stroke-width: 1.5pt; stroke-linejoin:round; stroke-linecap:round;" d="M13.25 67.68c1.5 1.32 2.93 1.55 4.8 0.19c5.83-4.24 11.2-8.12 22.7-16.95"></path>
<path style="fill:none; fill-opacity:0%; fill-rule:evenodd; stroke:#aaaaaa; stroke-opacity:100%; stroke-width: 1.5pt; stroke-linejoin:round; stroke-linecap:round;" d="M46 30.89c2.17 0.88 5.38 0.42 7.62 0.07c6.64-1.03 17.52-2.55 24.02-3c2.41-0.17 4.72-0.53 7.11 0.05"></path>
<path style="fill:none; fill-opacity:0%; fill-rule:evenodd; stroke:#aaaaaa; stroke-opacity:100%; stroke-width: 1.5pt; stroke-linejoin:round; stroke-linecap:round;" d="M46.88 40.62c2.15 2.07 5.56 8.51 6.1 11.73"></path>
<path style="fill:none; fill-opacity:0%; fill-rule:evenodd; stroke:#aaaaaa; stroke-opacity:100%; stroke-width: 1.5pt; stroke-linejoin:round; stroke-linecap:round;" d="M81.53 36.14c0.13 0.93-0.03 1.81-0.48 2.62c-1.42 3.58-3.72 7.5-7.55 12.23"></path>
<path style="fill:none; fill-opacity:0%; fill-rule:evenodd; stroke:#aaaaaa; stroke-opacity:100%; stroke-width: 1.5pt; stroke-linejoin:round; stroke-linecap:round;" d="M41.88 58.86c2.72 0.65 5.24 0.5 7.97 0.17c9.96-1.2 22.78-2.41 34.79-3.33c2.35-0.18 5.24-0.33 7.37 0.05"></path>
<path style="fill:none; fill-opacity:0%; fill-rule:evenodd; stroke:#aaaaaa; stroke-opacity:100%; stroke-width: 1.5pt; stroke-linejoin:round; stroke-linecap:round;" d="M62.83 13.5c0.96 0.96 1.17 2.38 1.17 4.33C63.99 62.75 65.25 76 38.75 95"></path>
<path style="fill:none; fill-opacity:0%; fill-rule:evenodd; stroke:#aaaaaa; stroke-opacity:100%; stroke-width: 1.5pt; stroke-linejoin:round; stroke-linecap:round;" d="M63.5 60c5.18 5.69 14.4 17.72 21.89 25.48c4.23 4.39 6.73 6.27 9.36 7.77"></path>

<path style="fill:none; fill-opacity:0%; fill-rule:evenodd; stroke:#000000; stroke-opacity:100%; stroke-width: 3pt; stroke-linejoin:round; stroke-linecap:round;" d="M15 39.42c1.84 0.22 3.48 0.49 5.38 0.26c4.62-0.57 10.92-1.65 18.39-3.28c0.93-0.2 1.98-0.14 2.9-0.14"></path>
<path style="fill:none; fill-opacity:0%; fill-rule:evenodd; stroke:#000000; stroke-opacity:100%; stroke-width: 3pt; stroke-linejoin:round; stroke-linecap:round;" d="M31.52 15.75c0.87 0.87 1.51 2.38 1.51 4.77c0 15.23-0.01 53.71-0.01 65.15c0 14.25-6.32 3.53-7.77 2"></path>
<text x="5" y="20" font-size="20" fill="#999999">3</text><path style="fill:none; fill-opacity:0%; fill-rule:evenodd; stroke:#CC0000; stroke-opacity:100%; stroke-width: 3pt; stroke-linejoin:round; stroke-linecap:round;" d="M13.25 67.68c1.5 1.32 2.93 1.55 4.8 0.19c5.83-4.24 11.2-8.12 22.7-16.95"  ></path>







</g><g transform="scale(1.3761467889908 1.3761467889908) translate(327, 0)">
<path style="fill:none; fill-rule:evenodd; stroke:#aaaaaa;  stroke-width:1pt; stroke-linecap:round;" d="m 109 0 L 0 0 L 0 109 L 109 109 L 109 0"></path><path style="fill:none; fill-opacity:0%; fill-rule:evenodd; stroke:#aaaaaa; stroke-opacity:100%; stroke-width: 1.5pt; stroke-linejoin:round; stroke-linecap:round;" d="M15 39.42c1.84 0.22 3.48 0.49 5.38 0.26c4.62-0.57 10.92-1.65 18.39-3.28c0.93-0.2 1.98-0.14 2.9-0.14"></path>
<path style="fill:none; fill-opacity:0%; fill-rule:evenodd; stroke:#aaaaaa; stroke-opacity:100%; stroke-width: 1.5pt; stroke-linejoin:round; stroke-linecap:round;" d="M31.52 15.75c0.87 0.87 1.51 2.38 1.51 4.77c0 15.23-0.01 53.71-0.01 65.15c0 14.25-6.32 3.53-7.77 2"></path>
<path style="fill:none; fill-opacity:0%; fill-rule:evenodd; stroke:#aaaaaa; stroke-opacity:100%; stroke-width: 1.5pt; stroke-linejoin:round; stroke-linecap:round;" d="M13.25 67.68c1.5 1.32 2.93 1.55 4.8 0.19c5.83-4.24 11.2-8.12 22.7-16.95"></path>
<path style="fill:none; fill-opacity:0%; fill-rule:evenodd; stroke:#aaaaaa; stroke-opacity:100%; stroke-width: 1.5pt; stroke-linejoin:round; stroke-linecap:round;" d="M46 30.89c2.17 0.88 5.38 0.42 7.62 0.07c6.64-1.03 17.52-2.55 24.02-3c2.41-0.17 4.72-0.53 7.11 0.05"></path>
<path style="fill:none; fill-opacity:0%; fill-rule:evenodd; stroke:#aaaaaa; stroke-opacity:100%; stroke-width: 1.5pt; stroke-linejoin:round; stroke-linecap:round;" d="M46.88 40.62c2.15 2.07 5.56 8.51 6.1 11.73"></path>
<path style="fill:none; fill-opacity:0%; fill-rule:evenodd; stroke:#aaaaaa; stroke-opacity:100%; stroke-width: 1.5pt; stroke-linejoin:round; stroke-linecap:round;" d="M81.53 36.14c0.13 0.93-0.03 1.81-0.48 2.62c-1.42 3.58-3.72 7.5-7.55 12.23"></path>
<path style="fill:none; fill-opacity:0%; fill-rule:evenodd; stroke:#aaaaaa; stroke-opacity:100%; stroke-width: 1.5pt; stroke-linejoin:round; stroke-linecap:round;" d="M41.88 58.86c2.72 0.65 5.24 0.5 7.97 0.17c9.96-1.2 22.78-2.41 34.79-3.33c2.35-0.18 5.24-0.33 7.37 0.05"></path>
<path style="fill:none; fill-opacity:0%; fill-rule:evenodd; stroke:#aaaaaa; stroke-opacity:100%; stroke-width: 1.5pt; stroke-linejoin:round; stroke-linecap:round;" d="M62.83 13.5c0.96 0.96 1.17 2.38 1.17 4.33C63.99 62.75 65.25 76 38.75 95"></path>
<path style="fill:none; fill-opacity:0%; fill-rule:evenodd; stroke:#aaaaaa; stroke-opacity:100%; stroke-width: 1.5pt; stroke-linejoin:round; stroke-linecap:round;" d="M63.5 60c5.18 5.69 14.4 17.72 21.89 25.48c4.23 4.39 6.73 6.27 9.36 7.77"></path>

<path style="fill:none; fill-opacity:0%; fill-rule:evenodd; stroke:#000000; stroke-opacity:100%; stroke-width: 3pt; stroke-linejoin:round; stroke-linecap:round;" d="M15 39.42c1.84 0.22 3.48 0.49 5.38 0.26c4.62-0.57 10.92-1.65 18.39-3.28c0.93-0.2 1.98-0.14 2.9-0.14"></path>
<path style="fill:none; fill-opacity:0%; fill-rule:evenodd; stroke:#000000; stroke-opacity:100%; stroke-width: 3pt; stroke-linejoin:round; stroke-linecap:round;" d="M31.52 15.75c0.87 0.87 1.51 2.38 1.51 4.77c0 15.23-0.01 53.71-0.01 65.15c0 14.25-6.32 3.53-7.77 2"></path>
<path style="fill:none; fill-opacity:0%; fill-rule:evenodd; stroke:#000000; stroke-opacity:100%; stroke-width: 3pt; stroke-linejoin:round; stroke-linecap:round;" d="M13.25 67.68c1.5 1.32 2.93 1.55 4.8 0.19c5.83-4.24 11.2-8.12 22.7-16.95"></path>
<text x="5" y="20" font-size="20" fill="#999999">4</text><path style="fill:none; fill-opacity:0%; fill-rule:evenodd; stroke:#CC0000; stroke-opacity:100%; stroke-width: 3pt; stroke-linejoin:round; stroke-linecap:round;" d="M46 30.89c2.17 0.88 5.38 0.42 7.62 0.07c6.64-1.03 17.52-2.55 24.02-3c2.41-0.17 4.72-0.53 7.11 0.05"  ></path>






</g><g transform="scale(1.3761467889908 1.3761467889908) translate(436, 0)">
<path style="fill:none; fill-rule:evenodd; stroke:#aaaaaa;  stroke-width:1pt; stroke-linecap:round;" d="m 109 0 L 0 0 L 0 109 L 109 109 L 109 0"></path><path style="fill:none; fill-opacity:0%; fill-rule:evenodd; stroke:#aaaaaa; stroke-opacity:100%; stroke-width: 1.5pt; stroke-linejoin:round; stroke-linecap:round;" d="M15 39.42c1.84 0.22 3.48 0.49 5.38 0.26c4.62-0.57 10.92-1.65 18.39-3.28c0.93-0.2 1.98-0.14 2.9-0.14"></path>
<path style="fill:none; fill-opacity:0%; fill-rule:evenodd; stroke:#aaaaaa; stroke-opacity:100%; stroke-width: 1.5pt; stroke-linejoin:round; stroke-linecap:round;" d="M31.52 15.75c0.87 0.87 1.51 2.38 1.51 4.77c0 15.23-0.01 53.71-0.01 65.15c0 14.25-6.32 3.53-7.77 2"></path>
<path style="fill:none; fill-opacity:0%; fill-rule:evenodd; stroke:#aaaaaa; stroke-opacity:100%; stroke-width: 1.5pt; stroke-linejoin:round; stroke-linecap:round;" d="M13.25 67.68c1.5 1.32 2.93 1.55 4.8 0.19c5.83-4.24 11.2-8.12 22.7-16.95"></path>
<path style="fill:none; fill-opacity:0%; fill-rule:evenodd; stroke:#aaaaaa; stroke-opacity:100%; stroke-width: 1.5pt; stroke-linejoin:round; stroke-linecap:round;" d="M46 30.89c2.17 0.88 5.38 0.42 7.62 0.07c6.64-1.03 17.52-2.55 24.02-3c2.41-0.17 4.72-0.53 7.11 0.05"></path>
<path style="fill:none; fill-opacity:0%; fill-rule:evenodd; stroke:#aaaaaa; stroke-opacity:100%; stroke-width: 1.5pt; stroke-linejoin:round; stroke-linecap:round;" d="M46.88 40.62c2.15 2.07 5.56 8.51 6.1 11.73"></path>
<path style="fill:none; fill-opacity:0%; fill-rule:evenodd; stroke:#aaaaaa; stroke-opacity:100%; stroke-width: 1.5pt; stroke-linejoin:round; stroke-linecap:round;" d="M81.53 36.14c0.13 0.93-0.03 1.81-0.48 2.62c-1.42 3.58-3.72 7.5-7.55 12.23"></path>
<path style="fill:none; fill-opacity:0%; fill-rule:evenodd; stroke:#aaaaaa; stroke-opacity:100%; stroke-width: 1.5pt; stroke-linejoin:round; stroke-linecap:round;" d="M41.88 58.86c2.72 0.65 5.24 0.5 7.97 0.17c9.96-1.2 22.78-2.41 34.79-3.33c2.35-0.18 5.24-0.33 7.37 0.05"></path>
<path style="fill:none; fill-opacity:0%; fill-rule:evenodd; stroke:#aaaaaa; stroke-opacity:100%; stroke-width: 1.5pt; stroke-linejoin:round; stroke-linecap:round;" d="M62.83 13.5c0.96 0.96 1.17 2.38 1.17 4.33C63.99 62.75 65.25 76 38.75 95"></path>
<path style="fill:none; fill-opacity:0%; fill-rule:evenodd; stroke:#aaaaaa; stroke-opacity:100%; stroke-width: 1.5pt; stroke-linejoin:round; stroke-linecap:round;" d="M63.5 60c5.18 5.69 14.4 17.72 21.89 25.48c4.23 4.39 6.73 6.27 9.36 7.77"></path>

<path style="fill:none; fill-opacity:0%; fill-rule:evenodd; stroke:#000000; stroke-opacity:100%; stroke-width: 3pt; stroke-linejoin:round; stroke-linecap:round;" d="M15 39.42c1.84 0.22 3.48 0.49 5.38 0.26c4.62-0.57 10.92-1.65 18.39-3.28c0.93-0.2 1.98-0.14 2.9-0.14"></path>
<path style="fill:none; fill-opacity:0%; fill-rule:evenodd; stroke:#000000; stroke-opacity:100%; stroke-width: 3pt; stroke-linejoin:round; stroke-linecap:round;" d="M31.52 15.75c0.87 0.87 1.51 2.38 1.51 4.77c0 15.23-0.01 53.71-0.01 65.15c0 14.25-6.32 3.53-7.77 2"></path>
<path style="fill:none; fill-opacity:0%; fill-rule:evenodd; stroke:#000000; stroke-opacity:100%; stroke-width: 3pt; stroke-linejoin:round; stroke-linecap:round;" d="M13.25 67.68c1.5 1.32 2.93 1.55 4.8 0.19c5.83-4.24 11.2-8.12 22.7-16.95"></path>
<path style="fill:none; fill-opacity:0%; fill-rule:evenodd; stroke:#000000; stroke-opacity:100%; stroke-width: 3pt; stroke-linejoin:round; stroke-linecap:round;" d="M46 30.89c2.17 0.88 5.38 0.42 7.62 0.07c6.64-1.03 17.52-2.55 24.02-3c2.41-0.17 4.72-0.53 7.11 0.05"></path>
<text x="5" y="20" font-size="20" fill="#999999">5</text><path style="fill:none; fill-opacity:0%; fill-rule:evenodd; stroke:#CC0000; stroke-opacity:100%; stroke-width: 3pt; stroke-linejoin:round; stroke-linecap:round;" d="M46.88 40.62c2.15 2.07 5.56 8.51 6.1 11.73"  ></path>





</g><g transform="scale(1.3761467889908 1.3761467889908) translate(0, 109)">
<path style="fill:none; fill-rule:evenodd; stroke:#aaaaaa;  stroke-width:1pt; stroke-linecap:round;" d="m 109 0 L 0 0 L 0 109 L 109 109 L 109 0"></path><path style="fill:none; fill-opacity:0%; fill-rule:evenodd; stroke:#aaaaaa; stroke-opacity:100%; stroke-width: 1.5pt; stroke-linejoin:round; stroke-linecap:round;" d="M15 39.42c1.84 0.22 3.48 0.49 5.38 0.26c4.62-0.57 10.92-1.65 18.39-3.28c0.93-0.2 1.98-0.14 2.9-0.14"></path>
<path style="fill:none; fill-opacity:0%; fill-rule:evenodd; stroke:#aaaaaa; stroke-opacity:100%; stroke-width: 1.5pt; stroke-linejoin:round; stroke-linecap:round;" d="M31.52 15.75c0.87 0.87 1.51 2.38 1.51 4.77c0 15.23-0.01 53.71-0.01 65.15c0 14.25-6.32 3.53-7.77 2"></path>
<path style="fill:none; fill-opacity:0%; fill-rule:evenodd; stroke:#aaaaaa; stroke-opacity:100%; stroke-width: 1.5pt; stroke-linejoin:round; stroke-linecap:round;" d="M13.25 67.68c1.5 1.32 2.93 1.55 4.8 0.19c5.83-4.24 11.2-8.12 22.7-16.95"></path>
<path style="fill:none; fill-opacity:0%; fill-rule:evenodd; stroke:#aaaaaa; stroke-opacity:100%; stroke-width: 1.5pt; stroke-linejoin:round; stroke-linecap:round;" d="M46 30.89c2.17 0.88 5.38 0.42 7.62 0.07c6.64-1.03 17.52-2.55 24.02-3c2.41-0.17 4.72-0.53 7.11 0.05"></path>
<path style="fill:none; fill-opacity:0%; fill-rule:evenodd; stroke:#aaaaaa; stroke-opacity:100%; stroke-width: 1.5pt; stroke-linejoin:round; stroke-linecap:round;" d="M46.88 40.62c2.15 2.07 5.56 8.51 6.1 11.73"></path>
<path style="fill:none; fill-opacity:0%; fill-rule:evenodd; stroke:#aaaaaa; stroke-opacity:100%; stroke-width: 1.5pt; stroke-linejoin:round; stroke-linecap:round;" d="M81.53 36.14c0.13 0.93-0.03 1.81-0.48 2.62c-1.42 3.58-3.72 7.5-7.55 12.23"></path>
<path style="fill:none; fill-opacity:0%; fill-rule:evenodd; stroke:#aaaaaa; stroke-opacity:100%; stroke-width: 1.5pt; stroke-linejoin:round; stroke-linecap:round;" d="M41.88 58.86c2.72 0.65 5.24 0.5 7.97 0.17c9.96-1.2 22.78-2.41 34.79-3.33c2.35-0.18 5.24-0.33 7.37 0.05"></path>
<path style="fill:none; fill-opacity:0%; fill-rule:evenodd; stroke:#aaaaaa; stroke-opacity:100%; stroke-width: 1.5pt; stroke-linejoin:round; stroke-linecap:round;" d="M62.83 13.5c0.96 0.96 1.17 2.38 1.17 4.33C63.99 62.75 65.25 76 38.75 95"></path>
<path style="fill:none; fill-opacity:0%; fill-rule:evenodd; stroke:#aaaaaa; stroke-opacity:100%; stroke-width: 1.5pt; stroke-linejoin:round; stroke-linecap:round;" d="M63.5 60c5.18 5.69 14.4 17.72 21.89 25.48c4.23 4.39 6.73 6.27 9.36 7.77"></path>

<path style="fill:none; fill-opacity:0%; fill-rule:evenodd; stroke:#000000; stroke-opacity:100%; stroke-width: 3pt; stroke-linejoin:round; stroke-linecap:round;" d="M15 39.42c1.84 0.22 3.48 0.49 5.38 0.26c4.62-0.57 10.92-1.65 18.39-3.28c0.93-0.2 1.98-0.14 2.9-0.14"></path>
<path style="fill:none; fill-opacity:0%; fill-rule:evenodd; stroke:#000000; stroke-opacity:100%; stroke-width: 3pt; stroke-linejoin:round; stroke-linecap:round;" d="M31.52 15.75c0.87 0.87 1.51 2.38 1.51 4.77c0 15.23-0.01 53.71-0.01 65.15c0 14.25-6.32 3.53-7.77 2"></path>
<path style="fill:none; fill-opacity:0%; fill-rule:evenodd; stroke:#000000; stroke-opacity:100%; stroke-width: 3pt; stroke-linejoin:round; stroke-linecap:round;" d="M13.25 67.68c1.5 1.32 2.93 1.55 4.8 0.19c5.83-4.24 11.2-8.12 22.7-16.95"></path>
<path style="fill:none; fill-opacity:0%; fill-rule:evenodd; stroke:#000000; stroke-opacity:100%; stroke-width: 3pt; stroke-linejoin:round; stroke-linecap:round;" d="M46 30.89c2.17 0.88 5.38 0.42 7.62 0.07c6.64-1.03 17.52-2.55 24.02-3c2.41-0.17 4.72-0.53 7.11 0.05"></path>
<path style="fill:none; fill-opacity:0%; fill-rule:evenodd; stroke:#000000; stroke-opacity:100%; stroke-width: 3pt; stroke-linejoin:round; stroke-linecap:round;" d="M46.88 40.62c2.15 2.07 5.56 8.51 6.1 11.73"></path>
<text x="5" y="20" font-size="20" fill="#999999">6</text><path style="fill:none; fill-opacity:0%; fill-rule:evenodd; stroke:#CC0000; stroke-opacity:100%; stroke-width: 3pt; stroke-linejoin:round; stroke-linecap:round;" d="M81.53 36.14c0.13 0.93-0.03 1.81-0.48 2.62c-1.42 3.58-3.72 7.5-7.55 12.23"  ></path>




</g><g transform="scale(1.3761467889908 1.3761467889908) translate(109, 109)">
<path style="fill:none; fill-rule:evenodd; stroke:#aaaaaa;  stroke-width:1pt; stroke-linecap:round;" d="m 109 0 L 0 0 L 0 109 L 109 109 L 109 0"></path><path style="fill:none; fill-opacity:0%; fill-rule:evenodd; stroke:#aaaaaa; stroke-opacity:100%; stroke-width: 1.5pt; stroke-linejoin:round; stroke-linecap:round;" d="M15 39.42c1.84 0.22 3.48 0.49 5.38 0.26c4.62-0.57 10.92-1.65 18.39-3.28c0.93-0.2 1.98-0.14 2.9-0.14"></path>
<path style="fill:none; fill-opacity:0%; fill-rule:evenodd; stroke:#aaaaaa; stroke-opacity:100%; stroke-width: 1.5pt; stroke-linejoin:round; stroke-linecap:round;" d="M31.52 15.75c0.87 0.87 1.51 2.38 1.51 4.77c0 15.23-0.01 53.71-0.01 65.15c0 14.25-6.32 3.53-7.77 2"></path>
<path style="fill:none; fill-opacity:0%; fill-rule:evenodd; stroke:#aaaaaa; stroke-opacity:100%; stroke-width: 1.5pt; stroke-linejoin:round; stroke-linecap:round;" d="M13.25 67.68c1.5 1.32 2.93 1.55 4.8 0.19c5.83-4.24 11.2-8.12 22.7-16.95"></path>
<path style="fill:none; fill-opacity:0%; fill-rule:evenodd; stroke:#aaaaaa; stroke-opacity:100%; stroke-width: 1.5pt; stroke-linejoin:round; stroke-linecap:round;" d="M46 30.89c2.17 0.88 5.38 0.42 7.62 0.07c6.64-1.03 17.52-2.55 24.02-3c2.41-0.17 4.72-0.53 7.11 0.05"></path>
<path style="fill:none; fill-opacity:0%; fill-rule:evenodd; stroke:#aaaaaa; stroke-opacity:100%; stroke-width: 1.5pt; stroke-linejoin:round; stroke-linecap:round;" d="M46.88 40.62c2.15 2.07 5.56 8.51 6.1 11.73"></path>
<path style="fill:none; fill-opacity:0%; fill-rule:evenodd; stroke:#aaaaaa; stroke-opacity:100%; stroke-width: 1.5pt; stroke-linejoin:round; stroke-linecap:round;" d="M81.53 36.14c0.13 0.93-0.03 1.81-0.48 2.62c-1.42 3.58-3.72 7.5-7.55 12.23"></path>
<path style="fill:none; fill-opacity:0%; fill-rule:evenodd; stroke:#aaaaaa; stroke-opacity:100%; stroke-width: 1.5pt; stroke-linejoin:round; stroke-linecap:round;" d="M41.88 58.86c2.72 0.65 5.24 0.5 7.97 0.17c9.96-1.2 22.78-2.41 34.79-3.33c2.35-0.18 5.24-0.33 7.37 0.05"></path>
<path style="fill:none; fill-opacity:0%; fill-rule:evenodd; stroke:#aaaaaa; stroke-opacity:100%; stroke-width: 1.5pt; stroke-linejoin:round; stroke-linecap:round;" d="M62.83 13.5c0.96 0.96 1.17 2.38 1.17 4.33C63.99 62.75 65.25 76 38.75 95"></path>
<path style="fill:none; fill-opacity:0%; fill-rule:evenodd; stroke:#aaaaaa; stroke-opacity:100%; stroke-width: 1.5pt; stroke-linejoin:round; stroke-linecap:round;" d="M63.5 60c5.18 5.69 14.4 17.72 21.89 25.48c4.23 4.39 6.73 6.27 9.36 7.77"></path>

<path style="fill:none; fill-opacity:0%; fill-rule:evenodd; stroke:#000000; stroke-opacity:100%; stroke-width: 3pt; stroke-linejoin:round; stroke-linecap:round;" d="M15 39.42c1.84 0.22 3.48 0.49 5.38 0.26c4.62-0.57 10.92-1.65 18.39-3.28c0.93-0.2 1.98-0.14 2.9-0.14"></path>
<path style="fill:none; fill-opacity:0%; fill-rule:evenodd; stroke:#000000; stroke-opacity:100%; stroke-width: 3pt; stroke-linejoin:round; stroke-linecap:round;" d="M31.52 15.75c0.87 0.87 1.51 2.38 1.51 4.77c0 15.23-0.01 53.71-0.01 65.15c0 14.25-6.32 3.53-7.77 2"></path>
<path style="fill:none; fill-opacity:0%; fill-rule:evenodd; stroke:#000000; stroke-opacity:100%; stroke-width: 3pt; stroke-linejoin:round; stroke-linecap:round;" d="M13.25 67.68c1.5 1.32 2.93 1.55 4.8 0.19c5.83-4.24 11.2-8.12 22.7-16.95"></path>
<path style="fill:none; fill-opacity:0%; fill-rule:evenodd; stroke:#000000; stroke-opacity:100%; stroke-width: 3pt; stroke-linejoin:round; stroke-linecap:round;" d="M46 30.89c2.17 0.88 5.38 0.42 7.62 0.07c6.64-1.03 17.52-2.55 24.02-3c2.41-0.17 4.72-0.53 7.11 0.05"></path>
<path style="fill:none; fill-opacity:0%; fill-rule:evenodd; stroke:#000000; stroke-opacity:100%; stroke-width: 3pt; stroke-linejoin:round; stroke-linecap:round;" d="M46.88 40.62c2.15 2.07 5.56 8.51 6.1 11.73"></path>
<path style="fill:none; fill-opacity:0%; fill-rule:evenodd; stroke:#000000; stroke-opacity:100%; stroke-width: 3pt; stroke-linejoin:round; stroke-linecap:round;" d="M81.53 36.14c0.13 0.93-0.03 1.81-0.48 2.62c-1.42 3.58-3.72 7.5-7.55 12.23"></path>
<text x="5" y="20" font-size="20" fill="#999999">7</text><path style="fill:none; fill-opacity:0%; fill-rule:evenodd; stroke:#CC0000; stroke-opacity:100%; stroke-width: 3pt; stroke-linejoin:round; stroke-linecap:round;" d="M41.88 58.86c2.72 0.65 5.24 0.5 7.97 0.17c9.96-1.2 22.78-2.41 34.79-3.33c2.35-0.18 5.24-0.33 7.37 0.05"  ></path>



</g><g transform="scale(1.3761467889908 1.3761467889908) translate(218, 109)">
<path style="fill:none; fill-rule:evenodd; stroke:#aaaaaa;  stroke-width:1pt; stroke-linecap:round;" d="m 109 0 L 0 0 L 0 109 L 109 109 L 109 0"></path><path style="fill:none; fill-opacity:0%; fill-rule:evenodd; stroke:#aaaaaa; stroke-opacity:100%; stroke-width: 1.5pt; stroke-linejoin:round; stroke-linecap:round;" d="M15 39.42c1.84 0.22 3.48 0.49 5.38 0.26c4.62-0.57 10.92-1.65 18.39-3.28c0.93-0.2 1.98-0.14 2.9-0.14"></path>
<path style="fill:none; fill-opacity:0%; fill-rule:evenodd; stroke:#aaaaaa; stroke-opacity:100%; stroke-width: 1.5pt; stroke-linejoin:round; stroke-linecap:round;" d="M31.52 15.75c0.87 0.87 1.51 2.38 1.51 4.77c0 15.23-0.01 53.71-0.01 65.15c0 14.25-6.32 3.53-7.77 2"></path>
<path style="fill:none; fill-opacity:0%; fill-rule:evenodd; stroke:#aaaaaa; stroke-opacity:100%; stroke-width: 1.5pt; stroke-linejoin:round; stroke-linecap:round;" d="M13.25 67.68c1.5 1.32 2.93 1.55 4.8 0.19c5.83-4.24 11.2-8.12 22.7-16.95"></path>
<path style="fill:none; fill-opacity:0%; fill-rule:evenodd; stroke:#aaaaaa; stroke-opacity:100%; stroke-width: 1.5pt; stroke-linejoin:round; stroke-linecap:round;" d="M46 30.89c2.17 0.88 5.38 0.42 7.62 0.07c6.64-1.03 17.52-2.55 24.02-3c2.41-0.17 4.72-0.53 7.11 0.05"></path>
<path style="fill:none; fill-opacity:0%; fill-rule:evenodd; stroke:#aaaaaa; stroke-opacity:100%; stroke-width: 1.5pt; stroke-linejoin:round; stroke-linecap:round;" d="M46.88 40.62c2.15 2.07 5.56 8.51 6.1 11.73"></path>
<path style="fill:none; fill-opacity:0%; fill-rule:evenodd; stroke:#aaaaaa; stroke-opacity:100%; stroke-width: 1.5pt; stroke-linejoin:round; stroke-linecap:round;" d="M81.53 36.14c0.13 0.93-0.03 1.81-0.48 2.62c-1.42 3.58-3.72 7.5-7.55 12.23"></path>
<path style="fill:none; fill-opacity:0%; fill-rule:evenodd; stroke:#aaaaaa; stroke-opacity:100%; stroke-width: 1.5pt; stroke-linejoin:round; stroke-linecap:round;" d="M41.88 58.86c2.72 0.65 5.24 0.5 7.97 0.17c9.96-1.2 22.78-2.41 34.79-3.33c2.35-0.18 5.24-0.33 7.37 0.05"></path>
<path style="fill:none; fill-opacity:0%; fill-rule:evenodd; stroke:#aaaaaa; stroke-opacity:100%; stroke-width: 1.5pt; stroke-linejoin:round; stroke-linecap:round;" d="M62.83 13.5c0.96 0.96 1.17 2.38 1.17 4.33C63.99 62.75 65.25 76 38.75 95"></path>
<path style="fill:none; fill-opacity:0%; fill-rule:evenodd; stroke:#aaaaaa; stroke-opacity:100%; stroke-width: 1.5pt; stroke-linejoin:round; stroke-linecap:round;" d="M63.5 60c5.18 5.69 14.4 17.72 21.89 25.48c4.23 4.39 6.73 6.27 9.36 7.77"></path>

<path style="fill:none; fill-opacity:0%; fill-rule:evenodd; stroke:#000000; stroke-opacity:100%; stroke-width: 3pt; stroke-linejoin:round; stroke-linecap:round;" d="M15 39.42c1.84 0.22 3.48 0.49 5.38 0.26c4.62-0.57 10.92-1.65 18.39-3.28c0.93-0.2 1.98-0.14 2.9-0.14"></path>
<path style="fill:none; fill-opacity:0%; fill-rule:evenodd; stroke:#000000; stroke-opacity:100%; stroke-width: 3pt; stroke-linejoin:round; stroke-linecap:round;" d="M31.52 15.75c0.87 0.87 1.51 2.38 1.51 4.77c0 15.23-0.01 53.71-0.01 65.15c0 14.25-6.32 3.53-7.77 2"></path>
<path style="fill:none; fill-opacity:0%; fill-rule:evenodd; stroke:#000000; stroke-opacity:100%; stroke-width: 3pt; stroke-linejoin:round; stroke-linecap:round;" d="M13.25 67.68c1.5 1.32 2.93 1.55 4.8 0.19c5.83-4.24 11.2-8.12 22.7-16.95"></path>
<path style="fill:none; fill-opacity:0%; fill-rule:evenodd; stroke:#000000; stroke-opacity:100%; stroke-width: 3pt; stroke-linejoin:round; stroke-linecap:round;" d="M46 30.89c2.17 0.88 5.38 0.42 7.62 0.07c6.64-1.03 17.52-2.55 24.02-3c2.41-0.17 4.72-0.53 7.11 0.05"></path>
<path style="fill:none; fill-opacity:0%; fill-rule:evenodd; stroke:#000000; stroke-opacity:100%; stroke-width: 3pt; stroke-linejoin:round; stroke-linecap:round;" d="M46.88 40.62c2.15 2.07 5.56 8.51 6.1 11.73"></path>
<path style="fill:none; fill-opacity:0%; fill-rule:evenodd; stroke:#000000; stroke-opacity:100%; stroke-width: 3pt; stroke-linejoin:round; stroke-linecap:round;" d="M81.53 36.14c0.13 0.93-0.03 1.81-0.48 2.62c-1.42 3.58-3.72 7.5-7.55 12.23"></path>
<path style="fill:none; fill-opacity:0%; fill-rule:evenodd; stroke:#000000; stroke-opacity:100%; stroke-width: 3pt; stroke-linejoin:round; stroke-linecap:round;" d="M41.88 58.86c2.72 0.65 5.24 0.5 7.97 0.17c9.96-1.2 22.78-2.41 34.79-3.33c2.35-0.18 5.24-0.33 7.37 0.05"></path>
<text x="5" y="20" font-size="20" fill="#999999">8</text><path style="fill:none; fill-opacity:0%; fill-rule:evenodd; stroke:#CC0000; stroke-opacity:100%; stroke-width: 3pt; stroke-linejoin:round; stroke-linecap:round;" d="M62.83 13.5c0.96 0.96 1.17 2.38 1.17 4.33C63.99 62.75 65.25 76 38.75 95"  ></path>


</g><g transform="scale(1.3761467889908 1.3761467889908) translate(327, 109)">
<path style="fill:none; fill-rule:evenodd; stroke:#aaaaaa;  stroke-width:1pt; stroke-linecap:round;" d="m 109 0 L 0 0 L 0 109 L 109 109 L 109 0"></path><path style="fill:none; fill-opacity:0%; fill-rule:evenodd; stroke:#aaaaaa; stroke-opacity:100%; stroke-width: 1.5pt; stroke-linejoin:round; stroke-linecap:round;" d="M15 39.42c1.84 0.22 3.48 0.49 5.38 0.26c4.62-0.57 10.92-1.65 18.39-3.28c0.93-0.2 1.98-0.14 2.9-0.14"></path>
<path style="fill:none; fill-opacity:0%; fill-rule:evenodd; stroke:#aaaaaa; stroke-opacity:100%; stroke-width: 1.5pt; stroke-linejoin:round; stroke-linecap:round;" d="M31.52 15.75c0.87 0.87 1.51 2.38 1.51 4.77c0 15.23-0.01 53.71-0.01 65.15c0 14.25-6.32 3.53-7.77 2"></path>
<path style="fill:none; fill-opacity:0%; fill-rule:evenodd; stroke:#aaaaaa; stroke-opacity:100%; stroke-width: 1.5pt; stroke-linejoin:round; stroke-linecap:round;" d="M13.25 67.68c1.5 1.32 2.93 1.55 4.8 0.19c5.83-4.24 11.2-8.12 22.7-16.95"></path>
<path style="fill:none; fill-opacity:0%; fill-rule:evenodd; stroke:#aaaaaa; stroke-opacity:100%; stroke-width: 1.5pt; stroke-linejoin:round; stroke-linecap:round;" d="M46 30.89c2.17 0.88 5.38 0.42 7.62 0.07c6.64-1.03 17.52-2.55 24.02-3c2.41-0.17 4.72-0.53 7.11 0.05"></path>
<path style="fill:none; fill-opacity:0%; fill-rule:evenodd; stroke:#aaaaaa; stroke-opacity:100%; stroke-width: 1.5pt; stroke-linejoin:round; stroke-linecap:round;" d="M46.88 40.62c2.15 2.07 5.56 8.51 6.1 11.73"></path>
<path style="fill:none; fill-opacity:0%; fill-rule:evenodd; stroke:#aaaaaa; stroke-opacity:100%; stroke-width: 1.5pt; stroke-linejoin:round; stroke-linecap:round;" d="M81.53 36.14c0.13 0.93-0.03 1.81-0.48 2.62c-1.42 3.58-3.72 7.5-7.55 12.23"></path>
<path style="fill:none; fill-opacity:0%; fill-rule:evenodd; stroke:#aaaaaa; stroke-opacity:100%; stroke-width: 1.5pt; stroke-linejoin:round; stroke-linecap:round;" d="M41.88 58.86c2.72 0.65 5.24 0.5 7.97 0.17c9.96-1.2 22.78-2.41 34.79-3.33c2.35-0.18 5.24-0.33 7.37 0.05"></path>
<path style="fill:none; fill-opacity:0%; fill-rule:evenodd; stroke:#aaaaaa; stroke-opacity:100%; stroke-width: 1.5pt; stroke-linejoin:round; stroke-linecap:round;" d="M62.83 13.5c0.96 0.96 1.17 2.38 1.17 4.33C63.99 62.75 65.25 76 38.75 95"></path>
<path style="fill:none; fill-opacity:0%; fill-rule:evenodd; stroke:#aaaaaa; stroke-opacity:100%; stroke-width: 1.5pt; stroke-linejoin:round; stroke-linecap:round;" d="M63.5 60c5.18 5.69 14.4 17.72 21.89 25.48c4.23 4.39 6.73 6.27 9.36 7.77"></path>

<path style="fill:none; fill-opacity:0%; fill-rule:evenodd; stroke:#000000; stroke-opacity:100%; stroke-width: 3pt; stroke-linejoin:round; stroke-linecap:round;" d="M15 39.42c1.84 0.22 3.48 0.49 5.38 0.26c4.62-0.57 10.92-1.65 18.39-3.28c0.93-0.2 1.98-0.14 2.9-0.14"></path>
<path style="fill:none; fill-opacity:0%; fill-rule:evenodd; stroke:#000000; stroke-opacity:100%; stroke-width: 3pt; stroke-linejoin:round; stroke-linecap:round;" d="M31.52 15.75c0.87 0.87 1.51 2.38 1.51 4.77c0 15.23-0.01 53.71-0.01 65.15c0 14.25-6.32 3.53-7.77 2"></path>
<path style="fill:none; fill-opacity:0%; fill-rule:evenodd; stroke:#000000; stroke-opacity:100%; stroke-width: 3pt; stroke-linejoin:round; stroke-linecap:round;" d="M13.25 67.68c1.5 1.32 2.93 1.55 4.8 0.19c5.83-4.24 11.2-8.12 22.7-16.95"></path>
<path style="fill:none; fill-opacity:0%; fill-rule:evenodd; stroke:#000000; stroke-opacity:100%; stroke-width: 3pt; stroke-linejoin:round; stroke-linecap:round;" d="M46 30.89c2.17 0.88 5.38 0.42 7.62 0.07c6.64-1.03 17.52-2.55 24.02-3c2.41-0.17 4.72-0.53 7.11 0.05"></path>
<path style="fill:none; fill-opacity:0%; fill-rule:evenodd; stroke:#000000; stroke-opacity:100%; stroke-width: 3pt; stroke-linejoin:round; stroke-linecap:round;" d="M46.88 40.62c2.15 2.07 5.56 8.51 6.1 11.73"></path>
<path style="fill:none; fill-opacity:0%; fill-rule:evenodd; stroke:#000000; stroke-opacity:100%; stroke-width: 3pt; stroke-linejoin:round; stroke-linecap:round;" d="M81.53 36.14c0.13 0.93-0.03 1.81-0.48 2.62c-1.42 3.58-3.72 7.5-7.55 12.23"></path>
<path style="fill:none; fill-opacity:0%; fill-rule:evenodd; stroke:#000000; stroke-opacity:100%; stroke-width: 3pt; stroke-linejoin:round; stroke-linecap:round;" d="M41.88 58.86c2.72 0.65 5.24 0.5 7.97 0.17c9.96-1.2 22.78-2.41 34.79-3.33c2.35-0.18 5.24-0.33 7.37 0.05"></path>
<path style="fill:none; fill-opacity:0%; fill-rule:evenodd; stroke:#000000; stroke-opacity:100%; stroke-width: 3pt; stroke-linejoin:round; stroke-linecap:round;" d="M62.83 13.5c0.96 0.96 1.17 2.38 1.17 4.33C63.99 62.75 65.25 76 38.75 95"></path>
<text x="5" y="20" font-size="20" fill="#999999">9</text><path style="fill:none; fill-opacity:0%; fill-rule:evenodd; stroke:#CC0000; stroke-opacity:100%; stroke-width: 3pt; stroke-linejoin:round; stroke-linecap:round;" d="M63.5 60c5.18 5.69 14.4 17.72 21.89 25.48c4.23 4.39 6.73 6.27 9.36 7.77"  ></path>

</g>

</svg>  
          
