<?xml version="1.0" standalone="no"?>
<!DOCTYPE svg PUBLIC "-//W3C//DTD SVG 1.1//EN"   "http://www.w3.org/Graphics/SVG/1.1/DTD/svg11.dtd">
<svg width="751" height="301"  version="1.1" xmlns="http://www.w3.org/2000/svg">
  <defs>
    <marker id="Triangle" viewBox="0 0 10 10" refX="0" refY="5" markerUnits="strokeWidth" markerWidth="3" style="stroke-opacity:0%;fill:#aaaaaa;" markerHeight="2" orient="auto">
      <path d="M 0 0 L 10 5 L 0 10 z" />
    </marker>
    
    <marker id="Arrow" viewBox="0 0 10 10" refX="5" refY="5" markerUnits="strokeWidth" markerWidth="1.8" style="stroke-opacity:0%;fill:#770000;" markerHeight="2" orient="auto">
      <path d="M 0 4 L 6 4 L 4 1 L 10 5 L 4 9 L 6 6 L 0 6 z" />
        <circle cx="5" cy="5" r="5" />
      </marker>
    
    <marker id="TriangleRed" viewBox="0 0 10 10" refX="0" refY="5" markerUnits="strokeWidth" markerWidth="3" style="stroke-opacity:0%;fill:#CC0000;" markerHeight="2" orient="auto">
      <path d="M 0 0 L 10 5 L 0 10 z" />
    </marker>
    
    <marker id="ArrowRed" viewBox="0 0 10 10" refX="5" refY="5" markerUnits="strokeWidth" markerWidth="1.8" style="stroke-opacity:0%;fill:#CC0000;" markerHeight="2" orient="auto">
      <path d="M 0 4 L 6 4 L 4 1 L 10 5 L 4 9 L 6 6 L 0 6 z" />
        <circle cx="5" cy="5" r="5" />
      </marker>
    
  </defs>
  
  <path style="fill:#ffffff; fill-opacity:100%; fill-rule:evenodd; stroke-width:0;" d="M 0 0 L 751 0 L 751 301 L 0 301 L 0 0" />

  <g transform="scale(1.3761467889908 1.3761467889908) translate(0, 0)">
<path style="fill:none; fill-rule:evenodd; stroke:#aaaaaa;  stroke-width:1pt; stroke-linecap:round;" d="m 109 0 L 0 0 L 0 109 L 109 109 L 109 0"></path><path style="fill:none; fill-opacity:0%; fill-rule:evenodd; stroke:#aaaaaa; stroke-opacity:100%; stroke-width: 1.5pt; stroke-linejoin:round; stroke-linecap:round;" d="M10.5 37.18c2.2 0.23 1.34 0.51 3.69 0.23c5.79-0.7 16.33-2.32 25.98-3.4"></path>
<path style="fill:none; fill-opacity:0%; fill-rule:evenodd; stroke:#aaaaaa; stroke-opacity:100%; stroke-width: 1.5pt; stroke-linejoin:round; stroke-linecap:round;" d="M26.77 14.5c0.48 0.92 1.76 2.49 1.76 5.52c0 15.23 0.24 56.96 0.24 68.4c0 14.25-6.32 3.53-7.77 2"></path>
<path style="fill:none; fill-opacity:0%; fill-rule:evenodd; stroke:#aaaaaa; stroke-opacity:100%; stroke-width: 1.5pt; stroke-linejoin:round; stroke-linecap:round;" d="M11 65.1c0.82 0.97 2.12 1.54 3.92 0.64c1.06-0.53 19.4-11.54 23.91-14.07"></path>
<path style="fill:none; fill-opacity:0%; fill-rule:evenodd; stroke:#aaaaaa; stroke-opacity:100%; stroke-width: 1.5pt; stroke-linejoin:round; stroke-linecap:round;" d="M44.43 17.24c0.86 0.31 3.34 0.36 4.2 0.31c9.94-0.59 22.5-1.7 36.24-3.51c1.42-0.19 3.2 0.15 3.91 0.3"></path>
<path style="fill:none; fill-opacity:0%; fill-rule:evenodd; stroke:#aaaaaa; stroke-opacity:100%; stroke-width: 1.5pt; stroke-linejoin:round; stroke-linecap:round;" d="M46.7 29.85c1.05 0.39 2.64 1.09 4.7 0.81c10.72-1.46 29.26-3.79 35.97-4.49c1.82-0.19 3.65 1.3 2.96 4.17c-1.21 5.08-1.62 6.86-2.49 9.71"></path>
<path style="fill:none; fill-opacity:0%; fill-rule:evenodd; stroke:#aaaaaa; stroke-opacity:100%; stroke-width: 1.5pt; stroke-linejoin:round; stroke-linecap:round;" d="M50.11 44.43c1.19 0 30.72-3.52 40.27-3.52"></path>
<path style="fill:none; fill-opacity:0%; fill-rule:evenodd; stroke:#aaaaaa; stroke-opacity:100%; stroke-width: 1.5pt; stroke-linejoin:round; stroke-linecap:round;" d="M49.51 30.75c0.04 1.5 0.27 3.85 0.28 6.01C49.9 63.92 45.75 84 36.47 94.25"></path>
<path style="fill:none; fill-opacity:0%; fill-rule:evenodd; stroke:#aaaaaa; stroke-opacity:100%; stroke-width: 1.5pt; stroke-linejoin:round; stroke-linecap:round;" d="M51.84 61.84c0.78 0.41 2.86 0.9 4.52 0.72c11.21-1.24 24.25-3.18 34.32-3.78c1.73-0.1 3.12-0.05 4.68 0.27"></path>
<path style="fill:none; fill-opacity:0%; fill-rule:evenodd; stroke:#aaaaaa; stroke-opacity:100%; stroke-width: 1.5pt; stroke-linejoin:round; stroke-linecap:round;" d="M70.5 49.46c0.41 0.64 0.63 1.38 0.62 2.77c-0.2 23.99-10.13 36.65-26.47 44.02"></path>
<path style="fill:none; fill-opacity:0%; fill-rule:evenodd; stroke:#aaaaaa; stroke-opacity:100%; stroke-width: 1.5pt; stroke-linejoin:round; stroke-linecap:round;" d="M70.6 61.81c5.01 9.73 16.15 26.09 22.85 31.23c1.95 1.49 2.49 1.97 3.34 2.13"></path>

<text x="5" y="20" font-size="20" fill="#999999">1</text><path style="fill:none; fill-opacity:0%; fill-rule:evenodd; stroke:#CC0000; stroke-opacity:100%; stroke-width: 3pt; stroke-linejoin:round; stroke-linecap:round;" d="M10.5 37.18c2.2 0.23 1.34 0.51 3.69 0.23c5.79-0.7 16.33-2.32 25.98-3.4" marker-end="url(#TriangleRed)" marker-start="url(#ArrowRed)" ></path>










</g><g transform="scale(1.3761467889908 1.3761467889908) translate(109, 0)">
<path style="fill:none; fill-rule:evenodd; stroke:#aaaaaa;  stroke-width:1pt; stroke-linecap:round;" d="m 109 0 L 0 0 L 0 109 L 109 109 L 109 0"></path><path style="fill:none; fill-opacity:0%; fill-rule:evenodd; stroke:#aaaaaa; stroke-opacity:100%; stroke-width: 1.5pt; stroke-linejoin:round; stroke-linecap:round;" d="M10.5 37.18c2.2 0.23 1.34 0.51 3.69 0.23c5.79-0.7 16.33-2.32 25.98-3.4"></path>
<path style="fill:none; fill-opacity:0%; fill-rule:evenodd; stroke:#aaaaaa; stroke-opacity:100%; stroke-width: 1.5pt; stroke-linejoin:round; stroke-linecap:round;" d="M26.77 14.5c0.48 0.92 1.76 2.49 1.76 5.52c0 15.23 0.24 56.96 0.24 68.4c0 14.25-6.32 3.53-7.77 2"></path>
<path style="fill:none; fill-opacity:0%; fill-rule:evenodd; stroke:#aaaaaa; stroke-opacity:100%; stroke-width: 1.5pt; stroke-linejoin:round; stroke-linecap:round;" d="M11 65.1c0.82 0.97 2.12 1.54 3.92 0.64c1.06-0.53 19.4-11.54 23.91-14.07"></path>
<path style="fill:none; fill-opacity:0%; fill-rule:evenodd; stroke:#aaaaaa; stroke-opacity:100%; stroke-width: 1.5pt; stroke-linejoin:round; stroke-linecap:round;" d="M44.43 17.24c0.86 0.31 3.34 0.36 4.2 0.31c9.94-0.59 22.5-1.7 36.24-3.51c1.42-0.19 3.2 0.15 3.91 0.3"></path>
<path style="fill:none; fill-opacity:0%; fill-rule:evenodd; stroke:#aaaaaa; stroke-opacity:100%; stroke-width: 1.5pt; stroke-linejoin:round; stroke-linecap:round;" d="M46.7 29.85c1.05 0.39 2.64 1.09 4.7 0.81c10.72-1.46 29.26-3.79 35.97-4.49c1.82-0.19 3.65 1.3 2.96 4.17c-1.21 5.08-1.62 6.86-2.49 9.71"></path>
<path style="fill:none; fill-opacity:0%; fill-rule:evenodd; stroke:#aaaaaa; stroke-opacity:100%; stroke-width: 1.5pt; stroke-linejoin:round; stroke-linecap:round;" d="M50.11 44.43c1.19 0 30.72-3.52 40.27-3.52"></path>
<path style="fill:none; fill-opacity:0%; fill-rule:evenodd; stroke:#aaaaaa; stroke-opacity:100%; stroke-width: 1.5pt; stroke-linejoin:round; stroke-linecap:round;" d="M49.51 30.75c0.04 1.5 0.27 3.85 0.28 6.01C49.9 63.92 45.75 84 36.47 94.25"></path>
<path style="fill:none; fill-opacity:0%; fill-rule:evenodd; stroke:#aaaaaa; stroke-opacity:100%; stroke-width: 1.5pt; stroke-linejoin:round; stroke-linecap:round;" d="M51.84 61.84c0.78 0.41 2.86 0.9 4.52 0.72c11.21-1.24 24.25-3.18 34.32-3.78c1.73-0.1 3.12-0.05 4.68 0.27"></path>
<path style="fill:none; fill-opacity:0%; fill-rule:evenodd; stroke:#aaaaaa; stroke-opacity:100%; stroke-width: 1.5pt; stroke-linejoin:round; stroke-linecap:round;" d="M70.5 49.46c0.41 0.64 0.63 1.38 0.62 2.77c-0.2 23.99-10.13 36.65-26.47 44.02"></path>
<path style="fill:none; fill-opacity:0%; fill-rule:evenodd; stroke:#aaaaaa; stroke-opacity:100%; stroke-width: 1.5pt; stroke-linejoin:round; stroke-linecap:round;" d="M70.6 61.81c5.01 9.73 16.15 26.09 22.85 31.23c1.95 1.49 2.49 1.97 3.34 2.13"></path>

<path style="fill:none; fill-opacity:0%; fill-rule:evenodd; stroke:#000000; stroke-opacity:100%; stroke-width: 3pt; stroke-linejoin:round; stroke-linecap:round;" d="M10.5 37.18c2.2 0.23 1.34 0.51 3.69 0.23c5.79-0.7 16.33-2.32 25.98-3.4"></path>
<text x="5" y="20" font-size="20" fill="#999999">2</text><path style="fill:none; fill-opacity:0%; fill-rule:evenodd; stroke:#CC0000; stroke-opacity:100%; stroke-width: 3pt; stroke-linejoin:round; stroke-linecap:round;" d="M26.77 14.5c0.48 0.92 1.76 2.49 1.76 5.52c0 15.23 0.24 56.96 0.24 68.4c0 14.25-6.32 3.53-7.77 2" marker-end="url(#TriangleRed)" marker-start="url(#ArrowRed)" ></path>









</g><g transform="scale(1.3761467889908 1.3761467889908) translate(218, 0)">
<path style="fill:none; fill-rule:evenodd; stroke:#aaaaaa;  stroke-width:1pt; stroke-linecap:round;" d="m 109 0 L 0 0 L 0 109 L 109 109 L 109 0"></path><path style="fill:none; fill-opacity:0%; fill-rule:evenodd; stroke:#aaaaaa; stroke-opacity:100%; stroke-width: 1.5pt; stroke-linejoin:round; stroke-linecap:round;" d="M10.5 37.18c2.2 0.23 1.34 0.51 3.69 0.23c5.79-0.7 16.33-2.32 25.98-3.4"></path>
<path style="fill:none; fill-opacity:0%; fill-rule:evenodd; stroke:#aaaaaa; stroke-opacity:100%; stroke-width: 1.5pt; stroke-linejoin:round; stroke-linecap:round;" d="M26.77 14.5c0.48 0.92 1.76 2.49 1.76 5.52c0 15.23 0.24 56.96 0.24 68.4c0 14.25-6.32 3.53-7.77 2"></path>
<path style="fill:none; fill-opacity:0%; fill-rule:evenodd; stroke:#aaaaaa; stroke-opacity:100%; stroke-width: 1.5pt; stroke-linejoin:round; stroke-linecap:round;" d="M11 65.1c0.82 0.97 2.12 1.54 3.92 0.64c1.06-0.53 19.4-11.54 23.91-14.07"></path>
<path style="fill:none; fill-opacity:0%; fill-rule:evenodd; stroke:#aaaaaa; stroke-opacity:100%; stroke-width: 1.5pt; stroke-linejoin:round; stroke-linecap:round;" d="M44.43 17.24c0.86 0.31 3.34 0.36 4.2 0.31c9.94-0.59 22.5-1.7 36.24-3.51c1.42-0.19 3.2 0.15 3.91 0.3"></path>
<path style="fill:none; fill-opacity:0%; fill-rule:evenodd; stroke:#aaaaaa; stroke-opacity:100%; stroke-width: 1.5pt; stroke-linejoin:round; stroke-linecap:round;" d="M46.7 29.85c1.05 0.39 2.64 1.09 4.7 0.81c10.72-1.46 29.26-3.79 35.97-4.49c1.82-0.19 3.65 1.3 2.96 4.17c-1.21 5.08-1.62 6.86-2.49 9.71"></path>
<path style="fill:none; fill-opacity:0%; fill-rule:evenodd; stroke:#aaaaaa; stroke-opacity:100%; stroke-width: 1.5pt; stroke-linejoin:round; stroke-linecap:round;" d="M50.11 44.43c1.19 0 30.72-3.52 40.27-3.52"></path>
<path style="fill:none; fill-opacity:0%; fill-rule:evenodd; stroke:#aaaaaa; stroke-opacity:100%; stroke-width: 1.5pt; stroke-linejoin:round; stroke-linecap:round;" d="M49.51 30.75c0.04 1.5 0.27 3.85 0.28 6.01C49.9 63.92 45.75 84 36.47 94.25"></path>
<path style="fill:none; fill-opacity:0%; fill-rule:evenodd; stroke:#aaaaaa; stroke-opacity:100%; stroke-width: 1.5pt; stroke-linejoin:round; stroke-linecap:round;" d="M51.84 61.84c0.78 0.41 2.86 0.9 4.52 0.72c11.21-1.24 24.25-3.18 34.32-3.78c1.73-0.1 3.12-0.05 4.68 0.27"></path>
<path style="fill:none; fill-opacity:0%; fill-rule:evenodd; stroke:#aaaaaa; stroke-opacity:100%; stroke-width: 1.5pt; stroke-linejoin:round; stroke-linecap:round;" d="M70.5 49.46c0.41 0.64 0.63 1.38 0.62 2.77c-0.2 23.99-10.13 36.65-26.47 44.02"></path>
<path style="fill:none; fill-opacity:0%; fill-rule:evenodd; stroke:#aaaaaa; stroke-opacity:100%; stroke-width: 1.5pt; stroke-linejoin:round; stroke-linecap:round;" d="M70.6 61.81c5.01 9.73 16.15 26.09 22.85 31.23c1.95 1.49 2.49 1.97 3.34 2.13"></path>

<path style="fill:none; fill-opacity:0%; fill-rule:evenodd; stroke:#000000; stroke-opacity:100%; stroke-width: 3pt; stroke-linejoin:round; stroke-linecap:round;" d="M10.5 37.18c2.2 0.23 1.34 0.51 3.69 0.23c5.79-0.7 16.33-2.32 25.98-3.4"></path>
<path style="fill:none; fill-opacity:0%; fill-rule:evenodd; stroke:#000000; stroke-opacity:100%; stroke-width: 3pt; stroke-linejoin:round; stroke-linecap:round;" d="M26.77 14.5c0.48 0.92 1.76 2.49 1.76 5.52c0 15.23 0.24 56.96 0.24 68.4c0 14.25-6.32 3.53-7.77 2"></path>
<text x="5" y="20" font-size="20" fill="#999999">3</text><path style="fill:none; fill-opacity:0%; fill-rule:evenodd; stroke:#CC0000; stroke-opacity:100%; stroke-width: 3pt; stroke-linejoin:round; stroke-linecap:round;" d="M11 65.1c0.82 0.97 2.12 1.54 3.92 0.64c1.06-0.53 19.4-11.54 23.91-14.07" marker-end="url(#TriangleRed)" marker-start="url(#ArrowRed)" ></path>








</g><g transform="scale(1.3761467889908 1.3761467889908) translate(327, 0)">
<path style="fill:none; fill-rule:evenodd; stroke:#aaaaaa;  stroke-width:1pt; stroke-linecap:round;" d="m 109 0 L 0 0 L 0 109 L 109 109 L 109 0"></path><path style="fill:none; fill-opacity:0%; fill-rule:evenodd; stroke:#aaaaaa; stroke-opacity:100%; stroke-width: 1.5pt; stroke-linejoin:round; stroke-linecap:round;" d="M10.5 37.18c2.2 0.23 1.34 0.51 3.69 0.23c5.79-0.7 16.33-2.32 25.98-3.4"></path>
<path style="fill:none; fill-opacity:0%; fill-rule:evenodd; stroke:#aaaaaa; stroke-opacity:100%; stroke-width: 1.5pt; stroke-linejoin:round; stroke-linecap:round;" d="M26.77 14.5c0.48 0.92 1.76 2.49 1.76 5.52c0 15.23 0.24 56.96 0.24 68.4c0 14.25-6.32 3.53-7.77 2"></path>
<path style="fill:none; fill-opacity:0%; fill-rule:evenodd; stroke:#aaaaaa; stroke-opacity:100%; stroke-width: 1.5pt; stroke-linejoin:round; stroke-linecap:round;" d="M11 65.1c0.82 0.97 2.12 1.54 3.92 0.64c1.06-0.53 19.4-11.54 23.91-14.07"></path>
<path style="fill:none; fill-opacity:0%; fill-rule:evenodd; stroke:#aaaaaa; stroke-opacity:100%; stroke-width: 1.5pt; stroke-linejoin:round; stroke-linecap:round;" d="M44.43 17.24c0.86 0.31 3.34 0.36 4.2 0.31c9.94-0.59 22.5-1.7 36.24-3.51c1.42-0.19 3.2 0.15 3.91 0.3"></path>
<path style="fill:none; fill-opacity:0%; fill-rule:evenodd; stroke:#aaaaaa; stroke-opacity:100%; stroke-width: 1.5pt; stroke-linejoin:round; stroke-linecap:round;" d="M46.7 29.85c1.05 0.39 2.64 1.09 4.7 0.81c10.72-1.46 29.26-3.79 35.97-4.49c1.82-0.19 3.65 1.3 2.96 4.17c-1.21 5.08-1.62 6.86-2.49 9.71"></path>
<path style="fill:none; fill-opacity:0%; fill-rule:evenodd; stroke:#aaaaaa; stroke-opacity:100%; stroke-width: 1.5pt; stroke-linejoin:round; stroke-linecap:round;" d="M50.11 44.43c1.19 0 30.72-3.52 40.27-3.52"></path>
<path style="fill:none; fill-opacity:0%; fill-rule:evenodd; stroke:#aaaaaa; stroke-opacity:100%; stroke-width: 1.5pt; stroke-linejoin:round; stroke-linecap:round;" d="M49.51 30.75c0.04 1.5 0.27 3.85 0.28 6.01C49.9 63.92 45.75 84 36.47 94.25"></path>
<path style="fill:none; fill-opacity:0%; fill-rule:evenodd; stroke:#aaaaaa; stroke-opacity:100%; stroke-width: 1.5pt; stroke-linejoin:round; stroke-linecap:round;" d="M51.84 61.84c0.78 0.41 2.86 0.9 4.52 0.72c11.21-1.24 24.25-3.18 34.32-3.78c1.73-0.1 3.12-0.05 4.68 0.27"></path>
<path style="fill:none; fill-opacity:0%; fill-rule:evenodd; stroke:#aaaaaa; stroke-opacity:100%; stroke-width: 1.5pt; stroke-linejoin:round; stroke-linecap:round;" d="M70.5 49.46c0.41 0.64 0.63 1.38 0.62 2.77c-0.2 23.99-10.13 36.65-26.47 44.02"></path>
<path style="fill:none; fill-opacity:0%; fill-rule:evenodd; stroke:#aaaaaa; stroke-opacity:100%; stroke-width: 1.5pt; stroke-linejoin:round; stroke-linecap:round;" d="M70.6 61.81c5.01 9.73 16.15 26.09 22.85 31.23c1.95 1.49 2.49 1.97 3.34 2.13"></path>

<path style="fill:none; fill-opacity:0%; fill-rule:evenodd; stroke:#000000; stroke-opacity:100%; stroke-width: 3pt; stroke-linejoin:round; stroke-linecap:round;" d="M10.5 37.18c2.2 0.23 1.34 0.51 3.69 0.23c5.79-0.7 16.33-2.32 25.98-3.4"></path>
<path style="fill:none; fill-opacity:0%; fill-rule:evenodd; stroke:#000000; stroke-opacity:100%; stroke-width: 3pt; stroke-linejoin:round; stroke-linecap:round;" d="M26.77 14.5c0.48 0.92 1.76 2.49 1.76 5.52c0 15.23 0.24 56.96 0.24 68.4c0 14.25-6.32 3.53-7.77 2"></path>
<path style="fill:none; fill-opacity:0%; fill-rule:evenodd; stroke:#000000; stroke-opacity:100%; stroke-width: 3pt; stroke-linejoin:round; stroke-linecap:round;" d="M11 65.1c0.82 0.97 2.12 1.54 3.92 0.64c1.06-0.53 19.4-11.54 23.91-14.07"></path>
<text x="5" y="20" font-size="20" fill="#999999">4</text><path style="fill:none; fill-opacity:0%; fill-rule:evenodd; stroke:#CC0000; stroke-opacity:100%; stroke-width: 3pt; stroke-linejoin:round; stroke-linecap:round;" d="M44.43 17.24c0.86 0.31 3.34 0.36 4.2 0.31c9.94-0.59 22.5-1.7 36.24-3.51c1.42-0.19 3.2 0.15 3.91 0.3" marker-end="url(#TriangleRed)" marker-start="url(#ArrowRed)" ></path>







</g><g transform="scale(1.3761467889908 1.3761467889908) translate(436, 0)">
<path style="fill:none; fill-rule:evenodd; stroke:#aaaaaa;  stroke-width:1pt; stroke-linecap:round;" d="m 109 0 L 0 0 L 0 109 L 109 109 L 109 0"></path><path style="fill:none; fill-opacity:0%; fill-rule:evenodd; stroke:#aaaaaa; stroke-opacity:100%; stroke-width: 1.5pt; stroke-linejoin:round; stroke-linecap:round;" d="M10.5 37.18c2.2 0.23 1.34 0.51 3.69 0.23c5.79-0.7 16.33-2.32 25.98-3.4"></path>
<path style="fill:none; fill-opacity:0%; fill-rule:evenodd; stroke:#aaaaaa; stroke-opacity:100%; stroke-width: 1.5pt; stroke-linejoin:round; stroke-linecap:round;" d="M26.77 14.5c0.48 0.92 1.76 2.49 1.76 5.52c0 15.23 0.24 56.96 0.24 68.4c0 14.25-6.32 3.53-7.77 2"></path>
<path style="fill:none; fill-opacity:0%; fill-rule:evenodd; stroke:#aaaaaa; stroke-opacity:100%; stroke-width: 1.5pt; stroke-linejoin:round; stroke-linecap:round;" d="M11 65.1c0.82 0.97 2.12 1.54 3.92 0.64c1.06-0.53 19.4-11.54 23.91-14.07"></path>
<path style="fill:none; fill-opacity:0%; fill-rule:evenodd; stroke:#aaaaaa; stroke-opacity:100%; stroke-width: 1.5pt; stroke-linejoin:round; stroke-linecap:round;" d="M44.43 17.24c0.86 0.31 3.34 0.36 4.2 0.31c9.94-0.59 22.5-1.7 36.24-3.51c1.42-0.19 3.2 0.15 3.91 0.3"></path>
<path style="fill:none; fill-opacity:0%; fill-rule:evenodd; stroke:#aaaaaa; stroke-opacity:100%; stroke-width: 1.5pt; stroke-linejoin:round; stroke-linecap:round;" d="M46.7 29.85c1.05 0.39 2.64 1.09 4.7 0.81c10.72-1.46 29.26-3.79 35.97-4.49c1.82-0.19 3.65 1.3 2.96 4.17c-1.21 5.08-1.62 6.86-2.49 9.71"></path>
<path style="fill:none; fill-opacity:0%; fill-rule:evenodd; stroke:#aaaaaa; stroke-opacity:100%; stroke-width: 1.5pt; stroke-linejoin:round; stroke-linecap:round;" d="M50.11 44.43c1.19 0 30.72-3.52 40.27-3.52"></path>
<path style="fill:none; fill-opacity:0%; fill-rule:evenodd; stroke:#aaaaaa; stroke-opacity:100%; stroke-width: 1.5pt; stroke-linejoin:round; stroke-linecap:round;" d="M49.51 30.75c0.04 1.5 0.27 3.85 0.28 6.01C49.9 63.92 45.75 84 36.47 94.25"></path>
<path style="fill:none; fill-opacity:0%; fill-rule:evenodd; stroke:#aaaaaa; stroke-opacity:100%; stroke-width: 1.5pt; stroke-linejoin:round; stroke-linecap:round;" d="M51.84 61.84c0.78 0.41 2.86 0.9 4.52 0.72c11.21-1.24 24.25-3.18 34.32-3.78c1.73-0.1 3.12-0.05 4.68 0.27"></path>
<path style="fill:none; fill-opacity:0%; fill-rule:evenodd; stroke:#aaaaaa; stroke-opacity:100%; stroke-width: 1.5pt; stroke-linejoin:round; stroke-linecap:round;" d="M70.5 49.46c0.41 0.64 0.63 1.38 0.62 2.77c-0.2 23.99-10.13 36.65-26.47 44.02"></path>
<path style="fill:none; fill-opacity:0%; fill-rule:evenodd; stroke:#aaaaaa; stroke-opacity:100%; stroke-width: 1.5pt; stroke-linejoin:round; stroke-linecap:round;" d="M70.6 61.81c5.01 9.73 16.15 26.09 22.85 31.23c1.95 1.49 2.49 1.97 3.34 2.13"></path>

<path style="fill:none; fill-opacity:0%; fill-rule:evenodd; stroke:#000000; stroke-opacity:100%; stroke-width: 3pt; stroke-linejoin:round; stroke-linecap:round;" d="M10.5 37.18c2.2 0.23 1.34 0.51 3.69 0.23c5.79-0.7 16.33-2.32 25.98-3.4"></path>
<path style="fill:none; fill-opacity:0%; fill-rule:evenodd; stroke:#000000; stroke-opacity:100%; stroke-width: 3pt; stroke-linejoin:round; stroke-linecap:round;" d="M26.77 14.5c0.48 0.92 1.76 2.49 1.76 5.52c0 15.23 0.24 56.96 0.24 68.4c0 14.25-6.32 3.53-7.77 2"></path>
<path style="fill:none; fill-opacity:0%; fill-rule:evenodd; stroke:#000000; stroke-opacity:100%; stroke-width: 3pt; stroke-linejoin:round; stroke-linecap:round;" d="M11 65.1c0.82 0.97 2.12 1.54 3.92 0.64c1.06-0.53 19.4-11.54 23.91-14.07"></path>
<path style="fill:none; fill-opacity:0%; fill-rule:evenodd; stroke:#000000; stroke-opacity:100%; stroke-width: 3pt; stroke-linejoin:round; stroke-linecap:round;" d="M44.43 17.24c0.86 0.31 3.34 0.36 4.2 0.31c9.94-0.59 22.5-1.7 36.24-3.51c1.42-0.19 3.2 0.15 3.91 0.3"></path>
<text x="5" y="20" font-size="20" fill="#999999">5</text><path style="fill:none; fill-opacity:0%; fill-rule:evenodd; stroke:#CC0000; stroke-opacity:100%; stroke-width: 3pt; stroke-linejoin:round; stroke-linecap:round;" d="M46.7 29.85c1.05 0.39 2.64 1.09 4.7 0.81c10.72-1.46 29.26-3.79 35.97-4.49c1.82-0.19 3.65 1.3 2.96 4.17c-1.21 5.08-1.62 6.86-2.49 9.71" marker-end="url(#TriangleRed)" marker-start="url(#ArrowRed)" ></path>






</g><g transform="scale(1.3761467889908 1.3761467889908) translate(0, 109)">
<path style="fill:none; fill-rule:evenodd; stroke:#aaaaaa;  stroke-width:1pt; stroke-linecap:round;" d="m 109 0 L 0 0 L 0 109 L 109 109 L 109 0"></path><path style="fill:none; fill-opacity:0%; fill-rule:evenodd; stroke:#aaaaaa; stroke-opacity:100%; stroke-width: 1.5pt; stroke-linejoin:round; stroke-linecap:round;" d="M10.5 37.18c2.2 0.23 1.34 0.51 3.69 0.23c5.79-0.7 16.33-2.32 25.98-3.4"></path>
<path style="fill:none; fill-opacity:0%; fill-rule:evenodd; stroke:#aaaaaa; stroke-opacity:100%; stroke-width: 1.5pt; stroke-linejoin:round; stroke-linecap:round;" d="M26.77 14.5c0.48 0.92 1.76 2.49 1.76 5.52c0 15.23 0.24 56.96 0.24 68.4c0 14.25-6.32 3.53-7.77 2"></path>
<path style="fill:none; fill-opacity:0%; fill-rule:evenodd; stroke:#aaaaaa; stroke-opacity:100%; stroke-width: 1.5pt; stroke-linejoin:round; stroke-linecap:round;" d="M11 65.1c0.82 0.97 2.12 1.54 3.92 0.64c1.06-0.53 19.4-11.54 23.91-14.07"></path>
<path style="fill:none; fill-opacity:0%; fill-rule:evenodd; stroke:#aaaaaa; stroke-opacity:100%; stroke-width: 1.5pt; stroke-linejoin:round; stroke-linecap:round;" d="M44.43 17.24c0.86 0.31 3.34 0.36 4.2 0.31c9.94-0.59 22.5-1.7 36.24-3.51c1.42-0.19 3.2 0.15 3.91 0.3"></path>
<path style="fill:none; fill-opacity:0%; fill-rule:evenodd; stroke:#aaaaaa; stroke-opacity:100%; stroke-width: 1.5pt; stroke-linejoin:round; stroke-linecap:round;" d="M46.7 29.85c1.05 0.39 2.64 1.09 4.7 0.81c10.72-1.46 29.26-3.79 35.97-4.49c1.82-0.19 3.65 1.3 2.96 4.17c-1.21 5.08-1.62 6.86-2.49 9.71"></path>
<path style="fill:none; fill-opacity:0%; fill-rule:evenodd; stroke:#aaaaaa; stroke-opacity:100%; stroke-width: 1.5pt; stroke-linejoin:round; stroke-linecap:round;" d="M50.11 44.43c1.19 0 30.72-3.52 40.27-3.52"></path>
<path style="fill:none; fill-opacity:0%; fill-rule:evenodd; stroke:#aaaaaa; stroke-opacity:100%; stroke-width: 1.5pt; stroke-linejoin:round; stroke-linecap:round;" d="M49.51 30.75c0.04 1.5 0.27 3.85 0.28 6.01C49.9 63.92 45.75 84 36.47 94.25"></path>
<path style="fill:none; fill-opacity:0%; fill-rule:evenodd; stroke:#aaaaaa; stroke-opacity:100%; stroke-width: 1.5pt; stroke-linejoin:round; stroke-linecap:round;" d="M51.84 61.84c0.78 0.41 2.86 0.9 4.52 0.72c11.21-1.24 24.25-3.18 34.32-3.78c1.73-0.1 3.12-0.05 4.68 0.27"></path>
<path style="fill:none; fill-opacity:0%; fill-rule:evenodd; stroke:#aaaaaa; stroke-opacity:100%; stroke-width: 1.5pt; stroke-linejoin:round; stroke-linecap:round;" d="M70.5 49.46c0.41 0.64 0.63 1.38 0.62 2.77c-0.2 23.99-10.13 36.65-26.47 44.02"></path>
<path style="fill:none; fill-opacity:0%; fill-rule:evenodd; stroke:#aaaaaa; stroke-opacity:100%; stroke-width: 1.5pt; stroke-linejoin:round; stroke-linecap:round;" d="M70.6 61.81c5.01 9.73 16.15 26.09 22.85 31.23c1.95 1.49 2.49 1.97 3.34 2.13"></path>

<path style="fill:none; fill-opacity:0%; fill-rule:evenodd; stroke:#000000; stroke-opacity:100%; stroke-width: 3pt; stroke-linejoin:round; stroke-linecap:round;" d="M10.5 37.18c2.2 0.23 1.34 0.51 3.69 0.23c5.79-0.7 16.33-2.32 25.98-3.4"></path>
<path style="fill:none; fill-opacity:0%; fill-rule:evenodd; stroke:#000000; stroke-opacity:100%; stroke-width: 3pt; stroke-linejoin:round; stroke-linecap:round;" d="M26.77 14.5c0.48 0.92 1.76 2.49 1.76 5.52c0 15.23 0.24 56.96 0.24 68.4c0 14.25-6.32 3.53-7.77 2"></path>
<path style="fill:none; fill-opacity:0%; fill-rule:evenodd; stroke:#000000; stroke-opacity:100%; stroke-width: 3pt; stroke-linejoin:round; stroke-linecap:round;" d="M11 65.1c0.82 0.97 2.12 1.54 3.92 0.64c1.06-0.53 19.4-11.54 23.91-14.07"></path>
<path style="fill:none; fill-opacity:0%; fill-rule:evenodd; stroke:#000000; stroke-opacity:100%; stroke-width: 3pt; stroke-linejoin:round; stroke-linecap:round;" d="M44.43 17.24c0.86 0.31 3.34 0.36 4.2 0.31c9.94-0.59 22.5-1.7 36.24-3.51c1.42-0.19 3.2 0.15 3.91 0.3"></path>
<path style="fill:none; fill-opacity:0%; fill-rule:evenodd; stroke:#000000; stroke-opacity:100%; stroke-width: 3pt; stroke-linejoin:round; stroke-linecap:round;" d="M46.7 29.85c1.05 0.39 2.64 1.09 4.7 0.81c10.72-1.46 29.26-3.79 35.97-4.49c1.82-0.19 3.65 1.3 2.96 4.17c-1.21 5.08-1.62 6.86-2.49 9.71"></path>
<text x="5" y="20" font-size="20" fill="#999999">6</text><path style="fill:none; fill-opacity:0%; fill-rule:evenodd; stroke:#CC0000; stroke-opacity:100%; stroke-width: 3pt; stroke-linejoin:round; stroke-linecap:round;" d="M50.11 44.43c1.19 0 30.72-3.52 40.27-3.52" marker-end="url(#TriangleRed)" marker-start="url(#ArrowRed)" ></path>





</g><g transform="scale(1.3761467889908 1.3761467889908) translate(109, 109)">
<path style="fill:none; fill-rule:evenodd; stroke:#aaaaaa;  stroke-width:1pt; stroke-linecap:round;" d="m 109 0 L 0 0 L 0 109 L 109 109 L 109 0"></path><path style="fill:none; fill-opacity:0%; fill-rule:evenodd; stroke:#aaaaaa; stroke-opacity:100%; stroke-width: 1.5pt; stroke-linejoin:round; stroke-linecap:round;" d="M10.5 37.18c2.2 0.23 1.34 0.51 3.69 0.23c5.79-0.7 16.33-2.32 25.98-3.4"></path>
<path style="fill:none; fill-opacity:0%; fill-rule:evenodd; stroke:#aaaaaa; stroke-opacity:100%; stroke-width: 1.5pt; stroke-linejoin:round; stroke-linecap:round;" d="M26.77 14.5c0.48 0.92 1.76 2.49 1.76 5.52c0 15.23 0.24 56.96 0.24 68.4c0 14.25-6.32 3.53-7.77 2"></path>
<path style="fill:none; fill-opacity:0%; fill-rule:evenodd; stroke:#aaaaaa; stroke-opacity:100%; stroke-width: 1.5pt; stroke-linejoin:round; stroke-linecap:round;" d="M11 65.1c0.82 0.97 2.12 1.54 3.92 0.64c1.06-0.53 19.4-11.54 23.91-14.07"></path>
<path style="fill:none; fill-opacity:0%; fill-rule:evenodd; stroke:#aaaaaa; stroke-opacity:100%; stroke-width: 1.5pt; stroke-linejoin:round; stroke-linecap:round;" d="M44.43 17.24c0.86 0.31 3.34 0.36 4.2 0.31c9.94-0.59 22.5-1.7 36.24-3.51c1.42-0.19 3.2 0.15 3.91 0.3"></path>
<path style="fill:none; fill-opacity:0%; fill-rule:evenodd; stroke:#aaaaaa; stroke-opacity:100%; stroke-width: 1.5pt; stroke-linejoin:round; stroke-linecap:round;" d="M46.7 29.85c1.05 0.39 2.64 1.09 4.7 0.81c10.72-1.46 29.26-3.79 35.97-4.49c1.82-0.19 3.65 1.3 2.96 4.17c-1.21 5.08-1.62 6.86-2.49 9.71"></path>
<path style="fill:none; fill-opacity:0%; fill-rule:evenodd; stroke:#aaaaaa; stroke-opacity:100%; stroke-width: 1.5pt; stroke-linejoin:round; stroke-linecap:round;" d="M50.11 44.43c1.19 0 30.72-3.52 40.27-3.52"></path>
<path style="fill:none; fill-opacity:0%; fill-rule:evenodd; stroke:#aaaaaa; stroke-opacity:100%; stroke-width: 1.5pt; stroke-linejoin:round; stroke-linecap:round;" d="M49.51 30.75c0.04 1.5 0.27 3.85 0.28 6.01C49.9 63.92 45.75 84 36.47 94.25"></path>
<path style="fill:none; fill-opacity:0%; fill-rule:evenodd; stroke:#aaaaaa; stroke-opacity:100%; stroke-width: 1.5pt; stroke-linejoin:round; stroke-linecap:round;" d="M51.84 61.84c0.78 0.41 2.86 0.9 4.52 0.72c11.21-1.24 24.25-3.18 34.32-3.78c1.73-0.1 3.12-0.05 4.68 0.27"></path>
<path style="fill:none; fill-opacity:0%; fill-rule:evenodd; stroke:#aaaaaa; stroke-opacity:100%; stroke-width: 1.5pt; stroke-linejoin:round; stroke-linecap:round;" d="M70.5 49.46c0.41 0.64 0.63 1.38 0.62 2.77c-0.2 23.99-10.13 36.65-26.47 44.02"></path>
<path style="fill:none; fill-opacity:0%; fill-rule:evenodd; stroke:#aaaaaa; stroke-opacity:100%; stroke-width: 1.5pt; stroke-linejoin:round; stroke-linecap:round;" d="M70.6 61.81c5.01 9.73 16.15 26.09 22.85 31.23c1.95 1.49 2.49 1.97 3.34 2.13"></path>

<path style="fill:none; fill-opacity:0%; fill-rule:evenodd; stroke:#000000; stroke-opacity:100%; stroke-width: 3pt; stroke-linejoin:round; stroke-linecap:round;" d="M10.5 37.18c2.2 0.23 1.34 0.51 3.69 0.23c5.79-0.7 16.33-2.32 25.98-3.4"></path>
<path style="fill:none; fill-opacity:0%; fill-rule:evenodd; stroke:#000000; stroke-opacity:100%; stroke-width: 3pt; stroke-linejoin:round; stroke-linecap:round;" d="M26.77 14.5c0.48 0.92 1.76 2.49 1.76 5.52c0 15.23 0.24 56.96 0.24 68.4c0 14.25-6.32 3.53-7.77 2"></path>
<path style="fill:none; fill-opacity:0%; fill-rule:evenodd; stroke:#000000; stroke-opacity:100%; stroke-width: 3pt; stroke-linejoin:round; stroke-linecap:round;" d="M11 65.1c0.82 0.97 2.12 1.54 3.92 0.64c1.06-0.53 19.4-11.54 23.91-14.07"></path>
<path style="fill:none; fill-opacity:0%; fill-rule:evenodd; stroke:#000000; stroke-opacity:100%; stroke-width: 3pt; stroke-linejoin:round; stroke-linecap:round;" d="M44.43 17.24c0.86 0.31 3.34 0.36 4.2 0.31c9.94-0.59 22.5-1.7 36.24-3.51c1.42-0.19 3.2 0.15 3.91 0.3"></path>
<path style="fill:none; fill-opacity:0%; fill-rule:evenodd; stroke:#000000; stroke-opacity:100%; stroke-width: 3pt; stroke-linejoin:round; stroke-linecap:round;" d="M46.7 29.85c1.05 0.39 2.64 1.09 4.7 0.81c10.72-1.46 29.26-3.79 35.97-4.49c1.82-0.19 3.65 1.3 2.96 4.17c-1.21 5.08-1.62 6.86-2.49 9.71"></path>
<path style="fill:none; fill-opacity:0%; fill-rule:evenodd; stroke:#000000; stroke-opacity:100%; stroke-width: 3pt; stroke-linejoin:round; stroke-linecap:round;" d="M50.11 44.43c1.19 0 30.72-3.52 40.27-3.52"></path>
<text x="5" y="20" font-size="20" fill="#999999">7</text><path style="fill:none; fill-opacity:0%; fill-rule:evenodd; stroke:#CC0000; stroke-opacity:100%; stroke-width: 3pt; stroke-linejoin:round; stroke-linecap:round;" d="M49.51 30.75c0.04 1.5 0.27 3.85 0.28 6.01C49.9 63.92 45.75 84 36.47 94.25" marker-end="url(#TriangleRed)" marker-start="url(#ArrowRed)" ></path>




</g><g transform="scale(1.3761467889908 1.3761467889908) translate(218, 109)">
<path style="fill:none; fill-rule:evenodd; stroke:#aaaaaa;  stroke-width:1pt; stroke-linecap:round;" d="m 109 0 L 0 0 L 0 109 L 109 109 L 109 0"></path><path style="fill:none; fill-opacity:0%; fill-rule:evenodd; stroke:#aaaaaa; stroke-opacity:100%; stroke-width: 1.5pt; stroke-linejoin:round; stroke-linecap:round;" d="M10.5 37.18c2.2 0.23 1.34 0.51 3.69 0.23c5.79-0.7 16.33-2.32 25.98-3.4"></path>
<path style="fill:none; fill-opacity:0%; fill-rule:evenodd; stroke:#aaaaaa; stroke-opacity:100%; stroke-width: 1.5pt; stroke-linejoin:round; stroke-linecap:round;" d="M26.77 14.5c0.48 0.92 1.76 2.49 1.76 5.52c0 15.23 0.24 56.96 0.24 68.4c0 14.25-6.32 3.53-7.77 2"></path>
<path style="fill:none; fill-opacity:0%; fill-rule:evenodd; stroke:#aaaaaa; stroke-opacity:100%; stroke-width: 1.5pt; stroke-linejoin:round; stroke-linecap:round;" d="M11 65.1c0.82 0.97 2.12 1.54 3.92 0.64c1.06-0.53 19.4-11.54 23.91-14.07"></path>
<path style="fill:none; fill-opacity:0%; fill-rule:evenodd; stroke:#aaaaaa; stroke-opacity:100%; stroke-width: 1.5pt; stroke-linejoin:round; stroke-linecap:round;" d="M44.43 17.24c0.86 0.31 3.34 0.36 4.2 0.31c9.94-0.59 22.5-1.7 36.24-3.51c1.42-0.19 3.2 0.15 3.91 0.3"></path>
<path style="fill:none; fill-opacity:0%; fill-rule:evenodd; stroke:#aaaaaa; stroke-opacity:100%; stroke-width: 1.5pt; stroke-linejoin:round; stroke-linecap:round;" d="M46.7 29.85c1.05 0.39 2.64 1.09 4.7 0.81c10.72-1.46 29.26-3.79 35.97-4.49c1.82-0.19 3.65 1.3 2.96 4.17c-1.21 5.08-1.62 6.86-2.49 9.71"></path>
<path style="fill:none; fill-opacity:0%; fill-rule:evenodd; stroke:#aaaaaa; stroke-opacity:100%; stroke-width: 1.5pt; stroke-linejoin:round; stroke-linecap:round;" d="M50.11 44.43c1.19 0 30.72-3.52 40.27-3.52"></path>
<path style="fill:none; fill-opacity:0%; fill-rule:evenodd; stroke:#aaaaaa; stroke-opacity:100%; stroke-width: 1.5pt; stroke-linejoin:round; stroke-linecap:round;" d="M49.51 30.75c0.04 1.5 0.27 3.85 0.28 6.01C49.9 63.92 45.75 84 36.47 94.25"></path>
<path style="fill:none; fill-opacity:0%; fill-rule:evenodd; stroke:#aaaaaa; stroke-opacity:100%; stroke-width: 1.5pt; stroke-linejoin:round; stroke-linecap:round;" d="M51.84 61.84c0.78 0.41 2.86 0.9 4.52 0.72c11.21-1.24 24.25-3.18 34.32-3.78c1.73-0.1 3.12-0.05 4.68 0.27"></path>
<path style="fill:none; fill-opacity:0%; fill-rule:evenodd; stroke:#aaaaaa; stroke-opacity:100%; stroke-width: 1.5pt; stroke-linejoin:round; stroke-linecap:round;" d="M70.5 49.46c0.41 0.64 0.63 1.38 0.62 2.77c-0.2 23.99-10.13 36.65-26.47 44.02"></path>
<path style="fill:none; fill-opacity:0%; fill-rule:evenodd; stroke:#aaaaaa; stroke-opacity:100%; stroke-width: 1.5pt; stroke-linejoin:round; stroke-linecap:round;" d="M70.6 61.81c5.01 9.73 16.15 26.09 22.85 31.23c1.95 1.49 2.49 1.97 3.34 2.13"></path>

<path style="fill:none; fill-opacity:0%; fill-rule:evenodd; stroke:#000000; stroke-opacity:100%; stroke-width: 3pt; stroke-linejoin:round; stroke-linecap:round;" d="M10.5 37.18c2.2 0.23 1.34 0.51 3.69 0.23c5.79-0.7 16.33-2.32 25.98-3.4"></path>
<path style="fill:none; fill-opacity:0%; fill-rule:evenodd; stroke:#000000; stroke-opacity:100%; stroke-width: 3pt; stroke-linejoin:round; stroke-linecap:round;" d="M26.77 14.5c0.48 0.92 1.76 2.49 1.76 5.52c0 15.23 0.24 56.96 0.24 68.4c0 14.25-6.32 3.53-7.77 2"></path>
<path style="fill:none; fill-opacity:0%; fill-rule:evenodd; stroke:#000000; stroke-opacity:100%; stroke-width: 3pt; stroke-linejoin:round; stroke-linecap:round;" d="M11 65.1c0.82 0.97 2.12 1.54 3.92 0.64c1.06-0.53 19.4-11.54 23.91-14.07"></path>
<path style="fill:none; fill-opacity:0%; fill-rule:evenodd; stroke:#000000; stroke-opacity:100%; stroke-width: 3pt; stroke-linejoin:round; stroke-linecap:round;" d="M44.43 17.24c0.86 0.31 3.34 0.36 4.2 0.31c9.94-0.59 22.5-1.7 36.24-3.51c1.42-0.19 3.2 0.15 3.91 0.3"></path>
<path style="fill:none; fill-opacity:0%; fill-rule:evenodd; stroke:#000000; stroke-opacity:100%; stroke-width: 3pt; stroke-linejoin:round; stroke-linecap:round;" d="M46.7 29.85c1.05 0.39 2.64 1.09 4.7 0.81c10.72-1.46 29.26-3.79 35.97-4.49c1.82-0.19 3.65 1.3 2.96 4.17c-1.21 5.08-1.62 6.86-2.49 9.71"></path>
<path style="fill:none; fill-opacity:0%; fill-rule:evenodd; stroke:#000000; stroke-opacity:100%; stroke-width: 3pt; stroke-linejoin:round; stroke-linecap:round;" d="M50.11 44.43c1.19 0 30.72-3.52 40.27-3.52"></path>
<path style="fill:none; fill-opacity:0%; fill-rule:evenodd; stroke:#000000; stroke-opacity:100%; stroke-width: 3pt; stroke-linejoin:round; stroke-linecap:round;" d="M49.51 30.75c0.04 1.5 0.27 3.85 0.28 6.01C49.9 63.92 45.75 84 36.47 94.25"></path>
<text x="5" y="20" font-size="20" fill="#999999">8</text><path style="fill:none; fill-opacity:0%; fill-rule:evenodd; stroke:#CC0000; stroke-opacity:100%; stroke-width: 3pt; stroke-linejoin:round; stroke-linecap:round;" d="M51.84 61.84c0.78 0.41 2.86 0.9 4.52 0.72c11.21-1.24 24.25-3.18 34.32-3.78c1.73-0.1 3.12-0.05 4.68 0.27" marker-end="url(#TriangleRed)" marker-start="url(#ArrowRed)" ></path>



</g><g transform="scale(1.3761467889908 1.3761467889908) translate(327, 109)">
<path style="fill:none; fill-rule:evenodd; stroke:#aaaaaa;  stroke-width:1pt; stroke-linecap:round;" d="m 109 0 L 0 0 L 0 109 L 109 109 L 109 0"></path><path style="fill:none; fill-opacity:0%; fill-rule:evenodd; stroke:#aaaaaa; stroke-opacity:100%; stroke-width: 1.5pt; stroke-linejoin:round; stroke-linecap:round;" d="M10.5 37.18c2.2 0.23 1.34 0.51 3.69 0.23c5.79-0.7 16.33-2.32 25.98-3.4"></path>
<path style="fill:none; fill-opacity:0%; fill-rule:evenodd; stroke:#aaaaaa; stroke-opacity:100%; stroke-width: 1.5pt; stroke-linejoin:round; stroke-linecap:round;" d="M26.77 14.5c0.48 0.92 1.76 2.49 1.76 5.52c0 15.23 0.24 56.96 0.24 68.4c0 14.25-6.32 3.53-7.77 2"></path>
<path style="fill:none; fill-opacity:0%; fill-rule:evenodd; stroke:#aaaaaa; stroke-opacity:100%; stroke-width: 1.5pt; stroke-linejoin:round; stroke-linecap:round;" d="M11 65.1c0.82 0.97 2.12 1.54 3.92 0.64c1.06-0.53 19.4-11.54 23.91-14.07"></path>
<path style="fill:none; fill-opacity:0%; fill-rule:evenodd; stroke:#aaaaaa; stroke-opacity:100%; stroke-width: 1.5pt; stroke-linejoin:round; stroke-linecap:round;" d="M44.43 17.24c0.86 0.31 3.34 0.36 4.2 0.31c9.94-0.59 22.5-1.7 36.24-3.51c1.42-0.19 3.2 0.15 3.91 0.3"></path>
<path style="fill:none; fill-opacity:0%; fill-rule:evenodd; stroke:#aaaaaa; stroke-opacity:100%; stroke-width: 1.5pt; stroke-linejoin:round; stroke-linecap:round;" d="M46.7 29.85c1.05 0.39 2.64 1.09 4.7 0.81c10.72-1.46 29.26-3.79 35.97-4.49c1.82-0.19 3.65 1.3 2.96 4.17c-1.21 5.08-1.62 6.86-2.49 9.71"></path>
<path style="fill:none; fill-opacity:0%; fill-rule:evenodd; stroke:#aaaaaa; stroke-opacity:100%; stroke-width: 1.5pt; stroke-linejoin:round; stroke-linecap:round;" d="M50.11 44.43c1.19 0 30.72-3.52 40.27-3.52"></path>
<path style="fill:none; fill-opacity:0%; fill-rule:evenodd; stroke:#aaaaaa; stroke-opacity:100%; stroke-width: 1.5pt; stroke-linejoin:round; stroke-linecap:round;" d="M49.51 30.75c0.04 1.5 0.27 3.85 0.28 6.01C49.9 63.92 45.75 84 36.47 94.25"></path>
<path style="fill:none; fill-opacity:0%; fill-rule:evenodd; stroke:#aaaaaa; stroke-opacity:100%; stroke-width: 1.5pt; stroke-linejoin:round; stroke-linecap:round;" d="M51.84 61.84c0.78 0.41 2.86 0.9 4.52 0.72c11.21-1.24 24.25-3.18 34.32-3.78c1.73-0.1 3.12-0.05 4.68 0.27"></path>
<path style="fill:none; fill-opacity:0%; fill-rule:evenodd; stroke:#aaaaaa; stroke-opacity:100%; stroke-width: 1.5pt; stroke-linejoin:round; stroke-linecap:round;" d="M70.5 49.46c0.41 0.64 0.63 1.38 0.62 2.77c-0.2 23.99-10.13 36.65-26.47 44.02"></path>
<path style="fill:none; fill-opacity:0%; fill-rule:evenodd; stroke:#aaaaaa; stroke-opacity:100%; stroke-width: 1.5pt; stroke-linejoin:round; stroke-linecap:round;" d="M70.6 61.81c5.01 9.73 16.15 26.09 22.85 31.23c1.95 1.49 2.49 1.97 3.34 2.13"></path>

<path style="fill:none; fill-opacity:0%; fill-rule:evenodd; stroke:#000000; stroke-opacity:100%; stroke-width: 3pt; stroke-linejoin:round; stroke-linecap:round;" d="M10.5 37.18c2.2 0.23 1.34 0.51 3.69 0.23c5.79-0.7 16.33-2.32 25.98-3.4"></path>
<path style="fill:none; fill-opacity:0%; fill-rule:evenodd; stroke:#000000; stroke-opacity:100%; stroke-width: 3pt; stroke-linejoin:round; stroke-linecap:round;" d="M26.77 14.5c0.48 0.92 1.76 2.49 1.76 5.52c0 15.23 0.24 56.96 0.24 68.4c0 14.25-6.32 3.53-7.77 2"></path>
<path style="fill:none; fill-opacity:0%; fill-rule:evenodd; stroke:#000000; stroke-opacity:100%; stroke-width: 3pt; stroke-linejoin:round; stroke-linecap:round;" d="M11 65.1c0.82 0.97 2.12 1.54 3.92 0.64c1.06-0.53 19.4-11.54 23.91-14.07"></path>
<path style="fill:none; fill-opacity:0%; fill-rule:evenodd; stroke:#000000; stroke-opacity:100%; stroke-width: 3pt; stroke-linejoin:round; stroke-linecap:round;" d="M44.43 17.24c0.86 0.31 3.34 0.36 4.2 0.31c9.94-0.59 22.5-1.7 36.24-3.51c1.42-0.19 3.2 0.15 3.91 0.3"></path>
<path style="fill:none; fill-opacity:0%; fill-rule:evenodd; stroke:#000000; stroke-opacity:100%; stroke-width: 3pt; stroke-linejoin:round; stroke-linecap:round;" d="M46.7 29.85c1.05 0.39 2.64 1.09 4.7 0.81c10.72-1.46 29.26-3.79 35.97-4.49c1.82-0.19 3.65 1.3 2.96 4.17c-1.21 5.08-1.62 6.86-2.49 9.71"></path>
<path style="fill:none; fill-opacity:0%; fill-rule:evenodd; stroke:#000000; stroke-opacity:100%; stroke-width: 3pt; stroke-linejoin:round; stroke-linecap:round;" d="M50.11 44.43c1.19 0 30.72-3.52 40.27-3.52"></path>
<path style="fill:none; fill-opacity:0%; fill-rule:evenodd; stroke:#000000; stroke-opacity:100%; stroke-width: 3pt; stroke-linejoin:round; stroke-linecap:round;" d="M49.51 30.75c0.04 1.5 0.27 3.85 0.28 6.01C49.9 63.92 45.75 84 36.47 94.25"></path>
<path style="fill:none; fill-opacity:0%; fill-rule:evenodd; stroke:#000000; stroke-opacity:100%; stroke-width: 3pt; stroke-linejoin:round; stroke-linecap:round;" d="M51.84 61.84c0.78 0.41 2.86 0.9 4.52 0.72c11.21-1.24 24.25-3.18 34.32-3.78c1.73-0.1 3.12-0.05 4.68 0.27"></path>
<text x="5" y="20" font-size="20" fill="#999999">9</text><path style="fill:none; fill-opacity:0%; fill-rule:evenodd; stroke:#CC0000; stroke-opacity:100%; stroke-width: 3pt; stroke-linejoin:round; stroke-linecap:round;" d="M70.5 49.46c0.41 0.64 0.63 1.38 0.62 2.77c-0.2 23.99-10.13 36.65-26.47 44.02" marker-end="url(#TriangleRed)" marker-start="url(#ArrowRed)" ></path>


</g><g transform="scale(1.3761467889908 1.3761467889908) translate(436, 109)">
<path style="fill:none; fill-rule:evenodd; stroke:#aaaaaa;  stroke-width:1pt; stroke-linecap:round;" d="m 109 0 L 0 0 L 0 109 L 109 109 L 109 0"></path><path style="fill:none; fill-opacity:0%; fill-rule:evenodd; stroke:#aaaaaa; stroke-opacity:100%; stroke-width: 1.5pt; stroke-linejoin:round; stroke-linecap:round;" d="M10.5 37.18c2.2 0.23 1.34 0.51 3.69 0.23c5.79-0.7 16.33-2.32 25.98-3.4"></path>
<path style="fill:none; fill-opacity:0%; fill-rule:evenodd; stroke:#aaaaaa; stroke-opacity:100%; stroke-width: 1.5pt; stroke-linejoin:round; stroke-linecap:round;" d="M26.77 14.5c0.48 0.92 1.76 2.49 1.76 5.52c0 15.23 0.24 56.96 0.24 68.4c0 14.25-6.32 3.53-7.77 2"></path>
<path style="fill:none; fill-opacity:0%; fill-rule:evenodd; stroke:#aaaaaa; stroke-opacity:100%; stroke-width: 1.5pt; stroke-linejoin:round; stroke-linecap:round;" d="M11 65.1c0.82 0.97 2.12 1.54 3.92 0.64c1.06-0.53 19.4-11.54 23.91-14.07"></path>
<path style="fill:none; fill-opacity:0%; fill-rule:evenodd; stroke:#aaaaaa; stroke-opacity:100%; stroke-width: 1.5pt; stroke-linejoin:round; stroke-linecap:round;" d="M44.43 17.24c0.86 0.31 3.34 0.36 4.2 0.31c9.94-0.59 22.5-1.7 36.24-3.51c1.42-0.19 3.2 0.15 3.91 0.3"></path>
<path style="fill:none; fill-opacity:0%; fill-rule:evenodd; stroke:#aaaaaa; stroke-opacity:100%; stroke-width: 1.5pt; stroke-linejoin:round; stroke-linecap:round;" d="M46.7 29.85c1.05 0.39 2.64 1.09 4.7 0.81c10.72-1.46 29.26-3.79 35.97-4.49c1.82-0.19 3.65 1.3 2.96 4.17c-1.21 5.08-1.62 6.86-2.49 9.71"></path>
<path style="fill:none; fill-opacity:0%; fill-rule:evenodd; stroke:#aaaaaa; stroke-opacity:100%; stroke-width: 1.5pt; stroke-linejoin:round; stroke-linecap:round;" d="M50.11 44.43c1.19 0 30.72-3.52 40.27-3.52"></path>
<path style="fill:none; fill-opacity:0%; fill-rule:evenodd; stroke:#aaaaaa; stroke-opacity:100%; stroke-width: 1.5pt; stroke-linejoin:round; stroke-linecap:round;" d="M49.51 30.75c0.04 1.5 0.27 3.85 0.28 6.01C49.9 63.92 45.75 84 36.47 94.25"></path>
<path style="fill:none; fill-opacity:0%; fill-rule:evenodd; stroke:#aaaaaa; stroke-opacity:100%; stroke-width: 1.5pt; stroke-linejoin:round; stroke-linecap:round;" d="M51.84 61.84c0.78 0.41 2.86 0.9 4.52 0.72c11.21-1.24 24.25-3.18 34.32-3.78c1.73-0.1 3.12-0.05 4.68 0.27"></path>
<path style="fill:none; fill-opacity:0%; fill-rule:evenodd; stroke:#aaaaaa; stroke-opacity:100%; stroke-width: 1.5pt; stroke-linejoin:round; stroke-linecap:round;" d="M70.5 49.46c0.41 0.64 0.63 1.38 0.62 2.77c-0.2 23.99-10.13 36.65-26.47 44.02"></path>
<path style="fill:none; fill-opacity:0%; fill-rule:evenodd; stroke:#aaaaaa; stroke-opacity:100%; stroke-width: 1.5pt; stroke-linejoin:round; stroke-linecap:round;" d="M70.6 61.81c5.01 9.73 16.15 26.09 22.85 31.23c1.95 1.49 2.49 1.97 3.34 2.13"></path>

<path style="fill:none; fill-opacity:0%; fill-rule:evenodd; stroke:#000000; stroke-opacity:100%; stroke-width: 3pt; stroke-linejoin:round; stroke-linecap:round;" d="M10.5 37.18c2.2 0.23 1.34 0.51 3.69 0.23c5.79-0.7 16.33-2.32 25.98-3.4"></path>
<path style="fill:none; fill-opacity:0%; fill-rule:evenodd; stroke:#000000; stroke-opacity:100%; stroke-width: 3pt; stroke-linejoin:round; stroke-linecap:round;" d="M26.77 14.5c0.48 0.92 1.76 2.49 1.76 5.52c0 15.23 0.24 56.96 0.24 68.4c0 14.25-6.32 3.53-7.77 2"></path>
<path style="fill:none; fill-opacity:0%; fill-rule:evenodd; stroke:#000000; stroke-opacity:100%; stroke-width: 3pt; stroke-linejoin:round; stroke-linecap:round;" d="M11 65.1c0.82 0.97 2.12 1.54 3.92 0.64c1.06-0.53 19.4-11.54 23.91-14.07"></path>
<path style="fill:none; fill-opacity:0%; fill-rule:evenodd; stroke:#000000; stroke-opacity:100%; stroke-width: 3pt; stroke-linejoin:round; stroke-linecap:round;" d="M44.43 17.24c0.86 0.31 3.34 0.36 4.2 0.31c9.94-0.59 22.5-1.7 36.24-3.51c1.42-0.19 3.2 0.15 3.91 0.3"></path>
<path style="fill:none; fill-opacity:0%; fill-rule:evenodd; stroke:#000000; stroke-opacity:100%; stroke-width: 3pt; stroke-linejoin:round; stroke-linecap:round;" d="M46.7 29.85c1.05 0.39 2.64 1.09 4.7 0.81c10.72-1.46 29.26-3.79 35.97-4.49c1.82-0.19 3.65 1.3 2.96 4.17c-1.21 5.08-1.62 6.86-2.49 9.71"></path>
<path style="fill:none; fill-opacity:0%; fill-rule:evenodd; stroke:#000000; stroke-opacity:100%; stroke-width: 3pt; stroke-linejoin:round; stroke-linecap:round;" d="M50.11 44.43c1.19 0 30.72-3.52 40.27-3.52"></path>
<path style="fill:none; fill-opacity:0%; fill-rule:evenodd; stroke:#000000; stroke-opacity:100%; stroke-width: 3pt; stroke-linejoin:round; stroke-linecap:round;" d="M49.51 30.75c0.04 1.5 0.27 3.85 0.28 6.01C49.9 63.92 45.75 84 36.47 94.25"></path>
<path style="fill:none; fill-opacity:0%; fill-rule:evenodd; stroke:#000000; stroke-opacity:100%; stroke-width: 3pt; stroke-linejoin:round; stroke-linecap:round;" d="M51.84 61.84c0.78 0.41 2.86 0.9 4.52 0.72c11.21-1.24 24.25-3.18 34.32-3.78c1.73-0.1 3.12-0.05 4.68 0.27"></path>
<path style="fill:none; fill-opacity:0%; fill-rule:evenodd; stroke:#000000; stroke-opacity:100%; stroke-width: 3pt; stroke-linejoin:round; stroke-linecap:round;" d="M70.5 49.46c0.41 0.64 0.63 1.38 0.62 2.77c-0.2 23.99-10.13 36.65-26.47 44.02"></path>
<text x="5" y="20" font-size="20" fill="#999999">10</text><path style="fill:none; fill-opacity:0%; fill-rule:evenodd; stroke:#CC0000; stroke-opacity:100%; stroke-width: 3pt; stroke-linejoin:round; stroke-linecap:round;" d="M70.6 61.81c5.01 9.73 16.15 26.09 22.85 31.23c1.95 1.49 2.49 1.97 3.34 2.13" marker-end="url(#TriangleRed)" marker-start="url(#ArrowRed)" ></path>

</g>

</svg>  
          
