<?xml version="1.0" standalone="no"?>
<!DOCTYPE svg PUBLIC "-//W3C//DTD SVG 1.1//EN"   "http://www.w3.org/Graphics/SVG/1.1/DTD/svg11.dtd">
<svg width="751" height="301"  version="1.1" xmlns="http://www.w3.org/2000/svg">
  <defs>
    <marker id="Triangle" viewBox="0 0 10 10" refX="0" refY="5" markerUnits="strokeWidth" markerWidth="3" style="stroke-opacity:0%;fill:#aaaaaa;" markerHeight="2" orient="auto">
      <path d="M 0 0 L 10 5 L 0 10 z" />
    </marker>
    
    <marker id="Arrow" viewBox="0 0 10 10" refX="5" refY="5" markerUnits="strokeWidth" markerWidth="1.8" style="stroke-opacity:0%;fill:#770000;" markerHeight="2" orient="auto">
      <path d="M 0 4 L 6 4 L 4 1 L 10 5 L 4 9 L 6 6 L 0 6 z" />
        <circle cx="5" cy="5" r="5" />
      </marker>
    
    <marker id="TriangleRed" viewBox="0 0 10 10" refX="0" refY="5" markerUnits="strokeWidth" markerWidth="3" style="stroke-opacity:0%;fill:#CC0000;" markerHeight="2" orient="auto">
      <path d="M 0 0 L 10 5 L 0 10 z" />
    </marker>
    
    <marker id="ArrowRed" viewBox="0 0 10 10" refX="5" refY="5" markerUnits="strokeWidth" markerWidth="1.8" style="stroke-opacity:0%;fill:#CC0000;" markerHeight="2" orient="auto">
      <path d="M 0 4 L 6 4 L 4 1 L 10 5 L 4 9 L 6 6 L 0 6 z" />
        <circle cx="5" cy="5" r="5" />
      </marker>
    
  </defs>
  
  <path style="fill:#ffffff; fill-opacity:100%; fill-rule:evenodd; stroke-width:0;" d="M 0 0 L 751 0 L 751 301 L 0 301 L 0 0" />

  <g transform="scale(1.3761467889908 1.3761467889908) translate(0, 0)">
<path style="fill:none; fill-rule:evenodd; stroke:#aaaaaa;  stroke-width:1pt; stroke-linecap:round;" d="m 109 0 L 0 0 L 0 109 L 109 109 L 109 0"></path><path style="fill:none; fill-opacity:0%; fill-rule:evenodd; stroke:#aaaaaa; stroke-opacity:100%; stroke-width: 1.5pt; stroke-linejoin:round; stroke-linecap:round;" d="M33.74 13.5c0.68 0.48 1.79 2.33 1.79 3.29c0 3.77-0.02 8.97-0.09 11.68"></path>
<path style="fill:none; fill-opacity:0%; fill-rule:evenodd; stroke:#aaaaaa; stroke-opacity:100%; stroke-width: 1.5pt; stroke-linejoin:round; stroke-linecap:round;" d="M13.84 30.04c0.81 0.05 2.65 0.3 3.44 0.27c9.47-0.41 25.08-2.1 34.09-2.74c1.33-0.09 2.01 0.02 3.01 0.34"></path>
<path style="fill:none; fill-opacity:0%; fill-rule:evenodd; stroke:#aaaaaa; stroke-opacity:100%; stroke-width: 1.5pt; stroke-linejoin:round; stroke-linecap:round;" d="M27.48 36.01c0.26 0.74-0.01 2.47-0.63 3.68c-2.44 4.79-6.85 9.98-11.84 14.16"></path>
<path style="fill:none; fill-opacity:0%; fill-rule:evenodd; stroke:#aaaaaa; stroke-opacity:100%; stroke-width: 1.5pt; stroke-linejoin:round; stroke-linecap:round;" d="M40.92 34.36c4.46 3.22 8.15 6.93 10.38 10.83"></path>
<path style="fill:none; fill-opacity:0%; fill-rule:evenodd; stroke:#aaaaaa; stroke-opacity:100%; stroke-width: 1.5pt; stroke-linejoin:round; stroke-linecap:round;" d="M43.24 47.11c0.4 1.04 0.55 2.88-0.13 4.74C36.83 69.2 25.56 84.5 11.77 93.87"></path>
<path style="fill:none; fill-opacity:0%; fill-rule:evenodd; stroke:#aaaaaa; stroke-opacity:100%; stroke-width: 1.5pt; stroke-linejoin:round; stroke-linecap:round;" d="M23.38 57.1c7.32 2.48 17.31 12.32 23.54 22.2"></path>
<path style="fill:none; fill-opacity:0%; fill-rule:evenodd; stroke:#aaaaaa; stroke-opacity:100%; stroke-width: 1.5pt; stroke-linejoin:round; stroke-linecap:round;" d="M67.48 14.64c0.04 0.92 0.23 2.42-0.08 3.7c-2.26 9.33-7.34 25.14-15.15 36.4"></path>
<path style="fill:none; fill-opacity:0%; fill-rule:evenodd; stroke:#aaaaaa; stroke-opacity:100%; stroke-width: 1.5pt; stroke-linejoin:round; stroke-linecap:round;" d="M64.12 37.18c1.08 0.31 3.08 0 3.67-0.04c6.05-0.49 15.44-3.68 24.67-4.48c1.04-0.09 1.67-0.02 1.94 0.08"></path>
<path style="fill:none; fill-opacity:0%; fill-rule:evenodd; stroke:#aaaaaa; stroke-opacity:100%; stroke-width: 1.5pt; stroke-linejoin:round; stroke-linecap:round;" d="M82.94 38.93c0.62 1.41 0.96 2.42 0.31 4.99c-5.88 23.39-16 43.33-38.61 53.33"></path>
<path style="fill:none; fill-opacity:0%; fill-rule:evenodd; stroke:#aaaaaa; stroke-opacity:100%; stroke-width: 1.5pt; stroke-linejoin:round; stroke-linecap:round;" d="M57.73 54c1.3 0 2.07 1.02 3.1 2.4c6.99 9.39 19.85 27.56 29.19 36.46c1.72 1.64 3.54 2.73 4.99 2.89"></path>

<text x="5" y="20" font-size="20" fill="#999999">1</text><path style="fill:none; fill-opacity:0%; fill-rule:evenodd; stroke:#CC0000; stroke-opacity:100%; stroke-width: 3pt; stroke-linejoin:round; stroke-linecap:round;" d="M33.74 13.5c0.68 0.48 1.79 2.33 1.79 3.29c0 3.77-0.02 8.97-0.09 11.68"  ></path>










</g><g transform="scale(1.3761467889908 1.3761467889908) translate(109, 0)">
<path style="fill:none; fill-rule:evenodd; stroke:#aaaaaa;  stroke-width:1pt; stroke-linecap:round;" d="m 109 0 L 0 0 L 0 109 L 109 109 L 109 0"></path><path style="fill:none; fill-opacity:0%; fill-rule:evenodd; stroke:#aaaaaa; stroke-opacity:100%; stroke-width: 1.5pt; stroke-linejoin:round; stroke-linecap:round;" d="M33.74 13.5c0.68 0.48 1.79 2.33 1.79 3.29c0 3.77-0.02 8.97-0.09 11.68"></path>
<path style="fill:none; fill-opacity:0%; fill-rule:evenodd; stroke:#aaaaaa; stroke-opacity:100%; stroke-width: 1.5pt; stroke-linejoin:round; stroke-linecap:round;" d="M13.84 30.04c0.81 0.05 2.65 0.3 3.44 0.27c9.47-0.41 25.08-2.1 34.09-2.74c1.33-0.09 2.01 0.02 3.01 0.34"></path>
<path style="fill:none; fill-opacity:0%; fill-rule:evenodd; stroke:#aaaaaa; stroke-opacity:100%; stroke-width: 1.5pt; stroke-linejoin:round; stroke-linecap:round;" d="M27.48 36.01c0.26 0.74-0.01 2.47-0.63 3.68c-2.44 4.79-6.85 9.98-11.84 14.16"></path>
<path style="fill:none; fill-opacity:0%; fill-rule:evenodd; stroke:#aaaaaa; stroke-opacity:100%; stroke-width: 1.5pt; stroke-linejoin:round; stroke-linecap:round;" d="M40.92 34.36c4.46 3.22 8.15 6.93 10.38 10.83"></path>
<path style="fill:none; fill-opacity:0%; fill-rule:evenodd; stroke:#aaaaaa; stroke-opacity:100%; stroke-width: 1.5pt; stroke-linejoin:round; stroke-linecap:round;" d="M43.24 47.11c0.4 1.04 0.55 2.88-0.13 4.74C36.83 69.2 25.56 84.5 11.77 93.87"></path>
<path style="fill:none; fill-opacity:0%; fill-rule:evenodd; stroke:#aaaaaa; stroke-opacity:100%; stroke-width: 1.5pt; stroke-linejoin:round; stroke-linecap:round;" d="M23.38 57.1c7.32 2.48 17.31 12.32 23.54 22.2"></path>
<path style="fill:none; fill-opacity:0%; fill-rule:evenodd; stroke:#aaaaaa; stroke-opacity:100%; stroke-width: 1.5pt; stroke-linejoin:round; stroke-linecap:round;" d="M67.48 14.64c0.04 0.92 0.23 2.42-0.08 3.7c-2.26 9.33-7.34 25.14-15.15 36.4"></path>
<path style="fill:none; fill-opacity:0%; fill-rule:evenodd; stroke:#aaaaaa; stroke-opacity:100%; stroke-width: 1.5pt; stroke-linejoin:round; stroke-linecap:round;" d="M64.12 37.18c1.08 0.31 3.08 0 3.67-0.04c6.05-0.49 15.44-3.68 24.67-4.48c1.04-0.09 1.67-0.02 1.94 0.08"></path>
<path style="fill:none; fill-opacity:0%; fill-rule:evenodd; stroke:#aaaaaa; stroke-opacity:100%; stroke-width: 1.5pt; stroke-linejoin:round; stroke-linecap:round;" d="M82.94 38.93c0.62 1.41 0.96 2.42 0.31 4.99c-5.88 23.39-16 43.33-38.61 53.33"></path>
<path style="fill:none; fill-opacity:0%; fill-rule:evenodd; stroke:#aaaaaa; stroke-opacity:100%; stroke-width: 1.5pt; stroke-linejoin:round; stroke-linecap:round;" d="M57.73 54c1.3 0 2.07 1.02 3.1 2.4c6.99 9.39 19.85 27.56 29.19 36.46c1.72 1.64 3.54 2.73 4.99 2.89"></path>

<path style="fill:none; fill-opacity:0%; fill-rule:evenodd; stroke:#000000; stroke-opacity:100%; stroke-width: 3pt; stroke-linejoin:round; stroke-linecap:round;" d="M33.74 13.5c0.68 0.48 1.79 2.33 1.79 3.29c0 3.77-0.02 8.97-0.09 11.68"></path>
<text x="5" y="20" font-size="20" fill="#999999">2</text><path style="fill:none; fill-opacity:0%; fill-rule:evenodd; stroke:#CC0000; stroke-opacity:100%; stroke-width: 3pt; stroke-linejoin:round; stroke-linecap:round;" d="M13.84 30.04c0.81 0.05 2.65 0.3 3.44 0.27c9.47-0.41 25.08-2.1 34.09-2.74c1.33-0.09 2.01 0.02 3.01 0.34"  ></path>









</g><g transform="scale(1.3761467889908 1.3761467889908) translate(218, 0)">
<path style="fill:none; fill-rule:evenodd; stroke:#aaaaaa;  stroke-width:1pt; stroke-linecap:round;" d="m 109 0 L 0 0 L 0 109 L 109 109 L 109 0"></path><path style="fill:none; fill-opacity:0%; fill-rule:evenodd; stroke:#aaaaaa; stroke-opacity:100%; stroke-width: 1.5pt; stroke-linejoin:round; stroke-linecap:round;" d="M33.74 13.5c0.68 0.48 1.79 2.33 1.79 3.29c0 3.77-0.02 8.97-0.09 11.68"></path>
<path style="fill:none; fill-opacity:0%; fill-rule:evenodd; stroke:#aaaaaa; stroke-opacity:100%; stroke-width: 1.5pt; stroke-linejoin:round; stroke-linecap:round;" d="M13.84 30.04c0.81 0.05 2.65 0.3 3.44 0.27c9.47-0.41 25.08-2.1 34.09-2.74c1.33-0.09 2.01 0.02 3.01 0.34"></path>
<path style="fill:none; fill-opacity:0%; fill-rule:evenodd; stroke:#aaaaaa; stroke-opacity:100%; stroke-width: 1.5pt; stroke-linejoin:round; stroke-linecap:round;" d="M27.48 36.01c0.26 0.74-0.01 2.47-0.63 3.68c-2.44 4.79-6.85 9.98-11.84 14.16"></path>
<path style="fill:none; fill-opacity:0%; fill-rule:evenodd; stroke:#aaaaaa; stroke-opacity:100%; stroke-width: 1.5pt; stroke-linejoin:round; stroke-linecap:round;" d="M40.92 34.36c4.46 3.22 8.15 6.93 10.38 10.83"></path>
<path style="fill:none; fill-opacity:0%; fill-rule:evenodd; stroke:#aaaaaa; stroke-opacity:100%; stroke-width: 1.5pt; stroke-linejoin:round; stroke-linecap:round;" d="M43.24 47.11c0.4 1.04 0.55 2.88-0.13 4.74C36.83 69.2 25.56 84.5 11.77 93.87"></path>
<path style="fill:none; fill-opacity:0%; fill-rule:evenodd; stroke:#aaaaaa; stroke-opacity:100%; stroke-width: 1.5pt; stroke-linejoin:round; stroke-linecap:round;" d="M23.38 57.1c7.32 2.48 17.31 12.32 23.54 22.2"></path>
<path style="fill:none; fill-opacity:0%; fill-rule:evenodd; stroke:#aaaaaa; stroke-opacity:100%; stroke-width: 1.5pt; stroke-linejoin:round; stroke-linecap:round;" d="M67.48 14.64c0.04 0.92 0.23 2.42-0.08 3.7c-2.26 9.33-7.34 25.14-15.15 36.4"></path>
<path style="fill:none; fill-opacity:0%; fill-rule:evenodd; stroke:#aaaaaa; stroke-opacity:100%; stroke-width: 1.5pt; stroke-linejoin:round; stroke-linecap:round;" d="M64.12 37.18c1.08 0.31 3.08 0 3.67-0.04c6.05-0.49 15.44-3.68 24.67-4.48c1.04-0.09 1.67-0.02 1.94 0.08"></path>
<path style="fill:none; fill-opacity:0%; fill-rule:evenodd; stroke:#aaaaaa; stroke-opacity:100%; stroke-width: 1.5pt; stroke-linejoin:round; stroke-linecap:round;" d="M82.94 38.93c0.62 1.41 0.96 2.42 0.31 4.99c-5.88 23.39-16 43.33-38.61 53.33"></path>
<path style="fill:none; fill-opacity:0%; fill-rule:evenodd; stroke:#aaaaaa; stroke-opacity:100%; stroke-width: 1.5pt; stroke-linejoin:round; stroke-linecap:round;" d="M57.73 54c1.3 0 2.07 1.02 3.1 2.4c6.99 9.39 19.85 27.56 29.19 36.46c1.72 1.64 3.54 2.73 4.99 2.89"></path>

<path style="fill:none; fill-opacity:0%; fill-rule:evenodd; stroke:#000000; stroke-opacity:100%; stroke-width: 3pt; stroke-linejoin:round; stroke-linecap:round;" d="M33.74 13.5c0.68 0.48 1.79 2.33 1.79 3.29c0 3.77-0.02 8.97-0.09 11.68"></path>
<path style="fill:none; fill-opacity:0%; fill-rule:evenodd; stroke:#000000; stroke-opacity:100%; stroke-width: 3pt; stroke-linejoin:round; stroke-linecap:round;" d="M13.84 30.04c0.81 0.05 2.65 0.3 3.44 0.27c9.47-0.41 25.08-2.1 34.09-2.74c1.33-0.09 2.01 0.02 3.01 0.34"></path>
<text x="5" y="20" font-size="20" fill="#999999">3</text><path style="fill:none; fill-opacity:0%; fill-rule:evenodd; stroke:#CC0000; stroke-opacity:100%; stroke-width: 3pt; stroke-linejoin:round; stroke-linecap:round;" d="M27.48 36.01c0.26 0.74-0.01 2.47-0.63 3.68c-2.44 4.79-6.85 9.98-11.84 14.16"  ></path>








</g><g transform="scale(1.3761467889908 1.3761467889908) translate(327, 0)">
<path style="fill:none; fill-rule:evenodd; stroke:#aaaaaa;  stroke-width:1pt; stroke-linecap:round;" d="m 109 0 L 0 0 L 0 109 L 109 109 L 109 0"></path><path style="fill:none; fill-opacity:0%; fill-rule:evenodd; stroke:#aaaaaa; stroke-opacity:100%; stroke-width: 1.5pt; stroke-linejoin:round; stroke-linecap:round;" d="M33.74 13.5c0.68 0.48 1.79 2.33 1.79 3.29c0 3.77-0.02 8.97-0.09 11.68"></path>
<path style="fill:none; fill-opacity:0%; fill-rule:evenodd; stroke:#aaaaaa; stroke-opacity:100%; stroke-width: 1.5pt; stroke-linejoin:round; stroke-linecap:round;" d="M13.84 30.04c0.81 0.05 2.65 0.3 3.44 0.27c9.47-0.41 25.08-2.1 34.09-2.74c1.33-0.09 2.01 0.02 3.01 0.34"></path>
<path style="fill:none; fill-opacity:0%; fill-rule:evenodd; stroke:#aaaaaa; stroke-opacity:100%; stroke-width: 1.5pt; stroke-linejoin:round; stroke-linecap:round;" d="M27.48 36.01c0.26 0.74-0.01 2.47-0.63 3.68c-2.44 4.79-6.85 9.98-11.84 14.16"></path>
<path style="fill:none; fill-opacity:0%; fill-rule:evenodd; stroke:#aaaaaa; stroke-opacity:100%; stroke-width: 1.5pt; stroke-linejoin:round; stroke-linecap:round;" d="M40.92 34.36c4.46 3.22 8.15 6.93 10.38 10.83"></path>
<path style="fill:none; fill-opacity:0%; fill-rule:evenodd; stroke:#aaaaaa; stroke-opacity:100%; stroke-width: 1.5pt; stroke-linejoin:round; stroke-linecap:round;" d="M43.24 47.11c0.4 1.04 0.55 2.88-0.13 4.74C36.83 69.2 25.56 84.5 11.77 93.87"></path>
<path style="fill:none; fill-opacity:0%; fill-rule:evenodd; stroke:#aaaaaa; stroke-opacity:100%; stroke-width: 1.5pt; stroke-linejoin:round; stroke-linecap:round;" d="M23.38 57.1c7.32 2.48 17.31 12.32 23.54 22.2"></path>
<path style="fill:none; fill-opacity:0%; fill-rule:evenodd; stroke:#aaaaaa; stroke-opacity:100%; stroke-width: 1.5pt; stroke-linejoin:round; stroke-linecap:round;" d="M67.48 14.64c0.04 0.92 0.23 2.42-0.08 3.7c-2.26 9.33-7.34 25.14-15.15 36.4"></path>
<path style="fill:none; fill-opacity:0%; fill-rule:evenodd; stroke:#aaaaaa; stroke-opacity:100%; stroke-width: 1.5pt; stroke-linejoin:round; stroke-linecap:round;" d="M64.12 37.18c1.08 0.31 3.08 0 3.67-0.04c6.05-0.49 15.44-3.68 24.67-4.48c1.04-0.09 1.67-0.02 1.94 0.08"></path>
<path style="fill:none; fill-opacity:0%; fill-rule:evenodd; stroke:#aaaaaa; stroke-opacity:100%; stroke-width: 1.5pt; stroke-linejoin:round; stroke-linecap:round;" d="M82.94 38.93c0.62 1.41 0.96 2.42 0.31 4.99c-5.88 23.39-16 43.33-38.61 53.33"></path>
<path style="fill:none; fill-opacity:0%; fill-rule:evenodd; stroke:#aaaaaa; stroke-opacity:100%; stroke-width: 1.5pt; stroke-linejoin:round; stroke-linecap:round;" d="M57.73 54c1.3 0 2.07 1.02 3.1 2.4c6.99 9.39 19.85 27.56 29.19 36.46c1.72 1.64 3.54 2.73 4.99 2.89"></path>

<path style="fill:none; fill-opacity:0%; fill-rule:evenodd; stroke:#000000; stroke-opacity:100%; stroke-width: 3pt; stroke-linejoin:round; stroke-linecap:round;" d="M33.74 13.5c0.68 0.48 1.79 2.33 1.79 3.29c0 3.77-0.02 8.97-0.09 11.68"></path>
<path style="fill:none; fill-opacity:0%; fill-rule:evenodd; stroke:#000000; stroke-opacity:100%; stroke-width: 3pt; stroke-linejoin:round; stroke-linecap:round;" d="M13.84 30.04c0.81 0.05 2.65 0.3 3.44 0.27c9.47-0.41 25.08-2.1 34.09-2.74c1.33-0.09 2.01 0.02 3.01 0.34"></path>
<path style="fill:none; fill-opacity:0%; fill-rule:evenodd; stroke:#000000; stroke-opacity:100%; stroke-width: 3pt; stroke-linejoin:round; stroke-linecap:round;" d="M27.48 36.01c0.26 0.74-0.01 2.47-0.63 3.68c-2.44 4.79-6.85 9.98-11.84 14.16"></path>
<text x="5" y="20" font-size="20" fill="#999999">4</text><path style="fill:none; fill-opacity:0%; fill-rule:evenodd; stroke:#CC0000; stroke-opacity:100%; stroke-width: 3pt; stroke-linejoin:round; stroke-linecap:round;" d="M40.92 34.36c4.46 3.22 8.15 6.93 10.38 10.83"  ></path>







</g><g transform="scale(1.3761467889908 1.3761467889908) translate(436, 0)">
<path style="fill:none; fill-rule:evenodd; stroke:#aaaaaa;  stroke-width:1pt; stroke-linecap:round;" d="m 109 0 L 0 0 L 0 109 L 109 109 L 109 0"></path><path style="fill:none; fill-opacity:0%; fill-rule:evenodd; stroke:#aaaaaa; stroke-opacity:100%; stroke-width: 1.5pt; stroke-linejoin:round; stroke-linecap:round;" d="M33.74 13.5c0.68 0.48 1.79 2.33 1.79 3.29c0 3.77-0.02 8.97-0.09 11.68"></path>
<path style="fill:none; fill-opacity:0%; fill-rule:evenodd; stroke:#aaaaaa; stroke-opacity:100%; stroke-width: 1.5pt; stroke-linejoin:round; stroke-linecap:round;" d="M13.84 30.04c0.81 0.05 2.65 0.3 3.44 0.27c9.47-0.41 25.08-2.1 34.09-2.74c1.33-0.09 2.01 0.02 3.01 0.34"></path>
<path style="fill:none; fill-opacity:0%; fill-rule:evenodd; stroke:#aaaaaa; stroke-opacity:100%; stroke-width: 1.5pt; stroke-linejoin:round; stroke-linecap:round;" d="M27.48 36.01c0.26 0.74-0.01 2.47-0.63 3.68c-2.44 4.79-6.85 9.98-11.84 14.16"></path>
<path style="fill:none; fill-opacity:0%; fill-rule:evenodd; stroke:#aaaaaa; stroke-opacity:100%; stroke-width: 1.5pt; stroke-linejoin:round; stroke-linecap:round;" d="M40.92 34.36c4.46 3.22 8.15 6.93 10.38 10.83"></path>
<path style="fill:none; fill-opacity:0%; fill-rule:evenodd; stroke:#aaaaaa; stroke-opacity:100%; stroke-width: 1.5pt; stroke-linejoin:round; stroke-linecap:round;" d="M43.24 47.11c0.4 1.04 0.55 2.88-0.13 4.74C36.83 69.2 25.56 84.5 11.77 93.87"></path>
<path style="fill:none; fill-opacity:0%; fill-rule:evenodd; stroke:#aaaaaa; stroke-opacity:100%; stroke-width: 1.5pt; stroke-linejoin:round; stroke-linecap:round;" d="M23.38 57.1c7.32 2.48 17.31 12.32 23.54 22.2"></path>
<path style="fill:none; fill-opacity:0%; fill-rule:evenodd; stroke:#aaaaaa; stroke-opacity:100%; stroke-width: 1.5pt; stroke-linejoin:round; stroke-linecap:round;" d="M67.48 14.64c0.04 0.92 0.23 2.42-0.08 3.7c-2.26 9.33-7.34 25.14-15.15 36.4"></path>
<path style="fill:none; fill-opacity:0%; fill-rule:evenodd; stroke:#aaaaaa; stroke-opacity:100%; stroke-width: 1.5pt; stroke-linejoin:round; stroke-linecap:round;" d="M64.12 37.18c1.08 0.31 3.08 0 3.67-0.04c6.05-0.49 15.44-3.68 24.67-4.48c1.04-0.09 1.67-0.02 1.94 0.08"></path>
<path style="fill:none; fill-opacity:0%; fill-rule:evenodd; stroke:#aaaaaa; stroke-opacity:100%; stroke-width: 1.5pt; stroke-linejoin:round; stroke-linecap:round;" d="M82.94 38.93c0.62 1.41 0.96 2.42 0.31 4.99c-5.88 23.39-16 43.33-38.61 53.33"></path>
<path style="fill:none; fill-opacity:0%; fill-rule:evenodd; stroke:#aaaaaa; stroke-opacity:100%; stroke-width: 1.5pt; stroke-linejoin:round; stroke-linecap:round;" d="M57.73 54c1.3 0 2.07 1.02 3.1 2.4c6.99 9.39 19.85 27.56 29.19 36.46c1.72 1.64 3.54 2.73 4.99 2.89"></path>

<path style="fill:none; fill-opacity:0%; fill-rule:evenodd; stroke:#000000; stroke-opacity:100%; stroke-width: 3pt; stroke-linejoin:round; stroke-linecap:round;" d="M33.74 13.5c0.68 0.48 1.79 2.33 1.79 3.29c0 3.77-0.02 8.97-0.09 11.68"></path>
<path style="fill:none; fill-opacity:0%; fill-rule:evenodd; stroke:#000000; stroke-opacity:100%; stroke-width: 3pt; stroke-linejoin:round; stroke-linecap:round;" d="M13.84 30.04c0.81 0.05 2.65 0.3 3.44 0.27c9.47-0.41 25.08-2.1 34.09-2.74c1.33-0.09 2.01 0.02 3.01 0.34"></path>
<path style="fill:none; fill-opacity:0%; fill-rule:evenodd; stroke:#000000; stroke-opacity:100%; stroke-width: 3pt; stroke-linejoin:round; stroke-linecap:round;" d="M27.48 36.01c0.26 0.74-0.01 2.47-0.63 3.68c-2.44 4.79-6.85 9.98-11.84 14.16"></path>
<path style="fill:none; fill-opacity:0%; fill-rule:evenodd; stroke:#000000; stroke-opacity:100%; stroke-width: 3pt; stroke-linejoin:round; stroke-linecap:round;" d="M40.92 34.36c4.46 3.22 8.15 6.93 10.38 10.83"></path>
<text x="5" y="20" font-size="20" fill="#999999">5</text><path style="fill:none; fill-opacity:0%; fill-rule:evenodd; stroke:#CC0000; stroke-opacity:100%; stroke-width: 3pt; stroke-linejoin:round; stroke-linecap:round;" d="M43.24 47.11c0.4 1.04 0.55 2.88-0.13 4.74C36.83 69.2 25.56 84.5 11.77 93.87"  ></path>






</g><g transform="scale(1.3761467889908 1.3761467889908) translate(0, 109)">
<path style="fill:none; fill-rule:evenodd; stroke:#aaaaaa;  stroke-width:1pt; stroke-linecap:round;" d="m 109 0 L 0 0 L 0 109 L 109 109 L 109 0"></path><path style="fill:none; fill-opacity:0%; fill-rule:evenodd; stroke:#aaaaaa; stroke-opacity:100%; stroke-width: 1.5pt; stroke-linejoin:round; stroke-linecap:round;" d="M33.74 13.5c0.68 0.48 1.79 2.33 1.79 3.29c0 3.77-0.02 8.97-0.09 11.68"></path>
<path style="fill:none; fill-opacity:0%; fill-rule:evenodd; stroke:#aaaaaa; stroke-opacity:100%; stroke-width: 1.5pt; stroke-linejoin:round; stroke-linecap:round;" d="M13.84 30.04c0.81 0.05 2.65 0.3 3.44 0.27c9.47-0.41 25.08-2.1 34.09-2.74c1.33-0.09 2.01 0.02 3.01 0.34"></path>
<path style="fill:none; fill-opacity:0%; fill-rule:evenodd; stroke:#aaaaaa; stroke-opacity:100%; stroke-width: 1.5pt; stroke-linejoin:round; stroke-linecap:round;" d="M27.48 36.01c0.26 0.74-0.01 2.47-0.63 3.68c-2.44 4.79-6.85 9.98-11.84 14.16"></path>
<path style="fill:none; fill-opacity:0%; fill-rule:evenodd; stroke:#aaaaaa; stroke-opacity:100%; stroke-width: 1.5pt; stroke-linejoin:round; stroke-linecap:round;" d="M40.92 34.36c4.46 3.22 8.15 6.93 10.38 10.83"></path>
<path style="fill:none; fill-opacity:0%; fill-rule:evenodd; stroke:#aaaaaa; stroke-opacity:100%; stroke-width: 1.5pt; stroke-linejoin:round; stroke-linecap:round;" d="M43.24 47.11c0.4 1.04 0.55 2.88-0.13 4.74C36.83 69.2 25.56 84.5 11.77 93.87"></path>
<path style="fill:none; fill-opacity:0%; fill-rule:evenodd; stroke:#aaaaaa; stroke-opacity:100%; stroke-width: 1.5pt; stroke-linejoin:round; stroke-linecap:round;" d="M23.38 57.1c7.32 2.48 17.31 12.32 23.54 22.2"></path>
<path style="fill:none; fill-opacity:0%; fill-rule:evenodd; stroke:#aaaaaa; stroke-opacity:100%; stroke-width: 1.5pt; stroke-linejoin:round; stroke-linecap:round;" d="M67.48 14.64c0.04 0.92 0.23 2.42-0.08 3.7c-2.26 9.33-7.34 25.14-15.15 36.4"></path>
<path style="fill:none; fill-opacity:0%; fill-rule:evenodd; stroke:#aaaaaa; stroke-opacity:100%; stroke-width: 1.5pt; stroke-linejoin:round; stroke-linecap:round;" d="M64.12 37.18c1.08 0.31 3.08 0 3.67-0.04c6.05-0.49 15.44-3.68 24.67-4.48c1.04-0.09 1.67-0.02 1.94 0.08"></path>
<path style="fill:none; fill-opacity:0%; fill-rule:evenodd; stroke:#aaaaaa; stroke-opacity:100%; stroke-width: 1.5pt; stroke-linejoin:round; stroke-linecap:round;" d="M82.94 38.93c0.62 1.41 0.96 2.42 0.31 4.99c-5.88 23.39-16 43.33-38.61 53.33"></path>
<path style="fill:none; fill-opacity:0%; fill-rule:evenodd; stroke:#aaaaaa; stroke-opacity:100%; stroke-width: 1.5pt; stroke-linejoin:round; stroke-linecap:round;" d="M57.73 54c1.3 0 2.07 1.02 3.1 2.4c6.99 9.39 19.85 27.56 29.19 36.46c1.72 1.64 3.54 2.73 4.99 2.89"></path>

<path style="fill:none; fill-opacity:0%; fill-rule:evenodd; stroke:#000000; stroke-opacity:100%; stroke-width: 3pt; stroke-linejoin:round; stroke-linecap:round;" d="M33.74 13.5c0.68 0.48 1.79 2.33 1.79 3.29c0 3.77-0.02 8.97-0.09 11.68"></path>
<path style="fill:none; fill-opacity:0%; fill-rule:evenodd; stroke:#000000; stroke-opacity:100%; stroke-width: 3pt; stroke-linejoin:round; stroke-linecap:round;" d="M13.84 30.04c0.81 0.05 2.65 0.3 3.44 0.27c9.47-0.41 25.08-2.1 34.09-2.74c1.33-0.09 2.01 0.02 3.01 0.34"></path>
<path style="fill:none; fill-opacity:0%; fill-rule:evenodd; stroke:#000000; stroke-opacity:100%; stroke-width: 3pt; stroke-linejoin:round; stroke-linecap:round;" d="M27.48 36.01c0.26 0.74-0.01 2.47-0.63 3.68c-2.44 4.79-6.85 9.98-11.84 14.16"></path>
<path style="fill:none; fill-opacity:0%; fill-rule:evenodd; stroke:#000000; stroke-opacity:100%; stroke-width: 3pt; stroke-linejoin:round; stroke-linecap:round;" d="M40.92 34.36c4.46 3.22 8.15 6.93 10.38 10.83"></path>
<path style="fill:none; fill-opacity:0%; fill-rule:evenodd; stroke:#000000; stroke-opacity:100%; stroke-width: 3pt; stroke-linejoin:round; stroke-linecap:round;" d="M43.24 47.11c0.4 1.04 0.55 2.88-0.13 4.74C36.83 69.2 25.56 84.5 11.77 93.87"></path>
<text x="5" y="20" font-size="20" fill="#999999">6</text><path style="fill:none; fill-opacity:0%; fill-rule:evenodd; stroke:#CC0000; stroke-opacity:100%; stroke-width: 3pt; stroke-linejoin:round; stroke-linecap:round;" d="M23.38 57.1c7.32 2.48 17.31 12.32 23.54 22.2"  ></path>





</g><g transform="scale(1.3761467889908 1.3761467889908) translate(109, 109)">
<path style="fill:none; fill-rule:evenodd; stroke:#aaaaaa;  stroke-width:1pt; stroke-linecap:round;" d="m 109 0 L 0 0 L 0 109 L 109 109 L 109 0"></path><path style="fill:none; fill-opacity:0%; fill-rule:evenodd; stroke:#aaaaaa; stroke-opacity:100%; stroke-width: 1.5pt; stroke-linejoin:round; stroke-linecap:round;" d="M33.74 13.5c0.68 0.48 1.79 2.33 1.79 3.29c0 3.77-0.02 8.97-0.09 11.68"></path>
<path style="fill:none; fill-opacity:0%; fill-rule:evenodd; stroke:#aaaaaa; stroke-opacity:100%; stroke-width: 1.5pt; stroke-linejoin:round; stroke-linecap:round;" d="M13.84 30.04c0.81 0.05 2.65 0.3 3.44 0.27c9.47-0.41 25.08-2.1 34.09-2.74c1.33-0.09 2.01 0.02 3.01 0.34"></path>
<path style="fill:none; fill-opacity:0%; fill-rule:evenodd; stroke:#aaaaaa; stroke-opacity:100%; stroke-width: 1.5pt; stroke-linejoin:round; stroke-linecap:round;" d="M27.48 36.01c0.26 0.74-0.01 2.47-0.63 3.68c-2.44 4.79-6.85 9.98-11.84 14.16"></path>
<path style="fill:none; fill-opacity:0%; fill-rule:evenodd; stroke:#aaaaaa; stroke-opacity:100%; stroke-width: 1.5pt; stroke-linejoin:round; stroke-linecap:round;" d="M40.92 34.36c4.46 3.22 8.15 6.93 10.38 10.83"></path>
<path style="fill:none; fill-opacity:0%; fill-rule:evenodd; stroke:#aaaaaa; stroke-opacity:100%; stroke-width: 1.5pt; stroke-linejoin:round; stroke-linecap:round;" d="M43.24 47.11c0.4 1.04 0.55 2.88-0.13 4.74C36.83 69.2 25.56 84.5 11.77 93.87"></path>
<path style="fill:none; fill-opacity:0%; fill-rule:evenodd; stroke:#aaaaaa; stroke-opacity:100%; stroke-width: 1.5pt; stroke-linejoin:round; stroke-linecap:round;" d="M23.38 57.1c7.32 2.48 17.31 12.32 23.54 22.2"></path>
<path style="fill:none; fill-opacity:0%; fill-rule:evenodd; stroke:#aaaaaa; stroke-opacity:100%; stroke-width: 1.5pt; stroke-linejoin:round; stroke-linecap:round;" d="M67.48 14.64c0.04 0.92 0.23 2.42-0.08 3.7c-2.26 9.33-7.34 25.14-15.15 36.4"></path>
<path style="fill:none; fill-opacity:0%; fill-rule:evenodd; stroke:#aaaaaa; stroke-opacity:100%; stroke-width: 1.5pt; stroke-linejoin:round; stroke-linecap:round;" d="M64.12 37.18c1.08 0.31 3.08 0 3.67-0.04c6.05-0.49 15.44-3.68 24.67-4.48c1.04-0.09 1.67-0.02 1.94 0.08"></path>
<path style="fill:none; fill-opacity:0%; fill-rule:evenodd; stroke:#aaaaaa; stroke-opacity:100%; stroke-width: 1.5pt; stroke-linejoin:round; stroke-linecap:round;" d="M82.94 38.93c0.62 1.41 0.96 2.42 0.31 4.99c-5.88 23.39-16 43.33-38.61 53.33"></path>
<path style="fill:none; fill-opacity:0%; fill-rule:evenodd; stroke:#aaaaaa; stroke-opacity:100%; stroke-width: 1.5pt; stroke-linejoin:round; stroke-linecap:round;" d="M57.73 54c1.3 0 2.07 1.02 3.1 2.4c6.99 9.39 19.85 27.56 29.19 36.46c1.72 1.64 3.54 2.73 4.99 2.89"></path>

<path style="fill:none; fill-opacity:0%; fill-rule:evenodd; stroke:#000000; stroke-opacity:100%; stroke-width: 3pt; stroke-linejoin:round; stroke-linecap:round;" d="M33.74 13.5c0.68 0.48 1.79 2.33 1.79 3.29c0 3.77-0.02 8.97-0.09 11.68"></path>
<path style="fill:none; fill-opacity:0%; fill-rule:evenodd; stroke:#000000; stroke-opacity:100%; stroke-width: 3pt; stroke-linejoin:round; stroke-linecap:round;" d="M13.84 30.04c0.81 0.05 2.65 0.3 3.44 0.27c9.47-0.41 25.08-2.1 34.09-2.74c1.33-0.09 2.01 0.02 3.01 0.34"></path>
<path style="fill:none; fill-opacity:0%; fill-rule:evenodd; stroke:#000000; stroke-opacity:100%; stroke-width: 3pt; stroke-linejoin:round; stroke-linecap:round;" d="M27.48 36.01c0.26 0.74-0.01 2.47-0.63 3.68c-2.44 4.79-6.85 9.98-11.84 14.16"></path>
<path style="fill:none; fill-opacity:0%; fill-rule:evenodd; stroke:#000000; stroke-opacity:100%; stroke-width: 3pt; stroke-linejoin:round; stroke-linecap:round;" d="M40.92 34.36c4.46 3.22 8.15 6.93 10.38 10.83"></path>
<path style="fill:none; fill-opacity:0%; fill-rule:evenodd; stroke:#000000; stroke-opacity:100%; stroke-width: 3pt; stroke-linejoin:round; stroke-linecap:round;" d="M43.24 47.11c0.4 1.04 0.55 2.88-0.13 4.74C36.83 69.2 25.56 84.5 11.77 93.87"></path>
<path style="fill:none; fill-opacity:0%; fill-rule:evenodd; stroke:#000000; stroke-opacity:100%; stroke-width: 3pt; stroke-linejoin:round; stroke-linecap:round;" d="M23.38 57.1c7.32 2.48 17.31 12.32 23.54 22.2"></path>
<text x="5" y="20" font-size="20" fill="#999999">7</text><path style="fill:none; fill-opacity:0%; fill-rule:evenodd; stroke:#CC0000; stroke-opacity:100%; stroke-width: 3pt; stroke-linejoin:round; stroke-linecap:round;" d="M67.48 14.64c0.04 0.92 0.23 2.42-0.08 3.7c-2.26 9.33-7.34 25.14-15.15 36.4"  ></path>




</g><g transform="scale(1.3761467889908 1.3761467889908) translate(218, 109)">
<path style="fill:none; fill-rule:evenodd; stroke:#aaaaaa;  stroke-width:1pt; stroke-linecap:round;" d="m 109 0 L 0 0 L 0 109 L 109 109 L 109 0"></path><path style="fill:none; fill-opacity:0%; fill-rule:evenodd; stroke:#aaaaaa; stroke-opacity:100%; stroke-width: 1.5pt; stroke-linejoin:round; stroke-linecap:round;" d="M33.74 13.5c0.68 0.48 1.79 2.33 1.79 3.29c0 3.77-0.02 8.97-0.09 11.68"></path>
<path style="fill:none; fill-opacity:0%; fill-rule:evenodd; stroke:#aaaaaa; stroke-opacity:100%; stroke-width: 1.5pt; stroke-linejoin:round; stroke-linecap:round;" d="M13.84 30.04c0.81 0.05 2.65 0.3 3.44 0.27c9.47-0.41 25.08-2.1 34.09-2.74c1.33-0.09 2.01 0.02 3.01 0.34"></path>
<path style="fill:none; fill-opacity:0%; fill-rule:evenodd; stroke:#aaaaaa; stroke-opacity:100%; stroke-width: 1.5pt; stroke-linejoin:round; stroke-linecap:round;" d="M27.48 36.01c0.26 0.74-0.01 2.47-0.63 3.68c-2.44 4.79-6.85 9.98-11.84 14.16"></path>
<path style="fill:none; fill-opacity:0%; fill-rule:evenodd; stroke:#aaaaaa; stroke-opacity:100%; stroke-width: 1.5pt; stroke-linejoin:round; stroke-linecap:round;" d="M40.92 34.36c4.46 3.22 8.15 6.93 10.38 10.83"></path>
<path style="fill:none; fill-opacity:0%; fill-rule:evenodd; stroke:#aaaaaa; stroke-opacity:100%; stroke-width: 1.5pt; stroke-linejoin:round; stroke-linecap:round;" d="M43.24 47.11c0.4 1.04 0.55 2.88-0.13 4.74C36.83 69.2 25.56 84.5 11.77 93.87"></path>
<path style="fill:none; fill-opacity:0%; fill-rule:evenodd; stroke:#aaaaaa; stroke-opacity:100%; stroke-width: 1.5pt; stroke-linejoin:round; stroke-linecap:round;" d="M23.38 57.1c7.32 2.48 17.31 12.32 23.54 22.2"></path>
<path style="fill:none; fill-opacity:0%; fill-rule:evenodd; stroke:#aaaaaa; stroke-opacity:100%; stroke-width: 1.5pt; stroke-linejoin:round; stroke-linecap:round;" d="M67.48 14.64c0.04 0.92 0.23 2.42-0.08 3.7c-2.26 9.33-7.34 25.14-15.15 36.4"></path>
<path style="fill:none; fill-opacity:0%; fill-rule:evenodd; stroke:#aaaaaa; stroke-opacity:100%; stroke-width: 1.5pt; stroke-linejoin:round; stroke-linecap:round;" d="M64.12 37.18c1.08 0.31 3.08 0 3.67-0.04c6.05-0.49 15.44-3.68 24.67-4.48c1.04-0.09 1.67-0.02 1.94 0.08"></path>
<path style="fill:none; fill-opacity:0%; fill-rule:evenodd; stroke:#aaaaaa; stroke-opacity:100%; stroke-width: 1.5pt; stroke-linejoin:round; stroke-linecap:round;" d="M82.94 38.93c0.62 1.41 0.96 2.42 0.31 4.99c-5.88 23.39-16 43.33-38.61 53.33"></path>
<path style="fill:none; fill-opacity:0%; fill-rule:evenodd; stroke:#aaaaaa; stroke-opacity:100%; stroke-width: 1.5pt; stroke-linejoin:round; stroke-linecap:round;" d="M57.73 54c1.3 0 2.07 1.02 3.1 2.4c6.99 9.39 19.85 27.56 29.19 36.46c1.72 1.64 3.54 2.73 4.99 2.89"></path>

<path style="fill:none; fill-opacity:0%; fill-rule:evenodd; stroke:#000000; stroke-opacity:100%; stroke-width: 3pt; stroke-linejoin:round; stroke-linecap:round;" d="M33.74 13.5c0.68 0.48 1.79 2.33 1.79 3.29c0 3.77-0.02 8.97-0.09 11.68"></path>
<path style="fill:none; fill-opacity:0%; fill-rule:evenodd; stroke:#000000; stroke-opacity:100%; stroke-width: 3pt; stroke-linejoin:round; stroke-linecap:round;" d="M13.84 30.04c0.81 0.05 2.65 0.3 3.44 0.27c9.47-0.41 25.08-2.1 34.09-2.74c1.33-0.09 2.01 0.02 3.01 0.34"></path>
<path style="fill:none; fill-opacity:0%; fill-rule:evenodd; stroke:#000000; stroke-opacity:100%; stroke-width: 3pt; stroke-linejoin:round; stroke-linecap:round;" d="M27.48 36.01c0.26 0.74-0.01 2.47-0.63 3.68c-2.44 4.79-6.85 9.98-11.84 14.16"></path>
<path style="fill:none; fill-opacity:0%; fill-rule:evenodd; stroke:#000000; stroke-opacity:100%; stroke-width: 3pt; stroke-linejoin:round; stroke-linecap:round;" d="M40.92 34.36c4.46 3.22 8.15 6.93 10.38 10.83"></path>
<path style="fill:none; fill-opacity:0%; fill-rule:evenodd; stroke:#000000; stroke-opacity:100%; stroke-width: 3pt; stroke-linejoin:round; stroke-linecap:round;" d="M43.24 47.11c0.4 1.04 0.55 2.88-0.13 4.74C36.83 69.2 25.56 84.5 11.77 93.87"></path>
<path style="fill:none; fill-opacity:0%; fill-rule:evenodd; stroke:#000000; stroke-opacity:100%; stroke-width: 3pt; stroke-linejoin:round; stroke-linecap:round;" d="M23.38 57.1c7.32 2.48 17.31 12.32 23.54 22.2"></path>
<path style="fill:none; fill-opacity:0%; fill-rule:evenodd; stroke:#000000; stroke-opacity:100%; stroke-width: 3pt; stroke-linejoin:round; stroke-linecap:round;" d="M67.48 14.64c0.04 0.92 0.23 2.42-0.08 3.7c-2.26 9.33-7.34 25.14-15.15 36.4"></path>
<text x="5" y="20" font-size="20" fill="#999999">8</text><path style="fill:none; fill-opacity:0%; fill-rule:evenodd; stroke:#CC0000; stroke-opacity:100%; stroke-width: 3pt; stroke-linejoin:round; stroke-linecap:round;" d="M64.12 37.18c1.08 0.31 3.08 0 3.67-0.04c6.05-0.49 15.44-3.68 24.67-4.48c1.04-0.09 1.67-0.02 1.94 0.08"  ></path>



</g><g transform="scale(1.3761467889908 1.3761467889908) translate(327, 109)">
<path style="fill:none; fill-rule:evenodd; stroke:#aaaaaa;  stroke-width:1pt; stroke-linecap:round;" d="m 109 0 L 0 0 L 0 109 L 109 109 L 109 0"></path><path style="fill:none; fill-opacity:0%; fill-rule:evenodd; stroke:#aaaaaa; stroke-opacity:100%; stroke-width: 1.5pt; stroke-linejoin:round; stroke-linecap:round;" d="M33.74 13.5c0.68 0.48 1.79 2.33 1.79 3.29c0 3.77-0.02 8.97-0.09 11.68"></path>
<path style="fill:none; fill-opacity:0%; fill-rule:evenodd; stroke:#aaaaaa; stroke-opacity:100%; stroke-width: 1.5pt; stroke-linejoin:round; stroke-linecap:round;" d="M13.84 30.04c0.81 0.05 2.65 0.3 3.44 0.27c9.47-0.41 25.08-2.1 34.09-2.74c1.33-0.09 2.01 0.02 3.01 0.34"></path>
<path style="fill:none; fill-opacity:0%; fill-rule:evenodd; stroke:#aaaaaa; stroke-opacity:100%; stroke-width: 1.5pt; stroke-linejoin:round; stroke-linecap:round;" d="M27.48 36.01c0.26 0.74-0.01 2.47-0.63 3.68c-2.44 4.79-6.85 9.98-11.84 14.16"></path>
<path style="fill:none; fill-opacity:0%; fill-rule:evenodd; stroke:#aaaaaa; stroke-opacity:100%; stroke-width: 1.5pt; stroke-linejoin:round; stroke-linecap:round;" d="M40.92 34.36c4.46 3.22 8.15 6.93 10.38 10.83"></path>
<path style="fill:none; fill-opacity:0%; fill-rule:evenodd; stroke:#aaaaaa; stroke-opacity:100%; stroke-width: 1.5pt; stroke-linejoin:round; stroke-linecap:round;" d="M43.24 47.11c0.4 1.04 0.55 2.88-0.13 4.74C36.83 69.2 25.56 84.5 11.77 93.87"></path>
<path style="fill:none; fill-opacity:0%; fill-rule:evenodd; stroke:#aaaaaa; stroke-opacity:100%; stroke-width: 1.5pt; stroke-linejoin:round; stroke-linecap:round;" d="M23.38 57.1c7.32 2.48 17.31 12.32 23.54 22.2"></path>
<path style="fill:none; fill-opacity:0%; fill-rule:evenodd; stroke:#aaaaaa; stroke-opacity:100%; stroke-width: 1.5pt; stroke-linejoin:round; stroke-linecap:round;" d="M67.48 14.64c0.04 0.92 0.23 2.42-0.08 3.7c-2.26 9.33-7.34 25.14-15.15 36.4"></path>
<path style="fill:none; fill-opacity:0%; fill-rule:evenodd; stroke:#aaaaaa; stroke-opacity:100%; stroke-width: 1.5pt; stroke-linejoin:round; stroke-linecap:round;" d="M64.12 37.18c1.08 0.31 3.08 0 3.67-0.04c6.05-0.49 15.44-3.68 24.67-4.48c1.04-0.09 1.67-0.02 1.94 0.08"></path>
<path style="fill:none; fill-opacity:0%; fill-rule:evenodd; stroke:#aaaaaa; stroke-opacity:100%; stroke-width: 1.5pt; stroke-linejoin:round; stroke-linecap:round;" d="M82.94 38.93c0.62 1.41 0.96 2.42 0.31 4.99c-5.88 23.39-16 43.33-38.61 53.33"></path>
<path style="fill:none; fill-opacity:0%; fill-rule:evenodd; stroke:#aaaaaa; stroke-opacity:100%; stroke-width: 1.5pt; stroke-linejoin:round; stroke-linecap:round;" d="M57.73 54c1.3 0 2.07 1.02 3.1 2.4c6.99 9.39 19.85 27.56 29.19 36.46c1.72 1.64 3.54 2.73 4.99 2.89"></path>

<path style="fill:none; fill-opacity:0%; fill-rule:evenodd; stroke:#000000; stroke-opacity:100%; stroke-width: 3pt; stroke-linejoin:round; stroke-linecap:round;" d="M33.74 13.5c0.68 0.48 1.79 2.33 1.79 3.29c0 3.77-0.02 8.97-0.09 11.68"></path>
<path style="fill:none; fill-opacity:0%; fill-rule:evenodd; stroke:#000000; stroke-opacity:100%; stroke-width: 3pt; stroke-linejoin:round; stroke-linecap:round;" d="M13.84 30.04c0.81 0.05 2.65 0.3 3.44 0.27c9.47-0.41 25.08-2.1 34.09-2.74c1.33-0.09 2.01 0.02 3.01 0.34"></path>
<path style="fill:none; fill-opacity:0%; fill-rule:evenodd; stroke:#000000; stroke-opacity:100%; stroke-width: 3pt; stroke-linejoin:round; stroke-linecap:round;" d="M27.48 36.01c0.26 0.74-0.01 2.47-0.63 3.68c-2.44 4.79-6.85 9.98-11.84 14.16"></path>
<path style="fill:none; fill-opacity:0%; fill-rule:evenodd; stroke:#000000; stroke-opacity:100%; stroke-width: 3pt; stroke-linejoin:round; stroke-linecap:round;" d="M40.92 34.36c4.46 3.22 8.15 6.93 10.38 10.83"></path>
<path style="fill:none; fill-opacity:0%; fill-rule:evenodd; stroke:#000000; stroke-opacity:100%; stroke-width: 3pt; stroke-linejoin:round; stroke-linecap:round;" d="M43.24 47.11c0.4 1.04 0.55 2.88-0.13 4.74C36.83 69.2 25.56 84.5 11.77 93.87"></path>
<path style="fill:none; fill-opacity:0%; fill-rule:evenodd; stroke:#000000; stroke-opacity:100%; stroke-width: 3pt; stroke-linejoin:round; stroke-linecap:round;" d="M23.38 57.1c7.32 2.48 17.31 12.32 23.54 22.2"></path>
<path style="fill:none; fill-opacity:0%; fill-rule:evenodd; stroke:#000000; stroke-opacity:100%; stroke-width: 3pt; stroke-linejoin:round; stroke-linecap:round;" d="M67.48 14.64c0.04 0.92 0.23 2.42-0.08 3.7c-2.26 9.33-7.34 25.14-15.15 36.4"></path>
<path style="fill:none; fill-opacity:0%; fill-rule:evenodd; stroke:#000000; stroke-opacity:100%; stroke-width: 3pt; stroke-linejoin:round; stroke-linecap:round;" d="M64.12 37.18c1.08 0.31 3.08 0 3.67-0.04c6.05-0.49 15.44-3.68 24.67-4.48c1.04-0.09 1.67-0.02 1.94 0.08"></path>
<text x="5" y="20" font-size="20" fill="#999999">9</text><path style="fill:none; fill-opacity:0%; fill-rule:evenodd; stroke:#CC0000; stroke-opacity:100%; stroke-width: 3pt; stroke-linejoin:round; stroke-linecap:round;" d="M82.94 38.93c0.62 1.41 0.96 2.42 0.31 4.99c-5.88 23.39-16 43.33-38.61 53.33"  ></path>


</g><g transform="scale(1.3761467889908 1.3761467889908) translate(436, 109)">
<path style="fill:none; fill-rule:evenodd; stroke:#aaaaaa;  stroke-width:1pt; stroke-linecap:round;" d="m 109 0 L 0 0 L 0 109 L 109 109 L 109 0"></path><path style="fill:none; fill-opacity:0%; fill-rule:evenodd; stroke:#aaaaaa; stroke-opacity:100%; stroke-width: 1.5pt; stroke-linejoin:round; stroke-linecap:round;" d="M33.74 13.5c0.68 0.48 1.79 2.33 1.79 3.29c0 3.77-0.02 8.97-0.09 11.68"></path>
<path style="fill:none; fill-opacity:0%; fill-rule:evenodd; stroke:#aaaaaa; stroke-opacity:100%; stroke-width: 1.5pt; stroke-linejoin:round; stroke-linecap:round;" d="M13.84 30.04c0.81 0.05 2.65 0.3 3.44 0.27c9.47-0.41 25.08-2.1 34.09-2.74c1.33-0.09 2.01 0.02 3.01 0.34"></path>
<path style="fill:none; fill-opacity:0%; fill-rule:evenodd; stroke:#aaaaaa; stroke-opacity:100%; stroke-width: 1.5pt; stroke-linejoin:round; stroke-linecap:round;" d="M27.48 36.01c0.26 0.74-0.01 2.47-0.63 3.68c-2.44 4.79-6.85 9.98-11.84 14.16"></path>
<path style="fill:none; fill-opacity:0%; fill-rule:evenodd; stroke:#aaaaaa; stroke-opacity:100%; stroke-width: 1.5pt; stroke-linejoin:round; stroke-linecap:round;" d="M40.92 34.36c4.46 3.22 8.15 6.93 10.38 10.83"></path>
<path style="fill:none; fill-opacity:0%; fill-rule:evenodd; stroke:#aaaaaa; stroke-opacity:100%; stroke-width: 1.5pt; stroke-linejoin:round; stroke-linecap:round;" d="M43.24 47.11c0.4 1.04 0.55 2.88-0.13 4.74C36.83 69.2 25.56 84.5 11.77 93.87"></path>
<path style="fill:none; fill-opacity:0%; fill-rule:evenodd; stroke:#aaaaaa; stroke-opacity:100%; stroke-width: 1.5pt; stroke-linejoin:round; stroke-linecap:round;" d="M23.38 57.1c7.32 2.48 17.31 12.32 23.54 22.2"></path>
<path style="fill:none; fill-opacity:0%; fill-rule:evenodd; stroke:#aaaaaa; stroke-opacity:100%; stroke-width: 1.5pt; stroke-linejoin:round; stroke-linecap:round;" d="M67.48 14.64c0.04 0.92 0.23 2.42-0.08 3.7c-2.26 9.33-7.34 25.14-15.15 36.4"></path>
<path style="fill:none; fill-opacity:0%; fill-rule:evenodd; stroke:#aaaaaa; stroke-opacity:100%; stroke-width: 1.5pt; stroke-linejoin:round; stroke-linecap:round;" d="M64.12 37.18c1.08 0.31 3.08 0 3.67-0.04c6.05-0.49 15.44-3.68 24.67-4.48c1.04-0.09 1.67-0.02 1.94 0.08"></path>
<path style="fill:none; fill-opacity:0%; fill-rule:evenodd; stroke:#aaaaaa; stroke-opacity:100%; stroke-width: 1.5pt; stroke-linejoin:round; stroke-linecap:round;" d="M82.94 38.93c0.62 1.41 0.96 2.42 0.31 4.99c-5.88 23.39-16 43.33-38.61 53.33"></path>
<path style="fill:none; fill-opacity:0%; fill-rule:evenodd; stroke:#aaaaaa; stroke-opacity:100%; stroke-width: 1.5pt; stroke-linejoin:round; stroke-linecap:round;" d="M57.73 54c1.3 0 2.07 1.02 3.1 2.4c6.99 9.39 19.85 27.56 29.19 36.46c1.72 1.64 3.54 2.73 4.99 2.89"></path>

<path style="fill:none; fill-opacity:0%; fill-rule:evenodd; stroke:#000000; stroke-opacity:100%; stroke-width: 3pt; stroke-linejoin:round; stroke-linecap:round;" d="M33.74 13.5c0.68 0.48 1.79 2.33 1.79 3.29c0 3.77-0.02 8.97-0.09 11.68"></path>
<path style="fill:none; fill-opacity:0%; fill-rule:evenodd; stroke:#000000; stroke-opacity:100%; stroke-width: 3pt; stroke-linejoin:round; stroke-linecap:round;" d="M13.84 30.04c0.81 0.05 2.65 0.3 3.44 0.27c9.47-0.41 25.08-2.1 34.09-2.74c1.33-0.09 2.01 0.02 3.01 0.34"></path>
<path style="fill:none; fill-opacity:0%; fill-rule:evenodd; stroke:#000000; stroke-opacity:100%; stroke-width: 3pt; stroke-linejoin:round; stroke-linecap:round;" d="M27.48 36.01c0.26 0.74-0.01 2.47-0.63 3.68c-2.44 4.79-6.85 9.98-11.84 14.16"></path>
<path style="fill:none; fill-opacity:0%; fill-rule:evenodd; stroke:#000000; stroke-opacity:100%; stroke-width: 3pt; stroke-linejoin:round; stroke-linecap:round;" d="M40.92 34.36c4.46 3.22 8.15 6.93 10.38 10.83"></path>
<path style="fill:none; fill-opacity:0%; fill-rule:evenodd; stroke:#000000; stroke-opacity:100%; stroke-width: 3pt; stroke-linejoin:round; stroke-linecap:round;" d="M43.24 47.11c0.4 1.04 0.55 2.88-0.13 4.74C36.83 69.2 25.56 84.5 11.77 93.87"></path>
<path style="fill:none; fill-opacity:0%; fill-rule:evenodd; stroke:#000000; stroke-opacity:100%; stroke-width: 3pt; stroke-linejoin:round; stroke-linecap:round;" d="M23.38 57.1c7.32 2.48 17.31 12.32 23.54 22.2"></path>
<path style="fill:none; fill-opacity:0%; fill-rule:evenodd; stroke:#000000; stroke-opacity:100%; stroke-width: 3pt; stroke-linejoin:round; stroke-linecap:round;" d="M67.48 14.64c0.04 0.92 0.23 2.42-0.08 3.7c-2.26 9.33-7.34 25.14-15.15 36.4"></path>
<path style="fill:none; fill-opacity:0%; fill-rule:evenodd; stroke:#000000; stroke-opacity:100%; stroke-width: 3pt; stroke-linejoin:round; stroke-linecap:round;" d="M64.12 37.18c1.08 0.31 3.08 0 3.67-0.04c6.05-0.49 15.44-3.68 24.67-4.48c1.04-0.09 1.67-0.02 1.94 0.08"></path>
<path style="fill:none; fill-opacity:0%; fill-rule:evenodd; stroke:#000000; stroke-opacity:100%; stroke-width: 3pt; stroke-linejoin:round; stroke-linecap:round;" d="M82.94 38.93c0.62 1.41 0.96 2.42 0.31 4.99c-5.88 23.39-16 43.33-38.61 53.33"></path>
<text x="5" y="20" font-size="20" fill="#999999">10</text><path style="fill:none; fill-opacity:0%; fill-rule:evenodd; stroke:#CC0000; stroke-opacity:100%; stroke-width: 3pt; stroke-linejoin:round; stroke-linecap:round;" d="M57.73 54c1.3 0 2.07 1.02 3.1 2.4c6.99 9.39 19.85 27.56 29.19 36.46c1.72 1.64 3.54 2.73 4.99 2.89"  ></path>

</g>

</svg>  
          
