<?xml version="1.0" standalone="no"?>
<!DOCTYPE svg PUBLIC "-//W3C//DTD SVG 1.1//EN"   "http://www.w3.org/Graphics/SVG/1.1/DTD/svg11.dtd">
<svg width="751" height="151"  version="1.1" xmlns="http://www.w3.org/2000/svg">
  <defs>
    <marker id="Triangle" viewBox="0 0 10 10" refX="0" refY="5" markerUnits="strokeWidth" markerWidth="3" style="stroke-opacity:0%;fill:#aaaaaa;" markerHeight="2" orient="auto">
      <path d="M 0 0 L 10 5 L 0 10 z" />
    </marker>
    
    <marker id="Arrow" viewBox="0 0 10 10" refX="5" refY="5" markerUnits="strokeWidth" markerWidth="1.8" style="stroke-opacity:0%;fill:#770000;" markerHeight="2" orient="auto">
      <path d="M 0 4 L 6 4 L 4 1 L 10 5 L 4 9 L 6 6 L 0 6 z" />
        <circle cx="5" cy="5" r="5" />
      </marker>
    
    <marker id="TriangleRed" viewBox="0 0 10 10" refX="0" refY="5" markerUnits="strokeWidth" markerWidth="3" style="stroke-opacity:0%;fill:#CC0000;" markerHeight="2" orient="auto">
      <path d="M 0 0 L 10 5 L 0 10 z" />
    </marker>
    
    <marker id="ArrowRed" viewBox="0 0 10 10" refX="5" refY="5" markerUnits="strokeWidth" markerWidth="1.8" style="stroke-opacity:0%;fill:#CC0000;" markerHeight="2" orient="auto">
      <path d="M 0 4 L 6 4 L 4 1 L 10 5 L 4 9 L 6 6 L 0 6 z" />
        <circle cx="5" cy="5" r="5" />
      </marker>
    
  </defs>
  
  <path style="fill:#ffffff; fill-opacity:100%; fill-rule:evenodd; stroke-width:0;" d="M 0 0 L 751 0 L 751 151 L 0 151 L 0 0" />

  <g transform="scale(1.3761467889908 1.3761467889908) translate(0, 0)">
<path style="fill:none; fill-rule:evenodd; stroke:#aaaaaa;  stroke-width:1pt; stroke-linecap:round;" d="m 109 0 L 0 0 L 0 109 L 109 109 L 109 0"></path><path style="fill:none; fill-opacity:0%; fill-rule:evenodd; stroke:#aaaaaa; stroke-opacity:100%; stroke-width: 1.5pt; stroke-linejoin:round; stroke-linecap:round;" d="M52.86 12c1.07 1.07 1.73 2.5 1.73 4.41c0 4.84-0.15 7.84-0.15 11.65"></path>
<path style="fill:none; fill-opacity:0%; fill-rule:evenodd; stroke:#aaaaaa; stroke-opacity:100%; stroke-width: 1.5pt; stroke-linejoin:round; stroke-linecap:round;" d="M15.5 31.61c2.5 0.64 6.38 0.89 10.02 0.55C43.97 30.41 67.12 28 85.87 27.2c3.88-0.16 6.36 0.05 9.25 0.7"></path>
<path style="fill:none; fill-opacity:0%; fill-rule:evenodd; stroke:#aaaaaa; stroke-opacity:100%; stroke-width: 1.5pt; stroke-linejoin:round; stroke-linecap:round;" d="M53.48 47.2c6.64 1.17 13.39 0.92 18.51 0.41c3.41-0.34 5.18 1.75 4.67 4.36c-2.03 10.4-10.53 33.53-16.54 41.1c-4.79 6.04-7.12 1.17-10.09-2.07"></path>
<path style="fill:none; fill-opacity:0%; fill-rule:evenodd; stroke:#aaaaaa; stroke-opacity:100%; stroke-width: 1.5pt; stroke-linejoin:round; stroke-linecap:round;" d="M54.51 32.75c0.49 1.5 0.39 3.19-0.19 4.88C50.3 49.29 38.68 72.85 20.62 83.88"></path>

<text x="5" y="20" font-size="20" fill="#999999">1</text><path style="fill:none; fill-opacity:0%; fill-rule:evenodd; stroke:#CC0000; stroke-opacity:100%; stroke-width: 3pt; stroke-linejoin:round; stroke-linecap:round;" d="M52.86 12c1.07 1.07 1.73 2.5 1.73 4.41c0 4.84-0.15 7.84-0.15 11.65"  ></path>




</g><g transform="scale(1.3761467889908 1.3761467889908) translate(109, 0)">
<path style="fill:none; fill-rule:evenodd; stroke:#aaaaaa;  stroke-width:1pt; stroke-linecap:round;" d="m 109 0 L 0 0 L 0 109 L 109 109 L 109 0"></path><path style="fill:none; fill-opacity:0%; fill-rule:evenodd; stroke:#aaaaaa; stroke-opacity:100%; stroke-width: 1.5pt; stroke-linejoin:round; stroke-linecap:round;" d="M52.86 12c1.07 1.07 1.73 2.5 1.73 4.41c0 4.84-0.15 7.84-0.15 11.65"></path>
<path style="fill:none; fill-opacity:0%; fill-rule:evenodd; stroke:#aaaaaa; stroke-opacity:100%; stroke-width: 1.5pt; stroke-linejoin:round; stroke-linecap:round;" d="M15.5 31.61c2.5 0.64 6.38 0.89 10.02 0.55C43.97 30.41 67.12 28 85.87 27.2c3.88-0.16 6.36 0.05 9.25 0.7"></path>
<path style="fill:none; fill-opacity:0%; fill-rule:evenodd; stroke:#aaaaaa; stroke-opacity:100%; stroke-width: 1.5pt; stroke-linejoin:round; stroke-linecap:round;" d="M53.48 47.2c6.64 1.17 13.39 0.92 18.51 0.41c3.41-0.34 5.18 1.75 4.67 4.36c-2.03 10.4-10.53 33.53-16.54 41.1c-4.79 6.04-7.12 1.17-10.09-2.07"></path>
<path style="fill:none; fill-opacity:0%; fill-rule:evenodd; stroke:#aaaaaa; stroke-opacity:100%; stroke-width: 1.5pt; stroke-linejoin:round; stroke-linecap:round;" d="M54.51 32.75c0.49 1.5 0.39 3.19-0.19 4.88C50.3 49.29 38.68 72.85 20.62 83.88"></path>

<path style="fill:none; fill-opacity:0%; fill-rule:evenodd; stroke:#000000; stroke-opacity:100%; stroke-width: 3pt; stroke-linejoin:round; stroke-linecap:round;" d="M52.86 12c1.07 1.07 1.73 2.5 1.73 4.41c0 4.84-0.15 7.84-0.15 11.65"></path>
<text x="5" y="20" font-size="20" fill="#999999">2</text><path style="fill:none; fill-opacity:0%; fill-rule:evenodd; stroke:#CC0000; stroke-opacity:100%; stroke-width: 3pt; stroke-linejoin:round; stroke-linecap:round;" d="M15.5 31.61c2.5 0.64 6.38 0.89 10.02 0.55C43.97 30.41 67.12 28 85.87 27.2c3.88-0.16 6.36 0.05 9.25 0.7"  ></path>



</g><g transform="scale(1.3761467889908 1.3761467889908) translate(218, 0)">
<path style="fill:none; fill-rule:evenodd; stroke:#aaaaaa;  stroke-width:1pt; stroke-linecap:round;" d="m 109 0 L 0 0 L 0 109 L 109 109 L 109 0"></path><path style="fill:none; fill-opacity:0%; fill-rule:evenodd; stroke:#aaaaaa; stroke-opacity:100%; stroke-width: 1.5pt; stroke-linejoin:round; stroke-linecap:round;" d="M52.86 12c1.07 1.07 1.73 2.5 1.73 4.41c0 4.84-0.15 7.84-0.15 11.65"></path>
<path style="fill:none; fill-opacity:0%; fill-rule:evenodd; stroke:#aaaaaa; stroke-opacity:100%; stroke-width: 1.5pt; stroke-linejoin:round; stroke-linecap:round;" d="M15.5 31.61c2.5 0.64 6.38 0.89 10.02 0.55C43.97 30.41 67.12 28 85.87 27.2c3.88-0.16 6.36 0.05 9.25 0.7"></path>
<path style="fill:none; fill-opacity:0%; fill-rule:evenodd; stroke:#aaaaaa; stroke-opacity:100%; stroke-width: 1.5pt; stroke-linejoin:round; stroke-linecap:round;" d="M53.48 47.2c6.64 1.17 13.39 0.92 18.51 0.41c3.41-0.34 5.18 1.75 4.67 4.36c-2.03 10.4-10.53 33.53-16.54 41.1c-4.79 6.04-7.12 1.17-10.09-2.07"></path>
<path style="fill:none; fill-opacity:0%; fill-rule:evenodd; stroke:#aaaaaa; stroke-opacity:100%; stroke-width: 1.5pt; stroke-linejoin:round; stroke-linecap:round;" d="M54.51 32.75c0.49 1.5 0.39 3.19-0.19 4.88C50.3 49.29 38.68 72.85 20.62 83.88"></path>

<path style="fill:none; fill-opacity:0%; fill-rule:evenodd; stroke:#000000; stroke-opacity:100%; stroke-width: 3pt; stroke-linejoin:round; stroke-linecap:round;" d="M52.86 12c1.07 1.07 1.73 2.5 1.73 4.41c0 4.84-0.15 7.84-0.15 11.65"></path>
<path style="fill:none; fill-opacity:0%; fill-rule:evenodd; stroke:#000000; stroke-opacity:100%; stroke-width: 3pt; stroke-linejoin:round; stroke-linecap:round;" d="M15.5 31.61c2.5 0.64 6.38 0.89 10.02 0.55C43.97 30.41 67.12 28 85.87 27.2c3.88-0.16 6.36 0.05 9.25 0.7"></path>
<text x="5" y="20" font-size="20" fill="#999999">3</text><path style="fill:none; fill-opacity:0%; fill-rule:evenodd; stroke:#CC0000; stroke-opacity:100%; stroke-width: 3pt; stroke-linejoin:round; stroke-linecap:round;" d="M53.48 47.2c6.64 1.17 13.39 0.92 18.51 0.41c3.41-0.34 5.18 1.75 4.67 4.36c-2.03 10.4-10.53 33.53-16.54 41.1c-4.79 6.04-7.12 1.17-10.09-2.07"  ></path>


</g><g transform="scale(1.3761467889908 1.3761467889908) translate(327, 0)">
<path style="fill:none; fill-rule:evenodd; stroke:#aaaaaa;  stroke-width:1pt; stroke-linecap:round;" d="m 109 0 L 0 0 L 0 109 L 109 109 L 109 0"></path><path style="fill:none; fill-opacity:0%; fill-rule:evenodd; stroke:#aaaaaa; stroke-opacity:100%; stroke-width: 1.5pt; stroke-linejoin:round; stroke-linecap:round;" d="M52.86 12c1.07 1.07 1.73 2.5 1.73 4.41c0 4.84-0.15 7.84-0.15 11.65"></path>
<path style="fill:none; fill-opacity:0%; fill-rule:evenodd; stroke:#aaaaaa; stroke-opacity:100%; stroke-width: 1.5pt; stroke-linejoin:round; stroke-linecap:round;" d="M15.5 31.61c2.5 0.64 6.38 0.89 10.02 0.55C43.97 30.41 67.12 28 85.87 27.2c3.88-0.16 6.36 0.05 9.25 0.7"></path>
<path style="fill:none; fill-opacity:0%; fill-rule:evenodd; stroke:#aaaaaa; stroke-opacity:100%; stroke-width: 1.5pt; stroke-linejoin:round; stroke-linecap:round;" d="M53.48 47.2c6.64 1.17 13.39 0.92 18.51 0.41c3.41-0.34 5.18 1.75 4.67 4.36c-2.03 10.4-10.53 33.53-16.54 41.1c-4.79 6.04-7.12 1.17-10.09-2.07"></path>
<path style="fill:none; fill-opacity:0%; fill-rule:evenodd; stroke:#aaaaaa; stroke-opacity:100%; stroke-width: 1.5pt; stroke-linejoin:round; stroke-linecap:round;" d="M54.51 32.75c0.49 1.5 0.39 3.19-0.19 4.88C50.3 49.29 38.68 72.85 20.62 83.88"></path>

<path style="fill:none; fill-opacity:0%; fill-rule:evenodd; stroke:#000000; stroke-opacity:100%; stroke-width: 3pt; stroke-linejoin:round; stroke-linecap:round;" d="M52.86 12c1.07 1.07 1.73 2.5 1.73 4.41c0 4.84-0.15 7.84-0.15 11.65"></path>
<path style="fill:none; fill-opacity:0%; fill-rule:evenodd; stroke:#000000; stroke-opacity:100%; stroke-width: 3pt; stroke-linejoin:round; stroke-linecap:round;" d="M15.5 31.61c2.5 0.64 6.38 0.89 10.02 0.55C43.97 30.41 67.12 28 85.87 27.2c3.88-0.16 6.36 0.05 9.25 0.7"></path>
<path style="fill:none; fill-opacity:0%; fill-rule:evenodd; stroke:#000000; stroke-opacity:100%; stroke-width: 3pt; stroke-linejoin:round; stroke-linecap:round;" d="M53.48 47.2c6.64 1.17 13.39 0.92 18.51 0.41c3.41-0.34 5.18 1.75 4.67 4.36c-2.03 10.4-10.53 33.53-16.54 41.1c-4.79 6.04-7.12 1.17-10.09-2.07"></path>
<text x="5" y="20" font-size="20" fill="#999999">4</text><path style="fill:none; fill-opacity:0%; fill-rule:evenodd; stroke:#CC0000; stroke-opacity:100%; stroke-width: 3pt; stroke-linejoin:round; stroke-linecap:round;" d="M54.51 32.75c0.49 1.5 0.39 3.19-0.19 4.88C50.3 49.29 38.68 72.85 20.62 83.88"  ></path>

</g>

</svg>  
          
