<?xml version="1.0" standalone="no"?>
<!DOCTYPE svg PUBLIC "-//W3C//DTD SVG 1.1//EN"   "http://www.w3.org/Graphics/SVG/1.1/DTD/svg11.dtd">
<svg width="751" height="151"  version="1.1" xmlns="http://www.w3.org/2000/svg">
  <defs>
    <marker id="Triangle" viewBox="0 0 10 10" refX="0" refY="5" markerUnits="strokeWidth" markerWidth="3" style="stroke-opacity:0%;fill:#aaaaaa;" markerHeight="2" orient="auto">
      <path d="M 0 0 L 10 5 L 0 10 z" />
    </marker>
    
    <marker id="Arrow" viewBox="0 0 10 10" refX="5" refY="5" markerUnits="strokeWidth" markerWidth="1.8" style="stroke-opacity:0%;fill:#770000;" markerHeight="2" orient="auto">
      <path d="M 0 4 L 6 4 L 4 1 L 10 5 L 4 9 L 6 6 L 0 6 z" />
        <circle cx="5" cy="5" r="5" />
      </marker>
    
    <marker id="TriangleRed" viewBox="0 0 10 10" refX="0" refY="5" markerUnits="strokeWidth" markerWidth="3" style="stroke-opacity:0%;fill:#CC0000;" markerHeight="2" orient="auto">
      <path d="M 0 0 L 10 5 L 0 10 z" />
    </marker>
    
    <marker id="ArrowRed" viewBox="0 0 10 10" refX="5" refY="5" markerUnits="strokeWidth" markerWidth="1.8" style="stroke-opacity:0%;fill:#CC0000;" markerHeight="2" orient="auto">
      <path d="M 0 4 L 6 4 L 4 1 L 10 5 L 4 9 L 6 6 L 0 6 z" />
        <circle cx="5" cy="5" r="5" />
      </marker>
    
  </defs>
  
  <path style="fill:#ffffff; fill-opacity:100%; fill-rule:evenodd; stroke-width:0;" d="M 0 0 L 751 0 L 751 151 L 0 151 L 0 0" />

  <g transform="scale(1.3761467889908 1.3761467889908) translate(0, 0)">
<path style="fill:none; fill-rule:evenodd; stroke:#aaaaaa;  stroke-width:1pt; stroke-linecap:round;" d="m 109 0 L 0 0 L 0 109 L 109 109 L 109 0"></path><path style="fill:none; fill-opacity:0%; fill-rule:evenodd; stroke:#aaaaaa; stroke-opacity:100%; stroke-width: 1.5pt; stroke-linejoin:round; stroke-linecap:round;" d="M21.44 30.04c0.44 0.82 0.45 1.39 0.7 2.43c2 8.53 2.87 36.08 4.11 51.99"></path>
<path style="fill:none; fill-opacity:0%; fill-rule:evenodd; stroke:#aaaaaa; stroke-opacity:100%; stroke-width: 1.5pt; stroke-linejoin:round; stroke-linecap:round;" d="M24 32.69c17.25-1.69 42.25-3.44 57.49-4.1c4.29-0.18 6.41 1.68 6.19 4.03c-0.8 8.6-4.44 35.13-8.21 49.39"></path>
<path style="fill:none; fill-opacity:0%; fill-rule:evenodd; stroke:#aaaaaa; stroke-opacity:100%; stroke-width: 1.5pt; stroke-linejoin:round; stroke-linecap:round;" d="M24.89 55.75c6.11-0.75 31.86-2.5 46.38-3.6c3.09-0.24 5.27 0.33 6.05 0.27"></path>
<path style="fill:none; fill-opacity:0%; fill-rule:evenodd; stroke:#aaaaaa; stroke-opacity:100%; stroke-width: 1.5pt; stroke-linejoin:round; stroke-linecap:round;" d="M26.54 81.14C39 80.75 63.75 79 79.48 78.41"></path>

<text x="5" y="20" font-size="20" fill="#999999">1</text><path style="fill:none; fill-opacity:0%; fill-rule:evenodd; stroke:#CC0000; stroke-opacity:100%; stroke-width: 3pt; stroke-linejoin:round; stroke-linecap:round;" d="M21.44 30.04c0.44 0.82 0.45 1.39 0.7 2.43c2 8.53 2.87 36.08 4.11 51.99" marker-end="url(#TriangleRed)" marker-start="url(#ArrowRed)" ></path>




</g><g transform="scale(1.3761467889908 1.3761467889908) translate(109, 0)">
<path style="fill:none; fill-rule:evenodd; stroke:#aaaaaa;  stroke-width:1pt; stroke-linecap:round;" d="m 109 0 L 0 0 L 0 109 L 109 109 L 109 0"></path><path style="fill:none; fill-opacity:0%; fill-rule:evenodd; stroke:#aaaaaa; stroke-opacity:100%; stroke-width: 1.5pt; stroke-linejoin:round; stroke-linecap:round;" d="M21.44 30.04c0.44 0.82 0.45 1.39 0.7 2.43c2 8.53 2.87 36.08 4.11 51.99"></path>
<path style="fill:none; fill-opacity:0%; fill-rule:evenodd; stroke:#aaaaaa; stroke-opacity:100%; stroke-width: 1.5pt; stroke-linejoin:round; stroke-linecap:round;" d="M24 32.69c17.25-1.69 42.25-3.44 57.49-4.1c4.29-0.18 6.41 1.68 6.19 4.03c-0.8 8.6-4.44 35.13-8.21 49.39"></path>
<path style="fill:none; fill-opacity:0%; fill-rule:evenodd; stroke:#aaaaaa; stroke-opacity:100%; stroke-width: 1.5pt; stroke-linejoin:round; stroke-linecap:round;" d="M24.89 55.75c6.11-0.75 31.86-2.5 46.38-3.6c3.09-0.24 5.27 0.33 6.05 0.27"></path>
<path style="fill:none; fill-opacity:0%; fill-rule:evenodd; stroke:#aaaaaa; stroke-opacity:100%; stroke-width: 1.5pt; stroke-linejoin:round; stroke-linecap:round;" d="M26.54 81.14C39 80.75 63.75 79 79.48 78.41"></path>

<path style="fill:none; fill-opacity:0%; fill-rule:evenodd; stroke:#000000; stroke-opacity:100%; stroke-width: 3pt; stroke-linejoin:round; stroke-linecap:round;" d="M21.44 30.04c0.44 0.82 0.45 1.39 0.7 2.43c2 8.53 2.87 36.08 4.11 51.99"></path>
<text x="5" y="20" font-size="20" fill="#999999">2</text><path style="fill:none; fill-opacity:0%; fill-rule:evenodd; stroke:#CC0000; stroke-opacity:100%; stroke-width: 3pt; stroke-linejoin:round; stroke-linecap:round;" d="M24 32.69c17.25-1.69 42.25-3.44 57.49-4.1c4.29-0.18 6.41 1.68 6.19 4.03c-0.8 8.6-4.44 35.13-8.21 49.39" marker-end="url(#TriangleRed)" marker-start="url(#ArrowRed)" ></path>



</g><g transform="scale(1.3761467889908 1.3761467889908) translate(218, 0)">
<path style="fill:none; fill-rule:evenodd; stroke:#aaaaaa;  stroke-width:1pt; stroke-linecap:round;" d="m 109 0 L 0 0 L 0 109 L 109 109 L 109 0"></path><path style="fill:none; fill-opacity:0%; fill-rule:evenodd; stroke:#aaaaaa; stroke-opacity:100%; stroke-width: 1.5pt; stroke-linejoin:round; stroke-linecap:round;" d="M21.44 30.04c0.44 0.82 0.45 1.39 0.7 2.43c2 8.53 2.87 36.08 4.11 51.99"></path>
<path style="fill:none; fill-opacity:0%; fill-rule:evenodd; stroke:#aaaaaa; stroke-opacity:100%; stroke-width: 1.5pt; stroke-linejoin:round; stroke-linecap:round;" d="M24 32.69c17.25-1.69 42.25-3.44 57.49-4.1c4.29-0.18 6.41 1.68 6.19 4.03c-0.8 8.6-4.44 35.13-8.21 49.39"></path>
<path style="fill:none; fill-opacity:0%; fill-rule:evenodd; stroke:#aaaaaa; stroke-opacity:100%; stroke-width: 1.5pt; stroke-linejoin:round; stroke-linecap:round;" d="M24.89 55.75c6.11-0.75 31.86-2.5 46.38-3.6c3.09-0.24 5.27 0.33 6.05 0.27"></path>
<path style="fill:none; fill-opacity:0%; fill-rule:evenodd; stroke:#aaaaaa; stroke-opacity:100%; stroke-width: 1.5pt; stroke-linejoin:round; stroke-linecap:round;" d="M26.54 81.14C39 80.75 63.75 79 79.48 78.41"></path>

<path style="fill:none; fill-opacity:0%; fill-rule:evenodd; stroke:#000000; stroke-opacity:100%; stroke-width: 3pt; stroke-linejoin:round; stroke-linecap:round;" d="M21.44 30.04c0.44 0.82 0.45 1.39 0.7 2.43c2 8.53 2.87 36.08 4.11 51.99"></path>
<path style="fill:none; fill-opacity:0%; fill-rule:evenodd; stroke:#000000; stroke-opacity:100%; stroke-width: 3pt; stroke-linejoin:round; stroke-linecap:round;" d="M24 32.69c17.25-1.69 42.25-3.44 57.49-4.1c4.29-0.18 6.41 1.68 6.19 4.03c-0.8 8.6-4.44 35.13-8.21 49.39"></path>
<text x="5" y="20" font-size="20" fill="#999999">3</text><path style="fill:none; fill-opacity:0%; fill-rule:evenodd; stroke:#CC0000; stroke-opacity:100%; stroke-width: 3pt; stroke-linejoin:round; stroke-linecap:round;" d="M24.89 55.75c6.11-0.75 31.86-2.5 46.38-3.6c3.09-0.24 5.27 0.33 6.05 0.27" marker-end="url(#TriangleRed)" marker-start="url(#ArrowRed)" ></path>


</g><g transform="scale(1.3761467889908 1.3761467889908) translate(327, 0)">
<path style="fill:none; fill-rule:evenodd; stroke:#aaaaaa;  stroke-width:1pt; stroke-linecap:round;" d="m 109 0 L 0 0 L 0 109 L 109 109 L 109 0"></path><path style="fill:none; fill-opacity:0%; fill-rule:evenodd; stroke:#aaaaaa; stroke-opacity:100%; stroke-width: 1.5pt; stroke-linejoin:round; stroke-linecap:round;" d="M21.44 30.04c0.44 0.82 0.45 1.39 0.7 2.43c2 8.53 2.87 36.08 4.11 51.99"></path>
<path style="fill:none; fill-opacity:0%; fill-rule:evenodd; stroke:#aaaaaa; stroke-opacity:100%; stroke-width: 1.5pt; stroke-linejoin:round; stroke-linecap:round;" d="M24 32.69c17.25-1.69 42.25-3.44 57.49-4.1c4.29-0.18 6.41 1.68 6.19 4.03c-0.8 8.6-4.44 35.13-8.21 49.39"></path>
<path style="fill:none; fill-opacity:0%; fill-rule:evenodd; stroke:#aaaaaa; stroke-opacity:100%; stroke-width: 1.5pt; stroke-linejoin:round; stroke-linecap:round;" d="M24.89 55.75c6.11-0.75 31.86-2.5 46.38-3.6c3.09-0.24 5.27 0.33 6.05 0.27"></path>
<path style="fill:none; fill-opacity:0%; fill-rule:evenodd; stroke:#aaaaaa; stroke-opacity:100%; stroke-width: 1.5pt; stroke-linejoin:round; stroke-linecap:round;" d="M26.54 81.14C39 80.75 63.75 79 79.48 78.41"></path>

<path style="fill:none; fill-opacity:0%; fill-rule:evenodd; stroke:#000000; stroke-opacity:100%; stroke-width: 3pt; stroke-linejoin:round; stroke-linecap:round;" d="M21.44 30.04c0.44 0.82 0.45 1.39 0.7 2.43c2 8.53 2.87 36.08 4.11 51.99"></path>
<path style="fill:none; fill-opacity:0%; fill-rule:evenodd; stroke:#000000; stroke-opacity:100%; stroke-width: 3pt; stroke-linejoin:round; stroke-linecap:round;" d="M24 32.69c17.25-1.69 42.25-3.44 57.49-4.1c4.29-0.18 6.41 1.68 6.19 4.03c-0.8 8.6-4.44 35.13-8.21 49.39"></path>
<path style="fill:none; fill-opacity:0%; fill-rule:evenodd; stroke:#000000; stroke-opacity:100%; stroke-width: 3pt; stroke-linejoin:round; stroke-linecap:round;" d="M24.89 55.75c6.11-0.75 31.86-2.5 46.38-3.6c3.09-0.24 5.27 0.33 6.05 0.27"></path>
<text x="5" y="20" font-size="20" fill="#999999">4</text><path style="fill:none; fill-opacity:0%; fill-rule:evenodd; stroke:#CC0000; stroke-opacity:100%; stroke-width: 3pt; stroke-linejoin:round; stroke-linecap:round;" d="M26.54 81.14C39 80.75 63.75 79 79.48 78.41" marker-end="url(#TriangleRed)" marker-start="url(#ArrowRed)" ></path>

</g>

</svg>  
          
