<?xml version="1.0" standalone="no"?>
<!DOCTYPE svg PUBLIC "-//W3C//DTD SVG 1.1//EN"   "http://www.w3.org/Graphics/SVG/1.1/DTD/svg11.dtd">
<svg width="751" height="301"  version="1.1" xmlns="http://www.w3.org/2000/svg">
  <defs>
    <marker id="Triangle" viewBox="0 0 10 10" refX="0" refY="5" markerUnits="strokeWidth" markerWidth="3" style="stroke-opacity:0%;fill:#aaaaaa;" markerHeight="2" orient="auto">
      <path d="M 0 0 L 10 5 L 0 10 z" />
    </marker>
    
    <marker id="Arrow" viewBox="0 0 10 10" refX="5" refY="5" markerUnits="strokeWidth" markerWidth="1.8" style="stroke-opacity:0%;fill:#770000;" markerHeight="2" orient="auto">
      <path d="M 0 4 L 6 4 L 4 1 L 10 5 L 4 9 L 6 6 L 0 6 z" />
        <circle cx="5" cy="5" r="5" />
      </marker>
    
    <marker id="TriangleRed" viewBox="0 0 10 10" refX="0" refY="5" markerUnits="strokeWidth" markerWidth="3" style="stroke-opacity:0%;fill:#CC0000;" markerHeight="2" orient="auto">
      <path d="M 0 0 L 10 5 L 0 10 z" />
    </marker>
    
    <marker id="ArrowRed" viewBox="0 0 10 10" refX="5" refY="5" markerUnits="strokeWidth" markerWidth="1.8" style="stroke-opacity:0%;fill:#CC0000;" markerHeight="2" orient="auto">
      <path d="M 0 4 L 6 4 L 4 1 L 10 5 L 4 9 L 6 6 L 0 6 z" />
        <circle cx="5" cy="5" r="5" />
      </marker>
    
  </defs>
  
  <path style="fill:#ffffff; fill-opacity:100%; fill-rule:evenodd; stroke-width:0;" d="M 0 0 L 751 0 L 751 301 L 0 301 L 0 0" />

  <g transform="scale(1.3761467889908 1.3761467889908) translate(0, 0)">
<path style="fill:none; fill-rule:evenodd; stroke:#aaaaaa;  stroke-width:1pt; stroke-linecap:round;" d="m 109 0 L 0 0 L 0 109 L 109 109 L 109 0"></path><path style="fill:none; fill-opacity:0%; fill-rule:evenodd; stroke:#aaaaaa; stroke-opacity:100%; stroke-width: 1.5pt; stroke-linejoin:round; stroke-linecap:round;" d="M11.03 39.22c2.35 0.66 4.75 0.42 6.37 0.26c5.73-0.56 16.78-2.44 22.89-3.5c0.95-0.16 2.83-0.48 3.73-0.11"></path>
<path style="fill:none; fill-opacity:0%; fill-rule:evenodd; stroke:#aaaaaa; stroke-opacity:100%; stroke-width: 1.5pt; stroke-linejoin:round; stroke-linecap:round;" d="M28.86 14.5c1.26 1.26 1.79 2.62 1.79 4.42c0 6.22-0.01 49.75-0.02 68.83c0 3.41 0 6.02 0 7.5"></path>
<path style="fill:none; fill-opacity:0%; fill-rule:evenodd; stroke:#aaaaaa; stroke-opacity:100%; stroke-width: 1.5pt; stroke-linejoin:round; stroke-linecap:round;" d="M29.69 39.53c0 1.72-1.34 4.73-1.97 6.21c-4.78 11.18-8.29 17.22-16.36 28.35"></path>
<path style="fill:none; fill-opacity:0%; fill-rule:evenodd; stroke:#aaaaaa; stroke-opacity:100%; stroke-width: 1.5pt; stroke-linejoin:round; stroke-linecap:round;" d="M33.38 49.62c2.56 1.68 6.1 7.41 8.26 10.66"></path>
<path style="fill:none; fill-opacity:0%; fill-rule:evenodd; stroke:#aaaaaa; stroke-opacity:100%; stroke-width: 1.5pt; stroke-linejoin:round; stroke-linecap:round;" d="M49.13 21.86c2.62 0.77 5.48 0.69 7.89 0.48c9.43-0.81 19.87-2.15 29.61-3.27c2.44-0.28 5.37-0.56 7.43-0.13"></path>
<path style="fill:none; fill-opacity:0%; fill-rule:evenodd; stroke:#aaaaaa; stroke-opacity:100%; stroke-width: 1.5pt; stroke-linejoin:round; stroke-linecap:round;" d="M82.05 31.29c0.36 1.1 0.29 2.47-0.32 4.39c-4.48 14.2-10.1 28.45-22.12 40.34"></path>
<path style="fill:none; fill-opacity:0%; fill-rule:evenodd; stroke:#aaaaaa; stroke-opacity:100%; stroke-width: 1.5pt; stroke-linejoin:round; stroke-linecap:round;" d="M60.04 41.8c9.75 4.84 22.03 21.62 26.91 31.86"></path>
<path style="fill:none; fill-opacity:0%; fill-rule:evenodd; stroke:#aaaaaa; stroke-opacity:100%; stroke-width: 1.5pt; stroke-linejoin:round; stroke-linecap:round;" d="M50.38 22.77c1.05 1.05 1.25 2.23 1.25 3.98c0 13.6 0 50.33 0 59.25c0 3.44 0.02 4.86 3.74 4.11c15.38-3.11 27.01-3.73 35.5-3.56c2.31 0.05 5.27 0.73 6.69 1.2"></path>

<text x="5" y="20" font-size="20" fill="#999999">1</text><path style="fill:none; fill-opacity:0%; fill-rule:evenodd; stroke:#CC0000; stroke-opacity:100%; stroke-width: 3pt; stroke-linejoin:round; stroke-linecap:round;" d="M11.03 39.22c2.35 0.66 4.75 0.42 6.37 0.26c5.73-0.56 16.78-2.44 22.89-3.5c0.95-0.16 2.83-0.48 3.73-0.11"  ></path>








</g><g transform="scale(1.3761467889908 1.3761467889908) translate(109, 0)">
<path style="fill:none; fill-rule:evenodd; stroke:#aaaaaa;  stroke-width:1pt; stroke-linecap:round;" d="m 109 0 L 0 0 L 0 109 L 109 109 L 109 0"></path><path style="fill:none; fill-opacity:0%; fill-rule:evenodd; stroke:#aaaaaa; stroke-opacity:100%; stroke-width: 1.5pt; stroke-linejoin:round; stroke-linecap:round;" d="M11.03 39.22c2.35 0.66 4.75 0.42 6.37 0.26c5.73-0.56 16.78-2.44 22.89-3.5c0.95-0.16 2.83-0.48 3.73-0.11"></path>
<path style="fill:none; fill-opacity:0%; fill-rule:evenodd; stroke:#aaaaaa; stroke-opacity:100%; stroke-width: 1.5pt; stroke-linejoin:round; stroke-linecap:round;" d="M28.86 14.5c1.26 1.26 1.79 2.62 1.79 4.42c0 6.22-0.01 49.75-0.02 68.83c0 3.41 0 6.02 0 7.5"></path>
<path style="fill:none; fill-opacity:0%; fill-rule:evenodd; stroke:#aaaaaa; stroke-opacity:100%; stroke-width: 1.5pt; stroke-linejoin:round; stroke-linecap:round;" d="M29.69 39.53c0 1.72-1.34 4.73-1.97 6.21c-4.78 11.18-8.29 17.22-16.36 28.35"></path>
<path style="fill:none; fill-opacity:0%; fill-rule:evenodd; stroke:#aaaaaa; stroke-opacity:100%; stroke-width: 1.5pt; stroke-linejoin:round; stroke-linecap:round;" d="M33.38 49.62c2.56 1.68 6.1 7.41 8.26 10.66"></path>
<path style="fill:none; fill-opacity:0%; fill-rule:evenodd; stroke:#aaaaaa; stroke-opacity:100%; stroke-width: 1.5pt; stroke-linejoin:round; stroke-linecap:round;" d="M49.13 21.86c2.62 0.77 5.48 0.69 7.89 0.48c9.43-0.81 19.87-2.15 29.61-3.27c2.44-0.28 5.37-0.56 7.43-0.13"></path>
<path style="fill:none; fill-opacity:0%; fill-rule:evenodd; stroke:#aaaaaa; stroke-opacity:100%; stroke-width: 1.5pt; stroke-linejoin:round; stroke-linecap:round;" d="M82.05 31.29c0.36 1.1 0.29 2.47-0.32 4.39c-4.48 14.2-10.1 28.45-22.12 40.34"></path>
<path style="fill:none; fill-opacity:0%; fill-rule:evenodd; stroke:#aaaaaa; stroke-opacity:100%; stroke-width: 1.5pt; stroke-linejoin:round; stroke-linecap:round;" d="M60.04 41.8c9.75 4.84 22.03 21.62 26.91 31.86"></path>
<path style="fill:none; fill-opacity:0%; fill-rule:evenodd; stroke:#aaaaaa; stroke-opacity:100%; stroke-width: 1.5pt; stroke-linejoin:round; stroke-linecap:round;" d="M50.38 22.77c1.05 1.05 1.25 2.23 1.25 3.98c0 13.6 0 50.33 0 59.25c0 3.44 0.02 4.86 3.74 4.11c15.38-3.11 27.01-3.73 35.5-3.56c2.31 0.05 5.27 0.73 6.69 1.2"></path>

<path style="fill:none; fill-opacity:0%; fill-rule:evenodd; stroke:#000000; stroke-opacity:100%; stroke-width: 3pt; stroke-linejoin:round; stroke-linecap:round;" d="M11.03 39.22c2.35 0.66 4.75 0.42 6.37 0.26c5.73-0.56 16.78-2.44 22.89-3.5c0.95-0.16 2.83-0.48 3.73-0.11"></path>
<text x="5" y="20" font-size="20" fill="#999999">2</text><path style="fill:none; fill-opacity:0%; fill-rule:evenodd; stroke:#CC0000; stroke-opacity:100%; stroke-width: 3pt; stroke-linejoin:round; stroke-linecap:round;" d="M28.86 14.5c1.26 1.26 1.79 2.62 1.79 4.42c0 6.22-0.01 49.75-0.02 68.83c0 3.41 0 6.02 0 7.5"  ></path>







</g><g transform="scale(1.3761467889908 1.3761467889908) translate(218, 0)">
<path style="fill:none; fill-rule:evenodd; stroke:#aaaaaa;  stroke-width:1pt; stroke-linecap:round;" d="m 109 0 L 0 0 L 0 109 L 109 109 L 109 0"></path><path style="fill:none; fill-opacity:0%; fill-rule:evenodd; stroke:#aaaaaa; stroke-opacity:100%; stroke-width: 1.5pt; stroke-linejoin:round; stroke-linecap:round;" d="M11.03 39.22c2.35 0.66 4.75 0.42 6.37 0.26c5.73-0.56 16.78-2.44 22.89-3.5c0.95-0.16 2.83-0.48 3.73-0.11"></path>
<path style="fill:none; fill-opacity:0%; fill-rule:evenodd; stroke:#aaaaaa; stroke-opacity:100%; stroke-width: 1.5pt; stroke-linejoin:round; stroke-linecap:round;" d="M28.86 14.5c1.26 1.26 1.79 2.62 1.79 4.42c0 6.22-0.01 49.75-0.02 68.83c0 3.41 0 6.02 0 7.5"></path>
<path style="fill:none; fill-opacity:0%; fill-rule:evenodd; stroke:#aaaaaa; stroke-opacity:100%; stroke-width: 1.5pt; stroke-linejoin:round; stroke-linecap:round;" d="M29.69 39.53c0 1.72-1.34 4.73-1.97 6.21c-4.78 11.18-8.29 17.22-16.36 28.35"></path>
<path style="fill:none; fill-opacity:0%; fill-rule:evenodd; stroke:#aaaaaa; stroke-opacity:100%; stroke-width: 1.5pt; stroke-linejoin:round; stroke-linecap:round;" d="M33.38 49.62c2.56 1.68 6.1 7.41 8.26 10.66"></path>
<path style="fill:none; fill-opacity:0%; fill-rule:evenodd; stroke:#aaaaaa; stroke-opacity:100%; stroke-width: 1.5pt; stroke-linejoin:round; stroke-linecap:round;" d="M49.13 21.86c2.62 0.77 5.48 0.69 7.89 0.48c9.43-0.81 19.87-2.15 29.61-3.27c2.44-0.28 5.37-0.56 7.43-0.13"></path>
<path style="fill:none; fill-opacity:0%; fill-rule:evenodd; stroke:#aaaaaa; stroke-opacity:100%; stroke-width: 1.5pt; stroke-linejoin:round; stroke-linecap:round;" d="M82.05 31.29c0.36 1.1 0.29 2.47-0.32 4.39c-4.48 14.2-10.1 28.45-22.12 40.34"></path>
<path style="fill:none; fill-opacity:0%; fill-rule:evenodd; stroke:#aaaaaa; stroke-opacity:100%; stroke-width: 1.5pt; stroke-linejoin:round; stroke-linecap:round;" d="M60.04 41.8c9.75 4.84 22.03 21.62 26.91 31.86"></path>
<path style="fill:none; fill-opacity:0%; fill-rule:evenodd; stroke:#aaaaaa; stroke-opacity:100%; stroke-width: 1.5pt; stroke-linejoin:round; stroke-linecap:round;" d="M50.38 22.77c1.05 1.05 1.25 2.23 1.25 3.98c0 13.6 0 50.33 0 59.25c0 3.44 0.02 4.86 3.74 4.11c15.38-3.11 27.01-3.73 35.5-3.56c2.31 0.05 5.27 0.73 6.69 1.2"></path>

<path style="fill:none; fill-opacity:0%; fill-rule:evenodd; stroke:#000000; stroke-opacity:100%; stroke-width: 3pt; stroke-linejoin:round; stroke-linecap:round;" d="M11.03 39.22c2.35 0.66 4.75 0.42 6.37 0.26c5.73-0.56 16.78-2.44 22.89-3.5c0.95-0.16 2.83-0.48 3.73-0.11"></path>
<path style="fill:none; fill-opacity:0%; fill-rule:evenodd; stroke:#000000; stroke-opacity:100%; stroke-width: 3pt; stroke-linejoin:round; stroke-linecap:round;" d="M28.86 14.5c1.26 1.26 1.79 2.62 1.79 4.42c0 6.22-0.01 49.75-0.02 68.83c0 3.41 0 6.02 0 7.5"></path>
<text x="5" y="20" font-size="20" fill="#999999">3</text><path style="fill:none; fill-opacity:0%; fill-rule:evenodd; stroke:#CC0000; stroke-opacity:100%; stroke-width: 3pt; stroke-linejoin:round; stroke-linecap:round;" d="M29.69 39.53c0 1.72-1.34 4.73-1.97 6.21c-4.78 11.18-8.29 17.22-16.36 28.35"  ></path>






</g><g transform="scale(1.3761467889908 1.3761467889908) translate(327, 0)">
<path style="fill:none; fill-rule:evenodd; stroke:#aaaaaa;  stroke-width:1pt; stroke-linecap:round;" d="m 109 0 L 0 0 L 0 109 L 109 109 L 109 0"></path><path style="fill:none; fill-opacity:0%; fill-rule:evenodd; stroke:#aaaaaa; stroke-opacity:100%; stroke-width: 1.5pt; stroke-linejoin:round; stroke-linecap:round;" d="M11.03 39.22c2.35 0.66 4.75 0.42 6.37 0.26c5.73-0.56 16.78-2.44 22.89-3.5c0.95-0.16 2.83-0.48 3.73-0.11"></path>
<path style="fill:none; fill-opacity:0%; fill-rule:evenodd; stroke:#aaaaaa; stroke-opacity:100%; stroke-width: 1.5pt; stroke-linejoin:round; stroke-linecap:round;" d="M28.86 14.5c1.26 1.26 1.79 2.62 1.79 4.42c0 6.22-0.01 49.75-0.02 68.83c0 3.41 0 6.02 0 7.5"></path>
<path style="fill:none; fill-opacity:0%; fill-rule:evenodd; stroke:#aaaaaa; stroke-opacity:100%; stroke-width: 1.5pt; stroke-linejoin:round; stroke-linecap:round;" d="M29.69 39.53c0 1.72-1.34 4.73-1.97 6.21c-4.78 11.18-8.29 17.22-16.36 28.35"></path>
<path style="fill:none; fill-opacity:0%; fill-rule:evenodd; stroke:#aaaaaa; stroke-opacity:100%; stroke-width: 1.5pt; stroke-linejoin:round; stroke-linecap:round;" d="M33.38 49.62c2.56 1.68 6.1 7.41 8.26 10.66"></path>
<path style="fill:none; fill-opacity:0%; fill-rule:evenodd; stroke:#aaaaaa; stroke-opacity:100%; stroke-width: 1.5pt; stroke-linejoin:round; stroke-linecap:round;" d="M49.13 21.86c2.62 0.77 5.48 0.69 7.89 0.48c9.43-0.81 19.87-2.15 29.61-3.27c2.44-0.28 5.37-0.56 7.43-0.13"></path>
<path style="fill:none; fill-opacity:0%; fill-rule:evenodd; stroke:#aaaaaa; stroke-opacity:100%; stroke-width: 1.5pt; stroke-linejoin:round; stroke-linecap:round;" d="M82.05 31.29c0.36 1.1 0.29 2.47-0.32 4.39c-4.48 14.2-10.1 28.45-22.12 40.34"></path>
<path style="fill:none; fill-opacity:0%; fill-rule:evenodd; stroke:#aaaaaa; stroke-opacity:100%; stroke-width: 1.5pt; stroke-linejoin:round; stroke-linecap:round;" d="M60.04 41.8c9.75 4.84 22.03 21.62 26.91 31.86"></path>
<path style="fill:none; fill-opacity:0%; fill-rule:evenodd; stroke:#aaaaaa; stroke-opacity:100%; stroke-width: 1.5pt; stroke-linejoin:round; stroke-linecap:round;" d="M50.38 22.77c1.05 1.05 1.25 2.23 1.25 3.98c0 13.6 0 50.33 0 59.25c0 3.44 0.02 4.86 3.74 4.11c15.38-3.11 27.01-3.73 35.5-3.56c2.31 0.05 5.27 0.73 6.69 1.2"></path>

<path style="fill:none; fill-opacity:0%; fill-rule:evenodd; stroke:#000000; stroke-opacity:100%; stroke-width: 3pt; stroke-linejoin:round; stroke-linecap:round;" d="M11.03 39.22c2.35 0.66 4.75 0.42 6.37 0.26c5.73-0.56 16.78-2.44 22.89-3.5c0.95-0.16 2.83-0.48 3.73-0.11"></path>
<path style="fill:none; fill-opacity:0%; fill-rule:evenodd; stroke:#000000; stroke-opacity:100%; stroke-width: 3pt; stroke-linejoin:round; stroke-linecap:round;" d="M28.86 14.5c1.26 1.26 1.79 2.62 1.79 4.42c0 6.22-0.01 49.75-0.02 68.83c0 3.41 0 6.02 0 7.5"></path>
<path style="fill:none; fill-opacity:0%; fill-rule:evenodd; stroke:#000000; stroke-opacity:100%; stroke-width: 3pt; stroke-linejoin:round; stroke-linecap:round;" d="M29.69 39.53c0 1.72-1.34 4.73-1.97 6.21c-4.78 11.18-8.29 17.22-16.36 28.35"></path>
<text x="5" y="20" font-size="20" fill="#999999">4</text><path style="fill:none; fill-opacity:0%; fill-rule:evenodd; stroke:#CC0000; stroke-opacity:100%; stroke-width: 3pt; stroke-linejoin:round; stroke-linecap:round;" d="M33.38 49.62c2.56 1.68 6.1 7.41 8.26 10.66"  ></path>





</g><g transform="scale(1.3761467889908 1.3761467889908) translate(436, 0)">
<path style="fill:none; fill-rule:evenodd; stroke:#aaaaaa;  stroke-width:1pt; stroke-linecap:round;" d="m 109 0 L 0 0 L 0 109 L 109 109 L 109 0"></path><path style="fill:none; fill-opacity:0%; fill-rule:evenodd; stroke:#aaaaaa; stroke-opacity:100%; stroke-width: 1.5pt; stroke-linejoin:round; stroke-linecap:round;" d="M11.03 39.22c2.35 0.66 4.75 0.42 6.37 0.26c5.73-0.56 16.78-2.44 22.89-3.5c0.95-0.16 2.83-0.48 3.73-0.11"></path>
<path style="fill:none; fill-opacity:0%; fill-rule:evenodd; stroke:#aaaaaa; stroke-opacity:100%; stroke-width: 1.5pt; stroke-linejoin:round; stroke-linecap:round;" d="M28.86 14.5c1.26 1.26 1.79 2.62 1.79 4.42c0 6.22-0.01 49.75-0.02 68.83c0 3.41 0 6.02 0 7.5"></path>
<path style="fill:none; fill-opacity:0%; fill-rule:evenodd; stroke:#aaaaaa; stroke-opacity:100%; stroke-width: 1.5pt; stroke-linejoin:round; stroke-linecap:round;" d="M29.69 39.53c0 1.72-1.34 4.73-1.97 6.21c-4.78 11.18-8.29 17.22-16.36 28.35"></path>
<path style="fill:none; fill-opacity:0%; fill-rule:evenodd; stroke:#aaaaaa; stroke-opacity:100%; stroke-width: 1.5pt; stroke-linejoin:round; stroke-linecap:round;" d="M33.38 49.62c2.56 1.68 6.1 7.41 8.26 10.66"></path>
<path style="fill:none; fill-opacity:0%; fill-rule:evenodd; stroke:#aaaaaa; stroke-opacity:100%; stroke-width: 1.5pt; stroke-linejoin:round; stroke-linecap:round;" d="M49.13 21.86c2.62 0.77 5.48 0.69 7.89 0.48c9.43-0.81 19.87-2.15 29.61-3.27c2.44-0.28 5.37-0.56 7.43-0.13"></path>
<path style="fill:none; fill-opacity:0%; fill-rule:evenodd; stroke:#aaaaaa; stroke-opacity:100%; stroke-width: 1.5pt; stroke-linejoin:round; stroke-linecap:round;" d="M82.05 31.29c0.36 1.1 0.29 2.47-0.32 4.39c-4.48 14.2-10.1 28.45-22.12 40.34"></path>
<path style="fill:none; fill-opacity:0%; fill-rule:evenodd; stroke:#aaaaaa; stroke-opacity:100%; stroke-width: 1.5pt; stroke-linejoin:round; stroke-linecap:round;" d="M60.04 41.8c9.75 4.84 22.03 21.62 26.91 31.86"></path>
<path style="fill:none; fill-opacity:0%; fill-rule:evenodd; stroke:#aaaaaa; stroke-opacity:100%; stroke-width: 1.5pt; stroke-linejoin:round; stroke-linecap:round;" d="M50.38 22.77c1.05 1.05 1.25 2.23 1.25 3.98c0 13.6 0 50.33 0 59.25c0 3.44 0.02 4.86 3.74 4.11c15.38-3.11 27.01-3.73 35.5-3.56c2.31 0.05 5.27 0.73 6.69 1.2"></path>

<path style="fill:none; fill-opacity:0%; fill-rule:evenodd; stroke:#000000; stroke-opacity:100%; stroke-width: 3pt; stroke-linejoin:round; stroke-linecap:round;" d="M11.03 39.22c2.35 0.66 4.75 0.42 6.37 0.26c5.73-0.56 16.78-2.44 22.89-3.5c0.95-0.16 2.83-0.48 3.73-0.11"></path>
<path style="fill:none; fill-opacity:0%; fill-rule:evenodd; stroke:#000000; stroke-opacity:100%; stroke-width: 3pt; stroke-linejoin:round; stroke-linecap:round;" d="M28.86 14.5c1.26 1.26 1.79 2.62 1.79 4.42c0 6.22-0.01 49.75-0.02 68.83c0 3.41 0 6.02 0 7.5"></path>
<path style="fill:none; fill-opacity:0%; fill-rule:evenodd; stroke:#000000; stroke-opacity:100%; stroke-width: 3pt; stroke-linejoin:round; stroke-linecap:round;" d="M29.69 39.53c0 1.72-1.34 4.73-1.97 6.21c-4.78 11.18-8.29 17.22-16.36 28.35"></path>
<path style="fill:none; fill-opacity:0%; fill-rule:evenodd; stroke:#000000; stroke-opacity:100%; stroke-width: 3pt; stroke-linejoin:round; stroke-linecap:round;" d="M33.38 49.62c2.56 1.68 6.1 7.41 8.26 10.66"></path>
<text x="5" y="20" font-size="20" fill="#999999">5</text><path style="fill:none; fill-opacity:0%; fill-rule:evenodd; stroke:#CC0000; stroke-opacity:100%; stroke-width: 3pt; stroke-linejoin:round; stroke-linecap:round;" d="M49.13 21.86c2.62 0.77 5.48 0.69 7.89 0.48c9.43-0.81 19.87-2.15 29.61-3.27c2.44-0.28 5.37-0.56 7.43-0.13"  ></path>




</g><g transform="scale(1.3761467889908 1.3761467889908) translate(0, 109)">
<path style="fill:none; fill-rule:evenodd; stroke:#aaaaaa;  stroke-width:1pt; stroke-linecap:round;" d="m 109 0 L 0 0 L 0 109 L 109 109 L 109 0"></path><path style="fill:none; fill-opacity:0%; fill-rule:evenodd; stroke:#aaaaaa; stroke-opacity:100%; stroke-width: 1.5pt; stroke-linejoin:round; stroke-linecap:round;" d="M11.03 39.22c2.35 0.66 4.75 0.42 6.37 0.26c5.73-0.56 16.78-2.44 22.89-3.5c0.95-0.16 2.83-0.48 3.73-0.11"></path>
<path style="fill:none; fill-opacity:0%; fill-rule:evenodd; stroke:#aaaaaa; stroke-opacity:100%; stroke-width: 1.5pt; stroke-linejoin:round; stroke-linecap:round;" d="M28.86 14.5c1.26 1.26 1.79 2.62 1.79 4.42c0 6.22-0.01 49.75-0.02 68.83c0 3.41 0 6.02 0 7.5"></path>
<path style="fill:none; fill-opacity:0%; fill-rule:evenodd; stroke:#aaaaaa; stroke-opacity:100%; stroke-width: 1.5pt; stroke-linejoin:round; stroke-linecap:round;" d="M29.69 39.53c0 1.72-1.34 4.73-1.97 6.21c-4.78 11.18-8.29 17.22-16.36 28.35"></path>
<path style="fill:none; fill-opacity:0%; fill-rule:evenodd; stroke:#aaaaaa; stroke-opacity:100%; stroke-width: 1.5pt; stroke-linejoin:round; stroke-linecap:round;" d="M33.38 49.62c2.56 1.68 6.1 7.41 8.26 10.66"></path>
<path style="fill:none; fill-opacity:0%; fill-rule:evenodd; stroke:#aaaaaa; stroke-opacity:100%; stroke-width: 1.5pt; stroke-linejoin:round; stroke-linecap:round;" d="M49.13 21.86c2.62 0.77 5.48 0.69 7.89 0.48c9.43-0.81 19.87-2.15 29.61-3.27c2.44-0.28 5.37-0.56 7.43-0.13"></path>
<path style="fill:none; fill-opacity:0%; fill-rule:evenodd; stroke:#aaaaaa; stroke-opacity:100%; stroke-width: 1.5pt; stroke-linejoin:round; stroke-linecap:round;" d="M82.05 31.29c0.36 1.1 0.29 2.47-0.32 4.39c-4.48 14.2-10.1 28.45-22.12 40.34"></path>
<path style="fill:none; fill-opacity:0%; fill-rule:evenodd; stroke:#aaaaaa; stroke-opacity:100%; stroke-width: 1.5pt; stroke-linejoin:round; stroke-linecap:round;" d="M60.04 41.8c9.75 4.84 22.03 21.62 26.91 31.86"></path>
<path style="fill:none; fill-opacity:0%; fill-rule:evenodd; stroke:#aaaaaa; stroke-opacity:100%; stroke-width: 1.5pt; stroke-linejoin:round; stroke-linecap:round;" d="M50.38 22.77c1.05 1.05 1.25 2.23 1.25 3.98c0 13.6 0 50.33 0 59.25c0 3.44 0.02 4.86 3.74 4.11c15.38-3.11 27.01-3.73 35.5-3.56c2.31 0.05 5.27 0.73 6.69 1.2"></path>

<path style="fill:none; fill-opacity:0%; fill-rule:evenodd; stroke:#000000; stroke-opacity:100%; stroke-width: 3pt; stroke-linejoin:round; stroke-linecap:round;" d="M11.03 39.22c2.35 0.66 4.75 0.42 6.37 0.26c5.73-0.56 16.78-2.44 22.89-3.5c0.95-0.16 2.83-0.48 3.73-0.11"></path>
<path style="fill:none; fill-opacity:0%; fill-rule:evenodd; stroke:#000000; stroke-opacity:100%; stroke-width: 3pt; stroke-linejoin:round; stroke-linecap:round;" d="M28.86 14.5c1.26 1.26 1.79 2.62 1.79 4.42c0 6.22-0.01 49.75-0.02 68.83c0 3.41 0 6.02 0 7.5"></path>
<path style="fill:none; fill-opacity:0%; fill-rule:evenodd; stroke:#000000; stroke-opacity:100%; stroke-width: 3pt; stroke-linejoin:round; stroke-linecap:round;" d="M29.69 39.53c0 1.72-1.34 4.73-1.97 6.21c-4.78 11.18-8.29 17.22-16.36 28.35"></path>
<path style="fill:none; fill-opacity:0%; fill-rule:evenodd; stroke:#000000; stroke-opacity:100%; stroke-width: 3pt; stroke-linejoin:round; stroke-linecap:round;" d="M33.38 49.62c2.56 1.68 6.1 7.41 8.26 10.66"></path>
<path style="fill:none; fill-opacity:0%; fill-rule:evenodd; stroke:#000000; stroke-opacity:100%; stroke-width: 3pt; stroke-linejoin:round; stroke-linecap:round;" d="M49.13 21.86c2.62 0.77 5.48 0.69 7.89 0.48c9.43-0.81 19.87-2.15 29.61-3.27c2.44-0.28 5.37-0.56 7.43-0.13"></path>
<text x="5" y="20" font-size="20" fill="#999999">6</text><path style="fill:none; fill-opacity:0%; fill-rule:evenodd; stroke:#CC0000; stroke-opacity:100%; stroke-width: 3pt; stroke-linejoin:round; stroke-linecap:round;" d="M82.05 31.29c0.36 1.1 0.29 2.47-0.32 4.39c-4.48 14.2-10.1 28.45-22.12 40.34"  ></path>



</g><g transform="scale(1.3761467889908 1.3761467889908) translate(109, 109)">
<path style="fill:none; fill-rule:evenodd; stroke:#aaaaaa;  stroke-width:1pt; stroke-linecap:round;" d="m 109 0 L 0 0 L 0 109 L 109 109 L 109 0"></path><path style="fill:none; fill-opacity:0%; fill-rule:evenodd; stroke:#aaaaaa; stroke-opacity:100%; stroke-width: 1.5pt; stroke-linejoin:round; stroke-linecap:round;" d="M11.03 39.22c2.35 0.66 4.75 0.42 6.37 0.26c5.73-0.56 16.78-2.44 22.89-3.5c0.95-0.16 2.83-0.48 3.73-0.11"></path>
<path style="fill:none; fill-opacity:0%; fill-rule:evenodd; stroke:#aaaaaa; stroke-opacity:100%; stroke-width: 1.5pt; stroke-linejoin:round; stroke-linecap:round;" d="M28.86 14.5c1.26 1.26 1.79 2.62 1.79 4.42c0 6.22-0.01 49.75-0.02 68.83c0 3.41 0 6.02 0 7.5"></path>
<path style="fill:none; fill-opacity:0%; fill-rule:evenodd; stroke:#aaaaaa; stroke-opacity:100%; stroke-width: 1.5pt; stroke-linejoin:round; stroke-linecap:round;" d="M29.69 39.53c0 1.72-1.34 4.73-1.97 6.21c-4.78 11.18-8.29 17.22-16.36 28.35"></path>
<path style="fill:none; fill-opacity:0%; fill-rule:evenodd; stroke:#aaaaaa; stroke-opacity:100%; stroke-width: 1.5pt; stroke-linejoin:round; stroke-linecap:round;" d="M33.38 49.62c2.56 1.68 6.1 7.41 8.26 10.66"></path>
<path style="fill:none; fill-opacity:0%; fill-rule:evenodd; stroke:#aaaaaa; stroke-opacity:100%; stroke-width: 1.5pt; stroke-linejoin:round; stroke-linecap:round;" d="M49.13 21.86c2.62 0.77 5.48 0.69 7.89 0.48c9.43-0.81 19.87-2.15 29.61-3.27c2.44-0.28 5.37-0.56 7.43-0.13"></path>
<path style="fill:none; fill-opacity:0%; fill-rule:evenodd; stroke:#aaaaaa; stroke-opacity:100%; stroke-width: 1.5pt; stroke-linejoin:round; stroke-linecap:round;" d="M82.05 31.29c0.36 1.1 0.29 2.47-0.32 4.39c-4.48 14.2-10.1 28.45-22.12 40.34"></path>
<path style="fill:none; fill-opacity:0%; fill-rule:evenodd; stroke:#aaaaaa; stroke-opacity:100%; stroke-width: 1.5pt; stroke-linejoin:round; stroke-linecap:round;" d="M60.04 41.8c9.75 4.84 22.03 21.62 26.91 31.86"></path>
<path style="fill:none; fill-opacity:0%; fill-rule:evenodd; stroke:#aaaaaa; stroke-opacity:100%; stroke-width: 1.5pt; stroke-linejoin:round; stroke-linecap:round;" d="M50.38 22.77c1.05 1.05 1.25 2.23 1.25 3.98c0 13.6 0 50.33 0 59.25c0 3.44 0.02 4.86 3.74 4.11c15.38-3.11 27.01-3.73 35.5-3.56c2.31 0.05 5.27 0.73 6.69 1.2"></path>

<path style="fill:none; fill-opacity:0%; fill-rule:evenodd; stroke:#000000; stroke-opacity:100%; stroke-width: 3pt; stroke-linejoin:round; stroke-linecap:round;" d="M11.03 39.22c2.35 0.66 4.75 0.42 6.37 0.26c5.73-0.56 16.78-2.44 22.89-3.5c0.95-0.16 2.83-0.48 3.73-0.11"></path>
<path style="fill:none; fill-opacity:0%; fill-rule:evenodd; stroke:#000000; stroke-opacity:100%; stroke-width: 3pt; stroke-linejoin:round; stroke-linecap:round;" d="M28.86 14.5c1.26 1.26 1.79 2.62 1.79 4.42c0 6.22-0.01 49.75-0.02 68.83c0 3.41 0 6.02 0 7.5"></path>
<path style="fill:none; fill-opacity:0%; fill-rule:evenodd; stroke:#000000; stroke-opacity:100%; stroke-width: 3pt; stroke-linejoin:round; stroke-linecap:round;" d="M29.69 39.53c0 1.72-1.34 4.73-1.97 6.21c-4.78 11.18-8.29 17.22-16.36 28.35"></path>
<path style="fill:none; fill-opacity:0%; fill-rule:evenodd; stroke:#000000; stroke-opacity:100%; stroke-width: 3pt; stroke-linejoin:round; stroke-linecap:round;" d="M33.38 49.62c2.56 1.68 6.1 7.41 8.26 10.66"></path>
<path style="fill:none; fill-opacity:0%; fill-rule:evenodd; stroke:#000000; stroke-opacity:100%; stroke-width: 3pt; stroke-linejoin:round; stroke-linecap:round;" d="M49.13 21.86c2.62 0.77 5.48 0.69 7.89 0.48c9.43-0.81 19.87-2.15 29.61-3.27c2.44-0.28 5.37-0.56 7.43-0.13"></path>
<path style="fill:none; fill-opacity:0%; fill-rule:evenodd; stroke:#000000; stroke-opacity:100%; stroke-width: 3pt; stroke-linejoin:round; stroke-linecap:round;" d="M82.05 31.29c0.36 1.1 0.29 2.47-0.32 4.39c-4.48 14.2-10.1 28.45-22.12 40.34"></path>
<text x="5" y="20" font-size="20" fill="#999999">7</text><path style="fill:none; fill-opacity:0%; fill-rule:evenodd; stroke:#CC0000; stroke-opacity:100%; stroke-width: 3pt; stroke-linejoin:round; stroke-linecap:round;" d="M60.04 41.8c9.75 4.84 22.03 21.62 26.91 31.86"  ></path>


</g><g transform="scale(1.3761467889908 1.3761467889908) translate(218, 109)">
<path style="fill:none; fill-rule:evenodd; stroke:#aaaaaa;  stroke-width:1pt; stroke-linecap:round;" d="m 109 0 L 0 0 L 0 109 L 109 109 L 109 0"></path><path style="fill:none; fill-opacity:0%; fill-rule:evenodd; stroke:#aaaaaa; stroke-opacity:100%; stroke-width: 1.5pt; stroke-linejoin:round; stroke-linecap:round;" d="M11.03 39.22c2.35 0.66 4.75 0.42 6.37 0.26c5.73-0.56 16.78-2.44 22.89-3.5c0.95-0.16 2.83-0.48 3.73-0.11"></path>
<path style="fill:none; fill-opacity:0%; fill-rule:evenodd; stroke:#aaaaaa; stroke-opacity:100%; stroke-width: 1.5pt; stroke-linejoin:round; stroke-linecap:round;" d="M28.86 14.5c1.26 1.26 1.79 2.62 1.79 4.42c0 6.22-0.01 49.75-0.02 68.83c0 3.41 0 6.02 0 7.5"></path>
<path style="fill:none; fill-opacity:0%; fill-rule:evenodd; stroke:#aaaaaa; stroke-opacity:100%; stroke-width: 1.5pt; stroke-linejoin:round; stroke-linecap:round;" d="M29.69 39.53c0 1.72-1.34 4.73-1.97 6.21c-4.78 11.18-8.29 17.22-16.36 28.35"></path>
<path style="fill:none; fill-opacity:0%; fill-rule:evenodd; stroke:#aaaaaa; stroke-opacity:100%; stroke-width: 1.5pt; stroke-linejoin:round; stroke-linecap:round;" d="M33.38 49.62c2.56 1.68 6.1 7.41 8.26 10.66"></path>
<path style="fill:none; fill-opacity:0%; fill-rule:evenodd; stroke:#aaaaaa; stroke-opacity:100%; stroke-width: 1.5pt; stroke-linejoin:round; stroke-linecap:round;" d="M49.13 21.86c2.62 0.77 5.48 0.69 7.89 0.48c9.43-0.81 19.87-2.15 29.61-3.27c2.44-0.28 5.37-0.56 7.43-0.13"></path>
<path style="fill:none; fill-opacity:0%; fill-rule:evenodd; stroke:#aaaaaa; stroke-opacity:100%; stroke-width: 1.5pt; stroke-linejoin:round; stroke-linecap:round;" d="M82.05 31.29c0.36 1.1 0.29 2.47-0.32 4.39c-4.48 14.2-10.1 28.45-22.12 40.34"></path>
<path style="fill:none; fill-opacity:0%; fill-rule:evenodd; stroke:#aaaaaa; stroke-opacity:100%; stroke-width: 1.5pt; stroke-linejoin:round; stroke-linecap:round;" d="M60.04 41.8c9.75 4.84 22.03 21.62 26.91 31.86"></path>
<path style="fill:none; fill-opacity:0%; fill-rule:evenodd; stroke:#aaaaaa; stroke-opacity:100%; stroke-width: 1.5pt; stroke-linejoin:round; stroke-linecap:round;" d="M50.38 22.77c1.05 1.05 1.25 2.23 1.25 3.98c0 13.6 0 50.33 0 59.25c0 3.44 0.02 4.86 3.74 4.11c15.38-3.11 27.01-3.73 35.5-3.56c2.31 0.05 5.27 0.73 6.69 1.2"></path>

<path style="fill:none; fill-opacity:0%; fill-rule:evenodd; stroke:#000000; stroke-opacity:100%; stroke-width: 3pt; stroke-linejoin:round; stroke-linecap:round;" d="M11.03 39.22c2.35 0.66 4.75 0.42 6.37 0.26c5.73-0.56 16.78-2.44 22.89-3.5c0.95-0.16 2.83-0.48 3.73-0.11"></path>
<path style="fill:none; fill-opacity:0%; fill-rule:evenodd; stroke:#000000; stroke-opacity:100%; stroke-width: 3pt; stroke-linejoin:round; stroke-linecap:round;" d="M28.86 14.5c1.26 1.26 1.79 2.62 1.79 4.42c0 6.22-0.01 49.75-0.02 68.83c0 3.41 0 6.02 0 7.5"></path>
<path style="fill:none; fill-opacity:0%; fill-rule:evenodd; stroke:#000000; stroke-opacity:100%; stroke-width: 3pt; stroke-linejoin:round; stroke-linecap:round;" d="M29.69 39.53c0 1.72-1.34 4.73-1.97 6.21c-4.78 11.18-8.29 17.22-16.36 28.35"></path>
<path style="fill:none; fill-opacity:0%; fill-rule:evenodd; stroke:#000000; stroke-opacity:100%; stroke-width: 3pt; stroke-linejoin:round; stroke-linecap:round;" d="M33.38 49.62c2.56 1.68 6.1 7.41 8.26 10.66"></path>
<path style="fill:none; fill-opacity:0%; fill-rule:evenodd; stroke:#000000; stroke-opacity:100%; stroke-width: 3pt; stroke-linejoin:round; stroke-linecap:round;" d="M49.13 21.86c2.62 0.77 5.48 0.69 7.89 0.48c9.43-0.81 19.87-2.15 29.61-3.27c2.44-0.28 5.37-0.56 7.43-0.13"></path>
<path style="fill:none; fill-opacity:0%; fill-rule:evenodd; stroke:#000000; stroke-opacity:100%; stroke-width: 3pt; stroke-linejoin:round; stroke-linecap:round;" d="M82.05 31.29c0.36 1.1 0.29 2.47-0.32 4.39c-4.48 14.2-10.1 28.45-22.12 40.34"></path>
<path style="fill:none; fill-opacity:0%; fill-rule:evenodd; stroke:#000000; stroke-opacity:100%; stroke-width: 3pt; stroke-linejoin:round; stroke-linecap:round;" d="M60.04 41.8c9.75 4.84 22.03 21.62 26.91 31.86"></path>
<text x="5" y="20" font-size="20" fill="#999999">8</text><path style="fill:none; fill-opacity:0%; fill-rule:evenodd; stroke:#CC0000; stroke-opacity:100%; stroke-width: 3pt; stroke-linejoin:round; stroke-linecap:round;" d="M50.38 22.77c1.05 1.05 1.25 2.23 1.25 3.98c0 13.6 0 50.33 0 59.25c0 3.44 0.02 4.86 3.74 4.11c15.38-3.11 27.01-3.73 35.5-3.56c2.31 0.05 5.27 0.73 6.69 1.2"  ></path>

</g>

</svg>  
          
