<?xml version="1.0" standalone="no"?>
<!DOCTYPE svg PUBLIC "-//W3C//DTD SVG 1.1//EN"   "http://www.w3.org/Graphics/SVG/1.1/DTD/svg11.dtd">
<svg width="751" height="301"  version="1.1" xmlns="http://www.w3.org/2000/svg">
  <defs>
    <marker id="Triangle" viewBox="0 0 10 10" refX="0" refY="5" markerUnits="strokeWidth" markerWidth="3" style="stroke-opacity:0%;fill:#aaaaaa;" markerHeight="2" orient="auto">
      <path d="M 0 0 L 10 5 L 0 10 z" />
    </marker>
    
    <marker id="Arrow" viewBox="0 0 10 10" refX="5" refY="5" markerUnits="strokeWidth" markerWidth="1.8" style="stroke-opacity:0%;fill:#770000;" markerHeight="2" orient="auto">
      <path d="M 0 4 L 6 4 L 4 1 L 10 5 L 4 9 L 6 6 L 0 6 z" />
        <circle cx="5" cy="5" r="5" />
      </marker>
    
    <marker id="TriangleRed" viewBox="0 0 10 10" refX="0" refY="5" markerUnits="strokeWidth" markerWidth="3" style="stroke-opacity:0%;fill:#CC0000;" markerHeight="2" orient="auto">
      <path d="M 0 0 L 10 5 L 0 10 z" />
    </marker>
    
    <marker id="ArrowRed" viewBox="0 0 10 10" refX="5" refY="5" markerUnits="strokeWidth" markerWidth="1.8" style="stroke-opacity:0%;fill:#CC0000;" markerHeight="2" orient="auto">
      <path d="M 0 4 L 6 4 L 4 1 L 10 5 L 4 9 L 6 6 L 0 6 z" />
        <circle cx="5" cy="5" r="5" />
      </marker>
    
  </defs>
  
  <path style="fill:#ffffff; fill-opacity:100%; fill-rule:evenodd; stroke-width:0;" d="M 0 0 L 751 0 L 751 301 L 0 301 L 0 0" />

  <g transform="scale(1.3761467889908 1.3761467889908) translate(0, 0)">
<path style="fill:none; fill-rule:evenodd; stroke:#aaaaaa;  stroke-width:1pt; stroke-linecap:round;" d="m 109 0 L 0 0 L 0 109 L 109 109 L 109 0"></path><path style="fill:none; fill-opacity:0%; fill-rule:evenodd; stroke:#aaaaaa; stroke-opacity:100%; stroke-width: 1.5pt; stroke-linejoin:round; stroke-linecap:round;" d="M14.78 42.22c1.97 0.53 5.18 0.32 6.63 0.08c5.77-0.96 16.32-3.18 22.13-4.34c1.26-0.25 3.08-0.58 4.47-0.34"></path>
<path style="fill:none; fill-opacity:0%; fill-rule:evenodd; stroke:#aaaaaa; stroke-opacity:100%; stroke-width: 1.5pt; stroke-linejoin:round; stroke-linecap:round;" d="M33.11 15c1.07 1.07 1.54 2.5 1.54 4.92c0 6.52 0.03 45.84 0.04 68.7c0 3.26 0 6.18 0 8.62"></path>
<path style="fill:none; fill-opacity:0%; fill-rule:evenodd; stroke:#aaaaaa; stroke-opacity:100%; stroke-width: 1.5pt; stroke-linejoin:round; stroke-linecap:round;" d="M33.19 41.53c0 1.47-0.87 3.69-1.62 5.35C26.52 57.98 21.75 66 14.11 75.09"></path>
<path style="fill:none; fill-opacity:0%; fill-rule:evenodd; stroke:#aaaaaa; stroke-opacity:100%; stroke-width: 1.5pt; stroke-linejoin:round; stroke-linecap:round;" d="M37.88 48c2.76 1.82 7.3 7.72 9.62 11.25"></path>
<path style="fill:none; fill-opacity:0%; fill-rule:evenodd; stroke:#aaaaaa; stroke-opacity:100%; stroke-width: 1.5pt; stroke-linejoin:round; stroke-linecap:round;" d="M48.05 45.03c2.95 0.59 5.17 0.39 7.58 0.14c9.03-0.93 24.87-3.04 35.26-4.16c2.66-0.29 5.15-0.37 7.86 0.21"></path>
<path style="fill:none; fill-opacity:0%; fill-rule:evenodd; stroke:#aaaaaa; stroke-opacity:100%; stroke-width: 1.5pt; stroke-linejoin:round; stroke-linecap:round;" d="M70.65 17.25c1.11 1.11 1.83 2.75 1.83 4.78c0 6.1-0.04 32.22-0.04 42.08"></path>
<path style="fill:none; fill-opacity:0%; fill-rule:evenodd; stroke:#aaaaaa; stroke-opacity:100%; stroke-width: 1.5pt; stroke-linejoin:round; stroke-linecap:round;" d="M53.54 65.89c0.97 0.97 1.31 2.26 1.54 3.74c0.65 4.17 1.65 11.37 2.51 17.89c0.24 1.82 0.46 3.59 0.67 5.23"></path>
<path style="fill:none; fill-opacity:0%; fill-rule:evenodd; stroke:#aaaaaa; stroke-opacity:100%; stroke-width: 1.5pt; stroke-linejoin:round; stroke-linecap:round;" d="M56.31 67.44C64.14 66.6 79 65 86.24 64.43c3.7-0.29 4.96 1.22 4.35 4.84c-0.83 4.93-2.11 11.04-3.21 16.9"></path>
<path style="fill:none; fill-opacity:0%; fill-rule:evenodd; stroke:#aaaaaa; stroke-opacity:100%; stroke-width: 1.5pt; stroke-linejoin:round; stroke-linecap:round;" d="M58.95 88.97c5.63-0.3 16.94-0.87 25.55-1.33c2-0.11 3.85-0.21 5.42-0.3"></path>

<text x="5" y="20" font-size="20" fill="#999999">1</text><path style="fill:none; fill-opacity:0%; fill-rule:evenodd; stroke:#CC0000; stroke-opacity:100%; stroke-width: 3pt; stroke-linejoin:round; stroke-linecap:round;" d="M14.78 42.22c1.97 0.53 5.18 0.32 6.63 0.08c5.77-0.96 16.32-3.18 22.13-4.34c1.26-0.25 3.08-0.58 4.47-0.34" marker-end="url(#TriangleRed)" marker-start="url(#ArrowRed)" ></path>









</g><g transform="scale(1.3761467889908 1.3761467889908) translate(109, 0)">
<path style="fill:none; fill-rule:evenodd; stroke:#aaaaaa;  stroke-width:1pt; stroke-linecap:round;" d="m 109 0 L 0 0 L 0 109 L 109 109 L 109 0"></path><path style="fill:none; fill-opacity:0%; fill-rule:evenodd; stroke:#aaaaaa; stroke-opacity:100%; stroke-width: 1.5pt; stroke-linejoin:round; stroke-linecap:round;" d="M14.78 42.22c1.97 0.53 5.18 0.32 6.63 0.08c5.77-0.96 16.32-3.18 22.13-4.34c1.26-0.25 3.08-0.58 4.47-0.34"></path>
<path style="fill:none; fill-opacity:0%; fill-rule:evenodd; stroke:#aaaaaa; stroke-opacity:100%; stroke-width: 1.5pt; stroke-linejoin:round; stroke-linecap:round;" d="M33.11 15c1.07 1.07 1.54 2.5 1.54 4.92c0 6.52 0.03 45.84 0.04 68.7c0 3.26 0 6.18 0 8.62"></path>
<path style="fill:none; fill-opacity:0%; fill-rule:evenodd; stroke:#aaaaaa; stroke-opacity:100%; stroke-width: 1.5pt; stroke-linejoin:round; stroke-linecap:round;" d="M33.19 41.53c0 1.47-0.87 3.69-1.62 5.35C26.52 57.98 21.75 66 14.11 75.09"></path>
<path style="fill:none; fill-opacity:0%; fill-rule:evenodd; stroke:#aaaaaa; stroke-opacity:100%; stroke-width: 1.5pt; stroke-linejoin:round; stroke-linecap:round;" d="M37.88 48c2.76 1.82 7.3 7.72 9.62 11.25"></path>
<path style="fill:none; fill-opacity:0%; fill-rule:evenodd; stroke:#aaaaaa; stroke-opacity:100%; stroke-width: 1.5pt; stroke-linejoin:round; stroke-linecap:round;" d="M48.05 45.03c2.95 0.59 5.17 0.39 7.58 0.14c9.03-0.93 24.87-3.04 35.26-4.16c2.66-0.29 5.15-0.37 7.86 0.21"></path>
<path style="fill:none; fill-opacity:0%; fill-rule:evenodd; stroke:#aaaaaa; stroke-opacity:100%; stroke-width: 1.5pt; stroke-linejoin:round; stroke-linecap:round;" d="M70.65 17.25c1.11 1.11 1.83 2.75 1.83 4.78c0 6.1-0.04 32.22-0.04 42.08"></path>
<path style="fill:none; fill-opacity:0%; fill-rule:evenodd; stroke:#aaaaaa; stroke-opacity:100%; stroke-width: 1.5pt; stroke-linejoin:round; stroke-linecap:round;" d="M53.54 65.89c0.97 0.97 1.31 2.26 1.54 3.74c0.65 4.17 1.65 11.37 2.51 17.89c0.24 1.82 0.46 3.59 0.67 5.23"></path>
<path style="fill:none; fill-opacity:0%; fill-rule:evenodd; stroke:#aaaaaa; stroke-opacity:100%; stroke-width: 1.5pt; stroke-linejoin:round; stroke-linecap:round;" d="M56.31 67.44C64.14 66.6 79 65 86.24 64.43c3.7-0.29 4.96 1.22 4.35 4.84c-0.83 4.93-2.11 11.04-3.21 16.9"></path>
<path style="fill:none; fill-opacity:0%; fill-rule:evenodd; stroke:#aaaaaa; stroke-opacity:100%; stroke-width: 1.5pt; stroke-linejoin:round; stroke-linecap:round;" d="M58.95 88.97c5.63-0.3 16.94-0.87 25.55-1.33c2-0.11 3.85-0.21 5.42-0.3"></path>

<path style="fill:none; fill-opacity:0%; fill-rule:evenodd; stroke:#000000; stroke-opacity:100%; stroke-width: 3pt; stroke-linejoin:round; stroke-linecap:round;" d="M14.78 42.22c1.97 0.53 5.18 0.32 6.63 0.08c5.77-0.96 16.32-3.18 22.13-4.34c1.26-0.25 3.08-0.58 4.47-0.34"></path>
<text x="5" y="20" font-size="20" fill="#999999">2</text><path style="fill:none; fill-opacity:0%; fill-rule:evenodd; stroke:#CC0000; stroke-opacity:100%; stroke-width: 3pt; stroke-linejoin:round; stroke-linecap:round;" d="M33.11 15c1.07 1.07 1.54 2.5 1.54 4.92c0 6.52 0.03 45.84 0.04 68.7c0 3.26 0 6.18 0 8.62" marker-end="url(#TriangleRed)" marker-start="url(#ArrowRed)" ></path>








</g><g transform="scale(1.3761467889908 1.3761467889908) translate(218, 0)">
<path style="fill:none; fill-rule:evenodd; stroke:#aaaaaa;  stroke-width:1pt; stroke-linecap:round;" d="m 109 0 L 0 0 L 0 109 L 109 109 L 109 0"></path><path style="fill:none; fill-opacity:0%; fill-rule:evenodd; stroke:#aaaaaa; stroke-opacity:100%; stroke-width: 1.5pt; stroke-linejoin:round; stroke-linecap:round;" d="M14.78 42.22c1.97 0.53 5.18 0.32 6.63 0.08c5.77-0.96 16.32-3.18 22.13-4.34c1.26-0.25 3.08-0.58 4.47-0.34"></path>
<path style="fill:none; fill-opacity:0%; fill-rule:evenodd; stroke:#aaaaaa; stroke-opacity:100%; stroke-width: 1.5pt; stroke-linejoin:round; stroke-linecap:round;" d="M33.11 15c1.07 1.07 1.54 2.5 1.54 4.92c0 6.52 0.03 45.84 0.04 68.7c0 3.26 0 6.18 0 8.62"></path>
<path style="fill:none; fill-opacity:0%; fill-rule:evenodd; stroke:#aaaaaa; stroke-opacity:100%; stroke-width: 1.5pt; stroke-linejoin:round; stroke-linecap:round;" d="M33.19 41.53c0 1.47-0.87 3.69-1.62 5.35C26.52 57.98 21.75 66 14.11 75.09"></path>
<path style="fill:none; fill-opacity:0%; fill-rule:evenodd; stroke:#aaaaaa; stroke-opacity:100%; stroke-width: 1.5pt; stroke-linejoin:round; stroke-linecap:round;" d="M37.88 48c2.76 1.82 7.3 7.72 9.62 11.25"></path>
<path style="fill:none; fill-opacity:0%; fill-rule:evenodd; stroke:#aaaaaa; stroke-opacity:100%; stroke-width: 1.5pt; stroke-linejoin:round; stroke-linecap:round;" d="M48.05 45.03c2.95 0.59 5.17 0.39 7.58 0.14c9.03-0.93 24.87-3.04 35.26-4.16c2.66-0.29 5.15-0.37 7.86 0.21"></path>
<path style="fill:none; fill-opacity:0%; fill-rule:evenodd; stroke:#aaaaaa; stroke-opacity:100%; stroke-width: 1.5pt; stroke-linejoin:round; stroke-linecap:round;" d="M70.65 17.25c1.11 1.11 1.83 2.75 1.83 4.78c0 6.1-0.04 32.22-0.04 42.08"></path>
<path style="fill:none; fill-opacity:0%; fill-rule:evenodd; stroke:#aaaaaa; stroke-opacity:100%; stroke-width: 1.5pt; stroke-linejoin:round; stroke-linecap:round;" d="M53.54 65.89c0.97 0.97 1.31 2.26 1.54 3.74c0.65 4.17 1.65 11.37 2.51 17.89c0.24 1.82 0.46 3.59 0.67 5.23"></path>
<path style="fill:none; fill-opacity:0%; fill-rule:evenodd; stroke:#aaaaaa; stroke-opacity:100%; stroke-width: 1.5pt; stroke-linejoin:round; stroke-linecap:round;" d="M56.31 67.44C64.14 66.6 79 65 86.24 64.43c3.7-0.29 4.96 1.22 4.35 4.84c-0.83 4.93-2.11 11.04-3.21 16.9"></path>
<path style="fill:none; fill-opacity:0%; fill-rule:evenodd; stroke:#aaaaaa; stroke-opacity:100%; stroke-width: 1.5pt; stroke-linejoin:round; stroke-linecap:round;" d="M58.95 88.97c5.63-0.3 16.94-0.87 25.55-1.33c2-0.11 3.85-0.21 5.42-0.3"></path>

<path style="fill:none; fill-opacity:0%; fill-rule:evenodd; stroke:#000000; stroke-opacity:100%; stroke-width: 3pt; stroke-linejoin:round; stroke-linecap:round;" d="M14.78 42.22c1.97 0.53 5.18 0.32 6.63 0.08c5.77-0.96 16.32-3.18 22.13-4.34c1.26-0.25 3.08-0.58 4.47-0.34"></path>
<path style="fill:none; fill-opacity:0%; fill-rule:evenodd; stroke:#000000; stroke-opacity:100%; stroke-width: 3pt; stroke-linejoin:round; stroke-linecap:round;" d="M33.11 15c1.07 1.07 1.54 2.5 1.54 4.92c0 6.52 0.03 45.84 0.04 68.7c0 3.26 0 6.18 0 8.62"></path>
<text x="5" y="20" font-size="20" fill="#999999">3</text><path style="fill:none; fill-opacity:0%; fill-rule:evenodd; stroke:#CC0000; stroke-opacity:100%; stroke-width: 3pt; stroke-linejoin:round; stroke-linecap:round;" d="M33.19 41.53c0 1.47-0.87 3.69-1.62 5.35C26.52 57.98 21.75 66 14.11 75.09" marker-end="url(#TriangleRed)" marker-start="url(#ArrowRed)" ></path>







</g><g transform="scale(1.3761467889908 1.3761467889908) translate(327, 0)">
<path style="fill:none; fill-rule:evenodd; stroke:#aaaaaa;  stroke-width:1pt; stroke-linecap:round;" d="m 109 0 L 0 0 L 0 109 L 109 109 L 109 0"></path><path style="fill:none; fill-opacity:0%; fill-rule:evenodd; stroke:#aaaaaa; stroke-opacity:100%; stroke-width: 1.5pt; stroke-linejoin:round; stroke-linecap:round;" d="M14.78 42.22c1.97 0.53 5.18 0.32 6.63 0.08c5.77-0.96 16.32-3.18 22.13-4.34c1.26-0.25 3.08-0.58 4.47-0.34"></path>
<path style="fill:none; fill-opacity:0%; fill-rule:evenodd; stroke:#aaaaaa; stroke-opacity:100%; stroke-width: 1.5pt; stroke-linejoin:round; stroke-linecap:round;" d="M33.11 15c1.07 1.07 1.54 2.5 1.54 4.92c0 6.52 0.03 45.84 0.04 68.7c0 3.26 0 6.18 0 8.62"></path>
<path style="fill:none; fill-opacity:0%; fill-rule:evenodd; stroke:#aaaaaa; stroke-opacity:100%; stroke-width: 1.5pt; stroke-linejoin:round; stroke-linecap:round;" d="M33.19 41.53c0 1.47-0.87 3.69-1.62 5.35C26.52 57.98 21.75 66 14.11 75.09"></path>
<path style="fill:none; fill-opacity:0%; fill-rule:evenodd; stroke:#aaaaaa; stroke-opacity:100%; stroke-width: 1.5pt; stroke-linejoin:round; stroke-linecap:round;" d="M37.88 48c2.76 1.82 7.3 7.72 9.62 11.25"></path>
<path style="fill:none; fill-opacity:0%; fill-rule:evenodd; stroke:#aaaaaa; stroke-opacity:100%; stroke-width: 1.5pt; stroke-linejoin:round; stroke-linecap:round;" d="M48.05 45.03c2.95 0.59 5.17 0.39 7.58 0.14c9.03-0.93 24.87-3.04 35.26-4.16c2.66-0.29 5.15-0.37 7.86 0.21"></path>
<path style="fill:none; fill-opacity:0%; fill-rule:evenodd; stroke:#aaaaaa; stroke-opacity:100%; stroke-width: 1.5pt; stroke-linejoin:round; stroke-linecap:round;" d="M70.65 17.25c1.11 1.11 1.83 2.75 1.83 4.78c0 6.1-0.04 32.22-0.04 42.08"></path>
<path style="fill:none; fill-opacity:0%; fill-rule:evenodd; stroke:#aaaaaa; stroke-opacity:100%; stroke-width: 1.5pt; stroke-linejoin:round; stroke-linecap:round;" d="M53.54 65.89c0.97 0.97 1.31 2.26 1.54 3.74c0.65 4.17 1.65 11.37 2.51 17.89c0.24 1.82 0.46 3.59 0.67 5.23"></path>
<path style="fill:none; fill-opacity:0%; fill-rule:evenodd; stroke:#aaaaaa; stroke-opacity:100%; stroke-width: 1.5pt; stroke-linejoin:round; stroke-linecap:round;" d="M56.31 67.44C64.14 66.6 79 65 86.24 64.43c3.7-0.29 4.96 1.22 4.35 4.84c-0.83 4.93-2.11 11.04-3.21 16.9"></path>
<path style="fill:none; fill-opacity:0%; fill-rule:evenodd; stroke:#aaaaaa; stroke-opacity:100%; stroke-width: 1.5pt; stroke-linejoin:round; stroke-linecap:round;" d="M58.95 88.97c5.63-0.3 16.94-0.87 25.55-1.33c2-0.11 3.85-0.21 5.42-0.3"></path>

<path style="fill:none; fill-opacity:0%; fill-rule:evenodd; stroke:#000000; stroke-opacity:100%; stroke-width: 3pt; stroke-linejoin:round; stroke-linecap:round;" d="M14.78 42.22c1.97 0.53 5.18 0.32 6.63 0.08c5.77-0.96 16.32-3.18 22.13-4.34c1.26-0.25 3.08-0.58 4.47-0.34"></path>
<path style="fill:none; fill-opacity:0%; fill-rule:evenodd; stroke:#000000; stroke-opacity:100%; stroke-width: 3pt; stroke-linejoin:round; stroke-linecap:round;" d="M33.11 15c1.07 1.07 1.54 2.5 1.54 4.92c0 6.52 0.03 45.84 0.04 68.7c0 3.26 0 6.18 0 8.62"></path>
<path style="fill:none; fill-opacity:0%; fill-rule:evenodd; stroke:#000000; stroke-opacity:100%; stroke-width: 3pt; stroke-linejoin:round; stroke-linecap:round;" d="M33.19 41.53c0 1.47-0.87 3.69-1.62 5.35C26.52 57.98 21.75 66 14.11 75.09"></path>
<text x="5" y="20" font-size="20" fill="#999999">4</text><path style="fill:none; fill-opacity:0%; fill-rule:evenodd; stroke:#CC0000; stroke-opacity:100%; stroke-width: 3pt; stroke-linejoin:round; stroke-linecap:round;" d="M37.88 48c2.76 1.82 7.3 7.72 9.62 11.25" marker-end="url(#TriangleRed)" marker-start="url(#ArrowRed)" ></path>






</g><g transform="scale(1.3761467889908 1.3761467889908) translate(436, 0)">
<path style="fill:none; fill-rule:evenodd; stroke:#aaaaaa;  stroke-width:1pt; stroke-linecap:round;" d="m 109 0 L 0 0 L 0 109 L 109 109 L 109 0"></path><path style="fill:none; fill-opacity:0%; fill-rule:evenodd; stroke:#aaaaaa; stroke-opacity:100%; stroke-width: 1.5pt; stroke-linejoin:round; stroke-linecap:round;" d="M14.78 42.22c1.97 0.53 5.18 0.32 6.63 0.08c5.77-0.96 16.32-3.18 22.13-4.34c1.26-0.25 3.08-0.58 4.47-0.34"></path>
<path style="fill:none; fill-opacity:0%; fill-rule:evenodd; stroke:#aaaaaa; stroke-opacity:100%; stroke-width: 1.5pt; stroke-linejoin:round; stroke-linecap:round;" d="M33.11 15c1.07 1.07 1.54 2.5 1.54 4.92c0 6.52 0.03 45.84 0.04 68.7c0 3.26 0 6.18 0 8.62"></path>
<path style="fill:none; fill-opacity:0%; fill-rule:evenodd; stroke:#aaaaaa; stroke-opacity:100%; stroke-width: 1.5pt; stroke-linejoin:round; stroke-linecap:round;" d="M33.19 41.53c0 1.47-0.87 3.69-1.62 5.35C26.52 57.98 21.75 66 14.11 75.09"></path>
<path style="fill:none; fill-opacity:0%; fill-rule:evenodd; stroke:#aaaaaa; stroke-opacity:100%; stroke-width: 1.5pt; stroke-linejoin:round; stroke-linecap:round;" d="M37.88 48c2.76 1.82 7.3 7.72 9.62 11.25"></path>
<path style="fill:none; fill-opacity:0%; fill-rule:evenodd; stroke:#aaaaaa; stroke-opacity:100%; stroke-width: 1.5pt; stroke-linejoin:round; stroke-linecap:round;" d="M48.05 45.03c2.95 0.59 5.17 0.39 7.58 0.14c9.03-0.93 24.87-3.04 35.26-4.16c2.66-0.29 5.15-0.37 7.86 0.21"></path>
<path style="fill:none; fill-opacity:0%; fill-rule:evenodd; stroke:#aaaaaa; stroke-opacity:100%; stroke-width: 1.5pt; stroke-linejoin:round; stroke-linecap:round;" d="M70.65 17.25c1.11 1.11 1.83 2.75 1.83 4.78c0 6.1-0.04 32.22-0.04 42.08"></path>
<path style="fill:none; fill-opacity:0%; fill-rule:evenodd; stroke:#aaaaaa; stroke-opacity:100%; stroke-width: 1.5pt; stroke-linejoin:round; stroke-linecap:round;" d="M53.54 65.89c0.97 0.97 1.31 2.26 1.54 3.74c0.65 4.17 1.65 11.37 2.51 17.89c0.24 1.82 0.46 3.59 0.67 5.23"></path>
<path style="fill:none; fill-opacity:0%; fill-rule:evenodd; stroke:#aaaaaa; stroke-opacity:100%; stroke-width: 1.5pt; stroke-linejoin:round; stroke-linecap:round;" d="M56.31 67.44C64.14 66.6 79 65 86.24 64.43c3.7-0.29 4.96 1.22 4.35 4.84c-0.83 4.93-2.11 11.04-3.21 16.9"></path>
<path style="fill:none; fill-opacity:0%; fill-rule:evenodd; stroke:#aaaaaa; stroke-opacity:100%; stroke-width: 1.5pt; stroke-linejoin:round; stroke-linecap:round;" d="M58.95 88.97c5.63-0.3 16.94-0.87 25.55-1.33c2-0.11 3.85-0.21 5.42-0.3"></path>

<path style="fill:none; fill-opacity:0%; fill-rule:evenodd; stroke:#000000; stroke-opacity:100%; stroke-width: 3pt; stroke-linejoin:round; stroke-linecap:round;" d="M14.78 42.22c1.97 0.53 5.18 0.32 6.63 0.08c5.77-0.96 16.32-3.18 22.13-4.34c1.26-0.25 3.08-0.58 4.47-0.34"></path>
<path style="fill:none; fill-opacity:0%; fill-rule:evenodd; stroke:#000000; stroke-opacity:100%; stroke-width: 3pt; stroke-linejoin:round; stroke-linecap:round;" d="M33.11 15c1.07 1.07 1.54 2.5 1.54 4.92c0 6.52 0.03 45.84 0.04 68.7c0 3.26 0 6.18 0 8.62"></path>
<path style="fill:none; fill-opacity:0%; fill-rule:evenodd; stroke:#000000; stroke-opacity:100%; stroke-width: 3pt; stroke-linejoin:round; stroke-linecap:round;" d="M33.19 41.53c0 1.47-0.87 3.69-1.62 5.35C26.52 57.98 21.75 66 14.11 75.09"></path>
<path style="fill:none; fill-opacity:0%; fill-rule:evenodd; stroke:#000000; stroke-opacity:100%; stroke-width: 3pt; stroke-linejoin:round; stroke-linecap:round;" d="M37.88 48c2.76 1.82 7.3 7.72 9.62 11.25"></path>
<text x="5" y="20" font-size="20" fill="#999999">5</text><path style="fill:none; fill-opacity:0%; fill-rule:evenodd; stroke:#CC0000; stroke-opacity:100%; stroke-width: 3pt; stroke-linejoin:round; stroke-linecap:round;" d="M48.05 45.03c2.95 0.59 5.17 0.39 7.58 0.14c9.03-0.93 24.87-3.04 35.26-4.16c2.66-0.29 5.15-0.37 7.86 0.21" marker-end="url(#TriangleRed)" marker-start="url(#ArrowRed)" ></path>





</g><g transform="scale(1.3761467889908 1.3761467889908) translate(0, 109)">
<path style="fill:none; fill-rule:evenodd; stroke:#aaaaaa;  stroke-width:1pt; stroke-linecap:round;" d="m 109 0 L 0 0 L 0 109 L 109 109 L 109 0"></path><path style="fill:none; fill-opacity:0%; fill-rule:evenodd; stroke:#aaaaaa; stroke-opacity:100%; stroke-width: 1.5pt; stroke-linejoin:round; stroke-linecap:round;" d="M14.78 42.22c1.97 0.53 5.18 0.32 6.63 0.08c5.77-0.96 16.32-3.18 22.13-4.34c1.26-0.25 3.08-0.58 4.47-0.34"></path>
<path style="fill:none; fill-opacity:0%; fill-rule:evenodd; stroke:#aaaaaa; stroke-opacity:100%; stroke-width: 1.5pt; stroke-linejoin:round; stroke-linecap:round;" d="M33.11 15c1.07 1.07 1.54 2.5 1.54 4.92c0 6.52 0.03 45.84 0.04 68.7c0 3.26 0 6.18 0 8.62"></path>
<path style="fill:none; fill-opacity:0%; fill-rule:evenodd; stroke:#aaaaaa; stroke-opacity:100%; stroke-width: 1.5pt; stroke-linejoin:round; stroke-linecap:round;" d="M33.19 41.53c0 1.47-0.87 3.69-1.62 5.35C26.52 57.98 21.75 66 14.11 75.09"></path>
<path style="fill:none; fill-opacity:0%; fill-rule:evenodd; stroke:#aaaaaa; stroke-opacity:100%; stroke-width: 1.5pt; stroke-linejoin:round; stroke-linecap:round;" d="M37.88 48c2.76 1.82 7.3 7.72 9.62 11.25"></path>
<path style="fill:none; fill-opacity:0%; fill-rule:evenodd; stroke:#aaaaaa; stroke-opacity:100%; stroke-width: 1.5pt; stroke-linejoin:round; stroke-linecap:round;" d="M48.05 45.03c2.95 0.59 5.17 0.39 7.58 0.14c9.03-0.93 24.87-3.04 35.26-4.16c2.66-0.29 5.15-0.37 7.86 0.21"></path>
<path style="fill:none; fill-opacity:0%; fill-rule:evenodd; stroke:#aaaaaa; stroke-opacity:100%; stroke-width: 1.5pt; stroke-linejoin:round; stroke-linecap:round;" d="M70.65 17.25c1.11 1.11 1.83 2.75 1.83 4.78c0 6.1-0.04 32.22-0.04 42.08"></path>
<path style="fill:none; fill-opacity:0%; fill-rule:evenodd; stroke:#aaaaaa; stroke-opacity:100%; stroke-width: 1.5pt; stroke-linejoin:round; stroke-linecap:round;" d="M53.54 65.89c0.97 0.97 1.31 2.26 1.54 3.74c0.65 4.17 1.65 11.37 2.51 17.89c0.24 1.82 0.46 3.59 0.67 5.23"></path>
<path style="fill:none; fill-opacity:0%; fill-rule:evenodd; stroke:#aaaaaa; stroke-opacity:100%; stroke-width: 1.5pt; stroke-linejoin:round; stroke-linecap:round;" d="M56.31 67.44C64.14 66.6 79 65 86.24 64.43c3.7-0.29 4.96 1.22 4.35 4.84c-0.83 4.93-2.11 11.04-3.21 16.9"></path>
<path style="fill:none; fill-opacity:0%; fill-rule:evenodd; stroke:#aaaaaa; stroke-opacity:100%; stroke-width: 1.5pt; stroke-linejoin:round; stroke-linecap:round;" d="M58.95 88.97c5.63-0.3 16.94-0.87 25.55-1.33c2-0.11 3.85-0.21 5.42-0.3"></path>

<path style="fill:none; fill-opacity:0%; fill-rule:evenodd; stroke:#000000; stroke-opacity:100%; stroke-width: 3pt; stroke-linejoin:round; stroke-linecap:round;" d="M14.78 42.22c1.97 0.53 5.18 0.32 6.63 0.08c5.77-0.96 16.32-3.18 22.13-4.34c1.26-0.25 3.08-0.58 4.47-0.34"></path>
<path style="fill:none; fill-opacity:0%; fill-rule:evenodd; stroke:#000000; stroke-opacity:100%; stroke-width: 3pt; stroke-linejoin:round; stroke-linecap:round;" d="M33.11 15c1.07 1.07 1.54 2.5 1.54 4.92c0 6.52 0.03 45.84 0.04 68.7c0 3.26 0 6.18 0 8.62"></path>
<path style="fill:none; fill-opacity:0%; fill-rule:evenodd; stroke:#000000; stroke-opacity:100%; stroke-width: 3pt; stroke-linejoin:round; stroke-linecap:round;" d="M33.19 41.53c0 1.47-0.87 3.69-1.62 5.35C26.52 57.98 21.75 66 14.11 75.09"></path>
<path style="fill:none; fill-opacity:0%; fill-rule:evenodd; stroke:#000000; stroke-opacity:100%; stroke-width: 3pt; stroke-linejoin:round; stroke-linecap:round;" d="M37.88 48c2.76 1.82 7.3 7.72 9.62 11.25"></path>
<path style="fill:none; fill-opacity:0%; fill-rule:evenodd; stroke:#000000; stroke-opacity:100%; stroke-width: 3pt; stroke-linejoin:round; stroke-linecap:round;" d="M48.05 45.03c2.95 0.59 5.17 0.39 7.58 0.14c9.03-0.93 24.87-3.04 35.26-4.16c2.66-0.29 5.15-0.37 7.86 0.21"></path>
<text x="5" y="20" font-size="20" fill="#999999">6</text><path style="fill:none; fill-opacity:0%; fill-rule:evenodd; stroke:#CC0000; stroke-opacity:100%; stroke-width: 3pt; stroke-linejoin:round; stroke-linecap:round;" d="M70.65 17.25c1.11 1.11 1.83 2.75 1.83 4.78c0 6.1-0.04 32.22-0.04 42.08" marker-end="url(#TriangleRed)" marker-start="url(#ArrowRed)" ></path>




</g><g transform="scale(1.3761467889908 1.3761467889908) translate(109, 109)">
<path style="fill:none; fill-rule:evenodd; stroke:#aaaaaa;  stroke-width:1pt; stroke-linecap:round;" d="m 109 0 L 0 0 L 0 109 L 109 109 L 109 0"></path><path style="fill:none; fill-opacity:0%; fill-rule:evenodd; stroke:#aaaaaa; stroke-opacity:100%; stroke-width: 1.5pt; stroke-linejoin:round; stroke-linecap:round;" d="M14.78 42.22c1.97 0.53 5.18 0.32 6.63 0.08c5.77-0.96 16.32-3.18 22.13-4.34c1.26-0.25 3.08-0.58 4.47-0.34"></path>
<path style="fill:none; fill-opacity:0%; fill-rule:evenodd; stroke:#aaaaaa; stroke-opacity:100%; stroke-width: 1.5pt; stroke-linejoin:round; stroke-linecap:round;" d="M33.11 15c1.07 1.07 1.54 2.5 1.54 4.92c0 6.52 0.03 45.84 0.04 68.7c0 3.26 0 6.18 0 8.62"></path>
<path style="fill:none; fill-opacity:0%; fill-rule:evenodd; stroke:#aaaaaa; stroke-opacity:100%; stroke-width: 1.5pt; stroke-linejoin:round; stroke-linecap:round;" d="M33.19 41.53c0 1.47-0.87 3.69-1.62 5.35C26.52 57.98 21.75 66 14.11 75.09"></path>
<path style="fill:none; fill-opacity:0%; fill-rule:evenodd; stroke:#aaaaaa; stroke-opacity:100%; stroke-width: 1.5pt; stroke-linejoin:round; stroke-linecap:round;" d="M37.88 48c2.76 1.82 7.3 7.72 9.62 11.25"></path>
<path style="fill:none; fill-opacity:0%; fill-rule:evenodd; stroke:#aaaaaa; stroke-opacity:100%; stroke-width: 1.5pt; stroke-linejoin:round; stroke-linecap:round;" d="M48.05 45.03c2.95 0.59 5.17 0.39 7.58 0.14c9.03-0.93 24.87-3.04 35.26-4.16c2.66-0.29 5.15-0.37 7.86 0.21"></path>
<path style="fill:none; fill-opacity:0%; fill-rule:evenodd; stroke:#aaaaaa; stroke-opacity:100%; stroke-width: 1.5pt; stroke-linejoin:round; stroke-linecap:round;" d="M70.65 17.25c1.11 1.11 1.83 2.75 1.83 4.78c0 6.1-0.04 32.22-0.04 42.08"></path>
<path style="fill:none; fill-opacity:0%; fill-rule:evenodd; stroke:#aaaaaa; stroke-opacity:100%; stroke-width: 1.5pt; stroke-linejoin:round; stroke-linecap:round;" d="M53.54 65.89c0.97 0.97 1.31 2.26 1.54 3.74c0.65 4.17 1.65 11.37 2.51 17.89c0.24 1.82 0.46 3.59 0.67 5.23"></path>
<path style="fill:none; fill-opacity:0%; fill-rule:evenodd; stroke:#aaaaaa; stroke-opacity:100%; stroke-width: 1.5pt; stroke-linejoin:round; stroke-linecap:round;" d="M56.31 67.44C64.14 66.6 79 65 86.24 64.43c3.7-0.29 4.96 1.22 4.35 4.84c-0.83 4.93-2.11 11.04-3.21 16.9"></path>
<path style="fill:none; fill-opacity:0%; fill-rule:evenodd; stroke:#aaaaaa; stroke-opacity:100%; stroke-width: 1.5pt; stroke-linejoin:round; stroke-linecap:round;" d="M58.95 88.97c5.63-0.3 16.94-0.87 25.55-1.33c2-0.11 3.85-0.21 5.42-0.3"></path>

<path style="fill:none; fill-opacity:0%; fill-rule:evenodd; stroke:#000000; stroke-opacity:100%; stroke-width: 3pt; stroke-linejoin:round; stroke-linecap:round;" d="M14.78 42.22c1.97 0.53 5.18 0.32 6.63 0.08c5.77-0.96 16.32-3.18 22.13-4.34c1.26-0.25 3.08-0.58 4.47-0.34"></path>
<path style="fill:none; fill-opacity:0%; fill-rule:evenodd; stroke:#000000; stroke-opacity:100%; stroke-width: 3pt; stroke-linejoin:round; stroke-linecap:round;" d="M33.11 15c1.07 1.07 1.54 2.5 1.54 4.92c0 6.52 0.03 45.84 0.04 68.7c0 3.26 0 6.18 0 8.62"></path>
<path style="fill:none; fill-opacity:0%; fill-rule:evenodd; stroke:#000000; stroke-opacity:100%; stroke-width: 3pt; stroke-linejoin:round; stroke-linecap:round;" d="M33.19 41.53c0 1.47-0.87 3.69-1.62 5.35C26.52 57.98 21.75 66 14.11 75.09"></path>
<path style="fill:none; fill-opacity:0%; fill-rule:evenodd; stroke:#000000; stroke-opacity:100%; stroke-width: 3pt; stroke-linejoin:round; stroke-linecap:round;" d="M37.88 48c2.76 1.82 7.3 7.72 9.62 11.25"></path>
<path style="fill:none; fill-opacity:0%; fill-rule:evenodd; stroke:#000000; stroke-opacity:100%; stroke-width: 3pt; stroke-linejoin:round; stroke-linecap:round;" d="M48.05 45.03c2.95 0.59 5.17 0.39 7.58 0.14c9.03-0.93 24.87-3.04 35.26-4.16c2.66-0.29 5.15-0.37 7.86 0.21"></path>
<path style="fill:none; fill-opacity:0%; fill-rule:evenodd; stroke:#000000; stroke-opacity:100%; stroke-width: 3pt; stroke-linejoin:round; stroke-linecap:round;" d="M70.65 17.25c1.11 1.11 1.83 2.75 1.83 4.78c0 6.1-0.04 32.22-0.04 42.08"></path>
<text x="5" y="20" font-size="20" fill="#999999">7</text><path style="fill:none; fill-opacity:0%; fill-rule:evenodd; stroke:#CC0000; stroke-opacity:100%; stroke-width: 3pt; stroke-linejoin:round; stroke-linecap:round;" d="M53.54 65.89c0.97 0.97 1.31 2.26 1.54 3.74c0.65 4.17 1.65 11.37 2.51 17.89c0.24 1.82 0.46 3.59 0.67 5.23" marker-end="url(#TriangleRed)" marker-start="url(#ArrowRed)" ></path>



</g><g transform="scale(1.3761467889908 1.3761467889908) translate(218, 109)">
<path style="fill:none; fill-rule:evenodd; stroke:#aaaaaa;  stroke-width:1pt; stroke-linecap:round;" d="m 109 0 L 0 0 L 0 109 L 109 109 L 109 0"></path><path style="fill:none; fill-opacity:0%; fill-rule:evenodd; stroke:#aaaaaa; stroke-opacity:100%; stroke-width: 1.5pt; stroke-linejoin:round; stroke-linecap:round;" d="M14.78 42.22c1.97 0.53 5.18 0.32 6.63 0.08c5.77-0.96 16.32-3.18 22.13-4.34c1.26-0.25 3.08-0.58 4.47-0.34"></path>
<path style="fill:none; fill-opacity:0%; fill-rule:evenodd; stroke:#aaaaaa; stroke-opacity:100%; stroke-width: 1.5pt; stroke-linejoin:round; stroke-linecap:round;" d="M33.11 15c1.07 1.07 1.54 2.5 1.54 4.92c0 6.52 0.03 45.84 0.04 68.7c0 3.26 0 6.18 0 8.62"></path>
<path style="fill:none; fill-opacity:0%; fill-rule:evenodd; stroke:#aaaaaa; stroke-opacity:100%; stroke-width: 1.5pt; stroke-linejoin:round; stroke-linecap:round;" d="M33.19 41.53c0 1.47-0.87 3.69-1.62 5.35C26.52 57.98 21.75 66 14.11 75.09"></path>
<path style="fill:none; fill-opacity:0%; fill-rule:evenodd; stroke:#aaaaaa; stroke-opacity:100%; stroke-width: 1.5pt; stroke-linejoin:round; stroke-linecap:round;" d="M37.88 48c2.76 1.82 7.3 7.72 9.62 11.25"></path>
<path style="fill:none; fill-opacity:0%; fill-rule:evenodd; stroke:#aaaaaa; stroke-opacity:100%; stroke-width: 1.5pt; stroke-linejoin:round; stroke-linecap:round;" d="M48.05 45.03c2.95 0.59 5.17 0.39 7.58 0.14c9.03-0.93 24.87-3.04 35.26-4.16c2.66-0.29 5.15-0.37 7.86 0.21"></path>
<path style="fill:none; fill-opacity:0%; fill-rule:evenodd; stroke:#aaaaaa; stroke-opacity:100%; stroke-width: 1.5pt; stroke-linejoin:round; stroke-linecap:round;" d="M70.65 17.25c1.11 1.11 1.83 2.75 1.83 4.78c0 6.1-0.04 32.22-0.04 42.08"></path>
<path style="fill:none; fill-opacity:0%; fill-rule:evenodd; stroke:#aaaaaa; stroke-opacity:100%; stroke-width: 1.5pt; stroke-linejoin:round; stroke-linecap:round;" d="M53.54 65.89c0.97 0.97 1.31 2.26 1.54 3.74c0.65 4.17 1.65 11.37 2.51 17.89c0.24 1.82 0.46 3.59 0.67 5.23"></path>
<path style="fill:none; fill-opacity:0%; fill-rule:evenodd; stroke:#aaaaaa; stroke-opacity:100%; stroke-width: 1.5pt; stroke-linejoin:round; stroke-linecap:round;" d="M56.31 67.44C64.14 66.6 79 65 86.24 64.43c3.7-0.29 4.96 1.22 4.35 4.84c-0.83 4.93-2.11 11.04-3.21 16.9"></path>
<path style="fill:none; fill-opacity:0%; fill-rule:evenodd; stroke:#aaaaaa; stroke-opacity:100%; stroke-width: 1.5pt; stroke-linejoin:round; stroke-linecap:round;" d="M58.95 88.97c5.63-0.3 16.94-0.87 25.55-1.33c2-0.11 3.85-0.21 5.42-0.3"></path>

<path style="fill:none; fill-opacity:0%; fill-rule:evenodd; stroke:#000000; stroke-opacity:100%; stroke-width: 3pt; stroke-linejoin:round; stroke-linecap:round;" d="M14.78 42.22c1.97 0.53 5.18 0.32 6.63 0.08c5.77-0.96 16.32-3.18 22.13-4.34c1.26-0.25 3.08-0.58 4.47-0.34"></path>
<path style="fill:none; fill-opacity:0%; fill-rule:evenodd; stroke:#000000; stroke-opacity:100%; stroke-width: 3pt; stroke-linejoin:round; stroke-linecap:round;" d="M33.11 15c1.07 1.07 1.54 2.5 1.54 4.92c0 6.52 0.03 45.84 0.04 68.7c0 3.26 0 6.18 0 8.62"></path>
<path style="fill:none; fill-opacity:0%; fill-rule:evenodd; stroke:#000000; stroke-opacity:100%; stroke-width: 3pt; stroke-linejoin:round; stroke-linecap:round;" d="M33.19 41.53c0 1.47-0.87 3.69-1.62 5.35C26.52 57.98 21.75 66 14.11 75.09"></path>
<path style="fill:none; fill-opacity:0%; fill-rule:evenodd; stroke:#000000; stroke-opacity:100%; stroke-width: 3pt; stroke-linejoin:round; stroke-linecap:round;" d="M37.88 48c2.76 1.82 7.3 7.72 9.62 11.25"></path>
<path style="fill:none; fill-opacity:0%; fill-rule:evenodd; stroke:#000000; stroke-opacity:100%; stroke-width: 3pt; stroke-linejoin:round; stroke-linecap:round;" d="M48.05 45.03c2.95 0.59 5.17 0.39 7.58 0.14c9.03-0.93 24.87-3.04 35.26-4.16c2.66-0.29 5.15-0.37 7.86 0.21"></path>
<path style="fill:none; fill-opacity:0%; fill-rule:evenodd; stroke:#000000; stroke-opacity:100%; stroke-width: 3pt; stroke-linejoin:round; stroke-linecap:round;" d="M70.65 17.25c1.11 1.11 1.83 2.75 1.83 4.78c0 6.1-0.04 32.22-0.04 42.08"></path>
<path style="fill:none; fill-opacity:0%; fill-rule:evenodd; stroke:#000000; stroke-opacity:100%; stroke-width: 3pt; stroke-linejoin:round; stroke-linecap:round;" d="M53.54 65.89c0.97 0.97 1.31 2.26 1.54 3.74c0.65 4.17 1.65 11.37 2.51 17.89c0.24 1.82 0.46 3.59 0.67 5.23"></path>
<text x="5" y="20" font-size="20" fill="#999999">8</text><path style="fill:none; fill-opacity:0%; fill-rule:evenodd; stroke:#CC0000; stroke-opacity:100%; stroke-width: 3pt; stroke-linejoin:round; stroke-linecap:round;" d="M56.31 67.44C64.14 66.6 79 65 86.24 64.43c3.7-0.29 4.96 1.22 4.35 4.84c-0.83 4.93-2.11 11.04-3.21 16.9" marker-end="url(#TriangleRed)" marker-start="url(#ArrowRed)" ></path>


</g><g transform="scale(1.3761467889908 1.3761467889908) translate(327, 109)">
<path style="fill:none; fill-rule:evenodd; stroke:#aaaaaa;  stroke-width:1pt; stroke-linecap:round;" d="m 109 0 L 0 0 L 0 109 L 109 109 L 109 0"></path><path style="fill:none; fill-opacity:0%; fill-rule:evenodd; stroke:#aaaaaa; stroke-opacity:100%; stroke-width: 1.5pt; stroke-linejoin:round; stroke-linecap:round;" d="M14.78 42.22c1.97 0.53 5.18 0.32 6.63 0.08c5.77-0.96 16.32-3.18 22.13-4.34c1.26-0.25 3.08-0.58 4.47-0.34"></path>
<path style="fill:none; fill-opacity:0%; fill-rule:evenodd; stroke:#aaaaaa; stroke-opacity:100%; stroke-width: 1.5pt; stroke-linejoin:round; stroke-linecap:round;" d="M33.11 15c1.07 1.07 1.54 2.5 1.54 4.92c0 6.52 0.03 45.84 0.04 68.7c0 3.26 0 6.18 0 8.62"></path>
<path style="fill:none; fill-opacity:0%; fill-rule:evenodd; stroke:#aaaaaa; stroke-opacity:100%; stroke-width: 1.5pt; stroke-linejoin:round; stroke-linecap:round;" d="M33.19 41.53c0 1.47-0.87 3.69-1.62 5.35C26.52 57.98 21.75 66 14.11 75.09"></path>
<path style="fill:none; fill-opacity:0%; fill-rule:evenodd; stroke:#aaaaaa; stroke-opacity:100%; stroke-width: 1.5pt; stroke-linejoin:round; stroke-linecap:round;" d="M37.88 48c2.76 1.82 7.3 7.72 9.62 11.25"></path>
<path style="fill:none; fill-opacity:0%; fill-rule:evenodd; stroke:#aaaaaa; stroke-opacity:100%; stroke-width: 1.5pt; stroke-linejoin:round; stroke-linecap:round;" d="M48.05 45.03c2.95 0.59 5.17 0.39 7.58 0.14c9.03-0.93 24.87-3.04 35.26-4.16c2.66-0.29 5.15-0.37 7.86 0.21"></path>
<path style="fill:none; fill-opacity:0%; fill-rule:evenodd; stroke:#aaaaaa; stroke-opacity:100%; stroke-width: 1.5pt; stroke-linejoin:round; stroke-linecap:round;" d="M70.65 17.25c1.11 1.11 1.83 2.75 1.83 4.78c0 6.1-0.04 32.22-0.04 42.08"></path>
<path style="fill:none; fill-opacity:0%; fill-rule:evenodd; stroke:#aaaaaa; stroke-opacity:100%; stroke-width: 1.5pt; stroke-linejoin:round; stroke-linecap:round;" d="M53.54 65.89c0.97 0.97 1.31 2.26 1.54 3.74c0.65 4.17 1.65 11.37 2.51 17.89c0.24 1.82 0.46 3.59 0.67 5.23"></path>
<path style="fill:none; fill-opacity:0%; fill-rule:evenodd; stroke:#aaaaaa; stroke-opacity:100%; stroke-width: 1.5pt; stroke-linejoin:round; stroke-linecap:round;" d="M56.31 67.44C64.14 66.6 79 65 86.24 64.43c3.7-0.29 4.96 1.22 4.35 4.84c-0.83 4.93-2.11 11.04-3.21 16.9"></path>
<path style="fill:none; fill-opacity:0%; fill-rule:evenodd; stroke:#aaaaaa; stroke-opacity:100%; stroke-width: 1.5pt; stroke-linejoin:round; stroke-linecap:round;" d="M58.95 88.97c5.63-0.3 16.94-0.87 25.55-1.33c2-0.11 3.85-0.21 5.42-0.3"></path>

<path style="fill:none; fill-opacity:0%; fill-rule:evenodd; stroke:#000000; stroke-opacity:100%; stroke-width: 3pt; stroke-linejoin:round; stroke-linecap:round;" d="M14.78 42.22c1.97 0.53 5.18 0.32 6.63 0.08c5.77-0.96 16.32-3.18 22.13-4.34c1.26-0.25 3.08-0.58 4.47-0.34"></path>
<path style="fill:none; fill-opacity:0%; fill-rule:evenodd; stroke:#000000; stroke-opacity:100%; stroke-width: 3pt; stroke-linejoin:round; stroke-linecap:round;" d="M33.11 15c1.07 1.07 1.54 2.5 1.54 4.92c0 6.52 0.03 45.84 0.04 68.7c0 3.26 0 6.18 0 8.62"></path>
<path style="fill:none; fill-opacity:0%; fill-rule:evenodd; stroke:#000000; stroke-opacity:100%; stroke-width: 3pt; stroke-linejoin:round; stroke-linecap:round;" d="M33.19 41.53c0 1.47-0.87 3.69-1.62 5.35C26.52 57.98 21.75 66 14.11 75.09"></path>
<path style="fill:none; fill-opacity:0%; fill-rule:evenodd; stroke:#000000; stroke-opacity:100%; stroke-width: 3pt; stroke-linejoin:round; stroke-linecap:round;" d="M37.88 48c2.76 1.82 7.3 7.72 9.62 11.25"></path>
<path style="fill:none; fill-opacity:0%; fill-rule:evenodd; stroke:#000000; stroke-opacity:100%; stroke-width: 3pt; stroke-linejoin:round; stroke-linecap:round;" d="M48.05 45.03c2.95 0.59 5.17 0.39 7.58 0.14c9.03-0.93 24.87-3.04 35.26-4.16c2.66-0.29 5.15-0.37 7.86 0.21"></path>
<path style="fill:none; fill-opacity:0%; fill-rule:evenodd; stroke:#000000; stroke-opacity:100%; stroke-width: 3pt; stroke-linejoin:round; stroke-linecap:round;" d="M70.65 17.25c1.11 1.11 1.83 2.75 1.83 4.78c0 6.1-0.04 32.22-0.04 42.08"></path>
<path style="fill:none; fill-opacity:0%; fill-rule:evenodd; stroke:#000000; stroke-opacity:100%; stroke-width: 3pt; stroke-linejoin:round; stroke-linecap:round;" d="M53.54 65.89c0.97 0.97 1.31 2.26 1.54 3.74c0.65 4.17 1.65 11.37 2.51 17.89c0.24 1.82 0.46 3.59 0.67 5.23"></path>
<path style="fill:none; fill-opacity:0%; fill-rule:evenodd; stroke:#000000; stroke-opacity:100%; stroke-width: 3pt; stroke-linejoin:round; stroke-linecap:round;" d="M56.31 67.44C64.14 66.6 79 65 86.24 64.43c3.7-0.29 4.96 1.22 4.35 4.84c-0.83 4.93-2.11 11.04-3.21 16.9"></path>
<text x="5" y="20" font-size="20" fill="#999999">9</text><path style="fill:none; fill-opacity:0%; fill-rule:evenodd; stroke:#CC0000; stroke-opacity:100%; stroke-width: 3pt; stroke-linejoin:round; stroke-linecap:round;" d="M58.95 88.97c5.63-0.3 16.94-0.87 25.55-1.33c2-0.11 3.85-0.21 5.42-0.3" marker-end="url(#TriangleRed)" marker-start="url(#ArrowRed)" ></path>

</g>

</svg>  
          
