<?xml version="1.0" standalone="no"?>
<!DOCTYPE svg PUBLIC "-//W3C//DTD SVG 1.1//EN"   "http://www.w3.org/Graphics/SVG/1.1/DTD/svg11.dtd">
<svg width="751" height="301"  version="1.1" xmlns="http://www.w3.org/2000/svg">
  <defs>
    <marker id="Triangle" viewBox="0 0 10 10" refX="0" refY="5" markerUnits="strokeWidth" markerWidth="3" style="stroke-opacity:0%;fill:#aaaaaa;" markerHeight="2" orient="auto">
      <path d="M 0 0 L 10 5 L 0 10 z" />
    </marker>
    
    <marker id="Arrow" viewBox="0 0 10 10" refX="5" refY="5" markerUnits="strokeWidth" markerWidth="1.8" style="stroke-opacity:0%;fill:#770000;" markerHeight="2" orient="auto">
      <path d="M 0 4 L 6 4 L 4 1 L 10 5 L 4 9 L 6 6 L 0 6 z" />
        <circle cx="5" cy="5" r="5" />
      </marker>
    
    <marker id="TriangleRed" viewBox="0 0 10 10" refX="0" refY="5" markerUnits="strokeWidth" markerWidth="3" style="stroke-opacity:0%;fill:#CC0000;" markerHeight="2" orient="auto">
      <path d="M 0 0 L 10 5 L 0 10 z" />
    </marker>
    
    <marker id="ArrowRed" viewBox="0 0 10 10" refX="5" refY="5" markerUnits="strokeWidth" markerWidth="1.8" style="stroke-opacity:0%;fill:#CC0000;" markerHeight="2" orient="auto">
      <path d="M 0 4 L 6 4 L 4 1 L 10 5 L 4 9 L 6 6 L 0 6 z" />
        <circle cx="5" cy="5" r="5" />
      </marker>
    
  </defs>
  
  <path style="fill:#ffffff; fill-opacity:100%; fill-rule:evenodd; stroke-width:0;" d="M 0 0 L 751 0 L 751 301 L 0 301 L 0 0" />

  <g transform="scale(1.3761467889908 1.3761467889908) translate(0, 0)">
<path style="fill:none; fill-rule:evenodd; stroke:#aaaaaa;  stroke-width:1pt; stroke-linecap:round;" d="m 109 0 L 0 0 L 0 109 L 109 109 L 109 0"></path><path style="fill:none; fill-opacity:0%; fill-rule:evenodd; stroke:#aaaaaa; stroke-opacity:100%; stroke-width: 1.5pt; stroke-linejoin:round; stroke-linecap:round;" d="M12.28 38.07c0.36 0.2 2.47 0.33 3.42 0.26c4.08-0.33 17.7-1.79 24.25-2.77c0.95-0.14 2.22-0.2 2.82 0"></path>
<path style="fill:none; fill-opacity:0%; fill-rule:evenodd; stroke:#aaaaaa; stroke-opacity:100%; stroke-width: 1.5pt; stroke-linejoin:round; stroke-linecap:round;" d="M27.86 16c0.91 0.47 2.04 2 2.04 4.42c0 0.95-0.12 69.25-0.3 75.08"></path>
<path style="fill:none; fill-opacity:0%; fill-rule:evenodd; stroke:#aaaaaa; stroke-opacity:100%; stroke-width: 1.5pt; stroke-linejoin:round; stroke-linecap:round;" d="M29.44 40.78c-5.5 15.26-8.56 21.7-17.08 35.06"></path>
<path style="fill:none; fill-opacity:0%; fill-rule:evenodd; stroke:#aaaaaa; stroke-opacity:100%; stroke-width: 1.5pt; stroke-linejoin:round; stroke-linecap:round;" d="M32.72 47.4c2.44 1.8 6.47 5.37 8.53 8.85"></path>
<path style="fill:none; fill-opacity:0%; fill-rule:evenodd; stroke:#aaaaaa; stroke-opacity:100%; stroke-width: 1.5pt; stroke-linejoin:round; stroke-linecap:round;" d="M83.47 12.86c0.1 0.36 0.21 0.92-0.2 1.43c-2.39 3.01-13.58 8.94-32.17 14"></path>
<path style="fill:none; fill-opacity:0%; fill-rule:evenodd; stroke:#aaaaaa; stroke-opacity:100%; stroke-width: 1.5pt; stroke-linejoin:round; stroke-linecap:round;" d="M48.16 27.45c1.09 1.05 1.57 2.57 1.57 4.54c0 1.97-0.17 42.44-0.17 45.51c0 3.07 0.17 3.94 2.4 1.75c2.23-2.19 12.06-9.67 13.43-10.98"></path>
<path style="fill:none; fill-opacity:0%; fill-rule:evenodd; stroke:#aaaaaa; stroke-opacity:100%; stroke-width: 1.5pt; stroke-linejoin:round; stroke-linecap:round;" d="M50.03 46.09c0.69 0.13 1.96-0.13 2.65-0.18c15.06-1.1 23.4-2.64 35.4-4c1.13-0.13 4-0.25 4.58-0.18"></path>
<path style="fill:none; fill-opacity:0%; fill-rule:evenodd; stroke:#aaaaaa; stroke-opacity:100%; stroke-width: 1.5pt; stroke-linejoin:round; stroke-linecap:round;" d="M69.15 25.57c0.43 0.47 1.32 2.86 1.33 3.79C70.75 52.75 75.5 81 89.89 92.97c5.02 4.17 3.47-3.39 3.47-6.29"></path>
<path style="fill:none; fill-opacity:0%; fill-rule:evenodd; stroke:#aaaaaa; stroke-opacity:100%; stroke-width: 1.5pt; stroke-linejoin:round; stroke-linecap:round;" d="M46.25 91.39c0.94 0.38 2.66 0.38 3.6 0.38c6.4-0.02 17.65-1.52 24.61-2.38c1.55-0.19 2.5 0.18 3.29 0.37"></path>

<text x="5" y="20" font-size="20" fill="#999999">1</text><path style="fill:none; fill-opacity:0%; fill-rule:evenodd; stroke:#CC0000; stroke-opacity:100%; stroke-width: 3pt; stroke-linejoin:round; stroke-linecap:round;" d="M12.28 38.07c0.36 0.2 2.47 0.33 3.42 0.26c4.08-0.33 17.7-1.79 24.25-2.77c0.95-0.14 2.22-0.2 2.82 0" marker-end="url(#TriangleRed)" marker-start="url(#ArrowRed)" ></path>









</g><g transform="scale(1.3761467889908 1.3761467889908) translate(109, 0)">
<path style="fill:none; fill-rule:evenodd; stroke:#aaaaaa;  stroke-width:1pt; stroke-linecap:round;" d="m 109 0 L 0 0 L 0 109 L 109 109 L 109 0"></path><path style="fill:none; fill-opacity:0%; fill-rule:evenodd; stroke:#aaaaaa; stroke-opacity:100%; stroke-width: 1.5pt; stroke-linejoin:round; stroke-linecap:round;" d="M12.28 38.07c0.36 0.2 2.47 0.33 3.42 0.26c4.08-0.33 17.7-1.79 24.25-2.77c0.95-0.14 2.22-0.2 2.82 0"></path>
<path style="fill:none; fill-opacity:0%; fill-rule:evenodd; stroke:#aaaaaa; stroke-opacity:100%; stroke-width: 1.5pt; stroke-linejoin:round; stroke-linecap:round;" d="M27.86 16c0.91 0.47 2.04 2 2.04 4.42c0 0.95-0.12 69.25-0.3 75.08"></path>
<path style="fill:none; fill-opacity:0%; fill-rule:evenodd; stroke:#aaaaaa; stroke-opacity:100%; stroke-width: 1.5pt; stroke-linejoin:round; stroke-linecap:round;" d="M29.44 40.78c-5.5 15.26-8.56 21.7-17.08 35.06"></path>
<path style="fill:none; fill-opacity:0%; fill-rule:evenodd; stroke:#aaaaaa; stroke-opacity:100%; stroke-width: 1.5pt; stroke-linejoin:round; stroke-linecap:round;" d="M32.72 47.4c2.44 1.8 6.47 5.37 8.53 8.85"></path>
<path style="fill:none; fill-opacity:0%; fill-rule:evenodd; stroke:#aaaaaa; stroke-opacity:100%; stroke-width: 1.5pt; stroke-linejoin:round; stroke-linecap:round;" d="M83.47 12.86c0.1 0.36 0.21 0.92-0.2 1.43c-2.39 3.01-13.58 8.94-32.17 14"></path>
<path style="fill:none; fill-opacity:0%; fill-rule:evenodd; stroke:#aaaaaa; stroke-opacity:100%; stroke-width: 1.5pt; stroke-linejoin:round; stroke-linecap:round;" d="M48.16 27.45c1.09 1.05 1.57 2.57 1.57 4.54c0 1.97-0.17 42.44-0.17 45.51c0 3.07 0.17 3.94 2.4 1.75c2.23-2.19 12.06-9.67 13.43-10.98"></path>
<path style="fill:none; fill-opacity:0%; fill-rule:evenodd; stroke:#aaaaaa; stroke-opacity:100%; stroke-width: 1.5pt; stroke-linejoin:round; stroke-linecap:round;" d="M50.03 46.09c0.69 0.13 1.96-0.13 2.65-0.18c15.06-1.1 23.4-2.64 35.4-4c1.13-0.13 4-0.25 4.58-0.18"></path>
<path style="fill:none; fill-opacity:0%; fill-rule:evenodd; stroke:#aaaaaa; stroke-opacity:100%; stroke-width: 1.5pt; stroke-linejoin:round; stroke-linecap:round;" d="M69.15 25.57c0.43 0.47 1.32 2.86 1.33 3.79C70.75 52.75 75.5 81 89.89 92.97c5.02 4.17 3.47-3.39 3.47-6.29"></path>
<path style="fill:none; fill-opacity:0%; fill-rule:evenodd; stroke:#aaaaaa; stroke-opacity:100%; stroke-width: 1.5pt; stroke-linejoin:round; stroke-linecap:round;" d="M46.25 91.39c0.94 0.38 2.66 0.38 3.6 0.38c6.4-0.02 17.65-1.52 24.61-2.38c1.55-0.19 2.5 0.18 3.29 0.37"></path>

<path style="fill:none; fill-opacity:0%; fill-rule:evenodd; stroke:#000000; stroke-opacity:100%; stroke-width: 3pt; stroke-linejoin:round; stroke-linecap:round;" d="M12.28 38.07c0.36 0.2 2.47 0.33 3.42 0.26c4.08-0.33 17.7-1.79 24.25-2.77c0.95-0.14 2.22-0.2 2.82 0"></path>
<text x="5" y="20" font-size="20" fill="#999999">2</text><path style="fill:none; fill-opacity:0%; fill-rule:evenodd; stroke:#CC0000; stroke-opacity:100%; stroke-width: 3pt; stroke-linejoin:round; stroke-linecap:round;" d="M27.86 16c0.91 0.47 2.04 2 2.04 4.42c0 0.95-0.12 69.25-0.3 75.08" marker-end="url(#TriangleRed)" marker-start="url(#ArrowRed)" ></path>








</g><g transform="scale(1.3761467889908 1.3761467889908) translate(218, 0)">
<path style="fill:none; fill-rule:evenodd; stroke:#aaaaaa;  stroke-width:1pt; stroke-linecap:round;" d="m 109 0 L 0 0 L 0 109 L 109 109 L 109 0"></path><path style="fill:none; fill-opacity:0%; fill-rule:evenodd; stroke:#aaaaaa; stroke-opacity:100%; stroke-width: 1.5pt; stroke-linejoin:round; stroke-linecap:round;" d="M12.28 38.07c0.36 0.2 2.47 0.33 3.42 0.26c4.08-0.33 17.7-1.79 24.25-2.77c0.95-0.14 2.22-0.2 2.82 0"></path>
<path style="fill:none; fill-opacity:0%; fill-rule:evenodd; stroke:#aaaaaa; stroke-opacity:100%; stroke-width: 1.5pt; stroke-linejoin:round; stroke-linecap:round;" d="M27.86 16c0.91 0.47 2.04 2 2.04 4.42c0 0.95-0.12 69.25-0.3 75.08"></path>
<path style="fill:none; fill-opacity:0%; fill-rule:evenodd; stroke:#aaaaaa; stroke-opacity:100%; stroke-width: 1.5pt; stroke-linejoin:round; stroke-linecap:round;" d="M29.44 40.78c-5.5 15.26-8.56 21.7-17.08 35.06"></path>
<path style="fill:none; fill-opacity:0%; fill-rule:evenodd; stroke:#aaaaaa; stroke-opacity:100%; stroke-width: 1.5pt; stroke-linejoin:round; stroke-linecap:round;" d="M32.72 47.4c2.44 1.8 6.47 5.37 8.53 8.85"></path>
<path style="fill:none; fill-opacity:0%; fill-rule:evenodd; stroke:#aaaaaa; stroke-opacity:100%; stroke-width: 1.5pt; stroke-linejoin:round; stroke-linecap:round;" d="M83.47 12.86c0.1 0.36 0.21 0.92-0.2 1.43c-2.39 3.01-13.58 8.94-32.17 14"></path>
<path style="fill:none; fill-opacity:0%; fill-rule:evenodd; stroke:#aaaaaa; stroke-opacity:100%; stroke-width: 1.5pt; stroke-linejoin:round; stroke-linecap:round;" d="M48.16 27.45c1.09 1.05 1.57 2.57 1.57 4.54c0 1.97-0.17 42.44-0.17 45.51c0 3.07 0.17 3.94 2.4 1.75c2.23-2.19 12.06-9.67 13.43-10.98"></path>
<path style="fill:none; fill-opacity:0%; fill-rule:evenodd; stroke:#aaaaaa; stroke-opacity:100%; stroke-width: 1.5pt; stroke-linejoin:round; stroke-linecap:round;" d="M50.03 46.09c0.69 0.13 1.96-0.13 2.65-0.18c15.06-1.1 23.4-2.64 35.4-4c1.13-0.13 4-0.25 4.58-0.18"></path>
<path style="fill:none; fill-opacity:0%; fill-rule:evenodd; stroke:#aaaaaa; stroke-opacity:100%; stroke-width: 1.5pt; stroke-linejoin:round; stroke-linecap:round;" d="M69.15 25.57c0.43 0.47 1.32 2.86 1.33 3.79C70.75 52.75 75.5 81 89.89 92.97c5.02 4.17 3.47-3.39 3.47-6.29"></path>
<path style="fill:none; fill-opacity:0%; fill-rule:evenodd; stroke:#aaaaaa; stroke-opacity:100%; stroke-width: 1.5pt; stroke-linejoin:round; stroke-linecap:round;" d="M46.25 91.39c0.94 0.38 2.66 0.38 3.6 0.38c6.4-0.02 17.65-1.52 24.61-2.38c1.55-0.19 2.5 0.18 3.29 0.37"></path>

<path style="fill:none; fill-opacity:0%; fill-rule:evenodd; stroke:#000000; stroke-opacity:100%; stroke-width: 3pt; stroke-linejoin:round; stroke-linecap:round;" d="M12.28 38.07c0.36 0.2 2.47 0.33 3.42 0.26c4.08-0.33 17.7-1.79 24.25-2.77c0.95-0.14 2.22-0.2 2.82 0"></path>
<path style="fill:none; fill-opacity:0%; fill-rule:evenodd; stroke:#000000; stroke-opacity:100%; stroke-width: 3pt; stroke-linejoin:round; stroke-linecap:round;" d="M27.86 16c0.91 0.47 2.04 2 2.04 4.42c0 0.95-0.12 69.25-0.3 75.08"></path>
<text x="5" y="20" font-size="20" fill="#999999">3</text><path style="fill:none; fill-opacity:0%; fill-rule:evenodd; stroke:#CC0000; stroke-opacity:100%; stroke-width: 3pt; stroke-linejoin:round; stroke-linecap:round;" d="M29.44 40.78c-5.5 15.26-8.56 21.7-17.08 35.06" marker-end="url(#TriangleRed)" marker-start="url(#ArrowRed)" ></path>







</g><g transform="scale(1.3761467889908 1.3761467889908) translate(327, 0)">
<path style="fill:none; fill-rule:evenodd; stroke:#aaaaaa;  stroke-width:1pt; stroke-linecap:round;" d="m 109 0 L 0 0 L 0 109 L 109 109 L 109 0"></path><path style="fill:none; fill-opacity:0%; fill-rule:evenodd; stroke:#aaaaaa; stroke-opacity:100%; stroke-width: 1.5pt; stroke-linejoin:round; stroke-linecap:round;" d="M12.28 38.07c0.36 0.2 2.47 0.33 3.42 0.26c4.08-0.33 17.7-1.79 24.25-2.77c0.95-0.14 2.22-0.2 2.82 0"></path>
<path style="fill:none; fill-opacity:0%; fill-rule:evenodd; stroke:#aaaaaa; stroke-opacity:100%; stroke-width: 1.5pt; stroke-linejoin:round; stroke-linecap:round;" d="M27.86 16c0.91 0.47 2.04 2 2.04 4.42c0 0.95-0.12 69.25-0.3 75.08"></path>
<path style="fill:none; fill-opacity:0%; fill-rule:evenodd; stroke:#aaaaaa; stroke-opacity:100%; stroke-width: 1.5pt; stroke-linejoin:round; stroke-linecap:round;" d="M29.44 40.78c-5.5 15.26-8.56 21.7-17.08 35.06"></path>
<path style="fill:none; fill-opacity:0%; fill-rule:evenodd; stroke:#aaaaaa; stroke-opacity:100%; stroke-width: 1.5pt; stroke-linejoin:round; stroke-linecap:round;" d="M32.72 47.4c2.44 1.8 6.47 5.37 8.53 8.85"></path>
<path style="fill:none; fill-opacity:0%; fill-rule:evenodd; stroke:#aaaaaa; stroke-opacity:100%; stroke-width: 1.5pt; stroke-linejoin:round; stroke-linecap:round;" d="M83.47 12.86c0.1 0.36 0.21 0.92-0.2 1.43c-2.39 3.01-13.58 8.94-32.17 14"></path>
<path style="fill:none; fill-opacity:0%; fill-rule:evenodd; stroke:#aaaaaa; stroke-opacity:100%; stroke-width: 1.5pt; stroke-linejoin:round; stroke-linecap:round;" d="M48.16 27.45c1.09 1.05 1.57 2.57 1.57 4.54c0 1.97-0.17 42.44-0.17 45.51c0 3.07 0.17 3.94 2.4 1.75c2.23-2.19 12.06-9.67 13.43-10.98"></path>
<path style="fill:none; fill-opacity:0%; fill-rule:evenodd; stroke:#aaaaaa; stroke-opacity:100%; stroke-width: 1.5pt; stroke-linejoin:round; stroke-linecap:round;" d="M50.03 46.09c0.69 0.13 1.96-0.13 2.65-0.18c15.06-1.1 23.4-2.64 35.4-4c1.13-0.13 4-0.25 4.58-0.18"></path>
<path style="fill:none; fill-opacity:0%; fill-rule:evenodd; stroke:#aaaaaa; stroke-opacity:100%; stroke-width: 1.5pt; stroke-linejoin:round; stroke-linecap:round;" d="M69.15 25.57c0.43 0.47 1.32 2.86 1.33 3.79C70.75 52.75 75.5 81 89.89 92.97c5.02 4.17 3.47-3.39 3.47-6.29"></path>
<path style="fill:none; fill-opacity:0%; fill-rule:evenodd; stroke:#aaaaaa; stroke-opacity:100%; stroke-width: 1.5pt; stroke-linejoin:round; stroke-linecap:round;" d="M46.25 91.39c0.94 0.38 2.66 0.38 3.6 0.38c6.4-0.02 17.65-1.52 24.61-2.38c1.55-0.19 2.5 0.18 3.29 0.37"></path>

<path style="fill:none; fill-opacity:0%; fill-rule:evenodd; stroke:#000000; stroke-opacity:100%; stroke-width: 3pt; stroke-linejoin:round; stroke-linecap:round;" d="M12.28 38.07c0.36 0.2 2.47 0.33 3.42 0.26c4.08-0.33 17.7-1.79 24.25-2.77c0.95-0.14 2.22-0.2 2.82 0"></path>
<path style="fill:none; fill-opacity:0%; fill-rule:evenodd; stroke:#000000; stroke-opacity:100%; stroke-width: 3pt; stroke-linejoin:round; stroke-linecap:round;" d="M27.86 16c0.91 0.47 2.04 2 2.04 4.42c0 0.95-0.12 69.25-0.3 75.08"></path>
<path style="fill:none; fill-opacity:0%; fill-rule:evenodd; stroke:#000000; stroke-opacity:100%; stroke-width: 3pt; stroke-linejoin:round; stroke-linecap:round;" d="M29.44 40.78c-5.5 15.26-8.56 21.7-17.08 35.06"></path>
<text x="5" y="20" font-size="20" fill="#999999">4</text><path style="fill:none; fill-opacity:0%; fill-rule:evenodd; stroke:#CC0000; stroke-opacity:100%; stroke-width: 3pt; stroke-linejoin:round; stroke-linecap:round;" d="M32.72 47.4c2.44 1.8 6.47 5.37 8.53 8.85" marker-end="url(#TriangleRed)" marker-start="url(#ArrowRed)" ></path>






</g><g transform="scale(1.3761467889908 1.3761467889908) translate(436, 0)">
<path style="fill:none; fill-rule:evenodd; stroke:#aaaaaa;  stroke-width:1pt; stroke-linecap:round;" d="m 109 0 L 0 0 L 0 109 L 109 109 L 109 0"></path><path style="fill:none; fill-opacity:0%; fill-rule:evenodd; stroke:#aaaaaa; stroke-opacity:100%; stroke-width: 1.5pt; stroke-linejoin:round; stroke-linecap:round;" d="M12.28 38.07c0.36 0.2 2.47 0.33 3.42 0.26c4.08-0.33 17.7-1.79 24.25-2.77c0.95-0.14 2.22-0.2 2.82 0"></path>
<path style="fill:none; fill-opacity:0%; fill-rule:evenodd; stroke:#aaaaaa; stroke-opacity:100%; stroke-width: 1.5pt; stroke-linejoin:round; stroke-linecap:round;" d="M27.86 16c0.91 0.47 2.04 2 2.04 4.42c0 0.95-0.12 69.25-0.3 75.08"></path>
<path style="fill:none; fill-opacity:0%; fill-rule:evenodd; stroke:#aaaaaa; stroke-opacity:100%; stroke-width: 1.5pt; stroke-linejoin:round; stroke-linecap:round;" d="M29.44 40.78c-5.5 15.26-8.56 21.7-17.08 35.06"></path>
<path style="fill:none; fill-opacity:0%; fill-rule:evenodd; stroke:#aaaaaa; stroke-opacity:100%; stroke-width: 1.5pt; stroke-linejoin:round; stroke-linecap:round;" d="M32.72 47.4c2.44 1.8 6.47 5.37 8.53 8.85"></path>
<path style="fill:none; fill-opacity:0%; fill-rule:evenodd; stroke:#aaaaaa; stroke-opacity:100%; stroke-width: 1.5pt; stroke-linejoin:round; stroke-linecap:round;" d="M83.47 12.86c0.1 0.36 0.21 0.92-0.2 1.43c-2.39 3.01-13.58 8.94-32.17 14"></path>
<path style="fill:none; fill-opacity:0%; fill-rule:evenodd; stroke:#aaaaaa; stroke-opacity:100%; stroke-width: 1.5pt; stroke-linejoin:round; stroke-linecap:round;" d="M48.16 27.45c1.09 1.05 1.57 2.57 1.57 4.54c0 1.97-0.17 42.44-0.17 45.51c0 3.07 0.17 3.94 2.4 1.75c2.23-2.19 12.06-9.67 13.43-10.98"></path>
<path style="fill:none; fill-opacity:0%; fill-rule:evenodd; stroke:#aaaaaa; stroke-opacity:100%; stroke-width: 1.5pt; stroke-linejoin:round; stroke-linecap:round;" d="M50.03 46.09c0.69 0.13 1.96-0.13 2.65-0.18c15.06-1.1 23.4-2.64 35.4-4c1.13-0.13 4-0.25 4.58-0.18"></path>
<path style="fill:none; fill-opacity:0%; fill-rule:evenodd; stroke:#aaaaaa; stroke-opacity:100%; stroke-width: 1.5pt; stroke-linejoin:round; stroke-linecap:round;" d="M69.15 25.57c0.43 0.47 1.32 2.86 1.33 3.79C70.75 52.75 75.5 81 89.89 92.97c5.02 4.17 3.47-3.39 3.47-6.29"></path>
<path style="fill:none; fill-opacity:0%; fill-rule:evenodd; stroke:#aaaaaa; stroke-opacity:100%; stroke-width: 1.5pt; stroke-linejoin:round; stroke-linecap:round;" d="M46.25 91.39c0.94 0.38 2.66 0.38 3.6 0.38c6.4-0.02 17.65-1.52 24.61-2.38c1.55-0.19 2.5 0.18 3.29 0.37"></path>

<path style="fill:none; fill-opacity:0%; fill-rule:evenodd; stroke:#000000; stroke-opacity:100%; stroke-width: 3pt; stroke-linejoin:round; stroke-linecap:round;" d="M12.28 38.07c0.36 0.2 2.47 0.33 3.42 0.26c4.08-0.33 17.7-1.79 24.25-2.77c0.95-0.14 2.22-0.2 2.82 0"></path>
<path style="fill:none; fill-opacity:0%; fill-rule:evenodd; stroke:#000000; stroke-opacity:100%; stroke-width: 3pt; stroke-linejoin:round; stroke-linecap:round;" d="M27.86 16c0.91 0.47 2.04 2 2.04 4.42c0 0.95-0.12 69.25-0.3 75.08"></path>
<path style="fill:none; fill-opacity:0%; fill-rule:evenodd; stroke:#000000; stroke-opacity:100%; stroke-width: 3pt; stroke-linejoin:round; stroke-linecap:round;" d="M29.44 40.78c-5.5 15.26-8.56 21.7-17.08 35.06"></path>
<path style="fill:none; fill-opacity:0%; fill-rule:evenodd; stroke:#000000; stroke-opacity:100%; stroke-width: 3pt; stroke-linejoin:round; stroke-linecap:round;" d="M32.72 47.4c2.44 1.8 6.47 5.37 8.53 8.85"></path>
<text x="5" y="20" font-size="20" fill="#999999">5</text><path style="fill:none; fill-opacity:0%; fill-rule:evenodd; stroke:#CC0000; stroke-opacity:100%; stroke-width: 3pt; stroke-linejoin:round; stroke-linecap:round;" d="M83.47 12.86c0.1 0.36 0.21 0.92-0.2 1.43c-2.39 3.01-13.58 8.94-32.17 14" marker-end="url(#TriangleRed)" marker-start="url(#ArrowRed)" ></path>





</g><g transform="scale(1.3761467889908 1.3761467889908) translate(0, 109)">
<path style="fill:none; fill-rule:evenodd; stroke:#aaaaaa;  stroke-width:1pt; stroke-linecap:round;" d="m 109 0 L 0 0 L 0 109 L 109 109 L 109 0"></path><path style="fill:none; fill-opacity:0%; fill-rule:evenodd; stroke:#aaaaaa; stroke-opacity:100%; stroke-width: 1.5pt; stroke-linejoin:round; stroke-linecap:round;" d="M12.28 38.07c0.36 0.2 2.47 0.33 3.42 0.26c4.08-0.33 17.7-1.79 24.25-2.77c0.95-0.14 2.22-0.2 2.82 0"></path>
<path style="fill:none; fill-opacity:0%; fill-rule:evenodd; stroke:#aaaaaa; stroke-opacity:100%; stroke-width: 1.5pt; stroke-linejoin:round; stroke-linecap:round;" d="M27.86 16c0.91 0.47 2.04 2 2.04 4.42c0 0.95-0.12 69.25-0.3 75.08"></path>
<path style="fill:none; fill-opacity:0%; fill-rule:evenodd; stroke:#aaaaaa; stroke-opacity:100%; stroke-width: 1.5pt; stroke-linejoin:round; stroke-linecap:round;" d="M29.44 40.78c-5.5 15.26-8.56 21.7-17.08 35.06"></path>
<path style="fill:none; fill-opacity:0%; fill-rule:evenodd; stroke:#aaaaaa; stroke-opacity:100%; stroke-width: 1.5pt; stroke-linejoin:round; stroke-linecap:round;" d="M32.72 47.4c2.44 1.8 6.47 5.37 8.53 8.85"></path>
<path style="fill:none; fill-opacity:0%; fill-rule:evenodd; stroke:#aaaaaa; stroke-opacity:100%; stroke-width: 1.5pt; stroke-linejoin:round; stroke-linecap:round;" d="M83.47 12.86c0.1 0.36 0.21 0.92-0.2 1.43c-2.39 3.01-13.58 8.94-32.17 14"></path>
<path style="fill:none; fill-opacity:0%; fill-rule:evenodd; stroke:#aaaaaa; stroke-opacity:100%; stroke-width: 1.5pt; stroke-linejoin:round; stroke-linecap:round;" d="M48.16 27.45c1.09 1.05 1.57 2.57 1.57 4.54c0 1.97-0.17 42.44-0.17 45.51c0 3.07 0.17 3.94 2.4 1.75c2.23-2.19 12.06-9.67 13.43-10.98"></path>
<path style="fill:none; fill-opacity:0%; fill-rule:evenodd; stroke:#aaaaaa; stroke-opacity:100%; stroke-width: 1.5pt; stroke-linejoin:round; stroke-linecap:round;" d="M50.03 46.09c0.69 0.13 1.96-0.13 2.65-0.18c15.06-1.1 23.4-2.64 35.4-4c1.13-0.13 4-0.25 4.58-0.18"></path>
<path style="fill:none; fill-opacity:0%; fill-rule:evenodd; stroke:#aaaaaa; stroke-opacity:100%; stroke-width: 1.5pt; stroke-linejoin:round; stroke-linecap:round;" d="M69.15 25.57c0.43 0.47 1.32 2.86 1.33 3.79C70.75 52.75 75.5 81 89.89 92.97c5.02 4.17 3.47-3.39 3.47-6.29"></path>
<path style="fill:none; fill-opacity:0%; fill-rule:evenodd; stroke:#aaaaaa; stroke-opacity:100%; stroke-width: 1.5pt; stroke-linejoin:round; stroke-linecap:round;" d="M46.25 91.39c0.94 0.38 2.66 0.38 3.6 0.38c6.4-0.02 17.65-1.52 24.61-2.38c1.55-0.19 2.5 0.18 3.29 0.37"></path>

<path style="fill:none; fill-opacity:0%; fill-rule:evenodd; stroke:#000000; stroke-opacity:100%; stroke-width: 3pt; stroke-linejoin:round; stroke-linecap:round;" d="M12.28 38.07c0.36 0.2 2.47 0.33 3.42 0.26c4.08-0.33 17.7-1.79 24.25-2.77c0.95-0.14 2.22-0.2 2.82 0"></path>
<path style="fill:none; fill-opacity:0%; fill-rule:evenodd; stroke:#000000; stroke-opacity:100%; stroke-width: 3pt; stroke-linejoin:round; stroke-linecap:round;" d="M27.86 16c0.91 0.47 2.04 2 2.04 4.42c0 0.95-0.12 69.25-0.3 75.08"></path>
<path style="fill:none; fill-opacity:0%; fill-rule:evenodd; stroke:#000000; stroke-opacity:100%; stroke-width: 3pt; stroke-linejoin:round; stroke-linecap:round;" d="M29.44 40.78c-5.5 15.26-8.56 21.7-17.08 35.06"></path>
<path style="fill:none; fill-opacity:0%; fill-rule:evenodd; stroke:#000000; stroke-opacity:100%; stroke-width: 3pt; stroke-linejoin:round; stroke-linecap:round;" d="M32.72 47.4c2.44 1.8 6.47 5.37 8.53 8.85"></path>
<path style="fill:none; fill-opacity:0%; fill-rule:evenodd; stroke:#000000; stroke-opacity:100%; stroke-width: 3pt; stroke-linejoin:round; stroke-linecap:round;" d="M83.47 12.86c0.1 0.36 0.21 0.92-0.2 1.43c-2.39 3.01-13.58 8.94-32.17 14"></path>
<text x="5" y="20" font-size="20" fill="#999999">6</text><path style="fill:none; fill-opacity:0%; fill-rule:evenodd; stroke:#CC0000; stroke-opacity:100%; stroke-width: 3pt; stroke-linejoin:round; stroke-linecap:round;" d="M48.16 27.45c1.09 1.05 1.57 2.57 1.57 4.54c0 1.97-0.17 42.44-0.17 45.51c0 3.07 0.17 3.94 2.4 1.75c2.23-2.19 12.06-9.67 13.43-10.98" marker-end="url(#TriangleRed)" marker-start="url(#ArrowRed)" ></path>




</g><g transform="scale(1.3761467889908 1.3761467889908) translate(109, 109)">
<path style="fill:none; fill-rule:evenodd; stroke:#aaaaaa;  stroke-width:1pt; stroke-linecap:round;" d="m 109 0 L 0 0 L 0 109 L 109 109 L 109 0"></path><path style="fill:none; fill-opacity:0%; fill-rule:evenodd; stroke:#aaaaaa; stroke-opacity:100%; stroke-width: 1.5pt; stroke-linejoin:round; stroke-linecap:round;" d="M12.28 38.07c0.36 0.2 2.47 0.33 3.42 0.26c4.08-0.33 17.7-1.79 24.25-2.77c0.95-0.14 2.22-0.2 2.82 0"></path>
<path style="fill:none; fill-opacity:0%; fill-rule:evenodd; stroke:#aaaaaa; stroke-opacity:100%; stroke-width: 1.5pt; stroke-linejoin:round; stroke-linecap:round;" d="M27.86 16c0.91 0.47 2.04 2 2.04 4.42c0 0.95-0.12 69.25-0.3 75.08"></path>
<path style="fill:none; fill-opacity:0%; fill-rule:evenodd; stroke:#aaaaaa; stroke-opacity:100%; stroke-width: 1.5pt; stroke-linejoin:round; stroke-linecap:round;" d="M29.44 40.78c-5.5 15.26-8.56 21.7-17.08 35.06"></path>
<path style="fill:none; fill-opacity:0%; fill-rule:evenodd; stroke:#aaaaaa; stroke-opacity:100%; stroke-width: 1.5pt; stroke-linejoin:round; stroke-linecap:round;" d="M32.72 47.4c2.44 1.8 6.47 5.37 8.53 8.85"></path>
<path style="fill:none; fill-opacity:0%; fill-rule:evenodd; stroke:#aaaaaa; stroke-opacity:100%; stroke-width: 1.5pt; stroke-linejoin:round; stroke-linecap:round;" d="M83.47 12.86c0.1 0.36 0.21 0.92-0.2 1.43c-2.39 3.01-13.58 8.94-32.17 14"></path>
<path style="fill:none; fill-opacity:0%; fill-rule:evenodd; stroke:#aaaaaa; stroke-opacity:100%; stroke-width: 1.5pt; stroke-linejoin:round; stroke-linecap:round;" d="M48.16 27.45c1.09 1.05 1.57 2.57 1.57 4.54c0 1.97-0.17 42.44-0.17 45.51c0 3.07 0.17 3.94 2.4 1.75c2.23-2.19 12.06-9.67 13.43-10.98"></path>
<path style="fill:none; fill-opacity:0%; fill-rule:evenodd; stroke:#aaaaaa; stroke-opacity:100%; stroke-width: 1.5pt; stroke-linejoin:round; stroke-linecap:round;" d="M50.03 46.09c0.69 0.13 1.96-0.13 2.65-0.18c15.06-1.1 23.4-2.64 35.4-4c1.13-0.13 4-0.25 4.58-0.18"></path>
<path style="fill:none; fill-opacity:0%; fill-rule:evenodd; stroke:#aaaaaa; stroke-opacity:100%; stroke-width: 1.5pt; stroke-linejoin:round; stroke-linecap:round;" d="M69.15 25.57c0.43 0.47 1.32 2.86 1.33 3.79C70.75 52.75 75.5 81 89.89 92.97c5.02 4.17 3.47-3.39 3.47-6.29"></path>
<path style="fill:none; fill-opacity:0%; fill-rule:evenodd; stroke:#aaaaaa; stroke-opacity:100%; stroke-width: 1.5pt; stroke-linejoin:round; stroke-linecap:round;" d="M46.25 91.39c0.94 0.38 2.66 0.38 3.6 0.38c6.4-0.02 17.65-1.52 24.61-2.38c1.55-0.19 2.5 0.18 3.29 0.37"></path>

<path style="fill:none; fill-opacity:0%; fill-rule:evenodd; stroke:#000000; stroke-opacity:100%; stroke-width: 3pt; stroke-linejoin:round; stroke-linecap:round;" d="M12.28 38.07c0.36 0.2 2.47 0.33 3.42 0.26c4.08-0.33 17.7-1.79 24.25-2.77c0.95-0.14 2.22-0.2 2.82 0"></path>
<path style="fill:none; fill-opacity:0%; fill-rule:evenodd; stroke:#000000; stroke-opacity:100%; stroke-width: 3pt; stroke-linejoin:round; stroke-linecap:round;" d="M27.86 16c0.91 0.47 2.04 2 2.04 4.42c0 0.95-0.12 69.25-0.3 75.08"></path>
<path style="fill:none; fill-opacity:0%; fill-rule:evenodd; stroke:#000000; stroke-opacity:100%; stroke-width: 3pt; stroke-linejoin:round; stroke-linecap:round;" d="M29.44 40.78c-5.5 15.26-8.56 21.7-17.08 35.06"></path>
<path style="fill:none; fill-opacity:0%; fill-rule:evenodd; stroke:#000000; stroke-opacity:100%; stroke-width: 3pt; stroke-linejoin:round; stroke-linecap:round;" d="M32.72 47.4c2.44 1.8 6.47 5.37 8.53 8.85"></path>
<path style="fill:none; fill-opacity:0%; fill-rule:evenodd; stroke:#000000; stroke-opacity:100%; stroke-width: 3pt; stroke-linejoin:round; stroke-linecap:round;" d="M83.47 12.86c0.1 0.36 0.21 0.92-0.2 1.43c-2.39 3.01-13.58 8.94-32.17 14"></path>
<path style="fill:none; fill-opacity:0%; fill-rule:evenodd; stroke:#000000; stroke-opacity:100%; stroke-width: 3pt; stroke-linejoin:round; stroke-linecap:round;" d="M48.16 27.45c1.09 1.05 1.57 2.57 1.57 4.54c0 1.97-0.17 42.44-0.17 45.51c0 3.07 0.17 3.94 2.4 1.75c2.23-2.19 12.06-9.67 13.43-10.98"></path>
<text x="5" y="20" font-size="20" fill="#999999">7</text><path style="fill:none; fill-opacity:0%; fill-rule:evenodd; stroke:#CC0000; stroke-opacity:100%; stroke-width: 3pt; stroke-linejoin:round; stroke-linecap:round;" d="M50.03 46.09c0.69 0.13 1.96-0.13 2.65-0.18c15.06-1.1 23.4-2.64 35.4-4c1.13-0.13 4-0.25 4.58-0.18" marker-end="url(#TriangleRed)" marker-start="url(#ArrowRed)" ></path>



</g><g transform="scale(1.3761467889908 1.3761467889908) translate(218, 109)">
<path style="fill:none; fill-rule:evenodd; stroke:#aaaaaa;  stroke-width:1pt; stroke-linecap:round;" d="m 109 0 L 0 0 L 0 109 L 109 109 L 109 0"></path><path style="fill:none; fill-opacity:0%; fill-rule:evenodd; stroke:#aaaaaa; stroke-opacity:100%; stroke-width: 1.5pt; stroke-linejoin:round; stroke-linecap:round;" d="M12.28 38.07c0.36 0.2 2.47 0.33 3.42 0.26c4.08-0.33 17.7-1.79 24.25-2.77c0.95-0.14 2.22-0.2 2.82 0"></path>
<path style="fill:none; fill-opacity:0%; fill-rule:evenodd; stroke:#aaaaaa; stroke-opacity:100%; stroke-width: 1.5pt; stroke-linejoin:round; stroke-linecap:round;" d="M27.86 16c0.91 0.47 2.04 2 2.04 4.42c0 0.95-0.12 69.25-0.3 75.08"></path>
<path style="fill:none; fill-opacity:0%; fill-rule:evenodd; stroke:#aaaaaa; stroke-opacity:100%; stroke-width: 1.5pt; stroke-linejoin:round; stroke-linecap:round;" d="M29.44 40.78c-5.5 15.26-8.56 21.7-17.08 35.06"></path>
<path style="fill:none; fill-opacity:0%; fill-rule:evenodd; stroke:#aaaaaa; stroke-opacity:100%; stroke-width: 1.5pt; stroke-linejoin:round; stroke-linecap:round;" d="M32.72 47.4c2.44 1.8 6.47 5.37 8.53 8.85"></path>
<path style="fill:none; fill-opacity:0%; fill-rule:evenodd; stroke:#aaaaaa; stroke-opacity:100%; stroke-width: 1.5pt; stroke-linejoin:round; stroke-linecap:round;" d="M83.47 12.86c0.1 0.36 0.21 0.92-0.2 1.43c-2.39 3.01-13.58 8.94-32.17 14"></path>
<path style="fill:none; fill-opacity:0%; fill-rule:evenodd; stroke:#aaaaaa; stroke-opacity:100%; stroke-width: 1.5pt; stroke-linejoin:round; stroke-linecap:round;" d="M48.16 27.45c1.09 1.05 1.57 2.57 1.57 4.54c0 1.97-0.17 42.44-0.17 45.51c0 3.07 0.17 3.94 2.4 1.75c2.23-2.19 12.06-9.67 13.43-10.98"></path>
<path style="fill:none; fill-opacity:0%; fill-rule:evenodd; stroke:#aaaaaa; stroke-opacity:100%; stroke-width: 1.5pt; stroke-linejoin:round; stroke-linecap:round;" d="M50.03 46.09c0.69 0.13 1.96-0.13 2.65-0.18c15.06-1.1 23.4-2.64 35.4-4c1.13-0.13 4-0.25 4.58-0.18"></path>
<path style="fill:none; fill-opacity:0%; fill-rule:evenodd; stroke:#aaaaaa; stroke-opacity:100%; stroke-width: 1.5pt; stroke-linejoin:round; stroke-linecap:round;" d="M69.15 25.57c0.43 0.47 1.32 2.86 1.33 3.79C70.75 52.75 75.5 81 89.89 92.97c5.02 4.17 3.47-3.39 3.47-6.29"></path>
<path style="fill:none; fill-opacity:0%; fill-rule:evenodd; stroke:#aaaaaa; stroke-opacity:100%; stroke-width: 1.5pt; stroke-linejoin:round; stroke-linecap:round;" d="M46.25 91.39c0.94 0.38 2.66 0.38 3.6 0.38c6.4-0.02 17.65-1.52 24.61-2.38c1.55-0.19 2.5 0.18 3.29 0.37"></path>

<path style="fill:none; fill-opacity:0%; fill-rule:evenodd; stroke:#000000; stroke-opacity:100%; stroke-width: 3pt; stroke-linejoin:round; stroke-linecap:round;" d="M12.28 38.07c0.36 0.2 2.47 0.33 3.42 0.26c4.08-0.33 17.7-1.79 24.25-2.77c0.95-0.14 2.22-0.2 2.82 0"></path>
<path style="fill:none; fill-opacity:0%; fill-rule:evenodd; stroke:#000000; stroke-opacity:100%; stroke-width: 3pt; stroke-linejoin:round; stroke-linecap:round;" d="M27.86 16c0.91 0.47 2.04 2 2.04 4.42c0 0.95-0.12 69.25-0.3 75.08"></path>
<path style="fill:none; fill-opacity:0%; fill-rule:evenodd; stroke:#000000; stroke-opacity:100%; stroke-width: 3pt; stroke-linejoin:round; stroke-linecap:round;" d="M29.44 40.78c-5.5 15.26-8.56 21.7-17.08 35.06"></path>
<path style="fill:none; fill-opacity:0%; fill-rule:evenodd; stroke:#000000; stroke-opacity:100%; stroke-width: 3pt; stroke-linejoin:round; stroke-linecap:round;" d="M32.72 47.4c2.44 1.8 6.47 5.37 8.53 8.85"></path>
<path style="fill:none; fill-opacity:0%; fill-rule:evenodd; stroke:#000000; stroke-opacity:100%; stroke-width: 3pt; stroke-linejoin:round; stroke-linecap:round;" d="M83.47 12.86c0.1 0.36 0.21 0.92-0.2 1.43c-2.39 3.01-13.58 8.94-32.17 14"></path>
<path style="fill:none; fill-opacity:0%; fill-rule:evenodd; stroke:#000000; stroke-opacity:100%; stroke-width: 3pt; stroke-linejoin:round; stroke-linecap:round;" d="M48.16 27.45c1.09 1.05 1.57 2.57 1.57 4.54c0 1.97-0.17 42.44-0.17 45.51c0 3.07 0.17 3.94 2.4 1.75c2.23-2.19 12.06-9.67 13.43-10.98"></path>
<path style="fill:none; fill-opacity:0%; fill-rule:evenodd; stroke:#000000; stroke-opacity:100%; stroke-width: 3pt; stroke-linejoin:round; stroke-linecap:round;" d="M50.03 46.09c0.69 0.13 1.96-0.13 2.65-0.18c15.06-1.1 23.4-2.64 35.4-4c1.13-0.13 4-0.25 4.58-0.18"></path>
<text x="5" y="20" font-size="20" fill="#999999">8</text><path style="fill:none; fill-opacity:0%; fill-rule:evenodd; stroke:#CC0000; stroke-opacity:100%; stroke-width: 3pt; stroke-linejoin:round; stroke-linecap:round;" d="M69.15 25.57c0.43 0.47 1.32 2.86 1.33 3.79C70.75 52.75 75.5 81 89.89 92.97c5.02 4.17 3.47-3.39 3.47-6.29" marker-end="url(#TriangleRed)" marker-start="url(#ArrowRed)" ></path>


</g><g transform="scale(1.3761467889908 1.3761467889908) translate(327, 109)">
<path style="fill:none; fill-rule:evenodd; stroke:#aaaaaa;  stroke-width:1pt; stroke-linecap:round;" d="m 109 0 L 0 0 L 0 109 L 109 109 L 109 0"></path><path style="fill:none; fill-opacity:0%; fill-rule:evenodd; stroke:#aaaaaa; stroke-opacity:100%; stroke-width: 1.5pt; stroke-linejoin:round; stroke-linecap:round;" d="M12.28 38.07c0.36 0.2 2.47 0.33 3.42 0.26c4.08-0.33 17.7-1.79 24.25-2.77c0.95-0.14 2.22-0.2 2.82 0"></path>
<path style="fill:none; fill-opacity:0%; fill-rule:evenodd; stroke:#aaaaaa; stroke-opacity:100%; stroke-width: 1.5pt; stroke-linejoin:round; stroke-linecap:round;" d="M27.86 16c0.91 0.47 2.04 2 2.04 4.42c0 0.95-0.12 69.25-0.3 75.08"></path>
<path style="fill:none; fill-opacity:0%; fill-rule:evenodd; stroke:#aaaaaa; stroke-opacity:100%; stroke-width: 1.5pt; stroke-linejoin:round; stroke-linecap:round;" d="M29.44 40.78c-5.5 15.26-8.56 21.7-17.08 35.06"></path>
<path style="fill:none; fill-opacity:0%; fill-rule:evenodd; stroke:#aaaaaa; stroke-opacity:100%; stroke-width: 1.5pt; stroke-linejoin:round; stroke-linecap:round;" d="M32.72 47.4c2.44 1.8 6.47 5.37 8.53 8.85"></path>
<path style="fill:none; fill-opacity:0%; fill-rule:evenodd; stroke:#aaaaaa; stroke-opacity:100%; stroke-width: 1.5pt; stroke-linejoin:round; stroke-linecap:round;" d="M83.47 12.86c0.1 0.36 0.21 0.92-0.2 1.43c-2.39 3.01-13.58 8.94-32.17 14"></path>
<path style="fill:none; fill-opacity:0%; fill-rule:evenodd; stroke:#aaaaaa; stroke-opacity:100%; stroke-width: 1.5pt; stroke-linejoin:round; stroke-linecap:round;" d="M48.16 27.45c1.09 1.05 1.57 2.57 1.57 4.54c0 1.97-0.17 42.44-0.17 45.51c0 3.07 0.17 3.94 2.4 1.75c2.23-2.19 12.06-9.67 13.43-10.98"></path>
<path style="fill:none; fill-opacity:0%; fill-rule:evenodd; stroke:#aaaaaa; stroke-opacity:100%; stroke-width: 1.5pt; stroke-linejoin:round; stroke-linecap:round;" d="M50.03 46.09c0.69 0.13 1.96-0.13 2.65-0.18c15.06-1.1 23.4-2.64 35.4-4c1.13-0.13 4-0.25 4.58-0.18"></path>
<path style="fill:none; fill-opacity:0%; fill-rule:evenodd; stroke:#aaaaaa; stroke-opacity:100%; stroke-width: 1.5pt; stroke-linejoin:round; stroke-linecap:round;" d="M69.15 25.57c0.43 0.47 1.32 2.86 1.33 3.79C70.75 52.75 75.5 81 89.89 92.97c5.02 4.17 3.47-3.39 3.47-6.29"></path>
<path style="fill:none; fill-opacity:0%; fill-rule:evenodd; stroke:#aaaaaa; stroke-opacity:100%; stroke-width: 1.5pt; stroke-linejoin:round; stroke-linecap:round;" d="M46.25 91.39c0.94 0.38 2.66 0.38 3.6 0.38c6.4-0.02 17.65-1.52 24.61-2.38c1.55-0.19 2.5 0.18 3.29 0.37"></path>

<path style="fill:none; fill-opacity:0%; fill-rule:evenodd; stroke:#000000; stroke-opacity:100%; stroke-width: 3pt; stroke-linejoin:round; stroke-linecap:round;" d="M12.28 38.07c0.36 0.2 2.47 0.33 3.42 0.26c4.08-0.33 17.7-1.79 24.25-2.77c0.95-0.14 2.22-0.2 2.82 0"></path>
<path style="fill:none; fill-opacity:0%; fill-rule:evenodd; stroke:#000000; stroke-opacity:100%; stroke-width: 3pt; stroke-linejoin:round; stroke-linecap:round;" d="M27.86 16c0.91 0.47 2.04 2 2.04 4.42c0 0.95-0.12 69.25-0.3 75.08"></path>
<path style="fill:none; fill-opacity:0%; fill-rule:evenodd; stroke:#000000; stroke-opacity:100%; stroke-width: 3pt; stroke-linejoin:round; stroke-linecap:round;" d="M29.44 40.78c-5.5 15.26-8.56 21.7-17.08 35.06"></path>
<path style="fill:none; fill-opacity:0%; fill-rule:evenodd; stroke:#000000; stroke-opacity:100%; stroke-width: 3pt; stroke-linejoin:round; stroke-linecap:round;" d="M32.72 47.4c2.44 1.8 6.47 5.37 8.53 8.85"></path>
<path style="fill:none; fill-opacity:0%; fill-rule:evenodd; stroke:#000000; stroke-opacity:100%; stroke-width: 3pt; stroke-linejoin:round; stroke-linecap:round;" d="M83.47 12.86c0.1 0.36 0.21 0.92-0.2 1.43c-2.39 3.01-13.58 8.94-32.17 14"></path>
<path style="fill:none; fill-opacity:0%; fill-rule:evenodd; stroke:#000000; stroke-opacity:100%; stroke-width: 3pt; stroke-linejoin:round; stroke-linecap:round;" d="M48.16 27.45c1.09 1.05 1.57 2.57 1.57 4.54c0 1.97-0.17 42.44-0.17 45.51c0 3.07 0.17 3.94 2.4 1.75c2.23-2.19 12.06-9.67 13.43-10.98"></path>
<path style="fill:none; fill-opacity:0%; fill-rule:evenodd; stroke:#000000; stroke-opacity:100%; stroke-width: 3pt; stroke-linejoin:round; stroke-linecap:round;" d="M50.03 46.09c0.69 0.13 1.96-0.13 2.65-0.18c15.06-1.1 23.4-2.64 35.4-4c1.13-0.13 4-0.25 4.58-0.18"></path>
<path style="fill:none; fill-opacity:0%; fill-rule:evenodd; stroke:#000000; stroke-opacity:100%; stroke-width: 3pt; stroke-linejoin:round; stroke-linecap:round;" d="M69.15 25.57c0.43 0.47 1.32 2.86 1.33 3.79C70.75 52.75 75.5 81 89.89 92.97c5.02 4.17 3.47-3.39 3.47-6.29"></path>
<text x="5" y="20" font-size="20" fill="#999999">9</text><path style="fill:none; fill-opacity:0%; fill-rule:evenodd; stroke:#CC0000; stroke-opacity:100%; stroke-width: 3pt; stroke-linejoin:round; stroke-linecap:round;" d="M46.25 91.39c0.94 0.38 2.66 0.38 3.6 0.38c6.4-0.02 17.65-1.52 24.61-2.38c1.55-0.19 2.5 0.18 3.29 0.37" marker-end="url(#TriangleRed)" marker-start="url(#ArrowRed)" ></path>

</g>

</svg>  
          
