<?xml version="1.0" standalone="no"?>
<!DOCTYPE svg PUBLIC "-//W3C//DTD SVG 1.1//EN"   "http://www.w3.org/Graphics/SVG/1.1/DTD/svg11.dtd">
<svg width="751" height="301"  version="1.1" xmlns="http://www.w3.org/2000/svg">
  <defs>
    <marker id="Triangle" viewBox="0 0 10 10" refX="0" refY="5" markerUnits="strokeWidth" markerWidth="3" style="stroke-opacity:0%;fill:#aaaaaa;" markerHeight="2" orient="auto">
      <path d="M 0 0 L 10 5 L 0 10 z" />
    </marker>
    
    <marker id="Arrow" viewBox="0 0 10 10" refX="5" refY="5" markerUnits="strokeWidth" markerWidth="1.8" style="stroke-opacity:0%;fill:#770000;" markerHeight="2" orient="auto">
      <path d="M 0 4 L 6 4 L 4 1 L 10 5 L 4 9 L 6 6 L 0 6 z" />
        <circle cx="5" cy="5" r="5" />
      </marker>
    
    <marker id="TriangleRed" viewBox="0 0 10 10" refX="0" refY="5" markerUnits="strokeWidth" markerWidth="3" style="stroke-opacity:0%;fill:#CC0000;" markerHeight="2" orient="auto">
      <path d="M 0 0 L 10 5 L 0 10 z" />
    </marker>
    
    <marker id="ArrowRed" viewBox="0 0 10 10" refX="5" refY="5" markerUnits="strokeWidth" markerWidth="1.8" style="stroke-opacity:0%;fill:#CC0000;" markerHeight="2" orient="auto">
      <path d="M 0 4 L 6 4 L 4 1 L 10 5 L 4 9 L 6 6 L 0 6 z" />
        <circle cx="5" cy="5" r="5" />
      </marker>
    
  </defs>
  
  <path style="fill:#ffffff; fill-opacity:100%; fill-rule:evenodd; stroke-width:0;" d="M 0 0 L 751 0 L 751 301 L 0 301 L 0 0" />

  <g transform="scale(1.3761467889908 1.3761467889908) translate(0, 0)">
<path style="fill:none; fill-rule:evenodd; stroke:#aaaaaa;  stroke-width:1pt; stroke-linecap:round;" d="m 109 0 L 0 0 L 0 109 L 109 109 L 109 0"></path><path style="fill:none; fill-opacity:0%; fill-rule:evenodd; stroke:#aaaaaa; stroke-opacity:100%; stroke-width: 1.5pt; stroke-linejoin:round; stroke-linecap:round;" d="M13.28 38.72c0.35 0.24 2.39 0.41 3.31 0.31c3.94-0.41 19.12-1.71 25.45-2.91c0.92-0.17 2.15-0.24 2.73 0"></path>
<path style="fill:none; fill-opacity:0%; fill-rule:evenodd; stroke:#aaaaaa; stroke-opacity:100%; stroke-width: 1.5pt; stroke-linejoin:round; stroke-linecap:round;" d="M29.36 14c0.89 1.25 2.04 2 2.04 4.92c0 0.95-0.12 70.75-0.3 76.58"></path>
<path style="fill:none; fill-opacity:0%; fill-rule:evenodd; stroke:#aaaaaa; stroke-opacity:100%; stroke-width: 1.5pt; stroke-linejoin:round; stroke-linecap:round;" d="M31.19 40.53C25.41 57.2 21.06 64.25 12.11 78.84"></path>
<path style="fill:none; fill-opacity:0%; fill-rule:evenodd; stroke:#aaaaaa; stroke-opacity:100%; stroke-width: 1.5pt; stroke-linejoin:round; stroke-linecap:round;" d="M33.72 47.65c2.44 1.8 6.47 7.62 8.53 11.1"></path>
<path style="fill:none; fill-opacity:0%; fill-rule:evenodd; stroke:#aaaaaa; stroke-opacity:100%; stroke-width: 1.5pt; stroke-linejoin:round; stroke-linecap:round;" d="M53.96 20.59c0.59 1.03 0.98 2.05 1.18 3.06c0.2 1.01 0.43 65.08 0.36 67.31"></path>
<path style="fill:none; fill-opacity:0%; fill-rule:evenodd; stroke:#aaaaaa; stroke-opacity:100%; stroke-width: 1.5pt; stroke-linejoin:round; stroke-linecap:round;" d="M56.3 21.73c2.27-0.1 22.62-2.98 24.31-3.16c3.03-0.31 4.18 3.51 3.81 4.98c-0.36 1.41-0.18 44.21-0.29 64.39"></path>
<path style="fill:none; fill-opacity:0%; fill-rule:evenodd; stroke:#aaaaaa; stroke-opacity:100%; stroke-width: 1.5pt; stroke-linejoin:round; stroke-linecap:round;" d="M56.38 43.9c7.76-1 19.95-1.94 26.77-2.25"></path>
<path style="fill:none; fill-opacity:0%; fill-rule:evenodd; stroke:#aaaaaa; stroke-opacity:100%; stroke-width: 1.5pt; stroke-linejoin:round; stroke-linecap:round;" d="M56.84 65.36c6.06-0.36 18.82-1.76 25.83-1.81"></path>
<path style="fill:none; fill-opacity:0%; fill-rule:evenodd; stroke:#aaaaaa; stroke-opacity:100%; stroke-width: 1.5pt; stroke-linejoin:round; stroke-linecap:round;" d="M42.54 92.57c1.17 0.43 3.32 0.5 4.49 0.43c12.2-0.73 34.72-3.41 47-3.41c1.95 0 3.13 0.21 4.1 0.42"></path>

<text x="5" y="20" font-size="20" fill="#999999">1</text><path style="fill:none; fill-opacity:0%; fill-rule:evenodd; stroke:#CC0000; stroke-opacity:100%; stroke-width: 3pt; stroke-linejoin:round; stroke-linecap:round;" d="M13.28 38.72c0.35 0.24 2.39 0.41 3.31 0.31c3.94-0.41 19.12-1.71 25.45-2.91c0.92-0.17 2.15-0.24 2.73 0" marker-end="url(#TriangleRed)" marker-start="url(#ArrowRed)" ></path>









</g><g transform="scale(1.3761467889908 1.3761467889908) translate(109, 0)">
<path style="fill:none; fill-rule:evenodd; stroke:#aaaaaa;  stroke-width:1pt; stroke-linecap:round;" d="m 109 0 L 0 0 L 0 109 L 109 109 L 109 0"></path><path style="fill:none; fill-opacity:0%; fill-rule:evenodd; stroke:#aaaaaa; stroke-opacity:100%; stroke-width: 1.5pt; stroke-linejoin:round; stroke-linecap:round;" d="M13.28 38.72c0.35 0.24 2.39 0.41 3.31 0.31c3.94-0.41 19.12-1.71 25.45-2.91c0.92-0.17 2.15-0.24 2.73 0"></path>
<path style="fill:none; fill-opacity:0%; fill-rule:evenodd; stroke:#aaaaaa; stroke-opacity:100%; stroke-width: 1.5pt; stroke-linejoin:round; stroke-linecap:round;" d="M29.36 14c0.89 1.25 2.04 2 2.04 4.92c0 0.95-0.12 70.75-0.3 76.58"></path>
<path style="fill:none; fill-opacity:0%; fill-rule:evenodd; stroke:#aaaaaa; stroke-opacity:100%; stroke-width: 1.5pt; stroke-linejoin:round; stroke-linecap:round;" d="M31.19 40.53C25.41 57.2 21.06 64.25 12.11 78.84"></path>
<path style="fill:none; fill-opacity:0%; fill-rule:evenodd; stroke:#aaaaaa; stroke-opacity:100%; stroke-width: 1.5pt; stroke-linejoin:round; stroke-linecap:round;" d="M33.72 47.65c2.44 1.8 6.47 7.62 8.53 11.1"></path>
<path style="fill:none; fill-opacity:0%; fill-rule:evenodd; stroke:#aaaaaa; stroke-opacity:100%; stroke-width: 1.5pt; stroke-linejoin:round; stroke-linecap:round;" d="M53.96 20.59c0.59 1.03 0.98 2.05 1.18 3.06c0.2 1.01 0.43 65.08 0.36 67.31"></path>
<path style="fill:none; fill-opacity:0%; fill-rule:evenodd; stroke:#aaaaaa; stroke-opacity:100%; stroke-width: 1.5pt; stroke-linejoin:round; stroke-linecap:round;" d="M56.3 21.73c2.27-0.1 22.62-2.98 24.31-3.16c3.03-0.31 4.18 3.51 3.81 4.98c-0.36 1.41-0.18 44.21-0.29 64.39"></path>
<path style="fill:none; fill-opacity:0%; fill-rule:evenodd; stroke:#aaaaaa; stroke-opacity:100%; stroke-width: 1.5pt; stroke-linejoin:round; stroke-linecap:round;" d="M56.38 43.9c7.76-1 19.95-1.94 26.77-2.25"></path>
<path style="fill:none; fill-opacity:0%; fill-rule:evenodd; stroke:#aaaaaa; stroke-opacity:100%; stroke-width: 1.5pt; stroke-linejoin:round; stroke-linecap:round;" d="M56.84 65.36c6.06-0.36 18.82-1.76 25.83-1.81"></path>
<path style="fill:none; fill-opacity:0%; fill-rule:evenodd; stroke:#aaaaaa; stroke-opacity:100%; stroke-width: 1.5pt; stroke-linejoin:round; stroke-linecap:round;" d="M42.54 92.57c1.17 0.43 3.32 0.5 4.49 0.43c12.2-0.73 34.72-3.41 47-3.41c1.95 0 3.13 0.21 4.1 0.42"></path>

<path style="fill:none; fill-opacity:0%; fill-rule:evenodd; stroke:#000000; stroke-opacity:100%; stroke-width: 3pt; stroke-linejoin:round; stroke-linecap:round;" d="M13.28 38.72c0.35 0.24 2.39 0.41 3.31 0.31c3.94-0.41 19.12-1.71 25.45-2.91c0.92-0.17 2.15-0.24 2.73 0"></path>
<text x="5" y="20" font-size="20" fill="#999999">2</text><path style="fill:none; fill-opacity:0%; fill-rule:evenodd; stroke:#CC0000; stroke-opacity:100%; stroke-width: 3pt; stroke-linejoin:round; stroke-linecap:round;" d="M29.36 14c0.89 1.25 2.04 2 2.04 4.92c0 0.95-0.12 70.75-0.3 76.58" marker-end="url(#TriangleRed)" marker-start="url(#ArrowRed)" ></path>








</g><g transform="scale(1.3761467889908 1.3761467889908) translate(218, 0)">
<path style="fill:none; fill-rule:evenodd; stroke:#aaaaaa;  stroke-width:1pt; stroke-linecap:round;" d="m 109 0 L 0 0 L 0 109 L 109 109 L 109 0"></path><path style="fill:none; fill-opacity:0%; fill-rule:evenodd; stroke:#aaaaaa; stroke-opacity:100%; stroke-width: 1.5pt; stroke-linejoin:round; stroke-linecap:round;" d="M13.28 38.72c0.35 0.24 2.39 0.41 3.31 0.31c3.94-0.41 19.12-1.71 25.45-2.91c0.92-0.17 2.15-0.24 2.73 0"></path>
<path style="fill:none; fill-opacity:0%; fill-rule:evenodd; stroke:#aaaaaa; stroke-opacity:100%; stroke-width: 1.5pt; stroke-linejoin:round; stroke-linecap:round;" d="M29.36 14c0.89 1.25 2.04 2 2.04 4.92c0 0.95-0.12 70.75-0.3 76.58"></path>
<path style="fill:none; fill-opacity:0%; fill-rule:evenodd; stroke:#aaaaaa; stroke-opacity:100%; stroke-width: 1.5pt; stroke-linejoin:round; stroke-linecap:round;" d="M31.19 40.53C25.41 57.2 21.06 64.25 12.11 78.84"></path>
<path style="fill:none; fill-opacity:0%; fill-rule:evenodd; stroke:#aaaaaa; stroke-opacity:100%; stroke-width: 1.5pt; stroke-linejoin:round; stroke-linecap:round;" d="M33.72 47.65c2.44 1.8 6.47 7.62 8.53 11.1"></path>
<path style="fill:none; fill-opacity:0%; fill-rule:evenodd; stroke:#aaaaaa; stroke-opacity:100%; stroke-width: 1.5pt; stroke-linejoin:round; stroke-linecap:round;" d="M53.96 20.59c0.59 1.03 0.98 2.05 1.18 3.06c0.2 1.01 0.43 65.08 0.36 67.31"></path>
<path style="fill:none; fill-opacity:0%; fill-rule:evenodd; stroke:#aaaaaa; stroke-opacity:100%; stroke-width: 1.5pt; stroke-linejoin:round; stroke-linecap:round;" d="M56.3 21.73c2.27-0.1 22.62-2.98 24.31-3.16c3.03-0.31 4.18 3.51 3.81 4.98c-0.36 1.41-0.18 44.21-0.29 64.39"></path>
<path style="fill:none; fill-opacity:0%; fill-rule:evenodd; stroke:#aaaaaa; stroke-opacity:100%; stroke-width: 1.5pt; stroke-linejoin:round; stroke-linecap:round;" d="M56.38 43.9c7.76-1 19.95-1.94 26.77-2.25"></path>
<path style="fill:none; fill-opacity:0%; fill-rule:evenodd; stroke:#aaaaaa; stroke-opacity:100%; stroke-width: 1.5pt; stroke-linejoin:round; stroke-linecap:round;" d="M56.84 65.36c6.06-0.36 18.82-1.76 25.83-1.81"></path>
<path style="fill:none; fill-opacity:0%; fill-rule:evenodd; stroke:#aaaaaa; stroke-opacity:100%; stroke-width: 1.5pt; stroke-linejoin:round; stroke-linecap:round;" d="M42.54 92.57c1.17 0.43 3.32 0.5 4.49 0.43c12.2-0.73 34.72-3.41 47-3.41c1.95 0 3.13 0.21 4.1 0.42"></path>

<path style="fill:none; fill-opacity:0%; fill-rule:evenodd; stroke:#000000; stroke-opacity:100%; stroke-width: 3pt; stroke-linejoin:round; stroke-linecap:round;" d="M13.28 38.72c0.35 0.24 2.39 0.41 3.31 0.31c3.94-0.41 19.12-1.71 25.45-2.91c0.92-0.17 2.15-0.24 2.73 0"></path>
<path style="fill:none; fill-opacity:0%; fill-rule:evenodd; stroke:#000000; stroke-opacity:100%; stroke-width: 3pt; stroke-linejoin:round; stroke-linecap:round;" d="M29.36 14c0.89 1.25 2.04 2 2.04 4.92c0 0.95-0.12 70.75-0.3 76.58"></path>
<text x="5" y="20" font-size="20" fill="#999999">3</text><path style="fill:none; fill-opacity:0%; fill-rule:evenodd; stroke:#CC0000; stroke-opacity:100%; stroke-width: 3pt; stroke-linejoin:round; stroke-linecap:round;" d="M31.19 40.53C25.41 57.2 21.06 64.25 12.11 78.84" marker-end="url(#TriangleRed)" marker-start="url(#ArrowRed)" ></path>







</g><g transform="scale(1.3761467889908 1.3761467889908) translate(327, 0)">
<path style="fill:none; fill-rule:evenodd; stroke:#aaaaaa;  stroke-width:1pt; stroke-linecap:round;" d="m 109 0 L 0 0 L 0 109 L 109 109 L 109 0"></path><path style="fill:none; fill-opacity:0%; fill-rule:evenodd; stroke:#aaaaaa; stroke-opacity:100%; stroke-width: 1.5pt; stroke-linejoin:round; stroke-linecap:round;" d="M13.28 38.72c0.35 0.24 2.39 0.41 3.31 0.31c3.94-0.41 19.12-1.71 25.45-2.91c0.92-0.17 2.15-0.24 2.73 0"></path>
<path style="fill:none; fill-opacity:0%; fill-rule:evenodd; stroke:#aaaaaa; stroke-opacity:100%; stroke-width: 1.5pt; stroke-linejoin:round; stroke-linecap:round;" d="M29.36 14c0.89 1.25 2.04 2 2.04 4.92c0 0.95-0.12 70.75-0.3 76.58"></path>
<path style="fill:none; fill-opacity:0%; fill-rule:evenodd; stroke:#aaaaaa; stroke-opacity:100%; stroke-width: 1.5pt; stroke-linejoin:round; stroke-linecap:round;" d="M31.19 40.53C25.41 57.2 21.06 64.25 12.11 78.84"></path>
<path style="fill:none; fill-opacity:0%; fill-rule:evenodd; stroke:#aaaaaa; stroke-opacity:100%; stroke-width: 1.5pt; stroke-linejoin:round; stroke-linecap:round;" d="M33.72 47.65c2.44 1.8 6.47 7.62 8.53 11.1"></path>
<path style="fill:none; fill-opacity:0%; fill-rule:evenodd; stroke:#aaaaaa; stroke-opacity:100%; stroke-width: 1.5pt; stroke-linejoin:round; stroke-linecap:round;" d="M53.96 20.59c0.59 1.03 0.98 2.05 1.18 3.06c0.2 1.01 0.43 65.08 0.36 67.31"></path>
<path style="fill:none; fill-opacity:0%; fill-rule:evenodd; stroke:#aaaaaa; stroke-opacity:100%; stroke-width: 1.5pt; stroke-linejoin:round; stroke-linecap:round;" d="M56.3 21.73c2.27-0.1 22.62-2.98 24.31-3.16c3.03-0.31 4.18 3.51 3.81 4.98c-0.36 1.41-0.18 44.21-0.29 64.39"></path>
<path style="fill:none; fill-opacity:0%; fill-rule:evenodd; stroke:#aaaaaa; stroke-opacity:100%; stroke-width: 1.5pt; stroke-linejoin:round; stroke-linecap:round;" d="M56.38 43.9c7.76-1 19.95-1.94 26.77-2.25"></path>
<path style="fill:none; fill-opacity:0%; fill-rule:evenodd; stroke:#aaaaaa; stroke-opacity:100%; stroke-width: 1.5pt; stroke-linejoin:round; stroke-linecap:round;" d="M56.84 65.36c6.06-0.36 18.82-1.76 25.83-1.81"></path>
<path style="fill:none; fill-opacity:0%; fill-rule:evenodd; stroke:#aaaaaa; stroke-opacity:100%; stroke-width: 1.5pt; stroke-linejoin:round; stroke-linecap:round;" d="M42.54 92.57c1.17 0.43 3.32 0.5 4.49 0.43c12.2-0.73 34.72-3.41 47-3.41c1.95 0 3.13 0.21 4.1 0.42"></path>

<path style="fill:none; fill-opacity:0%; fill-rule:evenodd; stroke:#000000; stroke-opacity:100%; stroke-width: 3pt; stroke-linejoin:round; stroke-linecap:round;" d="M13.28 38.72c0.35 0.24 2.39 0.41 3.31 0.31c3.94-0.41 19.12-1.71 25.45-2.91c0.92-0.17 2.15-0.24 2.73 0"></path>
<path style="fill:none; fill-opacity:0%; fill-rule:evenodd; stroke:#000000; stroke-opacity:100%; stroke-width: 3pt; stroke-linejoin:round; stroke-linecap:round;" d="M29.36 14c0.89 1.25 2.04 2 2.04 4.92c0 0.95-0.12 70.75-0.3 76.58"></path>
<path style="fill:none; fill-opacity:0%; fill-rule:evenodd; stroke:#000000; stroke-opacity:100%; stroke-width: 3pt; stroke-linejoin:round; stroke-linecap:round;" d="M31.19 40.53C25.41 57.2 21.06 64.25 12.11 78.84"></path>
<text x="5" y="20" font-size="20" fill="#999999">4</text><path style="fill:none; fill-opacity:0%; fill-rule:evenodd; stroke:#CC0000; stroke-opacity:100%; stroke-width: 3pt; stroke-linejoin:round; stroke-linecap:round;" d="M33.72 47.65c2.44 1.8 6.47 7.62 8.53 11.1" marker-end="url(#TriangleRed)" marker-start="url(#ArrowRed)" ></path>






</g><g transform="scale(1.3761467889908 1.3761467889908) translate(436, 0)">
<path style="fill:none; fill-rule:evenodd; stroke:#aaaaaa;  stroke-width:1pt; stroke-linecap:round;" d="m 109 0 L 0 0 L 0 109 L 109 109 L 109 0"></path><path style="fill:none; fill-opacity:0%; fill-rule:evenodd; stroke:#aaaaaa; stroke-opacity:100%; stroke-width: 1.5pt; stroke-linejoin:round; stroke-linecap:round;" d="M13.28 38.72c0.35 0.24 2.39 0.41 3.31 0.31c3.94-0.41 19.12-1.71 25.45-2.91c0.92-0.17 2.15-0.24 2.73 0"></path>
<path style="fill:none; fill-opacity:0%; fill-rule:evenodd; stroke:#aaaaaa; stroke-opacity:100%; stroke-width: 1.5pt; stroke-linejoin:round; stroke-linecap:round;" d="M29.36 14c0.89 1.25 2.04 2 2.04 4.92c0 0.95-0.12 70.75-0.3 76.58"></path>
<path style="fill:none; fill-opacity:0%; fill-rule:evenodd; stroke:#aaaaaa; stroke-opacity:100%; stroke-width: 1.5pt; stroke-linejoin:round; stroke-linecap:round;" d="M31.19 40.53C25.41 57.2 21.06 64.25 12.11 78.84"></path>
<path style="fill:none; fill-opacity:0%; fill-rule:evenodd; stroke:#aaaaaa; stroke-opacity:100%; stroke-width: 1.5pt; stroke-linejoin:round; stroke-linecap:round;" d="M33.72 47.65c2.44 1.8 6.47 7.62 8.53 11.1"></path>
<path style="fill:none; fill-opacity:0%; fill-rule:evenodd; stroke:#aaaaaa; stroke-opacity:100%; stroke-width: 1.5pt; stroke-linejoin:round; stroke-linecap:round;" d="M53.96 20.59c0.59 1.03 0.98 2.05 1.18 3.06c0.2 1.01 0.43 65.08 0.36 67.31"></path>
<path style="fill:none; fill-opacity:0%; fill-rule:evenodd; stroke:#aaaaaa; stroke-opacity:100%; stroke-width: 1.5pt; stroke-linejoin:round; stroke-linecap:round;" d="M56.3 21.73c2.27-0.1 22.62-2.98 24.31-3.16c3.03-0.31 4.18 3.51 3.81 4.98c-0.36 1.41-0.18 44.21-0.29 64.39"></path>
<path style="fill:none; fill-opacity:0%; fill-rule:evenodd; stroke:#aaaaaa; stroke-opacity:100%; stroke-width: 1.5pt; stroke-linejoin:round; stroke-linecap:round;" d="M56.38 43.9c7.76-1 19.95-1.94 26.77-2.25"></path>
<path style="fill:none; fill-opacity:0%; fill-rule:evenodd; stroke:#aaaaaa; stroke-opacity:100%; stroke-width: 1.5pt; stroke-linejoin:round; stroke-linecap:round;" d="M56.84 65.36c6.06-0.36 18.82-1.76 25.83-1.81"></path>
<path style="fill:none; fill-opacity:0%; fill-rule:evenodd; stroke:#aaaaaa; stroke-opacity:100%; stroke-width: 1.5pt; stroke-linejoin:round; stroke-linecap:round;" d="M42.54 92.57c1.17 0.43 3.32 0.5 4.49 0.43c12.2-0.73 34.72-3.41 47-3.41c1.95 0 3.13 0.21 4.1 0.42"></path>

<path style="fill:none; fill-opacity:0%; fill-rule:evenodd; stroke:#000000; stroke-opacity:100%; stroke-width: 3pt; stroke-linejoin:round; stroke-linecap:round;" d="M13.28 38.72c0.35 0.24 2.39 0.41 3.31 0.31c3.94-0.41 19.12-1.71 25.45-2.91c0.92-0.17 2.15-0.24 2.73 0"></path>
<path style="fill:none; fill-opacity:0%; fill-rule:evenodd; stroke:#000000; stroke-opacity:100%; stroke-width: 3pt; stroke-linejoin:round; stroke-linecap:round;" d="M29.36 14c0.89 1.25 2.04 2 2.04 4.92c0 0.95-0.12 70.75-0.3 76.58"></path>
<path style="fill:none; fill-opacity:0%; fill-rule:evenodd; stroke:#000000; stroke-opacity:100%; stroke-width: 3pt; stroke-linejoin:round; stroke-linecap:round;" d="M31.19 40.53C25.41 57.2 21.06 64.25 12.11 78.84"></path>
<path style="fill:none; fill-opacity:0%; fill-rule:evenodd; stroke:#000000; stroke-opacity:100%; stroke-width: 3pt; stroke-linejoin:round; stroke-linecap:round;" d="M33.72 47.65c2.44 1.8 6.47 7.62 8.53 11.1"></path>
<text x="5" y="20" font-size="20" fill="#999999">5</text><path style="fill:none; fill-opacity:0%; fill-rule:evenodd; stroke:#CC0000; stroke-opacity:100%; stroke-width: 3pt; stroke-linejoin:round; stroke-linecap:round;" d="M53.96 20.59c0.59 1.03 0.98 2.05 1.18 3.06c0.2 1.01 0.43 65.08 0.36 67.31" marker-end="url(#TriangleRed)" marker-start="url(#ArrowRed)" ></path>





</g><g transform="scale(1.3761467889908 1.3761467889908) translate(0, 109)">
<path style="fill:none; fill-rule:evenodd; stroke:#aaaaaa;  stroke-width:1pt; stroke-linecap:round;" d="m 109 0 L 0 0 L 0 109 L 109 109 L 109 0"></path><path style="fill:none; fill-opacity:0%; fill-rule:evenodd; stroke:#aaaaaa; stroke-opacity:100%; stroke-width: 1.5pt; stroke-linejoin:round; stroke-linecap:round;" d="M13.28 38.72c0.35 0.24 2.39 0.41 3.31 0.31c3.94-0.41 19.12-1.71 25.45-2.91c0.92-0.17 2.15-0.24 2.73 0"></path>
<path style="fill:none; fill-opacity:0%; fill-rule:evenodd; stroke:#aaaaaa; stroke-opacity:100%; stroke-width: 1.5pt; stroke-linejoin:round; stroke-linecap:round;" d="M29.36 14c0.89 1.25 2.04 2 2.04 4.92c0 0.95-0.12 70.75-0.3 76.58"></path>
<path style="fill:none; fill-opacity:0%; fill-rule:evenodd; stroke:#aaaaaa; stroke-opacity:100%; stroke-width: 1.5pt; stroke-linejoin:round; stroke-linecap:round;" d="M31.19 40.53C25.41 57.2 21.06 64.25 12.11 78.84"></path>
<path style="fill:none; fill-opacity:0%; fill-rule:evenodd; stroke:#aaaaaa; stroke-opacity:100%; stroke-width: 1.5pt; stroke-linejoin:round; stroke-linecap:round;" d="M33.72 47.65c2.44 1.8 6.47 7.62 8.53 11.1"></path>
<path style="fill:none; fill-opacity:0%; fill-rule:evenodd; stroke:#aaaaaa; stroke-opacity:100%; stroke-width: 1.5pt; stroke-linejoin:round; stroke-linecap:round;" d="M53.96 20.59c0.59 1.03 0.98 2.05 1.18 3.06c0.2 1.01 0.43 65.08 0.36 67.31"></path>
<path style="fill:none; fill-opacity:0%; fill-rule:evenodd; stroke:#aaaaaa; stroke-opacity:100%; stroke-width: 1.5pt; stroke-linejoin:round; stroke-linecap:round;" d="M56.3 21.73c2.27-0.1 22.62-2.98 24.31-3.16c3.03-0.31 4.18 3.51 3.81 4.98c-0.36 1.41-0.18 44.21-0.29 64.39"></path>
<path style="fill:none; fill-opacity:0%; fill-rule:evenodd; stroke:#aaaaaa; stroke-opacity:100%; stroke-width: 1.5pt; stroke-linejoin:round; stroke-linecap:round;" d="M56.38 43.9c7.76-1 19.95-1.94 26.77-2.25"></path>
<path style="fill:none; fill-opacity:0%; fill-rule:evenodd; stroke:#aaaaaa; stroke-opacity:100%; stroke-width: 1.5pt; stroke-linejoin:round; stroke-linecap:round;" d="M56.84 65.36c6.06-0.36 18.82-1.76 25.83-1.81"></path>
<path style="fill:none; fill-opacity:0%; fill-rule:evenodd; stroke:#aaaaaa; stroke-opacity:100%; stroke-width: 1.5pt; stroke-linejoin:round; stroke-linecap:round;" d="M42.54 92.57c1.17 0.43 3.32 0.5 4.49 0.43c12.2-0.73 34.72-3.41 47-3.41c1.95 0 3.13 0.21 4.1 0.42"></path>

<path style="fill:none; fill-opacity:0%; fill-rule:evenodd; stroke:#000000; stroke-opacity:100%; stroke-width: 3pt; stroke-linejoin:round; stroke-linecap:round;" d="M13.28 38.72c0.35 0.24 2.39 0.41 3.31 0.31c3.94-0.41 19.12-1.71 25.45-2.91c0.92-0.17 2.15-0.24 2.73 0"></path>
<path style="fill:none; fill-opacity:0%; fill-rule:evenodd; stroke:#000000; stroke-opacity:100%; stroke-width: 3pt; stroke-linejoin:round; stroke-linecap:round;" d="M29.36 14c0.89 1.25 2.04 2 2.04 4.92c0 0.95-0.12 70.75-0.3 76.58"></path>
<path style="fill:none; fill-opacity:0%; fill-rule:evenodd; stroke:#000000; stroke-opacity:100%; stroke-width: 3pt; stroke-linejoin:round; stroke-linecap:round;" d="M31.19 40.53C25.41 57.2 21.06 64.25 12.11 78.84"></path>
<path style="fill:none; fill-opacity:0%; fill-rule:evenodd; stroke:#000000; stroke-opacity:100%; stroke-width: 3pt; stroke-linejoin:round; stroke-linecap:round;" d="M33.72 47.65c2.44 1.8 6.47 7.62 8.53 11.1"></path>
<path style="fill:none; fill-opacity:0%; fill-rule:evenodd; stroke:#000000; stroke-opacity:100%; stroke-width: 3pt; stroke-linejoin:round; stroke-linecap:round;" d="M53.96 20.59c0.59 1.03 0.98 2.05 1.18 3.06c0.2 1.01 0.43 65.08 0.36 67.31"></path>
<text x="5" y="20" font-size="20" fill="#999999">6</text><path style="fill:none; fill-opacity:0%; fill-rule:evenodd; stroke:#CC0000; stroke-opacity:100%; stroke-width: 3pt; stroke-linejoin:round; stroke-linecap:round;" d="M56.3 21.73c2.27-0.1 22.62-2.98 24.31-3.16c3.03-0.31 4.18 3.51 3.81 4.98c-0.36 1.41-0.18 44.21-0.29 64.39" marker-end="url(#TriangleRed)" marker-start="url(#ArrowRed)" ></path>




</g><g transform="scale(1.3761467889908 1.3761467889908) translate(109, 109)">
<path style="fill:none; fill-rule:evenodd; stroke:#aaaaaa;  stroke-width:1pt; stroke-linecap:round;" d="m 109 0 L 0 0 L 0 109 L 109 109 L 109 0"></path><path style="fill:none; fill-opacity:0%; fill-rule:evenodd; stroke:#aaaaaa; stroke-opacity:100%; stroke-width: 1.5pt; stroke-linejoin:round; stroke-linecap:round;" d="M13.28 38.72c0.35 0.24 2.39 0.41 3.31 0.31c3.94-0.41 19.12-1.71 25.45-2.91c0.92-0.17 2.15-0.24 2.73 0"></path>
<path style="fill:none; fill-opacity:0%; fill-rule:evenodd; stroke:#aaaaaa; stroke-opacity:100%; stroke-width: 1.5pt; stroke-linejoin:round; stroke-linecap:round;" d="M29.36 14c0.89 1.25 2.04 2 2.04 4.92c0 0.95-0.12 70.75-0.3 76.58"></path>
<path style="fill:none; fill-opacity:0%; fill-rule:evenodd; stroke:#aaaaaa; stroke-opacity:100%; stroke-width: 1.5pt; stroke-linejoin:round; stroke-linecap:round;" d="M31.19 40.53C25.41 57.2 21.06 64.25 12.11 78.84"></path>
<path style="fill:none; fill-opacity:0%; fill-rule:evenodd; stroke:#aaaaaa; stroke-opacity:100%; stroke-width: 1.5pt; stroke-linejoin:round; stroke-linecap:round;" d="M33.72 47.65c2.44 1.8 6.47 7.62 8.53 11.1"></path>
<path style="fill:none; fill-opacity:0%; fill-rule:evenodd; stroke:#aaaaaa; stroke-opacity:100%; stroke-width: 1.5pt; stroke-linejoin:round; stroke-linecap:round;" d="M53.96 20.59c0.59 1.03 0.98 2.05 1.18 3.06c0.2 1.01 0.43 65.08 0.36 67.31"></path>
<path style="fill:none; fill-opacity:0%; fill-rule:evenodd; stroke:#aaaaaa; stroke-opacity:100%; stroke-width: 1.5pt; stroke-linejoin:round; stroke-linecap:round;" d="M56.3 21.73c2.27-0.1 22.62-2.98 24.31-3.16c3.03-0.31 4.18 3.51 3.81 4.98c-0.36 1.41-0.18 44.21-0.29 64.39"></path>
<path style="fill:none; fill-opacity:0%; fill-rule:evenodd; stroke:#aaaaaa; stroke-opacity:100%; stroke-width: 1.5pt; stroke-linejoin:round; stroke-linecap:round;" d="M56.38 43.9c7.76-1 19.95-1.94 26.77-2.25"></path>
<path style="fill:none; fill-opacity:0%; fill-rule:evenodd; stroke:#aaaaaa; stroke-opacity:100%; stroke-width: 1.5pt; stroke-linejoin:round; stroke-linecap:round;" d="M56.84 65.36c6.06-0.36 18.82-1.76 25.83-1.81"></path>
<path style="fill:none; fill-opacity:0%; fill-rule:evenodd; stroke:#aaaaaa; stroke-opacity:100%; stroke-width: 1.5pt; stroke-linejoin:round; stroke-linecap:round;" d="M42.54 92.57c1.17 0.43 3.32 0.5 4.49 0.43c12.2-0.73 34.72-3.41 47-3.41c1.95 0 3.13 0.21 4.1 0.42"></path>

<path style="fill:none; fill-opacity:0%; fill-rule:evenodd; stroke:#000000; stroke-opacity:100%; stroke-width: 3pt; stroke-linejoin:round; stroke-linecap:round;" d="M13.28 38.72c0.35 0.24 2.39 0.41 3.31 0.31c3.94-0.41 19.12-1.71 25.45-2.91c0.92-0.17 2.15-0.24 2.73 0"></path>
<path style="fill:none; fill-opacity:0%; fill-rule:evenodd; stroke:#000000; stroke-opacity:100%; stroke-width: 3pt; stroke-linejoin:round; stroke-linecap:round;" d="M29.36 14c0.89 1.25 2.04 2 2.04 4.92c0 0.95-0.12 70.75-0.3 76.58"></path>
<path style="fill:none; fill-opacity:0%; fill-rule:evenodd; stroke:#000000; stroke-opacity:100%; stroke-width: 3pt; stroke-linejoin:round; stroke-linecap:round;" d="M31.19 40.53C25.41 57.2 21.06 64.25 12.11 78.84"></path>
<path style="fill:none; fill-opacity:0%; fill-rule:evenodd; stroke:#000000; stroke-opacity:100%; stroke-width: 3pt; stroke-linejoin:round; stroke-linecap:round;" d="M33.72 47.65c2.44 1.8 6.47 7.62 8.53 11.1"></path>
<path style="fill:none; fill-opacity:0%; fill-rule:evenodd; stroke:#000000; stroke-opacity:100%; stroke-width: 3pt; stroke-linejoin:round; stroke-linecap:round;" d="M53.96 20.59c0.59 1.03 0.98 2.05 1.18 3.06c0.2 1.01 0.43 65.08 0.36 67.31"></path>
<path style="fill:none; fill-opacity:0%; fill-rule:evenodd; stroke:#000000; stroke-opacity:100%; stroke-width: 3pt; stroke-linejoin:round; stroke-linecap:round;" d="M56.3 21.73c2.27-0.1 22.62-2.98 24.31-3.16c3.03-0.31 4.18 3.51 3.81 4.98c-0.36 1.41-0.18 44.21-0.29 64.39"></path>
<text x="5" y="20" font-size="20" fill="#999999">7</text><path style="fill:none; fill-opacity:0%; fill-rule:evenodd; stroke:#CC0000; stroke-opacity:100%; stroke-width: 3pt; stroke-linejoin:round; stroke-linecap:round;" d="M56.38 43.9c7.76-1 19.95-1.94 26.77-2.25" marker-end="url(#TriangleRed)" marker-start="url(#ArrowRed)" ></path>



</g><g transform="scale(1.3761467889908 1.3761467889908) translate(218, 109)">
<path style="fill:none; fill-rule:evenodd; stroke:#aaaaaa;  stroke-width:1pt; stroke-linecap:round;" d="m 109 0 L 0 0 L 0 109 L 109 109 L 109 0"></path><path style="fill:none; fill-opacity:0%; fill-rule:evenodd; stroke:#aaaaaa; stroke-opacity:100%; stroke-width: 1.5pt; stroke-linejoin:round; stroke-linecap:round;" d="M13.28 38.72c0.35 0.24 2.39 0.41 3.31 0.31c3.94-0.41 19.12-1.71 25.45-2.91c0.92-0.17 2.15-0.24 2.73 0"></path>
<path style="fill:none; fill-opacity:0%; fill-rule:evenodd; stroke:#aaaaaa; stroke-opacity:100%; stroke-width: 1.5pt; stroke-linejoin:round; stroke-linecap:round;" d="M29.36 14c0.89 1.25 2.04 2 2.04 4.92c0 0.95-0.12 70.75-0.3 76.58"></path>
<path style="fill:none; fill-opacity:0%; fill-rule:evenodd; stroke:#aaaaaa; stroke-opacity:100%; stroke-width: 1.5pt; stroke-linejoin:round; stroke-linecap:round;" d="M31.19 40.53C25.41 57.2 21.06 64.25 12.11 78.84"></path>
<path style="fill:none; fill-opacity:0%; fill-rule:evenodd; stroke:#aaaaaa; stroke-opacity:100%; stroke-width: 1.5pt; stroke-linejoin:round; stroke-linecap:round;" d="M33.72 47.65c2.44 1.8 6.47 7.62 8.53 11.1"></path>
<path style="fill:none; fill-opacity:0%; fill-rule:evenodd; stroke:#aaaaaa; stroke-opacity:100%; stroke-width: 1.5pt; stroke-linejoin:round; stroke-linecap:round;" d="M53.96 20.59c0.59 1.03 0.98 2.05 1.18 3.06c0.2 1.01 0.43 65.08 0.36 67.31"></path>
<path style="fill:none; fill-opacity:0%; fill-rule:evenodd; stroke:#aaaaaa; stroke-opacity:100%; stroke-width: 1.5pt; stroke-linejoin:round; stroke-linecap:round;" d="M56.3 21.73c2.27-0.1 22.62-2.98 24.31-3.16c3.03-0.31 4.18 3.51 3.81 4.98c-0.36 1.41-0.18 44.21-0.29 64.39"></path>
<path style="fill:none; fill-opacity:0%; fill-rule:evenodd; stroke:#aaaaaa; stroke-opacity:100%; stroke-width: 1.5pt; stroke-linejoin:round; stroke-linecap:round;" d="M56.38 43.9c7.76-1 19.95-1.94 26.77-2.25"></path>
<path style="fill:none; fill-opacity:0%; fill-rule:evenodd; stroke:#aaaaaa; stroke-opacity:100%; stroke-width: 1.5pt; stroke-linejoin:round; stroke-linecap:round;" d="M56.84 65.36c6.06-0.36 18.82-1.76 25.83-1.81"></path>
<path style="fill:none; fill-opacity:0%; fill-rule:evenodd; stroke:#aaaaaa; stroke-opacity:100%; stroke-width: 1.5pt; stroke-linejoin:round; stroke-linecap:round;" d="M42.54 92.57c1.17 0.43 3.32 0.5 4.49 0.43c12.2-0.73 34.72-3.41 47-3.41c1.95 0 3.13 0.21 4.1 0.42"></path>

<path style="fill:none; fill-opacity:0%; fill-rule:evenodd; stroke:#000000; stroke-opacity:100%; stroke-width: 3pt; stroke-linejoin:round; stroke-linecap:round;" d="M13.28 38.72c0.35 0.24 2.39 0.41 3.31 0.31c3.94-0.41 19.12-1.71 25.45-2.91c0.92-0.17 2.15-0.24 2.73 0"></path>
<path style="fill:none; fill-opacity:0%; fill-rule:evenodd; stroke:#000000; stroke-opacity:100%; stroke-width: 3pt; stroke-linejoin:round; stroke-linecap:round;" d="M29.36 14c0.89 1.25 2.04 2 2.04 4.92c0 0.95-0.12 70.75-0.3 76.58"></path>
<path style="fill:none; fill-opacity:0%; fill-rule:evenodd; stroke:#000000; stroke-opacity:100%; stroke-width: 3pt; stroke-linejoin:round; stroke-linecap:round;" d="M31.19 40.53C25.41 57.2 21.06 64.25 12.11 78.84"></path>
<path style="fill:none; fill-opacity:0%; fill-rule:evenodd; stroke:#000000; stroke-opacity:100%; stroke-width: 3pt; stroke-linejoin:round; stroke-linecap:round;" d="M33.72 47.65c2.44 1.8 6.47 7.62 8.53 11.1"></path>
<path style="fill:none; fill-opacity:0%; fill-rule:evenodd; stroke:#000000; stroke-opacity:100%; stroke-width: 3pt; stroke-linejoin:round; stroke-linecap:round;" d="M53.96 20.59c0.59 1.03 0.98 2.05 1.18 3.06c0.2 1.01 0.43 65.08 0.36 67.31"></path>
<path style="fill:none; fill-opacity:0%; fill-rule:evenodd; stroke:#000000; stroke-opacity:100%; stroke-width: 3pt; stroke-linejoin:round; stroke-linecap:round;" d="M56.3 21.73c2.27-0.1 22.62-2.98 24.31-3.16c3.03-0.31 4.18 3.51 3.81 4.98c-0.36 1.41-0.18 44.21-0.29 64.39"></path>
<path style="fill:none; fill-opacity:0%; fill-rule:evenodd; stroke:#000000; stroke-opacity:100%; stroke-width: 3pt; stroke-linejoin:round; stroke-linecap:round;" d="M56.38 43.9c7.76-1 19.95-1.94 26.77-2.25"></path>
<text x="5" y="20" font-size="20" fill="#999999">8</text><path style="fill:none; fill-opacity:0%; fill-rule:evenodd; stroke:#CC0000; stroke-opacity:100%; stroke-width: 3pt; stroke-linejoin:round; stroke-linecap:round;" d="M56.84 65.36c6.06-0.36 18.82-1.76 25.83-1.81" marker-end="url(#TriangleRed)" marker-start="url(#ArrowRed)" ></path>


</g><g transform="scale(1.3761467889908 1.3761467889908) translate(327, 109)">
<path style="fill:none; fill-rule:evenodd; stroke:#aaaaaa;  stroke-width:1pt; stroke-linecap:round;" d="m 109 0 L 0 0 L 0 109 L 109 109 L 109 0"></path><path style="fill:none; fill-opacity:0%; fill-rule:evenodd; stroke:#aaaaaa; stroke-opacity:100%; stroke-width: 1.5pt; stroke-linejoin:round; stroke-linecap:round;" d="M13.28 38.72c0.35 0.24 2.39 0.41 3.31 0.31c3.94-0.41 19.12-1.71 25.45-2.91c0.92-0.17 2.15-0.24 2.73 0"></path>
<path style="fill:none; fill-opacity:0%; fill-rule:evenodd; stroke:#aaaaaa; stroke-opacity:100%; stroke-width: 1.5pt; stroke-linejoin:round; stroke-linecap:round;" d="M29.36 14c0.89 1.25 2.04 2 2.04 4.92c0 0.95-0.12 70.75-0.3 76.58"></path>
<path style="fill:none; fill-opacity:0%; fill-rule:evenodd; stroke:#aaaaaa; stroke-opacity:100%; stroke-width: 1.5pt; stroke-linejoin:round; stroke-linecap:round;" d="M31.19 40.53C25.41 57.2 21.06 64.25 12.11 78.84"></path>
<path style="fill:none; fill-opacity:0%; fill-rule:evenodd; stroke:#aaaaaa; stroke-opacity:100%; stroke-width: 1.5pt; stroke-linejoin:round; stroke-linecap:round;" d="M33.72 47.65c2.44 1.8 6.47 7.62 8.53 11.1"></path>
<path style="fill:none; fill-opacity:0%; fill-rule:evenodd; stroke:#aaaaaa; stroke-opacity:100%; stroke-width: 1.5pt; stroke-linejoin:round; stroke-linecap:round;" d="M53.96 20.59c0.59 1.03 0.98 2.05 1.18 3.06c0.2 1.01 0.43 65.08 0.36 67.31"></path>
<path style="fill:none; fill-opacity:0%; fill-rule:evenodd; stroke:#aaaaaa; stroke-opacity:100%; stroke-width: 1.5pt; stroke-linejoin:round; stroke-linecap:round;" d="M56.3 21.73c2.27-0.1 22.62-2.98 24.31-3.16c3.03-0.31 4.18 3.51 3.81 4.98c-0.36 1.41-0.18 44.21-0.29 64.39"></path>
<path style="fill:none; fill-opacity:0%; fill-rule:evenodd; stroke:#aaaaaa; stroke-opacity:100%; stroke-width: 1.5pt; stroke-linejoin:round; stroke-linecap:round;" d="M56.38 43.9c7.76-1 19.95-1.94 26.77-2.25"></path>
<path style="fill:none; fill-opacity:0%; fill-rule:evenodd; stroke:#aaaaaa; stroke-opacity:100%; stroke-width: 1.5pt; stroke-linejoin:round; stroke-linecap:round;" d="M56.84 65.36c6.06-0.36 18.82-1.76 25.83-1.81"></path>
<path style="fill:none; fill-opacity:0%; fill-rule:evenodd; stroke:#aaaaaa; stroke-opacity:100%; stroke-width: 1.5pt; stroke-linejoin:round; stroke-linecap:round;" d="M42.54 92.57c1.17 0.43 3.32 0.5 4.49 0.43c12.2-0.73 34.72-3.41 47-3.41c1.95 0 3.13 0.21 4.1 0.42"></path>

<path style="fill:none; fill-opacity:0%; fill-rule:evenodd; stroke:#000000; stroke-opacity:100%; stroke-width: 3pt; stroke-linejoin:round; stroke-linecap:round;" d="M13.28 38.72c0.35 0.24 2.39 0.41 3.31 0.31c3.94-0.41 19.12-1.71 25.45-2.91c0.92-0.17 2.15-0.24 2.73 0"></path>
<path style="fill:none; fill-opacity:0%; fill-rule:evenodd; stroke:#000000; stroke-opacity:100%; stroke-width: 3pt; stroke-linejoin:round; stroke-linecap:round;" d="M29.36 14c0.89 1.25 2.04 2 2.04 4.92c0 0.95-0.12 70.75-0.3 76.58"></path>
<path style="fill:none; fill-opacity:0%; fill-rule:evenodd; stroke:#000000; stroke-opacity:100%; stroke-width: 3pt; stroke-linejoin:round; stroke-linecap:round;" d="M31.19 40.53C25.41 57.2 21.06 64.25 12.11 78.84"></path>
<path style="fill:none; fill-opacity:0%; fill-rule:evenodd; stroke:#000000; stroke-opacity:100%; stroke-width: 3pt; stroke-linejoin:round; stroke-linecap:round;" d="M33.72 47.65c2.44 1.8 6.47 7.62 8.53 11.1"></path>
<path style="fill:none; fill-opacity:0%; fill-rule:evenodd; stroke:#000000; stroke-opacity:100%; stroke-width: 3pt; stroke-linejoin:round; stroke-linecap:round;" d="M53.96 20.59c0.59 1.03 0.98 2.05 1.18 3.06c0.2 1.01 0.43 65.08 0.36 67.31"></path>
<path style="fill:none; fill-opacity:0%; fill-rule:evenodd; stroke:#000000; stroke-opacity:100%; stroke-width: 3pt; stroke-linejoin:round; stroke-linecap:round;" d="M56.3 21.73c2.27-0.1 22.62-2.98 24.31-3.16c3.03-0.31 4.18 3.51 3.81 4.98c-0.36 1.41-0.18 44.21-0.29 64.39"></path>
<path style="fill:none; fill-opacity:0%; fill-rule:evenodd; stroke:#000000; stroke-opacity:100%; stroke-width: 3pt; stroke-linejoin:round; stroke-linecap:round;" d="M56.38 43.9c7.76-1 19.95-1.94 26.77-2.25"></path>
<path style="fill:none; fill-opacity:0%; fill-rule:evenodd; stroke:#000000; stroke-opacity:100%; stroke-width: 3pt; stroke-linejoin:round; stroke-linecap:round;" d="M56.84 65.36c6.06-0.36 18.82-1.76 25.83-1.81"></path>
<text x="5" y="20" font-size="20" fill="#999999">9</text><path style="fill:none; fill-opacity:0%; fill-rule:evenodd; stroke:#CC0000; stroke-opacity:100%; stroke-width: 3pt; stroke-linejoin:round; stroke-linecap:round;" d="M42.54 92.57c1.17 0.43 3.32 0.5 4.49 0.43c12.2-0.73 34.72-3.41 47-3.41c1.95 0 3.13 0.21 4.1 0.42" marker-end="url(#TriangleRed)" marker-start="url(#ArrowRed)" ></path>

</g>

</svg>  
          
