<?xml version="1.0" standalone="no"?>
<!DOCTYPE svg PUBLIC "-//W3C//DTD SVG 1.1//EN"   "http://www.w3.org/Graphics/SVG/1.1/DTD/svg11.dtd">
<svg width="751" height="301"  version="1.1" xmlns="http://www.w3.org/2000/svg">
  <defs>
    <marker id="Triangle" viewBox="0 0 10 10" refX="0" refY="5" markerUnits="strokeWidth" markerWidth="3" style="stroke-opacity:0%;fill:#aaaaaa;" markerHeight="2" orient="auto">
      <path d="M 0 0 L 10 5 L 0 10 z" />
    </marker>
    
    <marker id="Arrow" viewBox="0 0 10 10" refX="5" refY="5" markerUnits="strokeWidth" markerWidth="1.8" style="stroke-opacity:0%;fill:#770000;" markerHeight="2" orient="auto">
      <path d="M 0 4 L 6 4 L 4 1 L 10 5 L 4 9 L 6 6 L 0 6 z" />
        <circle cx="5" cy="5" r="5" />
      </marker>
    
    <marker id="TriangleRed" viewBox="0 0 10 10" refX="0" refY="5" markerUnits="strokeWidth" markerWidth="3" style="stroke-opacity:0%;fill:#CC0000;" markerHeight="2" orient="auto">
      <path d="M 0 0 L 10 5 L 0 10 z" />
    </marker>
    
    <marker id="ArrowRed" viewBox="0 0 10 10" refX="5" refY="5" markerUnits="strokeWidth" markerWidth="1.8" style="stroke-opacity:0%;fill:#CC0000;" markerHeight="2" orient="auto">
      <path d="M 0 4 L 6 4 L 4 1 L 10 5 L 4 9 L 6 6 L 0 6 z" />
        <circle cx="5" cy="5" r="5" />
      </marker>
    
  </defs>
  
  <path style="fill:#ffffff; fill-opacity:100%; fill-rule:evenodd; stroke-width:0;" d="M 0 0 L 751 0 L 751 301 L 0 301 L 0 0" />

  <g transform="scale(1.3761467889908 1.3761467889908) translate(0, 0)">
<path style="fill:none; fill-rule:evenodd; stroke:#aaaaaa;  stroke-width:1pt; stroke-linecap:round;" d="m 109 0 L 0 0 L 0 109 L 109 109 L 109 0"></path><path style="fill:none; fill-opacity:0%; fill-rule:evenodd; stroke:#aaaaaa; stroke-opacity:100%; stroke-width: 1.5pt; stroke-linejoin:round; stroke-linecap:round;" d="M25.75 18c3.61 3.85 7.48 10.58 8 12.5"></path>
<path style="fill:none; fill-opacity:0%; fill-rule:evenodd; stroke:#aaaaaa; stroke-opacity:100%; stroke-width: 1.5pt; stroke-linejoin:round; stroke-linecap:round;" d="M48.25 13c1.88 3.5 4.25 9.12 5 14.25"></path>
<path style="fill:none; fill-opacity:0%; fill-rule:evenodd; stroke:#aaaaaa; stroke-opacity:100%; stroke-width: 1.5pt; stroke-linejoin:round; stroke-linecap:round;" d="M79 14c0.21 1.15-0.25 2.18-0.83 2.93c-1.58 2.05-5.98 7.66-7.8 9.69"></path>
<path style="fill:none; fill-opacity:0%; fill-rule:evenodd; stroke:#aaaaaa; stroke-opacity:100%; stroke-width: 1.5pt; stroke-linejoin:round; stroke-linecap:round;" d="M21.62 38.25c-0.11 3.8-2.7 13.9-3.62 16.22"></path>
<path style="fill:none; fill-opacity:0%; fill-rule:evenodd; stroke:#aaaaaa; stroke-opacity:100%; stroke-width: 1.5pt; stroke-linejoin:round; stroke-linecap:round;" d="M22.49 41.63c14.76-2 43.77-5.34 61.3-6.08c10.08-0.42 3.33 6.36-0.15 9.3"></path>
<path style="fill:none; fill-opacity:0%; fill-rule:evenodd; stroke:#aaaaaa; stroke-opacity:100%; stroke-width: 1.5pt; stroke-linejoin:round; stroke-linecap:round;" d="M24.5 60.25c2.54 0.85 5.54 0.46 8.14 0.2c9.71-0.97 27.27-3.66 40.86-4.32c2.43-0.12 5.26-0.01 8.01 0.37"></path>
<path style="fill:none; fill-opacity:0%; fill-rule:evenodd; stroke:#aaaaaa; stroke-opacity:100%; stroke-width: 1.5pt; stroke-linejoin:round; stroke-linecap:round;" d="M52.25 44c1 1 1.75 2.75 1.75 4.5c0 3.14 0 28.88 0 41.75c0 2.48 0 4.48 0 5.75"></path>
<path style="fill:none; fill-opacity:0%; fill-rule:evenodd; stroke:#aaaaaa; stroke-opacity:100%; stroke-width: 1.5pt; stroke-linejoin:round; stroke-linecap:round;" d="M51 59.5c0 0.62-0.42 1.53-0.96 2.32C43.29 71.9 29.12 84.84 17.62 90.25"></path>
<path style="fill:none; fill-opacity:0%; fill-rule:evenodd; stroke:#aaaaaa; stroke-opacity:100%; stroke-width: 1.5pt; stroke-linejoin:round; stroke-linecap:round;" d="M54.75 58.75C59.89 63.89 72.92 75.97 83 83.1c2.84 2.01 5.87 3.9 9.37 5.03"></path>

<text x="5" y="20" font-size="20" fill="#999999">1</text><path style="fill:none; fill-opacity:0%; fill-rule:evenodd; stroke:#CC0000; stroke-opacity:100%; stroke-width: 3pt; stroke-linejoin:round; stroke-linecap:round;" d="M25.75 18c3.61 3.85 7.48 10.58 8 12.5" marker-end="url(#TriangleRed)" marker-start="url(#ArrowRed)" ></path>









</g><g transform="scale(1.3761467889908 1.3761467889908) translate(109, 0)">
<path style="fill:none; fill-rule:evenodd; stroke:#aaaaaa;  stroke-width:1pt; stroke-linecap:round;" d="m 109 0 L 0 0 L 0 109 L 109 109 L 109 0"></path><path style="fill:none; fill-opacity:0%; fill-rule:evenodd; stroke:#aaaaaa; stroke-opacity:100%; stroke-width: 1.5pt; stroke-linejoin:round; stroke-linecap:round;" d="M25.75 18c3.61 3.85 7.48 10.58 8 12.5"></path>
<path style="fill:none; fill-opacity:0%; fill-rule:evenodd; stroke:#aaaaaa; stroke-opacity:100%; stroke-width: 1.5pt; stroke-linejoin:round; stroke-linecap:round;" d="M48.25 13c1.88 3.5 4.25 9.12 5 14.25"></path>
<path style="fill:none; fill-opacity:0%; fill-rule:evenodd; stroke:#aaaaaa; stroke-opacity:100%; stroke-width: 1.5pt; stroke-linejoin:round; stroke-linecap:round;" d="M79 14c0.21 1.15-0.25 2.18-0.83 2.93c-1.58 2.05-5.98 7.66-7.8 9.69"></path>
<path style="fill:none; fill-opacity:0%; fill-rule:evenodd; stroke:#aaaaaa; stroke-opacity:100%; stroke-width: 1.5pt; stroke-linejoin:round; stroke-linecap:round;" d="M21.62 38.25c-0.11 3.8-2.7 13.9-3.62 16.22"></path>
<path style="fill:none; fill-opacity:0%; fill-rule:evenodd; stroke:#aaaaaa; stroke-opacity:100%; stroke-width: 1.5pt; stroke-linejoin:round; stroke-linecap:round;" d="M22.49 41.63c14.76-2 43.77-5.34 61.3-6.08c10.08-0.42 3.33 6.36-0.15 9.3"></path>
<path style="fill:none; fill-opacity:0%; fill-rule:evenodd; stroke:#aaaaaa; stroke-opacity:100%; stroke-width: 1.5pt; stroke-linejoin:round; stroke-linecap:round;" d="M24.5 60.25c2.54 0.85 5.54 0.46 8.14 0.2c9.71-0.97 27.27-3.66 40.86-4.32c2.43-0.12 5.26-0.01 8.01 0.37"></path>
<path style="fill:none; fill-opacity:0%; fill-rule:evenodd; stroke:#aaaaaa; stroke-opacity:100%; stroke-width: 1.5pt; stroke-linejoin:round; stroke-linecap:round;" d="M52.25 44c1 1 1.75 2.75 1.75 4.5c0 3.14 0 28.88 0 41.75c0 2.48 0 4.48 0 5.75"></path>
<path style="fill:none; fill-opacity:0%; fill-rule:evenodd; stroke:#aaaaaa; stroke-opacity:100%; stroke-width: 1.5pt; stroke-linejoin:round; stroke-linecap:round;" d="M51 59.5c0 0.62-0.42 1.53-0.96 2.32C43.29 71.9 29.12 84.84 17.62 90.25"></path>
<path style="fill:none; fill-opacity:0%; fill-rule:evenodd; stroke:#aaaaaa; stroke-opacity:100%; stroke-width: 1.5pt; stroke-linejoin:round; stroke-linecap:round;" d="M54.75 58.75C59.89 63.89 72.92 75.97 83 83.1c2.84 2.01 5.87 3.9 9.37 5.03"></path>

<path style="fill:none; fill-opacity:0%; fill-rule:evenodd; stroke:#000000; stroke-opacity:100%; stroke-width: 3pt; stroke-linejoin:round; stroke-linecap:round;" d="M25.75 18c3.61 3.85 7.48 10.58 8 12.5"></path>
<text x="5" y="20" font-size="20" fill="#999999">2</text><path style="fill:none; fill-opacity:0%; fill-rule:evenodd; stroke:#CC0000; stroke-opacity:100%; stroke-width: 3pt; stroke-linejoin:round; stroke-linecap:round;" d="M48.25 13c1.88 3.5 4.25 9.12 5 14.25" marker-end="url(#TriangleRed)" marker-start="url(#ArrowRed)" ></path>








</g><g transform="scale(1.3761467889908 1.3761467889908) translate(218, 0)">
<path style="fill:none; fill-rule:evenodd; stroke:#aaaaaa;  stroke-width:1pt; stroke-linecap:round;" d="m 109 0 L 0 0 L 0 109 L 109 109 L 109 0"></path><path style="fill:none; fill-opacity:0%; fill-rule:evenodd; stroke:#aaaaaa; stroke-opacity:100%; stroke-width: 1.5pt; stroke-linejoin:round; stroke-linecap:round;" d="M25.75 18c3.61 3.85 7.48 10.58 8 12.5"></path>
<path style="fill:none; fill-opacity:0%; fill-rule:evenodd; stroke:#aaaaaa; stroke-opacity:100%; stroke-width: 1.5pt; stroke-linejoin:round; stroke-linecap:round;" d="M48.25 13c1.88 3.5 4.25 9.12 5 14.25"></path>
<path style="fill:none; fill-opacity:0%; fill-rule:evenodd; stroke:#aaaaaa; stroke-opacity:100%; stroke-width: 1.5pt; stroke-linejoin:round; stroke-linecap:round;" d="M79 14c0.21 1.15-0.25 2.18-0.83 2.93c-1.58 2.05-5.98 7.66-7.8 9.69"></path>
<path style="fill:none; fill-opacity:0%; fill-rule:evenodd; stroke:#aaaaaa; stroke-opacity:100%; stroke-width: 1.5pt; stroke-linejoin:round; stroke-linecap:round;" d="M21.62 38.25c-0.11 3.8-2.7 13.9-3.62 16.22"></path>
<path style="fill:none; fill-opacity:0%; fill-rule:evenodd; stroke:#aaaaaa; stroke-opacity:100%; stroke-width: 1.5pt; stroke-linejoin:round; stroke-linecap:round;" d="M22.49 41.63c14.76-2 43.77-5.34 61.3-6.08c10.08-0.42 3.33 6.36-0.15 9.3"></path>
<path style="fill:none; fill-opacity:0%; fill-rule:evenodd; stroke:#aaaaaa; stroke-opacity:100%; stroke-width: 1.5pt; stroke-linejoin:round; stroke-linecap:round;" d="M24.5 60.25c2.54 0.85 5.54 0.46 8.14 0.2c9.71-0.97 27.27-3.66 40.86-4.32c2.43-0.12 5.26-0.01 8.01 0.37"></path>
<path style="fill:none; fill-opacity:0%; fill-rule:evenodd; stroke:#aaaaaa; stroke-opacity:100%; stroke-width: 1.5pt; stroke-linejoin:round; stroke-linecap:round;" d="M52.25 44c1 1 1.75 2.75 1.75 4.5c0 3.14 0 28.88 0 41.75c0 2.48 0 4.48 0 5.75"></path>
<path style="fill:none; fill-opacity:0%; fill-rule:evenodd; stroke:#aaaaaa; stroke-opacity:100%; stroke-width: 1.5pt; stroke-linejoin:round; stroke-linecap:round;" d="M51 59.5c0 0.62-0.42 1.53-0.96 2.32C43.29 71.9 29.12 84.84 17.62 90.25"></path>
<path style="fill:none; fill-opacity:0%; fill-rule:evenodd; stroke:#aaaaaa; stroke-opacity:100%; stroke-width: 1.5pt; stroke-linejoin:round; stroke-linecap:round;" d="M54.75 58.75C59.89 63.89 72.92 75.97 83 83.1c2.84 2.01 5.87 3.9 9.37 5.03"></path>

<path style="fill:none; fill-opacity:0%; fill-rule:evenodd; stroke:#000000; stroke-opacity:100%; stroke-width: 3pt; stroke-linejoin:round; stroke-linecap:round;" d="M25.75 18c3.61 3.85 7.48 10.58 8 12.5"></path>
<path style="fill:none; fill-opacity:0%; fill-rule:evenodd; stroke:#000000; stroke-opacity:100%; stroke-width: 3pt; stroke-linejoin:round; stroke-linecap:round;" d="M48.25 13c1.88 3.5 4.25 9.12 5 14.25"></path>
<text x="5" y="20" font-size="20" fill="#999999">3</text><path style="fill:none; fill-opacity:0%; fill-rule:evenodd; stroke:#CC0000; stroke-opacity:100%; stroke-width: 3pt; stroke-linejoin:round; stroke-linecap:round;" d="M79 14c0.21 1.15-0.25 2.18-0.83 2.93c-1.58 2.05-5.98 7.66-7.8 9.69" marker-end="url(#TriangleRed)" marker-start="url(#ArrowRed)" ></path>







</g><g transform="scale(1.3761467889908 1.3761467889908) translate(327, 0)">
<path style="fill:none; fill-rule:evenodd; stroke:#aaaaaa;  stroke-width:1pt; stroke-linecap:round;" d="m 109 0 L 0 0 L 0 109 L 109 109 L 109 0"></path><path style="fill:none; fill-opacity:0%; fill-rule:evenodd; stroke:#aaaaaa; stroke-opacity:100%; stroke-width: 1.5pt; stroke-linejoin:round; stroke-linecap:round;" d="M25.75 18c3.61 3.85 7.48 10.58 8 12.5"></path>
<path style="fill:none; fill-opacity:0%; fill-rule:evenodd; stroke:#aaaaaa; stroke-opacity:100%; stroke-width: 1.5pt; stroke-linejoin:round; stroke-linecap:round;" d="M48.25 13c1.88 3.5 4.25 9.12 5 14.25"></path>
<path style="fill:none; fill-opacity:0%; fill-rule:evenodd; stroke:#aaaaaa; stroke-opacity:100%; stroke-width: 1.5pt; stroke-linejoin:round; stroke-linecap:round;" d="M79 14c0.21 1.15-0.25 2.18-0.83 2.93c-1.58 2.05-5.98 7.66-7.8 9.69"></path>
<path style="fill:none; fill-opacity:0%; fill-rule:evenodd; stroke:#aaaaaa; stroke-opacity:100%; stroke-width: 1.5pt; stroke-linejoin:round; stroke-linecap:round;" d="M21.62 38.25c-0.11 3.8-2.7 13.9-3.62 16.22"></path>
<path style="fill:none; fill-opacity:0%; fill-rule:evenodd; stroke:#aaaaaa; stroke-opacity:100%; stroke-width: 1.5pt; stroke-linejoin:round; stroke-linecap:round;" d="M22.49 41.63c14.76-2 43.77-5.34 61.3-6.08c10.08-0.42 3.33 6.36-0.15 9.3"></path>
<path style="fill:none; fill-opacity:0%; fill-rule:evenodd; stroke:#aaaaaa; stroke-opacity:100%; stroke-width: 1.5pt; stroke-linejoin:round; stroke-linecap:round;" d="M24.5 60.25c2.54 0.85 5.54 0.46 8.14 0.2c9.71-0.97 27.27-3.66 40.86-4.32c2.43-0.12 5.26-0.01 8.01 0.37"></path>
<path style="fill:none; fill-opacity:0%; fill-rule:evenodd; stroke:#aaaaaa; stroke-opacity:100%; stroke-width: 1.5pt; stroke-linejoin:round; stroke-linecap:round;" d="M52.25 44c1 1 1.75 2.75 1.75 4.5c0 3.14 0 28.88 0 41.75c0 2.48 0 4.48 0 5.75"></path>
<path style="fill:none; fill-opacity:0%; fill-rule:evenodd; stroke:#aaaaaa; stroke-opacity:100%; stroke-width: 1.5pt; stroke-linejoin:round; stroke-linecap:round;" d="M51 59.5c0 0.62-0.42 1.53-0.96 2.32C43.29 71.9 29.12 84.84 17.62 90.25"></path>
<path style="fill:none; fill-opacity:0%; fill-rule:evenodd; stroke:#aaaaaa; stroke-opacity:100%; stroke-width: 1.5pt; stroke-linejoin:round; stroke-linecap:round;" d="M54.75 58.75C59.89 63.89 72.92 75.97 83 83.1c2.84 2.01 5.87 3.9 9.37 5.03"></path>

<path style="fill:none; fill-opacity:0%; fill-rule:evenodd; stroke:#000000; stroke-opacity:100%; stroke-width: 3pt; stroke-linejoin:round; stroke-linecap:round;" d="M25.75 18c3.61 3.85 7.48 10.58 8 12.5"></path>
<path style="fill:none; fill-opacity:0%; fill-rule:evenodd; stroke:#000000; stroke-opacity:100%; stroke-width: 3pt; stroke-linejoin:round; stroke-linecap:round;" d="M48.25 13c1.88 3.5 4.25 9.12 5 14.25"></path>
<path style="fill:none; fill-opacity:0%; fill-rule:evenodd; stroke:#000000; stroke-opacity:100%; stroke-width: 3pt; stroke-linejoin:round; stroke-linecap:round;" d="M79 14c0.21 1.15-0.25 2.18-0.83 2.93c-1.58 2.05-5.98 7.66-7.8 9.69"></path>
<text x="5" y="20" font-size="20" fill="#999999">4</text><path style="fill:none; fill-opacity:0%; fill-rule:evenodd; stroke:#CC0000; stroke-opacity:100%; stroke-width: 3pt; stroke-linejoin:round; stroke-linecap:round;" d="M21.62 38.25c-0.11 3.8-2.7 13.9-3.62 16.22" marker-end="url(#TriangleRed)" marker-start="url(#ArrowRed)" ></path>






</g><g transform="scale(1.3761467889908 1.3761467889908) translate(436, 0)">
<path style="fill:none; fill-rule:evenodd; stroke:#aaaaaa;  stroke-width:1pt; stroke-linecap:round;" d="m 109 0 L 0 0 L 0 109 L 109 109 L 109 0"></path><path style="fill:none; fill-opacity:0%; fill-rule:evenodd; stroke:#aaaaaa; stroke-opacity:100%; stroke-width: 1.5pt; stroke-linejoin:round; stroke-linecap:round;" d="M25.75 18c3.61 3.85 7.48 10.58 8 12.5"></path>
<path style="fill:none; fill-opacity:0%; fill-rule:evenodd; stroke:#aaaaaa; stroke-opacity:100%; stroke-width: 1.5pt; stroke-linejoin:round; stroke-linecap:round;" d="M48.25 13c1.88 3.5 4.25 9.12 5 14.25"></path>
<path style="fill:none; fill-opacity:0%; fill-rule:evenodd; stroke:#aaaaaa; stroke-opacity:100%; stroke-width: 1.5pt; stroke-linejoin:round; stroke-linecap:round;" d="M79 14c0.21 1.15-0.25 2.18-0.83 2.93c-1.58 2.05-5.98 7.66-7.8 9.69"></path>
<path style="fill:none; fill-opacity:0%; fill-rule:evenodd; stroke:#aaaaaa; stroke-opacity:100%; stroke-width: 1.5pt; stroke-linejoin:round; stroke-linecap:round;" d="M21.62 38.25c-0.11 3.8-2.7 13.9-3.62 16.22"></path>
<path style="fill:none; fill-opacity:0%; fill-rule:evenodd; stroke:#aaaaaa; stroke-opacity:100%; stroke-width: 1.5pt; stroke-linejoin:round; stroke-linecap:round;" d="M22.49 41.63c14.76-2 43.77-5.34 61.3-6.08c10.08-0.42 3.33 6.36-0.15 9.3"></path>
<path style="fill:none; fill-opacity:0%; fill-rule:evenodd; stroke:#aaaaaa; stroke-opacity:100%; stroke-width: 1.5pt; stroke-linejoin:round; stroke-linecap:round;" d="M24.5 60.25c2.54 0.85 5.54 0.46 8.14 0.2c9.71-0.97 27.27-3.66 40.86-4.32c2.43-0.12 5.26-0.01 8.01 0.37"></path>
<path style="fill:none; fill-opacity:0%; fill-rule:evenodd; stroke:#aaaaaa; stroke-opacity:100%; stroke-width: 1.5pt; stroke-linejoin:round; stroke-linecap:round;" d="M52.25 44c1 1 1.75 2.75 1.75 4.5c0 3.14 0 28.88 0 41.75c0 2.48 0 4.48 0 5.75"></path>
<path style="fill:none; fill-opacity:0%; fill-rule:evenodd; stroke:#aaaaaa; stroke-opacity:100%; stroke-width: 1.5pt; stroke-linejoin:round; stroke-linecap:round;" d="M51 59.5c0 0.62-0.42 1.53-0.96 2.32C43.29 71.9 29.12 84.84 17.62 90.25"></path>
<path style="fill:none; fill-opacity:0%; fill-rule:evenodd; stroke:#aaaaaa; stroke-opacity:100%; stroke-width: 1.5pt; stroke-linejoin:round; stroke-linecap:round;" d="M54.75 58.75C59.89 63.89 72.92 75.97 83 83.1c2.84 2.01 5.87 3.9 9.37 5.03"></path>

<path style="fill:none; fill-opacity:0%; fill-rule:evenodd; stroke:#000000; stroke-opacity:100%; stroke-width: 3pt; stroke-linejoin:round; stroke-linecap:round;" d="M25.75 18c3.61 3.85 7.48 10.58 8 12.5"></path>
<path style="fill:none; fill-opacity:0%; fill-rule:evenodd; stroke:#000000; stroke-opacity:100%; stroke-width: 3pt; stroke-linejoin:round; stroke-linecap:round;" d="M48.25 13c1.88 3.5 4.25 9.12 5 14.25"></path>
<path style="fill:none; fill-opacity:0%; fill-rule:evenodd; stroke:#000000; stroke-opacity:100%; stroke-width: 3pt; stroke-linejoin:round; stroke-linecap:round;" d="M79 14c0.21 1.15-0.25 2.18-0.83 2.93c-1.58 2.05-5.98 7.66-7.8 9.69"></path>
<path style="fill:none; fill-opacity:0%; fill-rule:evenodd; stroke:#000000; stroke-opacity:100%; stroke-width: 3pt; stroke-linejoin:round; stroke-linecap:round;" d="M21.62 38.25c-0.11 3.8-2.7 13.9-3.62 16.22"></path>
<text x="5" y="20" font-size="20" fill="#999999">5</text><path style="fill:none; fill-opacity:0%; fill-rule:evenodd; stroke:#CC0000; stroke-opacity:100%; stroke-width: 3pt; stroke-linejoin:round; stroke-linecap:round;" d="M22.49 41.63c14.76-2 43.77-5.34 61.3-6.08c10.08-0.42 3.33 6.36-0.15 9.3" marker-end="url(#TriangleRed)" marker-start="url(#ArrowRed)" ></path>





</g><g transform="scale(1.3761467889908 1.3761467889908) translate(0, 109)">
<path style="fill:none; fill-rule:evenodd; stroke:#aaaaaa;  stroke-width:1pt; stroke-linecap:round;" d="m 109 0 L 0 0 L 0 109 L 109 109 L 109 0"></path><path style="fill:none; fill-opacity:0%; fill-rule:evenodd; stroke:#aaaaaa; stroke-opacity:100%; stroke-width: 1.5pt; stroke-linejoin:round; stroke-linecap:round;" d="M25.75 18c3.61 3.85 7.48 10.58 8 12.5"></path>
<path style="fill:none; fill-opacity:0%; fill-rule:evenodd; stroke:#aaaaaa; stroke-opacity:100%; stroke-width: 1.5pt; stroke-linejoin:round; stroke-linecap:round;" d="M48.25 13c1.88 3.5 4.25 9.12 5 14.25"></path>
<path style="fill:none; fill-opacity:0%; fill-rule:evenodd; stroke:#aaaaaa; stroke-opacity:100%; stroke-width: 1.5pt; stroke-linejoin:round; stroke-linecap:round;" d="M79 14c0.21 1.15-0.25 2.18-0.83 2.93c-1.58 2.05-5.98 7.66-7.8 9.69"></path>
<path style="fill:none; fill-opacity:0%; fill-rule:evenodd; stroke:#aaaaaa; stroke-opacity:100%; stroke-width: 1.5pt; stroke-linejoin:round; stroke-linecap:round;" d="M21.62 38.25c-0.11 3.8-2.7 13.9-3.62 16.22"></path>
<path style="fill:none; fill-opacity:0%; fill-rule:evenodd; stroke:#aaaaaa; stroke-opacity:100%; stroke-width: 1.5pt; stroke-linejoin:round; stroke-linecap:round;" d="M22.49 41.63c14.76-2 43.77-5.34 61.3-6.08c10.08-0.42 3.33 6.36-0.15 9.3"></path>
<path style="fill:none; fill-opacity:0%; fill-rule:evenodd; stroke:#aaaaaa; stroke-opacity:100%; stroke-width: 1.5pt; stroke-linejoin:round; stroke-linecap:round;" d="M24.5 60.25c2.54 0.85 5.54 0.46 8.14 0.2c9.71-0.97 27.27-3.66 40.86-4.32c2.43-0.12 5.26-0.01 8.01 0.37"></path>
<path style="fill:none; fill-opacity:0%; fill-rule:evenodd; stroke:#aaaaaa; stroke-opacity:100%; stroke-width: 1.5pt; stroke-linejoin:round; stroke-linecap:round;" d="M52.25 44c1 1 1.75 2.75 1.75 4.5c0 3.14 0 28.88 0 41.75c0 2.48 0 4.48 0 5.75"></path>
<path style="fill:none; fill-opacity:0%; fill-rule:evenodd; stroke:#aaaaaa; stroke-opacity:100%; stroke-width: 1.5pt; stroke-linejoin:round; stroke-linecap:round;" d="M51 59.5c0 0.62-0.42 1.53-0.96 2.32C43.29 71.9 29.12 84.84 17.62 90.25"></path>
<path style="fill:none; fill-opacity:0%; fill-rule:evenodd; stroke:#aaaaaa; stroke-opacity:100%; stroke-width: 1.5pt; stroke-linejoin:round; stroke-linecap:round;" d="M54.75 58.75C59.89 63.89 72.92 75.97 83 83.1c2.84 2.01 5.87 3.9 9.37 5.03"></path>

<path style="fill:none; fill-opacity:0%; fill-rule:evenodd; stroke:#000000; stroke-opacity:100%; stroke-width: 3pt; stroke-linejoin:round; stroke-linecap:round;" d="M25.75 18c3.61 3.85 7.48 10.58 8 12.5"></path>
<path style="fill:none; fill-opacity:0%; fill-rule:evenodd; stroke:#000000; stroke-opacity:100%; stroke-width: 3pt; stroke-linejoin:round; stroke-linecap:round;" d="M48.25 13c1.88 3.5 4.25 9.12 5 14.25"></path>
<path style="fill:none; fill-opacity:0%; fill-rule:evenodd; stroke:#000000; stroke-opacity:100%; stroke-width: 3pt; stroke-linejoin:round; stroke-linecap:round;" d="M79 14c0.21 1.15-0.25 2.18-0.83 2.93c-1.58 2.05-5.98 7.66-7.8 9.69"></path>
<path style="fill:none; fill-opacity:0%; fill-rule:evenodd; stroke:#000000; stroke-opacity:100%; stroke-width: 3pt; stroke-linejoin:round; stroke-linecap:round;" d="M21.62 38.25c-0.11 3.8-2.7 13.9-3.62 16.22"></path>
<path style="fill:none; fill-opacity:0%; fill-rule:evenodd; stroke:#000000; stroke-opacity:100%; stroke-width: 3pt; stroke-linejoin:round; stroke-linecap:round;" d="M22.49 41.63c14.76-2 43.77-5.34 61.3-6.08c10.08-0.42 3.33 6.36-0.15 9.3"></path>
<text x="5" y="20" font-size="20" fill="#999999">6</text><path style="fill:none; fill-opacity:0%; fill-rule:evenodd; stroke:#CC0000; stroke-opacity:100%; stroke-width: 3pt; stroke-linejoin:round; stroke-linecap:round;" d="M24.5 60.25c2.54 0.85 5.54 0.46 8.14 0.2c9.71-0.97 27.27-3.66 40.86-4.32c2.43-0.12 5.26-0.01 8.01 0.37" marker-end="url(#TriangleRed)" marker-start="url(#ArrowRed)" ></path>




</g><g transform="scale(1.3761467889908 1.3761467889908) translate(109, 109)">
<path style="fill:none; fill-rule:evenodd; stroke:#aaaaaa;  stroke-width:1pt; stroke-linecap:round;" d="m 109 0 L 0 0 L 0 109 L 109 109 L 109 0"></path><path style="fill:none; fill-opacity:0%; fill-rule:evenodd; stroke:#aaaaaa; stroke-opacity:100%; stroke-width: 1.5pt; stroke-linejoin:round; stroke-linecap:round;" d="M25.75 18c3.61 3.85 7.48 10.58 8 12.5"></path>
<path style="fill:none; fill-opacity:0%; fill-rule:evenodd; stroke:#aaaaaa; stroke-opacity:100%; stroke-width: 1.5pt; stroke-linejoin:round; stroke-linecap:round;" d="M48.25 13c1.88 3.5 4.25 9.12 5 14.25"></path>
<path style="fill:none; fill-opacity:0%; fill-rule:evenodd; stroke:#aaaaaa; stroke-opacity:100%; stroke-width: 1.5pt; stroke-linejoin:round; stroke-linecap:round;" d="M79 14c0.21 1.15-0.25 2.18-0.83 2.93c-1.58 2.05-5.98 7.66-7.8 9.69"></path>
<path style="fill:none; fill-opacity:0%; fill-rule:evenodd; stroke:#aaaaaa; stroke-opacity:100%; stroke-width: 1.5pt; stroke-linejoin:round; stroke-linecap:round;" d="M21.62 38.25c-0.11 3.8-2.7 13.9-3.62 16.22"></path>
<path style="fill:none; fill-opacity:0%; fill-rule:evenodd; stroke:#aaaaaa; stroke-opacity:100%; stroke-width: 1.5pt; stroke-linejoin:round; stroke-linecap:round;" d="M22.49 41.63c14.76-2 43.77-5.34 61.3-6.08c10.08-0.42 3.33 6.36-0.15 9.3"></path>
<path style="fill:none; fill-opacity:0%; fill-rule:evenodd; stroke:#aaaaaa; stroke-opacity:100%; stroke-width: 1.5pt; stroke-linejoin:round; stroke-linecap:round;" d="M24.5 60.25c2.54 0.85 5.54 0.46 8.14 0.2c9.71-0.97 27.27-3.66 40.86-4.32c2.43-0.12 5.26-0.01 8.01 0.37"></path>
<path style="fill:none; fill-opacity:0%; fill-rule:evenodd; stroke:#aaaaaa; stroke-opacity:100%; stroke-width: 1.5pt; stroke-linejoin:round; stroke-linecap:round;" d="M52.25 44c1 1 1.75 2.75 1.75 4.5c0 3.14 0 28.88 0 41.75c0 2.48 0 4.48 0 5.75"></path>
<path style="fill:none; fill-opacity:0%; fill-rule:evenodd; stroke:#aaaaaa; stroke-opacity:100%; stroke-width: 1.5pt; stroke-linejoin:round; stroke-linecap:round;" d="M51 59.5c0 0.62-0.42 1.53-0.96 2.32C43.29 71.9 29.12 84.84 17.62 90.25"></path>
<path style="fill:none; fill-opacity:0%; fill-rule:evenodd; stroke:#aaaaaa; stroke-opacity:100%; stroke-width: 1.5pt; stroke-linejoin:round; stroke-linecap:round;" d="M54.75 58.75C59.89 63.89 72.92 75.97 83 83.1c2.84 2.01 5.87 3.9 9.37 5.03"></path>

<path style="fill:none; fill-opacity:0%; fill-rule:evenodd; stroke:#000000; stroke-opacity:100%; stroke-width: 3pt; stroke-linejoin:round; stroke-linecap:round;" d="M25.75 18c3.61 3.85 7.48 10.58 8 12.5"></path>
<path style="fill:none; fill-opacity:0%; fill-rule:evenodd; stroke:#000000; stroke-opacity:100%; stroke-width: 3pt; stroke-linejoin:round; stroke-linecap:round;" d="M48.25 13c1.88 3.5 4.25 9.12 5 14.25"></path>
<path style="fill:none; fill-opacity:0%; fill-rule:evenodd; stroke:#000000; stroke-opacity:100%; stroke-width: 3pt; stroke-linejoin:round; stroke-linecap:round;" d="M79 14c0.21 1.15-0.25 2.18-0.83 2.93c-1.58 2.05-5.98 7.66-7.8 9.69"></path>
<path style="fill:none; fill-opacity:0%; fill-rule:evenodd; stroke:#000000; stroke-opacity:100%; stroke-width: 3pt; stroke-linejoin:round; stroke-linecap:round;" d="M21.62 38.25c-0.11 3.8-2.7 13.9-3.62 16.22"></path>
<path style="fill:none; fill-opacity:0%; fill-rule:evenodd; stroke:#000000; stroke-opacity:100%; stroke-width: 3pt; stroke-linejoin:round; stroke-linecap:round;" d="M22.49 41.63c14.76-2 43.77-5.34 61.3-6.08c10.08-0.42 3.33 6.36-0.15 9.3"></path>
<path style="fill:none; fill-opacity:0%; fill-rule:evenodd; stroke:#000000; stroke-opacity:100%; stroke-width: 3pt; stroke-linejoin:round; stroke-linecap:round;" d="M24.5 60.25c2.54 0.85 5.54 0.46 8.14 0.2c9.71-0.97 27.27-3.66 40.86-4.32c2.43-0.12 5.26-0.01 8.01 0.37"></path>
<text x="5" y="20" font-size="20" fill="#999999">7</text><path style="fill:none; fill-opacity:0%; fill-rule:evenodd; stroke:#CC0000; stroke-opacity:100%; stroke-width: 3pt; stroke-linejoin:round; stroke-linecap:round;" d="M52.25 44c1 1 1.75 2.75 1.75 4.5c0 3.14 0 28.88 0 41.75c0 2.48 0 4.48 0 5.75" marker-end="url(#TriangleRed)" marker-start="url(#ArrowRed)" ></path>



</g><g transform="scale(1.3761467889908 1.3761467889908) translate(218, 109)">
<path style="fill:none; fill-rule:evenodd; stroke:#aaaaaa;  stroke-width:1pt; stroke-linecap:round;" d="m 109 0 L 0 0 L 0 109 L 109 109 L 109 0"></path><path style="fill:none; fill-opacity:0%; fill-rule:evenodd; stroke:#aaaaaa; stroke-opacity:100%; stroke-width: 1.5pt; stroke-linejoin:round; stroke-linecap:round;" d="M25.75 18c3.61 3.85 7.48 10.58 8 12.5"></path>
<path style="fill:none; fill-opacity:0%; fill-rule:evenodd; stroke:#aaaaaa; stroke-opacity:100%; stroke-width: 1.5pt; stroke-linejoin:round; stroke-linecap:round;" d="M48.25 13c1.88 3.5 4.25 9.12 5 14.25"></path>
<path style="fill:none; fill-opacity:0%; fill-rule:evenodd; stroke:#aaaaaa; stroke-opacity:100%; stroke-width: 1.5pt; stroke-linejoin:round; stroke-linecap:round;" d="M79 14c0.21 1.15-0.25 2.18-0.83 2.93c-1.58 2.05-5.98 7.66-7.8 9.69"></path>
<path style="fill:none; fill-opacity:0%; fill-rule:evenodd; stroke:#aaaaaa; stroke-opacity:100%; stroke-width: 1.5pt; stroke-linejoin:round; stroke-linecap:round;" d="M21.62 38.25c-0.11 3.8-2.7 13.9-3.62 16.22"></path>
<path style="fill:none; fill-opacity:0%; fill-rule:evenodd; stroke:#aaaaaa; stroke-opacity:100%; stroke-width: 1.5pt; stroke-linejoin:round; stroke-linecap:round;" d="M22.49 41.63c14.76-2 43.77-5.34 61.3-6.08c10.08-0.42 3.33 6.36-0.15 9.3"></path>
<path style="fill:none; fill-opacity:0%; fill-rule:evenodd; stroke:#aaaaaa; stroke-opacity:100%; stroke-width: 1.5pt; stroke-linejoin:round; stroke-linecap:round;" d="M24.5 60.25c2.54 0.85 5.54 0.46 8.14 0.2c9.71-0.97 27.27-3.66 40.86-4.32c2.43-0.12 5.26-0.01 8.01 0.37"></path>
<path style="fill:none; fill-opacity:0%; fill-rule:evenodd; stroke:#aaaaaa; stroke-opacity:100%; stroke-width: 1.5pt; stroke-linejoin:round; stroke-linecap:round;" d="M52.25 44c1 1 1.75 2.75 1.75 4.5c0 3.14 0 28.88 0 41.75c0 2.48 0 4.48 0 5.75"></path>
<path style="fill:none; fill-opacity:0%; fill-rule:evenodd; stroke:#aaaaaa; stroke-opacity:100%; stroke-width: 1.5pt; stroke-linejoin:round; stroke-linecap:round;" d="M51 59.5c0 0.62-0.42 1.53-0.96 2.32C43.29 71.9 29.12 84.84 17.62 90.25"></path>
<path style="fill:none; fill-opacity:0%; fill-rule:evenodd; stroke:#aaaaaa; stroke-opacity:100%; stroke-width: 1.5pt; stroke-linejoin:round; stroke-linecap:round;" d="M54.75 58.75C59.89 63.89 72.92 75.97 83 83.1c2.84 2.01 5.87 3.9 9.37 5.03"></path>

<path style="fill:none; fill-opacity:0%; fill-rule:evenodd; stroke:#000000; stroke-opacity:100%; stroke-width: 3pt; stroke-linejoin:round; stroke-linecap:round;" d="M25.75 18c3.61 3.85 7.48 10.58 8 12.5"></path>
<path style="fill:none; fill-opacity:0%; fill-rule:evenodd; stroke:#000000; stroke-opacity:100%; stroke-width: 3pt; stroke-linejoin:round; stroke-linecap:round;" d="M48.25 13c1.88 3.5 4.25 9.12 5 14.25"></path>
<path style="fill:none; fill-opacity:0%; fill-rule:evenodd; stroke:#000000; stroke-opacity:100%; stroke-width: 3pt; stroke-linejoin:round; stroke-linecap:round;" d="M79 14c0.21 1.15-0.25 2.18-0.83 2.93c-1.58 2.05-5.98 7.66-7.8 9.69"></path>
<path style="fill:none; fill-opacity:0%; fill-rule:evenodd; stroke:#000000; stroke-opacity:100%; stroke-width: 3pt; stroke-linejoin:round; stroke-linecap:round;" d="M21.62 38.25c-0.11 3.8-2.7 13.9-3.62 16.22"></path>
<path style="fill:none; fill-opacity:0%; fill-rule:evenodd; stroke:#000000; stroke-opacity:100%; stroke-width: 3pt; stroke-linejoin:round; stroke-linecap:round;" d="M22.49 41.63c14.76-2 43.77-5.34 61.3-6.08c10.08-0.42 3.33 6.36-0.15 9.3"></path>
<path style="fill:none; fill-opacity:0%; fill-rule:evenodd; stroke:#000000; stroke-opacity:100%; stroke-width: 3pt; stroke-linejoin:round; stroke-linecap:round;" d="M24.5 60.25c2.54 0.85 5.54 0.46 8.14 0.2c9.71-0.97 27.27-3.66 40.86-4.32c2.43-0.12 5.26-0.01 8.01 0.37"></path>
<path style="fill:none; fill-opacity:0%; fill-rule:evenodd; stroke:#000000; stroke-opacity:100%; stroke-width: 3pt; stroke-linejoin:round; stroke-linecap:round;" d="M52.25 44c1 1 1.75 2.75 1.75 4.5c0 3.14 0 28.88 0 41.75c0 2.48 0 4.48 0 5.75"></path>
<text x="5" y="20" font-size="20" fill="#999999">8</text><path style="fill:none; fill-opacity:0%; fill-rule:evenodd; stroke:#CC0000; stroke-opacity:100%; stroke-width: 3pt; stroke-linejoin:round; stroke-linecap:round;" d="M51 59.5c0 0.62-0.42 1.53-0.96 2.32C43.29 71.9 29.12 84.84 17.62 90.25" marker-end="url(#TriangleRed)" marker-start="url(#ArrowRed)" ></path>


</g><g transform="scale(1.3761467889908 1.3761467889908) translate(327, 109)">
<path style="fill:none; fill-rule:evenodd; stroke:#aaaaaa;  stroke-width:1pt; stroke-linecap:round;" d="m 109 0 L 0 0 L 0 109 L 109 109 L 109 0"></path><path style="fill:none; fill-opacity:0%; fill-rule:evenodd; stroke:#aaaaaa; stroke-opacity:100%; stroke-width: 1.5pt; stroke-linejoin:round; stroke-linecap:round;" d="M25.75 18c3.61 3.85 7.48 10.58 8 12.5"></path>
<path style="fill:none; fill-opacity:0%; fill-rule:evenodd; stroke:#aaaaaa; stroke-opacity:100%; stroke-width: 1.5pt; stroke-linejoin:round; stroke-linecap:round;" d="M48.25 13c1.88 3.5 4.25 9.12 5 14.25"></path>
<path style="fill:none; fill-opacity:0%; fill-rule:evenodd; stroke:#aaaaaa; stroke-opacity:100%; stroke-width: 1.5pt; stroke-linejoin:round; stroke-linecap:round;" d="M79 14c0.21 1.15-0.25 2.18-0.83 2.93c-1.58 2.05-5.98 7.66-7.8 9.69"></path>
<path style="fill:none; fill-opacity:0%; fill-rule:evenodd; stroke:#aaaaaa; stroke-opacity:100%; stroke-width: 1.5pt; stroke-linejoin:round; stroke-linecap:round;" d="M21.62 38.25c-0.11 3.8-2.7 13.9-3.62 16.22"></path>
<path style="fill:none; fill-opacity:0%; fill-rule:evenodd; stroke:#aaaaaa; stroke-opacity:100%; stroke-width: 1.5pt; stroke-linejoin:round; stroke-linecap:round;" d="M22.49 41.63c14.76-2 43.77-5.34 61.3-6.08c10.08-0.42 3.33 6.36-0.15 9.3"></path>
<path style="fill:none; fill-opacity:0%; fill-rule:evenodd; stroke:#aaaaaa; stroke-opacity:100%; stroke-width: 1.5pt; stroke-linejoin:round; stroke-linecap:round;" d="M24.5 60.25c2.54 0.85 5.54 0.46 8.14 0.2c9.71-0.97 27.27-3.66 40.86-4.32c2.43-0.12 5.26-0.01 8.01 0.37"></path>
<path style="fill:none; fill-opacity:0%; fill-rule:evenodd; stroke:#aaaaaa; stroke-opacity:100%; stroke-width: 1.5pt; stroke-linejoin:round; stroke-linecap:round;" d="M52.25 44c1 1 1.75 2.75 1.75 4.5c0 3.14 0 28.88 0 41.75c0 2.48 0 4.48 0 5.75"></path>
<path style="fill:none; fill-opacity:0%; fill-rule:evenodd; stroke:#aaaaaa; stroke-opacity:100%; stroke-width: 1.5pt; stroke-linejoin:round; stroke-linecap:round;" d="M51 59.5c0 0.62-0.42 1.53-0.96 2.32C43.29 71.9 29.12 84.84 17.62 90.25"></path>
<path style="fill:none; fill-opacity:0%; fill-rule:evenodd; stroke:#aaaaaa; stroke-opacity:100%; stroke-width: 1.5pt; stroke-linejoin:round; stroke-linecap:round;" d="M54.75 58.75C59.89 63.89 72.92 75.97 83 83.1c2.84 2.01 5.87 3.9 9.37 5.03"></path>

<path style="fill:none; fill-opacity:0%; fill-rule:evenodd; stroke:#000000; stroke-opacity:100%; stroke-width: 3pt; stroke-linejoin:round; stroke-linecap:round;" d="M25.75 18c3.61 3.85 7.48 10.58 8 12.5"></path>
<path style="fill:none; fill-opacity:0%; fill-rule:evenodd; stroke:#000000; stroke-opacity:100%; stroke-width: 3pt; stroke-linejoin:round; stroke-linecap:round;" d="M48.25 13c1.88 3.5 4.25 9.12 5 14.25"></path>
<path style="fill:none; fill-opacity:0%; fill-rule:evenodd; stroke:#000000; stroke-opacity:100%; stroke-width: 3pt; stroke-linejoin:round; stroke-linecap:round;" d="M79 14c0.21 1.15-0.25 2.18-0.83 2.93c-1.58 2.05-5.98 7.66-7.8 9.69"></path>
<path style="fill:none; fill-opacity:0%; fill-rule:evenodd; stroke:#000000; stroke-opacity:100%; stroke-width: 3pt; stroke-linejoin:round; stroke-linecap:round;" d="M21.62 38.25c-0.11 3.8-2.7 13.9-3.62 16.22"></path>
<path style="fill:none; fill-opacity:0%; fill-rule:evenodd; stroke:#000000; stroke-opacity:100%; stroke-width: 3pt; stroke-linejoin:round; stroke-linecap:round;" d="M22.49 41.63c14.76-2 43.77-5.34 61.3-6.08c10.08-0.42 3.33 6.36-0.15 9.3"></path>
<path style="fill:none; fill-opacity:0%; fill-rule:evenodd; stroke:#000000; stroke-opacity:100%; stroke-width: 3pt; stroke-linejoin:round; stroke-linecap:round;" d="M24.5 60.25c2.54 0.85 5.54 0.46 8.14 0.2c9.71-0.97 27.27-3.66 40.86-4.32c2.43-0.12 5.26-0.01 8.01 0.37"></path>
<path style="fill:none; fill-opacity:0%; fill-rule:evenodd; stroke:#000000; stroke-opacity:100%; stroke-width: 3pt; stroke-linejoin:round; stroke-linecap:round;" d="M52.25 44c1 1 1.75 2.75 1.75 4.5c0 3.14 0 28.88 0 41.75c0 2.48 0 4.48 0 5.75"></path>
<path style="fill:none; fill-opacity:0%; fill-rule:evenodd; stroke:#000000; stroke-opacity:100%; stroke-width: 3pt; stroke-linejoin:round; stroke-linecap:round;" d="M51 59.5c0 0.62-0.42 1.53-0.96 2.32C43.29 71.9 29.12 84.84 17.62 90.25"></path>
<text x="5" y="20" font-size="20" fill="#999999">9</text><path style="fill:none; fill-opacity:0%; fill-rule:evenodd; stroke:#CC0000; stroke-opacity:100%; stroke-width: 3pt; stroke-linejoin:round; stroke-linecap:round;" d="M54.75 58.75C59.89 63.89 72.92 75.97 83 83.1c2.84 2.01 5.87 3.9 9.37 5.03" marker-end="url(#TriangleRed)" marker-start="url(#ArrowRed)" ></path>

</g>

</svg>  
          
