<?xml version="1.0" standalone="no"?>
<!DOCTYPE svg PUBLIC "-//W3C//DTD SVG 1.1//EN"   "http://www.w3.org/Graphics/SVG/1.1/DTD/svg11.dtd">
<svg width="751" height="301"  version="1.1" xmlns="http://www.w3.org/2000/svg">
  <defs>
    <marker id="Triangle" viewBox="0 0 10 10" refX="0" refY="5" markerUnits="strokeWidth" markerWidth="3" style="stroke-opacity:0%;fill:#aaaaaa;" markerHeight="2" orient="auto">
      <path d="M 0 0 L 10 5 L 0 10 z" />
    </marker>
    
    <marker id="Arrow" viewBox="0 0 10 10" refX="5" refY="5" markerUnits="strokeWidth" markerWidth="1.8" style="stroke-opacity:0%;fill:#770000;" markerHeight="2" orient="auto">
      <path d="M 0 4 L 6 4 L 4 1 L 10 5 L 4 9 L 6 6 L 0 6 z" />
        <circle cx="5" cy="5" r="5" />
      </marker>
    
    <marker id="TriangleRed" viewBox="0 0 10 10" refX="0" refY="5" markerUnits="strokeWidth" markerWidth="3" style="stroke-opacity:0%;fill:#CC0000;" markerHeight="2" orient="auto">
      <path d="M 0 0 L 10 5 L 0 10 z" />
    </marker>
    
    <marker id="ArrowRed" viewBox="0 0 10 10" refX="5" refY="5" markerUnits="strokeWidth" markerWidth="1.8" style="stroke-opacity:0%;fill:#CC0000;" markerHeight="2" orient="auto">
      <path d="M 0 4 L 6 4 L 4 1 L 10 5 L 4 9 L 6 6 L 0 6 z" />
        <circle cx="5" cy="5" r="5" />
      </marker>
    
  </defs>
  
  <path style="fill:#ffffff; fill-opacity:100%; fill-rule:evenodd; stroke-width:0;" d="M 0 0 L 751 0 L 751 301 L 0 301 L 0 0" />

  <g transform="scale(1.3761467889908 1.3761467889908) translate(0, 0)">
<path style="fill:none; fill-rule:evenodd; stroke:#aaaaaa;  stroke-width:1pt; stroke-linecap:round;" d="m 109 0 L 0 0 L 0 109 L 109 109 L 109 0"></path><path style="fill:none; fill-opacity:0%; fill-rule:evenodd; stroke:#aaaaaa; stroke-opacity:100%; stroke-width: 1.5pt; stroke-linejoin:round; stroke-linecap:round;" d="M23.38 27.38c1.83 0.49 3.91 0.28 5.77 0.12c6.7-0.57 15.46-2.16 21.3-2.68c1.62-0.14 2.62-0.12 3.43 0.01"></path>
<path style="fill:none; fill-opacity:0%; fill-rule:evenodd; stroke:#aaaaaa; stroke-opacity:100%; stroke-width: 1.5pt; stroke-linejoin:round; stroke-linecap:round;" d="M39.82 12.37c0.91 0.91 1.47 2.76 1.47 4.26c0 3.75-0.04 15.87-0.04 23.25"></path>
<path style="fill:none; fill-opacity:0%; fill-rule:evenodd; stroke:#aaaaaa; stroke-opacity:100%; stroke-width: 1.5pt; stroke-linejoin:round; stroke-linecap:round;" d="M15.88 42.73c3.35 1.2 8.18 0.73 11.62 0.24C48.21 40 69.7 37.18 85 36.24c3.11-0.19 6.07-0.33 9.13 0.33"></path>
<path style="fill:none; fill-opacity:0%; fill-rule:evenodd; stroke:#aaaaaa; stroke-opacity:100%; stroke-width: 1.5pt; stroke-linejoin:round; stroke-linecap:round;" d="M19.53 61.71c0.41 0.24 2.84 0.37 3.93 0.31c6.04-0.28 19.53-3.21 27.06-4.41c1.09-0.17 2.56-0.24 3.24 0"></path>
<path style="fill:none; fill-opacity:0%; fill-rule:evenodd; stroke:#aaaaaa; stroke-opacity:100%; stroke-width: 1.5pt; stroke-linejoin:round; stroke-linecap:round;" d="M38.77 48.5c1.12 1.12 1.36 2.62 1.36 4.17c0 4.16 0 27.29 0 39.08c0 3.31 0 5.71 0 6.5"></path>
<path style="fill:none; fill-opacity:0%; fill-rule:evenodd; stroke:#aaaaaa; stroke-opacity:100%; stroke-width: 1.5pt; stroke-linejoin:round; stroke-linecap:round;" d="M39.33 61.53c0 1.47-1.26 3.93-2.19 5.25c-6.33 8.9-11.09 13.59-21.87 22.56"></path>
<path style="fill:none; fill-opacity:0%; fill-rule:evenodd; stroke:#aaaaaa; stroke-opacity:100%; stroke-width: 1.5pt; stroke-linejoin:round; stroke-linecap:round;" d="M43.62 68c3.03 1.9 8 8.07 10.56 11.75"></path>
<path style="fill:none; fill-opacity:0%; fill-rule:evenodd; stroke:#aaaaaa; stroke-opacity:100%; stroke-width: 1.5pt; stroke-linejoin:round; stroke-linecap:round;" d="M60.25 11.75c1.43 1.81 1.89 3.57 2.28 7.47c3.09 31.03 9.09 57.03 27.81 74.72c4.97 4.7 4.83 0.78 4.11-7.26"></path>
<path style="fill:none; fill-opacity:0%; fill-rule:evenodd; stroke:#aaaaaa; stroke-opacity:100%; stroke-width: 1.5pt; stroke-linejoin:round; stroke-linecap:round;" d="M82.98 47.89c0.08 1 0.01 2.34-0.4 3.75c-2.63 9.07-11.26 27.99-26.02 39.32"></path>
<path style="fill:none; fill-opacity:0%; fill-rule:evenodd; stroke:#aaaaaa; stroke-opacity:100%; stroke-width: 1.5pt; stroke-linejoin:round; stroke-linecap:round;" d="M74.5 13.25c3.42 2.25 8.9 7.39 10.5 11.25"></path>

<text x="5" y="20" font-size="20" fill="#999999">1</text><path style="fill:none; fill-opacity:0%; fill-rule:evenodd; stroke:#CC0000; stroke-opacity:100%; stroke-width: 3pt; stroke-linejoin:round; stroke-linecap:round;" d="M23.38 27.38c1.83 0.49 3.91 0.28 5.77 0.12c6.7-0.57 15.46-2.16 21.3-2.68c1.62-0.14 2.62-0.12 3.43 0.01"  ></path>










</g><g transform="scale(1.3761467889908 1.3761467889908) translate(109, 0)">
<path style="fill:none; fill-rule:evenodd; stroke:#aaaaaa;  stroke-width:1pt; stroke-linecap:round;" d="m 109 0 L 0 0 L 0 109 L 109 109 L 109 0"></path><path style="fill:none; fill-opacity:0%; fill-rule:evenodd; stroke:#aaaaaa; stroke-opacity:100%; stroke-width: 1.5pt; stroke-linejoin:round; stroke-linecap:round;" d="M23.38 27.38c1.83 0.49 3.91 0.28 5.77 0.12c6.7-0.57 15.46-2.16 21.3-2.68c1.62-0.14 2.62-0.12 3.43 0.01"></path>
<path style="fill:none; fill-opacity:0%; fill-rule:evenodd; stroke:#aaaaaa; stroke-opacity:100%; stroke-width: 1.5pt; stroke-linejoin:round; stroke-linecap:round;" d="M39.82 12.37c0.91 0.91 1.47 2.76 1.47 4.26c0 3.75-0.04 15.87-0.04 23.25"></path>
<path style="fill:none; fill-opacity:0%; fill-rule:evenodd; stroke:#aaaaaa; stroke-opacity:100%; stroke-width: 1.5pt; stroke-linejoin:round; stroke-linecap:round;" d="M15.88 42.73c3.35 1.2 8.18 0.73 11.62 0.24C48.21 40 69.7 37.18 85 36.24c3.11-0.19 6.07-0.33 9.13 0.33"></path>
<path style="fill:none; fill-opacity:0%; fill-rule:evenodd; stroke:#aaaaaa; stroke-opacity:100%; stroke-width: 1.5pt; stroke-linejoin:round; stroke-linecap:round;" d="M19.53 61.71c0.41 0.24 2.84 0.37 3.93 0.31c6.04-0.28 19.53-3.21 27.06-4.41c1.09-0.17 2.56-0.24 3.24 0"></path>
<path style="fill:none; fill-opacity:0%; fill-rule:evenodd; stroke:#aaaaaa; stroke-opacity:100%; stroke-width: 1.5pt; stroke-linejoin:round; stroke-linecap:round;" d="M38.77 48.5c1.12 1.12 1.36 2.62 1.36 4.17c0 4.16 0 27.29 0 39.08c0 3.31 0 5.71 0 6.5"></path>
<path style="fill:none; fill-opacity:0%; fill-rule:evenodd; stroke:#aaaaaa; stroke-opacity:100%; stroke-width: 1.5pt; stroke-linejoin:round; stroke-linecap:round;" d="M39.33 61.53c0 1.47-1.26 3.93-2.19 5.25c-6.33 8.9-11.09 13.59-21.87 22.56"></path>
<path style="fill:none; fill-opacity:0%; fill-rule:evenodd; stroke:#aaaaaa; stroke-opacity:100%; stroke-width: 1.5pt; stroke-linejoin:round; stroke-linecap:round;" d="M43.62 68c3.03 1.9 8 8.07 10.56 11.75"></path>
<path style="fill:none; fill-opacity:0%; fill-rule:evenodd; stroke:#aaaaaa; stroke-opacity:100%; stroke-width: 1.5pt; stroke-linejoin:round; stroke-linecap:round;" d="M60.25 11.75c1.43 1.81 1.89 3.57 2.28 7.47c3.09 31.03 9.09 57.03 27.81 74.72c4.97 4.7 4.83 0.78 4.11-7.26"></path>
<path style="fill:none; fill-opacity:0%; fill-rule:evenodd; stroke:#aaaaaa; stroke-opacity:100%; stroke-width: 1.5pt; stroke-linejoin:round; stroke-linecap:round;" d="M82.98 47.89c0.08 1 0.01 2.34-0.4 3.75c-2.63 9.07-11.26 27.99-26.02 39.32"></path>
<path style="fill:none; fill-opacity:0%; fill-rule:evenodd; stroke:#aaaaaa; stroke-opacity:100%; stroke-width: 1.5pt; stroke-linejoin:round; stroke-linecap:round;" d="M74.5 13.25c3.42 2.25 8.9 7.39 10.5 11.25"></path>

<path style="fill:none; fill-opacity:0%; fill-rule:evenodd; stroke:#000000; stroke-opacity:100%; stroke-width: 3pt; stroke-linejoin:round; stroke-linecap:round;" d="M23.38 27.38c1.83 0.49 3.91 0.28 5.77 0.12c6.7-0.57 15.46-2.16 21.3-2.68c1.62-0.14 2.62-0.12 3.43 0.01"></path>
<text x="5" y="20" font-size="20" fill="#999999">2</text><path style="fill:none; fill-opacity:0%; fill-rule:evenodd; stroke:#CC0000; stroke-opacity:100%; stroke-width: 3pt; stroke-linejoin:round; stroke-linecap:round;" d="M39.82 12.37c0.91 0.91 1.47 2.76 1.47 4.26c0 3.75-0.04 15.87-0.04 23.25"  ></path>









</g><g transform="scale(1.3761467889908 1.3761467889908) translate(218, 0)">
<path style="fill:none; fill-rule:evenodd; stroke:#aaaaaa;  stroke-width:1pt; stroke-linecap:round;" d="m 109 0 L 0 0 L 0 109 L 109 109 L 109 0"></path><path style="fill:none; fill-opacity:0%; fill-rule:evenodd; stroke:#aaaaaa; stroke-opacity:100%; stroke-width: 1.5pt; stroke-linejoin:round; stroke-linecap:round;" d="M23.38 27.38c1.83 0.49 3.91 0.28 5.77 0.12c6.7-0.57 15.46-2.16 21.3-2.68c1.62-0.14 2.62-0.12 3.43 0.01"></path>
<path style="fill:none; fill-opacity:0%; fill-rule:evenodd; stroke:#aaaaaa; stroke-opacity:100%; stroke-width: 1.5pt; stroke-linejoin:round; stroke-linecap:round;" d="M39.82 12.37c0.91 0.91 1.47 2.76 1.47 4.26c0 3.75-0.04 15.87-0.04 23.25"></path>
<path style="fill:none; fill-opacity:0%; fill-rule:evenodd; stroke:#aaaaaa; stroke-opacity:100%; stroke-width: 1.5pt; stroke-linejoin:round; stroke-linecap:round;" d="M15.88 42.73c3.35 1.2 8.18 0.73 11.62 0.24C48.21 40 69.7 37.18 85 36.24c3.11-0.19 6.07-0.33 9.13 0.33"></path>
<path style="fill:none; fill-opacity:0%; fill-rule:evenodd; stroke:#aaaaaa; stroke-opacity:100%; stroke-width: 1.5pt; stroke-linejoin:round; stroke-linecap:round;" d="M19.53 61.71c0.41 0.24 2.84 0.37 3.93 0.31c6.04-0.28 19.53-3.21 27.06-4.41c1.09-0.17 2.56-0.24 3.24 0"></path>
<path style="fill:none; fill-opacity:0%; fill-rule:evenodd; stroke:#aaaaaa; stroke-opacity:100%; stroke-width: 1.5pt; stroke-linejoin:round; stroke-linecap:round;" d="M38.77 48.5c1.12 1.12 1.36 2.62 1.36 4.17c0 4.16 0 27.29 0 39.08c0 3.31 0 5.71 0 6.5"></path>
<path style="fill:none; fill-opacity:0%; fill-rule:evenodd; stroke:#aaaaaa; stroke-opacity:100%; stroke-width: 1.5pt; stroke-linejoin:round; stroke-linecap:round;" d="M39.33 61.53c0 1.47-1.26 3.93-2.19 5.25c-6.33 8.9-11.09 13.59-21.87 22.56"></path>
<path style="fill:none; fill-opacity:0%; fill-rule:evenodd; stroke:#aaaaaa; stroke-opacity:100%; stroke-width: 1.5pt; stroke-linejoin:round; stroke-linecap:round;" d="M43.62 68c3.03 1.9 8 8.07 10.56 11.75"></path>
<path style="fill:none; fill-opacity:0%; fill-rule:evenodd; stroke:#aaaaaa; stroke-opacity:100%; stroke-width: 1.5pt; stroke-linejoin:round; stroke-linecap:round;" d="M60.25 11.75c1.43 1.81 1.89 3.57 2.28 7.47c3.09 31.03 9.09 57.03 27.81 74.72c4.97 4.7 4.83 0.78 4.11-7.26"></path>
<path style="fill:none; fill-opacity:0%; fill-rule:evenodd; stroke:#aaaaaa; stroke-opacity:100%; stroke-width: 1.5pt; stroke-linejoin:round; stroke-linecap:round;" d="M82.98 47.89c0.08 1 0.01 2.34-0.4 3.75c-2.63 9.07-11.26 27.99-26.02 39.32"></path>
<path style="fill:none; fill-opacity:0%; fill-rule:evenodd; stroke:#aaaaaa; stroke-opacity:100%; stroke-width: 1.5pt; stroke-linejoin:round; stroke-linecap:round;" d="M74.5 13.25c3.42 2.25 8.9 7.39 10.5 11.25"></path>

<path style="fill:none; fill-opacity:0%; fill-rule:evenodd; stroke:#000000; stroke-opacity:100%; stroke-width: 3pt; stroke-linejoin:round; stroke-linecap:round;" d="M23.38 27.38c1.83 0.49 3.91 0.28 5.77 0.12c6.7-0.57 15.46-2.16 21.3-2.68c1.62-0.14 2.62-0.12 3.43 0.01"></path>
<path style="fill:none; fill-opacity:0%; fill-rule:evenodd; stroke:#000000; stroke-opacity:100%; stroke-width: 3pt; stroke-linejoin:round; stroke-linecap:round;" d="M39.82 12.37c0.91 0.91 1.47 2.76 1.47 4.26c0 3.75-0.04 15.87-0.04 23.25"></path>
<text x="5" y="20" font-size="20" fill="#999999">3</text><path style="fill:none; fill-opacity:0%; fill-rule:evenodd; stroke:#CC0000; stroke-opacity:100%; stroke-width: 3pt; stroke-linejoin:round; stroke-linecap:round;" d="M15.88 42.73c3.35 1.2 8.18 0.73 11.62 0.24C48.21 40 69.7 37.18 85 36.24c3.11-0.19 6.07-0.33 9.13 0.33"  ></path>








</g><g transform="scale(1.3761467889908 1.3761467889908) translate(327, 0)">
<path style="fill:none; fill-rule:evenodd; stroke:#aaaaaa;  stroke-width:1pt; stroke-linecap:round;" d="m 109 0 L 0 0 L 0 109 L 109 109 L 109 0"></path><path style="fill:none; fill-opacity:0%; fill-rule:evenodd; stroke:#aaaaaa; stroke-opacity:100%; stroke-width: 1.5pt; stroke-linejoin:round; stroke-linecap:round;" d="M23.38 27.38c1.83 0.49 3.91 0.28 5.77 0.12c6.7-0.57 15.46-2.16 21.3-2.68c1.62-0.14 2.62-0.12 3.43 0.01"></path>
<path style="fill:none; fill-opacity:0%; fill-rule:evenodd; stroke:#aaaaaa; stroke-opacity:100%; stroke-width: 1.5pt; stroke-linejoin:round; stroke-linecap:round;" d="M39.82 12.37c0.91 0.91 1.47 2.76 1.47 4.26c0 3.75-0.04 15.87-0.04 23.25"></path>
<path style="fill:none; fill-opacity:0%; fill-rule:evenodd; stroke:#aaaaaa; stroke-opacity:100%; stroke-width: 1.5pt; stroke-linejoin:round; stroke-linecap:round;" d="M15.88 42.73c3.35 1.2 8.18 0.73 11.62 0.24C48.21 40 69.7 37.18 85 36.24c3.11-0.19 6.07-0.33 9.13 0.33"></path>
<path style="fill:none; fill-opacity:0%; fill-rule:evenodd; stroke:#aaaaaa; stroke-opacity:100%; stroke-width: 1.5pt; stroke-linejoin:round; stroke-linecap:round;" d="M19.53 61.71c0.41 0.24 2.84 0.37 3.93 0.31c6.04-0.28 19.53-3.21 27.06-4.41c1.09-0.17 2.56-0.24 3.24 0"></path>
<path style="fill:none; fill-opacity:0%; fill-rule:evenodd; stroke:#aaaaaa; stroke-opacity:100%; stroke-width: 1.5pt; stroke-linejoin:round; stroke-linecap:round;" d="M38.77 48.5c1.12 1.12 1.36 2.62 1.36 4.17c0 4.16 0 27.29 0 39.08c0 3.31 0 5.71 0 6.5"></path>
<path style="fill:none; fill-opacity:0%; fill-rule:evenodd; stroke:#aaaaaa; stroke-opacity:100%; stroke-width: 1.5pt; stroke-linejoin:round; stroke-linecap:round;" d="M39.33 61.53c0 1.47-1.26 3.93-2.19 5.25c-6.33 8.9-11.09 13.59-21.87 22.56"></path>
<path style="fill:none; fill-opacity:0%; fill-rule:evenodd; stroke:#aaaaaa; stroke-opacity:100%; stroke-width: 1.5pt; stroke-linejoin:round; stroke-linecap:round;" d="M43.62 68c3.03 1.9 8 8.07 10.56 11.75"></path>
<path style="fill:none; fill-opacity:0%; fill-rule:evenodd; stroke:#aaaaaa; stroke-opacity:100%; stroke-width: 1.5pt; stroke-linejoin:round; stroke-linecap:round;" d="M60.25 11.75c1.43 1.81 1.89 3.57 2.28 7.47c3.09 31.03 9.09 57.03 27.81 74.72c4.97 4.7 4.83 0.78 4.11-7.26"></path>
<path style="fill:none; fill-opacity:0%; fill-rule:evenodd; stroke:#aaaaaa; stroke-opacity:100%; stroke-width: 1.5pt; stroke-linejoin:round; stroke-linecap:round;" d="M82.98 47.89c0.08 1 0.01 2.34-0.4 3.75c-2.63 9.07-11.26 27.99-26.02 39.32"></path>
<path style="fill:none; fill-opacity:0%; fill-rule:evenodd; stroke:#aaaaaa; stroke-opacity:100%; stroke-width: 1.5pt; stroke-linejoin:round; stroke-linecap:round;" d="M74.5 13.25c3.42 2.25 8.9 7.39 10.5 11.25"></path>

<path style="fill:none; fill-opacity:0%; fill-rule:evenodd; stroke:#000000; stroke-opacity:100%; stroke-width: 3pt; stroke-linejoin:round; stroke-linecap:round;" d="M23.38 27.38c1.83 0.49 3.91 0.28 5.77 0.12c6.7-0.57 15.46-2.16 21.3-2.68c1.62-0.14 2.62-0.12 3.43 0.01"></path>
<path style="fill:none; fill-opacity:0%; fill-rule:evenodd; stroke:#000000; stroke-opacity:100%; stroke-width: 3pt; stroke-linejoin:round; stroke-linecap:round;" d="M39.82 12.37c0.91 0.91 1.47 2.76 1.47 4.26c0 3.75-0.04 15.87-0.04 23.25"></path>
<path style="fill:none; fill-opacity:0%; fill-rule:evenodd; stroke:#000000; stroke-opacity:100%; stroke-width: 3pt; stroke-linejoin:round; stroke-linecap:round;" d="M15.88 42.73c3.35 1.2 8.18 0.73 11.62 0.24C48.21 40 69.7 37.18 85 36.24c3.11-0.19 6.07-0.33 9.13 0.33"></path>
<text x="5" y="20" font-size="20" fill="#999999">4</text><path style="fill:none; fill-opacity:0%; fill-rule:evenodd; stroke:#CC0000; stroke-opacity:100%; stroke-width: 3pt; stroke-linejoin:round; stroke-linecap:round;" d="M19.53 61.71c0.41 0.24 2.84 0.37 3.93 0.31c6.04-0.28 19.53-3.21 27.06-4.41c1.09-0.17 2.56-0.24 3.24 0"  ></path>







</g><g transform="scale(1.3761467889908 1.3761467889908) translate(436, 0)">
<path style="fill:none; fill-rule:evenodd; stroke:#aaaaaa;  stroke-width:1pt; stroke-linecap:round;" d="m 109 0 L 0 0 L 0 109 L 109 109 L 109 0"></path><path style="fill:none; fill-opacity:0%; fill-rule:evenodd; stroke:#aaaaaa; stroke-opacity:100%; stroke-width: 1.5pt; stroke-linejoin:round; stroke-linecap:round;" d="M23.38 27.38c1.83 0.49 3.91 0.28 5.77 0.12c6.7-0.57 15.46-2.16 21.3-2.68c1.62-0.14 2.62-0.12 3.43 0.01"></path>
<path style="fill:none; fill-opacity:0%; fill-rule:evenodd; stroke:#aaaaaa; stroke-opacity:100%; stroke-width: 1.5pt; stroke-linejoin:round; stroke-linecap:round;" d="M39.82 12.37c0.91 0.91 1.47 2.76 1.47 4.26c0 3.75-0.04 15.87-0.04 23.25"></path>
<path style="fill:none; fill-opacity:0%; fill-rule:evenodd; stroke:#aaaaaa; stroke-opacity:100%; stroke-width: 1.5pt; stroke-linejoin:round; stroke-linecap:round;" d="M15.88 42.73c3.35 1.2 8.18 0.73 11.62 0.24C48.21 40 69.7 37.18 85 36.24c3.11-0.19 6.07-0.33 9.13 0.33"></path>
<path style="fill:none; fill-opacity:0%; fill-rule:evenodd; stroke:#aaaaaa; stroke-opacity:100%; stroke-width: 1.5pt; stroke-linejoin:round; stroke-linecap:round;" d="M19.53 61.71c0.41 0.24 2.84 0.37 3.93 0.31c6.04-0.28 19.53-3.21 27.06-4.41c1.09-0.17 2.56-0.24 3.24 0"></path>
<path style="fill:none; fill-opacity:0%; fill-rule:evenodd; stroke:#aaaaaa; stroke-opacity:100%; stroke-width: 1.5pt; stroke-linejoin:round; stroke-linecap:round;" d="M38.77 48.5c1.12 1.12 1.36 2.62 1.36 4.17c0 4.16 0 27.29 0 39.08c0 3.31 0 5.71 0 6.5"></path>
<path style="fill:none; fill-opacity:0%; fill-rule:evenodd; stroke:#aaaaaa; stroke-opacity:100%; stroke-width: 1.5pt; stroke-linejoin:round; stroke-linecap:round;" d="M39.33 61.53c0 1.47-1.26 3.93-2.19 5.25c-6.33 8.9-11.09 13.59-21.87 22.56"></path>
<path style="fill:none; fill-opacity:0%; fill-rule:evenodd; stroke:#aaaaaa; stroke-opacity:100%; stroke-width: 1.5pt; stroke-linejoin:round; stroke-linecap:round;" d="M43.62 68c3.03 1.9 8 8.07 10.56 11.75"></path>
<path style="fill:none; fill-opacity:0%; fill-rule:evenodd; stroke:#aaaaaa; stroke-opacity:100%; stroke-width: 1.5pt; stroke-linejoin:round; stroke-linecap:round;" d="M60.25 11.75c1.43 1.81 1.89 3.57 2.28 7.47c3.09 31.03 9.09 57.03 27.81 74.72c4.97 4.7 4.83 0.78 4.11-7.26"></path>
<path style="fill:none; fill-opacity:0%; fill-rule:evenodd; stroke:#aaaaaa; stroke-opacity:100%; stroke-width: 1.5pt; stroke-linejoin:round; stroke-linecap:round;" d="M82.98 47.89c0.08 1 0.01 2.34-0.4 3.75c-2.63 9.07-11.26 27.99-26.02 39.32"></path>
<path style="fill:none; fill-opacity:0%; fill-rule:evenodd; stroke:#aaaaaa; stroke-opacity:100%; stroke-width: 1.5pt; stroke-linejoin:round; stroke-linecap:round;" d="M74.5 13.25c3.42 2.25 8.9 7.39 10.5 11.25"></path>

<path style="fill:none; fill-opacity:0%; fill-rule:evenodd; stroke:#000000; stroke-opacity:100%; stroke-width: 3pt; stroke-linejoin:round; stroke-linecap:round;" d="M23.38 27.38c1.83 0.49 3.91 0.28 5.77 0.12c6.7-0.57 15.46-2.16 21.3-2.68c1.62-0.14 2.62-0.12 3.43 0.01"></path>
<path style="fill:none; fill-opacity:0%; fill-rule:evenodd; stroke:#000000; stroke-opacity:100%; stroke-width: 3pt; stroke-linejoin:round; stroke-linecap:round;" d="M39.82 12.37c0.91 0.91 1.47 2.76 1.47 4.26c0 3.75-0.04 15.87-0.04 23.25"></path>
<path style="fill:none; fill-opacity:0%; fill-rule:evenodd; stroke:#000000; stroke-opacity:100%; stroke-width: 3pt; stroke-linejoin:round; stroke-linecap:round;" d="M15.88 42.73c3.35 1.2 8.18 0.73 11.62 0.24C48.21 40 69.7 37.18 85 36.24c3.11-0.19 6.07-0.33 9.13 0.33"></path>
<path style="fill:none; fill-opacity:0%; fill-rule:evenodd; stroke:#000000; stroke-opacity:100%; stroke-width: 3pt; stroke-linejoin:round; stroke-linecap:round;" d="M19.53 61.71c0.41 0.24 2.84 0.37 3.93 0.31c6.04-0.28 19.53-3.21 27.06-4.41c1.09-0.17 2.56-0.24 3.24 0"></path>
<text x="5" y="20" font-size="20" fill="#999999">5</text><path style="fill:none; fill-opacity:0%; fill-rule:evenodd; stroke:#CC0000; stroke-opacity:100%; stroke-width: 3pt; stroke-linejoin:round; stroke-linecap:round;" d="M38.77 48.5c1.12 1.12 1.36 2.62 1.36 4.17c0 4.16 0 27.29 0 39.08c0 3.31 0 5.71 0 6.5"  ></path>






</g><g transform="scale(1.3761467889908 1.3761467889908) translate(0, 109)">
<path style="fill:none; fill-rule:evenodd; stroke:#aaaaaa;  stroke-width:1pt; stroke-linecap:round;" d="m 109 0 L 0 0 L 0 109 L 109 109 L 109 0"></path><path style="fill:none; fill-opacity:0%; fill-rule:evenodd; stroke:#aaaaaa; stroke-opacity:100%; stroke-width: 1.5pt; stroke-linejoin:round; stroke-linecap:round;" d="M23.38 27.38c1.83 0.49 3.91 0.28 5.77 0.12c6.7-0.57 15.46-2.16 21.3-2.68c1.62-0.14 2.62-0.12 3.43 0.01"></path>
<path style="fill:none; fill-opacity:0%; fill-rule:evenodd; stroke:#aaaaaa; stroke-opacity:100%; stroke-width: 1.5pt; stroke-linejoin:round; stroke-linecap:round;" d="M39.82 12.37c0.91 0.91 1.47 2.76 1.47 4.26c0 3.75-0.04 15.87-0.04 23.25"></path>
<path style="fill:none; fill-opacity:0%; fill-rule:evenodd; stroke:#aaaaaa; stroke-opacity:100%; stroke-width: 1.5pt; stroke-linejoin:round; stroke-linecap:round;" d="M15.88 42.73c3.35 1.2 8.18 0.73 11.62 0.24C48.21 40 69.7 37.18 85 36.24c3.11-0.19 6.07-0.33 9.13 0.33"></path>
<path style="fill:none; fill-opacity:0%; fill-rule:evenodd; stroke:#aaaaaa; stroke-opacity:100%; stroke-width: 1.5pt; stroke-linejoin:round; stroke-linecap:round;" d="M19.53 61.71c0.41 0.24 2.84 0.37 3.93 0.31c6.04-0.28 19.53-3.21 27.06-4.41c1.09-0.17 2.56-0.24 3.24 0"></path>
<path style="fill:none; fill-opacity:0%; fill-rule:evenodd; stroke:#aaaaaa; stroke-opacity:100%; stroke-width: 1.5pt; stroke-linejoin:round; stroke-linecap:round;" d="M38.77 48.5c1.12 1.12 1.36 2.62 1.36 4.17c0 4.16 0 27.29 0 39.08c0 3.31 0 5.71 0 6.5"></path>
<path style="fill:none; fill-opacity:0%; fill-rule:evenodd; stroke:#aaaaaa; stroke-opacity:100%; stroke-width: 1.5pt; stroke-linejoin:round; stroke-linecap:round;" d="M39.33 61.53c0 1.47-1.26 3.93-2.19 5.25c-6.33 8.9-11.09 13.59-21.87 22.56"></path>
<path style="fill:none; fill-opacity:0%; fill-rule:evenodd; stroke:#aaaaaa; stroke-opacity:100%; stroke-width: 1.5pt; stroke-linejoin:round; stroke-linecap:round;" d="M43.62 68c3.03 1.9 8 8.07 10.56 11.75"></path>
<path style="fill:none; fill-opacity:0%; fill-rule:evenodd; stroke:#aaaaaa; stroke-opacity:100%; stroke-width: 1.5pt; stroke-linejoin:round; stroke-linecap:round;" d="M60.25 11.75c1.43 1.81 1.89 3.57 2.28 7.47c3.09 31.03 9.09 57.03 27.81 74.72c4.97 4.7 4.83 0.78 4.11-7.26"></path>
<path style="fill:none; fill-opacity:0%; fill-rule:evenodd; stroke:#aaaaaa; stroke-opacity:100%; stroke-width: 1.5pt; stroke-linejoin:round; stroke-linecap:round;" d="M82.98 47.89c0.08 1 0.01 2.34-0.4 3.75c-2.63 9.07-11.26 27.99-26.02 39.32"></path>
<path style="fill:none; fill-opacity:0%; fill-rule:evenodd; stroke:#aaaaaa; stroke-opacity:100%; stroke-width: 1.5pt; stroke-linejoin:round; stroke-linecap:round;" d="M74.5 13.25c3.42 2.25 8.9 7.39 10.5 11.25"></path>

<path style="fill:none; fill-opacity:0%; fill-rule:evenodd; stroke:#000000; stroke-opacity:100%; stroke-width: 3pt; stroke-linejoin:round; stroke-linecap:round;" d="M23.38 27.38c1.83 0.49 3.91 0.28 5.77 0.12c6.7-0.57 15.46-2.16 21.3-2.68c1.62-0.14 2.62-0.12 3.43 0.01"></path>
<path style="fill:none; fill-opacity:0%; fill-rule:evenodd; stroke:#000000; stroke-opacity:100%; stroke-width: 3pt; stroke-linejoin:round; stroke-linecap:round;" d="M39.82 12.37c0.91 0.91 1.47 2.76 1.47 4.26c0 3.75-0.04 15.87-0.04 23.25"></path>
<path style="fill:none; fill-opacity:0%; fill-rule:evenodd; stroke:#000000; stroke-opacity:100%; stroke-width: 3pt; stroke-linejoin:round; stroke-linecap:round;" d="M15.88 42.73c3.35 1.2 8.18 0.73 11.62 0.24C48.21 40 69.7 37.18 85 36.24c3.11-0.19 6.07-0.33 9.13 0.33"></path>
<path style="fill:none; fill-opacity:0%; fill-rule:evenodd; stroke:#000000; stroke-opacity:100%; stroke-width: 3pt; stroke-linejoin:round; stroke-linecap:round;" d="M19.53 61.71c0.41 0.24 2.84 0.37 3.93 0.31c6.04-0.28 19.53-3.21 27.06-4.41c1.09-0.17 2.56-0.24 3.24 0"></path>
<path style="fill:none; fill-opacity:0%; fill-rule:evenodd; stroke:#000000; stroke-opacity:100%; stroke-width: 3pt; stroke-linejoin:round; stroke-linecap:round;" d="M38.77 48.5c1.12 1.12 1.36 2.62 1.36 4.17c0 4.16 0 27.29 0 39.08c0 3.31 0 5.71 0 6.5"></path>
<text x="5" y="20" font-size="20" fill="#999999">6</text><path style="fill:none; fill-opacity:0%; fill-rule:evenodd; stroke:#CC0000; stroke-opacity:100%; stroke-width: 3pt; stroke-linejoin:round; stroke-linecap:round;" d="M39.33 61.53c0 1.47-1.26 3.93-2.19 5.25c-6.33 8.9-11.09 13.59-21.87 22.56"  ></path>





</g><g transform="scale(1.3761467889908 1.3761467889908) translate(109, 109)">
<path style="fill:none; fill-rule:evenodd; stroke:#aaaaaa;  stroke-width:1pt; stroke-linecap:round;" d="m 109 0 L 0 0 L 0 109 L 109 109 L 109 0"></path><path style="fill:none; fill-opacity:0%; fill-rule:evenodd; stroke:#aaaaaa; stroke-opacity:100%; stroke-width: 1.5pt; stroke-linejoin:round; stroke-linecap:round;" d="M23.38 27.38c1.83 0.49 3.91 0.28 5.77 0.12c6.7-0.57 15.46-2.16 21.3-2.68c1.62-0.14 2.62-0.12 3.43 0.01"></path>
<path style="fill:none; fill-opacity:0%; fill-rule:evenodd; stroke:#aaaaaa; stroke-opacity:100%; stroke-width: 1.5pt; stroke-linejoin:round; stroke-linecap:round;" d="M39.82 12.37c0.91 0.91 1.47 2.76 1.47 4.26c0 3.75-0.04 15.87-0.04 23.25"></path>
<path style="fill:none; fill-opacity:0%; fill-rule:evenodd; stroke:#aaaaaa; stroke-opacity:100%; stroke-width: 1.5pt; stroke-linejoin:round; stroke-linecap:round;" d="M15.88 42.73c3.35 1.2 8.18 0.73 11.62 0.24C48.21 40 69.7 37.18 85 36.24c3.11-0.19 6.07-0.33 9.13 0.33"></path>
<path style="fill:none; fill-opacity:0%; fill-rule:evenodd; stroke:#aaaaaa; stroke-opacity:100%; stroke-width: 1.5pt; stroke-linejoin:round; stroke-linecap:round;" d="M19.53 61.71c0.41 0.24 2.84 0.37 3.93 0.31c6.04-0.28 19.53-3.21 27.06-4.41c1.09-0.17 2.56-0.24 3.24 0"></path>
<path style="fill:none; fill-opacity:0%; fill-rule:evenodd; stroke:#aaaaaa; stroke-opacity:100%; stroke-width: 1.5pt; stroke-linejoin:round; stroke-linecap:round;" d="M38.77 48.5c1.12 1.12 1.36 2.62 1.36 4.17c0 4.16 0 27.29 0 39.08c0 3.31 0 5.71 0 6.5"></path>
<path style="fill:none; fill-opacity:0%; fill-rule:evenodd; stroke:#aaaaaa; stroke-opacity:100%; stroke-width: 1.5pt; stroke-linejoin:round; stroke-linecap:round;" d="M39.33 61.53c0 1.47-1.26 3.93-2.19 5.25c-6.33 8.9-11.09 13.59-21.87 22.56"></path>
<path style="fill:none; fill-opacity:0%; fill-rule:evenodd; stroke:#aaaaaa; stroke-opacity:100%; stroke-width: 1.5pt; stroke-linejoin:round; stroke-linecap:round;" d="M43.62 68c3.03 1.9 8 8.07 10.56 11.75"></path>
<path style="fill:none; fill-opacity:0%; fill-rule:evenodd; stroke:#aaaaaa; stroke-opacity:100%; stroke-width: 1.5pt; stroke-linejoin:round; stroke-linecap:round;" d="M60.25 11.75c1.43 1.81 1.89 3.57 2.28 7.47c3.09 31.03 9.09 57.03 27.81 74.72c4.97 4.7 4.83 0.78 4.11-7.26"></path>
<path style="fill:none; fill-opacity:0%; fill-rule:evenodd; stroke:#aaaaaa; stroke-opacity:100%; stroke-width: 1.5pt; stroke-linejoin:round; stroke-linecap:round;" d="M82.98 47.89c0.08 1 0.01 2.34-0.4 3.75c-2.63 9.07-11.26 27.99-26.02 39.32"></path>
<path style="fill:none; fill-opacity:0%; fill-rule:evenodd; stroke:#aaaaaa; stroke-opacity:100%; stroke-width: 1.5pt; stroke-linejoin:round; stroke-linecap:round;" d="M74.5 13.25c3.42 2.25 8.9 7.39 10.5 11.25"></path>

<path style="fill:none; fill-opacity:0%; fill-rule:evenodd; stroke:#000000; stroke-opacity:100%; stroke-width: 3pt; stroke-linejoin:round; stroke-linecap:round;" d="M23.38 27.38c1.83 0.49 3.91 0.28 5.77 0.12c6.7-0.57 15.46-2.16 21.3-2.68c1.62-0.14 2.62-0.12 3.43 0.01"></path>
<path style="fill:none; fill-opacity:0%; fill-rule:evenodd; stroke:#000000; stroke-opacity:100%; stroke-width: 3pt; stroke-linejoin:round; stroke-linecap:round;" d="M39.82 12.37c0.91 0.91 1.47 2.76 1.47 4.26c0 3.75-0.04 15.87-0.04 23.25"></path>
<path style="fill:none; fill-opacity:0%; fill-rule:evenodd; stroke:#000000; stroke-opacity:100%; stroke-width: 3pt; stroke-linejoin:round; stroke-linecap:round;" d="M15.88 42.73c3.35 1.2 8.18 0.73 11.62 0.24C48.21 40 69.7 37.18 85 36.24c3.11-0.19 6.07-0.33 9.13 0.33"></path>
<path style="fill:none; fill-opacity:0%; fill-rule:evenodd; stroke:#000000; stroke-opacity:100%; stroke-width: 3pt; stroke-linejoin:round; stroke-linecap:round;" d="M19.53 61.71c0.41 0.24 2.84 0.37 3.93 0.31c6.04-0.28 19.53-3.21 27.06-4.41c1.09-0.17 2.56-0.24 3.24 0"></path>
<path style="fill:none; fill-opacity:0%; fill-rule:evenodd; stroke:#000000; stroke-opacity:100%; stroke-width: 3pt; stroke-linejoin:round; stroke-linecap:round;" d="M38.77 48.5c1.12 1.12 1.36 2.62 1.36 4.17c0 4.16 0 27.29 0 39.08c0 3.31 0 5.71 0 6.5"></path>
<path style="fill:none; fill-opacity:0%; fill-rule:evenodd; stroke:#000000; stroke-opacity:100%; stroke-width: 3pt; stroke-linejoin:round; stroke-linecap:round;" d="M39.33 61.53c0 1.47-1.26 3.93-2.19 5.25c-6.33 8.9-11.09 13.59-21.87 22.56"></path>
<text x="5" y="20" font-size="20" fill="#999999">7</text><path style="fill:none; fill-opacity:0%; fill-rule:evenodd; stroke:#CC0000; stroke-opacity:100%; stroke-width: 3pt; stroke-linejoin:round; stroke-linecap:round;" d="M43.62 68c3.03 1.9 8 8.07 10.56 11.75"  ></path>




</g><g transform="scale(1.3761467889908 1.3761467889908) translate(218, 109)">
<path style="fill:none; fill-rule:evenodd; stroke:#aaaaaa;  stroke-width:1pt; stroke-linecap:round;" d="m 109 0 L 0 0 L 0 109 L 109 109 L 109 0"></path><path style="fill:none; fill-opacity:0%; fill-rule:evenodd; stroke:#aaaaaa; stroke-opacity:100%; stroke-width: 1.5pt; stroke-linejoin:round; stroke-linecap:round;" d="M23.38 27.38c1.83 0.49 3.91 0.28 5.77 0.12c6.7-0.57 15.46-2.16 21.3-2.68c1.62-0.14 2.62-0.12 3.43 0.01"></path>
<path style="fill:none; fill-opacity:0%; fill-rule:evenodd; stroke:#aaaaaa; stroke-opacity:100%; stroke-width: 1.5pt; stroke-linejoin:round; stroke-linecap:round;" d="M39.82 12.37c0.91 0.91 1.47 2.76 1.47 4.26c0 3.75-0.04 15.87-0.04 23.25"></path>
<path style="fill:none; fill-opacity:0%; fill-rule:evenodd; stroke:#aaaaaa; stroke-opacity:100%; stroke-width: 1.5pt; stroke-linejoin:round; stroke-linecap:round;" d="M15.88 42.73c3.35 1.2 8.18 0.73 11.62 0.24C48.21 40 69.7 37.18 85 36.24c3.11-0.19 6.07-0.33 9.13 0.33"></path>
<path style="fill:none; fill-opacity:0%; fill-rule:evenodd; stroke:#aaaaaa; stroke-opacity:100%; stroke-width: 1.5pt; stroke-linejoin:round; stroke-linecap:round;" d="M19.53 61.71c0.41 0.24 2.84 0.37 3.93 0.31c6.04-0.28 19.53-3.21 27.06-4.41c1.09-0.17 2.56-0.24 3.24 0"></path>
<path style="fill:none; fill-opacity:0%; fill-rule:evenodd; stroke:#aaaaaa; stroke-opacity:100%; stroke-width: 1.5pt; stroke-linejoin:round; stroke-linecap:round;" d="M38.77 48.5c1.12 1.12 1.36 2.62 1.36 4.17c0 4.16 0 27.29 0 39.08c0 3.31 0 5.71 0 6.5"></path>
<path style="fill:none; fill-opacity:0%; fill-rule:evenodd; stroke:#aaaaaa; stroke-opacity:100%; stroke-width: 1.5pt; stroke-linejoin:round; stroke-linecap:round;" d="M39.33 61.53c0 1.47-1.26 3.93-2.19 5.25c-6.33 8.9-11.09 13.59-21.87 22.56"></path>
<path style="fill:none; fill-opacity:0%; fill-rule:evenodd; stroke:#aaaaaa; stroke-opacity:100%; stroke-width: 1.5pt; stroke-linejoin:round; stroke-linecap:round;" d="M43.62 68c3.03 1.9 8 8.07 10.56 11.75"></path>
<path style="fill:none; fill-opacity:0%; fill-rule:evenodd; stroke:#aaaaaa; stroke-opacity:100%; stroke-width: 1.5pt; stroke-linejoin:round; stroke-linecap:round;" d="M60.25 11.75c1.43 1.81 1.89 3.57 2.28 7.47c3.09 31.03 9.09 57.03 27.81 74.72c4.97 4.7 4.83 0.78 4.11-7.26"></path>
<path style="fill:none; fill-opacity:0%; fill-rule:evenodd; stroke:#aaaaaa; stroke-opacity:100%; stroke-width: 1.5pt; stroke-linejoin:round; stroke-linecap:round;" d="M82.98 47.89c0.08 1 0.01 2.34-0.4 3.75c-2.63 9.07-11.26 27.99-26.02 39.32"></path>
<path style="fill:none; fill-opacity:0%; fill-rule:evenodd; stroke:#aaaaaa; stroke-opacity:100%; stroke-width: 1.5pt; stroke-linejoin:round; stroke-linecap:round;" d="M74.5 13.25c3.42 2.25 8.9 7.39 10.5 11.25"></path>

<path style="fill:none; fill-opacity:0%; fill-rule:evenodd; stroke:#000000; stroke-opacity:100%; stroke-width: 3pt; stroke-linejoin:round; stroke-linecap:round;" d="M23.38 27.38c1.83 0.49 3.91 0.28 5.77 0.12c6.7-0.57 15.46-2.16 21.3-2.68c1.62-0.14 2.62-0.12 3.43 0.01"></path>
<path style="fill:none; fill-opacity:0%; fill-rule:evenodd; stroke:#000000; stroke-opacity:100%; stroke-width: 3pt; stroke-linejoin:round; stroke-linecap:round;" d="M39.82 12.37c0.91 0.91 1.47 2.76 1.47 4.26c0 3.75-0.04 15.87-0.04 23.25"></path>
<path style="fill:none; fill-opacity:0%; fill-rule:evenodd; stroke:#000000; stroke-opacity:100%; stroke-width: 3pt; stroke-linejoin:round; stroke-linecap:round;" d="M15.88 42.73c3.35 1.2 8.18 0.73 11.62 0.24C48.21 40 69.7 37.18 85 36.24c3.11-0.19 6.07-0.33 9.13 0.33"></path>
<path style="fill:none; fill-opacity:0%; fill-rule:evenodd; stroke:#000000; stroke-opacity:100%; stroke-width: 3pt; stroke-linejoin:round; stroke-linecap:round;" d="M19.53 61.71c0.41 0.24 2.84 0.37 3.93 0.31c6.04-0.28 19.53-3.21 27.06-4.41c1.09-0.17 2.56-0.24 3.24 0"></path>
<path style="fill:none; fill-opacity:0%; fill-rule:evenodd; stroke:#000000; stroke-opacity:100%; stroke-width: 3pt; stroke-linejoin:round; stroke-linecap:round;" d="M38.77 48.5c1.12 1.12 1.36 2.62 1.36 4.17c0 4.16 0 27.29 0 39.08c0 3.31 0 5.71 0 6.5"></path>
<path style="fill:none; fill-opacity:0%; fill-rule:evenodd; stroke:#000000; stroke-opacity:100%; stroke-width: 3pt; stroke-linejoin:round; stroke-linecap:round;" d="M39.33 61.53c0 1.47-1.26 3.93-2.19 5.25c-6.33 8.9-11.09 13.59-21.87 22.56"></path>
<path style="fill:none; fill-opacity:0%; fill-rule:evenodd; stroke:#000000; stroke-opacity:100%; stroke-width: 3pt; stroke-linejoin:round; stroke-linecap:round;" d="M43.62 68c3.03 1.9 8 8.07 10.56 11.75"></path>
<text x="5" y="20" font-size="20" fill="#999999">8</text><path style="fill:none; fill-opacity:0%; fill-rule:evenodd; stroke:#CC0000; stroke-opacity:100%; stroke-width: 3pt; stroke-linejoin:round; stroke-linecap:round;" d="M60.25 11.75c1.43 1.81 1.89 3.57 2.28 7.47c3.09 31.03 9.09 57.03 27.81 74.72c4.97 4.7 4.83 0.78 4.11-7.26"  ></path>



</g><g transform="scale(1.3761467889908 1.3761467889908) translate(327, 109)">
<path style="fill:none; fill-rule:evenodd; stroke:#aaaaaa;  stroke-width:1pt; stroke-linecap:round;" d="m 109 0 L 0 0 L 0 109 L 109 109 L 109 0"></path><path style="fill:none; fill-opacity:0%; fill-rule:evenodd; stroke:#aaaaaa; stroke-opacity:100%; stroke-width: 1.5pt; stroke-linejoin:round; stroke-linecap:round;" d="M23.38 27.38c1.83 0.49 3.91 0.28 5.77 0.12c6.7-0.57 15.46-2.16 21.3-2.68c1.62-0.14 2.62-0.12 3.43 0.01"></path>
<path style="fill:none; fill-opacity:0%; fill-rule:evenodd; stroke:#aaaaaa; stroke-opacity:100%; stroke-width: 1.5pt; stroke-linejoin:round; stroke-linecap:round;" d="M39.82 12.37c0.91 0.91 1.47 2.76 1.47 4.26c0 3.75-0.04 15.87-0.04 23.25"></path>
<path style="fill:none; fill-opacity:0%; fill-rule:evenodd; stroke:#aaaaaa; stroke-opacity:100%; stroke-width: 1.5pt; stroke-linejoin:round; stroke-linecap:round;" d="M15.88 42.73c3.35 1.2 8.18 0.73 11.62 0.24C48.21 40 69.7 37.18 85 36.24c3.11-0.19 6.07-0.33 9.13 0.33"></path>
<path style="fill:none; fill-opacity:0%; fill-rule:evenodd; stroke:#aaaaaa; stroke-opacity:100%; stroke-width: 1.5pt; stroke-linejoin:round; stroke-linecap:round;" d="M19.53 61.71c0.41 0.24 2.84 0.37 3.93 0.31c6.04-0.28 19.53-3.21 27.06-4.41c1.09-0.17 2.56-0.24 3.24 0"></path>
<path style="fill:none; fill-opacity:0%; fill-rule:evenodd; stroke:#aaaaaa; stroke-opacity:100%; stroke-width: 1.5pt; stroke-linejoin:round; stroke-linecap:round;" d="M38.77 48.5c1.12 1.12 1.36 2.62 1.36 4.17c0 4.16 0 27.29 0 39.08c0 3.31 0 5.71 0 6.5"></path>
<path style="fill:none; fill-opacity:0%; fill-rule:evenodd; stroke:#aaaaaa; stroke-opacity:100%; stroke-width: 1.5pt; stroke-linejoin:round; stroke-linecap:round;" d="M39.33 61.53c0 1.47-1.26 3.93-2.19 5.25c-6.33 8.9-11.09 13.59-21.87 22.56"></path>
<path style="fill:none; fill-opacity:0%; fill-rule:evenodd; stroke:#aaaaaa; stroke-opacity:100%; stroke-width: 1.5pt; stroke-linejoin:round; stroke-linecap:round;" d="M43.62 68c3.03 1.9 8 8.07 10.56 11.75"></path>
<path style="fill:none; fill-opacity:0%; fill-rule:evenodd; stroke:#aaaaaa; stroke-opacity:100%; stroke-width: 1.5pt; stroke-linejoin:round; stroke-linecap:round;" d="M60.25 11.75c1.43 1.81 1.89 3.57 2.28 7.47c3.09 31.03 9.09 57.03 27.81 74.72c4.97 4.7 4.83 0.78 4.11-7.26"></path>
<path style="fill:none; fill-opacity:0%; fill-rule:evenodd; stroke:#aaaaaa; stroke-opacity:100%; stroke-width: 1.5pt; stroke-linejoin:round; stroke-linecap:round;" d="M82.98 47.89c0.08 1 0.01 2.34-0.4 3.75c-2.63 9.07-11.26 27.99-26.02 39.32"></path>
<path style="fill:none; fill-opacity:0%; fill-rule:evenodd; stroke:#aaaaaa; stroke-opacity:100%; stroke-width: 1.5pt; stroke-linejoin:round; stroke-linecap:round;" d="M74.5 13.25c3.42 2.25 8.9 7.39 10.5 11.25"></path>

<path style="fill:none; fill-opacity:0%; fill-rule:evenodd; stroke:#000000; stroke-opacity:100%; stroke-width: 3pt; stroke-linejoin:round; stroke-linecap:round;" d="M23.38 27.38c1.83 0.49 3.91 0.28 5.77 0.12c6.7-0.57 15.46-2.16 21.3-2.68c1.62-0.14 2.62-0.12 3.43 0.01"></path>
<path style="fill:none; fill-opacity:0%; fill-rule:evenodd; stroke:#000000; stroke-opacity:100%; stroke-width: 3pt; stroke-linejoin:round; stroke-linecap:round;" d="M39.82 12.37c0.91 0.91 1.47 2.76 1.47 4.26c0 3.75-0.04 15.87-0.04 23.25"></path>
<path style="fill:none; fill-opacity:0%; fill-rule:evenodd; stroke:#000000; stroke-opacity:100%; stroke-width: 3pt; stroke-linejoin:round; stroke-linecap:round;" d="M15.88 42.73c3.35 1.2 8.18 0.73 11.62 0.24C48.21 40 69.7 37.18 85 36.24c3.11-0.19 6.07-0.33 9.13 0.33"></path>
<path style="fill:none; fill-opacity:0%; fill-rule:evenodd; stroke:#000000; stroke-opacity:100%; stroke-width: 3pt; stroke-linejoin:round; stroke-linecap:round;" d="M19.53 61.71c0.41 0.24 2.84 0.37 3.93 0.31c6.04-0.28 19.53-3.21 27.06-4.41c1.09-0.17 2.56-0.24 3.24 0"></path>
<path style="fill:none; fill-opacity:0%; fill-rule:evenodd; stroke:#000000; stroke-opacity:100%; stroke-width: 3pt; stroke-linejoin:round; stroke-linecap:round;" d="M38.77 48.5c1.12 1.12 1.36 2.62 1.36 4.17c0 4.16 0 27.29 0 39.08c0 3.31 0 5.71 0 6.5"></path>
<path style="fill:none; fill-opacity:0%; fill-rule:evenodd; stroke:#000000; stroke-opacity:100%; stroke-width: 3pt; stroke-linejoin:round; stroke-linecap:round;" d="M39.33 61.53c0 1.47-1.26 3.93-2.19 5.25c-6.33 8.9-11.09 13.59-21.87 22.56"></path>
<path style="fill:none; fill-opacity:0%; fill-rule:evenodd; stroke:#000000; stroke-opacity:100%; stroke-width: 3pt; stroke-linejoin:round; stroke-linecap:round;" d="M43.62 68c3.03 1.9 8 8.07 10.56 11.75"></path>
<path style="fill:none; fill-opacity:0%; fill-rule:evenodd; stroke:#000000; stroke-opacity:100%; stroke-width: 3pt; stroke-linejoin:round; stroke-linecap:round;" d="M60.25 11.75c1.43 1.81 1.89 3.57 2.28 7.47c3.09 31.03 9.09 57.03 27.81 74.72c4.97 4.7 4.83 0.78 4.11-7.26"></path>
<text x="5" y="20" font-size="20" fill="#999999">9</text><path style="fill:none; fill-opacity:0%; fill-rule:evenodd; stroke:#CC0000; stroke-opacity:100%; stroke-width: 3pt; stroke-linejoin:round; stroke-linecap:round;" d="M82.98 47.89c0.08 1 0.01 2.34-0.4 3.75c-2.63 9.07-11.26 27.99-26.02 39.32"  ></path>


</g><g transform="scale(1.3761467889908 1.3761467889908) translate(436, 109)">
<path style="fill:none; fill-rule:evenodd; stroke:#aaaaaa;  stroke-width:1pt; stroke-linecap:round;" d="m 109 0 L 0 0 L 0 109 L 109 109 L 109 0"></path><path style="fill:none; fill-opacity:0%; fill-rule:evenodd; stroke:#aaaaaa; stroke-opacity:100%; stroke-width: 1.5pt; stroke-linejoin:round; stroke-linecap:round;" d="M23.38 27.38c1.83 0.49 3.91 0.28 5.77 0.12c6.7-0.57 15.46-2.16 21.3-2.68c1.62-0.14 2.62-0.12 3.43 0.01"></path>
<path style="fill:none; fill-opacity:0%; fill-rule:evenodd; stroke:#aaaaaa; stroke-opacity:100%; stroke-width: 1.5pt; stroke-linejoin:round; stroke-linecap:round;" d="M39.82 12.37c0.91 0.91 1.47 2.76 1.47 4.26c0 3.75-0.04 15.87-0.04 23.25"></path>
<path style="fill:none; fill-opacity:0%; fill-rule:evenodd; stroke:#aaaaaa; stroke-opacity:100%; stroke-width: 1.5pt; stroke-linejoin:round; stroke-linecap:round;" d="M15.88 42.73c3.35 1.2 8.18 0.73 11.62 0.24C48.21 40 69.7 37.18 85 36.24c3.11-0.19 6.07-0.33 9.13 0.33"></path>
<path style="fill:none; fill-opacity:0%; fill-rule:evenodd; stroke:#aaaaaa; stroke-opacity:100%; stroke-width: 1.5pt; stroke-linejoin:round; stroke-linecap:round;" d="M19.53 61.71c0.41 0.24 2.84 0.37 3.93 0.31c6.04-0.28 19.53-3.21 27.06-4.41c1.09-0.17 2.56-0.24 3.24 0"></path>
<path style="fill:none; fill-opacity:0%; fill-rule:evenodd; stroke:#aaaaaa; stroke-opacity:100%; stroke-width: 1.5pt; stroke-linejoin:round; stroke-linecap:round;" d="M38.77 48.5c1.12 1.12 1.36 2.62 1.36 4.17c0 4.16 0 27.29 0 39.08c0 3.31 0 5.71 0 6.5"></path>
<path style="fill:none; fill-opacity:0%; fill-rule:evenodd; stroke:#aaaaaa; stroke-opacity:100%; stroke-width: 1.5pt; stroke-linejoin:round; stroke-linecap:round;" d="M39.33 61.53c0 1.47-1.26 3.93-2.19 5.25c-6.33 8.9-11.09 13.59-21.87 22.56"></path>
<path style="fill:none; fill-opacity:0%; fill-rule:evenodd; stroke:#aaaaaa; stroke-opacity:100%; stroke-width: 1.5pt; stroke-linejoin:round; stroke-linecap:round;" d="M43.62 68c3.03 1.9 8 8.07 10.56 11.75"></path>
<path style="fill:none; fill-opacity:0%; fill-rule:evenodd; stroke:#aaaaaa; stroke-opacity:100%; stroke-width: 1.5pt; stroke-linejoin:round; stroke-linecap:round;" d="M60.25 11.75c1.43 1.81 1.89 3.57 2.28 7.47c3.09 31.03 9.09 57.03 27.81 74.72c4.97 4.7 4.83 0.78 4.11-7.26"></path>
<path style="fill:none; fill-opacity:0%; fill-rule:evenodd; stroke:#aaaaaa; stroke-opacity:100%; stroke-width: 1.5pt; stroke-linejoin:round; stroke-linecap:round;" d="M82.98 47.89c0.08 1 0.01 2.34-0.4 3.75c-2.63 9.07-11.26 27.99-26.02 39.32"></path>
<path style="fill:none; fill-opacity:0%; fill-rule:evenodd; stroke:#aaaaaa; stroke-opacity:100%; stroke-width: 1.5pt; stroke-linejoin:round; stroke-linecap:round;" d="M74.5 13.25c3.42 2.25 8.9 7.39 10.5 11.25"></path>

<path style="fill:none; fill-opacity:0%; fill-rule:evenodd; stroke:#000000; stroke-opacity:100%; stroke-width: 3pt; stroke-linejoin:round; stroke-linecap:round;" d="M23.38 27.38c1.83 0.49 3.91 0.28 5.77 0.12c6.7-0.57 15.46-2.16 21.3-2.68c1.62-0.14 2.62-0.12 3.43 0.01"></path>
<path style="fill:none; fill-opacity:0%; fill-rule:evenodd; stroke:#000000; stroke-opacity:100%; stroke-width: 3pt; stroke-linejoin:round; stroke-linecap:round;" d="M39.82 12.37c0.91 0.91 1.47 2.76 1.47 4.26c0 3.75-0.04 15.87-0.04 23.25"></path>
<path style="fill:none; fill-opacity:0%; fill-rule:evenodd; stroke:#000000; stroke-opacity:100%; stroke-width: 3pt; stroke-linejoin:round; stroke-linecap:round;" d="M15.88 42.73c3.35 1.2 8.18 0.73 11.62 0.24C48.21 40 69.7 37.18 85 36.24c3.11-0.19 6.07-0.33 9.13 0.33"></path>
<path style="fill:none; fill-opacity:0%; fill-rule:evenodd; stroke:#000000; stroke-opacity:100%; stroke-width: 3pt; stroke-linejoin:round; stroke-linecap:round;" d="M19.53 61.71c0.41 0.24 2.84 0.37 3.93 0.31c6.04-0.28 19.53-3.21 27.06-4.41c1.09-0.17 2.56-0.24 3.24 0"></path>
<path style="fill:none; fill-opacity:0%; fill-rule:evenodd; stroke:#000000; stroke-opacity:100%; stroke-width: 3pt; stroke-linejoin:round; stroke-linecap:round;" d="M38.77 48.5c1.12 1.12 1.36 2.62 1.36 4.17c0 4.16 0 27.29 0 39.08c0 3.31 0 5.71 0 6.5"></path>
<path style="fill:none; fill-opacity:0%; fill-rule:evenodd; stroke:#000000; stroke-opacity:100%; stroke-width: 3pt; stroke-linejoin:round; stroke-linecap:round;" d="M39.33 61.53c0 1.47-1.26 3.93-2.19 5.25c-6.33 8.9-11.09 13.59-21.87 22.56"></path>
<path style="fill:none; fill-opacity:0%; fill-rule:evenodd; stroke:#000000; stroke-opacity:100%; stroke-width: 3pt; stroke-linejoin:round; stroke-linecap:round;" d="M43.62 68c3.03 1.9 8 8.07 10.56 11.75"></path>
<path style="fill:none; fill-opacity:0%; fill-rule:evenodd; stroke:#000000; stroke-opacity:100%; stroke-width: 3pt; stroke-linejoin:round; stroke-linecap:round;" d="M60.25 11.75c1.43 1.81 1.89 3.57 2.28 7.47c3.09 31.03 9.09 57.03 27.81 74.72c4.97 4.7 4.83 0.78 4.11-7.26"></path>
<path style="fill:none; fill-opacity:0%; fill-rule:evenodd; stroke:#000000; stroke-opacity:100%; stroke-width: 3pt; stroke-linejoin:round; stroke-linecap:round;" d="M82.98 47.89c0.08 1 0.01 2.34-0.4 3.75c-2.63 9.07-11.26 27.99-26.02 39.32"></path>
<text x="5" y="20" font-size="20" fill="#999999">10</text><path style="fill:none; fill-opacity:0%; fill-rule:evenodd; stroke:#CC0000; stroke-opacity:100%; stroke-width: 3pt; stroke-linejoin:round; stroke-linecap:round;" d="M74.5 13.25c3.42 2.25 8.9 7.39 10.5 11.25"  ></path>

</g>

</svg>  
          
