<?xml version="1.0" standalone="no"?>
<!DOCTYPE svg PUBLIC "-//W3C//DTD SVG 1.1//EN"   "http://www.w3.org/Graphics/SVG/1.1/DTD/svg11.dtd">
<svg width="751" height="301"  version="1.1" xmlns="http://www.w3.org/2000/svg">
  <defs>
    <marker id="Triangle" viewBox="0 0 10 10" refX="0" refY="5" markerUnits="strokeWidth" markerWidth="3" style="stroke-opacity:0%;fill:#aaaaaa;" markerHeight="2" orient="auto">
      <path d="M 0 0 L 10 5 L 0 10 z" />
    </marker>
    
    <marker id="Arrow" viewBox="0 0 10 10" refX="5" refY="5" markerUnits="strokeWidth" markerWidth="1.8" style="stroke-opacity:0%;fill:#770000;" markerHeight="2" orient="auto">
      <path d="M 0 4 L 6 4 L 4 1 L 10 5 L 4 9 L 6 6 L 0 6 z" />
        <circle cx="5" cy="5" r="5" />
      </marker>
    
    <marker id="TriangleRed" viewBox="0 0 10 10" refX="0" refY="5" markerUnits="strokeWidth" markerWidth="3" style="stroke-opacity:0%;fill:#CC0000;" markerHeight="2" orient="auto">
      <path d="M 0 0 L 10 5 L 0 10 z" />
    </marker>
    
    <marker id="ArrowRed" viewBox="0 0 10 10" refX="5" refY="5" markerUnits="strokeWidth" markerWidth="1.8" style="stroke-opacity:0%;fill:#CC0000;" markerHeight="2" orient="auto">
      <path d="M 0 4 L 6 4 L 4 1 L 10 5 L 4 9 L 6 6 L 0 6 z" />
        <circle cx="5" cy="5" r="5" />
      </marker>
    
  </defs>
  
  <path style="fill:#ffffff; fill-opacity:100%; fill-rule:evenodd; stroke-width:0;" d="M 0 0 L 751 0 L 751 301 L 0 301 L 0 0" />

  <g transform="scale(1.3761467889908 1.3761467889908) translate(0, 0)">
<path style="fill:none; fill-rule:evenodd; stroke:#aaaaaa;  stroke-width:1pt; stroke-linecap:round;" d="m 109 0 L 0 0 L 0 109 L 109 109 L 109 0"></path><path style="fill:none; fill-opacity:0%; fill-rule:evenodd; stroke:#aaaaaa; stroke-opacity:100%; stroke-width: 1.5pt; stroke-linejoin:round; stroke-linecap:round;" d="M12.28 39.22c1.85 0.41 4.3 0.21 5.59 0c4.45-0.7 11.43-2.24 16.79-3.29c1.24-0.24 3.22-0.43 4.86-0.31"></path>
<path style="fill:none; fill-opacity:0%; fill-rule:evenodd; stroke:#aaaaaa; stroke-opacity:100%; stroke-width: 1.5pt; stroke-linejoin:round; stroke-linecap:round;" d="M26.61 16c1.19 1.19 1.79 3.25 1.79 4.92c0 0.78 0.23 44.77 0.06 64.08c-0.04 4.34-0.08 7.43-0.11 8.5"></path>
<path style="fill:none; fill-opacity:0%; fill-rule:evenodd; stroke:#aaaaaa; stroke-opacity:100%; stroke-width: 1.5pt; stroke-linejoin:round; stroke-linecap:round;" d="M27.69 39.03c0 2.59-0.83 6.4-1.34 7.83c-4.18 11.72-8.22 18.51-14.74 28.23"></path>
<path style="fill:none; fill-opacity:0%; fill-rule:evenodd; stroke:#aaaaaa; stroke-opacity:100%; stroke-width: 1.5pt; stroke-linejoin:round; stroke-linecap:round;" d="M31.25 44.38c2.44 1.52 6.45 6.44 8.5 9.38"></path>
<path style="fill:none; fill-opacity:0%; fill-rule:evenodd; stroke:#aaaaaa; stroke-opacity:100%; stroke-width: 1.5pt; stroke-linejoin:round; stroke-linecap:round;" d="M43.62 22.61c3.42 5.04 7.08 13.87 7.57 16.39"></path>
<path style="fill:none; fill-opacity:0%; fill-rule:evenodd; stroke:#aaaaaa; stroke-opacity:100%; stroke-width: 1.5pt; stroke-linejoin:round; stroke-linecap:round;" d="M60.31 19.19c1.87 2.94 6.36 10.65 7.1 15.42"></path>
<path style="fill:none; fill-opacity:0%; fill-rule:evenodd; stroke:#aaaaaa; stroke-opacity:100%; stroke-width: 1.5pt; stroke-linejoin:round; stroke-linecap:round;" d="M87.34 17.25c0.6 1.07 0.67 2.63-0.35 4.54C85 25.5 80.75 33.38 76.53 39.17"></path>
<path style="fill:none; fill-opacity:0%; fill-rule:evenodd; stroke:#aaaaaa; stroke-opacity:100%; stroke-width: 1.5pt; stroke-linejoin:round; stroke-linecap:round;" d="M64.92 45.62c0.36 1.16 0.26 2.65-0.18 4.04C62.38 57.12 59.12 64.38 54 72.07c-1.1 1.66-0.87 2.3 0.82 2.75c8.65 2.29 18.01 4.74 26.07 12.54c2.69 2.6 5.11 5.69 7.11 9.38"></path>
<path style="fill:none; fill-opacity:0%; fill-rule:evenodd; stroke:#aaaaaa; stroke-opacity:100%; stroke-width: 1.5pt; stroke-linejoin:round; stroke-linecap:round;" d="M78.53 56.65c0.34 1.35 0.48 3.43 0.06 4.74C75 72.62 67.25 86.5 47.52 94.5"></path>
<path style="fill:none; fill-opacity:0%; fill-rule:evenodd; stroke:#aaaaaa; stroke-opacity:100%; stroke-width: 1.5pt; stroke-linejoin:round; stroke-linecap:round;" d="M39.2 61.14c2.29 0.81 5.3 0.79 7.62 0.49c12.43-1.62 26.3-3.37 40.69-4.19c2.7-0.15 5.74-0.31 8.29 0.54"></path>

<text x="5" y="20" font-size="20" fill="#999999">1</text><path style="fill:none; fill-opacity:0%; fill-rule:evenodd; stroke:#CC0000; stroke-opacity:100%; stroke-width: 3pt; stroke-linejoin:round; stroke-linecap:round;" d="M12.28 39.22c1.85 0.41 4.3 0.21 5.59 0c4.45-0.7 11.43-2.24 16.79-3.29c1.24-0.24 3.22-0.43 4.86-0.31"  ></path>










</g><g transform="scale(1.3761467889908 1.3761467889908) translate(109, 0)">
<path style="fill:none; fill-rule:evenodd; stroke:#aaaaaa;  stroke-width:1pt; stroke-linecap:round;" d="m 109 0 L 0 0 L 0 109 L 109 109 L 109 0"></path><path style="fill:none; fill-opacity:0%; fill-rule:evenodd; stroke:#aaaaaa; stroke-opacity:100%; stroke-width: 1.5pt; stroke-linejoin:round; stroke-linecap:round;" d="M12.28 39.22c1.85 0.41 4.3 0.21 5.59 0c4.45-0.7 11.43-2.24 16.79-3.29c1.24-0.24 3.22-0.43 4.86-0.31"></path>
<path style="fill:none; fill-opacity:0%; fill-rule:evenodd; stroke:#aaaaaa; stroke-opacity:100%; stroke-width: 1.5pt; stroke-linejoin:round; stroke-linecap:round;" d="M26.61 16c1.19 1.19 1.79 3.25 1.79 4.92c0 0.78 0.23 44.77 0.06 64.08c-0.04 4.34-0.08 7.43-0.11 8.5"></path>
<path style="fill:none; fill-opacity:0%; fill-rule:evenodd; stroke:#aaaaaa; stroke-opacity:100%; stroke-width: 1.5pt; stroke-linejoin:round; stroke-linecap:round;" d="M27.69 39.03c0 2.59-0.83 6.4-1.34 7.83c-4.18 11.72-8.22 18.51-14.74 28.23"></path>
<path style="fill:none; fill-opacity:0%; fill-rule:evenodd; stroke:#aaaaaa; stroke-opacity:100%; stroke-width: 1.5pt; stroke-linejoin:round; stroke-linecap:round;" d="M31.25 44.38c2.44 1.52 6.45 6.44 8.5 9.38"></path>
<path style="fill:none; fill-opacity:0%; fill-rule:evenodd; stroke:#aaaaaa; stroke-opacity:100%; stroke-width: 1.5pt; stroke-linejoin:round; stroke-linecap:round;" d="M43.62 22.61c3.42 5.04 7.08 13.87 7.57 16.39"></path>
<path style="fill:none; fill-opacity:0%; fill-rule:evenodd; stroke:#aaaaaa; stroke-opacity:100%; stroke-width: 1.5pt; stroke-linejoin:round; stroke-linecap:round;" d="M60.31 19.19c1.87 2.94 6.36 10.65 7.1 15.42"></path>
<path style="fill:none; fill-opacity:0%; fill-rule:evenodd; stroke:#aaaaaa; stroke-opacity:100%; stroke-width: 1.5pt; stroke-linejoin:round; stroke-linecap:round;" d="M87.34 17.25c0.6 1.07 0.67 2.63-0.35 4.54C85 25.5 80.75 33.38 76.53 39.17"></path>
<path style="fill:none; fill-opacity:0%; fill-rule:evenodd; stroke:#aaaaaa; stroke-opacity:100%; stroke-width: 1.5pt; stroke-linejoin:round; stroke-linecap:round;" d="M64.92 45.62c0.36 1.16 0.26 2.65-0.18 4.04C62.38 57.12 59.12 64.38 54 72.07c-1.1 1.66-0.87 2.3 0.82 2.75c8.65 2.29 18.01 4.74 26.07 12.54c2.69 2.6 5.11 5.69 7.11 9.38"></path>
<path style="fill:none; fill-opacity:0%; fill-rule:evenodd; stroke:#aaaaaa; stroke-opacity:100%; stroke-width: 1.5pt; stroke-linejoin:round; stroke-linecap:round;" d="M78.53 56.65c0.34 1.35 0.48 3.43 0.06 4.74C75 72.62 67.25 86.5 47.52 94.5"></path>
<path style="fill:none; fill-opacity:0%; fill-rule:evenodd; stroke:#aaaaaa; stroke-opacity:100%; stroke-width: 1.5pt; stroke-linejoin:round; stroke-linecap:round;" d="M39.2 61.14c2.29 0.81 5.3 0.79 7.62 0.49c12.43-1.62 26.3-3.37 40.69-4.19c2.7-0.15 5.74-0.31 8.29 0.54"></path>

<path style="fill:none; fill-opacity:0%; fill-rule:evenodd; stroke:#000000; stroke-opacity:100%; stroke-width: 3pt; stroke-linejoin:round; stroke-linecap:round;" d="M12.28 39.22c1.85 0.41 4.3 0.21 5.59 0c4.45-0.7 11.43-2.24 16.79-3.29c1.24-0.24 3.22-0.43 4.86-0.31"></path>
<text x="5" y="20" font-size="20" fill="#999999">2</text><path style="fill:none; fill-opacity:0%; fill-rule:evenodd; stroke:#CC0000; stroke-opacity:100%; stroke-width: 3pt; stroke-linejoin:round; stroke-linecap:round;" d="M26.61 16c1.19 1.19 1.79 3.25 1.79 4.92c0 0.78 0.23 44.77 0.06 64.08c-0.04 4.34-0.08 7.43-0.11 8.5"  ></path>









</g><g transform="scale(1.3761467889908 1.3761467889908) translate(218, 0)">
<path style="fill:none; fill-rule:evenodd; stroke:#aaaaaa;  stroke-width:1pt; stroke-linecap:round;" d="m 109 0 L 0 0 L 0 109 L 109 109 L 109 0"></path><path style="fill:none; fill-opacity:0%; fill-rule:evenodd; stroke:#aaaaaa; stroke-opacity:100%; stroke-width: 1.5pt; stroke-linejoin:round; stroke-linecap:round;" d="M12.28 39.22c1.85 0.41 4.3 0.21 5.59 0c4.45-0.7 11.43-2.24 16.79-3.29c1.24-0.24 3.22-0.43 4.86-0.31"></path>
<path style="fill:none; fill-opacity:0%; fill-rule:evenodd; stroke:#aaaaaa; stroke-opacity:100%; stroke-width: 1.5pt; stroke-linejoin:round; stroke-linecap:round;" d="M26.61 16c1.19 1.19 1.79 3.25 1.79 4.92c0 0.78 0.23 44.77 0.06 64.08c-0.04 4.34-0.08 7.43-0.11 8.5"></path>
<path style="fill:none; fill-opacity:0%; fill-rule:evenodd; stroke:#aaaaaa; stroke-opacity:100%; stroke-width: 1.5pt; stroke-linejoin:round; stroke-linecap:round;" d="M27.69 39.03c0 2.59-0.83 6.4-1.34 7.83c-4.18 11.72-8.22 18.51-14.74 28.23"></path>
<path style="fill:none; fill-opacity:0%; fill-rule:evenodd; stroke:#aaaaaa; stroke-opacity:100%; stroke-width: 1.5pt; stroke-linejoin:round; stroke-linecap:round;" d="M31.25 44.38c2.44 1.52 6.45 6.44 8.5 9.38"></path>
<path style="fill:none; fill-opacity:0%; fill-rule:evenodd; stroke:#aaaaaa; stroke-opacity:100%; stroke-width: 1.5pt; stroke-linejoin:round; stroke-linecap:round;" d="M43.62 22.61c3.42 5.04 7.08 13.87 7.57 16.39"></path>
<path style="fill:none; fill-opacity:0%; fill-rule:evenodd; stroke:#aaaaaa; stroke-opacity:100%; stroke-width: 1.5pt; stroke-linejoin:round; stroke-linecap:round;" d="M60.31 19.19c1.87 2.94 6.36 10.65 7.1 15.42"></path>
<path style="fill:none; fill-opacity:0%; fill-rule:evenodd; stroke:#aaaaaa; stroke-opacity:100%; stroke-width: 1.5pt; stroke-linejoin:round; stroke-linecap:round;" d="M87.34 17.25c0.6 1.07 0.67 2.63-0.35 4.54C85 25.5 80.75 33.38 76.53 39.17"></path>
<path style="fill:none; fill-opacity:0%; fill-rule:evenodd; stroke:#aaaaaa; stroke-opacity:100%; stroke-width: 1.5pt; stroke-linejoin:round; stroke-linecap:round;" d="M64.92 45.62c0.36 1.16 0.26 2.65-0.18 4.04C62.38 57.12 59.12 64.38 54 72.07c-1.1 1.66-0.87 2.3 0.82 2.75c8.65 2.29 18.01 4.74 26.07 12.54c2.69 2.6 5.11 5.69 7.11 9.38"></path>
<path style="fill:none; fill-opacity:0%; fill-rule:evenodd; stroke:#aaaaaa; stroke-opacity:100%; stroke-width: 1.5pt; stroke-linejoin:round; stroke-linecap:round;" d="M78.53 56.65c0.34 1.35 0.48 3.43 0.06 4.74C75 72.62 67.25 86.5 47.52 94.5"></path>
<path style="fill:none; fill-opacity:0%; fill-rule:evenodd; stroke:#aaaaaa; stroke-opacity:100%; stroke-width: 1.5pt; stroke-linejoin:round; stroke-linecap:round;" d="M39.2 61.14c2.29 0.81 5.3 0.79 7.62 0.49c12.43-1.62 26.3-3.37 40.69-4.19c2.7-0.15 5.74-0.31 8.29 0.54"></path>

<path style="fill:none; fill-opacity:0%; fill-rule:evenodd; stroke:#000000; stroke-opacity:100%; stroke-width: 3pt; stroke-linejoin:round; stroke-linecap:round;" d="M12.28 39.22c1.85 0.41 4.3 0.21 5.59 0c4.45-0.7 11.43-2.24 16.79-3.29c1.24-0.24 3.22-0.43 4.86-0.31"></path>
<path style="fill:none; fill-opacity:0%; fill-rule:evenodd; stroke:#000000; stroke-opacity:100%; stroke-width: 3pt; stroke-linejoin:round; stroke-linecap:round;" d="M26.61 16c1.19 1.19 1.79 3.25 1.79 4.92c0 0.78 0.23 44.77 0.06 64.08c-0.04 4.34-0.08 7.43-0.11 8.5"></path>
<text x="5" y="20" font-size="20" fill="#999999">3</text><path style="fill:none; fill-opacity:0%; fill-rule:evenodd; stroke:#CC0000; stroke-opacity:100%; stroke-width: 3pt; stroke-linejoin:round; stroke-linecap:round;" d="M27.69 39.03c0 2.59-0.83 6.4-1.34 7.83c-4.18 11.72-8.22 18.51-14.74 28.23"  ></path>








</g><g transform="scale(1.3761467889908 1.3761467889908) translate(327, 0)">
<path style="fill:none; fill-rule:evenodd; stroke:#aaaaaa;  stroke-width:1pt; stroke-linecap:round;" d="m 109 0 L 0 0 L 0 109 L 109 109 L 109 0"></path><path style="fill:none; fill-opacity:0%; fill-rule:evenodd; stroke:#aaaaaa; stroke-opacity:100%; stroke-width: 1.5pt; stroke-linejoin:round; stroke-linecap:round;" d="M12.28 39.22c1.85 0.41 4.3 0.21 5.59 0c4.45-0.7 11.43-2.24 16.79-3.29c1.24-0.24 3.22-0.43 4.86-0.31"></path>
<path style="fill:none; fill-opacity:0%; fill-rule:evenodd; stroke:#aaaaaa; stroke-opacity:100%; stroke-width: 1.5pt; stroke-linejoin:round; stroke-linecap:round;" d="M26.61 16c1.19 1.19 1.79 3.25 1.79 4.92c0 0.78 0.23 44.77 0.06 64.08c-0.04 4.34-0.08 7.43-0.11 8.5"></path>
<path style="fill:none; fill-opacity:0%; fill-rule:evenodd; stroke:#aaaaaa; stroke-opacity:100%; stroke-width: 1.5pt; stroke-linejoin:round; stroke-linecap:round;" d="M27.69 39.03c0 2.59-0.83 6.4-1.34 7.83c-4.18 11.72-8.22 18.51-14.74 28.23"></path>
<path style="fill:none; fill-opacity:0%; fill-rule:evenodd; stroke:#aaaaaa; stroke-opacity:100%; stroke-width: 1.5pt; stroke-linejoin:round; stroke-linecap:round;" d="M31.25 44.38c2.44 1.52 6.45 6.44 8.5 9.38"></path>
<path style="fill:none; fill-opacity:0%; fill-rule:evenodd; stroke:#aaaaaa; stroke-opacity:100%; stroke-width: 1.5pt; stroke-linejoin:round; stroke-linecap:round;" d="M43.62 22.61c3.42 5.04 7.08 13.87 7.57 16.39"></path>
<path style="fill:none; fill-opacity:0%; fill-rule:evenodd; stroke:#aaaaaa; stroke-opacity:100%; stroke-width: 1.5pt; stroke-linejoin:round; stroke-linecap:round;" d="M60.31 19.19c1.87 2.94 6.36 10.65 7.1 15.42"></path>
<path style="fill:none; fill-opacity:0%; fill-rule:evenodd; stroke:#aaaaaa; stroke-opacity:100%; stroke-width: 1.5pt; stroke-linejoin:round; stroke-linecap:round;" d="M87.34 17.25c0.6 1.07 0.67 2.63-0.35 4.54C85 25.5 80.75 33.38 76.53 39.17"></path>
<path style="fill:none; fill-opacity:0%; fill-rule:evenodd; stroke:#aaaaaa; stroke-opacity:100%; stroke-width: 1.5pt; stroke-linejoin:round; stroke-linecap:round;" d="M64.92 45.62c0.36 1.16 0.26 2.65-0.18 4.04C62.38 57.12 59.12 64.38 54 72.07c-1.1 1.66-0.87 2.3 0.82 2.75c8.65 2.29 18.01 4.74 26.07 12.54c2.69 2.6 5.11 5.69 7.11 9.38"></path>
<path style="fill:none; fill-opacity:0%; fill-rule:evenodd; stroke:#aaaaaa; stroke-opacity:100%; stroke-width: 1.5pt; stroke-linejoin:round; stroke-linecap:round;" d="M78.53 56.65c0.34 1.35 0.48 3.43 0.06 4.74C75 72.62 67.25 86.5 47.52 94.5"></path>
<path style="fill:none; fill-opacity:0%; fill-rule:evenodd; stroke:#aaaaaa; stroke-opacity:100%; stroke-width: 1.5pt; stroke-linejoin:round; stroke-linecap:round;" d="M39.2 61.14c2.29 0.81 5.3 0.79 7.62 0.49c12.43-1.62 26.3-3.37 40.69-4.19c2.7-0.15 5.74-0.31 8.29 0.54"></path>

<path style="fill:none; fill-opacity:0%; fill-rule:evenodd; stroke:#000000; stroke-opacity:100%; stroke-width: 3pt; stroke-linejoin:round; stroke-linecap:round;" d="M12.28 39.22c1.85 0.41 4.3 0.21 5.59 0c4.45-0.7 11.43-2.24 16.79-3.29c1.24-0.24 3.22-0.43 4.86-0.31"></path>
<path style="fill:none; fill-opacity:0%; fill-rule:evenodd; stroke:#000000; stroke-opacity:100%; stroke-width: 3pt; stroke-linejoin:round; stroke-linecap:round;" d="M26.61 16c1.19 1.19 1.79 3.25 1.79 4.92c0 0.78 0.23 44.77 0.06 64.08c-0.04 4.34-0.08 7.43-0.11 8.5"></path>
<path style="fill:none; fill-opacity:0%; fill-rule:evenodd; stroke:#000000; stroke-opacity:100%; stroke-width: 3pt; stroke-linejoin:round; stroke-linecap:round;" d="M27.69 39.03c0 2.59-0.83 6.4-1.34 7.83c-4.18 11.72-8.22 18.51-14.74 28.23"></path>
<text x="5" y="20" font-size="20" fill="#999999">4</text><path style="fill:none; fill-opacity:0%; fill-rule:evenodd; stroke:#CC0000; stroke-opacity:100%; stroke-width: 3pt; stroke-linejoin:round; stroke-linecap:round;" d="M31.25 44.38c2.44 1.52 6.45 6.44 8.5 9.38"  ></path>







</g><g transform="scale(1.3761467889908 1.3761467889908) translate(436, 0)">
<path style="fill:none; fill-rule:evenodd; stroke:#aaaaaa;  stroke-width:1pt; stroke-linecap:round;" d="m 109 0 L 0 0 L 0 109 L 109 109 L 109 0"></path><path style="fill:none; fill-opacity:0%; fill-rule:evenodd; stroke:#aaaaaa; stroke-opacity:100%; stroke-width: 1.5pt; stroke-linejoin:round; stroke-linecap:round;" d="M12.28 39.22c1.85 0.41 4.3 0.21 5.59 0c4.45-0.7 11.43-2.24 16.79-3.29c1.24-0.24 3.22-0.43 4.86-0.31"></path>
<path style="fill:none; fill-opacity:0%; fill-rule:evenodd; stroke:#aaaaaa; stroke-opacity:100%; stroke-width: 1.5pt; stroke-linejoin:round; stroke-linecap:round;" d="M26.61 16c1.19 1.19 1.79 3.25 1.79 4.92c0 0.78 0.23 44.77 0.06 64.08c-0.04 4.34-0.08 7.43-0.11 8.5"></path>
<path style="fill:none; fill-opacity:0%; fill-rule:evenodd; stroke:#aaaaaa; stroke-opacity:100%; stroke-width: 1.5pt; stroke-linejoin:round; stroke-linecap:round;" d="M27.69 39.03c0 2.59-0.83 6.4-1.34 7.83c-4.18 11.72-8.22 18.51-14.74 28.23"></path>
<path style="fill:none; fill-opacity:0%; fill-rule:evenodd; stroke:#aaaaaa; stroke-opacity:100%; stroke-width: 1.5pt; stroke-linejoin:round; stroke-linecap:round;" d="M31.25 44.38c2.44 1.52 6.45 6.44 8.5 9.38"></path>
<path style="fill:none; fill-opacity:0%; fill-rule:evenodd; stroke:#aaaaaa; stroke-opacity:100%; stroke-width: 1.5pt; stroke-linejoin:round; stroke-linecap:round;" d="M43.62 22.61c3.42 5.04 7.08 13.87 7.57 16.39"></path>
<path style="fill:none; fill-opacity:0%; fill-rule:evenodd; stroke:#aaaaaa; stroke-opacity:100%; stroke-width: 1.5pt; stroke-linejoin:round; stroke-linecap:round;" d="M60.31 19.19c1.87 2.94 6.36 10.65 7.1 15.42"></path>
<path style="fill:none; fill-opacity:0%; fill-rule:evenodd; stroke:#aaaaaa; stroke-opacity:100%; stroke-width: 1.5pt; stroke-linejoin:round; stroke-linecap:round;" d="M87.34 17.25c0.6 1.07 0.67 2.63-0.35 4.54C85 25.5 80.75 33.38 76.53 39.17"></path>
<path style="fill:none; fill-opacity:0%; fill-rule:evenodd; stroke:#aaaaaa; stroke-opacity:100%; stroke-width: 1.5pt; stroke-linejoin:round; stroke-linecap:round;" d="M64.92 45.62c0.36 1.16 0.26 2.65-0.18 4.04C62.38 57.12 59.12 64.38 54 72.07c-1.1 1.66-0.87 2.3 0.82 2.75c8.65 2.29 18.01 4.74 26.07 12.54c2.69 2.6 5.11 5.69 7.11 9.38"></path>
<path style="fill:none; fill-opacity:0%; fill-rule:evenodd; stroke:#aaaaaa; stroke-opacity:100%; stroke-width: 1.5pt; stroke-linejoin:round; stroke-linecap:round;" d="M78.53 56.65c0.34 1.35 0.48 3.43 0.06 4.74C75 72.62 67.25 86.5 47.52 94.5"></path>
<path style="fill:none; fill-opacity:0%; fill-rule:evenodd; stroke:#aaaaaa; stroke-opacity:100%; stroke-width: 1.5pt; stroke-linejoin:round; stroke-linecap:round;" d="M39.2 61.14c2.29 0.81 5.3 0.79 7.62 0.49c12.43-1.62 26.3-3.37 40.69-4.19c2.7-0.15 5.74-0.31 8.29 0.54"></path>

<path style="fill:none; fill-opacity:0%; fill-rule:evenodd; stroke:#000000; stroke-opacity:100%; stroke-width: 3pt; stroke-linejoin:round; stroke-linecap:round;" d="M12.28 39.22c1.85 0.41 4.3 0.21 5.59 0c4.45-0.7 11.43-2.24 16.79-3.29c1.24-0.24 3.22-0.43 4.86-0.31"></path>
<path style="fill:none; fill-opacity:0%; fill-rule:evenodd; stroke:#000000; stroke-opacity:100%; stroke-width: 3pt; stroke-linejoin:round; stroke-linecap:round;" d="M26.61 16c1.19 1.19 1.79 3.25 1.79 4.92c0 0.78 0.23 44.77 0.06 64.08c-0.04 4.34-0.08 7.43-0.11 8.5"></path>
<path style="fill:none; fill-opacity:0%; fill-rule:evenodd; stroke:#000000; stroke-opacity:100%; stroke-width: 3pt; stroke-linejoin:round; stroke-linecap:round;" d="M27.69 39.03c0 2.59-0.83 6.4-1.34 7.83c-4.18 11.72-8.22 18.51-14.74 28.23"></path>
<path style="fill:none; fill-opacity:0%; fill-rule:evenodd; stroke:#000000; stroke-opacity:100%; stroke-width: 3pt; stroke-linejoin:round; stroke-linecap:round;" d="M31.25 44.38c2.44 1.52 6.45 6.44 8.5 9.38"></path>
<text x="5" y="20" font-size="20" fill="#999999">5</text><path style="fill:none; fill-opacity:0%; fill-rule:evenodd; stroke:#CC0000; stroke-opacity:100%; stroke-width: 3pt; stroke-linejoin:round; stroke-linecap:round;" d="M43.62 22.61c3.42 5.04 7.08 13.87 7.57 16.39"  ></path>






</g><g transform="scale(1.3761467889908 1.3761467889908) translate(0, 109)">
<path style="fill:none; fill-rule:evenodd; stroke:#aaaaaa;  stroke-width:1pt; stroke-linecap:round;" d="m 109 0 L 0 0 L 0 109 L 109 109 L 109 0"></path><path style="fill:none; fill-opacity:0%; fill-rule:evenodd; stroke:#aaaaaa; stroke-opacity:100%; stroke-width: 1.5pt; stroke-linejoin:round; stroke-linecap:round;" d="M12.28 39.22c1.85 0.41 4.3 0.21 5.59 0c4.45-0.7 11.43-2.24 16.79-3.29c1.24-0.24 3.22-0.43 4.86-0.31"></path>
<path style="fill:none; fill-opacity:0%; fill-rule:evenodd; stroke:#aaaaaa; stroke-opacity:100%; stroke-width: 1.5pt; stroke-linejoin:round; stroke-linecap:round;" d="M26.61 16c1.19 1.19 1.79 3.25 1.79 4.92c0 0.78 0.23 44.77 0.06 64.08c-0.04 4.34-0.08 7.43-0.11 8.5"></path>
<path style="fill:none; fill-opacity:0%; fill-rule:evenodd; stroke:#aaaaaa; stroke-opacity:100%; stroke-width: 1.5pt; stroke-linejoin:round; stroke-linecap:round;" d="M27.69 39.03c0 2.59-0.83 6.4-1.34 7.83c-4.18 11.72-8.22 18.51-14.74 28.23"></path>
<path style="fill:none; fill-opacity:0%; fill-rule:evenodd; stroke:#aaaaaa; stroke-opacity:100%; stroke-width: 1.5pt; stroke-linejoin:round; stroke-linecap:round;" d="M31.25 44.38c2.44 1.52 6.45 6.44 8.5 9.38"></path>
<path style="fill:none; fill-opacity:0%; fill-rule:evenodd; stroke:#aaaaaa; stroke-opacity:100%; stroke-width: 1.5pt; stroke-linejoin:round; stroke-linecap:round;" d="M43.62 22.61c3.42 5.04 7.08 13.87 7.57 16.39"></path>
<path style="fill:none; fill-opacity:0%; fill-rule:evenodd; stroke:#aaaaaa; stroke-opacity:100%; stroke-width: 1.5pt; stroke-linejoin:round; stroke-linecap:round;" d="M60.31 19.19c1.87 2.94 6.36 10.65 7.1 15.42"></path>
<path style="fill:none; fill-opacity:0%; fill-rule:evenodd; stroke:#aaaaaa; stroke-opacity:100%; stroke-width: 1.5pt; stroke-linejoin:round; stroke-linecap:round;" d="M87.34 17.25c0.6 1.07 0.67 2.63-0.35 4.54C85 25.5 80.75 33.38 76.53 39.17"></path>
<path style="fill:none; fill-opacity:0%; fill-rule:evenodd; stroke:#aaaaaa; stroke-opacity:100%; stroke-width: 1.5pt; stroke-linejoin:round; stroke-linecap:round;" d="M64.92 45.62c0.36 1.16 0.26 2.65-0.18 4.04C62.38 57.12 59.12 64.38 54 72.07c-1.1 1.66-0.87 2.3 0.82 2.75c8.65 2.29 18.01 4.74 26.07 12.54c2.69 2.6 5.11 5.69 7.11 9.38"></path>
<path style="fill:none; fill-opacity:0%; fill-rule:evenodd; stroke:#aaaaaa; stroke-opacity:100%; stroke-width: 1.5pt; stroke-linejoin:round; stroke-linecap:round;" d="M78.53 56.65c0.34 1.35 0.48 3.43 0.06 4.74C75 72.62 67.25 86.5 47.52 94.5"></path>
<path style="fill:none; fill-opacity:0%; fill-rule:evenodd; stroke:#aaaaaa; stroke-opacity:100%; stroke-width: 1.5pt; stroke-linejoin:round; stroke-linecap:round;" d="M39.2 61.14c2.29 0.81 5.3 0.79 7.62 0.49c12.43-1.62 26.3-3.37 40.69-4.19c2.7-0.15 5.74-0.31 8.29 0.54"></path>

<path style="fill:none; fill-opacity:0%; fill-rule:evenodd; stroke:#000000; stroke-opacity:100%; stroke-width: 3pt; stroke-linejoin:round; stroke-linecap:round;" d="M12.28 39.22c1.85 0.41 4.3 0.21 5.59 0c4.45-0.7 11.43-2.24 16.79-3.29c1.24-0.24 3.22-0.43 4.86-0.31"></path>
<path style="fill:none; fill-opacity:0%; fill-rule:evenodd; stroke:#000000; stroke-opacity:100%; stroke-width: 3pt; stroke-linejoin:round; stroke-linecap:round;" d="M26.61 16c1.19 1.19 1.79 3.25 1.79 4.92c0 0.78 0.23 44.77 0.06 64.08c-0.04 4.34-0.08 7.43-0.11 8.5"></path>
<path style="fill:none; fill-opacity:0%; fill-rule:evenodd; stroke:#000000; stroke-opacity:100%; stroke-width: 3pt; stroke-linejoin:round; stroke-linecap:round;" d="M27.69 39.03c0 2.59-0.83 6.4-1.34 7.83c-4.18 11.72-8.22 18.51-14.74 28.23"></path>
<path style="fill:none; fill-opacity:0%; fill-rule:evenodd; stroke:#000000; stroke-opacity:100%; stroke-width: 3pt; stroke-linejoin:round; stroke-linecap:round;" d="M31.25 44.38c2.44 1.52 6.45 6.44 8.5 9.38"></path>
<path style="fill:none; fill-opacity:0%; fill-rule:evenodd; stroke:#000000; stroke-opacity:100%; stroke-width: 3pt; stroke-linejoin:round; stroke-linecap:round;" d="M43.62 22.61c3.42 5.04 7.08 13.87 7.57 16.39"></path>
<text x="5" y="20" font-size="20" fill="#999999">6</text><path style="fill:none; fill-opacity:0%; fill-rule:evenodd; stroke:#CC0000; stroke-opacity:100%; stroke-width: 3pt; stroke-linejoin:round; stroke-linecap:round;" d="M60.31 19.19c1.87 2.94 6.36 10.65 7.1 15.42"  ></path>





</g><g transform="scale(1.3761467889908 1.3761467889908) translate(109, 109)">
<path style="fill:none; fill-rule:evenodd; stroke:#aaaaaa;  stroke-width:1pt; stroke-linecap:round;" d="m 109 0 L 0 0 L 0 109 L 109 109 L 109 0"></path><path style="fill:none; fill-opacity:0%; fill-rule:evenodd; stroke:#aaaaaa; stroke-opacity:100%; stroke-width: 1.5pt; stroke-linejoin:round; stroke-linecap:round;" d="M12.28 39.22c1.85 0.41 4.3 0.21 5.59 0c4.45-0.7 11.43-2.24 16.79-3.29c1.24-0.24 3.22-0.43 4.86-0.31"></path>
<path style="fill:none; fill-opacity:0%; fill-rule:evenodd; stroke:#aaaaaa; stroke-opacity:100%; stroke-width: 1.5pt; stroke-linejoin:round; stroke-linecap:round;" d="M26.61 16c1.19 1.19 1.79 3.25 1.79 4.92c0 0.78 0.23 44.77 0.06 64.08c-0.04 4.34-0.08 7.43-0.11 8.5"></path>
<path style="fill:none; fill-opacity:0%; fill-rule:evenodd; stroke:#aaaaaa; stroke-opacity:100%; stroke-width: 1.5pt; stroke-linejoin:round; stroke-linecap:round;" d="M27.69 39.03c0 2.59-0.83 6.4-1.34 7.83c-4.18 11.72-8.22 18.51-14.74 28.23"></path>
<path style="fill:none; fill-opacity:0%; fill-rule:evenodd; stroke:#aaaaaa; stroke-opacity:100%; stroke-width: 1.5pt; stroke-linejoin:round; stroke-linecap:round;" d="M31.25 44.38c2.44 1.52 6.45 6.44 8.5 9.38"></path>
<path style="fill:none; fill-opacity:0%; fill-rule:evenodd; stroke:#aaaaaa; stroke-opacity:100%; stroke-width: 1.5pt; stroke-linejoin:round; stroke-linecap:round;" d="M43.62 22.61c3.42 5.04 7.08 13.87 7.57 16.39"></path>
<path style="fill:none; fill-opacity:0%; fill-rule:evenodd; stroke:#aaaaaa; stroke-opacity:100%; stroke-width: 1.5pt; stroke-linejoin:round; stroke-linecap:round;" d="M60.31 19.19c1.87 2.94 6.36 10.65 7.1 15.42"></path>
<path style="fill:none; fill-opacity:0%; fill-rule:evenodd; stroke:#aaaaaa; stroke-opacity:100%; stroke-width: 1.5pt; stroke-linejoin:round; stroke-linecap:round;" d="M87.34 17.25c0.6 1.07 0.67 2.63-0.35 4.54C85 25.5 80.75 33.38 76.53 39.17"></path>
<path style="fill:none; fill-opacity:0%; fill-rule:evenodd; stroke:#aaaaaa; stroke-opacity:100%; stroke-width: 1.5pt; stroke-linejoin:round; stroke-linecap:round;" d="M64.92 45.62c0.36 1.16 0.26 2.65-0.18 4.04C62.38 57.12 59.12 64.38 54 72.07c-1.1 1.66-0.87 2.3 0.82 2.75c8.65 2.29 18.01 4.74 26.07 12.54c2.69 2.6 5.11 5.69 7.11 9.38"></path>
<path style="fill:none; fill-opacity:0%; fill-rule:evenodd; stroke:#aaaaaa; stroke-opacity:100%; stroke-width: 1.5pt; stroke-linejoin:round; stroke-linecap:round;" d="M78.53 56.65c0.34 1.35 0.48 3.43 0.06 4.74C75 72.62 67.25 86.5 47.52 94.5"></path>
<path style="fill:none; fill-opacity:0%; fill-rule:evenodd; stroke:#aaaaaa; stroke-opacity:100%; stroke-width: 1.5pt; stroke-linejoin:round; stroke-linecap:round;" d="M39.2 61.14c2.29 0.81 5.3 0.79 7.62 0.49c12.43-1.62 26.3-3.37 40.69-4.19c2.7-0.15 5.74-0.31 8.29 0.54"></path>

<path style="fill:none; fill-opacity:0%; fill-rule:evenodd; stroke:#000000; stroke-opacity:100%; stroke-width: 3pt; stroke-linejoin:round; stroke-linecap:round;" d="M12.28 39.22c1.85 0.41 4.3 0.21 5.59 0c4.45-0.7 11.43-2.24 16.79-3.29c1.24-0.24 3.22-0.43 4.86-0.31"></path>
<path style="fill:none; fill-opacity:0%; fill-rule:evenodd; stroke:#000000; stroke-opacity:100%; stroke-width: 3pt; stroke-linejoin:round; stroke-linecap:round;" d="M26.61 16c1.19 1.19 1.79 3.25 1.79 4.92c0 0.78 0.23 44.77 0.06 64.08c-0.04 4.34-0.08 7.43-0.11 8.5"></path>
<path style="fill:none; fill-opacity:0%; fill-rule:evenodd; stroke:#000000; stroke-opacity:100%; stroke-width: 3pt; stroke-linejoin:round; stroke-linecap:round;" d="M27.69 39.03c0 2.59-0.83 6.4-1.34 7.83c-4.18 11.72-8.22 18.51-14.74 28.23"></path>
<path style="fill:none; fill-opacity:0%; fill-rule:evenodd; stroke:#000000; stroke-opacity:100%; stroke-width: 3pt; stroke-linejoin:round; stroke-linecap:round;" d="M31.25 44.38c2.44 1.52 6.45 6.44 8.5 9.38"></path>
<path style="fill:none; fill-opacity:0%; fill-rule:evenodd; stroke:#000000; stroke-opacity:100%; stroke-width: 3pt; stroke-linejoin:round; stroke-linecap:round;" d="M43.62 22.61c3.42 5.04 7.08 13.87 7.57 16.39"></path>
<path style="fill:none; fill-opacity:0%; fill-rule:evenodd; stroke:#000000; stroke-opacity:100%; stroke-width: 3pt; stroke-linejoin:round; stroke-linecap:round;" d="M60.31 19.19c1.87 2.94 6.36 10.65 7.1 15.42"></path>
<text x="5" y="20" font-size="20" fill="#999999">7</text><path style="fill:none; fill-opacity:0%; fill-rule:evenodd; stroke:#CC0000; stroke-opacity:100%; stroke-width: 3pt; stroke-linejoin:round; stroke-linecap:round;" d="M87.34 17.25c0.6 1.07 0.67 2.63-0.35 4.54C85 25.5 80.75 33.38 76.53 39.17"  ></path>




</g><g transform="scale(1.3761467889908 1.3761467889908) translate(218, 109)">
<path style="fill:none; fill-rule:evenodd; stroke:#aaaaaa;  stroke-width:1pt; stroke-linecap:round;" d="m 109 0 L 0 0 L 0 109 L 109 109 L 109 0"></path><path style="fill:none; fill-opacity:0%; fill-rule:evenodd; stroke:#aaaaaa; stroke-opacity:100%; stroke-width: 1.5pt; stroke-linejoin:round; stroke-linecap:round;" d="M12.28 39.22c1.85 0.41 4.3 0.21 5.59 0c4.45-0.7 11.43-2.24 16.79-3.29c1.24-0.24 3.22-0.43 4.86-0.31"></path>
<path style="fill:none; fill-opacity:0%; fill-rule:evenodd; stroke:#aaaaaa; stroke-opacity:100%; stroke-width: 1.5pt; stroke-linejoin:round; stroke-linecap:round;" d="M26.61 16c1.19 1.19 1.79 3.25 1.79 4.92c0 0.78 0.23 44.77 0.06 64.08c-0.04 4.34-0.08 7.43-0.11 8.5"></path>
<path style="fill:none; fill-opacity:0%; fill-rule:evenodd; stroke:#aaaaaa; stroke-opacity:100%; stroke-width: 1.5pt; stroke-linejoin:round; stroke-linecap:round;" d="M27.69 39.03c0 2.59-0.83 6.4-1.34 7.83c-4.18 11.72-8.22 18.51-14.74 28.23"></path>
<path style="fill:none; fill-opacity:0%; fill-rule:evenodd; stroke:#aaaaaa; stroke-opacity:100%; stroke-width: 1.5pt; stroke-linejoin:round; stroke-linecap:round;" d="M31.25 44.38c2.44 1.52 6.45 6.44 8.5 9.38"></path>
<path style="fill:none; fill-opacity:0%; fill-rule:evenodd; stroke:#aaaaaa; stroke-opacity:100%; stroke-width: 1.5pt; stroke-linejoin:round; stroke-linecap:round;" d="M43.62 22.61c3.42 5.04 7.08 13.87 7.57 16.39"></path>
<path style="fill:none; fill-opacity:0%; fill-rule:evenodd; stroke:#aaaaaa; stroke-opacity:100%; stroke-width: 1.5pt; stroke-linejoin:round; stroke-linecap:round;" d="M60.31 19.19c1.87 2.94 6.36 10.65 7.1 15.42"></path>
<path style="fill:none; fill-opacity:0%; fill-rule:evenodd; stroke:#aaaaaa; stroke-opacity:100%; stroke-width: 1.5pt; stroke-linejoin:round; stroke-linecap:round;" d="M87.34 17.25c0.6 1.07 0.67 2.63-0.35 4.54C85 25.5 80.75 33.38 76.53 39.17"></path>
<path style="fill:none; fill-opacity:0%; fill-rule:evenodd; stroke:#aaaaaa; stroke-opacity:100%; stroke-width: 1.5pt; stroke-linejoin:round; stroke-linecap:round;" d="M64.92 45.62c0.36 1.16 0.26 2.65-0.18 4.04C62.38 57.12 59.12 64.38 54 72.07c-1.1 1.66-0.87 2.3 0.82 2.75c8.65 2.29 18.01 4.74 26.07 12.54c2.69 2.6 5.11 5.69 7.11 9.38"></path>
<path style="fill:none; fill-opacity:0%; fill-rule:evenodd; stroke:#aaaaaa; stroke-opacity:100%; stroke-width: 1.5pt; stroke-linejoin:round; stroke-linecap:round;" d="M78.53 56.65c0.34 1.35 0.48 3.43 0.06 4.74C75 72.62 67.25 86.5 47.52 94.5"></path>
<path style="fill:none; fill-opacity:0%; fill-rule:evenodd; stroke:#aaaaaa; stroke-opacity:100%; stroke-width: 1.5pt; stroke-linejoin:round; stroke-linecap:round;" d="M39.2 61.14c2.29 0.81 5.3 0.79 7.62 0.49c12.43-1.62 26.3-3.37 40.69-4.19c2.7-0.15 5.74-0.31 8.29 0.54"></path>

<path style="fill:none; fill-opacity:0%; fill-rule:evenodd; stroke:#000000; stroke-opacity:100%; stroke-width: 3pt; stroke-linejoin:round; stroke-linecap:round;" d="M12.28 39.22c1.85 0.41 4.3 0.21 5.59 0c4.45-0.7 11.43-2.24 16.79-3.29c1.24-0.24 3.22-0.43 4.86-0.31"></path>
<path style="fill:none; fill-opacity:0%; fill-rule:evenodd; stroke:#000000; stroke-opacity:100%; stroke-width: 3pt; stroke-linejoin:round; stroke-linecap:round;" d="M26.61 16c1.19 1.19 1.79 3.25 1.79 4.92c0 0.78 0.23 44.77 0.06 64.08c-0.04 4.34-0.08 7.43-0.11 8.5"></path>
<path style="fill:none; fill-opacity:0%; fill-rule:evenodd; stroke:#000000; stroke-opacity:100%; stroke-width: 3pt; stroke-linejoin:round; stroke-linecap:round;" d="M27.69 39.03c0 2.59-0.83 6.4-1.34 7.83c-4.18 11.72-8.22 18.51-14.74 28.23"></path>
<path style="fill:none; fill-opacity:0%; fill-rule:evenodd; stroke:#000000; stroke-opacity:100%; stroke-width: 3pt; stroke-linejoin:round; stroke-linecap:round;" d="M31.25 44.38c2.44 1.52 6.45 6.44 8.5 9.38"></path>
<path style="fill:none; fill-opacity:0%; fill-rule:evenodd; stroke:#000000; stroke-opacity:100%; stroke-width: 3pt; stroke-linejoin:round; stroke-linecap:round;" d="M43.62 22.61c3.42 5.04 7.08 13.87 7.57 16.39"></path>
<path style="fill:none; fill-opacity:0%; fill-rule:evenodd; stroke:#000000; stroke-opacity:100%; stroke-width: 3pt; stroke-linejoin:round; stroke-linecap:round;" d="M60.31 19.19c1.87 2.94 6.36 10.65 7.1 15.42"></path>
<path style="fill:none; fill-opacity:0%; fill-rule:evenodd; stroke:#000000; stroke-opacity:100%; stroke-width: 3pt; stroke-linejoin:round; stroke-linecap:round;" d="M87.34 17.25c0.6 1.07 0.67 2.63-0.35 4.54C85 25.5 80.75 33.38 76.53 39.17"></path>
<text x="5" y="20" font-size="20" fill="#999999">8</text><path style="fill:none; fill-opacity:0%; fill-rule:evenodd; stroke:#CC0000; stroke-opacity:100%; stroke-width: 3pt; stroke-linejoin:round; stroke-linecap:round;" d="M64.92 45.62c0.36 1.16 0.26 2.65-0.18 4.04C62.38 57.12 59.12 64.38 54 72.07c-1.1 1.66-0.87 2.3 0.82 2.75c8.65 2.29 18.01 4.74 26.07 12.54c2.69 2.6 5.11 5.69 7.11 9.38"  ></path>



</g><g transform="scale(1.3761467889908 1.3761467889908) translate(327, 109)">
<path style="fill:none; fill-rule:evenodd; stroke:#aaaaaa;  stroke-width:1pt; stroke-linecap:round;" d="m 109 0 L 0 0 L 0 109 L 109 109 L 109 0"></path><path style="fill:none; fill-opacity:0%; fill-rule:evenodd; stroke:#aaaaaa; stroke-opacity:100%; stroke-width: 1.5pt; stroke-linejoin:round; stroke-linecap:round;" d="M12.28 39.22c1.85 0.41 4.3 0.21 5.59 0c4.45-0.7 11.43-2.24 16.79-3.29c1.24-0.24 3.22-0.43 4.86-0.31"></path>
<path style="fill:none; fill-opacity:0%; fill-rule:evenodd; stroke:#aaaaaa; stroke-opacity:100%; stroke-width: 1.5pt; stroke-linejoin:round; stroke-linecap:round;" d="M26.61 16c1.19 1.19 1.79 3.25 1.79 4.92c0 0.78 0.23 44.77 0.06 64.08c-0.04 4.34-0.08 7.43-0.11 8.5"></path>
<path style="fill:none; fill-opacity:0%; fill-rule:evenodd; stroke:#aaaaaa; stroke-opacity:100%; stroke-width: 1.5pt; stroke-linejoin:round; stroke-linecap:round;" d="M27.69 39.03c0 2.59-0.83 6.4-1.34 7.83c-4.18 11.72-8.22 18.51-14.74 28.23"></path>
<path style="fill:none; fill-opacity:0%; fill-rule:evenodd; stroke:#aaaaaa; stroke-opacity:100%; stroke-width: 1.5pt; stroke-linejoin:round; stroke-linecap:round;" d="M31.25 44.38c2.44 1.52 6.45 6.44 8.5 9.38"></path>
<path style="fill:none; fill-opacity:0%; fill-rule:evenodd; stroke:#aaaaaa; stroke-opacity:100%; stroke-width: 1.5pt; stroke-linejoin:round; stroke-linecap:round;" d="M43.62 22.61c3.42 5.04 7.08 13.87 7.57 16.39"></path>
<path style="fill:none; fill-opacity:0%; fill-rule:evenodd; stroke:#aaaaaa; stroke-opacity:100%; stroke-width: 1.5pt; stroke-linejoin:round; stroke-linecap:round;" d="M60.31 19.19c1.87 2.94 6.36 10.65 7.1 15.42"></path>
<path style="fill:none; fill-opacity:0%; fill-rule:evenodd; stroke:#aaaaaa; stroke-opacity:100%; stroke-width: 1.5pt; stroke-linejoin:round; stroke-linecap:round;" d="M87.34 17.25c0.6 1.07 0.67 2.63-0.35 4.54C85 25.5 80.75 33.38 76.53 39.17"></path>
<path style="fill:none; fill-opacity:0%; fill-rule:evenodd; stroke:#aaaaaa; stroke-opacity:100%; stroke-width: 1.5pt; stroke-linejoin:round; stroke-linecap:round;" d="M64.92 45.62c0.36 1.16 0.26 2.65-0.18 4.04C62.38 57.12 59.12 64.38 54 72.07c-1.1 1.66-0.87 2.3 0.82 2.75c8.65 2.29 18.01 4.74 26.07 12.54c2.69 2.6 5.11 5.69 7.11 9.38"></path>
<path style="fill:none; fill-opacity:0%; fill-rule:evenodd; stroke:#aaaaaa; stroke-opacity:100%; stroke-width: 1.5pt; stroke-linejoin:round; stroke-linecap:round;" d="M78.53 56.65c0.34 1.35 0.48 3.43 0.06 4.74C75 72.62 67.25 86.5 47.52 94.5"></path>
<path style="fill:none; fill-opacity:0%; fill-rule:evenodd; stroke:#aaaaaa; stroke-opacity:100%; stroke-width: 1.5pt; stroke-linejoin:round; stroke-linecap:round;" d="M39.2 61.14c2.29 0.81 5.3 0.79 7.62 0.49c12.43-1.62 26.3-3.37 40.69-4.19c2.7-0.15 5.74-0.31 8.29 0.54"></path>

<path style="fill:none; fill-opacity:0%; fill-rule:evenodd; stroke:#000000; stroke-opacity:100%; stroke-width: 3pt; stroke-linejoin:round; stroke-linecap:round;" d="M12.28 39.22c1.85 0.41 4.3 0.21 5.59 0c4.45-0.7 11.43-2.24 16.79-3.29c1.24-0.24 3.22-0.43 4.86-0.31"></path>
<path style="fill:none; fill-opacity:0%; fill-rule:evenodd; stroke:#000000; stroke-opacity:100%; stroke-width: 3pt; stroke-linejoin:round; stroke-linecap:round;" d="M26.61 16c1.19 1.19 1.79 3.25 1.79 4.92c0 0.78 0.23 44.77 0.06 64.08c-0.04 4.34-0.08 7.43-0.11 8.5"></path>
<path style="fill:none; fill-opacity:0%; fill-rule:evenodd; stroke:#000000; stroke-opacity:100%; stroke-width: 3pt; stroke-linejoin:round; stroke-linecap:round;" d="M27.69 39.03c0 2.59-0.83 6.4-1.34 7.83c-4.18 11.72-8.22 18.51-14.74 28.23"></path>
<path style="fill:none; fill-opacity:0%; fill-rule:evenodd; stroke:#000000; stroke-opacity:100%; stroke-width: 3pt; stroke-linejoin:round; stroke-linecap:round;" d="M31.25 44.38c2.44 1.52 6.45 6.44 8.5 9.38"></path>
<path style="fill:none; fill-opacity:0%; fill-rule:evenodd; stroke:#000000; stroke-opacity:100%; stroke-width: 3pt; stroke-linejoin:round; stroke-linecap:round;" d="M43.62 22.61c3.42 5.04 7.08 13.87 7.57 16.39"></path>
<path style="fill:none; fill-opacity:0%; fill-rule:evenodd; stroke:#000000; stroke-opacity:100%; stroke-width: 3pt; stroke-linejoin:round; stroke-linecap:round;" d="M60.31 19.19c1.87 2.94 6.36 10.65 7.1 15.42"></path>
<path style="fill:none; fill-opacity:0%; fill-rule:evenodd; stroke:#000000; stroke-opacity:100%; stroke-width: 3pt; stroke-linejoin:round; stroke-linecap:round;" d="M87.34 17.25c0.6 1.07 0.67 2.63-0.35 4.54C85 25.5 80.75 33.38 76.53 39.17"></path>
<path style="fill:none; fill-opacity:0%; fill-rule:evenodd; stroke:#000000; stroke-opacity:100%; stroke-width: 3pt; stroke-linejoin:round; stroke-linecap:round;" d="M64.92 45.62c0.36 1.16 0.26 2.65-0.18 4.04C62.38 57.12 59.12 64.38 54 72.07c-1.1 1.66-0.87 2.3 0.82 2.75c8.65 2.29 18.01 4.74 26.07 12.54c2.69 2.6 5.11 5.69 7.11 9.38"></path>
<text x="5" y="20" font-size="20" fill="#999999">9</text><path style="fill:none; fill-opacity:0%; fill-rule:evenodd; stroke:#CC0000; stroke-opacity:100%; stroke-width: 3pt; stroke-linejoin:round; stroke-linecap:round;" d="M78.53 56.65c0.34 1.35 0.48 3.43 0.06 4.74C75 72.62 67.25 86.5 47.52 94.5"  ></path>


</g><g transform="scale(1.3761467889908 1.3761467889908) translate(436, 109)">
<path style="fill:none; fill-rule:evenodd; stroke:#aaaaaa;  stroke-width:1pt; stroke-linecap:round;" d="m 109 0 L 0 0 L 0 109 L 109 109 L 109 0"></path><path style="fill:none; fill-opacity:0%; fill-rule:evenodd; stroke:#aaaaaa; stroke-opacity:100%; stroke-width: 1.5pt; stroke-linejoin:round; stroke-linecap:round;" d="M12.28 39.22c1.85 0.41 4.3 0.21 5.59 0c4.45-0.7 11.43-2.24 16.79-3.29c1.24-0.24 3.22-0.43 4.86-0.31"></path>
<path style="fill:none; fill-opacity:0%; fill-rule:evenodd; stroke:#aaaaaa; stroke-opacity:100%; stroke-width: 1.5pt; stroke-linejoin:round; stroke-linecap:round;" d="M26.61 16c1.19 1.19 1.79 3.25 1.79 4.92c0 0.78 0.23 44.77 0.06 64.08c-0.04 4.34-0.08 7.43-0.11 8.5"></path>
<path style="fill:none; fill-opacity:0%; fill-rule:evenodd; stroke:#aaaaaa; stroke-opacity:100%; stroke-width: 1.5pt; stroke-linejoin:round; stroke-linecap:round;" d="M27.69 39.03c0 2.59-0.83 6.4-1.34 7.83c-4.18 11.72-8.22 18.51-14.74 28.23"></path>
<path style="fill:none; fill-opacity:0%; fill-rule:evenodd; stroke:#aaaaaa; stroke-opacity:100%; stroke-width: 1.5pt; stroke-linejoin:round; stroke-linecap:round;" d="M31.25 44.38c2.44 1.52 6.45 6.44 8.5 9.38"></path>
<path style="fill:none; fill-opacity:0%; fill-rule:evenodd; stroke:#aaaaaa; stroke-opacity:100%; stroke-width: 1.5pt; stroke-linejoin:round; stroke-linecap:round;" d="M43.62 22.61c3.42 5.04 7.08 13.87 7.57 16.39"></path>
<path style="fill:none; fill-opacity:0%; fill-rule:evenodd; stroke:#aaaaaa; stroke-opacity:100%; stroke-width: 1.5pt; stroke-linejoin:round; stroke-linecap:round;" d="M60.31 19.19c1.87 2.94 6.36 10.65 7.1 15.42"></path>
<path style="fill:none; fill-opacity:0%; fill-rule:evenodd; stroke:#aaaaaa; stroke-opacity:100%; stroke-width: 1.5pt; stroke-linejoin:round; stroke-linecap:round;" d="M87.34 17.25c0.6 1.07 0.67 2.63-0.35 4.54C85 25.5 80.75 33.38 76.53 39.17"></path>
<path style="fill:none; fill-opacity:0%; fill-rule:evenodd; stroke:#aaaaaa; stroke-opacity:100%; stroke-width: 1.5pt; stroke-linejoin:round; stroke-linecap:round;" d="M64.92 45.62c0.36 1.16 0.26 2.65-0.18 4.04C62.38 57.12 59.12 64.38 54 72.07c-1.1 1.66-0.87 2.3 0.82 2.75c8.65 2.29 18.01 4.74 26.07 12.54c2.69 2.6 5.11 5.69 7.11 9.38"></path>
<path style="fill:none; fill-opacity:0%; fill-rule:evenodd; stroke:#aaaaaa; stroke-opacity:100%; stroke-width: 1.5pt; stroke-linejoin:round; stroke-linecap:round;" d="M78.53 56.65c0.34 1.35 0.48 3.43 0.06 4.74C75 72.62 67.25 86.5 47.52 94.5"></path>
<path style="fill:none; fill-opacity:0%; fill-rule:evenodd; stroke:#aaaaaa; stroke-opacity:100%; stroke-width: 1.5pt; stroke-linejoin:round; stroke-linecap:round;" d="M39.2 61.14c2.29 0.81 5.3 0.79 7.62 0.49c12.43-1.62 26.3-3.37 40.69-4.19c2.7-0.15 5.74-0.31 8.29 0.54"></path>

<path style="fill:none; fill-opacity:0%; fill-rule:evenodd; stroke:#000000; stroke-opacity:100%; stroke-width: 3pt; stroke-linejoin:round; stroke-linecap:round;" d="M12.28 39.22c1.85 0.41 4.3 0.21 5.59 0c4.45-0.7 11.43-2.24 16.79-3.29c1.24-0.24 3.22-0.43 4.86-0.31"></path>
<path style="fill:none; fill-opacity:0%; fill-rule:evenodd; stroke:#000000; stroke-opacity:100%; stroke-width: 3pt; stroke-linejoin:round; stroke-linecap:round;" d="M26.61 16c1.19 1.19 1.79 3.25 1.79 4.92c0 0.78 0.23 44.77 0.06 64.08c-0.04 4.34-0.08 7.43-0.11 8.5"></path>
<path style="fill:none; fill-opacity:0%; fill-rule:evenodd; stroke:#000000; stroke-opacity:100%; stroke-width: 3pt; stroke-linejoin:round; stroke-linecap:round;" d="M27.69 39.03c0 2.59-0.83 6.4-1.34 7.83c-4.18 11.72-8.22 18.51-14.74 28.23"></path>
<path style="fill:none; fill-opacity:0%; fill-rule:evenodd; stroke:#000000; stroke-opacity:100%; stroke-width: 3pt; stroke-linejoin:round; stroke-linecap:round;" d="M31.25 44.38c2.44 1.52 6.45 6.44 8.5 9.38"></path>
<path style="fill:none; fill-opacity:0%; fill-rule:evenodd; stroke:#000000; stroke-opacity:100%; stroke-width: 3pt; stroke-linejoin:round; stroke-linecap:round;" d="M43.62 22.61c3.42 5.04 7.08 13.87 7.57 16.39"></path>
<path style="fill:none; fill-opacity:0%; fill-rule:evenodd; stroke:#000000; stroke-opacity:100%; stroke-width: 3pt; stroke-linejoin:round; stroke-linecap:round;" d="M60.31 19.19c1.87 2.94 6.36 10.65 7.1 15.42"></path>
<path style="fill:none; fill-opacity:0%; fill-rule:evenodd; stroke:#000000; stroke-opacity:100%; stroke-width: 3pt; stroke-linejoin:round; stroke-linecap:round;" d="M87.34 17.25c0.6 1.07 0.67 2.63-0.35 4.54C85 25.5 80.75 33.38 76.53 39.17"></path>
<path style="fill:none; fill-opacity:0%; fill-rule:evenodd; stroke:#000000; stroke-opacity:100%; stroke-width: 3pt; stroke-linejoin:round; stroke-linecap:round;" d="M64.92 45.62c0.36 1.16 0.26 2.65-0.18 4.04C62.38 57.12 59.12 64.38 54 72.07c-1.1 1.66-0.87 2.3 0.82 2.75c8.65 2.29 18.01 4.74 26.07 12.54c2.69 2.6 5.11 5.69 7.11 9.38"></path>
<path style="fill:none; fill-opacity:0%; fill-rule:evenodd; stroke:#000000; stroke-opacity:100%; stroke-width: 3pt; stroke-linejoin:round; stroke-linecap:round;" d="M78.53 56.65c0.34 1.35 0.48 3.43 0.06 4.74C75 72.62 67.25 86.5 47.52 94.5"></path>
<text x="5" y="20" font-size="20" fill="#999999">10</text><path style="fill:none; fill-opacity:0%; fill-rule:evenodd; stroke:#CC0000; stroke-opacity:100%; stroke-width: 3pt; stroke-linejoin:round; stroke-linecap:round;" d="M39.2 61.14c2.29 0.81 5.3 0.79 7.62 0.49c12.43-1.62 26.3-3.37 40.69-4.19c2.7-0.15 5.74-0.31 8.29 0.54"  ></path>

</g>

</svg>  
          
