<?xml version="1.0" standalone="no"?>
<!DOCTYPE svg PUBLIC "-//W3C//DTD SVG 1.1//EN"   "http://www.w3.org/Graphics/SVG/1.1/DTD/svg11.dtd">
<svg width="751" height="301"  version="1.1" xmlns="http://www.w3.org/2000/svg">
  <defs>
    <marker id="Triangle" viewBox="0 0 10 10" refX="0" refY="5" markerUnits="strokeWidth" markerWidth="3" style="stroke-opacity:0%;fill:#aaaaaa;" markerHeight="2" orient="auto">
      <path d="M 0 0 L 10 5 L 0 10 z" />
    </marker>
    
    <marker id="Arrow" viewBox="0 0 10 10" refX="5" refY="5" markerUnits="strokeWidth" markerWidth="1.8" style="stroke-opacity:0%;fill:#770000;" markerHeight="2" orient="auto">
      <path d="M 0 4 L 6 4 L 4 1 L 10 5 L 4 9 L 6 6 L 0 6 z" />
        <circle cx="5" cy="5" r="5" />
      </marker>
    
    <marker id="TriangleRed" viewBox="0 0 10 10" refX="0" refY="5" markerUnits="strokeWidth" markerWidth="3" style="stroke-opacity:0%;fill:#CC0000;" markerHeight="2" orient="auto">
      <path d="M 0 0 L 10 5 L 0 10 z" />
    </marker>
    
    <marker id="ArrowRed" viewBox="0 0 10 10" refX="5" refY="5" markerUnits="strokeWidth" markerWidth="1.8" style="stroke-opacity:0%;fill:#CC0000;" markerHeight="2" orient="auto">
      <path d="M 0 4 L 6 4 L 4 1 L 10 5 L 4 9 L 6 6 L 0 6 z" />
        <circle cx="5" cy="5" r="5" />
      </marker>
    
  </defs>
  
  <path style="fill:#ffffff; fill-opacity:100%; fill-rule:evenodd; stroke-width:0;" d="M 0 0 L 751 0 L 751 301 L 0 301 L 0 0" />

  <g transform="scale(1.3761467889908 1.3761467889908) translate(0, 0)">
<path style="fill:none; fill-rule:evenodd; stroke:#aaaaaa;  stroke-width:1pt; stroke-linecap:round;" d="m 109 0 L 0 0 L 0 109 L 109 109 L 109 0"></path><path style="fill:none; fill-opacity:0%; fill-rule:evenodd; stroke:#aaaaaa; stroke-opacity:100%; stroke-width: 1.5pt; stroke-linejoin:round; stroke-linecap:round;" d="M23.5 30.14c1.56 0.63 3.4 0.43 5.01 0.22c4.65-0.6 11.13-1.95 15.38-2.46c0.99-0.12 1.9-0.17 2.87-0.16"></path>
<path style="fill:none; fill-opacity:0%; fill-rule:evenodd; stroke:#aaaaaa; stroke-opacity:100%; stroke-width: 1.5pt; stroke-linejoin:round; stroke-linecap:round;" d="M14.75 45.7c3.18 1.13 7.02 0.58 10.27 0.06c11.85-1.89 41.57-6.6 57.61-8.15c3.24-0.31 6.18-0.5 9.36 0.18"></path>
<path style="fill:none; fill-opacity:0%; fill-rule:evenodd; stroke:#aaaaaa; stroke-opacity:100%; stroke-width: 1.5pt; stroke-linejoin:round; stroke-linecap:round;" d="M40.25 50.43c0.66 0.66 1.02 2.07 1.02 3.02c0 1.02 0.08 24.06 0.08 29.67"></path>
<path style="fill:none; fill-opacity:0%; fill-rule:evenodd; stroke:#aaaaaa; stroke-opacity:100%; stroke-width: 1.5pt; stroke-linejoin:round; stroke-linecap:round;" d="M42.44 63.88c3.93-0.5 8.06-1.38 12.5-2.07c1.33-0.21 1.68-0.19 2.53 0"></path>
<path style="fill:none; fill-opacity:0%; fill-rule:evenodd; stroke:#aaaaaa; stroke-opacity:100%; stroke-width: 1.5pt; stroke-linejoin:round; stroke-linecap:round;" d="M25.96 63.63c0.83 0.83 1.02 1.99 1.02 3.02c0 0.79 0.08 16.23 0.08 21.69"></path>
<path style="fill:none; fill-opacity:0%; fill-rule:evenodd; stroke:#aaaaaa; stroke-opacity:100%; stroke-width: 1.5pt; stroke-linejoin:round; stroke-linecap:round;" d="M18.25 90.6c0.7 0.7 1.9 0.97 3.67 0.34C35.88 86 45 82.62 59.5 77"></path>
<path style="fill:none; fill-opacity:0%; fill-rule:evenodd; stroke:#aaaaaa; stroke-opacity:100%; stroke-width: 1.5pt; stroke-linejoin:round; stroke-linecap:round;" d="M56.25 13.75c1.73 1.73 2.14 3.47 2.56 7.2c3.07 27.43 9.82 54.43 31.07 72.32c5.95 5.01 5.33 1.24 4.47-6.44"></path>
<path style="fill:none; fill-opacity:0%; fill-rule:evenodd; stroke:#aaaaaa; stroke-opacity:100%; stroke-width: 1.5pt; stroke-linejoin:round; stroke-linecap:round;" d="M71.75 18c3.59 1.85 9.33 6.08 11 9.25"></path>

<text x="5" y="20" font-size="20" fill="#999999">1</text><path style="fill:none; fill-opacity:0%; fill-rule:evenodd; stroke:#CC0000; stroke-opacity:100%; stroke-width: 3pt; stroke-linejoin:round; stroke-linecap:round;" d="M23.5 30.14c1.56 0.63 3.4 0.43 5.01 0.22c4.65-0.6 11.13-1.95 15.38-2.46c0.99-0.12 1.9-0.17 2.87-0.16" marker-end="url(#TriangleRed)" marker-start="url(#ArrowRed)" ></path>








</g><g transform="scale(1.3761467889908 1.3761467889908) translate(109, 0)">
<path style="fill:none; fill-rule:evenodd; stroke:#aaaaaa;  stroke-width:1pt; stroke-linecap:round;" d="m 109 0 L 0 0 L 0 109 L 109 109 L 109 0"></path><path style="fill:none; fill-opacity:0%; fill-rule:evenodd; stroke:#aaaaaa; stroke-opacity:100%; stroke-width: 1.5pt; stroke-linejoin:round; stroke-linecap:round;" d="M23.5 30.14c1.56 0.63 3.4 0.43 5.01 0.22c4.65-0.6 11.13-1.95 15.38-2.46c0.99-0.12 1.9-0.17 2.87-0.16"></path>
<path style="fill:none; fill-opacity:0%; fill-rule:evenodd; stroke:#aaaaaa; stroke-opacity:100%; stroke-width: 1.5pt; stroke-linejoin:round; stroke-linecap:round;" d="M14.75 45.7c3.18 1.13 7.02 0.58 10.27 0.06c11.85-1.89 41.57-6.6 57.61-8.15c3.24-0.31 6.18-0.5 9.36 0.18"></path>
<path style="fill:none; fill-opacity:0%; fill-rule:evenodd; stroke:#aaaaaa; stroke-opacity:100%; stroke-width: 1.5pt; stroke-linejoin:round; stroke-linecap:round;" d="M40.25 50.43c0.66 0.66 1.02 2.07 1.02 3.02c0 1.02 0.08 24.06 0.08 29.67"></path>
<path style="fill:none; fill-opacity:0%; fill-rule:evenodd; stroke:#aaaaaa; stroke-opacity:100%; stroke-width: 1.5pt; stroke-linejoin:round; stroke-linecap:round;" d="M42.44 63.88c3.93-0.5 8.06-1.38 12.5-2.07c1.33-0.21 1.68-0.19 2.53 0"></path>
<path style="fill:none; fill-opacity:0%; fill-rule:evenodd; stroke:#aaaaaa; stroke-opacity:100%; stroke-width: 1.5pt; stroke-linejoin:round; stroke-linecap:round;" d="M25.96 63.63c0.83 0.83 1.02 1.99 1.02 3.02c0 0.79 0.08 16.23 0.08 21.69"></path>
<path style="fill:none; fill-opacity:0%; fill-rule:evenodd; stroke:#aaaaaa; stroke-opacity:100%; stroke-width: 1.5pt; stroke-linejoin:round; stroke-linecap:round;" d="M18.25 90.6c0.7 0.7 1.9 0.97 3.67 0.34C35.88 86 45 82.62 59.5 77"></path>
<path style="fill:none; fill-opacity:0%; fill-rule:evenodd; stroke:#aaaaaa; stroke-opacity:100%; stroke-width: 1.5pt; stroke-linejoin:round; stroke-linecap:round;" d="M56.25 13.75c1.73 1.73 2.14 3.47 2.56 7.2c3.07 27.43 9.82 54.43 31.07 72.32c5.95 5.01 5.33 1.24 4.47-6.44"></path>
<path style="fill:none; fill-opacity:0%; fill-rule:evenodd; stroke:#aaaaaa; stroke-opacity:100%; stroke-width: 1.5pt; stroke-linejoin:round; stroke-linecap:round;" d="M71.75 18c3.59 1.85 9.33 6.08 11 9.25"></path>

<path style="fill:none; fill-opacity:0%; fill-rule:evenodd; stroke:#000000; stroke-opacity:100%; stroke-width: 3pt; stroke-linejoin:round; stroke-linecap:round;" d="M23.5 30.14c1.56 0.63 3.4 0.43 5.01 0.22c4.65-0.6 11.13-1.95 15.38-2.46c0.99-0.12 1.9-0.17 2.87-0.16"></path>
<text x="5" y="20" font-size="20" fill="#999999">2</text><path style="fill:none; fill-opacity:0%; fill-rule:evenodd; stroke:#CC0000; stroke-opacity:100%; stroke-width: 3pt; stroke-linejoin:round; stroke-linecap:round;" d="M14.75 45.7c3.18 1.13 7.02 0.58 10.27 0.06c11.85-1.89 41.57-6.6 57.61-8.15c3.24-0.31 6.18-0.5 9.36 0.18" marker-end="url(#TriangleRed)" marker-start="url(#ArrowRed)" ></path>







</g><g transform="scale(1.3761467889908 1.3761467889908) translate(218, 0)">
<path style="fill:none; fill-rule:evenodd; stroke:#aaaaaa;  stroke-width:1pt; stroke-linecap:round;" d="m 109 0 L 0 0 L 0 109 L 109 109 L 109 0"></path><path style="fill:none; fill-opacity:0%; fill-rule:evenodd; stroke:#aaaaaa; stroke-opacity:100%; stroke-width: 1.5pt; stroke-linejoin:round; stroke-linecap:round;" d="M23.5 30.14c1.56 0.63 3.4 0.43 5.01 0.22c4.65-0.6 11.13-1.95 15.38-2.46c0.99-0.12 1.9-0.17 2.87-0.16"></path>
<path style="fill:none; fill-opacity:0%; fill-rule:evenodd; stroke:#aaaaaa; stroke-opacity:100%; stroke-width: 1.5pt; stroke-linejoin:round; stroke-linecap:round;" d="M14.75 45.7c3.18 1.13 7.02 0.58 10.27 0.06c11.85-1.89 41.57-6.6 57.61-8.15c3.24-0.31 6.18-0.5 9.36 0.18"></path>
<path style="fill:none; fill-opacity:0%; fill-rule:evenodd; stroke:#aaaaaa; stroke-opacity:100%; stroke-width: 1.5pt; stroke-linejoin:round; stroke-linecap:round;" d="M40.25 50.43c0.66 0.66 1.02 2.07 1.02 3.02c0 1.02 0.08 24.06 0.08 29.67"></path>
<path style="fill:none; fill-opacity:0%; fill-rule:evenodd; stroke:#aaaaaa; stroke-opacity:100%; stroke-width: 1.5pt; stroke-linejoin:round; stroke-linecap:round;" d="M42.44 63.88c3.93-0.5 8.06-1.38 12.5-2.07c1.33-0.21 1.68-0.19 2.53 0"></path>
<path style="fill:none; fill-opacity:0%; fill-rule:evenodd; stroke:#aaaaaa; stroke-opacity:100%; stroke-width: 1.5pt; stroke-linejoin:round; stroke-linecap:round;" d="M25.96 63.63c0.83 0.83 1.02 1.99 1.02 3.02c0 0.79 0.08 16.23 0.08 21.69"></path>
<path style="fill:none; fill-opacity:0%; fill-rule:evenodd; stroke:#aaaaaa; stroke-opacity:100%; stroke-width: 1.5pt; stroke-linejoin:round; stroke-linecap:round;" d="M18.25 90.6c0.7 0.7 1.9 0.97 3.67 0.34C35.88 86 45 82.62 59.5 77"></path>
<path style="fill:none; fill-opacity:0%; fill-rule:evenodd; stroke:#aaaaaa; stroke-opacity:100%; stroke-width: 1.5pt; stroke-linejoin:round; stroke-linecap:round;" d="M56.25 13.75c1.73 1.73 2.14 3.47 2.56 7.2c3.07 27.43 9.82 54.43 31.07 72.32c5.95 5.01 5.33 1.24 4.47-6.44"></path>
<path style="fill:none; fill-opacity:0%; fill-rule:evenodd; stroke:#aaaaaa; stroke-opacity:100%; stroke-width: 1.5pt; stroke-linejoin:round; stroke-linecap:round;" d="M71.75 18c3.59 1.85 9.33 6.08 11 9.25"></path>

<path style="fill:none; fill-opacity:0%; fill-rule:evenodd; stroke:#000000; stroke-opacity:100%; stroke-width: 3pt; stroke-linejoin:round; stroke-linecap:round;" d="M23.5 30.14c1.56 0.63 3.4 0.43 5.01 0.22c4.65-0.6 11.13-1.95 15.38-2.46c0.99-0.12 1.9-0.17 2.87-0.16"></path>
<path style="fill:none; fill-opacity:0%; fill-rule:evenodd; stroke:#000000; stroke-opacity:100%; stroke-width: 3pt; stroke-linejoin:round; stroke-linecap:round;" d="M14.75 45.7c3.18 1.13 7.02 0.58 10.27 0.06c11.85-1.89 41.57-6.6 57.61-8.15c3.24-0.31 6.18-0.5 9.36 0.18"></path>
<text x="5" y="20" font-size="20" fill="#999999">3</text><path style="fill:none; fill-opacity:0%; fill-rule:evenodd; stroke:#CC0000; stroke-opacity:100%; stroke-width: 3pt; stroke-linejoin:round; stroke-linecap:round;" d="M40.25 50.43c0.66 0.66 1.02 2.07 1.02 3.02c0 1.02 0.08 24.06 0.08 29.67" marker-end="url(#TriangleRed)" marker-start="url(#ArrowRed)" ></path>






</g><g transform="scale(1.3761467889908 1.3761467889908) translate(327, 0)">
<path style="fill:none; fill-rule:evenodd; stroke:#aaaaaa;  stroke-width:1pt; stroke-linecap:round;" d="m 109 0 L 0 0 L 0 109 L 109 109 L 109 0"></path><path style="fill:none; fill-opacity:0%; fill-rule:evenodd; stroke:#aaaaaa; stroke-opacity:100%; stroke-width: 1.5pt; stroke-linejoin:round; stroke-linecap:round;" d="M23.5 30.14c1.56 0.63 3.4 0.43 5.01 0.22c4.65-0.6 11.13-1.95 15.38-2.46c0.99-0.12 1.9-0.17 2.87-0.16"></path>
<path style="fill:none; fill-opacity:0%; fill-rule:evenodd; stroke:#aaaaaa; stroke-opacity:100%; stroke-width: 1.5pt; stroke-linejoin:round; stroke-linecap:round;" d="M14.75 45.7c3.18 1.13 7.02 0.58 10.27 0.06c11.85-1.89 41.57-6.6 57.61-8.15c3.24-0.31 6.18-0.5 9.36 0.18"></path>
<path style="fill:none; fill-opacity:0%; fill-rule:evenodd; stroke:#aaaaaa; stroke-opacity:100%; stroke-width: 1.5pt; stroke-linejoin:round; stroke-linecap:round;" d="M40.25 50.43c0.66 0.66 1.02 2.07 1.02 3.02c0 1.02 0.08 24.06 0.08 29.67"></path>
<path style="fill:none; fill-opacity:0%; fill-rule:evenodd; stroke:#aaaaaa; stroke-opacity:100%; stroke-width: 1.5pt; stroke-linejoin:round; stroke-linecap:round;" d="M42.44 63.88c3.93-0.5 8.06-1.38 12.5-2.07c1.33-0.21 1.68-0.19 2.53 0"></path>
<path style="fill:none; fill-opacity:0%; fill-rule:evenodd; stroke:#aaaaaa; stroke-opacity:100%; stroke-width: 1.5pt; stroke-linejoin:round; stroke-linecap:round;" d="M25.96 63.63c0.83 0.83 1.02 1.99 1.02 3.02c0 0.79 0.08 16.23 0.08 21.69"></path>
<path style="fill:none; fill-opacity:0%; fill-rule:evenodd; stroke:#aaaaaa; stroke-opacity:100%; stroke-width: 1.5pt; stroke-linejoin:round; stroke-linecap:round;" d="M18.25 90.6c0.7 0.7 1.9 0.97 3.67 0.34C35.88 86 45 82.62 59.5 77"></path>
<path style="fill:none; fill-opacity:0%; fill-rule:evenodd; stroke:#aaaaaa; stroke-opacity:100%; stroke-width: 1.5pt; stroke-linejoin:round; stroke-linecap:round;" d="M56.25 13.75c1.73 1.73 2.14 3.47 2.56 7.2c3.07 27.43 9.82 54.43 31.07 72.32c5.95 5.01 5.33 1.24 4.47-6.44"></path>
<path style="fill:none; fill-opacity:0%; fill-rule:evenodd; stroke:#aaaaaa; stroke-opacity:100%; stroke-width: 1.5pt; stroke-linejoin:round; stroke-linecap:round;" d="M71.75 18c3.59 1.85 9.33 6.08 11 9.25"></path>

<path style="fill:none; fill-opacity:0%; fill-rule:evenodd; stroke:#000000; stroke-opacity:100%; stroke-width: 3pt; stroke-linejoin:round; stroke-linecap:round;" d="M23.5 30.14c1.56 0.63 3.4 0.43 5.01 0.22c4.65-0.6 11.13-1.95 15.38-2.46c0.99-0.12 1.9-0.17 2.87-0.16"></path>
<path style="fill:none; fill-opacity:0%; fill-rule:evenodd; stroke:#000000; stroke-opacity:100%; stroke-width: 3pt; stroke-linejoin:round; stroke-linecap:round;" d="M14.75 45.7c3.18 1.13 7.02 0.58 10.27 0.06c11.85-1.89 41.57-6.6 57.61-8.15c3.24-0.31 6.18-0.5 9.36 0.18"></path>
<path style="fill:none; fill-opacity:0%; fill-rule:evenodd; stroke:#000000; stroke-opacity:100%; stroke-width: 3pt; stroke-linejoin:round; stroke-linecap:round;" d="M40.25 50.43c0.66 0.66 1.02 2.07 1.02 3.02c0 1.02 0.08 24.06 0.08 29.67"></path>
<text x="5" y="20" font-size="20" fill="#999999">4</text><path style="fill:none; fill-opacity:0%; fill-rule:evenodd; stroke:#CC0000; stroke-opacity:100%; stroke-width: 3pt; stroke-linejoin:round; stroke-linecap:round;" d="M42.44 63.88c3.93-0.5 8.06-1.38 12.5-2.07c1.33-0.21 1.68-0.19 2.53 0" marker-end="url(#TriangleRed)" marker-start="url(#ArrowRed)" ></path>





</g><g transform="scale(1.3761467889908 1.3761467889908) translate(436, 0)">
<path style="fill:none; fill-rule:evenodd; stroke:#aaaaaa;  stroke-width:1pt; stroke-linecap:round;" d="m 109 0 L 0 0 L 0 109 L 109 109 L 109 0"></path><path style="fill:none; fill-opacity:0%; fill-rule:evenodd; stroke:#aaaaaa; stroke-opacity:100%; stroke-width: 1.5pt; stroke-linejoin:round; stroke-linecap:round;" d="M23.5 30.14c1.56 0.63 3.4 0.43 5.01 0.22c4.65-0.6 11.13-1.95 15.38-2.46c0.99-0.12 1.9-0.17 2.87-0.16"></path>
<path style="fill:none; fill-opacity:0%; fill-rule:evenodd; stroke:#aaaaaa; stroke-opacity:100%; stroke-width: 1.5pt; stroke-linejoin:round; stroke-linecap:round;" d="M14.75 45.7c3.18 1.13 7.02 0.58 10.27 0.06c11.85-1.89 41.57-6.6 57.61-8.15c3.24-0.31 6.18-0.5 9.36 0.18"></path>
<path style="fill:none; fill-opacity:0%; fill-rule:evenodd; stroke:#aaaaaa; stroke-opacity:100%; stroke-width: 1.5pt; stroke-linejoin:round; stroke-linecap:round;" d="M40.25 50.43c0.66 0.66 1.02 2.07 1.02 3.02c0 1.02 0.08 24.06 0.08 29.67"></path>
<path style="fill:none; fill-opacity:0%; fill-rule:evenodd; stroke:#aaaaaa; stroke-opacity:100%; stroke-width: 1.5pt; stroke-linejoin:round; stroke-linecap:round;" d="M42.44 63.88c3.93-0.5 8.06-1.38 12.5-2.07c1.33-0.21 1.68-0.19 2.53 0"></path>
<path style="fill:none; fill-opacity:0%; fill-rule:evenodd; stroke:#aaaaaa; stroke-opacity:100%; stroke-width: 1.5pt; stroke-linejoin:round; stroke-linecap:round;" d="M25.96 63.63c0.83 0.83 1.02 1.99 1.02 3.02c0 0.79 0.08 16.23 0.08 21.69"></path>
<path style="fill:none; fill-opacity:0%; fill-rule:evenodd; stroke:#aaaaaa; stroke-opacity:100%; stroke-width: 1.5pt; stroke-linejoin:round; stroke-linecap:round;" d="M18.25 90.6c0.7 0.7 1.9 0.97 3.67 0.34C35.88 86 45 82.62 59.5 77"></path>
<path style="fill:none; fill-opacity:0%; fill-rule:evenodd; stroke:#aaaaaa; stroke-opacity:100%; stroke-width: 1.5pt; stroke-linejoin:round; stroke-linecap:round;" d="M56.25 13.75c1.73 1.73 2.14 3.47 2.56 7.2c3.07 27.43 9.82 54.43 31.07 72.32c5.95 5.01 5.33 1.24 4.47-6.44"></path>
<path style="fill:none; fill-opacity:0%; fill-rule:evenodd; stroke:#aaaaaa; stroke-opacity:100%; stroke-width: 1.5pt; stroke-linejoin:round; stroke-linecap:round;" d="M71.75 18c3.59 1.85 9.33 6.08 11 9.25"></path>

<path style="fill:none; fill-opacity:0%; fill-rule:evenodd; stroke:#000000; stroke-opacity:100%; stroke-width: 3pt; stroke-linejoin:round; stroke-linecap:round;" d="M23.5 30.14c1.56 0.63 3.4 0.43 5.01 0.22c4.65-0.6 11.13-1.95 15.38-2.46c0.99-0.12 1.9-0.17 2.87-0.16"></path>
<path style="fill:none; fill-opacity:0%; fill-rule:evenodd; stroke:#000000; stroke-opacity:100%; stroke-width: 3pt; stroke-linejoin:round; stroke-linecap:round;" d="M14.75 45.7c3.18 1.13 7.02 0.58 10.27 0.06c11.85-1.89 41.57-6.6 57.61-8.15c3.24-0.31 6.18-0.5 9.36 0.18"></path>
<path style="fill:none; fill-opacity:0%; fill-rule:evenodd; stroke:#000000; stroke-opacity:100%; stroke-width: 3pt; stroke-linejoin:round; stroke-linecap:round;" d="M40.25 50.43c0.66 0.66 1.02 2.07 1.02 3.02c0 1.02 0.08 24.06 0.08 29.67"></path>
<path style="fill:none; fill-opacity:0%; fill-rule:evenodd; stroke:#000000; stroke-opacity:100%; stroke-width: 3pt; stroke-linejoin:round; stroke-linecap:round;" d="M42.44 63.88c3.93-0.5 8.06-1.38 12.5-2.07c1.33-0.21 1.68-0.19 2.53 0"></path>
<text x="5" y="20" font-size="20" fill="#999999">5</text><path style="fill:none; fill-opacity:0%; fill-rule:evenodd; stroke:#CC0000; stroke-opacity:100%; stroke-width: 3pt; stroke-linejoin:round; stroke-linecap:round;" d="M25.96 63.63c0.83 0.83 1.02 1.99 1.02 3.02c0 0.79 0.08 16.23 0.08 21.69" marker-end="url(#TriangleRed)" marker-start="url(#ArrowRed)" ></path>




</g><g transform="scale(1.3761467889908 1.3761467889908) translate(0, 109)">
<path style="fill:none; fill-rule:evenodd; stroke:#aaaaaa;  stroke-width:1pt; stroke-linecap:round;" d="m 109 0 L 0 0 L 0 109 L 109 109 L 109 0"></path><path style="fill:none; fill-opacity:0%; fill-rule:evenodd; stroke:#aaaaaa; stroke-opacity:100%; stroke-width: 1.5pt; stroke-linejoin:round; stroke-linecap:round;" d="M23.5 30.14c1.56 0.63 3.4 0.43 5.01 0.22c4.65-0.6 11.13-1.95 15.38-2.46c0.99-0.12 1.9-0.17 2.87-0.16"></path>
<path style="fill:none; fill-opacity:0%; fill-rule:evenodd; stroke:#aaaaaa; stroke-opacity:100%; stroke-width: 1.5pt; stroke-linejoin:round; stroke-linecap:round;" d="M14.75 45.7c3.18 1.13 7.02 0.58 10.27 0.06c11.85-1.89 41.57-6.6 57.61-8.15c3.24-0.31 6.18-0.5 9.36 0.18"></path>
<path style="fill:none; fill-opacity:0%; fill-rule:evenodd; stroke:#aaaaaa; stroke-opacity:100%; stroke-width: 1.5pt; stroke-linejoin:round; stroke-linecap:round;" d="M40.25 50.43c0.66 0.66 1.02 2.07 1.02 3.02c0 1.02 0.08 24.06 0.08 29.67"></path>
<path style="fill:none; fill-opacity:0%; fill-rule:evenodd; stroke:#aaaaaa; stroke-opacity:100%; stroke-width: 1.5pt; stroke-linejoin:round; stroke-linecap:round;" d="M42.44 63.88c3.93-0.5 8.06-1.38 12.5-2.07c1.33-0.21 1.68-0.19 2.53 0"></path>
<path style="fill:none; fill-opacity:0%; fill-rule:evenodd; stroke:#aaaaaa; stroke-opacity:100%; stroke-width: 1.5pt; stroke-linejoin:round; stroke-linecap:round;" d="M25.96 63.63c0.83 0.83 1.02 1.99 1.02 3.02c0 0.79 0.08 16.23 0.08 21.69"></path>
<path style="fill:none; fill-opacity:0%; fill-rule:evenodd; stroke:#aaaaaa; stroke-opacity:100%; stroke-width: 1.5pt; stroke-linejoin:round; stroke-linecap:round;" d="M18.25 90.6c0.7 0.7 1.9 0.97 3.67 0.34C35.88 86 45 82.62 59.5 77"></path>
<path style="fill:none; fill-opacity:0%; fill-rule:evenodd; stroke:#aaaaaa; stroke-opacity:100%; stroke-width: 1.5pt; stroke-linejoin:round; stroke-linecap:round;" d="M56.25 13.75c1.73 1.73 2.14 3.47 2.56 7.2c3.07 27.43 9.82 54.43 31.07 72.32c5.95 5.01 5.33 1.24 4.47-6.44"></path>
<path style="fill:none; fill-opacity:0%; fill-rule:evenodd; stroke:#aaaaaa; stroke-opacity:100%; stroke-width: 1.5pt; stroke-linejoin:round; stroke-linecap:round;" d="M71.75 18c3.59 1.85 9.33 6.08 11 9.25"></path>

<path style="fill:none; fill-opacity:0%; fill-rule:evenodd; stroke:#000000; stroke-opacity:100%; stroke-width: 3pt; stroke-linejoin:round; stroke-linecap:round;" d="M23.5 30.14c1.56 0.63 3.4 0.43 5.01 0.22c4.65-0.6 11.13-1.95 15.38-2.46c0.99-0.12 1.9-0.17 2.87-0.16"></path>
<path style="fill:none; fill-opacity:0%; fill-rule:evenodd; stroke:#000000; stroke-opacity:100%; stroke-width: 3pt; stroke-linejoin:round; stroke-linecap:round;" d="M14.75 45.7c3.18 1.13 7.02 0.58 10.27 0.06c11.85-1.89 41.57-6.6 57.61-8.15c3.24-0.31 6.18-0.5 9.36 0.18"></path>
<path style="fill:none; fill-opacity:0%; fill-rule:evenodd; stroke:#000000; stroke-opacity:100%; stroke-width: 3pt; stroke-linejoin:round; stroke-linecap:round;" d="M40.25 50.43c0.66 0.66 1.02 2.07 1.02 3.02c0 1.02 0.08 24.06 0.08 29.67"></path>
<path style="fill:none; fill-opacity:0%; fill-rule:evenodd; stroke:#000000; stroke-opacity:100%; stroke-width: 3pt; stroke-linejoin:round; stroke-linecap:round;" d="M42.44 63.88c3.93-0.5 8.06-1.38 12.5-2.07c1.33-0.21 1.68-0.19 2.53 0"></path>
<path style="fill:none; fill-opacity:0%; fill-rule:evenodd; stroke:#000000; stroke-opacity:100%; stroke-width: 3pt; stroke-linejoin:round; stroke-linecap:round;" d="M25.96 63.63c0.83 0.83 1.02 1.99 1.02 3.02c0 0.79 0.08 16.23 0.08 21.69"></path>
<text x="5" y="20" font-size="20" fill="#999999">6</text><path style="fill:none; fill-opacity:0%; fill-rule:evenodd; stroke:#CC0000; stroke-opacity:100%; stroke-width: 3pt; stroke-linejoin:round; stroke-linecap:round;" d="M18.25 90.6c0.7 0.7 1.9 0.97 3.67 0.34C35.88 86 45 82.62 59.5 77" marker-end="url(#TriangleRed)" marker-start="url(#ArrowRed)" ></path>



</g><g transform="scale(1.3761467889908 1.3761467889908) translate(109, 109)">
<path style="fill:none; fill-rule:evenodd; stroke:#aaaaaa;  stroke-width:1pt; stroke-linecap:round;" d="m 109 0 L 0 0 L 0 109 L 109 109 L 109 0"></path><path style="fill:none; fill-opacity:0%; fill-rule:evenodd; stroke:#aaaaaa; stroke-opacity:100%; stroke-width: 1.5pt; stroke-linejoin:round; stroke-linecap:round;" d="M23.5 30.14c1.56 0.63 3.4 0.43 5.01 0.22c4.65-0.6 11.13-1.95 15.38-2.46c0.99-0.12 1.9-0.17 2.87-0.16"></path>
<path style="fill:none; fill-opacity:0%; fill-rule:evenodd; stroke:#aaaaaa; stroke-opacity:100%; stroke-width: 1.5pt; stroke-linejoin:round; stroke-linecap:round;" d="M14.75 45.7c3.18 1.13 7.02 0.58 10.27 0.06c11.85-1.89 41.57-6.6 57.61-8.15c3.24-0.31 6.18-0.5 9.36 0.18"></path>
<path style="fill:none; fill-opacity:0%; fill-rule:evenodd; stroke:#aaaaaa; stroke-opacity:100%; stroke-width: 1.5pt; stroke-linejoin:round; stroke-linecap:round;" d="M40.25 50.43c0.66 0.66 1.02 2.07 1.02 3.02c0 1.02 0.08 24.06 0.08 29.67"></path>
<path style="fill:none; fill-opacity:0%; fill-rule:evenodd; stroke:#aaaaaa; stroke-opacity:100%; stroke-width: 1.5pt; stroke-linejoin:round; stroke-linecap:round;" d="M42.44 63.88c3.93-0.5 8.06-1.38 12.5-2.07c1.33-0.21 1.68-0.19 2.53 0"></path>
<path style="fill:none; fill-opacity:0%; fill-rule:evenodd; stroke:#aaaaaa; stroke-opacity:100%; stroke-width: 1.5pt; stroke-linejoin:round; stroke-linecap:round;" d="M25.96 63.63c0.83 0.83 1.02 1.99 1.02 3.02c0 0.79 0.08 16.23 0.08 21.69"></path>
<path style="fill:none; fill-opacity:0%; fill-rule:evenodd; stroke:#aaaaaa; stroke-opacity:100%; stroke-width: 1.5pt; stroke-linejoin:round; stroke-linecap:round;" d="M18.25 90.6c0.7 0.7 1.9 0.97 3.67 0.34C35.88 86 45 82.62 59.5 77"></path>
<path style="fill:none; fill-opacity:0%; fill-rule:evenodd; stroke:#aaaaaa; stroke-opacity:100%; stroke-width: 1.5pt; stroke-linejoin:round; stroke-linecap:round;" d="M56.25 13.75c1.73 1.73 2.14 3.47 2.56 7.2c3.07 27.43 9.82 54.43 31.07 72.32c5.95 5.01 5.33 1.24 4.47-6.44"></path>
<path style="fill:none; fill-opacity:0%; fill-rule:evenodd; stroke:#aaaaaa; stroke-opacity:100%; stroke-width: 1.5pt; stroke-linejoin:round; stroke-linecap:round;" d="M71.75 18c3.59 1.85 9.33 6.08 11 9.25"></path>

<path style="fill:none; fill-opacity:0%; fill-rule:evenodd; stroke:#000000; stroke-opacity:100%; stroke-width: 3pt; stroke-linejoin:round; stroke-linecap:round;" d="M23.5 30.14c1.56 0.63 3.4 0.43 5.01 0.22c4.65-0.6 11.13-1.95 15.38-2.46c0.99-0.12 1.9-0.17 2.87-0.16"></path>
<path style="fill:none; fill-opacity:0%; fill-rule:evenodd; stroke:#000000; stroke-opacity:100%; stroke-width: 3pt; stroke-linejoin:round; stroke-linecap:round;" d="M14.75 45.7c3.18 1.13 7.02 0.58 10.27 0.06c11.85-1.89 41.57-6.6 57.61-8.15c3.24-0.31 6.18-0.5 9.36 0.18"></path>
<path style="fill:none; fill-opacity:0%; fill-rule:evenodd; stroke:#000000; stroke-opacity:100%; stroke-width: 3pt; stroke-linejoin:round; stroke-linecap:round;" d="M40.25 50.43c0.66 0.66 1.02 2.07 1.02 3.02c0 1.02 0.08 24.06 0.08 29.67"></path>
<path style="fill:none; fill-opacity:0%; fill-rule:evenodd; stroke:#000000; stroke-opacity:100%; stroke-width: 3pt; stroke-linejoin:round; stroke-linecap:round;" d="M42.44 63.88c3.93-0.5 8.06-1.38 12.5-2.07c1.33-0.21 1.68-0.19 2.53 0"></path>
<path style="fill:none; fill-opacity:0%; fill-rule:evenodd; stroke:#000000; stroke-opacity:100%; stroke-width: 3pt; stroke-linejoin:round; stroke-linecap:round;" d="M25.96 63.63c0.83 0.83 1.02 1.99 1.02 3.02c0 0.79 0.08 16.23 0.08 21.69"></path>
<path style="fill:none; fill-opacity:0%; fill-rule:evenodd; stroke:#000000; stroke-opacity:100%; stroke-width: 3pt; stroke-linejoin:round; stroke-linecap:round;" d="M18.25 90.6c0.7 0.7 1.9 0.97 3.67 0.34C35.88 86 45 82.62 59.5 77"></path>
<text x="5" y="20" font-size="20" fill="#999999">7</text><path style="fill:none; fill-opacity:0%; fill-rule:evenodd; stroke:#CC0000; stroke-opacity:100%; stroke-width: 3pt; stroke-linejoin:round; stroke-linecap:round;" d="M56.25 13.75c1.73 1.73 2.14 3.47 2.56 7.2c3.07 27.43 9.82 54.43 31.07 72.32c5.95 5.01 5.33 1.24 4.47-6.44" marker-end="url(#TriangleRed)" marker-start="url(#ArrowRed)" ></path>


</g><g transform="scale(1.3761467889908 1.3761467889908) translate(218, 109)">
<path style="fill:none; fill-rule:evenodd; stroke:#aaaaaa;  stroke-width:1pt; stroke-linecap:round;" d="m 109 0 L 0 0 L 0 109 L 109 109 L 109 0"></path><path style="fill:none; fill-opacity:0%; fill-rule:evenodd; stroke:#aaaaaa; stroke-opacity:100%; stroke-width: 1.5pt; stroke-linejoin:round; stroke-linecap:round;" d="M23.5 30.14c1.56 0.63 3.4 0.43 5.01 0.22c4.65-0.6 11.13-1.95 15.38-2.46c0.99-0.12 1.9-0.17 2.87-0.16"></path>
<path style="fill:none; fill-opacity:0%; fill-rule:evenodd; stroke:#aaaaaa; stroke-opacity:100%; stroke-width: 1.5pt; stroke-linejoin:round; stroke-linecap:round;" d="M14.75 45.7c3.18 1.13 7.02 0.58 10.27 0.06c11.85-1.89 41.57-6.6 57.61-8.15c3.24-0.31 6.18-0.5 9.36 0.18"></path>
<path style="fill:none; fill-opacity:0%; fill-rule:evenodd; stroke:#aaaaaa; stroke-opacity:100%; stroke-width: 1.5pt; stroke-linejoin:round; stroke-linecap:round;" d="M40.25 50.43c0.66 0.66 1.02 2.07 1.02 3.02c0 1.02 0.08 24.06 0.08 29.67"></path>
<path style="fill:none; fill-opacity:0%; fill-rule:evenodd; stroke:#aaaaaa; stroke-opacity:100%; stroke-width: 1.5pt; stroke-linejoin:round; stroke-linecap:round;" d="M42.44 63.88c3.93-0.5 8.06-1.38 12.5-2.07c1.33-0.21 1.68-0.19 2.53 0"></path>
<path style="fill:none; fill-opacity:0%; fill-rule:evenodd; stroke:#aaaaaa; stroke-opacity:100%; stroke-width: 1.5pt; stroke-linejoin:round; stroke-linecap:round;" d="M25.96 63.63c0.83 0.83 1.02 1.99 1.02 3.02c0 0.79 0.08 16.23 0.08 21.69"></path>
<path style="fill:none; fill-opacity:0%; fill-rule:evenodd; stroke:#aaaaaa; stroke-opacity:100%; stroke-width: 1.5pt; stroke-linejoin:round; stroke-linecap:round;" d="M18.25 90.6c0.7 0.7 1.9 0.97 3.67 0.34C35.88 86 45 82.62 59.5 77"></path>
<path style="fill:none; fill-opacity:0%; fill-rule:evenodd; stroke:#aaaaaa; stroke-opacity:100%; stroke-width: 1.5pt; stroke-linejoin:round; stroke-linecap:round;" d="M56.25 13.75c1.73 1.73 2.14 3.47 2.56 7.2c3.07 27.43 9.82 54.43 31.07 72.32c5.95 5.01 5.33 1.24 4.47-6.44"></path>
<path style="fill:none; fill-opacity:0%; fill-rule:evenodd; stroke:#aaaaaa; stroke-opacity:100%; stroke-width: 1.5pt; stroke-linejoin:round; stroke-linecap:round;" d="M71.75 18c3.59 1.85 9.33 6.08 11 9.25"></path>

<path style="fill:none; fill-opacity:0%; fill-rule:evenodd; stroke:#000000; stroke-opacity:100%; stroke-width: 3pt; stroke-linejoin:round; stroke-linecap:round;" d="M23.5 30.14c1.56 0.63 3.4 0.43 5.01 0.22c4.65-0.6 11.13-1.95 15.38-2.46c0.99-0.12 1.9-0.17 2.87-0.16"></path>
<path style="fill:none; fill-opacity:0%; fill-rule:evenodd; stroke:#000000; stroke-opacity:100%; stroke-width: 3pt; stroke-linejoin:round; stroke-linecap:round;" d="M14.75 45.7c3.18 1.13 7.02 0.58 10.27 0.06c11.85-1.89 41.57-6.6 57.61-8.15c3.24-0.31 6.18-0.5 9.36 0.18"></path>
<path style="fill:none; fill-opacity:0%; fill-rule:evenodd; stroke:#000000; stroke-opacity:100%; stroke-width: 3pt; stroke-linejoin:round; stroke-linecap:round;" d="M40.25 50.43c0.66 0.66 1.02 2.07 1.02 3.02c0 1.02 0.08 24.06 0.08 29.67"></path>
<path style="fill:none; fill-opacity:0%; fill-rule:evenodd; stroke:#000000; stroke-opacity:100%; stroke-width: 3pt; stroke-linejoin:round; stroke-linecap:round;" d="M42.44 63.88c3.93-0.5 8.06-1.38 12.5-2.07c1.33-0.21 1.68-0.19 2.53 0"></path>
<path style="fill:none; fill-opacity:0%; fill-rule:evenodd; stroke:#000000; stroke-opacity:100%; stroke-width: 3pt; stroke-linejoin:round; stroke-linecap:round;" d="M25.96 63.63c0.83 0.83 1.02 1.99 1.02 3.02c0 0.79 0.08 16.23 0.08 21.69"></path>
<path style="fill:none; fill-opacity:0%; fill-rule:evenodd; stroke:#000000; stroke-opacity:100%; stroke-width: 3pt; stroke-linejoin:round; stroke-linecap:round;" d="M18.25 90.6c0.7 0.7 1.9 0.97 3.67 0.34C35.88 86 45 82.62 59.5 77"></path>
<path style="fill:none; fill-opacity:0%; fill-rule:evenodd; stroke:#000000; stroke-opacity:100%; stroke-width: 3pt; stroke-linejoin:round; stroke-linecap:round;" d="M56.25 13.75c1.73 1.73 2.14 3.47 2.56 7.2c3.07 27.43 9.82 54.43 31.07 72.32c5.95 5.01 5.33 1.24 4.47-6.44"></path>
<text x="5" y="20" font-size="20" fill="#999999">8</text><path style="fill:none; fill-opacity:0%; fill-rule:evenodd; stroke:#CC0000; stroke-opacity:100%; stroke-width: 3pt; stroke-linejoin:round; stroke-linecap:round;" d="M71.75 18c3.59 1.85 9.33 6.08 11 9.25" marker-end="url(#TriangleRed)" marker-start="url(#ArrowRed)" ></path>

</g>

</svg>  
          
