<?xml version="1.0" standalone="no"?>
<!DOCTYPE svg PUBLIC "-//W3C//DTD SVG 1.1//EN"   "http://www.w3.org/Graphics/SVG/1.1/DTD/svg11.dtd">
<svg width="751" height="301"  version="1.1" xmlns="http://www.w3.org/2000/svg">
  <defs>
    <marker id="Triangle" viewBox="0 0 10 10" refX="0" refY="5" markerUnits="strokeWidth" markerWidth="3" style="stroke-opacity:0%;fill:#aaaaaa;" markerHeight="2" orient="auto">
      <path d="M 0 0 L 10 5 L 0 10 z" />
    </marker>
    
    <marker id="Arrow" viewBox="0 0 10 10" refX="5" refY="5" markerUnits="strokeWidth" markerWidth="1.8" style="stroke-opacity:0%;fill:#770000;" markerHeight="2" orient="auto">
      <path d="M 0 4 L 6 4 L 4 1 L 10 5 L 4 9 L 6 6 L 0 6 z" />
        <circle cx="5" cy="5" r="5" />
      </marker>
    
    <marker id="TriangleRed" viewBox="0 0 10 10" refX="0" refY="5" markerUnits="strokeWidth" markerWidth="3" style="stroke-opacity:0%;fill:#CC0000;" markerHeight="2" orient="auto">
      <path d="M 0 0 L 10 5 L 0 10 z" />
    </marker>
    
    <marker id="ArrowRed" viewBox="0 0 10 10" refX="5" refY="5" markerUnits="strokeWidth" markerWidth="1.8" style="stroke-opacity:0%;fill:#CC0000;" markerHeight="2" orient="auto">
      <path d="M 0 4 L 6 4 L 4 1 L 10 5 L 4 9 L 6 6 L 0 6 z" />
        <circle cx="5" cy="5" r="5" />
      </marker>
    
  </defs>
  
  <path style="fill:#ffffff; fill-opacity:100%; fill-rule:evenodd; stroke-width:0;" d="M 0 0 L 751 0 L 751 301 L 0 301 L 0 0" />

  <g transform="scale(1.3761467889908 1.3761467889908) translate(0, 0)">
<path style="fill:none; fill-rule:evenodd; stroke:#aaaaaa;  stroke-width:1pt; stroke-linecap:round;" d="m 109 0 L 0 0 L 0 109 L 109 109 L 109 0"></path><path style="fill:none; fill-opacity:0%; fill-rule:evenodd; stroke:#aaaaaa; stroke-opacity:100%; stroke-width: 1.5pt; stroke-linejoin:round; stroke-linecap:round;" d="M21.62 15.38c4.37 1.49 11.28 6.14 12.38 8.47"></path>
<path style="fill:none; fill-opacity:0%; fill-rule:evenodd; stroke:#aaaaaa; stroke-opacity:100%; stroke-width: 1.5pt; stroke-linejoin:round; stroke-linecap:round;" d="M15.75 38.5c4.24 1.63 10.94 6.71 12 9.25"></path>
<path style="fill:none; fill-opacity:0%; fill-rule:evenodd; stroke:#aaaaaa; stroke-opacity:100%; stroke-width: 1.5pt; stroke-linejoin:round; stroke-linecap:round;" d="M14.5 94.48c1.62 0.52 3.11-0.12 4.11-1.75c3.14-5.11 5.79-9.91 8.64-15.74"></path>
<path style="fill:none; fill-opacity:0%; fill-rule:evenodd; stroke:#aaaaaa; stroke-opacity:100%; stroke-width: 1.5pt; stroke-linejoin:round; stroke-linecap:round;" d="M57.89 12.75c0.07 1.13 0.09 2.1-0.3 3.18c-2.71 7.44-8.44 19.09-16.11 28.52"></path>
<path style="fill:none; fill-opacity:0%; fill-rule:evenodd; stroke:#aaaaaa; stroke-opacity:100%; stroke-width: 1.5pt; stroke-linejoin:round; stroke-linecap:round;" d="M54.73 29.23c2.52 0.77 5.24 0.45 7.39 0.13c6.38-0.96 19.9-3.43 25.37-4.21c4-0.57 5.96 0.93 5.72 5.1c-0.52 8.81-2.57 22.56-6.13 35.08c-1.59 5.62-3.33 6.76-7.58 2.24"></path>
<path style="fill:none; fill-opacity:0%; fill-rule:evenodd; stroke:#aaaaaa; stroke-opacity:100%; stroke-width: 1.5pt; stroke-linejoin:round; stroke-linecap:round;" d="M49.48 46.27c2.3 0.89 3.7 0.77 6.15 0.37c5.13-0.84 14.49-2.31 15.58-2.42c1.62-0.16 2.92 1.05 2.32 3.52c-0.52 2.14-2.02 9.01-3.6 15.5"></path>
<path style="fill:none; fill-opacity:0%; fill-rule:evenodd; stroke:#aaaaaa; stroke-opacity:100%; stroke-width: 1.5pt; stroke-linejoin:round; stroke-linecap:round;" d="M48.08 65.14c0.94 0.24 2.3 0.91 3.92 0.87c5.5-0.13 11.14-0.96 16-1.54c2.06-0.25 3-0.35 4.38-0.05"></path>
<path style="fill:none; fill-opacity:0%; fill-rule:evenodd; stroke:#aaaaaa; stroke-opacity:100%; stroke-width: 1.5pt; stroke-linejoin:round; stroke-linecap:round;" d="M48.99 66.53c0.93 0.93 1.1 1.93 1.09 3.65C50.05 75.69 50 81.7 50 85.5c0 10.45 1.25 11.19 22.82 11.19c20.93 0 22.21-1.81 22.21-13.09"></path>

<text x="5" y="20" font-size="20" fill="#999999">1</text><path style="fill:none; fill-opacity:0%; fill-rule:evenodd; stroke:#CC0000; stroke-opacity:100%; stroke-width: 3pt; stroke-linejoin:round; stroke-linecap:round;" d="M21.62 15.38c4.37 1.49 11.28 6.14 12.38 8.47"  ></path>








</g><g transform="scale(1.3761467889908 1.3761467889908) translate(109, 0)">
<path style="fill:none; fill-rule:evenodd; stroke:#aaaaaa;  stroke-width:1pt; stroke-linecap:round;" d="m 109 0 L 0 0 L 0 109 L 109 109 L 109 0"></path><path style="fill:none; fill-opacity:0%; fill-rule:evenodd; stroke:#aaaaaa; stroke-opacity:100%; stroke-width: 1.5pt; stroke-linejoin:round; stroke-linecap:round;" d="M21.62 15.38c4.37 1.49 11.28 6.14 12.38 8.47"></path>
<path style="fill:none; fill-opacity:0%; fill-rule:evenodd; stroke:#aaaaaa; stroke-opacity:100%; stroke-width: 1.5pt; stroke-linejoin:round; stroke-linecap:round;" d="M15.75 38.5c4.24 1.63 10.94 6.71 12 9.25"></path>
<path style="fill:none; fill-opacity:0%; fill-rule:evenodd; stroke:#aaaaaa; stroke-opacity:100%; stroke-width: 1.5pt; stroke-linejoin:round; stroke-linecap:round;" d="M14.5 94.48c1.62 0.52 3.11-0.12 4.11-1.75c3.14-5.11 5.79-9.91 8.64-15.74"></path>
<path style="fill:none; fill-opacity:0%; fill-rule:evenodd; stroke:#aaaaaa; stroke-opacity:100%; stroke-width: 1.5pt; stroke-linejoin:round; stroke-linecap:round;" d="M57.89 12.75c0.07 1.13 0.09 2.1-0.3 3.18c-2.71 7.44-8.44 19.09-16.11 28.52"></path>
<path style="fill:none; fill-opacity:0%; fill-rule:evenodd; stroke:#aaaaaa; stroke-opacity:100%; stroke-width: 1.5pt; stroke-linejoin:round; stroke-linecap:round;" d="M54.73 29.23c2.52 0.77 5.24 0.45 7.39 0.13c6.38-0.96 19.9-3.43 25.37-4.21c4-0.57 5.96 0.93 5.72 5.1c-0.52 8.81-2.57 22.56-6.13 35.08c-1.59 5.62-3.33 6.76-7.58 2.24"></path>
<path style="fill:none; fill-opacity:0%; fill-rule:evenodd; stroke:#aaaaaa; stroke-opacity:100%; stroke-width: 1.5pt; stroke-linejoin:round; stroke-linecap:round;" d="M49.48 46.27c2.3 0.89 3.7 0.77 6.15 0.37c5.13-0.84 14.49-2.31 15.58-2.42c1.62-0.16 2.92 1.05 2.32 3.52c-0.52 2.14-2.02 9.01-3.6 15.5"></path>
<path style="fill:none; fill-opacity:0%; fill-rule:evenodd; stroke:#aaaaaa; stroke-opacity:100%; stroke-width: 1.5pt; stroke-linejoin:round; stroke-linecap:round;" d="M48.08 65.14c0.94 0.24 2.3 0.91 3.92 0.87c5.5-0.13 11.14-0.96 16-1.54c2.06-0.25 3-0.35 4.38-0.05"></path>
<path style="fill:none; fill-opacity:0%; fill-rule:evenodd; stroke:#aaaaaa; stroke-opacity:100%; stroke-width: 1.5pt; stroke-linejoin:round; stroke-linecap:round;" d="M48.99 66.53c0.93 0.93 1.1 1.93 1.09 3.65C50.05 75.69 50 81.7 50 85.5c0 10.45 1.25 11.19 22.82 11.19c20.93 0 22.21-1.81 22.21-13.09"></path>

<path style="fill:none; fill-opacity:0%; fill-rule:evenodd; stroke:#000000; stroke-opacity:100%; stroke-width: 3pt; stroke-linejoin:round; stroke-linecap:round;" d="M21.62 15.38c4.37 1.49 11.28 6.14 12.38 8.47"></path>
<text x="5" y="20" font-size="20" fill="#999999">2</text><path style="fill:none; fill-opacity:0%; fill-rule:evenodd; stroke:#CC0000; stroke-opacity:100%; stroke-width: 3pt; stroke-linejoin:round; stroke-linecap:round;" d="M15.75 38.5c4.24 1.63 10.94 6.71 12 9.25"  ></path>







</g><g transform="scale(1.3761467889908 1.3761467889908) translate(218, 0)">
<path style="fill:none; fill-rule:evenodd; stroke:#aaaaaa;  stroke-width:1pt; stroke-linecap:round;" d="m 109 0 L 0 0 L 0 109 L 109 109 L 109 0"></path><path style="fill:none; fill-opacity:0%; fill-rule:evenodd; stroke:#aaaaaa; stroke-opacity:100%; stroke-width: 1.5pt; stroke-linejoin:round; stroke-linecap:round;" d="M21.62 15.38c4.37 1.49 11.28 6.14 12.38 8.47"></path>
<path style="fill:none; fill-opacity:0%; fill-rule:evenodd; stroke:#aaaaaa; stroke-opacity:100%; stroke-width: 1.5pt; stroke-linejoin:round; stroke-linecap:round;" d="M15.75 38.5c4.24 1.63 10.94 6.71 12 9.25"></path>
<path style="fill:none; fill-opacity:0%; fill-rule:evenodd; stroke:#aaaaaa; stroke-opacity:100%; stroke-width: 1.5pt; stroke-linejoin:round; stroke-linecap:round;" d="M14.5 94.48c1.62 0.52 3.11-0.12 4.11-1.75c3.14-5.11 5.79-9.91 8.64-15.74"></path>
<path style="fill:none; fill-opacity:0%; fill-rule:evenodd; stroke:#aaaaaa; stroke-opacity:100%; stroke-width: 1.5pt; stroke-linejoin:round; stroke-linecap:round;" d="M57.89 12.75c0.07 1.13 0.09 2.1-0.3 3.18c-2.71 7.44-8.44 19.09-16.11 28.52"></path>
<path style="fill:none; fill-opacity:0%; fill-rule:evenodd; stroke:#aaaaaa; stroke-opacity:100%; stroke-width: 1.5pt; stroke-linejoin:round; stroke-linecap:round;" d="M54.73 29.23c2.52 0.77 5.24 0.45 7.39 0.13c6.38-0.96 19.9-3.43 25.37-4.21c4-0.57 5.96 0.93 5.72 5.1c-0.52 8.81-2.57 22.56-6.13 35.08c-1.59 5.62-3.33 6.76-7.58 2.24"></path>
<path style="fill:none; fill-opacity:0%; fill-rule:evenodd; stroke:#aaaaaa; stroke-opacity:100%; stroke-width: 1.5pt; stroke-linejoin:round; stroke-linecap:round;" d="M49.48 46.27c2.3 0.89 3.7 0.77 6.15 0.37c5.13-0.84 14.49-2.31 15.58-2.42c1.62-0.16 2.92 1.05 2.32 3.52c-0.52 2.14-2.02 9.01-3.6 15.5"></path>
<path style="fill:none; fill-opacity:0%; fill-rule:evenodd; stroke:#aaaaaa; stroke-opacity:100%; stroke-width: 1.5pt; stroke-linejoin:round; stroke-linecap:round;" d="M48.08 65.14c0.94 0.24 2.3 0.91 3.92 0.87c5.5-0.13 11.14-0.96 16-1.54c2.06-0.25 3-0.35 4.38-0.05"></path>
<path style="fill:none; fill-opacity:0%; fill-rule:evenodd; stroke:#aaaaaa; stroke-opacity:100%; stroke-width: 1.5pt; stroke-linejoin:round; stroke-linecap:round;" d="M48.99 66.53c0.93 0.93 1.1 1.93 1.09 3.65C50.05 75.69 50 81.7 50 85.5c0 10.45 1.25 11.19 22.82 11.19c20.93 0 22.21-1.81 22.21-13.09"></path>

<path style="fill:none; fill-opacity:0%; fill-rule:evenodd; stroke:#000000; stroke-opacity:100%; stroke-width: 3pt; stroke-linejoin:round; stroke-linecap:round;" d="M21.62 15.38c4.37 1.49 11.28 6.14 12.38 8.47"></path>
<path style="fill:none; fill-opacity:0%; fill-rule:evenodd; stroke:#000000; stroke-opacity:100%; stroke-width: 3pt; stroke-linejoin:round; stroke-linecap:round;" d="M15.75 38.5c4.24 1.63 10.94 6.71 12 9.25"></path>
<text x="5" y="20" font-size="20" fill="#999999">3</text><path style="fill:none; fill-opacity:0%; fill-rule:evenodd; stroke:#CC0000; stroke-opacity:100%; stroke-width: 3pt; stroke-linejoin:round; stroke-linecap:round;" d="M14.5 94.48c1.62 0.52 3.11-0.12 4.11-1.75c3.14-5.11 5.79-9.91 8.64-15.74"  ></path>






</g><g transform="scale(1.3761467889908 1.3761467889908) translate(327, 0)">
<path style="fill:none; fill-rule:evenodd; stroke:#aaaaaa;  stroke-width:1pt; stroke-linecap:round;" d="m 109 0 L 0 0 L 0 109 L 109 109 L 109 0"></path><path style="fill:none; fill-opacity:0%; fill-rule:evenodd; stroke:#aaaaaa; stroke-opacity:100%; stroke-width: 1.5pt; stroke-linejoin:round; stroke-linecap:round;" d="M21.62 15.38c4.37 1.49 11.28 6.14 12.38 8.47"></path>
<path style="fill:none; fill-opacity:0%; fill-rule:evenodd; stroke:#aaaaaa; stroke-opacity:100%; stroke-width: 1.5pt; stroke-linejoin:round; stroke-linecap:round;" d="M15.75 38.5c4.24 1.63 10.94 6.71 12 9.25"></path>
<path style="fill:none; fill-opacity:0%; fill-rule:evenodd; stroke:#aaaaaa; stroke-opacity:100%; stroke-width: 1.5pt; stroke-linejoin:round; stroke-linecap:round;" d="M14.5 94.48c1.62 0.52 3.11-0.12 4.11-1.75c3.14-5.11 5.79-9.91 8.64-15.74"></path>
<path style="fill:none; fill-opacity:0%; fill-rule:evenodd; stroke:#aaaaaa; stroke-opacity:100%; stroke-width: 1.5pt; stroke-linejoin:round; stroke-linecap:round;" d="M57.89 12.75c0.07 1.13 0.09 2.1-0.3 3.18c-2.71 7.44-8.44 19.09-16.11 28.52"></path>
<path style="fill:none; fill-opacity:0%; fill-rule:evenodd; stroke:#aaaaaa; stroke-opacity:100%; stroke-width: 1.5pt; stroke-linejoin:round; stroke-linecap:round;" d="M54.73 29.23c2.52 0.77 5.24 0.45 7.39 0.13c6.38-0.96 19.9-3.43 25.37-4.21c4-0.57 5.96 0.93 5.72 5.1c-0.52 8.81-2.57 22.56-6.13 35.08c-1.59 5.62-3.33 6.76-7.58 2.24"></path>
<path style="fill:none; fill-opacity:0%; fill-rule:evenodd; stroke:#aaaaaa; stroke-opacity:100%; stroke-width: 1.5pt; stroke-linejoin:round; stroke-linecap:round;" d="M49.48 46.27c2.3 0.89 3.7 0.77 6.15 0.37c5.13-0.84 14.49-2.31 15.58-2.42c1.62-0.16 2.92 1.05 2.32 3.52c-0.52 2.14-2.02 9.01-3.6 15.5"></path>
<path style="fill:none; fill-opacity:0%; fill-rule:evenodd; stroke:#aaaaaa; stroke-opacity:100%; stroke-width: 1.5pt; stroke-linejoin:round; stroke-linecap:round;" d="M48.08 65.14c0.94 0.24 2.3 0.91 3.92 0.87c5.5-0.13 11.14-0.96 16-1.54c2.06-0.25 3-0.35 4.38-0.05"></path>
<path style="fill:none; fill-opacity:0%; fill-rule:evenodd; stroke:#aaaaaa; stroke-opacity:100%; stroke-width: 1.5pt; stroke-linejoin:round; stroke-linecap:round;" d="M48.99 66.53c0.93 0.93 1.1 1.93 1.09 3.65C50.05 75.69 50 81.7 50 85.5c0 10.45 1.25 11.19 22.82 11.19c20.93 0 22.21-1.81 22.21-13.09"></path>

<path style="fill:none; fill-opacity:0%; fill-rule:evenodd; stroke:#000000; stroke-opacity:100%; stroke-width: 3pt; stroke-linejoin:round; stroke-linecap:round;" d="M21.62 15.38c4.37 1.49 11.28 6.14 12.38 8.47"></path>
<path style="fill:none; fill-opacity:0%; fill-rule:evenodd; stroke:#000000; stroke-opacity:100%; stroke-width: 3pt; stroke-linejoin:round; stroke-linecap:round;" d="M15.75 38.5c4.24 1.63 10.94 6.71 12 9.25"></path>
<path style="fill:none; fill-opacity:0%; fill-rule:evenodd; stroke:#000000; stroke-opacity:100%; stroke-width: 3pt; stroke-linejoin:round; stroke-linecap:round;" d="M14.5 94.48c1.62 0.52 3.11-0.12 4.11-1.75c3.14-5.11 5.79-9.91 8.64-15.74"></path>
<text x="5" y="20" font-size="20" fill="#999999">4</text><path style="fill:none; fill-opacity:0%; fill-rule:evenodd; stroke:#CC0000; stroke-opacity:100%; stroke-width: 3pt; stroke-linejoin:round; stroke-linecap:round;" d="M57.89 12.75c0.07 1.13 0.09 2.1-0.3 3.18c-2.71 7.44-8.44 19.09-16.11 28.52"  ></path>





</g><g transform="scale(1.3761467889908 1.3761467889908) translate(436, 0)">
<path style="fill:none; fill-rule:evenodd; stroke:#aaaaaa;  stroke-width:1pt; stroke-linecap:round;" d="m 109 0 L 0 0 L 0 109 L 109 109 L 109 0"></path><path style="fill:none; fill-opacity:0%; fill-rule:evenodd; stroke:#aaaaaa; stroke-opacity:100%; stroke-width: 1.5pt; stroke-linejoin:round; stroke-linecap:round;" d="M21.62 15.38c4.37 1.49 11.28 6.14 12.38 8.47"></path>
<path style="fill:none; fill-opacity:0%; fill-rule:evenodd; stroke:#aaaaaa; stroke-opacity:100%; stroke-width: 1.5pt; stroke-linejoin:round; stroke-linecap:round;" d="M15.75 38.5c4.24 1.63 10.94 6.71 12 9.25"></path>
<path style="fill:none; fill-opacity:0%; fill-rule:evenodd; stroke:#aaaaaa; stroke-opacity:100%; stroke-width: 1.5pt; stroke-linejoin:round; stroke-linecap:round;" d="M14.5 94.48c1.62 0.52 3.11-0.12 4.11-1.75c3.14-5.11 5.79-9.91 8.64-15.74"></path>
<path style="fill:none; fill-opacity:0%; fill-rule:evenodd; stroke:#aaaaaa; stroke-opacity:100%; stroke-width: 1.5pt; stroke-linejoin:round; stroke-linecap:round;" d="M57.89 12.75c0.07 1.13 0.09 2.1-0.3 3.18c-2.71 7.44-8.44 19.09-16.11 28.52"></path>
<path style="fill:none; fill-opacity:0%; fill-rule:evenodd; stroke:#aaaaaa; stroke-opacity:100%; stroke-width: 1.5pt; stroke-linejoin:round; stroke-linecap:round;" d="M54.73 29.23c2.52 0.77 5.24 0.45 7.39 0.13c6.38-0.96 19.9-3.43 25.37-4.21c4-0.57 5.96 0.93 5.72 5.1c-0.52 8.81-2.57 22.56-6.13 35.08c-1.59 5.62-3.33 6.76-7.58 2.24"></path>
<path style="fill:none; fill-opacity:0%; fill-rule:evenodd; stroke:#aaaaaa; stroke-opacity:100%; stroke-width: 1.5pt; stroke-linejoin:round; stroke-linecap:round;" d="M49.48 46.27c2.3 0.89 3.7 0.77 6.15 0.37c5.13-0.84 14.49-2.31 15.58-2.42c1.62-0.16 2.92 1.05 2.32 3.52c-0.52 2.14-2.02 9.01-3.6 15.5"></path>
<path style="fill:none; fill-opacity:0%; fill-rule:evenodd; stroke:#aaaaaa; stroke-opacity:100%; stroke-width: 1.5pt; stroke-linejoin:round; stroke-linecap:round;" d="M48.08 65.14c0.94 0.24 2.3 0.91 3.92 0.87c5.5-0.13 11.14-0.96 16-1.54c2.06-0.25 3-0.35 4.38-0.05"></path>
<path style="fill:none; fill-opacity:0%; fill-rule:evenodd; stroke:#aaaaaa; stroke-opacity:100%; stroke-width: 1.5pt; stroke-linejoin:round; stroke-linecap:round;" d="M48.99 66.53c0.93 0.93 1.1 1.93 1.09 3.65C50.05 75.69 50 81.7 50 85.5c0 10.45 1.25 11.19 22.82 11.19c20.93 0 22.21-1.81 22.21-13.09"></path>

<path style="fill:none; fill-opacity:0%; fill-rule:evenodd; stroke:#000000; stroke-opacity:100%; stroke-width: 3pt; stroke-linejoin:round; stroke-linecap:round;" d="M21.62 15.38c4.37 1.49 11.28 6.14 12.38 8.47"></path>
<path style="fill:none; fill-opacity:0%; fill-rule:evenodd; stroke:#000000; stroke-opacity:100%; stroke-width: 3pt; stroke-linejoin:round; stroke-linecap:round;" d="M15.75 38.5c4.24 1.63 10.94 6.71 12 9.25"></path>
<path style="fill:none; fill-opacity:0%; fill-rule:evenodd; stroke:#000000; stroke-opacity:100%; stroke-width: 3pt; stroke-linejoin:round; stroke-linecap:round;" d="M14.5 94.48c1.62 0.52 3.11-0.12 4.11-1.75c3.14-5.11 5.79-9.91 8.64-15.74"></path>
<path style="fill:none; fill-opacity:0%; fill-rule:evenodd; stroke:#000000; stroke-opacity:100%; stroke-width: 3pt; stroke-linejoin:round; stroke-linecap:round;" d="M57.89 12.75c0.07 1.13 0.09 2.1-0.3 3.18c-2.71 7.44-8.44 19.09-16.11 28.52"></path>
<text x="5" y="20" font-size="20" fill="#999999">5</text><path style="fill:none; fill-opacity:0%; fill-rule:evenodd; stroke:#CC0000; stroke-opacity:100%; stroke-width: 3pt; stroke-linejoin:round; stroke-linecap:round;" d="M54.73 29.23c2.52 0.77 5.24 0.45 7.39 0.13c6.38-0.96 19.9-3.43 25.37-4.21c4-0.57 5.96 0.93 5.72 5.1c-0.52 8.81-2.57 22.56-6.13 35.08c-1.59 5.62-3.33 6.76-7.58 2.24"  ></path>




</g><g transform="scale(1.3761467889908 1.3761467889908) translate(0, 109)">
<path style="fill:none; fill-rule:evenodd; stroke:#aaaaaa;  stroke-width:1pt; stroke-linecap:round;" d="m 109 0 L 0 0 L 0 109 L 109 109 L 109 0"></path><path style="fill:none; fill-opacity:0%; fill-rule:evenodd; stroke:#aaaaaa; stroke-opacity:100%; stroke-width: 1.5pt; stroke-linejoin:round; stroke-linecap:round;" d="M21.62 15.38c4.37 1.49 11.28 6.14 12.38 8.47"></path>
<path style="fill:none; fill-opacity:0%; fill-rule:evenodd; stroke:#aaaaaa; stroke-opacity:100%; stroke-width: 1.5pt; stroke-linejoin:round; stroke-linecap:round;" d="M15.75 38.5c4.24 1.63 10.94 6.71 12 9.25"></path>
<path style="fill:none; fill-opacity:0%; fill-rule:evenodd; stroke:#aaaaaa; stroke-opacity:100%; stroke-width: 1.5pt; stroke-linejoin:round; stroke-linecap:round;" d="M14.5 94.48c1.62 0.52 3.11-0.12 4.11-1.75c3.14-5.11 5.79-9.91 8.64-15.74"></path>
<path style="fill:none; fill-opacity:0%; fill-rule:evenodd; stroke:#aaaaaa; stroke-opacity:100%; stroke-width: 1.5pt; stroke-linejoin:round; stroke-linecap:round;" d="M57.89 12.75c0.07 1.13 0.09 2.1-0.3 3.18c-2.71 7.44-8.44 19.09-16.11 28.52"></path>
<path style="fill:none; fill-opacity:0%; fill-rule:evenodd; stroke:#aaaaaa; stroke-opacity:100%; stroke-width: 1.5pt; stroke-linejoin:round; stroke-linecap:round;" d="M54.73 29.23c2.52 0.77 5.24 0.45 7.39 0.13c6.38-0.96 19.9-3.43 25.37-4.21c4-0.57 5.96 0.93 5.72 5.1c-0.52 8.81-2.57 22.56-6.13 35.08c-1.59 5.62-3.33 6.76-7.58 2.24"></path>
<path style="fill:none; fill-opacity:0%; fill-rule:evenodd; stroke:#aaaaaa; stroke-opacity:100%; stroke-width: 1.5pt; stroke-linejoin:round; stroke-linecap:round;" d="M49.48 46.27c2.3 0.89 3.7 0.77 6.15 0.37c5.13-0.84 14.49-2.31 15.58-2.42c1.62-0.16 2.92 1.05 2.32 3.52c-0.52 2.14-2.02 9.01-3.6 15.5"></path>
<path style="fill:none; fill-opacity:0%; fill-rule:evenodd; stroke:#aaaaaa; stroke-opacity:100%; stroke-width: 1.5pt; stroke-linejoin:round; stroke-linecap:round;" d="M48.08 65.14c0.94 0.24 2.3 0.91 3.92 0.87c5.5-0.13 11.14-0.96 16-1.54c2.06-0.25 3-0.35 4.38-0.05"></path>
<path style="fill:none; fill-opacity:0%; fill-rule:evenodd; stroke:#aaaaaa; stroke-opacity:100%; stroke-width: 1.5pt; stroke-linejoin:round; stroke-linecap:round;" d="M48.99 66.53c0.93 0.93 1.1 1.93 1.09 3.65C50.05 75.69 50 81.7 50 85.5c0 10.45 1.25 11.19 22.82 11.19c20.93 0 22.21-1.81 22.21-13.09"></path>

<path style="fill:none; fill-opacity:0%; fill-rule:evenodd; stroke:#000000; stroke-opacity:100%; stroke-width: 3pt; stroke-linejoin:round; stroke-linecap:round;" d="M21.62 15.38c4.37 1.49 11.28 6.14 12.38 8.47"></path>
<path style="fill:none; fill-opacity:0%; fill-rule:evenodd; stroke:#000000; stroke-opacity:100%; stroke-width: 3pt; stroke-linejoin:round; stroke-linecap:round;" d="M15.75 38.5c4.24 1.63 10.94 6.71 12 9.25"></path>
<path style="fill:none; fill-opacity:0%; fill-rule:evenodd; stroke:#000000; stroke-opacity:100%; stroke-width: 3pt; stroke-linejoin:round; stroke-linecap:round;" d="M14.5 94.48c1.62 0.52 3.11-0.12 4.11-1.75c3.14-5.11 5.79-9.91 8.64-15.74"></path>
<path style="fill:none; fill-opacity:0%; fill-rule:evenodd; stroke:#000000; stroke-opacity:100%; stroke-width: 3pt; stroke-linejoin:round; stroke-linecap:round;" d="M57.89 12.75c0.07 1.13 0.09 2.1-0.3 3.18c-2.71 7.44-8.44 19.09-16.11 28.52"></path>
<path style="fill:none; fill-opacity:0%; fill-rule:evenodd; stroke:#000000; stroke-opacity:100%; stroke-width: 3pt; stroke-linejoin:round; stroke-linecap:round;" d="M54.73 29.23c2.52 0.77 5.24 0.45 7.39 0.13c6.38-0.96 19.9-3.43 25.37-4.21c4-0.57 5.96 0.93 5.72 5.1c-0.52 8.81-2.57 22.56-6.13 35.08c-1.59 5.62-3.33 6.76-7.58 2.24"></path>
<text x="5" y="20" font-size="20" fill="#999999">6</text><path style="fill:none; fill-opacity:0%; fill-rule:evenodd; stroke:#CC0000; stroke-opacity:100%; stroke-width: 3pt; stroke-linejoin:round; stroke-linecap:round;" d="M49.48 46.27c2.3 0.89 3.7 0.77 6.15 0.37c5.13-0.84 14.49-2.31 15.58-2.42c1.62-0.16 2.92 1.05 2.32 3.52c-0.52 2.14-2.02 9.01-3.6 15.5"  ></path>



</g><g transform="scale(1.3761467889908 1.3761467889908) translate(109, 109)">
<path style="fill:none; fill-rule:evenodd; stroke:#aaaaaa;  stroke-width:1pt; stroke-linecap:round;" d="m 109 0 L 0 0 L 0 109 L 109 109 L 109 0"></path><path style="fill:none; fill-opacity:0%; fill-rule:evenodd; stroke:#aaaaaa; stroke-opacity:100%; stroke-width: 1.5pt; stroke-linejoin:round; stroke-linecap:round;" d="M21.62 15.38c4.37 1.49 11.28 6.14 12.38 8.47"></path>
<path style="fill:none; fill-opacity:0%; fill-rule:evenodd; stroke:#aaaaaa; stroke-opacity:100%; stroke-width: 1.5pt; stroke-linejoin:round; stroke-linecap:round;" d="M15.75 38.5c4.24 1.63 10.94 6.71 12 9.25"></path>
<path style="fill:none; fill-opacity:0%; fill-rule:evenodd; stroke:#aaaaaa; stroke-opacity:100%; stroke-width: 1.5pt; stroke-linejoin:round; stroke-linecap:round;" d="M14.5 94.48c1.62 0.52 3.11-0.12 4.11-1.75c3.14-5.11 5.79-9.91 8.64-15.74"></path>
<path style="fill:none; fill-opacity:0%; fill-rule:evenodd; stroke:#aaaaaa; stroke-opacity:100%; stroke-width: 1.5pt; stroke-linejoin:round; stroke-linecap:round;" d="M57.89 12.75c0.07 1.13 0.09 2.1-0.3 3.18c-2.71 7.44-8.44 19.09-16.11 28.52"></path>
<path style="fill:none; fill-opacity:0%; fill-rule:evenodd; stroke:#aaaaaa; stroke-opacity:100%; stroke-width: 1.5pt; stroke-linejoin:round; stroke-linecap:round;" d="M54.73 29.23c2.52 0.77 5.24 0.45 7.39 0.13c6.38-0.96 19.9-3.43 25.37-4.21c4-0.57 5.96 0.93 5.72 5.1c-0.52 8.81-2.57 22.56-6.13 35.08c-1.59 5.62-3.33 6.76-7.58 2.24"></path>
<path style="fill:none; fill-opacity:0%; fill-rule:evenodd; stroke:#aaaaaa; stroke-opacity:100%; stroke-width: 1.5pt; stroke-linejoin:round; stroke-linecap:round;" d="M49.48 46.27c2.3 0.89 3.7 0.77 6.15 0.37c5.13-0.84 14.49-2.31 15.58-2.42c1.62-0.16 2.92 1.05 2.32 3.52c-0.52 2.14-2.02 9.01-3.6 15.5"></path>
<path style="fill:none; fill-opacity:0%; fill-rule:evenodd; stroke:#aaaaaa; stroke-opacity:100%; stroke-width: 1.5pt; stroke-linejoin:round; stroke-linecap:round;" d="M48.08 65.14c0.94 0.24 2.3 0.91 3.92 0.87c5.5-0.13 11.14-0.96 16-1.54c2.06-0.25 3-0.35 4.38-0.05"></path>
<path style="fill:none; fill-opacity:0%; fill-rule:evenodd; stroke:#aaaaaa; stroke-opacity:100%; stroke-width: 1.5pt; stroke-linejoin:round; stroke-linecap:round;" d="M48.99 66.53c0.93 0.93 1.1 1.93 1.09 3.65C50.05 75.69 50 81.7 50 85.5c0 10.45 1.25 11.19 22.82 11.19c20.93 0 22.21-1.81 22.21-13.09"></path>

<path style="fill:none; fill-opacity:0%; fill-rule:evenodd; stroke:#000000; stroke-opacity:100%; stroke-width: 3pt; stroke-linejoin:round; stroke-linecap:round;" d="M21.62 15.38c4.37 1.49 11.28 6.14 12.38 8.47"></path>
<path style="fill:none; fill-opacity:0%; fill-rule:evenodd; stroke:#000000; stroke-opacity:100%; stroke-width: 3pt; stroke-linejoin:round; stroke-linecap:round;" d="M15.75 38.5c4.24 1.63 10.94 6.71 12 9.25"></path>
<path style="fill:none; fill-opacity:0%; fill-rule:evenodd; stroke:#000000; stroke-opacity:100%; stroke-width: 3pt; stroke-linejoin:round; stroke-linecap:round;" d="M14.5 94.48c1.62 0.52 3.11-0.12 4.11-1.75c3.14-5.11 5.79-9.91 8.64-15.74"></path>
<path style="fill:none; fill-opacity:0%; fill-rule:evenodd; stroke:#000000; stroke-opacity:100%; stroke-width: 3pt; stroke-linejoin:round; stroke-linecap:round;" d="M57.89 12.75c0.07 1.13 0.09 2.1-0.3 3.18c-2.71 7.44-8.44 19.09-16.11 28.52"></path>
<path style="fill:none; fill-opacity:0%; fill-rule:evenodd; stroke:#000000; stroke-opacity:100%; stroke-width: 3pt; stroke-linejoin:round; stroke-linecap:round;" d="M54.73 29.23c2.52 0.77 5.24 0.45 7.39 0.13c6.38-0.96 19.9-3.43 25.37-4.21c4-0.57 5.96 0.93 5.72 5.1c-0.52 8.81-2.57 22.56-6.13 35.08c-1.59 5.62-3.33 6.76-7.58 2.24"></path>
<path style="fill:none; fill-opacity:0%; fill-rule:evenodd; stroke:#000000; stroke-opacity:100%; stroke-width: 3pt; stroke-linejoin:round; stroke-linecap:round;" d="M49.48 46.27c2.3 0.89 3.7 0.77 6.15 0.37c5.13-0.84 14.49-2.31 15.58-2.42c1.62-0.16 2.92 1.05 2.32 3.52c-0.52 2.14-2.02 9.01-3.6 15.5"></path>
<text x="5" y="20" font-size="20" fill="#999999">7</text><path style="fill:none; fill-opacity:0%; fill-rule:evenodd; stroke:#CC0000; stroke-opacity:100%; stroke-width: 3pt; stroke-linejoin:round; stroke-linecap:round;" d="M48.08 65.14c0.94 0.24 2.3 0.91 3.92 0.87c5.5-0.13 11.14-0.96 16-1.54c2.06-0.25 3-0.35 4.38-0.05"  ></path>


</g><g transform="scale(1.3761467889908 1.3761467889908) translate(218, 109)">
<path style="fill:none; fill-rule:evenodd; stroke:#aaaaaa;  stroke-width:1pt; stroke-linecap:round;" d="m 109 0 L 0 0 L 0 109 L 109 109 L 109 0"></path><path style="fill:none; fill-opacity:0%; fill-rule:evenodd; stroke:#aaaaaa; stroke-opacity:100%; stroke-width: 1.5pt; stroke-linejoin:round; stroke-linecap:round;" d="M21.62 15.38c4.37 1.49 11.28 6.14 12.38 8.47"></path>
<path style="fill:none; fill-opacity:0%; fill-rule:evenodd; stroke:#aaaaaa; stroke-opacity:100%; stroke-width: 1.5pt; stroke-linejoin:round; stroke-linecap:round;" d="M15.75 38.5c4.24 1.63 10.94 6.71 12 9.25"></path>
<path style="fill:none; fill-opacity:0%; fill-rule:evenodd; stroke:#aaaaaa; stroke-opacity:100%; stroke-width: 1.5pt; stroke-linejoin:round; stroke-linecap:round;" d="M14.5 94.48c1.62 0.52 3.11-0.12 4.11-1.75c3.14-5.11 5.79-9.91 8.64-15.74"></path>
<path style="fill:none; fill-opacity:0%; fill-rule:evenodd; stroke:#aaaaaa; stroke-opacity:100%; stroke-width: 1.5pt; stroke-linejoin:round; stroke-linecap:round;" d="M57.89 12.75c0.07 1.13 0.09 2.1-0.3 3.18c-2.71 7.44-8.44 19.09-16.11 28.52"></path>
<path style="fill:none; fill-opacity:0%; fill-rule:evenodd; stroke:#aaaaaa; stroke-opacity:100%; stroke-width: 1.5pt; stroke-linejoin:round; stroke-linecap:round;" d="M54.73 29.23c2.52 0.77 5.24 0.45 7.39 0.13c6.38-0.96 19.9-3.43 25.37-4.21c4-0.57 5.96 0.93 5.72 5.1c-0.52 8.81-2.57 22.56-6.13 35.08c-1.59 5.62-3.33 6.76-7.58 2.24"></path>
<path style="fill:none; fill-opacity:0%; fill-rule:evenodd; stroke:#aaaaaa; stroke-opacity:100%; stroke-width: 1.5pt; stroke-linejoin:round; stroke-linecap:round;" d="M49.48 46.27c2.3 0.89 3.7 0.77 6.15 0.37c5.13-0.84 14.49-2.31 15.58-2.42c1.62-0.16 2.92 1.05 2.32 3.52c-0.52 2.14-2.02 9.01-3.6 15.5"></path>
<path style="fill:none; fill-opacity:0%; fill-rule:evenodd; stroke:#aaaaaa; stroke-opacity:100%; stroke-width: 1.5pt; stroke-linejoin:round; stroke-linecap:round;" d="M48.08 65.14c0.94 0.24 2.3 0.91 3.92 0.87c5.5-0.13 11.14-0.96 16-1.54c2.06-0.25 3-0.35 4.38-0.05"></path>
<path style="fill:none; fill-opacity:0%; fill-rule:evenodd; stroke:#aaaaaa; stroke-opacity:100%; stroke-width: 1.5pt; stroke-linejoin:round; stroke-linecap:round;" d="M48.99 66.53c0.93 0.93 1.1 1.93 1.09 3.65C50.05 75.69 50 81.7 50 85.5c0 10.45 1.25 11.19 22.82 11.19c20.93 0 22.21-1.81 22.21-13.09"></path>

<path style="fill:none; fill-opacity:0%; fill-rule:evenodd; stroke:#000000; stroke-opacity:100%; stroke-width: 3pt; stroke-linejoin:round; stroke-linecap:round;" d="M21.62 15.38c4.37 1.49 11.28 6.14 12.38 8.47"></path>
<path style="fill:none; fill-opacity:0%; fill-rule:evenodd; stroke:#000000; stroke-opacity:100%; stroke-width: 3pt; stroke-linejoin:round; stroke-linecap:round;" d="M15.75 38.5c4.24 1.63 10.94 6.71 12 9.25"></path>
<path style="fill:none; fill-opacity:0%; fill-rule:evenodd; stroke:#000000; stroke-opacity:100%; stroke-width: 3pt; stroke-linejoin:round; stroke-linecap:round;" d="M14.5 94.48c1.62 0.52 3.11-0.12 4.11-1.75c3.14-5.11 5.79-9.91 8.64-15.74"></path>
<path style="fill:none; fill-opacity:0%; fill-rule:evenodd; stroke:#000000; stroke-opacity:100%; stroke-width: 3pt; stroke-linejoin:round; stroke-linecap:round;" d="M57.89 12.75c0.07 1.13 0.09 2.1-0.3 3.18c-2.71 7.44-8.44 19.09-16.11 28.52"></path>
<path style="fill:none; fill-opacity:0%; fill-rule:evenodd; stroke:#000000; stroke-opacity:100%; stroke-width: 3pt; stroke-linejoin:round; stroke-linecap:round;" d="M54.73 29.23c2.52 0.77 5.24 0.45 7.39 0.13c6.38-0.96 19.9-3.43 25.37-4.21c4-0.57 5.96 0.93 5.72 5.1c-0.52 8.81-2.57 22.56-6.13 35.08c-1.59 5.62-3.33 6.76-7.58 2.24"></path>
<path style="fill:none; fill-opacity:0%; fill-rule:evenodd; stroke:#000000; stroke-opacity:100%; stroke-width: 3pt; stroke-linejoin:round; stroke-linecap:round;" d="M49.48 46.27c2.3 0.89 3.7 0.77 6.15 0.37c5.13-0.84 14.49-2.31 15.58-2.42c1.62-0.16 2.92 1.05 2.32 3.52c-0.52 2.14-2.02 9.01-3.6 15.5"></path>
<path style="fill:none; fill-opacity:0%; fill-rule:evenodd; stroke:#000000; stroke-opacity:100%; stroke-width: 3pt; stroke-linejoin:round; stroke-linecap:round;" d="M48.08 65.14c0.94 0.24 2.3 0.91 3.92 0.87c5.5-0.13 11.14-0.96 16-1.54c2.06-0.25 3-0.35 4.38-0.05"></path>
<text x="5" y="20" font-size="20" fill="#999999">8</text><path style="fill:none; fill-opacity:0%; fill-rule:evenodd; stroke:#CC0000; stroke-opacity:100%; stroke-width: 3pt; stroke-linejoin:round; stroke-linecap:round;" d="M48.99 66.53c0.93 0.93 1.1 1.93 1.09 3.65C50.05 75.69 50 81.7 50 85.5c0 10.45 1.25 11.19 22.82 11.19c20.93 0 22.21-1.81 22.21-13.09"  ></path>

</g>

</svg>  
          
