<?xml version="1.0" standalone="no"?>
<!DOCTYPE svg PUBLIC "-//W3C//DTD SVG 1.1//EN"   "http://www.w3.org/Graphics/SVG/1.1/DTD/svg11.dtd">
<svg width="751" height="301"  version="1.1" xmlns="http://www.w3.org/2000/svg">
  <defs>
    <marker id="Triangle" viewBox="0 0 10 10" refX="0" refY="5" markerUnits="strokeWidth" markerWidth="3" style="stroke-opacity:0%;fill:#aaaaaa;" markerHeight="2" orient="auto">
      <path d="M 0 0 L 10 5 L 0 10 z" />
    </marker>
    
    <marker id="Arrow" viewBox="0 0 10 10" refX="5" refY="5" markerUnits="strokeWidth" markerWidth="1.8" style="stroke-opacity:0%;fill:#770000;" markerHeight="2" orient="auto">
      <path d="M 0 4 L 6 4 L 4 1 L 10 5 L 4 9 L 6 6 L 0 6 z" />
        <circle cx="5" cy="5" r="5" />
      </marker>
    
    <marker id="TriangleRed" viewBox="0 0 10 10" refX="0" refY="5" markerUnits="strokeWidth" markerWidth="3" style="stroke-opacity:0%;fill:#CC0000;" markerHeight="2" orient="auto">
      <path d="M 0 0 L 10 5 L 0 10 z" />
    </marker>
    
    <marker id="ArrowRed" viewBox="0 0 10 10" refX="5" refY="5" markerUnits="strokeWidth" markerWidth="1.8" style="stroke-opacity:0%;fill:#CC0000;" markerHeight="2" orient="auto">
      <path d="M 0 4 L 6 4 L 4 1 L 10 5 L 4 9 L 6 6 L 0 6 z" />
        <circle cx="5" cy="5" r="5" />
      </marker>
    
  </defs>
  
  <path style="fill:#ffffff; fill-opacity:100%; fill-rule:evenodd; stroke-width:0;" d="M 0 0 L 751 0 L 751 301 L 0 301 L 0 0" />

  <g transform="scale(1.3761467889908 1.3761467889908) translate(0, 0)">
<path style="fill:none; fill-rule:evenodd; stroke:#aaaaaa;  stroke-width:1pt; stroke-linecap:round;" d="m 109 0 L 0 0 L 0 109 L 109 109 L 109 0"></path><path style="fill:none; fill-opacity:0%; fill-rule:evenodd; stroke:#aaaaaa; stroke-opacity:100%; stroke-width: 1.5pt; stroke-linejoin:round; stroke-linecap:round;" d="M18.88 21c4.63 1.38 11.71 5.44 12.87 7.59"></path>
<path style="fill:none; fill-opacity:0%; fill-rule:evenodd; stroke:#aaaaaa; stroke-opacity:100%; stroke-width: 1.5pt; stroke-linejoin:round; stroke-linecap:round;" d="M14.75 44c5.12 1.41 12.97 5.3 14.25 7.5"></path>
<path style="fill:none; fill-opacity:0%; fill-rule:evenodd; stroke:#aaaaaa; stroke-opacity:100%; stroke-width: 1.5pt; stroke-linejoin:round; stroke-linecap:round;" d="M17.25 91.21c2.12 0.29 3.31-0.39 4.25-2c2.75-4.7 5-9.7 7.5-15.7"></path>
<path style="fill:none; fill-opacity:0%; fill-rule:evenodd; stroke:#aaaaaa; stroke-opacity:100%; stroke-width: 1.5pt; stroke-linejoin:round; stroke-linecap:round;" d="M40.48 31.61c0.75 0.94 1.14 1.99 1.17 3.15c0.81 5.48 1.59 11.21 2.44 17.49c0.32 2.32 0.64 4.72 0.99 7.21"></path>
<path style="fill:none; fill-opacity:0%; fill-rule:evenodd; stroke:#aaaaaa; stroke-opacity:100%; stroke-width: 1.5pt; stroke-linejoin:round; stroke-linecap:round;" d="M42.46 32.78c11.8-1.79 29.27-4.22 38.17-4.88c2.34-0.61 4.62 0.85 4.33 3.8c-0.37 3.73-1.15 9.39-2.33 15.9c-0.43 2.39-0.92 4.9-1.44 7.47"></path>
<path style="fill:none; fill-opacity:0%; fill-rule:evenodd; stroke:#aaaaaa; stroke-opacity:100%; stroke-width: 1.5pt; stroke-linejoin:round; stroke-linecap:round;" d="M44.15 44.55c3.59-0.49 35.77-4.65 38.73-4.85"></path>
<path style="fill:none; fill-opacity:0%; fill-rule:evenodd; stroke:#aaaaaa; stroke-opacity:100%; stroke-width: 1.5pt; stroke-linejoin:round; stroke-linecap:round;" d="M45.91 56.8c12.59-1.55 23.76-3.5 34.7-4.39"></path>
<path style="fill:none; fill-opacity:0%; fill-rule:evenodd; stroke:#aaaaaa; stroke-opacity:100%; stroke-width: 1.5pt; stroke-linejoin:round; stroke-linecap:round;" d="M56.01 11c1.12 1.25 1.87 2.32 2.2 6.22C61.5 55.5 71.25 80.25 90.33 94.44c5.95 4.42 5.4 0.78 4.6-7.26"></path>
<path style="fill:none; fill-opacity:0%; fill-rule:evenodd; stroke:#aaaaaa; stroke-opacity:100%; stroke-width: 1.5pt; stroke-linejoin:round; stroke-linecap:round;" d="M83.74 62.37c-0.31 1.63-0.95 3.08-1.93 4.33c-4.79 6.33-19.73 17.67-39.45 24.55"></path>

<text x="5" y="20" font-size="20" fill="#999999">1</text><path style="fill:none; fill-opacity:0%; fill-rule:evenodd; stroke:#CC0000; stroke-opacity:100%; stroke-width: 3pt; stroke-linejoin:round; stroke-linecap:round;" d="M18.88 21c4.63 1.38 11.71 5.44 12.87 7.59"  ></path>









</g><g transform="scale(1.3761467889908 1.3761467889908) translate(109, 0)">
<path style="fill:none; fill-rule:evenodd; stroke:#aaaaaa;  stroke-width:1pt; stroke-linecap:round;" d="m 109 0 L 0 0 L 0 109 L 109 109 L 109 0"></path><path style="fill:none; fill-opacity:0%; fill-rule:evenodd; stroke:#aaaaaa; stroke-opacity:100%; stroke-width: 1.5pt; stroke-linejoin:round; stroke-linecap:round;" d="M18.88 21c4.63 1.38 11.71 5.44 12.87 7.59"></path>
<path style="fill:none; fill-opacity:0%; fill-rule:evenodd; stroke:#aaaaaa; stroke-opacity:100%; stroke-width: 1.5pt; stroke-linejoin:round; stroke-linecap:round;" d="M14.75 44c5.12 1.41 12.97 5.3 14.25 7.5"></path>
<path style="fill:none; fill-opacity:0%; fill-rule:evenodd; stroke:#aaaaaa; stroke-opacity:100%; stroke-width: 1.5pt; stroke-linejoin:round; stroke-linecap:round;" d="M17.25 91.21c2.12 0.29 3.31-0.39 4.25-2c2.75-4.7 5-9.7 7.5-15.7"></path>
<path style="fill:none; fill-opacity:0%; fill-rule:evenodd; stroke:#aaaaaa; stroke-opacity:100%; stroke-width: 1.5pt; stroke-linejoin:round; stroke-linecap:round;" d="M40.48 31.61c0.75 0.94 1.14 1.99 1.17 3.15c0.81 5.48 1.59 11.21 2.44 17.49c0.32 2.32 0.64 4.72 0.99 7.21"></path>
<path style="fill:none; fill-opacity:0%; fill-rule:evenodd; stroke:#aaaaaa; stroke-opacity:100%; stroke-width: 1.5pt; stroke-linejoin:round; stroke-linecap:round;" d="M42.46 32.78c11.8-1.79 29.27-4.22 38.17-4.88c2.34-0.61 4.62 0.85 4.33 3.8c-0.37 3.73-1.15 9.39-2.33 15.9c-0.43 2.39-0.92 4.9-1.44 7.47"></path>
<path style="fill:none; fill-opacity:0%; fill-rule:evenodd; stroke:#aaaaaa; stroke-opacity:100%; stroke-width: 1.5pt; stroke-linejoin:round; stroke-linecap:round;" d="M44.15 44.55c3.59-0.49 35.77-4.65 38.73-4.85"></path>
<path style="fill:none; fill-opacity:0%; fill-rule:evenodd; stroke:#aaaaaa; stroke-opacity:100%; stroke-width: 1.5pt; stroke-linejoin:round; stroke-linecap:round;" d="M45.91 56.8c12.59-1.55 23.76-3.5 34.7-4.39"></path>
<path style="fill:none; fill-opacity:0%; fill-rule:evenodd; stroke:#aaaaaa; stroke-opacity:100%; stroke-width: 1.5pt; stroke-linejoin:round; stroke-linecap:round;" d="M56.01 11c1.12 1.25 1.87 2.32 2.2 6.22C61.5 55.5 71.25 80.25 90.33 94.44c5.95 4.42 5.4 0.78 4.6-7.26"></path>
<path style="fill:none; fill-opacity:0%; fill-rule:evenodd; stroke:#aaaaaa; stroke-opacity:100%; stroke-width: 1.5pt; stroke-linejoin:round; stroke-linecap:round;" d="M83.74 62.37c-0.31 1.63-0.95 3.08-1.93 4.33c-4.79 6.33-19.73 17.67-39.45 24.55"></path>

<path style="fill:none; fill-opacity:0%; fill-rule:evenodd; stroke:#000000; stroke-opacity:100%; stroke-width: 3pt; stroke-linejoin:round; stroke-linecap:round;" d="M18.88 21c4.63 1.38 11.71 5.44 12.87 7.59"></path>
<text x="5" y="20" font-size="20" fill="#999999">2</text><path style="fill:none; fill-opacity:0%; fill-rule:evenodd; stroke:#CC0000; stroke-opacity:100%; stroke-width: 3pt; stroke-linejoin:round; stroke-linecap:round;" d="M14.75 44c5.12 1.41 12.97 5.3 14.25 7.5"  ></path>








</g><g transform="scale(1.3761467889908 1.3761467889908) translate(218, 0)">
<path style="fill:none; fill-rule:evenodd; stroke:#aaaaaa;  stroke-width:1pt; stroke-linecap:round;" d="m 109 0 L 0 0 L 0 109 L 109 109 L 109 0"></path><path style="fill:none; fill-opacity:0%; fill-rule:evenodd; stroke:#aaaaaa; stroke-opacity:100%; stroke-width: 1.5pt; stroke-linejoin:round; stroke-linecap:round;" d="M18.88 21c4.63 1.38 11.71 5.44 12.87 7.59"></path>
<path style="fill:none; fill-opacity:0%; fill-rule:evenodd; stroke:#aaaaaa; stroke-opacity:100%; stroke-width: 1.5pt; stroke-linejoin:round; stroke-linecap:round;" d="M14.75 44c5.12 1.41 12.97 5.3 14.25 7.5"></path>
<path style="fill:none; fill-opacity:0%; fill-rule:evenodd; stroke:#aaaaaa; stroke-opacity:100%; stroke-width: 1.5pt; stroke-linejoin:round; stroke-linecap:round;" d="M17.25 91.21c2.12 0.29 3.31-0.39 4.25-2c2.75-4.7 5-9.7 7.5-15.7"></path>
<path style="fill:none; fill-opacity:0%; fill-rule:evenodd; stroke:#aaaaaa; stroke-opacity:100%; stroke-width: 1.5pt; stroke-linejoin:round; stroke-linecap:round;" d="M40.48 31.61c0.75 0.94 1.14 1.99 1.17 3.15c0.81 5.48 1.59 11.21 2.44 17.49c0.32 2.32 0.64 4.72 0.99 7.21"></path>
<path style="fill:none; fill-opacity:0%; fill-rule:evenodd; stroke:#aaaaaa; stroke-opacity:100%; stroke-width: 1.5pt; stroke-linejoin:round; stroke-linecap:round;" d="M42.46 32.78c11.8-1.79 29.27-4.22 38.17-4.88c2.34-0.61 4.62 0.85 4.33 3.8c-0.37 3.73-1.15 9.39-2.33 15.9c-0.43 2.39-0.92 4.9-1.44 7.47"></path>
<path style="fill:none; fill-opacity:0%; fill-rule:evenodd; stroke:#aaaaaa; stroke-opacity:100%; stroke-width: 1.5pt; stroke-linejoin:round; stroke-linecap:round;" d="M44.15 44.55c3.59-0.49 35.77-4.65 38.73-4.85"></path>
<path style="fill:none; fill-opacity:0%; fill-rule:evenodd; stroke:#aaaaaa; stroke-opacity:100%; stroke-width: 1.5pt; stroke-linejoin:round; stroke-linecap:round;" d="M45.91 56.8c12.59-1.55 23.76-3.5 34.7-4.39"></path>
<path style="fill:none; fill-opacity:0%; fill-rule:evenodd; stroke:#aaaaaa; stroke-opacity:100%; stroke-width: 1.5pt; stroke-linejoin:round; stroke-linecap:round;" d="M56.01 11c1.12 1.25 1.87 2.32 2.2 6.22C61.5 55.5 71.25 80.25 90.33 94.44c5.95 4.42 5.4 0.78 4.6-7.26"></path>
<path style="fill:none; fill-opacity:0%; fill-rule:evenodd; stroke:#aaaaaa; stroke-opacity:100%; stroke-width: 1.5pt; stroke-linejoin:round; stroke-linecap:round;" d="M83.74 62.37c-0.31 1.63-0.95 3.08-1.93 4.33c-4.79 6.33-19.73 17.67-39.45 24.55"></path>

<path style="fill:none; fill-opacity:0%; fill-rule:evenodd; stroke:#000000; stroke-opacity:100%; stroke-width: 3pt; stroke-linejoin:round; stroke-linecap:round;" d="M18.88 21c4.63 1.38 11.71 5.44 12.87 7.59"></path>
<path style="fill:none; fill-opacity:0%; fill-rule:evenodd; stroke:#000000; stroke-opacity:100%; stroke-width: 3pt; stroke-linejoin:round; stroke-linecap:round;" d="M14.75 44c5.12 1.41 12.97 5.3 14.25 7.5"></path>
<text x="5" y="20" font-size="20" fill="#999999">3</text><path style="fill:none; fill-opacity:0%; fill-rule:evenodd; stroke:#CC0000; stroke-opacity:100%; stroke-width: 3pt; stroke-linejoin:round; stroke-linecap:round;" d="M17.25 91.21c2.12 0.29 3.31-0.39 4.25-2c2.75-4.7 5-9.7 7.5-15.7"  ></path>







</g><g transform="scale(1.3761467889908 1.3761467889908) translate(327, 0)">
<path style="fill:none; fill-rule:evenodd; stroke:#aaaaaa;  stroke-width:1pt; stroke-linecap:round;" d="m 109 0 L 0 0 L 0 109 L 109 109 L 109 0"></path><path style="fill:none; fill-opacity:0%; fill-rule:evenodd; stroke:#aaaaaa; stroke-opacity:100%; stroke-width: 1.5pt; stroke-linejoin:round; stroke-linecap:round;" d="M18.88 21c4.63 1.38 11.71 5.44 12.87 7.59"></path>
<path style="fill:none; fill-opacity:0%; fill-rule:evenodd; stroke:#aaaaaa; stroke-opacity:100%; stroke-width: 1.5pt; stroke-linejoin:round; stroke-linecap:round;" d="M14.75 44c5.12 1.41 12.97 5.3 14.25 7.5"></path>
<path style="fill:none; fill-opacity:0%; fill-rule:evenodd; stroke:#aaaaaa; stroke-opacity:100%; stroke-width: 1.5pt; stroke-linejoin:round; stroke-linecap:round;" d="M17.25 91.21c2.12 0.29 3.31-0.39 4.25-2c2.75-4.7 5-9.7 7.5-15.7"></path>
<path style="fill:none; fill-opacity:0%; fill-rule:evenodd; stroke:#aaaaaa; stroke-opacity:100%; stroke-width: 1.5pt; stroke-linejoin:round; stroke-linecap:round;" d="M40.48 31.61c0.75 0.94 1.14 1.99 1.17 3.15c0.81 5.48 1.59 11.21 2.44 17.49c0.32 2.32 0.64 4.72 0.99 7.21"></path>
<path style="fill:none; fill-opacity:0%; fill-rule:evenodd; stroke:#aaaaaa; stroke-opacity:100%; stroke-width: 1.5pt; stroke-linejoin:round; stroke-linecap:round;" d="M42.46 32.78c11.8-1.79 29.27-4.22 38.17-4.88c2.34-0.61 4.62 0.85 4.33 3.8c-0.37 3.73-1.15 9.39-2.33 15.9c-0.43 2.39-0.92 4.9-1.44 7.47"></path>
<path style="fill:none; fill-opacity:0%; fill-rule:evenodd; stroke:#aaaaaa; stroke-opacity:100%; stroke-width: 1.5pt; stroke-linejoin:round; stroke-linecap:round;" d="M44.15 44.55c3.59-0.49 35.77-4.65 38.73-4.85"></path>
<path style="fill:none; fill-opacity:0%; fill-rule:evenodd; stroke:#aaaaaa; stroke-opacity:100%; stroke-width: 1.5pt; stroke-linejoin:round; stroke-linecap:round;" d="M45.91 56.8c12.59-1.55 23.76-3.5 34.7-4.39"></path>
<path style="fill:none; fill-opacity:0%; fill-rule:evenodd; stroke:#aaaaaa; stroke-opacity:100%; stroke-width: 1.5pt; stroke-linejoin:round; stroke-linecap:round;" d="M56.01 11c1.12 1.25 1.87 2.32 2.2 6.22C61.5 55.5 71.25 80.25 90.33 94.44c5.95 4.42 5.4 0.78 4.6-7.26"></path>
<path style="fill:none; fill-opacity:0%; fill-rule:evenodd; stroke:#aaaaaa; stroke-opacity:100%; stroke-width: 1.5pt; stroke-linejoin:round; stroke-linecap:round;" d="M83.74 62.37c-0.31 1.63-0.95 3.08-1.93 4.33c-4.79 6.33-19.73 17.67-39.45 24.55"></path>

<path style="fill:none; fill-opacity:0%; fill-rule:evenodd; stroke:#000000; stroke-opacity:100%; stroke-width: 3pt; stroke-linejoin:round; stroke-linecap:round;" d="M18.88 21c4.63 1.38 11.71 5.44 12.87 7.59"></path>
<path style="fill:none; fill-opacity:0%; fill-rule:evenodd; stroke:#000000; stroke-opacity:100%; stroke-width: 3pt; stroke-linejoin:round; stroke-linecap:round;" d="M14.75 44c5.12 1.41 12.97 5.3 14.25 7.5"></path>
<path style="fill:none; fill-opacity:0%; fill-rule:evenodd; stroke:#000000; stroke-opacity:100%; stroke-width: 3pt; stroke-linejoin:round; stroke-linecap:round;" d="M17.25 91.21c2.12 0.29 3.31-0.39 4.25-2c2.75-4.7 5-9.7 7.5-15.7"></path>
<text x="5" y="20" font-size="20" fill="#999999">4</text><path style="fill:none; fill-opacity:0%; fill-rule:evenodd; stroke:#CC0000; stroke-opacity:100%; stroke-width: 3pt; stroke-linejoin:round; stroke-linecap:round;" d="M40.48 31.61c0.75 0.94 1.14 1.99 1.17 3.15c0.81 5.48 1.59 11.21 2.44 17.49c0.32 2.32 0.64 4.72 0.99 7.21"  ></path>






</g><g transform="scale(1.3761467889908 1.3761467889908) translate(436, 0)">
<path style="fill:none; fill-rule:evenodd; stroke:#aaaaaa;  stroke-width:1pt; stroke-linecap:round;" d="m 109 0 L 0 0 L 0 109 L 109 109 L 109 0"></path><path style="fill:none; fill-opacity:0%; fill-rule:evenodd; stroke:#aaaaaa; stroke-opacity:100%; stroke-width: 1.5pt; stroke-linejoin:round; stroke-linecap:round;" d="M18.88 21c4.63 1.38 11.71 5.44 12.87 7.59"></path>
<path style="fill:none; fill-opacity:0%; fill-rule:evenodd; stroke:#aaaaaa; stroke-opacity:100%; stroke-width: 1.5pt; stroke-linejoin:round; stroke-linecap:round;" d="M14.75 44c5.12 1.41 12.97 5.3 14.25 7.5"></path>
<path style="fill:none; fill-opacity:0%; fill-rule:evenodd; stroke:#aaaaaa; stroke-opacity:100%; stroke-width: 1.5pt; stroke-linejoin:round; stroke-linecap:round;" d="M17.25 91.21c2.12 0.29 3.31-0.39 4.25-2c2.75-4.7 5-9.7 7.5-15.7"></path>
<path style="fill:none; fill-opacity:0%; fill-rule:evenodd; stroke:#aaaaaa; stroke-opacity:100%; stroke-width: 1.5pt; stroke-linejoin:round; stroke-linecap:round;" d="M40.48 31.61c0.75 0.94 1.14 1.99 1.17 3.15c0.81 5.48 1.59 11.21 2.44 17.49c0.32 2.32 0.64 4.72 0.99 7.21"></path>
<path style="fill:none; fill-opacity:0%; fill-rule:evenodd; stroke:#aaaaaa; stroke-opacity:100%; stroke-width: 1.5pt; stroke-linejoin:round; stroke-linecap:round;" d="M42.46 32.78c11.8-1.79 29.27-4.22 38.17-4.88c2.34-0.61 4.62 0.85 4.33 3.8c-0.37 3.73-1.15 9.39-2.33 15.9c-0.43 2.39-0.92 4.9-1.44 7.47"></path>
<path style="fill:none; fill-opacity:0%; fill-rule:evenodd; stroke:#aaaaaa; stroke-opacity:100%; stroke-width: 1.5pt; stroke-linejoin:round; stroke-linecap:round;" d="M44.15 44.55c3.59-0.49 35.77-4.65 38.73-4.85"></path>
<path style="fill:none; fill-opacity:0%; fill-rule:evenodd; stroke:#aaaaaa; stroke-opacity:100%; stroke-width: 1.5pt; stroke-linejoin:round; stroke-linecap:round;" d="M45.91 56.8c12.59-1.55 23.76-3.5 34.7-4.39"></path>
<path style="fill:none; fill-opacity:0%; fill-rule:evenodd; stroke:#aaaaaa; stroke-opacity:100%; stroke-width: 1.5pt; stroke-linejoin:round; stroke-linecap:round;" d="M56.01 11c1.12 1.25 1.87 2.32 2.2 6.22C61.5 55.5 71.25 80.25 90.33 94.44c5.95 4.42 5.4 0.78 4.6-7.26"></path>
<path style="fill:none; fill-opacity:0%; fill-rule:evenodd; stroke:#aaaaaa; stroke-opacity:100%; stroke-width: 1.5pt; stroke-linejoin:round; stroke-linecap:round;" d="M83.74 62.37c-0.31 1.63-0.95 3.08-1.93 4.33c-4.79 6.33-19.73 17.67-39.45 24.55"></path>

<path style="fill:none; fill-opacity:0%; fill-rule:evenodd; stroke:#000000; stroke-opacity:100%; stroke-width: 3pt; stroke-linejoin:round; stroke-linecap:round;" d="M18.88 21c4.63 1.38 11.71 5.44 12.87 7.59"></path>
<path style="fill:none; fill-opacity:0%; fill-rule:evenodd; stroke:#000000; stroke-opacity:100%; stroke-width: 3pt; stroke-linejoin:round; stroke-linecap:round;" d="M14.75 44c5.12 1.41 12.97 5.3 14.25 7.5"></path>
<path style="fill:none; fill-opacity:0%; fill-rule:evenodd; stroke:#000000; stroke-opacity:100%; stroke-width: 3pt; stroke-linejoin:round; stroke-linecap:round;" d="M17.25 91.21c2.12 0.29 3.31-0.39 4.25-2c2.75-4.7 5-9.7 7.5-15.7"></path>
<path style="fill:none; fill-opacity:0%; fill-rule:evenodd; stroke:#000000; stroke-opacity:100%; stroke-width: 3pt; stroke-linejoin:round; stroke-linecap:round;" d="M40.48 31.61c0.75 0.94 1.14 1.99 1.17 3.15c0.81 5.48 1.59 11.21 2.44 17.49c0.32 2.32 0.64 4.72 0.99 7.21"></path>
<text x="5" y="20" font-size="20" fill="#999999">5</text><path style="fill:none; fill-opacity:0%; fill-rule:evenodd; stroke:#CC0000; stroke-opacity:100%; stroke-width: 3pt; stroke-linejoin:round; stroke-linecap:round;" d="M42.46 32.78c11.8-1.79 29.27-4.22 38.17-4.88c2.34-0.61 4.62 0.85 4.33 3.8c-0.37 3.73-1.15 9.39-2.33 15.9c-0.43 2.39-0.92 4.9-1.44 7.47"  ></path>





</g><g transform="scale(1.3761467889908 1.3761467889908) translate(0, 109)">
<path style="fill:none; fill-rule:evenodd; stroke:#aaaaaa;  stroke-width:1pt; stroke-linecap:round;" d="m 109 0 L 0 0 L 0 109 L 109 109 L 109 0"></path><path style="fill:none; fill-opacity:0%; fill-rule:evenodd; stroke:#aaaaaa; stroke-opacity:100%; stroke-width: 1.5pt; stroke-linejoin:round; stroke-linecap:round;" d="M18.88 21c4.63 1.38 11.71 5.44 12.87 7.59"></path>
<path style="fill:none; fill-opacity:0%; fill-rule:evenodd; stroke:#aaaaaa; stroke-opacity:100%; stroke-width: 1.5pt; stroke-linejoin:round; stroke-linecap:round;" d="M14.75 44c5.12 1.41 12.97 5.3 14.25 7.5"></path>
<path style="fill:none; fill-opacity:0%; fill-rule:evenodd; stroke:#aaaaaa; stroke-opacity:100%; stroke-width: 1.5pt; stroke-linejoin:round; stroke-linecap:round;" d="M17.25 91.21c2.12 0.29 3.31-0.39 4.25-2c2.75-4.7 5-9.7 7.5-15.7"></path>
<path style="fill:none; fill-opacity:0%; fill-rule:evenodd; stroke:#aaaaaa; stroke-opacity:100%; stroke-width: 1.5pt; stroke-linejoin:round; stroke-linecap:round;" d="M40.48 31.61c0.75 0.94 1.14 1.99 1.17 3.15c0.81 5.48 1.59 11.21 2.44 17.49c0.32 2.32 0.64 4.72 0.99 7.21"></path>
<path style="fill:none; fill-opacity:0%; fill-rule:evenodd; stroke:#aaaaaa; stroke-opacity:100%; stroke-width: 1.5pt; stroke-linejoin:round; stroke-linecap:round;" d="M42.46 32.78c11.8-1.79 29.27-4.22 38.17-4.88c2.34-0.61 4.62 0.85 4.33 3.8c-0.37 3.73-1.15 9.39-2.33 15.9c-0.43 2.39-0.92 4.9-1.44 7.47"></path>
<path style="fill:none; fill-opacity:0%; fill-rule:evenodd; stroke:#aaaaaa; stroke-opacity:100%; stroke-width: 1.5pt; stroke-linejoin:round; stroke-linecap:round;" d="M44.15 44.55c3.59-0.49 35.77-4.65 38.73-4.85"></path>
<path style="fill:none; fill-opacity:0%; fill-rule:evenodd; stroke:#aaaaaa; stroke-opacity:100%; stroke-width: 1.5pt; stroke-linejoin:round; stroke-linecap:round;" d="M45.91 56.8c12.59-1.55 23.76-3.5 34.7-4.39"></path>
<path style="fill:none; fill-opacity:0%; fill-rule:evenodd; stroke:#aaaaaa; stroke-opacity:100%; stroke-width: 1.5pt; stroke-linejoin:round; stroke-linecap:round;" d="M56.01 11c1.12 1.25 1.87 2.32 2.2 6.22C61.5 55.5 71.25 80.25 90.33 94.44c5.95 4.42 5.4 0.78 4.6-7.26"></path>
<path style="fill:none; fill-opacity:0%; fill-rule:evenodd; stroke:#aaaaaa; stroke-opacity:100%; stroke-width: 1.5pt; stroke-linejoin:round; stroke-linecap:round;" d="M83.74 62.37c-0.31 1.63-0.95 3.08-1.93 4.33c-4.79 6.33-19.73 17.67-39.45 24.55"></path>

<path style="fill:none; fill-opacity:0%; fill-rule:evenodd; stroke:#000000; stroke-opacity:100%; stroke-width: 3pt; stroke-linejoin:round; stroke-linecap:round;" d="M18.88 21c4.63 1.38 11.71 5.44 12.87 7.59"></path>
<path style="fill:none; fill-opacity:0%; fill-rule:evenodd; stroke:#000000; stroke-opacity:100%; stroke-width: 3pt; stroke-linejoin:round; stroke-linecap:round;" d="M14.75 44c5.12 1.41 12.97 5.3 14.25 7.5"></path>
<path style="fill:none; fill-opacity:0%; fill-rule:evenodd; stroke:#000000; stroke-opacity:100%; stroke-width: 3pt; stroke-linejoin:round; stroke-linecap:round;" d="M17.25 91.21c2.12 0.29 3.31-0.39 4.25-2c2.75-4.7 5-9.7 7.5-15.7"></path>
<path style="fill:none; fill-opacity:0%; fill-rule:evenodd; stroke:#000000; stroke-opacity:100%; stroke-width: 3pt; stroke-linejoin:round; stroke-linecap:round;" d="M40.48 31.61c0.75 0.94 1.14 1.99 1.17 3.15c0.81 5.48 1.59 11.21 2.44 17.49c0.32 2.32 0.64 4.72 0.99 7.21"></path>
<path style="fill:none; fill-opacity:0%; fill-rule:evenodd; stroke:#000000; stroke-opacity:100%; stroke-width: 3pt; stroke-linejoin:round; stroke-linecap:round;" d="M42.46 32.78c11.8-1.79 29.27-4.22 38.17-4.88c2.34-0.61 4.62 0.85 4.33 3.8c-0.37 3.73-1.15 9.39-2.33 15.9c-0.43 2.39-0.92 4.9-1.44 7.47"></path>
<text x="5" y="20" font-size="20" fill="#999999">6</text><path style="fill:none; fill-opacity:0%; fill-rule:evenodd; stroke:#CC0000; stroke-opacity:100%; stroke-width: 3pt; stroke-linejoin:round; stroke-linecap:round;" d="M44.15 44.55c3.59-0.49 35.77-4.65 38.73-4.85"  ></path>




</g><g transform="scale(1.3761467889908 1.3761467889908) translate(109, 109)">
<path style="fill:none; fill-rule:evenodd; stroke:#aaaaaa;  stroke-width:1pt; stroke-linecap:round;" d="m 109 0 L 0 0 L 0 109 L 109 109 L 109 0"></path><path style="fill:none; fill-opacity:0%; fill-rule:evenodd; stroke:#aaaaaa; stroke-opacity:100%; stroke-width: 1.5pt; stroke-linejoin:round; stroke-linecap:round;" d="M18.88 21c4.63 1.38 11.71 5.44 12.87 7.59"></path>
<path style="fill:none; fill-opacity:0%; fill-rule:evenodd; stroke:#aaaaaa; stroke-opacity:100%; stroke-width: 1.5pt; stroke-linejoin:round; stroke-linecap:round;" d="M14.75 44c5.12 1.41 12.97 5.3 14.25 7.5"></path>
<path style="fill:none; fill-opacity:0%; fill-rule:evenodd; stroke:#aaaaaa; stroke-opacity:100%; stroke-width: 1.5pt; stroke-linejoin:round; stroke-linecap:round;" d="M17.25 91.21c2.12 0.29 3.31-0.39 4.25-2c2.75-4.7 5-9.7 7.5-15.7"></path>
<path style="fill:none; fill-opacity:0%; fill-rule:evenodd; stroke:#aaaaaa; stroke-opacity:100%; stroke-width: 1.5pt; stroke-linejoin:round; stroke-linecap:round;" d="M40.48 31.61c0.75 0.94 1.14 1.99 1.17 3.15c0.81 5.48 1.59 11.21 2.44 17.49c0.32 2.32 0.64 4.72 0.99 7.21"></path>
<path style="fill:none; fill-opacity:0%; fill-rule:evenodd; stroke:#aaaaaa; stroke-opacity:100%; stroke-width: 1.5pt; stroke-linejoin:round; stroke-linecap:round;" d="M42.46 32.78c11.8-1.79 29.27-4.22 38.17-4.88c2.34-0.61 4.62 0.85 4.33 3.8c-0.37 3.73-1.15 9.39-2.33 15.9c-0.43 2.39-0.92 4.9-1.44 7.47"></path>
<path style="fill:none; fill-opacity:0%; fill-rule:evenodd; stroke:#aaaaaa; stroke-opacity:100%; stroke-width: 1.5pt; stroke-linejoin:round; stroke-linecap:round;" d="M44.15 44.55c3.59-0.49 35.77-4.65 38.73-4.85"></path>
<path style="fill:none; fill-opacity:0%; fill-rule:evenodd; stroke:#aaaaaa; stroke-opacity:100%; stroke-width: 1.5pt; stroke-linejoin:round; stroke-linecap:round;" d="M45.91 56.8c12.59-1.55 23.76-3.5 34.7-4.39"></path>
<path style="fill:none; fill-opacity:0%; fill-rule:evenodd; stroke:#aaaaaa; stroke-opacity:100%; stroke-width: 1.5pt; stroke-linejoin:round; stroke-linecap:round;" d="M56.01 11c1.12 1.25 1.87 2.32 2.2 6.22C61.5 55.5 71.25 80.25 90.33 94.44c5.95 4.42 5.4 0.78 4.6-7.26"></path>
<path style="fill:none; fill-opacity:0%; fill-rule:evenodd; stroke:#aaaaaa; stroke-opacity:100%; stroke-width: 1.5pt; stroke-linejoin:round; stroke-linecap:round;" d="M83.74 62.37c-0.31 1.63-0.95 3.08-1.93 4.33c-4.79 6.33-19.73 17.67-39.45 24.55"></path>

<path style="fill:none; fill-opacity:0%; fill-rule:evenodd; stroke:#000000; stroke-opacity:100%; stroke-width: 3pt; stroke-linejoin:round; stroke-linecap:round;" d="M18.88 21c4.63 1.38 11.71 5.44 12.87 7.59"></path>
<path style="fill:none; fill-opacity:0%; fill-rule:evenodd; stroke:#000000; stroke-opacity:100%; stroke-width: 3pt; stroke-linejoin:round; stroke-linecap:round;" d="M14.75 44c5.12 1.41 12.97 5.3 14.25 7.5"></path>
<path style="fill:none; fill-opacity:0%; fill-rule:evenodd; stroke:#000000; stroke-opacity:100%; stroke-width: 3pt; stroke-linejoin:round; stroke-linecap:round;" d="M17.25 91.21c2.12 0.29 3.31-0.39 4.25-2c2.75-4.7 5-9.7 7.5-15.7"></path>
<path style="fill:none; fill-opacity:0%; fill-rule:evenodd; stroke:#000000; stroke-opacity:100%; stroke-width: 3pt; stroke-linejoin:round; stroke-linecap:round;" d="M40.48 31.61c0.75 0.94 1.14 1.99 1.17 3.15c0.81 5.48 1.59 11.21 2.44 17.49c0.32 2.32 0.64 4.72 0.99 7.21"></path>
<path style="fill:none; fill-opacity:0%; fill-rule:evenodd; stroke:#000000; stroke-opacity:100%; stroke-width: 3pt; stroke-linejoin:round; stroke-linecap:round;" d="M42.46 32.78c11.8-1.79 29.27-4.22 38.17-4.88c2.34-0.61 4.62 0.85 4.33 3.8c-0.37 3.73-1.15 9.39-2.33 15.9c-0.43 2.39-0.92 4.9-1.44 7.47"></path>
<path style="fill:none; fill-opacity:0%; fill-rule:evenodd; stroke:#000000; stroke-opacity:100%; stroke-width: 3pt; stroke-linejoin:round; stroke-linecap:round;" d="M44.15 44.55c3.59-0.49 35.77-4.65 38.73-4.85"></path>
<text x="5" y="20" font-size="20" fill="#999999">7</text><path style="fill:none; fill-opacity:0%; fill-rule:evenodd; stroke:#CC0000; stroke-opacity:100%; stroke-width: 3pt; stroke-linejoin:round; stroke-linecap:round;" d="M45.91 56.8c12.59-1.55 23.76-3.5 34.7-4.39"  ></path>



</g><g transform="scale(1.3761467889908 1.3761467889908) translate(218, 109)">
<path style="fill:none; fill-rule:evenodd; stroke:#aaaaaa;  stroke-width:1pt; stroke-linecap:round;" d="m 109 0 L 0 0 L 0 109 L 109 109 L 109 0"></path><path style="fill:none; fill-opacity:0%; fill-rule:evenodd; stroke:#aaaaaa; stroke-opacity:100%; stroke-width: 1.5pt; stroke-linejoin:round; stroke-linecap:round;" d="M18.88 21c4.63 1.38 11.71 5.44 12.87 7.59"></path>
<path style="fill:none; fill-opacity:0%; fill-rule:evenodd; stroke:#aaaaaa; stroke-opacity:100%; stroke-width: 1.5pt; stroke-linejoin:round; stroke-linecap:round;" d="M14.75 44c5.12 1.41 12.97 5.3 14.25 7.5"></path>
<path style="fill:none; fill-opacity:0%; fill-rule:evenodd; stroke:#aaaaaa; stroke-opacity:100%; stroke-width: 1.5pt; stroke-linejoin:round; stroke-linecap:round;" d="M17.25 91.21c2.12 0.29 3.31-0.39 4.25-2c2.75-4.7 5-9.7 7.5-15.7"></path>
<path style="fill:none; fill-opacity:0%; fill-rule:evenodd; stroke:#aaaaaa; stroke-opacity:100%; stroke-width: 1.5pt; stroke-linejoin:round; stroke-linecap:round;" d="M40.48 31.61c0.75 0.94 1.14 1.99 1.17 3.15c0.81 5.48 1.59 11.21 2.44 17.49c0.32 2.32 0.64 4.72 0.99 7.21"></path>
<path style="fill:none; fill-opacity:0%; fill-rule:evenodd; stroke:#aaaaaa; stroke-opacity:100%; stroke-width: 1.5pt; stroke-linejoin:round; stroke-linecap:round;" d="M42.46 32.78c11.8-1.79 29.27-4.22 38.17-4.88c2.34-0.61 4.62 0.85 4.33 3.8c-0.37 3.73-1.15 9.39-2.33 15.9c-0.43 2.39-0.92 4.9-1.44 7.47"></path>
<path style="fill:none; fill-opacity:0%; fill-rule:evenodd; stroke:#aaaaaa; stroke-opacity:100%; stroke-width: 1.5pt; stroke-linejoin:round; stroke-linecap:round;" d="M44.15 44.55c3.59-0.49 35.77-4.65 38.73-4.85"></path>
<path style="fill:none; fill-opacity:0%; fill-rule:evenodd; stroke:#aaaaaa; stroke-opacity:100%; stroke-width: 1.5pt; stroke-linejoin:round; stroke-linecap:round;" d="M45.91 56.8c12.59-1.55 23.76-3.5 34.7-4.39"></path>
<path style="fill:none; fill-opacity:0%; fill-rule:evenodd; stroke:#aaaaaa; stroke-opacity:100%; stroke-width: 1.5pt; stroke-linejoin:round; stroke-linecap:round;" d="M56.01 11c1.12 1.25 1.87 2.32 2.2 6.22C61.5 55.5 71.25 80.25 90.33 94.44c5.95 4.42 5.4 0.78 4.6-7.26"></path>
<path style="fill:none; fill-opacity:0%; fill-rule:evenodd; stroke:#aaaaaa; stroke-opacity:100%; stroke-width: 1.5pt; stroke-linejoin:round; stroke-linecap:round;" d="M83.74 62.37c-0.31 1.63-0.95 3.08-1.93 4.33c-4.79 6.33-19.73 17.67-39.45 24.55"></path>

<path style="fill:none; fill-opacity:0%; fill-rule:evenodd; stroke:#000000; stroke-opacity:100%; stroke-width: 3pt; stroke-linejoin:round; stroke-linecap:round;" d="M18.88 21c4.63 1.38 11.71 5.44 12.87 7.59"></path>
<path style="fill:none; fill-opacity:0%; fill-rule:evenodd; stroke:#000000; stroke-opacity:100%; stroke-width: 3pt; stroke-linejoin:round; stroke-linecap:round;" d="M14.75 44c5.12 1.41 12.97 5.3 14.25 7.5"></path>
<path style="fill:none; fill-opacity:0%; fill-rule:evenodd; stroke:#000000; stroke-opacity:100%; stroke-width: 3pt; stroke-linejoin:round; stroke-linecap:round;" d="M17.25 91.21c2.12 0.29 3.31-0.39 4.25-2c2.75-4.7 5-9.7 7.5-15.7"></path>
<path style="fill:none; fill-opacity:0%; fill-rule:evenodd; stroke:#000000; stroke-opacity:100%; stroke-width: 3pt; stroke-linejoin:round; stroke-linecap:round;" d="M40.48 31.61c0.75 0.94 1.14 1.99 1.17 3.15c0.81 5.48 1.59 11.21 2.44 17.49c0.32 2.32 0.64 4.72 0.99 7.21"></path>
<path style="fill:none; fill-opacity:0%; fill-rule:evenodd; stroke:#000000; stroke-opacity:100%; stroke-width: 3pt; stroke-linejoin:round; stroke-linecap:round;" d="M42.46 32.78c11.8-1.79 29.27-4.22 38.17-4.88c2.34-0.61 4.62 0.85 4.33 3.8c-0.37 3.73-1.15 9.39-2.33 15.9c-0.43 2.39-0.92 4.9-1.44 7.47"></path>
<path style="fill:none; fill-opacity:0%; fill-rule:evenodd; stroke:#000000; stroke-opacity:100%; stroke-width: 3pt; stroke-linejoin:round; stroke-linecap:round;" d="M44.15 44.55c3.59-0.49 35.77-4.65 38.73-4.85"></path>
<path style="fill:none; fill-opacity:0%; fill-rule:evenodd; stroke:#000000; stroke-opacity:100%; stroke-width: 3pt; stroke-linejoin:round; stroke-linecap:round;" d="M45.91 56.8c12.59-1.55 23.76-3.5 34.7-4.39"></path>
<text x="5" y="20" font-size="20" fill="#999999">8</text><path style="fill:none; fill-opacity:0%; fill-rule:evenodd; stroke:#CC0000; stroke-opacity:100%; stroke-width: 3pt; stroke-linejoin:round; stroke-linecap:round;" d="M56.01 11c1.12 1.25 1.87 2.32 2.2 6.22C61.5 55.5 71.25 80.25 90.33 94.44c5.95 4.42 5.4 0.78 4.6-7.26"  ></path>


</g><g transform="scale(1.3761467889908 1.3761467889908) translate(327, 109)">
<path style="fill:none; fill-rule:evenodd; stroke:#aaaaaa;  stroke-width:1pt; stroke-linecap:round;" d="m 109 0 L 0 0 L 0 109 L 109 109 L 109 0"></path><path style="fill:none; fill-opacity:0%; fill-rule:evenodd; stroke:#aaaaaa; stroke-opacity:100%; stroke-width: 1.5pt; stroke-linejoin:round; stroke-linecap:round;" d="M18.88 21c4.63 1.38 11.71 5.44 12.87 7.59"></path>
<path style="fill:none; fill-opacity:0%; fill-rule:evenodd; stroke:#aaaaaa; stroke-opacity:100%; stroke-width: 1.5pt; stroke-linejoin:round; stroke-linecap:round;" d="M14.75 44c5.12 1.41 12.97 5.3 14.25 7.5"></path>
<path style="fill:none; fill-opacity:0%; fill-rule:evenodd; stroke:#aaaaaa; stroke-opacity:100%; stroke-width: 1.5pt; stroke-linejoin:round; stroke-linecap:round;" d="M17.25 91.21c2.12 0.29 3.31-0.39 4.25-2c2.75-4.7 5-9.7 7.5-15.7"></path>
<path style="fill:none; fill-opacity:0%; fill-rule:evenodd; stroke:#aaaaaa; stroke-opacity:100%; stroke-width: 1.5pt; stroke-linejoin:round; stroke-linecap:round;" d="M40.48 31.61c0.75 0.94 1.14 1.99 1.17 3.15c0.81 5.48 1.59 11.21 2.44 17.49c0.32 2.32 0.64 4.72 0.99 7.21"></path>
<path style="fill:none; fill-opacity:0%; fill-rule:evenodd; stroke:#aaaaaa; stroke-opacity:100%; stroke-width: 1.5pt; stroke-linejoin:round; stroke-linecap:round;" d="M42.46 32.78c11.8-1.79 29.27-4.22 38.17-4.88c2.34-0.61 4.62 0.85 4.33 3.8c-0.37 3.73-1.15 9.39-2.33 15.9c-0.43 2.39-0.92 4.9-1.44 7.47"></path>
<path style="fill:none; fill-opacity:0%; fill-rule:evenodd; stroke:#aaaaaa; stroke-opacity:100%; stroke-width: 1.5pt; stroke-linejoin:round; stroke-linecap:round;" d="M44.15 44.55c3.59-0.49 35.77-4.65 38.73-4.85"></path>
<path style="fill:none; fill-opacity:0%; fill-rule:evenodd; stroke:#aaaaaa; stroke-opacity:100%; stroke-width: 1.5pt; stroke-linejoin:round; stroke-linecap:round;" d="M45.91 56.8c12.59-1.55 23.76-3.5 34.7-4.39"></path>
<path style="fill:none; fill-opacity:0%; fill-rule:evenodd; stroke:#aaaaaa; stroke-opacity:100%; stroke-width: 1.5pt; stroke-linejoin:round; stroke-linecap:round;" d="M56.01 11c1.12 1.25 1.87 2.32 2.2 6.22C61.5 55.5 71.25 80.25 90.33 94.44c5.95 4.42 5.4 0.78 4.6-7.26"></path>
<path style="fill:none; fill-opacity:0%; fill-rule:evenodd; stroke:#aaaaaa; stroke-opacity:100%; stroke-width: 1.5pt; stroke-linejoin:round; stroke-linecap:round;" d="M83.74 62.37c-0.31 1.63-0.95 3.08-1.93 4.33c-4.79 6.33-19.73 17.67-39.45 24.55"></path>

<path style="fill:none; fill-opacity:0%; fill-rule:evenodd; stroke:#000000; stroke-opacity:100%; stroke-width: 3pt; stroke-linejoin:round; stroke-linecap:round;" d="M18.88 21c4.63 1.38 11.71 5.44 12.87 7.59"></path>
<path style="fill:none; fill-opacity:0%; fill-rule:evenodd; stroke:#000000; stroke-opacity:100%; stroke-width: 3pt; stroke-linejoin:round; stroke-linecap:round;" d="M14.75 44c5.12 1.41 12.97 5.3 14.25 7.5"></path>
<path style="fill:none; fill-opacity:0%; fill-rule:evenodd; stroke:#000000; stroke-opacity:100%; stroke-width: 3pt; stroke-linejoin:round; stroke-linecap:round;" d="M17.25 91.21c2.12 0.29 3.31-0.39 4.25-2c2.75-4.7 5-9.7 7.5-15.7"></path>
<path style="fill:none; fill-opacity:0%; fill-rule:evenodd; stroke:#000000; stroke-opacity:100%; stroke-width: 3pt; stroke-linejoin:round; stroke-linecap:round;" d="M40.48 31.61c0.75 0.94 1.14 1.99 1.17 3.15c0.81 5.48 1.59 11.21 2.44 17.49c0.32 2.32 0.64 4.72 0.99 7.21"></path>
<path style="fill:none; fill-opacity:0%; fill-rule:evenodd; stroke:#000000; stroke-opacity:100%; stroke-width: 3pt; stroke-linejoin:round; stroke-linecap:round;" d="M42.46 32.78c11.8-1.79 29.27-4.22 38.17-4.88c2.34-0.61 4.62 0.85 4.33 3.8c-0.37 3.73-1.15 9.39-2.33 15.9c-0.43 2.39-0.92 4.9-1.44 7.47"></path>
<path style="fill:none; fill-opacity:0%; fill-rule:evenodd; stroke:#000000; stroke-opacity:100%; stroke-width: 3pt; stroke-linejoin:round; stroke-linecap:round;" d="M44.15 44.55c3.59-0.49 35.77-4.65 38.73-4.85"></path>
<path style="fill:none; fill-opacity:0%; fill-rule:evenodd; stroke:#000000; stroke-opacity:100%; stroke-width: 3pt; stroke-linejoin:round; stroke-linecap:round;" d="M45.91 56.8c12.59-1.55 23.76-3.5 34.7-4.39"></path>
<path style="fill:none; fill-opacity:0%; fill-rule:evenodd; stroke:#000000; stroke-opacity:100%; stroke-width: 3pt; stroke-linejoin:round; stroke-linecap:round;" d="M56.01 11c1.12 1.25 1.87 2.32 2.2 6.22C61.5 55.5 71.25 80.25 90.33 94.44c5.95 4.42 5.4 0.78 4.6-7.26"></path>
<text x="5" y="20" font-size="20" fill="#999999">9</text><path style="fill:none; fill-opacity:0%; fill-rule:evenodd; stroke:#CC0000; stroke-opacity:100%; stroke-width: 3pt; stroke-linejoin:round; stroke-linecap:round;" d="M83.74 62.37c-0.31 1.63-0.95 3.08-1.93 4.33c-4.79 6.33-19.73 17.67-39.45 24.55"  ></path>

</g>

</svg>  
          
