<?xml version="1.0" standalone="no"?>
<!DOCTYPE svg PUBLIC "-//W3C//DTD SVG 1.1//EN"   "http://www.w3.org/Graphics/SVG/1.1/DTD/svg11.dtd">
<svg width="751" height="301"  version="1.1" xmlns="http://www.w3.org/2000/svg">
  <defs>
    <marker id="Triangle" viewBox="0 0 10 10" refX="0" refY="5" markerUnits="strokeWidth" markerWidth="3" style="stroke-opacity:0%;fill:#aaaaaa;" markerHeight="2" orient="auto">
      <path d="M 0 0 L 10 5 L 0 10 z" />
    </marker>
    
    <marker id="Arrow" viewBox="0 0 10 10" refX="5" refY="5" markerUnits="strokeWidth" markerWidth="1.8" style="stroke-opacity:0%;fill:#770000;" markerHeight="2" orient="auto">
      <path d="M 0 4 L 6 4 L 4 1 L 10 5 L 4 9 L 6 6 L 0 6 z" />
        <circle cx="5" cy="5" r="5" />
      </marker>
    
    <marker id="TriangleRed" viewBox="0 0 10 10" refX="0" refY="5" markerUnits="strokeWidth" markerWidth="3" style="stroke-opacity:0%;fill:#CC0000;" markerHeight="2" orient="auto">
      <path d="M 0 0 L 10 5 L 0 10 z" />
    </marker>
    
    <marker id="ArrowRed" viewBox="0 0 10 10" refX="5" refY="5" markerUnits="strokeWidth" markerWidth="1.8" style="stroke-opacity:0%;fill:#CC0000;" markerHeight="2" orient="auto">
      <path d="M 0 4 L 6 4 L 4 1 L 10 5 L 4 9 L 6 6 L 0 6 z" />
        <circle cx="5" cy="5" r="5" />
      </marker>
    
  </defs>
  
  <path style="fill:#ffffff; fill-opacity:100%; fill-rule:evenodd; stroke-width:0;" d="M 0 0 L 751 0 L 751 301 L 0 301 L 0 0" />

  <g transform="scale(1.3761467889908 1.3761467889908) translate(0, 0)">
<path style="fill:none; fill-rule:evenodd; stroke:#aaaaaa;  stroke-width:1pt; stroke-linecap:round;" d="m 109 0 L 0 0 L 0 109 L 109 109 L 109 0"></path><path style="fill:none; fill-opacity:0%; fill-rule:evenodd; stroke:#aaaaaa; stroke-opacity:100%; stroke-width: 1.5pt; stroke-linejoin:round; stroke-linecap:round;" d="M18.13 17c4.28 1.78 11.05 7.32 12.12 10.09"></path>
<path style="fill:none; fill-opacity:0%; fill-rule:evenodd; stroke:#aaaaaa; stroke-opacity:100%; stroke-width: 1.5pt; stroke-linejoin:round; stroke-linecap:round;" d="M13.5 43.5c4.24 1.85 10.94 7.62 12 10.5"></path>
<path style="fill:none; fill-opacity:0%; fill-rule:evenodd; stroke:#aaaaaa; stroke-opacity:100%; stroke-width: 1.5pt; stroke-linejoin:round; stroke-linecap:round;" d="M13.75 88.73c1.71 1.27 3.78 1.32 4.86-0.25c3.14-4.57 8.29-13.66 11.14-19.49"></path>
<path style="fill:none; fill-opacity:0%; fill-rule:evenodd; stroke:#aaaaaa; stroke-opacity:100%; stroke-width: 1.5pt; stroke-linejoin:round; stroke-linecap:round;" d="M49.99 18.12c0.29 1 0.83 2.63 0.68 4.07c-0.75 7.08-6.17 34.07-10.86 43.02c-0.85 1.62 0.3 2.42 0.68 2.52c9.27 2.53 15.44 9.78 19.69 20.06"></path>
<path style="fill:none; fill-opacity:0%; fill-rule:evenodd; stroke:#aaaaaa; stroke-opacity:100%; stroke-width: 1.5pt; stroke-linejoin:round; stroke-linecap:round;" d="M61.59 32.89c0.24 1.58 0.62 4.27 0.3 6.32C59.3 55.8 51.35 79.91 32.83 92.25"></path>
<path style="fill:none; fill-opacity:0%; fill-rule:evenodd; stroke:#aaaaaa; stroke-opacity:100%; stroke-width: 1.5pt; stroke-linejoin:round; stroke-linecap:round;" d="M33.5 44.98c0.56 0.77 1.3 1.32 2.79 1.14c1.6-0.2 18.26-3.56 27.39-5.49"></path>
<path style="fill:none; fill-opacity:0%; fill-rule:evenodd; stroke:#aaaaaa; stroke-opacity:100%; stroke-width: 1.5pt; stroke-linejoin:round; stroke-linecap:round;" d="M70.77 31.27c0.36 0.75 0.72 1.38 0.87 2.32c1.23 7.47 0.15 40.42 0.37 56.11"></path>
<path style="fill:none; fill-opacity:0%; fill-rule:evenodd; stroke:#aaaaaa; stroke-opacity:100%; stroke-width: 1.5pt; stroke-linejoin:round; stroke-linecap:round;" d="M71.72 33.48c8.11-1.2 14.28-2.23 20.29-2.98c1.55-0.19 3.28 1.62 3.06 3.73c-0.9 8.72-3.67 37-4.8 51.16"></path>
<path style="fill:none; fill-opacity:0%; fill-rule:evenodd; stroke:#aaaaaa; stroke-opacity:100%; stroke-width: 1.5pt; stroke-linejoin:round; stroke-linecap:round;" d="M72.18 86.71c6.58-0.86 14.82-1.21 21.04-1.38"></path>

<text x="5" y="20" font-size="20" fill="#999999">1</text><path style="fill:none; fill-opacity:0%; fill-rule:evenodd; stroke:#CC0000; stroke-opacity:100%; stroke-width: 3pt; stroke-linejoin:round; stroke-linecap:round;" d="M18.13 17c4.28 1.78 11.05 7.32 12.12 10.09" marker-end="url(#TriangleRed)" marker-start="url(#ArrowRed)" ></path>









</g><g transform="scale(1.3761467889908 1.3761467889908) translate(109, 0)">
<path style="fill:none; fill-rule:evenodd; stroke:#aaaaaa;  stroke-width:1pt; stroke-linecap:round;" d="m 109 0 L 0 0 L 0 109 L 109 109 L 109 0"></path><path style="fill:none; fill-opacity:0%; fill-rule:evenodd; stroke:#aaaaaa; stroke-opacity:100%; stroke-width: 1.5pt; stroke-linejoin:round; stroke-linecap:round;" d="M18.13 17c4.28 1.78 11.05 7.32 12.12 10.09"></path>
<path style="fill:none; fill-opacity:0%; fill-rule:evenodd; stroke:#aaaaaa; stroke-opacity:100%; stroke-width: 1.5pt; stroke-linejoin:round; stroke-linecap:round;" d="M13.5 43.5c4.24 1.85 10.94 7.62 12 10.5"></path>
<path style="fill:none; fill-opacity:0%; fill-rule:evenodd; stroke:#aaaaaa; stroke-opacity:100%; stroke-width: 1.5pt; stroke-linejoin:round; stroke-linecap:round;" d="M13.75 88.73c1.71 1.27 3.78 1.32 4.86-0.25c3.14-4.57 8.29-13.66 11.14-19.49"></path>
<path style="fill:none; fill-opacity:0%; fill-rule:evenodd; stroke:#aaaaaa; stroke-opacity:100%; stroke-width: 1.5pt; stroke-linejoin:round; stroke-linecap:round;" d="M49.99 18.12c0.29 1 0.83 2.63 0.68 4.07c-0.75 7.08-6.17 34.07-10.86 43.02c-0.85 1.62 0.3 2.42 0.68 2.52c9.27 2.53 15.44 9.78 19.69 20.06"></path>
<path style="fill:none; fill-opacity:0%; fill-rule:evenodd; stroke:#aaaaaa; stroke-opacity:100%; stroke-width: 1.5pt; stroke-linejoin:round; stroke-linecap:round;" d="M61.59 32.89c0.24 1.58 0.62 4.27 0.3 6.32C59.3 55.8 51.35 79.91 32.83 92.25"></path>
<path style="fill:none; fill-opacity:0%; fill-rule:evenodd; stroke:#aaaaaa; stroke-opacity:100%; stroke-width: 1.5pt; stroke-linejoin:round; stroke-linecap:round;" d="M33.5 44.98c0.56 0.77 1.3 1.32 2.79 1.14c1.6-0.2 18.26-3.56 27.39-5.49"></path>
<path style="fill:none; fill-opacity:0%; fill-rule:evenodd; stroke:#aaaaaa; stroke-opacity:100%; stroke-width: 1.5pt; stroke-linejoin:round; stroke-linecap:round;" d="M70.77 31.27c0.36 0.75 0.72 1.38 0.87 2.32c1.23 7.47 0.15 40.42 0.37 56.11"></path>
<path style="fill:none; fill-opacity:0%; fill-rule:evenodd; stroke:#aaaaaa; stroke-opacity:100%; stroke-width: 1.5pt; stroke-linejoin:round; stroke-linecap:round;" d="M71.72 33.48c8.11-1.2 14.28-2.23 20.29-2.98c1.55-0.19 3.28 1.62 3.06 3.73c-0.9 8.72-3.67 37-4.8 51.16"></path>
<path style="fill:none; fill-opacity:0%; fill-rule:evenodd; stroke:#aaaaaa; stroke-opacity:100%; stroke-width: 1.5pt; stroke-linejoin:round; stroke-linecap:round;" d="M72.18 86.71c6.58-0.86 14.82-1.21 21.04-1.38"></path>

<path style="fill:none; fill-opacity:0%; fill-rule:evenodd; stroke:#000000; stroke-opacity:100%; stroke-width: 3pt; stroke-linejoin:round; stroke-linecap:round;" d="M18.13 17c4.28 1.78 11.05 7.32 12.12 10.09"></path>
<text x="5" y="20" font-size="20" fill="#999999">2</text><path style="fill:none; fill-opacity:0%; fill-rule:evenodd; stroke:#CC0000; stroke-opacity:100%; stroke-width: 3pt; stroke-linejoin:round; stroke-linecap:round;" d="M13.5 43.5c4.24 1.85 10.94 7.62 12 10.5" marker-end="url(#TriangleRed)" marker-start="url(#ArrowRed)" ></path>








</g><g transform="scale(1.3761467889908 1.3761467889908) translate(218, 0)">
<path style="fill:none; fill-rule:evenodd; stroke:#aaaaaa;  stroke-width:1pt; stroke-linecap:round;" d="m 109 0 L 0 0 L 0 109 L 109 109 L 109 0"></path><path style="fill:none; fill-opacity:0%; fill-rule:evenodd; stroke:#aaaaaa; stroke-opacity:100%; stroke-width: 1.5pt; stroke-linejoin:round; stroke-linecap:round;" d="M18.13 17c4.28 1.78 11.05 7.32 12.12 10.09"></path>
<path style="fill:none; fill-opacity:0%; fill-rule:evenodd; stroke:#aaaaaa; stroke-opacity:100%; stroke-width: 1.5pt; stroke-linejoin:round; stroke-linecap:round;" d="M13.5 43.5c4.24 1.85 10.94 7.62 12 10.5"></path>
<path style="fill:none; fill-opacity:0%; fill-rule:evenodd; stroke:#aaaaaa; stroke-opacity:100%; stroke-width: 1.5pt; stroke-linejoin:round; stroke-linecap:round;" d="M13.75 88.73c1.71 1.27 3.78 1.32 4.86-0.25c3.14-4.57 8.29-13.66 11.14-19.49"></path>
<path style="fill:none; fill-opacity:0%; fill-rule:evenodd; stroke:#aaaaaa; stroke-opacity:100%; stroke-width: 1.5pt; stroke-linejoin:round; stroke-linecap:round;" d="M49.99 18.12c0.29 1 0.83 2.63 0.68 4.07c-0.75 7.08-6.17 34.07-10.86 43.02c-0.85 1.62 0.3 2.42 0.68 2.52c9.27 2.53 15.44 9.78 19.69 20.06"></path>
<path style="fill:none; fill-opacity:0%; fill-rule:evenodd; stroke:#aaaaaa; stroke-opacity:100%; stroke-width: 1.5pt; stroke-linejoin:round; stroke-linecap:round;" d="M61.59 32.89c0.24 1.58 0.62 4.27 0.3 6.32C59.3 55.8 51.35 79.91 32.83 92.25"></path>
<path style="fill:none; fill-opacity:0%; fill-rule:evenodd; stroke:#aaaaaa; stroke-opacity:100%; stroke-width: 1.5pt; stroke-linejoin:round; stroke-linecap:round;" d="M33.5 44.98c0.56 0.77 1.3 1.32 2.79 1.14c1.6-0.2 18.26-3.56 27.39-5.49"></path>
<path style="fill:none; fill-opacity:0%; fill-rule:evenodd; stroke:#aaaaaa; stroke-opacity:100%; stroke-width: 1.5pt; stroke-linejoin:round; stroke-linecap:round;" d="M70.77 31.27c0.36 0.75 0.72 1.38 0.87 2.32c1.23 7.47 0.15 40.42 0.37 56.11"></path>
<path style="fill:none; fill-opacity:0%; fill-rule:evenodd; stroke:#aaaaaa; stroke-opacity:100%; stroke-width: 1.5pt; stroke-linejoin:round; stroke-linecap:round;" d="M71.72 33.48c8.11-1.2 14.28-2.23 20.29-2.98c1.55-0.19 3.28 1.62 3.06 3.73c-0.9 8.72-3.67 37-4.8 51.16"></path>
<path style="fill:none; fill-opacity:0%; fill-rule:evenodd; stroke:#aaaaaa; stroke-opacity:100%; stroke-width: 1.5pt; stroke-linejoin:round; stroke-linecap:round;" d="M72.18 86.71c6.58-0.86 14.82-1.21 21.04-1.38"></path>

<path style="fill:none; fill-opacity:0%; fill-rule:evenodd; stroke:#000000; stroke-opacity:100%; stroke-width: 3pt; stroke-linejoin:round; stroke-linecap:round;" d="M18.13 17c4.28 1.78 11.05 7.32 12.12 10.09"></path>
<path style="fill:none; fill-opacity:0%; fill-rule:evenodd; stroke:#000000; stroke-opacity:100%; stroke-width: 3pt; stroke-linejoin:round; stroke-linecap:round;" d="M13.5 43.5c4.24 1.85 10.94 7.62 12 10.5"></path>
<text x="5" y="20" font-size="20" fill="#999999">3</text><path style="fill:none; fill-opacity:0%; fill-rule:evenodd; stroke:#CC0000; stroke-opacity:100%; stroke-width: 3pt; stroke-linejoin:round; stroke-linecap:round;" d="M13.75 88.73c1.71 1.27 3.78 1.32 4.86-0.25c3.14-4.57 8.29-13.66 11.14-19.49" marker-end="url(#TriangleRed)" marker-start="url(#ArrowRed)" ></path>







</g><g transform="scale(1.3761467889908 1.3761467889908) translate(327, 0)">
<path style="fill:none; fill-rule:evenodd; stroke:#aaaaaa;  stroke-width:1pt; stroke-linecap:round;" d="m 109 0 L 0 0 L 0 109 L 109 109 L 109 0"></path><path style="fill:none; fill-opacity:0%; fill-rule:evenodd; stroke:#aaaaaa; stroke-opacity:100%; stroke-width: 1.5pt; stroke-linejoin:round; stroke-linecap:round;" d="M18.13 17c4.28 1.78 11.05 7.32 12.12 10.09"></path>
<path style="fill:none; fill-opacity:0%; fill-rule:evenodd; stroke:#aaaaaa; stroke-opacity:100%; stroke-width: 1.5pt; stroke-linejoin:round; stroke-linecap:round;" d="M13.5 43.5c4.24 1.85 10.94 7.62 12 10.5"></path>
<path style="fill:none; fill-opacity:0%; fill-rule:evenodd; stroke:#aaaaaa; stroke-opacity:100%; stroke-width: 1.5pt; stroke-linejoin:round; stroke-linecap:round;" d="M13.75 88.73c1.71 1.27 3.78 1.32 4.86-0.25c3.14-4.57 8.29-13.66 11.14-19.49"></path>
<path style="fill:none; fill-opacity:0%; fill-rule:evenodd; stroke:#aaaaaa; stroke-opacity:100%; stroke-width: 1.5pt; stroke-linejoin:round; stroke-linecap:round;" d="M49.99 18.12c0.29 1 0.83 2.63 0.68 4.07c-0.75 7.08-6.17 34.07-10.86 43.02c-0.85 1.62 0.3 2.42 0.68 2.52c9.27 2.53 15.44 9.78 19.69 20.06"></path>
<path style="fill:none; fill-opacity:0%; fill-rule:evenodd; stroke:#aaaaaa; stroke-opacity:100%; stroke-width: 1.5pt; stroke-linejoin:round; stroke-linecap:round;" d="M61.59 32.89c0.24 1.58 0.62 4.27 0.3 6.32C59.3 55.8 51.35 79.91 32.83 92.25"></path>
<path style="fill:none; fill-opacity:0%; fill-rule:evenodd; stroke:#aaaaaa; stroke-opacity:100%; stroke-width: 1.5pt; stroke-linejoin:round; stroke-linecap:round;" d="M33.5 44.98c0.56 0.77 1.3 1.32 2.79 1.14c1.6-0.2 18.26-3.56 27.39-5.49"></path>
<path style="fill:none; fill-opacity:0%; fill-rule:evenodd; stroke:#aaaaaa; stroke-opacity:100%; stroke-width: 1.5pt; stroke-linejoin:round; stroke-linecap:round;" d="M70.77 31.27c0.36 0.75 0.72 1.38 0.87 2.32c1.23 7.47 0.15 40.42 0.37 56.11"></path>
<path style="fill:none; fill-opacity:0%; fill-rule:evenodd; stroke:#aaaaaa; stroke-opacity:100%; stroke-width: 1.5pt; stroke-linejoin:round; stroke-linecap:round;" d="M71.72 33.48c8.11-1.2 14.28-2.23 20.29-2.98c1.55-0.19 3.28 1.62 3.06 3.73c-0.9 8.72-3.67 37-4.8 51.16"></path>
<path style="fill:none; fill-opacity:0%; fill-rule:evenodd; stroke:#aaaaaa; stroke-opacity:100%; stroke-width: 1.5pt; stroke-linejoin:round; stroke-linecap:round;" d="M72.18 86.71c6.58-0.86 14.82-1.21 21.04-1.38"></path>

<path style="fill:none; fill-opacity:0%; fill-rule:evenodd; stroke:#000000; stroke-opacity:100%; stroke-width: 3pt; stroke-linejoin:round; stroke-linecap:round;" d="M18.13 17c4.28 1.78 11.05 7.32 12.12 10.09"></path>
<path style="fill:none; fill-opacity:0%; fill-rule:evenodd; stroke:#000000; stroke-opacity:100%; stroke-width: 3pt; stroke-linejoin:round; stroke-linecap:round;" d="M13.5 43.5c4.24 1.85 10.94 7.62 12 10.5"></path>
<path style="fill:none; fill-opacity:0%; fill-rule:evenodd; stroke:#000000; stroke-opacity:100%; stroke-width: 3pt; stroke-linejoin:round; stroke-linecap:round;" d="M13.75 88.73c1.71 1.27 3.78 1.32 4.86-0.25c3.14-4.57 8.29-13.66 11.14-19.49"></path>
<text x="5" y="20" font-size="20" fill="#999999">4</text><path style="fill:none; fill-opacity:0%; fill-rule:evenodd; stroke:#CC0000; stroke-opacity:100%; stroke-width: 3pt; stroke-linejoin:round; stroke-linecap:round;" d="M49.99 18.12c0.29 1 0.83 2.63 0.68 4.07c-0.75 7.08-6.17 34.07-10.86 43.02c-0.85 1.62 0.3 2.42 0.68 2.52c9.27 2.53 15.44 9.78 19.69 20.06" marker-end="url(#TriangleRed)" marker-start="url(#ArrowRed)" ></path>






</g><g transform="scale(1.3761467889908 1.3761467889908) translate(436, 0)">
<path style="fill:none; fill-rule:evenodd; stroke:#aaaaaa;  stroke-width:1pt; stroke-linecap:round;" d="m 109 0 L 0 0 L 0 109 L 109 109 L 109 0"></path><path style="fill:none; fill-opacity:0%; fill-rule:evenodd; stroke:#aaaaaa; stroke-opacity:100%; stroke-width: 1.5pt; stroke-linejoin:round; stroke-linecap:round;" d="M18.13 17c4.28 1.78 11.05 7.32 12.12 10.09"></path>
<path style="fill:none; fill-opacity:0%; fill-rule:evenodd; stroke:#aaaaaa; stroke-opacity:100%; stroke-width: 1.5pt; stroke-linejoin:round; stroke-linecap:round;" d="M13.5 43.5c4.24 1.85 10.94 7.62 12 10.5"></path>
<path style="fill:none; fill-opacity:0%; fill-rule:evenodd; stroke:#aaaaaa; stroke-opacity:100%; stroke-width: 1.5pt; stroke-linejoin:round; stroke-linecap:round;" d="M13.75 88.73c1.71 1.27 3.78 1.32 4.86-0.25c3.14-4.57 8.29-13.66 11.14-19.49"></path>
<path style="fill:none; fill-opacity:0%; fill-rule:evenodd; stroke:#aaaaaa; stroke-opacity:100%; stroke-width: 1.5pt; stroke-linejoin:round; stroke-linecap:round;" d="M49.99 18.12c0.29 1 0.83 2.63 0.68 4.07c-0.75 7.08-6.17 34.07-10.86 43.02c-0.85 1.62 0.3 2.42 0.68 2.52c9.27 2.53 15.44 9.78 19.69 20.06"></path>
<path style="fill:none; fill-opacity:0%; fill-rule:evenodd; stroke:#aaaaaa; stroke-opacity:100%; stroke-width: 1.5pt; stroke-linejoin:round; stroke-linecap:round;" d="M61.59 32.89c0.24 1.58 0.62 4.27 0.3 6.32C59.3 55.8 51.35 79.91 32.83 92.25"></path>
<path style="fill:none; fill-opacity:0%; fill-rule:evenodd; stroke:#aaaaaa; stroke-opacity:100%; stroke-width: 1.5pt; stroke-linejoin:round; stroke-linecap:round;" d="M33.5 44.98c0.56 0.77 1.3 1.32 2.79 1.14c1.6-0.2 18.26-3.56 27.39-5.49"></path>
<path style="fill:none; fill-opacity:0%; fill-rule:evenodd; stroke:#aaaaaa; stroke-opacity:100%; stroke-width: 1.5pt; stroke-linejoin:round; stroke-linecap:round;" d="M70.77 31.27c0.36 0.75 0.72 1.38 0.87 2.32c1.23 7.47 0.15 40.42 0.37 56.11"></path>
<path style="fill:none; fill-opacity:0%; fill-rule:evenodd; stroke:#aaaaaa; stroke-opacity:100%; stroke-width: 1.5pt; stroke-linejoin:round; stroke-linecap:round;" d="M71.72 33.48c8.11-1.2 14.28-2.23 20.29-2.98c1.55-0.19 3.28 1.62 3.06 3.73c-0.9 8.72-3.67 37-4.8 51.16"></path>
<path style="fill:none; fill-opacity:0%; fill-rule:evenodd; stroke:#aaaaaa; stroke-opacity:100%; stroke-width: 1.5pt; stroke-linejoin:round; stroke-linecap:round;" d="M72.18 86.71c6.58-0.86 14.82-1.21 21.04-1.38"></path>

<path style="fill:none; fill-opacity:0%; fill-rule:evenodd; stroke:#000000; stroke-opacity:100%; stroke-width: 3pt; stroke-linejoin:round; stroke-linecap:round;" d="M18.13 17c4.28 1.78 11.05 7.32 12.12 10.09"></path>
<path style="fill:none; fill-opacity:0%; fill-rule:evenodd; stroke:#000000; stroke-opacity:100%; stroke-width: 3pt; stroke-linejoin:round; stroke-linecap:round;" d="M13.5 43.5c4.24 1.85 10.94 7.62 12 10.5"></path>
<path style="fill:none; fill-opacity:0%; fill-rule:evenodd; stroke:#000000; stroke-opacity:100%; stroke-width: 3pt; stroke-linejoin:round; stroke-linecap:round;" d="M13.75 88.73c1.71 1.27 3.78 1.32 4.86-0.25c3.14-4.57 8.29-13.66 11.14-19.49"></path>
<path style="fill:none; fill-opacity:0%; fill-rule:evenodd; stroke:#000000; stroke-opacity:100%; stroke-width: 3pt; stroke-linejoin:round; stroke-linecap:round;" d="M49.99 18.12c0.29 1 0.83 2.63 0.68 4.07c-0.75 7.08-6.17 34.07-10.86 43.02c-0.85 1.62 0.3 2.42 0.68 2.52c9.27 2.53 15.44 9.78 19.69 20.06"></path>
<text x="5" y="20" font-size="20" fill="#999999">5</text><path style="fill:none; fill-opacity:0%; fill-rule:evenodd; stroke:#CC0000; stroke-opacity:100%; stroke-width: 3pt; stroke-linejoin:round; stroke-linecap:round;" d="M61.59 32.89c0.24 1.58 0.62 4.27 0.3 6.32C59.3 55.8 51.35 79.91 32.83 92.25" marker-end="url(#TriangleRed)" marker-start="url(#ArrowRed)" ></path>





</g><g transform="scale(1.3761467889908 1.3761467889908) translate(0, 109)">
<path style="fill:none; fill-rule:evenodd; stroke:#aaaaaa;  stroke-width:1pt; stroke-linecap:round;" d="m 109 0 L 0 0 L 0 109 L 109 109 L 109 0"></path><path style="fill:none; fill-opacity:0%; fill-rule:evenodd; stroke:#aaaaaa; stroke-opacity:100%; stroke-width: 1.5pt; stroke-linejoin:round; stroke-linecap:round;" d="M18.13 17c4.28 1.78 11.05 7.32 12.12 10.09"></path>
<path style="fill:none; fill-opacity:0%; fill-rule:evenodd; stroke:#aaaaaa; stroke-opacity:100%; stroke-width: 1.5pt; stroke-linejoin:round; stroke-linecap:round;" d="M13.5 43.5c4.24 1.85 10.94 7.62 12 10.5"></path>
<path style="fill:none; fill-opacity:0%; fill-rule:evenodd; stroke:#aaaaaa; stroke-opacity:100%; stroke-width: 1.5pt; stroke-linejoin:round; stroke-linecap:round;" d="M13.75 88.73c1.71 1.27 3.78 1.32 4.86-0.25c3.14-4.57 8.29-13.66 11.14-19.49"></path>
<path style="fill:none; fill-opacity:0%; fill-rule:evenodd; stroke:#aaaaaa; stroke-opacity:100%; stroke-width: 1.5pt; stroke-linejoin:round; stroke-linecap:round;" d="M49.99 18.12c0.29 1 0.83 2.63 0.68 4.07c-0.75 7.08-6.17 34.07-10.86 43.02c-0.85 1.62 0.3 2.42 0.68 2.52c9.27 2.53 15.44 9.78 19.69 20.06"></path>
<path style="fill:none; fill-opacity:0%; fill-rule:evenodd; stroke:#aaaaaa; stroke-opacity:100%; stroke-width: 1.5pt; stroke-linejoin:round; stroke-linecap:round;" d="M61.59 32.89c0.24 1.58 0.62 4.27 0.3 6.32C59.3 55.8 51.35 79.91 32.83 92.25"></path>
<path style="fill:none; fill-opacity:0%; fill-rule:evenodd; stroke:#aaaaaa; stroke-opacity:100%; stroke-width: 1.5pt; stroke-linejoin:round; stroke-linecap:round;" d="M33.5 44.98c0.56 0.77 1.3 1.32 2.79 1.14c1.6-0.2 18.26-3.56 27.39-5.49"></path>
<path style="fill:none; fill-opacity:0%; fill-rule:evenodd; stroke:#aaaaaa; stroke-opacity:100%; stroke-width: 1.5pt; stroke-linejoin:round; stroke-linecap:round;" d="M70.77 31.27c0.36 0.75 0.72 1.38 0.87 2.32c1.23 7.47 0.15 40.42 0.37 56.11"></path>
<path style="fill:none; fill-opacity:0%; fill-rule:evenodd; stroke:#aaaaaa; stroke-opacity:100%; stroke-width: 1.5pt; stroke-linejoin:round; stroke-linecap:round;" d="M71.72 33.48c8.11-1.2 14.28-2.23 20.29-2.98c1.55-0.19 3.28 1.62 3.06 3.73c-0.9 8.72-3.67 37-4.8 51.16"></path>
<path style="fill:none; fill-opacity:0%; fill-rule:evenodd; stroke:#aaaaaa; stroke-opacity:100%; stroke-width: 1.5pt; stroke-linejoin:round; stroke-linecap:round;" d="M72.18 86.71c6.58-0.86 14.82-1.21 21.04-1.38"></path>

<path style="fill:none; fill-opacity:0%; fill-rule:evenodd; stroke:#000000; stroke-opacity:100%; stroke-width: 3pt; stroke-linejoin:round; stroke-linecap:round;" d="M18.13 17c4.28 1.78 11.05 7.32 12.12 10.09"></path>
<path style="fill:none; fill-opacity:0%; fill-rule:evenodd; stroke:#000000; stroke-opacity:100%; stroke-width: 3pt; stroke-linejoin:round; stroke-linecap:round;" d="M13.5 43.5c4.24 1.85 10.94 7.62 12 10.5"></path>
<path style="fill:none; fill-opacity:0%; fill-rule:evenodd; stroke:#000000; stroke-opacity:100%; stroke-width: 3pt; stroke-linejoin:round; stroke-linecap:round;" d="M13.75 88.73c1.71 1.27 3.78 1.32 4.86-0.25c3.14-4.57 8.29-13.66 11.14-19.49"></path>
<path style="fill:none; fill-opacity:0%; fill-rule:evenodd; stroke:#000000; stroke-opacity:100%; stroke-width: 3pt; stroke-linejoin:round; stroke-linecap:round;" d="M49.99 18.12c0.29 1 0.83 2.63 0.68 4.07c-0.75 7.08-6.17 34.07-10.86 43.02c-0.85 1.62 0.3 2.42 0.68 2.52c9.27 2.53 15.44 9.78 19.69 20.06"></path>
<path style="fill:none; fill-opacity:0%; fill-rule:evenodd; stroke:#000000; stroke-opacity:100%; stroke-width: 3pt; stroke-linejoin:round; stroke-linecap:round;" d="M61.59 32.89c0.24 1.58 0.62 4.27 0.3 6.32C59.3 55.8 51.35 79.91 32.83 92.25"></path>
<text x="5" y="20" font-size="20" fill="#999999">6</text><path style="fill:none; fill-opacity:0%; fill-rule:evenodd; stroke:#CC0000; stroke-opacity:100%; stroke-width: 3pt; stroke-linejoin:round; stroke-linecap:round;" d="M33.5 44.98c0.56 0.77 1.3 1.32 2.79 1.14c1.6-0.2 18.26-3.56 27.39-5.49" marker-end="url(#TriangleRed)" marker-start="url(#ArrowRed)" ></path>




</g><g transform="scale(1.3761467889908 1.3761467889908) translate(109, 109)">
<path style="fill:none; fill-rule:evenodd; stroke:#aaaaaa;  stroke-width:1pt; stroke-linecap:round;" d="m 109 0 L 0 0 L 0 109 L 109 109 L 109 0"></path><path style="fill:none; fill-opacity:0%; fill-rule:evenodd; stroke:#aaaaaa; stroke-opacity:100%; stroke-width: 1.5pt; stroke-linejoin:round; stroke-linecap:round;" d="M18.13 17c4.28 1.78 11.05 7.32 12.12 10.09"></path>
<path style="fill:none; fill-opacity:0%; fill-rule:evenodd; stroke:#aaaaaa; stroke-opacity:100%; stroke-width: 1.5pt; stroke-linejoin:round; stroke-linecap:round;" d="M13.5 43.5c4.24 1.85 10.94 7.62 12 10.5"></path>
<path style="fill:none; fill-opacity:0%; fill-rule:evenodd; stroke:#aaaaaa; stroke-opacity:100%; stroke-width: 1.5pt; stroke-linejoin:round; stroke-linecap:round;" d="M13.75 88.73c1.71 1.27 3.78 1.32 4.86-0.25c3.14-4.57 8.29-13.66 11.14-19.49"></path>
<path style="fill:none; fill-opacity:0%; fill-rule:evenodd; stroke:#aaaaaa; stroke-opacity:100%; stroke-width: 1.5pt; stroke-linejoin:round; stroke-linecap:round;" d="M49.99 18.12c0.29 1 0.83 2.63 0.68 4.07c-0.75 7.08-6.17 34.07-10.86 43.02c-0.85 1.62 0.3 2.42 0.68 2.52c9.27 2.53 15.44 9.78 19.69 20.06"></path>
<path style="fill:none; fill-opacity:0%; fill-rule:evenodd; stroke:#aaaaaa; stroke-opacity:100%; stroke-width: 1.5pt; stroke-linejoin:round; stroke-linecap:round;" d="M61.59 32.89c0.24 1.58 0.62 4.27 0.3 6.32C59.3 55.8 51.35 79.91 32.83 92.25"></path>
<path style="fill:none; fill-opacity:0%; fill-rule:evenodd; stroke:#aaaaaa; stroke-opacity:100%; stroke-width: 1.5pt; stroke-linejoin:round; stroke-linecap:round;" d="M33.5 44.98c0.56 0.77 1.3 1.32 2.79 1.14c1.6-0.2 18.26-3.56 27.39-5.49"></path>
<path style="fill:none; fill-opacity:0%; fill-rule:evenodd; stroke:#aaaaaa; stroke-opacity:100%; stroke-width: 1.5pt; stroke-linejoin:round; stroke-linecap:round;" d="M70.77 31.27c0.36 0.75 0.72 1.38 0.87 2.32c1.23 7.47 0.15 40.42 0.37 56.11"></path>
<path style="fill:none; fill-opacity:0%; fill-rule:evenodd; stroke:#aaaaaa; stroke-opacity:100%; stroke-width: 1.5pt; stroke-linejoin:round; stroke-linecap:round;" d="M71.72 33.48c8.11-1.2 14.28-2.23 20.29-2.98c1.55-0.19 3.28 1.62 3.06 3.73c-0.9 8.72-3.67 37-4.8 51.16"></path>
<path style="fill:none; fill-opacity:0%; fill-rule:evenodd; stroke:#aaaaaa; stroke-opacity:100%; stroke-width: 1.5pt; stroke-linejoin:round; stroke-linecap:round;" d="M72.18 86.71c6.58-0.86 14.82-1.21 21.04-1.38"></path>

<path style="fill:none; fill-opacity:0%; fill-rule:evenodd; stroke:#000000; stroke-opacity:100%; stroke-width: 3pt; stroke-linejoin:round; stroke-linecap:round;" d="M18.13 17c4.28 1.78 11.05 7.32 12.12 10.09"></path>
<path style="fill:none; fill-opacity:0%; fill-rule:evenodd; stroke:#000000; stroke-opacity:100%; stroke-width: 3pt; stroke-linejoin:round; stroke-linecap:round;" d="M13.5 43.5c4.24 1.85 10.94 7.62 12 10.5"></path>
<path style="fill:none; fill-opacity:0%; fill-rule:evenodd; stroke:#000000; stroke-opacity:100%; stroke-width: 3pt; stroke-linejoin:round; stroke-linecap:round;" d="M13.75 88.73c1.71 1.27 3.78 1.32 4.86-0.25c3.14-4.57 8.29-13.66 11.14-19.49"></path>
<path style="fill:none; fill-opacity:0%; fill-rule:evenodd; stroke:#000000; stroke-opacity:100%; stroke-width: 3pt; stroke-linejoin:round; stroke-linecap:round;" d="M49.99 18.12c0.29 1 0.83 2.63 0.68 4.07c-0.75 7.08-6.17 34.07-10.86 43.02c-0.85 1.62 0.3 2.42 0.68 2.52c9.27 2.53 15.44 9.78 19.69 20.06"></path>
<path style="fill:none; fill-opacity:0%; fill-rule:evenodd; stroke:#000000; stroke-opacity:100%; stroke-width: 3pt; stroke-linejoin:round; stroke-linecap:round;" d="M61.59 32.89c0.24 1.58 0.62 4.27 0.3 6.32C59.3 55.8 51.35 79.91 32.83 92.25"></path>
<path style="fill:none; fill-opacity:0%; fill-rule:evenodd; stroke:#000000; stroke-opacity:100%; stroke-width: 3pt; stroke-linejoin:round; stroke-linecap:round;" d="M33.5 44.98c0.56 0.77 1.3 1.32 2.79 1.14c1.6-0.2 18.26-3.56 27.39-5.49"></path>
<text x="5" y="20" font-size="20" fill="#999999">7</text><path style="fill:none; fill-opacity:0%; fill-rule:evenodd; stroke:#CC0000; stroke-opacity:100%; stroke-width: 3pt; stroke-linejoin:round; stroke-linecap:round;" d="M70.77 31.27c0.36 0.75 0.72 1.38 0.87 2.32c1.23 7.47 0.15 40.42 0.37 56.11" marker-end="url(#TriangleRed)" marker-start="url(#ArrowRed)" ></path>



</g><g transform="scale(1.3761467889908 1.3761467889908) translate(218, 109)">
<path style="fill:none; fill-rule:evenodd; stroke:#aaaaaa;  stroke-width:1pt; stroke-linecap:round;" d="m 109 0 L 0 0 L 0 109 L 109 109 L 109 0"></path><path style="fill:none; fill-opacity:0%; fill-rule:evenodd; stroke:#aaaaaa; stroke-opacity:100%; stroke-width: 1.5pt; stroke-linejoin:round; stroke-linecap:round;" d="M18.13 17c4.28 1.78 11.05 7.32 12.12 10.09"></path>
<path style="fill:none; fill-opacity:0%; fill-rule:evenodd; stroke:#aaaaaa; stroke-opacity:100%; stroke-width: 1.5pt; stroke-linejoin:round; stroke-linecap:round;" d="M13.5 43.5c4.24 1.85 10.94 7.62 12 10.5"></path>
<path style="fill:none; fill-opacity:0%; fill-rule:evenodd; stroke:#aaaaaa; stroke-opacity:100%; stroke-width: 1.5pt; stroke-linejoin:round; stroke-linecap:round;" d="M13.75 88.73c1.71 1.27 3.78 1.32 4.86-0.25c3.14-4.57 8.29-13.66 11.14-19.49"></path>
<path style="fill:none; fill-opacity:0%; fill-rule:evenodd; stroke:#aaaaaa; stroke-opacity:100%; stroke-width: 1.5pt; stroke-linejoin:round; stroke-linecap:round;" d="M49.99 18.12c0.29 1 0.83 2.63 0.68 4.07c-0.75 7.08-6.17 34.07-10.86 43.02c-0.85 1.62 0.3 2.42 0.68 2.52c9.27 2.53 15.44 9.78 19.69 20.06"></path>
<path style="fill:none; fill-opacity:0%; fill-rule:evenodd; stroke:#aaaaaa; stroke-opacity:100%; stroke-width: 1.5pt; stroke-linejoin:round; stroke-linecap:round;" d="M61.59 32.89c0.24 1.58 0.62 4.27 0.3 6.32C59.3 55.8 51.35 79.91 32.83 92.25"></path>
<path style="fill:none; fill-opacity:0%; fill-rule:evenodd; stroke:#aaaaaa; stroke-opacity:100%; stroke-width: 1.5pt; stroke-linejoin:round; stroke-linecap:round;" d="M33.5 44.98c0.56 0.77 1.3 1.32 2.79 1.14c1.6-0.2 18.26-3.56 27.39-5.49"></path>
<path style="fill:none; fill-opacity:0%; fill-rule:evenodd; stroke:#aaaaaa; stroke-opacity:100%; stroke-width: 1.5pt; stroke-linejoin:round; stroke-linecap:round;" d="M70.77 31.27c0.36 0.75 0.72 1.38 0.87 2.32c1.23 7.47 0.15 40.42 0.37 56.11"></path>
<path style="fill:none; fill-opacity:0%; fill-rule:evenodd; stroke:#aaaaaa; stroke-opacity:100%; stroke-width: 1.5pt; stroke-linejoin:round; stroke-linecap:round;" d="M71.72 33.48c8.11-1.2 14.28-2.23 20.29-2.98c1.55-0.19 3.28 1.62 3.06 3.73c-0.9 8.72-3.67 37-4.8 51.16"></path>
<path style="fill:none; fill-opacity:0%; fill-rule:evenodd; stroke:#aaaaaa; stroke-opacity:100%; stroke-width: 1.5pt; stroke-linejoin:round; stroke-linecap:round;" d="M72.18 86.71c6.58-0.86 14.82-1.21 21.04-1.38"></path>

<path style="fill:none; fill-opacity:0%; fill-rule:evenodd; stroke:#000000; stroke-opacity:100%; stroke-width: 3pt; stroke-linejoin:round; stroke-linecap:round;" d="M18.13 17c4.28 1.78 11.05 7.32 12.12 10.09"></path>
<path style="fill:none; fill-opacity:0%; fill-rule:evenodd; stroke:#000000; stroke-opacity:100%; stroke-width: 3pt; stroke-linejoin:round; stroke-linecap:round;" d="M13.5 43.5c4.24 1.85 10.94 7.62 12 10.5"></path>
<path style="fill:none; fill-opacity:0%; fill-rule:evenodd; stroke:#000000; stroke-opacity:100%; stroke-width: 3pt; stroke-linejoin:round; stroke-linecap:round;" d="M13.75 88.73c1.71 1.27 3.78 1.32 4.86-0.25c3.14-4.57 8.29-13.66 11.14-19.49"></path>
<path style="fill:none; fill-opacity:0%; fill-rule:evenodd; stroke:#000000; stroke-opacity:100%; stroke-width: 3pt; stroke-linejoin:round; stroke-linecap:round;" d="M49.99 18.12c0.29 1 0.83 2.63 0.68 4.07c-0.75 7.08-6.17 34.07-10.86 43.02c-0.85 1.62 0.3 2.42 0.68 2.52c9.27 2.53 15.44 9.78 19.69 20.06"></path>
<path style="fill:none; fill-opacity:0%; fill-rule:evenodd; stroke:#000000; stroke-opacity:100%; stroke-width: 3pt; stroke-linejoin:round; stroke-linecap:round;" d="M61.59 32.89c0.24 1.58 0.62 4.27 0.3 6.32C59.3 55.8 51.35 79.91 32.83 92.25"></path>
<path style="fill:none; fill-opacity:0%; fill-rule:evenodd; stroke:#000000; stroke-opacity:100%; stroke-width: 3pt; stroke-linejoin:round; stroke-linecap:round;" d="M33.5 44.98c0.56 0.77 1.3 1.32 2.79 1.14c1.6-0.2 18.26-3.56 27.39-5.49"></path>
<path style="fill:none; fill-opacity:0%; fill-rule:evenodd; stroke:#000000; stroke-opacity:100%; stroke-width: 3pt; stroke-linejoin:round; stroke-linecap:round;" d="M70.77 31.27c0.36 0.75 0.72 1.38 0.87 2.32c1.23 7.47 0.15 40.42 0.37 56.11"></path>
<text x="5" y="20" font-size="20" fill="#999999">8</text><path style="fill:none; fill-opacity:0%; fill-rule:evenodd; stroke:#CC0000; stroke-opacity:100%; stroke-width: 3pt; stroke-linejoin:round; stroke-linecap:round;" d="M71.72 33.48c8.11-1.2 14.28-2.23 20.29-2.98c1.55-0.19 3.28 1.62 3.06 3.73c-0.9 8.72-3.67 37-4.8 51.16" marker-end="url(#TriangleRed)" marker-start="url(#ArrowRed)" ></path>


</g><g transform="scale(1.3761467889908 1.3761467889908) translate(327, 109)">
<path style="fill:none; fill-rule:evenodd; stroke:#aaaaaa;  stroke-width:1pt; stroke-linecap:round;" d="m 109 0 L 0 0 L 0 109 L 109 109 L 109 0"></path><path style="fill:none; fill-opacity:0%; fill-rule:evenodd; stroke:#aaaaaa; stroke-opacity:100%; stroke-width: 1.5pt; stroke-linejoin:round; stroke-linecap:round;" d="M18.13 17c4.28 1.78 11.05 7.32 12.12 10.09"></path>
<path style="fill:none; fill-opacity:0%; fill-rule:evenodd; stroke:#aaaaaa; stroke-opacity:100%; stroke-width: 1.5pt; stroke-linejoin:round; stroke-linecap:round;" d="M13.5 43.5c4.24 1.85 10.94 7.62 12 10.5"></path>
<path style="fill:none; fill-opacity:0%; fill-rule:evenodd; stroke:#aaaaaa; stroke-opacity:100%; stroke-width: 1.5pt; stroke-linejoin:round; stroke-linecap:round;" d="M13.75 88.73c1.71 1.27 3.78 1.32 4.86-0.25c3.14-4.57 8.29-13.66 11.14-19.49"></path>
<path style="fill:none; fill-opacity:0%; fill-rule:evenodd; stroke:#aaaaaa; stroke-opacity:100%; stroke-width: 1.5pt; stroke-linejoin:round; stroke-linecap:round;" d="M49.99 18.12c0.29 1 0.83 2.63 0.68 4.07c-0.75 7.08-6.17 34.07-10.86 43.02c-0.85 1.62 0.3 2.42 0.68 2.52c9.27 2.53 15.44 9.78 19.69 20.06"></path>
<path style="fill:none; fill-opacity:0%; fill-rule:evenodd; stroke:#aaaaaa; stroke-opacity:100%; stroke-width: 1.5pt; stroke-linejoin:round; stroke-linecap:round;" d="M61.59 32.89c0.24 1.58 0.62 4.27 0.3 6.32C59.3 55.8 51.35 79.91 32.83 92.25"></path>
<path style="fill:none; fill-opacity:0%; fill-rule:evenodd; stroke:#aaaaaa; stroke-opacity:100%; stroke-width: 1.5pt; stroke-linejoin:round; stroke-linecap:round;" d="M33.5 44.98c0.56 0.77 1.3 1.32 2.79 1.14c1.6-0.2 18.26-3.56 27.39-5.49"></path>
<path style="fill:none; fill-opacity:0%; fill-rule:evenodd; stroke:#aaaaaa; stroke-opacity:100%; stroke-width: 1.5pt; stroke-linejoin:round; stroke-linecap:round;" d="M70.77 31.27c0.36 0.75 0.72 1.38 0.87 2.32c1.23 7.47 0.15 40.42 0.37 56.11"></path>
<path style="fill:none; fill-opacity:0%; fill-rule:evenodd; stroke:#aaaaaa; stroke-opacity:100%; stroke-width: 1.5pt; stroke-linejoin:round; stroke-linecap:round;" d="M71.72 33.48c8.11-1.2 14.28-2.23 20.29-2.98c1.55-0.19 3.28 1.62 3.06 3.73c-0.9 8.72-3.67 37-4.8 51.16"></path>
<path style="fill:none; fill-opacity:0%; fill-rule:evenodd; stroke:#aaaaaa; stroke-opacity:100%; stroke-width: 1.5pt; stroke-linejoin:round; stroke-linecap:round;" d="M72.18 86.71c6.58-0.86 14.82-1.21 21.04-1.38"></path>

<path style="fill:none; fill-opacity:0%; fill-rule:evenodd; stroke:#000000; stroke-opacity:100%; stroke-width: 3pt; stroke-linejoin:round; stroke-linecap:round;" d="M18.13 17c4.28 1.78 11.05 7.32 12.12 10.09"></path>
<path style="fill:none; fill-opacity:0%; fill-rule:evenodd; stroke:#000000; stroke-opacity:100%; stroke-width: 3pt; stroke-linejoin:round; stroke-linecap:round;" d="M13.5 43.5c4.24 1.85 10.94 7.62 12 10.5"></path>
<path style="fill:none; fill-opacity:0%; fill-rule:evenodd; stroke:#000000; stroke-opacity:100%; stroke-width: 3pt; stroke-linejoin:round; stroke-linecap:round;" d="M13.75 88.73c1.71 1.27 3.78 1.32 4.86-0.25c3.14-4.57 8.29-13.66 11.14-19.49"></path>
<path style="fill:none; fill-opacity:0%; fill-rule:evenodd; stroke:#000000; stroke-opacity:100%; stroke-width: 3pt; stroke-linejoin:round; stroke-linecap:round;" d="M49.99 18.12c0.29 1 0.83 2.63 0.68 4.07c-0.75 7.08-6.17 34.07-10.86 43.02c-0.85 1.62 0.3 2.42 0.68 2.52c9.27 2.53 15.44 9.78 19.69 20.06"></path>
<path style="fill:none; fill-opacity:0%; fill-rule:evenodd; stroke:#000000; stroke-opacity:100%; stroke-width: 3pt; stroke-linejoin:round; stroke-linecap:round;" d="M61.59 32.89c0.24 1.58 0.62 4.27 0.3 6.32C59.3 55.8 51.35 79.91 32.83 92.25"></path>
<path style="fill:none; fill-opacity:0%; fill-rule:evenodd; stroke:#000000; stroke-opacity:100%; stroke-width: 3pt; stroke-linejoin:round; stroke-linecap:round;" d="M33.5 44.98c0.56 0.77 1.3 1.32 2.79 1.14c1.6-0.2 18.26-3.56 27.39-5.49"></path>
<path style="fill:none; fill-opacity:0%; fill-rule:evenodd; stroke:#000000; stroke-opacity:100%; stroke-width: 3pt; stroke-linejoin:round; stroke-linecap:round;" d="M70.77 31.27c0.36 0.75 0.72 1.38 0.87 2.32c1.23 7.47 0.15 40.42 0.37 56.11"></path>
<path style="fill:none; fill-opacity:0%; fill-rule:evenodd; stroke:#000000; stroke-opacity:100%; stroke-width: 3pt; stroke-linejoin:round; stroke-linecap:round;" d="M71.72 33.48c8.11-1.2 14.28-2.23 20.29-2.98c1.55-0.19 3.28 1.62 3.06 3.73c-0.9 8.72-3.67 37-4.8 51.16"></path>
<text x="5" y="20" font-size="20" fill="#999999">9</text><path style="fill:none; fill-opacity:0%; fill-rule:evenodd; stroke:#CC0000; stroke-opacity:100%; stroke-width: 3pt; stroke-linejoin:round; stroke-linecap:round;" d="M72.18 86.71c6.58-0.86 14.82-1.21 21.04-1.38" marker-end="url(#TriangleRed)" marker-start="url(#ArrowRed)" ></path>

</g>

</svg>  
          
