<?xml version="1.0" standalone="no"?>
<!DOCTYPE svg PUBLIC "-//W3C//DTD SVG 1.1//EN"   "http://www.w3.org/Graphics/SVG/1.1/DTD/svg11.dtd">
<svg width="751" height="301"  version="1.1" xmlns="http://www.w3.org/2000/svg">
  <defs>
    <marker id="Triangle" viewBox="0 0 10 10" refX="0" refY="5" markerUnits="strokeWidth" markerWidth="3" style="stroke-opacity:0%;fill:#aaaaaa;" markerHeight="2" orient="auto">
      <path d="M 0 0 L 10 5 L 0 10 z" />
    </marker>
    
    <marker id="Arrow" viewBox="0 0 10 10" refX="5" refY="5" markerUnits="strokeWidth" markerWidth="1.8" style="stroke-opacity:0%;fill:#770000;" markerHeight="2" orient="auto">
      <path d="M 0 4 L 6 4 L 4 1 L 10 5 L 4 9 L 6 6 L 0 6 z" />
        <circle cx="5" cy="5" r="5" />
      </marker>
    
    <marker id="TriangleRed" viewBox="0 0 10 10" refX="0" refY="5" markerUnits="strokeWidth" markerWidth="3" style="stroke-opacity:0%;fill:#CC0000;" markerHeight="2" orient="auto">
      <path d="M 0 0 L 10 5 L 0 10 z" />
    </marker>
    
    <marker id="ArrowRed" viewBox="0 0 10 10" refX="5" refY="5" markerUnits="strokeWidth" markerWidth="1.8" style="stroke-opacity:0%;fill:#CC0000;" markerHeight="2" orient="auto">
      <path d="M 0 4 L 6 4 L 4 1 L 10 5 L 4 9 L 6 6 L 0 6 z" />
        <circle cx="5" cy="5" r="5" />
      </marker>
    
  </defs>
  
  <path style="fill:#ffffff; fill-opacity:100%; fill-rule:evenodd; stroke-width:0;" d="M 0 0 L 751 0 L 751 301 L 0 301 L 0 0" />

  <g transform="scale(1.3761467889908 1.3761467889908) translate(0, 0)">
<path style="fill:none; fill-rule:evenodd; stroke:#aaaaaa;  stroke-width:1pt; stroke-linecap:round;" d="m 109 0 L 0 0 L 0 109 L 109 109 L 109 0"></path><path style="fill:none; fill-opacity:0%; fill-rule:evenodd; stroke:#aaaaaa; stroke-opacity:100%; stroke-width: 1.5pt; stroke-linejoin:round; stroke-linecap:round;" d="M18.63 14.75c3.92 1.56 10.13 6.41 11.12 8.84"></path>
<path style="fill:none; fill-opacity:0%; fill-rule:evenodd; stroke:#aaaaaa; stroke-opacity:100%; stroke-width: 1.5pt; stroke-linejoin:round; stroke-linecap:round;" d="M10.25 37.5c5.29 1.28 13.68 5.26 15 7.25"></path>
<path style="fill:none; fill-opacity:0%; fill-rule:evenodd; stroke:#aaaaaa; stroke-opacity:100%; stroke-width: 1.5pt; stroke-linejoin:round; stroke-linecap:round;" d="M11.6 90.11c1.43 0.59 2.65 0.12 3.51-1.12c3.14-4.57 6.54-10.91 9.39-16.74"></path>
<path style="fill:none; fill-opacity:0%; fill-rule:evenodd; stroke:#aaaaaa; stroke-opacity:100%; stroke-width: 1.5pt; stroke-linejoin:round; stroke-linecap:round;" d="M39.43 18.49c2.57 0.39 5.81 0.28 8.2 0.03c9.43-1 20.27-2.15 31.02-3.42c2.83-0.33 5.54-0.36 8.37 0.25"></path>
<path style="fill:none; fill-opacity:0%; fill-rule:evenodd; stroke:#aaaaaa; stroke-opacity:100%; stroke-width: 1.5pt; stroke-linejoin:round; stroke-linecap:round;" d="M41.2 30.85c2.39 0.89 4.7 0.8 7.15 0.49c9.98-1.28 24.68-3.18 31.8-3.98c3.62-0.41 5.39 0.97 4.49 4.8c-1.06 4.49-1.47 6.45-2.3 9.14"></path>
<path style="fill:none; fill-opacity:0%; fill-rule:evenodd; stroke:#aaaaaa; stroke-opacity:100%; stroke-width: 1.5pt; stroke-linejoin:round; stroke-linecap:round;" d="M45.36 45.18c1.02 0 22.18-2.09 34.4-2.83c2.02-0.12 3.77-0.19 5.12-0.19"></path>
<path style="fill:none; fill-opacity:0%; fill-rule:evenodd; stroke:#aaaaaa; stroke-opacity:100%; stroke-width: 1.5pt; stroke-linejoin:round; stroke-linecap:round;" d="M43.69 32c0.85 0.85 1.17 2.24 1.1 4.19C43.88 61.5 38.88 77.62 27.72 90"></path>
<path style="fill:none; fill-opacity:0%; fill-rule:evenodd; stroke:#aaaaaa; stroke-opacity:100%; stroke-width: 1.5pt; stroke-linejoin:round; stroke-linecap:round;" d="M47.84 62.79c2.41 0.46 4.62 0.41 6.66 0.18c9.33-1.08 19.9-2.68 28.51-3.22c2.46-0.16 4.45 0.12 6.85 0.62"></path>
<path style="fill:none; fill-opacity:0%; fill-rule:evenodd; stroke:#aaaaaa; stroke-opacity:100%; stroke-width: 1.5pt; stroke-linejoin:round; stroke-linecap:round;" d="M66.22 49.21c0.44 0.63 0.66 1.36 0.65 2.72c-0.21 23.6-10.2 35.56-27.47 42.81"></path>
<path style="fill:none; fill-opacity:0%; fill-rule:evenodd; stroke:#aaaaaa; stroke-opacity:100%; stroke-width: 1.5pt; stroke-linejoin:round; stroke-linecap:round;" d="M67.35 62.56C73.38 71 79.62 80.75 87.67 88.59c1.94 1.89 3.96 3.55 6.36 4.83"></path>

<text x="5" y="20" font-size="20" fill="#999999">1</text><path style="fill:none; fill-opacity:0%; fill-rule:evenodd; stroke:#CC0000; stroke-opacity:100%; stroke-width: 3pt; stroke-linejoin:round; stroke-linecap:round;" d="M18.63 14.75c3.92 1.56 10.13 6.41 11.12 8.84"  ></path>










</g><g transform="scale(1.3761467889908 1.3761467889908) translate(109, 0)">
<path style="fill:none; fill-rule:evenodd; stroke:#aaaaaa;  stroke-width:1pt; stroke-linecap:round;" d="m 109 0 L 0 0 L 0 109 L 109 109 L 109 0"></path><path style="fill:none; fill-opacity:0%; fill-rule:evenodd; stroke:#aaaaaa; stroke-opacity:100%; stroke-width: 1.5pt; stroke-linejoin:round; stroke-linecap:round;" d="M18.63 14.75c3.92 1.56 10.13 6.41 11.12 8.84"></path>
<path style="fill:none; fill-opacity:0%; fill-rule:evenodd; stroke:#aaaaaa; stroke-opacity:100%; stroke-width: 1.5pt; stroke-linejoin:round; stroke-linecap:round;" d="M10.25 37.5c5.29 1.28 13.68 5.26 15 7.25"></path>
<path style="fill:none; fill-opacity:0%; fill-rule:evenodd; stroke:#aaaaaa; stroke-opacity:100%; stroke-width: 1.5pt; stroke-linejoin:round; stroke-linecap:round;" d="M11.6 90.11c1.43 0.59 2.65 0.12 3.51-1.12c3.14-4.57 6.54-10.91 9.39-16.74"></path>
<path style="fill:none; fill-opacity:0%; fill-rule:evenodd; stroke:#aaaaaa; stroke-opacity:100%; stroke-width: 1.5pt; stroke-linejoin:round; stroke-linecap:round;" d="M39.43 18.49c2.57 0.39 5.81 0.28 8.2 0.03c9.43-1 20.27-2.15 31.02-3.42c2.83-0.33 5.54-0.36 8.37 0.25"></path>
<path style="fill:none; fill-opacity:0%; fill-rule:evenodd; stroke:#aaaaaa; stroke-opacity:100%; stroke-width: 1.5pt; stroke-linejoin:round; stroke-linecap:round;" d="M41.2 30.85c2.39 0.89 4.7 0.8 7.15 0.49c9.98-1.28 24.68-3.18 31.8-3.98c3.62-0.41 5.39 0.97 4.49 4.8c-1.06 4.49-1.47 6.45-2.3 9.14"></path>
<path style="fill:none; fill-opacity:0%; fill-rule:evenodd; stroke:#aaaaaa; stroke-opacity:100%; stroke-width: 1.5pt; stroke-linejoin:round; stroke-linecap:round;" d="M45.36 45.18c1.02 0 22.18-2.09 34.4-2.83c2.02-0.12 3.77-0.19 5.12-0.19"></path>
<path style="fill:none; fill-opacity:0%; fill-rule:evenodd; stroke:#aaaaaa; stroke-opacity:100%; stroke-width: 1.5pt; stroke-linejoin:round; stroke-linecap:round;" d="M43.69 32c0.85 0.85 1.17 2.24 1.1 4.19C43.88 61.5 38.88 77.62 27.72 90"></path>
<path style="fill:none; fill-opacity:0%; fill-rule:evenodd; stroke:#aaaaaa; stroke-opacity:100%; stroke-width: 1.5pt; stroke-linejoin:round; stroke-linecap:round;" d="M47.84 62.79c2.41 0.46 4.62 0.41 6.66 0.18c9.33-1.08 19.9-2.68 28.51-3.22c2.46-0.16 4.45 0.12 6.85 0.62"></path>
<path style="fill:none; fill-opacity:0%; fill-rule:evenodd; stroke:#aaaaaa; stroke-opacity:100%; stroke-width: 1.5pt; stroke-linejoin:round; stroke-linecap:round;" d="M66.22 49.21c0.44 0.63 0.66 1.36 0.65 2.72c-0.21 23.6-10.2 35.56-27.47 42.81"></path>
<path style="fill:none; fill-opacity:0%; fill-rule:evenodd; stroke:#aaaaaa; stroke-opacity:100%; stroke-width: 1.5pt; stroke-linejoin:round; stroke-linecap:round;" d="M67.35 62.56C73.38 71 79.62 80.75 87.67 88.59c1.94 1.89 3.96 3.55 6.36 4.83"></path>

<path style="fill:none; fill-opacity:0%; fill-rule:evenodd; stroke:#000000; stroke-opacity:100%; stroke-width: 3pt; stroke-linejoin:round; stroke-linecap:round;" d="M18.63 14.75c3.92 1.56 10.13 6.41 11.12 8.84"></path>
<text x="5" y="20" font-size="20" fill="#999999">2</text><path style="fill:none; fill-opacity:0%; fill-rule:evenodd; stroke:#CC0000; stroke-opacity:100%; stroke-width: 3pt; stroke-linejoin:round; stroke-linecap:round;" d="M10.25 37.5c5.29 1.28 13.68 5.26 15 7.25"  ></path>









</g><g transform="scale(1.3761467889908 1.3761467889908) translate(218, 0)">
<path style="fill:none; fill-rule:evenodd; stroke:#aaaaaa;  stroke-width:1pt; stroke-linecap:round;" d="m 109 0 L 0 0 L 0 109 L 109 109 L 109 0"></path><path style="fill:none; fill-opacity:0%; fill-rule:evenodd; stroke:#aaaaaa; stroke-opacity:100%; stroke-width: 1.5pt; stroke-linejoin:round; stroke-linecap:round;" d="M18.63 14.75c3.92 1.56 10.13 6.41 11.12 8.84"></path>
<path style="fill:none; fill-opacity:0%; fill-rule:evenodd; stroke:#aaaaaa; stroke-opacity:100%; stroke-width: 1.5pt; stroke-linejoin:round; stroke-linecap:round;" d="M10.25 37.5c5.29 1.28 13.68 5.26 15 7.25"></path>
<path style="fill:none; fill-opacity:0%; fill-rule:evenodd; stroke:#aaaaaa; stroke-opacity:100%; stroke-width: 1.5pt; stroke-linejoin:round; stroke-linecap:round;" d="M11.6 90.11c1.43 0.59 2.65 0.12 3.51-1.12c3.14-4.57 6.54-10.91 9.39-16.74"></path>
<path style="fill:none; fill-opacity:0%; fill-rule:evenodd; stroke:#aaaaaa; stroke-opacity:100%; stroke-width: 1.5pt; stroke-linejoin:round; stroke-linecap:round;" d="M39.43 18.49c2.57 0.39 5.81 0.28 8.2 0.03c9.43-1 20.27-2.15 31.02-3.42c2.83-0.33 5.54-0.36 8.37 0.25"></path>
<path style="fill:none; fill-opacity:0%; fill-rule:evenodd; stroke:#aaaaaa; stroke-opacity:100%; stroke-width: 1.5pt; stroke-linejoin:round; stroke-linecap:round;" d="M41.2 30.85c2.39 0.89 4.7 0.8 7.15 0.49c9.98-1.28 24.68-3.18 31.8-3.98c3.62-0.41 5.39 0.97 4.49 4.8c-1.06 4.49-1.47 6.45-2.3 9.14"></path>
<path style="fill:none; fill-opacity:0%; fill-rule:evenodd; stroke:#aaaaaa; stroke-opacity:100%; stroke-width: 1.5pt; stroke-linejoin:round; stroke-linecap:round;" d="M45.36 45.18c1.02 0 22.18-2.09 34.4-2.83c2.02-0.12 3.77-0.19 5.12-0.19"></path>
<path style="fill:none; fill-opacity:0%; fill-rule:evenodd; stroke:#aaaaaa; stroke-opacity:100%; stroke-width: 1.5pt; stroke-linejoin:round; stroke-linecap:round;" d="M43.69 32c0.85 0.85 1.17 2.24 1.1 4.19C43.88 61.5 38.88 77.62 27.72 90"></path>
<path style="fill:none; fill-opacity:0%; fill-rule:evenodd; stroke:#aaaaaa; stroke-opacity:100%; stroke-width: 1.5pt; stroke-linejoin:round; stroke-linecap:round;" d="M47.84 62.79c2.41 0.46 4.62 0.41 6.66 0.18c9.33-1.08 19.9-2.68 28.51-3.22c2.46-0.16 4.45 0.12 6.85 0.62"></path>
<path style="fill:none; fill-opacity:0%; fill-rule:evenodd; stroke:#aaaaaa; stroke-opacity:100%; stroke-width: 1.5pt; stroke-linejoin:round; stroke-linecap:round;" d="M66.22 49.21c0.44 0.63 0.66 1.36 0.65 2.72c-0.21 23.6-10.2 35.56-27.47 42.81"></path>
<path style="fill:none; fill-opacity:0%; fill-rule:evenodd; stroke:#aaaaaa; stroke-opacity:100%; stroke-width: 1.5pt; stroke-linejoin:round; stroke-linecap:round;" d="M67.35 62.56C73.38 71 79.62 80.75 87.67 88.59c1.94 1.89 3.96 3.55 6.36 4.83"></path>

<path style="fill:none; fill-opacity:0%; fill-rule:evenodd; stroke:#000000; stroke-opacity:100%; stroke-width: 3pt; stroke-linejoin:round; stroke-linecap:round;" d="M18.63 14.75c3.92 1.56 10.13 6.41 11.12 8.84"></path>
<path style="fill:none; fill-opacity:0%; fill-rule:evenodd; stroke:#000000; stroke-opacity:100%; stroke-width: 3pt; stroke-linejoin:round; stroke-linecap:round;" d="M10.25 37.5c5.29 1.28 13.68 5.26 15 7.25"></path>
<text x="5" y="20" font-size="20" fill="#999999">3</text><path style="fill:none; fill-opacity:0%; fill-rule:evenodd; stroke:#CC0000; stroke-opacity:100%; stroke-width: 3pt; stroke-linejoin:round; stroke-linecap:round;" d="M11.6 90.11c1.43 0.59 2.65 0.12 3.51-1.12c3.14-4.57 6.54-10.91 9.39-16.74"  ></path>








</g><g transform="scale(1.3761467889908 1.3761467889908) translate(327, 0)">
<path style="fill:none; fill-rule:evenodd; stroke:#aaaaaa;  stroke-width:1pt; stroke-linecap:round;" d="m 109 0 L 0 0 L 0 109 L 109 109 L 109 0"></path><path style="fill:none; fill-opacity:0%; fill-rule:evenodd; stroke:#aaaaaa; stroke-opacity:100%; stroke-width: 1.5pt; stroke-linejoin:round; stroke-linecap:round;" d="M18.63 14.75c3.92 1.56 10.13 6.41 11.12 8.84"></path>
<path style="fill:none; fill-opacity:0%; fill-rule:evenodd; stroke:#aaaaaa; stroke-opacity:100%; stroke-width: 1.5pt; stroke-linejoin:round; stroke-linecap:round;" d="M10.25 37.5c5.29 1.28 13.68 5.26 15 7.25"></path>
<path style="fill:none; fill-opacity:0%; fill-rule:evenodd; stroke:#aaaaaa; stroke-opacity:100%; stroke-width: 1.5pt; stroke-linejoin:round; stroke-linecap:round;" d="M11.6 90.11c1.43 0.59 2.65 0.12 3.51-1.12c3.14-4.57 6.54-10.91 9.39-16.74"></path>
<path style="fill:none; fill-opacity:0%; fill-rule:evenodd; stroke:#aaaaaa; stroke-opacity:100%; stroke-width: 1.5pt; stroke-linejoin:round; stroke-linecap:round;" d="M39.43 18.49c2.57 0.39 5.81 0.28 8.2 0.03c9.43-1 20.27-2.15 31.02-3.42c2.83-0.33 5.54-0.36 8.37 0.25"></path>
<path style="fill:none; fill-opacity:0%; fill-rule:evenodd; stroke:#aaaaaa; stroke-opacity:100%; stroke-width: 1.5pt; stroke-linejoin:round; stroke-linecap:round;" d="M41.2 30.85c2.39 0.89 4.7 0.8 7.15 0.49c9.98-1.28 24.68-3.18 31.8-3.98c3.62-0.41 5.39 0.97 4.49 4.8c-1.06 4.49-1.47 6.45-2.3 9.14"></path>
<path style="fill:none; fill-opacity:0%; fill-rule:evenodd; stroke:#aaaaaa; stroke-opacity:100%; stroke-width: 1.5pt; stroke-linejoin:round; stroke-linecap:round;" d="M45.36 45.18c1.02 0 22.18-2.09 34.4-2.83c2.02-0.12 3.77-0.19 5.12-0.19"></path>
<path style="fill:none; fill-opacity:0%; fill-rule:evenodd; stroke:#aaaaaa; stroke-opacity:100%; stroke-width: 1.5pt; stroke-linejoin:round; stroke-linecap:round;" d="M43.69 32c0.85 0.85 1.17 2.24 1.1 4.19C43.88 61.5 38.88 77.62 27.72 90"></path>
<path style="fill:none; fill-opacity:0%; fill-rule:evenodd; stroke:#aaaaaa; stroke-opacity:100%; stroke-width: 1.5pt; stroke-linejoin:round; stroke-linecap:round;" d="M47.84 62.79c2.41 0.46 4.62 0.41 6.66 0.18c9.33-1.08 19.9-2.68 28.51-3.22c2.46-0.16 4.45 0.12 6.85 0.62"></path>
<path style="fill:none; fill-opacity:0%; fill-rule:evenodd; stroke:#aaaaaa; stroke-opacity:100%; stroke-width: 1.5pt; stroke-linejoin:round; stroke-linecap:round;" d="M66.22 49.21c0.44 0.63 0.66 1.36 0.65 2.72c-0.21 23.6-10.2 35.56-27.47 42.81"></path>
<path style="fill:none; fill-opacity:0%; fill-rule:evenodd; stroke:#aaaaaa; stroke-opacity:100%; stroke-width: 1.5pt; stroke-linejoin:round; stroke-linecap:round;" d="M67.35 62.56C73.38 71 79.62 80.75 87.67 88.59c1.94 1.89 3.96 3.55 6.36 4.83"></path>

<path style="fill:none; fill-opacity:0%; fill-rule:evenodd; stroke:#000000; stroke-opacity:100%; stroke-width: 3pt; stroke-linejoin:round; stroke-linecap:round;" d="M18.63 14.75c3.92 1.56 10.13 6.41 11.12 8.84"></path>
<path style="fill:none; fill-opacity:0%; fill-rule:evenodd; stroke:#000000; stroke-opacity:100%; stroke-width: 3pt; stroke-linejoin:round; stroke-linecap:round;" d="M10.25 37.5c5.29 1.28 13.68 5.26 15 7.25"></path>
<path style="fill:none; fill-opacity:0%; fill-rule:evenodd; stroke:#000000; stroke-opacity:100%; stroke-width: 3pt; stroke-linejoin:round; stroke-linecap:round;" d="M11.6 90.11c1.43 0.59 2.65 0.12 3.51-1.12c3.14-4.57 6.54-10.91 9.39-16.74"></path>
<text x="5" y="20" font-size="20" fill="#999999">4</text><path style="fill:none; fill-opacity:0%; fill-rule:evenodd; stroke:#CC0000; stroke-opacity:100%; stroke-width: 3pt; stroke-linejoin:round; stroke-linecap:round;" d="M39.43 18.49c2.57 0.39 5.81 0.28 8.2 0.03c9.43-1 20.27-2.15 31.02-3.42c2.83-0.33 5.54-0.36 8.37 0.25"  ></path>







</g><g transform="scale(1.3761467889908 1.3761467889908) translate(436, 0)">
<path style="fill:none; fill-rule:evenodd; stroke:#aaaaaa;  stroke-width:1pt; stroke-linecap:round;" d="m 109 0 L 0 0 L 0 109 L 109 109 L 109 0"></path><path style="fill:none; fill-opacity:0%; fill-rule:evenodd; stroke:#aaaaaa; stroke-opacity:100%; stroke-width: 1.5pt; stroke-linejoin:round; stroke-linecap:round;" d="M18.63 14.75c3.92 1.56 10.13 6.41 11.12 8.84"></path>
<path style="fill:none; fill-opacity:0%; fill-rule:evenodd; stroke:#aaaaaa; stroke-opacity:100%; stroke-width: 1.5pt; stroke-linejoin:round; stroke-linecap:round;" d="M10.25 37.5c5.29 1.28 13.68 5.26 15 7.25"></path>
<path style="fill:none; fill-opacity:0%; fill-rule:evenodd; stroke:#aaaaaa; stroke-opacity:100%; stroke-width: 1.5pt; stroke-linejoin:round; stroke-linecap:round;" d="M11.6 90.11c1.43 0.59 2.65 0.12 3.51-1.12c3.14-4.57 6.54-10.91 9.39-16.74"></path>
<path style="fill:none; fill-opacity:0%; fill-rule:evenodd; stroke:#aaaaaa; stroke-opacity:100%; stroke-width: 1.5pt; stroke-linejoin:round; stroke-linecap:round;" d="M39.43 18.49c2.57 0.39 5.81 0.28 8.2 0.03c9.43-1 20.27-2.15 31.02-3.42c2.83-0.33 5.54-0.36 8.37 0.25"></path>
<path style="fill:none; fill-opacity:0%; fill-rule:evenodd; stroke:#aaaaaa; stroke-opacity:100%; stroke-width: 1.5pt; stroke-linejoin:round; stroke-linecap:round;" d="M41.2 30.85c2.39 0.89 4.7 0.8 7.15 0.49c9.98-1.28 24.68-3.18 31.8-3.98c3.62-0.41 5.39 0.97 4.49 4.8c-1.06 4.49-1.47 6.45-2.3 9.14"></path>
<path style="fill:none; fill-opacity:0%; fill-rule:evenodd; stroke:#aaaaaa; stroke-opacity:100%; stroke-width: 1.5pt; stroke-linejoin:round; stroke-linecap:round;" d="M45.36 45.18c1.02 0 22.18-2.09 34.4-2.83c2.02-0.12 3.77-0.19 5.12-0.19"></path>
<path style="fill:none; fill-opacity:0%; fill-rule:evenodd; stroke:#aaaaaa; stroke-opacity:100%; stroke-width: 1.5pt; stroke-linejoin:round; stroke-linecap:round;" d="M43.69 32c0.85 0.85 1.17 2.24 1.1 4.19C43.88 61.5 38.88 77.62 27.72 90"></path>
<path style="fill:none; fill-opacity:0%; fill-rule:evenodd; stroke:#aaaaaa; stroke-opacity:100%; stroke-width: 1.5pt; stroke-linejoin:round; stroke-linecap:round;" d="M47.84 62.79c2.41 0.46 4.62 0.41 6.66 0.18c9.33-1.08 19.9-2.68 28.51-3.22c2.46-0.16 4.45 0.12 6.85 0.62"></path>
<path style="fill:none; fill-opacity:0%; fill-rule:evenodd; stroke:#aaaaaa; stroke-opacity:100%; stroke-width: 1.5pt; stroke-linejoin:round; stroke-linecap:round;" d="M66.22 49.21c0.44 0.63 0.66 1.36 0.65 2.72c-0.21 23.6-10.2 35.56-27.47 42.81"></path>
<path style="fill:none; fill-opacity:0%; fill-rule:evenodd; stroke:#aaaaaa; stroke-opacity:100%; stroke-width: 1.5pt; stroke-linejoin:round; stroke-linecap:round;" d="M67.35 62.56C73.38 71 79.62 80.75 87.67 88.59c1.94 1.89 3.96 3.55 6.36 4.83"></path>

<path style="fill:none; fill-opacity:0%; fill-rule:evenodd; stroke:#000000; stroke-opacity:100%; stroke-width: 3pt; stroke-linejoin:round; stroke-linecap:round;" d="M18.63 14.75c3.92 1.56 10.13 6.41 11.12 8.84"></path>
<path style="fill:none; fill-opacity:0%; fill-rule:evenodd; stroke:#000000; stroke-opacity:100%; stroke-width: 3pt; stroke-linejoin:round; stroke-linecap:round;" d="M10.25 37.5c5.29 1.28 13.68 5.26 15 7.25"></path>
<path style="fill:none; fill-opacity:0%; fill-rule:evenodd; stroke:#000000; stroke-opacity:100%; stroke-width: 3pt; stroke-linejoin:round; stroke-linecap:round;" d="M11.6 90.11c1.43 0.59 2.65 0.12 3.51-1.12c3.14-4.57 6.54-10.91 9.39-16.74"></path>
<path style="fill:none; fill-opacity:0%; fill-rule:evenodd; stroke:#000000; stroke-opacity:100%; stroke-width: 3pt; stroke-linejoin:round; stroke-linecap:round;" d="M39.43 18.49c2.57 0.39 5.81 0.28 8.2 0.03c9.43-1 20.27-2.15 31.02-3.42c2.83-0.33 5.54-0.36 8.37 0.25"></path>
<text x="5" y="20" font-size="20" fill="#999999">5</text><path style="fill:none; fill-opacity:0%; fill-rule:evenodd; stroke:#CC0000; stroke-opacity:100%; stroke-width: 3pt; stroke-linejoin:round; stroke-linecap:round;" d="M41.2 30.85c2.39 0.89 4.7 0.8 7.15 0.49c9.98-1.28 24.68-3.18 31.8-3.98c3.62-0.41 5.39 0.97 4.49 4.8c-1.06 4.49-1.47 6.45-2.3 9.14"  ></path>






</g><g transform="scale(1.3761467889908 1.3761467889908) translate(0, 109)">
<path style="fill:none; fill-rule:evenodd; stroke:#aaaaaa;  stroke-width:1pt; stroke-linecap:round;" d="m 109 0 L 0 0 L 0 109 L 109 109 L 109 0"></path><path style="fill:none; fill-opacity:0%; fill-rule:evenodd; stroke:#aaaaaa; stroke-opacity:100%; stroke-width: 1.5pt; stroke-linejoin:round; stroke-linecap:round;" d="M18.63 14.75c3.92 1.56 10.13 6.41 11.12 8.84"></path>
<path style="fill:none; fill-opacity:0%; fill-rule:evenodd; stroke:#aaaaaa; stroke-opacity:100%; stroke-width: 1.5pt; stroke-linejoin:round; stroke-linecap:round;" d="M10.25 37.5c5.29 1.28 13.68 5.26 15 7.25"></path>
<path style="fill:none; fill-opacity:0%; fill-rule:evenodd; stroke:#aaaaaa; stroke-opacity:100%; stroke-width: 1.5pt; stroke-linejoin:round; stroke-linecap:round;" d="M11.6 90.11c1.43 0.59 2.65 0.12 3.51-1.12c3.14-4.57 6.54-10.91 9.39-16.74"></path>
<path style="fill:none; fill-opacity:0%; fill-rule:evenodd; stroke:#aaaaaa; stroke-opacity:100%; stroke-width: 1.5pt; stroke-linejoin:round; stroke-linecap:round;" d="M39.43 18.49c2.57 0.39 5.81 0.28 8.2 0.03c9.43-1 20.27-2.15 31.02-3.42c2.83-0.33 5.54-0.36 8.37 0.25"></path>
<path style="fill:none; fill-opacity:0%; fill-rule:evenodd; stroke:#aaaaaa; stroke-opacity:100%; stroke-width: 1.5pt; stroke-linejoin:round; stroke-linecap:round;" d="M41.2 30.85c2.39 0.89 4.7 0.8 7.15 0.49c9.98-1.28 24.68-3.18 31.8-3.98c3.62-0.41 5.39 0.97 4.49 4.8c-1.06 4.49-1.47 6.45-2.3 9.14"></path>
<path style="fill:none; fill-opacity:0%; fill-rule:evenodd; stroke:#aaaaaa; stroke-opacity:100%; stroke-width: 1.5pt; stroke-linejoin:round; stroke-linecap:round;" d="M45.36 45.18c1.02 0 22.18-2.09 34.4-2.83c2.02-0.12 3.77-0.19 5.12-0.19"></path>
<path style="fill:none; fill-opacity:0%; fill-rule:evenodd; stroke:#aaaaaa; stroke-opacity:100%; stroke-width: 1.5pt; stroke-linejoin:round; stroke-linecap:round;" d="M43.69 32c0.85 0.85 1.17 2.24 1.1 4.19C43.88 61.5 38.88 77.62 27.72 90"></path>
<path style="fill:none; fill-opacity:0%; fill-rule:evenodd; stroke:#aaaaaa; stroke-opacity:100%; stroke-width: 1.5pt; stroke-linejoin:round; stroke-linecap:round;" d="M47.84 62.79c2.41 0.46 4.62 0.41 6.66 0.18c9.33-1.08 19.9-2.68 28.51-3.22c2.46-0.16 4.45 0.12 6.85 0.62"></path>
<path style="fill:none; fill-opacity:0%; fill-rule:evenodd; stroke:#aaaaaa; stroke-opacity:100%; stroke-width: 1.5pt; stroke-linejoin:round; stroke-linecap:round;" d="M66.22 49.21c0.44 0.63 0.66 1.36 0.65 2.72c-0.21 23.6-10.2 35.56-27.47 42.81"></path>
<path style="fill:none; fill-opacity:0%; fill-rule:evenodd; stroke:#aaaaaa; stroke-opacity:100%; stroke-width: 1.5pt; stroke-linejoin:round; stroke-linecap:round;" d="M67.35 62.56C73.38 71 79.62 80.75 87.67 88.59c1.94 1.89 3.96 3.55 6.36 4.83"></path>

<path style="fill:none; fill-opacity:0%; fill-rule:evenodd; stroke:#000000; stroke-opacity:100%; stroke-width: 3pt; stroke-linejoin:round; stroke-linecap:round;" d="M18.63 14.75c3.92 1.56 10.13 6.41 11.12 8.84"></path>
<path style="fill:none; fill-opacity:0%; fill-rule:evenodd; stroke:#000000; stroke-opacity:100%; stroke-width: 3pt; stroke-linejoin:round; stroke-linecap:round;" d="M10.25 37.5c5.29 1.28 13.68 5.26 15 7.25"></path>
<path style="fill:none; fill-opacity:0%; fill-rule:evenodd; stroke:#000000; stroke-opacity:100%; stroke-width: 3pt; stroke-linejoin:round; stroke-linecap:round;" d="M11.6 90.11c1.43 0.59 2.65 0.12 3.51-1.12c3.14-4.57 6.54-10.91 9.39-16.74"></path>
<path style="fill:none; fill-opacity:0%; fill-rule:evenodd; stroke:#000000; stroke-opacity:100%; stroke-width: 3pt; stroke-linejoin:round; stroke-linecap:round;" d="M39.43 18.49c2.57 0.39 5.81 0.28 8.2 0.03c9.43-1 20.27-2.15 31.02-3.42c2.83-0.33 5.54-0.36 8.37 0.25"></path>
<path style="fill:none; fill-opacity:0%; fill-rule:evenodd; stroke:#000000; stroke-opacity:100%; stroke-width: 3pt; stroke-linejoin:round; stroke-linecap:round;" d="M41.2 30.85c2.39 0.89 4.7 0.8 7.15 0.49c9.98-1.28 24.68-3.18 31.8-3.98c3.62-0.41 5.39 0.97 4.49 4.8c-1.06 4.49-1.47 6.45-2.3 9.14"></path>
<text x="5" y="20" font-size="20" fill="#999999">6</text><path style="fill:none; fill-opacity:0%; fill-rule:evenodd; stroke:#CC0000; stroke-opacity:100%; stroke-width: 3pt; stroke-linejoin:round; stroke-linecap:round;" d="M45.36 45.18c1.02 0 22.18-2.09 34.4-2.83c2.02-0.12 3.77-0.19 5.12-0.19"  ></path>





</g><g transform="scale(1.3761467889908 1.3761467889908) translate(109, 109)">
<path style="fill:none; fill-rule:evenodd; stroke:#aaaaaa;  stroke-width:1pt; stroke-linecap:round;" d="m 109 0 L 0 0 L 0 109 L 109 109 L 109 0"></path><path style="fill:none; fill-opacity:0%; fill-rule:evenodd; stroke:#aaaaaa; stroke-opacity:100%; stroke-width: 1.5pt; stroke-linejoin:round; stroke-linecap:round;" d="M18.63 14.75c3.92 1.56 10.13 6.41 11.12 8.84"></path>
<path style="fill:none; fill-opacity:0%; fill-rule:evenodd; stroke:#aaaaaa; stroke-opacity:100%; stroke-width: 1.5pt; stroke-linejoin:round; stroke-linecap:round;" d="M10.25 37.5c5.29 1.28 13.68 5.26 15 7.25"></path>
<path style="fill:none; fill-opacity:0%; fill-rule:evenodd; stroke:#aaaaaa; stroke-opacity:100%; stroke-width: 1.5pt; stroke-linejoin:round; stroke-linecap:round;" d="M11.6 90.11c1.43 0.59 2.65 0.12 3.51-1.12c3.14-4.57 6.54-10.91 9.39-16.74"></path>
<path style="fill:none; fill-opacity:0%; fill-rule:evenodd; stroke:#aaaaaa; stroke-opacity:100%; stroke-width: 1.5pt; stroke-linejoin:round; stroke-linecap:round;" d="M39.43 18.49c2.57 0.39 5.81 0.28 8.2 0.03c9.43-1 20.27-2.15 31.02-3.42c2.83-0.33 5.54-0.36 8.37 0.25"></path>
<path style="fill:none; fill-opacity:0%; fill-rule:evenodd; stroke:#aaaaaa; stroke-opacity:100%; stroke-width: 1.5pt; stroke-linejoin:round; stroke-linecap:round;" d="M41.2 30.85c2.39 0.89 4.7 0.8 7.15 0.49c9.98-1.28 24.68-3.18 31.8-3.98c3.62-0.41 5.39 0.97 4.49 4.8c-1.06 4.49-1.47 6.45-2.3 9.14"></path>
<path style="fill:none; fill-opacity:0%; fill-rule:evenodd; stroke:#aaaaaa; stroke-opacity:100%; stroke-width: 1.5pt; stroke-linejoin:round; stroke-linecap:round;" d="M45.36 45.18c1.02 0 22.18-2.09 34.4-2.83c2.02-0.12 3.77-0.19 5.12-0.19"></path>
<path style="fill:none; fill-opacity:0%; fill-rule:evenodd; stroke:#aaaaaa; stroke-opacity:100%; stroke-width: 1.5pt; stroke-linejoin:round; stroke-linecap:round;" d="M43.69 32c0.85 0.85 1.17 2.24 1.1 4.19C43.88 61.5 38.88 77.62 27.72 90"></path>
<path style="fill:none; fill-opacity:0%; fill-rule:evenodd; stroke:#aaaaaa; stroke-opacity:100%; stroke-width: 1.5pt; stroke-linejoin:round; stroke-linecap:round;" d="M47.84 62.79c2.41 0.46 4.62 0.41 6.66 0.18c9.33-1.08 19.9-2.68 28.51-3.22c2.46-0.16 4.45 0.12 6.85 0.62"></path>
<path style="fill:none; fill-opacity:0%; fill-rule:evenodd; stroke:#aaaaaa; stroke-opacity:100%; stroke-width: 1.5pt; stroke-linejoin:round; stroke-linecap:round;" d="M66.22 49.21c0.44 0.63 0.66 1.36 0.65 2.72c-0.21 23.6-10.2 35.56-27.47 42.81"></path>
<path style="fill:none; fill-opacity:0%; fill-rule:evenodd; stroke:#aaaaaa; stroke-opacity:100%; stroke-width: 1.5pt; stroke-linejoin:round; stroke-linecap:round;" d="M67.35 62.56C73.38 71 79.62 80.75 87.67 88.59c1.94 1.89 3.96 3.55 6.36 4.83"></path>

<path style="fill:none; fill-opacity:0%; fill-rule:evenodd; stroke:#000000; stroke-opacity:100%; stroke-width: 3pt; stroke-linejoin:round; stroke-linecap:round;" d="M18.63 14.75c3.92 1.56 10.13 6.41 11.12 8.84"></path>
<path style="fill:none; fill-opacity:0%; fill-rule:evenodd; stroke:#000000; stroke-opacity:100%; stroke-width: 3pt; stroke-linejoin:round; stroke-linecap:round;" d="M10.25 37.5c5.29 1.28 13.68 5.26 15 7.25"></path>
<path style="fill:none; fill-opacity:0%; fill-rule:evenodd; stroke:#000000; stroke-opacity:100%; stroke-width: 3pt; stroke-linejoin:round; stroke-linecap:round;" d="M11.6 90.11c1.43 0.59 2.65 0.12 3.51-1.12c3.14-4.57 6.54-10.91 9.39-16.74"></path>
<path style="fill:none; fill-opacity:0%; fill-rule:evenodd; stroke:#000000; stroke-opacity:100%; stroke-width: 3pt; stroke-linejoin:round; stroke-linecap:round;" d="M39.43 18.49c2.57 0.39 5.81 0.28 8.2 0.03c9.43-1 20.27-2.15 31.02-3.42c2.83-0.33 5.54-0.36 8.37 0.25"></path>
<path style="fill:none; fill-opacity:0%; fill-rule:evenodd; stroke:#000000; stroke-opacity:100%; stroke-width: 3pt; stroke-linejoin:round; stroke-linecap:round;" d="M41.2 30.85c2.39 0.89 4.7 0.8 7.15 0.49c9.98-1.28 24.68-3.18 31.8-3.98c3.62-0.41 5.39 0.97 4.49 4.8c-1.06 4.49-1.47 6.45-2.3 9.14"></path>
<path style="fill:none; fill-opacity:0%; fill-rule:evenodd; stroke:#000000; stroke-opacity:100%; stroke-width: 3pt; stroke-linejoin:round; stroke-linecap:round;" d="M45.36 45.18c1.02 0 22.18-2.09 34.4-2.83c2.02-0.12 3.77-0.19 5.12-0.19"></path>
<text x="5" y="20" font-size="20" fill="#999999">7</text><path style="fill:none; fill-opacity:0%; fill-rule:evenodd; stroke:#CC0000; stroke-opacity:100%; stroke-width: 3pt; stroke-linejoin:round; stroke-linecap:round;" d="M43.69 32c0.85 0.85 1.17 2.24 1.1 4.19C43.88 61.5 38.88 77.62 27.72 90"  ></path>




</g><g transform="scale(1.3761467889908 1.3761467889908) translate(218, 109)">
<path style="fill:none; fill-rule:evenodd; stroke:#aaaaaa;  stroke-width:1pt; stroke-linecap:round;" d="m 109 0 L 0 0 L 0 109 L 109 109 L 109 0"></path><path style="fill:none; fill-opacity:0%; fill-rule:evenodd; stroke:#aaaaaa; stroke-opacity:100%; stroke-width: 1.5pt; stroke-linejoin:round; stroke-linecap:round;" d="M18.63 14.75c3.92 1.56 10.13 6.41 11.12 8.84"></path>
<path style="fill:none; fill-opacity:0%; fill-rule:evenodd; stroke:#aaaaaa; stroke-opacity:100%; stroke-width: 1.5pt; stroke-linejoin:round; stroke-linecap:round;" d="M10.25 37.5c5.29 1.28 13.68 5.26 15 7.25"></path>
<path style="fill:none; fill-opacity:0%; fill-rule:evenodd; stroke:#aaaaaa; stroke-opacity:100%; stroke-width: 1.5pt; stroke-linejoin:round; stroke-linecap:round;" d="M11.6 90.11c1.43 0.59 2.65 0.12 3.51-1.12c3.14-4.57 6.54-10.91 9.39-16.74"></path>
<path style="fill:none; fill-opacity:0%; fill-rule:evenodd; stroke:#aaaaaa; stroke-opacity:100%; stroke-width: 1.5pt; stroke-linejoin:round; stroke-linecap:round;" d="M39.43 18.49c2.57 0.39 5.81 0.28 8.2 0.03c9.43-1 20.27-2.15 31.02-3.42c2.83-0.33 5.54-0.36 8.37 0.25"></path>
<path style="fill:none; fill-opacity:0%; fill-rule:evenodd; stroke:#aaaaaa; stroke-opacity:100%; stroke-width: 1.5pt; stroke-linejoin:round; stroke-linecap:round;" d="M41.2 30.85c2.39 0.89 4.7 0.8 7.15 0.49c9.98-1.28 24.68-3.18 31.8-3.98c3.62-0.41 5.39 0.97 4.49 4.8c-1.06 4.49-1.47 6.45-2.3 9.14"></path>
<path style="fill:none; fill-opacity:0%; fill-rule:evenodd; stroke:#aaaaaa; stroke-opacity:100%; stroke-width: 1.5pt; stroke-linejoin:round; stroke-linecap:round;" d="M45.36 45.18c1.02 0 22.18-2.09 34.4-2.83c2.02-0.12 3.77-0.19 5.12-0.19"></path>
<path style="fill:none; fill-opacity:0%; fill-rule:evenodd; stroke:#aaaaaa; stroke-opacity:100%; stroke-width: 1.5pt; stroke-linejoin:round; stroke-linecap:round;" d="M43.69 32c0.85 0.85 1.17 2.24 1.1 4.19C43.88 61.5 38.88 77.62 27.72 90"></path>
<path style="fill:none; fill-opacity:0%; fill-rule:evenodd; stroke:#aaaaaa; stroke-opacity:100%; stroke-width: 1.5pt; stroke-linejoin:round; stroke-linecap:round;" d="M47.84 62.79c2.41 0.46 4.62 0.41 6.66 0.18c9.33-1.08 19.9-2.68 28.51-3.22c2.46-0.16 4.45 0.12 6.85 0.62"></path>
<path style="fill:none; fill-opacity:0%; fill-rule:evenodd; stroke:#aaaaaa; stroke-opacity:100%; stroke-width: 1.5pt; stroke-linejoin:round; stroke-linecap:round;" d="M66.22 49.21c0.44 0.63 0.66 1.36 0.65 2.72c-0.21 23.6-10.2 35.56-27.47 42.81"></path>
<path style="fill:none; fill-opacity:0%; fill-rule:evenodd; stroke:#aaaaaa; stroke-opacity:100%; stroke-width: 1.5pt; stroke-linejoin:round; stroke-linecap:round;" d="M67.35 62.56C73.38 71 79.62 80.75 87.67 88.59c1.94 1.89 3.96 3.55 6.36 4.83"></path>

<path style="fill:none; fill-opacity:0%; fill-rule:evenodd; stroke:#000000; stroke-opacity:100%; stroke-width: 3pt; stroke-linejoin:round; stroke-linecap:round;" d="M18.63 14.75c3.92 1.56 10.13 6.41 11.12 8.84"></path>
<path style="fill:none; fill-opacity:0%; fill-rule:evenodd; stroke:#000000; stroke-opacity:100%; stroke-width: 3pt; stroke-linejoin:round; stroke-linecap:round;" d="M10.25 37.5c5.29 1.28 13.68 5.26 15 7.25"></path>
<path style="fill:none; fill-opacity:0%; fill-rule:evenodd; stroke:#000000; stroke-opacity:100%; stroke-width: 3pt; stroke-linejoin:round; stroke-linecap:round;" d="M11.6 90.11c1.43 0.59 2.65 0.12 3.51-1.12c3.14-4.57 6.54-10.91 9.39-16.74"></path>
<path style="fill:none; fill-opacity:0%; fill-rule:evenodd; stroke:#000000; stroke-opacity:100%; stroke-width: 3pt; stroke-linejoin:round; stroke-linecap:round;" d="M39.43 18.49c2.57 0.39 5.81 0.28 8.2 0.03c9.43-1 20.27-2.15 31.02-3.42c2.83-0.33 5.54-0.36 8.37 0.25"></path>
<path style="fill:none; fill-opacity:0%; fill-rule:evenodd; stroke:#000000; stroke-opacity:100%; stroke-width: 3pt; stroke-linejoin:round; stroke-linecap:round;" d="M41.2 30.85c2.39 0.89 4.7 0.8 7.15 0.49c9.98-1.28 24.68-3.18 31.8-3.98c3.62-0.41 5.39 0.97 4.49 4.8c-1.06 4.49-1.47 6.45-2.3 9.14"></path>
<path style="fill:none; fill-opacity:0%; fill-rule:evenodd; stroke:#000000; stroke-opacity:100%; stroke-width: 3pt; stroke-linejoin:round; stroke-linecap:round;" d="M45.36 45.18c1.02 0 22.18-2.09 34.4-2.83c2.02-0.12 3.77-0.19 5.12-0.19"></path>
<path style="fill:none; fill-opacity:0%; fill-rule:evenodd; stroke:#000000; stroke-opacity:100%; stroke-width: 3pt; stroke-linejoin:round; stroke-linecap:round;" d="M43.69 32c0.85 0.85 1.17 2.24 1.1 4.19C43.88 61.5 38.88 77.62 27.72 90"></path>
<text x="5" y="20" font-size="20" fill="#999999">8</text><path style="fill:none; fill-opacity:0%; fill-rule:evenodd; stroke:#CC0000; stroke-opacity:100%; stroke-width: 3pt; stroke-linejoin:round; stroke-linecap:round;" d="M47.84 62.79c2.41 0.46 4.62 0.41 6.66 0.18c9.33-1.08 19.9-2.68 28.51-3.22c2.46-0.16 4.45 0.12 6.85 0.62"  ></path>



</g><g transform="scale(1.3761467889908 1.3761467889908) translate(327, 109)">
<path style="fill:none; fill-rule:evenodd; stroke:#aaaaaa;  stroke-width:1pt; stroke-linecap:round;" d="m 109 0 L 0 0 L 0 109 L 109 109 L 109 0"></path><path style="fill:none; fill-opacity:0%; fill-rule:evenodd; stroke:#aaaaaa; stroke-opacity:100%; stroke-width: 1.5pt; stroke-linejoin:round; stroke-linecap:round;" d="M18.63 14.75c3.92 1.56 10.13 6.41 11.12 8.84"></path>
<path style="fill:none; fill-opacity:0%; fill-rule:evenodd; stroke:#aaaaaa; stroke-opacity:100%; stroke-width: 1.5pt; stroke-linejoin:round; stroke-linecap:round;" d="M10.25 37.5c5.29 1.28 13.68 5.26 15 7.25"></path>
<path style="fill:none; fill-opacity:0%; fill-rule:evenodd; stroke:#aaaaaa; stroke-opacity:100%; stroke-width: 1.5pt; stroke-linejoin:round; stroke-linecap:round;" d="M11.6 90.11c1.43 0.59 2.65 0.12 3.51-1.12c3.14-4.57 6.54-10.91 9.39-16.74"></path>
<path style="fill:none; fill-opacity:0%; fill-rule:evenodd; stroke:#aaaaaa; stroke-opacity:100%; stroke-width: 1.5pt; stroke-linejoin:round; stroke-linecap:round;" d="M39.43 18.49c2.57 0.39 5.81 0.28 8.2 0.03c9.43-1 20.27-2.15 31.02-3.42c2.83-0.33 5.54-0.36 8.37 0.25"></path>
<path style="fill:none; fill-opacity:0%; fill-rule:evenodd; stroke:#aaaaaa; stroke-opacity:100%; stroke-width: 1.5pt; stroke-linejoin:round; stroke-linecap:round;" d="M41.2 30.85c2.39 0.89 4.7 0.8 7.15 0.49c9.98-1.28 24.68-3.18 31.8-3.98c3.62-0.41 5.39 0.97 4.49 4.8c-1.06 4.49-1.47 6.45-2.3 9.14"></path>
<path style="fill:none; fill-opacity:0%; fill-rule:evenodd; stroke:#aaaaaa; stroke-opacity:100%; stroke-width: 1.5pt; stroke-linejoin:round; stroke-linecap:round;" d="M45.36 45.18c1.02 0 22.18-2.09 34.4-2.83c2.02-0.12 3.77-0.19 5.12-0.19"></path>
<path style="fill:none; fill-opacity:0%; fill-rule:evenodd; stroke:#aaaaaa; stroke-opacity:100%; stroke-width: 1.5pt; stroke-linejoin:round; stroke-linecap:round;" d="M43.69 32c0.85 0.85 1.17 2.24 1.1 4.19C43.88 61.5 38.88 77.62 27.72 90"></path>
<path style="fill:none; fill-opacity:0%; fill-rule:evenodd; stroke:#aaaaaa; stroke-opacity:100%; stroke-width: 1.5pt; stroke-linejoin:round; stroke-linecap:round;" d="M47.84 62.79c2.41 0.46 4.62 0.41 6.66 0.18c9.33-1.08 19.9-2.68 28.51-3.22c2.46-0.16 4.45 0.12 6.85 0.62"></path>
<path style="fill:none; fill-opacity:0%; fill-rule:evenodd; stroke:#aaaaaa; stroke-opacity:100%; stroke-width: 1.5pt; stroke-linejoin:round; stroke-linecap:round;" d="M66.22 49.21c0.44 0.63 0.66 1.36 0.65 2.72c-0.21 23.6-10.2 35.56-27.47 42.81"></path>
<path style="fill:none; fill-opacity:0%; fill-rule:evenodd; stroke:#aaaaaa; stroke-opacity:100%; stroke-width: 1.5pt; stroke-linejoin:round; stroke-linecap:round;" d="M67.35 62.56C73.38 71 79.62 80.75 87.67 88.59c1.94 1.89 3.96 3.55 6.36 4.83"></path>

<path style="fill:none; fill-opacity:0%; fill-rule:evenodd; stroke:#000000; stroke-opacity:100%; stroke-width: 3pt; stroke-linejoin:round; stroke-linecap:round;" d="M18.63 14.75c3.92 1.56 10.13 6.41 11.12 8.84"></path>
<path style="fill:none; fill-opacity:0%; fill-rule:evenodd; stroke:#000000; stroke-opacity:100%; stroke-width: 3pt; stroke-linejoin:round; stroke-linecap:round;" d="M10.25 37.5c5.29 1.28 13.68 5.26 15 7.25"></path>
<path style="fill:none; fill-opacity:0%; fill-rule:evenodd; stroke:#000000; stroke-opacity:100%; stroke-width: 3pt; stroke-linejoin:round; stroke-linecap:round;" d="M11.6 90.11c1.43 0.59 2.65 0.12 3.51-1.12c3.14-4.57 6.54-10.91 9.39-16.74"></path>
<path style="fill:none; fill-opacity:0%; fill-rule:evenodd; stroke:#000000; stroke-opacity:100%; stroke-width: 3pt; stroke-linejoin:round; stroke-linecap:round;" d="M39.43 18.49c2.57 0.39 5.81 0.28 8.2 0.03c9.43-1 20.27-2.15 31.02-3.42c2.83-0.33 5.54-0.36 8.37 0.25"></path>
<path style="fill:none; fill-opacity:0%; fill-rule:evenodd; stroke:#000000; stroke-opacity:100%; stroke-width: 3pt; stroke-linejoin:round; stroke-linecap:round;" d="M41.2 30.85c2.39 0.89 4.7 0.8 7.15 0.49c9.98-1.28 24.68-3.18 31.8-3.98c3.62-0.41 5.39 0.97 4.49 4.8c-1.06 4.49-1.47 6.45-2.3 9.14"></path>
<path style="fill:none; fill-opacity:0%; fill-rule:evenodd; stroke:#000000; stroke-opacity:100%; stroke-width: 3pt; stroke-linejoin:round; stroke-linecap:round;" d="M45.36 45.18c1.02 0 22.18-2.09 34.4-2.83c2.02-0.12 3.77-0.19 5.12-0.19"></path>
<path style="fill:none; fill-opacity:0%; fill-rule:evenodd; stroke:#000000; stroke-opacity:100%; stroke-width: 3pt; stroke-linejoin:round; stroke-linecap:round;" d="M43.69 32c0.85 0.85 1.17 2.24 1.1 4.19C43.88 61.5 38.88 77.62 27.72 90"></path>
<path style="fill:none; fill-opacity:0%; fill-rule:evenodd; stroke:#000000; stroke-opacity:100%; stroke-width: 3pt; stroke-linejoin:round; stroke-linecap:round;" d="M47.84 62.79c2.41 0.46 4.62 0.41 6.66 0.18c9.33-1.08 19.9-2.68 28.51-3.22c2.46-0.16 4.45 0.12 6.85 0.62"></path>
<text x="5" y="20" font-size="20" fill="#999999">9</text><path style="fill:none; fill-opacity:0%; fill-rule:evenodd; stroke:#CC0000; stroke-opacity:100%; stroke-width: 3pt; stroke-linejoin:round; stroke-linecap:round;" d="M66.22 49.21c0.44 0.63 0.66 1.36 0.65 2.72c-0.21 23.6-10.2 35.56-27.47 42.81"  ></path>


</g><g transform="scale(1.3761467889908 1.3761467889908) translate(436, 109)">
<path style="fill:none; fill-rule:evenodd; stroke:#aaaaaa;  stroke-width:1pt; stroke-linecap:round;" d="m 109 0 L 0 0 L 0 109 L 109 109 L 109 0"></path><path style="fill:none; fill-opacity:0%; fill-rule:evenodd; stroke:#aaaaaa; stroke-opacity:100%; stroke-width: 1.5pt; stroke-linejoin:round; stroke-linecap:round;" d="M18.63 14.75c3.92 1.56 10.13 6.41 11.12 8.84"></path>
<path style="fill:none; fill-opacity:0%; fill-rule:evenodd; stroke:#aaaaaa; stroke-opacity:100%; stroke-width: 1.5pt; stroke-linejoin:round; stroke-linecap:round;" d="M10.25 37.5c5.29 1.28 13.68 5.26 15 7.25"></path>
<path style="fill:none; fill-opacity:0%; fill-rule:evenodd; stroke:#aaaaaa; stroke-opacity:100%; stroke-width: 1.5pt; stroke-linejoin:round; stroke-linecap:round;" d="M11.6 90.11c1.43 0.59 2.65 0.12 3.51-1.12c3.14-4.57 6.54-10.91 9.39-16.74"></path>
<path style="fill:none; fill-opacity:0%; fill-rule:evenodd; stroke:#aaaaaa; stroke-opacity:100%; stroke-width: 1.5pt; stroke-linejoin:round; stroke-linecap:round;" d="M39.43 18.49c2.57 0.39 5.81 0.28 8.2 0.03c9.43-1 20.27-2.15 31.02-3.42c2.83-0.33 5.54-0.36 8.37 0.25"></path>
<path style="fill:none; fill-opacity:0%; fill-rule:evenodd; stroke:#aaaaaa; stroke-opacity:100%; stroke-width: 1.5pt; stroke-linejoin:round; stroke-linecap:round;" d="M41.2 30.85c2.39 0.89 4.7 0.8 7.15 0.49c9.98-1.28 24.68-3.18 31.8-3.98c3.62-0.41 5.39 0.97 4.49 4.8c-1.06 4.49-1.47 6.45-2.3 9.14"></path>
<path style="fill:none; fill-opacity:0%; fill-rule:evenodd; stroke:#aaaaaa; stroke-opacity:100%; stroke-width: 1.5pt; stroke-linejoin:round; stroke-linecap:round;" d="M45.36 45.18c1.02 0 22.18-2.09 34.4-2.83c2.02-0.12 3.77-0.19 5.12-0.19"></path>
<path style="fill:none; fill-opacity:0%; fill-rule:evenodd; stroke:#aaaaaa; stroke-opacity:100%; stroke-width: 1.5pt; stroke-linejoin:round; stroke-linecap:round;" d="M43.69 32c0.85 0.85 1.17 2.24 1.1 4.19C43.88 61.5 38.88 77.62 27.72 90"></path>
<path style="fill:none; fill-opacity:0%; fill-rule:evenodd; stroke:#aaaaaa; stroke-opacity:100%; stroke-width: 1.5pt; stroke-linejoin:round; stroke-linecap:round;" d="M47.84 62.79c2.41 0.46 4.62 0.41 6.66 0.18c9.33-1.08 19.9-2.68 28.51-3.22c2.46-0.16 4.45 0.12 6.85 0.62"></path>
<path style="fill:none; fill-opacity:0%; fill-rule:evenodd; stroke:#aaaaaa; stroke-opacity:100%; stroke-width: 1.5pt; stroke-linejoin:round; stroke-linecap:round;" d="M66.22 49.21c0.44 0.63 0.66 1.36 0.65 2.72c-0.21 23.6-10.2 35.56-27.47 42.81"></path>
<path style="fill:none; fill-opacity:0%; fill-rule:evenodd; stroke:#aaaaaa; stroke-opacity:100%; stroke-width: 1.5pt; stroke-linejoin:round; stroke-linecap:round;" d="M67.35 62.56C73.38 71 79.62 80.75 87.67 88.59c1.94 1.89 3.96 3.55 6.36 4.83"></path>

<path style="fill:none; fill-opacity:0%; fill-rule:evenodd; stroke:#000000; stroke-opacity:100%; stroke-width: 3pt; stroke-linejoin:round; stroke-linecap:round;" d="M18.63 14.75c3.92 1.56 10.13 6.41 11.12 8.84"></path>
<path style="fill:none; fill-opacity:0%; fill-rule:evenodd; stroke:#000000; stroke-opacity:100%; stroke-width: 3pt; stroke-linejoin:round; stroke-linecap:round;" d="M10.25 37.5c5.29 1.28 13.68 5.26 15 7.25"></path>
<path style="fill:none; fill-opacity:0%; fill-rule:evenodd; stroke:#000000; stroke-opacity:100%; stroke-width: 3pt; stroke-linejoin:round; stroke-linecap:round;" d="M11.6 90.11c1.43 0.59 2.65 0.12 3.51-1.12c3.14-4.57 6.54-10.91 9.39-16.74"></path>
<path style="fill:none; fill-opacity:0%; fill-rule:evenodd; stroke:#000000; stroke-opacity:100%; stroke-width: 3pt; stroke-linejoin:round; stroke-linecap:round;" d="M39.43 18.49c2.57 0.39 5.81 0.28 8.2 0.03c9.43-1 20.27-2.15 31.02-3.42c2.83-0.33 5.54-0.36 8.37 0.25"></path>
<path style="fill:none; fill-opacity:0%; fill-rule:evenodd; stroke:#000000; stroke-opacity:100%; stroke-width: 3pt; stroke-linejoin:round; stroke-linecap:round;" d="M41.2 30.85c2.39 0.89 4.7 0.8 7.15 0.49c9.98-1.28 24.68-3.18 31.8-3.98c3.62-0.41 5.39 0.97 4.49 4.8c-1.06 4.49-1.47 6.45-2.3 9.14"></path>
<path style="fill:none; fill-opacity:0%; fill-rule:evenodd; stroke:#000000; stroke-opacity:100%; stroke-width: 3pt; stroke-linejoin:round; stroke-linecap:round;" d="M45.36 45.18c1.02 0 22.18-2.09 34.4-2.83c2.02-0.12 3.77-0.19 5.12-0.19"></path>
<path style="fill:none; fill-opacity:0%; fill-rule:evenodd; stroke:#000000; stroke-opacity:100%; stroke-width: 3pt; stroke-linejoin:round; stroke-linecap:round;" d="M43.69 32c0.85 0.85 1.17 2.24 1.1 4.19C43.88 61.5 38.88 77.62 27.72 90"></path>
<path style="fill:none; fill-opacity:0%; fill-rule:evenodd; stroke:#000000; stroke-opacity:100%; stroke-width: 3pt; stroke-linejoin:round; stroke-linecap:round;" d="M47.84 62.79c2.41 0.46 4.62 0.41 6.66 0.18c9.33-1.08 19.9-2.68 28.51-3.22c2.46-0.16 4.45 0.12 6.85 0.62"></path>
<path style="fill:none; fill-opacity:0%; fill-rule:evenodd; stroke:#000000; stroke-opacity:100%; stroke-width: 3pt; stroke-linejoin:round; stroke-linecap:round;" d="M66.22 49.21c0.44 0.63 0.66 1.36 0.65 2.72c-0.21 23.6-10.2 35.56-27.47 42.81"></path>
<text x="5" y="20" font-size="20" fill="#999999">10</text><path style="fill:none; fill-opacity:0%; fill-rule:evenodd; stroke:#CC0000; stroke-opacity:100%; stroke-width: 3pt; stroke-linejoin:round; stroke-linecap:round;" d="M67.35 62.56C73.38 71 79.62 80.75 87.67 88.59c1.94 1.89 3.96 3.55 6.36 4.83"  ></path>

</g>

</svg>  
          
