<?xml version="1.0" standalone="no"?>
<!DOCTYPE svg PUBLIC "-//W3C//DTD SVG 1.1//EN"   "http://www.w3.org/Graphics/SVG/1.1/DTD/svg11.dtd">
<svg width="751" height="301"  version="1.1" xmlns="http://www.w3.org/2000/svg">
  <defs>
    <marker id="Triangle" viewBox="0 0 10 10" refX="0" refY="5" markerUnits="strokeWidth" markerWidth="3" style="stroke-opacity:0%;fill:#aaaaaa;" markerHeight="2" orient="auto">
      <path d="M 0 0 L 10 5 L 0 10 z" />
    </marker>
    
    <marker id="Arrow" viewBox="0 0 10 10" refX="5" refY="5" markerUnits="strokeWidth" markerWidth="1.8" style="stroke-opacity:0%;fill:#770000;" markerHeight="2" orient="auto">
      <path d="M 0 4 L 6 4 L 4 1 L 10 5 L 4 9 L 6 6 L 0 6 z" />
        <circle cx="5" cy="5" r="5" />
      </marker>
    
    <marker id="TriangleRed" viewBox="0 0 10 10" refX="0" refY="5" markerUnits="strokeWidth" markerWidth="3" style="stroke-opacity:0%;fill:#CC0000;" markerHeight="2" orient="auto">
      <path d="M 0 0 L 10 5 L 0 10 z" />
    </marker>
    
    <marker id="ArrowRed" viewBox="0 0 10 10" refX="5" refY="5" markerUnits="strokeWidth" markerWidth="1.8" style="stroke-opacity:0%;fill:#CC0000;" markerHeight="2" orient="auto">
      <path d="M 0 4 L 6 4 L 4 1 L 10 5 L 4 9 L 6 6 L 0 6 z" />
        <circle cx="5" cy="5" r="5" />
      </marker>
    
  </defs>
  
  <path style="fill:#ffffff; fill-opacity:100%; fill-rule:evenodd; stroke-width:0;" d="M 0 0 L 751 0 L 751 301 L 0 301 L 0 0" />

  <g transform="scale(1.3761467889908 1.3761467889908) translate(0, 0)">
<path style="fill:none; fill-rule:evenodd; stroke:#aaaaaa;  stroke-width:1pt; stroke-linecap:round;" d="m 109 0 L 0 0 L 0 109 L 109 109 L 109 0"></path><path style="fill:none; fill-opacity:0%; fill-rule:evenodd; stroke:#aaaaaa; stroke-opacity:100%; stroke-width: 1.5pt; stroke-linejoin:round; stroke-linecap:round;" d="M9.99 36.75c2.78 4.14 6.83 15.86 7.59 20"></path>
<path style="fill:none; fill-opacity:0%; fill-rule:evenodd; stroke:#aaaaaa; stroke-opacity:100%; stroke-width: 1.5pt; stroke-linejoin:round; stroke-linecap:round;" d="M40.03 31.25c0.76 0.77 0.11 2.78-0.58 3.97c-0.69 1.19-6.77 8.5-10.22 11.28"></path>
<path style="fill:none; fill-opacity:0%; fill-rule:evenodd; stroke:#aaaaaa; stroke-opacity:100%; stroke-width: 1.5pt; stroke-linejoin:round; stroke-linecap:round;" d="M25.25 14.75c0.76 0.75 1.02 2.25 1.03 3.5C26.5 69.75 23.5 82.5 11 95.5"></path>
<path style="fill:none; fill-opacity:0%; fill-rule:evenodd; stroke:#aaaaaa; stroke-opacity:100%; stroke-width: 1.5pt; stroke-linejoin:round; stroke-linecap:round;" d="M27.25 70c4.55 3.36 10.3 13.99 11.5 18.75"></path>
<path style="fill:none; fill-opacity:0%; fill-rule:evenodd; stroke:#aaaaaa; stroke-opacity:100%; stroke-width: 1.5pt; stroke-linejoin:round; stroke-linecap:round;" d="M60.77 12.25c0.06 0.78 0.3 2.06-0.12 3.12C57.42 23.51 50 37.5 40.07 45.82"></path>
<path style="fill:none; fill-opacity:0%; fill-rule:evenodd; stroke:#aaaaaa; stroke-opacity:100%; stroke-width: 1.5pt; stroke-linejoin:round; stroke-linecap:round;" d="M60.76 23.41c0.33 0.04 1.76 0 2.71-0.11c3.14-0.35 11.96-1.59 16.44-2.68c3.08-0.75 4.23 0.99 3.16 2.89C75.5 37 60 58.5 38.94 67.53"></path>
<path style="fill:none; fill-opacity:0%; fill-rule:evenodd; stroke:#aaaaaa; stroke-opacity:100%; stroke-width: 1.5pt; stroke-linejoin:round; stroke-linecap:round;" d="M54.15 29.08c5.15 5.87 28.47 28.15 35.41 33.51c2.07 1.6 3.74 2.37 5.76 2.85"></path>
<path style="fill:none; fill-opacity:0%; fill-rule:evenodd; stroke:#aaaaaa; stroke-opacity:100%; stroke-width: 1.5pt; stroke-linejoin:round; stroke-linecap:round;" d="M49.83 71.01c0.36 0.44 0.73 0.8 0.89 1.35c1.25 4.34 2.75 16.81 3.61 24.6"></path>
<path style="fill:none; fill-opacity:0%; fill-rule:evenodd; stroke:#aaaaaa; stroke-opacity:100%; stroke-width: 1.5pt; stroke-linejoin:round; stroke-linecap:round;" d="M51.08 72.22C60 71.5 74 70.25 81.88 69.38c2.09-0.23 3.33 1.66 3.03 3.31c-1.23 6.82-3.02 11.38-4.85 20.8"></path>
<path style="fill:none; fill-opacity:0%; fill-rule:evenodd; stroke:#aaaaaa; stroke-opacity:100%; stroke-width: 1.5pt; stroke-linejoin:round; stroke-linecap:round;" d="M54.01 94.63C62 94 73.5 93.5 82.87 93.38"></path>

<text x="5" y="20" font-size="20" fill="#999999">1</text><path style="fill:none; fill-opacity:0%; fill-rule:evenodd; stroke:#CC0000; stroke-opacity:100%; stroke-width: 3pt; stroke-linejoin:round; stroke-linecap:round;" d="M9.99 36.75c2.78 4.14 6.83 15.86 7.59 20" marker-end="url(#TriangleRed)" marker-start="url(#ArrowRed)" ></path>










</g><g transform="scale(1.3761467889908 1.3761467889908) translate(109, 0)">
<path style="fill:none; fill-rule:evenodd; stroke:#aaaaaa;  stroke-width:1pt; stroke-linecap:round;" d="m 109 0 L 0 0 L 0 109 L 109 109 L 109 0"></path><path style="fill:none; fill-opacity:0%; fill-rule:evenodd; stroke:#aaaaaa; stroke-opacity:100%; stroke-width: 1.5pt; stroke-linejoin:round; stroke-linecap:round;" d="M9.99 36.75c2.78 4.14 6.83 15.86 7.59 20"></path>
<path style="fill:none; fill-opacity:0%; fill-rule:evenodd; stroke:#aaaaaa; stroke-opacity:100%; stroke-width: 1.5pt; stroke-linejoin:round; stroke-linecap:round;" d="M40.03 31.25c0.76 0.77 0.11 2.78-0.58 3.97c-0.69 1.19-6.77 8.5-10.22 11.28"></path>
<path style="fill:none; fill-opacity:0%; fill-rule:evenodd; stroke:#aaaaaa; stroke-opacity:100%; stroke-width: 1.5pt; stroke-linejoin:round; stroke-linecap:round;" d="M25.25 14.75c0.76 0.75 1.02 2.25 1.03 3.5C26.5 69.75 23.5 82.5 11 95.5"></path>
<path style="fill:none; fill-opacity:0%; fill-rule:evenodd; stroke:#aaaaaa; stroke-opacity:100%; stroke-width: 1.5pt; stroke-linejoin:round; stroke-linecap:round;" d="M27.25 70c4.55 3.36 10.3 13.99 11.5 18.75"></path>
<path style="fill:none; fill-opacity:0%; fill-rule:evenodd; stroke:#aaaaaa; stroke-opacity:100%; stroke-width: 1.5pt; stroke-linejoin:round; stroke-linecap:round;" d="M60.77 12.25c0.06 0.78 0.3 2.06-0.12 3.12C57.42 23.51 50 37.5 40.07 45.82"></path>
<path style="fill:none; fill-opacity:0%; fill-rule:evenodd; stroke:#aaaaaa; stroke-opacity:100%; stroke-width: 1.5pt; stroke-linejoin:round; stroke-linecap:round;" d="M60.76 23.41c0.33 0.04 1.76 0 2.71-0.11c3.14-0.35 11.96-1.59 16.44-2.68c3.08-0.75 4.23 0.99 3.16 2.89C75.5 37 60 58.5 38.94 67.53"></path>
<path style="fill:none; fill-opacity:0%; fill-rule:evenodd; stroke:#aaaaaa; stroke-opacity:100%; stroke-width: 1.5pt; stroke-linejoin:round; stroke-linecap:round;" d="M54.15 29.08c5.15 5.87 28.47 28.15 35.41 33.51c2.07 1.6 3.74 2.37 5.76 2.85"></path>
<path style="fill:none; fill-opacity:0%; fill-rule:evenodd; stroke:#aaaaaa; stroke-opacity:100%; stroke-width: 1.5pt; stroke-linejoin:round; stroke-linecap:round;" d="M49.83 71.01c0.36 0.44 0.73 0.8 0.89 1.35c1.25 4.34 2.75 16.81 3.61 24.6"></path>
<path style="fill:none; fill-opacity:0%; fill-rule:evenodd; stroke:#aaaaaa; stroke-opacity:100%; stroke-width: 1.5pt; stroke-linejoin:round; stroke-linecap:round;" d="M51.08 72.22C60 71.5 74 70.25 81.88 69.38c2.09-0.23 3.33 1.66 3.03 3.31c-1.23 6.82-3.02 11.38-4.85 20.8"></path>
<path style="fill:none; fill-opacity:0%; fill-rule:evenodd; stroke:#aaaaaa; stroke-opacity:100%; stroke-width: 1.5pt; stroke-linejoin:round; stroke-linecap:round;" d="M54.01 94.63C62 94 73.5 93.5 82.87 93.38"></path>

<path style="fill:none; fill-opacity:0%; fill-rule:evenodd; stroke:#000000; stroke-opacity:100%; stroke-width: 3pt; stroke-linejoin:round; stroke-linecap:round;" d="M9.99 36.75c2.78 4.14 6.83 15.86 7.59 20"></path>
<text x="5" y="20" font-size="20" fill="#999999">2</text><path style="fill:none; fill-opacity:0%; fill-rule:evenodd; stroke:#CC0000; stroke-opacity:100%; stroke-width: 3pt; stroke-linejoin:round; stroke-linecap:round;" d="M40.03 31.25c0.76 0.77 0.11 2.78-0.58 3.97c-0.69 1.19-6.77 8.5-10.22 11.28" marker-end="url(#TriangleRed)" marker-start="url(#ArrowRed)" ></path>









</g><g transform="scale(1.3761467889908 1.3761467889908) translate(218, 0)">
<path style="fill:none; fill-rule:evenodd; stroke:#aaaaaa;  stroke-width:1pt; stroke-linecap:round;" d="m 109 0 L 0 0 L 0 109 L 109 109 L 109 0"></path><path style="fill:none; fill-opacity:0%; fill-rule:evenodd; stroke:#aaaaaa; stroke-opacity:100%; stroke-width: 1.5pt; stroke-linejoin:round; stroke-linecap:round;" d="M9.99 36.75c2.78 4.14 6.83 15.86 7.59 20"></path>
<path style="fill:none; fill-opacity:0%; fill-rule:evenodd; stroke:#aaaaaa; stroke-opacity:100%; stroke-width: 1.5pt; stroke-linejoin:round; stroke-linecap:round;" d="M40.03 31.25c0.76 0.77 0.11 2.78-0.58 3.97c-0.69 1.19-6.77 8.5-10.22 11.28"></path>
<path style="fill:none; fill-opacity:0%; fill-rule:evenodd; stroke:#aaaaaa; stroke-opacity:100%; stroke-width: 1.5pt; stroke-linejoin:round; stroke-linecap:round;" d="M25.25 14.75c0.76 0.75 1.02 2.25 1.03 3.5C26.5 69.75 23.5 82.5 11 95.5"></path>
<path style="fill:none; fill-opacity:0%; fill-rule:evenodd; stroke:#aaaaaa; stroke-opacity:100%; stroke-width: 1.5pt; stroke-linejoin:round; stroke-linecap:round;" d="M27.25 70c4.55 3.36 10.3 13.99 11.5 18.75"></path>
<path style="fill:none; fill-opacity:0%; fill-rule:evenodd; stroke:#aaaaaa; stroke-opacity:100%; stroke-width: 1.5pt; stroke-linejoin:round; stroke-linecap:round;" d="M60.77 12.25c0.06 0.78 0.3 2.06-0.12 3.12C57.42 23.51 50 37.5 40.07 45.82"></path>
<path style="fill:none; fill-opacity:0%; fill-rule:evenodd; stroke:#aaaaaa; stroke-opacity:100%; stroke-width: 1.5pt; stroke-linejoin:round; stroke-linecap:round;" d="M60.76 23.41c0.33 0.04 1.76 0 2.71-0.11c3.14-0.35 11.96-1.59 16.44-2.68c3.08-0.75 4.23 0.99 3.16 2.89C75.5 37 60 58.5 38.94 67.53"></path>
<path style="fill:none; fill-opacity:0%; fill-rule:evenodd; stroke:#aaaaaa; stroke-opacity:100%; stroke-width: 1.5pt; stroke-linejoin:round; stroke-linecap:round;" d="M54.15 29.08c5.15 5.87 28.47 28.15 35.41 33.51c2.07 1.6 3.74 2.37 5.76 2.85"></path>
<path style="fill:none; fill-opacity:0%; fill-rule:evenodd; stroke:#aaaaaa; stroke-opacity:100%; stroke-width: 1.5pt; stroke-linejoin:round; stroke-linecap:round;" d="M49.83 71.01c0.36 0.44 0.73 0.8 0.89 1.35c1.25 4.34 2.75 16.81 3.61 24.6"></path>
<path style="fill:none; fill-opacity:0%; fill-rule:evenodd; stroke:#aaaaaa; stroke-opacity:100%; stroke-width: 1.5pt; stroke-linejoin:round; stroke-linecap:round;" d="M51.08 72.22C60 71.5 74 70.25 81.88 69.38c2.09-0.23 3.33 1.66 3.03 3.31c-1.23 6.82-3.02 11.38-4.85 20.8"></path>
<path style="fill:none; fill-opacity:0%; fill-rule:evenodd; stroke:#aaaaaa; stroke-opacity:100%; stroke-width: 1.5pt; stroke-linejoin:round; stroke-linecap:round;" d="M54.01 94.63C62 94 73.5 93.5 82.87 93.38"></path>

<path style="fill:none; fill-opacity:0%; fill-rule:evenodd; stroke:#000000; stroke-opacity:100%; stroke-width: 3pt; stroke-linejoin:round; stroke-linecap:round;" d="M9.99 36.75c2.78 4.14 6.83 15.86 7.59 20"></path>
<path style="fill:none; fill-opacity:0%; fill-rule:evenodd; stroke:#000000; stroke-opacity:100%; stroke-width: 3pt; stroke-linejoin:round; stroke-linecap:round;" d="M40.03 31.25c0.76 0.77 0.11 2.78-0.58 3.97c-0.69 1.19-6.77 8.5-10.22 11.28"></path>
<text x="5" y="20" font-size="20" fill="#999999">3</text><path style="fill:none; fill-opacity:0%; fill-rule:evenodd; stroke:#CC0000; stroke-opacity:100%; stroke-width: 3pt; stroke-linejoin:round; stroke-linecap:round;" d="M25.25 14.75c0.76 0.75 1.02 2.25 1.03 3.5C26.5 69.75 23.5 82.5 11 95.5" marker-end="url(#TriangleRed)" marker-start="url(#ArrowRed)" ></path>








</g><g transform="scale(1.3761467889908 1.3761467889908) translate(327, 0)">
<path style="fill:none; fill-rule:evenodd; stroke:#aaaaaa;  stroke-width:1pt; stroke-linecap:round;" d="m 109 0 L 0 0 L 0 109 L 109 109 L 109 0"></path><path style="fill:none; fill-opacity:0%; fill-rule:evenodd; stroke:#aaaaaa; stroke-opacity:100%; stroke-width: 1.5pt; stroke-linejoin:round; stroke-linecap:round;" d="M9.99 36.75c2.78 4.14 6.83 15.86 7.59 20"></path>
<path style="fill:none; fill-opacity:0%; fill-rule:evenodd; stroke:#aaaaaa; stroke-opacity:100%; stroke-width: 1.5pt; stroke-linejoin:round; stroke-linecap:round;" d="M40.03 31.25c0.76 0.77 0.11 2.78-0.58 3.97c-0.69 1.19-6.77 8.5-10.22 11.28"></path>
<path style="fill:none; fill-opacity:0%; fill-rule:evenodd; stroke:#aaaaaa; stroke-opacity:100%; stroke-width: 1.5pt; stroke-linejoin:round; stroke-linecap:round;" d="M25.25 14.75c0.76 0.75 1.02 2.25 1.03 3.5C26.5 69.75 23.5 82.5 11 95.5"></path>
<path style="fill:none; fill-opacity:0%; fill-rule:evenodd; stroke:#aaaaaa; stroke-opacity:100%; stroke-width: 1.5pt; stroke-linejoin:round; stroke-linecap:round;" d="M27.25 70c4.55 3.36 10.3 13.99 11.5 18.75"></path>
<path style="fill:none; fill-opacity:0%; fill-rule:evenodd; stroke:#aaaaaa; stroke-opacity:100%; stroke-width: 1.5pt; stroke-linejoin:round; stroke-linecap:round;" d="M60.77 12.25c0.06 0.78 0.3 2.06-0.12 3.12C57.42 23.51 50 37.5 40.07 45.82"></path>
<path style="fill:none; fill-opacity:0%; fill-rule:evenodd; stroke:#aaaaaa; stroke-opacity:100%; stroke-width: 1.5pt; stroke-linejoin:round; stroke-linecap:round;" d="M60.76 23.41c0.33 0.04 1.76 0 2.71-0.11c3.14-0.35 11.96-1.59 16.44-2.68c3.08-0.75 4.23 0.99 3.16 2.89C75.5 37 60 58.5 38.94 67.53"></path>
<path style="fill:none; fill-opacity:0%; fill-rule:evenodd; stroke:#aaaaaa; stroke-opacity:100%; stroke-width: 1.5pt; stroke-linejoin:round; stroke-linecap:round;" d="M54.15 29.08c5.15 5.87 28.47 28.15 35.41 33.51c2.07 1.6 3.74 2.37 5.76 2.85"></path>
<path style="fill:none; fill-opacity:0%; fill-rule:evenodd; stroke:#aaaaaa; stroke-opacity:100%; stroke-width: 1.5pt; stroke-linejoin:round; stroke-linecap:round;" d="M49.83 71.01c0.36 0.44 0.73 0.8 0.89 1.35c1.25 4.34 2.75 16.81 3.61 24.6"></path>
<path style="fill:none; fill-opacity:0%; fill-rule:evenodd; stroke:#aaaaaa; stroke-opacity:100%; stroke-width: 1.5pt; stroke-linejoin:round; stroke-linecap:round;" d="M51.08 72.22C60 71.5 74 70.25 81.88 69.38c2.09-0.23 3.33 1.66 3.03 3.31c-1.23 6.82-3.02 11.38-4.85 20.8"></path>
<path style="fill:none; fill-opacity:0%; fill-rule:evenodd; stroke:#aaaaaa; stroke-opacity:100%; stroke-width: 1.5pt; stroke-linejoin:round; stroke-linecap:round;" d="M54.01 94.63C62 94 73.5 93.5 82.87 93.38"></path>

<path style="fill:none; fill-opacity:0%; fill-rule:evenodd; stroke:#000000; stroke-opacity:100%; stroke-width: 3pt; stroke-linejoin:round; stroke-linecap:round;" d="M9.99 36.75c2.78 4.14 6.83 15.86 7.59 20"></path>
<path style="fill:none; fill-opacity:0%; fill-rule:evenodd; stroke:#000000; stroke-opacity:100%; stroke-width: 3pt; stroke-linejoin:round; stroke-linecap:round;" d="M40.03 31.25c0.76 0.77 0.11 2.78-0.58 3.97c-0.69 1.19-6.77 8.5-10.22 11.28"></path>
<path style="fill:none; fill-opacity:0%; fill-rule:evenodd; stroke:#000000; stroke-opacity:100%; stroke-width: 3pt; stroke-linejoin:round; stroke-linecap:round;" d="M25.25 14.75c0.76 0.75 1.02 2.25 1.03 3.5C26.5 69.75 23.5 82.5 11 95.5"></path>
<text x="5" y="20" font-size="20" fill="#999999">4</text><path style="fill:none; fill-opacity:0%; fill-rule:evenodd; stroke:#CC0000; stroke-opacity:100%; stroke-width: 3pt; stroke-linejoin:round; stroke-linecap:round;" d="M27.25 70c4.55 3.36 10.3 13.99 11.5 18.75" marker-end="url(#TriangleRed)" marker-start="url(#ArrowRed)" ></path>







</g><g transform="scale(1.3761467889908 1.3761467889908) translate(436, 0)">
<path style="fill:none; fill-rule:evenodd; stroke:#aaaaaa;  stroke-width:1pt; stroke-linecap:round;" d="m 109 0 L 0 0 L 0 109 L 109 109 L 109 0"></path><path style="fill:none; fill-opacity:0%; fill-rule:evenodd; stroke:#aaaaaa; stroke-opacity:100%; stroke-width: 1.5pt; stroke-linejoin:round; stroke-linecap:round;" d="M9.99 36.75c2.78 4.14 6.83 15.86 7.59 20"></path>
<path style="fill:none; fill-opacity:0%; fill-rule:evenodd; stroke:#aaaaaa; stroke-opacity:100%; stroke-width: 1.5pt; stroke-linejoin:round; stroke-linecap:round;" d="M40.03 31.25c0.76 0.77 0.11 2.78-0.58 3.97c-0.69 1.19-6.77 8.5-10.22 11.28"></path>
<path style="fill:none; fill-opacity:0%; fill-rule:evenodd; stroke:#aaaaaa; stroke-opacity:100%; stroke-width: 1.5pt; stroke-linejoin:round; stroke-linecap:round;" d="M25.25 14.75c0.76 0.75 1.02 2.25 1.03 3.5C26.5 69.75 23.5 82.5 11 95.5"></path>
<path style="fill:none; fill-opacity:0%; fill-rule:evenodd; stroke:#aaaaaa; stroke-opacity:100%; stroke-width: 1.5pt; stroke-linejoin:round; stroke-linecap:round;" d="M27.25 70c4.55 3.36 10.3 13.99 11.5 18.75"></path>
<path style="fill:none; fill-opacity:0%; fill-rule:evenodd; stroke:#aaaaaa; stroke-opacity:100%; stroke-width: 1.5pt; stroke-linejoin:round; stroke-linecap:round;" d="M60.77 12.25c0.06 0.78 0.3 2.06-0.12 3.12C57.42 23.51 50 37.5 40.07 45.82"></path>
<path style="fill:none; fill-opacity:0%; fill-rule:evenodd; stroke:#aaaaaa; stroke-opacity:100%; stroke-width: 1.5pt; stroke-linejoin:round; stroke-linecap:round;" d="M60.76 23.41c0.33 0.04 1.76 0 2.71-0.11c3.14-0.35 11.96-1.59 16.44-2.68c3.08-0.75 4.23 0.99 3.16 2.89C75.5 37 60 58.5 38.94 67.53"></path>
<path style="fill:none; fill-opacity:0%; fill-rule:evenodd; stroke:#aaaaaa; stroke-opacity:100%; stroke-width: 1.5pt; stroke-linejoin:round; stroke-linecap:round;" d="M54.15 29.08c5.15 5.87 28.47 28.15 35.41 33.51c2.07 1.6 3.74 2.37 5.76 2.85"></path>
<path style="fill:none; fill-opacity:0%; fill-rule:evenodd; stroke:#aaaaaa; stroke-opacity:100%; stroke-width: 1.5pt; stroke-linejoin:round; stroke-linecap:round;" d="M49.83 71.01c0.36 0.44 0.73 0.8 0.89 1.35c1.25 4.34 2.75 16.81 3.61 24.6"></path>
<path style="fill:none; fill-opacity:0%; fill-rule:evenodd; stroke:#aaaaaa; stroke-opacity:100%; stroke-width: 1.5pt; stroke-linejoin:round; stroke-linecap:round;" d="M51.08 72.22C60 71.5 74 70.25 81.88 69.38c2.09-0.23 3.33 1.66 3.03 3.31c-1.23 6.82-3.02 11.38-4.85 20.8"></path>
<path style="fill:none; fill-opacity:0%; fill-rule:evenodd; stroke:#aaaaaa; stroke-opacity:100%; stroke-width: 1.5pt; stroke-linejoin:round; stroke-linecap:round;" d="M54.01 94.63C62 94 73.5 93.5 82.87 93.38"></path>

<path style="fill:none; fill-opacity:0%; fill-rule:evenodd; stroke:#000000; stroke-opacity:100%; stroke-width: 3pt; stroke-linejoin:round; stroke-linecap:round;" d="M9.99 36.75c2.78 4.14 6.83 15.86 7.59 20"></path>
<path style="fill:none; fill-opacity:0%; fill-rule:evenodd; stroke:#000000; stroke-opacity:100%; stroke-width: 3pt; stroke-linejoin:round; stroke-linecap:round;" d="M40.03 31.25c0.76 0.77 0.11 2.78-0.58 3.97c-0.69 1.19-6.77 8.5-10.22 11.28"></path>
<path style="fill:none; fill-opacity:0%; fill-rule:evenodd; stroke:#000000; stroke-opacity:100%; stroke-width: 3pt; stroke-linejoin:round; stroke-linecap:round;" d="M25.25 14.75c0.76 0.75 1.02 2.25 1.03 3.5C26.5 69.75 23.5 82.5 11 95.5"></path>
<path style="fill:none; fill-opacity:0%; fill-rule:evenodd; stroke:#000000; stroke-opacity:100%; stroke-width: 3pt; stroke-linejoin:round; stroke-linecap:round;" d="M27.25 70c4.55 3.36 10.3 13.99 11.5 18.75"></path>
<text x="5" y="20" font-size="20" fill="#999999">5</text><path style="fill:none; fill-opacity:0%; fill-rule:evenodd; stroke:#CC0000; stroke-opacity:100%; stroke-width: 3pt; stroke-linejoin:round; stroke-linecap:round;" d="M60.77 12.25c0.06 0.78 0.3 2.06-0.12 3.12C57.42 23.51 50 37.5 40.07 45.82" marker-end="url(#TriangleRed)" marker-start="url(#ArrowRed)" ></path>






</g><g transform="scale(1.3761467889908 1.3761467889908) translate(0, 109)">
<path style="fill:none; fill-rule:evenodd; stroke:#aaaaaa;  stroke-width:1pt; stroke-linecap:round;" d="m 109 0 L 0 0 L 0 109 L 109 109 L 109 0"></path><path style="fill:none; fill-opacity:0%; fill-rule:evenodd; stroke:#aaaaaa; stroke-opacity:100%; stroke-width: 1.5pt; stroke-linejoin:round; stroke-linecap:round;" d="M9.99 36.75c2.78 4.14 6.83 15.86 7.59 20"></path>
<path style="fill:none; fill-opacity:0%; fill-rule:evenodd; stroke:#aaaaaa; stroke-opacity:100%; stroke-width: 1.5pt; stroke-linejoin:round; stroke-linecap:round;" d="M40.03 31.25c0.76 0.77 0.11 2.78-0.58 3.97c-0.69 1.19-6.77 8.5-10.22 11.28"></path>
<path style="fill:none; fill-opacity:0%; fill-rule:evenodd; stroke:#aaaaaa; stroke-opacity:100%; stroke-width: 1.5pt; stroke-linejoin:round; stroke-linecap:round;" d="M25.25 14.75c0.76 0.75 1.02 2.25 1.03 3.5C26.5 69.75 23.5 82.5 11 95.5"></path>
<path style="fill:none; fill-opacity:0%; fill-rule:evenodd; stroke:#aaaaaa; stroke-opacity:100%; stroke-width: 1.5pt; stroke-linejoin:round; stroke-linecap:round;" d="M27.25 70c4.55 3.36 10.3 13.99 11.5 18.75"></path>
<path style="fill:none; fill-opacity:0%; fill-rule:evenodd; stroke:#aaaaaa; stroke-opacity:100%; stroke-width: 1.5pt; stroke-linejoin:round; stroke-linecap:round;" d="M60.77 12.25c0.06 0.78 0.3 2.06-0.12 3.12C57.42 23.51 50 37.5 40.07 45.82"></path>
<path style="fill:none; fill-opacity:0%; fill-rule:evenodd; stroke:#aaaaaa; stroke-opacity:100%; stroke-width: 1.5pt; stroke-linejoin:round; stroke-linecap:round;" d="M60.76 23.41c0.33 0.04 1.76 0 2.71-0.11c3.14-0.35 11.96-1.59 16.44-2.68c3.08-0.75 4.23 0.99 3.16 2.89C75.5 37 60 58.5 38.94 67.53"></path>
<path style="fill:none; fill-opacity:0%; fill-rule:evenodd; stroke:#aaaaaa; stroke-opacity:100%; stroke-width: 1.5pt; stroke-linejoin:round; stroke-linecap:round;" d="M54.15 29.08c5.15 5.87 28.47 28.15 35.41 33.51c2.07 1.6 3.74 2.37 5.76 2.85"></path>
<path style="fill:none; fill-opacity:0%; fill-rule:evenodd; stroke:#aaaaaa; stroke-opacity:100%; stroke-width: 1.5pt; stroke-linejoin:round; stroke-linecap:round;" d="M49.83 71.01c0.36 0.44 0.73 0.8 0.89 1.35c1.25 4.34 2.75 16.81 3.61 24.6"></path>
<path style="fill:none; fill-opacity:0%; fill-rule:evenodd; stroke:#aaaaaa; stroke-opacity:100%; stroke-width: 1.5pt; stroke-linejoin:round; stroke-linecap:round;" d="M51.08 72.22C60 71.5 74 70.25 81.88 69.38c2.09-0.23 3.33 1.66 3.03 3.31c-1.23 6.82-3.02 11.38-4.85 20.8"></path>
<path style="fill:none; fill-opacity:0%; fill-rule:evenodd; stroke:#aaaaaa; stroke-opacity:100%; stroke-width: 1.5pt; stroke-linejoin:round; stroke-linecap:round;" d="M54.01 94.63C62 94 73.5 93.5 82.87 93.38"></path>

<path style="fill:none; fill-opacity:0%; fill-rule:evenodd; stroke:#000000; stroke-opacity:100%; stroke-width: 3pt; stroke-linejoin:round; stroke-linecap:round;" d="M9.99 36.75c2.78 4.14 6.83 15.86 7.59 20"></path>
<path style="fill:none; fill-opacity:0%; fill-rule:evenodd; stroke:#000000; stroke-opacity:100%; stroke-width: 3pt; stroke-linejoin:round; stroke-linecap:round;" d="M40.03 31.25c0.76 0.77 0.11 2.78-0.58 3.97c-0.69 1.19-6.77 8.5-10.22 11.28"></path>
<path style="fill:none; fill-opacity:0%; fill-rule:evenodd; stroke:#000000; stroke-opacity:100%; stroke-width: 3pt; stroke-linejoin:round; stroke-linecap:round;" d="M25.25 14.75c0.76 0.75 1.02 2.25 1.03 3.5C26.5 69.75 23.5 82.5 11 95.5"></path>
<path style="fill:none; fill-opacity:0%; fill-rule:evenodd; stroke:#000000; stroke-opacity:100%; stroke-width: 3pt; stroke-linejoin:round; stroke-linecap:round;" d="M27.25 70c4.55 3.36 10.3 13.99 11.5 18.75"></path>
<path style="fill:none; fill-opacity:0%; fill-rule:evenodd; stroke:#000000; stroke-opacity:100%; stroke-width: 3pt; stroke-linejoin:round; stroke-linecap:round;" d="M60.77 12.25c0.06 0.78 0.3 2.06-0.12 3.12C57.42 23.51 50 37.5 40.07 45.82"></path>
<text x="5" y="20" font-size="20" fill="#999999">6</text><path style="fill:none; fill-opacity:0%; fill-rule:evenodd; stroke:#CC0000; stroke-opacity:100%; stroke-width: 3pt; stroke-linejoin:round; stroke-linecap:round;" d="M60.76 23.41c0.33 0.04 1.76 0 2.71-0.11c3.14-0.35 11.96-1.59 16.44-2.68c3.08-0.75 4.23 0.99 3.16 2.89C75.5 37 60 58.5 38.94 67.53" marker-end="url(#TriangleRed)" marker-start="url(#ArrowRed)" ></path>





</g><g transform="scale(1.3761467889908 1.3761467889908) translate(109, 109)">
<path style="fill:none; fill-rule:evenodd; stroke:#aaaaaa;  stroke-width:1pt; stroke-linecap:round;" d="m 109 0 L 0 0 L 0 109 L 109 109 L 109 0"></path><path style="fill:none; fill-opacity:0%; fill-rule:evenodd; stroke:#aaaaaa; stroke-opacity:100%; stroke-width: 1.5pt; stroke-linejoin:round; stroke-linecap:round;" d="M9.99 36.75c2.78 4.14 6.83 15.86 7.59 20"></path>
<path style="fill:none; fill-opacity:0%; fill-rule:evenodd; stroke:#aaaaaa; stroke-opacity:100%; stroke-width: 1.5pt; stroke-linejoin:round; stroke-linecap:round;" d="M40.03 31.25c0.76 0.77 0.11 2.78-0.58 3.97c-0.69 1.19-6.77 8.5-10.22 11.28"></path>
<path style="fill:none; fill-opacity:0%; fill-rule:evenodd; stroke:#aaaaaa; stroke-opacity:100%; stroke-width: 1.5pt; stroke-linejoin:round; stroke-linecap:round;" d="M25.25 14.75c0.76 0.75 1.02 2.25 1.03 3.5C26.5 69.75 23.5 82.5 11 95.5"></path>
<path style="fill:none; fill-opacity:0%; fill-rule:evenodd; stroke:#aaaaaa; stroke-opacity:100%; stroke-width: 1.5pt; stroke-linejoin:round; stroke-linecap:round;" d="M27.25 70c4.55 3.36 10.3 13.99 11.5 18.75"></path>
<path style="fill:none; fill-opacity:0%; fill-rule:evenodd; stroke:#aaaaaa; stroke-opacity:100%; stroke-width: 1.5pt; stroke-linejoin:round; stroke-linecap:round;" d="M60.77 12.25c0.06 0.78 0.3 2.06-0.12 3.12C57.42 23.51 50 37.5 40.07 45.82"></path>
<path style="fill:none; fill-opacity:0%; fill-rule:evenodd; stroke:#aaaaaa; stroke-opacity:100%; stroke-width: 1.5pt; stroke-linejoin:round; stroke-linecap:round;" d="M60.76 23.41c0.33 0.04 1.76 0 2.71-0.11c3.14-0.35 11.96-1.59 16.44-2.68c3.08-0.75 4.23 0.99 3.16 2.89C75.5 37 60 58.5 38.94 67.53"></path>
<path style="fill:none; fill-opacity:0%; fill-rule:evenodd; stroke:#aaaaaa; stroke-opacity:100%; stroke-width: 1.5pt; stroke-linejoin:round; stroke-linecap:round;" d="M54.15 29.08c5.15 5.87 28.47 28.15 35.41 33.51c2.07 1.6 3.74 2.37 5.76 2.85"></path>
<path style="fill:none; fill-opacity:0%; fill-rule:evenodd; stroke:#aaaaaa; stroke-opacity:100%; stroke-width: 1.5pt; stroke-linejoin:round; stroke-linecap:round;" d="M49.83 71.01c0.36 0.44 0.73 0.8 0.89 1.35c1.25 4.34 2.75 16.81 3.61 24.6"></path>
<path style="fill:none; fill-opacity:0%; fill-rule:evenodd; stroke:#aaaaaa; stroke-opacity:100%; stroke-width: 1.5pt; stroke-linejoin:round; stroke-linecap:round;" d="M51.08 72.22C60 71.5 74 70.25 81.88 69.38c2.09-0.23 3.33 1.66 3.03 3.31c-1.23 6.82-3.02 11.38-4.85 20.8"></path>
<path style="fill:none; fill-opacity:0%; fill-rule:evenodd; stroke:#aaaaaa; stroke-opacity:100%; stroke-width: 1.5pt; stroke-linejoin:round; stroke-linecap:round;" d="M54.01 94.63C62 94 73.5 93.5 82.87 93.38"></path>

<path style="fill:none; fill-opacity:0%; fill-rule:evenodd; stroke:#000000; stroke-opacity:100%; stroke-width: 3pt; stroke-linejoin:round; stroke-linecap:round;" d="M9.99 36.75c2.78 4.14 6.83 15.86 7.59 20"></path>
<path style="fill:none; fill-opacity:0%; fill-rule:evenodd; stroke:#000000; stroke-opacity:100%; stroke-width: 3pt; stroke-linejoin:round; stroke-linecap:round;" d="M40.03 31.25c0.76 0.77 0.11 2.78-0.58 3.97c-0.69 1.19-6.77 8.5-10.22 11.28"></path>
<path style="fill:none; fill-opacity:0%; fill-rule:evenodd; stroke:#000000; stroke-opacity:100%; stroke-width: 3pt; stroke-linejoin:round; stroke-linecap:round;" d="M25.25 14.75c0.76 0.75 1.02 2.25 1.03 3.5C26.5 69.75 23.5 82.5 11 95.5"></path>
<path style="fill:none; fill-opacity:0%; fill-rule:evenodd; stroke:#000000; stroke-opacity:100%; stroke-width: 3pt; stroke-linejoin:round; stroke-linecap:round;" d="M27.25 70c4.55 3.36 10.3 13.99 11.5 18.75"></path>
<path style="fill:none; fill-opacity:0%; fill-rule:evenodd; stroke:#000000; stroke-opacity:100%; stroke-width: 3pt; stroke-linejoin:round; stroke-linecap:round;" d="M60.77 12.25c0.06 0.78 0.3 2.06-0.12 3.12C57.42 23.51 50 37.5 40.07 45.82"></path>
<path style="fill:none; fill-opacity:0%; fill-rule:evenodd; stroke:#000000; stroke-opacity:100%; stroke-width: 3pt; stroke-linejoin:round; stroke-linecap:round;" d="M60.76 23.41c0.33 0.04 1.76 0 2.71-0.11c3.14-0.35 11.96-1.59 16.44-2.68c3.08-0.75 4.23 0.99 3.16 2.89C75.5 37 60 58.5 38.94 67.53"></path>
<text x="5" y="20" font-size="20" fill="#999999">7</text><path style="fill:none; fill-opacity:0%; fill-rule:evenodd; stroke:#CC0000; stroke-opacity:100%; stroke-width: 3pt; stroke-linejoin:round; stroke-linecap:round;" d="M54.15 29.08c5.15 5.87 28.47 28.15 35.41 33.51c2.07 1.6 3.74 2.37 5.76 2.85" marker-end="url(#TriangleRed)" marker-start="url(#ArrowRed)" ></path>




</g><g transform="scale(1.3761467889908 1.3761467889908) translate(218, 109)">
<path style="fill:none; fill-rule:evenodd; stroke:#aaaaaa;  stroke-width:1pt; stroke-linecap:round;" d="m 109 0 L 0 0 L 0 109 L 109 109 L 109 0"></path><path style="fill:none; fill-opacity:0%; fill-rule:evenodd; stroke:#aaaaaa; stroke-opacity:100%; stroke-width: 1.5pt; stroke-linejoin:round; stroke-linecap:round;" d="M9.99 36.75c2.78 4.14 6.83 15.86 7.59 20"></path>
<path style="fill:none; fill-opacity:0%; fill-rule:evenodd; stroke:#aaaaaa; stroke-opacity:100%; stroke-width: 1.5pt; stroke-linejoin:round; stroke-linecap:round;" d="M40.03 31.25c0.76 0.77 0.11 2.78-0.58 3.97c-0.69 1.19-6.77 8.5-10.22 11.28"></path>
<path style="fill:none; fill-opacity:0%; fill-rule:evenodd; stroke:#aaaaaa; stroke-opacity:100%; stroke-width: 1.5pt; stroke-linejoin:round; stroke-linecap:round;" d="M25.25 14.75c0.76 0.75 1.02 2.25 1.03 3.5C26.5 69.75 23.5 82.5 11 95.5"></path>
<path style="fill:none; fill-opacity:0%; fill-rule:evenodd; stroke:#aaaaaa; stroke-opacity:100%; stroke-width: 1.5pt; stroke-linejoin:round; stroke-linecap:round;" d="M27.25 70c4.55 3.36 10.3 13.99 11.5 18.75"></path>
<path style="fill:none; fill-opacity:0%; fill-rule:evenodd; stroke:#aaaaaa; stroke-opacity:100%; stroke-width: 1.5pt; stroke-linejoin:round; stroke-linecap:round;" d="M60.77 12.25c0.06 0.78 0.3 2.06-0.12 3.12C57.42 23.51 50 37.5 40.07 45.82"></path>
<path style="fill:none; fill-opacity:0%; fill-rule:evenodd; stroke:#aaaaaa; stroke-opacity:100%; stroke-width: 1.5pt; stroke-linejoin:round; stroke-linecap:round;" d="M60.76 23.41c0.33 0.04 1.76 0 2.71-0.11c3.14-0.35 11.96-1.59 16.44-2.68c3.08-0.75 4.23 0.99 3.16 2.89C75.5 37 60 58.5 38.94 67.53"></path>
<path style="fill:none; fill-opacity:0%; fill-rule:evenodd; stroke:#aaaaaa; stroke-opacity:100%; stroke-width: 1.5pt; stroke-linejoin:round; stroke-linecap:round;" d="M54.15 29.08c5.15 5.87 28.47 28.15 35.41 33.51c2.07 1.6 3.74 2.37 5.76 2.85"></path>
<path style="fill:none; fill-opacity:0%; fill-rule:evenodd; stroke:#aaaaaa; stroke-opacity:100%; stroke-width: 1.5pt; stroke-linejoin:round; stroke-linecap:round;" d="M49.83 71.01c0.36 0.44 0.73 0.8 0.89 1.35c1.25 4.34 2.75 16.81 3.61 24.6"></path>
<path style="fill:none; fill-opacity:0%; fill-rule:evenodd; stroke:#aaaaaa; stroke-opacity:100%; stroke-width: 1.5pt; stroke-linejoin:round; stroke-linecap:round;" d="M51.08 72.22C60 71.5 74 70.25 81.88 69.38c2.09-0.23 3.33 1.66 3.03 3.31c-1.23 6.82-3.02 11.38-4.85 20.8"></path>
<path style="fill:none; fill-opacity:0%; fill-rule:evenodd; stroke:#aaaaaa; stroke-opacity:100%; stroke-width: 1.5pt; stroke-linejoin:round; stroke-linecap:round;" d="M54.01 94.63C62 94 73.5 93.5 82.87 93.38"></path>

<path style="fill:none; fill-opacity:0%; fill-rule:evenodd; stroke:#000000; stroke-opacity:100%; stroke-width: 3pt; stroke-linejoin:round; stroke-linecap:round;" d="M9.99 36.75c2.78 4.14 6.83 15.86 7.59 20"></path>
<path style="fill:none; fill-opacity:0%; fill-rule:evenodd; stroke:#000000; stroke-opacity:100%; stroke-width: 3pt; stroke-linejoin:round; stroke-linecap:round;" d="M40.03 31.25c0.76 0.77 0.11 2.78-0.58 3.97c-0.69 1.19-6.77 8.5-10.22 11.28"></path>
<path style="fill:none; fill-opacity:0%; fill-rule:evenodd; stroke:#000000; stroke-opacity:100%; stroke-width: 3pt; stroke-linejoin:round; stroke-linecap:round;" d="M25.25 14.75c0.76 0.75 1.02 2.25 1.03 3.5C26.5 69.75 23.5 82.5 11 95.5"></path>
<path style="fill:none; fill-opacity:0%; fill-rule:evenodd; stroke:#000000; stroke-opacity:100%; stroke-width: 3pt; stroke-linejoin:round; stroke-linecap:round;" d="M27.25 70c4.55 3.36 10.3 13.99 11.5 18.75"></path>
<path style="fill:none; fill-opacity:0%; fill-rule:evenodd; stroke:#000000; stroke-opacity:100%; stroke-width: 3pt; stroke-linejoin:round; stroke-linecap:round;" d="M60.77 12.25c0.06 0.78 0.3 2.06-0.12 3.12C57.42 23.51 50 37.5 40.07 45.82"></path>
<path style="fill:none; fill-opacity:0%; fill-rule:evenodd; stroke:#000000; stroke-opacity:100%; stroke-width: 3pt; stroke-linejoin:round; stroke-linecap:round;" d="M60.76 23.41c0.33 0.04 1.76 0 2.71-0.11c3.14-0.35 11.96-1.59 16.44-2.68c3.08-0.75 4.23 0.99 3.16 2.89C75.5 37 60 58.5 38.94 67.53"></path>
<path style="fill:none; fill-opacity:0%; fill-rule:evenodd; stroke:#000000; stroke-opacity:100%; stroke-width: 3pt; stroke-linejoin:round; stroke-linecap:round;" d="M54.15 29.08c5.15 5.87 28.47 28.15 35.41 33.51c2.07 1.6 3.74 2.37 5.76 2.85"></path>
<text x="5" y="20" font-size="20" fill="#999999">8</text><path style="fill:none; fill-opacity:0%; fill-rule:evenodd; stroke:#CC0000; stroke-opacity:100%; stroke-width: 3pt; stroke-linejoin:round; stroke-linecap:round;" d="M49.83 71.01c0.36 0.44 0.73 0.8 0.89 1.35c1.25 4.34 2.75 16.81 3.61 24.6" marker-end="url(#TriangleRed)" marker-start="url(#ArrowRed)" ></path>



</g><g transform="scale(1.3761467889908 1.3761467889908) translate(327, 109)">
<path style="fill:none; fill-rule:evenodd; stroke:#aaaaaa;  stroke-width:1pt; stroke-linecap:round;" d="m 109 0 L 0 0 L 0 109 L 109 109 L 109 0"></path><path style="fill:none; fill-opacity:0%; fill-rule:evenodd; stroke:#aaaaaa; stroke-opacity:100%; stroke-width: 1.5pt; stroke-linejoin:round; stroke-linecap:round;" d="M9.99 36.75c2.78 4.14 6.83 15.86 7.59 20"></path>
<path style="fill:none; fill-opacity:0%; fill-rule:evenodd; stroke:#aaaaaa; stroke-opacity:100%; stroke-width: 1.5pt; stroke-linejoin:round; stroke-linecap:round;" d="M40.03 31.25c0.76 0.77 0.11 2.78-0.58 3.97c-0.69 1.19-6.77 8.5-10.22 11.28"></path>
<path style="fill:none; fill-opacity:0%; fill-rule:evenodd; stroke:#aaaaaa; stroke-opacity:100%; stroke-width: 1.5pt; stroke-linejoin:round; stroke-linecap:round;" d="M25.25 14.75c0.76 0.75 1.02 2.25 1.03 3.5C26.5 69.75 23.5 82.5 11 95.5"></path>
<path style="fill:none; fill-opacity:0%; fill-rule:evenodd; stroke:#aaaaaa; stroke-opacity:100%; stroke-width: 1.5pt; stroke-linejoin:round; stroke-linecap:round;" d="M27.25 70c4.55 3.36 10.3 13.99 11.5 18.75"></path>
<path style="fill:none; fill-opacity:0%; fill-rule:evenodd; stroke:#aaaaaa; stroke-opacity:100%; stroke-width: 1.5pt; stroke-linejoin:round; stroke-linecap:round;" d="M60.77 12.25c0.06 0.78 0.3 2.06-0.12 3.12C57.42 23.51 50 37.5 40.07 45.82"></path>
<path style="fill:none; fill-opacity:0%; fill-rule:evenodd; stroke:#aaaaaa; stroke-opacity:100%; stroke-width: 1.5pt; stroke-linejoin:round; stroke-linecap:round;" d="M60.76 23.41c0.33 0.04 1.76 0 2.71-0.11c3.14-0.35 11.96-1.59 16.44-2.68c3.08-0.75 4.23 0.99 3.16 2.89C75.5 37 60 58.5 38.94 67.53"></path>
<path style="fill:none; fill-opacity:0%; fill-rule:evenodd; stroke:#aaaaaa; stroke-opacity:100%; stroke-width: 1.5pt; stroke-linejoin:round; stroke-linecap:round;" d="M54.15 29.08c5.15 5.87 28.47 28.15 35.41 33.51c2.07 1.6 3.74 2.37 5.76 2.85"></path>
<path style="fill:none; fill-opacity:0%; fill-rule:evenodd; stroke:#aaaaaa; stroke-opacity:100%; stroke-width: 1.5pt; stroke-linejoin:round; stroke-linecap:round;" d="M49.83 71.01c0.36 0.44 0.73 0.8 0.89 1.35c1.25 4.34 2.75 16.81 3.61 24.6"></path>
<path style="fill:none; fill-opacity:0%; fill-rule:evenodd; stroke:#aaaaaa; stroke-opacity:100%; stroke-width: 1.5pt; stroke-linejoin:round; stroke-linecap:round;" d="M51.08 72.22C60 71.5 74 70.25 81.88 69.38c2.09-0.23 3.33 1.66 3.03 3.31c-1.23 6.82-3.02 11.38-4.85 20.8"></path>
<path style="fill:none; fill-opacity:0%; fill-rule:evenodd; stroke:#aaaaaa; stroke-opacity:100%; stroke-width: 1.5pt; stroke-linejoin:round; stroke-linecap:round;" d="M54.01 94.63C62 94 73.5 93.5 82.87 93.38"></path>

<path style="fill:none; fill-opacity:0%; fill-rule:evenodd; stroke:#000000; stroke-opacity:100%; stroke-width: 3pt; stroke-linejoin:round; stroke-linecap:round;" d="M9.99 36.75c2.78 4.14 6.83 15.86 7.59 20"></path>
<path style="fill:none; fill-opacity:0%; fill-rule:evenodd; stroke:#000000; stroke-opacity:100%; stroke-width: 3pt; stroke-linejoin:round; stroke-linecap:round;" d="M40.03 31.25c0.76 0.77 0.11 2.78-0.58 3.97c-0.69 1.19-6.77 8.5-10.22 11.28"></path>
<path style="fill:none; fill-opacity:0%; fill-rule:evenodd; stroke:#000000; stroke-opacity:100%; stroke-width: 3pt; stroke-linejoin:round; stroke-linecap:round;" d="M25.25 14.75c0.76 0.75 1.02 2.25 1.03 3.5C26.5 69.75 23.5 82.5 11 95.5"></path>
<path style="fill:none; fill-opacity:0%; fill-rule:evenodd; stroke:#000000; stroke-opacity:100%; stroke-width: 3pt; stroke-linejoin:round; stroke-linecap:round;" d="M27.25 70c4.55 3.36 10.3 13.99 11.5 18.75"></path>
<path style="fill:none; fill-opacity:0%; fill-rule:evenodd; stroke:#000000; stroke-opacity:100%; stroke-width: 3pt; stroke-linejoin:round; stroke-linecap:round;" d="M60.77 12.25c0.06 0.78 0.3 2.06-0.12 3.12C57.42 23.51 50 37.5 40.07 45.82"></path>
<path style="fill:none; fill-opacity:0%; fill-rule:evenodd; stroke:#000000; stroke-opacity:100%; stroke-width: 3pt; stroke-linejoin:round; stroke-linecap:round;" d="M60.76 23.41c0.33 0.04 1.76 0 2.71-0.11c3.14-0.35 11.96-1.59 16.44-2.68c3.08-0.75 4.23 0.99 3.16 2.89C75.5 37 60 58.5 38.94 67.53"></path>
<path style="fill:none; fill-opacity:0%; fill-rule:evenodd; stroke:#000000; stroke-opacity:100%; stroke-width: 3pt; stroke-linejoin:round; stroke-linecap:round;" d="M54.15 29.08c5.15 5.87 28.47 28.15 35.41 33.51c2.07 1.6 3.74 2.37 5.76 2.85"></path>
<path style="fill:none; fill-opacity:0%; fill-rule:evenodd; stroke:#000000; stroke-opacity:100%; stroke-width: 3pt; stroke-linejoin:round; stroke-linecap:round;" d="M49.83 71.01c0.36 0.44 0.73 0.8 0.89 1.35c1.25 4.34 2.75 16.81 3.61 24.6"></path>
<text x="5" y="20" font-size="20" fill="#999999">9</text><path style="fill:none; fill-opacity:0%; fill-rule:evenodd; stroke:#CC0000; stroke-opacity:100%; stroke-width: 3pt; stroke-linejoin:round; stroke-linecap:round;" d="M51.08 72.22C60 71.5 74 70.25 81.88 69.38c2.09-0.23 3.33 1.66 3.03 3.31c-1.23 6.82-3.02 11.38-4.85 20.8" marker-end="url(#TriangleRed)" marker-start="url(#ArrowRed)" ></path>


</g><g transform="scale(1.3761467889908 1.3761467889908) translate(436, 109)">
<path style="fill:none; fill-rule:evenodd; stroke:#aaaaaa;  stroke-width:1pt; stroke-linecap:round;" d="m 109 0 L 0 0 L 0 109 L 109 109 L 109 0"></path><path style="fill:none; fill-opacity:0%; fill-rule:evenodd; stroke:#aaaaaa; stroke-opacity:100%; stroke-width: 1.5pt; stroke-linejoin:round; stroke-linecap:round;" d="M9.99 36.75c2.78 4.14 6.83 15.86 7.59 20"></path>
<path style="fill:none; fill-opacity:0%; fill-rule:evenodd; stroke:#aaaaaa; stroke-opacity:100%; stroke-width: 1.5pt; stroke-linejoin:round; stroke-linecap:round;" d="M40.03 31.25c0.76 0.77 0.11 2.78-0.58 3.97c-0.69 1.19-6.77 8.5-10.22 11.28"></path>
<path style="fill:none; fill-opacity:0%; fill-rule:evenodd; stroke:#aaaaaa; stroke-opacity:100%; stroke-width: 1.5pt; stroke-linejoin:round; stroke-linecap:round;" d="M25.25 14.75c0.76 0.75 1.02 2.25 1.03 3.5C26.5 69.75 23.5 82.5 11 95.5"></path>
<path style="fill:none; fill-opacity:0%; fill-rule:evenodd; stroke:#aaaaaa; stroke-opacity:100%; stroke-width: 1.5pt; stroke-linejoin:round; stroke-linecap:round;" d="M27.25 70c4.55 3.36 10.3 13.99 11.5 18.75"></path>
<path style="fill:none; fill-opacity:0%; fill-rule:evenodd; stroke:#aaaaaa; stroke-opacity:100%; stroke-width: 1.5pt; stroke-linejoin:round; stroke-linecap:round;" d="M60.77 12.25c0.06 0.78 0.3 2.06-0.12 3.12C57.42 23.51 50 37.5 40.07 45.82"></path>
<path style="fill:none; fill-opacity:0%; fill-rule:evenodd; stroke:#aaaaaa; stroke-opacity:100%; stroke-width: 1.5pt; stroke-linejoin:round; stroke-linecap:round;" d="M60.76 23.41c0.33 0.04 1.76 0 2.71-0.11c3.14-0.35 11.96-1.59 16.44-2.68c3.08-0.75 4.23 0.99 3.16 2.89C75.5 37 60 58.5 38.94 67.53"></path>
<path style="fill:none; fill-opacity:0%; fill-rule:evenodd; stroke:#aaaaaa; stroke-opacity:100%; stroke-width: 1.5pt; stroke-linejoin:round; stroke-linecap:round;" d="M54.15 29.08c5.15 5.87 28.47 28.15 35.41 33.51c2.07 1.6 3.74 2.37 5.76 2.85"></path>
<path style="fill:none; fill-opacity:0%; fill-rule:evenodd; stroke:#aaaaaa; stroke-opacity:100%; stroke-width: 1.5pt; stroke-linejoin:round; stroke-linecap:round;" d="M49.83 71.01c0.36 0.44 0.73 0.8 0.89 1.35c1.25 4.34 2.75 16.81 3.61 24.6"></path>
<path style="fill:none; fill-opacity:0%; fill-rule:evenodd; stroke:#aaaaaa; stroke-opacity:100%; stroke-width: 1.5pt; stroke-linejoin:round; stroke-linecap:round;" d="M51.08 72.22C60 71.5 74 70.25 81.88 69.38c2.09-0.23 3.33 1.66 3.03 3.31c-1.23 6.82-3.02 11.38-4.85 20.8"></path>
<path style="fill:none; fill-opacity:0%; fill-rule:evenodd; stroke:#aaaaaa; stroke-opacity:100%; stroke-width: 1.5pt; stroke-linejoin:round; stroke-linecap:round;" d="M54.01 94.63C62 94 73.5 93.5 82.87 93.38"></path>

<path style="fill:none; fill-opacity:0%; fill-rule:evenodd; stroke:#000000; stroke-opacity:100%; stroke-width: 3pt; stroke-linejoin:round; stroke-linecap:round;" d="M9.99 36.75c2.78 4.14 6.83 15.86 7.59 20"></path>
<path style="fill:none; fill-opacity:0%; fill-rule:evenodd; stroke:#000000; stroke-opacity:100%; stroke-width: 3pt; stroke-linejoin:round; stroke-linecap:round;" d="M40.03 31.25c0.76 0.77 0.11 2.78-0.58 3.97c-0.69 1.19-6.77 8.5-10.22 11.28"></path>
<path style="fill:none; fill-opacity:0%; fill-rule:evenodd; stroke:#000000; stroke-opacity:100%; stroke-width: 3pt; stroke-linejoin:round; stroke-linecap:round;" d="M25.25 14.75c0.76 0.75 1.02 2.25 1.03 3.5C26.5 69.75 23.5 82.5 11 95.5"></path>
<path style="fill:none; fill-opacity:0%; fill-rule:evenodd; stroke:#000000; stroke-opacity:100%; stroke-width: 3pt; stroke-linejoin:round; stroke-linecap:round;" d="M27.25 70c4.55 3.36 10.3 13.99 11.5 18.75"></path>
<path style="fill:none; fill-opacity:0%; fill-rule:evenodd; stroke:#000000; stroke-opacity:100%; stroke-width: 3pt; stroke-linejoin:round; stroke-linecap:round;" d="M60.77 12.25c0.06 0.78 0.3 2.06-0.12 3.12C57.42 23.51 50 37.5 40.07 45.82"></path>
<path style="fill:none; fill-opacity:0%; fill-rule:evenodd; stroke:#000000; stroke-opacity:100%; stroke-width: 3pt; stroke-linejoin:round; stroke-linecap:round;" d="M60.76 23.41c0.33 0.04 1.76 0 2.71-0.11c3.14-0.35 11.96-1.59 16.44-2.68c3.08-0.75 4.23 0.99 3.16 2.89C75.5 37 60 58.5 38.94 67.53"></path>
<path style="fill:none; fill-opacity:0%; fill-rule:evenodd; stroke:#000000; stroke-opacity:100%; stroke-width: 3pt; stroke-linejoin:round; stroke-linecap:round;" d="M54.15 29.08c5.15 5.87 28.47 28.15 35.41 33.51c2.07 1.6 3.74 2.37 5.76 2.85"></path>
<path style="fill:none; fill-opacity:0%; fill-rule:evenodd; stroke:#000000; stroke-opacity:100%; stroke-width: 3pt; stroke-linejoin:round; stroke-linecap:round;" d="M49.83 71.01c0.36 0.44 0.73 0.8 0.89 1.35c1.25 4.34 2.75 16.81 3.61 24.6"></path>
<path style="fill:none; fill-opacity:0%; fill-rule:evenodd; stroke:#000000; stroke-opacity:100%; stroke-width: 3pt; stroke-linejoin:round; stroke-linecap:round;" d="M51.08 72.22C60 71.5 74 70.25 81.88 69.38c2.09-0.23 3.33 1.66 3.03 3.31c-1.23 6.82-3.02 11.38-4.85 20.8"></path>
<text x="5" y="20" font-size="20" fill="#999999">10</text><path style="fill:none; fill-opacity:0%; fill-rule:evenodd; stroke:#CC0000; stroke-opacity:100%; stroke-width: 3pt; stroke-linejoin:round; stroke-linecap:round;" d="M54.01 94.63C62 94 73.5 93.5 82.87 93.38" marker-end="url(#TriangleRed)" marker-start="url(#ArrowRed)" ></path>

</g>

</svg>  
          
