<?xml version="1.0" standalone="no"?>
<!DOCTYPE svg PUBLIC "-//W3C//DTD SVG 1.1//EN"   "http://www.w3.org/Graphics/SVG/1.1/DTD/svg11.dtd">
<svg width="751" height="301"  version="1.1" xmlns="http://www.w3.org/2000/svg">
  <defs>
    <marker id="Triangle" viewBox="0 0 10 10" refX="0" refY="5" markerUnits="strokeWidth" markerWidth="3" style="stroke-opacity:0%;fill:#aaaaaa;" markerHeight="2" orient="auto">
      <path d="M 0 0 L 10 5 L 0 10 z" />
    </marker>
    
    <marker id="Arrow" viewBox="0 0 10 10" refX="5" refY="5" markerUnits="strokeWidth" markerWidth="1.8" style="stroke-opacity:0%;fill:#770000;" markerHeight="2" orient="auto">
      <path d="M 0 4 L 6 4 L 4 1 L 10 5 L 4 9 L 6 6 L 0 6 z" />
        <circle cx="5" cy="5" r="5" />
      </marker>
    
    <marker id="TriangleRed" viewBox="0 0 10 10" refX="0" refY="5" markerUnits="strokeWidth" markerWidth="3" style="stroke-opacity:0%;fill:#CC0000;" markerHeight="2" orient="auto">
      <path d="M 0 0 L 10 5 L 0 10 z" />
    </marker>
    
    <marker id="ArrowRed" viewBox="0 0 10 10" refX="5" refY="5" markerUnits="strokeWidth" markerWidth="1.8" style="stroke-opacity:0%;fill:#CC0000;" markerHeight="2" orient="auto">
      <path d="M 0 4 L 6 4 L 4 1 L 10 5 L 4 9 L 6 6 L 0 6 z" />
        <circle cx="5" cy="5" r="5" />
      </marker>
    
  </defs>
  
  <path style="fill:#ffffff; fill-opacity:100%; fill-rule:evenodd; stroke-width:0;" d="M 0 0 L 751 0 L 751 301 L 0 301 L 0 0" />

  <g transform="scale(1.3761467889908 1.3761467889908) translate(0, 0)">
<path style="fill:none; fill-rule:evenodd; stroke:#aaaaaa;  stroke-width:1pt; stroke-linecap:round;" d="m 109 0 L 0 0 L 0 109 L 109 109 L 109 0"></path><path style="fill:none; fill-opacity:0%; fill-rule:evenodd; stroke:#aaaaaa; stroke-opacity:100%; stroke-width: 1.5pt; stroke-linejoin:round; stroke-linecap:round;" d="M12.55 18.25c1.12 0.57 3.17 0.7 4.28 0.57c8.91-1.05 20.32-2.14 27.29-2.39c1.86-0.07 2.98 0.27 3.91 0.56"></path>
<path style="fill:none; fill-opacity:0%; fill-rule:evenodd; stroke:#aaaaaa; stroke-opacity:100%; stroke-width: 1.5pt; stroke-linejoin:round; stroke-linecap:round;" d="M24.42 21.25c0.76 0.5 1.45 2.75 1.36 3.75C25 33.75 16.5 77.75 14.5 85.98c-0.42 1.74 1.06 2.02 2.52 1.17c5.54-3.23 11.84-6.33 17.49-9.15"></path>
<path style="fill:none; fill-opacity:0%; fill-rule:evenodd; stroke:#aaaaaa; stroke-opacity:100%; stroke-width: 1.5pt; stroke-linejoin:round; stroke-linecap:round;" d="M24.24 39.54c0.87 0.21 1.79 0.69 2.64 0.5c2.39-0.54 10.91-2.15 13.27-2.79c1.85-0.5 3.35 1.5 3.16 3.03c-0.57 4.49-2.1 17.23-2.74 30.01C39.5 91.75 41 94.32 68.73 94.32c23.52 0 26.75-1.07 26.75-14.04"></path>
<path style="fill:none; fill-opacity:0%; fill-rule:evenodd; stroke:#aaaaaa; stroke-opacity:100%; stroke-width: 1.5pt; stroke-linejoin:round; stroke-linecap:round;" d="M27.1 54.83c2.36 1.92 6.1 7.9 6.69 10.88"></path>
<path style="fill:none; fill-opacity:0%; fill-rule:evenodd; stroke:#aaaaaa; stroke-opacity:100%; stroke-width: 1.5pt; stroke-linejoin:round; stroke-linecap:round;" d="M65 16.74c0.28 0.8-0.06 1.69-0.39 2.68c-2.71 8.15-8.39 17.12-16.05 23.88"></path>
<path style="fill:none; fill-opacity:0%; fill-rule:evenodd; stroke:#aaaaaa; stroke-opacity:100%; stroke-width: 1.5pt; stroke-linejoin:round; stroke-linecap:round;" d="M74.34 14.25C77.5 15 88.59 34.53 93.96 38.94c2.08 1.71 2.82 2.62 4.83 3.17"></path>
<path style="fill:none; fill-opacity:0%; fill-rule:evenodd; stroke:#aaaaaa; stroke-opacity:100%; stroke-width: 1.5pt; stroke-linejoin:round; stroke-linecap:round;" d="M56.57 45.62c1.93 0.38 3.8 0.4 4.69 0.24c7.25-1.26 16.66-3.88 20.68-4.34c2.62-0.3 3.77 0.91 3.63 3.02C85 53.25 82 70.5 77.82 78.78c-2.93 5.8-6.36 0.74-7.53-0.89"></path>
<path style="fill:none; fill-opacity:0%; fill-rule:evenodd; stroke:#aaaaaa; stroke-opacity:100%; stroke-width: 1.5pt; stroke-linejoin:round; stroke-linecap:round;" d="M68.71 47.66c0.06 0.71 0.25 1.9-0.12 2.86c-3.84 10.23-8.09 18.73-19.04 29.13"></path>

<text x="5" y="20" font-size="20" fill="#999999">1</text><path style="fill:none; fill-opacity:0%; fill-rule:evenodd; stroke:#CC0000; stroke-opacity:100%; stroke-width: 3pt; stroke-linejoin:round; stroke-linecap:round;" d="M12.55 18.25c1.12 0.57 3.17 0.7 4.28 0.57c8.91-1.05 20.32-2.14 27.29-2.39c1.86-0.07 2.98 0.27 3.91 0.56" marker-end="url(#TriangleRed)" marker-start="url(#ArrowRed)" ></path>








</g><g transform="scale(1.3761467889908 1.3761467889908) translate(109, 0)">
<path style="fill:none; fill-rule:evenodd; stroke:#aaaaaa;  stroke-width:1pt; stroke-linecap:round;" d="m 109 0 L 0 0 L 0 109 L 109 109 L 109 0"></path><path style="fill:none; fill-opacity:0%; fill-rule:evenodd; stroke:#aaaaaa; stroke-opacity:100%; stroke-width: 1.5pt; stroke-linejoin:round; stroke-linecap:round;" d="M12.55 18.25c1.12 0.57 3.17 0.7 4.28 0.57c8.91-1.05 20.32-2.14 27.29-2.39c1.86-0.07 2.98 0.27 3.91 0.56"></path>
<path style="fill:none; fill-opacity:0%; fill-rule:evenodd; stroke:#aaaaaa; stroke-opacity:100%; stroke-width: 1.5pt; stroke-linejoin:round; stroke-linecap:round;" d="M24.42 21.25c0.76 0.5 1.45 2.75 1.36 3.75C25 33.75 16.5 77.75 14.5 85.98c-0.42 1.74 1.06 2.02 2.52 1.17c5.54-3.23 11.84-6.33 17.49-9.15"></path>
<path style="fill:none; fill-opacity:0%; fill-rule:evenodd; stroke:#aaaaaa; stroke-opacity:100%; stroke-width: 1.5pt; stroke-linejoin:round; stroke-linecap:round;" d="M24.24 39.54c0.87 0.21 1.79 0.69 2.64 0.5c2.39-0.54 10.91-2.15 13.27-2.79c1.85-0.5 3.35 1.5 3.16 3.03c-0.57 4.49-2.1 17.23-2.74 30.01C39.5 91.75 41 94.32 68.73 94.32c23.52 0 26.75-1.07 26.75-14.04"></path>
<path style="fill:none; fill-opacity:0%; fill-rule:evenodd; stroke:#aaaaaa; stroke-opacity:100%; stroke-width: 1.5pt; stroke-linejoin:round; stroke-linecap:round;" d="M27.1 54.83c2.36 1.92 6.1 7.9 6.69 10.88"></path>
<path style="fill:none; fill-opacity:0%; fill-rule:evenodd; stroke:#aaaaaa; stroke-opacity:100%; stroke-width: 1.5pt; stroke-linejoin:round; stroke-linecap:round;" d="M65 16.74c0.28 0.8-0.06 1.69-0.39 2.68c-2.71 8.15-8.39 17.12-16.05 23.88"></path>
<path style="fill:none; fill-opacity:0%; fill-rule:evenodd; stroke:#aaaaaa; stroke-opacity:100%; stroke-width: 1.5pt; stroke-linejoin:round; stroke-linecap:round;" d="M74.34 14.25C77.5 15 88.59 34.53 93.96 38.94c2.08 1.71 2.82 2.62 4.83 3.17"></path>
<path style="fill:none; fill-opacity:0%; fill-rule:evenodd; stroke:#aaaaaa; stroke-opacity:100%; stroke-width: 1.5pt; stroke-linejoin:round; stroke-linecap:round;" d="M56.57 45.62c1.93 0.38 3.8 0.4 4.69 0.24c7.25-1.26 16.66-3.88 20.68-4.34c2.62-0.3 3.77 0.91 3.63 3.02C85 53.25 82 70.5 77.82 78.78c-2.93 5.8-6.36 0.74-7.53-0.89"></path>
<path style="fill:none; fill-opacity:0%; fill-rule:evenodd; stroke:#aaaaaa; stroke-opacity:100%; stroke-width: 1.5pt; stroke-linejoin:round; stroke-linecap:round;" d="M68.71 47.66c0.06 0.71 0.25 1.9-0.12 2.86c-3.84 10.23-8.09 18.73-19.04 29.13"></path>

<path style="fill:none; fill-opacity:0%; fill-rule:evenodd; stroke:#000000; stroke-opacity:100%; stroke-width: 3pt; stroke-linejoin:round; stroke-linecap:round;" d="M12.55 18.25c1.12 0.57 3.17 0.7 4.28 0.57c8.91-1.05 20.32-2.14 27.29-2.39c1.86-0.07 2.98 0.27 3.91 0.56"></path>
<text x="5" y="20" font-size="20" fill="#999999">2</text><path style="fill:none; fill-opacity:0%; fill-rule:evenodd; stroke:#CC0000; stroke-opacity:100%; stroke-width: 3pt; stroke-linejoin:round; stroke-linecap:round;" d="M24.42 21.25c0.76 0.5 1.45 2.75 1.36 3.75C25 33.75 16.5 77.75 14.5 85.98c-0.42 1.74 1.06 2.02 2.52 1.17c5.54-3.23 11.84-6.33 17.49-9.15" marker-end="url(#TriangleRed)" marker-start="url(#ArrowRed)" ></path>







</g><g transform="scale(1.3761467889908 1.3761467889908) translate(218, 0)">
<path style="fill:none; fill-rule:evenodd; stroke:#aaaaaa;  stroke-width:1pt; stroke-linecap:round;" d="m 109 0 L 0 0 L 0 109 L 109 109 L 109 0"></path><path style="fill:none; fill-opacity:0%; fill-rule:evenodd; stroke:#aaaaaa; stroke-opacity:100%; stroke-width: 1.5pt; stroke-linejoin:round; stroke-linecap:round;" d="M12.55 18.25c1.12 0.57 3.17 0.7 4.28 0.57c8.91-1.05 20.32-2.14 27.29-2.39c1.86-0.07 2.98 0.27 3.91 0.56"></path>
<path style="fill:none; fill-opacity:0%; fill-rule:evenodd; stroke:#aaaaaa; stroke-opacity:100%; stroke-width: 1.5pt; stroke-linejoin:round; stroke-linecap:round;" d="M24.42 21.25c0.76 0.5 1.45 2.75 1.36 3.75C25 33.75 16.5 77.75 14.5 85.98c-0.42 1.74 1.06 2.02 2.52 1.17c5.54-3.23 11.84-6.33 17.49-9.15"></path>
<path style="fill:none; fill-opacity:0%; fill-rule:evenodd; stroke:#aaaaaa; stroke-opacity:100%; stroke-width: 1.5pt; stroke-linejoin:round; stroke-linecap:round;" d="M24.24 39.54c0.87 0.21 1.79 0.69 2.64 0.5c2.39-0.54 10.91-2.15 13.27-2.79c1.85-0.5 3.35 1.5 3.16 3.03c-0.57 4.49-2.1 17.23-2.74 30.01C39.5 91.75 41 94.32 68.73 94.32c23.52 0 26.75-1.07 26.75-14.04"></path>
<path style="fill:none; fill-opacity:0%; fill-rule:evenodd; stroke:#aaaaaa; stroke-opacity:100%; stroke-width: 1.5pt; stroke-linejoin:round; stroke-linecap:round;" d="M27.1 54.83c2.36 1.92 6.1 7.9 6.69 10.88"></path>
<path style="fill:none; fill-opacity:0%; fill-rule:evenodd; stroke:#aaaaaa; stroke-opacity:100%; stroke-width: 1.5pt; stroke-linejoin:round; stroke-linecap:round;" d="M65 16.74c0.28 0.8-0.06 1.69-0.39 2.68c-2.71 8.15-8.39 17.12-16.05 23.88"></path>
<path style="fill:none; fill-opacity:0%; fill-rule:evenodd; stroke:#aaaaaa; stroke-opacity:100%; stroke-width: 1.5pt; stroke-linejoin:round; stroke-linecap:round;" d="M74.34 14.25C77.5 15 88.59 34.53 93.96 38.94c2.08 1.71 2.82 2.62 4.83 3.17"></path>
<path style="fill:none; fill-opacity:0%; fill-rule:evenodd; stroke:#aaaaaa; stroke-opacity:100%; stroke-width: 1.5pt; stroke-linejoin:round; stroke-linecap:round;" d="M56.57 45.62c1.93 0.38 3.8 0.4 4.69 0.24c7.25-1.26 16.66-3.88 20.68-4.34c2.62-0.3 3.77 0.91 3.63 3.02C85 53.25 82 70.5 77.82 78.78c-2.93 5.8-6.36 0.74-7.53-0.89"></path>
<path style="fill:none; fill-opacity:0%; fill-rule:evenodd; stroke:#aaaaaa; stroke-opacity:100%; stroke-width: 1.5pt; stroke-linejoin:round; stroke-linecap:round;" d="M68.71 47.66c0.06 0.71 0.25 1.9-0.12 2.86c-3.84 10.23-8.09 18.73-19.04 29.13"></path>

<path style="fill:none; fill-opacity:0%; fill-rule:evenodd; stroke:#000000; stroke-opacity:100%; stroke-width: 3pt; stroke-linejoin:round; stroke-linecap:round;" d="M12.55 18.25c1.12 0.57 3.17 0.7 4.28 0.57c8.91-1.05 20.32-2.14 27.29-2.39c1.86-0.07 2.98 0.27 3.91 0.56"></path>
<path style="fill:none; fill-opacity:0%; fill-rule:evenodd; stroke:#000000; stroke-opacity:100%; stroke-width: 3pt; stroke-linejoin:round; stroke-linecap:round;" d="M24.42 21.25c0.76 0.5 1.45 2.75 1.36 3.75C25 33.75 16.5 77.75 14.5 85.98c-0.42 1.74 1.06 2.02 2.52 1.17c5.54-3.23 11.84-6.33 17.49-9.15"></path>
<text x="5" y="20" font-size="20" fill="#999999">3</text><path style="fill:none; fill-opacity:0%; fill-rule:evenodd; stroke:#CC0000; stroke-opacity:100%; stroke-width: 3pt; stroke-linejoin:round; stroke-linecap:round;" d="M24.24 39.54c0.87 0.21 1.79 0.69 2.64 0.5c2.39-0.54 10.91-2.15 13.27-2.79c1.85-0.5 3.35 1.5 3.16 3.03c-0.57 4.49-2.1 17.23-2.74 30.01C39.5 91.75 41 94.32 68.73 94.32c23.52 0 26.75-1.07 26.75-14.04" marker-end="url(#TriangleRed)" marker-start="url(#ArrowRed)" ></path>






</g><g transform="scale(1.3761467889908 1.3761467889908) translate(327, 0)">
<path style="fill:none; fill-rule:evenodd; stroke:#aaaaaa;  stroke-width:1pt; stroke-linecap:round;" d="m 109 0 L 0 0 L 0 109 L 109 109 L 109 0"></path><path style="fill:none; fill-opacity:0%; fill-rule:evenodd; stroke:#aaaaaa; stroke-opacity:100%; stroke-width: 1.5pt; stroke-linejoin:round; stroke-linecap:round;" d="M12.55 18.25c1.12 0.57 3.17 0.7 4.28 0.57c8.91-1.05 20.32-2.14 27.29-2.39c1.86-0.07 2.98 0.27 3.91 0.56"></path>
<path style="fill:none; fill-opacity:0%; fill-rule:evenodd; stroke:#aaaaaa; stroke-opacity:100%; stroke-width: 1.5pt; stroke-linejoin:round; stroke-linecap:round;" d="M24.42 21.25c0.76 0.5 1.45 2.75 1.36 3.75C25 33.75 16.5 77.75 14.5 85.98c-0.42 1.74 1.06 2.02 2.52 1.17c5.54-3.23 11.84-6.33 17.49-9.15"></path>
<path style="fill:none; fill-opacity:0%; fill-rule:evenodd; stroke:#aaaaaa; stroke-opacity:100%; stroke-width: 1.5pt; stroke-linejoin:round; stroke-linecap:round;" d="M24.24 39.54c0.87 0.21 1.79 0.69 2.64 0.5c2.39-0.54 10.91-2.15 13.27-2.79c1.85-0.5 3.35 1.5 3.16 3.03c-0.57 4.49-2.1 17.23-2.74 30.01C39.5 91.75 41 94.32 68.73 94.32c23.52 0 26.75-1.07 26.75-14.04"></path>
<path style="fill:none; fill-opacity:0%; fill-rule:evenodd; stroke:#aaaaaa; stroke-opacity:100%; stroke-width: 1.5pt; stroke-linejoin:round; stroke-linecap:round;" d="M27.1 54.83c2.36 1.92 6.1 7.9 6.69 10.88"></path>
<path style="fill:none; fill-opacity:0%; fill-rule:evenodd; stroke:#aaaaaa; stroke-opacity:100%; stroke-width: 1.5pt; stroke-linejoin:round; stroke-linecap:round;" d="M65 16.74c0.28 0.8-0.06 1.69-0.39 2.68c-2.71 8.15-8.39 17.12-16.05 23.88"></path>
<path style="fill:none; fill-opacity:0%; fill-rule:evenodd; stroke:#aaaaaa; stroke-opacity:100%; stroke-width: 1.5pt; stroke-linejoin:round; stroke-linecap:round;" d="M74.34 14.25C77.5 15 88.59 34.53 93.96 38.94c2.08 1.71 2.82 2.62 4.83 3.17"></path>
<path style="fill:none; fill-opacity:0%; fill-rule:evenodd; stroke:#aaaaaa; stroke-opacity:100%; stroke-width: 1.5pt; stroke-linejoin:round; stroke-linecap:round;" d="M56.57 45.62c1.93 0.38 3.8 0.4 4.69 0.24c7.25-1.26 16.66-3.88 20.68-4.34c2.62-0.3 3.77 0.91 3.63 3.02C85 53.25 82 70.5 77.82 78.78c-2.93 5.8-6.36 0.74-7.53-0.89"></path>
<path style="fill:none; fill-opacity:0%; fill-rule:evenodd; stroke:#aaaaaa; stroke-opacity:100%; stroke-width: 1.5pt; stroke-linejoin:round; stroke-linecap:round;" d="M68.71 47.66c0.06 0.71 0.25 1.9-0.12 2.86c-3.84 10.23-8.09 18.73-19.04 29.13"></path>

<path style="fill:none; fill-opacity:0%; fill-rule:evenodd; stroke:#000000; stroke-opacity:100%; stroke-width: 3pt; stroke-linejoin:round; stroke-linecap:round;" d="M12.55 18.25c1.12 0.57 3.17 0.7 4.28 0.57c8.91-1.05 20.32-2.14 27.29-2.39c1.86-0.07 2.98 0.27 3.91 0.56"></path>
<path style="fill:none; fill-opacity:0%; fill-rule:evenodd; stroke:#000000; stroke-opacity:100%; stroke-width: 3pt; stroke-linejoin:round; stroke-linecap:round;" d="M24.42 21.25c0.76 0.5 1.45 2.75 1.36 3.75C25 33.75 16.5 77.75 14.5 85.98c-0.42 1.74 1.06 2.02 2.52 1.17c5.54-3.23 11.84-6.33 17.49-9.15"></path>
<path style="fill:none; fill-opacity:0%; fill-rule:evenodd; stroke:#000000; stroke-opacity:100%; stroke-width: 3pt; stroke-linejoin:round; stroke-linecap:round;" d="M24.24 39.54c0.87 0.21 1.79 0.69 2.64 0.5c2.39-0.54 10.91-2.15 13.27-2.79c1.85-0.5 3.35 1.5 3.16 3.03c-0.57 4.49-2.1 17.23-2.74 30.01C39.5 91.75 41 94.32 68.73 94.32c23.52 0 26.75-1.07 26.75-14.04"></path>
<text x="5" y="20" font-size="20" fill="#999999">4</text><path style="fill:none; fill-opacity:0%; fill-rule:evenodd; stroke:#CC0000; stroke-opacity:100%; stroke-width: 3pt; stroke-linejoin:round; stroke-linecap:round;" d="M27.1 54.83c2.36 1.92 6.1 7.9 6.69 10.88" marker-end="url(#TriangleRed)" marker-start="url(#ArrowRed)" ></path>





</g><g transform="scale(1.3761467889908 1.3761467889908) translate(436, 0)">
<path style="fill:none; fill-rule:evenodd; stroke:#aaaaaa;  stroke-width:1pt; stroke-linecap:round;" d="m 109 0 L 0 0 L 0 109 L 109 109 L 109 0"></path><path style="fill:none; fill-opacity:0%; fill-rule:evenodd; stroke:#aaaaaa; stroke-opacity:100%; stroke-width: 1.5pt; stroke-linejoin:round; stroke-linecap:round;" d="M12.55 18.25c1.12 0.57 3.17 0.7 4.28 0.57c8.91-1.05 20.32-2.14 27.29-2.39c1.86-0.07 2.98 0.27 3.91 0.56"></path>
<path style="fill:none; fill-opacity:0%; fill-rule:evenodd; stroke:#aaaaaa; stroke-opacity:100%; stroke-width: 1.5pt; stroke-linejoin:round; stroke-linecap:round;" d="M24.42 21.25c0.76 0.5 1.45 2.75 1.36 3.75C25 33.75 16.5 77.75 14.5 85.98c-0.42 1.74 1.06 2.02 2.52 1.17c5.54-3.23 11.84-6.33 17.49-9.15"></path>
<path style="fill:none; fill-opacity:0%; fill-rule:evenodd; stroke:#aaaaaa; stroke-opacity:100%; stroke-width: 1.5pt; stroke-linejoin:round; stroke-linecap:round;" d="M24.24 39.54c0.87 0.21 1.79 0.69 2.64 0.5c2.39-0.54 10.91-2.15 13.27-2.79c1.85-0.5 3.35 1.5 3.16 3.03c-0.57 4.49-2.1 17.23-2.74 30.01C39.5 91.75 41 94.32 68.73 94.32c23.52 0 26.75-1.07 26.75-14.04"></path>
<path style="fill:none; fill-opacity:0%; fill-rule:evenodd; stroke:#aaaaaa; stroke-opacity:100%; stroke-width: 1.5pt; stroke-linejoin:round; stroke-linecap:round;" d="M27.1 54.83c2.36 1.92 6.1 7.9 6.69 10.88"></path>
<path style="fill:none; fill-opacity:0%; fill-rule:evenodd; stroke:#aaaaaa; stroke-opacity:100%; stroke-width: 1.5pt; stroke-linejoin:round; stroke-linecap:round;" d="M65 16.74c0.28 0.8-0.06 1.69-0.39 2.68c-2.71 8.15-8.39 17.12-16.05 23.88"></path>
<path style="fill:none; fill-opacity:0%; fill-rule:evenodd; stroke:#aaaaaa; stroke-opacity:100%; stroke-width: 1.5pt; stroke-linejoin:round; stroke-linecap:round;" d="M74.34 14.25C77.5 15 88.59 34.53 93.96 38.94c2.08 1.71 2.82 2.62 4.83 3.17"></path>
<path style="fill:none; fill-opacity:0%; fill-rule:evenodd; stroke:#aaaaaa; stroke-opacity:100%; stroke-width: 1.5pt; stroke-linejoin:round; stroke-linecap:round;" d="M56.57 45.62c1.93 0.38 3.8 0.4 4.69 0.24c7.25-1.26 16.66-3.88 20.68-4.34c2.62-0.3 3.77 0.91 3.63 3.02C85 53.25 82 70.5 77.82 78.78c-2.93 5.8-6.36 0.74-7.53-0.89"></path>
<path style="fill:none; fill-opacity:0%; fill-rule:evenodd; stroke:#aaaaaa; stroke-opacity:100%; stroke-width: 1.5pt; stroke-linejoin:round; stroke-linecap:round;" d="M68.71 47.66c0.06 0.71 0.25 1.9-0.12 2.86c-3.84 10.23-8.09 18.73-19.04 29.13"></path>

<path style="fill:none; fill-opacity:0%; fill-rule:evenodd; stroke:#000000; stroke-opacity:100%; stroke-width: 3pt; stroke-linejoin:round; stroke-linecap:round;" d="M12.55 18.25c1.12 0.57 3.17 0.7 4.28 0.57c8.91-1.05 20.32-2.14 27.29-2.39c1.86-0.07 2.98 0.27 3.91 0.56"></path>
<path style="fill:none; fill-opacity:0%; fill-rule:evenodd; stroke:#000000; stroke-opacity:100%; stroke-width: 3pt; stroke-linejoin:round; stroke-linecap:round;" d="M24.42 21.25c0.76 0.5 1.45 2.75 1.36 3.75C25 33.75 16.5 77.75 14.5 85.98c-0.42 1.74 1.06 2.02 2.52 1.17c5.54-3.23 11.84-6.33 17.49-9.15"></path>
<path style="fill:none; fill-opacity:0%; fill-rule:evenodd; stroke:#000000; stroke-opacity:100%; stroke-width: 3pt; stroke-linejoin:round; stroke-linecap:round;" d="M24.24 39.54c0.87 0.21 1.79 0.69 2.64 0.5c2.39-0.54 10.91-2.15 13.27-2.79c1.85-0.5 3.35 1.5 3.16 3.03c-0.57 4.49-2.1 17.23-2.74 30.01C39.5 91.75 41 94.32 68.73 94.32c23.52 0 26.75-1.07 26.75-14.04"></path>
<path style="fill:none; fill-opacity:0%; fill-rule:evenodd; stroke:#000000; stroke-opacity:100%; stroke-width: 3pt; stroke-linejoin:round; stroke-linecap:round;" d="M27.1 54.83c2.36 1.92 6.1 7.9 6.69 10.88"></path>
<text x="5" y="20" font-size="20" fill="#999999">5</text><path style="fill:none; fill-opacity:0%; fill-rule:evenodd; stroke:#CC0000; stroke-opacity:100%; stroke-width: 3pt; stroke-linejoin:round; stroke-linecap:round;" d="M65 16.74c0.28 0.8-0.06 1.69-0.39 2.68c-2.71 8.15-8.39 17.12-16.05 23.88" marker-end="url(#TriangleRed)" marker-start="url(#ArrowRed)" ></path>




</g><g transform="scale(1.3761467889908 1.3761467889908) translate(0, 109)">
<path style="fill:none; fill-rule:evenodd; stroke:#aaaaaa;  stroke-width:1pt; stroke-linecap:round;" d="m 109 0 L 0 0 L 0 109 L 109 109 L 109 0"></path><path style="fill:none; fill-opacity:0%; fill-rule:evenodd; stroke:#aaaaaa; stroke-opacity:100%; stroke-width: 1.5pt; stroke-linejoin:round; stroke-linecap:round;" d="M12.55 18.25c1.12 0.57 3.17 0.7 4.28 0.57c8.91-1.05 20.32-2.14 27.29-2.39c1.86-0.07 2.98 0.27 3.91 0.56"></path>
<path style="fill:none; fill-opacity:0%; fill-rule:evenodd; stroke:#aaaaaa; stroke-opacity:100%; stroke-width: 1.5pt; stroke-linejoin:round; stroke-linecap:round;" d="M24.42 21.25c0.76 0.5 1.45 2.75 1.36 3.75C25 33.75 16.5 77.75 14.5 85.98c-0.42 1.74 1.06 2.02 2.52 1.17c5.54-3.23 11.84-6.33 17.49-9.15"></path>
<path style="fill:none; fill-opacity:0%; fill-rule:evenodd; stroke:#aaaaaa; stroke-opacity:100%; stroke-width: 1.5pt; stroke-linejoin:round; stroke-linecap:round;" d="M24.24 39.54c0.87 0.21 1.79 0.69 2.64 0.5c2.39-0.54 10.91-2.15 13.27-2.79c1.85-0.5 3.35 1.5 3.16 3.03c-0.57 4.49-2.1 17.23-2.74 30.01C39.5 91.75 41 94.32 68.73 94.32c23.52 0 26.75-1.07 26.75-14.04"></path>
<path style="fill:none; fill-opacity:0%; fill-rule:evenodd; stroke:#aaaaaa; stroke-opacity:100%; stroke-width: 1.5pt; stroke-linejoin:round; stroke-linecap:round;" d="M27.1 54.83c2.36 1.92 6.1 7.9 6.69 10.88"></path>
<path style="fill:none; fill-opacity:0%; fill-rule:evenodd; stroke:#aaaaaa; stroke-opacity:100%; stroke-width: 1.5pt; stroke-linejoin:round; stroke-linecap:round;" d="M65 16.74c0.28 0.8-0.06 1.69-0.39 2.68c-2.71 8.15-8.39 17.12-16.05 23.88"></path>
<path style="fill:none; fill-opacity:0%; fill-rule:evenodd; stroke:#aaaaaa; stroke-opacity:100%; stroke-width: 1.5pt; stroke-linejoin:round; stroke-linecap:round;" d="M74.34 14.25C77.5 15 88.59 34.53 93.96 38.94c2.08 1.71 2.82 2.62 4.83 3.17"></path>
<path style="fill:none; fill-opacity:0%; fill-rule:evenodd; stroke:#aaaaaa; stroke-opacity:100%; stroke-width: 1.5pt; stroke-linejoin:round; stroke-linecap:round;" d="M56.57 45.62c1.93 0.38 3.8 0.4 4.69 0.24c7.25-1.26 16.66-3.88 20.68-4.34c2.62-0.3 3.77 0.91 3.63 3.02C85 53.25 82 70.5 77.82 78.78c-2.93 5.8-6.36 0.74-7.53-0.89"></path>
<path style="fill:none; fill-opacity:0%; fill-rule:evenodd; stroke:#aaaaaa; stroke-opacity:100%; stroke-width: 1.5pt; stroke-linejoin:round; stroke-linecap:round;" d="M68.71 47.66c0.06 0.71 0.25 1.9-0.12 2.86c-3.84 10.23-8.09 18.73-19.04 29.13"></path>

<path style="fill:none; fill-opacity:0%; fill-rule:evenodd; stroke:#000000; stroke-opacity:100%; stroke-width: 3pt; stroke-linejoin:round; stroke-linecap:round;" d="M12.55 18.25c1.12 0.57 3.17 0.7 4.28 0.57c8.91-1.05 20.32-2.14 27.29-2.39c1.86-0.07 2.98 0.27 3.91 0.56"></path>
<path style="fill:none; fill-opacity:0%; fill-rule:evenodd; stroke:#000000; stroke-opacity:100%; stroke-width: 3pt; stroke-linejoin:round; stroke-linecap:round;" d="M24.42 21.25c0.76 0.5 1.45 2.75 1.36 3.75C25 33.75 16.5 77.75 14.5 85.98c-0.42 1.74 1.06 2.02 2.52 1.17c5.54-3.23 11.84-6.33 17.49-9.15"></path>
<path style="fill:none; fill-opacity:0%; fill-rule:evenodd; stroke:#000000; stroke-opacity:100%; stroke-width: 3pt; stroke-linejoin:round; stroke-linecap:round;" d="M24.24 39.54c0.87 0.21 1.79 0.69 2.64 0.5c2.39-0.54 10.91-2.15 13.27-2.79c1.85-0.5 3.35 1.5 3.16 3.03c-0.57 4.49-2.1 17.23-2.74 30.01C39.5 91.75 41 94.32 68.73 94.32c23.52 0 26.75-1.07 26.75-14.04"></path>
<path style="fill:none; fill-opacity:0%; fill-rule:evenodd; stroke:#000000; stroke-opacity:100%; stroke-width: 3pt; stroke-linejoin:round; stroke-linecap:round;" d="M27.1 54.83c2.36 1.92 6.1 7.9 6.69 10.88"></path>
<path style="fill:none; fill-opacity:0%; fill-rule:evenodd; stroke:#000000; stroke-opacity:100%; stroke-width: 3pt; stroke-linejoin:round; stroke-linecap:round;" d="M65 16.74c0.28 0.8-0.06 1.69-0.39 2.68c-2.71 8.15-8.39 17.12-16.05 23.88"></path>
<text x="5" y="20" font-size="20" fill="#999999">6</text><path style="fill:none; fill-opacity:0%; fill-rule:evenodd; stroke:#CC0000; stroke-opacity:100%; stroke-width: 3pt; stroke-linejoin:round; stroke-linecap:round;" d="M74.34 14.25C77.5 15 88.59 34.53 93.96 38.94c2.08 1.71 2.82 2.62 4.83 3.17" marker-end="url(#TriangleRed)" marker-start="url(#ArrowRed)" ></path>



</g><g transform="scale(1.3761467889908 1.3761467889908) translate(109, 109)">
<path style="fill:none; fill-rule:evenodd; stroke:#aaaaaa;  stroke-width:1pt; stroke-linecap:round;" d="m 109 0 L 0 0 L 0 109 L 109 109 L 109 0"></path><path style="fill:none; fill-opacity:0%; fill-rule:evenodd; stroke:#aaaaaa; stroke-opacity:100%; stroke-width: 1.5pt; stroke-linejoin:round; stroke-linecap:round;" d="M12.55 18.25c1.12 0.57 3.17 0.7 4.28 0.57c8.91-1.05 20.32-2.14 27.29-2.39c1.86-0.07 2.98 0.27 3.91 0.56"></path>
<path style="fill:none; fill-opacity:0%; fill-rule:evenodd; stroke:#aaaaaa; stroke-opacity:100%; stroke-width: 1.5pt; stroke-linejoin:round; stroke-linecap:round;" d="M24.42 21.25c0.76 0.5 1.45 2.75 1.36 3.75C25 33.75 16.5 77.75 14.5 85.98c-0.42 1.74 1.06 2.02 2.52 1.17c5.54-3.23 11.84-6.33 17.49-9.15"></path>
<path style="fill:none; fill-opacity:0%; fill-rule:evenodd; stroke:#aaaaaa; stroke-opacity:100%; stroke-width: 1.5pt; stroke-linejoin:round; stroke-linecap:round;" d="M24.24 39.54c0.87 0.21 1.79 0.69 2.64 0.5c2.39-0.54 10.91-2.15 13.27-2.79c1.85-0.5 3.35 1.5 3.16 3.03c-0.57 4.49-2.1 17.23-2.74 30.01C39.5 91.75 41 94.32 68.73 94.32c23.52 0 26.75-1.07 26.75-14.04"></path>
<path style="fill:none; fill-opacity:0%; fill-rule:evenodd; stroke:#aaaaaa; stroke-opacity:100%; stroke-width: 1.5pt; stroke-linejoin:round; stroke-linecap:round;" d="M27.1 54.83c2.36 1.92 6.1 7.9 6.69 10.88"></path>
<path style="fill:none; fill-opacity:0%; fill-rule:evenodd; stroke:#aaaaaa; stroke-opacity:100%; stroke-width: 1.5pt; stroke-linejoin:round; stroke-linecap:round;" d="M65 16.74c0.28 0.8-0.06 1.69-0.39 2.68c-2.71 8.15-8.39 17.12-16.05 23.88"></path>
<path style="fill:none; fill-opacity:0%; fill-rule:evenodd; stroke:#aaaaaa; stroke-opacity:100%; stroke-width: 1.5pt; stroke-linejoin:round; stroke-linecap:round;" d="M74.34 14.25C77.5 15 88.59 34.53 93.96 38.94c2.08 1.71 2.82 2.62 4.83 3.17"></path>
<path style="fill:none; fill-opacity:0%; fill-rule:evenodd; stroke:#aaaaaa; stroke-opacity:100%; stroke-width: 1.5pt; stroke-linejoin:round; stroke-linecap:round;" d="M56.57 45.62c1.93 0.38 3.8 0.4 4.69 0.24c7.25-1.26 16.66-3.88 20.68-4.34c2.62-0.3 3.77 0.91 3.63 3.02C85 53.25 82 70.5 77.82 78.78c-2.93 5.8-6.36 0.74-7.53-0.89"></path>
<path style="fill:none; fill-opacity:0%; fill-rule:evenodd; stroke:#aaaaaa; stroke-opacity:100%; stroke-width: 1.5pt; stroke-linejoin:round; stroke-linecap:round;" d="M68.71 47.66c0.06 0.71 0.25 1.9-0.12 2.86c-3.84 10.23-8.09 18.73-19.04 29.13"></path>

<path style="fill:none; fill-opacity:0%; fill-rule:evenodd; stroke:#000000; stroke-opacity:100%; stroke-width: 3pt; stroke-linejoin:round; stroke-linecap:round;" d="M12.55 18.25c1.12 0.57 3.17 0.7 4.28 0.57c8.91-1.05 20.32-2.14 27.29-2.39c1.86-0.07 2.98 0.27 3.91 0.56"></path>
<path style="fill:none; fill-opacity:0%; fill-rule:evenodd; stroke:#000000; stroke-opacity:100%; stroke-width: 3pt; stroke-linejoin:round; stroke-linecap:round;" d="M24.42 21.25c0.76 0.5 1.45 2.75 1.36 3.75C25 33.75 16.5 77.75 14.5 85.98c-0.42 1.74 1.06 2.02 2.52 1.17c5.54-3.23 11.84-6.33 17.49-9.15"></path>
<path style="fill:none; fill-opacity:0%; fill-rule:evenodd; stroke:#000000; stroke-opacity:100%; stroke-width: 3pt; stroke-linejoin:round; stroke-linecap:round;" d="M24.24 39.54c0.87 0.21 1.79 0.69 2.64 0.5c2.39-0.54 10.91-2.15 13.27-2.79c1.85-0.5 3.35 1.5 3.16 3.03c-0.57 4.49-2.1 17.23-2.74 30.01C39.5 91.75 41 94.32 68.73 94.32c23.52 0 26.75-1.07 26.75-14.04"></path>
<path style="fill:none; fill-opacity:0%; fill-rule:evenodd; stroke:#000000; stroke-opacity:100%; stroke-width: 3pt; stroke-linejoin:round; stroke-linecap:round;" d="M27.1 54.83c2.36 1.92 6.1 7.9 6.69 10.88"></path>
<path style="fill:none; fill-opacity:0%; fill-rule:evenodd; stroke:#000000; stroke-opacity:100%; stroke-width: 3pt; stroke-linejoin:round; stroke-linecap:round;" d="M65 16.74c0.28 0.8-0.06 1.69-0.39 2.68c-2.71 8.15-8.39 17.12-16.05 23.88"></path>
<path style="fill:none; fill-opacity:0%; fill-rule:evenodd; stroke:#000000; stroke-opacity:100%; stroke-width: 3pt; stroke-linejoin:round; stroke-linecap:round;" d="M74.34 14.25C77.5 15 88.59 34.53 93.96 38.94c2.08 1.71 2.82 2.62 4.83 3.17"></path>
<text x="5" y="20" font-size="20" fill="#999999">7</text><path style="fill:none; fill-opacity:0%; fill-rule:evenodd; stroke:#CC0000; stroke-opacity:100%; stroke-width: 3pt; stroke-linejoin:round; stroke-linecap:round;" d="M56.57 45.62c1.93 0.38 3.8 0.4 4.69 0.24c7.25-1.26 16.66-3.88 20.68-4.34c2.62-0.3 3.77 0.91 3.63 3.02C85 53.25 82 70.5 77.82 78.78c-2.93 5.8-6.36 0.74-7.53-0.89" marker-end="url(#TriangleRed)" marker-start="url(#ArrowRed)" ></path>


</g><g transform="scale(1.3761467889908 1.3761467889908) translate(218, 109)">
<path style="fill:none; fill-rule:evenodd; stroke:#aaaaaa;  stroke-width:1pt; stroke-linecap:round;" d="m 109 0 L 0 0 L 0 109 L 109 109 L 109 0"></path><path style="fill:none; fill-opacity:0%; fill-rule:evenodd; stroke:#aaaaaa; stroke-opacity:100%; stroke-width: 1.5pt; stroke-linejoin:round; stroke-linecap:round;" d="M12.55 18.25c1.12 0.57 3.17 0.7 4.28 0.57c8.91-1.05 20.32-2.14 27.29-2.39c1.86-0.07 2.98 0.27 3.91 0.56"></path>
<path style="fill:none; fill-opacity:0%; fill-rule:evenodd; stroke:#aaaaaa; stroke-opacity:100%; stroke-width: 1.5pt; stroke-linejoin:round; stroke-linecap:round;" d="M24.42 21.25c0.76 0.5 1.45 2.75 1.36 3.75C25 33.75 16.5 77.75 14.5 85.98c-0.42 1.74 1.06 2.02 2.52 1.17c5.54-3.23 11.84-6.33 17.49-9.15"></path>
<path style="fill:none; fill-opacity:0%; fill-rule:evenodd; stroke:#aaaaaa; stroke-opacity:100%; stroke-width: 1.5pt; stroke-linejoin:round; stroke-linecap:round;" d="M24.24 39.54c0.87 0.21 1.79 0.69 2.64 0.5c2.39-0.54 10.91-2.15 13.27-2.79c1.85-0.5 3.35 1.5 3.16 3.03c-0.57 4.49-2.1 17.23-2.74 30.01C39.5 91.75 41 94.32 68.73 94.32c23.52 0 26.75-1.07 26.75-14.04"></path>
<path style="fill:none; fill-opacity:0%; fill-rule:evenodd; stroke:#aaaaaa; stroke-opacity:100%; stroke-width: 1.5pt; stroke-linejoin:round; stroke-linecap:round;" d="M27.1 54.83c2.36 1.92 6.1 7.9 6.69 10.88"></path>
<path style="fill:none; fill-opacity:0%; fill-rule:evenodd; stroke:#aaaaaa; stroke-opacity:100%; stroke-width: 1.5pt; stroke-linejoin:round; stroke-linecap:round;" d="M65 16.74c0.28 0.8-0.06 1.69-0.39 2.68c-2.71 8.15-8.39 17.12-16.05 23.88"></path>
<path style="fill:none; fill-opacity:0%; fill-rule:evenodd; stroke:#aaaaaa; stroke-opacity:100%; stroke-width: 1.5pt; stroke-linejoin:round; stroke-linecap:round;" d="M74.34 14.25C77.5 15 88.59 34.53 93.96 38.94c2.08 1.71 2.82 2.62 4.83 3.17"></path>
<path style="fill:none; fill-opacity:0%; fill-rule:evenodd; stroke:#aaaaaa; stroke-opacity:100%; stroke-width: 1.5pt; stroke-linejoin:round; stroke-linecap:round;" d="M56.57 45.62c1.93 0.38 3.8 0.4 4.69 0.24c7.25-1.26 16.66-3.88 20.68-4.34c2.62-0.3 3.77 0.91 3.63 3.02C85 53.25 82 70.5 77.82 78.78c-2.93 5.8-6.36 0.74-7.53-0.89"></path>
<path style="fill:none; fill-opacity:0%; fill-rule:evenodd; stroke:#aaaaaa; stroke-opacity:100%; stroke-width: 1.5pt; stroke-linejoin:round; stroke-linecap:round;" d="M68.71 47.66c0.06 0.71 0.25 1.9-0.12 2.86c-3.84 10.23-8.09 18.73-19.04 29.13"></path>

<path style="fill:none; fill-opacity:0%; fill-rule:evenodd; stroke:#000000; stroke-opacity:100%; stroke-width: 3pt; stroke-linejoin:round; stroke-linecap:round;" d="M12.55 18.25c1.12 0.57 3.17 0.7 4.28 0.57c8.91-1.05 20.32-2.14 27.29-2.39c1.86-0.07 2.98 0.27 3.91 0.56"></path>
<path style="fill:none; fill-opacity:0%; fill-rule:evenodd; stroke:#000000; stroke-opacity:100%; stroke-width: 3pt; stroke-linejoin:round; stroke-linecap:round;" d="M24.42 21.25c0.76 0.5 1.45 2.75 1.36 3.75C25 33.75 16.5 77.75 14.5 85.98c-0.42 1.74 1.06 2.02 2.52 1.17c5.54-3.23 11.84-6.33 17.49-9.15"></path>
<path style="fill:none; fill-opacity:0%; fill-rule:evenodd; stroke:#000000; stroke-opacity:100%; stroke-width: 3pt; stroke-linejoin:round; stroke-linecap:round;" d="M24.24 39.54c0.87 0.21 1.79 0.69 2.64 0.5c2.39-0.54 10.91-2.15 13.27-2.79c1.85-0.5 3.35 1.5 3.16 3.03c-0.57 4.49-2.1 17.23-2.74 30.01C39.5 91.75 41 94.32 68.73 94.32c23.52 0 26.75-1.07 26.75-14.04"></path>
<path style="fill:none; fill-opacity:0%; fill-rule:evenodd; stroke:#000000; stroke-opacity:100%; stroke-width: 3pt; stroke-linejoin:round; stroke-linecap:round;" d="M27.1 54.83c2.36 1.92 6.1 7.9 6.69 10.88"></path>
<path style="fill:none; fill-opacity:0%; fill-rule:evenodd; stroke:#000000; stroke-opacity:100%; stroke-width: 3pt; stroke-linejoin:round; stroke-linecap:round;" d="M65 16.74c0.28 0.8-0.06 1.69-0.39 2.68c-2.71 8.15-8.39 17.12-16.05 23.88"></path>
<path style="fill:none; fill-opacity:0%; fill-rule:evenodd; stroke:#000000; stroke-opacity:100%; stroke-width: 3pt; stroke-linejoin:round; stroke-linecap:round;" d="M74.34 14.25C77.5 15 88.59 34.53 93.96 38.94c2.08 1.71 2.82 2.62 4.83 3.17"></path>
<path style="fill:none; fill-opacity:0%; fill-rule:evenodd; stroke:#000000; stroke-opacity:100%; stroke-width: 3pt; stroke-linejoin:round; stroke-linecap:round;" d="M56.57 45.62c1.93 0.38 3.8 0.4 4.69 0.24c7.25-1.26 16.66-3.88 20.68-4.34c2.62-0.3 3.77 0.91 3.63 3.02C85 53.25 82 70.5 77.82 78.78c-2.93 5.8-6.36 0.74-7.53-0.89"></path>
<text x="5" y="20" font-size="20" fill="#999999">8</text><path style="fill:none; fill-opacity:0%; fill-rule:evenodd; stroke:#CC0000; stroke-opacity:100%; stroke-width: 3pt; stroke-linejoin:round; stroke-linecap:round;" d="M68.71 47.66c0.06 0.71 0.25 1.9-0.12 2.86c-3.84 10.23-8.09 18.73-19.04 29.13" marker-end="url(#TriangleRed)" marker-start="url(#ArrowRed)" ></path>

</g>

</svg>  
          
