<?xml version="1.0" standalone="no"?>
<!DOCTYPE svg PUBLIC "-//W3C//DTD SVG 1.1//EN"   "http://www.w3.org/Graphics/SVG/1.1/DTD/svg11.dtd">
<svg width="751" height="301"  version="1.1" xmlns="http://www.w3.org/2000/svg">
  <defs>
    <marker id="Triangle" viewBox="0 0 10 10" refX="0" refY="5" markerUnits="strokeWidth" markerWidth="3" style="stroke-opacity:0%;fill:#aaaaaa;" markerHeight="2" orient="auto">
      <path d="M 0 0 L 10 5 L 0 10 z" />
    </marker>
    
    <marker id="Arrow" viewBox="0 0 10 10" refX="5" refY="5" markerUnits="strokeWidth" markerWidth="1.8" style="stroke-opacity:0%;fill:#770000;" markerHeight="2" orient="auto">
      <path d="M 0 4 L 6 4 L 4 1 L 10 5 L 4 9 L 6 6 L 0 6 z" />
        <circle cx="5" cy="5" r="5" />
      </marker>
    
    <marker id="TriangleRed" viewBox="0 0 10 10" refX="0" refY="5" markerUnits="strokeWidth" markerWidth="3" style="stroke-opacity:0%;fill:#CC0000;" markerHeight="2" orient="auto">
      <path d="M 0 0 L 10 5 L 0 10 z" />
    </marker>
    
    <marker id="ArrowRed" viewBox="0 0 10 10" refX="5" refY="5" markerUnits="strokeWidth" markerWidth="1.8" style="stroke-opacity:0%;fill:#CC0000;" markerHeight="2" orient="auto">
      <path d="M 0 4 L 6 4 L 4 1 L 10 5 L 4 9 L 6 6 L 0 6 z" />
        <circle cx="5" cy="5" r="5" />
      </marker>
    
  </defs>
  
  <path style="fill:#ffffff; fill-opacity:100%; fill-rule:evenodd; stroke-width:0;" d="M 0 0 L 751 0 L 751 301 L 0 301 L 0 0" />

  <g transform="scale(1.3761467889908 1.3761467889908) translate(0, 0)">
<path style="fill:none; fill-rule:evenodd; stroke:#aaaaaa;  stroke-width:1pt; stroke-linecap:round;" d="m 109 0 L 0 0 L 0 109 L 109 109 L 109 0"></path><path style="fill:none; fill-opacity:0%; fill-rule:evenodd; stroke:#aaaaaa; stroke-opacity:100%; stroke-width: 1.5pt; stroke-linejoin:round; stroke-linecap:round;" d="M12.74 27.38c0.21 0.82 1.21 1.91 1.33 2.92c0.94 8.31 1.32 31.64 1.9 46.91"></path>
<path style="fill:none; fill-opacity:0%; fill-rule:evenodd; stroke:#aaaaaa; stroke-opacity:100%; stroke-width: 1.5pt; stroke-linejoin:round; stroke-linecap:round;" d="M14.22 29.2c7.26-0.65 18.71-2.27 24.13-2.94c1.99-0.25 3.01 2.18 2.91 4.4c-0.38 8.12-0.8 31.26-1.71 44.78"></path>
<path style="fill:none; fill-opacity:0%; fill-rule:evenodd; stroke:#aaaaaa; stroke-opacity:100%; stroke-width: 1.5pt; stroke-linejoin:round; stroke-linecap:round;" d="M26.8 29.5c0.45 0.56 1.03 2.32 1.04 2.99c0.21 11.25 0.09 32.08 0.09 38.72"></path>
<path style="fill:none; fill-opacity:0%; fill-rule:evenodd; stroke:#aaaaaa; stroke-opacity:100%; stroke-width: 1.5pt; stroke-linejoin:round; stroke-linecap:round;" d="M15.57 50.49c2.37-0.34 23.15-2.21 25.1-2.15"></path>
<path style="fill:none; fill-opacity:0%; fill-rule:evenodd; stroke:#aaaaaa; stroke-opacity:100%; stroke-width: 1.5pt; stroke-linejoin:round; stroke-linecap:round;" d="M16.34 73.45c5.23 0.14 15.98-1.34 23.2-1.37"></path>
<path style="fill:none; fill-opacity:0%; fill-rule:evenodd; stroke:#aaaaaa; stroke-opacity:100%; stroke-width: 1.5pt; stroke-linejoin:round; stroke-linecap:round;" d="M50 36.9c1.02 0.37 2.9 0.53 3.9 0.37C61.75 36 81 35 91.43 34.51c1.7-0.08 2.72 0.18 3.57 0.36"></path>
<path style="fill:none; fill-opacity:0%; fill-rule:evenodd; stroke:#aaaaaa; stroke-opacity:100%; stroke-width: 1.5pt; stroke-linejoin:round; stroke-linecap:round;" d="M46.75 63.7c1.52 0.54 4.3 0.62 5.82 0.54c9.43-0.49 29.18-2.74 41.11-2.73c2.53 0 4.05 0.26 5.31 0.53"></path>
<path style="fill:none; fill-opacity:0%; fill-rule:evenodd; stroke:#aaaaaa; stroke-opacity:100%; stroke-width: 1.5pt; stroke-linejoin:round; stroke-linecap:round;" d="M59.73 14.25c0.76 1.02 1.27 2.05 1.52 3.07c0.25 1.02 0.25 32.28 0.25 34.58c0 22.8-7.85 38.17-19.5 45.34"></path>
<path style="fill:none; fill-opacity:0%; fill-rule:evenodd; stroke:#aaaaaa; stroke-opacity:100%; stroke-width: 1.5pt; stroke-linejoin:round; stroke-linecap:round;" d="M78.87 11.25c1.09 0.5 1.74 2.25 1.96 3.25c0.22 1 0 77.25-0.22 83.5"></path>

<text x="5" y="20" font-size="20" fill="#999999">1</text><path style="fill:none; fill-opacity:0%; fill-rule:evenodd; stroke:#CC0000; stroke-opacity:100%; stroke-width: 3pt; stroke-linejoin:round; stroke-linecap:round;" d="M12.74 27.38c0.21 0.82 1.21 1.91 1.33 2.92c0.94 8.31 1.32 31.64 1.9 46.91"  ></path>









</g><g transform="scale(1.3761467889908 1.3761467889908) translate(109, 0)">
<path style="fill:none; fill-rule:evenodd; stroke:#aaaaaa;  stroke-width:1pt; stroke-linecap:round;" d="m 109 0 L 0 0 L 0 109 L 109 109 L 109 0"></path><path style="fill:none; fill-opacity:0%; fill-rule:evenodd; stroke:#aaaaaa; stroke-opacity:100%; stroke-width: 1.5pt; stroke-linejoin:round; stroke-linecap:round;" d="M12.74 27.38c0.21 0.82 1.21 1.91 1.33 2.92c0.94 8.31 1.32 31.64 1.9 46.91"></path>
<path style="fill:none; fill-opacity:0%; fill-rule:evenodd; stroke:#aaaaaa; stroke-opacity:100%; stroke-width: 1.5pt; stroke-linejoin:round; stroke-linecap:round;" d="M14.22 29.2c7.26-0.65 18.71-2.27 24.13-2.94c1.99-0.25 3.01 2.18 2.91 4.4c-0.38 8.12-0.8 31.26-1.71 44.78"></path>
<path style="fill:none; fill-opacity:0%; fill-rule:evenodd; stroke:#aaaaaa; stroke-opacity:100%; stroke-width: 1.5pt; stroke-linejoin:round; stroke-linecap:round;" d="M26.8 29.5c0.45 0.56 1.03 2.32 1.04 2.99c0.21 11.25 0.09 32.08 0.09 38.72"></path>
<path style="fill:none; fill-opacity:0%; fill-rule:evenodd; stroke:#aaaaaa; stroke-opacity:100%; stroke-width: 1.5pt; stroke-linejoin:round; stroke-linecap:round;" d="M15.57 50.49c2.37-0.34 23.15-2.21 25.1-2.15"></path>
<path style="fill:none; fill-opacity:0%; fill-rule:evenodd; stroke:#aaaaaa; stroke-opacity:100%; stroke-width: 1.5pt; stroke-linejoin:round; stroke-linecap:round;" d="M16.34 73.45c5.23 0.14 15.98-1.34 23.2-1.37"></path>
<path style="fill:none; fill-opacity:0%; fill-rule:evenodd; stroke:#aaaaaa; stroke-opacity:100%; stroke-width: 1.5pt; stroke-linejoin:round; stroke-linecap:round;" d="M50 36.9c1.02 0.37 2.9 0.53 3.9 0.37C61.75 36 81 35 91.43 34.51c1.7-0.08 2.72 0.18 3.57 0.36"></path>
<path style="fill:none; fill-opacity:0%; fill-rule:evenodd; stroke:#aaaaaa; stroke-opacity:100%; stroke-width: 1.5pt; stroke-linejoin:round; stroke-linecap:round;" d="M46.75 63.7c1.52 0.54 4.3 0.62 5.82 0.54c9.43-0.49 29.18-2.74 41.11-2.73c2.53 0 4.05 0.26 5.31 0.53"></path>
<path style="fill:none; fill-opacity:0%; fill-rule:evenodd; stroke:#aaaaaa; stroke-opacity:100%; stroke-width: 1.5pt; stroke-linejoin:round; stroke-linecap:round;" d="M59.73 14.25c0.76 1.02 1.27 2.05 1.52 3.07c0.25 1.02 0.25 32.28 0.25 34.58c0 22.8-7.85 38.17-19.5 45.34"></path>
<path style="fill:none; fill-opacity:0%; fill-rule:evenodd; stroke:#aaaaaa; stroke-opacity:100%; stroke-width: 1.5pt; stroke-linejoin:round; stroke-linecap:round;" d="M78.87 11.25c1.09 0.5 1.74 2.25 1.96 3.25c0.22 1 0 77.25-0.22 83.5"></path>

<path style="fill:none; fill-opacity:0%; fill-rule:evenodd; stroke:#000000; stroke-opacity:100%; stroke-width: 3pt; stroke-linejoin:round; stroke-linecap:round;" d="M12.74 27.38c0.21 0.82 1.21 1.91 1.33 2.92c0.94 8.31 1.32 31.64 1.9 46.91"></path>
<text x="5" y="20" font-size="20" fill="#999999">2</text><path style="fill:none; fill-opacity:0%; fill-rule:evenodd; stroke:#CC0000; stroke-opacity:100%; stroke-width: 3pt; stroke-linejoin:round; stroke-linecap:round;" d="M14.22 29.2c7.26-0.65 18.71-2.27 24.13-2.94c1.99-0.25 3.01 2.18 2.91 4.4c-0.38 8.12-0.8 31.26-1.71 44.78"  ></path>








</g><g transform="scale(1.3761467889908 1.3761467889908) translate(218, 0)">
<path style="fill:none; fill-rule:evenodd; stroke:#aaaaaa;  stroke-width:1pt; stroke-linecap:round;" d="m 109 0 L 0 0 L 0 109 L 109 109 L 109 0"></path><path style="fill:none; fill-opacity:0%; fill-rule:evenodd; stroke:#aaaaaa; stroke-opacity:100%; stroke-width: 1.5pt; stroke-linejoin:round; stroke-linecap:round;" d="M12.74 27.38c0.21 0.82 1.21 1.91 1.33 2.92c0.94 8.31 1.32 31.64 1.9 46.91"></path>
<path style="fill:none; fill-opacity:0%; fill-rule:evenodd; stroke:#aaaaaa; stroke-opacity:100%; stroke-width: 1.5pt; stroke-linejoin:round; stroke-linecap:round;" d="M14.22 29.2c7.26-0.65 18.71-2.27 24.13-2.94c1.99-0.25 3.01 2.18 2.91 4.4c-0.38 8.12-0.8 31.26-1.71 44.78"></path>
<path style="fill:none; fill-opacity:0%; fill-rule:evenodd; stroke:#aaaaaa; stroke-opacity:100%; stroke-width: 1.5pt; stroke-linejoin:round; stroke-linecap:round;" d="M26.8 29.5c0.45 0.56 1.03 2.32 1.04 2.99c0.21 11.25 0.09 32.08 0.09 38.72"></path>
<path style="fill:none; fill-opacity:0%; fill-rule:evenodd; stroke:#aaaaaa; stroke-opacity:100%; stroke-width: 1.5pt; stroke-linejoin:round; stroke-linecap:round;" d="M15.57 50.49c2.37-0.34 23.15-2.21 25.1-2.15"></path>
<path style="fill:none; fill-opacity:0%; fill-rule:evenodd; stroke:#aaaaaa; stroke-opacity:100%; stroke-width: 1.5pt; stroke-linejoin:round; stroke-linecap:round;" d="M16.34 73.45c5.23 0.14 15.98-1.34 23.2-1.37"></path>
<path style="fill:none; fill-opacity:0%; fill-rule:evenodd; stroke:#aaaaaa; stroke-opacity:100%; stroke-width: 1.5pt; stroke-linejoin:round; stroke-linecap:round;" d="M50 36.9c1.02 0.37 2.9 0.53 3.9 0.37C61.75 36 81 35 91.43 34.51c1.7-0.08 2.72 0.18 3.57 0.36"></path>
<path style="fill:none; fill-opacity:0%; fill-rule:evenodd; stroke:#aaaaaa; stroke-opacity:100%; stroke-width: 1.5pt; stroke-linejoin:round; stroke-linecap:round;" d="M46.75 63.7c1.52 0.54 4.3 0.62 5.82 0.54c9.43-0.49 29.18-2.74 41.11-2.73c2.53 0 4.05 0.26 5.31 0.53"></path>
<path style="fill:none; fill-opacity:0%; fill-rule:evenodd; stroke:#aaaaaa; stroke-opacity:100%; stroke-width: 1.5pt; stroke-linejoin:round; stroke-linecap:round;" d="M59.73 14.25c0.76 1.02 1.27 2.05 1.52 3.07c0.25 1.02 0.25 32.28 0.25 34.58c0 22.8-7.85 38.17-19.5 45.34"></path>
<path style="fill:none; fill-opacity:0%; fill-rule:evenodd; stroke:#aaaaaa; stroke-opacity:100%; stroke-width: 1.5pt; stroke-linejoin:round; stroke-linecap:round;" d="M78.87 11.25c1.09 0.5 1.74 2.25 1.96 3.25c0.22 1 0 77.25-0.22 83.5"></path>

<path style="fill:none; fill-opacity:0%; fill-rule:evenodd; stroke:#000000; stroke-opacity:100%; stroke-width: 3pt; stroke-linejoin:round; stroke-linecap:round;" d="M12.74 27.38c0.21 0.82 1.21 1.91 1.33 2.92c0.94 8.31 1.32 31.64 1.9 46.91"></path>
<path style="fill:none; fill-opacity:0%; fill-rule:evenodd; stroke:#000000; stroke-opacity:100%; stroke-width: 3pt; stroke-linejoin:round; stroke-linecap:round;" d="M14.22 29.2c7.26-0.65 18.71-2.27 24.13-2.94c1.99-0.25 3.01 2.18 2.91 4.4c-0.38 8.12-0.8 31.26-1.71 44.78"></path>
<text x="5" y="20" font-size="20" fill="#999999">3</text><path style="fill:none; fill-opacity:0%; fill-rule:evenodd; stroke:#CC0000; stroke-opacity:100%; stroke-width: 3pt; stroke-linejoin:round; stroke-linecap:round;" d="M26.8 29.5c0.45 0.56 1.03 2.32 1.04 2.99c0.21 11.25 0.09 32.08 0.09 38.72"  ></path>







</g><g transform="scale(1.3761467889908 1.3761467889908) translate(327, 0)">
<path style="fill:none; fill-rule:evenodd; stroke:#aaaaaa;  stroke-width:1pt; stroke-linecap:round;" d="m 109 0 L 0 0 L 0 109 L 109 109 L 109 0"></path><path style="fill:none; fill-opacity:0%; fill-rule:evenodd; stroke:#aaaaaa; stroke-opacity:100%; stroke-width: 1.5pt; stroke-linejoin:round; stroke-linecap:round;" d="M12.74 27.38c0.21 0.82 1.21 1.91 1.33 2.92c0.94 8.31 1.32 31.64 1.9 46.91"></path>
<path style="fill:none; fill-opacity:0%; fill-rule:evenodd; stroke:#aaaaaa; stroke-opacity:100%; stroke-width: 1.5pt; stroke-linejoin:round; stroke-linecap:round;" d="M14.22 29.2c7.26-0.65 18.71-2.27 24.13-2.94c1.99-0.25 3.01 2.18 2.91 4.4c-0.38 8.12-0.8 31.26-1.71 44.78"></path>
<path style="fill:none; fill-opacity:0%; fill-rule:evenodd; stroke:#aaaaaa; stroke-opacity:100%; stroke-width: 1.5pt; stroke-linejoin:round; stroke-linecap:round;" d="M26.8 29.5c0.45 0.56 1.03 2.32 1.04 2.99c0.21 11.25 0.09 32.08 0.09 38.72"></path>
<path style="fill:none; fill-opacity:0%; fill-rule:evenodd; stroke:#aaaaaa; stroke-opacity:100%; stroke-width: 1.5pt; stroke-linejoin:round; stroke-linecap:round;" d="M15.57 50.49c2.37-0.34 23.15-2.21 25.1-2.15"></path>
<path style="fill:none; fill-opacity:0%; fill-rule:evenodd; stroke:#aaaaaa; stroke-opacity:100%; stroke-width: 1.5pt; stroke-linejoin:round; stroke-linecap:round;" d="M16.34 73.45c5.23 0.14 15.98-1.34 23.2-1.37"></path>
<path style="fill:none; fill-opacity:0%; fill-rule:evenodd; stroke:#aaaaaa; stroke-opacity:100%; stroke-width: 1.5pt; stroke-linejoin:round; stroke-linecap:round;" d="M50 36.9c1.02 0.37 2.9 0.53 3.9 0.37C61.75 36 81 35 91.43 34.51c1.7-0.08 2.72 0.18 3.57 0.36"></path>
<path style="fill:none; fill-opacity:0%; fill-rule:evenodd; stroke:#aaaaaa; stroke-opacity:100%; stroke-width: 1.5pt; stroke-linejoin:round; stroke-linecap:round;" d="M46.75 63.7c1.52 0.54 4.3 0.62 5.82 0.54c9.43-0.49 29.18-2.74 41.11-2.73c2.53 0 4.05 0.26 5.31 0.53"></path>
<path style="fill:none; fill-opacity:0%; fill-rule:evenodd; stroke:#aaaaaa; stroke-opacity:100%; stroke-width: 1.5pt; stroke-linejoin:round; stroke-linecap:round;" d="M59.73 14.25c0.76 1.02 1.27 2.05 1.52 3.07c0.25 1.02 0.25 32.28 0.25 34.58c0 22.8-7.85 38.17-19.5 45.34"></path>
<path style="fill:none; fill-opacity:0%; fill-rule:evenodd; stroke:#aaaaaa; stroke-opacity:100%; stroke-width: 1.5pt; stroke-linejoin:round; stroke-linecap:round;" d="M78.87 11.25c1.09 0.5 1.74 2.25 1.96 3.25c0.22 1 0 77.25-0.22 83.5"></path>

<path style="fill:none; fill-opacity:0%; fill-rule:evenodd; stroke:#000000; stroke-opacity:100%; stroke-width: 3pt; stroke-linejoin:round; stroke-linecap:round;" d="M12.74 27.38c0.21 0.82 1.21 1.91 1.33 2.92c0.94 8.31 1.32 31.64 1.9 46.91"></path>
<path style="fill:none; fill-opacity:0%; fill-rule:evenodd; stroke:#000000; stroke-opacity:100%; stroke-width: 3pt; stroke-linejoin:round; stroke-linecap:round;" d="M14.22 29.2c7.26-0.65 18.71-2.27 24.13-2.94c1.99-0.25 3.01 2.18 2.91 4.4c-0.38 8.12-0.8 31.26-1.71 44.78"></path>
<path style="fill:none; fill-opacity:0%; fill-rule:evenodd; stroke:#000000; stroke-opacity:100%; stroke-width: 3pt; stroke-linejoin:round; stroke-linecap:round;" d="M26.8 29.5c0.45 0.56 1.03 2.32 1.04 2.99c0.21 11.25 0.09 32.08 0.09 38.72"></path>
<text x="5" y="20" font-size="20" fill="#999999">4</text><path style="fill:none; fill-opacity:0%; fill-rule:evenodd; stroke:#CC0000; stroke-opacity:100%; stroke-width: 3pt; stroke-linejoin:round; stroke-linecap:round;" d="M15.57 50.49c2.37-0.34 23.15-2.21 25.1-2.15"  ></path>






</g><g transform="scale(1.3761467889908 1.3761467889908) translate(436, 0)">
<path style="fill:none; fill-rule:evenodd; stroke:#aaaaaa;  stroke-width:1pt; stroke-linecap:round;" d="m 109 0 L 0 0 L 0 109 L 109 109 L 109 0"></path><path style="fill:none; fill-opacity:0%; fill-rule:evenodd; stroke:#aaaaaa; stroke-opacity:100%; stroke-width: 1.5pt; stroke-linejoin:round; stroke-linecap:round;" d="M12.74 27.38c0.21 0.82 1.21 1.91 1.33 2.92c0.94 8.31 1.32 31.64 1.9 46.91"></path>
<path style="fill:none; fill-opacity:0%; fill-rule:evenodd; stroke:#aaaaaa; stroke-opacity:100%; stroke-width: 1.5pt; stroke-linejoin:round; stroke-linecap:round;" d="M14.22 29.2c7.26-0.65 18.71-2.27 24.13-2.94c1.99-0.25 3.01 2.18 2.91 4.4c-0.38 8.12-0.8 31.26-1.71 44.78"></path>
<path style="fill:none; fill-opacity:0%; fill-rule:evenodd; stroke:#aaaaaa; stroke-opacity:100%; stroke-width: 1.5pt; stroke-linejoin:round; stroke-linecap:round;" d="M26.8 29.5c0.45 0.56 1.03 2.32 1.04 2.99c0.21 11.25 0.09 32.08 0.09 38.72"></path>
<path style="fill:none; fill-opacity:0%; fill-rule:evenodd; stroke:#aaaaaa; stroke-opacity:100%; stroke-width: 1.5pt; stroke-linejoin:round; stroke-linecap:round;" d="M15.57 50.49c2.37-0.34 23.15-2.21 25.1-2.15"></path>
<path style="fill:none; fill-opacity:0%; fill-rule:evenodd; stroke:#aaaaaa; stroke-opacity:100%; stroke-width: 1.5pt; stroke-linejoin:round; stroke-linecap:round;" d="M16.34 73.45c5.23 0.14 15.98-1.34 23.2-1.37"></path>
<path style="fill:none; fill-opacity:0%; fill-rule:evenodd; stroke:#aaaaaa; stroke-opacity:100%; stroke-width: 1.5pt; stroke-linejoin:round; stroke-linecap:round;" d="M50 36.9c1.02 0.37 2.9 0.53 3.9 0.37C61.75 36 81 35 91.43 34.51c1.7-0.08 2.72 0.18 3.57 0.36"></path>
<path style="fill:none; fill-opacity:0%; fill-rule:evenodd; stroke:#aaaaaa; stroke-opacity:100%; stroke-width: 1.5pt; stroke-linejoin:round; stroke-linecap:round;" d="M46.75 63.7c1.52 0.54 4.3 0.62 5.82 0.54c9.43-0.49 29.18-2.74 41.11-2.73c2.53 0 4.05 0.26 5.31 0.53"></path>
<path style="fill:none; fill-opacity:0%; fill-rule:evenodd; stroke:#aaaaaa; stroke-opacity:100%; stroke-width: 1.5pt; stroke-linejoin:round; stroke-linecap:round;" d="M59.73 14.25c0.76 1.02 1.27 2.05 1.52 3.07c0.25 1.02 0.25 32.28 0.25 34.58c0 22.8-7.85 38.17-19.5 45.34"></path>
<path style="fill:none; fill-opacity:0%; fill-rule:evenodd; stroke:#aaaaaa; stroke-opacity:100%; stroke-width: 1.5pt; stroke-linejoin:round; stroke-linecap:round;" d="M78.87 11.25c1.09 0.5 1.74 2.25 1.96 3.25c0.22 1 0 77.25-0.22 83.5"></path>

<path style="fill:none; fill-opacity:0%; fill-rule:evenodd; stroke:#000000; stroke-opacity:100%; stroke-width: 3pt; stroke-linejoin:round; stroke-linecap:round;" d="M12.74 27.38c0.21 0.82 1.21 1.91 1.33 2.92c0.94 8.31 1.32 31.64 1.9 46.91"></path>
<path style="fill:none; fill-opacity:0%; fill-rule:evenodd; stroke:#000000; stroke-opacity:100%; stroke-width: 3pt; stroke-linejoin:round; stroke-linecap:round;" d="M14.22 29.2c7.26-0.65 18.71-2.27 24.13-2.94c1.99-0.25 3.01 2.18 2.91 4.4c-0.38 8.12-0.8 31.26-1.71 44.78"></path>
<path style="fill:none; fill-opacity:0%; fill-rule:evenodd; stroke:#000000; stroke-opacity:100%; stroke-width: 3pt; stroke-linejoin:round; stroke-linecap:round;" d="M26.8 29.5c0.45 0.56 1.03 2.32 1.04 2.99c0.21 11.25 0.09 32.08 0.09 38.72"></path>
<path style="fill:none; fill-opacity:0%; fill-rule:evenodd; stroke:#000000; stroke-opacity:100%; stroke-width: 3pt; stroke-linejoin:round; stroke-linecap:round;" d="M15.57 50.49c2.37-0.34 23.15-2.21 25.1-2.15"></path>
<text x="5" y="20" font-size="20" fill="#999999">5</text><path style="fill:none; fill-opacity:0%; fill-rule:evenodd; stroke:#CC0000; stroke-opacity:100%; stroke-width: 3pt; stroke-linejoin:round; stroke-linecap:round;" d="M16.34 73.45c5.23 0.14 15.98-1.34 23.2-1.37"  ></path>





</g><g transform="scale(1.3761467889908 1.3761467889908) translate(0, 109)">
<path style="fill:none; fill-rule:evenodd; stroke:#aaaaaa;  stroke-width:1pt; stroke-linecap:round;" d="m 109 0 L 0 0 L 0 109 L 109 109 L 109 0"></path><path style="fill:none; fill-opacity:0%; fill-rule:evenodd; stroke:#aaaaaa; stroke-opacity:100%; stroke-width: 1.5pt; stroke-linejoin:round; stroke-linecap:round;" d="M12.74 27.38c0.21 0.82 1.21 1.91 1.33 2.92c0.94 8.31 1.32 31.64 1.9 46.91"></path>
<path style="fill:none; fill-opacity:0%; fill-rule:evenodd; stroke:#aaaaaa; stroke-opacity:100%; stroke-width: 1.5pt; stroke-linejoin:round; stroke-linecap:round;" d="M14.22 29.2c7.26-0.65 18.71-2.27 24.13-2.94c1.99-0.25 3.01 2.18 2.91 4.4c-0.38 8.12-0.8 31.26-1.71 44.78"></path>
<path style="fill:none; fill-opacity:0%; fill-rule:evenodd; stroke:#aaaaaa; stroke-opacity:100%; stroke-width: 1.5pt; stroke-linejoin:round; stroke-linecap:round;" d="M26.8 29.5c0.45 0.56 1.03 2.32 1.04 2.99c0.21 11.25 0.09 32.08 0.09 38.72"></path>
<path style="fill:none; fill-opacity:0%; fill-rule:evenodd; stroke:#aaaaaa; stroke-opacity:100%; stroke-width: 1.5pt; stroke-linejoin:round; stroke-linecap:round;" d="M15.57 50.49c2.37-0.34 23.15-2.21 25.1-2.15"></path>
<path style="fill:none; fill-opacity:0%; fill-rule:evenodd; stroke:#aaaaaa; stroke-opacity:100%; stroke-width: 1.5pt; stroke-linejoin:round; stroke-linecap:round;" d="M16.34 73.45c5.23 0.14 15.98-1.34 23.2-1.37"></path>
<path style="fill:none; fill-opacity:0%; fill-rule:evenodd; stroke:#aaaaaa; stroke-opacity:100%; stroke-width: 1.5pt; stroke-linejoin:round; stroke-linecap:round;" d="M50 36.9c1.02 0.37 2.9 0.53 3.9 0.37C61.75 36 81 35 91.43 34.51c1.7-0.08 2.72 0.18 3.57 0.36"></path>
<path style="fill:none; fill-opacity:0%; fill-rule:evenodd; stroke:#aaaaaa; stroke-opacity:100%; stroke-width: 1.5pt; stroke-linejoin:round; stroke-linecap:round;" d="M46.75 63.7c1.52 0.54 4.3 0.62 5.82 0.54c9.43-0.49 29.18-2.74 41.11-2.73c2.53 0 4.05 0.26 5.31 0.53"></path>
<path style="fill:none; fill-opacity:0%; fill-rule:evenodd; stroke:#aaaaaa; stroke-opacity:100%; stroke-width: 1.5pt; stroke-linejoin:round; stroke-linecap:round;" d="M59.73 14.25c0.76 1.02 1.27 2.05 1.52 3.07c0.25 1.02 0.25 32.28 0.25 34.58c0 22.8-7.85 38.17-19.5 45.34"></path>
<path style="fill:none; fill-opacity:0%; fill-rule:evenodd; stroke:#aaaaaa; stroke-opacity:100%; stroke-width: 1.5pt; stroke-linejoin:round; stroke-linecap:round;" d="M78.87 11.25c1.09 0.5 1.74 2.25 1.96 3.25c0.22 1 0 77.25-0.22 83.5"></path>

<path style="fill:none; fill-opacity:0%; fill-rule:evenodd; stroke:#000000; stroke-opacity:100%; stroke-width: 3pt; stroke-linejoin:round; stroke-linecap:round;" d="M12.74 27.38c0.21 0.82 1.21 1.91 1.33 2.92c0.94 8.31 1.32 31.64 1.9 46.91"></path>
<path style="fill:none; fill-opacity:0%; fill-rule:evenodd; stroke:#000000; stroke-opacity:100%; stroke-width: 3pt; stroke-linejoin:round; stroke-linecap:round;" d="M14.22 29.2c7.26-0.65 18.71-2.27 24.13-2.94c1.99-0.25 3.01 2.18 2.91 4.4c-0.38 8.12-0.8 31.26-1.71 44.78"></path>
<path style="fill:none; fill-opacity:0%; fill-rule:evenodd; stroke:#000000; stroke-opacity:100%; stroke-width: 3pt; stroke-linejoin:round; stroke-linecap:round;" d="M26.8 29.5c0.45 0.56 1.03 2.32 1.04 2.99c0.21 11.25 0.09 32.08 0.09 38.72"></path>
<path style="fill:none; fill-opacity:0%; fill-rule:evenodd; stroke:#000000; stroke-opacity:100%; stroke-width: 3pt; stroke-linejoin:round; stroke-linecap:round;" d="M15.57 50.49c2.37-0.34 23.15-2.21 25.1-2.15"></path>
<path style="fill:none; fill-opacity:0%; fill-rule:evenodd; stroke:#000000; stroke-opacity:100%; stroke-width: 3pt; stroke-linejoin:round; stroke-linecap:round;" d="M16.34 73.45c5.23 0.14 15.98-1.34 23.2-1.37"></path>
<text x="5" y="20" font-size="20" fill="#999999">6</text><path style="fill:none; fill-opacity:0%; fill-rule:evenodd; stroke:#CC0000; stroke-opacity:100%; stroke-width: 3pt; stroke-linejoin:round; stroke-linecap:round;" d="M50 36.9c1.02 0.37 2.9 0.53 3.9 0.37C61.75 36 81 35 91.43 34.51c1.7-0.08 2.72 0.18 3.57 0.36"  ></path>




</g><g transform="scale(1.3761467889908 1.3761467889908) translate(109, 109)">
<path style="fill:none; fill-rule:evenodd; stroke:#aaaaaa;  stroke-width:1pt; stroke-linecap:round;" d="m 109 0 L 0 0 L 0 109 L 109 109 L 109 0"></path><path style="fill:none; fill-opacity:0%; fill-rule:evenodd; stroke:#aaaaaa; stroke-opacity:100%; stroke-width: 1.5pt; stroke-linejoin:round; stroke-linecap:round;" d="M12.74 27.38c0.21 0.82 1.21 1.91 1.33 2.92c0.94 8.31 1.32 31.64 1.9 46.91"></path>
<path style="fill:none; fill-opacity:0%; fill-rule:evenodd; stroke:#aaaaaa; stroke-opacity:100%; stroke-width: 1.5pt; stroke-linejoin:round; stroke-linecap:round;" d="M14.22 29.2c7.26-0.65 18.71-2.27 24.13-2.94c1.99-0.25 3.01 2.18 2.91 4.4c-0.38 8.12-0.8 31.26-1.71 44.78"></path>
<path style="fill:none; fill-opacity:0%; fill-rule:evenodd; stroke:#aaaaaa; stroke-opacity:100%; stroke-width: 1.5pt; stroke-linejoin:round; stroke-linecap:round;" d="M26.8 29.5c0.45 0.56 1.03 2.32 1.04 2.99c0.21 11.25 0.09 32.08 0.09 38.72"></path>
<path style="fill:none; fill-opacity:0%; fill-rule:evenodd; stroke:#aaaaaa; stroke-opacity:100%; stroke-width: 1.5pt; stroke-linejoin:round; stroke-linecap:round;" d="M15.57 50.49c2.37-0.34 23.15-2.21 25.1-2.15"></path>
<path style="fill:none; fill-opacity:0%; fill-rule:evenodd; stroke:#aaaaaa; stroke-opacity:100%; stroke-width: 1.5pt; stroke-linejoin:round; stroke-linecap:round;" d="M16.34 73.45c5.23 0.14 15.98-1.34 23.2-1.37"></path>
<path style="fill:none; fill-opacity:0%; fill-rule:evenodd; stroke:#aaaaaa; stroke-opacity:100%; stroke-width: 1.5pt; stroke-linejoin:round; stroke-linecap:round;" d="M50 36.9c1.02 0.37 2.9 0.53 3.9 0.37C61.75 36 81 35 91.43 34.51c1.7-0.08 2.72 0.18 3.57 0.36"></path>
<path style="fill:none; fill-opacity:0%; fill-rule:evenodd; stroke:#aaaaaa; stroke-opacity:100%; stroke-width: 1.5pt; stroke-linejoin:round; stroke-linecap:round;" d="M46.75 63.7c1.52 0.54 4.3 0.62 5.82 0.54c9.43-0.49 29.18-2.74 41.11-2.73c2.53 0 4.05 0.26 5.31 0.53"></path>
<path style="fill:none; fill-opacity:0%; fill-rule:evenodd; stroke:#aaaaaa; stroke-opacity:100%; stroke-width: 1.5pt; stroke-linejoin:round; stroke-linecap:round;" d="M59.73 14.25c0.76 1.02 1.27 2.05 1.52 3.07c0.25 1.02 0.25 32.28 0.25 34.58c0 22.8-7.85 38.17-19.5 45.34"></path>
<path style="fill:none; fill-opacity:0%; fill-rule:evenodd; stroke:#aaaaaa; stroke-opacity:100%; stroke-width: 1.5pt; stroke-linejoin:round; stroke-linecap:round;" d="M78.87 11.25c1.09 0.5 1.74 2.25 1.96 3.25c0.22 1 0 77.25-0.22 83.5"></path>

<path style="fill:none; fill-opacity:0%; fill-rule:evenodd; stroke:#000000; stroke-opacity:100%; stroke-width: 3pt; stroke-linejoin:round; stroke-linecap:round;" d="M12.74 27.38c0.21 0.82 1.21 1.91 1.33 2.92c0.94 8.31 1.32 31.64 1.9 46.91"></path>
<path style="fill:none; fill-opacity:0%; fill-rule:evenodd; stroke:#000000; stroke-opacity:100%; stroke-width: 3pt; stroke-linejoin:round; stroke-linecap:round;" d="M14.22 29.2c7.26-0.65 18.71-2.27 24.13-2.94c1.99-0.25 3.01 2.18 2.91 4.4c-0.38 8.12-0.8 31.26-1.71 44.78"></path>
<path style="fill:none; fill-opacity:0%; fill-rule:evenodd; stroke:#000000; stroke-opacity:100%; stroke-width: 3pt; stroke-linejoin:round; stroke-linecap:round;" d="M26.8 29.5c0.45 0.56 1.03 2.32 1.04 2.99c0.21 11.25 0.09 32.08 0.09 38.72"></path>
<path style="fill:none; fill-opacity:0%; fill-rule:evenodd; stroke:#000000; stroke-opacity:100%; stroke-width: 3pt; stroke-linejoin:round; stroke-linecap:round;" d="M15.57 50.49c2.37-0.34 23.15-2.21 25.1-2.15"></path>
<path style="fill:none; fill-opacity:0%; fill-rule:evenodd; stroke:#000000; stroke-opacity:100%; stroke-width: 3pt; stroke-linejoin:round; stroke-linecap:round;" d="M16.34 73.45c5.23 0.14 15.98-1.34 23.2-1.37"></path>
<path style="fill:none; fill-opacity:0%; fill-rule:evenodd; stroke:#000000; stroke-opacity:100%; stroke-width: 3pt; stroke-linejoin:round; stroke-linecap:round;" d="M50 36.9c1.02 0.37 2.9 0.53 3.9 0.37C61.75 36 81 35 91.43 34.51c1.7-0.08 2.72 0.18 3.57 0.36"></path>
<text x="5" y="20" font-size="20" fill="#999999">7</text><path style="fill:none; fill-opacity:0%; fill-rule:evenodd; stroke:#CC0000; stroke-opacity:100%; stroke-width: 3pt; stroke-linejoin:round; stroke-linecap:round;" d="M46.75 63.7c1.52 0.54 4.3 0.62 5.82 0.54c9.43-0.49 29.18-2.74 41.11-2.73c2.53 0 4.05 0.26 5.31 0.53"  ></path>



</g><g transform="scale(1.3761467889908 1.3761467889908) translate(218, 109)">
<path style="fill:none; fill-rule:evenodd; stroke:#aaaaaa;  stroke-width:1pt; stroke-linecap:round;" d="m 109 0 L 0 0 L 0 109 L 109 109 L 109 0"></path><path style="fill:none; fill-opacity:0%; fill-rule:evenodd; stroke:#aaaaaa; stroke-opacity:100%; stroke-width: 1.5pt; stroke-linejoin:round; stroke-linecap:round;" d="M12.74 27.38c0.21 0.82 1.21 1.91 1.33 2.92c0.94 8.31 1.32 31.64 1.9 46.91"></path>
<path style="fill:none; fill-opacity:0%; fill-rule:evenodd; stroke:#aaaaaa; stroke-opacity:100%; stroke-width: 1.5pt; stroke-linejoin:round; stroke-linecap:round;" d="M14.22 29.2c7.26-0.65 18.71-2.27 24.13-2.94c1.99-0.25 3.01 2.18 2.91 4.4c-0.38 8.12-0.8 31.26-1.71 44.78"></path>
<path style="fill:none; fill-opacity:0%; fill-rule:evenodd; stroke:#aaaaaa; stroke-opacity:100%; stroke-width: 1.5pt; stroke-linejoin:round; stroke-linecap:round;" d="M26.8 29.5c0.45 0.56 1.03 2.32 1.04 2.99c0.21 11.25 0.09 32.08 0.09 38.72"></path>
<path style="fill:none; fill-opacity:0%; fill-rule:evenodd; stroke:#aaaaaa; stroke-opacity:100%; stroke-width: 1.5pt; stroke-linejoin:round; stroke-linecap:round;" d="M15.57 50.49c2.37-0.34 23.15-2.21 25.1-2.15"></path>
<path style="fill:none; fill-opacity:0%; fill-rule:evenodd; stroke:#aaaaaa; stroke-opacity:100%; stroke-width: 1.5pt; stroke-linejoin:round; stroke-linecap:round;" d="M16.34 73.45c5.23 0.14 15.98-1.34 23.2-1.37"></path>
<path style="fill:none; fill-opacity:0%; fill-rule:evenodd; stroke:#aaaaaa; stroke-opacity:100%; stroke-width: 1.5pt; stroke-linejoin:round; stroke-linecap:round;" d="M50 36.9c1.02 0.37 2.9 0.53 3.9 0.37C61.75 36 81 35 91.43 34.51c1.7-0.08 2.72 0.18 3.57 0.36"></path>
<path style="fill:none; fill-opacity:0%; fill-rule:evenodd; stroke:#aaaaaa; stroke-opacity:100%; stroke-width: 1.5pt; stroke-linejoin:round; stroke-linecap:round;" d="M46.75 63.7c1.52 0.54 4.3 0.62 5.82 0.54c9.43-0.49 29.18-2.74 41.11-2.73c2.53 0 4.05 0.26 5.31 0.53"></path>
<path style="fill:none; fill-opacity:0%; fill-rule:evenodd; stroke:#aaaaaa; stroke-opacity:100%; stroke-width: 1.5pt; stroke-linejoin:round; stroke-linecap:round;" d="M59.73 14.25c0.76 1.02 1.27 2.05 1.52 3.07c0.25 1.02 0.25 32.28 0.25 34.58c0 22.8-7.85 38.17-19.5 45.34"></path>
<path style="fill:none; fill-opacity:0%; fill-rule:evenodd; stroke:#aaaaaa; stroke-opacity:100%; stroke-width: 1.5pt; stroke-linejoin:round; stroke-linecap:round;" d="M78.87 11.25c1.09 0.5 1.74 2.25 1.96 3.25c0.22 1 0 77.25-0.22 83.5"></path>

<path style="fill:none; fill-opacity:0%; fill-rule:evenodd; stroke:#000000; stroke-opacity:100%; stroke-width: 3pt; stroke-linejoin:round; stroke-linecap:round;" d="M12.74 27.38c0.21 0.82 1.21 1.91 1.33 2.92c0.94 8.31 1.32 31.64 1.9 46.91"></path>
<path style="fill:none; fill-opacity:0%; fill-rule:evenodd; stroke:#000000; stroke-opacity:100%; stroke-width: 3pt; stroke-linejoin:round; stroke-linecap:round;" d="M14.22 29.2c7.26-0.65 18.71-2.27 24.13-2.94c1.99-0.25 3.01 2.18 2.91 4.4c-0.38 8.12-0.8 31.26-1.71 44.78"></path>
<path style="fill:none; fill-opacity:0%; fill-rule:evenodd; stroke:#000000; stroke-opacity:100%; stroke-width: 3pt; stroke-linejoin:round; stroke-linecap:round;" d="M26.8 29.5c0.45 0.56 1.03 2.32 1.04 2.99c0.21 11.25 0.09 32.08 0.09 38.72"></path>
<path style="fill:none; fill-opacity:0%; fill-rule:evenodd; stroke:#000000; stroke-opacity:100%; stroke-width: 3pt; stroke-linejoin:round; stroke-linecap:round;" d="M15.57 50.49c2.37-0.34 23.15-2.21 25.1-2.15"></path>
<path style="fill:none; fill-opacity:0%; fill-rule:evenodd; stroke:#000000; stroke-opacity:100%; stroke-width: 3pt; stroke-linejoin:round; stroke-linecap:round;" d="M16.34 73.45c5.23 0.14 15.98-1.34 23.2-1.37"></path>
<path style="fill:none; fill-opacity:0%; fill-rule:evenodd; stroke:#000000; stroke-opacity:100%; stroke-width: 3pt; stroke-linejoin:round; stroke-linecap:round;" d="M50 36.9c1.02 0.37 2.9 0.53 3.9 0.37C61.75 36 81 35 91.43 34.51c1.7-0.08 2.72 0.18 3.57 0.36"></path>
<path style="fill:none; fill-opacity:0%; fill-rule:evenodd; stroke:#000000; stroke-opacity:100%; stroke-width: 3pt; stroke-linejoin:round; stroke-linecap:round;" d="M46.75 63.7c1.52 0.54 4.3 0.62 5.82 0.54c9.43-0.49 29.18-2.74 41.11-2.73c2.53 0 4.05 0.26 5.31 0.53"></path>
<text x="5" y="20" font-size="20" fill="#999999">8</text><path style="fill:none; fill-opacity:0%; fill-rule:evenodd; stroke:#CC0000; stroke-opacity:100%; stroke-width: 3pt; stroke-linejoin:round; stroke-linecap:round;" d="M59.73 14.25c0.76 1.02 1.27 2.05 1.52 3.07c0.25 1.02 0.25 32.28 0.25 34.58c0 22.8-7.85 38.17-19.5 45.34"  ></path>


</g><g transform="scale(1.3761467889908 1.3761467889908) translate(327, 109)">
<path style="fill:none; fill-rule:evenodd; stroke:#aaaaaa;  stroke-width:1pt; stroke-linecap:round;" d="m 109 0 L 0 0 L 0 109 L 109 109 L 109 0"></path><path style="fill:none; fill-opacity:0%; fill-rule:evenodd; stroke:#aaaaaa; stroke-opacity:100%; stroke-width: 1.5pt; stroke-linejoin:round; stroke-linecap:round;" d="M12.74 27.38c0.21 0.82 1.21 1.91 1.33 2.92c0.94 8.31 1.32 31.64 1.9 46.91"></path>
<path style="fill:none; fill-opacity:0%; fill-rule:evenodd; stroke:#aaaaaa; stroke-opacity:100%; stroke-width: 1.5pt; stroke-linejoin:round; stroke-linecap:round;" d="M14.22 29.2c7.26-0.65 18.71-2.27 24.13-2.94c1.99-0.25 3.01 2.18 2.91 4.4c-0.38 8.12-0.8 31.26-1.71 44.78"></path>
<path style="fill:none; fill-opacity:0%; fill-rule:evenodd; stroke:#aaaaaa; stroke-opacity:100%; stroke-width: 1.5pt; stroke-linejoin:round; stroke-linecap:round;" d="M26.8 29.5c0.45 0.56 1.03 2.32 1.04 2.99c0.21 11.25 0.09 32.08 0.09 38.72"></path>
<path style="fill:none; fill-opacity:0%; fill-rule:evenodd; stroke:#aaaaaa; stroke-opacity:100%; stroke-width: 1.5pt; stroke-linejoin:round; stroke-linecap:round;" d="M15.57 50.49c2.37-0.34 23.15-2.21 25.1-2.15"></path>
<path style="fill:none; fill-opacity:0%; fill-rule:evenodd; stroke:#aaaaaa; stroke-opacity:100%; stroke-width: 1.5pt; stroke-linejoin:round; stroke-linecap:round;" d="M16.34 73.45c5.23 0.14 15.98-1.34 23.2-1.37"></path>
<path style="fill:none; fill-opacity:0%; fill-rule:evenodd; stroke:#aaaaaa; stroke-opacity:100%; stroke-width: 1.5pt; stroke-linejoin:round; stroke-linecap:round;" d="M50 36.9c1.02 0.37 2.9 0.53 3.9 0.37C61.75 36 81 35 91.43 34.51c1.7-0.08 2.72 0.18 3.57 0.36"></path>
<path style="fill:none; fill-opacity:0%; fill-rule:evenodd; stroke:#aaaaaa; stroke-opacity:100%; stroke-width: 1.5pt; stroke-linejoin:round; stroke-linecap:round;" d="M46.75 63.7c1.52 0.54 4.3 0.62 5.82 0.54c9.43-0.49 29.18-2.74 41.11-2.73c2.53 0 4.05 0.26 5.31 0.53"></path>
<path style="fill:none; fill-opacity:0%; fill-rule:evenodd; stroke:#aaaaaa; stroke-opacity:100%; stroke-width: 1.5pt; stroke-linejoin:round; stroke-linecap:round;" d="M59.73 14.25c0.76 1.02 1.27 2.05 1.52 3.07c0.25 1.02 0.25 32.28 0.25 34.58c0 22.8-7.85 38.17-19.5 45.34"></path>
<path style="fill:none; fill-opacity:0%; fill-rule:evenodd; stroke:#aaaaaa; stroke-opacity:100%; stroke-width: 1.5pt; stroke-linejoin:round; stroke-linecap:round;" d="M78.87 11.25c1.09 0.5 1.74 2.25 1.96 3.25c0.22 1 0 77.25-0.22 83.5"></path>

<path style="fill:none; fill-opacity:0%; fill-rule:evenodd; stroke:#000000; stroke-opacity:100%; stroke-width: 3pt; stroke-linejoin:round; stroke-linecap:round;" d="M12.74 27.38c0.21 0.82 1.21 1.91 1.33 2.92c0.94 8.31 1.32 31.64 1.9 46.91"></path>
<path style="fill:none; fill-opacity:0%; fill-rule:evenodd; stroke:#000000; stroke-opacity:100%; stroke-width: 3pt; stroke-linejoin:round; stroke-linecap:round;" d="M14.22 29.2c7.26-0.65 18.71-2.27 24.13-2.94c1.99-0.25 3.01 2.18 2.91 4.4c-0.38 8.12-0.8 31.26-1.71 44.78"></path>
<path style="fill:none; fill-opacity:0%; fill-rule:evenodd; stroke:#000000; stroke-opacity:100%; stroke-width: 3pt; stroke-linejoin:round; stroke-linecap:round;" d="M26.8 29.5c0.45 0.56 1.03 2.32 1.04 2.99c0.21 11.25 0.09 32.08 0.09 38.72"></path>
<path style="fill:none; fill-opacity:0%; fill-rule:evenodd; stroke:#000000; stroke-opacity:100%; stroke-width: 3pt; stroke-linejoin:round; stroke-linecap:round;" d="M15.57 50.49c2.37-0.34 23.15-2.21 25.1-2.15"></path>
<path style="fill:none; fill-opacity:0%; fill-rule:evenodd; stroke:#000000; stroke-opacity:100%; stroke-width: 3pt; stroke-linejoin:round; stroke-linecap:round;" d="M16.34 73.45c5.23 0.14 15.98-1.34 23.2-1.37"></path>
<path style="fill:none; fill-opacity:0%; fill-rule:evenodd; stroke:#000000; stroke-opacity:100%; stroke-width: 3pt; stroke-linejoin:round; stroke-linecap:round;" d="M50 36.9c1.02 0.37 2.9 0.53 3.9 0.37C61.75 36 81 35 91.43 34.51c1.7-0.08 2.72 0.18 3.57 0.36"></path>
<path style="fill:none; fill-opacity:0%; fill-rule:evenodd; stroke:#000000; stroke-opacity:100%; stroke-width: 3pt; stroke-linejoin:round; stroke-linecap:round;" d="M46.75 63.7c1.52 0.54 4.3 0.62 5.82 0.54c9.43-0.49 29.18-2.74 41.11-2.73c2.53 0 4.05 0.26 5.31 0.53"></path>
<path style="fill:none; fill-opacity:0%; fill-rule:evenodd; stroke:#000000; stroke-opacity:100%; stroke-width: 3pt; stroke-linejoin:round; stroke-linecap:round;" d="M59.73 14.25c0.76 1.02 1.27 2.05 1.52 3.07c0.25 1.02 0.25 32.28 0.25 34.58c0 22.8-7.85 38.17-19.5 45.34"></path>
<text x="5" y="20" font-size="20" fill="#999999">9</text><path style="fill:none; fill-opacity:0%; fill-rule:evenodd; stroke:#CC0000; stroke-opacity:100%; stroke-width: 3pt; stroke-linejoin:round; stroke-linecap:round;" d="M78.87 11.25c1.09 0.5 1.74 2.25 1.96 3.25c0.22 1 0 77.25-0.22 83.5"  ></path>

</g>

</svg>  
          
