<?xml version="1.0" standalone="no"?>
<!DOCTYPE svg PUBLIC "-//W3C//DTD SVG 1.1//EN"   "http://www.w3.org/Graphics/SVG/1.1/DTD/svg11.dtd">
<svg width="751" height="301"  version="1.1" xmlns="http://www.w3.org/2000/svg">
  <defs>
    <marker id="Triangle" viewBox="0 0 10 10" refX="0" refY="5" markerUnits="strokeWidth" markerWidth="3" style="stroke-opacity:0%;fill:#aaaaaa;" markerHeight="2" orient="auto">
      <path d="M 0 0 L 10 5 L 0 10 z" />
    </marker>
    
    <marker id="Arrow" viewBox="0 0 10 10" refX="5" refY="5" markerUnits="strokeWidth" markerWidth="1.8" style="stroke-opacity:0%;fill:#770000;" markerHeight="2" orient="auto">
      <path d="M 0 4 L 6 4 L 4 1 L 10 5 L 4 9 L 6 6 L 0 6 z" />
        <circle cx="5" cy="5" r="5" />
      </marker>
    
    <marker id="TriangleRed" viewBox="0 0 10 10" refX="0" refY="5" markerUnits="strokeWidth" markerWidth="3" style="stroke-opacity:0%;fill:#CC0000;" markerHeight="2" orient="auto">
      <path d="M 0 0 L 10 5 L 0 10 z" />
    </marker>
    
    <marker id="ArrowRed" viewBox="0 0 10 10" refX="5" refY="5" markerUnits="strokeWidth" markerWidth="1.8" style="stroke-opacity:0%;fill:#CC0000;" markerHeight="2" orient="auto">
      <path d="M 0 4 L 6 4 L 4 1 L 10 5 L 4 9 L 6 6 L 0 6 z" />
        <circle cx="5" cy="5" r="5" />
      </marker>
    
  </defs>
  
  <path style="fill:#ffffff; fill-opacity:100%; fill-rule:evenodd; stroke-width:0;" d="M 0 0 L 751 0 L 751 301 L 0 301 L 0 0" />

  <g transform="scale(1.3761467889908 1.3761467889908) translate(0, 0)">
<path style="fill:none; fill-rule:evenodd; stroke:#aaaaaa;  stroke-width:1pt; stroke-linecap:round;" d="m 109 0 L 0 0 L 0 109 L 109 109 L 109 0"></path><path style="fill:none; fill-opacity:0%; fill-rule:evenodd; stroke:#aaaaaa; stroke-opacity:100%; stroke-width: 1.5pt; stroke-linejoin:round; stroke-linecap:round;" d="M53.36 11.5c1.13 1.13 1.73 2.25 1.73 4.41c0 2.59-0.09 3.46-0.09 7.59"></path>
<path style="fill:none; fill-opacity:0%; fill-rule:evenodd; stroke:#aaaaaa; stroke-opacity:100%; stroke-width: 1.5pt; stroke-linejoin:round; stroke-linecap:round;" d="M16 26.61c3.5 0.64 6.43 0.49 9.87 0.19c13.69-1.19 44.41-3.03 60.51-3.91c2.99-0.16 6.49-0.14 8.87 0.51"></path>
<path style="fill:none; fill-opacity:0%; fill-rule:evenodd; stroke:#aaaaaa; stroke-opacity:100%; stroke-width: 1.5pt; stroke-linejoin:round; stroke-linecap:round;" d="M49.92 26.12c0.21 0.88 0.08 1.93-0.67 2.73c-2.41 2.56-4.5 4.4-8.22 7.83c-1.64 1.51-2.22 2.99 0.07 4.01c3.78 1.68 6.03 2.56 9.27 4.63"></path>
<path style="fill:none; fill-opacity:0%; fill-rule:evenodd; stroke:#aaaaaa; stroke-opacity:100%; stroke-width: 1.5pt; stroke-linejoin:round; stroke-linecap:round;" d="M67.16 32.15c0.21 1.1-0.34 2.21-0.97 2.75c-9.33 7.92-14.71 12.6-29.32 22.15c-2.99 1.95-3.59 3.32 0.53 2.43c13.77-2.96 21.23-4.48 34.92-7.06"></path>
<path style="fill:none; fill-opacity:0%; fill-rule:evenodd; stroke:#aaaaaa; stroke-opacity:100%; stroke-width: 1.5pt; stroke-linejoin:round; stroke-linecap:round;" d="M68.5 46.5c3.43 2.31 8.85 9.51 9.71 13.12"></path>
<path style="fill:none; fill-opacity:0%; fill-rule:evenodd; stroke:#aaaaaa; stroke-opacity:100%; stroke-width: 1.5pt; stroke-linejoin:round; stroke-linecap:round;" d="M29.41 68.48c0.87 0.87 1.27 1.76 1.48 3.02c1.24 7.75 2.13 13.95 2.93 20.99c0.18 1.62 0.35 3.19 0.51 4.68"></path>
<path style="fill:none; fill-opacity:0%; fill-rule:evenodd; stroke:#aaaaaa; stroke-opacity:100%; stroke-width: 1.5pt; stroke-linejoin:round; stroke-linecap:round;" d="M31.5 69.93C42.91 69.3 60.66 68 72.25 67.61c4.42-0.15 6.72 0.53 6 5.38c-0.63 4.18-1.78 9.99-3.08 16.83c-0.38 2.01-0.67 3.55-1.22 5.89"></path>
<path style="fill:none; fill-opacity:0%; fill-rule:evenodd; stroke:#aaaaaa; stroke-opacity:100%; stroke-width: 1.5pt; stroke-linejoin:round; stroke-linecap:round;" d="M52.78 69.84c0.81 0.81 1.14 1.78 1.14 3.31c0 6.75 0.01 14.1 0.01 19.53"></path>
<path style="fill:none; fill-opacity:0%; fill-rule:evenodd; stroke:#aaaaaa; stroke-opacity:100%; stroke-width: 1.5pt; stroke-linejoin:round; stroke-linecap:round;" d="M33.95 81.84C44.5 81.38 67 80.38 75.27 80.36"></path>
<path style="fill:none; fill-opacity:0%; fill-rule:evenodd; stroke:#aaaaaa; stroke-opacity:100%; stroke-width: 1.5pt; stroke-linejoin:round; stroke-linecap:round;" d="M35.19 94.42c10.93-0.54 26.88-1.17 38.76-1.47"></path>

<text x="5" y="20" font-size="20" fill="#999999">1</text><path style="fill:none; fill-opacity:0%; fill-rule:evenodd; stroke:#CC0000; stroke-opacity:100%; stroke-width: 3pt; stroke-linejoin:round; stroke-linecap:round;" d="M53.36 11.5c1.13 1.13 1.73 2.25 1.73 4.41c0 2.59-0.09 3.46-0.09 7.59"  ></path>










</g><g transform="scale(1.3761467889908 1.3761467889908) translate(109, 0)">
<path style="fill:none; fill-rule:evenodd; stroke:#aaaaaa;  stroke-width:1pt; stroke-linecap:round;" d="m 109 0 L 0 0 L 0 109 L 109 109 L 109 0"></path><path style="fill:none; fill-opacity:0%; fill-rule:evenodd; stroke:#aaaaaa; stroke-opacity:100%; stroke-width: 1.5pt; stroke-linejoin:round; stroke-linecap:round;" d="M53.36 11.5c1.13 1.13 1.73 2.25 1.73 4.41c0 2.59-0.09 3.46-0.09 7.59"></path>
<path style="fill:none; fill-opacity:0%; fill-rule:evenodd; stroke:#aaaaaa; stroke-opacity:100%; stroke-width: 1.5pt; stroke-linejoin:round; stroke-linecap:round;" d="M16 26.61c3.5 0.64 6.43 0.49 9.87 0.19c13.69-1.19 44.41-3.03 60.51-3.91c2.99-0.16 6.49-0.14 8.87 0.51"></path>
<path style="fill:none; fill-opacity:0%; fill-rule:evenodd; stroke:#aaaaaa; stroke-opacity:100%; stroke-width: 1.5pt; stroke-linejoin:round; stroke-linecap:round;" d="M49.92 26.12c0.21 0.88 0.08 1.93-0.67 2.73c-2.41 2.56-4.5 4.4-8.22 7.83c-1.64 1.51-2.22 2.99 0.07 4.01c3.78 1.68 6.03 2.56 9.27 4.63"></path>
<path style="fill:none; fill-opacity:0%; fill-rule:evenodd; stroke:#aaaaaa; stroke-opacity:100%; stroke-width: 1.5pt; stroke-linejoin:round; stroke-linecap:round;" d="M67.16 32.15c0.21 1.1-0.34 2.21-0.97 2.75c-9.33 7.92-14.71 12.6-29.32 22.15c-2.99 1.95-3.59 3.32 0.53 2.43c13.77-2.96 21.23-4.48 34.92-7.06"></path>
<path style="fill:none; fill-opacity:0%; fill-rule:evenodd; stroke:#aaaaaa; stroke-opacity:100%; stroke-width: 1.5pt; stroke-linejoin:round; stroke-linecap:round;" d="M68.5 46.5c3.43 2.31 8.85 9.51 9.71 13.12"></path>
<path style="fill:none; fill-opacity:0%; fill-rule:evenodd; stroke:#aaaaaa; stroke-opacity:100%; stroke-width: 1.5pt; stroke-linejoin:round; stroke-linecap:round;" d="M29.41 68.48c0.87 0.87 1.27 1.76 1.48 3.02c1.24 7.75 2.13 13.95 2.93 20.99c0.18 1.62 0.35 3.19 0.51 4.68"></path>
<path style="fill:none; fill-opacity:0%; fill-rule:evenodd; stroke:#aaaaaa; stroke-opacity:100%; stroke-width: 1.5pt; stroke-linejoin:round; stroke-linecap:round;" d="M31.5 69.93C42.91 69.3 60.66 68 72.25 67.61c4.42-0.15 6.72 0.53 6 5.38c-0.63 4.18-1.78 9.99-3.08 16.83c-0.38 2.01-0.67 3.55-1.22 5.89"></path>
<path style="fill:none; fill-opacity:0%; fill-rule:evenodd; stroke:#aaaaaa; stroke-opacity:100%; stroke-width: 1.5pt; stroke-linejoin:round; stroke-linecap:round;" d="M52.78 69.84c0.81 0.81 1.14 1.78 1.14 3.31c0 6.75 0.01 14.1 0.01 19.53"></path>
<path style="fill:none; fill-opacity:0%; fill-rule:evenodd; stroke:#aaaaaa; stroke-opacity:100%; stroke-width: 1.5pt; stroke-linejoin:round; stroke-linecap:round;" d="M33.95 81.84C44.5 81.38 67 80.38 75.27 80.36"></path>
<path style="fill:none; fill-opacity:0%; fill-rule:evenodd; stroke:#aaaaaa; stroke-opacity:100%; stroke-width: 1.5pt; stroke-linejoin:round; stroke-linecap:round;" d="M35.19 94.42c10.93-0.54 26.88-1.17 38.76-1.47"></path>

<path style="fill:none; fill-opacity:0%; fill-rule:evenodd; stroke:#000000; stroke-opacity:100%; stroke-width: 3pt; stroke-linejoin:round; stroke-linecap:round;" d="M53.36 11.5c1.13 1.13 1.73 2.25 1.73 4.41c0 2.59-0.09 3.46-0.09 7.59"></path>
<text x="5" y="20" font-size="20" fill="#999999">2</text><path style="fill:none; fill-opacity:0%; fill-rule:evenodd; stroke:#CC0000; stroke-opacity:100%; stroke-width: 3pt; stroke-linejoin:round; stroke-linecap:round;" d="M16 26.61c3.5 0.64 6.43 0.49 9.87 0.19c13.69-1.19 44.41-3.03 60.51-3.91c2.99-0.16 6.49-0.14 8.87 0.51"  ></path>









</g><g transform="scale(1.3761467889908 1.3761467889908) translate(218, 0)">
<path style="fill:none; fill-rule:evenodd; stroke:#aaaaaa;  stroke-width:1pt; stroke-linecap:round;" d="m 109 0 L 0 0 L 0 109 L 109 109 L 109 0"></path><path style="fill:none; fill-opacity:0%; fill-rule:evenodd; stroke:#aaaaaa; stroke-opacity:100%; stroke-width: 1.5pt; stroke-linejoin:round; stroke-linecap:round;" d="M53.36 11.5c1.13 1.13 1.73 2.25 1.73 4.41c0 2.59-0.09 3.46-0.09 7.59"></path>
<path style="fill:none; fill-opacity:0%; fill-rule:evenodd; stroke:#aaaaaa; stroke-opacity:100%; stroke-width: 1.5pt; stroke-linejoin:round; stroke-linecap:round;" d="M16 26.61c3.5 0.64 6.43 0.49 9.87 0.19c13.69-1.19 44.41-3.03 60.51-3.91c2.99-0.16 6.49-0.14 8.87 0.51"></path>
<path style="fill:none; fill-opacity:0%; fill-rule:evenodd; stroke:#aaaaaa; stroke-opacity:100%; stroke-width: 1.5pt; stroke-linejoin:round; stroke-linecap:round;" d="M49.92 26.12c0.21 0.88 0.08 1.93-0.67 2.73c-2.41 2.56-4.5 4.4-8.22 7.83c-1.64 1.51-2.22 2.99 0.07 4.01c3.78 1.68 6.03 2.56 9.27 4.63"></path>
<path style="fill:none; fill-opacity:0%; fill-rule:evenodd; stroke:#aaaaaa; stroke-opacity:100%; stroke-width: 1.5pt; stroke-linejoin:round; stroke-linecap:round;" d="M67.16 32.15c0.21 1.1-0.34 2.21-0.97 2.75c-9.33 7.92-14.71 12.6-29.32 22.15c-2.99 1.95-3.59 3.32 0.53 2.43c13.77-2.96 21.23-4.48 34.92-7.06"></path>
<path style="fill:none; fill-opacity:0%; fill-rule:evenodd; stroke:#aaaaaa; stroke-opacity:100%; stroke-width: 1.5pt; stroke-linejoin:round; stroke-linecap:round;" d="M68.5 46.5c3.43 2.31 8.85 9.51 9.71 13.12"></path>
<path style="fill:none; fill-opacity:0%; fill-rule:evenodd; stroke:#aaaaaa; stroke-opacity:100%; stroke-width: 1.5pt; stroke-linejoin:round; stroke-linecap:round;" d="M29.41 68.48c0.87 0.87 1.27 1.76 1.48 3.02c1.24 7.75 2.13 13.95 2.93 20.99c0.18 1.62 0.35 3.19 0.51 4.68"></path>
<path style="fill:none; fill-opacity:0%; fill-rule:evenodd; stroke:#aaaaaa; stroke-opacity:100%; stroke-width: 1.5pt; stroke-linejoin:round; stroke-linecap:round;" d="M31.5 69.93C42.91 69.3 60.66 68 72.25 67.61c4.42-0.15 6.72 0.53 6 5.38c-0.63 4.18-1.78 9.99-3.08 16.83c-0.38 2.01-0.67 3.55-1.22 5.89"></path>
<path style="fill:none; fill-opacity:0%; fill-rule:evenodd; stroke:#aaaaaa; stroke-opacity:100%; stroke-width: 1.5pt; stroke-linejoin:round; stroke-linecap:round;" d="M52.78 69.84c0.81 0.81 1.14 1.78 1.14 3.31c0 6.75 0.01 14.1 0.01 19.53"></path>
<path style="fill:none; fill-opacity:0%; fill-rule:evenodd; stroke:#aaaaaa; stroke-opacity:100%; stroke-width: 1.5pt; stroke-linejoin:round; stroke-linecap:round;" d="M33.95 81.84C44.5 81.38 67 80.38 75.27 80.36"></path>
<path style="fill:none; fill-opacity:0%; fill-rule:evenodd; stroke:#aaaaaa; stroke-opacity:100%; stroke-width: 1.5pt; stroke-linejoin:round; stroke-linecap:round;" d="M35.19 94.42c10.93-0.54 26.88-1.17 38.76-1.47"></path>

<path style="fill:none; fill-opacity:0%; fill-rule:evenodd; stroke:#000000; stroke-opacity:100%; stroke-width: 3pt; stroke-linejoin:round; stroke-linecap:round;" d="M53.36 11.5c1.13 1.13 1.73 2.25 1.73 4.41c0 2.59-0.09 3.46-0.09 7.59"></path>
<path style="fill:none; fill-opacity:0%; fill-rule:evenodd; stroke:#000000; stroke-opacity:100%; stroke-width: 3pt; stroke-linejoin:round; stroke-linecap:round;" d="M16 26.61c3.5 0.64 6.43 0.49 9.87 0.19c13.69-1.19 44.41-3.03 60.51-3.91c2.99-0.16 6.49-0.14 8.87 0.51"></path>
<text x="5" y="20" font-size="20" fill="#999999">3</text><path style="fill:none; fill-opacity:0%; fill-rule:evenodd; stroke:#CC0000; stroke-opacity:100%; stroke-width: 3pt; stroke-linejoin:round; stroke-linecap:round;" d="M49.92 26.12c0.21 0.88 0.08 1.93-0.67 2.73c-2.41 2.56-4.5 4.4-8.22 7.83c-1.64 1.51-2.22 2.99 0.07 4.01c3.78 1.68 6.03 2.56 9.27 4.63"  ></path>








</g><g transform="scale(1.3761467889908 1.3761467889908) translate(327, 0)">
<path style="fill:none; fill-rule:evenodd; stroke:#aaaaaa;  stroke-width:1pt; stroke-linecap:round;" d="m 109 0 L 0 0 L 0 109 L 109 109 L 109 0"></path><path style="fill:none; fill-opacity:0%; fill-rule:evenodd; stroke:#aaaaaa; stroke-opacity:100%; stroke-width: 1.5pt; stroke-linejoin:round; stroke-linecap:round;" d="M53.36 11.5c1.13 1.13 1.73 2.25 1.73 4.41c0 2.59-0.09 3.46-0.09 7.59"></path>
<path style="fill:none; fill-opacity:0%; fill-rule:evenodd; stroke:#aaaaaa; stroke-opacity:100%; stroke-width: 1.5pt; stroke-linejoin:round; stroke-linecap:round;" d="M16 26.61c3.5 0.64 6.43 0.49 9.87 0.19c13.69-1.19 44.41-3.03 60.51-3.91c2.99-0.16 6.49-0.14 8.87 0.51"></path>
<path style="fill:none; fill-opacity:0%; fill-rule:evenodd; stroke:#aaaaaa; stroke-opacity:100%; stroke-width: 1.5pt; stroke-linejoin:round; stroke-linecap:round;" d="M49.92 26.12c0.21 0.88 0.08 1.93-0.67 2.73c-2.41 2.56-4.5 4.4-8.22 7.83c-1.64 1.51-2.22 2.99 0.07 4.01c3.78 1.68 6.03 2.56 9.27 4.63"></path>
<path style="fill:none; fill-opacity:0%; fill-rule:evenodd; stroke:#aaaaaa; stroke-opacity:100%; stroke-width: 1.5pt; stroke-linejoin:round; stroke-linecap:round;" d="M67.16 32.15c0.21 1.1-0.34 2.21-0.97 2.75c-9.33 7.92-14.71 12.6-29.32 22.15c-2.99 1.95-3.59 3.32 0.53 2.43c13.77-2.96 21.23-4.48 34.92-7.06"></path>
<path style="fill:none; fill-opacity:0%; fill-rule:evenodd; stroke:#aaaaaa; stroke-opacity:100%; stroke-width: 1.5pt; stroke-linejoin:round; stroke-linecap:round;" d="M68.5 46.5c3.43 2.31 8.85 9.51 9.71 13.12"></path>
<path style="fill:none; fill-opacity:0%; fill-rule:evenodd; stroke:#aaaaaa; stroke-opacity:100%; stroke-width: 1.5pt; stroke-linejoin:round; stroke-linecap:round;" d="M29.41 68.48c0.87 0.87 1.27 1.76 1.48 3.02c1.24 7.75 2.13 13.95 2.93 20.99c0.18 1.62 0.35 3.19 0.51 4.68"></path>
<path style="fill:none; fill-opacity:0%; fill-rule:evenodd; stroke:#aaaaaa; stroke-opacity:100%; stroke-width: 1.5pt; stroke-linejoin:round; stroke-linecap:round;" d="M31.5 69.93C42.91 69.3 60.66 68 72.25 67.61c4.42-0.15 6.72 0.53 6 5.38c-0.63 4.18-1.78 9.99-3.08 16.83c-0.38 2.01-0.67 3.55-1.22 5.89"></path>
<path style="fill:none; fill-opacity:0%; fill-rule:evenodd; stroke:#aaaaaa; stroke-opacity:100%; stroke-width: 1.5pt; stroke-linejoin:round; stroke-linecap:round;" d="M52.78 69.84c0.81 0.81 1.14 1.78 1.14 3.31c0 6.75 0.01 14.1 0.01 19.53"></path>
<path style="fill:none; fill-opacity:0%; fill-rule:evenodd; stroke:#aaaaaa; stroke-opacity:100%; stroke-width: 1.5pt; stroke-linejoin:round; stroke-linecap:round;" d="M33.95 81.84C44.5 81.38 67 80.38 75.27 80.36"></path>
<path style="fill:none; fill-opacity:0%; fill-rule:evenodd; stroke:#aaaaaa; stroke-opacity:100%; stroke-width: 1.5pt; stroke-linejoin:round; stroke-linecap:round;" d="M35.19 94.42c10.93-0.54 26.88-1.17 38.76-1.47"></path>

<path style="fill:none; fill-opacity:0%; fill-rule:evenodd; stroke:#000000; stroke-opacity:100%; stroke-width: 3pt; stroke-linejoin:round; stroke-linecap:round;" d="M53.36 11.5c1.13 1.13 1.73 2.25 1.73 4.41c0 2.59-0.09 3.46-0.09 7.59"></path>
<path style="fill:none; fill-opacity:0%; fill-rule:evenodd; stroke:#000000; stroke-opacity:100%; stroke-width: 3pt; stroke-linejoin:round; stroke-linecap:round;" d="M16 26.61c3.5 0.64 6.43 0.49 9.87 0.19c13.69-1.19 44.41-3.03 60.51-3.91c2.99-0.16 6.49-0.14 8.87 0.51"></path>
<path style="fill:none; fill-opacity:0%; fill-rule:evenodd; stroke:#000000; stroke-opacity:100%; stroke-width: 3pt; stroke-linejoin:round; stroke-linecap:round;" d="M49.92 26.12c0.21 0.88 0.08 1.93-0.67 2.73c-2.41 2.56-4.5 4.4-8.22 7.83c-1.64 1.51-2.22 2.99 0.07 4.01c3.78 1.68 6.03 2.56 9.27 4.63"></path>
<text x="5" y="20" font-size="20" fill="#999999">4</text><path style="fill:none; fill-opacity:0%; fill-rule:evenodd; stroke:#CC0000; stroke-opacity:100%; stroke-width: 3pt; stroke-linejoin:round; stroke-linecap:round;" d="M67.16 32.15c0.21 1.1-0.34 2.21-0.97 2.75c-9.33 7.92-14.71 12.6-29.32 22.15c-2.99 1.95-3.59 3.32 0.53 2.43c13.77-2.96 21.23-4.48 34.92-7.06"  ></path>







</g><g transform="scale(1.3761467889908 1.3761467889908) translate(436, 0)">
<path style="fill:none; fill-rule:evenodd; stroke:#aaaaaa;  stroke-width:1pt; stroke-linecap:round;" d="m 109 0 L 0 0 L 0 109 L 109 109 L 109 0"></path><path style="fill:none; fill-opacity:0%; fill-rule:evenodd; stroke:#aaaaaa; stroke-opacity:100%; stroke-width: 1.5pt; stroke-linejoin:round; stroke-linecap:round;" d="M53.36 11.5c1.13 1.13 1.73 2.25 1.73 4.41c0 2.59-0.09 3.46-0.09 7.59"></path>
<path style="fill:none; fill-opacity:0%; fill-rule:evenodd; stroke:#aaaaaa; stroke-opacity:100%; stroke-width: 1.5pt; stroke-linejoin:round; stroke-linecap:round;" d="M16 26.61c3.5 0.64 6.43 0.49 9.87 0.19c13.69-1.19 44.41-3.03 60.51-3.91c2.99-0.16 6.49-0.14 8.87 0.51"></path>
<path style="fill:none; fill-opacity:0%; fill-rule:evenodd; stroke:#aaaaaa; stroke-opacity:100%; stroke-width: 1.5pt; stroke-linejoin:round; stroke-linecap:round;" d="M49.92 26.12c0.21 0.88 0.08 1.93-0.67 2.73c-2.41 2.56-4.5 4.4-8.22 7.83c-1.64 1.51-2.22 2.99 0.07 4.01c3.78 1.68 6.03 2.56 9.27 4.63"></path>
<path style="fill:none; fill-opacity:0%; fill-rule:evenodd; stroke:#aaaaaa; stroke-opacity:100%; stroke-width: 1.5pt; stroke-linejoin:round; stroke-linecap:round;" d="M67.16 32.15c0.21 1.1-0.34 2.21-0.97 2.75c-9.33 7.92-14.71 12.6-29.32 22.15c-2.99 1.95-3.59 3.32 0.53 2.43c13.77-2.96 21.23-4.48 34.92-7.06"></path>
<path style="fill:none; fill-opacity:0%; fill-rule:evenodd; stroke:#aaaaaa; stroke-opacity:100%; stroke-width: 1.5pt; stroke-linejoin:round; stroke-linecap:round;" d="M68.5 46.5c3.43 2.31 8.85 9.51 9.71 13.12"></path>
<path style="fill:none; fill-opacity:0%; fill-rule:evenodd; stroke:#aaaaaa; stroke-opacity:100%; stroke-width: 1.5pt; stroke-linejoin:round; stroke-linecap:round;" d="M29.41 68.48c0.87 0.87 1.27 1.76 1.48 3.02c1.24 7.75 2.13 13.95 2.93 20.99c0.18 1.62 0.35 3.19 0.51 4.68"></path>
<path style="fill:none; fill-opacity:0%; fill-rule:evenodd; stroke:#aaaaaa; stroke-opacity:100%; stroke-width: 1.5pt; stroke-linejoin:round; stroke-linecap:round;" d="M31.5 69.93C42.91 69.3 60.66 68 72.25 67.61c4.42-0.15 6.72 0.53 6 5.38c-0.63 4.18-1.78 9.99-3.08 16.83c-0.38 2.01-0.67 3.55-1.22 5.89"></path>
<path style="fill:none; fill-opacity:0%; fill-rule:evenodd; stroke:#aaaaaa; stroke-opacity:100%; stroke-width: 1.5pt; stroke-linejoin:round; stroke-linecap:round;" d="M52.78 69.84c0.81 0.81 1.14 1.78 1.14 3.31c0 6.75 0.01 14.1 0.01 19.53"></path>
<path style="fill:none; fill-opacity:0%; fill-rule:evenodd; stroke:#aaaaaa; stroke-opacity:100%; stroke-width: 1.5pt; stroke-linejoin:round; stroke-linecap:round;" d="M33.95 81.84C44.5 81.38 67 80.38 75.27 80.36"></path>
<path style="fill:none; fill-opacity:0%; fill-rule:evenodd; stroke:#aaaaaa; stroke-opacity:100%; stroke-width: 1.5pt; stroke-linejoin:round; stroke-linecap:round;" d="M35.19 94.42c10.93-0.54 26.88-1.17 38.76-1.47"></path>

<path style="fill:none; fill-opacity:0%; fill-rule:evenodd; stroke:#000000; stroke-opacity:100%; stroke-width: 3pt; stroke-linejoin:round; stroke-linecap:round;" d="M53.36 11.5c1.13 1.13 1.73 2.25 1.73 4.41c0 2.59-0.09 3.46-0.09 7.59"></path>
<path style="fill:none; fill-opacity:0%; fill-rule:evenodd; stroke:#000000; stroke-opacity:100%; stroke-width: 3pt; stroke-linejoin:round; stroke-linecap:round;" d="M16 26.61c3.5 0.64 6.43 0.49 9.87 0.19c13.69-1.19 44.41-3.03 60.51-3.91c2.99-0.16 6.49-0.14 8.87 0.51"></path>
<path style="fill:none; fill-opacity:0%; fill-rule:evenodd; stroke:#000000; stroke-opacity:100%; stroke-width: 3pt; stroke-linejoin:round; stroke-linecap:round;" d="M49.92 26.12c0.21 0.88 0.08 1.93-0.67 2.73c-2.41 2.56-4.5 4.4-8.22 7.83c-1.64 1.51-2.22 2.99 0.07 4.01c3.78 1.68 6.03 2.56 9.27 4.63"></path>
<path style="fill:none; fill-opacity:0%; fill-rule:evenodd; stroke:#000000; stroke-opacity:100%; stroke-width: 3pt; stroke-linejoin:round; stroke-linecap:round;" d="M67.16 32.15c0.21 1.1-0.34 2.21-0.97 2.75c-9.33 7.92-14.71 12.6-29.32 22.15c-2.99 1.95-3.59 3.32 0.53 2.43c13.77-2.96 21.23-4.48 34.92-7.06"></path>
<text x="5" y="20" font-size="20" fill="#999999">5</text><path style="fill:none; fill-opacity:0%; fill-rule:evenodd; stroke:#CC0000; stroke-opacity:100%; stroke-width: 3pt; stroke-linejoin:round; stroke-linecap:round;" d="M68.5 46.5c3.43 2.31 8.85 9.51 9.71 13.12"  ></path>






</g><g transform="scale(1.3761467889908 1.3761467889908) translate(0, 109)">
<path style="fill:none; fill-rule:evenodd; stroke:#aaaaaa;  stroke-width:1pt; stroke-linecap:round;" d="m 109 0 L 0 0 L 0 109 L 109 109 L 109 0"></path><path style="fill:none; fill-opacity:0%; fill-rule:evenodd; stroke:#aaaaaa; stroke-opacity:100%; stroke-width: 1.5pt; stroke-linejoin:round; stroke-linecap:round;" d="M53.36 11.5c1.13 1.13 1.73 2.25 1.73 4.41c0 2.59-0.09 3.46-0.09 7.59"></path>
<path style="fill:none; fill-opacity:0%; fill-rule:evenodd; stroke:#aaaaaa; stroke-opacity:100%; stroke-width: 1.5pt; stroke-linejoin:round; stroke-linecap:round;" d="M16 26.61c3.5 0.64 6.43 0.49 9.87 0.19c13.69-1.19 44.41-3.03 60.51-3.91c2.99-0.16 6.49-0.14 8.87 0.51"></path>
<path style="fill:none; fill-opacity:0%; fill-rule:evenodd; stroke:#aaaaaa; stroke-opacity:100%; stroke-width: 1.5pt; stroke-linejoin:round; stroke-linecap:round;" d="M49.92 26.12c0.21 0.88 0.08 1.93-0.67 2.73c-2.41 2.56-4.5 4.4-8.22 7.83c-1.64 1.51-2.22 2.99 0.07 4.01c3.78 1.68 6.03 2.56 9.27 4.63"></path>
<path style="fill:none; fill-opacity:0%; fill-rule:evenodd; stroke:#aaaaaa; stroke-opacity:100%; stroke-width: 1.5pt; stroke-linejoin:round; stroke-linecap:round;" d="M67.16 32.15c0.21 1.1-0.34 2.21-0.97 2.75c-9.33 7.92-14.71 12.6-29.32 22.15c-2.99 1.95-3.59 3.32 0.53 2.43c13.77-2.96 21.23-4.48 34.92-7.06"></path>
<path style="fill:none; fill-opacity:0%; fill-rule:evenodd; stroke:#aaaaaa; stroke-opacity:100%; stroke-width: 1.5pt; stroke-linejoin:round; stroke-linecap:round;" d="M68.5 46.5c3.43 2.31 8.85 9.51 9.71 13.12"></path>
<path style="fill:none; fill-opacity:0%; fill-rule:evenodd; stroke:#aaaaaa; stroke-opacity:100%; stroke-width: 1.5pt; stroke-linejoin:round; stroke-linecap:round;" d="M29.41 68.48c0.87 0.87 1.27 1.76 1.48 3.02c1.24 7.75 2.13 13.95 2.93 20.99c0.18 1.62 0.35 3.19 0.51 4.68"></path>
<path style="fill:none; fill-opacity:0%; fill-rule:evenodd; stroke:#aaaaaa; stroke-opacity:100%; stroke-width: 1.5pt; stroke-linejoin:round; stroke-linecap:round;" d="M31.5 69.93C42.91 69.3 60.66 68 72.25 67.61c4.42-0.15 6.72 0.53 6 5.38c-0.63 4.18-1.78 9.99-3.08 16.83c-0.38 2.01-0.67 3.55-1.22 5.89"></path>
<path style="fill:none; fill-opacity:0%; fill-rule:evenodd; stroke:#aaaaaa; stroke-opacity:100%; stroke-width: 1.5pt; stroke-linejoin:round; stroke-linecap:round;" d="M52.78 69.84c0.81 0.81 1.14 1.78 1.14 3.31c0 6.75 0.01 14.1 0.01 19.53"></path>
<path style="fill:none; fill-opacity:0%; fill-rule:evenodd; stroke:#aaaaaa; stroke-opacity:100%; stroke-width: 1.5pt; stroke-linejoin:round; stroke-linecap:round;" d="M33.95 81.84C44.5 81.38 67 80.38 75.27 80.36"></path>
<path style="fill:none; fill-opacity:0%; fill-rule:evenodd; stroke:#aaaaaa; stroke-opacity:100%; stroke-width: 1.5pt; stroke-linejoin:round; stroke-linecap:round;" d="M35.19 94.42c10.93-0.54 26.88-1.17 38.76-1.47"></path>

<path style="fill:none; fill-opacity:0%; fill-rule:evenodd; stroke:#000000; stroke-opacity:100%; stroke-width: 3pt; stroke-linejoin:round; stroke-linecap:round;" d="M53.36 11.5c1.13 1.13 1.73 2.25 1.73 4.41c0 2.59-0.09 3.46-0.09 7.59"></path>
<path style="fill:none; fill-opacity:0%; fill-rule:evenodd; stroke:#000000; stroke-opacity:100%; stroke-width: 3pt; stroke-linejoin:round; stroke-linecap:round;" d="M16 26.61c3.5 0.64 6.43 0.49 9.87 0.19c13.69-1.19 44.41-3.03 60.51-3.91c2.99-0.16 6.49-0.14 8.87 0.51"></path>
<path style="fill:none; fill-opacity:0%; fill-rule:evenodd; stroke:#000000; stroke-opacity:100%; stroke-width: 3pt; stroke-linejoin:round; stroke-linecap:round;" d="M49.92 26.12c0.21 0.88 0.08 1.93-0.67 2.73c-2.41 2.56-4.5 4.4-8.22 7.83c-1.64 1.51-2.22 2.99 0.07 4.01c3.78 1.68 6.03 2.56 9.27 4.63"></path>
<path style="fill:none; fill-opacity:0%; fill-rule:evenodd; stroke:#000000; stroke-opacity:100%; stroke-width: 3pt; stroke-linejoin:round; stroke-linecap:round;" d="M67.16 32.15c0.21 1.1-0.34 2.21-0.97 2.75c-9.33 7.92-14.71 12.6-29.32 22.15c-2.99 1.95-3.59 3.32 0.53 2.43c13.77-2.96 21.23-4.48 34.92-7.06"></path>
<path style="fill:none; fill-opacity:0%; fill-rule:evenodd; stroke:#000000; stroke-opacity:100%; stroke-width: 3pt; stroke-linejoin:round; stroke-linecap:round;" d="M68.5 46.5c3.43 2.31 8.85 9.51 9.71 13.12"></path>
<text x="5" y="20" font-size="20" fill="#999999">6</text><path style="fill:none; fill-opacity:0%; fill-rule:evenodd; stroke:#CC0000; stroke-opacity:100%; stroke-width: 3pt; stroke-linejoin:round; stroke-linecap:round;" d="M29.41 68.48c0.87 0.87 1.27 1.76 1.48 3.02c1.24 7.75 2.13 13.95 2.93 20.99c0.18 1.62 0.35 3.19 0.51 4.68"  ></path>





</g><g transform="scale(1.3761467889908 1.3761467889908) translate(109, 109)">
<path style="fill:none; fill-rule:evenodd; stroke:#aaaaaa;  stroke-width:1pt; stroke-linecap:round;" d="m 109 0 L 0 0 L 0 109 L 109 109 L 109 0"></path><path style="fill:none; fill-opacity:0%; fill-rule:evenodd; stroke:#aaaaaa; stroke-opacity:100%; stroke-width: 1.5pt; stroke-linejoin:round; stroke-linecap:round;" d="M53.36 11.5c1.13 1.13 1.73 2.25 1.73 4.41c0 2.59-0.09 3.46-0.09 7.59"></path>
<path style="fill:none; fill-opacity:0%; fill-rule:evenodd; stroke:#aaaaaa; stroke-opacity:100%; stroke-width: 1.5pt; stroke-linejoin:round; stroke-linecap:round;" d="M16 26.61c3.5 0.64 6.43 0.49 9.87 0.19c13.69-1.19 44.41-3.03 60.51-3.91c2.99-0.16 6.49-0.14 8.87 0.51"></path>
<path style="fill:none; fill-opacity:0%; fill-rule:evenodd; stroke:#aaaaaa; stroke-opacity:100%; stroke-width: 1.5pt; stroke-linejoin:round; stroke-linecap:round;" d="M49.92 26.12c0.21 0.88 0.08 1.93-0.67 2.73c-2.41 2.56-4.5 4.4-8.22 7.83c-1.64 1.51-2.22 2.99 0.07 4.01c3.78 1.68 6.03 2.56 9.27 4.63"></path>
<path style="fill:none; fill-opacity:0%; fill-rule:evenodd; stroke:#aaaaaa; stroke-opacity:100%; stroke-width: 1.5pt; stroke-linejoin:round; stroke-linecap:round;" d="M67.16 32.15c0.21 1.1-0.34 2.21-0.97 2.75c-9.33 7.92-14.71 12.6-29.32 22.15c-2.99 1.95-3.59 3.32 0.53 2.43c13.77-2.96 21.23-4.48 34.92-7.06"></path>
<path style="fill:none; fill-opacity:0%; fill-rule:evenodd; stroke:#aaaaaa; stroke-opacity:100%; stroke-width: 1.5pt; stroke-linejoin:round; stroke-linecap:round;" d="M68.5 46.5c3.43 2.31 8.85 9.51 9.71 13.12"></path>
<path style="fill:none; fill-opacity:0%; fill-rule:evenodd; stroke:#aaaaaa; stroke-opacity:100%; stroke-width: 1.5pt; stroke-linejoin:round; stroke-linecap:round;" d="M29.41 68.48c0.87 0.87 1.27 1.76 1.48 3.02c1.24 7.75 2.13 13.95 2.93 20.99c0.18 1.62 0.35 3.19 0.51 4.68"></path>
<path style="fill:none; fill-opacity:0%; fill-rule:evenodd; stroke:#aaaaaa; stroke-opacity:100%; stroke-width: 1.5pt; stroke-linejoin:round; stroke-linecap:round;" d="M31.5 69.93C42.91 69.3 60.66 68 72.25 67.61c4.42-0.15 6.72 0.53 6 5.38c-0.63 4.18-1.78 9.99-3.08 16.83c-0.38 2.01-0.67 3.55-1.22 5.89"></path>
<path style="fill:none; fill-opacity:0%; fill-rule:evenodd; stroke:#aaaaaa; stroke-opacity:100%; stroke-width: 1.5pt; stroke-linejoin:round; stroke-linecap:round;" d="M52.78 69.84c0.81 0.81 1.14 1.78 1.14 3.31c0 6.75 0.01 14.1 0.01 19.53"></path>
<path style="fill:none; fill-opacity:0%; fill-rule:evenodd; stroke:#aaaaaa; stroke-opacity:100%; stroke-width: 1.5pt; stroke-linejoin:round; stroke-linecap:round;" d="M33.95 81.84C44.5 81.38 67 80.38 75.27 80.36"></path>
<path style="fill:none; fill-opacity:0%; fill-rule:evenodd; stroke:#aaaaaa; stroke-opacity:100%; stroke-width: 1.5pt; stroke-linejoin:round; stroke-linecap:round;" d="M35.19 94.42c10.93-0.54 26.88-1.17 38.76-1.47"></path>

<path style="fill:none; fill-opacity:0%; fill-rule:evenodd; stroke:#000000; stroke-opacity:100%; stroke-width: 3pt; stroke-linejoin:round; stroke-linecap:round;" d="M53.36 11.5c1.13 1.13 1.73 2.25 1.73 4.41c0 2.59-0.09 3.46-0.09 7.59"></path>
<path style="fill:none; fill-opacity:0%; fill-rule:evenodd; stroke:#000000; stroke-opacity:100%; stroke-width: 3pt; stroke-linejoin:round; stroke-linecap:round;" d="M16 26.61c3.5 0.64 6.43 0.49 9.87 0.19c13.69-1.19 44.41-3.03 60.51-3.91c2.99-0.16 6.49-0.14 8.87 0.51"></path>
<path style="fill:none; fill-opacity:0%; fill-rule:evenodd; stroke:#000000; stroke-opacity:100%; stroke-width: 3pt; stroke-linejoin:round; stroke-linecap:round;" d="M49.92 26.12c0.21 0.88 0.08 1.93-0.67 2.73c-2.41 2.56-4.5 4.4-8.22 7.83c-1.64 1.51-2.22 2.99 0.07 4.01c3.78 1.68 6.03 2.56 9.27 4.63"></path>
<path style="fill:none; fill-opacity:0%; fill-rule:evenodd; stroke:#000000; stroke-opacity:100%; stroke-width: 3pt; stroke-linejoin:round; stroke-linecap:round;" d="M67.16 32.15c0.21 1.1-0.34 2.21-0.97 2.75c-9.33 7.92-14.71 12.6-29.32 22.15c-2.99 1.95-3.59 3.32 0.53 2.43c13.77-2.96 21.23-4.48 34.92-7.06"></path>
<path style="fill:none; fill-opacity:0%; fill-rule:evenodd; stroke:#000000; stroke-opacity:100%; stroke-width: 3pt; stroke-linejoin:round; stroke-linecap:round;" d="M68.5 46.5c3.43 2.31 8.85 9.51 9.71 13.12"></path>
<path style="fill:none; fill-opacity:0%; fill-rule:evenodd; stroke:#000000; stroke-opacity:100%; stroke-width: 3pt; stroke-linejoin:round; stroke-linecap:round;" d="M29.41 68.48c0.87 0.87 1.27 1.76 1.48 3.02c1.24 7.75 2.13 13.95 2.93 20.99c0.18 1.62 0.35 3.19 0.51 4.68"></path>
<text x="5" y="20" font-size="20" fill="#999999">7</text><path style="fill:none; fill-opacity:0%; fill-rule:evenodd; stroke:#CC0000; stroke-opacity:100%; stroke-width: 3pt; stroke-linejoin:round; stroke-linecap:round;" d="M31.5 69.93C42.91 69.3 60.66 68 72.25 67.61c4.42-0.15 6.72 0.53 6 5.38c-0.63 4.18-1.78 9.99-3.08 16.83c-0.38 2.01-0.67 3.55-1.22 5.89"  ></path>




</g><g transform="scale(1.3761467889908 1.3761467889908) translate(218, 109)">
<path style="fill:none; fill-rule:evenodd; stroke:#aaaaaa;  stroke-width:1pt; stroke-linecap:round;" d="m 109 0 L 0 0 L 0 109 L 109 109 L 109 0"></path><path style="fill:none; fill-opacity:0%; fill-rule:evenodd; stroke:#aaaaaa; stroke-opacity:100%; stroke-width: 1.5pt; stroke-linejoin:round; stroke-linecap:round;" d="M53.36 11.5c1.13 1.13 1.73 2.25 1.73 4.41c0 2.59-0.09 3.46-0.09 7.59"></path>
<path style="fill:none; fill-opacity:0%; fill-rule:evenodd; stroke:#aaaaaa; stroke-opacity:100%; stroke-width: 1.5pt; stroke-linejoin:round; stroke-linecap:round;" d="M16 26.61c3.5 0.64 6.43 0.49 9.87 0.19c13.69-1.19 44.41-3.03 60.51-3.91c2.99-0.16 6.49-0.14 8.87 0.51"></path>
<path style="fill:none; fill-opacity:0%; fill-rule:evenodd; stroke:#aaaaaa; stroke-opacity:100%; stroke-width: 1.5pt; stroke-linejoin:round; stroke-linecap:round;" d="M49.92 26.12c0.21 0.88 0.08 1.93-0.67 2.73c-2.41 2.56-4.5 4.4-8.22 7.83c-1.64 1.51-2.22 2.99 0.07 4.01c3.78 1.68 6.03 2.56 9.27 4.63"></path>
<path style="fill:none; fill-opacity:0%; fill-rule:evenodd; stroke:#aaaaaa; stroke-opacity:100%; stroke-width: 1.5pt; stroke-linejoin:round; stroke-linecap:round;" d="M67.16 32.15c0.21 1.1-0.34 2.21-0.97 2.75c-9.33 7.92-14.71 12.6-29.32 22.15c-2.99 1.95-3.59 3.32 0.53 2.43c13.77-2.96 21.23-4.48 34.92-7.06"></path>
<path style="fill:none; fill-opacity:0%; fill-rule:evenodd; stroke:#aaaaaa; stroke-opacity:100%; stroke-width: 1.5pt; stroke-linejoin:round; stroke-linecap:round;" d="M68.5 46.5c3.43 2.31 8.85 9.51 9.71 13.12"></path>
<path style="fill:none; fill-opacity:0%; fill-rule:evenodd; stroke:#aaaaaa; stroke-opacity:100%; stroke-width: 1.5pt; stroke-linejoin:round; stroke-linecap:round;" d="M29.41 68.48c0.87 0.87 1.27 1.76 1.48 3.02c1.24 7.75 2.13 13.95 2.93 20.99c0.18 1.62 0.35 3.19 0.51 4.68"></path>
<path style="fill:none; fill-opacity:0%; fill-rule:evenodd; stroke:#aaaaaa; stroke-opacity:100%; stroke-width: 1.5pt; stroke-linejoin:round; stroke-linecap:round;" d="M31.5 69.93C42.91 69.3 60.66 68 72.25 67.61c4.42-0.15 6.72 0.53 6 5.38c-0.63 4.18-1.78 9.99-3.08 16.83c-0.38 2.01-0.67 3.55-1.22 5.89"></path>
<path style="fill:none; fill-opacity:0%; fill-rule:evenodd; stroke:#aaaaaa; stroke-opacity:100%; stroke-width: 1.5pt; stroke-linejoin:round; stroke-linecap:round;" d="M52.78 69.84c0.81 0.81 1.14 1.78 1.14 3.31c0 6.75 0.01 14.1 0.01 19.53"></path>
<path style="fill:none; fill-opacity:0%; fill-rule:evenodd; stroke:#aaaaaa; stroke-opacity:100%; stroke-width: 1.5pt; stroke-linejoin:round; stroke-linecap:round;" d="M33.95 81.84C44.5 81.38 67 80.38 75.27 80.36"></path>
<path style="fill:none; fill-opacity:0%; fill-rule:evenodd; stroke:#aaaaaa; stroke-opacity:100%; stroke-width: 1.5pt; stroke-linejoin:round; stroke-linecap:round;" d="M35.19 94.42c10.93-0.54 26.88-1.17 38.76-1.47"></path>

<path style="fill:none; fill-opacity:0%; fill-rule:evenodd; stroke:#000000; stroke-opacity:100%; stroke-width: 3pt; stroke-linejoin:round; stroke-linecap:round;" d="M53.36 11.5c1.13 1.13 1.73 2.25 1.73 4.41c0 2.59-0.09 3.46-0.09 7.59"></path>
<path style="fill:none; fill-opacity:0%; fill-rule:evenodd; stroke:#000000; stroke-opacity:100%; stroke-width: 3pt; stroke-linejoin:round; stroke-linecap:round;" d="M16 26.61c3.5 0.64 6.43 0.49 9.87 0.19c13.69-1.19 44.41-3.03 60.51-3.91c2.99-0.16 6.49-0.14 8.87 0.51"></path>
<path style="fill:none; fill-opacity:0%; fill-rule:evenodd; stroke:#000000; stroke-opacity:100%; stroke-width: 3pt; stroke-linejoin:round; stroke-linecap:round;" d="M49.92 26.12c0.21 0.88 0.08 1.93-0.67 2.73c-2.41 2.56-4.5 4.4-8.22 7.83c-1.64 1.51-2.22 2.99 0.07 4.01c3.78 1.68 6.03 2.56 9.27 4.63"></path>
<path style="fill:none; fill-opacity:0%; fill-rule:evenodd; stroke:#000000; stroke-opacity:100%; stroke-width: 3pt; stroke-linejoin:round; stroke-linecap:round;" d="M67.16 32.15c0.21 1.1-0.34 2.21-0.97 2.75c-9.33 7.92-14.71 12.6-29.32 22.15c-2.99 1.95-3.59 3.32 0.53 2.43c13.77-2.96 21.23-4.48 34.92-7.06"></path>
<path style="fill:none; fill-opacity:0%; fill-rule:evenodd; stroke:#000000; stroke-opacity:100%; stroke-width: 3pt; stroke-linejoin:round; stroke-linecap:round;" d="M68.5 46.5c3.43 2.31 8.85 9.51 9.71 13.12"></path>
<path style="fill:none; fill-opacity:0%; fill-rule:evenodd; stroke:#000000; stroke-opacity:100%; stroke-width: 3pt; stroke-linejoin:round; stroke-linecap:round;" d="M29.41 68.48c0.87 0.87 1.27 1.76 1.48 3.02c1.24 7.75 2.13 13.95 2.93 20.99c0.18 1.62 0.35 3.19 0.51 4.68"></path>
<path style="fill:none; fill-opacity:0%; fill-rule:evenodd; stroke:#000000; stroke-opacity:100%; stroke-width: 3pt; stroke-linejoin:round; stroke-linecap:round;" d="M31.5 69.93C42.91 69.3 60.66 68 72.25 67.61c4.42-0.15 6.72 0.53 6 5.38c-0.63 4.18-1.78 9.99-3.08 16.83c-0.38 2.01-0.67 3.55-1.22 5.89"></path>
<text x="5" y="20" font-size="20" fill="#999999">8</text><path style="fill:none; fill-opacity:0%; fill-rule:evenodd; stroke:#CC0000; stroke-opacity:100%; stroke-width: 3pt; stroke-linejoin:round; stroke-linecap:round;" d="M52.78 69.84c0.81 0.81 1.14 1.78 1.14 3.31c0 6.75 0.01 14.1 0.01 19.53"  ></path>



</g><g transform="scale(1.3761467889908 1.3761467889908) translate(327, 109)">
<path style="fill:none; fill-rule:evenodd; stroke:#aaaaaa;  stroke-width:1pt; stroke-linecap:round;" d="m 109 0 L 0 0 L 0 109 L 109 109 L 109 0"></path><path style="fill:none; fill-opacity:0%; fill-rule:evenodd; stroke:#aaaaaa; stroke-opacity:100%; stroke-width: 1.5pt; stroke-linejoin:round; stroke-linecap:round;" d="M53.36 11.5c1.13 1.13 1.73 2.25 1.73 4.41c0 2.59-0.09 3.46-0.09 7.59"></path>
<path style="fill:none; fill-opacity:0%; fill-rule:evenodd; stroke:#aaaaaa; stroke-opacity:100%; stroke-width: 1.5pt; stroke-linejoin:round; stroke-linecap:round;" d="M16 26.61c3.5 0.64 6.43 0.49 9.87 0.19c13.69-1.19 44.41-3.03 60.51-3.91c2.99-0.16 6.49-0.14 8.87 0.51"></path>
<path style="fill:none; fill-opacity:0%; fill-rule:evenodd; stroke:#aaaaaa; stroke-opacity:100%; stroke-width: 1.5pt; stroke-linejoin:round; stroke-linecap:round;" d="M49.92 26.12c0.21 0.88 0.08 1.93-0.67 2.73c-2.41 2.56-4.5 4.4-8.22 7.83c-1.64 1.51-2.22 2.99 0.07 4.01c3.78 1.68 6.03 2.56 9.27 4.63"></path>
<path style="fill:none; fill-opacity:0%; fill-rule:evenodd; stroke:#aaaaaa; stroke-opacity:100%; stroke-width: 1.5pt; stroke-linejoin:round; stroke-linecap:round;" d="M67.16 32.15c0.21 1.1-0.34 2.21-0.97 2.75c-9.33 7.92-14.71 12.6-29.32 22.15c-2.99 1.95-3.59 3.32 0.53 2.43c13.77-2.96 21.23-4.48 34.92-7.06"></path>
<path style="fill:none; fill-opacity:0%; fill-rule:evenodd; stroke:#aaaaaa; stroke-opacity:100%; stroke-width: 1.5pt; stroke-linejoin:round; stroke-linecap:round;" d="M68.5 46.5c3.43 2.31 8.85 9.51 9.71 13.12"></path>
<path style="fill:none; fill-opacity:0%; fill-rule:evenodd; stroke:#aaaaaa; stroke-opacity:100%; stroke-width: 1.5pt; stroke-linejoin:round; stroke-linecap:round;" d="M29.41 68.48c0.87 0.87 1.27 1.76 1.48 3.02c1.24 7.75 2.13 13.95 2.93 20.99c0.18 1.62 0.35 3.19 0.51 4.68"></path>
<path style="fill:none; fill-opacity:0%; fill-rule:evenodd; stroke:#aaaaaa; stroke-opacity:100%; stroke-width: 1.5pt; stroke-linejoin:round; stroke-linecap:round;" d="M31.5 69.93C42.91 69.3 60.66 68 72.25 67.61c4.42-0.15 6.72 0.53 6 5.38c-0.63 4.18-1.78 9.99-3.08 16.83c-0.38 2.01-0.67 3.55-1.22 5.89"></path>
<path style="fill:none; fill-opacity:0%; fill-rule:evenodd; stroke:#aaaaaa; stroke-opacity:100%; stroke-width: 1.5pt; stroke-linejoin:round; stroke-linecap:round;" d="M52.78 69.84c0.81 0.81 1.14 1.78 1.14 3.31c0 6.75 0.01 14.1 0.01 19.53"></path>
<path style="fill:none; fill-opacity:0%; fill-rule:evenodd; stroke:#aaaaaa; stroke-opacity:100%; stroke-width: 1.5pt; stroke-linejoin:round; stroke-linecap:round;" d="M33.95 81.84C44.5 81.38 67 80.38 75.27 80.36"></path>
<path style="fill:none; fill-opacity:0%; fill-rule:evenodd; stroke:#aaaaaa; stroke-opacity:100%; stroke-width: 1.5pt; stroke-linejoin:round; stroke-linecap:round;" d="M35.19 94.42c10.93-0.54 26.88-1.17 38.76-1.47"></path>

<path style="fill:none; fill-opacity:0%; fill-rule:evenodd; stroke:#000000; stroke-opacity:100%; stroke-width: 3pt; stroke-linejoin:round; stroke-linecap:round;" d="M53.36 11.5c1.13 1.13 1.73 2.25 1.73 4.41c0 2.59-0.09 3.46-0.09 7.59"></path>
<path style="fill:none; fill-opacity:0%; fill-rule:evenodd; stroke:#000000; stroke-opacity:100%; stroke-width: 3pt; stroke-linejoin:round; stroke-linecap:round;" d="M16 26.61c3.5 0.64 6.43 0.49 9.87 0.19c13.69-1.19 44.41-3.03 60.51-3.91c2.99-0.16 6.49-0.14 8.87 0.51"></path>
<path style="fill:none; fill-opacity:0%; fill-rule:evenodd; stroke:#000000; stroke-opacity:100%; stroke-width: 3pt; stroke-linejoin:round; stroke-linecap:round;" d="M49.92 26.12c0.21 0.88 0.08 1.93-0.67 2.73c-2.41 2.56-4.5 4.4-8.22 7.83c-1.64 1.51-2.22 2.99 0.07 4.01c3.78 1.68 6.03 2.56 9.27 4.63"></path>
<path style="fill:none; fill-opacity:0%; fill-rule:evenodd; stroke:#000000; stroke-opacity:100%; stroke-width: 3pt; stroke-linejoin:round; stroke-linecap:round;" d="M67.16 32.15c0.21 1.1-0.34 2.21-0.97 2.75c-9.33 7.92-14.71 12.6-29.32 22.15c-2.99 1.95-3.59 3.32 0.53 2.43c13.77-2.96 21.23-4.48 34.92-7.06"></path>
<path style="fill:none; fill-opacity:0%; fill-rule:evenodd; stroke:#000000; stroke-opacity:100%; stroke-width: 3pt; stroke-linejoin:round; stroke-linecap:round;" d="M68.5 46.5c3.43 2.31 8.85 9.51 9.71 13.12"></path>
<path style="fill:none; fill-opacity:0%; fill-rule:evenodd; stroke:#000000; stroke-opacity:100%; stroke-width: 3pt; stroke-linejoin:round; stroke-linecap:round;" d="M29.41 68.48c0.87 0.87 1.27 1.76 1.48 3.02c1.24 7.75 2.13 13.95 2.93 20.99c0.18 1.62 0.35 3.19 0.51 4.68"></path>
<path style="fill:none; fill-opacity:0%; fill-rule:evenodd; stroke:#000000; stroke-opacity:100%; stroke-width: 3pt; stroke-linejoin:round; stroke-linecap:round;" d="M31.5 69.93C42.91 69.3 60.66 68 72.25 67.61c4.42-0.15 6.72 0.53 6 5.38c-0.63 4.18-1.78 9.99-3.08 16.83c-0.38 2.01-0.67 3.55-1.22 5.89"></path>
<path style="fill:none; fill-opacity:0%; fill-rule:evenodd; stroke:#000000; stroke-opacity:100%; stroke-width: 3pt; stroke-linejoin:round; stroke-linecap:round;" d="M52.78 69.84c0.81 0.81 1.14 1.78 1.14 3.31c0 6.75 0.01 14.1 0.01 19.53"></path>
<text x="5" y="20" font-size="20" fill="#999999">9</text><path style="fill:none; fill-opacity:0%; fill-rule:evenodd; stroke:#CC0000; stroke-opacity:100%; stroke-width: 3pt; stroke-linejoin:round; stroke-linecap:round;" d="M33.95 81.84C44.5 81.38 67 80.38 75.27 80.36"  ></path>


</g><g transform="scale(1.3761467889908 1.3761467889908) translate(436, 109)">
<path style="fill:none; fill-rule:evenodd; stroke:#aaaaaa;  stroke-width:1pt; stroke-linecap:round;" d="m 109 0 L 0 0 L 0 109 L 109 109 L 109 0"></path><path style="fill:none; fill-opacity:0%; fill-rule:evenodd; stroke:#aaaaaa; stroke-opacity:100%; stroke-width: 1.5pt; stroke-linejoin:round; stroke-linecap:round;" d="M53.36 11.5c1.13 1.13 1.73 2.25 1.73 4.41c0 2.59-0.09 3.46-0.09 7.59"></path>
<path style="fill:none; fill-opacity:0%; fill-rule:evenodd; stroke:#aaaaaa; stroke-opacity:100%; stroke-width: 1.5pt; stroke-linejoin:round; stroke-linecap:round;" d="M16 26.61c3.5 0.64 6.43 0.49 9.87 0.19c13.69-1.19 44.41-3.03 60.51-3.91c2.99-0.16 6.49-0.14 8.87 0.51"></path>
<path style="fill:none; fill-opacity:0%; fill-rule:evenodd; stroke:#aaaaaa; stroke-opacity:100%; stroke-width: 1.5pt; stroke-linejoin:round; stroke-linecap:round;" d="M49.92 26.12c0.21 0.88 0.08 1.93-0.67 2.73c-2.41 2.56-4.5 4.4-8.22 7.83c-1.64 1.51-2.22 2.99 0.07 4.01c3.78 1.68 6.03 2.56 9.27 4.63"></path>
<path style="fill:none; fill-opacity:0%; fill-rule:evenodd; stroke:#aaaaaa; stroke-opacity:100%; stroke-width: 1.5pt; stroke-linejoin:round; stroke-linecap:round;" d="M67.16 32.15c0.21 1.1-0.34 2.21-0.97 2.75c-9.33 7.92-14.71 12.6-29.32 22.15c-2.99 1.95-3.59 3.32 0.53 2.43c13.77-2.96 21.23-4.48 34.92-7.06"></path>
<path style="fill:none; fill-opacity:0%; fill-rule:evenodd; stroke:#aaaaaa; stroke-opacity:100%; stroke-width: 1.5pt; stroke-linejoin:round; stroke-linecap:round;" d="M68.5 46.5c3.43 2.31 8.85 9.51 9.71 13.12"></path>
<path style="fill:none; fill-opacity:0%; fill-rule:evenodd; stroke:#aaaaaa; stroke-opacity:100%; stroke-width: 1.5pt; stroke-linejoin:round; stroke-linecap:round;" d="M29.41 68.48c0.87 0.87 1.27 1.76 1.48 3.02c1.24 7.75 2.13 13.95 2.93 20.99c0.18 1.62 0.35 3.19 0.51 4.68"></path>
<path style="fill:none; fill-opacity:0%; fill-rule:evenodd; stroke:#aaaaaa; stroke-opacity:100%; stroke-width: 1.5pt; stroke-linejoin:round; stroke-linecap:round;" d="M31.5 69.93C42.91 69.3 60.66 68 72.25 67.61c4.42-0.15 6.72 0.53 6 5.38c-0.63 4.18-1.78 9.99-3.08 16.83c-0.38 2.01-0.67 3.55-1.22 5.89"></path>
<path style="fill:none; fill-opacity:0%; fill-rule:evenodd; stroke:#aaaaaa; stroke-opacity:100%; stroke-width: 1.5pt; stroke-linejoin:round; stroke-linecap:round;" d="M52.78 69.84c0.81 0.81 1.14 1.78 1.14 3.31c0 6.75 0.01 14.1 0.01 19.53"></path>
<path style="fill:none; fill-opacity:0%; fill-rule:evenodd; stroke:#aaaaaa; stroke-opacity:100%; stroke-width: 1.5pt; stroke-linejoin:round; stroke-linecap:round;" d="M33.95 81.84C44.5 81.38 67 80.38 75.27 80.36"></path>
<path style="fill:none; fill-opacity:0%; fill-rule:evenodd; stroke:#aaaaaa; stroke-opacity:100%; stroke-width: 1.5pt; stroke-linejoin:round; stroke-linecap:round;" d="M35.19 94.42c10.93-0.54 26.88-1.17 38.76-1.47"></path>

<path style="fill:none; fill-opacity:0%; fill-rule:evenodd; stroke:#000000; stroke-opacity:100%; stroke-width: 3pt; stroke-linejoin:round; stroke-linecap:round;" d="M53.36 11.5c1.13 1.13 1.73 2.25 1.73 4.41c0 2.59-0.09 3.46-0.09 7.59"></path>
<path style="fill:none; fill-opacity:0%; fill-rule:evenodd; stroke:#000000; stroke-opacity:100%; stroke-width: 3pt; stroke-linejoin:round; stroke-linecap:round;" d="M16 26.61c3.5 0.64 6.43 0.49 9.87 0.19c13.69-1.19 44.41-3.03 60.51-3.91c2.99-0.16 6.49-0.14 8.87 0.51"></path>
<path style="fill:none; fill-opacity:0%; fill-rule:evenodd; stroke:#000000; stroke-opacity:100%; stroke-width: 3pt; stroke-linejoin:round; stroke-linecap:round;" d="M49.92 26.12c0.21 0.88 0.08 1.93-0.67 2.73c-2.41 2.56-4.5 4.4-8.22 7.83c-1.64 1.51-2.22 2.99 0.07 4.01c3.78 1.68 6.03 2.56 9.27 4.63"></path>
<path style="fill:none; fill-opacity:0%; fill-rule:evenodd; stroke:#000000; stroke-opacity:100%; stroke-width: 3pt; stroke-linejoin:round; stroke-linecap:round;" d="M67.16 32.15c0.21 1.1-0.34 2.21-0.97 2.75c-9.33 7.92-14.71 12.6-29.32 22.15c-2.99 1.95-3.59 3.32 0.53 2.43c13.77-2.96 21.23-4.48 34.92-7.06"></path>
<path style="fill:none; fill-opacity:0%; fill-rule:evenodd; stroke:#000000; stroke-opacity:100%; stroke-width: 3pt; stroke-linejoin:round; stroke-linecap:round;" d="M68.5 46.5c3.43 2.31 8.85 9.51 9.71 13.12"></path>
<path style="fill:none; fill-opacity:0%; fill-rule:evenodd; stroke:#000000; stroke-opacity:100%; stroke-width: 3pt; stroke-linejoin:round; stroke-linecap:round;" d="M29.41 68.48c0.87 0.87 1.27 1.76 1.48 3.02c1.24 7.75 2.13 13.95 2.93 20.99c0.18 1.62 0.35 3.19 0.51 4.68"></path>
<path style="fill:none; fill-opacity:0%; fill-rule:evenodd; stroke:#000000; stroke-opacity:100%; stroke-width: 3pt; stroke-linejoin:round; stroke-linecap:round;" d="M31.5 69.93C42.91 69.3 60.66 68 72.25 67.61c4.42-0.15 6.72 0.53 6 5.38c-0.63 4.18-1.78 9.99-3.08 16.83c-0.38 2.01-0.67 3.55-1.22 5.89"></path>
<path style="fill:none; fill-opacity:0%; fill-rule:evenodd; stroke:#000000; stroke-opacity:100%; stroke-width: 3pt; stroke-linejoin:round; stroke-linecap:round;" d="M52.78 69.84c0.81 0.81 1.14 1.78 1.14 3.31c0 6.75 0.01 14.1 0.01 19.53"></path>
<path style="fill:none; fill-opacity:0%; fill-rule:evenodd; stroke:#000000; stroke-opacity:100%; stroke-width: 3pt; stroke-linejoin:round; stroke-linecap:round;" d="M33.95 81.84C44.5 81.38 67 80.38 75.27 80.36"></path>
<text x="5" y="20" font-size="20" fill="#999999">10</text><path style="fill:none; fill-opacity:0%; fill-rule:evenodd; stroke:#CC0000; stroke-opacity:100%; stroke-width: 3pt; stroke-linejoin:round; stroke-linecap:round;" d="M35.19 94.42c10.93-0.54 26.88-1.17 38.76-1.47"  ></path>

</g>

</svg>  
          
