<?xml version="1.0" standalone="no"?>
<!DOCTYPE svg PUBLIC "-//W3C//DTD SVG 1.1//EN"   "http://www.w3.org/Graphics/SVG/1.1/DTD/svg11.dtd">
<svg width="751" height="301"  version="1.1" xmlns="http://www.w3.org/2000/svg">
  <defs>
    <marker id="Triangle" viewBox="0 0 10 10" refX="0" refY="5" markerUnits="strokeWidth" markerWidth="3" style="stroke-opacity:0%;fill:#aaaaaa;" markerHeight="2" orient="auto">
      <path d="M 0 0 L 10 5 L 0 10 z" />
    </marker>
    
    <marker id="Arrow" viewBox="0 0 10 10" refX="5" refY="5" markerUnits="strokeWidth" markerWidth="1.8" style="stroke-opacity:0%;fill:#770000;" markerHeight="2" orient="auto">
      <path d="M 0 4 L 6 4 L 4 1 L 10 5 L 4 9 L 6 6 L 0 6 z" />
        <circle cx="5" cy="5" r="5" />
      </marker>
    
    <marker id="TriangleRed" viewBox="0 0 10 10" refX="0" refY="5" markerUnits="strokeWidth" markerWidth="3" style="stroke-opacity:0%;fill:#CC0000;" markerHeight="2" orient="auto">
      <path d="M 0 0 L 10 5 L 0 10 z" />
    </marker>
    
    <marker id="ArrowRed" viewBox="0 0 10 10" refX="5" refY="5" markerUnits="strokeWidth" markerWidth="1.8" style="stroke-opacity:0%;fill:#CC0000;" markerHeight="2" orient="auto">
      <path d="M 0 4 L 6 4 L 4 1 L 10 5 L 4 9 L 6 6 L 0 6 z" />
        <circle cx="5" cy="5" r="5" />
      </marker>
    
  </defs>
  
  <path style="fill:#ffffff; fill-opacity:100%; fill-rule:evenodd; stroke-width:0;" d="M 0 0 L 751 0 L 751 301 L 0 301 L 0 0" />

  <g transform="scale(1.3761467889908 1.3761467889908) translate(0, 0)">
<path style="fill:none; fill-rule:evenodd; stroke:#aaaaaa;  stroke-width:1pt; stroke-linecap:round;" d="m 109 0 L 0 0 L 0 109 L 109 109 L 109 0"></path><path style="fill:none; fill-opacity:0%; fill-rule:evenodd; stroke:#aaaaaa; stroke-opacity:100%; stroke-width: 1.5pt; stroke-linejoin:round; stroke-linecap:round;" d="M16.13 20.23c2.22 0.54 6.29 0.75 8.51 0.54c21.49-2.02 41.86-4.39 59.22-4.98c3.7-0.12 5.92 0.26 7.77 0.53"></path>
<path style="fill:none; fill-opacity:0%; fill-rule:evenodd; stroke:#aaaaaa; stroke-opacity:100%; stroke-width: 1.5pt; stroke-linejoin:round; stroke-linecap:round;" d="M52.31 21.75c0.19 1.38 0.19 2.5-0.38 3.93c-1.65 4.19-4.81 9.19-8.66 14.68"></path>
<path style="fill:none; fill-opacity:0%; fill-rule:evenodd; stroke:#aaaaaa; stroke-opacity:100%; stroke-width: 1.5pt; stroke-linejoin:round; stroke-linecap:round;" d="M30.75 42.82c0.96 0.96 1.64 2.45 1.72 4.19c0.41 8.74 0.96 32.92 1.18 43.74c0.05 2.48 0.08 4.12 0.1 4.5"></path>
<path style="fill:none; fill-opacity:0%; fill-rule:evenodd; stroke:#aaaaaa; stroke-opacity:100%; stroke-width: 1.5pt; stroke-linejoin:round; stroke-linecap:round;" d="M33.55 44.8c10.35-1.37 35.73-4.38 38.78-4.59c3.15-0.22 4.92 1.17 4.92 4.24c0 4.48-0.68 32-0.92 44.06c-0.06 3.02-0.1 5.05-0.11 5.48"></path>
<path style="fill:none; fill-opacity:0%; fill-rule:evenodd; stroke:#aaaaaa; stroke-opacity:100%; stroke-width: 1.5pt; stroke-linejoin:round; stroke-linecap:round;" d="M34.14 66.95c10.24-1.08 32.11-3.2 41.44-3.57"></path>
<path style="fill:none; fill-opacity:0%; fill-rule:evenodd; stroke:#aaaaaa; stroke-opacity:100%; stroke-width: 1.5pt; stroke-linejoin:round; stroke-linecap:round;" d="M34.97 92.87c8.78-0.87 30.53-2.12 40.06-2.39"></path>

<text x="5" y="20" font-size="20" fill="#999999">1</text><path style="fill:none; fill-opacity:0%; fill-rule:evenodd; stroke:#CC0000; stroke-opacity:100%; stroke-width: 3pt; stroke-linejoin:round; stroke-linecap:round;" d="M16.13 20.23c2.22 0.54 6.29 0.75 8.51 0.54c21.49-2.02 41.86-4.39 59.22-4.98c3.7-0.12 5.92 0.26 7.77 0.53"  ></path>






</g><g transform="scale(1.3761467889908 1.3761467889908) translate(109, 0)">
<path style="fill:none; fill-rule:evenodd; stroke:#aaaaaa;  stroke-width:1pt; stroke-linecap:round;" d="m 109 0 L 0 0 L 0 109 L 109 109 L 109 0"></path><path style="fill:none; fill-opacity:0%; fill-rule:evenodd; stroke:#aaaaaa; stroke-opacity:100%; stroke-width: 1.5pt; stroke-linejoin:round; stroke-linecap:round;" d="M16.13 20.23c2.22 0.54 6.29 0.75 8.51 0.54c21.49-2.02 41.86-4.39 59.22-4.98c3.7-0.12 5.92 0.26 7.77 0.53"></path>
<path style="fill:none; fill-opacity:0%; fill-rule:evenodd; stroke:#aaaaaa; stroke-opacity:100%; stroke-width: 1.5pt; stroke-linejoin:round; stroke-linecap:round;" d="M52.31 21.75c0.19 1.38 0.19 2.5-0.38 3.93c-1.65 4.19-4.81 9.19-8.66 14.68"></path>
<path style="fill:none; fill-opacity:0%; fill-rule:evenodd; stroke:#aaaaaa; stroke-opacity:100%; stroke-width: 1.5pt; stroke-linejoin:round; stroke-linecap:round;" d="M30.75 42.82c0.96 0.96 1.64 2.45 1.72 4.19c0.41 8.74 0.96 32.92 1.18 43.74c0.05 2.48 0.08 4.12 0.1 4.5"></path>
<path style="fill:none; fill-opacity:0%; fill-rule:evenodd; stroke:#aaaaaa; stroke-opacity:100%; stroke-width: 1.5pt; stroke-linejoin:round; stroke-linecap:round;" d="M33.55 44.8c10.35-1.37 35.73-4.38 38.78-4.59c3.15-0.22 4.92 1.17 4.92 4.24c0 4.48-0.68 32-0.92 44.06c-0.06 3.02-0.1 5.05-0.11 5.48"></path>
<path style="fill:none; fill-opacity:0%; fill-rule:evenodd; stroke:#aaaaaa; stroke-opacity:100%; stroke-width: 1.5pt; stroke-linejoin:round; stroke-linecap:round;" d="M34.14 66.95c10.24-1.08 32.11-3.2 41.44-3.57"></path>
<path style="fill:none; fill-opacity:0%; fill-rule:evenodd; stroke:#aaaaaa; stroke-opacity:100%; stroke-width: 1.5pt; stroke-linejoin:round; stroke-linecap:round;" d="M34.97 92.87c8.78-0.87 30.53-2.12 40.06-2.39"></path>

<path style="fill:none; fill-opacity:0%; fill-rule:evenodd; stroke:#000000; stroke-opacity:100%; stroke-width: 3pt; stroke-linejoin:round; stroke-linecap:round;" d="M16.13 20.23c2.22 0.54 6.29 0.75 8.51 0.54c21.49-2.02 41.86-4.39 59.22-4.98c3.7-0.12 5.92 0.26 7.77 0.53"></path>
<text x="5" y="20" font-size="20" fill="#999999">2</text><path style="fill:none; fill-opacity:0%; fill-rule:evenodd; stroke:#CC0000; stroke-opacity:100%; stroke-width: 3pt; stroke-linejoin:round; stroke-linecap:round;" d="M52.31 21.75c0.19 1.38 0.19 2.5-0.38 3.93c-1.65 4.19-4.81 9.19-8.66 14.68"  ></path>





</g><g transform="scale(1.3761467889908 1.3761467889908) translate(218, 0)">
<path style="fill:none; fill-rule:evenodd; stroke:#aaaaaa;  stroke-width:1pt; stroke-linecap:round;" d="m 109 0 L 0 0 L 0 109 L 109 109 L 109 0"></path><path style="fill:none; fill-opacity:0%; fill-rule:evenodd; stroke:#aaaaaa; stroke-opacity:100%; stroke-width: 1.5pt; stroke-linejoin:round; stroke-linecap:round;" d="M16.13 20.23c2.22 0.54 6.29 0.75 8.51 0.54c21.49-2.02 41.86-4.39 59.22-4.98c3.7-0.12 5.92 0.26 7.77 0.53"></path>
<path style="fill:none; fill-opacity:0%; fill-rule:evenodd; stroke:#aaaaaa; stroke-opacity:100%; stroke-width: 1.5pt; stroke-linejoin:round; stroke-linecap:round;" d="M52.31 21.75c0.19 1.38 0.19 2.5-0.38 3.93c-1.65 4.19-4.81 9.19-8.66 14.68"></path>
<path style="fill:none; fill-opacity:0%; fill-rule:evenodd; stroke:#aaaaaa; stroke-opacity:100%; stroke-width: 1.5pt; stroke-linejoin:round; stroke-linecap:round;" d="M30.75 42.82c0.96 0.96 1.64 2.45 1.72 4.19c0.41 8.74 0.96 32.92 1.18 43.74c0.05 2.48 0.08 4.12 0.1 4.5"></path>
<path style="fill:none; fill-opacity:0%; fill-rule:evenodd; stroke:#aaaaaa; stroke-opacity:100%; stroke-width: 1.5pt; stroke-linejoin:round; stroke-linecap:round;" d="M33.55 44.8c10.35-1.37 35.73-4.38 38.78-4.59c3.15-0.22 4.92 1.17 4.92 4.24c0 4.48-0.68 32-0.92 44.06c-0.06 3.02-0.1 5.05-0.11 5.48"></path>
<path style="fill:none; fill-opacity:0%; fill-rule:evenodd; stroke:#aaaaaa; stroke-opacity:100%; stroke-width: 1.5pt; stroke-linejoin:round; stroke-linecap:round;" d="M34.14 66.95c10.24-1.08 32.11-3.2 41.44-3.57"></path>
<path style="fill:none; fill-opacity:0%; fill-rule:evenodd; stroke:#aaaaaa; stroke-opacity:100%; stroke-width: 1.5pt; stroke-linejoin:round; stroke-linecap:round;" d="M34.97 92.87c8.78-0.87 30.53-2.12 40.06-2.39"></path>

<path style="fill:none; fill-opacity:0%; fill-rule:evenodd; stroke:#000000; stroke-opacity:100%; stroke-width: 3pt; stroke-linejoin:round; stroke-linecap:round;" d="M16.13 20.23c2.22 0.54 6.29 0.75 8.51 0.54c21.49-2.02 41.86-4.39 59.22-4.98c3.7-0.12 5.92 0.26 7.77 0.53"></path>
<path style="fill:none; fill-opacity:0%; fill-rule:evenodd; stroke:#000000; stroke-opacity:100%; stroke-width: 3pt; stroke-linejoin:round; stroke-linecap:round;" d="M52.31 21.75c0.19 1.38 0.19 2.5-0.38 3.93c-1.65 4.19-4.81 9.19-8.66 14.68"></path>
<text x="5" y="20" font-size="20" fill="#999999">3</text><path style="fill:none; fill-opacity:0%; fill-rule:evenodd; stroke:#CC0000; stroke-opacity:100%; stroke-width: 3pt; stroke-linejoin:round; stroke-linecap:round;" d="M30.75 42.82c0.96 0.96 1.64 2.45 1.72 4.19c0.41 8.74 0.96 32.92 1.18 43.74c0.05 2.48 0.08 4.12 0.1 4.5"  ></path>




</g><g transform="scale(1.3761467889908 1.3761467889908) translate(327, 0)">
<path style="fill:none; fill-rule:evenodd; stroke:#aaaaaa;  stroke-width:1pt; stroke-linecap:round;" d="m 109 0 L 0 0 L 0 109 L 109 109 L 109 0"></path><path style="fill:none; fill-opacity:0%; fill-rule:evenodd; stroke:#aaaaaa; stroke-opacity:100%; stroke-width: 1.5pt; stroke-linejoin:round; stroke-linecap:round;" d="M16.13 20.23c2.22 0.54 6.29 0.75 8.51 0.54c21.49-2.02 41.86-4.39 59.22-4.98c3.7-0.12 5.92 0.26 7.77 0.53"></path>
<path style="fill:none; fill-opacity:0%; fill-rule:evenodd; stroke:#aaaaaa; stroke-opacity:100%; stroke-width: 1.5pt; stroke-linejoin:round; stroke-linecap:round;" d="M52.31 21.75c0.19 1.38 0.19 2.5-0.38 3.93c-1.65 4.19-4.81 9.19-8.66 14.68"></path>
<path style="fill:none; fill-opacity:0%; fill-rule:evenodd; stroke:#aaaaaa; stroke-opacity:100%; stroke-width: 1.5pt; stroke-linejoin:round; stroke-linecap:round;" d="M30.75 42.82c0.96 0.96 1.64 2.45 1.72 4.19c0.41 8.74 0.96 32.92 1.18 43.74c0.05 2.48 0.08 4.12 0.1 4.5"></path>
<path style="fill:none; fill-opacity:0%; fill-rule:evenodd; stroke:#aaaaaa; stroke-opacity:100%; stroke-width: 1.5pt; stroke-linejoin:round; stroke-linecap:round;" d="M33.55 44.8c10.35-1.37 35.73-4.38 38.78-4.59c3.15-0.22 4.92 1.17 4.92 4.24c0 4.48-0.68 32-0.92 44.06c-0.06 3.02-0.1 5.05-0.11 5.48"></path>
<path style="fill:none; fill-opacity:0%; fill-rule:evenodd; stroke:#aaaaaa; stroke-opacity:100%; stroke-width: 1.5pt; stroke-linejoin:round; stroke-linecap:round;" d="M34.14 66.95c10.24-1.08 32.11-3.2 41.44-3.57"></path>
<path style="fill:none; fill-opacity:0%; fill-rule:evenodd; stroke:#aaaaaa; stroke-opacity:100%; stroke-width: 1.5pt; stroke-linejoin:round; stroke-linecap:round;" d="M34.97 92.87c8.78-0.87 30.53-2.12 40.06-2.39"></path>

<path style="fill:none; fill-opacity:0%; fill-rule:evenodd; stroke:#000000; stroke-opacity:100%; stroke-width: 3pt; stroke-linejoin:round; stroke-linecap:round;" d="M16.13 20.23c2.22 0.54 6.29 0.75 8.51 0.54c21.49-2.02 41.86-4.39 59.22-4.98c3.7-0.12 5.92 0.26 7.77 0.53"></path>
<path style="fill:none; fill-opacity:0%; fill-rule:evenodd; stroke:#000000; stroke-opacity:100%; stroke-width: 3pt; stroke-linejoin:round; stroke-linecap:round;" d="M52.31 21.75c0.19 1.38 0.19 2.5-0.38 3.93c-1.65 4.19-4.81 9.19-8.66 14.68"></path>
<path style="fill:none; fill-opacity:0%; fill-rule:evenodd; stroke:#000000; stroke-opacity:100%; stroke-width: 3pt; stroke-linejoin:round; stroke-linecap:round;" d="M30.75 42.82c0.96 0.96 1.64 2.45 1.72 4.19c0.41 8.74 0.96 32.92 1.18 43.74c0.05 2.48 0.08 4.12 0.1 4.5"></path>
<text x="5" y="20" font-size="20" fill="#999999">4</text><path style="fill:none; fill-opacity:0%; fill-rule:evenodd; stroke:#CC0000; stroke-opacity:100%; stroke-width: 3pt; stroke-linejoin:round; stroke-linecap:round;" d="M33.55 44.8c10.35-1.37 35.73-4.38 38.78-4.59c3.15-0.22 4.92 1.17 4.92 4.24c0 4.48-0.68 32-0.92 44.06c-0.06 3.02-0.1 5.05-0.11 5.48"  ></path>



</g><g transform="scale(1.3761467889908 1.3761467889908) translate(436, 0)">
<path style="fill:none; fill-rule:evenodd; stroke:#aaaaaa;  stroke-width:1pt; stroke-linecap:round;" d="m 109 0 L 0 0 L 0 109 L 109 109 L 109 0"></path><path style="fill:none; fill-opacity:0%; fill-rule:evenodd; stroke:#aaaaaa; stroke-opacity:100%; stroke-width: 1.5pt; stroke-linejoin:round; stroke-linecap:round;" d="M16.13 20.23c2.22 0.54 6.29 0.75 8.51 0.54c21.49-2.02 41.86-4.39 59.22-4.98c3.7-0.12 5.92 0.26 7.77 0.53"></path>
<path style="fill:none; fill-opacity:0%; fill-rule:evenodd; stroke:#aaaaaa; stroke-opacity:100%; stroke-width: 1.5pt; stroke-linejoin:round; stroke-linecap:round;" d="M52.31 21.75c0.19 1.38 0.19 2.5-0.38 3.93c-1.65 4.19-4.81 9.19-8.66 14.68"></path>
<path style="fill:none; fill-opacity:0%; fill-rule:evenodd; stroke:#aaaaaa; stroke-opacity:100%; stroke-width: 1.5pt; stroke-linejoin:round; stroke-linecap:round;" d="M30.75 42.82c0.96 0.96 1.64 2.45 1.72 4.19c0.41 8.74 0.96 32.92 1.18 43.74c0.05 2.48 0.08 4.12 0.1 4.5"></path>
<path style="fill:none; fill-opacity:0%; fill-rule:evenodd; stroke:#aaaaaa; stroke-opacity:100%; stroke-width: 1.5pt; stroke-linejoin:round; stroke-linecap:round;" d="M33.55 44.8c10.35-1.37 35.73-4.38 38.78-4.59c3.15-0.22 4.92 1.17 4.92 4.24c0 4.48-0.68 32-0.92 44.06c-0.06 3.02-0.1 5.05-0.11 5.48"></path>
<path style="fill:none; fill-opacity:0%; fill-rule:evenodd; stroke:#aaaaaa; stroke-opacity:100%; stroke-width: 1.5pt; stroke-linejoin:round; stroke-linecap:round;" d="M34.14 66.95c10.24-1.08 32.11-3.2 41.44-3.57"></path>
<path style="fill:none; fill-opacity:0%; fill-rule:evenodd; stroke:#aaaaaa; stroke-opacity:100%; stroke-width: 1.5pt; stroke-linejoin:round; stroke-linecap:round;" d="M34.97 92.87c8.78-0.87 30.53-2.12 40.06-2.39"></path>

<path style="fill:none; fill-opacity:0%; fill-rule:evenodd; stroke:#000000; stroke-opacity:100%; stroke-width: 3pt; stroke-linejoin:round; stroke-linecap:round;" d="M16.13 20.23c2.22 0.54 6.29 0.75 8.51 0.54c21.49-2.02 41.86-4.39 59.22-4.98c3.7-0.12 5.92 0.26 7.77 0.53"></path>
<path style="fill:none; fill-opacity:0%; fill-rule:evenodd; stroke:#000000; stroke-opacity:100%; stroke-width: 3pt; stroke-linejoin:round; stroke-linecap:round;" d="M52.31 21.75c0.19 1.38 0.19 2.5-0.38 3.93c-1.65 4.19-4.81 9.19-8.66 14.68"></path>
<path style="fill:none; fill-opacity:0%; fill-rule:evenodd; stroke:#000000; stroke-opacity:100%; stroke-width: 3pt; stroke-linejoin:round; stroke-linecap:round;" d="M30.75 42.82c0.96 0.96 1.64 2.45 1.72 4.19c0.41 8.74 0.96 32.92 1.18 43.74c0.05 2.48 0.08 4.12 0.1 4.5"></path>
<path style="fill:none; fill-opacity:0%; fill-rule:evenodd; stroke:#000000; stroke-opacity:100%; stroke-width: 3pt; stroke-linejoin:round; stroke-linecap:round;" d="M33.55 44.8c10.35-1.37 35.73-4.38 38.78-4.59c3.15-0.22 4.92 1.17 4.92 4.24c0 4.48-0.68 32-0.92 44.06c-0.06 3.02-0.1 5.05-0.11 5.48"></path>
<text x="5" y="20" font-size="20" fill="#999999">5</text><path style="fill:none; fill-opacity:0%; fill-rule:evenodd; stroke:#CC0000; stroke-opacity:100%; stroke-width: 3pt; stroke-linejoin:round; stroke-linecap:round;" d="M34.14 66.95c10.24-1.08 32.11-3.2 41.44-3.57"  ></path>


</g><g transform="scale(1.3761467889908 1.3761467889908) translate(0, 109)">
<path style="fill:none; fill-rule:evenodd; stroke:#aaaaaa;  stroke-width:1pt; stroke-linecap:round;" d="m 109 0 L 0 0 L 0 109 L 109 109 L 109 0"></path><path style="fill:none; fill-opacity:0%; fill-rule:evenodd; stroke:#aaaaaa; stroke-opacity:100%; stroke-width: 1.5pt; stroke-linejoin:round; stroke-linecap:round;" d="M16.13 20.23c2.22 0.54 6.29 0.75 8.51 0.54c21.49-2.02 41.86-4.39 59.22-4.98c3.7-0.12 5.92 0.26 7.77 0.53"></path>
<path style="fill:none; fill-opacity:0%; fill-rule:evenodd; stroke:#aaaaaa; stroke-opacity:100%; stroke-width: 1.5pt; stroke-linejoin:round; stroke-linecap:round;" d="M52.31 21.75c0.19 1.38 0.19 2.5-0.38 3.93c-1.65 4.19-4.81 9.19-8.66 14.68"></path>
<path style="fill:none; fill-opacity:0%; fill-rule:evenodd; stroke:#aaaaaa; stroke-opacity:100%; stroke-width: 1.5pt; stroke-linejoin:round; stroke-linecap:round;" d="M30.75 42.82c0.96 0.96 1.64 2.45 1.72 4.19c0.41 8.74 0.96 32.92 1.18 43.74c0.05 2.48 0.08 4.12 0.1 4.5"></path>
<path style="fill:none; fill-opacity:0%; fill-rule:evenodd; stroke:#aaaaaa; stroke-opacity:100%; stroke-width: 1.5pt; stroke-linejoin:round; stroke-linecap:round;" d="M33.55 44.8c10.35-1.37 35.73-4.38 38.78-4.59c3.15-0.22 4.92 1.17 4.92 4.24c0 4.48-0.68 32-0.92 44.06c-0.06 3.02-0.1 5.05-0.11 5.48"></path>
<path style="fill:none; fill-opacity:0%; fill-rule:evenodd; stroke:#aaaaaa; stroke-opacity:100%; stroke-width: 1.5pt; stroke-linejoin:round; stroke-linecap:round;" d="M34.14 66.95c10.24-1.08 32.11-3.2 41.44-3.57"></path>
<path style="fill:none; fill-opacity:0%; fill-rule:evenodd; stroke:#aaaaaa; stroke-opacity:100%; stroke-width: 1.5pt; stroke-linejoin:round; stroke-linecap:round;" d="M34.97 92.87c8.78-0.87 30.53-2.12 40.06-2.39"></path>

<path style="fill:none; fill-opacity:0%; fill-rule:evenodd; stroke:#000000; stroke-opacity:100%; stroke-width: 3pt; stroke-linejoin:round; stroke-linecap:round;" d="M16.13 20.23c2.22 0.54 6.29 0.75 8.51 0.54c21.49-2.02 41.86-4.39 59.22-4.98c3.7-0.12 5.92 0.26 7.77 0.53"></path>
<path style="fill:none; fill-opacity:0%; fill-rule:evenodd; stroke:#000000; stroke-opacity:100%; stroke-width: 3pt; stroke-linejoin:round; stroke-linecap:round;" d="M52.31 21.75c0.19 1.38 0.19 2.5-0.38 3.93c-1.65 4.19-4.81 9.19-8.66 14.68"></path>
<path style="fill:none; fill-opacity:0%; fill-rule:evenodd; stroke:#000000; stroke-opacity:100%; stroke-width: 3pt; stroke-linejoin:round; stroke-linecap:round;" d="M30.75 42.82c0.96 0.96 1.64 2.45 1.72 4.19c0.41 8.74 0.96 32.92 1.18 43.74c0.05 2.48 0.08 4.12 0.1 4.5"></path>
<path style="fill:none; fill-opacity:0%; fill-rule:evenodd; stroke:#000000; stroke-opacity:100%; stroke-width: 3pt; stroke-linejoin:round; stroke-linecap:round;" d="M33.55 44.8c10.35-1.37 35.73-4.38 38.78-4.59c3.15-0.22 4.92 1.17 4.92 4.24c0 4.48-0.68 32-0.92 44.06c-0.06 3.02-0.1 5.05-0.11 5.48"></path>
<path style="fill:none; fill-opacity:0%; fill-rule:evenodd; stroke:#000000; stroke-opacity:100%; stroke-width: 3pt; stroke-linejoin:round; stroke-linecap:round;" d="M34.14 66.95c10.24-1.08 32.11-3.2 41.44-3.57"></path>
<text x="5" y="20" font-size="20" fill="#999999">6</text><path style="fill:none; fill-opacity:0%; fill-rule:evenodd; stroke:#CC0000; stroke-opacity:100%; stroke-width: 3pt; stroke-linejoin:round; stroke-linecap:round;" d="M34.97 92.87c8.78-0.87 30.53-2.12 40.06-2.39"  ></path>

</g>

</svg>  
          
