<?xml version="1.0" standalone="no"?>
<!DOCTYPE svg PUBLIC "-//W3C//DTD SVG 1.1//EN"   "http://www.w3.org/Graphics/SVG/1.1/DTD/svg11.dtd">
<svg width="751" height="151"  version="1.1" xmlns="http://www.w3.org/2000/svg">
  <defs>
    <marker id="Triangle" viewBox="0 0 10 10" refX="0" refY="5" markerUnits="strokeWidth" markerWidth="3" style="stroke-opacity:0%;fill:#aaaaaa;" markerHeight="2" orient="auto">
      <path d="M 0 0 L 10 5 L 0 10 z" />
    </marker>
    
    <marker id="Arrow" viewBox="0 0 10 10" refX="5" refY="5" markerUnits="strokeWidth" markerWidth="1.8" style="stroke-opacity:0%;fill:#770000;" markerHeight="2" orient="auto">
      <path d="M 0 4 L 6 4 L 4 1 L 10 5 L 4 9 L 6 6 L 0 6 z" />
        <circle cx="5" cy="5" r="5" />
      </marker>
    
    <marker id="TriangleRed" viewBox="0 0 10 10" refX="0" refY="5" markerUnits="strokeWidth" markerWidth="3" style="stroke-opacity:0%;fill:#CC0000;" markerHeight="2" orient="auto">
      <path d="M 0 0 L 10 5 L 0 10 z" />
    </marker>
    
    <marker id="ArrowRed" viewBox="0 0 10 10" refX="5" refY="5" markerUnits="strokeWidth" markerWidth="1.8" style="stroke-opacity:0%;fill:#CC0000;" markerHeight="2" orient="auto">
      <path d="M 0 4 L 6 4 L 4 1 L 10 5 L 4 9 L 6 6 L 0 6 z" />
        <circle cx="5" cy="5" r="5" />
      </marker>
    
  </defs>
  
  <path style="fill:#ffffff; fill-opacity:100%; fill-rule:evenodd; stroke-width:0;" d="M 0 0 L 751 0 L 751 151 L 0 151 L 0 0" />

  <g transform="scale(1.3761467889908 1.3761467889908) translate(0, 0)">
<path style="fill:none; fill-rule:evenodd; stroke:#aaaaaa;  stroke-width:1pt; stroke-linecap:round;" d="m 109 0 L 0 0 L 0 109 L 109 109 L 109 0"></path><path style="fill:none; fill-opacity:0%; fill-rule:evenodd; stroke:#aaaaaa; stroke-opacity:100%; stroke-width: 1.5pt; stroke-linejoin:round; stroke-linecap:round;" d="M29.08 14.12c3.93 2.24 8.13 6.21 11.5 10.12"></path>
<path style="fill:none; fill-opacity:0%; fill-rule:evenodd; stroke:#aaaaaa; stroke-opacity:100%; stroke-width: 1.5pt; stroke-linejoin:round; stroke-linecap:round;" d="M15.36 39.25c1.04 0.45 3.14 0.91 4.93 0.7c5.75-0.69 20.57-4.37 22.55-4.95c2.59-0.75 4.09 1.26 2.51 3.5C39.91 46.25 26.38 64.38 14.5 74"></path>
<path style="fill:none; fill-opacity:0%; fill-rule:evenodd; stroke:#aaaaaa; stroke-opacity:100%; stroke-width: 1.5pt; stroke-linejoin:round; stroke-linecap:round;" d="M35 54.86c0.88 0.88 1.52 2.27 1.52 4.14c0 8.67-0.01 23.85-0.02 31.75c0 2.35 0 4.05 0 4.75"></path>
<path style="fill:none; fill-opacity:0%; fill-rule:evenodd; stroke:#aaaaaa; stroke-opacity:100%; stroke-width: 1.5pt; stroke-linejoin:round; stroke-linecap:round;" d="M39.2 56.5c3.71 2.41 7.69 6.03 10.88 10.25"></path>
<path style="fill:none; fill-opacity:0%; fill-rule:evenodd; stroke:#aaaaaa; stroke-opacity:100%; stroke-width: 1.5pt; stroke-linejoin:round; stroke-linecap:round;" d="M67.24 17.37c1.01 1.01 1.49 2.88 1.49 4.43c0 8.19-0.13 49.14-0.13 54.7c0 9.88 2.15 12.03 12.96 12.03C93 88.53 94.89 87 94.89 78.9"></path>

<text x="5" y="20" font-size="20" fill="#999999">1</text><path style="fill:none; fill-opacity:0%; fill-rule:evenodd; stroke:#CC0000; stroke-opacity:100%; stroke-width: 3pt; stroke-linejoin:round; stroke-linecap:round;" d="M29.08 14.12c3.93 2.24 8.13 6.21 11.5 10.12"  ></path>





</g><g transform="scale(1.3761467889908 1.3761467889908) translate(109, 0)">
<path style="fill:none; fill-rule:evenodd; stroke:#aaaaaa;  stroke-width:1pt; stroke-linecap:round;" d="m 109 0 L 0 0 L 0 109 L 109 109 L 109 0"></path><path style="fill:none; fill-opacity:0%; fill-rule:evenodd; stroke:#aaaaaa; stroke-opacity:100%; stroke-width: 1.5pt; stroke-linejoin:round; stroke-linecap:round;" d="M29.08 14.12c3.93 2.24 8.13 6.21 11.5 10.12"></path>
<path style="fill:none; fill-opacity:0%; fill-rule:evenodd; stroke:#aaaaaa; stroke-opacity:100%; stroke-width: 1.5pt; stroke-linejoin:round; stroke-linecap:round;" d="M15.36 39.25c1.04 0.45 3.14 0.91 4.93 0.7c5.75-0.69 20.57-4.37 22.55-4.95c2.59-0.75 4.09 1.26 2.51 3.5C39.91 46.25 26.38 64.38 14.5 74"></path>
<path style="fill:none; fill-opacity:0%; fill-rule:evenodd; stroke:#aaaaaa; stroke-opacity:100%; stroke-width: 1.5pt; stroke-linejoin:round; stroke-linecap:round;" d="M35 54.86c0.88 0.88 1.52 2.27 1.52 4.14c0 8.67-0.01 23.85-0.02 31.75c0 2.35 0 4.05 0 4.75"></path>
<path style="fill:none; fill-opacity:0%; fill-rule:evenodd; stroke:#aaaaaa; stroke-opacity:100%; stroke-width: 1.5pt; stroke-linejoin:round; stroke-linecap:round;" d="M39.2 56.5c3.71 2.41 7.69 6.03 10.88 10.25"></path>
<path style="fill:none; fill-opacity:0%; fill-rule:evenodd; stroke:#aaaaaa; stroke-opacity:100%; stroke-width: 1.5pt; stroke-linejoin:round; stroke-linecap:round;" d="M67.24 17.37c1.01 1.01 1.49 2.88 1.49 4.43c0 8.19-0.13 49.14-0.13 54.7c0 9.88 2.15 12.03 12.96 12.03C93 88.53 94.89 87 94.89 78.9"></path>

<path style="fill:none; fill-opacity:0%; fill-rule:evenodd; stroke:#000000; stroke-opacity:100%; stroke-width: 3pt; stroke-linejoin:round; stroke-linecap:round;" d="M29.08 14.12c3.93 2.24 8.13 6.21 11.5 10.12"></path>
<text x="5" y="20" font-size="20" fill="#999999">2</text><path style="fill:none; fill-opacity:0%; fill-rule:evenodd; stroke:#CC0000; stroke-opacity:100%; stroke-width: 3pt; stroke-linejoin:round; stroke-linecap:round;" d="M15.36 39.25c1.04 0.45 3.14 0.91 4.93 0.7c5.75-0.69 20.57-4.37 22.55-4.95c2.59-0.75 4.09 1.26 2.51 3.5C39.91 46.25 26.38 64.38 14.5 74"  ></path>




</g><g transform="scale(1.3761467889908 1.3761467889908) translate(218, 0)">
<path style="fill:none; fill-rule:evenodd; stroke:#aaaaaa;  stroke-width:1pt; stroke-linecap:round;" d="m 109 0 L 0 0 L 0 109 L 109 109 L 109 0"></path><path style="fill:none; fill-opacity:0%; fill-rule:evenodd; stroke:#aaaaaa; stroke-opacity:100%; stroke-width: 1.5pt; stroke-linejoin:round; stroke-linecap:round;" d="M29.08 14.12c3.93 2.24 8.13 6.21 11.5 10.12"></path>
<path style="fill:none; fill-opacity:0%; fill-rule:evenodd; stroke:#aaaaaa; stroke-opacity:100%; stroke-width: 1.5pt; stroke-linejoin:round; stroke-linecap:round;" d="M15.36 39.25c1.04 0.45 3.14 0.91 4.93 0.7c5.75-0.69 20.57-4.37 22.55-4.95c2.59-0.75 4.09 1.26 2.51 3.5C39.91 46.25 26.38 64.38 14.5 74"></path>
<path style="fill:none; fill-opacity:0%; fill-rule:evenodd; stroke:#aaaaaa; stroke-opacity:100%; stroke-width: 1.5pt; stroke-linejoin:round; stroke-linecap:round;" d="M35 54.86c0.88 0.88 1.52 2.27 1.52 4.14c0 8.67-0.01 23.85-0.02 31.75c0 2.35 0 4.05 0 4.75"></path>
<path style="fill:none; fill-opacity:0%; fill-rule:evenodd; stroke:#aaaaaa; stroke-opacity:100%; stroke-width: 1.5pt; stroke-linejoin:round; stroke-linecap:round;" d="M39.2 56.5c3.71 2.41 7.69 6.03 10.88 10.25"></path>
<path style="fill:none; fill-opacity:0%; fill-rule:evenodd; stroke:#aaaaaa; stroke-opacity:100%; stroke-width: 1.5pt; stroke-linejoin:round; stroke-linecap:round;" d="M67.24 17.37c1.01 1.01 1.49 2.88 1.49 4.43c0 8.19-0.13 49.14-0.13 54.7c0 9.88 2.15 12.03 12.96 12.03C93 88.53 94.89 87 94.89 78.9"></path>

<path style="fill:none; fill-opacity:0%; fill-rule:evenodd; stroke:#000000; stroke-opacity:100%; stroke-width: 3pt; stroke-linejoin:round; stroke-linecap:round;" d="M29.08 14.12c3.93 2.24 8.13 6.21 11.5 10.12"></path>
<path style="fill:none; fill-opacity:0%; fill-rule:evenodd; stroke:#000000; stroke-opacity:100%; stroke-width: 3pt; stroke-linejoin:round; stroke-linecap:round;" d="M15.36 39.25c1.04 0.45 3.14 0.91 4.93 0.7c5.75-0.69 20.57-4.37 22.55-4.95c2.59-0.75 4.09 1.26 2.51 3.5C39.91 46.25 26.38 64.38 14.5 74"></path>
<text x="5" y="20" font-size="20" fill="#999999">3</text><path style="fill:none; fill-opacity:0%; fill-rule:evenodd; stroke:#CC0000; stroke-opacity:100%; stroke-width: 3pt; stroke-linejoin:round; stroke-linecap:round;" d="M35 54.86c0.88 0.88 1.52 2.27 1.52 4.14c0 8.67-0.01 23.85-0.02 31.75c0 2.35 0 4.05 0 4.75"  ></path>



</g><g transform="scale(1.3761467889908 1.3761467889908) translate(327, 0)">
<path style="fill:none; fill-rule:evenodd; stroke:#aaaaaa;  stroke-width:1pt; stroke-linecap:round;" d="m 109 0 L 0 0 L 0 109 L 109 109 L 109 0"></path><path style="fill:none; fill-opacity:0%; fill-rule:evenodd; stroke:#aaaaaa; stroke-opacity:100%; stroke-width: 1.5pt; stroke-linejoin:round; stroke-linecap:round;" d="M29.08 14.12c3.93 2.24 8.13 6.21 11.5 10.12"></path>
<path style="fill:none; fill-opacity:0%; fill-rule:evenodd; stroke:#aaaaaa; stroke-opacity:100%; stroke-width: 1.5pt; stroke-linejoin:round; stroke-linecap:round;" d="M15.36 39.25c1.04 0.45 3.14 0.91 4.93 0.7c5.75-0.69 20.57-4.37 22.55-4.95c2.59-0.75 4.09 1.26 2.51 3.5C39.91 46.25 26.38 64.38 14.5 74"></path>
<path style="fill:none; fill-opacity:0%; fill-rule:evenodd; stroke:#aaaaaa; stroke-opacity:100%; stroke-width: 1.5pt; stroke-linejoin:round; stroke-linecap:round;" d="M35 54.86c0.88 0.88 1.52 2.27 1.52 4.14c0 8.67-0.01 23.85-0.02 31.75c0 2.35 0 4.05 0 4.75"></path>
<path style="fill:none; fill-opacity:0%; fill-rule:evenodd; stroke:#aaaaaa; stroke-opacity:100%; stroke-width: 1.5pt; stroke-linejoin:round; stroke-linecap:round;" d="M39.2 56.5c3.71 2.41 7.69 6.03 10.88 10.25"></path>
<path style="fill:none; fill-opacity:0%; fill-rule:evenodd; stroke:#aaaaaa; stroke-opacity:100%; stroke-width: 1.5pt; stroke-linejoin:round; stroke-linecap:round;" d="M67.24 17.37c1.01 1.01 1.49 2.88 1.49 4.43c0 8.19-0.13 49.14-0.13 54.7c0 9.88 2.15 12.03 12.96 12.03C93 88.53 94.89 87 94.89 78.9"></path>

<path style="fill:none; fill-opacity:0%; fill-rule:evenodd; stroke:#000000; stroke-opacity:100%; stroke-width: 3pt; stroke-linejoin:round; stroke-linecap:round;" d="M29.08 14.12c3.93 2.24 8.13 6.21 11.5 10.12"></path>
<path style="fill:none; fill-opacity:0%; fill-rule:evenodd; stroke:#000000; stroke-opacity:100%; stroke-width: 3pt; stroke-linejoin:round; stroke-linecap:round;" d="M15.36 39.25c1.04 0.45 3.14 0.91 4.93 0.7c5.75-0.69 20.57-4.37 22.55-4.95c2.59-0.75 4.09 1.26 2.51 3.5C39.91 46.25 26.38 64.38 14.5 74"></path>
<path style="fill:none; fill-opacity:0%; fill-rule:evenodd; stroke:#000000; stroke-opacity:100%; stroke-width: 3pt; stroke-linejoin:round; stroke-linecap:round;" d="M35 54.86c0.88 0.88 1.52 2.27 1.52 4.14c0 8.67-0.01 23.85-0.02 31.75c0 2.35 0 4.05 0 4.75"></path>
<text x="5" y="20" font-size="20" fill="#999999">4</text><path style="fill:none; fill-opacity:0%; fill-rule:evenodd; stroke:#CC0000; stroke-opacity:100%; stroke-width: 3pt; stroke-linejoin:round; stroke-linecap:round;" d="M39.2 56.5c3.71 2.41 7.69 6.03 10.88 10.25"  ></path>


</g><g transform="scale(1.3761467889908 1.3761467889908) translate(436, 0)">
<path style="fill:none; fill-rule:evenodd; stroke:#aaaaaa;  stroke-width:1pt; stroke-linecap:round;" d="m 109 0 L 0 0 L 0 109 L 109 109 L 109 0"></path><path style="fill:none; fill-opacity:0%; fill-rule:evenodd; stroke:#aaaaaa; stroke-opacity:100%; stroke-width: 1.5pt; stroke-linejoin:round; stroke-linecap:round;" d="M29.08 14.12c3.93 2.24 8.13 6.21 11.5 10.12"></path>
<path style="fill:none; fill-opacity:0%; fill-rule:evenodd; stroke:#aaaaaa; stroke-opacity:100%; stroke-width: 1.5pt; stroke-linejoin:round; stroke-linecap:round;" d="M15.36 39.25c1.04 0.45 3.14 0.91 4.93 0.7c5.75-0.69 20.57-4.37 22.55-4.95c2.59-0.75 4.09 1.26 2.51 3.5C39.91 46.25 26.38 64.38 14.5 74"></path>
<path style="fill:none; fill-opacity:0%; fill-rule:evenodd; stroke:#aaaaaa; stroke-opacity:100%; stroke-width: 1.5pt; stroke-linejoin:round; stroke-linecap:round;" d="M35 54.86c0.88 0.88 1.52 2.27 1.52 4.14c0 8.67-0.01 23.85-0.02 31.75c0 2.35 0 4.05 0 4.75"></path>
<path style="fill:none; fill-opacity:0%; fill-rule:evenodd; stroke:#aaaaaa; stroke-opacity:100%; stroke-width: 1.5pt; stroke-linejoin:round; stroke-linecap:round;" d="M39.2 56.5c3.71 2.41 7.69 6.03 10.88 10.25"></path>
<path style="fill:none; fill-opacity:0%; fill-rule:evenodd; stroke:#aaaaaa; stroke-opacity:100%; stroke-width: 1.5pt; stroke-linejoin:round; stroke-linecap:round;" d="M67.24 17.37c1.01 1.01 1.49 2.88 1.49 4.43c0 8.19-0.13 49.14-0.13 54.7c0 9.88 2.15 12.03 12.96 12.03C93 88.53 94.89 87 94.89 78.9"></path>

<path style="fill:none; fill-opacity:0%; fill-rule:evenodd; stroke:#000000; stroke-opacity:100%; stroke-width: 3pt; stroke-linejoin:round; stroke-linecap:round;" d="M29.08 14.12c3.93 2.24 8.13 6.21 11.5 10.12"></path>
<path style="fill:none; fill-opacity:0%; fill-rule:evenodd; stroke:#000000; stroke-opacity:100%; stroke-width: 3pt; stroke-linejoin:round; stroke-linecap:round;" d="M15.36 39.25c1.04 0.45 3.14 0.91 4.93 0.7c5.75-0.69 20.57-4.37 22.55-4.95c2.59-0.75 4.09 1.26 2.51 3.5C39.91 46.25 26.38 64.38 14.5 74"></path>
<path style="fill:none; fill-opacity:0%; fill-rule:evenodd; stroke:#000000; stroke-opacity:100%; stroke-width: 3pt; stroke-linejoin:round; stroke-linecap:round;" d="M35 54.86c0.88 0.88 1.52 2.27 1.52 4.14c0 8.67-0.01 23.85-0.02 31.75c0 2.35 0 4.05 0 4.75"></path>
<path style="fill:none; fill-opacity:0%; fill-rule:evenodd; stroke:#000000; stroke-opacity:100%; stroke-width: 3pt; stroke-linejoin:round; stroke-linecap:round;" d="M39.2 56.5c3.71 2.41 7.69 6.03 10.88 10.25"></path>
<text x="5" y="20" font-size="20" fill="#999999">5</text><path style="fill:none; fill-opacity:0%; fill-rule:evenodd; stroke:#CC0000; stroke-opacity:100%; stroke-width: 3pt; stroke-linejoin:round; stroke-linecap:round;" d="M67.24 17.37c1.01 1.01 1.49 2.88 1.49 4.43c0 8.19-0.13 49.14-0.13 54.7c0 9.88 2.15 12.03 12.96 12.03C93 88.53 94.89 87 94.89 78.9"  ></path>

</g>

</svg>  
          
