<?xml version="1.0" standalone="no"?>
<!DOCTYPE svg PUBLIC "-//W3C//DTD SVG 1.1//EN"   "http://www.w3.org/Graphics/SVG/1.1/DTD/svg11.dtd">
<svg width="751" height="301"  version="1.1" xmlns="http://www.w3.org/2000/svg">
  <defs>
    <marker id="Triangle" viewBox="0 0 10 10" refX="0" refY="5" markerUnits="strokeWidth" markerWidth="3" style="stroke-opacity:0%;fill:#aaaaaa;" markerHeight="2" orient="auto">
      <path d="M 0 0 L 10 5 L 0 10 z" />
    </marker>
    
    <marker id="Arrow" viewBox="0 0 10 10" refX="5" refY="5" markerUnits="strokeWidth" markerWidth="1.8" style="stroke-opacity:0%;fill:#770000;" markerHeight="2" orient="auto">
      <path d="M 0 4 L 6 4 L 4 1 L 10 5 L 4 9 L 6 6 L 0 6 z" />
        <circle cx="5" cy="5" r="5" />
      </marker>
    
    <marker id="TriangleRed" viewBox="0 0 10 10" refX="0" refY="5" markerUnits="strokeWidth" markerWidth="3" style="stroke-opacity:0%;fill:#CC0000;" markerHeight="2" orient="auto">
      <path d="M 0 0 L 10 5 L 0 10 z" />
    </marker>
    
    <marker id="ArrowRed" viewBox="0 0 10 10" refX="5" refY="5" markerUnits="strokeWidth" markerWidth="1.8" style="stroke-opacity:0%;fill:#CC0000;" markerHeight="2" orient="auto">
      <path d="M 0 4 L 6 4 L 4 1 L 10 5 L 4 9 L 6 6 L 0 6 z" />
        <circle cx="5" cy="5" r="5" />
      </marker>
    
  </defs>
  
  <path style="fill:#ffffff; fill-opacity:100%; fill-rule:evenodd; stroke-width:0;" d="M 0 0 L 751 0 L 751 301 L 0 301 L 0 0" />

  <g transform="scale(1.3761467889908 1.3761467889908) translate(0, 0)">
<path style="fill:none; fill-rule:evenodd; stroke:#aaaaaa;  stroke-width:1pt; stroke-linecap:round;" d="m 109 0 L 0 0 L 0 109 L 109 109 L 109 0"></path><path style="fill:none; fill-opacity:0%; fill-rule:evenodd; stroke:#aaaaaa; stroke-opacity:100%; stroke-width: 1.5pt; stroke-linejoin:round; stroke-linecap:round;" d="M42.75 16.5c-0.25 1-0.78 1.77-1.66 2.51c-3.9 3.28-11.46 7.26-22.59 11.49"></path>
<path style="fill:none; fill-opacity:0%; fill-rule:evenodd; stroke:#aaaaaa; stroke-opacity:100%; stroke-width: 1.5pt; stroke-linejoin:round; stroke-linecap:round;" d="M11.87 45.83c1.51 0.7 3.76 0.74 5.39 0.58c6.08-0.57 18.98-2.74 25.76-3.67c1.48-0.2 2.86-0.5 4.22-0.06"></path>
<path style="fill:none; fill-opacity:0%; fill-rule:evenodd; stroke:#aaaaaa; stroke-opacity:100%; stroke-width: 1.5pt; stroke-linejoin:round; stroke-linecap:round;" d="M31.58 29.41c1.01 1.01 1.41 2.59 1.41 4.44c0 0.67 0.02 35.92-0.03 52.9c-0.01 3.95-0.03 6.77-0.04 7.75"></path>
<path style="fill:none; fill-opacity:0%; fill-rule:evenodd; stroke:#aaaaaa; stroke-opacity:100%; stroke-width: 1.5pt; stroke-linejoin:round; stroke-linecap:round;" d="M32.43 45.97c0 1.28-0.68 3.63-1.34 4.92C26.25 60.38 21 69.38 13 78"></path>
<path style="fill:none; fill-opacity:0%; fill-rule:evenodd; stroke:#aaaaaa; stroke-opacity:100%; stroke-width: 1.5pt; stroke-linejoin:round; stroke-linecap:round;" d="M36.5 55.75c3.88 1.87 7.16 5.6 9.25 8"></path>
<path style="fill:none; fill-opacity:0%; fill-rule:evenodd; stroke:#aaaaaa; stroke-opacity:100%; stroke-width: 1.5pt; stroke-linejoin:round; stroke-linecap:round;" d="M65.51 15.89c0.05 0.85 0.25 2.22-0.11 3.41c-2.15 7.2-8.27 21.32-18.9 32.88"></path>
<path style="fill:none; fill-opacity:0%; fill-rule:evenodd; stroke:#aaaaaa; stroke-opacity:100%; stroke-width: 1.5pt; stroke-linejoin:round; stroke-linecap:round;" d="M60.48 37.99c1.61 0.09 3.18 0 4.78-0.17c7.99-0.88 15.25-2.56 21.76-3.7c2.06-0.36 4.02-0.41 6.07 0.1"></path>
<path style="fill:none; fill-opacity:0%; fill-rule:evenodd; stroke:#aaaaaa; stroke-opacity:100%; stroke-width: 1.5pt; stroke-linejoin:round; stroke-linecap:round;" d="M71.12 40.19c0.97 0.97 1.31 2.31 1.31 4.17c0 12.33 0.03 40.27 0.03 44.47c0 9.52-6.1 1.27-7.37 0.21"></path>
<path style="fill:none; fill-opacity:0%; fill-rule:evenodd; stroke:#aaaaaa; stroke-opacity:100%; stroke-width: 1.5pt; stroke-linejoin:round; stroke-linecap:round;" d="M58.9 56.38c0.08 1.4-0.04 2.42-0.5 3.75c-2 5.86-6.02 13.99-12.41 22.13"></path>
<path style="fill:none; fill-opacity:0%; fill-rule:evenodd; stroke:#aaaaaa; stroke-opacity:100%; stroke-width: 1.5pt; stroke-linejoin:round; stroke-linecap:round;" d="M86.36 56.62c4.13 4.15 10.67 17.07 11.7 23.53"></path>

<text x="5" y="20" font-size="20" fill="#999999">1</text><path style="fill:none; fill-opacity:0%; fill-rule:evenodd; stroke:#CC0000; stroke-opacity:100%; stroke-width: 3pt; stroke-linejoin:round; stroke-linecap:round;" d="M42.75 16.5c-0.25 1-0.78 1.77-1.66 2.51c-3.9 3.28-11.46 7.26-22.59 11.49"  ></path>










</g><g transform="scale(1.3761467889908 1.3761467889908) translate(109, 0)">
<path style="fill:none; fill-rule:evenodd; stroke:#aaaaaa;  stroke-width:1pt; stroke-linecap:round;" d="m 109 0 L 0 0 L 0 109 L 109 109 L 109 0"></path><path style="fill:none; fill-opacity:0%; fill-rule:evenodd; stroke:#aaaaaa; stroke-opacity:100%; stroke-width: 1.5pt; stroke-linejoin:round; stroke-linecap:round;" d="M42.75 16.5c-0.25 1-0.78 1.77-1.66 2.51c-3.9 3.28-11.46 7.26-22.59 11.49"></path>
<path style="fill:none; fill-opacity:0%; fill-rule:evenodd; stroke:#aaaaaa; stroke-opacity:100%; stroke-width: 1.5pt; stroke-linejoin:round; stroke-linecap:round;" d="M11.87 45.83c1.51 0.7 3.76 0.74 5.39 0.58c6.08-0.57 18.98-2.74 25.76-3.67c1.48-0.2 2.86-0.5 4.22-0.06"></path>
<path style="fill:none; fill-opacity:0%; fill-rule:evenodd; stroke:#aaaaaa; stroke-opacity:100%; stroke-width: 1.5pt; stroke-linejoin:round; stroke-linecap:round;" d="M31.58 29.41c1.01 1.01 1.41 2.59 1.41 4.44c0 0.67 0.02 35.92-0.03 52.9c-0.01 3.95-0.03 6.77-0.04 7.75"></path>
<path style="fill:none; fill-opacity:0%; fill-rule:evenodd; stroke:#aaaaaa; stroke-opacity:100%; stroke-width: 1.5pt; stroke-linejoin:round; stroke-linecap:round;" d="M32.43 45.97c0 1.28-0.68 3.63-1.34 4.92C26.25 60.38 21 69.38 13 78"></path>
<path style="fill:none; fill-opacity:0%; fill-rule:evenodd; stroke:#aaaaaa; stroke-opacity:100%; stroke-width: 1.5pt; stroke-linejoin:round; stroke-linecap:round;" d="M36.5 55.75c3.88 1.87 7.16 5.6 9.25 8"></path>
<path style="fill:none; fill-opacity:0%; fill-rule:evenodd; stroke:#aaaaaa; stroke-opacity:100%; stroke-width: 1.5pt; stroke-linejoin:round; stroke-linecap:round;" d="M65.51 15.89c0.05 0.85 0.25 2.22-0.11 3.41c-2.15 7.2-8.27 21.32-18.9 32.88"></path>
<path style="fill:none; fill-opacity:0%; fill-rule:evenodd; stroke:#aaaaaa; stroke-opacity:100%; stroke-width: 1.5pt; stroke-linejoin:round; stroke-linecap:round;" d="M60.48 37.99c1.61 0.09 3.18 0 4.78-0.17c7.99-0.88 15.25-2.56 21.76-3.7c2.06-0.36 4.02-0.41 6.07 0.1"></path>
<path style="fill:none; fill-opacity:0%; fill-rule:evenodd; stroke:#aaaaaa; stroke-opacity:100%; stroke-width: 1.5pt; stroke-linejoin:round; stroke-linecap:round;" d="M71.12 40.19c0.97 0.97 1.31 2.31 1.31 4.17c0 12.33 0.03 40.27 0.03 44.47c0 9.52-6.1 1.27-7.37 0.21"></path>
<path style="fill:none; fill-opacity:0%; fill-rule:evenodd; stroke:#aaaaaa; stroke-opacity:100%; stroke-width: 1.5pt; stroke-linejoin:round; stroke-linecap:round;" d="M58.9 56.38c0.08 1.4-0.04 2.42-0.5 3.75c-2 5.86-6.02 13.99-12.41 22.13"></path>
<path style="fill:none; fill-opacity:0%; fill-rule:evenodd; stroke:#aaaaaa; stroke-opacity:100%; stroke-width: 1.5pt; stroke-linejoin:round; stroke-linecap:round;" d="M86.36 56.62c4.13 4.15 10.67 17.07 11.7 23.53"></path>

<path style="fill:none; fill-opacity:0%; fill-rule:evenodd; stroke:#000000; stroke-opacity:100%; stroke-width: 3pt; stroke-linejoin:round; stroke-linecap:round;" d="M42.75 16.5c-0.25 1-0.78 1.77-1.66 2.51c-3.9 3.28-11.46 7.26-22.59 11.49"></path>
<text x="5" y="20" font-size="20" fill="#999999">2</text><path style="fill:none; fill-opacity:0%; fill-rule:evenodd; stroke:#CC0000; stroke-opacity:100%; stroke-width: 3pt; stroke-linejoin:round; stroke-linecap:round;" d="M11.87 45.83c1.51 0.7 3.76 0.74 5.39 0.58c6.08-0.57 18.98-2.74 25.76-3.67c1.48-0.2 2.86-0.5 4.22-0.06"  ></path>









</g><g transform="scale(1.3761467889908 1.3761467889908) translate(218, 0)">
<path style="fill:none; fill-rule:evenodd; stroke:#aaaaaa;  stroke-width:1pt; stroke-linecap:round;" d="m 109 0 L 0 0 L 0 109 L 109 109 L 109 0"></path><path style="fill:none; fill-opacity:0%; fill-rule:evenodd; stroke:#aaaaaa; stroke-opacity:100%; stroke-width: 1.5pt; stroke-linejoin:round; stroke-linecap:round;" d="M42.75 16.5c-0.25 1-0.78 1.77-1.66 2.51c-3.9 3.28-11.46 7.26-22.59 11.49"></path>
<path style="fill:none; fill-opacity:0%; fill-rule:evenodd; stroke:#aaaaaa; stroke-opacity:100%; stroke-width: 1.5pt; stroke-linejoin:round; stroke-linecap:round;" d="M11.87 45.83c1.51 0.7 3.76 0.74 5.39 0.58c6.08-0.57 18.98-2.74 25.76-3.67c1.48-0.2 2.86-0.5 4.22-0.06"></path>
<path style="fill:none; fill-opacity:0%; fill-rule:evenodd; stroke:#aaaaaa; stroke-opacity:100%; stroke-width: 1.5pt; stroke-linejoin:round; stroke-linecap:round;" d="M31.58 29.41c1.01 1.01 1.41 2.59 1.41 4.44c0 0.67 0.02 35.92-0.03 52.9c-0.01 3.95-0.03 6.77-0.04 7.75"></path>
<path style="fill:none; fill-opacity:0%; fill-rule:evenodd; stroke:#aaaaaa; stroke-opacity:100%; stroke-width: 1.5pt; stroke-linejoin:round; stroke-linecap:round;" d="M32.43 45.97c0 1.28-0.68 3.63-1.34 4.92C26.25 60.38 21 69.38 13 78"></path>
<path style="fill:none; fill-opacity:0%; fill-rule:evenodd; stroke:#aaaaaa; stroke-opacity:100%; stroke-width: 1.5pt; stroke-linejoin:round; stroke-linecap:round;" d="M36.5 55.75c3.88 1.87 7.16 5.6 9.25 8"></path>
<path style="fill:none; fill-opacity:0%; fill-rule:evenodd; stroke:#aaaaaa; stroke-opacity:100%; stroke-width: 1.5pt; stroke-linejoin:round; stroke-linecap:round;" d="M65.51 15.89c0.05 0.85 0.25 2.22-0.11 3.41c-2.15 7.2-8.27 21.32-18.9 32.88"></path>
<path style="fill:none; fill-opacity:0%; fill-rule:evenodd; stroke:#aaaaaa; stroke-opacity:100%; stroke-width: 1.5pt; stroke-linejoin:round; stroke-linecap:round;" d="M60.48 37.99c1.61 0.09 3.18 0 4.78-0.17c7.99-0.88 15.25-2.56 21.76-3.7c2.06-0.36 4.02-0.41 6.07 0.1"></path>
<path style="fill:none; fill-opacity:0%; fill-rule:evenodd; stroke:#aaaaaa; stroke-opacity:100%; stroke-width: 1.5pt; stroke-linejoin:round; stroke-linecap:round;" d="M71.12 40.19c0.97 0.97 1.31 2.31 1.31 4.17c0 12.33 0.03 40.27 0.03 44.47c0 9.52-6.1 1.27-7.37 0.21"></path>
<path style="fill:none; fill-opacity:0%; fill-rule:evenodd; stroke:#aaaaaa; stroke-opacity:100%; stroke-width: 1.5pt; stroke-linejoin:round; stroke-linecap:round;" d="M58.9 56.38c0.08 1.4-0.04 2.42-0.5 3.75c-2 5.86-6.02 13.99-12.41 22.13"></path>
<path style="fill:none; fill-opacity:0%; fill-rule:evenodd; stroke:#aaaaaa; stroke-opacity:100%; stroke-width: 1.5pt; stroke-linejoin:round; stroke-linecap:round;" d="M86.36 56.62c4.13 4.15 10.67 17.07 11.7 23.53"></path>

<path style="fill:none; fill-opacity:0%; fill-rule:evenodd; stroke:#000000; stroke-opacity:100%; stroke-width: 3pt; stroke-linejoin:round; stroke-linecap:round;" d="M42.75 16.5c-0.25 1-0.78 1.77-1.66 2.51c-3.9 3.28-11.46 7.26-22.59 11.49"></path>
<path style="fill:none; fill-opacity:0%; fill-rule:evenodd; stroke:#000000; stroke-opacity:100%; stroke-width: 3pt; stroke-linejoin:round; stroke-linecap:round;" d="M11.87 45.83c1.51 0.7 3.76 0.74 5.39 0.58c6.08-0.57 18.98-2.74 25.76-3.67c1.48-0.2 2.86-0.5 4.22-0.06"></path>
<text x="5" y="20" font-size="20" fill="#999999">3</text><path style="fill:none; fill-opacity:0%; fill-rule:evenodd; stroke:#CC0000; stroke-opacity:100%; stroke-width: 3pt; stroke-linejoin:round; stroke-linecap:round;" d="M31.58 29.41c1.01 1.01 1.41 2.59 1.41 4.44c0 0.67 0.02 35.92-0.03 52.9c-0.01 3.95-0.03 6.77-0.04 7.75"  ></path>








</g><g transform="scale(1.3761467889908 1.3761467889908) translate(327, 0)">
<path style="fill:none; fill-rule:evenodd; stroke:#aaaaaa;  stroke-width:1pt; stroke-linecap:round;" d="m 109 0 L 0 0 L 0 109 L 109 109 L 109 0"></path><path style="fill:none; fill-opacity:0%; fill-rule:evenodd; stroke:#aaaaaa; stroke-opacity:100%; stroke-width: 1.5pt; stroke-linejoin:round; stroke-linecap:round;" d="M42.75 16.5c-0.25 1-0.78 1.77-1.66 2.51c-3.9 3.28-11.46 7.26-22.59 11.49"></path>
<path style="fill:none; fill-opacity:0%; fill-rule:evenodd; stroke:#aaaaaa; stroke-opacity:100%; stroke-width: 1.5pt; stroke-linejoin:round; stroke-linecap:round;" d="M11.87 45.83c1.51 0.7 3.76 0.74 5.39 0.58c6.08-0.57 18.98-2.74 25.76-3.67c1.48-0.2 2.86-0.5 4.22-0.06"></path>
<path style="fill:none; fill-opacity:0%; fill-rule:evenodd; stroke:#aaaaaa; stroke-opacity:100%; stroke-width: 1.5pt; stroke-linejoin:round; stroke-linecap:round;" d="M31.58 29.41c1.01 1.01 1.41 2.59 1.41 4.44c0 0.67 0.02 35.92-0.03 52.9c-0.01 3.95-0.03 6.77-0.04 7.75"></path>
<path style="fill:none; fill-opacity:0%; fill-rule:evenodd; stroke:#aaaaaa; stroke-opacity:100%; stroke-width: 1.5pt; stroke-linejoin:round; stroke-linecap:round;" d="M32.43 45.97c0 1.28-0.68 3.63-1.34 4.92C26.25 60.38 21 69.38 13 78"></path>
<path style="fill:none; fill-opacity:0%; fill-rule:evenodd; stroke:#aaaaaa; stroke-opacity:100%; stroke-width: 1.5pt; stroke-linejoin:round; stroke-linecap:round;" d="M36.5 55.75c3.88 1.87 7.16 5.6 9.25 8"></path>
<path style="fill:none; fill-opacity:0%; fill-rule:evenodd; stroke:#aaaaaa; stroke-opacity:100%; stroke-width: 1.5pt; stroke-linejoin:round; stroke-linecap:round;" d="M65.51 15.89c0.05 0.85 0.25 2.22-0.11 3.41c-2.15 7.2-8.27 21.32-18.9 32.88"></path>
<path style="fill:none; fill-opacity:0%; fill-rule:evenodd; stroke:#aaaaaa; stroke-opacity:100%; stroke-width: 1.5pt; stroke-linejoin:round; stroke-linecap:round;" d="M60.48 37.99c1.61 0.09 3.18 0 4.78-0.17c7.99-0.88 15.25-2.56 21.76-3.7c2.06-0.36 4.02-0.41 6.07 0.1"></path>
<path style="fill:none; fill-opacity:0%; fill-rule:evenodd; stroke:#aaaaaa; stroke-opacity:100%; stroke-width: 1.5pt; stroke-linejoin:round; stroke-linecap:round;" d="M71.12 40.19c0.97 0.97 1.31 2.31 1.31 4.17c0 12.33 0.03 40.27 0.03 44.47c0 9.52-6.1 1.27-7.37 0.21"></path>
<path style="fill:none; fill-opacity:0%; fill-rule:evenodd; stroke:#aaaaaa; stroke-opacity:100%; stroke-width: 1.5pt; stroke-linejoin:round; stroke-linecap:round;" d="M58.9 56.38c0.08 1.4-0.04 2.42-0.5 3.75c-2 5.86-6.02 13.99-12.41 22.13"></path>
<path style="fill:none; fill-opacity:0%; fill-rule:evenodd; stroke:#aaaaaa; stroke-opacity:100%; stroke-width: 1.5pt; stroke-linejoin:round; stroke-linecap:round;" d="M86.36 56.62c4.13 4.15 10.67 17.07 11.7 23.53"></path>

<path style="fill:none; fill-opacity:0%; fill-rule:evenodd; stroke:#000000; stroke-opacity:100%; stroke-width: 3pt; stroke-linejoin:round; stroke-linecap:round;" d="M42.75 16.5c-0.25 1-0.78 1.77-1.66 2.51c-3.9 3.28-11.46 7.26-22.59 11.49"></path>
<path style="fill:none; fill-opacity:0%; fill-rule:evenodd; stroke:#000000; stroke-opacity:100%; stroke-width: 3pt; stroke-linejoin:round; stroke-linecap:round;" d="M11.87 45.83c1.51 0.7 3.76 0.74 5.39 0.58c6.08-0.57 18.98-2.74 25.76-3.67c1.48-0.2 2.86-0.5 4.22-0.06"></path>
<path style="fill:none; fill-opacity:0%; fill-rule:evenodd; stroke:#000000; stroke-opacity:100%; stroke-width: 3pt; stroke-linejoin:round; stroke-linecap:round;" d="M31.58 29.41c1.01 1.01 1.41 2.59 1.41 4.44c0 0.67 0.02 35.92-0.03 52.9c-0.01 3.95-0.03 6.77-0.04 7.75"></path>
<text x="5" y="20" font-size="20" fill="#999999">4</text><path style="fill:none; fill-opacity:0%; fill-rule:evenodd; stroke:#CC0000; stroke-opacity:100%; stroke-width: 3pt; stroke-linejoin:round; stroke-linecap:round;" d="M32.43 45.97c0 1.28-0.68 3.63-1.34 4.92C26.25 60.38 21 69.38 13 78"  ></path>







</g><g transform="scale(1.3761467889908 1.3761467889908) translate(436, 0)">
<path style="fill:none; fill-rule:evenodd; stroke:#aaaaaa;  stroke-width:1pt; stroke-linecap:round;" d="m 109 0 L 0 0 L 0 109 L 109 109 L 109 0"></path><path style="fill:none; fill-opacity:0%; fill-rule:evenodd; stroke:#aaaaaa; stroke-opacity:100%; stroke-width: 1.5pt; stroke-linejoin:round; stroke-linecap:round;" d="M42.75 16.5c-0.25 1-0.78 1.77-1.66 2.51c-3.9 3.28-11.46 7.26-22.59 11.49"></path>
<path style="fill:none; fill-opacity:0%; fill-rule:evenodd; stroke:#aaaaaa; stroke-opacity:100%; stroke-width: 1.5pt; stroke-linejoin:round; stroke-linecap:round;" d="M11.87 45.83c1.51 0.7 3.76 0.74 5.39 0.58c6.08-0.57 18.98-2.74 25.76-3.67c1.48-0.2 2.86-0.5 4.22-0.06"></path>
<path style="fill:none; fill-opacity:0%; fill-rule:evenodd; stroke:#aaaaaa; stroke-opacity:100%; stroke-width: 1.5pt; stroke-linejoin:round; stroke-linecap:round;" d="M31.58 29.41c1.01 1.01 1.41 2.59 1.41 4.44c0 0.67 0.02 35.92-0.03 52.9c-0.01 3.95-0.03 6.77-0.04 7.75"></path>
<path style="fill:none; fill-opacity:0%; fill-rule:evenodd; stroke:#aaaaaa; stroke-opacity:100%; stroke-width: 1.5pt; stroke-linejoin:round; stroke-linecap:round;" d="M32.43 45.97c0 1.28-0.68 3.63-1.34 4.92C26.25 60.38 21 69.38 13 78"></path>
<path style="fill:none; fill-opacity:0%; fill-rule:evenodd; stroke:#aaaaaa; stroke-opacity:100%; stroke-width: 1.5pt; stroke-linejoin:round; stroke-linecap:round;" d="M36.5 55.75c3.88 1.87 7.16 5.6 9.25 8"></path>
<path style="fill:none; fill-opacity:0%; fill-rule:evenodd; stroke:#aaaaaa; stroke-opacity:100%; stroke-width: 1.5pt; stroke-linejoin:round; stroke-linecap:round;" d="M65.51 15.89c0.05 0.85 0.25 2.22-0.11 3.41c-2.15 7.2-8.27 21.32-18.9 32.88"></path>
<path style="fill:none; fill-opacity:0%; fill-rule:evenodd; stroke:#aaaaaa; stroke-opacity:100%; stroke-width: 1.5pt; stroke-linejoin:round; stroke-linecap:round;" d="M60.48 37.99c1.61 0.09 3.18 0 4.78-0.17c7.99-0.88 15.25-2.56 21.76-3.7c2.06-0.36 4.02-0.41 6.07 0.1"></path>
<path style="fill:none; fill-opacity:0%; fill-rule:evenodd; stroke:#aaaaaa; stroke-opacity:100%; stroke-width: 1.5pt; stroke-linejoin:round; stroke-linecap:round;" d="M71.12 40.19c0.97 0.97 1.31 2.31 1.31 4.17c0 12.33 0.03 40.27 0.03 44.47c0 9.52-6.1 1.27-7.37 0.21"></path>
<path style="fill:none; fill-opacity:0%; fill-rule:evenodd; stroke:#aaaaaa; stroke-opacity:100%; stroke-width: 1.5pt; stroke-linejoin:round; stroke-linecap:round;" d="M58.9 56.38c0.08 1.4-0.04 2.42-0.5 3.75c-2 5.86-6.02 13.99-12.41 22.13"></path>
<path style="fill:none; fill-opacity:0%; fill-rule:evenodd; stroke:#aaaaaa; stroke-opacity:100%; stroke-width: 1.5pt; stroke-linejoin:round; stroke-linecap:round;" d="M86.36 56.62c4.13 4.15 10.67 17.07 11.7 23.53"></path>

<path style="fill:none; fill-opacity:0%; fill-rule:evenodd; stroke:#000000; stroke-opacity:100%; stroke-width: 3pt; stroke-linejoin:round; stroke-linecap:round;" d="M42.75 16.5c-0.25 1-0.78 1.77-1.66 2.51c-3.9 3.28-11.46 7.26-22.59 11.49"></path>
<path style="fill:none; fill-opacity:0%; fill-rule:evenodd; stroke:#000000; stroke-opacity:100%; stroke-width: 3pt; stroke-linejoin:round; stroke-linecap:round;" d="M11.87 45.83c1.51 0.7 3.76 0.74 5.39 0.58c6.08-0.57 18.98-2.74 25.76-3.67c1.48-0.2 2.86-0.5 4.22-0.06"></path>
<path style="fill:none; fill-opacity:0%; fill-rule:evenodd; stroke:#000000; stroke-opacity:100%; stroke-width: 3pt; stroke-linejoin:round; stroke-linecap:round;" d="M31.58 29.41c1.01 1.01 1.41 2.59 1.41 4.44c0 0.67 0.02 35.92-0.03 52.9c-0.01 3.95-0.03 6.77-0.04 7.75"></path>
<path style="fill:none; fill-opacity:0%; fill-rule:evenodd; stroke:#000000; stroke-opacity:100%; stroke-width: 3pt; stroke-linejoin:round; stroke-linecap:round;" d="M32.43 45.97c0 1.28-0.68 3.63-1.34 4.92C26.25 60.38 21 69.38 13 78"></path>
<text x="5" y="20" font-size="20" fill="#999999">5</text><path style="fill:none; fill-opacity:0%; fill-rule:evenodd; stroke:#CC0000; stroke-opacity:100%; stroke-width: 3pt; stroke-linejoin:round; stroke-linecap:round;" d="M36.5 55.75c3.88 1.87 7.16 5.6 9.25 8"  ></path>






</g><g transform="scale(1.3761467889908 1.3761467889908) translate(0, 109)">
<path style="fill:none; fill-rule:evenodd; stroke:#aaaaaa;  stroke-width:1pt; stroke-linecap:round;" d="m 109 0 L 0 0 L 0 109 L 109 109 L 109 0"></path><path style="fill:none; fill-opacity:0%; fill-rule:evenodd; stroke:#aaaaaa; stroke-opacity:100%; stroke-width: 1.5pt; stroke-linejoin:round; stroke-linecap:round;" d="M42.75 16.5c-0.25 1-0.78 1.77-1.66 2.51c-3.9 3.28-11.46 7.26-22.59 11.49"></path>
<path style="fill:none; fill-opacity:0%; fill-rule:evenodd; stroke:#aaaaaa; stroke-opacity:100%; stroke-width: 1.5pt; stroke-linejoin:round; stroke-linecap:round;" d="M11.87 45.83c1.51 0.7 3.76 0.74 5.39 0.58c6.08-0.57 18.98-2.74 25.76-3.67c1.48-0.2 2.86-0.5 4.22-0.06"></path>
<path style="fill:none; fill-opacity:0%; fill-rule:evenodd; stroke:#aaaaaa; stroke-opacity:100%; stroke-width: 1.5pt; stroke-linejoin:round; stroke-linecap:round;" d="M31.58 29.41c1.01 1.01 1.41 2.59 1.41 4.44c0 0.67 0.02 35.92-0.03 52.9c-0.01 3.95-0.03 6.77-0.04 7.75"></path>
<path style="fill:none; fill-opacity:0%; fill-rule:evenodd; stroke:#aaaaaa; stroke-opacity:100%; stroke-width: 1.5pt; stroke-linejoin:round; stroke-linecap:round;" d="M32.43 45.97c0 1.28-0.68 3.63-1.34 4.92C26.25 60.38 21 69.38 13 78"></path>
<path style="fill:none; fill-opacity:0%; fill-rule:evenodd; stroke:#aaaaaa; stroke-opacity:100%; stroke-width: 1.5pt; stroke-linejoin:round; stroke-linecap:round;" d="M36.5 55.75c3.88 1.87 7.16 5.6 9.25 8"></path>
<path style="fill:none; fill-opacity:0%; fill-rule:evenodd; stroke:#aaaaaa; stroke-opacity:100%; stroke-width: 1.5pt; stroke-linejoin:round; stroke-linecap:round;" d="M65.51 15.89c0.05 0.85 0.25 2.22-0.11 3.41c-2.15 7.2-8.27 21.32-18.9 32.88"></path>
<path style="fill:none; fill-opacity:0%; fill-rule:evenodd; stroke:#aaaaaa; stroke-opacity:100%; stroke-width: 1.5pt; stroke-linejoin:round; stroke-linecap:round;" d="M60.48 37.99c1.61 0.09 3.18 0 4.78-0.17c7.99-0.88 15.25-2.56 21.76-3.7c2.06-0.36 4.02-0.41 6.07 0.1"></path>
<path style="fill:none; fill-opacity:0%; fill-rule:evenodd; stroke:#aaaaaa; stroke-opacity:100%; stroke-width: 1.5pt; stroke-linejoin:round; stroke-linecap:round;" d="M71.12 40.19c0.97 0.97 1.31 2.31 1.31 4.17c0 12.33 0.03 40.27 0.03 44.47c0 9.52-6.1 1.27-7.37 0.21"></path>
<path style="fill:none; fill-opacity:0%; fill-rule:evenodd; stroke:#aaaaaa; stroke-opacity:100%; stroke-width: 1.5pt; stroke-linejoin:round; stroke-linecap:round;" d="M58.9 56.38c0.08 1.4-0.04 2.42-0.5 3.75c-2 5.86-6.02 13.99-12.41 22.13"></path>
<path style="fill:none; fill-opacity:0%; fill-rule:evenodd; stroke:#aaaaaa; stroke-opacity:100%; stroke-width: 1.5pt; stroke-linejoin:round; stroke-linecap:round;" d="M86.36 56.62c4.13 4.15 10.67 17.07 11.7 23.53"></path>

<path style="fill:none; fill-opacity:0%; fill-rule:evenodd; stroke:#000000; stroke-opacity:100%; stroke-width: 3pt; stroke-linejoin:round; stroke-linecap:round;" d="M42.75 16.5c-0.25 1-0.78 1.77-1.66 2.51c-3.9 3.28-11.46 7.26-22.59 11.49"></path>
<path style="fill:none; fill-opacity:0%; fill-rule:evenodd; stroke:#000000; stroke-opacity:100%; stroke-width: 3pt; stroke-linejoin:round; stroke-linecap:round;" d="M11.87 45.83c1.51 0.7 3.76 0.74 5.39 0.58c6.08-0.57 18.98-2.74 25.76-3.67c1.48-0.2 2.86-0.5 4.22-0.06"></path>
<path style="fill:none; fill-opacity:0%; fill-rule:evenodd; stroke:#000000; stroke-opacity:100%; stroke-width: 3pt; stroke-linejoin:round; stroke-linecap:round;" d="M31.58 29.41c1.01 1.01 1.41 2.59 1.41 4.44c0 0.67 0.02 35.92-0.03 52.9c-0.01 3.95-0.03 6.77-0.04 7.75"></path>
<path style="fill:none; fill-opacity:0%; fill-rule:evenodd; stroke:#000000; stroke-opacity:100%; stroke-width: 3pt; stroke-linejoin:round; stroke-linecap:round;" d="M32.43 45.97c0 1.28-0.68 3.63-1.34 4.92C26.25 60.38 21 69.38 13 78"></path>
<path style="fill:none; fill-opacity:0%; fill-rule:evenodd; stroke:#000000; stroke-opacity:100%; stroke-width: 3pt; stroke-linejoin:round; stroke-linecap:round;" d="M36.5 55.75c3.88 1.87 7.16 5.6 9.25 8"></path>
<text x="5" y="20" font-size="20" fill="#999999">6</text><path style="fill:none; fill-opacity:0%; fill-rule:evenodd; stroke:#CC0000; stroke-opacity:100%; stroke-width: 3pt; stroke-linejoin:round; stroke-linecap:round;" d="M65.51 15.89c0.05 0.85 0.25 2.22-0.11 3.41c-2.15 7.2-8.27 21.32-18.9 32.88"  ></path>





</g><g transform="scale(1.3761467889908 1.3761467889908) translate(109, 109)">
<path style="fill:none; fill-rule:evenodd; stroke:#aaaaaa;  stroke-width:1pt; stroke-linecap:round;" d="m 109 0 L 0 0 L 0 109 L 109 109 L 109 0"></path><path style="fill:none; fill-opacity:0%; fill-rule:evenodd; stroke:#aaaaaa; stroke-opacity:100%; stroke-width: 1.5pt; stroke-linejoin:round; stroke-linecap:round;" d="M42.75 16.5c-0.25 1-0.78 1.77-1.66 2.51c-3.9 3.28-11.46 7.26-22.59 11.49"></path>
<path style="fill:none; fill-opacity:0%; fill-rule:evenodd; stroke:#aaaaaa; stroke-opacity:100%; stroke-width: 1.5pt; stroke-linejoin:round; stroke-linecap:round;" d="M11.87 45.83c1.51 0.7 3.76 0.74 5.39 0.58c6.08-0.57 18.98-2.74 25.76-3.67c1.48-0.2 2.86-0.5 4.22-0.06"></path>
<path style="fill:none; fill-opacity:0%; fill-rule:evenodd; stroke:#aaaaaa; stroke-opacity:100%; stroke-width: 1.5pt; stroke-linejoin:round; stroke-linecap:round;" d="M31.58 29.41c1.01 1.01 1.41 2.59 1.41 4.44c0 0.67 0.02 35.92-0.03 52.9c-0.01 3.95-0.03 6.77-0.04 7.75"></path>
<path style="fill:none; fill-opacity:0%; fill-rule:evenodd; stroke:#aaaaaa; stroke-opacity:100%; stroke-width: 1.5pt; stroke-linejoin:round; stroke-linecap:round;" d="M32.43 45.97c0 1.28-0.68 3.63-1.34 4.92C26.25 60.38 21 69.38 13 78"></path>
<path style="fill:none; fill-opacity:0%; fill-rule:evenodd; stroke:#aaaaaa; stroke-opacity:100%; stroke-width: 1.5pt; stroke-linejoin:round; stroke-linecap:round;" d="M36.5 55.75c3.88 1.87 7.16 5.6 9.25 8"></path>
<path style="fill:none; fill-opacity:0%; fill-rule:evenodd; stroke:#aaaaaa; stroke-opacity:100%; stroke-width: 1.5pt; stroke-linejoin:round; stroke-linecap:round;" d="M65.51 15.89c0.05 0.85 0.25 2.22-0.11 3.41c-2.15 7.2-8.27 21.32-18.9 32.88"></path>
<path style="fill:none; fill-opacity:0%; fill-rule:evenodd; stroke:#aaaaaa; stroke-opacity:100%; stroke-width: 1.5pt; stroke-linejoin:round; stroke-linecap:round;" d="M60.48 37.99c1.61 0.09 3.18 0 4.78-0.17c7.99-0.88 15.25-2.56 21.76-3.7c2.06-0.36 4.02-0.41 6.07 0.1"></path>
<path style="fill:none; fill-opacity:0%; fill-rule:evenodd; stroke:#aaaaaa; stroke-opacity:100%; stroke-width: 1.5pt; stroke-linejoin:round; stroke-linecap:round;" d="M71.12 40.19c0.97 0.97 1.31 2.31 1.31 4.17c0 12.33 0.03 40.27 0.03 44.47c0 9.52-6.1 1.27-7.37 0.21"></path>
<path style="fill:none; fill-opacity:0%; fill-rule:evenodd; stroke:#aaaaaa; stroke-opacity:100%; stroke-width: 1.5pt; stroke-linejoin:round; stroke-linecap:round;" d="M58.9 56.38c0.08 1.4-0.04 2.42-0.5 3.75c-2 5.86-6.02 13.99-12.41 22.13"></path>
<path style="fill:none; fill-opacity:0%; fill-rule:evenodd; stroke:#aaaaaa; stroke-opacity:100%; stroke-width: 1.5pt; stroke-linejoin:round; stroke-linecap:round;" d="M86.36 56.62c4.13 4.15 10.67 17.07 11.7 23.53"></path>

<path style="fill:none; fill-opacity:0%; fill-rule:evenodd; stroke:#000000; stroke-opacity:100%; stroke-width: 3pt; stroke-linejoin:round; stroke-linecap:round;" d="M42.75 16.5c-0.25 1-0.78 1.77-1.66 2.51c-3.9 3.28-11.46 7.26-22.59 11.49"></path>
<path style="fill:none; fill-opacity:0%; fill-rule:evenodd; stroke:#000000; stroke-opacity:100%; stroke-width: 3pt; stroke-linejoin:round; stroke-linecap:round;" d="M11.87 45.83c1.51 0.7 3.76 0.74 5.39 0.58c6.08-0.57 18.98-2.74 25.76-3.67c1.48-0.2 2.86-0.5 4.22-0.06"></path>
<path style="fill:none; fill-opacity:0%; fill-rule:evenodd; stroke:#000000; stroke-opacity:100%; stroke-width: 3pt; stroke-linejoin:round; stroke-linecap:round;" d="M31.58 29.41c1.01 1.01 1.41 2.59 1.41 4.44c0 0.67 0.02 35.92-0.03 52.9c-0.01 3.95-0.03 6.77-0.04 7.75"></path>
<path style="fill:none; fill-opacity:0%; fill-rule:evenodd; stroke:#000000; stroke-opacity:100%; stroke-width: 3pt; stroke-linejoin:round; stroke-linecap:round;" d="M32.43 45.97c0 1.28-0.68 3.63-1.34 4.92C26.25 60.38 21 69.38 13 78"></path>
<path style="fill:none; fill-opacity:0%; fill-rule:evenodd; stroke:#000000; stroke-opacity:100%; stroke-width: 3pt; stroke-linejoin:round; stroke-linecap:round;" d="M36.5 55.75c3.88 1.87 7.16 5.6 9.25 8"></path>
<path style="fill:none; fill-opacity:0%; fill-rule:evenodd; stroke:#000000; stroke-opacity:100%; stroke-width: 3pt; stroke-linejoin:round; stroke-linecap:round;" d="M65.51 15.89c0.05 0.85 0.25 2.22-0.11 3.41c-2.15 7.2-8.27 21.32-18.9 32.88"></path>
<text x="5" y="20" font-size="20" fill="#999999">7</text><path style="fill:none; fill-opacity:0%; fill-rule:evenodd; stroke:#CC0000; stroke-opacity:100%; stroke-width: 3pt; stroke-linejoin:round; stroke-linecap:round;" d="M60.48 37.99c1.61 0.09 3.18 0 4.78-0.17c7.99-0.88 15.25-2.56 21.76-3.7c2.06-0.36 4.02-0.41 6.07 0.1"  ></path>




</g><g transform="scale(1.3761467889908 1.3761467889908) translate(218, 109)">
<path style="fill:none; fill-rule:evenodd; stroke:#aaaaaa;  stroke-width:1pt; stroke-linecap:round;" d="m 109 0 L 0 0 L 0 109 L 109 109 L 109 0"></path><path style="fill:none; fill-opacity:0%; fill-rule:evenodd; stroke:#aaaaaa; stroke-opacity:100%; stroke-width: 1.5pt; stroke-linejoin:round; stroke-linecap:round;" d="M42.75 16.5c-0.25 1-0.78 1.77-1.66 2.51c-3.9 3.28-11.46 7.26-22.59 11.49"></path>
<path style="fill:none; fill-opacity:0%; fill-rule:evenodd; stroke:#aaaaaa; stroke-opacity:100%; stroke-width: 1.5pt; stroke-linejoin:round; stroke-linecap:round;" d="M11.87 45.83c1.51 0.7 3.76 0.74 5.39 0.58c6.08-0.57 18.98-2.74 25.76-3.67c1.48-0.2 2.86-0.5 4.22-0.06"></path>
<path style="fill:none; fill-opacity:0%; fill-rule:evenodd; stroke:#aaaaaa; stroke-opacity:100%; stroke-width: 1.5pt; stroke-linejoin:round; stroke-linecap:round;" d="M31.58 29.41c1.01 1.01 1.41 2.59 1.41 4.44c0 0.67 0.02 35.92-0.03 52.9c-0.01 3.95-0.03 6.77-0.04 7.75"></path>
<path style="fill:none; fill-opacity:0%; fill-rule:evenodd; stroke:#aaaaaa; stroke-opacity:100%; stroke-width: 1.5pt; stroke-linejoin:round; stroke-linecap:round;" d="M32.43 45.97c0 1.28-0.68 3.63-1.34 4.92C26.25 60.38 21 69.38 13 78"></path>
<path style="fill:none; fill-opacity:0%; fill-rule:evenodd; stroke:#aaaaaa; stroke-opacity:100%; stroke-width: 1.5pt; stroke-linejoin:round; stroke-linecap:round;" d="M36.5 55.75c3.88 1.87 7.16 5.6 9.25 8"></path>
<path style="fill:none; fill-opacity:0%; fill-rule:evenodd; stroke:#aaaaaa; stroke-opacity:100%; stroke-width: 1.5pt; stroke-linejoin:round; stroke-linecap:round;" d="M65.51 15.89c0.05 0.85 0.25 2.22-0.11 3.41c-2.15 7.2-8.27 21.32-18.9 32.88"></path>
<path style="fill:none; fill-opacity:0%; fill-rule:evenodd; stroke:#aaaaaa; stroke-opacity:100%; stroke-width: 1.5pt; stroke-linejoin:round; stroke-linecap:round;" d="M60.48 37.99c1.61 0.09 3.18 0 4.78-0.17c7.99-0.88 15.25-2.56 21.76-3.7c2.06-0.36 4.02-0.41 6.07 0.1"></path>
<path style="fill:none; fill-opacity:0%; fill-rule:evenodd; stroke:#aaaaaa; stroke-opacity:100%; stroke-width: 1.5pt; stroke-linejoin:round; stroke-linecap:round;" d="M71.12 40.19c0.97 0.97 1.31 2.31 1.31 4.17c0 12.33 0.03 40.27 0.03 44.47c0 9.52-6.1 1.27-7.37 0.21"></path>
<path style="fill:none; fill-opacity:0%; fill-rule:evenodd; stroke:#aaaaaa; stroke-opacity:100%; stroke-width: 1.5pt; stroke-linejoin:round; stroke-linecap:round;" d="M58.9 56.38c0.08 1.4-0.04 2.42-0.5 3.75c-2 5.86-6.02 13.99-12.41 22.13"></path>
<path style="fill:none; fill-opacity:0%; fill-rule:evenodd; stroke:#aaaaaa; stroke-opacity:100%; stroke-width: 1.5pt; stroke-linejoin:round; stroke-linecap:round;" d="M86.36 56.62c4.13 4.15 10.67 17.07 11.7 23.53"></path>

<path style="fill:none; fill-opacity:0%; fill-rule:evenodd; stroke:#000000; stroke-opacity:100%; stroke-width: 3pt; stroke-linejoin:round; stroke-linecap:round;" d="M42.75 16.5c-0.25 1-0.78 1.77-1.66 2.51c-3.9 3.28-11.46 7.26-22.59 11.49"></path>
<path style="fill:none; fill-opacity:0%; fill-rule:evenodd; stroke:#000000; stroke-opacity:100%; stroke-width: 3pt; stroke-linejoin:round; stroke-linecap:round;" d="M11.87 45.83c1.51 0.7 3.76 0.74 5.39 0.58c6.08-0.57 18.98-2.74 25.76-3.67c1.48-0.2 2.86-0.5 4.22-0.06"></path>
<path style="fill:none; fill-opacity:0%; fill-rule:evenodd; stroke:#000000; stroke-opacity:100%; stroke-width: 3pt; stroke-linejoin:round; stroke-linecap:round;" d="M31.58 29.41c1.01 1.01 1.41 2.59 1.41 4.44c0 0.67 0.02 35.92-0.03 52.9c-0.01 3.95-0.03 6.77-0.04 7.75"></path>
<path style="fill:none; fill-opacity:0%; fill-rule:evenodd; stroke:#000000; stroke-opacity:100%; stroke-width: 3pt; stroke-linejoin:round; stroke-linecap:round;" d="M32.43 45.97c0 1.28-0.68 3.63-1.34 4.92C26.25 60.38 21 69.38 13 78"></path>
<path style="fill:none; fill-opacity:0%; fill-rule:evenodd; stroke:#000000; stroke-opacity:100%; stroke-width: 3pt; stroke-linejoin:round; stroke-linecap:round;" d="M36.5 55.75c3.88 1.87 7.16 5.6 9.25 8"></path>
<path style="fill:none; fill-opacity:0%; fill-rule:evenodd; stroke:#000000; stroke-opacity:100%; stroke-width: 3pt; stroke-linejoin:round; stroke-linecap:round;" d="M65.51 15.89c0.05 0.85 0.25 2.22-0.11 3.41c-2.15 7.2-8.27 21.32-18.9 32.88"></path>
<path style="fill:none; fill-opacity:0%; fill-rule:evenodd; stroke:#000000; stroke-opacity:100%; stroke-width: 3pt; stroke-linejoin:round; stroke-linecap:round;" d="M60.48 37.99c1.61 0.09 3.18 0 4.78-0.17c7.99-0.88 15.25-2.56 21.76-3.7c2.06-0.36 4.02-0.41 6.07 0.1"></path>
<text x="5" y="20" font-size="20" fill="#999999">8</text><path style="fill:none; fill-opacity:0%; fill-rule:evenodd; stroke:#CC0000; stroke-opacity:100%; stroke-width: 3pt; stroke-linejoin:round; stroke-linecap:round;" d="M71.12 40.19c0.97 0.97 1.31 2.31 1.31 4.17c0 12.33 0.03 40.27 0.03 44.47c0 9.52-6.1 1.27-7.37 0.21"  ></path>



</g><g transform="scale(1.3761467889908 1.3761467889908) translate(327, 109)">
<path style="fill:none; fill-rule:evenodd; stroke:#aaaaaa;  stroke-width:1pt; stroke-linecap:round;" d="m 109 0 L 0 0 L 0 109 L 109 109 L 109 0"></path><path style="fill:none; fill-opacity:0%; fill-rule:evenodd; stroke:#aaaaaa; stroke-opacity:100%; stroke-width: 1.5pt; stroke-linejoin:round; stroke-linecap:round;" d="M42.75 16.5c-0.25 1-0.78 1.77-1.66 2.51c-3.9 3.28-11.46 7.26-22.59 11.49"></path>
<path style="fill:none; fill-opacity:0%; fill-rule:evenodd; stroke:#aaaaaa; stroke-opacity:100%; stroke-width: 1.5pt; stroke-linejoin:round; stroke-linecap:round;" d="M11.87 45.83c1.51 0.7 3.76 0.74 5.39 0.58c6.08-0.57 18.98-2.74 25.76-3.67c1.48-0.2 2.86-0.5 4.22-0.06"></path>
<path style="fill:none; fill-opacity:0%; fill-rule:evenodd; stroke:#aaaaaa; stroke-opacity:100%; stroke-width: 1.5pt; stroke-linejoin:round; stroke-linecap:round;" d="M31.58 29.41c1.01 1.01 1.41 2.59 1.41 4.44c0 0.67 0.02 35.92-0.03 52.9c-0.01 3.95-0.03 6.77-0.04 7.75"></path>
<path style="fill:none; fill-opacity:0%; fill-rule:evenodd; stroke:#aaaaaa; stroke-opacity:100%; stroke-width: 1.5pt; stroke-linejoin:round; stroke-linecap:round;" d="M32.43 45.97c0 1.28-0.68 3.63-1.34 4.92C26.25 60.38 21 69.38 13 78"></path>
<path style="fill:none; fill-opacity:0%; fill-rule:evenodd; stroke:#aaaaaa; stroke-opacity:100%; stroke-width: 1.5pt; stroke-linejoin:round; stroke-linecap:round;" d="M36.5 55.75c3.88 1.87 7.16 5.6 9.25 8"></path>
<path style="fill:none; fill-opacity:0%; fill-rule:evenodd; stroke:#aaaaaa; stroke-opacity:100%; stroke-width: 1.5pt; stroke-linejoin:round; stroke-linecap:round;" d="M65.51 15.89c0.05 0.85 0.25 2.22-0.11 3.41c-2.15 7.2-8.27 21.32-18.9 32.88"></path>
<path style="fill:none; fill-opacity:0%; fill-rule:evenodd; stroke:#aaaaaa; stroke-opacity:100%; stroke-width: 1.5pt; stroke-linejoin:round; stroke-linecap:round;" d="M60.48 37.99c1.61 0.09 3.18 0 4.78-0.17c7.99-0.88 15.25-2.56 21.76-3.7c2.06-0.36 4.02-0.41 6.07 0.1"></path>
<path style="fill:none; fill-opacity:0%; fill-rule:evenodd; stroke:#aaaaaa; stroke-opacity:100%; stroke-width: 1.5pt; stroke-linejoin:round; stroke-linecap:round;" d="M71.12 40.19c0.97 0.97 1.31 2.31 1.31 4.17c0 12.33 0.03 40.27 0.03 44.47c0 9.52-6.1 1.27-7.37 0.21"></path>
<path style="fill:none; fill-opacity:0%; fill-rule:evenodd; stroke:#aaaaaa; stroke-opacity:100%; stroke-width: 1.5pt; stroke-linejoin:round; stroke-linecap:round;" d="M58.9 56.38c0.08 1.4-0.04 2.42-0.5 3.75c-2 5.86-6.02 13.99-12.41 22.13"></path>
<path style="fill:none; fill-opacity:0%; fill-rule:evenodd; stroke:#aaaaaa; stroke-opacity:100%; stroke-width: 1.5pt; stroke-linejoin:round; stroke-linecap:round;" d="M86.36 56.62c4.13 4.15 10.67 17.07 11.7 23.53"></path>

<path style="fill:none; fill-opacity:0%; fill-rule:evenodd; stroke:#000000; stroke-opacity:100%; stroke-width: 3pt; stroke-linejoin:round; stroke-linecap:round;" d="M42.75 16.5c-0.25 1-0.78 1.77-1.66 2.51c-3.9 3.28-11.46 7.26-22.59 11.49"></path>
<path style="fill:none; fill-opacity:0%; fill-rule:evenodd; stroke:#000000; stroke-opacity:100%; stroke-width: 3pt; stroke-linejoin:round; stroke-linecap:round;" d="M11.87 45.83c1.51 0.7 3.76 0.74 5.39 0.58c6.08-0.57 18.98-2.74 25.76-3.67c1.48-0.2 2.86-0.5 4.22-0.06"></path>
<path style="fill:none; fill-opacity:0%; fill-rule:evenodd; stroke:#000000; stroke-opacity:100%; stroke-width: 3pt; stroke-linejoin:round; stroke-linecap:round;" d="M31.58 29.41c1.01 1.01 1.41 2.59 1.41 4.44c0 0.67 0.02 35.92-0.03 52.9c-0.01 3.95-0.03 6.77-0.04 7.75"></path>
<path style="fill:none; fill-opacity:0%; fill-rule:evenodd; stroke:#000000; stroke-opacity:100%; stroke-width: 3pt; stroke-linejoin:round; stroke-linecap:round;" d="M32.43 45.97c0 1.28-0.68 3.63-1.34 4.92C26.25 60.38 21 69.38 13 78"></path>
<path style="fill:none; fill-opacity:0%; fill-rule:evenodd; stroke:#000000; stroke-opacity:100%; stroke-width: 3pt; stroke-linejoin:round; stroke-linecap:round;" d="M36.5 55.75c3.88 1.87 7.16 5.6 9.25 8"></path>
<path style="fill:none; fill-opacity:0%; fill-rule:evenodd; stroke:#000000; stroke-opacity:100%; stroke-width: 3pt; stroke-linejoin:round; stroke-linecap:round;" d="M65.51 15.89c0.05 0.85 0.25 2.22-0.11 3.41c-2.15 7.2-8.27 21.32-18.9 32.88"></path>
<path style="fill:none; fill-opacity:0%; fill-rule:evenodd; stroke:#000000; stroke-opacity:100%; stroke-width: 3pt; stroke-linejoin:round; stroke-linecap:round;" d="M60.48 37.99c1.61 0.09 3.18 0 4.78-0.17c7.99-0.88 15.25-2.56 21.76-3.7c2.06-0.36 4.02-0.41 6.07 0.1"></path>
<path style="fill:none; fill-opacity:0%; fill-rule:evenodd; stroke:#000000; stroke-opacity:100%; stroke-width: 3pt; stroke-linejoin:round; stroke-linecap:round;" d="M71.12 40.19c0.97 0.97 1.31 2.31 1.31 4.17c0 12.33 0.03 40.27 0.03 44.47c0 9.52-6.1 1.27-7.37 0.21"></path>
<text x="5" y="20" font-size="20" fill="#999999">9</text><path style="fill:none; fill-opacity:0%; fill-rule:evenodd; stroke:#CC0000; stroke-opacity:100%; stroke-width: 3pt; stroke-linejoin:round; stroke-linecap:round;" d="M58.9 56.38c0.08 1.4-0.04 2.42-0.5 3.75c-2 5.86-6.02 13.99-12.41 22.13"  ></path>


</g><g transform="scale(1.3761467889908 1.3761467889908) translate(436, 109)">
<path style="fill:none; fill-rule:evenodd; stroke:#aaaaaa;  stroke-width:1pt; stroke-linecap:round;" d="m 109 0 L 0 0 L 0 109 L 109 109 L 109 0"></path><path style="fill:none; fill-opacity:0%; fill-rule:evenodd; stroke:#aaaaaa; stroke-opacity:100%; stroke-width: 1.5pt; stroke-linejoin:round; stroke-linecap:round;" d="M42.75 16.5c-0.25 1-0.78 1.77-1.66 2.51c-3.9 3.28-11.46 7.26-22.59 11.49"></path>
<path style="fill:none; fill-opacity:0%; fill-rule:evenodd; stroke:#aaaaaa; stroke-opacity:100%; stroke-width: 1.5pt; stroke-linejoin:round; stroke-linecap:round;" d="M11.87 45.83c1.51 0.7 3.76 0.74 5.39 0.58c6.08-0.57 18.98-2.74 25.76-3.67c1.48-0.2 2.86-0.5 4.22-0.06"></path>
<path style="fill:none; fill-opacity:0%; fill-rule:evenodd; stroke:#aaaaaa; stroke-opacity:100%; stroke-width: 1.5pt; stroke-linejoin:round; stroke-linecap:round;" d="M31.58 29.41c1.01 1.01 1.41 2.59 1.41 4.44c0 0.67 0.02 35.92-0.03 52.9c-0.01 3.95-0.03 6.77-0.04 7.75"></path>
<path style="fill:none; fill-opacity:0%; fill-rule:evenodd; stroke:#aaaaaa; stroke-opacity:100%; stroke-width: 1.5pt; stroke-linejoin:round; stroke-linecap:round;" d="M32.43 45.97c0 1.28-0.68 3.63-1.34 4.92C26.25 60.38 21 69.38 13 78"></path>
<path style="fill:none; fill-opacity:0%; fill-rule:evenodd; stroke:#aaaaaa; stroke-opacity:100%; stroke-width: 1.5pt; stroke-linejoin:round; stroke-linecap:round;" d="M36.5 55.75c3.88 1.87 7.16 5.6 9.25 8"></path>
<path style="fill:none; fill-opacity:0%; fill-rule:evenodd; stroke:#aaaaaa; stroke-opacity:100%; stroke-width: 1.5pt; stroke-linejoin:round; stroke-linecap:round;" d="M65.51 15.89c0.05 0.85 0.25 2.22-0.11 3.41c-2.15 7.2-8.27 21.32-18.9 32.88"></path>
<path style="fill:none; fill-opacity:0%; fill-rule:evenodd; stroke:#aaaaaa; stroke-opacity:100%; stroke-width: 1.5pt; stroke-linejoin:round; stroke-linecap:round;" d="M60.48 37.99c1.61 0.09 3.18 0 4.78-0.17c7.99-0.88 15.25-2.56 21.76-3.7c2.06-0.36 4.02-0.41 6.07 0.1"></path>
<path style="fill:none; fill-opacity:0%; fill-rule:evenodd; stroke:#aaaaaa; stroke-opacity:100%; stroke-width: 1.5pt; stroke-linejoin:round; stroke-linecap:round;" d="M71.12 40.19c0.97 0.97 1.31 2.31 1.31 4.17c0 12.33 0.03 40.27 0.03 44.47c0 9.52-6.1 1.27-7.37 0.21"></path>
<path style="fill:none; fill-opacity:0%; fill-rule:evenodd; stroke:#aaaaaa; stroke-opacity:100%; stroke-width: 1.5pt; stroke-linejoin:round; stroke-linecap:round;" d="M58.9 56.38c0.08 1.4-0.04 2.42-0.5 3.75c-2 5.86-6.02 13.99-12.41 22.13"></path>
<path style="fill:none; fill-opacity:0%; fill-rule:evenodd; stroke:#aaaaaa; stroke-opacity:100%; stroke-width: 1.5pt; stroke-linejoin:round; stroke-linecap:round;" d="M86.36 56.62c4.13 4.15 10.67 17.07 11.7 23.53"></path>

<path style="fill:none; fill-opacity:0%; fill-rule:evenodd; stroke:#000000; stroke-opacity:100%; stroke-width: 3pt; stroke-linejoin:round; stroke-linecap:round;" d="M42.75 16.5c-0.25 1-0.78 1.77-1.66 2.51c-3.9 3.28-11.46 7.26-22.59 11.49"></path>
<path style="fill:none; fill-opacity:0%; fill-rule:evenodd; stroke:#000000; stroke-opacity:100%; stroke-width: 3pt; stroke-linejoin:round; stroke-linecap:round;" d="M11.87 45.83c1.51 0.7 3.76 0.74 5.39 0.58c6.08-0.57 18.98-2.74 25.76-3.67c1.48-0.2 2.86-0.5 4.22-0.06"></path>
<path style="fill:none; fill-opacity:0%; fill-rule:evenodd; stroke:#000000; stroke-opacity:100%; stroke-width: 3pt; stroke-linejoin:round; stroke-linecap:round;" d="M31.58 29.41c1.01 1.01 1.41 2.59 1.41 4.44c0 0.67 0.02 35.92-0.03 52.9c-0.01 3.95-0.03 6.77-0.04 7.75"></path>
<path style="fill:none; fill-opacity:0%; fill-rule:evenodd; stroke:#000000; stroke-opacity:100%; stroke-width: 3pt; stroke-linejoin:round; stroke-linecap:round;" d="M32.43 45.97c0 1.28-0.68 3.63-1.34 4.92C26.25 60.38 21 69.38 13 78"></path>
<path style="fill:none; fill-opacity:0%; fill-rule:evenodd; stroke:#000000; stroke-opacity:100%; stroke-width: 3pt; stroke-linejoin:round; stroke-linecap:round;" d="M36.5 55.75c3.88 1.87 7.16 5.6 9.25 8"></path>
<path style="fill:none; fill-opacity:0%; fill-rule:evenodd; stroke:#000000; stroke-opacity:100%; stroke-width: 3pt; stroke-linejoin:round; stroke-linecap:round;" d="M65.51 15.89c0.05 0.85 0.25 2.22-0.11 3.41c-2.15 7.2-8.27 21.32-18.9 32.88"></path>
<path style="fill:none; fill-opacity:0%; fill-rule:evenodd; stroke:#000000; stroke-opacity:100%; stroke-width: 3pt; stroke-linejoin:round; stroke-linecap:round;" d="M60.48 37.99c1.61 0.09 3.18 0 4.78-0.17c7.99-0.88 15.25-2.56 21.76-3.7c2.06-0.36 4.02-0.41 6.07 0.1"></path>
<path style="fill:none; fill-opacity:0%; fill-rule:evenodd; stroke:#000000; stroke-opacity:100%; stroke-width: 3pt; stroke-linejoin:round; stroke-linecap:round;" d="M71.12 40.19c0.97 0.97 1.31 2.31 1.31 4.17c0 12.33 0.03 40.27 0.03 44.47c0 9.52-6.1 1.27-7.37 0.21"></path>
<path style="fill:none; fill-opacity:0%; fill-rule:evenodd; stroke:#000000; stroke-opacity:100%; stroke-width: 3pt; stroke-linejoin:round; stroke-linecap:round;" d="M58.9 56.38c0.08 1.4-0.04 2.42-0.5 3.75c-2 5.86-6.02 13.99-12.41 22.13"></path>
<text x="5" y="20" font-size="20" fill="#999999">10</text><path style="fill:none; fill-opacity:0%; fill-rule:evenodd; stroke:#CC0000; stroke-opacity:100%; stroke-width: 3pt; stroke-linejoin:round; stroke-linecap:round;" d="M86.36 56.62c4.13 4.15 10.67 17.07 11.7 23.53"  ></path>

</g>

</svg>  
          
