<?xml version="1.0" standalone="no"?>
<!DOCTYPE svg PUBLIC "-//W3C//DTD SVG 1.1//EN"   "http://www.w3.org/Graphics/SVG/1.1/DTD/svg11.dtd">
<svg width="751" height="301"  version="1.1" xmlns="http://www.w3.org/2000/svg">
  <defs>
    <marker id="Triangle" viewBox="0 0 10 10" refX="0" refY="5" markerUnits="strokeWidth" markerWidth="3" style="stroke-opacity:0%;fill:#aaaaaa;" markerHeight="2" orient="auto">
      <path d="M 0 0 L 10 5 L 0 10 z" />
    </marker>
    
    <marker id="Arrow" viewBox="0 0 10 10" refX="5" refY="5" markerUnits="strokeWidth" markerWidth="1.8" style="stroke-opacity:0%;fill:#770000;" markerHeight="2" orient="auto">
      <path d="M 0 4 L 6 4 L 4 1 L 10 5 L 4 9 L 6 6 L 0 6 z" />
        <circle cx="5" cy="5" r="5" />
      </marker>
    
    <marker id="TriangleRed" viewBox="0 0 10 10" refX="0" refY="5" markerUnits="strokeWidth" markerWidth="3" style="stroke-opacity:0%;fill:#CC0000;" markerHeight="2" orient="auto">
      <path d="M 0 0 L 10 5 L 0 10 z" />
    </marker>
    
    <marker id="ArrowRed" viewBox="0 0 10 10" refX="5" refY="5" markerUnits="strokeWidth" markerWidth="1.8" style="stroke-opacity:0%;fill:#CC0000;" markerHeight="2" orient="auto">
      <path d="M 0 4 L 6 4 L 4 1 L 10 5 L 4 9 L 6 6 L 0 6 z" />
        <circle cx="5" cy="5" r="5" />
      </marker>
    
  </defs>
  
  <path style="fill:#ffffff; fill-opacity:100%; fill-rule:evenodd; stroke-width:0;" d="M 0 0 L 751 0 L 751 301 L 0 301 L 0 0" />

  <g transform="scale(1.3761467889908 1.3761467889908) translate(0, 0)">
<path style="fill:none; fill-rule:evenodd; stroke:#aaaaaa;  stroke-width:1pt; stroke-linecap:round;" d="m 109 0 L 0 0 L 0 109 L 109 109 L 109 0"></path><path style="fill:none; fill-opacity:0%; fill-rule:evenodd; stroke:#aaaaaa; stroke-opacity:100%; stroke-width: 1.5pt; stroke-linejoin:round; stroke-linecap:round;" d="M71.45 10.39c-0.05 0.87-0.42 1.52-1.11 1.98c-3.84 3.14-17.79 9.19-37.04 12.85"></path>
<path style="fill:none; fill-opacity:0%; fill-rule:evenodd; stroke:#aaaaaa; stroke-opacity:100%; stroke-width: 1.5pt; stroke-linejoin:round; stroke-linecap:round;" d="M51.38 24.25c0.38 1.2 0.19 2.69-0.69 3.89C47.5 32.5 42.75 38 38.82 41.68c-0.7 0.66-0.5 2.51 0.25 2.74c3.97 1.19 7.03 3.64 10.43 5.83"></path>
<path style="fill:none; fill-opacity:0%; fill-rule:evenodd; stroke:#aaaaaa; stroke-opacity:100%; stroke-width: 1.5pt; stroke-linejoin:round; stroke-linecap:round;" d="M72 29.83c0.38 1.29-0.28 2.56-1 3.26c-10.12 9.78-21 19.03-36.75 31.24c-1.71 1.33-0.75 3.44 1.25 3c8.36-1.83 31.25-6.08 42-7.83"></path>
<path style="fill:none; fill-opacity:0%; fill-rule:evenodd; stroke:#aaaaaa; stroke-opacity:100%; stroke-width: 1.5pt; stroke-linejoin:round; stroke-linecap:round;" d="M73 53.21c4.75 3.54 9.38 10.54 11.25 15.18"></path>
<path style="fill:none; fill-opacity:0%; fill-rule:evenodd; stroke:#aaaaaa; stroke-opacity:100%; stroke-width: 1.5pt; stroke-linejoin:round; stroke-linecap:round;" d="M54.8 67.71c0.62 0.62 1.1 1.79 1.1 2.82c0 7.9 0.08 16.59 0.01 23.97c-0.02 1.94-0.03 3.78-0.03 5.5"></path>
<path style="fill:none; fill-opacity:0%; fill-rule:evenodd; stroke:#aaaaaa; stroke-opacity:100%; stroke-width: 1.5pt; stroke-linejoin:round; stroke-linecap:round;" d="M39.21 78.48c0.16 1.14-0.09 2.14-1.06 3.09c-3.68 3.6-12.68 10.5-17.91 13.57"></path>
<path style="fill:none; fill-opacity:0%; fill-rule:evenodd; stroke:#aaaaaa; stroke-opacity:100%; stroke-width: 1.5pt; stroke-linejoin:round; stroke-linecap:round;" d="M74.5 77.11c5.13 3.35 13.92 12.3 15.75 15.66"></path>

<text x="5" y="20" font-size="20" fill="#999999">1</text><path style="fill:none; fill-opacity:0%; fill-rule:evenodd; stroke:#CC0000; stroke-opacity:100%; stroke-width: 3pt; stroke-linejoin:round; stroke-linecap:round;" d="M71.45 10.39c-0.05 0.87-0.42 1.52-1.11 1.98c-3.84 3.14-17.79 9.19-37.04 12.85" marker-end="url(#TriangleRed)" marker-start="url(#ArrowRed)" ></path>







</g><g transform="scale(1.3761467889908 1.3761467889908) translate(109, 0)">
<path style="fill:none; fill-rule:evenodd; stroke:#aaaaaa;  stroke-width:1pt; stroke-linecap:round;" d="m 109 0 L 0 0 L 0 109 L 109 109 L 109 0"></path><path style="fill:none; fill-opacity:0%; fill-rule:evenodd; stroke:#aaaaaa; stroke-opacity:100%; stroke-width: 1.5pt; stroke-linejoin:round; stroke-linecap:round;" d="M71.45 10.39c-0.05 0.87-0.42 1.52-1.11 1.98c-3.84 3.14-17.79 9.19-37.04 12.85"></path>
<path style="fill:none; fill-opacity:0%; fill-rule:evenodd; stroke:#aaaaaa; stroke-opacity:100%; stroke-width: 1.5pt; stroke-linejoin:round; stroke-linecap:round;" d="M51.38 24.25c0.38 1.2 0.19 2.69-0.69 3.89C47.5 32.5 42.75 38 38.82 41.68c-0.7 0.66-0.5 2.51 0.25 2.74c3.97 1.19 7.03 3.64 10.43 5.83"></path>
<path style="fill:none; fill-opacity:0%; fill-rule:evenodd; stroke:#aaaaaa; stroke-opacity:100%; stroke-width: 1.5pt; stroke-linejoin:round; stroke-linecap:round;" d="M72 29.83c0.38 1.29-0.28 2.56-1 3.26c-10.12 9.78-21 19.03-36.75 31.24c-1.71 1.33-0.75 3.44 1.25 3c8.36-1.83 31.25-6.08 42-7.83"></path>
<path style="fill:none; fill-opacity:0%; fill-rule:evenodd; stroke:#aaaaaa; stroke-opacity:100%; stroke-width: 1.5pt; stroke-linejoin:round; stroke-linecap:round;" d="M73 53.21c4.75 3.54 9.38 10.54 11.25 15.18"></path>
<path style="fill:none; fill-opacity:0%; fill-rule:evenodd; stroke:#aaaaaa; stroke-opacity:100%; stroke-width: 1.5pt; stroke-linejoin:round; stroke-linecap:round;" d="M54.8 67.71c0.62 0.62 1.1 1.79 1.1 2.82c0 7.9 0.08 16.59 0.01 23.97c-0.02 1.94-0.03 3.78-0.03 5.5"></path>
<path style="fill:none; fill-opacity:0%; fill-rule:evenodd; stroke:#aaaaaa; stroke-opacity:100%; stroke-width: 1.5pt; stroke-linejoin:round; stroke-linecap:round;" d="M39.21 78.48c0.16 1.14-0.09 2.14-1.06 3.09c-3.68 3.6-12.68 10.5-17.91 13.57"></path>
<path style="fill:none; fill-opacity:0%; fill-rule:evenodd; stroke:#aaaaaa; stroke-opacity:100%; stroke-width: 1.5pt; stroke-linejoin:round; stroke-linecap:round;" d="M74.5 77.11c5.13 3.35 13.92 12.3 15.75 15.66"></path>

<path style="fill:none; fill-opacity:0%; fill-rule:evenodd; stroke:#000000; stroke-opacity:100%; stroke-width: 3pt; stroke-linejoin:round; stroke-linecap:round;" d="M71.45 10.39c-0.05 0.87-0.42 1.52-1.11 1.98c-3.84 3.14-17.79 9.19-37.04 12.85"></path>
<text x="5" y="20" font-size="20" fill="#999999">2</text><path style="fill:none; fill-opacity:0%; fill-rule:evenodd; stroke:#CC0000; stroke-opacity:100%; stroke-width: 3pt; stroke-linejoin:round; stroke-linecap:round;" d="M51.38 24.25c0.38 1.2 0.19 2.69-0.69 3.89C47.5 32.5 42.75 38 38.82 41.68c-0.7 0.66-0.5 2.51 0.25 2.74c3.97 1.19 7.03 3.64 10.43 5.83" marker-end="url(#TriangleRed)" marker-start="url(#ArrowRed)" ></path>






</g><g transform="scale(1.3761467889908 1.3761467889908) translate(218, 0)">
<path style="fill:none; fill-rule:evenodd; stroke:#aaaaaa;  stroke-width:1pt; stroke-linecap:round;" d="m 109 0 L 0 0 L 0 109 L 109 109 L 109 0"></path><path style="fill:none; fill-opacity:0%; fill-rule:evenodd; stroke:#aaaaaa; stroke-opacity:100%; stroke-width: 1.5pt; stroke-linejoin:round; stroke-linecap:round;" d="M71.45 10.39c-0.05 0.87-0.42 1.52-1.11 1.98c-3.84 3.14-17.79 9.19-37.04 12.85"></path>
<path style="fill:none; fill-opacity:0%; fill-rule:evenodd; stroke:#aaaaaa; stroke-opacity:100%; stroke-width: 1.5pt; stroke-linejoin:round; stroke-linecap:round;" d="M51.38 24.25c0.38 1.2 0.19 2.69-0.69 3.89C47.5 32.5 42.75 38 38.82 41.68c-0.7 0.66-0.5 2.51 0.25 2.74c3.97 1.19 7.03 3.64 10.43 5.83"></path>
<path style="fill:none; fill-opacity:0%; fill-rule:evenodd; stroke:#aaaaaa; stroke-opacity:100%; stroke-width: 1.5pt; stroke-linejoin:round; stroke-linecap:round;" d="M72 29.83c0.38 1.29-0.28 2.56-1 3.26c-10.12 9.78-21 19.03-36.75 31.24c-1.71 1.33-0.75 3.44 1.25 3c8.36-1.83 31.25-6.08 42-7.83"></path>
<path style="fill:none; fill-opacity:0%; fill-rule:evenodd; stroke:#aaaaaa; stroke-opacity:100%; stroke-width: 1.5pt; stroke-linejoin:round; stroke-linecap:round;" d="M73 53.21c4.75 3.54 9.38 10.54 11.25 15.18"></path>
<path style="fill:none; fill-opacity:0%; fill-rule:evenodd; stroke:#aaaaaa; stroke-opacity:100%; stroke-width: 1.5pt; stroke-linejoin:round; stroke-linecap:round;" d="M54.8 67.71c0.62 0.62 1.1 1.79 1.1 2.82c0 7.9 0.08 16.59 0.01 23.97c-0.02 1.94-0.03 3.78-0.03 5.5"></path>
<path style="fill:none; fill-opacity:0%; fill-rule:evenodd; stroke:#aaaaaa; stroke-opacity:100%; stroke-width: 1.5pt; stroke-linejoin:round; stroke-linecap:round;" d="M39.21 78.48c0.16 1.14-0.09 2.14-1.06 3.09c-3.68 3.6-12.68 10.5-17.91 13.57"></path>
<path style="fill:none; fill-opacity:0%; fill-rule:evenodd; stroke:#aaaaaa; stroke-opacity:100%; stroke-width: 1.5pt; stroke-linejoin:round; stroke-linecap:round;" d="M74.5 77.11c5.13 3.35 13.92 12.3 15.75 15.66"></path>

<path style="fill:none; fill-opacity:0%; fill-rule:evenodd; stroke:#000000; stroke-opacity:100%; stroke-width: 3pt; stroke-linejoin:round; stroke-linecap:round;" d="M71.45 10.39c-0.05 0.87-0.42 1.52-1.11 1.98c-3.84 3.14-17.79 9.19-37.04 12.85"></path>
<path style="fill:none; fill-opacity:0%; fill-rule:evenodd; stroke:#000000; stroke-opacity:100%; stroke-width: 3pt; stroke-linejoin:round; stroke-linecap:round;" d="M51.38 24.25c0.38 1.2 0.19 2.69-0.69 3.89C47.5 32.5 42.75 38 38.82 41.68c-0.7 0.66-0.5 2.51 0.25 2.74c3.97 1.19 7.03 3.64 10.43 5.83"></path>
<text x="5" y="20" font-size="20" fill="#999999">3</text><path style="fill:none; fill-opacity:0%; fill-rule:evenodd; stroke:#CC0000; stroke-opacity:100%; stroke-width: 3pt; stroke-linejoin:round; stroke-linecap:round;" d="M72 29.83c0.38 1.29-0.28 2.56-1 3.26c-10.12 9.78-21 19.03-36.75 31.24c-1.71 1.33-0.75 3.44 1.25 3c8.36-1.83 31.25-6.08 42-7.83" marker-end="url(#TriangleRed)" marker-start="url(#ArrowRed)" ></path>





</g><g transform="scale(1.3761467889908 1.3761467889908) translate(327, 0)">
<path style="fill:none; fill-rule:evenodd; stroke:#aaaaaa;  stroke-width:1pt; stroke-linecap:round;" d="m 109 0 L 0 0 L 0 109 L 109 109 L 109 0"></path><path style="fill:none; fill-opacity:0%; fill-rule:evenodd; stroke:#aaaaaa; stroke-opacity:100%; stroke-width: 1.5pt; stroke-linejoin:round; stroke-linecap:round;" d="M71.45 10.39c-0.05 0.87-0.42 1.52-1.11 1.98c-3.84 3.14-17.79 9.19-37.04 12.85"></path>
<path style="fill:none; fill-opacity:0%; fill-rule:evenodd; stroke:#aaaaaa; stroke-opacity:100%; stroke-width: 1.5pt; stroke-linejoin:round; stroke-linecap:round;" d="M51.38 24.25c0.38 1.2 0.19 2.69-0.69 3.89C47.5 32.5 42.75 38 38.82 41.68c-0.7 0.66-0.5 2.51 0.25 2.74c3.97 1.19 7.03 3.64 10.43 5.83"></path>
<path style="fill:none; fill-opacity:0%; fill-rule:evenodd; stroke:#aaaaaa; stroke-opacity:100%; stroke-width: 1.5pt; stroke-linejoin:round; stroke-linecap:round;" d="M72 29.83c0.38 1.29-0.28 2.56-1 3.26c-10.12 9.78-21 19.03-36.75 31.24c-1.71 1.33-0.75 3.44 1.25 3c8.36-1.83 31.25-6.08 42-7.83"></path>
<path style="fill:none; fill-opacity:0%; fill-rule:evenodd; stroke:#aaaaaa; stroke-opacity:100%; stroke-width: 1.5pt; stroke-linejoin:round; stroke-linecap:round;" d="M73 53.21c4.75 3.54 9.38 10.54 11.25 15.18"></path>
<path style="fill:none; fill-opacity:0%; fill-rule:evenodd; stroke:#aaaaaa; stroke-opacity:100%; stroke-width: 1.5pt; stroke-linejoin:round; stroke-linecap:round;" d="M54.8 67.71c0.62 0.62 1.1 1.79 1.1 2.82c0 7.9 0.08 16.59 0.01 23.97c-0.02 1.94-0.03 3.78-0.03 5.5"></path>
<path style="fill:none; fill-opacity:0%; fill-rule:evenodd; stroke:#aaaaaa; stroke-opacity:100%; stroke-width: 1.5pt; stroke-linejoin:round; stroke-linecap:round;" d="M39.21 78.48c0.16 1.14-0.09 2.14-1.06 3.09c-3.68 3.6-12.68 10.5-17.91 13.57"></path>
<path style="fill:none; fill-opacity:0%; fill-rule:evenodd; stroke:#aaaaaa; stroke-opacity:100%; stroke-width: 1.5pt; stroke-linejoin:round; stroke-linecap:round;" d="M74.5 77.11c5.13 3.35 13.92 12.3 15.75 15.66"></path>

<path style="fill:none; fill-opacity:0%; fill-rule:evenodd; stroke:#000000; stroke-opacity:100%; stroke-width: 3pt; stroke-linejoin:round; stroke-linecap:round;" d="M71.45 10.39c-0.05 0.87-0.42 1.52-1.11 1.98c-3.84 3.14-17.79 9.19-37.04 12.85"></path>
<path style="fill:none; fill-opacity:0%; fill-rule:evenodd; stroke:#000000; stroke-opacity:100%; stroke-width: 3pt; stroke-linejoin:round; stroke-linecap:round;" d="M51.38 24.25c0.38 1.2 0.19 2.69-0.69 3.89C47.5 32.5 42.75 38 38.82 41.68c-0.7 0.66-0.5 2.51 0.25 2.74c3.97 1.19 7.03 3.64 10.43 5.83"></path>
<path style="fill:none; fill-opacity:0%; fill-rule:evenodd; stroke:#000000; stroke-opacity:100%; stroke-width: 3pt; stroke-linejoin:round; stroke-linecap:round;" d="M72 29.83c0.38 1.29-0.28 2.56-1 3.26c-10.12 9.78-21 19.03-36.75 31.24c-1.71 1.33-0.75 3.44 1.25 3c8.36-1.83 31.25-6.08 42-7.83"></path>
<text x="5" y="20" font-size="20" fill="#999999">4</text><path style="fill:none; fill-opacity:0%; fill-rule:evenodd; stroke:#CC0000; stroke-opacity:100%; stroke-width: 3pt; stroke-linejoin:round; stroke-linecap:round;" d="M73 53.21c4.75 3.54 9.38 10.54 11.25 15.18" marker-end="url(#TriangleRed)" marker-start="url(#ArrowRed)" ></path>




</g><g transform="scale(1.3761467889908 1.3761467889908) translate(436, 0)">
<path style="fill:none; fill-rule:evenodd; stroke:#aaaaaa;  stroke-width:1pt; stroke-linecap:round;" d="m 109 0 L 0 0 L 0 109 L 109 109 L 109 0"></path><path style="fill:none; fill-opacity:0%; fill-rule:evenodd; stroke:#aaaaaa; stroke-opacity:100%; stroke-width: 1.5pt; stroke-linejoin:round; stroke-linecap:round;" d="M71.45 10.39c-0.05 0.87-0.42 1.52-1.11 1.98c-3.84 3.14-17.79 9.19-37.04 12.85"></path>
<path style="fill:none; fill-opacity:0%; fill-rule:evenodd; stroke:#aaaaaa; stroke-opacity:100%; stroke-width: 1.5pt; stroke-linejoin:round; stroke-linecap:round;" d="M51.38 24.25c0.38 1.2 0.19 2.69-0.69 3.89C47.5 32.5 42.75 38 38.82 41.68c-0.7 0.66-0.5 2.51 0.25 2.74c3.97 1.19 7.03 3.64 10.43 5.83"></path>
<path style="fill:none; fill-opacity:0%; fill-rule:evenodd; stroke:#aaaaaa; stroke-opacity:100%; stroke-width: 1.5pt; stroke-linejoin:round; stroke-linecap:round;" d="M72 29.83c0.38 1.29-0.28 2.56-1 3.26c-10.12 9.78-21 19.03-36.75 31.24c-1.71 1.33-0.75 3.44 1.25 3c8.36-1.83 31.25-6.08 42-7.83"></path>
<path style="fill:none; fill-opacity:0%; fill-rule:evenodd; stroke:#aaaaaa; stroke-opacity:100%; stroke-width: 1.5pt; stroke-linejoin:round; stroke-linecap:round;" d="M73 53.21c4.75 3.54 9.38 10.54 11.25 15.18"></path>
<path style="fill:none; fill-opacity:0%; fill-rule:evenodd; stroke:#aaaaaa; stroke-opacity:100%; stroke-width: 1.5pt; stroke-linejoin:round; stroke-linecap:round;" d="M54.8 67.71c0.62 0.62 1.1 1.79 1.1 2.82c0 7.9 0.08 16.59 0.01 23.97c-0.02 1.94-0.03 3.78-0.03 5.5"></path>
<path style="fill:none; fill-opacity:0%; fill-rule:evenodd; stroke:#aaaaaa; stroke-opacity:100%; stroke-width: 1.5pt; stroke-linejoin:round; stroke-linecap:round;" d="M39.21 78.48c0.16 1.14-0.09 2.14-1.06 3.09c-3.68 3.6-12.68 10.5-17.91 13.57"></path>
<path style="fill:none; fill-opacity:0%; fill-rule:evenodd; stroke:#aaaaaa; stroke-opacity:100%; stroke-width: 1.5pt; stroke-linejoin:round; stroke-linecap:round;" d="M74.5 77.11c5.13 3.35 13.92 12.3 15.75 15.66"></path>

<path style="fill:none; fill-opacity:0%; fill-rule:evenodd; stroke:#000000; stroke-opacity:100%; stroke-width: 3pt; stroke-linejoin:round; stroke-linecap:round;" d="M71.45 10.39c-0.05 0.87-0.42 1.52-1.11 1.98c-3.84 3.14-17.79 9.19-37.04 12.85"></path>
<path style="fill:none; fill-opacity:0%; fill-rule:evenodd; stroke:#000000; stroke-opacity:100%; stroke-width: 3pt; stroke-linejoin:round; stroke-linecap:round;" d="M51.38 24.25c0.38 1.2 0.19 2.69-0.69 3.89C47.5 32.5 42.75 38 38.82 41.68c-0.7 0.66-0.5 2.51 0.25 2.74c3.97 1.19 7.03 3.64 10.43 5.83"></path>
<path style="fill:none; fill-opacity:0%; fill-rule:evenodd; stroke:#000000; stroke-opacity:100%; stroke-width: 3pt; stroke-linejoin:round; stroke-linecap:round;" d="M72 29.83c0.38 1.29-0.28 2.56-1 3.26c-10.12 9.78-21 19.03-36.75 31.24c-1.71 1.33-0.75 3.44 1.25 3c8.36-1.83 31.25-6.08 42-7.83"></path>
<path style="fill:none; fill-opacity:0%; fill-rule:evenodd; stroke:#000000; stroke-opacity:100%; stroke-width: 3pt; stroke-linejoin:round; stroke-linecap:round;" d="M73 53.21c4.75 3.54 9.38 10.54 11.25 15.18"></path>
<text x="5" y="20" font-size="20" fill="#999999">5</text><path style="fill:none; fill-opacity:0%; fill-rule:evenodd; stroke:#CC0000; stroke-opacity:100%; stroke-width: 3pt; stroke-linejoin:round; stroke-linecap:round;" d="M54.8 67.71c0.62 0.62 1.1 1.79 1.1 2.82c0 7.9 0.08 16.59 0.01 23.97c-0.02 1.94-0.03 3.78-0.03 5.5" marker-end="url(#TriangleRed)" marker-start="url(#ArrowRed)" ></path>



</g><g transform="scale(1.3761467889908 1.3761467889908) translate(0, 109)">
<path style="fill:none; fill-rule:evenodd; stroke:#aaaaaa;  stroke-width:1pt; stroke-linecap:round;" d="m 109 0 L 0 0 L 0 109 L 109 109 L 109 0"></path><path style="fill:none; fill-opacity:0%; fill-rule:evenodd; stroke:#aaaaaa; stroke-opacity:100%; stroke-width: 1.5pt; stroke-linejoin:round; stroke-linecap:round;" d="M71.45 10.39c-0.05 0.87-0.42 1.52-1.11 1.98c-3.84 3.14-17.79 9.19-37.04 12.85"></path>
<path style="fill:none; fill-opacity:0%; fill-rule:evenodd; stroke:#aaaaaa; stroke-opacity:100%; stroke-width: 1.5pt; stroke-linejoin:round; stroke-linecap:round;" d="M51.38 24.25c0.38 1.2 0.19 2.69-0.69 3.89C47.5 32.5 42.75 38 38.82 41.68c-0.7 0.66-0.5 2.51 0.25 2.74c3.97 1.19 7.03 3.64 10.43 5.83"></path>
<path style="fill:none; fill-opacity:0%; fill-rule:evenodd; stroke:#aaaaaa; stroke-opacity:100%; stroke-width: 1.5pt; stroke-linejoin:round; stroke-linecap:round;" d="M72 29.83c0.38 1.29-0.28 2.56-1 3.26c-10.12 9.78-21 19.03-36.75 31.24c-1.71 1.33-0.75 3.44 1.25 3c8.36-1.83 31.25-6.08 42-7.83"></path>
<path style="fill:none; fill-opacity:0%; fill-rule:evenodd; stroke:#aaaaaa; stroke-opacity:100%; stroke-width: 1.5pt; stroke-linejoin:round; stroke-linecap:round;" d="M73 53.21c4.75 3.54 9.38 10.54 11.25 15.18"></path>
<path style="fill:none; fill-opacity:0%; fill-rule:evenodd; stroke:#aaaaaa; stroke-opacity:100%; stroke-width: 1.5pt; stroke-linejoin:round; stroke-linecap:round;" d="M54.8 67.71c0.62 0.62 1.1 1.79 1.1 2.82c0 7.9 0.08 16.59 0.01 23.97c-0.02 1.94-0.03 3.78-0.03 5.5"></path>
<path style="fill:none; fill-opacity:0%; fill-rule:evenodd; stroke:#aaaaaa; stroke-opacity:100%; stroke-width: 1.5pt; stroke-linejoin:round; stroke-linecap:round;" d="M39.21 78.48c0.16 1.14-0.09 2.14-1.06 3.09c-3.68 3.6-12.68 10.5-17.91 13.57"></path>
<path style="fill:none; fill-opacity:0%; fill-rule:evenodd; stroke:#aaaaaa; stroke-opacity:100%; stroke-width: 1.5pt; stroke-linejoin:round; stroke-linecap:round;" d="M74.5 77.11c5.13 3.35 13.92 12.3 15.75 15.66"></path>

<path style="fill:none; fill-opacity:0%; fill-rule:evenodd; stroke:#000000; stroke-opacity:100%; stroke-width: 3pt; stroke-linejoin:round; stroke-linecap:round;" d="M71.45 10.39c-0.05 0.87-0.42 1.52-1.11 1.98c-3.84 3.14-17.79 9.19-37.04 12.85"></path>
<path style="fill:none; fill-opacity:0%; fill-rule:evenodd; stroke:#000000; stroke-opacity:100%; stroke-width: 3pt; stroke-linejoin:round; stroke-linecap:round;" d="M51.38 24.25c0.38 1.2 0.19 2.69-0.69 3.89C47.5 32.5 42.75 38 38.82 41.68c-0.7 0.66-0.5 2.51 0.25 2.74c3.97 1.19 7.03 3.64 10.43 5.83"></path>
<path style="fill:none; fill-opacity:0%; fill-rule:evenodd; stroke:#000000; stroke-opacity:100%; stroke-width: 3pt; stroke-linejoin:round; stroke-linecap:round;" d="M72 29.83c0.38 1.29-0.28 2.56-1 3.26c-10.12 9.78-21 19.03-36.75 31.24c-1.71 1.33-0.75 3.44 1.25 3c8.36-1.83 31.25-6.08 42-7.83"></path>
<path style="fill:none; fill-opacity:0%; fill-rule:evenodd; stroke:#000000; stroke-opacity:100%; stroke-width: 3pt; stroke-linejoin:round; stroke-linecap:round;" d="M73 53.21c4.75 3.54 9.38 10.54 11.25 15.18"></path>
<path style="fill:none; fill-opacity:0%; fill-rule:evenodd; stroke:#000000; stroke-opacity:100%; stroke-width: 3pt; stroke-linejoin:round; stroke-linecap:round;" d="M54.8 67.71c0.62 0.62 1.1 1.79 1.1 2.82c0 7.9 0.08 16.59 0.01 23.97c-0.02 1.94-0.03 3.78-0.03 5.5"></path>
<text x="5" y="20" font-size="20" fill="#999999">6</text><path style="fill:none; fill-opacity:0%; fill-rule:evenodd; stroke:#CC0000; stroke-opacity:100%; stroke-width: 3pt; stroke-linejoin:round; stroke-linecap:round;" d="M39.21 78.48c0.16 1.14-0.09 2.14-1.06 3.09c-3.68 3.6-12.68 10.5-17.91 13.57" marker-end="url(#TriangleRed)" marker-start="url(#ArrowRed)" ></path>


</g><g transform="scale(1.3761467889908 1.3761467889908) translate(109, 109)">
<path style="fill:none; fill-rule:evenodd; stroke:#aaaaaa;  stroke-width:1pt; stroke-linecap:round;" d="m 109 0 L 0 0 L 0 109 L 109 109 L 109 0"></path><path style="fill:none; fill-opacity:0%; fill-rule:evenodd; stroke:#aaaaaa; stroke-opacity:100%; stroke-width: 1.5pt; stroke-linejoin:round; stroke-linecap:round;" d="M71.45 10.39c-0.05 0.87-0.42 1.52-1.11 1.98c-3.84 3.14-17.79 9.19-37.04 12.85"></path>
<path style="fill:none; fill-opacity:0%; fill-rule:evenodd; stroke:#aaaaaa; stroke-opacity:100%; stroke-width: 1.5pt; stroke-linejoin:round; stroke-linecap:round;" d="M51.38 24.25c0.38 1.2 0.19 2.69-0.69 3.89C47.5 32.5 42.75 38 38.82 41.68c-0.7 0.66-0.5 2.51 0.25 2.74c3.97 1.19 7.03 3.64 10.43 5.83"></path>
<path style="fill:none; fill-opacity:0%; fill-rule:evenodd; stroke:#aaaaaa; stroke-opacity:100%; stroke-width: 1.5pt; stroke-linejoin:round; stroke-linecap:round;" d="M72 29.83c0.38 1.29-0.28 2.56-1 3.26c-10.12 9.78-21 19.03-36.75 31.24c-1.71 1.33-0.75 3.44 1.25 3c8.36-1.83 31.25-6.08 42-7.83"></path>
<path style="fill:none; fill-opacity:0%; fill-rule:evenodd; stroke:#aaaaaa; stroke-opacity:100%; stroke-width: 1.5pt; stroke-linejoin:round; stroke-linecap:round;" d="M73 53.21c4.75 3.54 9.38 10.54 11.25 15.18"></path>
<path style="fill:none; fill-opacity:0%; fill-rule:evenodd; stroke:#aaaaaa; stroke-opacity:100%; stroke-width: 1.5pt; stroke-linejoin:round; stroke-linecap:round;" d="M54.8 67.71c0.62 0.62 1.1 1.79 1.1 2.82c0 7.9 0.08 16.59 0.01 23.97c-0.02 1.94-0.03 3.78-0.03 5.5"></path>
<path style="fill:none; fill-opacity:0%; fill-rule:evenodd; stroke:#aaaaaa; stroke-opacity:100%; stroke-width: 1.5pt; stroke-linejoin:round; stroke-linecap:round;" d="M39.21 78.48c0.16 1.14-0.09 2.14-1.06 3.09c-3.68 3.6-12.68 10.5-17.91 13.57"></path>
<path style="fill:none; fill-opacity:0%; fill-rule:evenodd; stroke:#aaaaaa; stroke-opacity:100%; stroke-width: 1.5pt; stroke-linejoin:round; stroke-linecap:round;" d="M74.5 77.11c5.13 3.35 13.92 12.3 15.75 15.66"></path>

<path style="fill:none; fill-opacity:0%; fill-rule:evenodd; stroke:#000000; stroke-opacity:100%; stroke-width: 3pt; stroke-linejoin:round; stroke-linecap:round;" d="M71.45 10.39c-0.05 0.87-0.42 1.52-1.11 1.98c-3.84 3.14-17.79 9.19-37.04 12.85"></path>
<path style="fill:none; fill-opacity:0%; fill-rule:evenodd; stroke:#000000; stroke-opacity:100%; stroke-width: 3pt; stroke-linejoin:round; stroke-linecap:round;" d="M51.38 24.25c0.38 1.2 0.19 2.69-0.69 3.89C47.5 32.5 42.75 38 38.82 41.68c-0.7 0.66-0.5 2.51 0.25 2.74c3.97 1.19 7.03 3.64 10.43 5.83"></path>
<path style="fill:none; fill-opacity:0%; fill-rule:evenodd; stroke:#000000; stroke-opacity:100%; stroke-width: 3pt; stroke-linejoin:round; stroke-linecap:round;" d="M72 29.83c0.38 1.29-0.28 2.56-1 3.26c-10.12 9.78-21 19.03-36.75 31.24c-1.71 1.33-0.75 3.44 1.25 3c8.36-1.83 31.25-6.08 42-7.83"></path>
<path style="fill:none; fill-opacity:0%; fill-rule:evenodd; stroke:#000000; stroke-opacity:100%; stroke-width: 3pt; stroke-linejoin:round; stroke-linecap:round;" d="M73 53.21c4.75 3.54 9.38 10.54 11.25 15.18"></path>
<path style="fill:none; fill-opacity:0%; fill-rule:evenodd; stroke:#000000; stroke-opacity:100%; stroke-width: 3pt; stroke-linejoin:round; stroke-linecap:round;" d="M54.8 67.71c0.62 0.62 1.1 1.79 1.1 2.82c0 7.9 0.08 16.59 0.01 23.97c-0.02 1.94-0.03 3.78-0.03 5.5"></path>
<path style="fill:none; fill-opacity:0%; fill-rule:evenodd; stroke:#000000; stroke-opacity:100%; stroke-width: 3pt; stroke-linejoin:round; stroke-linecap:round;" d="M39.21 78.48c0.16 1.14-0.09 2.14-1.06 3.09c-3.68 3.6-12.68 10.5-17.91 13.57"></path>
<text x="5" y="20" font-size="20" fill="#999999">7</text><path style="fill:none; fill-opacity:0%; fill-rule:evenodd; stroke:#CC0000; stroke-opacity:100%; stroke-width: 3pt; stroke-linejoin:round; stroke-linecap:round;" d="M74.5 77.11c5.13 3.35 13.92 12.3 15.75 15.66" marker-end="url(#TriangleRed)" marker-start="url(#ArrowRed)" ></path>

</g>

</svg>  
          
