<?xml version="1.0" standalone="no"?>
<!DOCTYPE svg PUBLIC "-//W3C//DTD SVG 1.1//EN"   "http://www.w3.org/Graphics/SVG/1.1/DTD/svg11.dtd">
<svg width="751" height="301"  version="1.1" xmlns="http://www.w3.org/2000/svg">
  <defs>
    <marker id="Triangle" viewBox="0 0 10 10" refX="0" refY="5" markerUnits="strokeWidth" markerWidth="3" style="stroke-opacity:0%;fill:#aaaaaa;" markerHeight="2" orient="auto">
      <path d="M 0 0 L 10 5 L 0 10 z" />
    </marker>
    
    <marker id="Arrow" viewBox="0 0 10 10" refX="5" refY="5" markerUnits="strokeWidth" markerWidth="1.8" style="stroke-opacity:0%;fill:#770000;" markerHeight="2" orient="auto">
      <path d="M 0 4 L 6 4 L 4 1 L 10 5 L 4 9 L 6 6 L 0 6 z" />
        <circle cx="5" cy="5" r="5" />
      </marker>
    
    <marker id="TriangleRed" viewBox="0 0 10 10" refX="0" refY="5" markerUnits="strokeWidth" markerWidth="3" style="stroke-opacity:0%;fill:#CC0000;" markerHeight="2" orient="auto">
      <path d="M 0 0 L 10 5 L 0 10 z" />
    </marker>
    
    <marker id="ArrowRed" viewBox="0 0 10 10" refX="5" refY="5" markerUnits="strokeWidth" markerWidth="1.8" style="stroke-opacity:0%;fill:#CC0000;" markerHeight="2" orient="auto">
      <path d="M 0 4 L 6 4 L 4 1 L 10 5 L 4 9 L 6 6 L 0 6 z" />
        <circle cx="5" cy="5" r="5" />
      </marker>
    
  </defs>
  
  <path style="fill:#ffffff; fill-opacity:100%; fill-rule:evenodd; stroke-width:0;" d="M 0 0 L 751 0 L 751 301 L 0 301 L 0 0" />

  <g transform="scale(1.3761467889908 1.3761467889908) translate(0, 0)">
<path style="fill:none; fill-rule:evenodd; stroke:#aaaaaa;  stroke-width:1pt; stroke-linecap:round;" d="m 109 0 L 0 0 L 0 109 L 109 109 L 109 0"></path><path style="fill:none; fill-opacity:0%; fill-rule:evenodd; stroke:#aaaaaa; stroke-opacity:100%; stroke-width: 1.5pt; stroke-linejoin:round; stroke-linecap:round;" d="M27.13 14.17c0.34 1.34 0.5 2.39-0.17 3.8c-2.33 4.9-5.2 10.53-8.55 15.22c-0.78 1.09-0.78 3.04 0.54 3.56c3.37 1.32 5.18 2.25 8.68 4.61"></path>
<path style="fill:none; fill-opacity:0%; fill-rule:evenodd; stroke:#aaaaaa; stroke-opacity:100%; stroke-width: 1.5pt; stroke-linejoin:round; stroke-linecap:round;" d="M38.55 26.43c0.32 1.07 0.2 2.2-0.5 3.34c-5.9 9.68-12.8 17.98-21.48 27.44c-1.78 1.94-0.9 3.73 1.15 3.09c5.4-1.68 13.87-3.99 20.29-5.53"></path>
<path style="fill:none; fill-opacity:0%; fill-rule:evenodd; stroke:#aaaaaa; stroke-opacity:100%; stroke-width: 1.5pt; stroke-linejoin:round; stroke-linecap:round;" d="M35.13 48.13c2.34 2.36 6.04 9.69 6.62 13.35"></path>
<path style="fill:none; fill-opacity:0%; fill-rule:evenodd; stroke:#aaaaaa; stroke-opacity:100%; stroke-width: 1.5pt; stroke-linejoin:round; stroke-linecap:round;" d="M27.64 60.62c0.81 0.81 0.98 2.13 0.98 4.09c0 4.88-0.06 16.45-0.1 24.17C28.51 91.5 28.5 93.68 28.5 95"></path>
<path style="fill:none; fill-opacity:0%; fill-rule:evenodd; stroke:#aaaaaa; stroke-opacity:100%; stroke-width: 1.5pt; stroke-linejoin:round; stroke-linecap:round;" d="M18.87 71.6c0.13 1.15 0 2.03-0.37 3.26c-1.36 4.48-5.16 12.51-7.25 16.32"></path>
<path style="fill:none; fill-opacity:0%; fill-rule:evenodd; stroke:#aaaaaa; stroke-opacity:100%; stroke-width: 1.5pt; stroke-linejoin:round; stroke-linecap:round;" d="M35.38 68.5c3.15 3.3 5.57 10.98 6.3 13.97"></path>
<path style="fill:none; fill-opacity:0%; fill-rule:evenodd; stroke:#aaaaaa; stroke-opacity:100%; stroke-width: 1.5pt; stroke-linejoin:round; stroke-linecap:round;" d="M70.8 13c1.1 1.1 1.26 2.62 1.26 4.14c0 10.93-0.01 40.22-0.01 43.95c0 10.56-6.76 2.21-8.27 1.27"></path>
<path style="fill:none; fill-opacity:0%; fill-rule:evenodd; stroke:#aaaaaa; stroke-opacity:100%; stroke-width: 1.5pt; stroke-linejoin:round; stroke-linecap:round;" d="M59.71 34.17c0.07 1.18-0.05 2.12-0.42 3.25c-1.75 5.31-6.85 14.19-10.87 18.51"></path>
<path style="fill:none; fill-opacity:0%; fill-rule:evenodd; stroke:#aaaaaa; stroke-opacity:100%; stroke-width: 1.5pt; stroke-linejoin:round; stroke-linecap:round;" d="M84.35 33.25c5.17 3.09 11.85 11.28 13.15 16.09"></path>
<path style="fill:none; fill-opacity:0%; fill-rule:evenodd; stroke:#aaaaaa; stroke-opacity:100%; stroke-width: 1.5pt; stroke-linejoin:round; stroke-linecap:round;" d="M87.76 47.08c0.11 1.2-0.09 2.62-0.73 4.29C81.75 65.12 68 84.5 45.88 97.75"></path>

<text x="5" y="20" font-size="20" fill="#999999">1</text><path style="fill:none; fill-opacity:0%; fill-rule:evenodd; stroke:#CC0000; stroke-opacity:100%; stroke-width: 3pt; stroke-linejoin:round; stroke-linecap:round;" d="M27.13 14.17c0.34 1.34 0.5 2.39-0.17 3.8c-2.33 4.9-5.2 10.53-8.55 15.22c-0.78 1.09-0.78 3.04 0.54 3.56c3.37 1.32 5.18 2.25 8.68 4.61" marker-end="url(#TriangleRed)" marker-start="url(#ArrowRed)" ></path>










</g><g transform="scale(1.3761467889908 1.3761467889908) translate(109, 0)">
<path style="fill:none; fill-rule:evenodd; stroke:#aaaaaa;  stroke-width:1pt; stroke-linecap:round;" d="m 109 0 L 0 0 L 0 109 L 109 109 L 109 0"></path><path style="fill:none; fill-opacity:0%; fill-rule:evenodd; stroke:#aaaaaa; stroke-opacity:100%; stroke-width: 1.5pt; stroke-linejoin:round; stroke-linecap:round;" d="M27.13 14.17c0.34 1.34 0.5 2.39-0.17 3.8c-2.33 4.9-5.2 10.53-8.55 15.22c-0.78 1.09-0.78 3.04 0.54 3.56c3.37 1.32 5.18 2.25 8.68 4.61"></path>
<path style="fill:none; fill-opacity:0%; fill-rule:evenodd; stroke:#aaaaaa; stroke-opacity:100%; stroke-width: 1.5pt; stroke-linejoin:round; stroke-linecap:round;" d="M38.55 26.43c0.32 1.07 0.2 2.2-0.5 3.34c-5.9 9.68-12.8 17.98-21.48 27.44c-1.78 1.94-0.9 3.73 1.15 3.09c5.4-1.68 13.87-3.99 20.29-5.53"></path>
<path style="fill:none; fill-opacity:0%; fill-rule:evenodd; stroke:#aaaaaa; stroke-opacity:100%; stroke-width: 1.5pt; stroke-linejoin:round; stroke-linecap:round;" d="M35.13 48.13c2.34 2.36 6.04 9.69 6.62 13.35"></path>
<path style="fill:none; fill-opacity:0%; fill-rule:evenodd; stroke:#aaaaaa; stroke-opacity:100%; stroke-width: 1.5pt; stroke-linejoin:round; stroke-linecap:round;" d="M27.64 60.62c0.81 0.81 0.98 2.13 0.98 4.09c0 4.88-0.06 16.45-0.1 24.17C28.51 91.5 28.5 93.68 28.5 95"></path>
<path style="fill:none; fill-opacity:0%; fill-rule:evenodd; stroke:#aaaaaa; stroke-opacity:100%; stroke-width: 1.5pt; stroke-linejoin:round; stroke-linecap:round;" d="M18.87 71.6c0.13 1.15 0 2.03-0.37 3.26c-1.36 4.48-5.16 12.51-7.25 16.32"></path>
<path style="fill:none; fill-opacity:0%; fill-rule:evenodd; stroke:#aaaaaa; stroke-opacity:100%; stroke-width: 1.5pt; stroke-linejoin:round; stroke-linecap:round;" d="M35.38 68.5c3.15 3.3 5.57 10.98 6.3 13.97"></path>
<path style="fill:none; fill-opacity:0%; fill-rule:evenodd; stroke:#aaaaaa; stroke-opacity:100%; stroke-width: 1.5pt; stroke-linejoin:round; stroke-linecap:round;" d="M70.8 13c1.1 1.1 1.26 2.62 1.26 4.14c0 10.93-0.01 40.22-0.01 43.95c0 10.56-6.76 2.21-8.27 1.27"></path>
<path style="fill:none; fill-opacity:0%; fill-rule:evenodd; stroke:#aaaaaa; stroke-opacity:100%; stroke-width: 1.5pt; stroke-linejoin:round; stroke-linecap:round;" d="M59.71 34.17c0.07 1.18-0.05 2.12-0.42 3.25c-1.75 5.31-6.85 14.19-10.87 18.51"></path>
<path style="fill:none; fill-opacity:0%; fill-rule:evenodd; stroke:#aaaaaa; stroke-opacity:100%; stroke-width: 1.5pt; stroke-linejoin:round; stroke-linecap:round;" d="M84.35 33.25c5.17 3.09 11.85 11.28 13.15 16.09"></path>
<path style="fill:none; fill-opacity:0%; fill-rule:evenodd; stroke:#aaaaaa; stroke-opacity:100%; stroke-width: 1.5pt; stroke-linejoin:round; stroke-linecap:round;" d="M87.76 47.08c0.11 1.2-0.09 2.62-0.73 4.29C81.75 65.12 68 84.5 45.88 97.75"></path>

<path style="fill:none; fill-opacity:0%; fill-rule:evenodd; stroke:#000000; stroke-opacity:100%; stroke-width: 3pt; stroke-linejoin:round; stroke-linecap:round;" d="M27.13 14.17c0.34 1.34 0.5 2.39-0.17 3.8c-2.33 4.9-5.2 10.53-8.55 15.22c-0.78 1.09-0.78 3.04 0.54 3.56c3.37 1.32 5.18 2.25 8.68 4.61"></path>
<text x="5" y="20" font-size="20" fill="#999999">2</text><path style="fill:none; fill-opacity:0%; fill-rule:evenodd; stroke:#CC0000; stroke-opacity:100%; stroke-width: 3pt; stroke-linejoin:round; stroke-linecap:round;" d="M38.55 26.43c0.32 1.07 0.2 2.2-0.5 3.34c-5.9 9.68-12.8 17.98-21.48 27.44c-1.78 1.94-0.9 3.73 1.15 3.09c5.4-1.68 13.87-3.99 20.29-5.53" marker-end="url(#TriangleRed)" marker-start="url(#ArrowRed)" ></path>









</g><g transform="scale(1.3761467889908 1.3761467889908) translate(218, 0)">
<path style="fill:none; fill-rule:evenodd; stroke:#aaaaaa;  stroke-width:1pt; stroke-linecap:round;" d="m 109 0 L 0 0 L 0 109 L 109 109 L 109 0"></path><path style="fill:none; fill-opacity:0%; fill-rule:evenodd; stroke:#aaaaaa; stroke-opacity:100%; stroke-width: 1.5pt; stroke-linejoin:round; stroke-linecap:round;" d="M27.13 14.17c0.34 1.34 0.5 2.39-0.17 3.8c-2.33 4.9-5.2 10.53-8.55 15.22c-0.78 1.09-0.78 3.04 0.54 3.56c3.37 1.32 5.18 2.25 8.68 4.61"></path>
<path style="fill:none; fill-opacity:0%; fill-rule:evenodd; stroke:#aaaaaa; stroke-opacity:100%; stroke-width: 1.5pt; stroke-linejoin:round; stroke-linecap:round;" d="M38.55 26.43c0.32 1.07 0.2 2.2-0.5 3.34c-5.9 9.68-12.8 17.98-21.48 27.44c-1.78 1.94-0.9 3.73 1.15 3.09c5.4-1.68 13.87-3.99 20.29-5.53"></path>
<path style="fill:none; fill-opacity:0%; fill-rule:evenodd; stroke:#aaaaaa; stroke-opacity:100%; stroke-width: 1.5pt; stroke-linejoin:round; stroke-linecap:round;" d="M35.13 48.13c2.34 2.36 6.04 9.69 6.62 13.35"></path>
<path style="fill:none; fill-opacity:0%; fill-rule:evenodd; stroke:#aaaaaa; stroke-opacity:100%; stroke-width: 1.5pt; stroke-linejoin:round; stroke-linecap:round;" d="M27.64 60.62c0.81 0.81 0.98 2.13 0.98 4.09c0 4.88-0.06 16.45-0.1 24.17C28.51 91.5 28.5 93.68 28.5 95"></path>
<path style="fill:none; fill-opacity:0%; fill-rule:evenodd; stroke:#aaaaaa; stroke-opacity:100%; stroke-width: 1.5pt; stroke-linejoin:round; stroke-linecap:round;" d="M18.87 71.6c0.13 1.15 0 2.03-0.37 3.26c-1.36 4.48-5.16 12.51-7.25 16.32"></path>
<path style="fill:none; fill-opacity:0%; fill-rule:evenodd; stroke:#aaaaaa; stroke-opacity:100%; stroke-width: 1.5pt; stroke-linejoin:round; stroke-linecap:round;" d="M35.38 68.5c3.15 3.3 5.57 10.98 6.3 13.97"></path>
<path style="fill:none; fill-opacity:0%; fill-rule:evenodd; stroke:#aaaaaa; stroke-opacity:100%; stroke-width: 1.5pt; stroke-linejoin:round; stroke-linecap:round;" d="M70.8 13c1.1 1.1 1.26 2.62 1.26 4.14c0 10.93-0.01 40.22-0.01 43.95c0 10.56-6.76 2.21-8.27 1.27"></path>
<path style="fill:none; fill-opacity:0%; fill-rule:evenodd; stroke:#aaaaaa; stroke-opacity:100%; stroke-width: 1.5pt; stroke-linejoin:round; stroke-linecap:round;" d="M59.71 34.17c0.07 1.18-0.05 2.12-0.42 3.25c-1.75 5.31-6.85 14.19-10.87 18.51"></path>
<path style="fill:none; fill-opacity:0%; fill-rule:evenodd; stroke:#aaaaaa; stroke-opacity:100%; stroke-width: 1.5pt; stroke-linejoin:round; stroke-linecap:round;" d="M84.35 33.25c5.17 3.09 11.85 11.28 13.15 16.09"></path>
<path style="fill:none; fill-opacity:0%; fill-rule:evenodd; stroke:#aaaaaa; stroke-opacity:100%; stroke-width: 1.5pt; stroke-linejoin:round; stroke-linecap:round;" d="M87.76 47.08c0.11 1.2-0.09 2.62-0.73 4.29C81.75 65.12 68 84.5 45.88 97.75"></path>

<path style="fill:none; fill-opacity:0%; fill-rule:evenodd; stroke:#000000; stroke-opacity:100%; stroke-width: 3pt; stroke-linejoin:round; stroke-linecap:round;" d="M27.13 14.17c0.34 1.34 0.5 2.39-0.17 3.8c-2.33 4.9-5.2 10.53-8.55 15.22c-0.78 1.09-0.78 3.04 0.54 3.56c3.37 1.32 5.18 2.25 8.68 4.61"></path>
<path style="fill:none; fill-opacity:0%; fill-rule:evenodd; stroke:#000000; stroke-opacity:100%; stroke-width: 3pt; stroke-linejoin:round; stroke-linecap:round;" d="M38.55 26.43c0.32 1.07 0.2 2.2-0.5 3.34c-5.9 9.68-12.8 17.98-21.48 27.44c-1.78 1.94-0.9 3.73 1.15 3.09c5.4-1.68 13.87-3.99 20.29-5.53"></path>
<text x="5" y="20" font-size="20" fill="#999999">3</text><path style="fill:none; fill-opacity:0%; fill-rule:evenodd; stroke:#CC0000; stroke-opacity:100%; stroke-width: 3pt; stroke-linejoin:round; stroke-linecap:round;" d="M35.13 48.13c2.34 2.36 6.04 9.69 6.62 13.35" marker-end="url(#TriangleRed)" marker-start="url(#ArrowRed)" ></path>








</g><g transform="scale(1.3761467889908 1.3761467889908) translate(327, 0)">
<path style="fill:none; fill-rule:evenodd; stroke:#aaaaaa;  stroke-width:1pt; stroke-linecap:round;" d="m 109 0 L 0 0 L 0 109 L 109 109 L 109 0"></path><path style="fill:none; fill-opacity:0%; fill-rule:evenodd; stroke:#aaaaaa; stroke-opacity:100%; stroke-width: 1.5pt; stroke-linejoin:round; stroke-linecap:round;" d="M27.13 14.17c0.34 1.34 0.5 2.39-0.17 3.8c-2.33 4.9-5.2 10.53-8.55 15.22c-0.78 1.09-0.78 3.04 0.54 3.56c3.37 1.32 5.18 2.25 8.68 4.61"></path>
<path style="fill:none; fill-opacity:0%; fill-rule:evenodd; stroke:#aaaaaa; stroke-opacity:100%; stroke-width: 1.5pt; stroke-linejoin:round; stroke-linecap:round;" d="M38.55 26.43c0.32 1.07 0.2 2.2-0.5 3.34c-5.9 9.68-12.8 17.98-21.48 27.44c-1.78 1.94-0.9 3.73 1.15 3.09c5.4-1.68 13.87-3.99 20.29-5.53"></path>
<path style="fill:none; fill-opacity:0%; fill-rule:evenodd; stroke:#aaaaaa; stroke-opacity:100%; stroke-width: 1.5pt; stroke-linejoin:round; stroke-linecap:round;" d="M35.13 48.13c2.34 2.36 6.04 9.69 6.62 13.35"></path>
<path style="fill:none; fill-opacity:0%; fill-rule:evenodd; stroke:#aaaaaa; stroke-opacity:100%; stroke-width: 1.5pt; stroke-linejoin:round; stroke-linecap:round;" d="M27.64 60.62c0.81 0.81 0.98 2.13 0.98 4.09c0 4.88-0.06 16.45-0.1 24.17C28.51 91.5 28.5 93.68 28.5 95"></path>
<path style="fill:none; fill-opacity:0%; fill-rule:evenodd; stroke:#aaaaaa; stroke-opacity:100%; stroke-width: 1.5pt; stroke-linejoin:round; stroke-linecap:round;" d="M18.87 71.6c0.13 1.15 0 2.03-0.37 3.26c-1.36 4.48-5.16 12.51-7.25 16.32"></path>
<path style="fill:none; fill-opacity:0%; fill-rule:evenodd; stroke:#aaaaaa; stroke-opacity:100%; stroke-width: 1.5pt; stroke-linejoin:round; stroke-linecap:round;" d="M35.38 68.5c3.15 3.3 5.57 10.98 6.3 13.97"></path>
<path style="fill:none; fill-opacity:0%; fill-rule:evenodd; stroke:#aaaaaa; stroke-opacity:100%; stroke-width: 1.5pt; stroke-linejoin:round; stroke-linecap:round;" d="M70.8 13c1.1 1.1 1.26 2.62 1.26 4.14c0 10.93-0.01 40.22-0.01 43.95c0 10.56-6.76 2.21-8.27 1.27"></path>
<path style="fill:none; fill-opacity:0%; fill-rule:evenodd; stroke:#aaaaaa; stroke-opacity:100%; stroke-width: 1.5pt; stroke-linejoin:round; stroke-linecap:round;" d="M59.71 34.17c0.07 1.18-0.05 2.12-0.42 3.25c-1.75 5.31-6.85 14.19-10.87 18.51"></path>
<path style="fill:none; fill-opacity:0%; fill-rule:evenodd; stroke:#aaaaaa; stroke-opacity:100%; stroke-width: 1.5pt; stroke-linejoin:round; stroke-linecap:round;" d="M84.35 33.25c5.17 3.09 11.85 11.28 13.15 16.09"></path>
<path style="fill:none; fill-opacity:0%; fill-rule:evenodd; stroke:#aaaaaa; stroke-opacity:100%; stroke-width: 1.5pt; stroke-linejoin:round; stroke-linecap:round;" d="M87.76 47.08c0.11 1.2-0.09 2.62-0.73 4.29C81.75 65.12 68 84.5 45.88 97.75"></path>

<path style="fill:none; fill-opacity:0%; fill-rule:evenodd; stroke:#000000; stroke-opacity:100%; stroke-width: 3pt; stroke-linejoin:round; stroke-linecap:round;" d="M27.13 14.17c0.34 1.34 0.5 2.39-0.17 3.8c-2.33 4.9-5.2 10.53-8.55 15.22c-0.78 1.09-0.78 3.04 0.54 3.56c3.37 1.32 5.18 2.25 8.68 4.61"></path>
<path style="fill:none; fill-opacity:0%; fill-rule:evenodd; stroke:#000000; stroke-opacity:100%; stroke-width: 3pt; stroke-linejoin:round; stroke-linecap:round;" d="M38.55 26.43c0.32 1.07 0.2 2.2-0.5 3.34c-5.9 9.68-12.8 17.98-21.48 27.44c-1.78 1.94-0.9 3.73 1.15 3.09c5.4-1.68 13.87-3.99 20.29-5.53"></path>
<path style="fill:none; fill-opacity:0%; fill-rule:evenodd; stroke:#000000; stroke-opacity:100%; stroke-width: 3pt; stroke-linejoin:round; stroke-linecap:round;" d="M35.13 48.13c2.34 2.36 6.04 9.69 6.62 13.35"></path>
<text x="5" y="20" font-size="20" fill="#999999">4</text><path style="fill:none; fill-opacity:0%; fill-rule:evenodd; stroke:#CC0000; stroke-opacity:100%; stroke-width: 3pt; stroke-linejoin:round; stroke-linecap:round;" d="M27.64 60.62c0.81 0.81 0.98 2.13 0.98 4.09c0 4.88-0.06 16.45-0.1 24.17C28.51 91.5 28.5 93.68 28.5 95" marker-end="url(#TriangleRed)" marker-start="url(#ArrowRed)" ></path>







</g><g transform="scale(1.3761467889908 1.3761467889908) translate(436, 0)">
<path style="fill:none; fill-rule:evenodd; stroke:#aaaaaa;  stroke-width:1pt; stroke-linecap:round;" d="m 109 0 L 0 0 L 0 109 L 109 109 L 109 0"></path><path style="fill:none; fill-opacity:0%; fill-rule:evenodd; stroke:#aaaaaa; stroke-opacity:100%; stroke-width: 1.5pt; stroke-linejoin:round; stroke-linecap:round;" d="M27.13 14.17c0.34 1.34 0.5 2.39-0.17 3.8c-2.33 4.9-5.2 10.53-8.55 15.22c-0.78 1.09-0.78 3.04 0.54 3.56c3.37 1.32 5.18 2.25 8.68 4.61"></path>
<path style="fill:none; fill-opacity:0%; fill-rule:evenodd; stroke:#aaaaaa; stroke-opacity:100%; stroke-width: 1.5pt; stroke-linejoin:round; stroke-linecap:round;" d="M38.55 26.43c0.32 1.07 0.2 2.2-0.5 3.34c-5.9 9.68-12.8 17.98-21.48 27.44c-1.78 1.94-0.9 3.73 1.15 3.09c5.4-1.68 13.87-3.99 20.29-5.53"></path>
<path style="fill:none; fill-opacity:0%; fill-rule:evenodd; stroke:#aaaaaa; stroke-opacity:100%; stroke-width: 1.5pt; stroke-linejoin:round; stroke-linecap:round;" d="M35.13 48.13c2.34 2.36 6.04 9.69 6.62 13.35"></path>
<path style="fill:none; fill-opacity:0%; fill-rule:evenodd; stroke:#aaaaaa; stroke-opacity:100%; stroke-width: 1.5pt; stroke-linejoin:round; stroke-linecap:round;" d="M27.64 60.62c0.81 0.81 0.98 2.13 0.98 4.09c0 4.88-0.06 16.45-0.1 24.17C28.51 91.5 28.5 93.68 28.5 95"></path>
<path style="fill:none; fill-opacity:0%; fill-rule:evenodd; stroke:#aaaaaa; stroke-opacity:100%; stroke-width: 1.5pt; stroke-linejoin:round; stroke-linecap:round;" d="M18.87 71.6c0.13 1.15 0 2.03-0.37 3.26c-1.36 4.48-5.16 12.51-7.25 16.32"></path>
<path style="fill:none; fill-opacity:0%; fill-rule:evenodd; stroke:#aaaaaa; stroke-opacity:100%; stroke-width: 1.5pt; stroke-linejoin:round; stroke-linecap:round;" d="M35.38 68.5c3.15 3.3 5.57 10.98 6.3 13.97"></path>
<path style="fill:none; fill-opacity:0%; fill-rule:evenodd; stroke:#aaaaaa; stroke-opacity:100%; stroke-width: 1.5pt; stroke-linejoin:round; stroke-linecap:round;" d="M70.8 13c1.1 1.1 1.26 2.62 1.26 4.14c0 10.93-0.01 40.22-0.01 43.95c0 10.56-6.76 2.21-8.27 1.27"></path>
<path style="fill:none; fill-opacity:0%; fill-rule:evenodd; stroke:#aaaaaa; stroke-opacity:100%; stroke-width: 1.5pt; stroke-linejoin:round; stroke-linecap:round;" d="M59.71 34.17c0.07 1.18-0.05 2.12-0.42 3.25c-1.75 5.31-6.85 14.19-10.87 18.51"></path>
<path style="fill:none; fill-opacity:0%; fill-rule:evenodd; stroke:#aaaaaa; stroke-opacity:100%; stroke-width: 1.5pt; stroke-linejoin:round; stroke-linecap:round;" d="M84.35 33.25c5.17 3.09 11.85 11.28 13.15 16.09"></path>
<path style="fill:none; fill-opacity:0%; fill-rule:evenodd; stroke:#aaaaaa; stroke-opacity:100%; stroke-width: 1.5pt; stroke-linejoin:round; stroke-linecap:round;" d="M87.76 47.08c0.11 1.2-0.09 2.62-0.73 4.29C81.75 65.12 68 84.5 45.88 97.75"></path>

<path style="fill:none; fill-opacity:0%; fill-rule:evenodd; stroke:#000000; stroke-opacity:100%; stroke-width: 3pt; stroke-linejoin:round; stroke-linecap:round;" d="M27.13 14.17c0.34 1.34 0.5 2.39-0.17 3.8c-2.33 4.9-5.2 10.53-8.55 15.22c-0.78 1.09-0.78 3.04 0.54 3.56c3.37 1.32 5.18 2.25 8.68 4.61"></path>
<path style="fill:none; fill-opacity:0%; fill-rule:evenodd; stroke:#000000; stroke-opacity:100%; stroke-width: 3pt; stroke-linejoin:round; stroke-linecap:round;" d="M38.55 26.43c0.32 1.07 0.2 2.2-0.5 3.34c-5.9 9.68-12.8 17.98-21.48 27.44c-1.78 1.94-0.9 3.73 1.15 3.09c5.4-1.68 13.87-3.99 20.29-5.53"></path>
<path style="fill:none; fill-opacity:0%; fill-rule:evenodd; stroke:#000000; stroke-opacity:100%; stroke-width: 3pt; stroke-linejoin:round; stroke-linecap:round;" d="M35.13 48.13c2.34 2.36 6.04 9.69 6.62 13.35"></path>
<path style="fill:none; fill-opacity:0%; fill-rule:evenodd; stroke:#000000; stroke-opacity:100%; stroke-width: 3pt; stroke-linejoin:round; stroke-linecap:round;" d="M27.64 60.62c0.81 0.81 0.98 2.13 0.98 4.09c0 4.88-0.06 16.45-0.1 24.17C28.51 91.5 28.5 93.68 28.5 95"></path>
<text x="5" y="20" font-size="20" fill="#999999">5</text><path style="fill:none; fill-opacity:0%; fill-rule:evenodd; stroke:#CC0000; stroke-opacity:100%; stroke-width: 3pt; stroke-linejoin:round; stroke-linecap:round;" d="M18.87 71.6c0.13 1.15 0 2.03-0.37 3.26c-1.36 4.48-5.16 12.51-7.25 16.32" marker-end="url(#TriangleRed)" marker-start="url(#ArrowRed)" ></path>






</g><g transform="scale(1.3761467889908 1.3761467889908) translate(0, 109)">
<path style="fill:none; fill-rule:evenodd; stroke:#aaaaaa;  stroke-width:1pt; stroke-linecap:round;" d="m 109 0 L 0 0 L 0 109 L 109 109 L 109 0"></path><path style="fill:none; fill-opacity:0%; fill-rule:evenodd; stroke:#aaaaaa; stroke-opacity:100%; stroke-width: 1.5pt; stroke-linejoin:round; stroke-linecap:round;" d="M27.13 14.17c0.34 1.34 0.5 2.39-0.17 3.8c-2.33 4.9-5.2 10.53-8.55 15.22c-0.78 1.09-0.78 3.04 0.54 3.56c3.37 1.32 5.18 2.25 8.68 4.61"></path>
<path style="fill:none; fill-opacity:0%; fill-rule:evenodd; stroke:#aaaaaa; stroke-opacity:100%; stroke-width: 1.5pt; stroke-linejoin:round; stroke-linecap:round;" d="M38.55 26.43c0.32 1.07 0.2 2.2-0.5 3.34c-5.9 9.68-12.8 17.98-21.48 27.44c-1.78 1.94-0.9 3.73 1.15 3.09c5.4-1.68 13.87-3.99 20.29-5.53"></path>
<path style="fill:none; fill-opacity:0%; fill-rule:evenodd; stroke:#aaaaaa; stroke-opacity:100%; stroke-width: 1.5pt; stroke-linejoin:round; stroke-linecap:round;" d="M35.13 48.13c2.34 2.36 6.04 9.69 6.62 13.35"></path>
<path style="fill:none; fill-opacity:0%; fill-rule:evenodd; stroke:#aaaaaa; stroke-opacity:100%; stroke-width: 1.5pt; stroke-linejoin:round; stroke-linecap:round;" d="M27.64 60.62c0.81 0.81 0.98 2.13 0.98 4.09c0 4.88-0.06 16.45-0.1 24.17C28.51 91.5 28.5 93.68 28.5 95"></path>
<path style="fill:none; fill-opacity:0%; fill-rule:evenodd; stroke:#aaaaaa; stroke-opacity:100%; stroke-width: 1.5pt; stroke-linejoin:round; stroke-linecap:round;" d="M18.87 71.6c0.13 1.15 0 2.03-0.37 3.26c-1.36 4.48-5.16 12.51-7.25 16.32"></path>
<path style="fill:none; fill-opacity:0%; fill-rule:evenodd; stroke:#aaaaaa; stroke-opacity:100%; stroke-width: 1.5pt; stroke-linejoin:round; stroke-linecap:round;" d="M35.38 68.5c3.15 3.3 5.57 10.98 6.3 13.97"></path>
<path style="fill:none; fill-opacity:0%; fill-rule:evenodd; stroke:#aaaaaa; stroke-opacity:100%; stroke-width: 1.5pt; stroke-linejoin:round; stroke-linecap:round;" d="M70.8 13c1.1 1.1 1.26 2.62 1.26 4.14c0 10.93-0.01 40.22-0.01 43.95c0 10.56-6.76 2.21-8.27 1.27"></path>
<path style="fill:none; fill-opacity:0%; fill-rule:evenodd; stroke:#aaaaaa; stroke-opacity:100%; stroke-width: 1.5pt; stroke-linejoin:round; stroke-linecap:round;" d="M59.71 34.17c0.07 1.18-0.05 2.12-0.42 3.25c-1.75 5.31-6.85 14.19-10.87 18.51"></path>
<path style="fill:none; fill-opacity:0%; fill-rule:evenodd; stroke:#aaaaaa; stroke-opacity:100%; stroke-width: 1.5pt; stroke-linejoin:round; stroke-linecap:round;" d="M84.35 33.25c5.17 3.09 11.85 11.28 13.15 16.09"></path>
<path style="fill:none; fill-opacity:0%; fill-rule:evenodd; stroke:#aaaaaa; stroke-opacity:100%; stroke-width: 1.5pt; stroke-linejoin:round; stroke-linecap:round;" d="M87.76 47.08c0.11 1.2-0.09 2.62-0.73 4.29C81.75 65.12 68 84.5 45.88 97.75"></path>

<path style="fill:none; fill-opacity:0%; fill-rule:evenodd; stroke:#000000; stroke-opacity:100%; stroke-width: 3pt; stroke-linejoin:round; stroke-linecap:round;" d="M27.13 14.17c0.34 1.34 0.5 2.39-0.17 3.8c-2.33 4.9-5.2 10.53-8.55 15.22c-0.78 1.09-0.78 3.04 0.54 3.56c3.37 1.32 5.18 2.25 8.68 4.61"></path>
<path style="fill:none; fill-opacity:0%; fill-rule:evenodd; stroke:#000000; stroke-opacity:100%; stroke-width: 3pt; stroke-linejoin:round; stroke-linecap:round;" d="M38.55 26.43c0.32 1.07 0.2 2.2-0.5 3.34c-5.9 9.68-12.8 17.98-21.48 27.44c-1.78 1.94-0.9 3.73 1.15 3.09c5.4-1.68 13.87-3.99 20.29-5.53"></path>
<path style="fill:none; fill-opacity:0%; fill-rule:evenodd; stroke:#000000; stroke-opacity:100%; stroke-width: 3pt; stroke-linejoin:round; stroke-linecap:round;" d="M35.13 48.13c2.34 2.36 6.04 9.69 6.62 13.35"></path>
<path style="fill:none; fill-opacity:0%; fill-rule:evenodd; stroke:#000000; stroke-opacity:100%; stroke-width: 3pt; stroke-linejoin:round; stroke-linecap:round;" d="M27.64 60.62c0.81 0.81 0.98 2.13 0.98 4.09c0 4.88-0.06 16.45-0.1 24.17C28.51 91.5 28.5 93.68 28.5 95"></path>
<path style="fill:none; fill-opacity:0%; fill-rule:evenodd; stroke:#000000; stroke-opacity:100%; stroke-width: 3pt; stroke-linejoin:round; stroke-linecap:round;" d="M18.87 71.6c0.13 1.15 0 2.03-0.37 3.26c-1.36 4.48-5.16 12.51-7.25 16.32"></path>
<text x="5" y="20" font-size="20" fill="#999999">6</text><path style="fill:none; fill-opacity:0%; fill-rule:evenodd; stroke:#CC0000; stroke-opacity:100%; stroke-width: 3pt; stroke-linejoin:round; stroke-linecap:round;" d="M35.38 68.5c3.15 3.3 5.57 10.98 6.3 13.97" marker-end="url(#TriangleRed)" marker-start="url(#ArrowRed)" ></path>





</g><g transform="scale(1.3761467889908 1.3761467889908) translate(109, 109)">
<path style="fill:none; fill-rule:evenodd; stroke:#aaaaaa;  stroke-width:1pt; stroke-linecap:round;" d="m 109 0 L 0 0 L 0 109 L 109 109 L 109 0"></path><path style="fill:none; fill-opacity:0%; fill-rule:evenodd; stroke:#aaaaaa; stroke-opacity:100%; stroke-width: 1.5pt; stroke-linejoin:round; stroke-linecap:round;" d="M27.13 14.17c0.34 1.34 0.5 2.39-0.17 3.8c-2.33 4.9-5.2 10.53-8.55 15.22c-0.78 1.09-0.78 3.04 0.54 3.56c3.37 1.32 5.18 2.25 8.68 4.61"></path>
<path style="fill:none; fill-opacity:0%; fill-rule:evenodd; stroke:#aaaaaa; stroke-opacity:100%; stroke-width: 1.5pt; stroke-linejoin:round; stroke-linecap:round;" d="M38.55 26.43c0.32 1.07 0.2 2.2-0.5 3.34c-5.9 9.68-12.8 17.98-21.48 27.44c-1.78 1.94-0.9 3.73 1.15 3.09c5.4-1.68 13.87-3.99 20.29-5.53"></path>
<path style="fill:none; fill-opacity:0%; fill-rule:evenodd; stroke:#aaaaaa; stroke-opacity:100%; stroke-width: 1.5pt; stroke-linejoin:round; stroke-linecap:round;" d="M35.13 48.13c2.34 2.36 6.04 9.69 6.62 13.35"></path>
<path style="fill:none; fill-opacity:0%; fill-rule:evenodd; stroke:#aaaaaa; stroke-opacity:100%; stroke-width: 1.5pt; stroke-linejoin:round; stroke-linecap:round;" d="M27.64 60.62c0.81 0.81 0.98 2.13 0.98 4.09c0 4.88-0.06 16.45-0.1 24.17C28.51 91.5 28.5 93.68 28.5 95"></path>
<path style="fill:none; fill-opacity:0%; fill-rule:evenodd; stroke:#aaaaaa; stroke-opacity:100%; stroke-width: 1.5pt; stroke-linejoin:round; stroke-linecap:round;" d="M18.87 71.6c0.13 1.15 0 2.03-0.37 3.26c-1.36 4.48-5.16 12.51-7.25 16.32"></path>
<path style="fill:none; fill-opacity:0%; fill-rule:evenodd; stroke:#aaaaaa; stroke-opacity:100%; stroke-width: 1.5pt; stroke-linejoin:round; stroke-linecap:round;" d="M35.38 68.5c3.15 3.3 5.57 10.98 6.3 13.97"></path>
<path style="fill:none; fill-opacity:0%; fill-rule:evenodd; stroke:#aaaaaa; stroke-opacity:100%; stroke-width: 1.5pt; stroke-linejoin:round; stroke-linecap:round;" d="M70.8 13c1.1 1.1 1.26 2.62 1.26 4.14c0 10.93-0.01 40.22-0.01 43.95c0 10.56-6.76 2.21-8.27 1.27"></path>
<path style="fill:none; fill-opacity:0%; fill-rule:evenodd; stroke:#aaaaaa; stroke-opacity:100%; stroke-width: 1.5pt; stroke-linejoin:round; stroke-linecap:round;" d="M59.71 34.17c0.07 1.18-0.05 2.12-0.42 3.25c-1.75 5.31-6.85 14.19-10.87 18.51"></path>
<path style="fill:none; fill-opacity:0%; fill-rule:evenodd; stroke:#aaaaaa; stroke-opacity:100%; stroke-width: 1.5pt; stroke-linejoin:round; stroke-linecap:round;" d="M84.35 33.25c5.17 3.09 11.85 11.28 13.15 16.09"></path>
<path style="fill:none; fill-opacity:0%; fill-rule:evenodd; stroke:#aaaaaa; stroke-opacity:100%; stroke-width: 1.5pt; stroke-linejoin:round; stroke-linecap:round;" d="M87.76 47.08c0.11 1.2-0.09 2.62-0.73 4.29C81.75 65.12 68 84.5 45.88 97.75"></path>

<path style="fill:none; fill-opacity:0%; fill-rule:evenodd; stroke:#000000; stroke-opacity:100%; stroke-width: 3pt; stroke-linejoin:round; stroke-linecap:round;" d="M27.13 14.17c0.34 1.34 0.5 2.39-0.17 3.8c-2.33 4.9-5.2 10.53-8.55 15.22c-0.78 1.09-0.78 3.04 0.54 3.56c3.37 1.32 5.18 2.25 8.68 4.61"></path>
<path style="fill:none; fill-opacity:0%; fill-rule:evenodd; stroke:#000000; stroke-opacity:100%; stroke-width: 3pt; stroke-linejoin:round; stroke-linecap:round;" d="M38.55 26.43c0.32 1.07 0.2 2.2-0.5 3.34c-5.9 9.68-12.8 17.98-21.48 27.44c-1.78 1.94-0.9 3.73 1.15 3.09c5.4-1.68 13.87-3.99 20.29-5.53"></path>
<path style="fill:none; fill-opacity:0%; fill-rule:evenodd; stroke:#000000; stroke-opacity:100%; stroke-width: 3pt; stroke-linejoin:round; stroke-linecap:round;" d="M35.13 48.13c2.34 2.36 6.04 9.69 6.62 13.35"></path>
<path style="fill:none; fill-opacity:0%; fill-rule:evenodd; stroke:#000000; stroke-opacity:100%; stroke-width: 3pt; stroke-linejoin:round; stroke-linecap:round;" d="M27.64 60.62c0.81 0.81 0.98 2.13 0.98 4.09c0 4.88-0.06 16.45-0.1 24.17C28.51 91.5 28.5 93.68 28.5 95"></path>
<path style="fill:none; fill-opacity:0%; fill-rule:evenodd; stroke:#000000; stroke-opacity:100%; stroke-width: 3pt; stroke-linejoin:round; stroke-linecap:round;" d="M18.87 71.6c0.13 1.15 0 2.03-0.37 3.26c-1.36 4.48-5.16 12.51-7.25 16.32"></path>
<path style="fill:none; fill-opacity:0%; fill-rule:evenodd; stroke:#000000; stroke-opacity:100%; stroke-width: 3pt; stroke-linejoin:round; stroke-linecap:round;" d="M35.38 68.5c3.15 3.3 5.57 10.98 6.3 13.97"></path>
<text x="5" y="20" font-size="20" fill="#999999">7</text><path style="fill:none; fill-opacity:0%; fill-rule:evenodd; stroke:#CC0000; stroke-opacity:100%; stroke-width: 3pt; stroke-linejoin:round; stroke-linecap:round;" d="M70.8 13c1.1 1.1 1.26 2.62 1.26 4.14c0 10.93-0.01 40.22-0.01 43.95c0 10.56-6.76 2.21-8.27 1.27" marker-end="url(#TriangleRed)" marker-start="url(#ArrowRed)" ></path>




</g><g transform="scale(1.3761467889908 1.3761467889908) translate(218, 109)">
<path style="fill:none; fill-rule:evenodd; stroke:#aaaaaa;  stroke-width:1pt; stroke-linecap:round;" d="m 109 0 L 0 0 L 0 109 L 109 109 L 109 0"></path><path style="fill:none; fill-opacity:0%; fill-rule:evenodd; stroke:#aaaaaa; stroke-opacity:100%; stroke-width: 1.5pt; stroke-linejoin:round; stroke-linecap:round;" d="M27.13 14.17c0.34 1.34 0.5 2.39-0.17 3.8c-2.33 4.9-5.2 10.53-8.55 15.22c-0.78 1.09-0.78 3.04 0.54 3.56c3.37 1.32 5.18 2.25 8.68 4.61"></path>
<path style="fill:none; fill-opacity:0%; fill-rule:evenodd; stroke:#aaaaaa; stroke-opacity:100%; stroke-width: 1.5pt; stroke-linejoin:round; stroke-linecap:round;" d="M38.55 26.43c0.32 1.07 0.2 2.2-0.5 3.34c-5.9 9.68-12.8 17.98-21.48 27.44c-1.78 1.94-0.9 3.73 1.15 3.09c5.4-1.68 13.87-3.99 20.29-5.53"></path>
<path style="fill:none; fill-opacity:0%; fill-rule:evenodd; stroke:#aaaaaa; stroke-opacity:100%; stroke-width: 1.5pt; stroke-linejoin:round; stroke-linecap:round;" d="M35.13 48.13c2.34 2.36 6.04 9.69 6.62 13.35"></path>
<path style="fill:none; fill-opacity:0%; fill-rule:evenodd; stroke:#aaaaaa; stroke-opacity:100%; stroke-width: 1.5pt; stroke-linejoin:round; stroke-linecap:round;" d="M27.64 60.62c0.81 0.81 0.98 2.13 0.98 4.09c0 4.88-0.06 16.45-0.1 24.17C28.51 91.5 28.5 93.68 28.5 95"></path>
<path style="fill:none; fill-opacity:0%; fill-rule:evenodd; stroke:#aaaaaa; stroke-opacity:100%; stroke-width: 1.5pt; stroke-linejoin:round; stroke-linecap:round;" d="M18.87 71.6c0.13 1.15 0 2.03-0.37 3.26c-1.36 4.48-5.16 12.51-7.25 16.32"></path>
<path style="fill:none; fill-opacity:0%; fill-rule:evenodd; stroke:#aaaaaa; stroke-opacity:100%; stroke-width: 1.5pt; stroke-linejoin:round; stroke-linecap:round;" d="M35.38 68.5c3.15 3.3 5.57 10.98 6.3 13.97"></path>
<path style="fill:none; fill-opacity:0%; fill-rule:evenodd; stroke:#aaaaaa; stroke-opacity:100%; stroke-width: 1.5pt; stroke-linejoin:round; stroke-linecap:round;" d="M70.8 13c1.1 1.1 1.26 2.62 1.26 4.14c0 10.93-0.01 40.22-0.01 43.95c0 10.56-6.76 2.21-8.27 1.27"></path>
<path style="fill:none; fill-opacity:0%; fill-rule:evenodd; stroke:#aaaaaa; stroke-opacity:100%; stroke-width: 1.5pt; stroke-linejoin:round; stroke-linecap:round;" d="M59.71 34.17c0.07 1.18-0.05 2.12-0.42 3.25c-1.75 5.31-6.85 14.19-10.87 18.51"></path>
<path style="fill:none; fill-opacity:0%; fill-rule:evenodd; stroke:#aaaaaa; stroke-opacity:100%; stroke-width: 1.5pt; stroke-linejoin:round; stroke-linecap:round;" d="M84.35 33.25c5.17 3.09 11.85 11.28 13.15 16.09"></path>
<path style="fill:none; fill-opacity:0%; fill-rule:evenodd; stroke:#aaaaaa; stroke-opacity:100%; stroke-width: 1.5pt; stroke-linejoin:round; stroke-linecap:round;" d="M87.76 47.08c0.11 1.2-0.09 2.62-0.73 4.29C81.75 65.12 68 84.5 45.88 97.75"></path>

<path style="fill:none; fill-opacity:0%; fill-rule:evenodd; stroke:#000000; stroke-opacity:100%; stroke-width: 3pt; stroke-linejoin:round; stroke-linecap:round;" d="M27.13 14.17c0.34 1.34 0.5 2.39-0.17 3.8c-2.33 4.9-5.2 10.53-8.55 15.22c-0.78 1.09-0.78 3.04 0.54 3.56c3.37 1.32 5.18 2.25 8.68 4.61"></path>
<path style="fill:none; fill-opacity:0%; fill-rule:evenodd; stroke:#000000; stroke-opacity:100%; stroke-width: 3pt; stroke-linejoin:round; stroke-linecap:round;" d="M38.55 26.43c0.32 1.07 0.2 2.2-0.5 3.34c-5.9 9.68-12.8 17.98-21.48 27.44c-1.78 1.94-0.9 3.73 1.15 3.09c5.4-1.68 13.87-3.99 20.29-5.53"></path>
<path style="fill:none; fill-opacity:0%; fill-rule:evenodd; stroke:#000000; stroke-opacity:100%; stroke-width: 3pt; stroke-linejoin:round; stroke-linecap:round;" d="M35.13 48.13c2.34 2.36 6.04 9.69 6.62 13.35"></path>
<path style="fill:none; fill-opacity:0%; fill-rule:evenodd; stroke:#000000; stroke-opacity:100%; stroke-width: 3pt; stroke-linejoin:round; stroke-linecap:round;" d="M27.64 60.62c0.81 0.81 0.98 2.13 0.98 4.09c0 4.88-0.06 16.45-0.1 24.17C28.51 91.5 28.5 93.68 28.5 95"></path>
<path style="fill:none; fill-opacity:0%; fill-rule:evenodd; stroke:#000000; stroke-opacity:100%; stroke-width: 3pt; stroke-linejoin:round; stroke-linecap:round;" d="M18.87 71.6c0.13 1.15 0 2.03-0.37 3.26c-1.36 4.48-5.16 12.51-7.25 16.32"></path>
<path style="fill:none; fill-opacity:0%; fill-rule:evenodd; stroke:#000000; stroke-opacity:100%; stroke-width: 3pt; stroke-linejoin:round; stroke-linecap:round;" d="M35.38 68.5c3.15 3.3 5.57 10.98 6.3 13.97"></path>
<path style="fill:none; fill-opacity:0%; fill-rule:evenodd; stroke:#000000; stroke-opacity:100%; stroke-width: 3pt; stroke-linejoin:round; stroke-linecap:round;" d="M70.8 13c1.1 1.1 1.26 2.62 1.26 4.14c0 10.93-0.01 40.22-0.01 43.95c0 10.56-6.76 2.21-8.27 1.27"></path>
<text x="5" y="20" font-size="20" fill="#999999">8</text><path style="fill:none; fill-opacity:0%; fill-rule:evenodd; stroke:#CC0000; stroke-opacity:100%; stroke-width: 3pt; stroke-linejoin:round; stroke-linecap:round;" d="M59.71 34.17c0.07 1.18-0.05 2.12-0.42 3.25c-1.75 5.31-6.85 14.19-10.87 18.51" marker-end="url(#TriangleRed)" marker-start="url(#ArrowRed)" ></path>



</g><g transform="scale(1.3761467889908 1.3761467889908) translate(327, 109)">
<path style="fill:none; fill-rule:evenodd; stroke:#aaaaaa;  stroke-width:1pt; stroke-linecap:round;" d="m 109 0 L 0 0 L 0 109 L 109 109 L 109 0"></path><path style="fill:none; fill-opacity:0%; fill-rule:evenodd; stroke:#aaaaaa; stroke-opacity:100%; stroke-width: 1.5pt; stroke-linejoin:round; stroke-linecap:round;" d="M27.13 14.17c0.34 1.34 0.5 2.39-0.17 3.8c-2.33 4.9-5.2 10.53-8.55 15.22c-0.78 1.09-0.78 3.04 0.54 3.56c3.37 1.32 5.18 2.25 8.68 4.61"></path>
<path style="fill:none; fill-opacity:0%; fill-rule:evenodd; stroke:#aaaaaa; stroke-opacity:100%; stroke-width: 1.5pt; stroke-linejoin:round; stroke-linecap:round;" d="M38.55 26.43c0.32 1.07 0.2 2.2-0.5 3.34c-5.9 9.68-12.8 17.98-21.48 27.44c-1.78 1.94-0.9 3.73 1.15 3.09c5.4-1.68 13.87-3.99 20.29-5.53"></path>
<path style="fill:none; fill-opacity:0%; fill-rule:evenodd; stroke:#aaaaaa; stroke-opacity:100%; stroke-width: 1.5pt; stroke-linejoin:round; stroke-linecap:round;" d="M35.13 48.13c2.34 2.36 6.04 9.69 6.62 13.35"></path>
<path style="fill:none; fill-opacity:0%; fill-rule:evenodd; stroke:#aaaaaa; stroke-opacity:100%; stroke-width: 1.5pt; stroke-linejoin:round; stroke-linecap:round;" d="M27.64 60.62c0.81 0.81 0.98 2.13 0.98 4.09c0 4.88-0.06 16.45-0.1 24.17C28.51 91.5 28.5 93.68 28.5 95"></path>
<path style="fill:none; fill-opacity:0%; fill-rule:evenodd; stroke:#aaaaaa; stroke-opacity:100%; stroke-width: 1.5pt; stroke-linejoin:round; stroke-linecap:round;" d="M18.87 71.6c0.13 1.15 0 2.03-0.37 3.26c-1.36 4.48-5.16 12.51-7.25 16.32"></path>
<path style="fill:none; fill-opacity:0%; fill-rule:evenodd; stroke:#aaaaaa; stroke-opacity:100%; stroke-width: 1.5pt; stroke-linejoin:round; stroke-linecap:round;" d="M35.38 68.5c3.15 3.3 5.57 10.98 6.3 13.97"></path>
<path style="fill:none; fill-opacity:0%; fill-rule:evenodd; stroke:#aaaaaa; stroke-opacity:100%; stroke-width: 1.5pt; stroke-linejoin:round; stroke-linecap:round;" d="M70.8 13c1.1 1.1 1.26 2.62 1.26 4.14c0 10.93-0.01 40.22-0.01 43.95c0 10.56-6.76 2.21-8.27 1.27"></path>
<path style="fill:none; fill-opacity:0%; fill-rule:evenodd; stroke:#aaaaaa; stroke-opacity:100%; stroke-width: 1.5pt; stroke-linejoin:round; stroke-linecap:round;" d="M59.71 34.17c0.07 1.18-0.05 2.12-0.42 3.25c-1.75 5.31-6.85 14.19-10.87 18.51"></path>
<path style="fill:none; fill-opacity:0%; fill-rule:evenodd; stroke:#aaaaaa; stroke-opacity:100%; stroke-width: 1.5pt; stroke-linejoin:round; stroke-linecap:round;" d="M84.35 33.25c5.17 3.09 11.85 11.28 13.15 16.09"></path>
<path style="fill:none; fill-opacity:0%; fill-rule:evenodd; stroke:#aaaaaa; stroke-opacity:100%; stroke-width: 1.5pt; stroke-linejoin:round; stroke-linecap:round;" d="M87.76 47.08c0.11 1.2-0.09 2.62-0.73 4.29C81.75 65.12 68 84.5 45.88 97.75"></path>

<path style="fill:none; fill-opacity:0%; fill-rule:evenodd; stroke:#000000; stroke-opacity:100%; stroke-width: 3pt; stroke-linejoin:round; stroke-linecap:round;" d="M27.13 14.17c0.34 1.34 0.5 2.39-0.17 3.8c-2.33 4.9-5.2 10.53-8.55 15.22c-0.78 1.09-0.78 3.04 0.54 3.56c3.37 1.32 5.18 2.25 8.68 4.61"></path>
<path style="fill:none; fill-opacity:0%; fill-rule:evenodd; stroke:#000000; stroke-opacity:100%; stroke-width: 3pt; stroke-linejoin:round; stroke-linecap:round;" d="M38.55 26.43c0.32 1.07 0.2 2.2-0.5 3.34c-5.9 9.68-12.8 17.98-21.48 27.44c-1.78 1.94-0.9 3.73 1.15 3.09c5.4-1.68 13.87-3.99 20.29-5.53"></path>
<path style="fill:none; fill-opacity:0%; fill-rule:evenodd; stroke:#000000; stroke-opacity:100%; stroke-width: 3pt; stroke-linejoin:round; stroke-linecap:round;" d="M35.13 48.13c2.34 2.36 6.04 9.69 6.62 13.35"></path>
<path style="fill:none; fill-opacity:0%; fill-rule:evenodd; stroke:#000000; stroke-opacity:100%; stroke-width: 3pt; stroke-linejoin:round; stroke-linecap:round;" d="M27.64 60.62c0.81 0.81 0.98 2.13 0.98 4.09c0 4.88-0.06 16.45-0.1 24.17C28.51 91.5 28.5 93.68 28.5 95"></path>
<path style="fill:none; fill-opacity:0%; fill-rule:evenodd; stroke:#000000; stroke-opacity:100%; stroke-width: 3pt; stroke-linejoin:round; stroke-linecap:round;" d="M18.87 71.6c0.13 1.15 0 2.03-0.37 3.26c-1.36 4.48-5.16 12.51-7.25 16.32"></path>
<path style="fill:none; fill-opacity:0%; fill-rule:evenodd; stroke:#000000; stroke-opacity:100%; stroke-width: 3pt; stroke-linejoin:round; stroke-linecap:round;" d="M35.38 68.5c3.15 3.3 5.57 10.98 6.3 13.97"></path>
<path style="fill:none; fill-opacity:0%; fill-rule:evenodd; stroke:#000000; stroke-opacity:100%; stroke-width: 3pt; stroke-linejoin:round; stroke-linecap:round;" d="M70.8 13c1.1 1.1 1.26 2.62 1.26 4.14c0 10.93-0.01 40.22-0.01 43.95c0 10.56-6.76 2.21-8.27 1.27"></path>
<path style="fill:none; fill-opacity:0%; fill-rule:evenodd; stroke:#000000; stroke-opacity:100%; stroke-width: 3pt; stroke-linejoin:round; stroke-linecap:round;" d="M59.71 34.17c0.07 1.18-0.05 2.12-0.42 3.25c-1.75 5.31-6.85 14.19-10.87 18.51"></path>
<text x="5" y="20" font-size="20" fill="#999999">9</text><path style="fill:none; fill-opacity:0%; fill-rule:evenodd; stroke:#CC0000; stroke-opacity:100%; stroke-width: 3pt; stroke-linejoin:round; stroke-linecap:round;" d="M84.35 33.25c5.17 3.09 11.85 11.28 13.15 16.09" marker-end="url(#TriangleRed)" marker-start="url(#ArrowRed)" ></path>


</g><g transform="scale(1.3761467889908 1.3761467889908) translate(436, 109)">
<path style="fill:none; fill-rule:evenodd; stroke:#aaaaaa;  stroke-width:1pt; stroke-linecap:round;" d="m 109 0 L 0 0 L 0 109 L 109 109 L 109 0"></path><path style="fill:none; fill-opacity:0%; fill-rule:evenodd; stroke:#aaaaaa; stroke-opacity:100%; stroke-width: 1.5pt; stroke-linejoin:round; stroke-linecap:round;" d="M27.13 14.17c0.34 1.34 0.5 2.39-0.17 3.8c-2.33 4.9-5.2 10.53-8.55 15.22c-0.78 1.09-0.78 3.04 0.54 3.56c3.37 1.32 5.18 2.25 8.68 4.61"></path>
<path style="fill:none; fill-opacity:0%; fill-rule:evenodd; stroke:#aaaaaa; stroke-opacity:100%; stroke-width: 1.5pt; stroke-linejoin:round; stroke-linecap:round;" d="M38.55 26.43c0.32 1.07 0.2 2.2-0.5 3.34c-5.9 9.68-12.8 17.98-21.48 27.44c-1.78 1.94-0.9 3.73 1.15 3.09c5.4-1.68 13.87-3.99 20.29-5.53"></path>
<path style="fill:none; fill-opacity:0%; fill-rule:evenodd; stroke:#aaaaaa; stroke-opacity:100%; stroke-width: 1.5pt; stroke-linejoin:round; stroke-linecap:round;" d="M35.13 48.13c2.34 2.36 6.04 9.69 6.62 13.35"></path>
<path style="fill:none; fill-opacity:0%; fill-rule:evenodd; stroke:#aaaaaa; stroke-opacity:100%; stroke-width: 1.5pt; stroke-linejoin:round; stroke-linecap:round;" d="M27.64 60.62c0.81 0.81 0.98 2.13 0.98 4.09c0 4.88-0.06 16.45-0.1 24.17C28.51 91.5 28.5 93.68 28.5 95"></path>
<path style="fill:none; fill-opacity:0%; fill-rule:evenodd; stroke:#aaaaaa; stroke-opacity:100%; stroke-width: 1.5pt; stroke-linejoin:round; stroke-linecap:round;" d="M18.87 71.6c0.13 1.15 0 2.03-0.37 3.26c-1.36 4.48-5.16 12.51-7.25 16.32"></path>
<path style="fill:none; fill-opacity:0%; fill-rule:evenodd; stroke:#aaaaaa; stroke-opacity:100%; stroke-width: 1.5pt; stroke-linejoin:round; stroke-linecap:round;" d="M35.38 68.5c3.15 3.3 5.57 10.98 6.3 13.97"></path>
<path style="fill:none; fill-opacity:0%; fill-rule:evenodd; stroke:#aaaaaa; stroke-opacity:100%; stroke-width: 1.5pt; stroke-linejoin:round; stroke-linecap:round;" d="M70.8 13c1.1 1.1 1.26 2.62 1.26 4.14c0 10.93-0.01 40.22-0.01 43.95c0 10.56-6.76 2.21-8.27 1.27"></path>
<path style="fill:none; fill-opacity:0%; fill-rule:evenodd; stroke:#aaaaaa; stroke-opacity:100%; stroke-width: 1.5pt; stroke-linejoin:round; stroke-linecap:round;" d="M59.71 34.17c0.07 1.18-0.05 2.12-0.42 3.25c-1.75 5.31-6.85 14.19-10.87 18.51"></path>
<path style="fill:none; fill-opacity:0%; fill-rule:evenodd; stroke:#aaaaaa; stroke-opacity:100%; stroke-width: 1.5pt; stroke-linejoin:round; stroke-linecap:round;" d="M84.35 33.25c5.17 3.09 11.85 11.28 13.15 16.09"></path>
<path style="fill:none; fill-opacity:0%; fill-rule:evenodd; stroke:#aaaaaa; stroke-opacity:100%; stroke-width: 1.5pt; stroke-linejoin:round; stroke-linecap:round;" d="M87.76 47.08c0.11 1.2-0.09 2.62-0.73 4.29C81.75 65.12 68 84.5 45.88 97.75"></path>

<path style="fill:none; fill-opacity:0%; fill-rule:evenodd; stroke:#000000; stroke-opacity:100%; stroke-width: 3pt; stroke-linejoin:round; stroke-linecap:round;" d="M27.13 14.17c0.34 1.34 0.5 2.39-0.17 3.8c-2.33 4.9-5.2 10.53-8.55 15.22c-0.78 1.09-0.78 3.04 0.54 3.56c3.37 1.32 5.18 2.25 8.68 4.61"></path>
<path style="fill:none; fill-opacity:0%; fill-rule:evenodd; stroke:#000000; stroke-opacity:100%; stroke-width: 3pt; stroke-linejoin:round; stroke-linecap:round;" d="M38.55 26.43c0.32 1.07 0.2 2.2-0.5 3.34c-5.9 9.68-12.8 17.98-21.48 27.44c-1.78 1.94-0.9 3.73 1.15 3.09c5.4-1.68 13.87-3.99 20.29-5.53"></path>
<path style="fill:none; fill-opacity:0%; fill-rule:evenodd; stroke:#000000; stroke-opacity:100%; stroke-width: 3pt; stroke-linejoin:round; stroke-linecap:round;" d="M35.13 48.13c2.34 2.36 6.04 9.69 6.62 13.35"></path>
<path style="fill:none; fill-opacity:0%; fill-rule:evenodd; stroke:#000000; stroke-opacity:100%; stroke-width: 3pt; stroke-linejoin:round; stroke-linecap:round;" d="M27.64 60.62c0.81 0.81 0.98 2.13 0.98 4.09c0 4.88-0.06 16.45-0.1 24.17C28.51 91.5 28.5 93.68 28.5 95"></path>
<path style="fill:none; fill-opacity:0%; fill-rule:evenodd; stroke:#000000; stroke-opacity:100%; stroke-width: 3pt; stroke-linejoin:round; stroke-linecap:round;" d="M18.87 71.6c0.13 1.15 0 2.03-0.37 3.26c-1.36 4.48-5.16 12.51-7.25 16.32"></path>
<path style="fill:none; fill-opacity:0%; fill-rule:evenodd; stroke:#000000; stroke-opacity:100%; stroke-width: 3pt; stroke-linejoin:round; stroke-linecap:round;" d="M35.38 68.5c3.15 3.3 5.57 10.98 6.3 13.97"></path>
<path style="fill:none; fill-opacity:0%; fill-rule:evenodd; stroke:#000000; stroke-opacity:100%; stroke-width: 3pt; stroke-linejoin:round; stroke-linecap:round;" d="M70.8 13c1.1 1.1 1.26 2.62 1.26 4.14c0 10.93-0.01 40.22-0.01 43.95c0 10.56-6.76 2.21-8.27 1.27"></path>
<path style="fill:none; fill-opacity:0%; fill-rule:evenodd; stroke:#000000; stroke-opacity:100%; stroke-width: 3pt; stroke-linejoin:round; stroke-linecap:round;" d="M59.71 34.17c0.07 1.18-0.05 2.12-0.42 3.25c-1.75 5.31-6.85 14.19-10.87 18.51"></path>
<path style="fill:none; fill-opacity:0%; fill-rule:evenodd; stroke:#000000; stroke-opacity:100%; stroke-width: 3pt; stroke-linejoin:round; stroke-linecap:round;" d="M84.35 33.25c5.17 3.09 11.85 11.28 13.15 16.09"></path>
<text x="5" y="20" font-size="20" fill="#999999">10</text><path style="fill:none; fill-opacity:0%; fill-rule:evenodd; stroke:#CC0000; stroke-opacity:100%; stroke-width: 3pt; stroke-linejoin:round; stroke-linecap:round;" d="M87.76 47.08c0.11 1.2-0.09 2.62-0.73 4.29C81.75 65.12 68 84.5 45.88 97.75" marker-end="url(#TriangleRed)" marker-start="url(#ArrowRed)" ></path>

</g>

</svg>  
          
