<?xml version="1.0" standalone="no"?>
<!DOCTYPE svg PUBLIC "-//W3C//DTD SVG 1.1//EN"   "http://www.w3.org/Graphics/SVG/1.1/DTD/svg11.dtd">
<svg width="751" height="301"  version="1.1" xmlns="http://www.w3.org/2000/svg">
  <defs>
    <marker id="Triangle" viewBox="0 0 10 10" refX="0" refY="5" markerUnits="strokeWidth" markerWidth="3" style="stroke-opacity:0%;fill:#aaaaaa;" markerHeight="2" orient="auto">
      <path d="M 0 0 L 10 5 L 0 10 z" />
    </marker>
    
    <marker id="Arrow" viewBox="0 0 10 10" refX="5" refY="5" markerUnits="strokeWidth" markerWidth="1.8" style="stroke-opacity:0%;fill:#770000;" markerHeight="2" orient="auto">
      <path d="M 0 4 L 6 4 L 4 1 L 10 5 L 4 9 L 6 6 L 0 6 z" />
        <circle cx="5" cy="5" r="5" />
      </marker>
    
    <marker id="TriangleRed" viewBox="0 0 10 10" refX="0" refY="5" markerUnits="strokeWidth" markerWidth="3" style="stroke-opacity:0%;fill:#CC0000;" markerHeight="2" orient="auto">
      <path d="M 0 0 L 10 5 L 0 10 z" />
    </marker>
    
    <marker id="ArrowRed" viewBox="0 0 10 10" refX="5" refY="5" markerUnits="strokeWidth" markerWidth="1.8" style="stroke-opacity:0%;fill:#CC0000;" markerHeight="2" orient="auto">
      <path d="M 0 4 L 6 4 L 4 1 L 10 5 L 4 9 L 6 6 L 0 6 z" />
        <circle cx="5" cy="5" r="5" />
      </marker>
    
  </defs>
  
  <path style="fill:#ffffff; fill-opacity:100%; fill-rule:evenodd; stroke-width:0;" d="M 0 0 L 751 0 L 751 301 L 0 301 L 0 0" />

  <g transform="scale(1.3761467889908 1.3761467889908) translate(0, 0)">
<path style="fill:none; fill-rule:evenodd; stroke:#aaaaaa;  stroke-width:1pt; stroke-linecap:round;" d="m 109 0 L 0 0 L 0 109 L 109 109 L 109 0"></path><path style="fill:none; fill-opacity:0%; fill-rule:evenodd; stroke:#aaaaaa; stroke-opacity:100%; stroke-width: 1.5pt; stroke-linejoin:round; stroke-linecap:round;" d="M20.75 23.27c4.15 0.67 8.28 0.39 12.48 0.01c11.66-1.05 28.77-2.53 41.63-3.26c4.25-0.24 8.44-0.44 12.63 0.2"></path>
<path style="fill:none; fill-opacity:0%; fill-rule:evenodd; stroke:#aaaaaa; stroke-opacity:100%; stroke-width: 1.5pt; stroke-linejoin:round; stroke-linecap:round;" d="M51.53 25.39c0.07 0.86-0.07 1.77-0.48 2.52c-2.68 4.96-3.93 7.09-8.18 13.21"></path>
<path style="fill:none; fill-opacity:0%; fill-rule:evenodd; stroke:#aaaaaa; stroke-opacity:100%; stroke-width: 1.5pt; stroke-linejoin:round; stroke-linecap:round;" d="M17 43.25c1.12 1.12 1.35 2.24 1.5 4.5c0.37 5.49 1.58 20.95 2.22 31.88c0.23 4.01 0.43 7.38 0.53 9.37"></path>
<path style="fill:none; fill-opacity:0%; fill-rule:evenodd; stroke:#aaaaaa; stroke-opacity:100%; stroke-width: 1.5pt; stroke-linejoin:round; stroke-linecap:round;" d="M19.25 46c3 0.48 5.99 0.69 8.98 0.3c20.79-2.74 33.92-4.59 55.03-6.89c4.68-0.51 8.08 0.63 7.97 5.83c-0.17 7.49-0.85 30.13-1.48 40.51c-0.96 16.02-6 4.75-9 1.5"></path>
<path style="fill:none; fill-opacity:0%; fill-rule:evenodd; stroke:#aaaaaa; stroke-opacity:100%; stroke-width: 1.5pt; stroke-linejoin:round; stroke-linecap:round;" d="M40.77 47.83c0.98 0.92 1.17 2.29 1.26 3.77c0.85 14.27 0.96 18.93 1.19 26.02c0.09 2.85 0.18 5.72 0.29 8.88"></path>
<path style="fill:none; fill-opacity:0%; fill-rule:evenodd; stroke:#aaaaaa; stroke-opacity:100%; stroke-width: 1.5pt; stroke-linejoin:round; stroke-linecap:round;" d="M65.25 44c0.98 0.92 1.34 2.25 1.27 3.85c-0.5 11.37-0.99 21.43-1.4 29.02c-0.23 4.19-0.44 7.63-0.62 10.12"></path>

<text x="5" y="20" font-size="20" fill="#999999">1</text><path style="fill:none; fill-opacity:0%; fill-rule:evenodd; stroke:#CC0000; stroke-opacity:100%; stroke-width: 3pt; stroke-linejoin:round; stroke-linecap:round;" d="M20.75 23.27c4.15 0.67 8.28 0.39 12.48 0.01c11.66-1.05 28.77-2.53 41.63-3.26c4.25-0.24 8.44-0.44 12.63 0.2" marker-end="url(#TriangleRed)" marker-start="url(#ArrowRed)" ></path>






</g><g transform="scale(1.3761467889908 1.3761467889908) translate(109, 0)">
<path style="fill:none; fill-rule:evenodd; stroke:#aaaaaa;  stroke-width:1pt; stroke-linecap:round;" d="m 109 0 L 0 0 L 0 109 L 109 109 L 109 0"></path><path style="fill:none; fill-opacity:0%; fill-rule:evenodd; stroke:#aaaaaa; stroke-opacity:100%; stroke-width: 1.5pt; stroke-linejoin:round; stroke-linecap:round;" d="M20.75 23.27c4.15 0.67 8.28 0.39 12.48 0.01c11.66-1.05 28.77-2.53 41.63-3.26c4.25-0.24 8.44-0.44 12.63 0.2"></path>
<path style="fill:none; fill-opacity:0%; fill-rule:evenodd; stroke:#aaaaaa; stroke-opacity:100%; stroke-width: 1.5pt; stroke-linejoin:round; stroke-linecap:round;" d="M51.53 25.39c0.07 0.86-0.07 1.77-0.48 2.52c-2.68 4.96-3.93 7.09-8.18 13.21"></path>
<path style="fill:none; fill-opacity:0%; fill-rule:evenodd; stroke:#aaaaaa; stroke-opacity:100%; stroke-width: 1.5pt; stroke-linejoin:round; stroke-linecap:round;" d="M17 43.25c1.12 1.12 1.35 2.24 1.5 4.5c0.37 5.49 1.58 20.95 2.22 31.88c0.23 4.01 0.43 7.38 0.53 9.37"></path>
<path style="fill:none; fill-opacity:0%; fill-rule:evenodd; stroke:#aaaaaa; stroke-opacity:100%; stroke-width: 1.5pt; stroke-linejoin:round; stroke-linecap:round;" d="M19.25 46c3 0.48 5.99 0.69 8.98 0.3c20.79-2.74 33.92-4.59 55.03-6.89c4.68-0.51 8.08 0.63 7.97 5.83c-0.17 7.49-0.85 30.13-1.48 40.51c-0.96 16.02-6 4.75-9 1.5"></path>
<path style="fill:none; fill-opacity:0%; fill-rule:evenodd; stroke:#aaaaaa; stroke-opacity:100%; stroke-width: 1.5pt; stroke-linejoin:round; stroke-linecap:round;" d="M40.77 47.83c0.98 0.92 1.17 2.29 1.26 3.77c0.85 14.27 0.96 18.93 1.19 26.02c0.09 2.85 0.18 5.72 0.29 8.88"></path>
<path style="fill:none; fill-opacity:0%; fill-rule:evenodd; stroke:#aaaaaa; stroke-opacity:100%; stroke-width: 1.5pt; stroke-linejoin:round; stroke-linecap:round;" d="M65.25 44c0.98 0.92 1.34 2.25 1.27 3.85c-0.5 11.37-0.99 21.43-1.4 29.02c-0.23 4.19-0.44 7.63-0.62 10.12"></path>

<path style="fill:none; fill-opacity:0%; fill-rule:evenodd; stroke:#000000; stroke-opacity:100%; stroke-width: 3pt; stroke-linejoin:round; stroke-linecap:round;" d="M20.75 23.27c4.15 0.67 8.28 0.39 12.48 0.01c11.66-1.05 28.77-2.53 41.63-3.26c4.25-0.24 8.44-0.44 12.63 0.2"></path>
<text x="5" y="20" font-size="20" fill="#999999">2</text><path style="fill:none; fill-opacity:0%; fill-rule:evenodd; stroke:#CC0000; stroke-opacity:100%; stroke-width: 3pt; stroke-linejoin:round; stroke-linecap:round;" d="M51.53 25.39c0.07 0.86-0.07 1.77-0.48 2.52c-2.68 4.96-3.93 7.09-8.18 13.21" marker-end="url(#TriangleRed)" marker-start="url(#ArrowRed)" ></path>





</g><g transform="scale(1.3761467889908 1.3761467889908) translate(218, 0)">
<path style="fill:none; fill-rule:evenodd; stroke:#aaaaaa;  stroke-width:1pt; stroke-linecap:round;" d="m 109 0 L 0 0 L 0 109 L 109 109 L 109 0"></path><path style="fill:none; fill-opacity:0%; fill-rule:evenodd; stroke:#aaaaaa; stroke-opacity:100%; stroke-width: 1.5pt; stroke-linejoin:round; stroke-linecap:round;" d="M20.75 23.27c4.15 0.67 8.28 0.39 12.48 0.01c11.66-1.05 28.77-2.53 41.63-3.26c4.25-0.24 8.44-0.44 12.63 0.2"></path>
<path style="fill:none; fill-opacity:0%; fill-rule:evenodd; stroke:#aaaaaa; stroke-opacity:100%; stroke-width: 1.5pt; stroke-linejoin:round; stroke-linecap:round;" d="M51.53 25.39c0.07 0.86-0.07 1.77-0.48 2.52c-2.68 4.96-3.93 7.09-8.18 13.21"></path>
<path style="fill:none; fill-opacity:0%; fill-rule:evenodd; stroke:#aaaaaa; stroke-opacity:100%; stroke-width: 1.5pt; stroke-linejoin:round; stroke-linecap:round;" d="M17 43.25c1.12 1.12 1.35 2.24 1.5 4.5c0.37 5.49 1.58 20.95 2.22 31.88c0.23 4.01 0.43 7.38 0.53 9.37"></path>
<path style="fill:none; fill-opacity:0%; fill-rule:evenodd; stroke:#aaaaaa; stroke-opacity:100%; stroke-width: 1.5pt; stroke-linejoin:round; stroke-linecap:round;" d="M19.25 46c3 0.48 5.99 0.69 8.98 0.3c20.79-2.74 33.92-4.59 55.03-6.89c4.68-0.51 8.08 0.63 7.97 5.83c-0.17 7.49-0.85 30.13-1.48 40.51c-0.96 16.02-6 4.75-9 1.5"></path>
<path style="fill:none; fill-opacity:0%; fill-rule:evenodd; stroke:#aaaaaa; stroke-opacity:100%; stroke-width: 1.5pt; stroke-linejoin:round; stroke-linecap:round;" d="M40.77 47.83c0.98 0.92 1.17 2.29 1.26 3.77c0.85 14.27 0.96 18.93 1.19 26.02c0.09 2.85 0.18 5.72 0.29 8.88"></path>
<path style="fill:none; fill-opacity:0%; fill-rule:evenodd; stroke:#aaaaaa; stroke-opacity:100%; stroke-width: 1.5pt; stroke-linejoin:round; stroke-linecap:round;" d="M65.25 44c0.98 0.92 1.34 2.25 1.27 3.85c-0.5 11.37-0.99 21.43-1.4 29.02c-0.23 4.19-0.44 7.63-0.62 10.12"></path>

<path style="fill:none; fill-opacity:0%; fill-rule:evenodd; stroke:#000000; stroke-opacity:100%; stroke-width: 3pt; stroke-linejoin:round; stroke-linecap:round;" d="M20.75 23.27c4.15 0.67 8.28 0.39 12.48 0.01c11.66-1.05 28.77-2.53 41.63-3.26c4.25-0.24 8.44-0.44 12.63 0.2"></path>
<path style="fill:none; fill-opacity:0%; fill-rule:evenodd; stroke:#000000; stroke-opacity:100%; stroke-width: 3pt; stroke-linejoin:round; stroke-linecap:round;" d="M51.53 25.39c0.07 0.86-0.07 1.77-0.48 2.52c-2.68 4.96-3.93 7.09-8.18 13.21"></path>
<text x="5" y="20" font-size="20" fill="#999999">3</text><path style="fill:none; fill-opacity:0%; fill-rule:evenodd; stroke:#CC0000; stroke-opacity:100%; stroke-width: 3pt; stroke-linejoin:round; stroke-linecap:round;" d="M17 43.25c1.12 1.12 1.35 2.24 1.5 4.5c0.37 5.49 1.58 20.95 2.22 31.88c0.23 4.01 0.43 7.38 0.53 9.37" marker-end="url(#TriangleRed)" marker-start="url(#ArrowRed)" ></path>




</g><g transform="scale(1.3761467889908 1.3761467889908) translate(327, 0)">
<path style="fill:none; fill-rule:evenodd; stroke:#aaaaaa;  stroke-width:1pt; stroke-linecap:round;" d="m 109 0 L 0 0 L 0 109 L 109 109 L 109 0"></path><path style="fill:none; fill-opacity:0%; fill-rule:evenodd; stroke:#aaaaaa; stroke-opacity:100%; stroke-width: 1.5pt; stroke-linejoin:round; stroke-linecap:round;" d="M20.75 23.27c4.15 0.67 8.28 0.39 12.48 0.01c11.66-1.05 28.77-2.53 41.63-3.26c4.25-0.24 8.44-0.44 12.63 0.2"></path>
<path style="fill:none; fill-opacity:0%; fill-rule:evenodd; stroke:#aaaaaa; stroke-opacity:100%; stroke-width: 1.5pt; stroke-linejoin:round; stroke-linecap:round;" d="M51.53 25.39c0.07 0.86-0.07 1.77-0.48 2.52c-2.68 4.96-3.93 7.09-8.18 13.21"></path>
<path style="fill:none; fill-opacity:0%; fill-rule:evenodd; stroke:#aaaaaa; stroke-opacity:100%; stroke-width: 1.5pt; stroke-linejoin:round; stroke-linecap:round;" d="M17 43.25c1.12 1.12 1.35 2.24 1.5 4.5c0.37 5.49 1.58 20.95 2.22 31.88c0.23 4.01 0.43 7.38 0.53 9.37"></path>
<path style="fill:none; fill-opacity:0%; fill-rule:evenodd; stroke:#aaaaaa; stroke-opacity:100%; stroke-width: 1.5pt; stroke-linejoin:round; stroke-linecap:round;" d="M19.25 46c3 0.48 5.99 0.69 8.98 0.3c20.79-2.74 33.92-4.59 55.03-6.89c4.68-0.51 8.08 0.63 7.97 5.83c-0.17 7.49-0.85 30.13-1.48 40.51c-0.96 16.02-6 4.75-9 1.5"></path>
<path style="fill:none; fill-opacity:0%; fill-rule:evenodd; stroke:#aaaaaa; stroke-opacity:100%; stroke-width: 1.5pt; stroke-linejoin:round; stroke-linecap:round;" d="M40.77 47.83c0.98 0.92 1.17 2.29 1.26 3.77c0.85 14.27 0.96 18.93 1.19 26.02c0.09 2.85 0.18 5.72 0.29 8.88"></path>
<path style="fill:none; fill-opacity:0%; fill-rule:evenodd; stroke:#aaaaaa; stroke-opacity:100%; stroke-width: 1.5pt; stroke-linejoin:round; stroke-linecap:round;" d="M65.25 44c0.98 0.92 1.34 2.25 1.27 3.85c-0.5 11.37-0.99 21.43-1.4 29.02c-0.23 4.19-0.44 7.63-0.62 10.12"></path>

<path style="fill:none; fill-opacity:0%; fill-rule:evenodd; stroke:#000000; stroke-opacity:100%; stroke-width: 3pt; stroke-linejoin:round; stroke-linecap:round;" d="M20.75 23.27c4.15 0.67 8.28 0.39 12.48 0.01c11.66-1.05 28.77-2.53 41.63-3.26c4.25-0.24 8.44-0.44 12.63 0.2"></path>
<path style="fill:none; fill-opacity:0%; fill-rule:evenodd; stroke:#000000; stroke-opacity:100%; stroke-width: 3pt; stroke-linejoin:round; stroke-linecap:round;" d="M51.53 25.39c0.07 0.86-0.07 1.77-0.48 2.52c-2.68 4.96-3.93 7.09-8.18 13.21"></path>
<path style="fill:none; fill-opacity:0%; fill-rule:evenodd; stroke:#000000; stroke-opacity:100%; stroke-width: 3pt; stroke-linejoin:round; stroke-linecap:round;" d="M17 43.25c1.12 1.12 1.35 2.24 1.5 4.5c0.37 5.49 1.58 20.95 2.22 31.88c0.23 4.01 0.43 7.38 0.53 9.37"></path>
<text x="5" y="20" font-size="20" fill="#999999">4</text><path style="fill:none; fill-opacity:0%; fill-rule:evenodd; stroke:#CC0000; stroke-opacity:100%; stroke-width: 3pt; stroke-linejoin:round; stroke-linecap:round;" d="M19.25 46c3 0.48 5.99 0.69 8.98 0.3c20.79-2.74 33.92-4.59 55.03-6.89c4.68-0.51 8.08 0.63 7.97 5.83c-0.17 7.49-0.85 30.13-1.48 40.51c-0.96 16.02-6 4.75-9 1.5" marker-end="url(#TriangleRed)" marker-start="url(#ArrowRed)" ></path>



</g><g transform="scale(1.3761467889908 1.3761467889908) translate(436, 0)">
<path style="fill:none; fill-rule:evenodd; stroke:#aaaaaa;  stroke-width:1pt; stroke-linecap:round;" d="m 109 0 L 0 0 L 0 109 L 109 109 L 109 0"></path><path style="fill:none; fill-opacity:0%; fill-rule:evenodd; stroke:#aaaaaa; stroke-opacity:100%; stroke-width: 1.5pt; stroke-linejoin:round; stroke-linecap:round;" d="M20.75 23.27c4.15 0.67 8.28 0.39 12.48 0.01c11.66-1.05 28.77-2.53 41.63-3.26c4.25-0.24 8.44-0.44 12.63 0.2"></path>
<path style="fill:none; fill-opacity:0%; fill-rule:evenodd; stroke:#aaaaaa; stroke-opacity:100%; stroke-width: 1.5pt; stroke-linejoin:round; stroke-linecap:round;" d="M51.53 25.39c0.07 0.86-0.07 1.77-0.48 2.52c-2.68 4.96-3.93 7.09-8.18 13.21"></path>
<path style="fill:none; fill-opacity:0%; fill-rule:evenodd; stroke:#aaaaaa; stroke-opacity:100%; stroke-width: 1.5pt; stroke-linejoin:round; stroke-linecap:round;" d="M17 43.25c1.12 1.12 1.35 2.24 1.5 4.5c0.37 5.49 1.58 20.95 2.22 31.88c0.23 4.01 0.43 7.38 0.53 9.37"></path>
<path style="fill:none; fill-opacity:0%; fill-rule:evenodd; stroke:#aaaaaa; stroke-opacity:100%; stroke-width: 1.5pt; stroke-linejoin:round; stroke-linecap:round;" d="M19.25 46c3 0.48 5.99 0.69 8.98 0.3c20.79-2.74 33.92-4.59 55.03-6.89c4.68-0.51 8.08 0.63 7.97 5.83c-0.17 7.49-0.85 30.13-1.48 40.51c-0.96 16.02-6 4.75-9 1.5"></path>
<path style="fill:none; fill-opacity:0%; fill-rule:evenodd; stroke:#aaaaaa; stroke-opacity:100%; stroke-width: 1.5pt; stroke-linejoin:round; stroke-linecap:round;" d="M40.77 47.83c0.98 0.92 1.17 2.29 1.26 3.77c0.85 14.27 0.96 18.93 1.19 26.02c0.09 2.85 0.18 5.72 0.29 8.88"></path>
<path style="fill:none; fill-opacity:0%; fill-rule:evenodd; stroke:#aaaaaa; stroke-opacity:100%; stroke-width: 1.5pt; stroke-linejoin:round; stroke-linecap:round;" d="M65.25 44c0.98 0.92 1.34 2.25 1.27 3.85c-0.5 11.37-0.99 21.43-1.4 29.02c-0.23 4.19-0.44 7.63-0.62 10.12"></path>

<path style="fill:none; fill-opacity:0%; fill-rule:evenodd; stroke:#000000; stroke-opacity:100%; stroke-width: 3pt; stroke-linejoin:round; stroke-linecap:round;" d="M20.75 23.27c4.15 0.67 8.28 0.39 12.48 0.01c11.66-1.05 28.77-2.53 41.63-3.26c4.25-0.24 8.44-0.44 12.63 0.2"></path>
<path style="fill:none; fill-opacity:0%; fill-rule:evenodd; stroke:#000000; stroke-opacity:100%; stroke-width: 3pt; stroke-linejoin:round; stroke-linecap:round;" d="M51.53 25.39c0.07 0.86-0.07 1.77-0.48 2.52c-2.68 4.96-3.93 7.09-8.18 13.21"></path>
<path style="fill:none; fill-opacity:0%; fill-rule:evenodd; stroke:#000000; stroke-opacity:100%; stroke-width: 3pt; stroke-linejoin:round; stroke-linecap:round;" d="M17 43.25c1.12 1.12 1.35 2.24 1.5 4.5c0.37 5.49 1.58 20.95 2.22 31.88c0.23 4.01 0.43 7.38 0.53 9.37"></path>
<path style="fill:none; fill-opacity:0%; fill-rule:evenodd; stroke:#000000; stroke-opacity:100%; stroke-width: 3pt; stroke-linejoin:round; stroke-linecap:round;" d="M19.25 46c3 0.48 5.99 0.69 8.98 0.3c20.79-2.74 33.92-4.59 55.03-6.89c4.68-0.51 8.08 0.63 7.97 5.83c-0.17 7.49-0.85 30.13-1.48 40.51c-0.96 16.02-6 4.75-9 1.5"></path>
<text x="5" y="20" font-size="20" fill="#999999">5</text><path style="fill:none; fill-opacity:0%; fill-rule:evenodd; stroke:#CC0000; stroke-opacity:100%; stroke-width: 3pt; stroke-linejoin:round; stroke-linecap:round;" d="M40.77 47.83c0.98 0.92 1.17 2.29 1.26 3.77c0.85 14.27 0.96 18.93 1.19 26.02c0.09 2.85 0.18 5.72 0.29 8.88" marker-end="url(#TriangleRed)" marker-start="url(#ArrowRed)" ></path>


</g><g transform="scale(1.3761467889908 1.3761467889908) translate(0, 109)">
<path style="fill:none; fill-rule:evenodd; stroke:#aaaaaa;  stroke-width:1pt; stroke-linecap:round;" d="m 109 0 L 0 0 L 0 109 L 109 109 L 109 0"></path><path style="fill:none; fill-opacity:0%; fill-rule:evenodd; stroke:#aaaaaa; stroke-opacity:100%; stroke-width: 1.5pt; stroke-linejoin:round; stroke-linecap:round;" d="M20.75 23.27c4.15 0.67 8.28 0.39 12.48 0.01c11.66-1.05 28.77-2.53 41.63-3.26c4.25-0.24 8.44-0.44 12.63 0.2"></path>
<path style="fill:none; fill-opacity:0%; fill-rule:evenodd; stroke:#aaaaaa; stroke-opacity:100%; stroke-width: 1.5pt; stroke-linejoin:round; stroke-linecap:round;" d="M51.53 25.39c0.07 0.86-0.07 1.77-0.48 2.52c-2.68 4.96-3.93 7.09-8.18 13.21"></path>
<path style="fill:none; fill-opacity:0%; fill-rule:evenodd; stroke:#aaaaaa; stroke-opacity:100%; stroke-width: 1.5pt; stroke-linejoin:round; stroke-linecap:round;" d="M17 43.25c1.12 1.12 1.35 2.24 1.5 4.5c0.37 5.49 1.58 20.95 2.22 31.88c0.23 4.01 0.43 7.38 0.53 9.37"></path>
<path style="fill:none; fill-opacity:0%; fill-rule:evenodd; stroke:#aaaaaa; stroke-opacity:100%; stroke-width: 1.5pt; stroke-linejoin:round; stroke-linecap:round;" d="M19.25 46c3 0.48 5.99 0.69 8.98 0.3c20.79-2.74 33.92-4.59 55.03-6.89c4.68-0.51 8.08 0.63 7.97 5.83c-0.17 7.49-0.85 30.13-1.48 40.51c-0.96 16.02-6 4.75-9 1.5"></path>
<path style="fill:none; fill-opacity:0%; fill-rule:evenodd; stroke:#aaaaaa; stroke-opacity:100%; stroke-width: 1.5pt; stroke-linejoin:round; stroke-linecap:round;" d="M40.77 47.83c0.98 0.92 1.17 2.29 1.26 3.77c0.85 14.27 0.96 18.93 1.19 26.02c0.09 2.85 0.18 5.72 0.29 8.88"></path>
<path style="fill:none; fill-opacity:0%; fill-rule:evenodd; stroke:#aaaaaa; stroke-opacity:100%; stroke-width: 1.5pt; stroke-linejoin:round; stroke-linecap:round;" d="M65.25 44c0.98 0.92 1.34 2.25 1.27 3.85c-0.5 11.37-0.99 21.43-1.4 29.02c-0.23 4.19-0.44 7.63-0.62 10.12"></path>

<path style="fill:none; fill-opacity:0%; fill-rule:evenodd; stroke:#000000; stroke-opacity:100%; stroke-width: 3pt; stroke-linejoin:round; stroke-linecap:round;" d="M20.75 23.27c4.15 0.67 8.28 0.39 12.48 0.01c11.66-1.05 28.77-2.53 41.63-3.26c4.25-0.24 8.44-0.44 12.63 0.2"></path>
<path style="fill:none; fill-opacity:0%; fill-rule:evenodd; stroke:#000000; stroke-opacity:100%; stroke-width: 3pt; stroke-linejoin:round; stroke-linecap:round;" d="M51.53 25.39c0.07 0.86-0.07 1.77-0.48 2.52c-2.68 4.96-3.93 7.09-8.18 13.21"></path>
<path style="fill:none; fill-opacity:0%; fill-rule:evenodd; stroke:#000000; stroke-opacity:100%; stroke-width: 3pt; stroke-linejoin:round; stroke-linecap:round;" d="M17 43.25c1.12 1.12 1.35 2.24 1.5 4.5c0.37 5.49 1.58 20.95 2.22 31.88c0.23 4.01 0.43 7.38 0.53 9.37"></path>
<path style="fill:none; fill-opacity:0%; fill-rule:evenodd; stroke:#000000; stroke-opacity:100%; stroke-width: 3pt; stroke-linejoin:round; stroke-linecap:round;" d="M19.25 46c3 0.48 5.99 0.69 8.98 0.3c20.79-2.74 33.92-4.59 55.03-6.89c4.68-0.51 8.08 0.63 7.97 5.83c-0.17 7.49-0.85 30.13-1.48 40.51c-0.96 16.02-6 4.75-9 1.5"></path>
<path style="fill:none; fill-opacity:0%; fill-rule:evenodd; stroke:#000000; stroke-opacity:100%; stroke-width: 3pt; stroke-linejoin:round; stroke-linecap:round;" d="M40.77 47.83c0.98 0.92 1.17 2.29 1.26 3.77c0.85 14.27 0.96 18.93 1.19 26.02c0.09 2.85 0.18 5.72 0.29 8.88"></path>
<text x="5" y="20" font-size="20" fill="#999999">6</text><path style="fill:none; fill-opacity:0%; fill-rule:evenodd; stroke:#CC0000; stroke-opacity:100%; stroke-width: 3pt; stroke-linejoin:round; stroke-linecap:round;" d="M65.25 44c0.98 0.92 1.34 2.25 1.27 3.85c-0.5 11.37-0.99 21.43-1.4 29.02c-0.23 4.19-0.44 7.63-0.62 10.12" marker-end="url(#TriangleRed)" marker-start="url(#ArrowRed)" ></path>

</g>

</svg>  
          
