<?xml version="1.0" standalone="no"?>
<!DOCTYPE svg PUBLIC "-//W3C//DTD SVG 1.1//EN"   "http://www.w3.org/Graphics/SVG/1.1/DTD/svg11.dtd">
<svg width="751" height="301"  version="1.1" xmlns="http://www.w3.org/2000/svg">
  <defs>
    <marker id="Triangle" viewBox="0 0 10 10" refX="0" refY="5" markerUnits="strokeWidth" markerWidth="3" style="stroke-opacity:0%;fill:#aaaaaa;" markerHeight="2" orient="auto">
      <path d="M 0 0 L 10 5 L 0 10 z" />
    </marker>
    
    <marker id="Arrow" viewBox="0 0 10 10" refX="5" refY="5" markerUnits="strokeWidth" markerWidth="1.8" style="stroke-opacity:0%;fill:#770000;" markerHeight="2" orient="auto">
      <path d="M 0 4 L 6 4 L 4 1 L 10 5 L 4 9 L 6 6 L 0 6 z" />
        <circle cx="5" cy="5" r="5" />
      </marker>
    
    <marker id="TriangleRed" viewBox="0 0 10 10" refX="0" refY="5" markerUnits="strokeWidth" markerWidth="3" style="stroke-opacity:0%;fill:#CC0000;" markerHeight="2" orient="auto">
      <path d="M 0 0 L 10 5 L 0 10 z" />
    </marker>
    
    <marker id="ArrowRed" viewBox="0 0 10 10" refX="5" refY="5" markerUnits="strokeWidth" markerWidth="1.8" style="stroke-opacity:0%;fill:#CC0000;" markerHeight="2" orient="auto">
      <path d="M 0 4 L 6 4 L 4 1 L 10 5 L 4 9 L 6 6 L 0 6 z" />
        <circle cx="5" cy="5" r="5" />
      </marker>
    
  </defs>
  
  <path style="fill:#ffffff; fill-opacity:100%; fill-rule:evenodd; stroke-width:0;" d="M 0 0 L 751 0 L 751 301 L 0 301 L 0 0" />

  <g transform="scale(1.3761467889908 1.3761467889908) translate(0, 0)">
<path style="fill:none; fill-rule:evenodd; stroke:#aaaaaa;  stroke-width:1pt; stroke-linecap:round;" d="m 109 0 L 0 0 L 0 109 L 109 109 L 109 0"></path><path style="fill:none; fill-opacity:0%; fill-rule:evenodd; stroke:#aaaaaa; stroke-opacity:100%; stroke-width: 1.5pt; stroke-linejoin:round; stroke-linecap:round;" d="M13.82 21.12c2.43 0.76 4.86 0.32 6.82 0.06c7.19-0.94 19.6-2.79 27.75-3.49c2.06-0.18 4.16-0.43 6.15 0.26"></path>
<path style="fill:none; fill-opacity:0%; fill-rule:evenodd; stroke:#aaaaaa; stroke-opacity:100%; stroke-width: 1.5pt; stroke-linejoin:round; stroke-linecap:round;" d="M33.56 23.45c0.03 0.44 0.06 1.14-0.06 1.77c-0.51 2.59-2.68 7.33-5.87 11.66"></path>
<path style="fill:none; fill-opacity:0%; fill-rule:evenodd; stroke:#aaaaaa; stroke-opacity:100%; stroke-width: 1.5pt; stroke-linejoin:round; stroke-linecap:round;" d="M14 39.82c1.15 1.15 1.09 2.43 1.09 3.78C15.09 50 15 69.14 15 80.18c0 2.87 0 4.95 0 5.7"></path>
<path style="fill:none; fill-opacity:0%; fill-rule:evenodd; stroke:#aaaaaa; stroke-opacity:100%; stroke-width: 1.5pt; stroke-linejoin:round; stroke-linecap:round;" d="M15.38 41.25c7.72-1.21 25.87-3.66 32.14-4.49C50.86 36.32 53 36.6 53 40.5c0 6.8-0.03 32.25-0.03 38.59c0 11.41-3.21 5.66-5.67 2.94"></path>
<path style="fill:none; fill-opacity:0%; fill-rule:evenodd; stroke:#aaaaaa; stroke-opacity:100%; stroke-width: 1.5pt; stroke-linejoin:round; stroke-linecap:round;" d="M27.06 42.22c0.98 0.98 1.04 2.65 1.04 4.82c0 9.34 0.04 17.34-0.04 25.46c-0.02 2.07-0.04 4.16-0.04 6.31"></path>
<path style="fill:none; fill-opacity:0%; fill-rule:evenodd; stroke:#aaaaaa; stroke-opacity:100%; stroke-width: 1.5pt; stroke-linejoin:round; stroke-linecap:round;" d="M38.09 40.13c1.01 1.01 1.29 2.24 1.29 4.07c0 10.97 0.08 20.13 0.03 27.52c-0.02 2.58-0.03 5.07-0.03 7.54"></path>
<path style="fill:none; fill-opacity:0%; fill-rule:evenodd; stroke:#aaaaaa; stroke-opacity:100%; stroke-width: 1.5pt; stroke-linejoin:round; stroke-linecap:round;" d="M59.81 41.23c2.59 0.6 4.59 0.47 7.2 0.06c7.24-1.12 18.17-3.07 26.12-4.02c1.94-0.23 4.37-0.4 6.12 0.22"></path>
<path style="fill:none; fill-opacity:0%; fill-rule:evenodd; stroke:#aaaaaa; stroke-opacity:100%; stroke-width: 1.5pt; stroke-linejoin:round; stroke-linecap:round;" d="M83.21 14.08c0.98 0.98 1.56 2.29 1.56 4.6c0 19.79 0.03 66.39 0.03 71.2c0 11.67-6.32 1.73-8.16 0.24"></path>
<path style="fill:none; fill-opacity:0%; fill-rule:evenodd; stroke:#aaaaaa; stroke-opacity:100%; stroke-width: 1.5pt; stroke-linejoin:round; stroke-linecap:round;" d="M63.88 55.38c2.47 1.92 6.38 7.89 7 10.87"></path>

<text x="5" y="20" font-size="20" fill="#999999">1</text><path style="fill:none; fill-opacity:0%; fill-rule:evenodd; stroke:#CC0000; stroke-opacity:100%; stroke-width: 3pt; stroke-linejoin:round; stroke-linecap:round;" d="M13.82 21.12c2.43 0.76 4.86 0.32 6.82 0.06c7.19-0.94 19.6-2.79 27.75-3.49c2.06-0.18 4.16-0.43 6.15 0.26" marker-end="url(#TriangleRed)" marker-start="url(#ArrowRed)" ></path>









</g><g transform="scale(1.3761467889908 1.3761467889908) translate(109, 0)">
<path style="fill:none; fill-rule:evenodd; stroke:#aaaaaa;  stroke-width:1pt; stroke-linecap:round;" d="m 109 0 L 0 0 L 0 109 L 109 109 L 109 0"></path><path style="fill:none; fill-opacity:0%; fill-rule:evenodd; stroke:#aaaaaa; stroke-opacity:100%; stroke-width: 1.5pt; stroke-linejoin:round; stroke-linecap:round;" d="M13.82 21.12c2.43 0.76 4.86 0.32 6.82 0.06c7.19-0.94 19.6-2.79 27.75-3.49c2.06-0.18 4.16-0.43 6.15 0.26"></path>
<path style="fill:none; fill-opacity:0%; fill-rule:evenodd; stroke:#aaaaaa; stroke-opacity:100%; stroke-width: 1.5pt; stroke-linejoin:round; stroke-linecap:round;" d="M33.56 23.45c0.03 0.44 0.06 1.14-0.06 1.77c-0.51 2.59-2.68 7.33-5.87 11.66"></path>
<path style="fill:none; fill-opacity:0%; fill-rule:evenodd; stroke:#aaaaaa; stroke-opacity:100%; stroke-width: 1.5pt; stroke-linejoin:round; stroke-linecap:round;" d="M14 39.82c1.15 1.15 1.09 2.43 1.09 3.78C15.09 50 15 69.14 15 80.18c0 2.87 0 4.95 0 5.7"></path>
<path style="fill:none; fill-opacity:0%; fill-rule:evenodd; stroke:#aaaaaa; stroke-opacity:100%; stroke-width: 1.5pt; stroke-linejoin:round; stroke-linecap:round;" d="M15.38 41.25c7.72-1.21 25.87-3.66 32.14-4.49C50.86 36.32 53 36.6 53 40.5c0 6.8-0.03 32.25-0.03 38.59c0 11.41-3.21 5.66-5.67 2.94"></path>
<path style="fill:none; fill-opacity:0%; fill-rule:evenodd; stroke:#aaaaaa; stroke-opacity:100%; stroke-width: 1.5pt; stroke-linejoin:round; stroke-linecap:round;" d="M27.06 42.22c0.98 0.98 1.04 2.65 1.04 4.82c0 9.34 0.04 17.34-0.04 25.46c-0.02 2.07-0.04 4.16-0.04 6.31"></path>
<path style="fill:none; fill-opacity:0%; fill-rule:evenodd; stroke:#aaaaaa; stroke-opacity:100%; stroke-width: 1.5pt; stroke-linejoin:round; stroke-linecap:round;" d="M38.09 40.13c1.01 1.01 1.29 2.24 1.29 4.07c0 10.97 0.08 20.13 0.03 27.52c-0.02 2.58-0.03 5.07-0.03 7.54"></path>
<path style="fill:none; fill-opacity:0%; fill-rule:evenodd; stroke:#aaaaaa; stroke-opacity:100%; stroke-width: 1.5pt; stroke-linejoin:round; stroke-linecap:round;" d="M59.81 41.23c2.59 0.6 4.59 0.47 7.2 0.06c7.24-1.12 18.17-3.07 26.12-4.02c1.94-0.23 4.37-0.4 6.12 0.22"></path>
<path style="fill:none; fill-opacity:0%; fill-rule:evenodd; stroke:#aaaaaa; stroke-opacity:100%; stroke-width: 1.5pt; stroke-linejoin:round; stroke-linecap:round;" d="M83.21 14.08c0.98 0.98 1.56 2.29 1.56 4.6c0 19.79 0.03 66.39 0.03 71.2c0 11.67-6.32 1.73-8.16 0.24"></path>
<path style="fill:none; fill-opacity:0%; fill-rule:evenodd; stroke:#aaaaaa; stroke-opacity:100%; stroke-width: 1.5pt; stroke-linejoin:round; stroke-linecap:round;" d="M63.88 55.38c2.47 1.92 6.38 7.89 7 10.87"></path>

<path style="fill:none; fill-opacity:0%; fill-rule:evenodd; stroke:#000000; stroke-opacity:100%; stroke-width: 3pt; stroke-linejoin:round; stroke-linecap:round;" d="M13.82 21.12c2.43 0.76 4.86 0.32 6.82 0.06c7.19-0.94 19.6-2.79 27.75-3.49c2.06-0.18 4.16-0.43 6.15 0.26"></path>
<text x="5" y="20" font-size="20" fill="#999999">2</text><path style="fill:none; fill-opacity:0%; fill-rule:evenodd; stroke:#CC0000; stroke-opacity:100%; stroke-width: 3pt; stroke-linejoin:round; stroke-linecap:round;" d="M33.56 23.45c0.03 0.44 0.06 1.14-0.06 1.77c-0.51 2.59-2.68 7.33-5.87 11.66" marker-end="url(#TriangleRed)" marker-start="url(#ArrowRed)" ></path>








</g><g transform="scale(1.3761467889908 1.3761467889908) translate(218, 0)">
<path style="fill:none; fill-rule:evenodd; stroke:#aaaaaa;  stroke-width:1pt; stroke-linecap:round;" d="m 109 0 L 0 0 L 0 109 L 109 109 L 109 0"></path><path style="fill:none; fill-opacity:0%; fill-rule:evenodd; stroke:#aaaaaa; stroke-opacity:100%; stroke-width: 1.5pt; stroke-linejoin:round; stroke-linecap:round;" d="M13.82 21.12c2.43 0.76 4.86 0.32 6.82 0.06c7.19-0.94 19.6-2.79 27.75-3.49c2.06-0.18 4.16-0.43 6.15 0.26"></path>
<path style="fill:none; fill-opacity:0%; fill-rule:evenodd; stroke:#aaaaaa; stroke-opacity:100%; stroke-width: 1.5pt; stroke-linejoin:round; stroke-linecap:round;" d="M33.56 23.45c0.03 0.44 0.06 1.14-0.06 1.77c-0.51 2.59-2.68 7.33-5.87 11.66"></path>
<path style="fill:none; fill-opacity:0%; fill-rule:evenodd; stroke:#aaaaaa; stroke-opacity:100%; stroke-width: 1.5pt; stroke-linejoin:round; stroke-linecap:round;" d="M14 39.82c1.15 1.15 1.09 2.43 1.09 3.78C15.09 50 15 69.14 15 80.18c0 2.87 0 4.95 0 5.7"></path>
<path style="fill:none; fill-opacity:0%; fill-rule:evenodd; stroke:#aaaaaa; stroke-opacity:100%; stroke-width: 1.5pt; stroke-linejoin:round; stroke-linecap:round;" d="M15.38 41.25c7.72-1.21 25.87-3.66 32.14-4.49C50.86 36.32 53 36.6 53 40.5c0 6.8-0.03 32.25-0.03 38.59c0 11.41-3.21 5.66-5.67 2.94"></path>
<path style="fill:none; fill-opacity:0%; fill-rule:evenodd; stroke:#aaaaaa; stroke-opacity:100%; stroke-width: 1.5pt; stroke-linejoin:round; stroke-linecap:round;" d="M27.06 42.22c0.98 0.98 1.04 2.65 1.04 4.82c0 9.34 0.04 17.34-0.04 25.46c-0.02 2.07-0.04 4.16-0.04 6.31"></path>
<path style="fill:none; fill-opacity:0%; fill-rule:evenodd; stroke:#aaaaaa; stroke-opacity:100%; stroke-width: 1.5pt; stroke-linejoin:round; stroke-linecap:round;" d="M38.09 40.13c1.01 1.01 1.29 2.24 1.29 4.07c0 10.97 0.08 20.13 0.03 27.52c-0.02 2.58-0.03 5.07-0.03 7.54"></path>
<path style="fill:none; fill-opacity:0%; fill-rule:evenodd; stroke:#aaaaaa; stroke-opacity:100%; stroke-width: 1.5pt; stroke-linejoin:round; stroke-linecap:round;" d="M59.81 41.23c2.59 0.6 4.59 0.47 7.2 0.06c7.24-1.12 18.17-3.07 26.12-4.02c1.94-0.23 4.37-0.4 6.12 0.22"></path>
<path style="fill:none; fill-opacity:0%; fill-rule:evenodd; stroke:#aaaaaa; stroke-opacity:100%; stroke-width: 1.5pt; stroke-linejoin:round; stroke-linecap:round;" d="M83.21 14.08c0.98 0.98 1.56 2.29 1.56 4.6c0 19.79 0.03 66.39 0.03 71.2c0 11.67-6.32 1.73-8.16 0.24"></path>
<path style="fill:none; fill-opacity:0%; fill-rule:evenodd; stroke:#aaaaaa; stroke-opacity:100%; stroke-width: 1.5pt; stroke-linejoin:round; stroke-linecap:round;" d="M63.88 55.38c2.47 1.92 6.38 7.89 7 10.87"></path>

<path style="fill:none; fill-opacity:0%; fill-rule:evenodd; stroke:#000000; stroke-opacity:100%; stroke-width: 3pt; stroke-linejoin:round; stroke-linecap:round;" d="M13.82 21.12c2.43 0.76 4.86 0.32 6.82 0.06c7.19-0.94 19.6-2.79 27.75-3.49c2.06-0.18 4.16-0.43 6.15 0.26"></path>
<path style="fill:none; fill-opacity:0%; fill-rule:evenodd; stroke:#000000; stroke-opacity:100%; stroke-width: 3pt; stroke-linejoin:round; stroke-linecap:round;" d="M33.56 23.45c0.03 0.44 0.06 1.14-0.06 1.77c-0.51 2.59-2.68 7.33-5.87 11.66"></path>
<text x="5" y="20" font-size="20" fill="#999999">3</text><path style="fill:none; fill-opacity:0%; fill-rule:evenodd; stroke:#CC0000; stroke-opacity:100%; stroke-width: 3pt; stroke-linejoin:round; stroke-linecap:round;" d="M14 39.82c1.15 1.15 1.09 2.43 1.09 3.78C15.09 50 15 69.14 15 80.18c0 2.87 0 4.95 0 5.7" marker-end="url(#TriangleRed)" marker-start="url(#ArrowRed)" ></path>







</g><g transform="scale(1.3761467889908 1.3761467889908) translate(327, 0)">
<path style="fill:none; fill-rule:evenodd; stroke:#aaaaaa;  stroke-width:1pt; stroke-linecap:round;" d="m 109 0 L 0 0 L 0 109 L 109 109 L 109 0"></path><path style="fill:none; fill-opacity:0%; fill-rule:evenodd; stroke:#aaaaaa; stroke-opacity:100%; stroke-width: 1.5pt; stroke-linejoin:round; stroke-linecap:round;" d="M13.82 21.12c2.43 0.76 4.86 0.32 6.82 0.06c7.19-0.94 19.6-2.79 27.75-3.49c2.06-0.18 4.16-0.43 6.15 0.26"></path>
<path style="fill:none; fill-opacity:0%; fill-rule:evenodd; stroke:#aaaaaa; stroke-opacity:100%; stroke-width: 1.5pt; stroke-linejoin:round; stroke-linecap:round;" d="M33.56 23.45c0.03 0.44 0.06 1.14-0.06 1.77c-0.51 2.59-2.68 7.33-5.87 11.66"></path>
<path style="fill:none; fill-opacity:0%; fill-rule:evenodd; stroke:#aaaaaa; stroke-opacity:100%; stroke-width: 1.5pt; stroke-linejoin:round; stroke-linecap:round;" d="M14 39.82c1.15 1.15 1.09 2.43 1.09 3.78C15.09 50 15 69.14 15 80.18c0 2.87 0 4.95 0 5.7"></path>
<path style="fill:none; fill-opacity:0%; fill-rule:evenodd; stroke:#aaaaaa; stroke-opacity:100%; stroke-width: 1.5pt; stroke-linejoin:round; stroke-linecap:round;" d="M15.38 41.25c7.72-1.21 25.87-3.66 32.14-4.49C50.86 36.32 53 36.6 53 40.5c0 6.8-0.03 32.25-0.03 38.59c0 11.41-3.21 5.66-5.67 2.94"></path>
<path style="fill:none; fill-opacity:0%; fill-rule:evenodd; stroke:#aaaaaa; stroke-opacity:100%; stroke-width: 1.5pt; stroke-linejoin:round; stroke-linecap:round;" d="M27.06 42.22c0.98 0.98 1.04 2.65 1.04 4.82c0 9.34 0.04 17.34-0.04 25.46c-0.02 2.07-0.04 4.16-0.04 6.31"></path>
<path style="fill:none; fill-opacity:0%; fill-rule:evenodd; stroke:#aaaaaa; stroke-opacity:100%; stroke-width: 1.5pt; stroke-linejoin:round; stroke-linecap:round;" d="M38.09 40.13c1.01 1.01 1.29 2.24 1.29 4.07c0 10.97 0.08 20.13 0.03 27.52c-0.02 2.58-0.03 5.07-0.03 7.54"></path>
<path style="fill:none; fill-opacity:0%; fill-rule:evenodd; stroke:#aaaaaa; stroke-opacity:100%; stroke-width: 1.5pt; stroke-linejoin:round; stroke-linecap:round;" d="M59.81 41.23c2.59 0.6 4.59 0.47 7.2 0.06c7.24-1.12 18.17-3.07 26.12-4.02c1.94-0.23 4.37-0.4 6.12 0.22"></path>
<path style="fill:none; fill-opacity:0%; fill-rule:evenodd; stroke:#aaaaaa; stroke-opacity:100%; stroke-width: 1.5pt; stroke-linejoin:round; stroke-linecap:round;" d="M83.21 14.08c0.98 0.98 1.56 2.29 1.56 4.6c0 19.79 0.03 66.39 0.03 71.2c0 11.67-6.32 1.73-8.16 0.24"></path>
<path style="fill:none; fill-opacity:0%; fill-rule:evenodd; stroke:#aaaaaa; stroke-opacity:100%; stroke-width: 1.5pt; stroke-linejoin:round; stroke-linecap:round;" d="M63.88 55.38c2.47 1.92 6.38 7.89 7 10.87"></path>

<path style="fill:none; fill-opacity:0%; fill-rule:evenodd; stroke:#000000; stroke-opacity:100%; stroke-width: 3pt; stroke-linejoin:round; stroke-linecap:round;" d="M13.82 21.12c2.43 0.76 4.86 0.32 6.82 0.06c7.19-0.94 19.6-2.79 27.75-3.49c2.06-0.18 4.16-0.43 6.15 0.26"></path>
<path style="fill:none; fill-opacity:0%; fill-rule:evenodd; stroke:#000000; stroke-opacity:100%; stroke-width: 3pt; stroke-linejoin:round; stroke-linecap:round;" d="M33.56 23.45c0.03 0.44 0.06 1.14-0.06 1.77c-0.51 2.59-2.68 7.33-5.87 11.66"></path>
<path style="fill:none; fill-opacity:0%; fill-rule:evenodd; stroke:#000000; stroke-opacity:100%; stroke-width: 3pt; stroke-linejoin:round; stroke-linecap:round;" d="M14 39.82c1.15 1.15 1.09 2.43 1.09 3.78C15.09 50 15 69.14 15 80.18c0 2.87 0 4.95 0 5.7"></path>
<text x="5" y="20" font-size="20" fill="#999999">4</text><path style="fill:none; fill-opacity:0%; fill-rule:evenodd; stroke:#CC0000; stroke-opacity:100%; stroke-width: 3pt; stroke-linejoin:round; stroke-linecap:round;" d="M15.38 41.25c7.72-1.21 25.87-3.66 32.14-4.49C50.86 36.32 53 36.6 53 40.5c0 6.8-0.03 32.25-0.03 38.59c0 11.41-3.21 5.66-5.67 2.94" marker-end="url(#TriangleRed)" marker-start="url(#ArrowRed)" ></path>






</g><g transform="scale(1.3761467889908 1.3761467889908) translate(436, 0)">
<path style="fill:none; fill-rule:evenodd; stroke:#aaaaaa;  stroke-width:1pt; stroke-linecap:round;" d="m 109 0 L 0 0 L 0 109 L 109 109 L 109 0"></path><path style="fill:none; fill-opacity:0%; fill-rule:evenodd; stroke:#aaaaaa; stroke-opacity:100%; stroke-width: 1.5pt; stroke-linejoin:round; stroke-linecap:round;" d="M13.82 21.12c2.43 0.76 4.86 0.32 6.82 0.06c7.19-0.94 19.6-2.79 27.75-3.49c2.06-0.18 4.16-0.43 6.15 0.26"></path>
<path style="fill:none; fill-opacity:0%; fill-rule:evenodd; stroke:#aaaaaa; stroke-opacity:100%; stroke-width: 1.5pt; stroke-linejoin:round; stroke-linecap:round;" d="M33.56 23.45c0.03 0.44 0.06 1.14-0.06 1.77c-0.51 2.59-2.68 7.33-5.87 11.66"></path>
<path style="fill:none; fill-opacity:0%; fill-rule:evenodd; stroke:#aaaaaa; stroke-opacity:100%; stroke-width: 1.5pt; stroke-linejoin:round; stroke-linecap:round;" d="M14 39.82c1.15 1.15 1.09 2.43 1.09 3.78C15.09 50 15 69.14 15 80.18c0 2.87 0 4.95 0 5.7"></path>
<path style="fill:none; fill-opacity:0%; fill-rule:evenodd; stroke:#aaaaaa; stroke-opacity:100%; stroke-width: 1.5pt; stroke-linejoin:round; stroke-linecap:round;" d="M15.38 41.25c7.72-1.21 25.87-3.66 32.14-4.49C50.86 36.32 53 36.6 53 40.5c0 6.8-0.03 32.25-0.03 38.59c0 11.41-3.21 5.66-5.67 2.94"></path>
<path style="fill:none; fill-opacity:0%; fill-rule:evenodd; stroke:#aaaaaa; stroke-opacity:100%; stroke-width: 1.5pt; stroke-linejoin:round; stroke-linecap:round;" d="M27.06 42.22c0.98 0.98 1.04 2.65 1.04 4.82c0 9.34 0.04 17.34-0.04 25.46c-0.02 2.07-0.04 4.16-0.04 6.31"></path>
<path style="fill:none; fill-opacity:0%; fill-rule:evenodd; stroke:#aaaaaa; stroke-opacity:100%; stroke-width: 1.5pt; stroke-linejoin:round; stroke-linecap:round;" d="M38.09 40.13c1.01 1.01 1.29 2.24 1.29 4.07c0 10.97 0.08 20.13 0.03 27.52c-0.02 2.58-0.03 5.07-0.03 7.54"></path>
<path style="fill:none; fill-opacity:0%; fill-rule:evenodd; stroke:#aaaaaa; stroke-opacity:100%; stroke-width: 1.5pt; stroke-linejoin:round; stroke-linecap:round;" d="M59.81 41.23c2.59 0.6 4.59 0.47 7.2 0.06c7.24-1.12 18.17-3.07 26.12-4.02c1.94-0.23 4.37-0.4 6.12 0.22"></path>
<path style="fill:none; fill-opacity:0%; fill-rule:evenodd; stroke:#aaaaaa; stroke-opacity:100%; stroke-width: 1.5pt; stroke-linejoin:round; stroke-linecap:round;" d="M83.21 14.08c0.98 0.98 1.56 2.29 1.56 4.6c0 19.79 0.03 66.39 0.03 71.2c0 11.67-6.32 1.73-8.16 0.24"></path>
<path style="fill:none; fill-opacity:0%; fill-rule:evenodd; stroke:#aaaaaa; stroke-opacity:100%; stroke-width: 1.5pt; stroke-linejoin:round; stroke-linecap:round;" d="M63.88 55.38c2.47 1.92 6.38 7.89 7 10.87"></path>

<path style="fill:none; fill-opacity:0%; fill-rule:evenodd; stroke:#000000; stroke-opacity:100%; stroke-width: 3pt; stroke-linejoin:round; stroke-linecap:round;" d="M13.82 21.12c2.43 0.76 4.86 0.32 6.82 0.06c7.19-0.94 19.6-2.79 27.75-3.49c2.06-0.18 4.16-0.43 6.15 0.26"></path>
<path style="fill:none; fill-opacity:0%; fill-rule:evenodd; stroke:#000000; stroke-opacity:100%; stroke-width: 3pt; stroke-linejoin:round; stroke-linecap:round;" d="M33.56 23.45c0.03 0.44 0.06 1.14-0.06 1.77c-0.51 2.59-2.68 7.33-5.87 11.66"></path>
<path style="fill:none; fill-opacity:0%; fill-rule:evenodd; stroke:#000000; stroke-opacity:100%; stroke-width: 3pt; stroke-linejoin:round; stroke-linecap:round;" d="M14 39.82c1.15 1.15 1.09 2.43 1.09 3.78C15.09 50 15 69.14 15 80.18c0 2.87 0 4.95 0 5.7"></path>
<path style="fill:none; fill-opacity:0%; fill-rule:evenodd; stroke:#000000; stroke-opacity:100%; stroke-width: 3pt; stroke-linejoin:round; stroke-linecap:round;" d="M15.38 41.25c7.72-1.21 25.87-3.66 32.14-4.49C50.86 36.32 53 36.6 53 40.5c0 6.8-0.03 32.25-0.03 38.59c0 11.41-3.21 5.66-5.67 2.94"></path>
<text x="5" y="20" font-size="20" fill="#999999">5</text><path style="fill:none; fill-opacity:0%; fill-rule:evenodd; stroke:#CC0000; stroke-opacity:100%; stroke-width: 3pt; stroke-linejoin:round; stroke-linecap:round;" d="M27.06 42.22c0.98 0.98 1.04 2.65 1.04 4.82c0 9.34 0.04 17.34-0.04 25.46c-0.02 2.07-0.04 4.16-0.04 6.31" marker-end="url(#TriangleRed)" marker-start="url(#ArrowRed)" ></path>





</g><g transform="scale(1.3761467889908 1.3761467889908) translate(0, 109)">
<path style="fill:none; fill-rule:evenodd; stroke:#aaaaaa;  stroke-width:1pt; stroke-linecap:round;" d="m 109 0 L 0 0 L 0 109 L 109 109 L 109 0"></path><path style="fill:none; fill-opacity:0%; fill-rule:evenodd; stroke:#aaaaaa; stroke-opacity:100%; stroke-width: 1.5pt; stroke-linejoin:round; stroke-linecap:round;" d="M13.82 21.12c2.43 0.76 4.86 0.32 6.82 0.06c7.19-0.94 19.6-2.79 27.75-3.49c2.06-0.18 4.16-0.43 6.15 0.26"></path>
<path style="fill:none; fill-opacity:0%; fill-rule:evenodd; stroke:#aaaaaa; stroke-opacity:100%; stroke-width: 1.5pt; stroke-linejoin:round; stroke-linecap:round;" d="M33.56 23.45c0.03 0.44 0.06 1.14-0.06 1.77c-0.51 2.59-2.68 7.33-5.87 11.66"></path>
<path style="fill:none; fill-opacity:0%; fill-rule:evenodd; stroke:#aaaaaa; stroke-opacity:100%; stroke-width: 1.5pt; stroke-linejoin:round; stroke-linecap:round;" d="M14 39.82c1.15 1.15 1.09 2.43 1.09 3.78C15.09 50 15 69.14 15 80.18c0 2.87 0 4.95 0 5.7"></path>
<path style="fill:none; fill-opacity:0%; fill-rule:evenodd; stroke:#aaaaaa; stroke-opacity:100%; stroke-width: 1.5pt; stroke-linejoin:round; stroke-linecap:round;" d="M15.38 41.25c7.72-1.21 25.87-3.66 32.14-4.49C50.86 36.32 53 36.6 53 40.5c0 6.8-0.03 32.25-0.03 38.59c0 11.41-3.21 5.66-5.67 2.94"></path>
<path style="fill:none; fill-opacity:0%; fill-rule:evenodd; stroke:#aaaaaa; stroke-opacity:100%; stroke-width: 1.5pt; stroke-linejoin:round; stroke-linecap:round;" d="M27.06 42.22c0.98 0.98 1.04 2.65 1.04 4.82c0 9.34 0.04 17.34-0.04 25.46c-0.02 2.07-0.04 4.16-0.04 6.31"></path>
<path style="fill:none; fill-opacity:0%; fill-rule:evenodd; stroke:#aaaaaa; stroke-opacity:100%; stroke-width: 1.5pt; stroke-linejoin:round; stroke-linecap:round;" d="M38.09 40.13c1.01 1.01 1.29 2.24 1.29 4.07c0 10.97 0.08 20.13 0.03 27.52c-0.02 2.58-0.03 5.07-0.03 7.54"></path>
<path style="fill:none; fill-opacity:0%; fill-rule:evenodd; stroke:#aaaaaa; stroke-opacity:100%; stroke-width: 1.5pt; stroke-linejoin:round; stroke-linecap:round;" d="M59.81 41.23c2.59 0.6 4.59 0.47 7.2 0.06c7.24-1.12 18.17-3.07 26.12-4.02c1.94-0.23 4.37-0.4 6.12 0.22"></path>
<path style="fill:none; fill-opacity:0%; fill-rule:evenodd; stroke:#aaaaaa; stroke-opacity:100%; stroke-width: 1.5pt; stroke-linejoin:round; stroke-linecap:round;" d="M83.21 14.08c0.98 0.98 1.56 2.29 1.56 4.6c0 19.79 0.03 66.39 0.03 71.2c0 11.67-6.32 1.73-8.16 0.24"></path>
<path style="fill:none; fill-opacity:0%; fill-rule:evenodd; stroke:#aaaaaa; stroke-opacity:100%; stroke-width: 1.5pt; stroke-linejoin:round; stroke-linecap:round;" d="M63.88 55.38c2.47 1.92 6.38 7.89 7 10.87"></path>

<path style="fill:none; fill-opacity:0%; fill-rule:evenodd; stroke:#000000; stroke-opacity:100%; stroke-width: 3pt; stroke-linejoin:round; stroke-linecap:round;" d="M13.82 21.12c2.43 0.76 4.86 0.32 6.82 0.06c7.19-0.94 19.6-2.79 27.75-3.49c2.06-0.18 4.16-0.43 6.15 0.26"></path>
<path style="fill:none; fill-opacity:0%; fill-rule:evenodd; stroke:#000000; stroke-opacity:100%; stroke-width: 3pt; stroke-linejoin:round; stroke-linecap:round;" d="M33.56 23.45c0.03 0.44 0.06 1.14-0.06 1.77c-0.51 2.59-2.68 7.33-5.87 11.66"></path>
<path style="fill:none; fill-opacity:0%; fill-rule:evenodd; stroke:#000000; stroke-opacity:100%; stroke-width: 3pt; stroke-linejoin:round; stroke-linecap:round;" d="M14 39.82c1.15 1.15 1.09 2.43 1.09 3.78C15.09 50 15 69.14 15 80.18c0 2.87 0 4.95 0 5.7"></path>
<path style="fill:none; fill-opacity:0%; fill-rule:evenodd; stroke:#000000; stroke-opacity:100%; stroke-width: 3pt; stroke-linejoin:round; stroke-linecap:round;" d="M15.38 41.25c7.72-1.21 25.87-3.66 32.14-4.49C50.86 36.32 53 36.6 53 40.5c0 6.8-0.03 32.25-0.03 38.59c0 11.41-3.21 5.66-5.67 2.94"></path>
<path style="fill:none; fill-opacity:0%; fill-rule:evenodd; stroke:#000000; stroke-opacity:100%; stroke-width: 3pt; stroke-linejoin:round; stroke-linecap:round;" d="M27.06 42.22c0.98 0.98 1.04 2.65 1.04 4.82c0 9.34 0.04 17.34-0.04 25.46c-0.02 2.07-0.04 4.16-0.04 6.31"></path>
<text x="5" y="20" font-size="20" fill="#999999">6</text><path style="fill:none; fill-opacity:0%; fill-rule:evenodd; stroke:#CC0000; stroke-opacity:100%; stroke-width: 3pt; stroke-linejoin:round; stroke-linecap:round;" d="M38.09 40.13c1.01 1.01 1.29 2.24 1.29 4.07c0 10.97 0.08 20.13 0.03 27.52c-0.02 2.58-0.03 5.07-0.03 7.54" marker-end="url(#TriangleRed)" marker-start="url(#ArrowRed)" ></path>




</g><g transform="scale(1.3761467889908 1.3761467889908) translate(109, 109)">
<path style="fill:none; fill-rule:evenodd; stroke:#aaaaaa;  stroke-width:1pt; stroke-linecap:round;" d="m 109 0 L 0 0 L 0 109 L 109 109 L 109 0"></path><path style="fill:none; fill-opacity:0%; fill-rule:evenodd; stroke:#aaaaaa; stroke-opacity:100%; stroke-width: 1.5pt; stroke-linejoin:round; stroke-linecap:round;" d="M13.82 21.12c2.43 0.76 4.86 0.32 6.82 0.06c7.19-0.94 19.6-2.79 27.75-3.49c2.06-0.18 4.16-0.43 6.15 0.26"></path>
<path style="fill:none; fill-opacity:0%; fill-rule:evenodd; stroke:#aaaaaa; stroke-opacity:100%; stroke-width: 1.5pt; stroke-linejoin:round; stroke-linecap:round;" d="M33.56 23.45c0.03 0.44 0.06 1.14-0.06 1.77c-0.51 2.59-2.68 7.33-5.87 11.66"></path>
<path style="fill:none; fill-opacity:0%; fill-rule:evenodd; stroke:#aaaaaa; stroke-opacity:100%; stroke-width: 1.5pt; stroke-linejoin:round; stroke-linecap:round;" d="M14 39.82c1.15 1.15 1.09 2.43 1.09 3.78C15.09 50 15 69.14 15 80.18c0 2.87 0 4.95 0 5.7"></path>
<path style="fill:none; fill-opacity:0%; fill-rule:evenodd; stroke:#aaaaaa; stroke-opacity:100%; stroke-width: 1.5pt; stroke-linejoin:round; stroke-linecap:round;" d="M15.38 41.25c7.72-1.21 25.87-3.66 32.14-4.49C50.86 36.32 53 36.6 53 40.5c0 6.8-0.03 32.25-0.03 38.59c0 11.41-3.21 5.66-5.67 2.94"></path>
<path style="fill:none; fill-opacity:0%; fill-rule:evenodd; stroke:#aaaaaa; stroke-opacity:100%; stroke-width: 1.5pt; stroke-linejoin:round; stroke-linecap:round;" d="M27.06 42.22c0.98 0.98 1.04 2.65 1.04 4.82c0 9.34 0.04 17.34-0.04 25.46c-0.02 2.07-0.04 4.16-0.04 6.31"></path>
<path style="fill:none; fill-opacity:0%; fill-rule:evenodd; stroke:#aaaaaa; stroke-opacity:100%; stroke-width: 1.5pt; stroke-linejoin:round; stroke-linecap:round;" d="M38.09 40.13c1.01 1.01 1.29 2.24 1.29 4.07c0 10.97 0.08 20.13 0.03 27.52c-0.02 2.58-0.03 5.07-0.03 7.54"></path>
<path style="fill:none; fill-opacity:0%; fill-rule:evenodd; stroke:#aaaaaa; stroke-opacity:100%; stroke-width: 1.5pt; stroke-linejoin:round; stroke-linecap:round;" d="M59.81 41.23c2.59 0.6 4.59 0.47 7.2 0.06c7.24-1.12 18.17-3.07 26.12-4.02c1.94-0.23 4.37-0.4 6.12 0.22"></path>
<path style="fill:none; fill-opacity:0%; fill-rule:evenodd; stroke:#aaaaaa; stroke-opacity:100%; stroke-width: 1.5pt; stroke-linejoin:round; stroke-linecap:round;" d="M83.21 14.08c0.98 0.98 1.56 2.29 1.56 4.6c0 19.79 0.03 66.39 0.03 71.2c0 11.67-6.32 1.73-8.16 0.24"></path>
<path style="fill:none; fill-opacity:0%; fill-rule:evenodd; stroke:#aaaaaa; stroke-opacity:100%; stroke-width: 1.5pt; stroke-linejoin:round; stroke-linecap:round;" d="M63.88 55.38c2.47 1.92 6.38 7.89 7 10.87"></path>

<path style="fill:none; fill-opacity:0%; fill-rule:evenodd; stroke:#000000; stroke-opacity:100%; stroke-width: 3pt; stroke-linejoin:round; stroke-linecap:round;" d="M13.82 21.12c2.43 0.76 4.86 0.32 6.82 0.06c7.19-0.94 19.6-2.79 27.75-3.49c2.06-0.18 4.16-0.43 6.15 0.26"></path>
<path style="fill:none; fill-opacity:0%; fill-rule:evenodd; stroke:#000000; stroke-opacity:100%; stroke-width: 3pt; stroke-linejoin:round; stroke-linecap:round;" d="M33.56 23.45c0.03 0.44 0.06 1.14-0.06 1.77c-0.51 2.59-2.68 7.33-5.87 11.66"></path>
<path style="fill:none; fill-opacity:0%; fill-rule:evenodd; stroke:#000000; stroke-opacity:100%; stroke-width: 3pt; stroke-linejoin:round; stroke-linecap:round;" d="M14 39.82c1.15 1.15 1.09 2.43 1.09 3.78C15.09 50 15 69.14 15 80.18c0 2.87 0 4.95 0 5.7"></path>
<path style="fill:none; fill-opacity:0%; fill-rule:evenodd; stroke:#000000; stroke-opacity:100%; stroke-width: 3pt; stroke-linejoin:round; stroke-linecap:round;" d="M15.38 41.25c7.72-1.21 25.87-3.66 32.14-4.49C50.86 36.32 53 36.6 53 40.5c0 6.8-0.03 32.25-0.03 38.59c0 11.41-3.21 5.66-5.67 2.94"></path>
<path style="fill:none; fill-opacity:0%; fill-rule:evenodd; stroke:#000000; stroke-opacity:100%; stroke-width: 3pt; stroke-linejoin:round; stroke-linecap:round;" d="M27.06 42.22c0.98 0.98 1.04 2.65 1.04 4.82c0 9.34 0.04 17.34-0.04 25.46c-0.02 2.07-0.04 4.16-0.04 6.31"></path>
<path style="fill:none; fill-opacity:0%; fill-rule:evenodd; stroke:#000000; stroke-opacity:100%; stroke-width: 3pt; stroke-linejoin:round; stroke-linecap:round;" d="M38.09 40.13c1.01 1.01 1.29 2.24 1.29 4.07c0 10.97 0.08 20.13 0.03 27.52c-0.02 2.58-0.03 5.07-0.03 7.54"></path>
<text x="5" y="20" font-size="20" fill="#999999">7</text><path style="fill:none; fill-opacity:0%; fill-rule:evenodd; stroke:#CC0000; stroke-opacity:100%; stroke-width: 3pt; stroke-linejoin:round; stroke-linecap:round;" d="M59.81 41.23c2.59 0.6 4.59 0.47 7.2 0.06c7.24-1.12 18.17-3.07 26.12-4.02c1.94-0.23 4.37-0.4 6.12 0.22" marker-end="url(#TriangleRed)" marker-start="url(#ArrowRed)" ></path>



</g><g transform="scale(1.3761467889908 1.3761467889908) translate(218, 109)">
<path style="fill:none; fill-rule:evenodd; stroke:#aaaaaa;  stroke-width:1pt; stroke-linecap:round;" d="m 109 0 L 0 0 L 0 109 L 109 109 L 109 0"></path><path style="fill:none; fill-opacity:0%; fill-rule:evenodd; stroke:#aaaaaa; stroke-opacity:100%; stroke-width: 1.5pt; stroke-linejoin:round; stroke-linecap:round;" d="M13.82 21.12c2.43 0.76 4.86 0.32 6.82 0.06c7.19-0.94 19.6-2.79 27.75-3.49c2.06-0.18 4.16-0.43 6.15 0.26"></path>
<path style="fill:none; fill-opacity:0%; fill-rule:evenodd; stroke:#aaaaaa; stroke-opacity:100%; stroke-width: 1.5pt; stroke-linejoin:round; stroke-linecap:round;" d="M33.56 23.45c0.03 0.44 0.06 1.14-0.06 1.77c-0.51 2.59-2.68 7.33-5.87 11.66"></path>
<path style="fill:none; fill-opacity:0%; fill-rule:evenodd; stroke:#aaaaaa; stroke-opacity:100%; stroke-width: 1.5pt; stroke-linejoin:round; stroke-linecap:round;" d="M14 39.82c1.15 1.15 1.09 2.43 1.09 3.78C15.09 50 15 69.14 15 80.18c0 2.87 0 4.95 0 5.7"></path>
<path style="fill:none; fill-opacity:0%; fill-rule:evenodd; stroke:#aaaaaa; stroke-opacity:100%; stroke-width: 1.5pt; stroke-linejoin:round; stroke-linecap:round;" d="M15.38 41.25c7.72-1.21 25.87-3.66 32.14-4.49C50.86 36.32 53 36.6 53 40.5c0 6.8-0.03 32.25-0.03 38.59c0 11.41-3.21 5.66-5.67 2.94"></path>
<path style="fill:none; fill-opacity:0%; fill-rule:evenodd; stroke:#aaaaaa; stroke-opacity:100%; stroke-width: 1.5pt; stroke-linejoin:round; stroke-linecap:round;" d="M27.06 42.22c0.98 0.98 1.04 2.65 1.04 4.82c0 9.34 0.04 17.34-0.04 25.46c-0.02 2.07-0.04 4.16-0.04 6.31"></path>
<path style="fill:none; fill-opacity:0%; fill-rule:evenodd; stroke:#aaaaaa; stroke-opacity:100%; stroke-width: 1.5pt; stroke-linejoin:round; stroke-linecap:round;" d="M38.09 40.13c1.01 1.01 1.29 2.24 1.29 4.07c0 10.97 0.08 20.13 0.03 27.52c-0.02 2.58-0.03 5.07-0.03 7.54"></path>
<path style="fill:none; fill-opacity:0%; fill-rule:evenodd; stroke:#aaaaaa; stroke-opacity:100%; stroke-width: 1.5pt; stroke-linejoin:round; stroke-linecap:round;" d="M59.81 41.23c2.59 0.6 4.59 0.47 7.2 0.06c7.24-1.12 18.17-3.07 26.12-4.02c1.94-0.23 4.37-0.4 6.12 0.22"></path>
<path style="fill:none; fill-opacity:0%; fill-rule:evenodd; stroke:#aaaaaa; stroke-opacity:100%; stroke-width: 1.5pt; stroke-linejoin:round; stroke-linecap:round;" d="M83.21 14.08c0.98 0.98 1.56 2.29 1.56 4.6c0 19.79 0.03 66.39 0.03 71.2c0 11.67-6.32 1.73-8.16 0.24"></path>
<path style="fill:none; fill-opacity:0%; fill-rule:evenodd; stroke:#aaaaaa; stroke-opacity:100%; stroke-width: 1.5pt; stroke-linejoin:round; stroke-linecap:round;" d="M63.88 55.38c2.47 1.92 6.38 7.89 7 10.87"></path>

<path style="fill:none; fill-opacity:0%; fill-rule:evenodd; stroke:#000000; stroke-opacity:100%; stroke-width: 3pt; stroke-linejoin:round; stroke-linecap:round;" d="M13.82 21.12c2.43 0.76 4.86 0.32 6.82 0.06c7.19-0.94 19.6-2.79 27.75-3.49c2.06-0.18 4.16-0.43 6.15 0.26"></path>
<path style="fill:none; fill-opacity:0%; fill-rule:evenodd; stroke:#000000; stroke-opacity:100%; stroke-width: 3pt; stroke-linejoin:round; stroke-linecap:round;" d="M33.56 23.45c0.03 0.44 0.06 1.14-0.06 1.77c-0.51 2.59-2.68 7.33-5.87 11.66"></path>
<path style="fill:none; fill-opacity:0%; fill-rule:evenodd; stroke:#000000; stroke-opacity:100%; stroke-width: 3pt; stroke-linejoin:round; stroke-linecap:round;" d="M14 39.82c1.15 1.15 1.09 2.43 1.09 3.78C15.09 50 15 69.14 15 80.18c0 2.87 0 4.95 0 5.7"></path>
<path style="fill:none; fill-opacity:0%; fill-rule:evenodd; stroke:#000000; stroke-opacity:100%; stroke-width: 3pt; stroke-linejoin:round; stroke-linecap:round;" d="M15.38 41.25c7.72-1.21 25.87-3.66 32.14-4.49C50.86 36.32 53 36.6 53 40.5c0 6.8-0.03 32.25-0.03 38.59c0 11.41-3.21 5.66-5.67 2.94"></path>
<path style="fill:none; fill-opacity:0%; fill-rule:evenodd; stroke:#000000; stroke-opacity:100%; stroke-width: 3pt; stroke-linejoin:round; stroke-linecap:round;" d="M27.06 42.22c0.98 0.98 1.04 2.65 1.04 4.82c0 9.34 0.04 17.34-0.04 25.46c-0.02 2.07-0.04 4.16-0.04 6.31"></path>
<path style="fill:none; fill-opacity:0%; fill-rule:evenodd; stroke:#000000; stroke-opacity:100%; stroke-width: 3pt; stroke-linejoin:round; stroke-linecap:round;" d="M38.09 40.13c1.01 1.01 1.29 2.24 1.29 4.07c0 10.97 0.08 20.13 0.03 27.52c-0.02 2.58-0.03 5.07-0.03 7.54"></path>
<path style="fill:none; fill-opacity:0%; fill-rule:evenodd; stroke:#000000; stroke-opacity:100%; stroke-width: 3pt; stroke-linejoin:round; stroke-linecap:round;" d="M59.81 41.23c2.59 0.6 4.59 0.47 7.2 0.06c7.24-1.12 18.17-3.07 26.12-4.02c1.94-0.23 4.37-0.4 6.12 0.22"></path>
<text x="5" y="20" font-size="20" fill="#999999">8</text><path style="fill:none; fill-opacity:0%; fill-rule:evenodd; stroke:#CC0000; stroke-opacity:100%; stroke-width: 3pt; stroke-linejoin:round; stroke-linecap:round;" d="M83.21 14.08c0.98 0.98 1.56 2.29 1.56 4.6c0 19.79 0.03 66.39 0.03 71.2c0 11.67-6.32 1.73-8.16 0.24" marker-end="url(#TriangleRed)" marker-start="url(#ArrowRed)" ></path>


</g><g transform="scale(1.3761467889908 1.3761467889908) translate(327, 109)">
<path style="fill:none; fill-rule:evenodd; stroke:#aaaaaa;  stroke-width:1pt; stroke-linecap:round;" d="m 109 0 L 0 0 L 0 109 L 109 109 L 109 0"></path><path style="fill:none; fill-opacity:0%; fill-rule:evenodd; stroke:#aaaaaa; stroke-opacity:100%; stroke-width: 1.5pt; stroke-linejoin:round; stroke-linecap:round;" d="M13.82 21.12c2.43 0.76 4.86 0.32 6.82 0.06c7.19-0.94 19.6-2.79 27.75-3.49c2.06-0.18 4.16-0.43 6.15 0.26"></path>
<path style="fill:none; fill-opacity:0%; fill-rule:evenodd; stroke:#aaaaaa; stroke-opacity:100%; stroke-width: 1.5pt; stroke-linejoin:round; stroke-linecap:round;" d="M33.56 23.45c0.03 0.44 0.06 1.14-0.06 1.77c-0.51 2.59-2.68 7.33-5.87 11.66"></path>
<path style="fill:none; fill-opacity:0%; fill-rule:evenodd; stroke:#aaaaaa; stroke-opacity:100%; stroke-width: 1.5pt; stroke-linejoin:round; stroke-linecap:round;" d="M14 39.82c1.15 1.15 1.09 2.43 1.09 3.78C15.09 50 15 69.14 15 80.18c0 2.87 0 4.95 0 5.7"></path>
<path style="fill:none; fill-opacity:0%; fill-rule:evenodd; stroke:#aaaaaa; stroke-opacity:100%; stroke-width: 1.5pt; stroke-linejoin:round; stroke-linecap:round;" d="M15.38 41.25c7.72-1.21 25.87-3.66 32.14-4.49C50.86 36.32 53 36.6 53 40.5c0 6.8-0.03 32.25-0.03 38.59c0 11.41-3.21 5.66-5.67 2.94"></path>
<path style="fill:none; fill-opacity:0%; fill-rule:evenodd; stroke:#aaaaaa; stroke-opacity:100%; stroke-width: 1.5pt; stroke-linejoin:round; stroke-linecap:round;" d="M27.06 42.22c0.98 0.98 1.04 2.65 1.04 4.82c0 9.34 0.04 17.34-0.04 25.46c-0.02 2.07-0.04 4.16-0.04 6.31"></path>
<path style="fill:none; fill-opacity:0%; fill-rule:evenodd; stroke:#aaaaaa; stroke-opacity:100%; stroke-width: 1.5pt; stroke-linejoin:round; stroke-linecap:round;" d="M38.09 40.13c1.01 1.01 1.29 2.24 1.29 4.07c0 10.97 0.08 20.13 0.03 27.52c-0.02 2.58-0.03 5.07-0.03 7.54"></path>
<path style="fill:none; fill-opacity:0%; fill-rule:evenodd; stroke:#aaaaaa; stroke-opacity:100%; stroke-width: 1.5pt; stroke-linejoin:round; stroke-linecap:round;" d="M59.81 41.23c2.59 0.6 4.59 0.47 7.2 0.06c7.24-1.12 18.17-3.07 26.12-4.02c1.94-0.23 4.37-0.4 6.12 0.22"></path>
<path style="fill:none; fill-opacity:0%; fill-rule:evenodd; stroke:#aaaaaa; stroke-opacity:100%; stroke-width: 1.5pt; stroke-linejoin:round; stroke-linecap:round;" d="M83.21 14.08c0.98 0.98 1.56 2.29 1.56 4.6c0 19.79 0.03 66.39 0.03 71.2c0 11.67-6.32 1.73-8.16 0.24"></path>
<path style="fill:none; fill-opacity:0%; fill-rule:evenodd; stroke:#aaaaaa; stroke-opacity:100%; stroke-width: 1.5pt; stroke-linejoin:round; stroke-linecap:round;" d="M63.88 55.38c2.47 1.92 6.38 7.89 7 10.87"></path>

<path style="fill:none; fill-opacity:0%; fill-rule:evenodd; stroke:#000000; stroke-opacity:100%; stroke-width: 3pt; stroke-linejoin:round; stroke-linecap:round;" d="M13.82 21.12c2.43 0.76 4.86 0.32 6.82 0.06c7.19-0.94 19.6-2.79 27.75-3.49c2.06-0.18 4.16-0.43 6.15 0.26"></path>
<path style="fill:none; fill-opacity:0%; fill-rule:evenodd; stroke:#000000; stroke-opacity:100%; stroke-width: 3pt; stroke-linejoin:round; stroke-linecap:round;" d="M33.56 23.45c0.03 0.44 0.06 1.14-0.06 1.77c-0.51 2.59-2.68 7.33-5.87 11.66"></path>
<path style="fill:none; fill-opacity:0%; fill-rule:evenodd; stroke:#000000; stroke-opacity:100%; stroke-width: 3pt; stroke-linejoin:round; stroke-linecap:round;" d="M14 39.82c1.15 1.15 1.09 2.43 1.09 3.78C15.09 50 15 69.14 15 80.18c0 2.87 0 4.95 0 5.7"></path>
<path style="fill:none; fill-opacity:0%; fill-rule:evenodd; stroke:#000000; stroke-opacity:100%; stroke-width: 3pt; stroke-linejoin:round; stroke-linecap:round;" d="M15.38 41.25c7.72-1.21 25.87-3.66 32.14-4.49C50.86 36.32 53 36.6 53 40.5c0 6.8-0.03 32.25-0.03 38.59c0 11.41-3.21 5.66-5.67 2.94"></path>
<path style="fill:none; fill-opacity:0%; fill-rule:evenodd; stroke:#000000; stroke-opacity:100%; stroke-width: 3pt; stroke-linejoin:round; stroke-linecap:round;" d="M27.06 42.22c0.98 0.98 1.04 2.65 1.04 4.82c0 9.34 0.04 17.34-0.04 25.46c-0.02 2.07-0.04 4.16-0.04 6.31"></path>
<path style="fill:none; fill-opacity:0%; fill-rule:evenodd; stroke:#000000; stroke-opacity:100%; stroke-width: 3pt; stroke-linejoin:round; stroke-linecap:round;" d="M38.09 40.13c1.01 1.01 1.29 2.24 1.29 4.07c0 10.97 0.08 20.13 0.03 27.52c-0.02 2.58-0.03 5.07-0.03 7.54"></path>
<path style="fill:none; fill-opacity:0%; fill-rule:evenodd; stroke:#000000; stroke-opacity:100%; stroke-width: 3pt; stroke-linejoin:round; stroke-linecap:round;" d="M59.81 41.23c2.59 0.6 4.59 0.47 7.2 0.06c7.24-1.12 18.17-3.07 26.12-4.02c1.94-0.23 4.37-0.4 6.12 0.22"></path>
<path style="fill:none; fill-opacity:0%; fill-rule:evenodd; stroke:#000000; stroke-opacity:100%; stroke-width: 3pt; stroke-linejoin:round; stroke-linecap:round;" d="M83.21 14.08c0.98 0.98 1.56 2.29 1.56 4.6c0 19.79 0.03 66.39 0.03 71.2c0 11.67-6.32 1.73-8.16 0.24"></path>
<text x="5" y="20" font-size="20" fill="#999999">9</text><path style="fill:none; fill-opacity:0%; fill-rule:evenodd; stroke:#CC0000; stroke-opacity:100%; stroke-width: 3pt; stroke-linejoin:round; stroke-linecap:round;" d="M63.88 55.38c2.47 1.92 6.38 7.89 7 10.87" marker-end="url(#TriangleRed)" marker-start="url(#ArrowRed)" ></path>

</g>

</svg>  
          
