<?xml version="1.0" standalone="no"?>
<!DOCTYPE svg PUBLIC "-//W3C//DTD SVG 1.1//EN"   "http://www.w3.org/Graphics/SVG/1.1/DTD/svg11.dtd">
<svg width="751" height="301"  version="1.1" xmlns="http://www.w3.org/2000/svg">
  <defs>
    <marker id="Triangle" viewBox="0 0 10 10" refX="0" refY="5" markerUnits="strokeWidth" markerWidth="3" style="stroke-opacity:0%;fill:#aaaaaa;" markerHeight="2" orient="auto">
      <path d="M 0 0 L 10 5 L 0 10 z" />
    </marker>
    
    <marker id="Arrow" viewBox="0 0 10 10" refX="5" refY="5" markerUnits="strokeWidth" markerWidth="1.8" style="stroke-opacity:0%;fill:#770000;" markerHeight="2" orient="auto">
      <path d="M 0 4 L 6 4 L 4 1 L 10 5 L 4 9 L 6 6 L 0 6 z" />
        <circle cx="5" cy="5" r="5" />
      </marker>
    
    <marker id="TriangleRed" viewBox="0 0 10 10" refX="0" refY="5" markerUnits="strokeWidth" markerWidth="3" style="stroke-opacity:0%;fill:#CC0000;" markerHeight="2" orient="auto">
      <path d="M 0 0 L 10 5 L 0 10 z" />
    </marker>
    
    <marker id="ArrowRed" viewBox="0 0 10 10" refX="5" refY="5" markerUnits="strokeWidth" markerWidth="1.8" style="stroke-opacity:0%;fill:#CC0000;" markerHeight="2" orient="auto">
      <path d="M 0 4 L 6 4 L 4 1 L 10 5 L 4 9 L 6 6 L 0 6 z" />
        <circle cx="5" cy="5" r="5" />
      </marker>
    
  </defs>
  
  <path style="fill:#ffffff; fill-opacity:100%; fill-rule:evenodd; stroke-width:0;" d="M 0 0 L 751 0 L 751 301 L 0 301 L 0 0" />

  <g transform="scale(1.3761467889908 1.3761467889908) translate(0, 0)">
<path style="fill:none; fill-rule:evenodd; stroke:#aaaaaa;  stroke-width:1pt; stroke-linecap:round;" d="m 109 0 L 0 0 L 0 109 L 109 109 L 109 0"></path><path style="fill:none; fill-opacity:0%; fill-rule:evenodd; stroke:#aaaaaa; stroke-opacity:100%; stroke-width: 1.5pt; stroke-linejoin:round; stroke-linecap:round;" d="M19.22 19.99c0.52 0.95 0.88 1.88 1.05 2.8c0.17 0.92 0.15 25.9-0.41 33.63c-0.8 11-2.61 22.08-8.61 34.72"></path>
<path style="fill:none; fill-opacity:0%; fill-rule:evenodd; stroke:#aaaaaa; stroke-opacity:100%; stroke-width: 1.5pt; stroke-linejoin:round; stroke-linecap:round;" d="M20.82 21.06c2.1-0.06 11.65-2.34 13.21-2.46c2.8-0.23 3.5 1.31 3.5 2.67c0 3.23-0.53 46.22-0.53 64.55c0 10.69-4.41 3.05-6.2 1.54"></path>
<path style="fill:none; fill-opacity:0%; fill-rule:evenodd; stroke:#aaaaaa; stroke-opacity:100%; stroke-width: 1.5pt; stroke-linejoin:round; stroke-linecap:round;" d="M20.82 39.95c4.61-0.35 12.03-2.04 16.08-2.07"></path>
<path style="fill:none; fill-opacity:0%; fill-rule:evenodd; stroke:#aaaaaa; stroke-opacity:100%; stroke-width: 1.5pt; stroke-linejoin:round; stroke-linecap:round;" d="M20.26 57.4c3.79-0.08 11.64-1.28 16.79-1.7"></path>
<path style="fill:none; fill-opacity:0%; fill-rule:evenodd; stroke:#aaaaaa; stroke-opacity:100%; stroke-width: 1.5pt; stroke-linejoin:round; stroke-linecap:round;" d="M48.2 20.56c0.31 0.66 1.33 2.6 1.49 3.41c1.56 8.28 3.15 21.23 3.97 33.53"></path>
<path style="fill:none; fill-opacity:0%; fill-rule:evenodd; stroke:#aaaaaa; stroke-opacity:100%; stroke-width: 1.5pt; stroke-linejoin:round; stroke-linecap:round;" d="M49.67 22c12.02-1.52 31.07-4.11 39.34-4.77c3.04-0.24 4.86 1.17 4.75 3.94C93.52 27.76 91 51.25 89.8 55.3"></path>
<path style="fill:none; fill-opacity:0%; fill-rule:evenodd; stroke:#aaaaaa; stroke-opacity:100%; stroke-width: 1.5pt; stroke-linejoin:round; stroke-linecap:round;" d="M52.15 37.2C59 36.25 83 34.25 92.29 34.05"></path>
<path style="fill:none; fill-opacity:0%; fill-rule:evenodd; stroke:#aaaaaa; stroke-opacity:100%; stroke-width: 1.5pt; stroke-linejoin:round; stroke-linecap:round;" d="M53.74 53.88C65.75 53 78.96 51.46 90.4 50.83"></path>
<path style="fill:none; fill-opacity:0%; fill-rule:evenodd; stroke:#aaaaaa; stroke-opacity:100%; stroke-width: 1.5pt; stroke-linejoin:round; stroke-linecap:round;" d="M69.36 22.19c0.89 0.56 1.44 2.03 1.44 3.81c-0.03 8.98 0.3 66.54 0.3 69.47"></path>

<text x="5" y="20" font-size="20" fill="#999999">1</text><path style="fill:none; fill-opacity:0%; fill-rule:evenodd; stroke:#CC0000; stroke-opacity:100%; stroke-width: 3pt; stroke-linejoin:round; stroke-linecap:round;" d="M19.22 19.99c0.52 0.95 0.88 1.88 1.05 2.8c0.17 0.92 0.15 25.9-0.41 33.63c-0.8 11-2.61 22.08-8.61 34.72" marker-end="url(#TriangleRed)" marker-start="url(#ArrowRed)" ></path>









</g><g transform="scale(1.3761467889908 1.3761467889908) translate(109, 0)">
<path style="fill:none; fill-rule:evenodd; stroke:#aaaaaa;  stroke-width:1pt; stroke-linecap:round;" d="m 109 0 L 0 0 L 0 109 L 109 109 L 109 0"></path><path style="fill:none; fill-opacity:0%; fill-rule:evenodd; stroke:#aaaaaa; stroke-opacity:100%; stroke-width: 1.5pt; stroke-linejoin:round; stroke-linecap:round;" d="M19.22 19.99c0.52 0.95 0.88 1.88 1.05 2.8c0.17 0.92 0.15 25.9-0.41 33.63c-0.8 11-2.61 22.08-8.61 34.72"></path>
<path style="fill:none; fill-opacity:0%; fill-rule:evenodd; stroke:#aaaaaa; stroke-opacity:100%; stroke-width: 1.5pt; stroke-linejoin:round; stroke-linecap:round;" d="M20.82 21.06c2.1-0.06 11.65-2.34 13.21-2.46c2.8-0.23 3.5 1.31 3.5 2.67c0 3.23-0.53 46.22-0.53 64.55c0 10.69-4.41 3.05-6.2 1.54"></path>
<path style="fill:none; fill-opacity:0%; fill-rule:evenodd; stroke:#aaaaaa; stroke-opacity:100%; stroke-width: 1.5pt; stroke-linejoin:round; stroke-linecap:round;" d="M20.82 39.95c4.61-0.35 12.03-2.04 16.08-2.07"></path>
<path style="fill:none; fill-opacity:0%; fill-rule:evenodd; stroke:#aaaaaa; stroke-opacity:100%; stroke-width: 1.5pt; stroke-linejoin:round; stroke-linecap:round;" d="M20.26 57.4c3.79-0.08 11.64-1.28 16.79-1.7"></path>
<path style="fill:none; fill-opacity:0%; fill-rule:evenodd; stroke:#aaaaaa; stroke-opacity:100%; stroke-width: 1.5pt; stroke-linejoin:round; stroke-linecap:round;" d="M48.2 20.56c0.31 0.66 1.33 2.6 1.49 3.41c1.56 8.28 3.15 21.23 3.97 33.53"></path>
<path style="fill:none; fill-opacity:0%; fill-rule:evenodd; stroke:#aaaaaa; stroke-opacity:100%; stroke-width: 1.5pt; stroke-linejoin:round; stroke-linecap:round;" d="M49.67 22c12.02-1.52 31.07-4.11 39.34-4.77c3.04-0.24 4.86 1.17 4.75 3.94C93.52 27.76 91 51.25 89.8 55.3"></path>
<path style="fill:none; fill-opacity:0%; fill-rule:evenodd; stroke:#aaaaaa; stroke-opacity:100%; stroke-width: 1.5pt; stroke-linejoin:round; stroke-linecap:round;" d="M52.15 37.2C59 36.25 83 34.25 92.29 34.05"></path>
<path style="fill:none; fill-opacity:0%; fill-rule:evenodd; stroke:#aaaaaa; stroke-opacity:100%; stroke-width: 1.5pt; stroke-linejoin:round; stroke-linecap:round;" d="M53.74 53.88C65.75 53 78.96 51.46 90.4 50.83"></path>
<path style="fill:none; fill-opacity:0%; fill-rule:evenodd; stroke:#aaaaaa; stroke-opacity:100%; stroke-width: 1.5pt; stroke-linejoin:round; stroke-linecap:round;" d="M69.36 22.19c0.89 0.56 1.44 2.03 1.44 3.81c-0.03 8.98 0.3 66.54 0.3 69.47"></path>

<path style="fill:none; fill-opacity:0%; fill-rule:evenodd; stroke:#000000; stroke-opacity:100%; stroke-width: 3pt; stroke-linejoin:round; stroke-linecap:round;" d="M19.22 19.99c0.52 0.95 0.88 1.88 1.05 2.8c0.17 0.92 0.15 25.9-0.41 33.63c-0.8 11-2.61 22.08-8.61 34.72"></path>
<text x="5" y="20" font-size="20" fill="#999999">2</text><path style="fill:none; fill-opacity:0%; fill-rule:evenodd; stroke:#CC0000; stroke-opacity:100%; stroke-width: 3pt; stroke-linejoin:round; stroke-linecap:round;" d="M20.82 21.06c2.1-0.06 11.65-2.34 13.21-2.46c2.8-0.23 3.5 1.31 3.5 2.67c0 3.23-0.53 46.22-0.53 64.55c0 10.69-4.41 3.05-6.2 1.54" marker-end="url(#TriangleRed)" marker-start="url(#ArrowRed)" ></path>








</g><g transform="scale(1.3761467889908 1.3761467889908) translate(218, 0)">
<path style="fill:none; fill-rule:evenodd; stroke:#aaaaaa;  stroke-width:1pt; stroke-linecap:round;" d="m 109 0 L 0 0 L 0 109 L 109 109 L 109 0"></path><path style="fill:none; fill-opacity:0%; fill-rule:evenodd; stroke:#aaaaaa; stroke-opacity:100%; stroke-width: 1.5pt; stroke-linejoin:round; stroke-linecap:round;" d="M19.22 19.99c0.52 0.95 0.88 1.88 1.05 2.8c0.17 0.92 0.15 25.9-0.41 33.63c-0.8 11-2.61 22.08-8.61 34.72"></path>
<path style="fill:none; fill-opacity:0%; fill-rule:evenodd; stroke:#aaaaaa; stroke-opacity:100%; stroke-width: 1.5pt; stroke-linejoin:round; stroke-linecap:round;" d="M20.82 21.06c2.1-0.06 11.65-2.34 13.21-2.46c2.8-0.23 3.5 1.31 3.5 2.67c0 3.23-0.53 46.22-0.53 64.55c0 10.69-4.41 3.05-6.2 1.54"></path>
<path style="fill:none; fill-opacity:0%; fill-rule:evenodd; stroke:#aaaaaa; stroke-opacity:100%; stroke-width: 1.5pt; stroke-linejoin:round; stroke-linecap:round;" d="M20.82 39.95c4.61-0.35 12.03-2.04 16.08-2.07"></path>
<path style="fill:none; fill-opacity:0%; fill-rule:evenodd; stroke:#aaaaaa; stroke-opacity:100%; stroke-width: 1.5pt; stroke-linejoin:round; stroke-linecap:round;" d="M20.26 57.4c3.79-0.08 11.64-1.28 16.79-1.7"></path>
<path style="fill:none; fill-opacity:0%; fill-rule:evenodd; stroke:#aaaaaa; stroke-opacity:100%; stroke-width: 1.5pt; stroke-linejoin:round; stroke-linecap:round;" d="M48.2 20.56c0.31 0.66 1.33 2.6 1.49 3.41c1.56 8.28 3.15 21.23 3.97 33.53"></path>
<path style="fill:none; fill-opacity:0%; fill-rule:evenodd; stroke:#aaaaaa; stroke-opacity:100%; stroke-width: 1.5pt; stroke-linejoin:round; stroke-linecap:round;" d="M49.67 22c12.02-1.52 31.07-4.11 39.34-4.77c3.04-0.24 4.86 1.17 4.75 3.94C93.52 27.76 91 51.25 89.8 55.3"></path>
<path style="fill:none; fill-opacity:0%; fill-rule:evenodd; stroke:#aaaaaa; stroke-opacity:100%; stroke-width: 1.5pt; stroke-linejoin:round; stroke-linecap:round;" d="M52.15 37.2C59 36.25 83 34.25 92.29 34.05"></path>
<path style="fill:none; fill-opacity:0%; fill-rule:evenodd; stroke:#aaaaaa; stroke-opacity:100%; stroke-width: 1.5pt; stroke-linejoin:round; stroke-linecap:round;" d="M53.74 53.88C65.75 53 78.96 51.46 90.4 50.83"></path>
<path style="fill:none; fill-opacity:0%; fill-rule:evenodd; stroke:#aaaaaa; stroke-opacity:100%; stroke-width: 1.5pt; stroke-linejoin:round; stroke-linecap:round;" d="M69.36 22.19c0.89 0.56 1.44 2.03 1.44 3.81c-0.03 8.98 0.3 66.54 0.3 69.47"></path>

<path style="fill:none; fill-opacity:0%; fill-rule:evenodd; stroke:#000000; stroke-opacity:100%; stroke-width: 3pt; stroke-linejoin:round; stroke-linecap:round;" d="M19.22 19.99c0.52 0.95 0.88 1.88 1.05 2.8c0.17 0.92 0.15 25.9-0.41 33.63c-0.8 11-2.61 22.08-8.61 34.72"></path>
<path style="fill:none; fill-opacity:0%; fill-rule:evenodd; stroke:#000000; stroke-opacity:100%; stroke-width: 3pt; stroke-linejoin:round; stroke-linecap:round;" d="M20.82 21.06c2.1-0.06 11.65-2.34 13.21-2.46c2.8-0.23 3.5 1.31 3.5 2.67c0 3.23-0.53 46.22-0.53 64.55c0 10.69-4.41 3.05-6.2 1.54"></path>
<text x="5" y="20" font-size="20" fill="#999999">3</text><path style="fill:none; fill-opacity:0%; fill-rule:evenodd; stroke:#CC0000; stroke-opacity:100%; stroke-width: 3pt; stroke-linejoin:round; stroke-linecap:round;" d="M20.82 39.95c4.61-0.35 12.03-2.04 16.08-2.07" marker-end="url(#TriangleRed)" marker-start="url(#ArrowRed)" ></path>







</g><g transform="scale(1.3761467889908 1.3761467889908) translate(327, 0)">
<path style="fill:none; fill-rule:evenodd; stroke:#aaaaaa;  stroke-width:1pt; stroke-linecap:round;" d="m 109 0 L 0 0 L 0 109 L 109 109 L 109 0"></path><path style="fill:none; fill-opacity:0%; fill-rule:evenodd; stroke:#aaaaaa; stroke-opacity:100%; stroke-width: 1.5pt; stroke-linejoin:round; stroke-linecap:round;" d="M19.22 19.99c0.52 0.95 0.88 1.88 1.05 2.8c0.17 0.92 0.15 25.9-0.41 33.63c-0.8 11-2.61 22.08-8.61 34.72"></path>
<path style="fill:none; fill-opacity:0%; fill-rule:evenodd; stroke:#aaaaaa; stroke-opacity:100%; stroke-width: 1.5pt; stroke-linejoin:round; stroke-linecap:round;" d="M20.82 21.06c2.1-0.06 11.65-2.34 13.21-2.46c2.8-0.23 3.5 1.31 3.5 2.67c0 3.23-0.53 46.22-0.53 64.55c0 10.69-4.41 3.05-6.2 1.54"></path>
<path style="fill:none; fill-opacity:0%; fill-rule:evenodd; stroke:#aaaaaa; stroke-opacity:100%; stroke-width: 1.5pt; stroke-linejoin:round; stroke-linecap:round;" d="M20.82 39.95c4.61-0.35 12.03-2.04 16.08-2.07"></path>
<path style="fill:none; fill-opacity:0%; fill-rule:evenodd; stroke:#aaaaaa; stroke-opacity:100%; stroke-width: 1.5pt; stroke-linejoin:round; stroke-linecap:round;" d="M20.26 57.4c3.79-0.08 11.64-1.28 16.79-1.7"></path>
<path style="fill:none; fill-opacity:0%; fill-rule:evenodd; stroke:#aaaaaa; stroke-opacity:100%; stroke-width: 1.5pt; stroke-linejoin:round; stroke-linecap:round;" d="M48.2 20.56c0.31 0.66 1.33 2.6 1.49 3.41c1.56 8.28 3.15 21.23 3.97 33.53"></path>
<path style="fill:none; fill-opacity:0%; fill-rule:evenodd; stroke:#aaaaaa; stroke-opacity:100%; stroke-width: 1.5pt; stroke-linejoin:round; stroke-linecap:round;" d="M49.67 22c12.02-1.52 31.07-4.11 39.34-4.77c3.04-0.24 4.86 1.17 4.75 3.94C93.52 27.76 91 51.25 89.8 55.3"></path>
<path style="fill:none; fill-opacity:0%; fill-rule:evenodd; stroke:#aaaaaa; stroke-opacity:100%; stroke-width: 1.5pt; stroke-linejoin:round; stroke-linecap:round;" d="M52.15 37.2C59 36.25 83 34.25 92.29 34.05"></path>
<path style="fill:none; fill-opacity:0%; fill-rule:evenodd; stroke:#aaaaaa; stroke-opacity:100%; stroke-width: 1.5pt; stroke-linejoin:round; stroke-linecap:round;" d="M53.74 53.88C65.75 53 78.96 51.46 90.4 50.83"></path>
<path style="fill:none; fill-opacity:0%; fill-rule:evenodd; stroke:#aaaaaa; stroke-opacity:100%; stroke-width: 1.5pt; stroke-linejoin:round; stroke-linecap:round;" d="M69.36 22.19c0.89 0.56 1.44 2.03 1.44 3.81c-0.03 8.98 0.3 66.54 0.3 69.47"></path>

<path style="fill:none; fill-opacity:0%; fill-rule:evenodd; stroke:#000000; stroke-opacity:100%; stroke-width: 3pt; stroke-linejoin:round; stroke-linecap:round;" d="M19.22 19.99c0.52 0.95 0.88 1.88 1.05 2.8c0.17 0.92 0.15 25.9-0.41 33.63c-0.8 11-2.61 22.08-8.61 34.72"></path>
<path style="fill:none; fill-opacity:0%; fill-rule:evenodd; stroke:#000000; stroke-opacity:100%; stroke-width: 3pt; stroke-linejoin:round; stroke-linecap:round;" d="M20.82 21.06c2.1-0.06 11.65-2.34 13.21-2.46c2.8-0.23 3.5 1.31 3.5 2.67c0 3.23-0.53 46.22-0.53 64.55c0 10.69-4.41 3.05-6.2 1.54"></path>
<path style="fill:none; fill-opacity:0%; fill-rule:evenodd; stroke:#000000; stroke-opacity:100%; stroke-width: 3pt; stroke-linejoin:round; stroke-linecap:round;" d="M20.82 39.95c4.61-0.35 12.03-2.04 16.08-2.07"></path>
<text x="5" y="20" font-size="20" fill="#999999">4</text><path style="fill:none; fill-opacity:0%; fill-rule:evenodd; stroke:#CC0000; stroke-opacity:100%; stroke-width: 3pt; stroke-linejoin:round; stroke-linecap:round;" d="M20.26 57.4c3.79-0.08 11.64-1.28 16.79-1.7" marker-end="url(#TriangleRed)" marker-start="url(#ArrowRed)" ></path>






</g><g transform="scale(1.3761467889908 1.3761467889908) translate(436, 0)">
<path style="fill:none; fill-rule:evenodd; stroke:#aaaaaa;  stroke-width:1pt; stroke-linecap:round;" d="m 109 0 L 0 0 L 0 109 L 109 109 L 109 0"></path><path style="fill:none; fill-opacity:0%; fill-rule:evenodd; stroke:#aaaaaa; stroke-opacity:100%; stroke-width: 1.5pt; stroke-linejoin:round; stroke-linecap:round;" d="M19.22 19.99c0.52 0.95 0.88 1.88 1.05 2.8c0.17 0.92 0.15 25.9-0.41 33.63c-0.8 11-2.61 22.08-8.61 34.72"></path>
<path style="fill:none; fill-opacity:0%; fill-rule:evenodd; stroke:#aaaaaa; stroke-opacity:100%; stroke-width: 1.5pt; stroke-linejoin:round; stroke-linecap:round;" d="M20.82 21.06c2.1-0.06 11.65-2.34 13.21-2.46c2.8-0.23 3.5 1.31 3.5 2.67c0 3.23-0.53 46.22-0.53 64.55c0 10.69-4.41 3.05-6.2 1.54"></path>
<path style="fill:none; fill-opacity:0%; fill-rule:evenodd; stroke:#aaaaaa; stroke-opacity:100%; stroke-width: 1.5pt; stroke-linejoin:round; stroke-linecap:round;" d="M20.82 39.95c4.61-0.35 12.03-2.04 16.08-2.07"></path>
<path style="fill:none; fill-opacity:0%; fill-rule:evenodd; stroke:#aaaaaa; stroke-opacity:100%; stroke-width: 1.5pt; stroke-linejoin:round; stroke-linecap:round;" d="M20.26 57.4c3.79-0.08 11.64-1.28 16.79-1.7"></path>
<path style="fill:none; fill-opacity:0%; fill-rule:evenodd; stroke:#aaaaaa; stroke-opacity:100%; stroke-width: 1.5pt; stroke-linejoin:round; stroke-linecap:round;" d="M48.2 20.56c0.31 0.66 1.33 2.6 1.49 3.41c1.56 8.28 3.15 21.23 3.97 33.53"></path>
<path style="fill:none; fill-opacity:0%; fill-rule:evenodd; stroke:#aaaaaa; stroke-opacity:100%; stroke-width: 1.5pt; stroke-linejoin:round; stroke-linecap:round;" d="M49.67 22c12.02-1.52 31.07-4.11 39.34-4.77c3.04-0.24 4.86 1.17 4.75 3.94C93.52 27.76 91 51.25 89.8 55.3"></path>
<path style="fill:none; fill-opacity:0%; fill-rule:evenodd; stroke:#aaaaaa; stroke-opacity:100%; stroke-width: 1.5pt; stroke-linejoin:round; stroke-linecap:round;" d="M52.15 37.2C59 36.25 83 34.25 92.29 34.05"></path>
<path style="fill:none; fill-opacity:0%; fill-rule:evenodd; stroke:#aaaaaa; stroke-opacity:100%; stroke-width: 1.5pt; stroke-linejoin:round; stroke-linecap:round;" d="M53.74 53.88C65.75 53 78.96 51.46 90.4 50.83"></path>
<path style="fill:none; fill-opacity:0%; fill-rule:evenodd; stroke:#aaaaaa; stroke-opacity:100%; stroke-width: 1.5pt; stroke-linejoin:round; stroke-linecap:round;" d="M69.36 22.19c0.89 0.56 1.44 2.03 1.44 3.81c-0.03 8.98 0.3 66.54 0.3 69.47"></path>

<path style="fill:none; fill-opacity:0%; fill-rule:evenodd; stroke:#000000; stroke-opacity:100%; stroke-width: 3pt; stroke-linejoin:round; stroke-linecap:round;" d="M19.22 19.99c0.52 0.95 0.88 1.88 1.05 2.8c0.17 0.92 0.15 25.9-0.41 33.63c-0.8 11-2.61 22.08-8.61 34.72"></path>
<path style="fill:none; fill-opacity:0%; fill-rule:evenodd; stroke:#000000; stroke-opacity:100%; stroke-width: 3pt; stroke-linejoin:round; stroke-linecap:round;" d="M20.82 21.06c2.1-0.06 11.65-2.34 13.21-2.46c2.8-0.23 3.5 1.31 3.5 2.67c0 3.23-0.53 46.22-0.53 64.55c0 10.69-4.41 3.05-6.2 1.54"></path>
<path style="fill:none; fill-opacity:0%; fill-rule:evenodd; stroke:#000000; stroke-opacity:100%; stroke-width: 3pt; stroke-linejoin:round; stroke-linecap:round;" d="M20.82 39.95c4.61-0.35 12.03-2.04 16.08-2.07"></path>
<path style="fill:none; fill-opacity:0%; fill-rule:evenodd; stroke:#000000; stroke-opacity:100%; stroke-width: 3pt; stroke-linejoin:round; stroke-linecap:round;" d="M20.26 57.4c3.79-0.08 11.64-1.28 16.79-1.7"></path>
<text x="5" y="20" font-size="20" fill="#999999">5</text><path style="fill:none; fill-opacity:0%; fill-rule:evenodd; stroke:#CC0000; stroke-opacity:100%; stroke-width: 3pt; stroke-linejoin:round; stroke-linecap:round;" d="M48.2 20.56c0.31 0.66 1.33 2.6 1.49 3.41c1.56 8.28 3.15 21.23 3.97 33.53" marker-end="url(#TriangleRed)" marker-start="url(#ArrowRed)" ></path>





</g><g transform="scale(1.3761467889908 1.3761467889908) translate(0, 109)">
<path style="fill:none; fill-rule:evenodd; stroke:#aaaaaa;  stroke-width:1pt; stroke-linecap:round;" d="m 109 0 L 0 0 L 0 109 L 109 109 L 109 0"></path><path style="fill:none; fill-opacity:0%; fill-rule:evenodd; stroke:#aaaaaa; stroke-opacity:100%; stroke-width: 1.5pt; stroke-linejoin:round; stroke-linecap:round;" d="M19.22 19.99c0.52 0.95 0.88 1.88 1.05 2.8c0.17 0.92 0.15 25.9-0.41 33.63c-0.8 11-2.61 22.08-8.61 34.72"></path>
<path style="fill:none; fill-opacity:0%; fill-rule:evenodd; stroke:#aaaaaa; stroke-opacity:100%; stroke-width: 1.5pt; stroke-linejoin:round; stroke-linecap:round;" d="M20.82 21.06c2.1-0.06 11.65-2.34 13.21-2.46c2.8-0.23 3.5 1.31 3.5 2.67c0 3.23-0.53 46.22-0.53 64.55c0 10.69-4.41 3.05-6.2 1.54"></path>
<path style="fill:none; fill-opacity:0%; fill-rule:evenodd; stroke:#aaaaaa; stroke-opacity:100%; stroke-width: 1.5pt; stroke-linejoin:round; stroke-linecap:round;" d="M20.82 39.95c4.61-0.35 12.03-2.04 16.08-2.07"></path>
<path style="fill:none; fill-opacity:0%; fill-rule:evenodd; stroke:#aaaaaa; stroke-opacity:100%; stroke-width: 1.5pt; stroke-linejoin:round; stroke-linecap:round;" d="M20.26 57.4c3.79-0.08 11.64-1.28 16.79-1.7"></path>
<path style="fill:none; fill-opacity:0%; fill-rule:evenodd; stroke:#aaaaaa; stroke-opacity:100%; stroke-width: 1.5pt; stroke-linejoin:round; stroke-linecap:round;" d="M48.2 20.56c0.31 0.66 1.33 2.6 1.49 3.41c1.56 8.28 3.15 21.23 3.97 33.53"></path>
<path style="fill:none; fill-opacity:0%; fill-rule:evenodd; stroke:#aaaaaa; stroke-opacity:100%; stroke-width: 1.5pt; stroke-linejoin:round; stroke-linecap:round;" d="M49.67 22c12.02-1.52 31.07-4.11 39.34-4.77c3.04-0.24 4.86 1.17 4.75 3.94C93.52 27.76 91 51.25 89.8 55.3"></path>
<path style="fill:none; fill-opacity:0%; fill-rule:evenodd; stroke:#aaaaaa; stroke-opacity:100%; stroke-width: 1.5pt; stroke-linejoin:round; stroke-linecap:round;" d="M52.15 37.2C59 36.25 83 34.25 92.29 34.05"></path>
<path style="fill:none; fill-opacity:0%; fill-rule:evenodd; stroke:#aaaaaa; stroke-opacity:100%; stroke-width: 1.5pt; stroke-linejoin:round; stroke-linecap:round;" d="M53.74 53.88C65.75 53 78.96 51.46 90.4 50.83"></path>
<path style="fill:none; fill-opacity:0%; fill-rule:evenodd; stroke:#aaaaaa; stroke-opacity:100%; stroke-width: 1.5pt; stroke-linejoin:round; stroke-linecap:round;" d="M69.36 22.19c0.89 0.56 1.44 2.03 1.44 3.81c-0.03 8.98 0.3 66.54 0.3 69.47"></path>

<path style="fill:none; fill-opacity:0%; fill-rule:evenodd; stroke:#000000; stroke-opacity:100%; stroke-width: 3pt; stroke-linejoin:round; stroke-linecap:round;" d="M19.22 19.99c0.52 0.95 0.88 1.88 1.05 2.8c0.17 0.92 0.15 25.9-0.41 33.63c-0.8 11-2.61 22.08-8.61 34.72"></path>
<path style="fill:none; fill-opacity:0%; fill-rule:evenodd; stroke:#000000; stroke-opacity:100%; stroke-width: 3pt; stroke-linejoin:round; stroke-linecap:round;" d="M20.82 21.06c2.1-0.06 11.65-2.34 13.21-2.46c2.8-0.23 3.5 1.31 3.5 2.67c0 3.23-0.53 46.22-0.53 64.55c0 10.69-4.41 3.05-6.2 1.54"></path>
<path style="fill:none; fill-opacity:0%; fill-rule:evenodd; stroke:#000000; stroke-opacity:100%; stroke-width: 3pt; stroke-linejoin:round; stroke-linecap:round;" d="M20.82 39.95c4.61-0.35 12.03-2.04 16.08-2.07"></path>
<path style="fill:none; fill-opacity:0%; fill-rule:evenodd; stroke:#000000; stroke-opacity:100%; stroke-width: 3pt; stroke-linejoin:round; stroke-linecap:round;" d="M20.26 57.4c3.79-0.08 11.64-1.28 16.79-1.7"></path>
<path style="fill:none; fill-opacity:0%; fill-rule:evenodd; stroke:#000000; stroke-opacity:100%; stroke-width: 3pt; stroke-linejoin:round; stroke-linecap:round;" d="M48.2 20.56c0.31 0.66 1.33 2.6 1.49 3.41c1.56 8.28 3.15 21.23 3.97 33.53"></path>
<text x="5" y="20" font-size="20" fill="#999999">6</text><path style="fill:none; fill-opacity:0%; fill-rule:evenodd; stroke:#CC0000; stroke-opacity:100%; stroke-width: 3pt; stroke-linejoin:round; stroke-linecap:round;" d="M49.67 22c12.02-1.52 31.07-4.11 39.34-4.77c3.04-0.24 4.86 1.17 4.75 3.94C93.52 27.76 91 51.25 89.8 55.3" marker-end="url(#TriangleRed)" marker-start="url(#ArrowRed)" ></path>




</g><g transform="scale(1.3761467889908 1.3761467889908) translate(109, 109)">
<path style="fill:none; fill-rule:evenodd; stroke:#aaaaaa;  stroke-width:1pt; stroke-linecap:round;" d="m 109 0 L 0 0 L 0 109 L 109 109 L 109 0"></path><path style="fill:none; fill-opacity:0%; fill-rule:evenodd; stroke:#aaaaaa; stroke-opacity:100%; stroke-width: 1.5pt; stroke-linejoin:round; stroke-linecap:round;" d="M19.22 19.99c0.52 0.95 0.88 1.88 1.05 2.8c0.17 0.92 0.15 25.9-0.41 33.63c-0.8 11-2.61 22.08-8.61 34.72"></path>
<path style="fill:none; fill-opacity:0%; fill-rule:evenodd; stroke:#aaaaaa; stroke-opacity:100%; stroke-width: 1.5pt; stroke-linejoin:round; stroke-linecap:round;" d="M20.82 21.06c2.1-0.06 11.65-2.34 13.21-2.46c2.8-0.23 3.5 1.31 3.5 2.67c0 3.23-0.53 46.22-0.53 64.55c0 10.69-4.41 3.05-6.2 1.54"></path>
<path style="fill:none; fill-opacity:0%; fill-rule:evenodd; stroke:#aaaaaa; stroke-opacity:100%; stroke-width: 1.5pt; stroke-linejoin:round; stroke-linecap:round;" d="M20.82 39.95c4.61-0.35 12.03-2.04 16.08-2.07"></path>
<path style="fill:none; fill-opacity:0%; fill-rule:evenodd; stroke:#aaaaaa; stroke-opacity:100%; stroke-width: 1.5pt; stroke-linejoin:round; stroke-linecap:round;" d="M20.26 57.4c3.79-0.08 11.64-1.28 16.79-1.7"></path>
<path style="fill:none; fill-opacity:0%; fill-rule:evenodd; stroke:#aaaaaa; stroke-opacity:100%; stroke-width: 1.5pt; stroke-linejoin:round; stroke-linecap:round;" d="M48.2 20.56c0.31 0.66 1.33 2.6 1.49 3.41c1.56 8.28 3.15 21.23 3.97 33.53"></path>
<path style="fill:none; fill-opacity:0%; fill-rule:evenodd; stroke:#aaaaaa; stroke-opacity:100%; stroke-width: 1.5pt; stroke-linejoin:round; stroke-linecap:round;" d="M49.67 22c12.02-1.52 31.07-4.11 39.34-4.77c3.04-0.24 4.86 1.17 4.75 3.94C93.52 27.76 91 51.25 89.8 55.3"></path>
<path style="fill:none; fill-opacity:0%; fill-rule:evenodd; stroke:#aaaaaa; stroke-opacity:100%; stroke-width: 1.5pt; stroke-linejoin:round; stroke-linecap:round;" d="M52.15 37.2C59 36.25 83 34.25 92.29 34.05"></path>
<path style="fill:none; fill-opacity:0%; fill-rule:evenodd; stroke:#aaaaaa; stroke-opacity:100%; stroke-width: 1.5pt; stroke-linejoin:round; stroke-linecap:round;" d="M53.74 53.88C65.75 53 78.96 51.46 90.4 50.83"></path>
<path style="fill:none; fill-opacity:0%; fill-rule:evenodd; stroke:#aaaaaa; stroke-opacity:100%; stroke-width: 1.5pt; stroke-linejoin:round; stroke-linecap:round;" d="M69.36 22.19c0.89 0.56 1.44 2.03 1.44 3.81c-0.03 8.98 0.3 66.54 0.3 69.47"></path>

<path style="fill:none; fill-opacity:0%; fill-rule:evenodd; stroke:#000000; stroke-opacity:100%; stroke-width: 3pt; stroke-linejoin:round; stroke-linecap:round;" d="M19.22 19.99c0.52 0.95 0.88 1.88 1.05 2.8c0.17 0.92 0.15 25.9-0.41 33.63c-0.8 11-2.61 22.08-8.61 34.72"></path>
<path style="fill:none; fill-opacity:0%; fill-rule:evenodd; stroke:#000000; stroke-opacity:100%; stroke-width: 3pt; stroke-linejoin:round; stroke-linecap:round;" d="M20.82 21.06c2.1-0.06 11.65-2.34 13.21-2.46c2.8-0.23 3.5 1.31 3.5 2.67c0 3.23-0.53 46.22-0.53 64.55c0 10.69-4.41 3.05-6.2 1.54"></path>
<path style="fill:none; fill-opacity:0%; fill-rule:evenodd; stroke:#000000; stroke-opacity:100%; stroke-width: 3pt; stroke-linejoin:round; stroke-linecap:round;" d="M20.82 39.95c4.61-0.35 12.03-2.04 16.08-2.07"></path>
<path style="fill:none; fill-opacity:0%; fill-rule:evenodd; stroke:#000000; stroke-opacity:100%; stroke-width: 3pt; stroke-linejoin:round; stroke-linecap:round;" d="M20.26 57.4c3.79-0.08 11.64-1.28 16.79-1.7"></path>
<path style="fill:none; fill-opacity:0%; fill-rule:evenodd; stroke:#000000; stroke-opacity:100%; stroke-width: 3pt; stroke-linejoin:round; stroke-linecap:round;" d="M48.2 20.56c0.31 0.66 1.33 2.6 1.49 3.41c1.56 8.28 3.15 21.23 3.97 33.53"></path>
<path style="fill:none; fill-opacity:0%; fill-rule:evenodd; stroke:#000000; stroke-opacity:100%; stroke-width: 3pt; stroke-linejoin:round; stroke-linecap:round;" d="M49.67 22c12.02-1.52 31.07-4.11 39.34-4.77c3.04-0.24 4.86 1.17 4.75 3.94C93.52 27.76 91 51.25 89.8 55.3"></path>
<text x="5" y="20" font-size="20" fill="#999999">7</text><path style="fill:none; fill-opacity:0%; fill-rule:evenodd; stroke:#CC0000; stroke-opacity:100%; stroke-width: 3pt; stroke-linejoin:round; stroke-linecap:round;" d="M52.15 37.2C59 36.25 83 34.25 92.29 34.05" marker-end="url(#TriangleRed)" marker-start="url(#ArrowRed)" ></path>



</g><g transform="scale(1.3761467889908 1.3761467889908) translate(218, 109)">
<path style="fill:none; fill-rule:evenodd; stroke:#aaaaaa;  stroke-width:1pt; stroke-linecap:round;" d="m 109 0 L 0 0 L 0 109 L 109 109 L 109 0"></path><path style="fill:none; fill-opacity:0%; fill-rule:evenodd; stroke:#aaaaaa; stroke-opacity:100%; stroke-width: 1.5pt; stroke-linejoin:round; stroke-linecap:round;" d="M19.22 19.99c0.52 0.95 0.88 1.88 1.05 2.8c0.17 0.92 0.15 25.9-0.41 33.63c-0.8 11-2.61 22.08-8.61 34.72"></path>
<path style="fill:none; fill-opacity:0%; fill-rule:evenodd; stroke:#aaaaaa; stroke-opacity:100%; stroke-width: 1.5pt; stroke-linejoin:round; stroke-linecap:round;" d="M20.82 21.06c2.1-0.06 11.65-2.34 13.21-2.46c2.8-0.23 3.5 1.31 3.5 2.67c0 3.23-0.53 46.22-0.53 64.55c0 10.69-4.41 3.05-6.2 1.54"></path>
<path style="fill:none; fill-opacity:0%; fill-rule:evenodd; stroke:#aaaaaa; stroke-opacity:100%; stroke-width: 1.5pt; stroke-linejoin:round; stroke-linecap:round;" d="M20.82 39.95c4.61-0.35 12.03-2.04 16.08-2.07"></path>
<path style="fill:none; fill-opacity:0%; fill-rule:evenodd; stroke:#aaaaaa; stroke-opacity:100%; stroke-width: 1.5pt; stroke-linejoin:round; stroke-linecap:round;" d="M20.26 57.4c3.79-0.08 11.64-1.28 16.79-1.7"></path>
<path style="fill:none; fill-opacity:0%; fill-rule:evenodd; stroke:#aaaaaa; stroke-opacity:100%; stroke-width: 1.5pt; stroke-linejoin:round; stroke-linecap:round;" d="M48.2 20.56c0.31 0.66 1.33 2.6 1.49 3.41c1.56 8.28 3.15 21.23 3.97 33.53"></path>
<path style="fill:none; fill-opacity:0%; fill-rule:evenodd; stroke:#aaaaaa; stroke-opacity:100%; stroke-width: 1.5pt; stroke-linejoin:round; stroke-linecap:round;" d="M49.67 22c12.02-1.52 31.07-4.11 39.34-4.77c3.04-0.24 4.86 1.17 4.75 3.94C93.52 27.76 91 51.25 89.8 55.3"></path>
<path style="fill:none; fill-opacity:0%; fill-rule:evenodd; stroke:#aaaaaa; stroke-opacity:100%; stroke-width: 1.5pt; stroke-linejoin:round; stroke-linecap:round;" d="M52.15 37.2C59 36.25 83 34.25 92.29 34.05"></path>
<path style="fill:none; fill-opacity:0%; fill-rule:evenodd; stroke:#aaaaaa; stroke-opacity:100%; stroke-width: 1.5pt; stroke-linejoin:round; stroke-linecap:round;" d="M53.74 53.88C65.75 53 78.96 51.46 90.4 50.83"></path>
<path style="fill:none; fill-opacity:0%; fill-rule:evenodd; stroke:#aaaaaa; stroke-opacity:100%; stroke-width: 1.5pt; stroke-linejoin:round; stroke-linecap:round;" d="M69.36 22.19c0.89 0.56 1.44 2.03 1.44 3.81c-0.03 8.98 0.3 66.54 0.3 69.47"></path>

<path style="fill:none; fill-opacity:0%; fill-rule:evenodd; stroke:#000000; stroke-opacity:100%; stroke-width: 3pt; stroke-linejoin:round; stroke-linecap:round;" d="M19.22 19.99c0.52 0.95 0.88 1.88 1.05 2.8c0.17 0.92 0.15 25.9-0.41 33.63c-0.8 11-2.61 22.08-8.61 34.72"></path>
<path style="fill:none; fill-opacity:0%; fill-rule:evenodd; stroke:#000000; stroke-opacity:100%; stroke-width: 3pt; stroke-linejoin:round; stroke-linecap:round;" d="M20.82 21.06c2.1-0.06 11.65-2.34 13.21-2.46c2.8-0.23 3.5 1.31 3.5 2.67c0 3.23-0.53 46.22-0.53 64.55c0 10.69-4.41 3.05-6.2 1.54"></path>
<path style="fill:none; fill-opacity:0%; fill-rule:evenodd; stroke:#000000; stroke-opacity:100%; stroke-width: 3pt; stroke-linejoin:round; stroke-linecap:round;" d="M20.82 39.95c4.61-0.35 12.03-2.04 16.08-2.07"></path>
<path style="fill:none; fill-opacity:0%; fill-rule:evenodd; stroke:#000000; stroke-opacity:100%; stroke-width: 3pt; stroke-linejoin:round; stroke-linecap:round;" d="M20.26 57.4c3.79-0.08 11.64-1.28 16.79-1.7"></path>
<path style="fill:none; fill-opacity:0%; fill-rule:evenodd; stroke:#000000; stroke-opacity:100%; stroke-width: 3pt; stroke-linejoin:round; stroke-linecap:round;" d="M48.2 20.56c0.31 0.66 1.33 2.6 1.49 3.41c1.56 8.28 3.15 21.23 3.97 33.53"></path>
<path style="fill:none; fill-opacity:0%; fill-rule:evenodd; stroke:#000000; stroke-opacity:100%; stroke-width: 3pt; stroke-linejoin:round; stroke-linecap:round;" d="M49.67 22c12.02-1.52 31.07-4.11 39.34-4.77c3.04-0.24 4.86 1.17 4.75 3.94C93.52 27.76 91 51.25 89.8 55.3"></path>
<path style="fill:none; fill-opacity:0%; fill-rule:evenodd; stroke:#000000; stroke-opacity:100%; stroke-width: 3pt; stroke-linejoin:round; stroke-linecap:round;" d="M52.15 37.2C59 36.25 83 34.25 92.29 34.05"></path>
<text x="5" y="20" font-size="20" fill="#999999">8</text><path style="fill:none; fill-opacity:0%; fill-rule:evenodd; stroke:#CC0000; stroke-opacity:100%; stroke-width: 3pt; stroke-linejoin:round; stroke-linecap:round;" d="M53.74 53.88C65.75 53 78.96 51.46 90.4 50.83" marker-end="url(#TriangleRed)" marker-start="url(#ArrowRed)" ></path>


</g><g transform="scale(1.3761467889908 1.3761467889908) translate(327, 109)">
<path style="fill:none; fill-rule:evenodd; stroke:#aaaaaa;  stroke-width:1pt; stroke-linecap:round;" d="m 109 0 L 0 0 L 0 109 L 109 109 L 109 0"></path><path style="fill:none; fill-opacity:0%; fill-rule:evenodd; stroke:#aaaaaa; stroke-opacity:100%; stroke-width: 1.5pt; stroke-linejoin:round; stroke-linecap:round;" d="M19.22 19.99c0.52 0.95 0.88 1.88 1.05 2.8c0.17 0.92 0.15 25.9-0.41 33.63c-0.8 11-2.61 22.08-8.61 34.72"></path>
<path style="fill:none; fill-opacity:0%; fill-rule:evenodd; stroke:#aaaaaa; stroke-opacity:100%; stroke-width: 1.5pt; stroke-linejoin:round; stroke-linecap:round;" d="M20.82 21.06c2.1-0.06 11.65-2.34 13.21-2.46c2.8-0.23 3.5 1.31 3.5 2.67c0 3.23-0.53 46.22-0.53 64.55c0 10.69-4.41 3.05-6.2 1.54"></path>
<path style="fill:none; fill-opacity:0%; fill-rule:evenodd; stroke:#aaaaaa; stroke-opacity:100%; stroke-width: 1.5pt; stroke-linejoin:round; stroke-linecap:round;" d="M20.82 39.95c4.61-0.35 12.03-2.04 16.08-2.07"></path>
<path style="fill:none; fill-opacity:0%; fill-rule:evenodd; stroke:#aaaaaa; stroke-opacity:100%; stroke-width: 1.5pt; stroke-linejoin:round; stroke-linecap:round;" d="M20.26 57.4c3.79-0.08 11.64-1.28 16.79-1.7"></path>
<path style="fill:none; fill-opacity:0%; fill-rule:evenodd; stroke:#aaaaaa; stroke-opacity:100%; stroke-width: 1.5pt; stroke-linejoin:round; stroke-linecap:round;" d="M48.2 20.56c0.31 0.66 1.33 2.6 1.49 3.41c1.56 8.28 3.15 21.23 3.97 33.53"></path>
<path style="fill:none; fill-opacity:0%; fill-rule:evenodd; stroke:#aaaaaa; stroke-opacity:100%; stroke-width: 1.5pt; stroke-linejoin:round; stroke-linecap:round;" d="M49.67 22c12.02-1.52 31.07-4.11 39.34-4.77c3.04-0.24 4.86 1.17 4.75 3.94C93.52 27.76 91 51.25 89.8 55.3"></path>
<path style="fill:none; fill-opacity:0%; fill-rule:evenodd; stroke:#aaaaaa; stroke-opacity:100%; stroke-width: 1.5pt; stroke-linejoin:round; stroke-linecap:round;" d="M52.15 37.2C59 36.25 83 34.25 92.29 34.05"></path>
<path style="fill:none; fill-opacity:0%; fill-rule:evenodd; stroke:#aaaaaa; stroke-opacity:100%; stroke-width: 1.5pt; stroke-linejoin:round; stroke-linecap:round;" d="M53.74 53.88C65.75 53 78.96 51.46 90.4 50.83"></path>
<path style="fill:none; fill-opacity:0%; fill-rule:evenodd; stroke:#aaaaaa; stroke-opacity:100%; stroke-width: 1.5pt; stroke-linejoin:round; stroke-linecap:round;" d="M69.36 22.19c0.89 0.56 1.44 2.03 1.44 3.81c-0.03 8.98 0.3 66.54 0.3 69.47"></path>

<path style="fill:none; fill-opacity:0%; fill-rule:evenodd; stroke:#000000; stroke-opacity:100%; stroke-width: 3pt; stroke-linejoin:round; stroke-linecap:round;" d="M19.22 19.99c0.52 0.95 0.88 1.88 1.05 2.8c0.17 0.92 0.15 25.9-0.41 33.63c-0.8 11-2.61 22.08-8.61 34.72"></path>
<path style="fill:none; fill-opacity:0%; fill-rule:evenodd; stroke:#000000; stroke-opacity:100%; stroke-width: 3pt; stroke-linejoin:round; stroke-linecap:round;" d="M20.82 21.06c2.1-0.06 11.65-2.34 13.21-2.46c2.8-0.23 3.5 1.31 3.5 2.67c0 3.23-0.53 46.22-0.53 64.55c0 10.69-4.41 3.05-6.2 1.54"></path>
<path style="fill:none; fill-opacity:0%; fill-rule:evenodd; stroke:#000000; stroke-opacity:100%; stroke-width: 3pt; stroke-linejoin:round; stroke-linecap:round;" d="M20.82 39.95c4.61-0.35 12.03-2.04 16.08-2.07"></path>
<path style="fill:none; fill-opacity:0%; fill-rule:evenodd; stroke:#000000; stroke-opacity:100%; stroke-width: 3pt; stroke-linejoin:round; stroke-linecap:round;" d="M20.26 57.4c3.79-0.08 11.64-1.28 16.79-1.7"></path>
<path style="fill:none; fill-opacity:0%; fill-rule:evenodd; stroke:#000000; stroke-opacity:100%; stroke-width: 3pt; stroke-linejoin:round; stroke-linecap:round;" d="M48.2 20.56c0.31 0.66 1.33 2.6 1.49 3.41c1.56 8.28 3.15 21.23 3.97 33.53"></path>
<path style="fill:none; fill-opacity:0%; fill-rule:evenodd; stroke:#000000; stroke-opacity:100%; stroke-width: 3pt; stroke-linejoin:round; stroke-linecap:round;" d="M49.67 22c12.02-1.52 31.07-4.11 39.34-4.77c3.04-0.24 4.86 1.17 4.75 3.94C93.52 27.76 91 51.25 89.8 55.3"></path>
<path style="fill:none; fill-opacity:0%; fill-rule:evenodd; stroke:#000000; stroke-opacity:100%; stroke-width: 3pt; stroke-linejoin:round; stroke-linecap:round;" d="M52.15 37.2C59 36.25 83 34.25 92.29 34.05"></path>
<path style="fill:none; fill-opacity:0%; fill-rule:evenodd; stroke:#000000; stroke-opacity:100%; stroke-width: 3pt; stroke-linejoin:round; stroke-linecap:round;" d="M53.74 53.88C65.75 53 78.96 51.46 90.4 50.83"></path>
<text x="5" y="20" font-size="20" fill="#999999">9</text><path style="fill:none; fill-opacity:0%; fill-rule:evenodd; stroke:#CC0000; stroke-opacity:100%; stroke-width: 3pt; stroke-linejoin:round; stroke-linecap:round;" d="M69.36 22.19c0.89 0.56 1.44 2.03 1.44 3.81c-0.03 8.98 0.3 66.54 0.3 69.47" marker-end="url(#TriangleRed)" marker-start="url(#ArrowRed)" ></path>

</g>

</svg>  
          
