<?xml version="1.0" standalone="no"?>
<!DOCTYPE svg PUBLIC "-//W3C//DTD SVG 1.1//EN"   "http://www.w3.org/Graphics/SVG/1.1/DTD/svg11.dtd">
<svg width="751" height="301"  version="1.1" xmlns="http://www.w3.org/2000/svg">
  <defs>
    <marker id="Triangle" viewBox="0 0 10 10" refX="0" refY="5" markerUnits="strokeWidth" markerWidth="3" style="stroke-opacity:0%;fill:#aaaaaa;" markerHeight="2" orient="auto">
      <path d="M 0 0 L 10 5 L 0 10 z" />
    </marker>
    
    <marker id="Arrow" viewBox="0 0 10 10" refX="5" refY="5" markerUnits="strokeWidth" markerWidth="1.8" style="stroke-opacity:0%;fill:#770000;" markerHeight="2" orient="auto">
      <path d="M 0 4 L 6 4 L 4 1 L 10 5 L 4 9 L 6 6 L 0 6 z" />
        <circle cx="5" cy="5" r="5" />
      </marker>
    
    <marker id="TriangleRed" viewBox="0 0 10 10" refX="0" refY="5" markerUnits="strokeWidth" markerWidth="3" style="stroke-opacity:0%;fill:#CC0000;" markerHeight="2" orient="auto">
      <path d="M 0 0 L 10 5 L 0 10 z" />
    </marker>
    
    <marker id="ArrowRed" viewBox="0 0 10 10" refX="5" refY="5" markerUnits="strokeWidth" markerWidth="1.8" style="stroke-opacity:0%;fill:#CC0000;" markerHeight="2" orient="auto">
      <path d="M 0 4 L 6 4 L 4 1 L 10 5 L 4 9 L 6 6 L 0 6 z" />
        <circle cx="5" cy="5" r="5" />
      </marker>
    
  </defs>
  
  <path style="fill:#ffffff; fill-opacity:100%; fill-rule:evenodd; stroke-width:0;" d="M 0 0 L 751 0 L 751 301 L 0 301 L 0 0" />

  <g transform="scale(1.3761467889908 1.3761467889908) translate(0, 0)">
<path style="fill:none; fill-rule:evenodd; stroke:#aaaaaa;  stroke-width:1pt; stroke-linecap:round;" d="m 109 0 L 0 0 L 0 109 L 109 109 L 109 0"></path><path style="fill:none; fill-opacity:0%; fill-rule:evenodd; stroke:#aaaaaa; stroke-opacity:100%; stroke-width: 1.5pt; stroke-linejoin:round; stroke-linecap:round;" d="M15.83 24.17c1.29 0.53 5.92 0.33 8.77 0.13c11.91-0.85 43.9-3.3 58.73-3.8c3.67-0.12 7.76 0.07 8.83 0.33"></path>
<path style="fill:none; fill-opacity:0%; fill-rule:evenodd; stroke:#aaaaaa; stroke-opacity:100%; stroke-width: 1.5pt; stroke-linejoin:round; stroke-linecap:round;" d="M36 13.33c2.5 0.83 3.03 2.29 3.17 3c1.33 6.67 1.67 11.67 2 14.5"></path>
<path style="fill:none; fill-opacity:0%; fill-rule:evenodd; stroke:#aaaaaa; stroke-opacity:100%; stroke-width: 1.5pt; stroke-linejoin:round; stroke-linecap:round;" d="M66.5 11c1.5 0.67 1.87 1.83 1.67 3.17C67.5 18.5 65.97 25.41 64.5 30.5"></path>
<path style="fill:none; fill-opacity:0%; fill-rule:evenodd; stroke:#aaaaaa; stroke-opacity:100%; stroke-width: 1.5pt; stroke-linejoin:round; stroke-linecap:round;" d="M48.82 28.06c0.34 0.5 0.03 1.5-0.34 2.5c-1.15 3.12-17.26 19.46-32.59 26.56"></path>
<path style="fill:none; fill-opacity:0%; fill-rule:evenodd; stroke:#aaaaaa; stroke-opacity:100%; stroke-width: 1.5pt; stroke-linejoin:round; stroke-linecap:round;" d="M44 39c0.94 0.65 2.59 0.93 3.83 0.83c4.1-0.33 12.05-1.91 17.5-3.17c3.92-0.9 4.72 1.93 3.69 3.83C63.4 50.9 35.06 75.33 10 80.69"></path>
<path style="fill:none; fill-opacity:0%; fill-rule:evenodd; stroke:#aaaaaa; stroke-opacity:100%; stroke-width: 1.5pt; stroke-linejoin:round; stroke-linecap:round;" d="M34.35 50.07c4.33 1.77 10.71 6.81 11.79 9.56"></path>
<path style="fill:none; fill-opacity:0%; fill-rule:evenodd; stroke:#aaaaaa; stroke-opacity:100%; stroke-width: 1.5pt; stroke-linejoin:round; stroke-linecap:round;" d="M37.92 71.14c0.42 0.49 0.95 1.36 1.03 2c0.56 4.66 1.9 15.63 2.69 24.45"></path>
<path style="fill:none; fill-opacity:0%; fill-rule:evenodd; stroke:#aaaaaa; stroke-opacity:100%; stroke-width: 1.5pt; stroke-linejoin:round; stroke-linecap:round;" d="M39.72 72.63c9.6-0.8 30.92-3.67 37.47-3.79c2.71-0.05 4.19 1.94 3.93 3.17C80 77.5 77.81 84.84 76.76 91.18"></path>
<path style="fill:none; fill-opacity:0%; fill-rule:evenodd; stroke:#aaaaaa; stroke-opacity:100%; stroke-width: 1.5pt; stroke-linejoin:round; stroke-linecap:round;" d="M41.66 93.75c7.21 0 28.06-2.13 38.01-2.25"></path>

<text x="5" y="20" font-size="20" fill="#999999">1</text><path style="fill:none; fill-opacity:0%; fill-rule:evenodd; stroke:#CC0000; stroke-opacity:100%; stroke-width: 3pt; stroke-linejoin:round; stroke-linecap:round;" d="M15.83 24.17c1.29 0.53 5.92 0.33 8.77 0.13c11.91-0.85 43.9-3.3 58.73-3.8c3.67-0.12 7.76 0.07 8.83 0.33" marker-end="url(#TriangleRed)" marker-start="url(#ArrowRed)" ></path>









</g><g transform="scale(1.3761467889908 1.3761467889908) translate(109, 0)">
<path style="fill:none; fill-rule:evenodd; stroke:#aaaaaa;  stroke-width:1pt; stroke-linecap:round;" d="m 109 0 L 0 0 L 0 109 L 109 109 L 109 0"></path><path style="fill:none; fill-opacity:0%; fill-rule:evenodd; stroke:#aaaaaa; stroke-opacity:100%; stroke-width: 1.5pt; stroke-linejoin:round; stroke-linecap:round;" d="M15.83 24.17c1.29 0.53 5.92 0.33 8.77 0.13c11.91-0.85 43.9-3.3 58.73-3.8c3.67-0.12 7.76 0.07 8.83 0.33"></path>
<path style="fill:none; fill-opacity:0%; fill-rule:evenodd; stroke:#aaaaaa; stroke-opacity:100%; stroke-width: 1.5pt; stroke-linejoin:round; stroke-linecap:round;" d="M36 13.33c2.5 0.83 3.03 2.29 3.17 3c1.33 6.67 1.67 11.67 2 14.5"></path>
<path style="fill:none; fill-opacity:0%; fill-rule:evenodd; stroke:#aaaaaa; stroke-opacity:100%; stroke-width: 1.5pt; stroke-linejoin:round; stroke-linecap:round;" d="M66.5 11c1.5 0.67 1.87 1.83 1.67 3.17C67.5 18.5 65.97 25.41 64.5 30.5"></path>
<path style="fill:none; fill-opacity:0%; fill-rule:evenodd; stroke:#aaaaaa; stroke-opacity:100%; stroke-width: 1.5pt; stroke-linejoin:round; stroke-linecap:round;" d="M48.82 28.06c0.34 0.5 0.03 1.5-0.34 2.5c-1.15 3.12-17.26 19.46-32.59 26.56"></path>
<path style="fill:none; fill-opacity:0%; fill-rule:evenodd; stroke:#aaaaaa; stroke-opacity:100%; stroke-width: 1.5pt; stroke-linejoin:round; stroke-linecap:round;" d="M44 39c0.94 0.65 2.59 0.93 3.83 0.83c4.1-0.33 12.05-1.91 17.5-3.17c3.92-0.9 4.72 1.93 3.69 3.83C63.4 50.9 35.06 75.33 10 80.69"></path>
<path style="fill:none; fill-opacity:0%; fill-rule:evenodd; stroke:#aaaaaa; stroke-opacity:100%; stroke-width: 1.5pt; stroke-linejoin:round; stroke-linecap:round;" d="M34.35 50.07c4.33 1.77 10.71 6.81 11.79 9.56"></path>
<path style="fill:none; fill-opacity:0%; fill-rule:evenodd; stroke:#aaaaaa; stroke-opacity:100%; stroke-width: 1.5pt; stroke-linejoin:round; stroke-linecap:round;" d="M37.92 71.14c0.42 0.49 0.95 1.36 1.03 2c0.56 4.66 1.9 15.63 2.69 24.45"></path>
<path style="fill:none; fill-opacity:0%; fill-rule:evenodd; stroke:#aaaaaa; stroke-opacity:100%; stroke-width: 1.5pt; stroke-linejoin:round; stroke-linecap:round;" d="M39.72 72.63c9.6-0.8 30.92-3.67 37.47-3.79c2.71-0.05 4.19 1.94 3.93 3.17C80 77.5 77.81 84.84 76.76 91.18"></path>
<path style="fill:none; fill-opacity:0%; fill-rule:evenodd; stroke:#aaaaaa; stroke-opacity:100%; stroke-width: 1.5pt; stroke-linejoin:round; stroke-linecap:round;" d="M41.66 93.75c7.21 0 28.06-2.13 38.01-2.25"></path>

<path style="fill:none; fill-opacity:0%; fill-rule:evenodd; stroke:#000000; stroke-opacity:100%; stroke-width: 3pt; stroke-linejoin:round; stroke-linecap:round;" d="M15.83 24.17c1.29 0.53 5.92 0.33 8.77 0.13c11.91-0.85 43.9-3.3 58.73-3.8c3.67-0.12 7.76 0.07 8.83 0.33"></path>
<text x="5" y="20" font-size="20" fill="#999999">2</text><path style="fill:none; fill-opacity:0%; fill-rule:evenodd; stroke:#CC0000; stroke-opacity:100%; stroke-width: 3pt; stroke-linejoin:round; stroke-linecap:round;" d="M36 13.33c2.5 0.83 3.03 2.29 3.17 3c1.33 6.67 1.67 11.67 2 14.5" marker-end="url(#TriangleRed)" marker-start="url(#ArrowRed)" ></path>








</g><g transform="scale(1.3761467889908 1.3761467889908) translate(218, 0)">
<path style="fill:none; fill-rule:evenodd; stroke:#aaaaaa;  stroke-width:1pt; stroke-linecap:round;" d="m 109 0 L 0 0 L 0 109 L 109 109 L 109 0"></path><path style="fill:none; fill-opacity:0%; fill-rule:evenodd; stroke:#aaaaaa; stroke-opacity:100%; stroke-width: 1.5pt; stroke-linejoin:round; stroke-linecap:round;" d="M15.83 24.17c1.29 0.53 5.92 0.33 8.77 0.13c11.91-0.85 43.9-3.3 58.73-3.8c3.67-0.12 7.76 0.07 8.83 0.33"></path>
<path style="fill:none; fill-opacity:0%; fill-rule:evenodd; stroke:#aaaaaa; stroke-opacity:100%; stroke-width: 1.5pt; stroke-linejoin:round; stroke-linecap:round;" d="M36 13.33c2.5 0.83 3.03 2.29 3.17 3c1.33 6.67 1.67 11.67 2 14.5"></path>
<path style="fill:none; fill-opacity:0%; fill-rule:evenodd; stroke:#aaaaaa; stroke-opacity:100%; stroke-width: 1.5pt; stroke-linejoin:round; stroke-linecap:round;" d="M66.5 11c1.5 0.67 1.87 1.83 1.67 3.17C67.5 18.5 65.97 25.41 64.5 30.5"></path>
<path style="fill:none; fill-opacity:0%; fill-rule:evenodd; stroke:#aaaaaa; stroke-opacity:100%; stroke-width: 1.5pt; stroke-linejoin:round; stroke-linecap:round;" d="M48.82 28.06c0.34 0.5 0.03 1.5-0.34 2.5c-1.15 3.12-17.26 19.46-32.59 26.56"></path>
<path style="fill:none; fill-opacity:0%; fill-rule:evenodd; stroke:#aaaaaa; stroke-opacity:100%; stroke-width: 1.5pt; stroke-linejoin:round; stroke-linecap:round;" d="M44 39c0.94 0.65 2.59 0.93 3.83 0.83c4.1-0.33 12.05-1.91 17.5-3.17c3.92-0.9 4.72 1.93 3.69 3.83C63.4 50.9 35.06 75.33 10 80.69"></path>
<path style="fill:none; fill-opacity:0%; fill-rule:evenodd; stroke:#aaaaaa; stroke-opacity:100%; stroke-width: 1.5pt; stroke-linejoin:round; stroke-linecap:round;" d="M34.35 50.07c4.33 1.77 10.71 6.81 11.79 9.56"></path>
<path style="fill:none; fill-opacity:0%; fill-rule:evenodd; stroke:#aaaaaa; stroke-opacity:100%; stroke-width: 1.5pt; stroke-linejoin:round; stroke-linecap:round;" d="M37.92 71.14c0.42 0.49 0.95 1.36 1.03 2c0.56 4.66 1.9 15.63 2.69 24.45"></path>
<path style="fill:none; fill-opacity:0%; fill-rule:evenodd; stroke:#aaaaaa; stroke-opacity:100%; stroke-width: 1.5pt; stroke-linejoin:round; stroke-linecap:round;" d="M39.72 72.63c9.6-0.8 30.92-3.67 37.47-3.79c2.71-0.05 4.19 1.94 3.93 3.17C80 77.5 77.81 84.84 76.76 91.18"></path>
<path style="fill:none; fill-opacity:0%; fill-rule:evenodd; stroke:#aaaaaa; stroke-opacity:100%; stroke-width: 1.5pt; stroke-linejoin:round; stroke-linecap:round;" d="M41.66 93.75c7.21 0 28.06-2.13 38.01-2.25"></path>

<path style="fill:none; fill-opacity:0%; fill-rule:evenodd; stroke:#000000; stroke-opacity:100%; stroke-width: 3pt; stroke-linejoin:round; stroke-linecap:round;" d="M15.83 24.17c1.29 0.53 5.92 0.33 8.77 0.13c11.91-0.85 43.9-3.3 58.73-3.8c3.67-0.12 7.76 0.07 8.83 0.33"></path>
<path style="fill:none; fill-opacity:0%; fill-rule:evenodd; stroke:#000000; stroke-opacity:100%; stroke-width: 3pt; stroke-linejoin:round; stroke-linecap:round;" d="M36 13.33c2.5 0.83 3.03 2.29 3.17 3c1.33 6.67 1.67 11.67 2 14.5"></path>
<text x="5" y="20" font-size="20" fill="#999999">3</text><path style="fill:none; fill-opacity:0%; fill-rule:evenodd; stroke:#CC0000; stroke-opacity:100%; stroke-width: 3pt; stroke-linejoin:round; stroke-linecap:round;" d="M66.5 11c1.5 0.67 1.87 1.83 1.67 3.17C67.5 18.5 65.97 25.41 64.5 30.5" marker-end="url(#TriangleRed)" marker-start="url(#ArrowRed)" ></path>







</g><g transform="scale(1.3761467889908 1.3761467889908) translate(327, 0)">
<path style="fill:none; fill-rule:evenodd; stroke:#aaaaaa;  stroke-width:1pt; stroke-linecap:round;" d="m 109 0 L 0 0 L 0 109 L 109 109 L 109 0"></path><path style="fill:none; fill-opacity:0%; fill-rule:evenodd; stroke:#aaaaaa; stroke-opacity:100%; stroke-width: 1.5pt; stroke-linejoin:round; stroke-linecap:round;" d="M15.83 24.17c1.29 0.53 5.92 0.33 8.77 0.13c11.91-0.85 43.9-3.3 58.73-3.8c3.67-0.12 7.76 0.07 8.83 0.33"></path>
<path style="fill:none; fill-opacity:0%; fill-rule:evenodd; stroke:#aaaaaa; stroke-opacity:100%; stroke-width: 1.5pt; stroke-linejoin:round; stroke-linecap:round;" d="M36 13.33c2.5 0.83 3.03 2.29 3.17 3c1.33 6.67 1.67 11.67 2 14.5"></path>
<path style="fill:none; fill-opacity:0%; fill-rule:evenodd; stroke:#aaaaaa; stroke-opacity:100%; stroke-width: 1.5pt; stroke-linejoin:round; stroke-linecap:round;" d="M66.5 11c1.5 0.67 1.87 1.83 1.67 3.17C67.5 18.5 65.97 25.41 64.5 30.5"></path>
<path style="fill:none; fill-opacity:0%; fill-rule:evenodd; stroke:#aaaaaa; stroke-opacity:100%; stroke-width: 1.5pt; stroke-linejoin:round; stroke-linecap:round;" d="M48.82 28.06c0.34 0.5 0.03 1.5-0.34 2.5c-1.15 3.12-17.26 19.46-32.59 26.56"></path>
<path style="fill:none; fill-opacity:0%; fill-rule:evenodd; stroke:#aaaaaa; stroke-opacity:100%; stroke-width: 1.5pt; stroke-linejoin:round; stroke-linecap:round;" d="M44 39c0.94 0.65 2.59 0.93 3.83 0.83c4.1-0.33 12.05-1.91 17.5-3.17c3.92-0.9 4.72 1.93 3.69 3.83C63.4 50.9 35.06 75.33 10 80.69"></path>
<path style="fill:none; fill-opacity:0%; fill-rule:evenodd; stroke:#aaaaaa; stroke-opacity:100%; stroke-width: 1.5pt; stroke-linejoin:round; stroke-linecap:round;" d="M34.35 50.07c4.33 1.77 10.71 6.81 11.79 9.56"></path>
<path style="fill:none; fill-opacity:0%; fill-rule:evenodd; stroke:#aaaaaa; stroke-opacity:100%; stroke-width: 1.5pt; stroke-linejoin:round; stroke-linecap:round;" d="M37.92 71.14c0.42 0.49 0.95 1.36 1.03 2c0.56 4.66 1.9 15.63 2.69 24.45"></path>
<path style="fill:none; fill-opacity:0%; fill-rule:evenodd; stroke:#aaaaaa; stroke-opacity:100%; stroke-width: 1.5pt; stroke-linejoin:round; stroke-linecap:round;" d="M39.72 72.63c9.6-0.8 30.92-3.67 37.47-3.79c2.71-0.05 4.19 1.94 3.93 3.17C80 77.5 77.81 84.84 76.76 91.18"></path>
<path style="fill:none; fill-opacity:0%; fill-rule:evenodd; stroke:#aaaaaa; stroke-opacity:100%; stroke-width: 1.5pt; stroke-linejoin:round; stroke-linecap:round;" d="M41.66 93.75c7.21 0 28.06-2.13 38.01-2.25"></path>

<path style="fill:none; fill-opacity:0%; fill-rule:evenodd; stroke:#000000; stroke-opacity:100%; stroke-width: 3pt; stroke-linejoin:round; stroke-linecap:round;" d="M15.83 24.17c1.29 0.53 5.92 0.33 8.77 0.13c11.91-0.85 43.9-3.3 58.73-3.8c3.67-0.12 7.76 0.07 8.83 0.33"></path>
<path style="fill:none; fill-opacity:0%; fill-rule:evenodd; stroke:#000000; stroke-opacity:100%; stroke-width: 3pt; stroke-linejoin:round; stroke-linecap:round;" d="M36 13.33c2.5 0.83 3.03 2.29 3.17 3c1.33 6.67 1.67 11.67 2 14.5"></path>
<path style="fill:none; fill-opacity:0%; fill-rule:evenodd; stroke:#000000; stroke-opacity:100%; stroke-width: 3pt; stroke-linejoin:round; stroke-linecap:round;" d="M66.5 11c1.5 0.67 1.87 1.83 1.67 3.17C67.5 18.5 65.97 25.41 64.5 30.5"></path>
<text x="5" y="20" font-size="20" fill="#999999">4</text><path style="fill:none; fill-opacity:0%; fill-rule:evenodd; stroke:#CC0000; stroke-opacity:100%; stroke-width: 3pt; stroke-linejoin:round; stroke-linecap:round;" d="M48.82 28.06c0.34 0.5 0.03 1.5-0.34 2.5c-1.15 3.12-17.26 19.46-32.59 26.56" marker-end="url(#TriangleRed)" marker-start="url(#ArrowRed)" ></path>






</g><g transform="scale(1.3761467889908 1.3761467889908) translate(436, 0)">
<path style="fill:none; fill-rule:evenodd; stroke:#aaaaaa;  stroke-width:1pt; stroke-linecap:round;" d="m 109 0 L 0 0 L 0 109 L 109 109 L 109 0"></path><path style="fill:none; fill-opacity:0%; fill-rule:evenodd; stroke:#aaaaaa; stroke-opacity:100%; stroke-width: 1.5pt; stroke-linejoin:round; stroke-linecap:round;" d="M15.83 24.17c1.29 0.53 5.92 0.33 8.77 0.13c11.91-0.85 43.9-3.3 58.73-3.8c3.67-0.12 7.76 0.07 8.83 0.33"></path>
<path style="fill:none; fill-opacity:0%; fill-rule:evenodd; stroke:#aaaaaa; stroke-opacity:100%; stroke-width: 1.5pt; stroke-linejoin:round; stroke-linecap:round;" d="M36 13.33c2.5 0.83 3.03 2.29 3.17 3c1.33 6.67 1.67 11.67 2 14.5"></path>
<path style="fill:none; fill-opacity:0%; fill-rule:evenodd; stroke:#aaaaaa; stroke-opacity:100%; stroke-width: 1.5pt; stroke-linejoin:round; stroke-linecap:round;" d="M66.5 11c1.5 0.67 1.87 1.83 1.67 3.17C67.5 18.5 65.97 25.41 64.5 30.5"></path>
<path style="fill:none; fill-opacity:0%; fill-rule:evenodd; stroke:#aaaaaa; stroke-opacity:100%; stroke-width: 1.5pt; stroke-linejoin:round; stroke-linecap:round;" d="M48.82 28.06c0.34 0.5 0.03 1.5-0.34 2.5c-1.15 3.12-17.26 19.46-32.59 26.56"></path>
<path style="fill:none; fill-opacity:0%; fill-rule:evenodd; stroke:#aaaaaa; stroke-opacity:100%; stroke-width: 1.5pt; stroke-linejoin:round; stroke-linecap:round;" d="M44 39c0.94 0.65 2.59 0.93 3.83 0.83c4.1-0.33 12.05-1.91 17.5-3.17c3.92-0.9 4.72 1.93 3.69 3.83C63.4 50.9 35.06 75.33 10 80.69"></path>
<path style="fill:none; fill-opacity:0%; fill-rule:evenodd; stroke:#aaaaaa; stroke-opacity:100%; stroke-width: 1.5pt; stroke-linejoin:round; stroke-linecap:round;" d="M34.35 50.07c4.33 1.77 10.71 6.81 11.79 9.56"></path>
<path style="fill:none; fill-opacity:0%; fill-rule:evenodd; stroke:#aaaaaa; stroke-opacity:100%; stroke-width: 1.5pt; stroke-linejoin:round; stroke-linecap:round;" d="M37.92 71.14c0.42 0.49 0.95 1.36 1.03 2c0.56 4.66 1.9 15.63 2.69 24.45"></path>
<path style="fill:none; fill-opacity:0%; fill-rule:evenodd; stroke:#aaaaaa; stroke-opacity:100%; stroke-width: 1.5pt; stroke-linejoin:round; stroke-linecap:round;" d="M39.72 72.63c9.6-0.8 30.92-3.67 37.47-3.79c2.71-0.05 4.19 1.94 3.93 3.17C80 77.5 77.81 84.84 76.76 91.18"></path>
<path style="fill:none; fill-opacity:0%; fill-rule:evenodd; stroke:#aaaaaa; stroke-opacity:100%; stroke-width: 1.5pt; stroke-linejoin:round; stroke-linecap:round;" d="M41.66 93.75c7.21 0 28.06-2.13 38.01-2.25"></path>

<path style="fill:none; fill-opacity:0%; fill-rule:evenodd; stroke:#000000; stroke-opacity:100%; stroke-width: 3pt; stroke-linejoin:round; stroke-linecap:round;" d="M15.83 24.17c1.29 0.53 5.92 0.33 8.77 0.13c11.91-0.85 43.9-3.3 58.73-3.8c3.67-0.12 7.76 0.07 8.83 0.33"></path>
<path style="fill:none; fill-opacity:0%; fill-rule:evenodd; stroke:#000000; stroke-opacity:100%; stroke-width: 3pt; stroke-linejoin:round; stroke-linecap:round;" d="M36 13.33c2.5 0.83 3.03 2.29 3.17 3c1.33 6.67 1.67 11.67 2 14.5"></path>
<path style="fill:none; fill-opacity:0%; fill-rule:evenodd; stroke:#000000; stroke-opacity:100%; stroke-width: 3pt; stroke-linejoin:round; stroke-linecap:round;" d="M66.5 11c1.5 0.67 1.87 1.83 1.67 3.17C67.5 18.5 65.97 25.41 64.5 30.5"></path>
<path style="fill:none; fill-opacity:0%; fill-rule:evenodd; stroke:#000000; stroke-opacity:100%; stroke-width: 3pt; stroke-linejoin:round; stroke-linecap:round;" d="M48.82 28.06c0.34 0.5 0.03 1.5-0.34 2.5c-1.15 3.12-17.26 19.46-32.59 26.56"></path>
<text x="5" y="20" font-size="20" fill="#999999">5</text><path style="fill:none; fill-opacity:0%; fill-rule:evenodd; stroke:#CC0000; stroke-opacity:100%; stroke-width: 3pt; stroke-linejoin:round; stroke-linecap:round;" d="M44 39c0.94 0.65 2.59 0.93 3.83 0.83c4.1-0.33 12.05-1.91 17.5-3.17c3.92-0.9 4.72 1.93 3.69 3.83C63.4 50.9 35.06 75.33 10 80.69" marker-end="url(#TriangleRed)" marker-start="url(#ArrowRed)" ></path>





</g><g transform="scale(1.3761467889908 1.3761467889908) translate(0, 109)">
<path style="fill:none; fill-rule:evenodd; stroke:#aaaaaa;  stroke-width:1pt; stroke-linecap:round;" d="m 109 0 L 0 0 L 0 109 L 109 109 L 109 0"></path><path style="fill:none; fill-opacity:0%; fill-rule:evenodd; stroke:#aaaaaa; stroke-opacity:100%; stroke-width: 1.5pt; stroke-linejoin:round; stroke-linecap:round;" d="M15.83 24.17c1.29 0.53 5.92 0.33 8.77 0.13c11.91-0.85 43.9-3.3 58.73-3.8c3.67-0.12 7.76 0.07 8.83 0.33"></path>
<path style="fill:none; fill-opacity:0%; fill-rule:evenodd; stroke:#aaaaaa; stroke-opacity:100%; stroke-width: 1.5pt; stroke-linejoin:round; stroke-linecap:round;" d="M36 13.33c2.5 0.83 3.03 2.29 3.17 3c1.33 6.67 1.67 11.67 2 14.5"></path>
<path style="fill:none; fill-opacity:0%; fill-rule:evenodd; stroke:#aaaaaa; stroke-opacity:100%; stroke-width: 1.5pt; stroke-linejoin:round; stroke-linecap:round;" d="M66.5 11c1.5 0.67 1.87 1.83 1.67 3.17C67.5 18.5 65.97 25.41 64.5 30.5"></path>
<path style="fill:none; fill-opacity:0%; fill-rule:evenodd; stroke:#aaaaaa; stroke-opacity:100%; stroke-width: 1.5pt; stroke-linejoin:round; stroke-linecap:round;" d="M48.82 28.06c0.34 0.5 0.03 1.5-0.34 2.5c-1.15 3.12-17.26 19.46-32.59 26.56"></path>
<path style="fill:none; fill-opacity:0%; fill-rule:evenodd; stroke:#aaaaaa; stroke-opacity:100%; stroke-width: 1.5pt; stroke-linejoin:round; stroke-linecap:round;" d="M44 39c0.94 0.65 2.59 0.93 3.83 0.83c4.1-0.33 12.05-1.91 17.5-3.17c3.92-0.9 4.72 1.93 3.69 3.83C63.4 50.9 35.06 75.33 10 80.69"></path>
<path style="fill:none; fill-opacity:0%; fill-rule:evenodd; stroke:#aaaaaa; stroke-opacity:100%; stroke-width: 1.5pt; stroke-linejoin:round; stroke-linecap:round;" d="M34.35 50.07c4.33 1.77 10.71 6.81 11.79 9.56"></path>
<path style="fill:none; fill-opacity:0%; fill-rule:evenodd; stroke:#aaaaaa; stroke-opacity:100%; stroke-width: 1.5pt; stroke-linejoin:round; stroke-linecap:round;" d="M37.92 71.14c0.42 0.49 0.95 1.36 1.03 2c0.56 4.66 1.9 15.63 2.69 24.45"></path>
<path style="fill:none; fill-opacity:0%; fill-rule:evenodd; stroke:#aaaaaa; stroke-opacity:100%; stroke-width: 1.5pt; stroke-linejoin:round; stroke-linecap:round;" d="M39.72 72.63c9.6-0.8 30.92-3.67 37.47-3.79c2.71-0.05 4.19 1.94 3.93 3.17C80 77.5 77.81 84.84 76.76 91.18"></path>
<path style="fill:none; fill-opacity:0%; fill-rule:evenodd; stroke:#aaaaaa; stroke-opacity:100%; stroke-width: 1.5pt; stroke-linejoin:round; stroke-linecap:round;" d="M41.66 93.75c7.21 0 28.06-2.13 38.01-2.25"></path>

<path style="fill:none; fill-opacity:0%; fill-rule:evenodd; stroke:#000000; stroke-opacity:100%; stroke-width: 3pt; stroke-linejoin:round; stroke-linecap:round;" d="M15.83 24.17c1.29 0.53 5.92 0.33 8.77 0.13c11.91-0.85 43.9-3.3 58.73-3.8c3.67-0.12 7.76 0.07 8.83 0.33"></path>
<path style="fill:none; fill-opacity:0%; fill-rule:evenodd; stroke:#000000; stroke-opacity:100%; stroke-width: 3pt; stroke-linejoin:round; stroke-linecap:round;" d="M36 13.33c2.5 0.83 3.03 2.29 3.17 3c1.33 6.67 1.67 11.67 2 14.5"></path>
<path style="fill:none; fill-opacity:0%; fill-rule:evenodd; stroke:#000000; stroke-opacity:100%; stroke-width: 3pt; stroke-linejoin:round; stroke-linecap:round;" d="M66.5 11c1.5 0.67 1.87 1.83 1.67 3.17C67.5 18.5 65.97 25.41 64.5 30.5"></path>
<path style="fill:none; fill-opacity:0%; fill-rule:evenodd; stroke:#000000; stroke-opacity:100%; stroke-width: 3pt; stroke-linejoin:round; stroke-linecap:round;" d="M48.82 28.06c0.34 0.5 0.03 1.5-0.34 2.5c-1.15 3.12-17.26 19.46-32.59 26.56"></path>
<path style="fill:none; fill-opacity:0%; fill-rule:evenodd; stroke:#000000; stroke-opacity:100%; stroke-width: 3pt; stroke-linejoin:round; stroke-linecap:round;" d="M44 39c0.94 0.65 2.59 0.93 3.83 0.83c4.1-0.33 12.05-1.91 17.5-3.17c3.92-0.9 4.72 1.93 3.69 3.83C63.4 50.9 35.06 75.33 10 80.69"></path>
<text x="5" y="20" font-size="20" fill="#999999">6</text><path style="fill:none; fill-opacity:0%; fill-rule:evenodd; stroke:#CC0000; stroke-opacity:100%; stroke-width: 3pt; stroke-linejoin:round; stroke-linecap:round;" d="M34.35 50.07c4.33 1.77 10.71 6.81 11.79 9.56" marker-end="url(#TriangleRed)" marker-start="url(#ArrowRed)" ></path>




</g><g transform="scale(1.3761467889908 1.3761467889908) translate(109, 109)">
<path style="fill:none; fill-rule:evenodd; stroke:#aaaaaa;  stroke-width:1pt; stroke-linecap:round;" d="m 109 0 L 0 0 L 0 109 L 109 109 L 109 0"></path><path style="fill:none; fill-opacity:0%; fill-rule:evenodd; stroke:#aaaaaa; stroke-opacity:100%; stroke-width: 1.5pt; stroke-linejoin:round; stroke-linecap:round;" d="M15.83 24.17c1.29 0.53 5.92 0.33 8.77 0.13c11.91-0.85 43.9-3.3 58.73-3.8c3.67-0.12 7.76 0.07 8.83 0.33"></path>
<path style="fill:none; fill-opacity:0%; fill-rule:evenodd; stroke:#aaaaaa; stroke-opacity:100%; stroke-width: 1.5pt; stroke-linejoin:round; stroke-linecap:round;" d="M36 13.33c2.5 0.83 3.03 2.29 3.17 3c1.33 6.67 1.67 11.67 2 14.5"></path>
<path style="fill:none; fill-opacity:0%; fill-rule:evenodd; stroke:#aaaaaa; stroke-opacity:100%; stroke-width: 1.5pt; stroke-linejoin:round; stroke-linecap:round;" d="M66.5 11c1.5 0.67 1.87 1.83 1.67 3.17C67.5 18.5 65.97 25.41 64.5 30.5"></path>
<path style="fill:none; fill-opacity:0%; fill-rule:evenodd; stroke:#aaaaaa; stroke-opacity:100%; stroke-width: 1.5pt; stroke-linejoin:round; stroke-linecap:round;" d="M48.82 28.06c0.34 0.5 0.03 1.5-0.34 2.5c-1.15 3.12-17.26 19.46-32.59 26.56"></path>
<path style="fill:none; fill-opacity:0%; fill-rule:evenodd; stroke:#aaaaaa; stroke-opacity:100%; stroke-width: 1.5pt; stroke-linejoin:round; stroke-linecap:round;" d="M44 39c0.94 0.65 2.59 0.93 3.83 0.83c4.1-0.33 12.05-1.91 17.5-3.17c3.92-0.9 4.72 1.93 3.69 3.83C63.4 50.9 35.06 75.33 10 80.69"></path>
<path style="fill:none; fill-opacity:0%; fill-rule:evenodd; stroke:#aaaaaa; stroke-opacity:100%; stroke-width: 1.5pt; stroke-linejoin:round; stroke-linecap:round;" d="M34.35 50.07c4.33 1.77 10.71 6.81 11.79 9.56"></path>
<path style="fill:none; fill-opacity:0%; fill-rule:evenodd; stroke:#aaaaaa; stroke-opacity:100%; stroke-width: 1.5pt; stroke-linejoin:round; stroke-linecap:round;" d="M37.92 71.14c0.42 0.49 0.95 1.36 1.03 2c0.56 4.66 1.9 15.63 2.69 24.45"></path>
<path style="fill:none; fill-opacity:0%; fill-rule:evenodd; stroke:#aaaaaa; stroke-opacity:100%; stroke-width: 1.5pt; stroke-linejoin:round; stroke-linecap:round;" d="M39.72 72.63c9.6-0.8 30.92-3.67 37.47-3.79c2.71-0.05 4.19 1.94 3.93 3.17C80 77.5 77.81 84.84 76.76 91.18"></path>
<path style="fill:none; fill-opacity:0%; fill-rule:evenodd; stroke:#aaaaaa; stroke-opacity:100%; stroke-width: 1.5pt; stroke-linejoin:round; stroke-linecap:round;" d="M41.66 93.75c7.21 0 28.06-2.13 38.01-2.25"></path>

<path style="fill:none; fill-opacity:0%; fill-rule:evenodd; stroke:#000000; stroke-opacity:100%; stroke-width: 3pt; stroke-linejoin:round; stroke-linecap:round;" d="M15.83 24.17c1.29 0.53 5.92 0.33 8.77 0.13c11.91-0.85 43.9-3.3 58.73-3.8c3.67-0.12 7.76 0.07 8.83 0.33"></path>
<path style="fill:none; fill-opacity:0%; fill-rule:evenodd; stroke:#000000; stroke-opacity:100%; stroke-width: 3pt; stroke-linejoin:round; stroke-linecap:round;" d="M36 13.33c2.5 0.83 3.03 2.29 3.17 3c1.33 6.67 1.67 11.67 2 14.5"></path>
<path style="fill:none; fill-opacity:0%; fill-rule:evenodd; stroke:#000000; stroke-opacity:100%; stroke-width: 3pt; stroke-linejoin:round; stroke-linecap:round;" d="M66.5 11c1.5 0.67 1.87 1.83 1.67 3.17C67.5 18.5 65.97 25.41 64.5 30.5"></path>
<path style="fill:none; fill-opacity:0%; fill-rule:evenodd; stroke:#000000; stroke-opacity:100%; stroke-width: 3pt; stroke-linejoin:round; stroke-linecap:round;" d="M48.82 28.06c0.34 0.5 0.03 1.5-0.34 2.5c-1.15 3.12-17.26 19.46-32.59 26.56"></path>
<path style="fill:none; fill-opacity:0%; fill-rule:evenodd; stroke:#000000; stroke-opacity:100%; stroke-width: 3pt; stroke-linejoin:round; stroke-linecap:round;" d="M44 39c0.94 0.65 2.59 0.93 3.83 0.83c4.1-0.33 12.05-1.91 17.5-3.17c3.92-0.9 4.72 1.93 3.69 3.83C63.4 50.9 35.06 75.33 10 80.69"></path>
<path style="fill:none; fill-opacity:0%; fill-rule:evenodd; stroke:#000000; stroke-opacity:100%; stroke-width: 3pt; stroke-linejoin:round; stroke-linecap:round;" d="M34.35 50.07c4.33 1.77 10.71 6.81 11.79 9.56"></path>
<text x="5" y="20" font-size="20" fill="#999999">7</text><path style="fill:none; fill-opacity:0%; fill-rule:evenodd; stroke:#CC0000; stroke-opacity:100%; stroke-width: 3pt; stroke-linejoin:round; stroke-linecap:round;" d="M37.92 71.14c0.42 0.49 0.95 1.36 1.03 2c0.56 4.66 1.9 15.63 2.69 24.45" marker-end="url(#TriangleRed)" marker-start="url(#ArrowRed)" ></path>



</g><g transform="scale(1.3761467889908 1.3761467889908) translate(218, 109)">
<path style="fill:none; fill-rule:evenodd; stroke:#aaaaaa;  stroke-width:1pt; stroke-linecap:round;" d="m 109 0 L 0 0 L 0 109 L 109 109 L 109 0"></path><path style="fill:none; fill-opacity:0%; fill-rule:evenodd; stroke:#aaaaaa; stroke-opacity:100%; stroke-width: 1.5pt; stroke-linejoin:round; stroke-linecap:round;" d="M15.83 24.17c1.29 0.53 5.92 0.33 8.77 0.13c11.91-0.85 43.9-3.3 58.73-3.8c3.67-0.12 7.76 0.07 8.83 0.33"></path>
<path style="fill:none; fill-opacity:0%; fill-rule:evenodd; stroke:#aaaaaa; stroke-opacity:100%; stroke-width: 1.5pt; stroke-linejoin:round; stroke-linecap:round;" d="M36 13.33c2.5 0.83 3.03 2.29 3.17 3c1.33 6.67 1.67 11.67 2 14.5"></path>
<path style="fill:none; fill-opacity:0%; fill-rule:evenodd; stroke:#aaaaaa; stroke-opacity:100%; stroke-width: 1.5pt; stroke-linejoin:round; stroke-linecap:round;" d="M66.5 11c1.5 0.67 1.87 1.83 1.67 3.17C67.5 18.5 65.97 25.41 64.5 30.5"></path>
<path style="fill:none; fill-opacity:0%; fill-rule:evenodd; stroke:#aaaaaa; stroke-opacity:100%; stroke-width: 1.5pt; stroke-linejoin:round; stroke-linecap:round;" d="M48.82 28.06c0.34 0.5 0.03 1.5-0.34 2.5c-1.15 3.12-17.26 19.46-32.59 26.56"></path>
<path style="fill:none; fill-opacity:0%; fill-rule:evenodd; stroke:#aaaaaa; stroke-opacity:100%; stroke-width: 1.5pt; stroke-linejoin:round; stroke-linecap:round;" d="M44 39c0.94 0.65 2.59 0.93 3.83 0.83c4.1-0.33 12.05-1.91 17.5-3.17c3.92-0.9 4.72 1.93 3.69 3.83C63.4 50.9 35.06 75.33 10 80.69"></path>
<path style="fill:none; fill-opacity:0%; fill-rule:evenodd; stroke:#aaaaaa; stroke-opacity:100%; stroke-width: 1.5pt; stroke-linejoin:round; stroke-linecap:round;" d="M34.35 50.07c4.33 1.77 10.71 6.81 11.79 9.56"></path>
<path style="fill:none; fill-opacity:0%; fill-rule:evenodd; stroke:#aaaaaa; stroke-opacity:100%; stroke-width: 1.5pt; stroke-linejoin:round; stroke-linecap:round;" d="M37.92 71.14c0.42 0.49 0.95 1.36 1.03 2c0.56 4.66 1.9 15.63 2.69 24.45"></path>
<path style="fill:none; fill-opacity:0%; fill-rule:evenodd; stroke:#aaaaaa; stroke-opacity:100%; stroke-width: 1.5pt; stroke-linejoin:round; stroke-linecap:round;" d="M39.72 72.63c9.6-0.8 30.92-3.67 37.47-3.79c2.71-0.05 4.19 1.94 3.93 3.17C80 77.5 77.81 84.84 76.76 91.18"></path>
<path style="fill:none; fill-opacity:0%; fill-rule:evenodd; stroke:#aaaaaa; stroke-opacity:100%; stroke-width: 1.5pt; stroke-linejoin:round; stroke-linecap:round;" d="M41.66 93.75c7.21 0 28.06-2.13 38.01-2.25"></path>

<path style="fill:none; fill-opacity:0%; fill-rule:evenodd; stroke:#000000; stroke-opacity:100%; stroke-width: 3pt; stroke-linejoin:round; stroke-linecap:round;" d="M15.83 24.17c1.29 0.53 5.92 0.33 8.77 0.13c11.91-0.85 43.9-3.3 58.73-3.8c3.67-0.12 7.76 0.07 8.83 0.33"></path>
<path style="fill:none; fill-opacity:0%; fill-rule:evenodd; stroke:#000000; stroke-opacity:100%; stroke-width: 3pt; stroke-linejoin:round; stroke-linecap:round;" d="M36 13.33c2.5 0.83 3.03 2.29 3.17 3c1.33 6.67 1.67 11.67 2 14.5"></path>
<path style="fill:none; fill-opacity:0%; fill-rule:evenodd; stroke:#000000; stroke-opacity:100%; stroke-width: 3pt; stroke-linejoin:round; stroke-linecap:round;" d="M66.5 11c1.5 0.67 1.87 1.83 1.67 3.17C67.5 18.5 65.97 25.41 64.5 30.5"></path>
<path style="fill:none; fill-opacity:0%; fill-rule:evenodd; stroke:#000000; stroke-opacity:100%; stroke-width: 3pt; stroke-linejoin:round; stroke-linecap:round;" d="M48.82 28.06c0.34 0.5 0.03 1.5-0.34 2.5c-1.15 3.12-17.26 19.46-32.59 26.56"></path>
<path style="fill:none; fill-opacity:0%; fill-rule:evenodd; stroke:#000000; stroke-opacity:100%; stroke-width: 3pt; stroke-linejoin:round; stroke-linecap:round;" d="M44 39c0.94 0.65 2.59 0.93 3.83 0.83c4.1-0.33 12.05-1.91 17.5-3.17c3.92-0.9 4.72 1.93 3.69 3.83C63.4 50.9 35.06 75.33 10 80.69"></path>
<path style="fill:none; fill-opacity:0%; fill-rule:evenodd; stroke:#000000; stroke-opacity:100%; stroke-width: 3pt; stroke-linejoin:round; stroke-linecap:round;" d="M34.35 50.07c4.33 1.77 10.71 6.81 11.79 9.56"></path>
<path style="fill:none; fill-opacity:0%; fill-rule:evenodd; stroke:#000000; stroke-opacity:100%; stroke-width: 3pt; stroke-linejoin:round; stroke-linecap:round;" d="M37.92 71.14c0.42 0.49 0.95 1.36 1.03 2c0.56 4.66 1.9 15.63 2.69 24.45"></path>
<text x="5" y="20" font-size="20" fill="#999999">8</text><path style="fill:none; fill-opacity:0%; fill-rule:evenodd; stroke:#CC0000; stroke-opacity:100%; stroke-width: 3pt; stroke-linejoin:round; stroke-linecap:round;" d="M39.72 72.63c9.6-0.8 30.92-3.67 37.47-3.79c2.71-0.05 4.19 1.94 3.93 3.17C80 77.5 77.81 84.84 76.76 91.18" marker-end="url(#TriangleRed)" marker-start="url(#ArrowRed)" ></path>


</g><g transform="scale(1.3761467889908 1.3761467889908) translate(327, 109)">
<path style="fill:none; fill-rule:evenodd; stroke:#aaaaaa;  stroke-width:1pt; stroke-linecap:round;" d="m 109 0 L 0 0 L 0 109 L 109 109 L 109 0"></path><path style="fill:none; fill-opacity:0%; fill-rule:evenodd; stroke:#aaaaaa; stroke-opacity:100%; stroke-width: 1.5pt; stroke-linejoin:round; stroke-linecap:round;" d="M15.83 24.17c1.29 0.53 5.92 0.33 8.77 0.13c11.91-0.85 43.9-3.3 58.73-3.8c3.67-0.12 7.76 0.07 8.83 0.33"></path>
<path style="fill:none; fill-opacity:0%; fill-rule:evenodd; stroke:#aaaaaa; stroke-opacity:100%; stroke-width: 1.5pt; stroke-linejoin:round; stroke-linecap:round;" d="M36 13.33c2.5 0.83 3.03 2.29 3.17 3c1.33 6.67 1.67 11.67 2 14.5"></path>
<path style="fill:none; fill-opacity:0%; fill-rule:evenodd; stroke:#aaaaaa; stroke-opacity:100%; stroke-width: 1.5pt; stroke-linejoin:round; stroke-linecap:round;" d="M66.5 11c1.5 0.67 1.87 1.83 1.67 3.17C67.5 18.5 65.97 25.41 64.5 30.5"></path>
<path style="fill:none; fill-opacity:0%; fill-rule:evenodd; stroke:#aaaaaa; stroke-opacity:100%; stroke-width: 1.5pt; stroke-linejoin:round; stroke-linecap:round;" d="M48.82 28.06c0.34 0.5 0.03 1.5-0.34 2.5c-1.15 3.12-17.26 19.46-32.59 26.56"></path>
<path style="fill:none; fill-opacity:0%; fill-rule:evenodd; stroke:#aaaaaa; stroke-opacity:100%; stroke-width: 1.5pt; stroke-linejoin:round; stroke-linecap:round;" d="M44 39c0.94 0.65 2.59 0.93 3.83 0.83c4.1-0.33 12.05-1.91 17.5-3.17c3.92-0.9 4.72 1.93 3.69 3.83C63.4 50.9 35.06 75.33 10 80.69"></path>
<path style="fill:none; fill-opacity:0%; fill-rule:evenodd; stroke:#aaaaaa; stroke-opacity:100%; stroke-width: 1.5pt; stroke-linejoin:round; stroke-linecap:round;" d="M34.35 50.07c4.33 1.77 10.71 6.81 11.79 9.56"></path>
<path style="fill:none; fill-opacity:0%; fill-rule:evenodd; stroke:#aaaaaa; stroke-opacity:100%; stroke-width: 1.5pt; stroke-linejoin:round; stroke-linecap:round;" d="M37.92 71.14c0.42 0.49 0.95 1.36 1.03 2c0.56 4.66 1.9 15.63 2.69 24.45"></path>
<path style="fill:none; fill-opacity:0%; fill-rule:evenodd; stroke:#aaaaaa; stroke-opacity:100%; stroke-width: 1.5pt; stroke-linejoin:round; stroke-linecap:round;" d="M39.72 72.63c9.6-0.8 30.92-3.67 37.47-3.79c2.71-0.05 4.19 1.94 3.93 3.17C80 77.5 77.81 84.84 76.76 91.18"></path>
<path style="fill:none; fill-opacity:0%; fill-rule:evenodd; stroke:#aaaaaa; stroke-opacity:100%; stroke-width: 1.5pt; stroke-linejoin:round; stroke-linecap:round;" d="M41.66 93.75c7.21 0 28.06-2.13 38.01-2.25"></path>

<path style="fill:none; fill-opacity:0%; fill-rule:evenodd; stroke:#000000; stroke-opacity:100%; stroke-width: 3pt; stroke-linejoin:round; stroke-linecap:round;" d="M15.83 24.17c1.29 0.53 5.92 0.33 8.77 0.13c11.91-0.85 43.9-3.3 58.73-3.8c3.67-0.12 7.76 0.07 8.83 0.33"></path>
<path style="fill:none; fill-opacity:0%; fill-rule:evenodd; stroke:#000000; stroke-opacity:100%; stroke-width: 3pt; stroke-linejoin:round; stroke-linecap:round;" d="M36 13.33c2.5 0.83 3.03 2.29 3.17 3c1.33 6.67 1.67 11.67 2 14.5"></path>
<path style="fill:none; fill-opacity:0%; fill-rule:evenodd; stroke:#000000; stroke-opacity:100%; stroke-width: 3pt; stroke-linejoin:round; stroke-linecap:round;" d="M66.5 11c1.5 0.67 1.87 1.83 1.67 3.17C67.5 18.5 65.97 25.41 64.5 30.5"></path>
<path style="fill:none; fill-opacity:0%; fill-rule:evenodd; stroke:#000000; stroke-opacity:100%; stroke-width: 3pt; stroke-linejoin:round; stroke-linecap:round;" d="M48.82 28.06c0.34 0.5 0.03 1.5-0.34 2.5c-1.15 3.12-17.26 19.46-32.59 26.56"></path>
<path style="fill:none; fill-opacity:0%; fill-rule:evenodd; stroke:#000000; stroke-opacity:100%; stroke-width: 3pt; stroke-linejoin:round; stroke-linecap:round;" d="M44 39c0.94 0.65 2.59 0.93 3.83 0.83c4.1-0.33 12.05-1.91 17.5-3.17c3.92-0.9 4.72 1.93 3.69 3.83C63.4 50.9 35.06 75.33 10 80.69"></path>
<path style="fill:none; fill-opacity:0%; fill-rule:evenodd; stroke:#000000; stroke-opacity:100%; stroke-width: 3pt; stroke-linejoin:round; stroke-linecap:round;" d="M34.35 50.07c4.33 1.77 10.71 6.81 11.79 9.56"></path>
<path style="fill:none; fill-opacity:0%; fill-rule:evenodd; stroke:#000000; stroke-opacity:100%; stroke-width: 3pt; stroke-linejoin:round; stroke-linecap:round;" d="M37.92 71.14c0.42 0.49 0.95 1.36 1.03 2c0.56 4.66 1.9 15.63 2.69 24.45"></path>
<path style="fill:none; fill-opacity:0%; fill-rule:evenodd; stroke:#000000; stroke-opacity:100%; stroke-width: 3pt; stroke-linejoin:round; stroke-linecap:round;" d="M39.72 72.63c9.6-0.8 30.92-3.67 37.47-3.79c2.71-0.05 4.19 1.94 3.93 3.17C80 77.5 77.81 84.84 76.76 91.18"></path>
<text x="5" y="20" font-size="20" fill="#999999">9</text><path style="fill:none; fill-opacity:0%; fill-rule:evenodd; stroke:#CC0000; stroke-opacity:100%; stroke-width: 3pt; stroke-linejoin:round; stroke-linecap:round;" d="M41.66 93.75c7.21 0 28.06-2.13 38.01-2.25" marker-end="url(#TriangleRed)" marker-start="url(#ArrowRed)" ></path>

</g>

</svg>  
          
