<?xml version="1.0" standalone="no"?>
<!DOCTYPE svg PUBLIC "-//W3C//DTD SVG 1.1//EN"   "http://www.w3.org/Graphics/SVG/1.1/DTD/svg11.dtd">
<svg width="751" height="301"  version="1.1" xmlns="http://www.w3.org/2000/svg">
  <defs>
    <marker id="Triangle" viewBox="0 0 10 10" refX="0" refY="5" markerUnits="strokeWidth" markerWidth="3" style="stroke-opacity:0%;fill:#aaaaaa;" markerHeight="2" orient="auto">
      <path d="M 0 0 L 10 5 L 0 10 z" />
    </marker>
    
    <marker id="Arrow" viewBox="0 0 10 10" refX="5" refY="5" markerUnits="strokeWidth" markerWidth="1.8" style="stroke-opacity:0%;fill:#770000;" markerHeight="2" orient="auto">
      <path d="M 0 4 L 6 4 L 4 1 L 10 5 L 4 9 L 6 6 L 0 6 z" />
        <circle cx="5" cy="5" r="5" />
      </marker>
    
    <marker id="TriangleRed" viewBox="0 0 10 10" refX="0" refY="5" markerUnits="strokeWidth" markerWidth="3" style="stroke-opacity:0%;fill:#CC0000;" markerHeight="2" orient="auto">
      <path d="M 0 0 L 10 5 L 0 10 z" />
    </marker>
    
    <marker id="ArrowRed" viewBox="0 0 10 10" refX="5" refY="5" markerUnits="strokeWidth" markerWidth="1.8" style="stroke-opacity:0%;fill:#CC0000;" markerHeight="2" orient="auto">
      <path d="M 0 4 L 6 4 L 4 1 L 10 5 L 4 9 L 6 6 L 0 6 z" />
        <circle cx="5" cy="5" r="5" />
      </marker>
    
  </defs>
  
  <path style="fill:#ffffff; fill-opacity:100%; fill-rule:evenodd; stroke-width:0;" d="M 0 0 L 751 0 L 751 301 L 0 301 L 0 0" />

  <g transform="scale(1.3761467889908 1.3761467889908) translate(0, 0)">
<path style="fill:none; fill-rule:evenodd; stroke:#aaaaaa;  stroke-width:1pt; stroke-linecap:round;" d="m 109 0 L 0 0 L 0 109 L 109 109 L 109 0"></path><path style="fill:none; fill-opacity:0%; fill-rule:evenodd; stroke:#aaaaaa; stroke-opacity:100%; stroke-width: 1.5pt; stroke-linejoin:round; stroke-linecap:round;" d="M16.67 24.33c2.08 0.67 5.08 0.67 8 0.33c11.86-1.35 44.12-3.53 57.83-3.83c3.75-0.08 8.42 0.9 9.5 1.17"></path>
<path style="fill:none; fill-opacity:0%; fill-rule:evenodd; stroke:#aaaaaa; stroke-opacity:100%; stroke-width: 1.5pt; stroke-linejoin:round; stroke-linecap:round;" d="M35.67 11.17c1.83 0.83 3.55 2.93 3.68 3.77c1.15 7.73 1.82 13.23 1.99 16.4"></path>
<path style="fill:none; fill-opacity:0%; fill-rule:evenodd; stroke:#aaaaaa; stroke-opacity:100%; stroke-width: 1.5pt; stroke-linejoin:round; stroke-linecap:round;" d="M68 10.33c0.75 1.17 1.25 2.67 1 4.17c-1 6-1.04 9.08-2.67 14.83"></path>
<path style="fill:none; fill-opacity:0%; fill-rule:evenodd; stroke:#aaaaaa; stroke-opacity:100%; stroke-width: 1.5pt; stroke-linejoin:round; stroke-linecap:round;" d="M39.67 36c0.25 0.26 2.22 2.29 2.33 2.61c0.88 2.56 2.07 8.8 2.67 13.39"></path>
<path style="fill:none; fill-opacity:0%; fill-rule:evenodd; stroke:#aaaaaa; stroke-opacity:100%; stroke-width: 1.5pt; stroke-linejoin:round; stroke-linecap:round;" d="M41.5 37.5c8.46-0.8 24.14-2.9 28.5-3.17c1.6-0.1 3.23 2.08 3 2.67c-0.95 2.41-2 6-3 9.67"></path>
<path style="fill:none; fill-opacity:0%; fill-rule:evenodd; stroke:#aaaaaa; stroke-opacity:100%; stroke-width: 1.5pt; stroke-linejoin:round; stroke-linecap:round;" d="M45.13 50.05c4.87-0.57 20.52-1.98 26.7-2.55"></path>
<path style="fill:none; fill-opacity:0%; fill-rule:evenodd; stroke:#aaaaaa; stroke-opacity:100%; stroke-width: 1.5pt; stroke-linejoin:round; stroke-linecap:round;" d="M28.17 44.17c1.23 0.77 1.48 2.92 1.5 4c0.04 2.28-0.04 6.69-0.17 9.83c-0.03 0.68-0.08 2.82 2.17 2.5c4.95-0.7 36.44-3.63 42-3.83c4.95-0.18 3.56 1.68 3.33 2.83c-0.67 3.33-1 6.33-1.67 10.67"></path>
<path style="fill:none; fill-opacity:0%; fill-rule:evenodd; stroke:#aaaaaa; stroke-opacity:100%; stroke-width: 1.5pt; stroke-linejoin:round; stroke-linecap:round;" d="M17.5 74.33c2.25 0.42 5.5 0.67 10.83 0.5c17.41-0.54 39.42-2.33 56.5-3.67c4.7-0.37 6.92 0.11 9.33 0.5"></path>
<path style="fill:none; fill-opacity:0%; fill-rule:evenodd; stroke:#aaaaaa; stroke-opacity:100%; stroke-width: 1.5pt; stroke-linejoin:round; stroke-linecap:round;" d="M52.45 62.08c0.59 0.52 0.89 1.61 0.88 2.73c-0.29 19.32-15.08 30.94-35.66 34.94"></path>
<path style="fill:none; fill-opacity:0%; fill-rule:evenodd; stroke:#aaaaaa; stroke-opacity:100%; stroke-width: 1.5pt; stroke-linejoin:round; stroke-linecap:round;" d="M55.5 74.67c8.17 8.17 14.5 15.08 28.17 21.67c2.4 1.16 4.08 1.47 5.17 1.58"></path>

<text x="5" y="20" font-size="20" fill="#999999">1</text><path style="fill:none; fill-opacity:0%; fill-rule:evenodd; stroke:#CC0000; stroke-opacity:100%; stroke-width: 3pt; stroke-linejoin:round; stroke-linecap:round;" d="M16.67 24.33c2.08 0.67 5.08 0.67 8 0.33c11.86-1.35 44.12-3.53 57.83-3.83c3.75-0.08 8.42 0.9 9.5 1.17"  ></path>










</g><g transform="scale(1.3761467889908 1.3761467889908) translate(109, 0)">
<path style="fill:none; fill-rule:evenodd; stroke:#aaaaaa;  stroke-width:1pt; stroke-linecap:round;" d="m 109 0 L 0 0 L 0 109 L 109 109 L 109 0"></path><path style="fill:none; fill-opacity:0%; fill-rule:evenodd; stroke:#aaaaaa; stroke-opacity:100%; stroke-width: 1.5pt; stroke-linejoin:round; stroke-linecap:round;" d="M16.67 24.33c2.08 0.67 5.08 0.67 8 0.33c11.86-1.35 44.12-3.53 57.83-3.83c3.75-0.08 8.42 0.9 9.5 1.17"></path>
<path style="fill:none; fill-opacity:0%; fill-rule:evenodd; stroke:#aaaaaa; stroke-opacity:100%; stroke-width: 1.5pt; stroke-linejoin:round; stroke-linecap:round;" d="M35.67 11.17c1.83 0.83 3.55 2.93 3.68 3.77c1.15 7.73 1.82 13.23 1.99 16.4"></path>
<path style="fill:none; fill-opacity:0%; fill-rule:evenodd; stroke:#aaaaaa; stroke-opacity:100%; stroke-width: 1.5pt; stroke-linejoin:round; stroke-linecap:round;" d="M68 10.33c0.75 1.17 1.25 2.67 1 4.17c-1 6-1.04 9.08-2.67 14.83"></path>
<path style="fill:none; fill-opacity:0%; fill-rule:evenodd; stroke:#aaaaaa; stroke-opacity:100%; stroke-width: 1.5pt; stroke-linejoin:round; stroke-linecap:round;" d="M39.67 36c0.25 0.26 2.22 2.29 2.33 2.61c0.88 2.56 2.07 8.8 2.67 13.39"></path>
<path style="fill:none; fill-opacity:0%; fill-rule:evenodd; stroke:#aaaaaa; stroke-opacity:100%; stroke-width: 1.5pt; stroke-linejoin:round; stroke-linecap:round;" d="M41.5 37.5c8.46-0.8 24.14-2.9 28.5-3.17c1.6-0.1 3.23 2.08 3 2.67c-0.95 2.41-2 6-3 9.67"></path>
<path style="fill:none; fill-opacity:0%; fill-rule:evenodd; stroke:#aaaaaa; stroke-opacity:100%; stroke-width: 1.5pt; stroke-linejoin:round; stroke-linecap:round;" d="M45.13 50.05c4.87-0.57 20.52-1.98 26.7-2.55"></path>
<path style="fill:none; fill-opacity:0%; fill-rule:evenodd; stroke:#aaaaaa; stroke-opacity:100%; stroke-width: 1.5pt; stroke-linejoin:round; stroke-linecap:round;" d="M28.17 44.17c1.23 0.77 1.48 2.92 1.5 4c0.04 2.28-0.04 6.69-0.17 9.83c-0.03 0.68-0.08 2.82 2.17 2.5c4.95-0.7 36.44-3.63 42-3.83c4.95-0.18 3.56 1.68 3.33 2.83c-0.67 3.33-1 6.33-1.67 10.67"></path>
<path style="fill:none; fill-opacity:0%; fill-rule:evenodd; stroke:#aaaaaa; stroke-opacity:100%; stroke-width: 1.5pt; stroke-linejoin:round; stroke-linecap:round;" d="M17.5 74.33c2.25 0.42 5.5 0.67 10.83 0.5c17.41-0.54 39.42-2.33 56.5-3.67c4.7-0.37 6.92 0.11 9.33 0.5"></path>
<path style="fill:none; fill-opacity:0%; fill-rule:evenodd; stroke:#aaaaaa; stroke-opacity:100%; stroke-width: 1.5pt; stroke-linejoin:round; stroke-linecap:round;" d="M52.45 62.08c0.59 0.52 0.89 1.61 0.88 2.73c-0.29 19.32-15.08 30.94-35.66 34.94"></path>
<path style="fill:none; fill-opacity:0%; fill-rule:evenodd; stroke:#aaaaaa; stroke-opacity:100%; stroke-width: 1.5pt; stroke-linejoin:round; stroke-linecap:round;" d="M55.5 74.67c8.17 8.17 14.5 15.08 28.17 21.67c2.4 1.16 4.08 1.47 5.17 1.58"></path>

<path style="fill:none; fill-opacity:0%; fill-rule:evenodd; stroke:#000000; stroke-opacity:100%; stroke-width: 3pt; stroke-linejoin:round; stroke-linecap:round;" d="M16.67 24.33c2.08 0.67 5.08 0.67 8 0.33c11.86-1.35 44.12-3.53 57.83-3.83c3.75-0.08 8.42 0.9 9.5 1.17"></path>
<text x="5" y="20" font-size="20" fill="#999999">2</text><path style="fill:none; fill-opacity:0%; fill-rule:evenodd; stroke:#CC0000; stroke-opacity:100%; stroke-width: 3pt; stroke-linejoin:round; stroke-linecap:round;" d="M35.67 11.17c1.83 0.83 3.55 2.93 3.68 3.77c1.15 7.73 1.82 13.23 1.99 16.4"  ></path>









</g><g transform="scale(1.3761467889908 1.3761467889908) translate(218, 0)">
<path style="fill:none; fill-rule:evenodd; stroke:#aaaaaa;  stroke-width:1pt; stroke-linecap:round;" d="m 109 0 L 0 0 L 0 109 L 109 109 L 109 0"></path><path style="fill:none; fill-opacity:0%; fill-rule:evenodd; stroke:#aaaaaa; stroke-opacity:100%; stroke-width: 1.5pt; stroke-linejoin:round; stroke-linecap:round;" d="M16.67 24.33c2.08 0.67 5.08 0.67 8 0.33c11.86-1.35 44.12-3.53 57.83-3.83c3.75-0.08 8.42 0.9 9.5 1.17"></path>
<path style="fill:none; fill-opacity:0%; fill-rule:evenodd; stroke:#aaaaaa; stroke-opacity:100%; stroke-width: 1.5pt; stroke-linejoin:round; stroke-linecap:round;" d="M35.67 11.17c1.83 0.83 3.55 2.93 3.68 3.77c1.15 7.73 1.82 13.23 1.99 16.4"></path>
<path style="fill:none; fill-opacity:0%; fill-rule:evenodd; stroke:#aaaaaa; stroke-opacity:100%; stroke-width: 1.5pt; stroke-linejoin:round; stroke-linecap:round;" d="M68 10.33c0.75 1.17 1.25 2.67 1 4.17c-1 6-1.04 9.08-2.67 14.83"></path>
<path style="fill:none; fill-opacity:0%; fill-rule:evenodd; stroke:#aaaaaa; stroke-opacity:100%; stroke-width: 1.5pt; stroke-linejoin:round; stroke-linecap:round;" d="M39.67 36c0.25 0.26 2.22 2.29 2.33 2.61c0.88 2.56 2.07 8.8 2.67 13.39"></path>
<path style="fill:none; fill-opacity:0%; fill-rule:evenodd; stroke:#aaaaaa; stroke-opacity:100%; stroke-width: 1.5pt; stroke-linejoin:round; stroke-linecap:round;" d="M41.5 37.5c8.46-0.8 24.14-2.9 28.5-3.17c1.6-0.1 3.23 2.08 3 2.67c-0.95 2.41-2 6-3 9.67"></path>
<path style="fill:none; fill-opacity:0%; fill-rule:evenodd; stroke:#aaaaaa; stroke-opacity:100%; stroke-width: 1.5pt; stroke-linejoin:round; stroke-linecap:round;" d="M45.13 50.05c4.87-0.57 20.52-1.98 26.7-2.55"></path>
<path style="fill:none; fill-opacity:0%; fill-rule:evenodd; stroke:#aaaaaa; stroke-opacity:100%; stroke-width: 1.5pt; stroke-linejoin:round; stroke-linecap:round;" d="M28.17 44.17c1.23 0.77 1.48 2.92 1.5 4c0.04 2.28-0.04 6.69-0.17 9.83c-0.03 0.68-0.08 2.82 2.17 2.5c4.95-0.7 36.44-3.63 42-3.83c4.95-0.18 3.56 1.68 3.33 2.83c-0.67 3.33-1 6.33-1.67 10.67"></path>
<path style="fill:none; fill-opacity:0%; fill-rule:evenodd; stroke:#aaaaaa; stroke-opacity:100%; stroke-width: 1.5pt; stroke-linejoin:round; stroke-linecap:round;" d="M17.5 74.33c2.25 0.42 5.5 0.67 10.83 0.5c17.41-0.54 39.42-2.33 56.5-3.67c4.7-0.37 6.92 0.11 9.33 0.5"></path>
<path style="fill:none; fill-opacity:0%; fill-rule:evenodd; stroke:#aaaaaa; stroke-opacity:100%; stroke-width: 1.5pt; stroke-linejoin:round; stroke-linecap:round;" d="M52.45 62.08c0.59 0.52 0.89 1.61 0.88 2.73c-0.29 19.32-15.08 30.94-35.66 34.94"></path>
<path style="fill:none; fill-opacity:0%; fill-rule:evenodd; stroke:#aaaaaa; stroke-opacity:100%; stroke-width: 1.5pt; stroke-linejoin:round; stroke-linecap:round;" d="M55.5 74.67c8.17 8.17 14.5 15.08 28.17 21.67c2.4 1.16 4.08 1.47 5.17 1.58"></path>

<path style="fill:none; fill-opacity:0%; fill-rule:evenodd; stroke:#000000; stroke-opacity:100%; stroke-width: 3pt; stroke-linejoin:round; stroke-linecap:round;" d="M16.67 24.33c2.08 0.67 5.08 0.67 8 0.33c11.86-1.35 44.12-3.53 57.83-3.83c3.75-0.08 8.42 0.9 9.5 1.17"></path>
<path style="fill:none; fill-opacity:0%; fill-rule:evenodd; stroke:#000000; stroke-opacity:100%; stroke-width: 3pt; stroke-linejoin:round; stroke-linecap:round;" d="M35.67 11.17c1.83 0.83 3.55 2.93 3.68 3.77c1.15 7.73 1.82 13.23 1.99 16.4"></path>
<text x="5" y="20" font-size="20" fill="#999999">3</text><path style="fill:none; fill-opacity:0%; fill-rule:evenodd; stroke:#CC0000; stroke-opacity:100%; stroke-width: 3pt; stroke-linejoin:round; stroke-linecap:round;" d="M68 10.33c0.75 1.17 1.25 2.67 1 4.17c-1 6-1.04 9.08-2.67 14.83"  ></path>








</g><g transform="scale(1.3761467889908 1.3761467889908) translate(327, 0)">
<path style="fill:none; fill-rule:evenodd; stroke:#aaaaaa;  stroke-width:1pt; stroke-linecap:round;" d="m 109 0 L 0 0 L 0 109 L 109 109 L 109 0"></path><path style="fill:none; fill-opacity:0%; fill-rule:evenodd; stroke:#aaaaaa; stroke-opacity:100%; stroke-width: 1.5pt; stroke-linejoin:round; stroke-linecap:round;" d="M16.67 24.33c2.08 0.67 5.08 0.67 8 0.33c11.86-1.35 44.12-3.53 57.83-3.83c3.75-0.08 8.42 0.9 9.5 1.17"></path>
<path style="fill:none; fill-opacity:0%; fill-rule:evenodd; stroke:#aaaaaa; stroke-opacity:100%; stroke-width: 1.5pt; stroke-linejoin:round; stroke-linecap:round;" d="M35.67 11.17c1.83 0.83 3.55 2.93 3.68 3.77c1.15 7.73 1.82 13.23 1.99 16.4"></path>
<path style="fill:none; fill-opacity:0%; fill-rule:evenodd; stroke:#aaaaaa; stroke-opacity:100%; stroke-width: 1.5pt; stroke-linejoin:round; stroke-linecap:round;" d="M68 10.33c0.75 1.17 1.25 2.67 1 4.17c-1 6-1.04 9.08-2.67 14.83"></path>
<path style="fill:none; fill-opacity:0%; fill-rule:evenodd; stroke:#aaaaaa; stroke-opacity:100%; stroke-width: 1.5pt; stroke-linejoin:round; stroke-linecap:round;" d="M39.67 36c0.25 0.26 2.22 2.29 2.33 2.61c0.88 2.56 2.07 8.8 2.67 13.39"></path>
<path style="fill:none; fill-opacity:0%; fill-rule:evenodd; stroke:#aaaaaa; stroke-opacity:100%; stroke-width: 1.5pt; stroke-linejoin:round; stroke-linecap:round;" d="M41.5 37.5c8.46-0.8 24.14-2.9 28.5-3.17c1.6-0.1 3.23 2.08 3 2.67c-0.95 2.41-2 6-3 9.67"></path>
<path style="fill:none; fill-opacity:0%; fill-rule:evenodd; stroke:#aaaaaa; stroke-opacity:100%; stroke-width: 1.5pt; stroke-linejoin:round; stroke-linecap:round;" d="M45.13 50.05c4.87-0.57 20.52-1.98 26.7-2.55"></path>
<path style="fill:none; fill-opacity:0%; fill-rule:evenodd; stroke:#aaaaaa; stroke-opacity:100%; stroke-width: 1.5pt; stroke-linejoin:round; stroke-linecap:round;" d="M28.17 44.17c1.23 0.77 1.48 2.92 1.5 4c0.04 2.28-0.04 6.69-0.17 9.83c-0.03 0.68-0.08 2.82 2.17 2.5c4.95-0.7 36.44-3.63 42-3.83c4.95-0.18 3.56 1.68 3.33 2.83c-0.67 3.33-1 6.33-1.67 10.67"></path>
<path style="fill:none; fill-opacity:0%; fill-rule:evenodd; stroke:#aaaaaa; stroke-opacity:100%; stroke-width: 1.5pt; stroke-linejoin:round; stroke-linecap:round;" d="M17.5 74.33c2.25 0.42 5.5 0.67 10.83 0.5c17.41-0.54 39.42-2.33 56.5-3.67c4.7-0.37 6.92 0.11 9.33 0.5"></path>
<path style="fill:none; fill-opacity:0%; fill-rule:evenodd; stroke:#aaaaaa; stroke-opacity:100%; stroke-width: 1.5pt; stroke-linejoin:round; stroke-linecap:round;" d="M52.45 62.08c0.59 0.52 0.89 1.61 0.88 2.73c-0.29 19.32-15.08 30.94-35.66 34.94"></path>
<path style="fill:none; fill-opacity:0%; fill-rule:evenodd; stroke:#aaaaaa; stroke-opacity:100%; stroke-width: 1.5pt; stroke-linejoin:round; stroke-linecap:round;" d="M55.5 74.67c8.17 8.17 14.5 15.08 28.17 21.67c2.4 1.16 4.08 1.47 5.17 1.58"></path>

<path style="fill:none; fill-opacity:0%; fill-rule:evenodd; stroke:#000000; stroke-opacity:100%; stroke-width: 3pt; stroke-linejoin:round; stroke-linecap:round;" d="M16.67 24.33c2.08 0.67 5.08 0.67 8 0.33c11.86-1.35 44.12-3.53 57.83-3.83c3.75-0.08 8.42 0.9 9.5 1.17"></path>
<path style="fill:none; fill-opacity:0%; fill-rule:evenodd; stroke:#000000; stroke-opacity:100%; stroke-width: 3pt; stroke-linejoin:round; stroke-linecap:round;" d="M35.67 11.17c1.83 0.83 3.55 2.93 3.68 3.77c1.15 7.73 1.82 13.23 1.99 16.4"></path>
<path style="fill:none; fill-opacity:0%; fill-rule:evenodd; stroke:#000000; stroke-opacity:100%; stroke-width: 3pt; stroke-linejoin:round; stroke-linecap:round;" d="M68 10.33c0.75 1.17 1.25 2.67 1 4.17c-1 6-1.04 9.08-2.67 14.83"></path>
<text x="5" y="20" font-size="20" fill="#999999">4</text><path style="fill:none; fill-opacity:0%; fill-rule:evenodd; stroke:#CC0000; stroke-opacity:100%; stroke-width: 3pt; stroke-linejoin:round; stroke-linecap:round;" d="M39.67 36c0.25 0.26 2.22 2.29 2.33 2.61c0.88 2.56 2.07 8.8 2.67 13.39"  ></path>







</g><g transform="scale(1.3761467889908 1.3761467889908) translate(436, 0)">
<path style="fill:none; fill-rule:evenodd; stroke:#aaaaaa;  stroke-width:1pt; stroke-linecap:round;" d="m 109 0 L 0 0 L 0 109 L 109 109 L 109 0"></path><path style="fill:none; fill-opacity:0%; fill-rule:evenodd; stroke:#aaaaaa; stroke-opacity:100%; stroke-width: 1.5pt; stroke-linejoin:round; stroke-linecap:round;" d="M16.67 24.33c2.08 0.67 5.08 0.67 8 0.33c11.86-1.35 44.12-3.53 57.83-3.83c3.75-0.08 8.42 0.9 9.5 1.17"></path>
<path style="fill:none; fill-opacity:0%; fill-rule:evenodd; stroke:#aaaaaa; stroke-opacity:100%; stroke-width: 1.5pt; stroke-linejoin:round; stroke-linecap:round;" d="M35.67 11.17c1.83 0.83 3.55 2.93 3.68 3.77c1.15 7.73 1.82 13.23 1.99 16.4"></path>
<path style="fill:none; fill-opacity:0%; fill-rule:evenodd; stroke:#aaaaaa; stroke-opacity:100%; stroke-width: 1.5pt; stroke-linejoin:round; stroke-linecap:round;" d="M68 10.33c0.75 1.17 1.25 2.67 1 4.17c-1 6-1.04 9.08-2.67 14.83"></path>
<path style="fill:none; fill-opacity:0%; fill-rule:evenodd; stroke:#aaaaaa; stroke-opacity:100%; stroke-width: 1.5pt; stroke-linejoin:round; stroke-linecap:round;" d="M39.67 36c0.25 0.26 2.22 2.29 2.33 2.61c0.88 2.56 2.07 8.8 2.67 13.39"></path>
<path style="fill:none; fill-opacity:0%; fill-rule:evenodd; stroke:#aaaaaa; stroke-opacity:100%; stroke-width: 1.5pt; stroke-linejoin:round; stroke-linecap:round;" d="M41.5 37.5c8.46-0.8 24.14-2.9 28.5-3.17c1.6-0.1 3.23 2.08 3 2.67c-0.95 2.41-2 6-3 9.67"></path>
<path style="fill:none; fill-opacity:0%; fill-rule:evenodd; stroke:#aaaaaa; stroke-opacity:100%; stroke-width: 1.5pt; stroke-linejoin:round; stroke-linecap:round;" d="M45.13 50.05c4.87-0.57 20.52-1.98 26.7-2.55"></path>
<path style="fill:none; fill-opacity:0%; fill-rule:evenodd; stroke:#aaaaaa; stroke-opacity:100%; stroke-width: 1.5pt; stroke-linejoin:round; stroke-linecap:round;" d="M28.17 44.17c1.23 0.77 1.48 2.92 1.5 4c0.04 2.28-0.04 6.69-0.17 9.83c-0.03 0.68-0.08 2.82 2.17 2.5c4.95-0.7 36.44-3.63 42-3.83c4.95-0.18 3.56 1.68 3.33 2.83c-0.67 3.33-1 6.33-1.67 10.67"></path>
<path style="fill:none; fill-opacity:0%; fill-rule:evenodd; stroke:#aaaaaa; stroke-opacity:100%; stroke-width: 1.5pt; stroke-linejoin:round; stroke-linecap:round;" d="M17.5 74.33c2.25 0.42 5.5 0.67 10.83 0.5c17.41-0.54 39.42-2.33 56.5-3.67c4.7-0.37 6.92 0.11 9.33 0.5"></path>
<path style="fill:none; fill-opacity:0%; fill-rule:evenodd; stroke:#aaaaaa; stroke-opacity:100%; stroke-width: 1.5pt; stroke-linejoin:round; stroke-linecap:round;" d="M52.45 62.08c0.59 0.52 0.89 1.61 0.88 2.73c-0.29 19.32-15.08 30.94-35.66 34.94"></path>
<path style="fill:none; fill-opacity:0%; fill-rule:evenodd; stroke:#aaaaaa; stroke-opacity:100%; stroke-width: 1.5pt; stroke-linejoin:round; stroke-linecap:round;" d="M55.5 74.67c8.17 8.17 14.5 15.08 28.17 21.67c2.4 1.16 4.08 1.47 5.17 1.58"></path>

<path style="fill:none; fill-opacity:0%; fill-rule:evenodd; stroke:#000000; stroke-opacity:100%; stroke-width: 3pt; stroke-linejoin:round; stroke-linecap:round;" d="M16.67 24.33c2.08 0.67 5.08 0.67 8 0.33c11.86-1.35 44.12-3.53 57.83-3.83c3.75-0.08 8.42 0.9 9.5 1.17"></path>
<path style="fill:none; fill-opacity:0%; fill-rule:evenodd; stroke:#000000; stroke-opacity:100%; stroke-width: 3pt; stroke-linejoin:round; stroke-linecap:round;" d="M35.67 11.17c1.83 0.83 3.55 2.93 3.68 3.77c1.15 7.73 1.82 13.23 1.99 16.4"></path>
<path style="fill:none; fill-opacity:0%; fill-rule:evenodd; stroke:#000000; stroke-opacity:100%; stroke-width: 3pt; stroke-linejoin:round; stroke-linecap:round;" d="M68 10.33c0.75 1.17 1.25 2.67 1 4.17c-1 6-1.04 9.08-2.67 14.83"></path>
<path style="fill:none; fill-opacity:0%; fill-rule:evenodd; stroke:#000000; stroke-opacity:100%; stroke-width: 3pt; stroke-linejoin:round; stroke-linecap:round;" d="M39.67 36c0.25 0.26 2.22 2.29 2.33 2.61c0.88 2.56 2.07 8.8 2.67 13.39"></path>
<text x="5" y="20" font-size="20" fill="#999999">5</text><path style="fill:none; fill-opacity:0%; fill-rule:evenodd; stroke:#CC0000; stroke-opacity:100%; stroke-width: 3pt; stroke-linejoin:round; stroke-linecap:round;" d="M41.5 37.5c8.46-0.8 24.14-2.9 28.5-3.17c1.6-0.1 3.23 2.08 3 2.67c-0.95 2.41-2 6-3 9.67"  ></path>






</g><g transform="scale(1.3761467889908 1.3761467889908) translate(0, 109)">
<path style="fill:none; fill-rule:evenodd; stroke:#aaaaaa;  stroke-width:1pt; stroke-linecap:round;" d="m 109 0 L 0 0 L 0 109 L 109 109 L 109 0"></path><path style="fill:none; fill-opacity:0%; fill-rule:evenodd; stroke:#aaaaaa; stroke-opacity:100%; stroke-width: 1.5pt; stroke-linejoin:round; stroke-linecap:round;" d="M16.67 24.33c2.08 0.67 5.08 0.67 8 0.33c11.86-1.35 44.12-3.53 57.83-3.83c3.75-0.08 8.42 0.9 9.5 1.17"></path>
<path style="fill:none; fill-opacity:0%; fill-rule:evenodd; stroke:#aaaaaa; stroke-opacity:100%; stroke-width: 1.5pt; stroke-linejoin:round; stroke-linecap:round;" d="M35.67 11.17c1.83 0.83 3.55 2.93 3.68 3.77c1.15 7.73 1.82 13.23 1.99 16.4"></path>
<path style="fill:none; fill-opacity:0%; fill-rule:evenodd; stroke:#aaaaaa; stroke-opacity:100%; stroke-width: 1.5pt; stroke-linejoin:round; stroke-linecap:round;" d="M68 10.33c0.75 1.17 1.25 2.67 1 4.17c-1 6-1.04 9.08-2.67 14.83"></path>
<path style="fill:none; fill-opacity:0%; fill-rule:evenodd; stroke:#aaaaaa; stroke-opacity:100%; stroke-width: 1.5pt; stroke-linejoin:round; stroke-linecap:round;" d="M39.67 36c0.25 0.26 2.22 2.29 2.33 2.61c0.88 2.56 2.07 8.8 2.67 13.39"></path>
<path style="fill:none; fill-opacity:0%; fill-rule:evenodd; stroke:#aaaaaa; stroke-opacity:100%; stroke-width: 1.5pt; stroke-linejoin:round; stroke-linecap:round;" d="M41.5 37.5c8.46-0.8 24.14-2.9 28.5-3.17c1.6-0.1 3.23 2.08 3 2.67c-0.95 2.41-2 6-3 9.67"></path>
<path style="fill:none; fill-opacity:0%; fill-rule:evenodd; stroke:#aaaaaa; stroke-opacity:100%; stroke-width: 1.5pt; stroke-linejoin:round; stroke-linecap:round;" d="M45.13 50.05c4.87-0.57 20.52-1.98 26.7-2.55"></path>
<path style="fill:none; fill-opacity:0%; fill-rule:evenodd; stroke:#aaaaaa; stroke-opacity:100%; stroke-width: 1.5pt; stroke-linejoin:round; stroke-linecap:round;" d="M28.17 44.17c1.23 0.77 1.48 2.92 1.5 4c0.04 2.28-0.04 6.69-0.17 9.83c-0.03 0.68-0.08 2.82 2.17 2.5c4.95-0.7 36.44-3.63 42-3.83c4.95-0.18 3.56 1.68 3.33 2.83c-0.67 3.33-1 6.33-1.67 10.67"></path>
<path style="fill:none; fill-opacity:0%; fill-rule:evenodd; stroke:#aaaaaa; stroke-opacity:100%; stroke-width: 1.5pt; stroke-linejoin:round; stroke-linecap:round;" d="M17.5 74.33c2.25 0.42 5.5 0.67 10.83 0.5c17.41-0.54 39.42-2.33 56.5-3.67c4.7-0.37 6.92 0.11 9.33 0.5"></path>
<path style="fill:none; fill-opacity:0%; fill-rule:evenodd; stroke:#aaaaaa; stroke-opacity:100%; stroke-width: 1.5pt; stroke-linejoin:round; stroke-linecap:round;" d="M52.45 62.08c0.59 0.52 0.89 1.61 0.88 2.73c-0.29 19.32-15.08 30.94-35.66 34.94"></path>
<path style="fill:none; fill-opacity:0%; fill-rule:evenodd; stroke:#aaaaaa; stroke-opacity:100%; stroke-width: 1.5pt; stroke-linejoin:round; stroke-linecap:round;" d="M55.5 74.67c8.17 8.17 14.5 15.08 28.17 21.67c2.4 1.16 4.08 1.47 5.17 1.58"></path>

<path style="fill:none; fill-opacity:0%; fill-rule:evenodd; stroke:#000000; stroke-opacity:100%; stroke-width: 3pt; stroke-linejoin:round; stroke-linecap:round;" d="M16.67 24.33c2.08 0.67 5.08 0.67 8 0.33c11.86-1.35 44.12-3.53 57.83-3.83c3.75-0.08 8.42 0.9 9.5 1.17"></path>
<path style="fill:none; fill-opacity:0%; fill-rule:evenodd; stroke:#000000; stroke-opacity:100%; stroke-width: 3pt; stroke-linejoin:round; stroke-linecap:round;" d="M35.67 11.17c1.83 0.83 3.55 2.93 3.68 3.77c1.15 7.73 1.82 13.23 1.99 16.4"></path>
<path style="fill:none; fill-opacity:0%; fill-rule:evenodd; stroke:#000000; stroke-opacity:100%; stroke-width: 3pt; stroke-linejoin:round; stroke-linecap:round;" d="M68 10.33c0.75 1.17 1.25 2.67 1 4.17c-1 6-1.04 9.08-2.67 14.83"></path>
<path style="fill:none; fill-opacity:0%; fill-rule:evenodd; stroke:#000000; stroke-opacity:100%; stroke-width: 3pt; stroke-linejoin:round; stroke-linecap:round;" d="M39.67 36c0.25 0.26 2.22 2.29 2.33 2.61c0.88 2.56 2.07 8.8 2.67 13.39"></path>
<path style="fill:none; fill-opacity:0%; fill-rule:evenodd; stroke:#000000; stroke-opacity:100%; stroke-width: 3pt; stroke-linejoin:round; stroke-linecap:round;" d="M41.5 37.5c8.46-0.8 24.14-2.9 28.5-3.17c1.6-0.1 3.23 2.08 3 2.67c-0.95 2.41-2 6-3 9.67"></path>
<text x="5" y="20" font-size="20" fill="#999999">6</text><path style="fill:none; fill-opacity:0%; fill-rule:evenodd; stroke:#CC0000; stroke-opacity:100%; stroke-width: 3pt; stroke-linejoin:round; stroke-linecap:round;" d="M45.13 50.05c4.87-0.57 20.52-1.98 26.7-2.55"  ></path>





</g><g transform="scale(1.3761467889908 1.3761467889908) translate(109, 109)">
<path style="fill:none; fill-rule:evenodd; stroke:#aaaaaa;  stroke-width:1pt; stroke-linecap:round;" d="m 109 0 L 0 0 L 0 109 L 109 109 L 109 0"></path><path style="fill:none; fill-opacity:0%; fill-rule:evenodd; stroke:#aaaaaa; stroke-opacity:100%; stroke-width: 1.5pt; stroke-linejoin:round; stroke-linecap:round;" d="M16.67 24.33c2.08 0.67 5.08 0.67 8 0.33c11.86-1.35 44.12-3.53 57.83-3.83c3.75-0.08 8.42 0.9 9.5 1.17"></path>
<path style="fill:none; fill-opacity:0%; fill-rule:evenodd; stroke:#aaaaaa; stroke-opacity:100%; stroke-width: 1.5pt; stroke-linejoin:round; stroke-linecap:round;" d="M35.67 11.17c1.83 0.83 3.55 2.93 3.68 3.77c1.15 7.73 1.82 13.23 1.99 16.4"></path>
<path style="fill:none; fill-opacity:0%; fill-rule:evenodd; stroke:#aaaaaa; stroke-opacity:100%; stroke-width: 1.5pt; stroke-linejoin:round; stroke-linecap:round;" d="M68 10.33c0.75 1.17 1.25 2.67 1 4.17c-1 6-1.04 9.08-2.67 14.83"></path>
<path style="fill:none; fill-opacity:0%; fill-rule:evenodd; stroke:#aaaaaa; stroke-opacity:100%; stroke-width: 1.5pt; stroke-linejoin:round; stroke-linecap:round;" d="M39.67 36c0.25 0.26 2.22 2.29 2.33 2.61c0.88 2.56 2.07 8.8 2.67 13.39"></path>
<path style="fill:none; fill-opacity:0%; fill-rule:evenodd; stroke:#aaaaaa; stroke-opacity:100%; stroke-width: 1.5pt; stroke-linejoin:round; stroke-linecap:round;" d="M41.5 37.5c8.46-0.8 24.14-2.9 28.5-3.17c1.6-0.1 3.23 2.08 3 2.67c-0.95 2.41-2 6-3 9.67"></path>
<path style="fill:none; fill-opacity:0%; fill-rule:evenodd; stroke:#aaaaaa; stroke-opacity:100%; stroke-width: 1.5pt; stroke-linejoin:round; stroke-linecap:round;" d="M45.13 50.05c4.87-0.57 20.52-1.98 26.7-2.55"></path>
<path style="fill:none; fill-opacity:0%; fill-rule:evenodd; stroke:#aaaaaa; stroke-opacity:100%; stroke-width: 1.5pt; stroke-linejoin:round; stroke-linecap:round;" d="M28.17 44.17c1.23 0.77 1.48 2.92 1.5 4c0.04 2.28-0.04 6.69-0.17 9.83c-0.03 0.68-0.08 2.82 2.17 2.5c4.95-0.7 36.44-3.63 42-3.83c4.95-0.18 3.56 1.68 3.33 2.83c-0.67 3.33-1 6.33-1.67 10.67"></path>
<path style="fill:none; fill-opacity:0%; fill-rule:evenodd; stroke:#aaaaaa; stroke-opacity:100%; stroke-width: 1.5pt; stroke-linejoin:round; stroke-linecap:round;" d="M17.5 74.33c2.25 0.42 5.5 0.67 10.83 0.5c17.41-0.54 39.42-2.33 56.5-3.67c4.7-0.37 6.92 0.11 9.33 0.5"></path>
<path style="fill:none; fill-opacity:0%; fill-rule:evenodd; stroke:#aaaaaa; stroke-opacity:100%; stroke-width: 1.5pt; stroke-linejoin:round; stroke-linecap:round;" d="M52.45 62.08c0.59 0.52 0.89 1.61 0.88 2.73c-0.29 19.32-15.08 30.94-35.66 34.94"></path>
<path style="fill:none; fill-opacity:0%; fill-rule:evenodd; stroke:#aaaaaa; stroke-opacity:100%; stroke-width: 1.5pt; stroke-linejoin:round; stroke-linecap:round;" d="M55.5 74.67c8.17 8.17 14.5 15.08 28.17 21.67c2.4 1.16 4.08 1.47 5.17 1.58"></path>

<path style="fill:none; fill-opacity:0%; fill-rule:evenodd; stroke:#000000; stroke-opacity:100%; stroke-width: 3pt; stroke-linejoin:round; stroke-linecap:round;" d="M16.67 24.33c2.08 0.67 5.08 0.67 8 0.33c11.86-1.35 44.12-3.53 57.83-3.83c3.75-0.08 8.42 0.9 9.5 1.17"></path>
<path style="fill:none; fill-opacity:0%; fill-rule:evenodd; stroke:#000000; stroke-opacity:100%; stroke-width: 3pt; stroke-linejoin:round; stroke-linecap:round;" d="M35.67 11.17c1.83 0.83 3.55 2.93 3.68 3.77c1.15 7.73 1.82 13.23 1.99 16.4"></path>
<path style="fill:none; fill-opacity:0%; fill-rule:evenodd; stroke:#000000; stroke-opacity:100%; stroke-width: 3pt; stroke-linejoin:round; stroke-linecap:round;" d="M68 10.33c0.75 1.17 1.25 2.67 1 4.17c-1 6-1.04 9.08-2.67 14.83"></path>
<path style="fill:none; fill-opacity:0%; fill-rule:evenodd; stroke:#000000; stroke-opacity:100%; stroke-width: 3pt; stroke-linejoin:round; stroke-linecap:round;" d="M39.67 36c0.25 0.26 2.22 2.29 2.33 2.61c0.88 2.56 2.07 8.8 2.67 13.39"></path>
<path style="fill:none; fill-opacity:0%; fill-rule:evenodd; stroke:#000000; stroke-opacity:100%; stroke-width: 3pt; stroke-linejoin:round; stroke-linecap:round;" d="M41.5 37.5c8.46-0.8 24.14-2.9 28.5-3.17c1.6-0.1 3.23 2.08 3 2.67c-0.95 2.41-2 6-3 9.67"></path>
<path style="fill:none; fill-opacity:0%; fill-rule:evenodd; stroke:#000000; stroke-opacity:100%; stroke-width: 3pt; stroke-linejoin:round; stroke-linecap:round;" d="M45.13 50.05c4.87-0.57 20.52-1.98 26.7-2.55"></path>
<text x="5" y="20" font-size="20" fill="#999999">7</text><path style="fill:none; fill-opacity:0%; fill-rule:evenodd; stroke:#CC0000; stroke-opacity:100%; stroke-width: 3pt; stroke-linejoin:round; stroke-linecap:round;" d="M28.17 44.17c1.23 0.77 1.48 2.92 1.5 4c0.04 2.28-0.04 6.69-0.17 9.83c-0.03 0.68-0.08 2.82 2.17 2.5c4.95-0.7 36.44-3.63 42-3.83c4.95-0.18 3.56 1.68 3.33 2.83c-0.67 3.33-1 6.33-1.67 10.67"  ></path>




</g><g transform="scale(1.3761467889908 1.3761467889908) translate(218, 109)">
<path style="fill:none; fill-rule:evenodd; stroke:#aaaaaa;  stroke-width:1pt; stroke-linecap:round;" d="m 109 0 L 0 0 L 0 109 L 109 109 L 109 0"></path><path style="fill:none; fill-opacity:0%; fill-rule:evenodd; stroke:#aaaaaa; stroke-opacity:100%; stroke-width: 1.5pt; stroke-linejoin:round; stroke-linecap:round;" d="M16.67 24.33c2.08 0.67 5.08 0.67 8 0.33c11.86-1.35 44.12-3.53 57.83-3.83c3.75-0.08 8.42 0.9 9.5 1.17"></path>
<path style="fill:none; fill-opacity:0%; fill-rule:evenodd; stroke:#aaaaaa; stroke-opacity:100%; stroke-width: 1.5pt; stroke-linejoin:round; stroke-linecap:round;" d="M35.67 11.17c1.83 0.83 3.55 2.93 3.68 3.77c1.15 7.73 1.82 13.23 1.99 16.4"></path>
<path style="fill:none; fill-opacity:0%; fill-rule:evenodd; stroke:#aaaaaa; stroke-opacity:100%; stroke-width: 1.5pt; stroke-linejoin:round; stroke-linecap:round;" d="M68 10.33c0.75 1.17 1.25 2.67 1 4.17c-1 6-1.04 9.08-2.67 14.83"></path>
<path style="fill:none; fill-opacity:0%; fill-rule:evenodd; stroke:#aaaaaa; stroke-opacity:100%; stroke-width: 1.5pt; stroke-linejoin:round; stroke-linecap:round;" d="M39.67 36c0.25 0.26 2.22 2.29 2.33 2.61c0.88 2.56 2.07 8.8 2.67 13.39"></path>
<path style="fill:none; fill-opacity:0%; fill-rule:evenodd; stroke:#aaaaaa; stroke-opacity:100%; stroke-width: 1.5pt; stroke-linejoin:round; stroke-linecap:round;" d="M41.5 37.5c8.46-0.8 24.14-2.9 28.5-3.17c1.6-0.1 3.23 2.08 3 2.67c-0.95 2.41-2 6-3 9.67"></path>
<path style="fill:none; fill-opacity:0%; fill-rule:evenodd; stroke:#aaaaaa; stroke-opacity:100%; stroke-width: 1.5pt; stroke-linejoin:round; stroke-linecap:round;" d="M45.13 50.05c4.87-0.57 20.52-1.98 26.7-2.55"></path>
<path style="fill:none; fill-opacity:0%; fill-rule:evenodd; stroke:#aaaaaa; stroke-opacity:100%; stroke-width: 1.5pt; stroke-linejoin:round; stroke-linecap:round;" d="M28.17 44.17c1.23 0.77 1.48 2.92 1.5 4c0.04 2.28-0.04 6.69-0.17 9.83c-0.03 0.68-0.08 2.82 2.17 2.5c4.95-0.7 36.44-3.63 42-3.83c4.95-0.18 3.56 1.68 3.33 2.83c-0.67 3.33-1 6.33-1.67 10.67"></path>
<path style="fill:none; fill-opacity:0%; fill-rule:evenodd; stroke:#aaaaaa; stroke-opacity:100%; stroke-width: 1.5pt; stroke-linejoin:round; stroke-linecap:round;" d="M17.5 74.33c2.25 0.42 5.5 0.67 10.83 0.5c17.41-0.54 39.42-2.33 56.5-3.67c4.7-0.37 6.92 0.11 9.33 0.5"></path>
<path style="fill:none; fill-opacity:0%; fill-rule:evenodd; stroke:#aaaaaa; stroke-opacity:100%; stroke-width: 1.5pt; stroke-linejoin:round; stroke-linecap:round;" d="M52.45 62.08c0.59 0.52 0.89 1.61 0.88 2.73c-0.29 19.32-15.08 30.94-35.66 34.94"></path>
<path style="fill:none; fill-opacity:0%; fill-rule:evenodd; stroke:#aaaaaa; stroke-opacity:100%; stroke-width: 1.5pt; stroke-linejoin:round; stroke-linecap:round;" d="M55.5 74.67c8.17 8.17 14.5 15.08 28.17 21.67c2.4 1.16 4.08 1.47 5.17 1.58"></path>

<path style="fill:none; fill-opacity:0%; fill-rule:evenodd; stroke:#000000; stroke-opacity:100%; stroke-width: 3pt; stroke-linejoin:round; stroke-linecap:round;" d="M16.67 24.33c2.08 0.67 5.08 0.67 8 0.33c11.86-1.35 44.12-3.53 57.83-3.83c3.75-0.08 8.42 0.9 9.5 1.17"></path>
<path style="fill:none; fill-opacity:0%; fill-rule:evenodd; stroke:#000000; stroke-opacity:100%; stroke-width: 3pt; stroke-linejoin:round; stroke-linecap:round;" d="M35.67 11.17c1.83 0.83 3.55 2.93 3.68 3.77c1.15 7.73 1.82 13.23 1.99 16.4"></path>
<path style="fill:none; fill-opacity:0%; fill-rule:evenodd; stroke:#000000; stroke-opacity:100%; stroke-width: 3pt; stroke-linejoin:round; stroke-linecap:round;" d="M68 10.33c0.75 1.17 1.25 2.67 1 4.17c-1 6-1.04 9.08-2.67 14.83"></path>
<path style="fill:none; fill-opacity:0%; fill-rule:evenodd; stroke:#000000; stroke-opacity:100%; stroke-width: 3pt; stroke-linejoin:round; stroke-linecap:round;" d="M39.67 36c0.25 0.26 2.22 2.29 2.33 2.61c0.88 2.56 2.07 8.8 2.67 13.39"></path>
<path style="fill:none; fill-opacity:0%; fill-rule:evenodd; stroke:#000000; stroke-opacity:100%; stroke-width: 3pt; stroke-linejoin:round; stroke-linecap:round;" d="M41.5 37.5c8.46-0.8 24.14-2.9 28.5-3.17c1.6-0.1 3.23 2.08 3 2.67c-0.95 2.41-2 6-3 9.67"></path>
<path style="fill:none; fill-opacity:0%; fill-rule:evenodd; stroke:#000000; stroke-opacity:100%; stroke-width: 3pt; stroke-linejoin:round; stroke-linecap:round;" d="M45.13 50.05c4.87-0.57 20.52-1.98 26.7-2.55"></path>
<path style="fill:none; fill-opacity:0%; fill-rule:evenodd; stroke:#000000; stroke-opacity:100%; stroke-width: 3pt; stroke-linejoin:round; stroke-linecap:round;" d="M28.17 44.17c1.23 0.77 1.48 2.92 1.5 4c0.04 2.28-0.04 6.69-0.17 9.83c-0.03 0.68-0.08 2.82 2.17 2.5c4.95-0.7 36.44-3.63 42-3.83c4.95-0.18 3.56 1.68 3.33 2.83c-0.67 3.33-1 6.33-1.67 10.67"></path>
<text x="5" y="20" font-size="20" fill="#999999">8</text><path style="fill:none; fill-opacity:0%; fill-rule:evenodd; stroke:#CC0000; stroke-opacity:100%; stroke-width: 3pt; stroke-linejoin:round; stroke-linecap:round;" d="M17.5 74.33c2.25 0.42 5.5 0.67 10.83 0.5c17.41-0.54 39.42-2.33 56.5-3.67c4.7-0.37 6.92 0.11 9.33 0.5"  ></path>



</g><g transform="scale(1.3761467889908 1.3761467889908) translate(327, 109)">
<path style="fill:none; fill-rule:evenodd; stroke:#aaaaaa;  stroke-width:1pt; stroke-linecap:round;" d="m 109 0 L 0 0 L 0 109 L 109 109 L 109 0"></path><path style="fill:none; fill-opacity:0%; fill-rule:evenodd; stroke:#aaaaaa; stroke-opacity:100%; stroke-width: 1.5pt; stroke-linejoin:round; stroke-linecap:round;" d="M16.67 24.33c2.08 0.67 5.08 0.67 8 0.33c11.86-1.35 44.12-3.53 57.83-3.83c3.75-0.08 8.42 0.9 9.5 1.17"></path>
<path style="fill:none; fill-opacity:0%; fill-rule:evenodd; stroke:#aaaaaa; stroke-opacity:100%; stroke-width: 1.5pt; stroke-linejoin:round; stroke-linecap:round;" d="M35.67 11.17c1.83 0.83 3.55 2.93 3.68 3.77c1.15 7.73 1.82 13.23 1.99 16.4"></path>
<path style="fill:none; fill-opacity:0%; fill-rule:evenodd; stroke:#aaaaaa; stroke-opacity:100%; stroke-width: 1.5pt; stroke-linejoin:round; stroke-linecap:round;" d="M68 10.33c0.75 1.17 1.25 2.67 1 4.17c-1 6-1.04 9.08-2.67 14.83"></path>
<path style="fill:none; fill-opacity:0%; fill-rule:evenodd; stroke:#aaaaaa; stroke-opacity:100%; stroke-width: 1.5pt; stroke-linejoin:round; stroke-linecap:round;" d="M39.67 36c0.25 0.26 2.22 2.29 2.33 2.61c0.88 2.56 2.07 8.8 2.67 13.39"></path>
<path style="fill:none; fill-opacity:0%; fill-rule:evenodd; stroke:#aaaaaa; stroke-opacity:100%; stroke-width: 1.5pt; stroke-linejoin:round; stroke-linecap:round;" d="M41.5 37.5c8.46-0.8 24.14-2.9 28.5-3.17c1.6-0.1 3.23 2.08 3 2.67c-0.95 2.41-2 6-3 9.67"></path>
<path style="fill:none; fill-opacity:0%; fill-rule:evenodd; stroke:#aaaaaa; stroke-opacity:100%; stroke-width: 1.5pt; stroke-linejoin:round; stroke-linecap:round;" d="M45.13 50.05c4.87-0.57 20.52-1.98 26.7-2.55"></path>
<path style="fill:none; fill-opacity:0%; fill-rule:evenodd; stroke:#aaaaaa; stroke-opacity:100%; stroke-width: 1.5pt; stroke-linejoin:round; stroke-linecap:round;" d="M28.17 44.17c1.23 0.77 1.48 2.92 1.5 4c0.04 2.28-0.04 6.69-0.17 9.83c-0.03 0.68-0.08 2.82 2.17 2.5c4.95-0.7 36.44-3.63 42-3.83c4.95-0.18 3.56 1.68 3.33 2.83c-0.67 3.33-1 6.33-1.67 10.67"></path>
<path style="fill:none; fill-opacity:0%; fill-rule:evenodd; stroke:#aaaaaa; stroke-opacity:100%; stroke-width: 1.5pt; stroke-linejoin:round; stroke-linecap:round;" d="M17.5 74.33c2.25 0.42 5.5 0.67 10.83 0.5c17.41-0.54 39.42-2.33 56.5-3.67c4.7-0.37 6.92 0.11 9.33 0.5"></path>
<path style="fill:none; fill-opacity:0%; fill-rule:evenodd; stroke:#aaaaaa; stroke-opacity:100%; stroke-width: 1.5pt; stroke-linejoin:round; stroke-linecap:round;" d="M52.45 62.08c0.59 0.52 0.89 1.61 0.88 2.73c-0.29 19.32-15.08 30.94-35.66 34.94"></path>
<path style="fill:none; fill-opacity:0%; fill-rule:evenodd; stroke:#aaaaaa; stroke-opacity:100%; stroke-width: 1.5pt; stroke-linejoin:round; stroke-linecap:round;" d="M55.5 74.67c8.17 8.17 14.5 15.08 28.17 21.67c2.4 1.16 4.08 1.47 5.17 1.58"></path>

<path style="fill:none; fill-opacity:0%; fill-rule:evenodd; stroke:#000000; stroke-opacity:100%; stroke-width: 3pt; stroke-linejoin:round; stroke-linecap:round;" d="M16.67 24.33c2.08 0.67 5.08 0.67 8 0.33c11.86-1.35 44.12-3.53 57.83-3.83c3.75-0.08 8.42 0.9 9.5 1.17"></path>
<path style="fill:none; fill-opacity:0%; fill-rule:evenodd; stroke:#000000; stroke-opacity:100%; stroke-width: 3pt; stroke-linejoin:round; stroke-linecap:round;" d="M35.67 11.17c1.83 0.83 3.55 2.93 3.68 3.77c1.15 7.73 1.82 13.23 1.99 16.4"></path>
<path style="fill:none; fill-opacity:0%; fill-rule:evenodd; stroke:#000000; stroke-opacity:100%; stroke-width: 3pt; stroke-linejoin:round; stroke-linecap:round;" d="M68 10.33c0.75 1.17 1.25 2.67 1 4.17c-1 6-1.04 9.08-2.67 14.83"></path>
<path style="fill:none; fill-opacity:0%; fill-rule:evenodd; stroke:#000000; stroke-opacity:100%; stroke-width: 3pt; stroke-linejoin:round; stroke-linecap:round;" d="M39.67 36c0.25 0.26 2.22 2.29 2.33 2.61c0.88 2.56 2.07 8.8 2.67 13.39"></path>
<path style="fill:none; fill-opacity:0%; fill-rule:evenodd; stroke:#000000; stroke-opacity:100%; stroke-width: 3pt; stroke-linejoin:round; stroke-linecap:round;" d="M41.5 37.5c8.46-0.8 24.14-2.9 28.5-3.17c1.6-0.1 3.23 2.08 3 2.67c-0.95 2.41-2 6-3 9.67"></path>
<path style="fill:none; fill-opacity:0%; fill-rule:evenodd; stroke:#000000; stroke-opacity:100%; stroke-width: 3pt; stroke-linejoin:round; stroke-linecap:round;" d="M45.13 50.05c4.87-0.57 20.52-1.98 26.7-2.55"></path>
<path style="fill:none; fill-opacity:0%; fill-rule:evenodd; stroke:#000000; stroke-opacity:100%; stroke-width: 3pt; stroke-linejoin:round; stroke-linecap:round;" d="M28.17 44.17c1.23 0.77 1.48 2.92 1.5 4c0.04 2.28-0.04 6.69-0.17 9.83c-0.03 0.68-0.08 2.82 2.17 2.5c4.95-0.7 36.44-3.63 42-3.83c4.95-0.18 3.56 1.68 3.33 2.83c-0.67 3.33-1 6.33-1.67 10.67"></path>
<path style="fill:none; fill-opacity:0%; fill-rule:evenodd; stroke:#000000; stroke-opacity:100%; stroke-width: 3pt; stroke-linejoin:round; stroke-linecap:round;" d="M17.5 74.33c2.25 0.42 5.5 0.67 10.83 0.5c17.41-0.54 39.42-2.33 56.5-3.67c4.7-0.37 6.92 0.11 9.33 0.5"></path>
<text x="5" y="20" font-size="20" fill="#999999">9</text><path style="fill:none; fill-opacity:0%; fill-rule:evenodd; stroke:#CC0000; stroke-opacity:100%; stroke-width: 3pt; stroke-linejoin:round; stroke-linecap:round;" d="M52.45 62.08c0.59 0.52 0.89 1.61 0.88 2.73c-0.29 19.32-15.08 30.94-35.66 34.94"  ></path>


</g><g transform="scale(1.3761467889908 1.3761467889908) translate(436, 109)">
<path style="fill:none; fill-rule:evenodd; stroke:#aaaaaa;  stroke-width:1pt; stroke-linecap:round;" d="m 109 0 L 0 0 L 0 109 L 109 109 L 109 0"></path><path style="fill:none; fill-opacity:0%; fill-rule:evenodd; stroke:#aaaaaa; stroke-opacity:100%; stroke-width: 1.5pt; stroke-linejoin:round; stroke-linecap:round;" d="M16.67 24.33c2.08 0.67 5.08 0.67 8 0.33c11.86-1.35 44.12-3.53 57.83-3.83c3.75-0.08 8.42 0.9 9.5 1.17"></path>
<path style="fill:none; fill-opacity:0%; fill-rule:evenodd; stroke:#aaaaaa; stroke-opacity:100%; stroke-width: 1.5pt; stroke-linejoin:round; stroke-linecap:round;" d="M35.67 11.17c1.83 0.83 3.55 2.93 3.68 3.77c1.15 7.73 1.82 13.23 1.99 16.4"></path>
<path style="fill:none; fill-opacity:0%; fill-rule:evenodd; stroke:#aaaaaa; stroke-opacity:100%; stroke-width: 1.5pt; stroke-linejoin:round; stroke-linecap:round;" d="M68 10.33c0.75 1.17 1.25 2.67 1 4.17c-1 6-1.04 9.08-2.67 14.83"></path>
<path style="fill:none; fill-opacity:0%; fill-rule:evenodd; stroke:#aaaaaa; stroke-opacity:100%; stroke-width: 1.5pt; stroke-linejoin:round; stroke-linecap:round;" d="M39.67 36c0.25 0.26 2.22 2.29 2.33 2.61c0.88 2.56 2.07 8.8 2.67 13.39"></path>
<path style="fill:none; fill-opacity:0%; fill-rule:evenodd; stroke:#aaaaaa; stroke-opacity:100%; stroke-width: 1.5pt; stroke-linejoin:round; stroke-linecap:round;" d="M41.5 37.5c8.46-0.8 24.14-2.9 28.5-3.17c1.6-0.1 3.23 2.08 3 2.67c-0.95 2.41-2 6-3 9.67"></path>
<path style="fill:none; fill-opacity:0%; fill-rule:evenodd; stroke:#aaaaaa; stroke-opacity:100%; stroke-width: 1.5pt; stroke-linejoin:round; stroke-linecap:round;" d="M45.13 50.05c4.87-0.57 20.52-1.98 26.7-2.55"></path>
<path style="fill:none; fill-opacity:0%; fill-rule:evenodd; stroke:#aaaaaa; stroke-opacity:100%; stroke-width: 1.5pt; stroke-linejoin:round; stroke-linecap:round;" d="M28.17 44.17c1.23 0.77 1.48 2.92 1.5 4c0.04 2.28-0.04 6.69-0.17 9.83c-0.03 0.68-0.08 2.82 2.17 2.5c4.95-0.7 36.44-3.63 42-3.83c4.95-0.18 3.56 1.68 3.33 2.83c-0.67 3.33-1 6.33-1.67 10.67"></path>
<path style="fill:none; fill-opacity:0%; fill-rule:evenodd; stroke:#aaaaaa; stroke-opacity:100%; stroke-width: 1.5pt; stroke-linejoin:round; stroke-linecap:round;" d="M17.5 74.33c2.25 0.42 5.5 0.67 10.83 0.5c17.41-0.54 39.42-2.33 56.5-3.67c4.7-0.37 6.92 0.11 9.33 0.5"></path>
<path style="fill:none; fill-opacity:0%; fill-rule:evenodd; stroke:#aaaaaa; stroke-opacity:100%; stroke-width: 1.5pt; stroke-linejoin:round; stroke-linecap:round;" d="M52.45 62.08c0.59 0.52 0.89 1.61 0.88 2.73c-0.29 19.32-15.08 30.94-35.66 34.94"></path>
<path style="fill:none; fill-opacity:0%; fill-rule:evenodd; stroke:#aaaaaa; stroke-opacity:100%; stroke-width: 1.5pt; stroke-linejoin:round; stroke-linecap:round;" d="M55.5 74.67c8.17 8.17 14.5 15.08 28.17 21.67c2.4 1.16 4.08 1.47 5.17 1.58"></path>

<path style="fill:none; fill-opacity:0%; fill-rule:evenodd; stroke:#000000; stroke-opacity:100%; stroke-width: 3pt; stroke-linejoin:round; stroke-linecap:round;" d="M16.67 24.33c2.08 0.67 5.08 0.67 8 0.33c11.86-1.35 44.12-3.53 57.83-3.83c3.75-0.08 8.42 0.9 9.5 1.17"></path>
<path style="fill:none; fill-opacity:0%; fill-rule:evenodd; stroke:#000000; stroke-opacity:100%; stroke-width: 3pt; stroke-linejoin:round; stroke-linecap:round;" d="M35.67 11.17c1.83 0.83 3.55 2.93 3.68 3.77c1.15 7.73 1.82 13.23 1.99 16.4"></path>
<path style="fill:none; fill-opacity:0%; fill-rule:evenodd; stroke:#000000; stroke-opacity:100%; stroke-width: 3pt; stroke-linejoin:round; stroke-linecap:round;" d="M68 10.33c0.75 1.17 1.25 2.67 1 4.17c-1 6-1.04 9.08-2.67 14.83"></path>
<path style="fill:none; fill-opacity:0%; fill-rule:evenodd; stroke:#000000; stroke-opacity:100%; stroke-width: 3pt; stroke-linejoin:round; stroke-linecap:round;" d="M39.67 36c0.25 0.26 2.22 2.29 2.33 2.61c0.88 2.56 2.07 8.8 2.67 13.39"></path>
<path style="fill:none; fill-opacity:0%; fill-rule:evenodd; stroke:#000000; stroke-opacity:100%; stroke-width: 3pt; stroke-linejoin:round; stroke-linecap:round;" d="M41.5 37.5c8.46-0.8 24.14-2.9 28.5-3.17c1.6-0.1 3.23 2.08 3 2.67c-0.95 2.41-2 6-3 9.67"></path>
<path style="fill:none; fill-opacity:0%; fill-rule:evenodd; stroke:#000000; stroke-opacity:100%; stroke-width: 3pt; stroke-linejoin:round; stroke-linecap:round;" d="M45.13 50.05c4.87-0.57 20.52-1.98 26.7-2.55"></path>
<path style="fill:none; fill-opacity:0%; fill-rule:evenodd; stroke:#000000; stroke-opacity:100%; stroke-width: 3pt; stroke-linejoin:round; stroke-linecap:round;" d="M28.17 44.17c1.23 0.77 1.48 2.92 1.5 4c0.04 2.28-0.04 6.69-0.17 9.83c-0.03 0.68-0.08 2.82 2.17 2.5c4.95-0.7 36.44-3.63 42-3.83c4.95-0.18 3.56 1.68 3.33 2.83c-0.67 3.33-1 6.33-1.67 10.67"></path>
<path style="fill:none; fill-opacity:0%; fill-rule:evenodd; stroke:#000000; stroke-opacity:100%; stroke-width: 3pt; stroke-linejoin:round; stroke-linecap:round;" d="M17.5 74.33c2.25 0.42 5.5 0.67 10.83 0.5c17.41-0.54 39.42-2.33 56.5-3.67c4.7-0.37 6.92 0.11 9.33 0.5"></path>
<path style="fill:none; fill-opacity:0%; fill-rule:evenodd; stroke:#000000; stroke-opacity:100%; stroke-width: 3pt; stroke-linejoin:round; stroke-linecap:round;" d="M52.45 62.08c0.59 0.52 0.89 1.61 0.88 2.73c-0.29 19.32-15.08 30.94-35.66 34.94"></path>
<text x="5" y="20" font-size="20" fill="#999999">10</text><path style="fill:none; fill-opacity:0%; fill-rule:evenodd; stroke:#CC0000; stroke-opacity:100%; stroke-width: 3pt; stroke-linejoin:round; stroke-linecap:round;" d="M55.5 74.67c8.17 8.17 14.5 15.08 28.17 21.67c2.4 1.16 4.08 1.47 5.17 1.58"  ></path>

</g>

</svg>  
          
