<?xml version="1.0" standalone="no"?>
<!DOCTYPE svg PUBLIC "-//W3C//DTD SVG 1.1//EN"   "http://www.w3.org/Graphics/SVG/1.1/DTD/svg11.dtd">
<svg width="751" height="301"  version="1.1" xmlns="http://www.w3.org/2000/svg">
  <defs>
    <marker id="Triangle" viewBox="0 0 10 10" refX="0" refY="5" markerUnits="strokeWidth" markerWidth="3" style="stroke-opacity:0%;fill:#aaaaaa;" markerHeight="2" orient="auto">
      <path d="M 0 0 L 10 5 L 0 10 z" />
    </marker>
    
    <marker id="Arrow" viewBox="0 0 10 10" refX="5" refY="5" markerUnits="strokeWidth" markerWidth="1.8" style="stroke-opacity:0%;fill:#770000;" markerHeight="2" orient="auto">
      <path d="M 0 4 L 6 4 L 4 1 L 10 5 L 4 9 L 6 6 L 0 6 z" />
        <circle cx="5" cy="5" r="5" />
      </marker>
    
    <marker id="TriangleRed" viewBox="0 0 10 10" refX="0" refY="5" markerUnits="strokeWidth" markerWidth="3" style="stroke-opacity:0%;fill:#CC0000;" markerHeight="2" orient="auto">
      <path d="M 0 0 L 10 5 L 0 10 z" />
    </marker>
    
    <marker id="ArrowRed" viewBox="0 0 10 10" refX="5" refY="5" markerUnits="strokeWidth" markerWidth="1.8" style="stroke-opacity:0%;fill:#CC0000;" markerHeight="2" orient="auto">
      <path d="M 0 4 L 6 4 L 4 1 L 10 5 L 4 9 L 6 6 L 0 6 z" />
        <circle cx="5" cy="5" r="5" />
      </marker>
    
  </defs>
  
  <path style="fill:#ffffff; fill-opacity:100%; fill-rule:evenodd; stroke-width:0;" d="M 0 0 L 751 0 L 751 301 L 0 301 L 0 0" />

  <g transform="scale(1.3761467889908 1.3761467889908) translate(0, 0)">
<path style="fill:none; fill-rule:evenodd; stroke:#aaaaaa;  stroke-width:1pt; stroke-linecap:round;" d="m 109 0 L 0 0 L 0 109 L 109 109 L 109 0"></path><path style="fill:none; fill-opacity:0%; fill-rule:evenodd; stroke:#aaaaaa; stroke-opacity:100%; stroke-width: 1.5pt; stroke-linejoin:round; stroke-linecap:round;" d="M21 23.27c1.29 0.53 2.8 0.63 4.1 0.53c11.9-0.96 46.4-4.46 60.12-4.53c2.16-0.01 3.45 0.25 4.53 0.51"></path>
<path style="fill:none; fill-opacity:0%; fill-rule:evenodd; stroke:#aaaaaa; stroke-opacity:100%; stroke-width: 1.5pt; stroke-linejoin:round; stroke-linecap:round;" d="M38.25 12c1.75 1.43 2.41 1.85 2.5 2.75C41.5 22.25 42.5 29 43 32"></path>
<path style="fill:none; fill-opacity:0%; fill-rule:evenodd; stroke:#aaaaaa; stroke-opacity:100%; stroke-width: 1.5pt; stroke-linejoin:round; stroke-linecap:round;" d="M67.25 10.25c1.12 1 1.87 2.52 1.5 4c-1.12 4.5-1.88 10.5-3.5 16.25"></path>
<path style="fill:none; fill-opacity:0%; fill-rule:evenodd; stroke:#aaaaaa; stroke-opacity:100%; stroke-width: 1.5pt; stroke-linejoin:round; stroke-linecap:round;" d="M28.17 39.63c1.08 0.44 3.07 0.57 4.16 0.44c12.92-1.57 26.76-3.25 48.54-4.56c1.8-0.11 2.89 0.21 3.79 0.43"></path>
<path style="fill:none; fill-opacity:0%; fill-rule:evenodd; stroke:#aaaaaa; stroke-opacity:100%; stroke-width: 1.5pt; stroke-linejoin:round; stroke-linecap:round;" d="M39 41.11c0.94 0.66 1.45 2.39 1.45 4.17c0 1.78 0.21 31.66 0.21 38.06"></path>
<path style="fill:none; fill-opacity:0%; fill-rule:evenodd; stroke:#aaaaaa; stroke-opacity:100%; stroke-width: 1.5pt; stroke-linejoin:round; stroke-linecap:round;" d="M40.93 51.58c4.28 0 22.67-2.15 30-2.15"></path>
<path style="fill:none; fill-opacity:0%; fill-rule:evenodd; stroke:#aaaaaa; stroke-opacity:100%; stroke-width: 1.5pt; stroke-linejoin:round; stroke-linecap:round;" d="M40.99 64.47c5.29 0 22.07-1.93 29.78-1.93"></path>
<path style="fill:none; fill-opacity:0%; fill-rule:evenodd; stroke:#aaaaaa; stroke-opacity:100%; stroke-width: 1.5pt; stroke-linejoin:round; stroke-linecap:round;" d="M24.59 86.6c1.66 0.9 3.05 1.02 4.59 0.59c6.17-1.74 41.34-12.17 50.82-14.95"></path>
<path style="fill:none; fill-opacity:0%; fill-rule:evenodd; stroke:#aaaaaa; stroke-opacity:100%; stroke-width: 1.5pt; stroke-linejoin:round; stroke-linecap:round;" d="M69.99 38.09c0.44 0.88 1.1 1.98 1.1 3.09c0 1.1 0.22 48.79 0.22 57.83"></path>

<text x="5" y="20" font-size="20" fill="#999999">1</text><path style="fill:none; fill-opacity:0%; fill-rule:evenodd; stroke:#CC0000; stroke-opacity:100%; stroke-width: 3pt; stroke-linejoin:round; stroke-linecap:round;" d="M21 23.27c1.29 0.53 2.8 0.63 4.1 0.53c11.9-0.96 46.4-4.46 60.12-4.53c2.16-0.01 3.45 0.25 4.53 0.51"  ></path>









</g><g transform="scale(1.3761467889908 1.3761467889908) translate(109, 0)">
<path style="fill:none; fill-rule:evenodd; stroke:#aaaaaa;  stroke-width:1pt; stroke-linecap:round;" d="m 109 0 L 0 0 L 0 109 L 109 109 L 109 0"></path><path style="fill:none; fill-opacity:0%; fill-rule:evenodd; stroke:#aaaaaa; stroke-opacity:100%; stroke-width: 1.5pt; stroke-linejoin:round; stroke-linecap:round;" d="M21 23.27c1.29 0.53 2.8 0.63 4.1 0.53c11.9-0.96 46.4-4.46 60.12-4.53c2.16-0.01 3.45 0.25 4.53 0.51"></path>
<path style="fill:none; fill-opacity:0%; fill-rule:evenodd; stroke:#aaaaaa; stroke-opacity:100%; stroke-width: 1.5pt; stroke-linejoin:round; stroke-linecap:round;" d="M38.25 12c1.75 1.43 2.41 1.85 2.5 2.75C41.5 22.25 42.5 29 43 32"></path>
<path style="fill:none; fill-opacity:0%; fill-rule:evenodd; stroke:#aaaaaa; stroke-opacity:100%; stroke-width: 1.5pt; stroke-linejoin:round; stroke-linecap:round;" d="M67.25 10.25c1.12 1 1.87 2.52 1.5 4c-1.12 4.5-1.88 10.5-3.5 16.25"></path>
<path style="fill:none; fill-opacity:0%; fill-rule:evenodd; stroke:#aaaaaa; stroke-opacity:100%; stroke-width: 1.5pt; stroke-linejoin:round; stroke-linecap:round;" d="M28.17 39.63c1.08 0.44 3.07 0.57 4.16 0.44c12.92-1.57 26.76-3.25 48.54-4.56c1.8-0.11 2.89 0.21 3.79 0.43"></path>
<path style="fill:none; fill-opacity:0%; fill-rule:evenodd; stroke:#aaaaaa; stroke-opacity:100%; stroke-width: 1.5pt; stroke-linejoin:round; stroke-linecap:round;" d="M39 41.11c0.94 0.66 1.45 2.39 1.45 4.17c0 1.78 0.21 31.66 0.21 38.06"></path>
<path style="fill:none; fill-opacity:0%; fill-rule:evenodd; stroke:#aaaaaa; stroke-opacity:100%; stroke-width: 1.5pt; stroke-linejoin:round; stroke-linecap:round;" d="M40.93 51.58c4.28 0 22.67-2.15 30-2.15"></path>
<path style="fill:none; fill-opacity:0%; fill-rule:evenodd; stroke:#aaaaaa; stroke-opacity:100%; stroke-width: 1.5pt; stroke-linejoin:round; stroke-linecap:round;" d="M40.99 64.47c5.29 0 22.07-1.93 29.78-1.93"></path>
<path style="fill:none; fill-opacity:0%; fill-rule:evenodd; stroke:#aaaaaa; stroke-opacity:100%; stroke-width: 1.5pt; stroke-linejoin:round; stroke-linecap:round;" d="M24.59 86.6c1.66 0.9 3.05 1.02 4.59 0.59c6.17-1.74 41.34-12.17 50.82-14.95"></path>
<path style="fill:none; fill-opacity:0%; fill-rule:evenodd; stroke:#aaaaaa; stroke-opacity:100%; stroke-width: 1.5pt; stroke-linejoin:round; stroke-linecap:round;" d="M69.99 38.09c0.44 0.88 1.1 1.98 1.1 3.09c0 1.1 0.22 48.79 0.22 57.83"></path>

<path style="fill:none; fill-opacity:0%; fill-rule:evenodd; stroke:#000000; stroke-opacity:100%; stroke-width: 3pt; stroke-linejoin:round; stroke-linecap:round;" d="M21 23.27c1.29 0.53 2.8 0.63 4.1 0.53c11.9-0.96 46.4-4.46 60.12-4.53c2.16-0.01 3.45 0.25 4.53 0.51"></path>
<text x="5" y="20" font-size="20" fill="#999999">2</text><path style="fill:none; fill-opacity:0%; fill-rule:evenodd; stroke:#CC0000; stroke-opacity:100%; stroke-width: 3pt; stroke-linejoin:round; stroke-linecap:round;" d="M38.25 12c1.75 1.43 2.41 1.85 2.5 2.75C41.5 22.25 42.5 29 43 32"  ></path>








</g><g transform="scale(1.3761467889908 1.3761467889908) translate(218, 0)">
<path style="fill:none; fill-rule:evenodd; stroke:#aaaaaa;  stroke-width:1pt; stroke-linecap:round;" d="m 109 0 L 0 0 L 0 109 L 109 109 L 109 0"></path><path style="fill:none; fill-opacity:0%; fill-rule:evenodd; stroke:#aaaaaa; stroke-opacity:100%; stroke-width: 1.5pt; stroke-linejoin:round; stroke-linecap:round;" d="M21 23.27c1.29 0.53 2.8 0.63 4.1 0.53c11.9-0.96 46.4-4.46 60.12-4.53c2.16-0.01 3.45 0.25 4.53 0.51"></path>
<path style="fill:none; fill-opacity:0%; fill-rule:evenodd; stroke:#aaaaaa; stroke-opacity:100%; stroke-width: 1.5pt; stroke-linejoin:round; stroke-linecap:round;" d="M38.25 12c1.75 1.43 2.41 1.85 2.5 2.75C41.5 22.25 42.5 29 43 32"></path>
<path style="fill:none; fill-opacity:0%; fill-rule:evenodd; stroke:#aaaaaa; stroke-opacity:100%; stroke-width: 1.5pt; stroke-linejoin:round; stroke-linecap:round;" d="M67.25 10.25c1.12 1 1.87 2.52 1.5 4c-1.12 4.5-1.88 10.5-3.5 16.25"></path>
<path style="fill:none; fill-opacity:0%; fill-rule:evenodd; stroke:#aaaaaa; stroke-opacity:100%; stroke-width: 1.5pt; stroke-linejoin:round; stroke-linecap:round;" d="M28.17 39.63c1.08 0.44 3.07 0.57 4.16 0.44c12.92-1.57 26.76-3.25 48.54-4.56c1.8-0.11 2.89 0.21 3.79 0.43"></path>
<path style="fill:none; fill-opacity:0%; fill-rule:evenodd; stroke:#aaaaaa; stroke-opacity:100%; stroke-width: 1.5pt; stroke-linejoin:round; stroke-linecap:round;" d="M39 41.11c0.94 0.66 1.45 2.39 1.45 4.17c0 1.78 0.21 31.66 0.21 38.06"></path>
<path style="fill:none; fill-opacity:0%; fill-rule:evenodd; stroke:#aaaaaa; stroke-opacity:100%; stroke-width: 1.5pt; stroke-linejoin:round; stroke-linecap:round;" d="M40.93 51.58c4.28 0 22.67-2.15 30-2.15"></path>
<path style="fill:none; fill-opacity:0%; fill-rule:evenodd; stroke:#aaaaaa; stroke-opacity:100%; stroke-width: 1.5pt; stroke-linejoin:round; stroke-linecap:round;" d="M40.99 64.47c5.29 0 22.07-1.93 29.78-1.93"></path>
<path style="fill:none; fill-opacity:0%; fill-rule:evenodd; stroke:#aaaaaa; stroke-opacity:100%; stroke-width: 1.5pt; stroke-linejoin:round; stroke-linecap:round;" d="M24.59 86.6c1.66 0.9 3.05 1.02 4.59 0.59c6.17-1.74 41.34-12.17 50.82-14.95"></path>
<path style="fill:none; fill-opacity:0%; fill-rule:evenodd; stroke:#aaaaaa; stroke-opacity:100%; stroke-width: 1.5pt; stroke-linejoin:round; stroke-linecap:round;" d="M69.99 38.09c0.44 0.88 1.1 1.98 1.1 3.09c0 1.1 0.22 48.79 0.22 57.83"></path>

<path style="fill:none; fill-opacity:0%; fill-rule:evenodd; stroke:#000000; stroke-opacity:100%; stroke-width: 3pt; stroke-linejoin:round; stroke-linecap:round;" d="M21 23.27c1.29 0.53 2.8 0.63 4.1 0.53c11.9-0.96 46.4-4.46 60.12-4.53c2.16-0.01 3.45 0.25 4.53 0.51"></path>
<path style="fill:none; fill-opacity:0%; fill-rule:evenodd; stroke:#000000; stroke-opacity:100%; stroke-width: 3pt; stroke-linejoin:round; stroke-linecap:round;" d="M38.25 12c1.75 1.43 2.41 1.85 2.5 2.75C41.5 22.25 42.5 29 43 32"></path>
<text x="5" y="20" font-size="20" fill="#999999">3</text><path style="fill:none; fill-opacity:0%; fill-rule:evenodd; stroke:#CC0000; stroke-opacity:100%; stroke-width: 3pt; stroke-linejoin:round; stroke-linecap:round;" d="M67.25 10.25c1.12 1 1.87 2.52 1.5 4c-1.12 4.5-1.88 10.5-3.5 16.25"  ></path>







</g><g transform="scale(1.3761467889908 1.3761467889908) translate(327, 0)">
<path style="fill:none; fill-rule:evenodd; stroke:#aaaaaa;  stroke-width:1pt; stroke-linecap:round;" d="m 109 0 L 0 0 L 0 109 L 109 109 L 109 0"></path><path style="fill:none; fill-opacity:0%; fill-rule:evenodd; stroke:#aaaaaa; stroke-opacity:100%; stroke-width: 1.5pt; stroke-linejoin:round; stroke-linecap:round;" d="M21 23.27c1.29 0.53 2.8 0.63 4.1 0.53c11.9-0.96 46.4-4.46 60.12-4.53c2.16-0.01 3.45 0.25 4.53 0.51"></path>
<path style="fill:none; fill-opacity:0%; fill-rule:evenodd; stroke:#aaaaaa; stroke-opacity:100%; stroke-width: 1.5pt; stroke-linejoin:round; stroke-linecap:round;" d="M38.25 12c1.75 1.43 2.41 1.85 2.5 2.75C41.5 22.25 42.5 29 43 32"></path>
<path style="fill:none; fill-opacity:0%; fill-rule:evenodd; stroke:#aaaaaa; stroke-opacity:100%; stroke-width: 1.5pt; stroke-linejoin:round; stroke-linecap:round;" d="M67.25 10.25c1.12 1 1.87 2.52 1.5 4c-1.12 4.5-1.88 10.5-3.5 16.25"></path>
<path style="fill:none; fill-opacity:0%; fill-rule:evenodd; stroke:#aaaaaa; stroke-opacity:100%; stroke-width: 1.5pt; stroke-linejoin:round; stroke-linecap:round;" d="M28.17 39.63c1.08 0.44 3.07 0.57 4.16 0.44c12.92-1.57 26.76-3.25 48.54-4.56c1.8-0.11 2.89 0.21 3.79 0.43"></path>
<path style="fill:none; fill-opacity:0%; fill-rule:evenodd; stroke:#aaaaaa; stroke-opacity:100%; stroke-width: 1.5pt; stroke-linejoin:round; stroke-linecap:round;" d="M39 41.11c0.94 0.66 1.45 2.39 1.45 4.17c0 1.78 0.21 31.66 0.21 38.06"></path>
<path style="fill:none; fill-opacity:0%; fill-rule:evenodd; stroke:#aaaaaa; stroke-opacity:100%; stroke-width: 1.5pt; stroke-linejoin:round; stroke-linecap:round;" d="M40.93 51.58c4.28 0 22.67-2.15 30-2.15"></path>
<path style="fill:none; fill-opacity:0%; fill-rule:evenodd; stroke:#aaaaaa; stroke-opacity:100%; stroke-width: 1.5pt; stroke-linejoin:round; stroke-linecap:round;" d="M40.99 64.47c5.29 0 22.07-1.93 29.78-1.93"></path>
<path style="fill:none; fill-opacity:0%; fill-rule:evenodd; stroke:#aaaaaa; stroke-opacity:100%; stroke-width: 1.5pt; stroke-linejoin:round; stroke-linecap:round;" d="M24.59 86.6c1.66 0.9 3.05 1.02 4.59 0.59c6.17-1.74 41.34-12.17 50.82-14.95"></path>
<path style="fill:none; fill-opacity:0%; fill-rule:evenodd; stroke:#aaaaaa; stroke-opacity:100%; stroke-width: 1.5pt; stroke-linejoin:round; stroke-linecap:round;" d="M69.99 38.09c0.44 0.88 1.1 1.98 1.1 3.09c0 1.1 0.22 48.79 0.22 57.83"></path>

<path style="fill:none; fill-opacity:0%; fill-rule:evenodd; stroke:#000000; stroke-opacity:100%; stroke-width: 3pt; stroke-linejoin:round; stroke-linecap:round;" d="M21 23.27c1.29 0.53 2.8 0.63 4.1 0.53c11.9-0.96 46.4-4.46 60.12-4.53c2.16-0.01 3.45 0.25 4.53 0.51"></path>
<path style="fill:none; fill-opacity:0%; fill-rule:evenodd; stroke:#000000; stroke-opacity:100%; stroke-width: 3pt; stroke-linejoin:round; stroke-linecap:round;" d="M38.25 12c1.75 1.43 2.41 1.85 2.5 2.75C41.5 22.25 42.5 29 43 32"></path>
<path style="fill:none; fill-opacity:0%; fill-rule:evenodd; stroke:#000000; stroke-opacity:100%; stroke-width: 3pt; stroke-linejoin:round; stroke-linecap:round;" d="M67.25 10.25c1.12 1 1.87 2.52 1.5 4c-1.12 4.5-1.88 10.5-3.5 16.25"></path>
<text x="5" y="20" font-size="20" fill="#999999">4</text><path style="fill:none; fill-opacity:0%; fill-rule:evenodd; stroke:#CC0000; stroke-opacity:100%; stroke-width: 3pt; stroke-linejoin:round; stroke-linecap:round;" d="M28.17 39.63c1.08 0.44 3.07 0.57 4.16 0.44c12.92-1.57 26.76-3.25 48.54-4.56c1.8-0.11 2.89 0.21 3.79 0.43"  ></path>






</g><g transform="scale(1.3761467889908 1.3761467889908) translate(436, 0)">
<path style="fill:none; fill-rule:evenodd; stroke:#aaaaaa;  stroke-width:1pt; stroke-linecap:round;" d="m 109 0 L 0 0 L 0 109 L 109 109 L 109 0"></path><path style="fill:none; fill-opacity:0%; fill-rule:evenodd; stroke:#aaaaaa; stroke-opacity:100%; stroke-width: 1.5pt; stroke-linejoin:round; stroke-linecap:round;" d="M21 23.27c1.29 0.53 2.8 0.63 4.1 0.53c11.9-0.96 46.4-4.46 60.12-4.53c2.16-0.01 3.45 0.25 4.53 0.51"></path>
<path style="fill:none; fill-opacity:0%; fill-rule:evenodd; stroke:#aaaaaa; stroke-opacity:100%; stroke-width: 1.5pt; stroke-linejoin:round; stroke-linecap:round;" d="M38.25 12c1.75 1.43 2.41 1.85 2.5 2.75C41.5 22.25 42.5 29 43 32"></path>
<path style="fill:none; fill-opacity:0%; fill-rule:evenodd; stroke:#aaaaaa; stroke-opacity:100%; stroke-width: 1.5pt; stroke-linejoin:round; stroke-linecap:round;" d="M67.25 10.25c1.12 1 1.87 2.52 1.5 4c-1.12 4.5-1.88 10.5-3.5 16.25"></path>
<path style="fill:none; fill-opacity:0%; fill-rule:evenodd; stroke:#aaaaaa; stroke-opacity:100%; stroke-width: 1.5pt; stroke-linejoin:round; stroke-linecap:round;" d="M28.17 39.63c1.08 0.44 3.07 0.57 4.16 0.44c12.92-1.57 26.76-3.25 48.54-4.56c1.8-0.11 2.89 0.21 3.79 0.43"></path>
<path style="fill:none; fill-opacity:0%; fill-rule:evenodd; stroke:#aaaaaa; stroke-opacity:100%; stroke-width: 1.5pt; stroke-linejoin:round; stroke-linecap:round;" d="M39 41.11c0.94 0.66 1.45 2.39 1.45 4.17c0 1.78 0.21 31.66 0.21 38.06"></path>
<path style="fill:none; fill-opacity:0%; fill-rule:evenodd; stroke:#aaaaaa; stroke-opacity:100%; stroke-width: 1.5pt; stroke-linejoin:round; stroke-linecap:round;" d="M40.93 51.58c4.28 0 22.67-2.15 30-2.15"></path>
<path style="fill:none; fill-opacity:0%; fill-rule:evenodd; stroke:#aaaaaa; stroke-opacity:100%; stroke-width: 1.5pt; stroke-linejoin:round; stroke-linecap:round;" d="M40.99 64.47c5.29 0 22.07-1.93 29.78-1.93"></path>
<path style="fill:none; fill-opacity:0%; fill-rule:evenodd; stroke:#aaaaaa; stroke-opacity:100%; stroke-width: 1.5pt; stroke-linejoin:round; stroke-linecap:round;" d="M24.59 86.6c1.66 0.9 3.05 1.02 4.59 0.59c6.17-1.74 41.34-12.17 50.82-14.95"></path>
<path style="fill:none; fill-opacity:0%; fill-rule:evenodd; stroke:#aaaaaa; stroke-opacity:100%; stroke-width: 1.5pt; stroke-linejoin:round; stroke-linecap:round;" d="M69.99 38.09c0.44 0.88 1.1 1.98 1.1 3.09c0 1.1 0.22 48.79 0.22 57.83"></path>

<path style="fill:none; fill-opacity:0%; fill-rule:evenodd; stroke:#000000; stroke-opacity:100%; stroke-width: 3pt; stroke-linejoin:round; stroke-linecap:round;" d="M21 23.27c1.29 0.53 2.8 0.63 4.1 0.53c11.9-0.96 46.4-4.46 60.12-4.53c2.16-0.01 3.45 0.25 4.53 0.51"></path>
<path style="fill:none; fill-opacity:0%; fill-rule:evenodd; stroke:#000000; stroke-opacity:100%; stroke-width: 3pt; stroke-linejoin:round; stroke-linecap:round;" d="M38.25 12c1.75 1.43 2.41 1.85 2.5 2.75C41.5 22.25 42.5 29 43 32"></path>
<path style="fill:none; fill-opacity:0%; fill-rule:evenodd; stroke:#000000; stroke-opacity:100%; stroke-width: 3pt; stroke-linejoin:round; stroke-linecap:round;" d="M67.25 10.25c1.12 1 1.87 2.52 1.5 4c-1.12 4.5-1.88 10.5-3.5 16.25"></path>
<path style="fill:none; fill-opacity:0%; fill-rule:evenodd; stroke:#000000; stroke-opacity:100%; stroke-width: 3pt; stroke-linejoin:round; stroke-linecap:round;" d="M28.17 39.63c1.08 0.44 3.07 0.57 4.16 0.44c12.92-1.57 26.76-3.25 48.54-4.56c1.8-0.11 2.89 0.21 3.79 0.43"></path>
<text x="5" y="20" font-size="20" fill="#999999">5</text><path style="fill:none; fill-opacity:0%; fill-rule:evenodd; stroke:#CC0000; stroke-opacity:100%; stroke-width: 3pt; stroke-linejoin:round; stroke-linecap:round;" d="M39 41.11c0.94 0.66 1.45 2.39 1.45 4.17c0 1.78 0.21 31.66 0.21 38.06"  ></path>





</g><g transform="scale(1.3761467889908 1.3761467889908) translate(0, 109)">
<path style="fill:none; fill-rule:evenodd; stroke:#aaaaaa;  stroke-width:1pt; stroke-linecap:round;" d="m 109 0 L 0 0 L 0 109 L 109 109 L 109 0"></path><path style="fill:none; fill-opacity:0%; fill-rule:evenodd; stroke:#aaaaaa; stroke-opacity:100%; stroke-width: 1.5pt; stroke-linejoin:round; stroke-linecap:round;" d="M21 23.27c1.29 0.53 2.8 0.63 4.1 0.53c11.9-0.96 46.4-4.46 60.12-4.53c2.16-0.01 3.45 0.25 4.53 0.51"></path>
<path style="fill:none; fill-opacity:0%; fill-rule:evenodd; stroke:#aaaaaa; stroke-opacity:100%; stroke-width: 1.5pt; stroke-linejoin:round; stroke-linecap:round;" d="M38.25 12c1.75 1.43 2.41 1.85 2.5 2.75C41.5 22.25 42.5 29 43 32"></path>
<path style="fill:none; fill-opacity:0%; fill-rule:evenodd; stroke:#aaaaaa; stroke-opacity:100%; stroke-width: 1.5pt; stroke-linejoin:round; stroke-linecap:round;" d="M67.25 10.25c1.12 1 1.87 2.52 1.5 4c-1.12 4.5-1.88 10.5-3.5 16.25"></path>
<path style="fill:none; fill-opacity:0%; fill-rule:evenodd; stroke:#aaaaaa; stroke-opacity:100%; stroke-width: 1.5pt; stroke-linejoin:round; stroke-linecap:round;" d="M28.17 39.63c1.08 0.44 3.07 0.57 4.16 0.44c12.92-1.57 26.76-3.25 48.54-4.56c1.8-0.11 2.89 0.21 3.79 0.43"></path>
<path style="fill:none; fill-opacity:0%; fill-rule:evenodd; stroke:#aaaaaa; stroke-opacity:100%; stroke-width: 1.5pt; stroke-linejoin:round; stroke-linecap:round;" d="M39 41.11c0.94 0.66 1.45 2.39 1.45 4.17c0 1.78 0.21 31.66 0.21 38.06"></path>
<path style="fill:none; fill-opacity:0%; fill-rule:evenodd; stroke:#aaaaaa; stroke-opacity:100%; stroke-width: 1.5pt; stroke-linejoin:round; stroke-linecap:round;" d="M40.93 51.58c4.28 0 22.67-2.15 30-2.15"></path>
<path style="fill:none; fill-opacity:0%; fill-rule:evenodd; stroke:#aaaaaa; stroke-opacity:100%; stroke-width: 1.5pt; stroke-linejoin:round; stroke-linecap:round;" d="M40.99 64.47c5.29 0 22.07-1.93 29.78-1.93"></path>
<path style="fill:none; fill-opacity:0%; fill-rule:evenodd; stroke:#aaaaaa; stroke-opacity:100%; stroke-width: 1.5pt; stroke-linejoin:round; stroke-linecap:round;" d="M24.59 86.6c1.66 0.9 3.05 1.02 4.59 0.59c6.17-1.74 41.34-12.17 50.82-14.95"></path>
<path style="fill:none; fill-opacity:0%; fill-rule:evenodd; stroke:#aaaaaa; stroke-opacity:100%; stroke-width: 1.5pt; stroke-linejoin:round; stroke-linecap:round;" d="M69.99 38.09c0.44 0.88 1.1 1.98 1.1 3.09c0 1.1 0.22 48.79 0.22 57.83"></path>

<path style="fill:none; fill-opacity:0%; fill-rule:evenodd; stroke:#000000; stroke-opacity:100%; stroke-width: 3pt; stroke-linejoin:round; stroke-linecap:round;" d="M21 23.27c1.29 0.53 2.8 0.63 4.1 0.53c11.9-0.96 46.4-4.46 60.12-4.53c2.16-0.01 3.45 0.25 4.53 0.51"></path>
<path style="fill:none; fill-opacity:0%; fill-rule:evenodd; stroke:#000000; stroke-opacity:100%; stroke-width: 3pt; stroke-linejoin:round; stroke-linecap:round;" d="M38.25 12c1.75 1.43 2.41 1.85 2.5 2.75C41.5 22.25 42.5 29 43 32"></path>
<path style="fill:none; fill-opacity:0%; fill-rule:evenodd; stroke:#000000; stroke-opacity:100%; stroke-width: 3pt; stroke-linejoin:round; stroke-linecap:round;" d="M67.25 10.25c1.12 1 1.87 2.52 1.5 4c-1.12 4.5-1.88 10.5-3.5 16.25"></path>
<path style="fill:none; fill-opacity:0%; fill-rule:evenodd; stroke:#000000; stroke-opacity:100%; stroke-width: 3pt; stroke-linejoin:round; stroke-linecap:round;" d="M28.17 39.63c1.08 0.44 3.07 0.57 4.16 0.44c12.92-1.57 26.76-3.25 48.54-4.56c1.8-0.11 2.89 0.21 3.79 0.43"></path>
<path style="fill:none; fill-opacity:0%; fill-rule:evenodd; stroke:#000000; stroke-opacity:100%; stroke-width: 3pt; stroke-linejoin:round; stroke-linecap:round;" d="M39 41.11c0.94 0.66 1.45 2.39 1.45 4.17c0 1.78 0.21 31.66 0.21 38.06"></path>
<text x="5" y="20" font-size="20" fill="#999999">6</text><path style="fill:none; fill-opacity:0%; fill-rule:evenodd; stroke:#CC0000; stroke-opacity:100%; stroke-width: 3pt; stroke-linejoin:round; stroke-linecap:round;" d="M40.93 51.58c4.28 0 22.67-2.15 30-2.15"  ></path>




</g><g transform="scale(1.3761467889908 1.3761467889908) translate(109, 109)">
<path style="fill:none; fill-rule:evenodd; stroke:#aaaaaa;  stroke-width:1pt; stroke-linecap:round;" d="m 109 0 L 0 0 L 0 109 L 109 109 L 109 0"></path><path style="fill:none; fill-opacity:0%; fill-rule:evenodd; stroke:#aaaaaa; stroke-opacity:100%; stroke-width: 1.5pt; stroke-linejoin:round; stroke-linecap:round;" d="M21 23.27c1.29 0.53 2.8 0.63 4.1 0.53c11.9-0.96 46.4-4.46 60.12-4.53c2.16-0.01 3.45 0.25 4.53 0.51"></path>
<path style="fill:none; fill-opacity:0%; fill-rule:evenodd; stroke:#aaaaaa; stroke-opacity:100%; stroke-width: 1.5pt; stroke-linejoin:round; stroke-linecap:round;" d="M38.25 12c1.75 1.43 2.41 1.85 2.5 2.75C41.5 22.25 42.5 29 43 32"></path>
<path style="fill:none; fill-opacity:0%; fill-rule:evenodd; stroke:#aaaaaa; stroke-opacity:100%; stroke-width: 1.5pt; stroke-linejoin:round; stroke-linecap:round;" d="M67.25 10.25c1.12 1 1.87 2.52 1.5 4c-1.12 4.5-1.88 10.5-3.5 16.25"></path>
<path style="fill:none; fill-opacity:0%; fill-rule:evenodd; stroke:#aaaaaa; stroke-opacity:100%; stroke-width: 1.5pt; stroke-linejoin:round; stroke-linecap:round;" d="M28.17 39.63c1.08 0.44 3.07 0.57 4.16 0.44c12.92-1.57 26.76-3.25 48.54-4.56c1.8-0.11 2.89 0.21 3.79 0.43"></path>
<path style="fill:none; fill-opacity:0%; fill-rule:evenodd; stroke:#aaaaaa; stroke-opacity:100%; stroke-width: 1.5pt; stroke-linejoin:round; stroke-linecap:round;" d="M39 41.11c0.94 0.66 1.45 2.39 1.45 4.17c0 1.78 0.21 31.66 0.21 38.06"></path>
<path style="fill:none; fill-opacity:0%; fill-rule:evenodd; stroke:#aaaaaa; stroke-opacity:100%; stroke-width: 1.5pt; stroke-linejoin:round; stroke-linecap:round;" d="M40.93 51.58c4.28 0 22.67-2.15 30-2.15"></path>
<path style="fill:none; fill-opacity:0%; fill-rule:evenodd; stroke:#aaaaaa; stroke-opacity:100%; stroke-width: 1.5pt; stroke-linejoin:round; stroke-linecap:round;" d="M40.99 64.47c5.29 0 22.07-1.93 29.78-1.93"></path>
<path style="fill:none; fill-opacity:0%; fill-rule:evenodd; stroke:#aaaaaa; stroke-opacity:100%; stroke-width: 1.5pt; stroke-linejoin:round; stroke-linecap:round;" d="M24.59 86.6c1.66 0.9 3.05 1.02 4.59 0.59c6.17-1.74 41.34-12.17 50.82-14.95"></path>
<path style="fill:none; fill-opacity:0%; fill-rule:evenodd; stroke:#aaaaaa; stroke-opacity:100%; stroke-width: 1.5pt; stroke-linejoin:round; stroke-linecap:round;" d="M69.99 38.09c0.44 0.88 1.1 1.98 1.1 3.09c0 1.1 0.22 48.79 0.22 57.83"></path>

<path style="fill:none; fill-opacity:0%; fill-rule:evenodd; stroke:#000000; stroke-opacity:100%; stroke-width: 3pt; stroke-linejoin:round; stroke-linecap:round;" d="M21 23.27c1.29 0.53 2.8 0.63 4.1 0.53c11.9-0.96 46.4-4.46 60.12-4.53c2.16-0.01 3.45 0.25 4.53 0.51"></path>
<path style="fill:none; fill-opacity:0%; fill-rule:evenodd; stroke:#000000; stroke-opacity:100%; stroke-width: 3pt; stroke-linejoin:round; stroke-linecap:round;" d="M38.25 12c1.75 1.43 2.41 1.85 2.5 2.75C41.5 22.25 42.5 29 43 32"></path>
<path style="fill:none; fill-opacity:0%; fill-rule:evenodd; stroke:#000000; stroke-opacity:100%; stroke-width: 3pt; stroke-linejoin:round; stroke-linecap:round;" d="M67.25 10.25c1.12 1 1.87 2.52 1.5 4c-1.12 4.5-1.88 10.5-3.5 16.25"></path>
<path style="fill:none; fill-opacity:0%; fill-rule:evenodd; stroke:#000000; stroke-opacity:100%; stroke-width: 3pt; stroke-linejoin:round; stroke-linecap:round;" d="M28.17 39.63c1.08 0.44 3.07 0.57 4.16 0.44c12.92-1.57 26.76-3.25 48.54-4.56c1.8-0.11 2.89 0.21 3.79 0.43"></path>
<path style="fill:none; fill-opacity:0%; fill-rule:evenodd; stroke:#000000; stroke-opacity:100%; stroke-width: 3pt; stroke-linejoin:round; stroke-linecap:round;" d="M39 41.11c0.94 0.66 1.45 2.39 1.45 4.17c0 1.78 0.21 31.66 0.21 38.06"></path>
<path style="fill:none; fill-opacity:0%; fill-rule:evenodd; stroke:#000000; stroke-opacity:100%; stroke-width: 3pt; stroke-linejoin:round; stroke-linecap:round;" d="M40.93 51.58c4.28 0 22.67-2.15 30-2.15"></path>
<text x="5" y="20" font-size="20" fill="#999999">7</text><path style="fill:none; fill-opacity:0%; fill-rule:evenodd; stroke:#CC0000; stroke-opacity:100%; stroke-width: 3pt; stroke-linejoin:round; stroke-linecap:round;" d="M40.99 64.47c5.29 0 22.07-1.93 29.78-1.93"  ></path>



</g><g transform="scale(1.3761467889908 1.3761467889908) translate(218, 109)">
<path style="fill:none; fill-rule:evenodd; stroke:#aaaaaa;  stroke-width:1pt; stroke-linecap:round;" d="m 109 0 L 0 0 L 0 109 L 109 109 L 109 0"></path><path style="fill:none; fill-opacity:0%; fill-rule:evenodd; stroke:#aaaaaa; stroke-opacity:100%; stroke-width: 1.5pt; stroke-linejoin:round; stroke-linecap:round;" d="M21 23.27c1.29 0.53 2.8 0.63 4.1 0.53c11.9-0.96 46.4-4.46 60.12-4.53c2.16-0.01 3.45 0.25 4.53 0.51"></path>
<path style="fill:none; fill-opacity:0%; fill-rule:evenodd; stroke:#aaaaaa; stroke-opacity:100%; stroke-width: 1.5pt; stroke-linejoin:round; stroke-linecap:round;" d="M38.25 12c1.75 1.43 2.41 1.85 2.5 2.75C41.5 22.25 42.5 29 43 32"></path>
<path style="fill:none; fill-opacity:0%; fill-rule:evenodd; stroke:#aaaaaa; stroke-opacity:100%; stroke-width: 1.5pt; stroke-linejoin:round; stroke-linecap:round;" d="M67.25 10.25c1.12 1 1.87 2.52 1.5 4c-1.12 4.5-1.88 10.5-3.5 16.25"></path>
<path style="fill:none; fill-opacity:0%; fill-rule:evenodd; stroke:#aaaaaa; stroke-opacity:100%; stroke-width: 1.5pt; stroke-linejoin:round; stroke-linecap:round;" d="M28.17 39.63c1.08 0.44 3.07 0.57 4.16 0.44c12.92-1.57 26.76-3.25 48.54-4.56c1.8-0.11 2.89 0.21 3.79 0.43"></path>
<path style="fill:none; fill-opacity:0%; fill-rule:evenodd; stroke:#aaaaaa; stroke-opacity:100%; stroke-width: 1.5pt; stroke-linejoin:round; stroke-linecap:round;" d="M39 41.11c0.94 0.66 1.45 2.39 1.45 4.17c0 1.78 0.21 31.66 0.21 38.06"></path>
<path style="fill:none; fill-opacity:0%; fill-rule:evenodd; stroke:#aaaaaa; stroke-opacity:100%; stroke-width: 1.5pt; stroke-linejoin:round; stroke-linecap:round;" d="M40.93 51.58c4.28 0 22.67-2.15 30-2.15"></path>
<path style="fill:none; fill-opacity:0%; fill-rule:evenodd; stroke:#aaaaaa; stroke-opacity:100%; stroke-width: 1.5pt; stroke-linejoin:round; stroke-linecap:round;" d="M40.99 64.47c5.29 0 22.07-1.93 29.78-1.93"></path>
<path style="fill:none; fill-opacity:0%; fill-rule:evenodd; stroke:#aaaaaa; stroke-opacity:100%; stroke-width: 1.5pt; stroke-linejoin:round; stroke-linecap:round;" d="M24.59 86.6c1.66 0.9 3.05 1.02 4.59 0.59c6.17-1.74 41.34-12.17 50.82-14.95"></path>
<path style="fill:none; fill-opacity:0%; fill-rule:evenodd; stroke:#aaaaaa; stroke-opacity:100%; stroke-width: 1.5pt; stroke-linejoin:round; stroke-linecap:round;" d="M69.99 38.09c0.44 0.88 1.1 1.98 1.1 3.09c0 1.1 0.22 48.79 0.22 57.83"></path>

<path style="fill:none; fill-opacity:0%; fill-rule:evenodd; stroke:#000000; stroke-opacity:100%; stroke-width: 3pt; stroke-linejoin:round; stroke-linecap:round;" d="M21 23.27c1.29 0.53 2.8 0.63 4.1 0.53c11.9-0.96 46.4-4.46 60.12-4.53c2.16-0.01 3.45 0.25 4.53 0.51"></path>
<path style="fill:none; fill-opacity:0%; fill-rule:evenodd; stroke:#000000; stroke-opacity:100%; stroke-width: 3pt; stroke-linejoin:round; stroke-linecap:round;" d="M38.25 12c1.75 1.43 2.41 1.85 2.5 2.75C41.5 22.25 42.5 29 43 32"></path>
<path style="fill:none; fill-opacity:0%; fill-rule:evenodd; stroke:#000000; stroke-opacity:100%; stroke-width: 3pt; stroke-linejoin:round; stroke-linecap:round;" d="M67.25 10.25c1.12 1 1.87 2.52 1.5 4c-1.12 4.5-1.88 10.5-3.5 16.25"></path>
<path style="fill:none; fill-opacity:0%; fill-rule:evenodd; stroke:#000000; stroke-opacity:100%; stroke-width: 3pt; stroke-linejoin:round; stroke-linecap:round;" d="M28.17 39.63c1.08 0.44 3.07 0.57 4.16 0.44c12.92-1.57 26.76-3.25 48.54-4.56c1.8-0.11 2.89 0.21 3.79 0.43"></path>
<path style="fill:none; fill-opacity:0%; fill-rule:evenodd; stroke:#000000; stroke-opacity:100%; stroke-width: 3pt; stroke-linejoin:round; stroke-linecap:round;" d="M39 41.11c0.94 0.66 1.45 2.39 1.45 4.17c0 1.78 0.21 31.66 0.21 38.06"></path>
<path style="fill:none; fill-opacity:0%; fill-rule:evenodd; stroke:#000000; stroke-opacity:100%; stroke-width: 3pt; stroke-linejoin:round; stroke-linecap:round;" d="M40.93 51.58c4.28 0 22.67-2.15 30-2.15"></path>
<path style="fill:none; fill-opacity:0%; fill-rule:evenodd; stroke:#000000; stroke-opacity:100%; stroke-width: 3pt; stroke-linejoin:round; stroke-linecap:round;" d="M40.99 64.47c5.29 0 22.07-1.93 29.78-1.93"></path>
<text x="5" y="20" font-size="20" fill="#999999">8</text><path style="fill:none; fill-opacity:0%; fill-rule:evenodd; stroke:#CC0000; stroke-opacity:100%; stroke-width: 3pt; stroke-linejoin:round; stroke-linecap:round;" d="M24.59 86.6c1.66 0.9 3.05 1.02 4.59 0.59c6.17-1.74 41.34-12.17 50.82-14.95"  ></path>


</g><g transform="scale(1.3761467889908 1.3761467889908) translate(327, 109)">
<path style="fill:none; fill-rule:evenodd; stroke:#aaaaaa;  stroke-width:1pt; stroke-linecap:round;" d="m 109 0 L 0 0 L 0 109 L 109 109 L 109 0"></path><path style="fill:none; fill-opacity:0%; fill-rule:evenodd; stroke:#aaaaaa; stroke-opacity:100%; stroke-width: 1.5pt; stroke-linejoin:round; stroke-linecap:round;" d="M21 23.27c1.29 0.53 2.8 0.63 4.1 0.53c11.9-0.96 46.4-4.46 60.12-4.53c2.16-0.01 3.45 0.25 4.53 0.51"></path>
<path style="fill:none; fill-opacity:0%; fill-rule:evenodd; stroke:#aaaaaa; stroke-opacity:100%; stroke-width: 1.5pt; stroke-linejoin:round; stroke-linecap:round;" d="M38.25 12c1.75 1.43 2.41 1.85 2.5 2.75C41.5 22.25 42.5 29 43 32"></path>
<path style="fill:none; fill-opacity:0%; fill-rule:evenodd; stroke:#aaaaaa; stroke-opacity:100%; stroke-width: 1.5pt; stroke-linejoin:round; stroke-linecap:round;" d="M67.25 10.25c1.12 1 1.87 2.52 1.5 4c-1.12 4.5-1.88 10.5-3.5 16.25"></path>
<path style="fill:none; fill-opacity:0%; fill-rule:evenodd; stroke:#aaaaaa; stroke-opacity:100%; stroke-width: 1.5pt; stroke-linejoin:round; stroke-linecap:round;" d="M28.17 39.63c1.08 0.44 3.07 0.57 4.16 0.44c12.92-1.57 26.76-3.25 48.54-4.56c1.8-0.11 2.89 0.21 3.79 0.43"></path>
<path style="fill:none; fill-opacity:0%; fill-rule:evenodd; stroke:#aaaaaa; stroke-opacity:100%; stroke-width: 1.5pt; stroke-linejoin:round; stroke-linecap:round;" d="M39 41.11c0.94 0.66 1.45 2.39 1.45 4.17c0 1.78 0.21 31.66 0.21 38.06"></path>
<path style="fill:none; fill-opacity:0%; fill-rule:evenodd; stroke:#aaaaaa; stroke-opacity:100%; stroke-width: 1.5pt; stroke-linejoin:round; stroke-linecap:round;" d="M40.93 51.58c4.28 0 22.67-2.15 30-2.15"></path>
<path style="fill:none; fill-opacity:0%; fill-rule:evenodd; stroke:#aaaaaa; stroke-opacity:100%; stroke-width: 1.5pt; stroke-linejoin:round; stroke-linecap:round;" d="M40.99 64.47c5.29 0 22.07-1.93 29.78-1.93"></path>
<path style="fill:none; fill-opacity:0%; fill-rule:evenodd; stroke:#aaaaaa; stroke-opacity:100%; stroke-width: 1.5pt; stroke-linejoin:round; stroke-linecap:round;" d="M24.59 86.6c1.66 0.9 3.05 1.02 4.59 0.59c6.17-1.74 41.34-12.17 50.82-14.95"></path>
<path style="fill:none; fill-opacity:0%; fill-rule:evenodd; stroke:#aaaaaa; stroke-opacity:100%; stroke-width: 1.5pt; stroke-linejoin:round; stroke-linecap:round;" d="M69.99 38.09c0.44 0.88 1.1 1.98 1.1 3.09c0 1.1 0.22 48.79 0.22 57.83"></path>

<path style="fill:none; fill-opacity:0%; fill-rule:evenodd; stroke:#000000; stroke-opacity:100%; stroke-width: 3pt; stroke-linejoin:round; stroke-linecap:round;" d="M21 23.27c1.29 0.53 2.8 0.63 4.1 0.53c11.9-0.96 46.4-4.46 60.12-4.53c2.16-0.01 3.45 0.25 4.53 0.51"></path>
<path style="fill:none; fill-opacity:0%; fill-rule:evenodd; stroke:#000000; stroke-opacity:100%; stroke-width: 3pt; stroke-linejoin:round; stroke-linecap:round;" d="M38.25 12c1.75 1.43 2.41 1.85 2.5 2.75C41.5 22.25 42.5 29 43 32"></path>
<path style="fill:none; fill-opacity:0%; fill-rule:evenodd; stroke:#000000; stroke-opacity:100%; stroke-width: 3pt; stroke-linejoin:round; stroke-linecap:round;" d="M67.25 10.25c1.12 1 1.87 2.52 1.5 4c-1.12 4.5-1.88 10.5-3.5 16.25"></path>
<path style="fill:none; fill-opacity:0%; fill-rule:evenodd; stroke:#000000; stroke-opacity:100%; stroke-width: 3pt; stroke-linejoin:round; stroke-linecap:round;" d="M28.17 39.63c1.08 0.44 3.07 0.57 4.16 0.44c12.92-1.57 26.76-3.25 48.54-4.56c1.8-0.11 2.89 0.21 3.79 0.43"></path>
<path style="fill:none; fill-opacity:0%; fill-rule:evenodd; stroke:#000000; stroke-opacity:100%; stroke-width: 3pt; stroke-linejoin:round; stroke-linecap:round;" d="M39 41.11c0.94 0.66 1.45 2.39 1.45 4.17c0 1.78 0.21 31.66 0.21 38.06"></path>
<path style="fill:none; fill-opacity:0%; fill-rule:evenodd; stroke:#000000; stroke-opacity:100%; stroke-width: 3pt; stroke-linejoin:round; stroke-linecap:round;" d="M40.93 51.58c4.28 0 22.67-2.15 30-2.15"></path>
<path style="fill:none; fill-opacity:0%; fill-rule:evenodd; stroke:#000000; stroke-opacity:100%; stroke-width: 3pt; stroke-linejoin:round; stroke-linecap:round;" d="M40.99 64.47c5.29 0 22.07-1.93 29.78-1.93"></path>
<path style="fill:none; fill-opacity:0%; fill-rule:evenodd; stroke:#000000; stroke-opacity:100%; stroke-width: 3pt; stroke-linejoin:round; stroke-linecap:round;" d="M24.59 86.6c1.66 0.9 3.05 1.02 4.59 0.59c6.17-1.74 41.34-12.17 50.82-14.95"></path>
<text x="5" y="20" font-size="20" fill="#999999">9</text><path style="fill:none; fill-opacity:0%; fill-rule:evenodd; stroke:#CC0000; stroke-opacity:100%; stroke-width: 3pt; stroke-linejoin:round; stroke-linecap:round;" d="M69.99 38.09c0.44 0.88 1.1 1.98 1.1 3.09c0 1.1 0.22 48.79 0.22 57.83"  ></path>

</g>

</svg>  
          
