<?xml version="1.0" standalone="no"?>
<!DOCTYPE svg PUBLIC "-//W3C//DTD SVG 1.1//EN"   "http://www.w3.org/Graphics/SVG/1.1/DTD/svg11.dtd">
<svg width="751" height="301"  version="1.1" xmlns="http://www.w3.org/2000/svg">
  <defs>
    <marker id="Triangle" viewBox="0 0 10 10" refX="0" refY="5" markerUnits="strokeWidth" markerWidth="3" style="stroke-opacity:0%;fill:#aaaaaa;" markerHeight="2" orient="auto">
      <path d="M 0 0 L 10 5 L 0 10 z" />
    </marker>
    
    <marker id="Arrow" viewBox="0 0 10 10" refX="5" refY="5" markerUnits="strokeWidth" markerWidth="1.8" style="stroke-opacity:0%;fill:#770000;" markerHeight="2" orient="auto">
      <path d="M 0 4 L 6 4 L 4 1 L 10 5 L 4 9 L 6 6 L 0 6 z" />
        <circle cx="5" cy="5" r="5" />
      </marker>
    
    <marker id="TriangleRed" viewBox="0 0 10 10" refX="0" refY="5" markerUnits="strokeWidth" markerWidth="3" style="stroke-opacity:0%;fill:#CC0000;" markerHeight="2" orient="auto">
      <path d="M 0 0 L 10 5 L 0 10 z" />
    </marker>
    
    <marker id="ArrowRed" viewBox="0 0 10 10" refX="5" refY="5" markerUnits="strokeWidth" markerWidth="1.8" style="stroke-opacity:0%;fill:#CC0000;" markerHeight="2" orient="auto">
      <path d="M 0 4 L 6 4 L 4 1 L 10 5 L 4 9 L 6 6 L 0 6 z" />
        <circle cx="5" cy="5" r="5" />
      </marker>
    
  </defs>
  
  <path style="fill:#ffffff; fill-opacity:100%; fill-rule:evenodd; stroke-width:0;" d="M 0 0 L 751 0 L 751 301 L 0 301 L 0 0" />

  <g transform="scale(1.3761467889908 1.3761467889908) translate(0, 0)">
<path style="fill:none; fill-rule:evenodd; stroke:#aaaaaa;  stroke-width:1pt; stroke-linecap:round;" d="m 109 0 L 0 0 L 0 109 L 109 109 L 109 0"></path><path style="fill:none; fill-opacity:0%; fill-rule:evenodd; stroke:#aaaaaa; stroke-opacity:100%; stroke-width: 1.5pt; stroke-linejoin:round; stroke-linecap:round;" d="M17.67 23.67c1.29 0.53 5.54 0.8 6.83 0.67C37 23 71.12 20.74 84.83 20.67c2.16-0.01 6.92 0.4 8 0.67"></path>
<path style="fill:none; fill-opacity:0%; fill-rule:evenodd; stroke:#aaaaaa; stroke-opacity:100%; stroke-width: 1.5pt; stroke-linejoin:round; stroke-linecap:round;" d="M36.5 12c2.67 0.83 3.8 2.47 4 3.33c1.86 8.06 2.13 14.4 2.67 17.33"></path>
<path style="fill:none; fill-opacity:0%; fill-rule:evenodd; stroke:#aaaaaa; stroke-opacity:100%; stroke-width: 1.5pt; stroke-linejoin:round; stroke-linecap:round;" d="M66.17 10.5c1.33 1 2.06 2.4 1.77 3.86c-0.86 4.43-1.36 11.65-2.6 17.31"></path>
<path style="fill:none; fill-opacity:0%; fill-rule:evenodd; stroke:#aaaaaa; stroke-opacity:100%; stroke-width: 1.5pt; stroke-linejoin:round; stroke-linecap:round;" d="M25.17 38c1.04 0.49 3.58 1 7.17 0.83C43.1 38.33 61 37 79.17 36c1.72-0.09 5.14-0.08 6 0.17"></path>
<path style="fill:none; fill-opacity:0%; fill-rule:evenodd; stroke:#aaaaaa; stroke-opacity:100%; stroke-width: 1.5pt; stroke-linejoin:round; stroke-linecap:round;" d="M32.33 48.83c0.58 0.34 1.57 2.29 1.68 2.74c0.79 3.28 2.1 9.97 3.15 16.59"></path>
<path style="fill:none; fill-opacity:0%; fill-rule:evenodd; stroke:#aaaaaa; stroke-opacity:100%; stroke-width: 1.5pt; stroke-linejoin:round; stroke-linecap:round;" d="M34 50.17c7.77-0.65 32.2-2.23 37.5-2.33c2.19-0.04 3.71 1.23 3.51 3.17c-0.34 3.33-2.5 8.49-4.17 13.33"></path>
<path style="fill:none; fill-opacity:0%; fill-rule:evenodd; stroke:#aaaaaa; stroke-opacity:100%; stroke-width: 1.5pt; stroke-linejoin:round; stroke-linecap:round;" d="M38 66.17c5.82 0 27.47-1.57 35.5-1.67"></path>
<path style="fill:none; fill-opacity:0%; fill-rule:evenodd; stroke:#aaaaaa; stroke-opacity:100%; stroke-width: 1.5pt; stroke-linejoin:round; stroke-linecap:round;" d="M35 72.8c2.87 2.83 7.42 11.63 8.14 16.03"></path>
<path style="fill:none; fill-opacity:0%; fill-rule:evenodd; stroke:#aaaaaa; stroke-opacity:100%; stroke-width: 1.5pt; stroke-linejoin:round; stroke-linecap:round;" d="M71.11 68.87c0.02 0.51 0.22 1.86-0.05 2.54c-1.81 4.59-3.93 13.26-8.51 19.06"></path>
<path style="fill:none; fill-opacity:0%; fill-rule:evenodd; stroke:#aaaaaa; stroke-opacity:100%; stroke-width: 1.5pt; stroke-linejoin:round; stroke-linecap:round;" d="M19.17 94.33c1.47 0.38 4.22 1.31 5.69 1.2c17.25-1.25 45.31-3.03 62.13-2.63c2.45 0.06 4.79 1.07 6.02 1.26"></path>

<text x="5" y="20" font-size="20" fill="#999999">1</text><path style="fill:none; fill-opacity:0%; fill-rule:evenodd; stroke:#CC0000; stroke-opacity:100%; stroke-width: 3pt; stroke-linejoin:round; stroke-linecap:round;" d="M17.67 23.67c1.29 0.53 5.54 0.8 6.83 0.67C37 23 71.12 20.74 84.83 20.67c2.16-0.01 6.92 0.4 8 0.67"  ></path>










</g><g transform="scale(1.3761467889908 1.3761467889908) translate(109, 0)">
<path style="fill:none; fill-rule:evenodd; stroke:#aaaaaa;  stroke-width:1pt; stroke-linecap:round;" d="m 109 0 L 0 0 L 0 109 L 109 109 L 109 0"></path><path style="fill:none; fill-opacity:0%; fill-rule:evenodd; stroke:#aaaaaa; stroke-opacity:100%; stroke-width: 1.5pt; stroke-linejoin:round; stroke-linecap:round;" d="M17.67 23.67c1.29 0.53 5.54 0.8 6.83 0.67C37 23 71.12 20.74 84.83 20.67c2.16-0.01 6.92 0.4 8 0.67"></path>
<path style="fill:none; fill-opacity:0%; fill-rule:evenodd; stroke:#aaaaaa; stroke-opacity:100%; stroke-width: 1.5pt; stroke-linejoin:round; stroke-linecap:round;" d="M36.5 12c2.67 0.83 3.8 2.47 4 3.33c1.86 8.06 2.13 14.4 2.67 17.33"></path>
<path style="fill:none; fill-opacity:0%; fill-rule:evenodd; stroke:#aaaaaa; stroke-opacity:100%; stroke-width: 1.5pt; stroke-linejoin:round; stroke-linecap:round;" d="M66.17 10.5c1.33 1 2.06 2.4 1.77 3.86c-0.86 4.43-1.36 11.65-2.6 17.31"></path>
<path style="fill:none; fill-opacity:0%; fill-rule:evenodd; stroke:#aaaaaa; stroke-opacity:100%; stroke-width: 1.5pt; stroke-linejoin:round; stroke-linecap:round;" d="M25.17 38c1.04 0.49 3.58 1 7.17 0.83C43.1 38.33 61 37 79.17 36c1.72-0.09 5.14-0.08 6 0.17"></path>
<path style="fill:none; fill-opacity:0%; fill-rule:evenodd; stroke:#aaaaaa; stroke-opacity:100%; stroke-width: 1.5pt; stroke-linejoin:round; stroke-linecap:round;" d="M32.33 48.83c0.58 0.34 1.57 2.29 1.68 2.74c0.79 3.28 2.1 9.97 3.15 16.59"></path>
<path style="fill:none; fill-opacity:0%; fill-rule:evenodd; stroke:#aaaaaa; stroke-opacity:100%; stroke-width: 1.5pt; stroke-linejoin:round; stroke-linecap:round;" d="M34 50.17c7.77-0.65 32.2-2.23 37.5-2.33c2.19-0.04 3.71 1.23 3.51 3.17c-0.34 3.33-2.5 8.49-4.17 13.33"></path>
<path style="fill:none; fill-opacity:0%; fill-rule:evenodd; stroke:#aaaaaa; stroke-opacity:100%; stroke-width: 1.5pt; stroke-linejoin:round; stroke-linecap:round;" d="M38 66.17c5.82 0 27.47-1.57 35.5-1.67"></path>
<path style="fill:none; fill-opacity:0%; fill-rule:evenodd; stroke:#aaaaaa; stroke-opacity:100%; stroke-width: 1.5pt; stroke-linejoin:round; stroke-linecap:round;" d="M35 72.8c2.87 2.83 7.42 11.63 8.14 16.03"></path>
<path style="fill:none; fill-opacity:0%; fill-rule:evenodd; stroke:#aaaaaa; stroke-opacity:100%; stroke-width: 1.5pt; stroke-linejoin:round; stroke-linecap:round;" d="M71.11 68.87c0.02 0.51 0.22 1.86-0.05 2.54c-1.81 4.59-3.93 13.26-8.51 19.06"></path>
<path style="fill:none; fill-opacity:0%; fill-rule:evenodd; stroke:#aaaaaa; stroke-opacity:100%; stroke-width: 1.5pt; stroke-linejoin:round; stroke-linecap:round;" d="M19.17 94.33c1.47 0.38 4.22 1.31 5.69 1.2c17.25-1.25 45.31-3.03 62.13-2.63c2.45 0.06 4.79 1.07 6.02 1.26"></path>

<path style="fill:none; fill-opacity:0%; fill-rule:evenodd; stroke:#000000; stroke-opacity:100%; stroke-width: 3pt; stroke-linejoin:round; stroke-linecap:round;" d="M17.67 23.67c1.29 0.53 5.54 0.8 6.83 0.67C37 23 71.12 20.74 84.83 20.67c2.16-0.01 6.92 0.4 8 0.67"></path>
<text x="5" y="20" font-size="20" fill="#999999">2</text><path style="fill:none; fill-opacity:0%; fill-rule:evenodd; stroke:#CC0000; stroke-opacity:100%; stroke-width: 3pt; stroke-linejoin:round; stroke-linecap:round;" d="M36.5 12c2.67 0.83 3.8 2.47 4 3.33c1.86 8.06 2.13 14.4 2.67 17.33"  ></path>









</g><g transform="scale(1.3761467889908 1.3761467889908) translate(218, 0)">
<path style="fill:none; fill-rule:evenodd; stroke:#aaaaaa;  stroke-width:1pt; stroke-linecap:round;" d="m 109 0 L 0 0 L 0 109 L 109 109 L 109 0"></path><path style="fill:none; fill-opacity:0%; fill-rule:evenodd; stroke:#aaaaaa; stroke-opacity:100%; stroke-width: 1.5pt; stroke-linejoin:round; stroke-linecap:round;" d="M17.67 23.67c1.29 0.53 5.54 0.8 6.83 0.67C37 23 71.12 20.74 84.83 20.67c2.16-0.01 6.92 0.4 8 0.67"></path>
<path style="fill:none; fill-opacity:0%; fill-rule:evenodd; stroke:#aaaaaa; stroke-opacity:100%; stroke-width: 1.5pt; stroke-linejoin:round; stroke-linecap:round;" d="M36.5 12c2.67 0.83 3.8 2.47 4 3.33c1.86 8.06 2.13 14.4 2.67 17.33"></path>
<path style="fill:none; fill-opacity:0%; fill-rule:evenodd; stroke:#aaaaaa; stroke-opacity:100%; stroke-width: 1.5pt; stroke-linejoin:round; stroke-linecap:round;" d="M66.17 10.5c1.33 1 2.06 2.4 1.77 3.86c-0.86 4.43-1.36 11.65-2.6 17.31"></path>
<path style="fill:none; fill-opacity:0%; fill-rule:evenodd; stroke:#aaaaaa; stroke-opacity:100%; stroke-width: 1.5pt; stroke-linejoin:round; stroke-linecap:round;" d="M25.17 38c1.04 0.49 3.58 1 7.17 0.83C43.1 38.33 61 37 79.17 36c1.72-0.09 5.14-0.08 6 0.17"></path>
<path style="fill:none; fill-opacity:0%; fill-rule:evenodd; stroke:#aaaaaa; stroke-opacity:100%; stroke-width: 1.5pt; stroke-linejoin:round; stroke-linecap:round;" d="M32.33 48.83c0.58 0.34 1.57 2.29 1.68 2.74c0.79 3.28 2.1 9.97 3.15 16.59"></path>
<path style="fill:none; fill-opacity:0%; fill-rule:evenodd; stroke:#aaaaaa; stroke-opacity:100%; stroke-width: 1.5pt; stroke-linejoin:round; stroke-linecap:round;" d="M34 50.17c7.77-0.65 32.2-2.23 37.5-2.33c2.19-0.04 3.71 1.23 3.51 3.17c-0.34 3.33-2.5 8.49-4.17 13.33"></path>
<path style="fill:none; fill-opacity:0%; fill-rule:evenodd; stroke:#aaaaaa; stroke-opacity:100%; stroke-width: 1.5pt; stroke-linejoin:round; stroke-linecap:round;" d="M38 66.17c5.82 0 27.47-1.57 35.5-1.67"></path>
<path style="fill:none; fill-opacity:0%; fill-rule:evenodd; stroke:#aaaaaa; stroke-opacity:100%; stroke-width: 1.5pt; stroke-linejoin:round; stroke-linecap:round;" d="M35 72.8c2.87 2.83 7.42 11.63 8.14 16.03"></path>
<path style="fill:none; fill-opacity:0%; fill-rule:evenodd; stroke:#aaaaaa; stroke-opacity:100%; stroke-width: 1.5pt; stroke-linejoin:round; stroke-linecap:round;" d="M71.11 68.87c0.02 0.51 0.22 1.86-0.05 2.54c-1.81 4.59-3.93 13.26-8.51 19.06"></path>
<path style="fill:none; fill-opacity:0%; fill-rule:evenodd; stroke:#aaaaaa; stroke-opacity:100%; stroke-width: 1.5pt; stroke-linejoin:round; stroke-linecap:round;" d="M19.17 94.33c1.47 0.38 4.22 1.31 5.69 1.2c17.25-1.25 45.31-3.03 62.13-2.63c2.45 0.06 4.79 1.07 6.02 1.26"></path>

<path style="fill:none; fill-opacity:0%; fill-rule:evenodd; stroke:#000000; stroke-opacity:100%; stroke-width: 3pt; stroke-linejoin:round; stroke-linecap:round;" d="M17.67 23.67c1.29 0.53 5.54 0.8 6.83 0.67C37 23 71.12 20.74 84.83 20.67c2.16-0.01 6.92 0.4 8 0.67"></path>
<path style="fill:none; fill-opacity:0%; fill-rule:evenodd; stroke:#000000; stroke-opacity:100%; stroke-width: 3pt; stroke-linejoin:round; stroke-linecap:round;" d="M36.5 12c2.67 0.83 3.8 2.47 4 3.33c1.86 8.06 2.13 14.4 2.67 17.33"></path>
<text x="5" y="20" font-size="20" fill="#999999">3</text><path style="fill:none; fill-opacity:0%; fill-rule:evenodd; stroke:#CC0000; stroke-opacity:100%; stroke-width: 3pt; stroke-linejoin:round; stroke-linecap:round;" d="M66.17 10.5c1.33 1 2.06 2.4 1.77 3.86c-0.86 4.43-1.36 11.65-2.6 17.31"  ></path>








</g><g transform="scale(1.3761467889908 1.3761467889908) translate(327, 0)">
<path style="fill:none; fill-rule:evenodd; stroke:#aaaaaa;  stroke-width:1pt; stroke-linecap:round;" d="m 109 0 L 0 0 L 0 109 L 109 109 L 109 0"></path><path style="fill:none; fill-opacity:0%; fill-rule:evenodd; stroke:#aaaaaa; stroke-opacity:100%; stroke-width: 1.5pt; stroke-linejoin:round; stroke-linecap:round;" d="M17.67 23.67c1.29 0.53 5.54 0.8 6.83 0.67C37 23 71.12 20.74 84.83 20.67c2.16-0.01 6.92 0.4 8 0.67"></path>
<path style="fill:none; fill-opacity:0%; fill-rule:evenodd; stroke:#aaaaaa; stroke-opacity:100%; stroke-width: 1.5pt; stroke-linejoin:round; stroke-linecap:round;" d="M36.5 12c2.67 0.83 3.8 2.47 4 3.33c1.86 8.06 2.13 14.4 2.67 17.33"></path>
<path style="fill:none; fill-opacity:0%; fill-rule:evenodd; stroke:#aaaaaa; stroke-opacity:100%; stroke-width: 1.5pt; stroke-linejoin:round; stroke-linecap:round;" d="M66.17 10.5c1.33 1 2.06 2.4 1.77 3.86c-0.86 4.43-1.36 11.65-2.6 17.31"></path>
<path style="fill:none; fill-opacity:0%; fill-rule:evenodd; stroke:#aaaaaa; stroke-opacity:100%; stroke-width: 1.5pt; stroke-linejoin:round; stroke-linecap:round;" d="M25.17 38c1.04 0.49 3.58 1 7.17 0.83C43.1 38.33 61 37 79.17 36c1.72-0.09 5.14-0.08 6 0.17"></path>
<path style="fill:none; fill-opacity:0%; fill-rule:evenodd; stroke:#aaaaaa; stroke-opacity:100%; stroke-width: 1.5pt; stroke-linejoin:round; stroke-linecap:round;" d="M32.33 48.83c0.58 0.34 1.57 2.29 1.68 2.74c0.79 3.28 2.1 9.97 3.15 16.59"></path>
<path style="fill:none; fill-opacity:0%; fill-rule:evenodd; stroke:#aaaaaa; stroke-opacity:100%; stroke-width: 1.5pt; stroke-linejoin:round; stroke-linecap:round;" d="M34 50.17c7.77-0.65 32.2-2.23 37.5-2.33c2.19-0.04 3.71 1.23 3.51 3.17c-0.34 3.33-2.5 8.49-4.17 13.33"></path>
<path style="fill:none; fill-opacity:0%; fill-rule:evenodd; stroke:#aaaaaa; stroke-opacity:100%; stroke-width: 1.5pt; stroke-linejoin:round; stroke-linecap:round;" d="M38 66.17c5.82 0 27.47-1.57 35.5-1.67"></path>
<path style="fill:none; fill-opacity:0%; fill-rule:evenodd; stroke:#aaaaaa; stroke-opacity:100%; stroke-width: 1.5pt; stroke-linejoin:round; stroke-linecap:round;" d="M35 72.8c2.87 2.83 7.42 11.63 8.14 16.03"></path>
<path style="fill:none; fill-opacity:0%; fill-rule:evenodd; stroke:#aaaaaa; stroke-opacity:100%; stroke-width: 1.5pt; stroke-linejoin:round; stroke-linecap:round;" d="M71.11 68.87c0.02 0.51 0.22 1.86-0.05 2.54c-1.81 4.59-3.93 13.26-8.51 19.06"></path>
<path style="fill:none; fill-opacity:0%; fill-rule:evenodd; stroke:#aaaaaa; stroke-opacity:100%; stroke-width: 1.5pt; stroke-linejoin:round; stroke-linecap:round;" d="M19.17 94.33c1.47 0.38 4.22 1.31 5.69 1.2c17.25-1.25 45.31-3.03 62.13-2.63c2.45 0.06 4.79 1.07 6.02 1.26"></path>

<path style="fill:none; fill-opacity:0%; fill-rule:evenodd; stroke:#000000; stroke-opacity:100%; stroke-width: 3pt; stroke-linejoin:round; stroke-linecap:round;" d="M17.67 23.67c1.29 0.53 5.54 0.8 6.83 0.67C37 23 71.12 20.74 84.83 20.67c2.16-0.01 6.92 0.4 8 0.67"></path>
<path style="fill:none; fill-opacity:0%; fill-rule:evenodd; stroke:#000000; stroke-opacity:100%; stroke-width: 3pt; stroke-linejoin:round; stroke-linecap:round;" d="M36.5 12c2.67 0.83 3.8 2.47 4 3.33c1.86 8.06 2.13 14.4 2.67 17.33"></path>
<path style="fill:none; fill-opacity:0%; fill-rule:evenodd; stroke:#000000; stroke-opacity:100%; stroke-width: 3pt; stroke-linejoin:round; stroke-linecap:round;" d="M66.17 10.5c1.33 1 2.06 2.4 1.77 3.86c-0.86 4.43-1.36 11.65-2.6 17.31"></path>
<text x="5" y="20" font-size="20" fill="#999999">4</text><path style="fill:none; fill-opacity:0%; fill-rule:evenodd; stroke:#CC0000; stroke-opacity:100%; stroke-width: 3pt; stroke-linejoin:round; stroke-linecap:round;" d="M25.17 38c1.04 0.49 3.58 1 7.17 0.83C43.1 38.33 61 37 79.17 36c1.72-0.09 5.14-0.08 6 0.17"  ></path>







</g><g transform="scale(1.3761467889908 1.3761467889908) translate(436, 0)">
<path style="fill:none; fill-rule:evenodd; stroke:#aaaaaa;  stroke-width:1pt; stroke-linecap:round;" d="m 109 0 L 0 0 L 0 109 L 109 109 L 109 0"></path><path style="fill:none; fill-opacity:0%; fill-rule:evenodd; stroke:#aaaaaa; stroke-opacity:100%; stroke-width: 1.5pt; stroke-linejoin:round; stroke-linecap:round;" d="M17.67 23.67c1.29 0.53 5.54 0.8 6.83 0.67C37 23 71.12 20.74 84.83 20.67c2.16-0.01 6.92 0.4 8 0.67"></path>
<path style="fill:none; fill-opacity:0%; fill-rule:evenodd; stroke:#aaaaaa; stroke-opacity:100%; stroke-width: 1.5pt; stroke-linejoin:round; stroke-linecap:round;" d="M36.5 12c2.67 0.83 3.8 2.47 4 3.33c1.86 8.06 2.13 14.4 2.67 17.33"></path>
<path style="fill:none; fill-opacity:0%; fill-rule:evenodd; stroke:#aaaaaa; stroke-opacity:100%; stroke-width: 1.5pt; stroke-linejoin:round; stroke-linecap:round;" d="M66.17 10.5c1.33 1 2.06 2.4 1.77 3.86c-0.86 4.43-1.36 11.65-2.6 17.31"></path>
<path style="fill:none; fill-opacity:0%; fill-rule:evenodd; stroke:#aaaaaa; stroke-opacity:100%; stroke-width: 1.5pt; stroke-linejoin:round; stroke-linecap:round;" d="M25.17 38c1.04 0.49 3.58 1 7.17 0.83C43.1 38.33 61 37 79.17 36c1.72-0.09 5.14-0.08 6 0.17"></path>
<path style="fill:none; fill-opacity:0%; fill-rule:evenodd; stroke:#aaaaaa; stroke-opacity:100%; stroke-width: 1.5pt; stroke-linejoin:round; stroke-linecap:round;" d="M32.33 48.83c0.58 0.34 1.57 2.29 1.68 2.74c0.79 3.28 2.1 9.97 3.15 16.59"></path>
<path style="fill:none; fill-opacity:0%; fill-rule:evenodd; stroke:#aaaaaa; stroke-opacity:100%; stroke-width: 1.5pt; stroke-linejoin:round; stroke-linecap:round;" d="M34 50.17c7.77-0.65 32.2-2.23 37.5-2.33c2.19-0.04 3.71 1.23 3.51 3.17c-0.34 3.33-2.5 8.49-4.17 13.33"></path>
<path style="fill:none; fill-opacity:0%; fill-rule:evenodd; stroke:#aaaaaa; stroke-opacity:100%; stroke-width: 1.5pt; stroke-linejoin:round; stroke-linecap:round;" d="M38 66.17c5.82 0 27.47-1.57 35.5-1.67"></path>
<path style="fill:none; fill-opacity:0%; fill-rule:evenodd; stroke:#aaaaaa; stroke-opacity:100%; stroke-width: 1.5pt; stroke-linejoin:round; stroke-linecap:round;" d="M35 72.8c2.87 2.83 7.42 11.63 8.14 16.03"></path>
<path style="fill:none; fill-opacity:0%; fill-rule:evenodd; stroke:#aaaaaa; stroke-opacity:100%; stroke-width: 1.5pt; stroke-linejoin:round; stroke-linecap:round;" d="M71.11 68.87c0.02 0.51 0.22 1.86-0.05 2.54c-1.81 4.59-3.93 13.26-8.51 19.06"></path>
<path style="fill:none; fill-opacity:0%; fill-rule:evenodd; stroke:#aaaaaa; stroke-opacity:100%; stroke-width: 1.5pt; stroke-linejoin:round; stroke-linecap:round;" d="M19.17 94.33c1.47 0.38 4.22 1.31 5.69 1.2c17.25-1.25 45.31-3.03 62.13-2.63c2.45 0.06 4.79 1.07 6.02 1.26"></path>

<path style="fill:none; fill-opacity:0%; fill-rule:evenodd; stroke:#000000; stroke-opacity:100%; stroke-width: 3pt; stroke-linejoin:round; stroke-linecap:round;" d="M17.67 23.67c1.29 0.53 5.54 0.8 6.83 0.67C37 23 71.12 20.74 84.83 20.67c2.16-0.01 6.92 0.4 8 0.67"></path>
<path style="fill:none; fill-opacity:0%; fill-rule:evenodd; stroke:#000000; stroke-opacity:100%; stroke-width: 3pt; stroke-linejoin:round; stroke-linecap:round;" d="M36.5 12c2.67 0.83 3.8 2.47 4 3.33c1.86 8.06 2.13 14.4 2.67 17.33"></path>
<path style="fill:none; fill-opacity:0%; fill-rule:evenodd; stroke:#000000; stroke-opacity:100%; stroke-width: 3pt; stroke-linejoin:round; stroke-linecap:round;" d="M66.17 10.5c1.33 1 2.06 2.4 1.77 3.86c-0.86 4.43-1.36 11.65-2.6 17.31"></path>
<path style="fill:none; fill-opacity:0%; fill-rule:evenodd; stroke:#000000; stroke-opacity:100%; stroke-width: 3pt; stroke-linejoin:round; stroke-linecap:round;" d="M25.17 38c1.04 0.49 3.58 1 7.17 0.83C43.1 38.33 61 37 79.17 36c1.72-0.09 5.14-0.08 6 0.17"></path>
<text x="5" y="20" font-size="20" fill="#999999">5</text><path style="fill:none; fill-opacity:0%; fill-rule:evenodd; stroke:#CC0000; stroke-opacity:100%; stroke-width: 3pt; stroke-linejoin:round; stroke-linecap:round;" d="M32.33 48.83c0.58 0.34 1.57 2.29 1.68 2.74c0.79 3.28 2.1 9.97 3.15 16.59"  ></path>






</g><g transform="scale(1.3761467889908 1.3761467889908) translate(0, 109)">
<path style="fill:none; fill-rule:evenodd; stroke:#aaaaaa;  stroke-width:1pt; stroke-linecap:round;" d="m 109 0 L 0 0 L 0 109 L 109 109 L 109 0"></path><path style="fill:none; fill-opacity:0%; fill-rule:evenodd; stroke:#aaaaaa; stroke-opacity:100%; stroke-width: 1.5pt; stroke-linejoin:round; stroke-linecap:round;" d="M17.67 23.67c1.29 0.53 5.54 0.8 6.83 0.67C37 23 71.12 20.74 84.83 20.67c2.16-0.01 6.92 0.4 8 0.67"></path>
<path style="fill:none; fill-opacity:0%; fill-rule:evenodd; stroke:#aaaaaa; stroke-opacity:100%; stroke-width: 1.5pt; stroke-linejoin:round; stroke-linecap:round;" d="M36.5 12c2.67 0.83 3.8 2.47 4 3.33c1.86 8.06 2.13 14.4 2.67 17.33"></path>
<path style="fill:none; fill-opacity:0%; fill-rule:evenodd; stroke:#aaaaaa; stroke-opacity:100%; stroke-width: 1.5pt; stroke-linejoin:round; stroke-linecap:round;" d="M66.17 10.5c1.33 1 2.06 2.4 1.77 3.86c-0.86 4.43-1.36 11.65-2.6 17.31"></path>
<path style="fill:none; fill-opacity:0%; fill-rule:evenodd; stroke:#aaaaaa; stroke-opacity:100%; stroke-width: 1.5pt; stroke-linejoin:round; stroke-linecap:round;" d="M25.17 38c1.04 0.49 3.58 1 7.17 0.83C43.1 38.33 61 37 79.17 36c1.72-0.09 5.14-0.08 6 0.17"></path>
<path style="fill:none; fill-opacity:0%; fill-rule:evenodd; stroke:#aaaaaa; stroke-opacity:100%; stroke-width: 1.5pt; stroke-linejoin:round; stroke-linecap:round;" d="M32.33 48.83c0.58 0.34 1.57 2.29 1.68 2.74c0.79 3.28 2.1 9.97 3.15 16.59"></path>
<path style="fill:none; fill-opacity:0%; fill-rule:evenodd; stroke:#aaaaaa; stroke-opacity:100%; stroke-width: 1.5pt; stroke-linejoin:round; stroke-linecap:round;" d="M34 50.17c7.77-0.65 32.2-2.23 37.5-2.33c2.19-0.04 3.71 1.23 3.51 3.17c-0.34 3.33-2.5 8.49-4.17 13.33"></path>
<path style="fill:none; fill-opacity:0%; fill-rule:evenodd; stroke:#aaaaaa; stroke-opacity:100%; stroke-width: 1.5pt; stroke-linejoin:round; stroke-linecap:round;" d="M38 66.17c5.82 0 27.47-1.57 35.5-1.67"></path>
<path style="fill:none; fill-opacity:0%; fill-rule:evenodd; stroke:#aaaaaa; stroke-opacity:100%; stroke-width: 1.5pt; stroke-linejoin:round; stroke-linecap:round;" d="M35 72.8c2.87 2.83 7.42 11.63 8.14 16.03"></path>
<path style="fill:none; fill-opacity:0%; fill-rule:evenodd; stroke:#aaaaaa; stroke-opacity:100%; stroke-width: 1.5pt; stroke-linejoin:round; stroke-linecap:round;" d="M71.11 68.87c0.02 0.51 0.22 1.86-0.05 2.54c-1.81 4.59-3.93 13.26-8.51 19.06"></path>
<path style="fill:none; fill-opacity:0%; fill-rule:evenodd; stroke:#aaaaaa; stroke-opacity:100%; stroke-width: 1.5pt; stroke-linejoin:round; stroke-linecap:round;" d="M19.17 94.33c1.47 0.38 4.22 1.31 5.69 1.2c17.25-1.25 45.31-3.03 62.13-2.63c2.45 0.06 4.79 1.07 6.02 1.26"></path>

<path style="fill:none; fill-opacity:0%; fill-rule:evenodd; stroke:#000000; stroke-opacity:100%; stroke-width: 3pt; stroke-linejoin:round; stroke-linecap:round;" d="M17.67 23.67c1.29 0.53 5.54 0.8 6.83 0.67C37 23 71.12 20.74 84.83 20.67c2.16-0.01 6.92 0.4 8 0.67"></path>
<path style="fill:none; fill-opacity:0%; fill-rule:evenodd; stroke:#000000; stroke-opacity:100%; stroke-width: 3pt; stroke-linejoin:round; stroke-linecap:round;" d="M36.5 12c2.67 0.83 3.8 2.47 4 3.33c1.86 8.06 2.13 14.4 2.67 17.33"></path>
<path style="fill:none; fill-opacity:0%; fill-rule:evenodd; stroke:#000000; stroke-opacity:100%; stroke-width: 3pt; stroke-linejoin:round; stroke-linecap:round;" d="M66.17 10.5c1.33 1 2.06 2.4 1.77 3.86c-0.86 4.43-1.36 11.65-2.6 17.31"></path>
<path style="fill:none; fill-opacity:0%; fill-rule:evenodd; stroke:#000000; stroke-opacity:100%; stroke-width: 3pt; stroke-linejoin:round; stroke-linecap:round;" d="M25.17 38c1.04 0.49 3.58 1 7.17 0.83C43.1 38.33 61 37 79.17 36c1.72-0.09 5.14-0.08 6 0.17"></path>
<path style="fill:none; fill-opacity:0%; fill-rule:evenodd; stroke:#000000; stroke-opacity:100%; stroke-width: 3pt; stroke-linejoin:round; stroke-linecap:round;" d="M32.33 48.83c0.58 0.34 1.57 2.29 1.68 2.74c0.79 3.28 2.1 9.97 3.15 16.59"></path>
<text x="5" y="20" font-size="20" fill="#999999">6</text><path style="fill:none; fill-opacity:0%; fill-rule:evenodd; stroke:#CC0000; stroke-opacity:100%; stroke-width: 3pt; stroke-linejoin:round; stroke-linecap:round;" d="M34 50.17c7.77-0.65 32.2-2.23 37.5-2.33c2.19-0.04 3.71 1.23 3.51 3.17c-0.34 3.33-2.5 8.49-4.17 13.33"  ></path>





</g><g transform="scale(1.3761467889908 1.3761467889908) translate(109, 109)">
<path style="fill:none; fill-rule:evenodd; stroke:#aaaaaa;  stroke-width:1pt; stroke-linecap:round;" d="m 109 0 L 0 0 L 0 109 L 109 109 L 109 0"></path><path style="fill:none; fill-opacity:0%; fill-rule:evenodd; stroke:#aaaaaa; stroke-opacity:100%; stroke-width: 1.5pt; stroke-linejoin:round; stroke-linecap:round;" d="M17.67 23.67c1.29 0.53 5.54 0.8 6.83 0.67C37 23 71.12 20.74 84.83 20.67c2.16-0.01 6.92 0.4 8 0.67"></path>
<path style="fill:none; fill-opacity:0%; fill-rule:evenodd; stroke:#aaaaaa; stroke-opacity:100%; stroke-width: 1.5pt; stroke-linejoin:round; stroke-linecap:round;" d="M36.5 12c2.67 0.83 3.8 2.47 4 3.33c1.86 8.06 2.13 14.4 2.67 17.33"></path>
<path style="fill:none; fill-opacity:0%; fill-rule:evenodd; stroke:#aaaaaa; stroke-opacity:100%; stroke-width: 1.5pt; stroke-linejoin:round; stroke-linecap:round;" d="M66.17 10.5c1.33 1 2.06 2.4 1.77 3.86c-0.86 4.43-1.36 11.65-2.6 17.31"></path>
<path style="fill:none; fill-opacity:0%; fill-rule:evenodd; stroke:#aaaaaa; stroke-opacity:100%; stroke-width: 1.5pt; stroke-linejoin:round; stroke-linecap:round;" d="M25.17 38c1.04 0.49 3.58 1 7.17 0.83C43.1 38.33 61 37 79.17 36c1.72-0.09 5.14-0.08 6 0.17"></path>
<path style="fill:none; fill-opacity:0%; fill-rule:evenodd; stroke:#aaaaaa; stroke-opacity:100%; stroke-width: 1.5pt; stroke-linejoin:round; stroke-linecap:round;" d="M32.33 48.83c0.58 0.34 1.57 2.29 1.68 2.74c0.79 3.28 2.1 9.97 3.15 16.59"></path>
<path style="fill:none; fill-opacity:0%; fill-rule:evenodd; stroke:#aaaaaa; stroke-opacity:100%; stroke-width: 1.5pt; stroke-linejoin:round; stroke-linecap:round;" d="M34 50.17c7.77-0.65 32.2-2.23 37.5-2.33c2.19-0.04 3.71 1.23 3.51 3.17c-0.34 3.33-2.5 8.49-4.17 13.33"></path>
<path style="fill:none; fill-opacity:0%; fill-rule:evenodd; stroke:#aaaaaa; stroke-opacity:100%; stroke-width: 1.5pt; stroke-linejoin:round; stroke-linecap:round;" d="M38 66.17c5.82 0 27.47-1.57 35.5-1.67"></path>
<path style="fill:none; fill-opacity:0%; fill-rule:evenodd; stroke:#aaaaaa; stroke-opacity:100%; stroke-width: 1.5pt; stroke-linejoin:round; stroke-linecap:round;" d="M35 72.8c2.87 2.83 7.42 11.63 8.14 16.03"></path>
<path style="fill:none; fill-opacity:0%; fill-rule:evenodd; stroke:#aaaaaa; stroke-opacity:100%; stroke-width: 1.5pt; stroke-linejoin:round; stroke-linecap:round;" d="M71.11 68.87c0.02 0.51 0.22 1.86-0.05 2.54c-1.81 4.59-3.93 13.26-8.51 19.06"></path>
<path style="fill:none; fill-opacity:0%; fill-rule:evenodd; stroke:#aaaaaa; stroke-opacity:100%; stroke-width: 1.5pt; stroke-linejoin:round; stroke-linecap:round;" d="M19.17 94.33c1.47 0.38 4.22 1.31 5.69 1.2c17.25-1.25 45.31-3.03 62.13-2.63c2.45 0.06 4.79 1.07 6.02 1.26"></path>

<path style="fill:none; fill-opacity:0%; fill-rule:evenodd; stroke:#000000; stroke-opacity:100%; stroke-width: 3pt; stroke-linejoin:round; stroke-linecap:round;" d="M17.67 23.67c1.29 0.53 5.54 0.8 6.83 0.67C37 23 71.12 20.74 84.83 20.67c2.16-0.01 6.92 0.4 8 0.67"></path>
<path style="fill:none; fill-opacity:0%; fill-rule:evenodd; stroke:#000000; stroke-opacity:100%; stroke-width: 3pt; stroke-linejoin:round; stroke-linecap:round;" d="M36.5 12c2.67 0.83 3.8 2.47 4 3.33c1.86 8.06 2.13 14.4 2.67 17.33"></path>
<path style="fill:none; fill-opacity:0%; fill-rule:evenodd; stroke:#000000; stroke-opacity:100%; stroke-width: 3pt; stroke-linejoin:round; stroke-linecap:round;" d="M66.17 10.5c1.33 1 2.06 2.4 1.77 3.86c-0.86 4.43-1.36 11.65-2.6 17.31"></path>
<path style="fill:none; fill-opacity:0%; fill-rule:evenodd; stroke:#000000; stroke-opacity:100%; stroke-width: 3pt; stroke-linejoin:round; stroke-linecap:round;" d="M25.17 38c1.04 0.49 3.58 1 7.17 0.83C43.1 38.33 61 37 79.17 36c1.72-0.09 5.14-0.08 6 0.17"></path>
<path style="fill:none; fill-opacity:0%; fill-rule:evenodd; stroke:#000000; stroke-opacity:100%; stroke-width: 3pt; stroke-linejoin:round; stroke-linecap:round;" d="M32.33 48.83c0.58 0.34 1.57 2.29 1.68 2.74c0.79 3.28 2.1 9.97 3.15 16.59"></path>
<path style="fill:none; fill-opacity:0%; fill-rule:evenodd; stroke:#000000; stroke-opacity:100%; stroke-width: 3pt; stroke-linejoin:round; stroke-linecap:round;" d="M34 50.17c7.77-0.65 32.2-2.23 37.5-2.33c2.19-0.04 3.71 1.23 3.51 3.17c-0.34 3.33-2.5 8.49-4.17 13.33"></path>
<text x="5" y="20" font-size="20" fill="#999999">7</text><path style="fill:none; fill-opacity:0%; fill-rule:evenodd; stroke:#CC0000; stroke-opacity:100%; stroke-width: 3pt; stroke-linejoin:round; stroke-linecap:round;" d="M38 66.17c5.82 0 27.47-1.57 35.5-1.67"  ></path>




</g><g transform="scale(1.3761467889908 1.3761467889908) translate(218, 109)">
<path style="fill:none; fill-rule:evenodd; stroke:#aaaaaa;  stroke-width:1pt; stroke-linecap:round;" d="m 109 0 L 0 0 L 0 109 L 109 109 L 109 0"></path><path style="fill:none; fill-opacity:0%; fill-rule:evenodd; stroke:#aaaaaa; stroke-opacity:100%; stroke-width: 1.5pt; stroke-linejoin:round; stroke-linecap:round;" d="M17.67 23.67c1.29 0.53 5.54 0.8 6.83 0.67C37 23 71.12 20.74 84.83 20.67c2.16-0.01 6.92 0.4 8 0.67"></path>
<path style="fill:none; fill-opacity:0%; fill-rule:evenodd; stroke:#aaaaaa; stroke-opacity:100%; stroke-width: 1.5pt; stroke-linejoin:round; stroke-linecap:round;" d="M36.5 12c2.67 0.83 3.8 2.47 4 3.33c1.86 8.06 2.13 14.4 2.67 17.33"></path>
<path style="fill:none; fill-opacity:0%; fill-rule:evenodd; stroke:#aaaaaa; stroke-opacity:100%; stroke-width: 1.5pt; stroke-linejoin:round; stroke-linecap:round;" d="M66.17 10.5c1.33 1 2.06 2.4 1.77 3.86c-0.86 4.43-1.36 11.65-2.6 17.31"></path>
<path style="fill:none; fill-opacity:0%; fill-rule:evenodd; stroke:#aaaaaa; stroke-opacity:100%; stroke-width: 1.5pt; stroke-linejoin:round; stroke-linecap:round;" d="M25.17 38c1.04 0.49 3.58 1 7.17 0.83C43.1 38.33 61 37 79.17 36c1.72-0.09 5.14-0.08 6 0.17"></path>
<path style="fill:none; fill-opacity:0%; fill-rule:evenodd; stroke:#aaaaaa; stroke-opacity:100%; stroke-width: 1.5pt; stroke-linejoin:round; stroke-linecap:round;" d="M32.33 48.83c0.58 0.34 1.57 2.29 1.68 2.74c0.79 3.28 2.1 9.97 3.15 16.59"></path>
<path style="fill:none; fill-opacity:0%; fill-rule:evenodd; stroke:#aaaaaa; stroke-opacity:100%; stroke-width: 1.5pt; stroke-linejoin:round; stroke-linecap:round;" d="M34 50.17c7.77-0.65 32.2-2.23 37.5-2.33c2.19-0.04 3.71 1.23 3.51 3.17c-0.34 3.33-2.5 8.49-4.17 13.33"></path>
<path style="fill:none; fill-opacity:0%; fill-rule:evenodd; stroke:#aaaaaa; stroke-opacity:100%; stroke-width: 1.5pt; stroke-linejoin:round; stroke-linecap:round;" d="M38 66.17c5.82 0 27.47-1.57 35.5-1.67"></path>
<path style="fill:none; fill-opacity:0%; fill-rule:evenodd; stroke:#aaaaaa; stroke-opacity:100%; stroke-width: 1.5pt; stroke-linejoin:round; stroke-linecap:round;" d="M35 72.8c2.87 2.83 7.42 11.63 8.14 16.03"></path>
<path style="fill:none; fill-opacity:0%; fill-rule:evenodd; stroke:#aaaaaa; stroke-opacity:100%; stroke-width: 1.5pt; stroke-linejoin:round; stroke-linecap:round;" d="M71.11 68.87c0.02 0.51 0.22 1.86-0.05 2.54c-1.81 4.59-3.93 13.26-8.51 19.06"></path>
<path style="fill:none; fill-opacity:0%; fill-rule:evenodd; stroke:#aaaaaa; stroke-opacity:100%; stroke-width: 1.5pt; stroke-linejoin:round; stroke-linecap:round;" d="M19.17 94.33c1.47 0.38 4.22 1.31 5.69 1.2c17.25-1.25 45.31-3.03 62.13-2.63c2.45 0.06 4.79 1.07 6.02 1.26"></path>

<path style="fill:none; fill-opacity:0%; fill-rule:evenodd; stroke:#000000; stroke-opacity:100%; stroke-width: 3pt; stroke-linejoin:round; stroke-linecap:round;" d="M17.67 23.67c1.29 0.53 5.54 0.8 6.83 0.67C37 23 71.12 20.74 84.83 20.67c2.16-0.01 6.92 0.4 8 0.67"></path>
<path style="fill:none; fill-opacity:0%; fill-rule:evenodd; stroke:#000000; stroke-opacity:100%; stroke-width: 3pt; stroke-linejoin:round; stroke-linecap:round;" d="M36.5 12c2.67 0.83 3.8 2.47 4 3.33c1.86 8.06 2.13 14.4 2.67 17.33"></path>
<path style="fill:none; fill-opacity:0%; fill-rule:evenodd; stroke:#000000; stroke-opacity:100%; stroke-width: 3pt; stroke-linejoin:round; stroke-linecap:round;" d="M66.17 10.5c1.33 1 2.06 2.4 1.77 3.86c-0.86 4.43-1.36 11.65-2.6 17.31"></path>
<path style="fill:none; fill-opacity:0%; fill-rule:evenodd; stroke:#000000; stroke-opacity:100%; stroke-width: 3pt; stroke-linejoin:round; stroke-linecap:round;" d="M25.17 38c1.04 0.49 3.58 1 7.17 0.83C43.1 38.33 61 37 79.17 36c1.72-0.09 5.14-0.08 6 0.17"></path>
<path style="fill:none; fill-opacity:0%; fill-rule:evenodd; stroke:#000000; stroke-opacity:100%; stroke-width: 3pt; stroke-linejoin:round; stroke-linecap:round;" d="M32.33 48.83c0.58 0.34 1.57 2.29 1.68 2.74c0.79 3.28 2.1 9.97 3.15 16.59"></path>
<path style="fill:none; fill-opacity:0%; fill-rule:evenodd; stroke:#000000; stroke-opacity:100%; stroke-width: 3pt; stroke-linejoin:round; stroke-linecap:round;" d="M34 50.17c7.77-0.65 32.2-2.23 37.5-2.33c2.19-0.04 3.71 1.23 3.51 3.17c-0.34 3.33-2.5 8.49-4.17 13.33"></path>
<path style="fill:none; fill-opacity:0%; fill-rule:evenodd; stroke:#000000; stroke-opacity:100%; stroke-width: 3pt; stroke-linejoin:round; stroke-linecap:round;" d="M38 66.17c5.82 0 27.47-1.57 35.5-1.67"></path>
<text x="5" y="20" font-size="20" fill="#999999">8</text><path style="fill:none; fill-opacity:0%; fill-rule:evenodd; stroke:#CC0000; stroke-opacity:100%; stroke-width: 3pt; stroke-linejoin:round; stroke-linecap:round;" d="M35 72.8c2.87 2.83 7.42 11.63 8.14 16.03"  ></path>



</g><g transform="scale(1.3761467889908 1.3761467889908) translate(327, 109)">
<path style="fill:none; fill-rule:evenodd; stroke:#aaaaaa;  stroke-width:1pt; stroke-linecap:round;" d="m 109 0 L 0 0 L 0 109 L 109 109 L 109 0"></path><path style="fill:none; fill-opacity:0%; fill-rule:evenodd; stroke:#aaaaaa; stroke-opacity:100%; stroke-width: 1.5pt; stroke-linejoin:round; stroke-linecap:round;" d="M17.67 23.67c1.29 0.53 5.54 0.8 6.83 0.67C37 23 71.12 20.74 84.83 20.67c2.16-0.01 6.92 0.4 8 0.67"></path>
<path style="fill:none; fill-opacity:0%; fill-rule:evenodd; stroke:#aaaaaa; stroke-opacity:100%; stroke-width: 1.5pt; stroke-linejoin:round; stroke-linecap:round;" d="M36.5 12c2.67 0.83 3.8 2.47 4 3.33c1.86 8.06 2.13 14.4 2.67 17.33"></path>
<path style="fill:none; fill-opacity:0%; fill-rule:evenodd; stroke:#aaaaaa; stroke-opacity:100%; stroke-width: 1.5pt; stroke-linejoin:round; stroke-linecap:round;" d="M66.17 10.5c1.33 1 2.06 2.4 1.77 3.86c-0.86 4.43-1.36 11.65-2.6 17.31"></path>
<path style="fill:none; fill-opacity:0%; fill-rule:evenodd; stroke:#aaaaaa; stroke-opacity:100%; stroke-width: 1.5pt; stroke-linejoin:round; stroke-linecap:round;" d="M25.17 38c1.04 0.49 3.58 1 7.17 0.83C43.1 38.33 61 37 79.17 36c1.72-0.09 5.14-0.08 6 0.17"></path>
<path style="fill:none; fill-opacity:0%; fill-rule:evenodd; stroke:#aaaaaa; stroke-opacity:100%; stroke-width: 1.5pt; stroke-linejoin:round; stroke-linecap:round;" d="M32.33 48.83c0.58 0.34 1.57 2.29 1.68 2.74c0.79 3.28 2.1 9.97 3.15 16.59"></path>
<path style="fill:none; fill-opacity:0%; fill-rule:evenodd; stroke:#aaaaaa; stroke-opacity:100%; stroke-width: 1.5pt; stroke-linejoin:round; stroke-linecap:round;" d="M34 50.17c7.77-0.65 32.2-2.23 37.5-2.33c2.19-0.04 3.71 1.23 3.51 3.17c-0.34 3.33-2.5 8.49-4.17 13.33"></path>
<path style="fill:none; fill-opacity:0%; fill-rule:evenodd; stroke:#aaaaaa; stroke-opacity:100%; stroke-width: 1.5pt; stroke-linejoin:round; stroke-linecap:round;" d="M38 66.17c5.82 0 27.47-1.57 35.5-1.67"></path>
<path style="fill:none; fill-opacity:0%; fill-rule:evenodd; stroke:#aaaaaa; stroke-opacity:100%; stroke-width: 1.5pt; stroke-linejoin:round; stroke-linecap:round;" d="M35 72.8c2.87 2.83 7.42 11.63 8.14 16.03"></path>
<path style="fill:none; fill-opacity:0%; fill-rule:evenodd; stroke:#aaaaaa; stroke-opacity:100%; stroke-width: 1.5pt; stroke-linejoin:round; stroke-linecap:round;" d="M71.11 68.87c0.02 0.51 0.22 1.86-0.05 2.54c-1.81 4.59-3.93 13.26-8.51 19.06"></path>
<path style="fill:none; fill-opacity:0%; fill-rule:evenodd; stroke:#aaaaaa; stroke-opacity:100%; stroke-width: 1.5pt; stroke-linejoin:round; stroke-linecap:round;" d="M19.17 94.33c1.47 0.38 4.22 1.31 5.69 1.2c17.25-1.25 45.31-3.03 62.13-2.63c2.45 0.06 4.79 1.07 6.02 1.26"></path>

<path style="fill:none; fill-opacity:0%; fill-rule:evenodd; stroke:#000000; stroke-opacity:100%; stroke-width: 3pt; stroke-linejoin:round; stroke-linecap:round;" d="M17.67 23.67c1.29 0.53 5.54 0.8 6.83 0.67C37 23 71.12 20.74 84.83 20.67c2.16-0.01 6.92 0.4 8 0.67"></path>
<path style="fill:none; fill-opacity:0%; fill-rule:evenodd; stroke:#000000; stroke-opacity:100%; stroke-width: 3pt; stroke-linejoin:round; stroke-linecap:round;" d="M36.5 12c2.67 0.83 3.8 2.47 4 3.33c1.86 8.06 2.13 14.4 2.67 17.33"></path>
<path style="fill:none; fill-opacity:0%; fill-rule:evenodd; stroke:#000000; stroke-opacity:100%; stroke-width: 3pt; stroke-linejoin:round; stroke-linecap:round;" d="M66.17 10.5c1.33 1 2.06 2.4 1.77 3.86c-0.86 4.43-1.36 11.65-2.6 17.31"></path>
<path style="fill:none; fill-opacity:0%; fill-rule:evenodd; stroke:#000000; stroke-opacity:100%; stroke-width: 3pt; stroke-linejoin:round; stroke-linecap:round;" d="M25.17 38c1.04 0.49 3.58 1 7.17 0.83C43.1 38.33 61 37 79.17 36c1.72-0.09 5.14-0.08 6 0.17"></path>
<path style="fill:none; fill-opacity:0%; fill-rule:evenodd; stroke:#000000; stroke-opacity:100%; stroke-width: 3pt; stroke-linejoin:round; stroke-linecap:round;" d="M32.33 48.83c0.58 0.34 1.57 2.29 1.68 2.74c0.79 3.28 2.1 9.97 3.15 16.59"></path>
<path style="fill:none; fill-opacity:0%; fill-rule:evenodd; stroke:#000000; stroke-opacity:100%; stroke-width: 3pt; stroke-linejoin:round; stroke-linecap:round;" d="M34 50.17c7.77-0.65 32.2-2.23 37.5-2.33c2.19-0.04 3.71 1.23 3.51 3.17c-0.34 3.33-2.5 8.49-4.17 13.33"></path>
<path style="fill:none; fill-opacity:0%; fill-rule:evenodd; stroke:#000000; stroke-opacity:100%; stroke-width: 3pt; stroke-linejoin:round; stroke-linecap:round;" d="M38 66.17c5.82 0 27.47-1.57 35.5-1.67"></path>
<path style="fill:none; fill-opacity:0%; fill-rule:evenodd; stroke:#000000; stroke-opacity:100%; stroke-width: 3pt; stroke-linejoin:round; stroke-linecap:round;" d="M35 72.8c2.87 2.83 7.42 11.63 8.14 16.03"></path>
<text x="5" y="20" font-size="20" fill="#999999">9</text><path style="fill:none; fill-opacity:0%; fill-rule:evenodd; stroke:#CC0000; stroke-opacity:100%; stroke-width: 3pt; stroke-linejoin:round; stroke-linecap:round;" d="M71.11 68.87c0.02 0.51 0.22 1.86-0.05 2.54c-1.81 4.59-3.93 13.26-8.51 19.06"  ></path>


</g><g transform="scale(1.3761467889908 1.3761467889908) translate(436, 109)">
<path style="fill:none; fill-rule:evenodd; stroke:#aaaaaa;  stroke-width:1pt; stroke-linecap:round;" d="m 109 0 L 0 0 L 0 109 L 109 109 L 109 0"></path><path style="fill:none; fill-opacity:0%; fill-rule:evenodd; stroke:#aaaaaa; stroke-opacity:100%; stroke-width: 1.5pt; stroke-linejoin:round; stroke-linecap:round;" d="M17.67 23.67c1.29 0.53 5.54 0.8 6.83 0.67C37 23 71.12 20.74 84.83 20.67c2.16-0.01 6.92 0.4 8 0.67"></path>
<path style="fill:none; fill-opacity:0%; fill-rule:evenodd; stroke:#aaaaaa; stroke-opacity:100%; stroke-width: 1.5pt; stroke-linejoin:round; stroke-linecap:round;" d="M36.5 12c2.67 0.83 3.8 2.47 4 3.33c1.86 8.06 2.13 14.4 2.67 17.33"></path>
<path style="fill:none; fill-opacity:0%; fill-rule:evenodd; stroke:#aaaaaa; stroke-opacity:100%; stroke-width: 1.5pt; stroke-linejoin:round; stroke-linecap:round;" d="M66.17 10.5c1.33 1 2.06 2.4 1.77 3.86c-0.86 4.43-1.36 11.65-2.6 17.31"></path>
<path style="fill:none; fill-opacity:0%; fill-rule:evenodd; stroke:#aaaaaa; stroke-opacity:100%; stroke-width: 1.5pt; stroke-linejoin:round; stroke-linecap:round;" d="M25.17 38c1.04 0.49 3.58 1 7.17 0.83C43.1 38.33 61 37 79.17 36c1.72-0.09 5.14-0.08 6 0.17"></path>
<path style="fill:none; fill-opacity:0%; fill-rule:evenodd; stroke:#aaaaaa; stroke-opacity:100%; stroke-width: 1.5pt; stroke-linejoin:round; stroke-linecap:round;" d="M32.33 48.83c0.58 0.34 1.57 2.29 1.68 2.74c0.79 3.28 2.1 9.97 3.15 16.59"></path>
<path style="fill:none; fill-opacity:0%; fill-rule:evenodd; stroke:#aaaaaa; stroke-opacity:100%; stroke-width: 1.5pt; stroke-linejoin:round; stroke-linecap:round;" d="M34 50.17c7.77-0.65 32.2-2.23 37.5-2.33c2.19-0.04 3.71 1.23 3.51 3.17c-0.34 3.33-2.5 8.49-4.17 13.33"></path>
<path style="fill:none; fill-opacity:0%; fill-rule:evenodd; stroke:#aaaaaa; stroke-opacity:100%; stroke-width: 1.5pt; stroke-linejoin:round; stroke-linecap:round;" d="M38 66.17c5.82 0 27.47-1.57 35.5-1.67"></path>
<path style="fill:none; fill-opacity:0%; fill-rule:evenodd; stroke:#aaaaaa; stroke-opacity:100%; stroke-width: 1.5pt; stroke-linejoin:round; stroke-linecap:round;" d="M35 72.8c2.87 2.83 7.42 11.63 8.14 16.03"></path>
<path style="fill:none; fill-opacity:0%; fill-rule:evenodd; stroke:#aaaaaa; stroke-opacity:100%; stroke-width: 1.5pt; stroke-linejoin:round; stroke-linecap:round;" d="M71.11 68.87c0.02 0.51 0.22 1.86-0.05 2.54c-1.81 4.59-3.93 13.26-8.51 19.06"></path>
<path style="fill:none; fill-opacity:0%; fill-rule:evenodd; stroke:#aaaaaa; stroke-opacity:100%; stroke-width: 1.5pt; stroke-linejoin:round; stroke-linecap:round;" d="M19.17 94.33c1.47 0.38 4.22 1.31 5.69 1.2c17.25-1.25 45.31-3.03 62.13-2.63c2.45 0.06 4.79 1.07 6.02 1.26"></path>

<path style="fill:none; fill-opacity:0%; fill-rule:evenodd; stroke:#000000; stroke-opacity:100%; stroke-width: 3pt; stroke-linejoin:round; stroke-linecap:round;" d="M17.67 23.67c1.29 0.53 5.54 0.8 6.83 0.67C37 23 71.12 20.74 84.83 20.67c2.16-0.01 6.92 0.4 8 0.67"></path>
<path style="fill:none; fill-opacity:0%; fill-rule:evenodd; stroke:#000000; stroke-opacity:100%; stroke-width: 3pt; stroke-linejoin:round; stroke-linecap:round;" d="M36.5 12c2.67 0.83 3.8 2.47 4 3.33c1.86 8.06 2.13 14.4 2.67 17.33"></path>
<path style="fill:none; fill-opacity:0%; fill-rule:evenodd; stroke:#000000; stroke-opacity:100%; stroke-width: 3pt; stroke-linejoin:round; stroke-linecap:round;" d="M66.17 10.5c1.33 1 2.06 2.4 1.77 3.86c-0.86 4.43-1.36 11.65-2.6 17.31"></path>
<path style="fill:none; fill-opacity:0%; fill-rule:evenodd; stroke:#000000; stroke-opacity:100%; stroke-width: 3pt; stroke-linejoin:round; stroke-linecap:round;" d="M25.17 38c1.04 0.49 3.58 1 7.17 0.83C43.1 38.33 61 37 79.17 36c1.72-0.09 5.14-0.08 6 0.17"></path>
<path style="fill:none; fill-opacity:0%; fill-rule:evenodd; stroke:#000000; stroke-opacity:100%; stroke-width: 3pt; stroke-linejoin:round; stroke-linecap:round;" d="M32.33 48.83c0.58 0.34 1.57 2.29 1.68 2.74c0.79 3.28 2.1 9.97 3.15 16.59"></path>
<path style="fill:none; fill-opacity:0%; fill-rule:evenodd; stroke:#000000; stroke-opacity:100%; stroke-width: 3pt; stroke-linejoin:round; stroke-linecap:round;" d="M34 50.17c7.77-0.65 32.2-2.23 37.5-2.33c2.19-0.04 3.71 1.23 3.51 3.17c-0.34 3.33-2.5 8.49-4.17 13.33"></path>
<path style="fill:none; fill-opacity:0%; fill-rule:evenodd; stroke:#000000; stroke-opacity:100%; stroke-width: 3pt; stroke-linejoin:round; stroke-linecap:round;" d="M38 66.17c5.82 0 27.47-1.57 35.5-1.67"></path>
<path style="fill:none; fill-opacity:0%; fill-rule:evenodd; stroke:#000000; stroke-opacity:100%; stroke-width: 3pt; stroke-linejoin:round; stroke-linecap:round;" d="M35 72.8c2.87 2.83 7.42 11.63 8.14 16.03"></path>
<path style="fill:none; fill-opacity:0%; fill-rule:evenodd; stroke:#000000; stroke-opacity:100%; stroke-width: 3pt; stroke-linejoin:round; stroke-linecap:round;" d="M71.11 68.87c0.02 0.51 0.22 1.86-0.05 2.54c-1.81 4.59-3.93 13.26-8.51 19.06"></path>
<text x="5" y="20" font-size="20" fill="#999999">10</text><path style="fill:none; fill-opacity:0%; fill-rule:evenodd; stroke:#CC0000; stroke-opacity:100%; stroke-width: 3pt; stroke-linejoin:round; stroke-linecap:round;" d="M19.17 94.33c1.47 0.38 4.22 1.31 5.69 1.2c17.25-1.25 45.31-3.03 62.13-2.63c2.45 0.06 4.79 1.07 6.02 1.26"  ></path>

</g>

</svg>  
          
