<?xml version="1.0" standalone="no"?>
<!DOCTYPE svg PUBLIC "-//W3C//DTD SVG 1.1//EN"   "http://www.w3.org/Graphics/SVG/1.1/DTD/svg11.dtd">
<svg width="751" height="301"  version="1.1" xmlns="http://www.w3.org/2000/svg">
  <defs>
    <marker id="Triangle" viewBox="0 0 10 10" refX="0" refY="5" markerUnits="strokeWidth" markerWidth="3" style="stroke-opacity:0%;fill:#aaaaaa;" markerHeight="2" orient="auto">
      <path d="M 0 0 L 10 5 L 0 10 z" />
    </marker>
    
    <marker id="Arrow" viewBox="0 0 10 10" refX="5" refY="5" markerUnits="strokeWidth" markerWidth="1.8" style="stroke-opacity:0%;fill:#770000;" markerHeight="2" orient="auto">
      <path d="M 0 4 L 6 4 L 4 1 L 10 5 L 4 9 L 6 6 L 0 6 z" />
        <circle cx="5" cy="5" r="5" />
      </marker>
    
    <marker id="TriangleRed" viewBox="0 0 10 10" refX="0" refY="5" markerUnits="strokeWidth" markerWidth="3" style="stroke-opacity:0%;fill:#CC0000;" markerHeight="2" orient="auto">
      <path d="M 0 0 L 10 5 L 0 10 z" />
    </marker>
    
    <marker id="ArrowRed" viewBox="0 0 10 10" refX="5" refY="5" markerUnits="strokeWidth" markerWidth="1.8" style="stroke-opacity:0%;fill:#CC0000;" markerHeight="2" orient="auto">
      <path d="M 0 4 L 6 4 L 4 1 L 10 5 L 4 9 L 6 6 L 0 6 z" />
        <circle cx="5" cy="5" r="5" />
      </marker>
    
  </defs>
  
  <path style="fill:#ffffff; fill-opacity:100%; fill-rule:evenodd; stroke-width:0;" d="M 0 0 L 751 0 L 751 301 L 0 301 L 0 0" />

  <g transform="scale(1.3761467889908 1.3761467889908) translate(0, 0)">
<path style="fill:none; fill-rule:evenodd; stroke:#aaaaaa;  stroke-width:1pt; stroke-linecap:round;" d="m 109 0 L 0 0 L 0 109 L 109 109 L 109 0"></path><path style="fill:none; fill-opacity:0%; fill-rule:evenodd; stroke:#aaaaaa; stroke-opacity:100%; stroke-width: 1.5pt; stroke-linejoin:round; stroke-linecap:round;" d="M33.82 13.08c0.03 0.49 0.15 1.32-0.07 1.97c-1.6 4.67-6.17 13.23-12.51 18.85"></path>
<path style="fill:none; fill-opacity:0%; fill-rule:evenodd; stroke:#aaaaaa; stroke-opacity:100%; stroke-width: 1.5pt; stroke-linejoin:round; stroke-linecap:round;" d="M15.25 33.45c0.51 0.55 0.84 1.8 0.92 2.51c0.62 5.6 2.87 38.77 3.29 48.83"></path>
<path style="fill:none; fill-opacity:0%; fill-rule:evenodd; stroke:#aaaaaa; stroke-opacity:100%; stroke-width: 1.5pt; stroke-linejoin:round; stroke-linecap:round;" d="M16.73 36.47c6.56-1.16 24.66-3.15 27.06-3.19c1.71-0.03 2.46 0.97 2.26 2.54c-0.4 3.19-1.63 35.46-2.39 39.84"></path>
<path style="fill:none; fill-opacity:0%; fill-rule:evenodd; stroke:#aaaaaa; stroke-opacity:100%; stroke-width: 1.5pt; stroke-linejoin:round; stroke-linecap:round;" d="M26.47 36.9c0.15 0.53 0.69 1.47 0.71 2.14c0.32 10.62 0.32 32.95 0 43.27"></path>
<path style="fill:none; fill-opacity:0%; fill-rule:evenodd; stroke:#aaaaaa; stroke-opacity:100%; stroke-width: 1.5pt; stroke-linejoin:round; stroke-linecap:round;" d="M34.98 35.88c0.01 0.46 0.69 2.09 0.69 2.87c0.01 8.8 0.16 29.19 0.04 39.67"></path>
<path style="fill:none; fill-opacity:0%; fill-rule:evenodd; stroke:#aaaaaa; stroke-opacity:100%; stroke-width: 1.5pt; stroke-linejoin:round; stroke-linecap:round;" d="M11.13 86.09c0.7 1.53 2.48 1.28 3.18 1.03c9.69-3.37 22.94-8.87 34.52-13.13"></path>
<path style="fill:none; fill-opacity:0%; fill-rule:evenodd; stroke:#aaaaaa; stroke-opacity:100%; stroke-width: 1.5pt; stroke-linejoin:round; stroke-linecap:round;" d="M54.53 21.29c1.41 0.65 2.95 0.94 4.61 0.79c11.2-1.06 19.51-2.51 29.62-3.34c2.87-0.23 3.81 2.98 3.07 5.86c-2.57 9.94-7.27 49.45-9.43 66.45"></path>
<path style="fill:none; fill-opacity:0%; fill-rule:evenodd; stroke:#aaaaaa; stroke-opacity:100%; stroke-width: 1.5pt; stroke-linejoin:round; stroke-linecap:round;" d="M69.41 24.24c0.88 0.58 1.15 2.75 1.08 3.95c-0.7 12.51-7.73 54.41-9.66 64.6"></path>
<path style="fill:none; fill-opacity:0%; fill-rule:evenodd; stroke:#aaaaaa; stroke-opacity:100%; stroke-width: 1.5pt; stroke-linejoin:round; stroke-linecap:round;" d="M51.43 55.12c1.31 0.59 3.73 0.7 5.04 0.59C67.75 54.75 82 53 93.71 52.19c2.19-0.15 3.51 0.28 4.6 0.58"></path>
<path style="fill:none; fill-opacity:0%; fill-rule:evenodd; stroke:#aaaaaa; stroke-opacity:100%; stroke-width: 1.5pt; stroke-linejoin:round; stroke-linecap:round;" d="M42.75 92.72c1.47 0.66 4.15 1.31 5.62 1.2c15.88-1.17 27.2-3.09 45.49-3.38c2.44-0.04 3.91 0.31 5.13 0.64"></path>

<text x="5" y="20" font-size="20" fill="#999999">1</text><path style="fill:none; fill-opacity:0%; fill-rule:evenodd; stroke:#CC0000; stroke-opacity:100%; stroke-width: 3pt; stroke-linejoin:round; stroke-linecap:round;" d="M33.82 13.08c0.03 0.49 0.15 1.32-0.07 1.97c-1.6 4.67-6.17 13.23-12.51 18.85" marker-end="url(#TriangleRed)" marker-start="url(#ArrowRed)" ></path>










</g><g transform="scale(1.3761467889908 1.3761467889908) translate(109, 0)">
<path style="fill:none; fill-rule:evenodd; stroke:#aaaaaa;  stroke-width:1pt; stroke-linecap:round;" d="m 109 0 L 0 0 L 0 109 L 109 109 L 109 0"></path><path style="fill:none; fill-opacity:0%; fill-rule:evenodd; stroke:#aaaaaa; stroke-opacity:100%; stroke-width: 1.5pt; stroke-linejoin:round; stroke-linecap:round;" d="M33.82 13.08c0.03 0.49 0.15 1.32-0.07 1.97c-1.6 4.67-6.17 13.23-12.51 18.85"></path>
<path style="fill:none; fill-opacity:0%; fill-rule:evenodd; stroke:#aaaaaa; stroke-opacity:100%; stroke-width: 1.5pt; stroke-linejoin:round; stroke-linecap:round;" d="M15.25 33.45c0.51 0.55 0.84 1.8 0.92 2.51c0.62 5.6 2.87 38.77 3.29 48.83"></path>
<path style="fill:none; fill-opacity:0%; fill-rule:evenodd; stroke:#aaaaaa; stroke-opacity:100%; stroke-width: 1.5pt; stroke-linejoin:round; stroke-linecap:round;" d="M16.73 36.47c6.56-1.16 24.66-3.15 27.06-3.19c1.71-0.03 2.46 0.97 2.26 2.54c-0.4 3.19-1.63 35.46-2.39 39.84"></path>
<path style="fill:none; fill-opacity:0%; fill-rule:evenodd; stroke:#aaaaaa; stroke-opacity:100%; stroke-width: 1.5pt; stroke-linejoin:round; stroke-linecap:round;" d="M26.47 36.9c0.15 0.53 0.69 1.47 0.71 2.14c0.32 10.62 0.32 32.95 0 43.27"></path>
<path style="fill:none; fill-opacity:0%; fill-rule:evenodd; stroke:#aaaaaa; stroke-opacity:100%; stroke-width: 1.5pt; stroke-linejoin:round; stroke-linecap:round;" d="M34.98 35.88c0.01 0.46 0.69 2.09 0.69 2.87c0.01 8.8 0.16 29.19 0.04 39.67"></path>
<path style="fill:none; fill-opacity:0%; fill-rule:evenodd; stroke:#aaaaaa; stroke-opacity:100%; stroke-width: 1.5pt; stroke-linejoin:round; stroke-linecap:round;" d="M11.13 86.09c0.7 1.53 2.48 1.28 3.18 1.03c9.69-3.37 22.94-8.87 34.52-13.13"></path>
<path style="fill:none; fill-opacity:0%; fill-rule:evenodd; stroke:#aaaaaa; stroke-opacity:100%; stroke-width: 1.5pt; stroke-linejoin:round; stroke-linecap:round;" d="M54.53 21.29c1.41 0.65 2.95 0.94 4.61 0.79c11.2-1.06 19.51-2.51 29.62-3.34c2.87-0.23 3.81 2.98 3.07 5.86c-2.57 9.94-7.27 49.45-9.43 66.45"></path>
<path style="fill:none; fill-opacity:0%; fill-rule:evenodd; stroke:#aaaaaa; stroke-opacity:100%; stroke-width: 1.5pt; stroke-linejoin:round; stroke-linecap:round;" d="M69.41 24.24c0.88 0.58 1.15 2.75 1.08 3.95c-0.7 12.51-7.73 54.41-9.66 64.6"></path>
<path style="fill:none; fill-opacity:0%; fill-rule:evenodd; stroke:#aaaaaa; stroke-opacity:100%; stroke-width: 1.5pt; stroke-linejoin:round; stroke-linecap:round;" d="M51.43 55.12c1.31 0.59 3.73 0.7 5.04 0.59C67.75 54.75 82 53 93.71 52.19c2.19-0.15 3.51 0.28 4.6 0.58"></path>
<path style="fill:none; fill-opacity:0%; fill-rule:evenodd; stroke:#aaaaaa; stroke-opacity:100%; stroke-width: 1.5pt; stroke-linejoin:round; stroke-linecap:round;" d="M42.75 92.72c1.47 0.66 4.15 1.31 5.62 1.2c15.88-1.17 27.2-3.09 45.49-3.38c2.44-0.04 3.91 0.31 5.13 0.64"></path>

<path style="fill:none; fill-opacity:0%; fill-rule:evenodd; stroke:#000000; stroke-opacity:100%; stroke-width: 3pt; stroke-linejoin:round; stroke-linecap:round;" d="M33.82 13.08c0.03 0.49 0.15 1.32-0.07 1.97c-1.6 4.67-6.17 13.23-12.51 18.85"></path>
<text x="5" y="20" font-size="20" fill="#999999">2</text><path style="fill:none; fill-opacity:0%; fill-rule:evenodd; stroke:#CC0000; stroke-opacity:100%; stroke-width: 3pt; stroke-linejoin:round; stroke-linecap:round;" d="M15.25 33.45c0.51 0.55 0.84 1.8 0.92 2.51c0.62 5.6 2.87 38.77 3.29 48.83" marker-end="url(#TriangleRed)" marker-start="url(#ArrowRed)" ></path>









</g><g transform="scale(1.3761467889908 1.3761467889908) translate(218, 0)">
<path style="fill:none; fill-rule:evenodd; stroke:#aaaaaa;  stroke-width:1pt; stroke-linecap:round;" d="m 109 0 L 0 0 L 0 109 L 109 109 L 109 0"></path><path style="fill:none; fill-opacity:0%; fill-rule:evenodd; stroke:#aaaaaa; stroke-opacity:100%; stroke-width: 1.5pt; stroke-linejoin:round; stroke-linecap:round;" d="M33.82 13.08c0.03 0.49 0.15 1.32-0.07 1.97c-1.6 4.67-6.17 13.23-12.51 18.85"></path>
<path style="fill:none; fill-opacity:0%; fill-rule:evenodd; stroke:#aaaaaa; stroke-opacity:100%; stroke-width: 1.5pt; stroke-linejoin:round; stroke-linecap:round;" d="M15.25 33.45c0.51 0.55 0.84 1.8 0.92 2.51c0.62 5.6 2.87 38.77 3.29 48.83"></path>
<path style="fill:none; fill-opacity:0%; fill-rule:evenodd; stroke:#aaaaaa; stroke-opacity:100%; stroke-width: 1.5pt; stroke-linejoin:round; stroke-linecap:round;" d="M16.73 36.47c6.56-1.16 24.66-3.15 27.06-3.19c1.71-0.03 2.46 0.97 2.26 2.54c-0.4 3.19-1.63 35.46-2.39 39.84"></path>
<path style="fill:none; fill-opacity:0%; fill-rule:evenodd; stroke:#aaaaaa; stroke-opacity:100%; stroke-width: 1.5pt; stroke-linejoin:round; stroke-linecap:round;" d="M26.47 36.9c0.15 0.53 0.69 1.47 0.71 2.14c0.32 10.62 0.32 32.95 0 43.27"></path>
<path style="fill:none; fill-opacity:0%; fill-rule:evenodd; stroke:#aaaaaa; stroke-opacity:100%; stroke-width: 1.5pt; stroke-linejoin:round; stroke-linecap:round;" d="M34.98 35.88c0.01 0.46 0.69 2.09 0.69 2.87c0.01 8.8 0.16 29.19 0.04 39.67"></path>
<path style="fill:none; fill-opacity:0%; fill-rule:evenodd; stroke:#aaaaaa; stroke-opacity:100%; stroke-width: 1.5pt; stroke-linejoin:round; stroke-linecap:round;" d="M11.13 86.09c0.7 1.53 2.48 1.28 3.18 1.03c9.69-3.37 22.94-8.87 34.52-13.13"></path>
<path style="fill:none; fill-opacity:0%; fill-rule:evenodd; stroke:#aaaaaa; stroke-opacity:100%; stroke-width: 1.5pt; stroke-linejoin:round; stroke-linecap:round;" d="M54.53 21.29c1.41 0.65 2.95 0.94 4.61 0.79c11.2-1.06 19.51-2.51 29.62-3.34c2.87-0.23 3.81 2.98 3.07 5.86c-2.57 9.94-7.27 49.45-9.43 66.45"></path>
<path style="fill:none; fill-opacity:0%; fill-rule:evenodd; stroke:#aaaaaa; stroke-opacity:100%; stroke-width: 1.5pt; stroke-linejoin:round; stroke-linecap:round;" d="M69.41 24.24c0.88 0.58 1.15 2.75 1.08 3.95c-0.7 12.51-7.73 54.41-9.66 64.6"></path>
<path style="fill:none; fill-opacity:0%; fill-rule:evenodd; stroke:#aaaaaa; stroke-opacity:100%; stroke-width: 1.5pt; stroke-linejoin:round; stroke-linecap:round;" d="M51.43 55.12c1.31 0.59 3.73 0.7 5.04 0.59C67.75 54.75 82 53 93.71 52.19c2.19-0.15 3.51 0.28 4.6 0.58"></path>
<path style="fill:none; fill-opacity:0%; fill-rule:evenodd; stroke:#aaaaaa; stroke-opacity:100%; stroke-width: 1.5pt; stroke-linejoin:round; stroke-linecap:round;" d="M42.75 92.72c1.47 0.66 4.15 1.31 5.62 1.2c15.88-1.17 27.2-3.09 45.49-3.38c2.44-0.04 3.91 0.31 5.13 0.64"></path>

<path style="fill:none; fill-opacity:0%; fill-rule:evenodd; stroke:#000000; stroke-opacity:100%; stroke-width: 3pt; stroke-linejoin:round; stroke-linecap:round;" d="M33.82 13.08c0.03 0.49 0.15 1.32-0.07 1.97c-1.6 4.67-6.17 13.23-12.51 18.85"></path>
<path style="fill:none; fill-opacity:0%; fill-rule:evenodd; stroke:#000000; stroke-opacity:100%; stroke-width: 3pt; stroke-linejoin:round; stroke-linecap:round;" d="M15.25 33.45c0.51 0.55 0.84 1.8 0.92 2.51c0.62 5.6 2.87 38.77 3.29 48.83"></path>
<text x="5" y="20" font-size="20" fill="#999999">3</text><path style="fill:none; fill-opacity:0%; fill-rule:evenodd; stroke:#CC0000; stroke-opacity:100%; stroke-width: 3pt; stroke-linejoin:round; stroke-linecap:round;" d="M16.73 36.47c6.56-1.16 24.66-3.15 27.06-3.19c1.71-0.03 2.46 0.97 2.26 2.54c-0.4 3.19-1.63 35.46-2.39 39.84" marker-end="url(#TriangleRed)" marker-start="url(#ArrowRed)" ></path>








</g><g transform="scale(1.3761467889908 1.3761467889908) translate(327, 0)">
<path style="fill:none; fill-rule:evenodd; stroke:#aaaaaa;  stroke-width:1pt; stroke-linecap:round;" d="m 109 0 L 0 0 L 0 109 L 109 109 L 109 0"></path><path style="fill:none; fill-opacity:0%; fill-rule:evenodd; stroke:#aaaaaa; stroke-opacity:100%; stroke-width: 1.5pt; stroke-linejoin:round; stroke-linecap:round;" d="M33.82 13.08c0.03 0.49 0.15 1.32-0.07 1.97c-1.6 4.67-6.17 13.23-12.51 18.85"></path>
<path style="fill:none; fill-opacity:0%; fill-rule:evenodd; stroke:#aaaaaa; stroke-opacity:100%; stroke-width: 1.5pt; stroke-linejoin:round; stroke-linecap:round;" d="M15.25 33.45c0.51 0.55 0.84 1.8 0.92 2.51c0.62 5.6 2.87 38.77 3.29 48.83"></path>
<path style="fill:none; fill-opacity:0%; fill-rule:evenodd; stroke:#aaaaaa; stroke-opacity:100%; stroke-width: 1.5pt; stroke-linejoin:round; stroke-linecap:round;" d="M16.73 36.47c6.56-1.16 24.66-3.15 27.06-3.19c1.71-0.03 2.46 0.97 2.26 2.54c-0.4 3.19-1.63 35.46-2.39 39.84"></path>
<path style="fill:none; fill-opacity:0%; fill-rule:evenodd; stroke:#aaaaaa; stroke-opacity:100%; stroke-width: 1.5pt; stroke-linejoin:round; stroke-linecap:round;" d="M26.47 36.9c0.15 0.53 0.69 1.47 0.71 2.14c0.32 10.62 0.32 32.95 0 43.27"></path>
<path style="fill:none; fill-opacity:0%; fill-rule:evenodd; stroke:#aaaaaa; stroke-opacity:100%; stroke-width: 1.5pt; stroke-linejoin:round; stroke-linecap:round;" d="M34.98 35.88c0.01 0.46 0.69 2.09 0.69 2.87c0.01 8.8 0.16 29.19 0.04 39.67"></path>
<path style="fill:none; fill-opacity:0%; fill-rule:evenodd; stroke:#aaaaaa; stroke-opacity:100%; stroke-width: 1.5pt; stroke-linejoin:round; stroke-linecap:round;" d="M11.13 86.09c0.7 1.53 2.48 1.28 3.18 1.03c9.69-3.37 22.94-8.87 34.52-13.13"></path>
<path style="fill:none; fill-opacity:0%; fill-rule:evenodd; stroke:#aaaaaa; stroke-opacity:100%; stroke-width: 1.5pt; stroke-linejoin:round; stroke-linecap:round;" d="M54.53 21.29c1.41 0.65 2.95 0.94 4.61 0.79c11.2-1.06 19.51-2.51 29.62-3.34c2.87-0.23 3.81 2.98 3.07 5.86c-2.57 9.94-7.27 49.45-9.43 66.45"></path>
<path style="fill:none; fill-opacity:0%; fill-rule:evenodd; stroke:#aaaaaa; stroke-opacity:100%; stroke-width: 1.5pt; stroke-linejoin:round; stroke-linecap:round;" d="M69.41 24.24c0.88 0.58 1.15 2.75 1.08 3.95c-0.7 12.51-7.73 54.41-9.66 64.6"></path>
<path style="fill:none; fill-opacity:0%; fill-rule:evenodd; stroke:#aaaaaa; stroke-opacity:100%; stroke-width: 1.5pt; stroke-linejoin:round; stroke-linecap:round;" d="M51.43 55.12c1.31 0.59 3.73 0.7 5.04 0.59C67.75 54.75 82 53 93.71 52.19c2.19-0.15 3.51 0.28 4.6 0.58"></path>
<path style="fill:none; fill-opacity:0%; fill-rule:evenodd; stroke:#aaaaaa; stroke-opacity:100%; stroke-width: 1.5pt; stroke-linejoin:round; stroke-linecap:round;" d="M42.75 92.72c1.47 0.66 4.15 1.31 5.62 1.2c15.88-1.17 27.2-3.09 45.49-3.38c2.44-0.04 3.91 0.31 5.13 0.64"></path>

<path style="fill:none; fill-opacity:0%; fill-rule:evenodd; stroke:#000000; stroke-opacity:100%; stroke-width: 3pt; stroke-linejoin:round; stroke-linecap:round;" d="M33.82 13.08c0.03 0.49 0.15 1.32-0.07 1.97c-1.6 4.67-6.17 13.23-12.51 18.85"></path>
<path style="fill:none; fill-opacity:0%; fill-rule:evenodd; stroke:#000000; stroke-opacity:100%; stroke-width: 3pt; stroke-linejoin:round; stroke-linecap:round;" d="M15.25 33.45c0.51 0.55 0.84 1.8 0.92 2.51c0.62 5.6 2.87 38.77 3.29 48.83"></path>
<path style="fill:none; fill-opacity:0%; fill-rule:evenodd; stroke:#000000; stroke-opacity:100%; stroke-width: 3pt; stroke-linejoin:round; stroke-linecap:round;" d="M16.73 36.47c6.56-1.16 24.66-3.15 27.06-3.19c1.71-0.03 2.46 0.97 2.26 2.54c-0.4 3.19-1.63 35.46-2.39 39.84"></path>
<text x="5" y="20" font-size="20" fill="#999999">4</text><path style="fill:none; fill-opacity:0%; fill-rule:evenodd; stroke:#CC0000; stroke-opacity:100%; stroke-width: 3pt; stroke-linejoin:round; stroke-linecap:round;" d="M26.47 36.9c0.15 0.53 0.69 1.47 0.71 2.14c0.32 10.62 0.32 32.95 0 43.27" marker-end="url(#TriangleRed)" marker-start="url(#ArrowRed)" ></path>







</g><g transform="scale(1.3761467889908 1.3761467889908) translate(436, 0)">
<path style="fill:none; fill-rule:evenodd; stroke:#aaaaaa;  stroke-width:1pt; stroke-linecap:round;" d="m 109 0 L 0 0 L 0 109 L 109 109 L 109 0"></path><path style="fill:none; fill-opacity:0%; fill-rule:evenodd; stroke:#aaaaaa; stroke-opacity:100%; stroke-width: 1.5pt; stroke-linejoin:round; stroke-linecap:round;" d="M33.82 13.08c0.03 0.49 0.15 1.32-0.07 1.97c-1.6 4.67-6.17 13.23-12.51 18.85"></path>
<path style="fill:none; fill-opacity:0%; fill-rule:evenodd; stroke:#aaaaaa; stroke-opacity:100%; stroke-width: 1.5pt; stroke-linejoin:round; stroke-linecap:round;" d="M15.25 33.45c0.51 0.55 0.84 1.8 0.92 2.51c0.62 5.6 2.87 38.77 3.29 48.83"></path>
<path style="fill:none; fill-opacity:0%; fill-rule:evenodd; stroke:#aaaaaa; stroke-opacity:100%; stroke-width: 1.5pt; stroke-linejoin:round; stroke-linecap:round;" d="M16.73 36.47c6.56-1.16 24.66-3.15 27.06-3.19c1.71-0.03 2.46 0.97 2.26 2.54c-0.4 3.19-1.63 35.46-2.39 39.84"></path>
<path style="fill:none; fill-opacity:0%; fill-rule:evenodd; stroke:#aaaaaa; stroke-opacity:100%; stroke-width: 1.5pt; stroke-linejoin:round; stroke-linecap:round;" d="M26.47 36.9c0.15 0.53 0.69 1.47 0.71 2.14c0.32 10.62 0.32 32.95 0 43.27"></path>
<path style="fill:none; fill-opacity:0%; fill-rule:evenodd; stroke:#aaaaaa; stroke-opacity:100%; stroke-width: 1.5pt; stroke-linejoin:round; stroke-linecap:round;" d="M34.98 35.88c0.01 0.46 0.69 2.09 0.69 2.87c0.01 8.8 0.16 29.19 0.04 39.67"></path>
<path style="fill:none; fill-opacity:0%; fill-rule:evenodd; stroke:#aaaaaa; stroke-opacity:100%; stroke-width: 1.5pt; stroke-linejoin:round; stroke-linecap:round;" d="M11.13 86.09c0.7 1.53 2.48 1.28 3.18 1.03c9.69-3.37 22.94-8.87 34.52-13.13"></path>
<path style="fill:none; fill-opacity:0%; fill-rule:evenodd; stroke:#aaaaaa; stroke-opacity:100%; stroke-width: 1.5pt; stroke-linejoin:round; stroke-linecap:round;" d="M54.53 21.29c1.41 0.65 2.95 0.94 4.61 0.79c11.2-1.06 19.51-2.51 29.62-3.34c2.87-0.23 3.81 2.98 3.07 5.86c-2.57 9.94-7.27 49.45-9.43 66.45"></path>
<path style="fill:none; fill-opacity:0%; fill-rule:evenodd; stroke:#aaaaaa; stroke-opacity:100%; stroke-width: 1.5pt; stroke-linejoin:round; stroke-linecap:round;" d="M69.41 24.24c0.88 0.58 1.15 2.75 1.08 3.95c-0.7 12.51-7.73 54.41-9.66 64.6"></path>
<path style="fill:none; fill-opacity:0%; fill-rule:evenodd; stroke:#aaaaaa; stroke-opacity:100%; stroke-width: 1.5pt; stroke-linejoin:round; stroke-linecap:round;" d="M51.43 55.12c1.31 0.59 3.73 0.7 5.04 0.59C67.75 54.75 82 53 93.71 52.19c2.19-0.15 3.51 0.28 4.6 0.58"></path>
<path style="fill:none; fill-opacity:0%; fill-rule:evenodd; stroke:#aaaaaa; stroke-opacity:100%; stroke-width: 1.5pt; stroke-linejoin:round; stroke-linecap:round;" d="M42.75 92.72c1.47 0.66 4.15 1.31 5.62 1.2c15.88-1.17 27.2-3.09 45.49-3.38c2.44-0.04 3.91 0.31 5.13 0.64"></path>

<path style="fill:none; fill-opacity:0%; fill-rule:evenodd; stroke:#000000; stroke-opacity:100%; stroke-width: 3pt; stroke-linejoin:round; stroke-linecap:round;" d="M33.82 13.08c0.03 0.49 0.15 1.32-0.07 1.97c-1.6 4.67-6.17 13.23-12.51 18.85"></path>
<path style="fill:none; fill-opacity:0%; fill-rule:evenodd; stroke:#000000; stroke-opacity:100%; stroke-width: 3pt; stroke-linejoin:round; stroke-linecap:round;" d="M15.25 33.45c0.51 0.55 0.84 1.8 0.92 2.51c0.62 5.6 2.87 38.77 3.29 48.83"></path>
<path style="fill:none; fill-opacity:0%; fill-rule:evenodd; stroke:#000000; stroke-opacity:100%; stroke-width: 3pt; stroke-linejoin:round; stroke-linecap:round;" d="M16.73 36.47c6.56-1.16 24.66-3.15 27.06-3.19c1.71-0.03 2.46 0.97 2.26 2.54c-0.4 3.19-1.63 35.46-2.39 39.84"></path>
<path style="fill:none; fill-opacity:0%; fill-rule:evenodd; stroke:#000000; stroke-opacity:100%; stroke-width: 3pt; stroke-linejoin:round; stroke-linecap:round;" d="M26.47 36.9c0.15 0.53 0.69 1.47 0.71 2.14c0.32 10.62 0.32 32.95 0 43.27"></path>
<text x="5" y="20" font-size="20" fill="#999999">5</text><path style="fill:none; fill-opacity:0%; fill-rule:evenodd; stroke:#CC0000; stroke-opacity:100%; stroke-width: 3pt; stroke-linejoin:round; stroke-linecap:round;" d="M34.98 35.88c0.01 0.46 0.69 2.09 0.69 2.87c0.01 8.8 0.16 29.19 0.04 39.67" marker-end="url(#TriangleRed)" marker-start="url(#ArrowRed)" ></path>






</g><g transform="scale(1.3761467889908 1.3761467889908) translate(0, 109)">
<path style="fill:none; fill-rule:evenodd; stroke:#aaaaaa;  stroke-width:1pt; stroke-linecap:round;" d="m 109 0 L 0 0 L 0 109 L 109 109 L 109 0"></path><path style="fill:none; fill-opacity:0%; fill-rule:evenodd; stroke:#aaaaaa; stroke-opacity:100%; stroke-width: 1.5pt; stroke-linejoin:round; stroke-linecap:round;" d="M33.82 13.08c0.03 0.49 0.15 1.32-0.07 1.97c-1.6 4.67-6.17 13.23-12.51 18.85"></path>
<path style="fill:none; fill-opacity:0%; fill-rule:evenodd; stroke:#aaaaaa; stroke-opacity:100%; stroke-width: 1.5pt; stroke-linejoin:round; stroke-linecap:round;" d="M15.25 33.45c0.51 0.55 0.84 1.8 0.92 2.51c0.62 5.6 2.87 38.77 3.29 48.83"></path>
<path style="fill:none; fill-opacity:0%; fill-rule:evenodd; stroke:#aaaaaa; stroke-opacity:100%; stroke-width: 1.5pt; stroke-linejoin:round; stroke-linecap:round;" d="M16.73 36.47c6.56-1.16 24.66-3.15 27.06-3.19c1.71-0.03 2.46 0.97 2.26 2.54c-0.4 3.19-1.63 35.46-2.39 39.84"></path>
<path style="fill:none; fill-opacity:0%; fill-rule:evenodd; stroke:#aaaaaa; stroke-opacity:100%; stroke-width: 1.5pt; stroke-linejoin:round; stroke-linecap:round;" d="M26.47 36.9c0.15 0.53 0.69 1.47 0.71 2.14c0.32 10.62 0.32 32.95 0 43.27"></path>
<path style="fill:none; fill-opacity:0%; fill-rule:evenodd; stroke:#aaaaaa; stroke-opacity:100%; stroke-width: 1.5pt; stroke-linejoin:round; stroke-linecap:round;" d="M34.98 35.88c0.01 0.46 0.69 2.09 0.69 2.87c0.01 8.8 0.16 29.19 0.04 39.67"></path>
<path style="fill:none; fill-opacity:0%; fill-rule:evenodd; stroke:#aaaaaa; stroke-opacity:100%; stroke-width: 1.5pt; stroke-linejoin:round; stroke-linecap:round;" d="M11.13 86.09c0.7 1.53 2.48 1.28 3.18 1.03c9.69-3.37 22.94-8.87 34.52-13.13"></path>
<path style="fill:none; fill-opacity:0%; fill-rule:evenodd; stroke:#aaaaaa; stroke-opacity:100%; stroke-width: 1.5pt; stroke-linejoin:round; stroke-linecap:round;" d="M54.53 21.29c1.41 0.65 2.95 0.94 4.61 0.79c11.2-1.06 19.51-2.51 29.62-3.34c2.87-0.23 3.81 2.98 3.07 5.86c-2.57 9.94-7.27 49.45-9.43 66.45"></path>
<path style="fill:none; fill-opacity:0%; fill-rule:evenodd; stroke:#aaaaaa; stroke-opacity:100%; stroke-width: 1.5pt; stroke-linejoin:round; stroke-linecap:round;" d="M69.41 24.24c0.88 0.58 1.15 2.75 1.08 3.95c-0.7 12.51-7.73 54.41-9.66 64.6"></path>
<path style="fill:none; fill-opacity:0%; fill-rule:evenodd; stroke:#aaaaaa; stroke-opacity:100%; stroke-width: 1.5pt; stroke-linejoin:round; stroke-linecap:round;" d="M51.43 55.12c1.31 0.59 3.73 0.7 5.04 0.59C67.75 54.75 82 53 93.71 52.19c2.19-0.15 3.51 0.28 4.6 0.58"></path>
<path style="fill:none; fill-opacity:0%; fill-rule:evenodd; stroke:#aaaaaa; stroke-opacity:100%; stroke-width: 1.5pt; stroke-linejoin:round; stroke-linecap:round;" d="M42.75 92.72c1.47 0.66 4.15 1.31 5.62 1.2c15.88-1.17 27.2-3.09 45.49-3.38c2.44-0.04 3.91 0.31 5.13 0.64"></path>

<path style="fill:none; fill-opacity:0%; fill-rule:evenodd; stroke:#000000; stroke-opacity:100%; stroke-width: 3pt; stroke-linejoin:round; stroke-linecap:round;" d="M33.82 13.08c0.03 0.49 0.15 1.32-0.07 1.97c-1.6 4.67-6.17 13.23-12.51 18.85"></path>
<path style="fill:none; fill-opacity:0%; fill-rule:evenodd; stroke:#000000; stroke-opacity:100%; stroke-width: 3pt; stroke-linejoin:round; stroke-linecap:round;" d="M15.25 33.45c0.51 0.55 0.84 1.8 0.92 2.51c0.62 5.6 2.87 38.77 3.29 48.83"></path>
<path style="fill:none; fill-opacity:0%; fill-rule:evenodd; stroke:#000000; stroke-opacity:100%; stroke-width: 3pt; stroke-linejoin:round; stroke-linecap:round;" d="M16.73 36.47c6.56-1.16 24.66-3.15 27.06-3.19c1.71-0.03 2.46 0.97 2.26 2.54c-0.4 3.19-1.63 35.46-2.39 39.84"></path>
<path style="fill:none; fill-opacity:0%; fill-rule:evenodd; stroke:#000000; stroke-opacity:100%; stroke-width: 3pt; stroke-linejoin:round; stroke-linecap:round;" d="M26.47 36.9c0.15 0.53 0.69 1.47 0.71 2.14c0.32 10.62 0.32 32.95 0 43.27"></path>
<path style="fill:none; fill-opacity:0%; fill-rule:evenodd; stroke:#000000; stroke-opacity:100%; stroke-width: 3pt; stroke-linejoin:round; stroke-linecap:round;" d="M34.98 35.88c0.01 0.46 0.69 2.09 0.69 2.87c0.01 8.8 0.16 29.19 0.04 39.67"></path>
<text x="5" y="20" font-size="20" fill="#999999">6</text><path style="fill:none; fill-opacity:0%; fill-rule:evenodd; stroke:#CC0000; stroke-opacity:100%; stroke-width: 3pt; stroke-linejoin:round; stroke-linecap:round;" d="M11.13 86.09c0.7 1.53 2.48 1.28 3.18 1.03c9.69-3.37 22.94-8.87 34.52-13.13" marker-end="url(#TriangleRed)" marker-start="url(#ArrowRed)" ></path>





</g><g transform="scale(1.3761467889908 1.3761467889908) translate(109, 109)">
<path style="fill:none; fill-rule:evenodd; stroke:#aaaaaa;  stroke-width:1pt; stroke-linecap:round;" d="m 109 0 L 0 0 L 0 109 L 109 109 L 109 0"></path><path style="fill:none; fill-opacity:0%; fill-rule:evenodd; stroke:#aaaaaa; stroke-opacity:100%; stroke-width: 1.5pt; stroke-linejoin:round; stroke-linecap:round;" d="M33.82 13.08c0.03 0.49 0.15 1.32-0.07 1.97c-1.6 4.67-6.17 13.23-12.51 18.85"></path>
<path style="fill:none; fill-opacity:0%; fill-rule:evenodd; stroke:#aaaaaa; stroke-opacity:100%; stroke-width: 1.5pt; stroke-linejoin:round; stroke-linecap:round;" d="M15.25 33.45c0.51 0.55 0.84 1.8 0.92 2.51c0.62 5.6 2.87 38.77 3.29 48.83"></path>
<path style="fill:none; fill-opacity:0%; fill-rule:evenodd; stroke:#aaaaaa; stroke-opacity:100%; stroke-width: 1.5pt; stroke-linejoin:round; stroke-linecap:round;" d="M16.73 36.47c6.56-1.16 24.66-3.15 27.06-3.19c1.71-0.03 2.46 0.97 2.26 2.54c-0.4 3.19-1.63 35.46-2.39 39.84"></path>
<path style="fill:none; fill-opacity:0%; fill-rule:evenodd; stroke:#aaaaaa; stroke-opacity:100%; stroke-width: 1.5pt; stroke-linejoin:round; stroke-linecap:round;" d="M26.47 36.9c0.15 0.53 0.69 1.47 0.71 2.14c0.32 10.62 0.32 32.95 0 43.27"></path>
<path style="fill:none; fill-opacity:0%; fill-rule:evenodd; stroke:#aaaaaa; stroke-opacity:100%; stroke-width: 1.5pt; stroke-linejoin:round; stroke-linecap:round;" d="M34.98 35.88c0.01 0.46 0.69 2.09 0.69 2.87c0.01 8.8 0.16 29.19 0.04 39.67"></path>
<path style="fill:none; fill-opacity:0%; fill-rule:evenodd; stroke:#aaaaaa; stroke-opacity:100%; stroke-width: 1.5pt; stroke-linejoin:round; stroke-linecap:round;" d="M11.13 86.09c0.7 1.53 2.48 1.28 3.18 1.03c9.69-3.37 22.94-8.87 34.52-13.13"></path>
<path style="fill:none; fill-opacity:0%; fill-rule:evenodd; stroke:#aaaaaa; stroke-opacity:100%; stroke-width: 1.5pt; stroke-linejoin:round; stroke-linecap:round;" d="M54.53 21.29c1.41 0.65 2.95 0.94 4.61 0.79c11.2-1.06 19.51-2.51 29.62-3.34c2.87-0.23 3.81 2.98 3.07 5.86c-2.57 9.94-7.27 49.45-9.43 66.45"></path>
<path style="fill:none; fill-opacity:0%; fill-rule:evenodd; stroke:#aaaaaa; stroke-opacity:100%; stroke-width: 1.5pt; stroke-linejoin:round; stroke-linecap:round;" d="M69.41 24.24c0.88 0.58 1.15 2.75 1.08 3.95c-0.7 12.51-7.73 54.41-9.66 64.6"></path>
<path style="fill:none; fill-opacity:0%; fill-rule:evenodd; stroke:#aaaaaa; stroke-opacity:100%; stroke-width: 1.5pt; stroke-linejoin:round; stroke-linecap:round;" d="M51.43 55.12c1.31 0.59 3.73 0.7 5.04 0.59C67.75 54.75 82 53 93.71 52.19c2.19-0.15 3.51 0.28 4.6 0.58"></path>
<path style="fill:none; fill-opacity:0%; fill-rule:evenodd; stroke:#aaaaaa; stroke-opacity:100%; stroke-width: 1.5pt; stroke-linejoin:round; stroke-linecap:round;" d="M42.75 92.72c1.47 0.66 4.15 1.31 5.62 1.2c15.88-1.17 27.2-3.09 45.49-3.38c2.44-0.04 3.91 0.31 5.13 0.64"></path>

<path style="fill:none; fill-opacity:0%; fill-rule:evenodd; stroke:#000000; stroke-opacity:100%; stroke-width: 3pt; stroke-linejoin:round; stroke-linecap:round;" d="M33.82 13.08c0.03 0.49 0.15 1.32-0.07 1.97c-1.6 4.67-6.17 13.23-12.51 18.85"></path>
<path style="fill:none; fill-opacity:0%; fill-rule:evenodd; stroke:#000000; stroke-opacity:100%; stroke-width: 3pt; stroke-linejoin:round; stroke-linecap:round;" d="M15.25 33.45c0.51 0.55 0.84 1.8 0.92 2.51c0.62 5.6 2.87 38.77 3.29 48.83"></path>
<path style="fill:none; fill-opacity:0%; fill-rule:evenodd; stroke:#000000; stroke-opacity:100%; stroke-width: 3pt; stroke-linejoin:round; stroke-linecap:round;" d="M16.73 36.47c6.56-1.16 24.66-3.15 27.06-3.19c1.71-0.03 2.46 0.97 2.26 2.54c-0.4 3.19-1.63 35.46-2.39 39.84"></path>
<path style="fill:none; fill-opacity:0%; fill-rule:evenodd; stroke:#000000; stroke-opacity:100%; stroke-width: 3pt; stroke-linejoin:round; stroke-linecap:round;" d="M26.47 36.9c0.15 0.53 0.69 1.47 0.71 2.14c0.32 10.62 0.32 32.95 0 43.27"></path>
<path style="fill:none; fill-opacity:0%; fill-rule:evenodd; stroke:#000000; stroke-opacity:100%; stroke-width: 3pt; stroke-linejoin:round; stroke-linecap:round;" d="M34.98 35.88c0.01 0.46 0.69 2.09 0.69 2.87c0.01 8.8 0.16 29.19 0.04 39.67"></path>
<path style="fill:none; fill-opacity:0%; fill-rule:evenodd; stroke:#000000; stroke-opacity:100%; stroke-width: 3pt; stroke-linejoin:round; stroke-linecap:round;" d="M11.13 86.09c0.7 1.53 2.48 1.28 3.18 1.03c9.69-3.37 22.94-8.87 34.52-13.13"></path>
<text x="5" y="20" font-size="20" fill="#999999">7</text><path style="fill:none; fill-opacity:0%; fill-rule:evenodd; stroke:#CC0000; stroke-opacity:100%; stroke-width: 3pt; stroke-linejoin:round; stroke-linecap:round;" d="M54.53 21.29c1.41 0.65 2.95 0.94 4.61 0.79c11.2-1.06 19.51-2.51 29.62-3.34c2.87-0.23 3.81 2.98 3.07 5.86c-2.57 9.94-7.27 49.45-9.43 66.45" marker-end="url(#TriangleRed)" marker-start="url(#ArrowRed)" ></path>




</g><g transform="scale(1.3761467889908 1.3761467889908) translate(218, 109)">
<path style="fill:none; fill-rule:evenodd; stroke:#aaaaaa;  stroke-width:1pt; stroke-linecap:round;" d="m 109 0 L 0 0 L 0 109 L 109 109 L 109 0"></path><path style="fill:none; fill-opacity:0%; fill-rule:evenodd; stroke:#aaaaaa; stroke-opacity:100%; stroke-width: 1.5pt; stroke-linejoin:round; stroke-linecap:round;" d="M33.82 13.08c0.03 0.49 0.15 1.32-0.07 1.97c-1.6 4.67-6.17 13.23-12.51 18.85"></path>
<path style="fill:none; fill-opacity:0%; fill-rule:evenodd; stroke:#aaaaaa; stroke-opacity:100%; stroke-width: 1.5pt; stroke-linejoin:round; stroke-linecap:round;" d="M15.25 33.45c0.51 0.55 0.84 1.8 0.92 2.51c0.62 5.6 2.87 38.77 3.29 48.83"></path>
<path style="fill:none; fill-opacity:0%; fill-rule:evenodd; stroke:#aaaaaa; stroke-opacity:100%; stroke-width: 1.5pt; stroke-linejoin:round; stroke-linecap:round;" d="M16.73 36.47c6.56-1.16 24.66-3.15 27.06-3.19c1.71-0.03 2.46 0.97 2.26 2.54c-0.4 3.19-1.63 35.46-2.39 39.84"></path>
<path style="fill:none; fill-opacity:0%; fill-rule:evenodd; stroke:#aaaaaa; stroke-opacity:100%; stroke-width: 1.5pt; stroke-linejoin:round; stroke-linecap:round;" d="M26.47 36.9c0.15 0.53 0.69 1.47 0.71 2.14c0.32 10.62 0.32 32.95 0 43.27"></path>
<path style="fill:none; fill-opacity:0%; fill-rule:evenodd; stroke:#aaaaaa; stroke-opacity:100%; stroke-width: 1.5pt; stroke-linejoin:round; stroke-linecap:round;" d="M34.98 35.88c0.01 0.46 0.69 2.09 0.69 2.87c0.01 8.8 0.16 29.19 0.04 39.67"></path>
<path style="fill:none; fill-opacity:0%; fill-rule:evenodd; stroke:#aaaaaa; stroke-opacity:100%; stroke-width: 1.5pt; stroke-linejoin:round; stroke-linecap:round;" d="M11.13 86.09c0.7 1.53 2.48 1.28 3.18 1.03c9.69-3.37 22.94-8.87 34.52-13.13"></path>
<path style="fill:none; fill-opacity:0%; fill-rule:evenodd; stroke:#aaaaaa; stroke-opacity:100%; stroke-width: 1.5pt; stroke-linejoin:round; stroke-linecap:round;" d="M54.53 21.29c1.41 0.65 2.95 0.94 4.61 0.79c11.2-1.06 19.51-2.51 29.62-3.34c2.87-0.23 3.81 2.98 3.07 5.86c-2.57 9.94-7.27 49.45-9.43 66.45"></path>
<path style="fill:none; fill-opacity:0%; fill-rule:evenodd; stroke:#aaaaaa; stroke-opacity:100%; stroke-width: 1.5pt; stroke-linejoin:round; stroke-linecap:round;" d="M69.41 24.24c0.88 0.58 1.15 2.75 1.08 3.95c-0.7 12.51-7.73 54.41-9.66 64.6"></path>
<path style="fill:none; fill-opacity:0%; fill-rule:evenodd; stroke:#aaaaaa; stroke-opacity:100%; stroke-width: 1.5pt; stroke-linejoin:round; stroke-linecap:round;" d="M51.43 55.12c1.31 0.59 3.73 0.7 5.04 0.59C67.75 54.75 82 53 93.71 52.19c2.19-0.15 3.51 0.28 4.6 0.58"></path>
<path style="fill:none; fill-opacity:0%; fill-rule:evenodd; stroke:#aaaaaa; stroke-opacity:100%; stroke-width: 1.5pt; stroke-linejoin:round; stroke-linecap:round;" d="M42.75 92.72c1.47 0.66 4.15 1.31 5.62 1.2c15.88-1.17 27.2-3.09 45.49-3.38c2.44-0.04 3.91 0.31 5.13 0.64"></path>

<path style="fill:none; fill-opacity:0%; fill-rule:evenodd; stroke:#000000; stroke-opacity:100%; stroke-width: 3pt; stroke-linejoin:round; stroke-linecap:round;" d="M33.82 13.08c0.03 0.49 0.15 1.32-0.07 1.97c-1.6 4.67-6.17 13.23-12.51 18.85"></path>
<path style="fill:none; fill-opacity:0%; fill-rule:evenodd; stroke:#000000; stroke-opacity:100%; stroke-width: 3pt; stroke-linejoin:round; stroke-linecap:round;" d="M15.25 33.45c0.51 0.55 0.84 1.8 0.92 2.51c0.62 5.6 2.87 38.77 3.29 48.83"></path>
<path style="fill:none; fill-opacity:0%; fill-rule:evenodd; stroke:#000000; stroke-opacity:100%; stroke-width: 3pt; stroke-linejoin:round; stroke-linecap:round;" d="M16.73 36.47c6.56-1.16 24.66-3.15 27.06-3.19c1.71-0.03 2.46 0.97 2.26 2.54c-0.4 3.19-1.63 35.46-2.39 39.84"></path>
<path style="fill:none; fill-opacity:0%; fill-rule:evenodd; stroke:#000000; stroke-opacity:100%; stroke-width: 3pt; stroke-linejoin:round; stroke-linecap:round;" d="M26.47 36.9c0.15 0.53 0.69 1.47 0.71 2.14c0.32 10.62 0.32 32.95 0 43.27"></path>
<path style="fill:none; fill-opacity:0%; fill-rule:evenodd; stroke:#000000; stroke-opacity:100%; stroke-width: 3pt; stroke-linejoin:round; stroke-linecap:round;" d="M34.98 35.88c0.01 0.46 0.69 2.09 0.69 2.87c0.01 8.8 0.16 29.19 0.04 39.67"></path>
<path style="fill:none; fill-opacity:0%; fill-rule:evenodd; stroke:#000000; stroke-opacity:100%; stroke-width: 3pt; stroke-linejoin:round; stroke-linecap:round;" d="M11.13 86.09c0.7 1.53 2.48 1.28 3.18 1.03c9.69-3.37 22.94-8.87 34.52-13.13"></path>
<path style="fill:none; fill-opacity:0%; fill-rule:evenodd; stroke:#000000; stroke-opacity:100%; stroke-width: 3pt; stroke-linejoin:round; stroke-linecap:round;" d="M54.53 21.29c1.41 0.65 2.95 0.94 4.61 0.79c11.2-1.06 19.51-2.51 29.62-3.34c2.87-0.23 3.81 2.98 3.07 5.86c-2.57 9.94-7.27 49.45-9.43 66.45"></path>
<text x="5" y="20" font-size="20" fill="#999999">8</text><path style="fill:none; fill-opacity:0%; fill-rule:evenodd; stroke:#CC0000; stroke-opacity:100%; stroke-width: 3pt; stroke-linejoin:round; stroke-linecap:round;" d="M69.41 24.24c0.88 0.58 1.15 2.75 1.08 3.95c-0.7 12.51-7.73 54.41-9.66 64.6" marker-end="url(#TriangleRed)" marker-start="url(#ArrowRed)" ></path>



</g><g transform="scale(1.3761467889908 1.3761467889908) translate(327, 109)">
<path style="fill:none; fill-rule:evenodd; stroke:#aaaaaa;  stroke-width:1pt; stroke-linecap:round;" d="m 109 0 L 0 0 L 0 109 L 109 109 L 109 0"></path><path style="fill:none; fill-opacity:0%; fill-rule:evenodd; stroke:#aaaaaa; stroke-opacity:100%; stroke-width: 1.5pt; stroke-linejoin:round; stroke-linecap:round;" d="M33.82 13.08c0.03 0.49 0.15 1.32-0.07 1.97c-1.6 4.67-6.17 13.23-12.51 18.85"></path>
<path style="fill:none; fill-opacity:0%; fill-rule:evenodd; stroke:#aaaaaa; stroke-opacity:100%; stroke-width: 1.5pt; stroke-linejoin:round; stroke-linecap:round;" d="M15.25 33.45c0.51 0.55 0.84 1.8 0.92 2.51c0.62 5.6 2.87 38.77 3.29 48.83"></path>
<path style="fill:none; fill-opacity:0%; fill-rule:evenodd; stroke:#aaaaaa; stroke-opacity:100%; stroke-width: 1.5pt; stroke-linejoin:round; stroke-linecap:round;" d="M16.73 36.47c6.56-1.16 24.66-3.15 27.06-3.19c1.71-0.03 2.46 0.97 2.26 2.54c-0.4 3.19-1.63 35.46-2.39 39.84"></path>
<path style="fill:none; fill-opacity:0%; fill-rule:evenodd; stroke:#aaaaaa; stroke-opacity:100%; stroke-width: 1.5pt; stroke-linejoin:round; stroke-linecap:round;" d="M26.47 36.9c0.15 0.53 0.69 1.47 0.71 2.14c0.32 10.62 0.32 32.95 0 43.27"></path>
<path style="fill:none; fill-opacity:0%; fill-rule:evenodd; stroke:#aaaaaa; stroke-opacity:100%; stroke-width: 1.5pt; stroke-linejoin:round; stroke-linecap:round;" d="M34.98 35.88c0.01 0.46 0.69 2.09 0.69 2.87c0.01 8.8 0.16 29.19 0.04 39.67"></path>
<path style="fill:none; fill-opacity:0%; fill-rule:evenodd; stroke:#aaaaaa; stroke-opacity:100%; stroke-width: 1.5pt; stroke-linejoin:round; stroke-linecap:round;" d="M11.13 86.09c0.7 1.53 2.48 1.28 3.18 1.03c9.69-3.37 22.94-8.87 34.52-13.13"></path>
<path style="fill:none; fill-opacity:0%; fill-rule:evenodd; stroke:#aaaaaa; stroke-opacity:100%; stroke-width: 1.5pt; stroke-linejoin:round; stroke-linecap:round;" d="M54.53 21.29c1.41 0.65 2.95 0.94 4.61 0.79c11.2-1.06 19.51-2.51 29.62-3.34c2.87-0.23 3.81 2.98 3.07 5.86c-2.57 9.94-7.27 49.45-9.43 66.45"></path>
<path style="fill:none; fill-opacity:0%; fill-rule:evenodd; stroke:#aaaaaa; stroke-opacity:100%; stroke-width: 1.5pt; stroke-linejoin:round; stroke-linecap:round;" d="M69.41 24.24c0.88 0.58 1.15 2.75 1.08 3.95c-0.7 12.51-7.73 54.41-9.66 64.6"></path>
<path style="fill:none; fill-opacity:0%; fill-rule:evenodd; stroke:#aaaaaa; stroke-opacity:100%; stroke-width: 1.5pt; stroke-linejoin:round; stroke-linecap:round;" d="M51.43 55.12c1.31 0.59 3.73 0.7 5.04 0.59C67.75 54.75 82 53 93.71 52.19c2.19-0.15 3.51 0.28 4.6 0.58"></path>
<path style="fill:none; fill-opacity:0%; fill-rule:evenodd; stroke:#aaaaaa; stroke-opacity:100%; stroke-width: 1.5pt; stroke-linejoin:round; stroke-linecap:round;" d="M42.75 92.72c1.47 0.66 4.15 1.31 5.62 1.2c15.88-1.17 27.2-3.09 45.49-3.38c2.44-0.04 3.91 0.31 5.13 0.64"></path>

<path style="fill:none; fill-opacity:0%; fill-rule:evenodd; stroke:#000000; stroke-opacity:100%; stroke-width: 3pt; stroke-linejoin:round; stroke-linecap:round;" d="M33.82 13.08c0.03 0.49 0.15 1.32-0.07 1.97c-1.6 4.67-6.17 13.23-12.51 18.85"></path>
<path style="fill:none; fill-opacity:0%; fill-rule:evenodd; stroke:#000000; stroke-opacity:100%; stroke-width: 3pt; stroke-linejoin:round; stroke-linecap:round;" d="M15.25 33.45c0.51 0.55 0.84 1.8 0.92 2.51c0.62 5.6 2.87 38.77 3.29 48.83"></path>
<path style="fill:none; fill-opacity:0%; fill-rule:evenodd; stroke:#000000; stroke-opacity:100%; stroke-width: 3pt; stroke-linejoin:round; stroke-linecap:round;" d="M16.73 36.47c6.56-1.16 24.66-3.15 27.06-3.19c1.71-0.03 2.46 0.97 2.26 2.54c-0.4 3.19-1.63 35.46-2.39 39.84"></path>
<path style="fill:none; fill-opacity:0%; fill-rule:evenodd; stroke:#000000; stroke-opacity:100%; stroke-width: 3pt; stroke-linejoin:round; stroke-linecap:round;" d="M26.47 36.9c0.15 0.53 0.69 1.47 0.71 2.14c0.32 10.62 0.32 32.95 0 43.27"></path>
<path style="fill:none; fill-opacity:0%; fill-rule:evenodd; stroke:#000000; stroke-opacity:100%; stroke-width: 3pt; stroke-linejoin:round; stroke-linecap:round;" d="M34.98 35.88c0.01 0.46 0.69 2.09 0.69 2.87c0.01 8.8 0.16 29.19 0.04 39.67"></path>
<path style="fill:none; fill-opacity:0%; fill-rule:evenodd; stroke:#000000; stroke-opacity:100%; stroke-width: 3pt; stroke-linejoin:round; stroke-linecap:round;" d="M11.13 86.09c0.7 1.53 2.48 1.28 3.18 1.03c9.69-3.37 22.94-8.87 34.52-13.13"></path>
<path style="fill:none; fill-opacity:0%; fill-rule:evenodd; stroke:#000000; stroke-opacity:100%; stroke-width: 3pt; stroke-linejoin:round; stroke-linecap:round;" d="M54.53 21.29c1.41 0.65 2.95 0.94 4.61 0.79c11.2-1.06 19.51-2.51 29.62-3.34c2.87-0.23 3.81 2.98 3.07 5.86c-2.57 9.94-7.27 49.45-9.43 66.45"></path>
<path style="fill:none; fill-opacity:0%; fill-rule:evenodd; stroke:#000000; stroke-opacity:100%; stroke-width: 3pt; stroke-linejoin:round; stroke-linecap:round;" d="M69.41 24.24c0.88 0.58 1.15 2.75 1.08 3.95c-0.7 12.51-7.73 54.41-9.66 64.6"></path>
<text x="5" y="20" font-size="20" fill="#999999">9</text><path style="fill:none; fill-opacity:0%; fill-rule:evenodd; stroke:#CC0000; stroke-opacity:100%; stroke-width: 3pt; stroke-linejoin:round; stroke-linecap:round;" d="M51.43 55.12c1.31 0.59 3.73 0.7 5.04 0.59C67.75 54.75 82 53 93.71 52.19c2.19-0.15 3.51 0.28 4.6 0.58" marker-end="url(#TriangleRed)" marker-start="url(#ArrowRed)" ></path>


</g><g transform="scale(1.3761467889908 1.3761467889908) translate(436, 109)">
<path style="fill:none; fill-rule:evenodd; stroke:#aaaaaa;  stroke-width:1pt; stroke-linecap:round;" d="m 109 0 L 0 0 L 0 109 L 109 109 L 109 0"></path><path style="fill:none; fill-opacity:0%; fill-rule:evenodd; stroke:#aaaaaa; stroke-opacity:100%; stroke-width: 1.5pt; stroke-linejoin:round; stroke-linecap:round;" d="M33.82 13.08c0.03 0.49 0.15 1.32-0.07 1.97c-1.6 4.67-6.17 13.23-12.51 18.85"></path>
<path style="fill:none; fill-opacity:0%; fill-rule:evenodd; stroke:#aaaaaa; stroke-opacity:100%; stroke-width: 1.5pt; stroke-linejoin:round; stroke-linecap:round;" d="M15.25 33.45c0.51 0.55 0.84 1.8 0.92 2.51c0.62 5.6 2.87 38.77 3.29 48.83"></path>
<path style="fill:none; fill-opacity:0%; fill-rule:evenodd; stroke:#aaaaaa; stroke-opacity:100%; stroke-width: 1.5pt; stroke-linejoin:round; stroke-linecap:round;" d="M16.73 36.47c6.56-1.16 24.66-3.15 27.06-3.19c1.71-0.03 2.46 0.97 2.26 2.54c-0.4 3.19-1.63 35.46-2.39 39.84"></path>
<path style="fill:none; fill-opacity:0%; fill-rule:evenodd; stroke:#aaaaaa; stroke-opacity:100%; stroke-width: 1.5pt; stroke-linejoin:round; stroke-linecap:round;" d="M26.47 36.9c0.15 0.53 0.69 1.47 0.71 2.14c0.32 10.62 0.32 32.95 0 43.27"></path>
<path style="fill:none; fill-opacity:0%; fill-rule:evenodd; stroke:#aaaaaa; stroke-opacity:100%; stroke-width: 1.5pt; stroke-linejoin:round; stroke-linecap:round;" d="M34.98 35.88c0.01 0.46 0.69 2.09 0.69 2.87c0.01 8.8 0.16 29.19 0.04 39.67"></path>
<path style="fill:none; fill-opacity:0%; fill-rule:evenodd; stroke:#aaaaaa; stroke-opacity:100%; stroke-width: 1.5pt; stroke-linejoin:round; stroke-linecap:round;" d="M11.13 86.09c0.7 1.53 2.48 1.28 3.18 1.03c9.69-3.37 22.94-8.87 34.52-13.13"></path>
<path style="fill:none; fill-opacity:0%; fill-rule:evenodd; stroke:#aaaaaa; stroke-opacity:100%; stroke-width: 1.5pt; stroke-linejoin:round; stroke-linecap:round;" d="M54.53 21.29c1.41 0.65 2.95 0.94 4.61 0.79c11.2-1.06 19.51-2.51 29.62-3.34c2.87-0.23 3.81 2.98 3.07 5.86c-2.57 9.94-7.27 49.45-9.43 66.45"></path>
<path style="fill:none; fill-opacity:0%; fill-rule:evenodd; stroke:#aaaaaa; stroke-opacity:100%; stroke-width: 1.5pt; stroke-linejoin:round; stroke-linecap:round;" d="M69.41 24.24c0.88 0.58 1.15 2.75 1.08 3.95c-0.7 12.51-7.73 54.41-9.66 64.6"></path>
<path style="fill:none; fill-opacity:0%; fill-rule:evenodd; stroke:#aaaaaa; stroke-opacity:100%; stroke-width: 1.5pt; stroke-linejoin:round; stroke-linecap:round;" d="M51.43 55.12c1.31 0.59 3.73 0.7 5.04 0.59C67.75 54.75 82 53 93.71 52.19c2.19-0.15 3.51 0.28 4.6 0.58"></path>
<path style="fill:none; fill-opacity:0%; fill-rule:evenodd; stroke:#aaaaaa; stroke-opacity:100%; stroke-width: 1.5pt; stroke-linejoin:round; stroke-linecap:round;" d="M42.75 92.72c1.47 0.66 4.15 1.31 5.62 1.2c15.88-1.17 27.2-3.09 45.49-3.38c2.44-0.04 3.91 0.31 5.13 0.64"></path>

<path style="fill:none; fill-opacity:0%; fill-rule:evenodd; stroke:#000000; stroke-opacity:100%; stroke-width: 3pt; stroke-linejoin:round; stroke-linecap:round;" d="M33.82 13.08c0.03 0.49 0.15 1.32-0.07 1.97c-1.6 4.67-6.17 13.23-12.51 18.85"></path>
<path style="fill:none; fill-opacity:0%; fill-rule:evenodd; stroke:#000000; stroke-opacity:100%; stroke-width: 3pt; stroke-linejoin:round; stroke-linecap:round;" d="M15.25 33.45c0.51 0.55 0.84 1.8 0.92 2.51c0.62 5.6 2.87 38.77 3.29 48.83"></path>
<path style="fill:none; fill-opacity:0%; fill-rule:evenodd; stroke:#000000; stroke-opacity:100%; stroke-width: 3pt; stroke-linejoin:round; stroke-linecap:round;" d="M16.73 36.47c6.56-1.16 24.66-3.15 27.06-3.19c1.71-0.03 2.46 0.97 2.26 2.54c-0.4 3.19-1.63 35.46-2.39 39.84"></path>
<path style="fill:none; fill-opacity:0%; fill-rule:evenodd; stroke:#000000; stroke-opacity:100%; stroke-width: 3pt; stroke-linejoin:round; stroke-linecap:round;" d="M26.47 36.9c0.15 0.53 0.69 1.47 0.71 2.14c0.32 10.62 0.32 32.95 0 43.27"></path>
<path style="fill:none; fill-opacity:0%; fill-rule:evenodd; stroke:#000000; stroke-opacity:100%; stroke-width: 3pt; stroke-linejoin:round; stroke-linecap:round;" d="M34.98 35.88c0.01 0.46 0.69 2.09 0.69 2.87c0.01 8.8 0.16 29.19 0.04 39.67"></path>
<path style="fill:none; fill-opacity:0%; fill-rule:evenodd; stroke:#000000; stroke-opacity:100%; stroke-width: 3pt; stroke-linejoin:round; stroke-linecap:round;" d="M11.13 86.09c0.7 1.53 2.48 1.28 3.18 1.03c9.69-3.37 22.94-8.87 34.52-13.13"></path>
<path style="fill:none; fill-opacity:0%; fill-rule:evenodd; stroke:#000000; stroke-opacity:100%; stroke-width: 3pt; stroke-linejoin:round; stroke-linecap:round;" d="M54.53 21.29c1.41 0.65 2.95 0.94 4.61 0.79c11.2-1.06 19.51-2.51 29.62-3.34c2.87-0.23 3.81 2.98 3.07 5.86c-2.57 9.94-7.27 49.45-9.43 66.45"></path>
<path style="fill:none; fill-opacity:0%; fill-rule:evenodd; stroke:#000000; stroke-opacity:100%; stroke-width: 3pt; stroke-linejoin:round; stroke-linecap:round;" d="M69.41 24.24c0.88 0.58 1.15 2.75 1.08 3.95c-0.7 12.51-7.73 54.41-9.66 64.6"></path>
<path style="fill:none; fill-opacity:0%; fill-rule:evenodd; stroke:#000000; stroke-opacity:100%; stroke-width: 3pt; stroke-linejoin:round; stroke-linecap:round;" d="M51.43 55.12c1.31 0.59 3.73 0.7 5.04 0.59C67.75 54.75 82 53 93.71 52.19c2.19-0.15 3.51 0.28 4.6 0.58"></path>
<text x="5" y="20" font-size="20" fill="#999999">10</text><path style="fill:none; fill-opacity:0%; fill-rule:evenodd; stroke:#CC0000; stroke-opacity:100%; stroke-width: 3pt; stroke-linejoin:round; stroke-linecap:round;" d="M42.75 92.72c1.47 0.66 4.15 1.31 5.62 1.2c15.88-1.17 27.2-3.09 45.49-3.38c2.44-0.04 3.91 0.31 5.13 0.64" marker-end="url(#TriangleRed)" marker-start="url(#ArrowRed)" ></path>

</g>

</svg>  
          
