<?xml version="1.0" standalone="no"?>
<!DOCTYPE svg PUBLIC "-//W3C//DTD SVG 1.1//EN"   "http://www.w3.org/Graphics/SVG/1.1/DTD/svg11.dtd">
<svg width="751" height="301"  version="1.1" xmlns="http://www.w3.org/2000/svg">
  <defs>
    <marker id="Triangle" viewBox="0 0 10 10" refX="0" refY="5" markerUnits="strokeWidth" markerWidth="3" style="stroke-opacity:0%;fill:#aaaaaa;" markerHeight="2" orient="auto">
      <path d="M 0 0 L 10 5 L 0 10 z" />
    </marker>
    
    <marker id="Arrow" viewBox="0 0 10 10" refX="5" refY="5" markerUnits="strokeWidth" markerWidth="1.8" style="stroke-opacity:0%;fill:#770000;" markerHeight="2" orient="auto">
      <path d="M 0 4 L 6 4 L 4 1 L 10 5 L 4 9 L 6 6 L 0 6 z" />
        <circle cx="5" cy="5" r="5" />
      </marker>
    
    <marker id="TriangleRed" viewBox="0 0 10 10" refX="0" refY="5" markerUnits="strokeWidth" markerWidth="3" style="stroke-opacity:0%;fill:#CC0000;" markerHeight="2" orient="auto">
      <path d="M 0 0 L 10 5 L 0 10 z" />
    </marker>
    
    <marker id="ArrowRed" viewBox="0 0 10 10" refX="5" refY="5" markerUnits="strokeWidth" markerWidth="1.8" style="stroke-opacity:0%;fill:#CC0000;" markerHeight="2" orient="auto">
      <path d="M 0 4 L 6 4 L 4 1 L 10 5 L 4 9 L 6 6 L 0 6 z" />
        <circle cx="5" cy="5" r="5" />
      </marker>
    
  </defs>
  
  <path style="fill:#ffffff; fill-opacity:100%; fill-rule:evenodd; stroke-width:0;" d="M 0 0 L 751 0 L 751 301 L 0 301 L 0 0" />

  <g transform="scale(1.3761467889908 1.3761467889908) translate(0, 0)">
<path style="fill:none; fill-rule:evenodd; stroke:#aaaaaa;  stroke-width:1pt; stroke-linecap:round;" d="m 109 0 L 0 0 L 0 109 L 109 109 L 109 0"></path><path style="fill:none; fill-opacity:0%; fill-rule:evenodd; stroke:#aaaaaa; stroke-opacity:100%; stroke-width: 1.5pt; stroke-linejoin:round; stroke-linecap:round;" d="M23.33 13.25c3.41 2.71 7.07 6.77 10 11.5"></path>
<path style="fill:none; fill-opacity:0%; fill-rule:evenodd; stroke:#aaaaaa; stroke-opacity:100%; stroke-width: 1.5pt; stroke-linejoin:round; stroke-linecap:round;" d="M14.2 36.36c0.94 0.39 2.36 0.81 3.96 0.61c3.84-0.47 17.87-3.83 20.19-4.49c2.33-0.66 4.58 0.83 3.26 2.85C33.86 47.15 24.4 60.02 13 69"></path>
<path style="fill:none; fill-opacity:0%; fill-rule:evenodd; stroke:#aaaaaa; stroke-opacity:100%; stroke-width: 1.5pt; stroke-linejoin:round; stroke-linecap:round;" d="M30 52.61c0.12 0.29 1.65 1.53 1.77 3.39c0.57 8.93 0.06 35.7 0.06 38.75"></path>
<path style="fill:none; fill-opacity:0%; fill-rule:evenodd; stroke:#aaaaaa; stroke-opacity:100%; stroke-width: 1.5pt; stroke-linejoin:round; stroke-linecap:round;" d="M45.31 44.89c0.15 0.91 0.3 1.16 0 1.82c-0.92 2-3.76 6.92-5.61 9.29"></path>
<path style="fill:none; fill-opacity:0%; fill-rule:evenodd; stroke:#aaaaaa; stroke-opacity:100%; stroke-width: 1.5pt; stroke-linejoin:round; stroke-linecap:round;" d="M35.08 56.75c3.59 2.18 7.43 5.44 10.5 9.25"></path>
<path style="fill:none; fill-opacity:0%; fill-rule:evenodd; stroke:#aaaaaa; stroke-opacity:100%; stroke-width: 1.5pt; stroke-linejoin:round; stroke-linecap:round;" d="M70.41 16c0.5 1.02 0.68 2.31 0.46 3.15c-1.63 6.18-5.21 17.27-10.68 24.31"></path>
<path style="fill:none; fill-opacity:0%; fill-rule:evenodd; stroke:#aaaaaa; stroke-opacity:100%; stroke-width: 1.5pt; stroke-linejoin:round; stroke-linecap:round;" d="M53.8 43.87c0.59 1.21 1.19 2.22 1.19 3.83c0 1.61 0.69 35.64 0.69 45.3"></path>
<path style="fill:none; fill-opacity:0%; fill-rule:evenodd; stroke:#aaaaaa; stroke-opacity:100%; stroke-width: 1.5pt; stroke-linejoin:round; stroke-linecap:round;" d="M54.85 45.74c3.35-0.2 30.57-3.29 33.62-3.64c1.94-0.22 2.73 1.32 2.72 3.86c-0.01 4.34-1.03 32-1.66 45.29"></path>
<path style="fill:none; fill-opacity:0%; fill-rule:evenodd; stroke:#aaaaaa; stroke-opacity:100%; stroke-width: 1.5pt; stroke-linejoin:round; stroke-linecap:round;" d="M55.31 64.93c7.03-0.61 29.92-3.3 35.05-3.3"></path>
<path style="fill:none; fill-opacity:0%; fill-rule:evenodd; stroke:#aaaaaa; stroke-opacity:100%; stroke-width: 1.5pt; stroke-linejoin:round; stroke-linecap:round;" d="M56.48 89.35c8.41-0.65 24.38-2.19 33.35-2.49"></path>

<text x="5" y="20" font-size="20" fill="#999999">1</text><path style="fill:none; fill-opacity:0%; fill-rule:evenodd; stroke:#CC0000; stroke-opacity:100%; stroke-width: 3pt; stroke-linejoin:round; stroke-linecap:round;" d="M23.33 13.25c3.41 2.71 7.07 6.77 10 11.5" marker-end="url(#TriangleRed)" marker-start="url(#ArrowRed)" ></path>










</g><g transform="scale(1.3761467889908 1.3761467889908) translate(109, 0)">
<path style="fill:none; fill-rule:evenodd; stroke:#aaaaaa;  stroke-width:1pt; stroke-linecap:round;" d="m 109 0 L 0 0 L 0 109 L 109 109 L 109 0"></path><path style="fill:none; fill-opacity:0%; fill-rule:evenodd; stroke:#aaaaaa; stroke-opacity:100%; stroke-width: 1.5pt; stroke-linejoin:round; stroke-linecap:round;" d="M23.33 13.25c3.41 2.71 7.07 6.77 10 11.5"></path>
<path style="fill:none; fill-opacity:0%; fill-rule:evenodd; stroke:#aaaaaa; stroke-opacity:100%; stroke-width: 1.5pt; stroke-linejoin:round; stroke-linecap:round;" d="M14.2 36.36c0.94 0.39 2.36 0.81 3.96 0.61c3.84-0.47 17.87-3.83 20.19-4.49c2.33-0.66 4.58 0.83 3.26 2.85C33.86 47.15 24.4 60.02 13 69"></path>
<path style="fill:none; fill-opacity:0%; fill-rule:evenodd; stroke:#aaaaaa; stroke-opacity:100%; stroke-width: 1.5pt; stroke-linejoin:round; stroke-linecap:round;" d="M30 52.61c0.12 0.29 1.65 1.53 1.77 3.39c0.57 8.93 0.06 35.7 0.06 38.75"></path>
<path style="fill:none; fill-opacity:0%; fill-rule:evenodd; stroke:#aaaaaa; stroke-opacity:100%; stroke-width: 1.5pt; stroke-linejoin:round; stroke-linecap:round;" d="M45.31 44.89c0.15 0.91 0.3 1.16 0 1.82c-0.92 2-3.76 6.92-5.61 9.29"></path>
<path style="fill:none; fill-opacity:0%; fill-rule:evenodd; stroke:#aaaaaa; stroke-opacity:100%; stroke-width: 1.5pt; stroke-linejoin:round; stroke-linecap:round;" d="M35.08 56.75c3.59 2.18 7.43 5.44 10.5 9.25"></path>
<path style="fill:none; fill-opacity:0%; fill-rule:evenodd; stroke:#aaaaaa; stroke-opacity:100%; stroke-width: 1.5pt; stroke-linejoin:round; stroke-linecap:round;" d="M70.41 16c0.5 1.02 0.68 2.31 0.46 3.15c-1.63 6.18-5.21 17.27-10.68 24.31"></path>
<path style="fill:none; fill-opacity:0%; fill-rule:evenodd; stroke:#aaaaaa; stroke-opacity:100%; stroke-width: 1.5pt; stroke-linejoin:round; stroke-linecap:round;" d="M53.8 43.87c0.59 1.21 1.19 2.22 1.19 3.83c0 1.61 0.69 35.64 0.69 45.3"></path>
<path style="fill:none; fill-opacity:0%; fill-rule:evenodd; stroke:#aaaaaa; stroke-opacity:100%; stroke-width: 1.5pt; stroke-linejoin:round; stroke-linecap:round;" d="M54.85 45.74c3.35-0.2 30.57-3.29 33.62-3.64c1.94-0.22 2.73 1.32 2.72 3.86c-0.01 4.34-1.03 32-1.66 45.29"></path>
<path style="fill:none; fill-opacity:0%; fill-rule:evenodd; stroke:#aaaaaa; stroke-opacity:100%; stroke-width: 1.5pt; stroke-linejoin:round; stroke-linecap:round;" d="M55.31 64.93c7.03-0.61 29.92-3.3 35.05-3.3"></path>
<path style="fill:none; fill-opacity:0%; fill-rule:evenodd; stroke:#aaaaaa; stroke-opacity:100%; stroke-width: 1.5pt; stroke-linejoin:round; stroke-linecap:round;" d="M56.48 89.35c8.41-0.65 24.38-2.19 33.35-2.49"></path>

<path style="fill:none; fill-opacity:0%; fill-rule:evenodd; stroke:#000000; stroke-opacity:100%; stroke-width: 3pt; stroke-linejoin:round; stroke-linecap:round;" d="M23.33 13.25c3.41 2.71 7.07 6.77 10 11.5"></path>
<text x="5" y="20" font-size="20" fill="#999999">2</text><path style="fill:none; fill-opacity:0%; fill-rule:evenodd; stroke:#CC0000; stroke-opacity:100%; stroke-width: 3pt; stroke-linejoin:round; stroke-linecap:round;" d="M14.2 36.36c0.94 0.39 2.36 0.81 3.96 0.61c3.84-0.47 17.87-3.83 20.19-4.49c2.33-0.66 4.58 0.83 3.26 2.85C33.86 47.15 24.4 60.02 13 69" marker-end="url(#TriangleRed)" marker-start="url(#ArrowRed)" ></path>









</g><g transform="scale(1.3761467889908 1.3761467889908) translate(218, 0)">
<path style="fill:none; fill-rule:evenodd; stroke:#aaaaaa;  stroke-width:1pt; stroke-linecap:round;" d="m 109 0 L 0 0 L 0 109 L 109 109 L 109 0"></path><path style="fill:none; fill-opacity:0%; fill-rule:evenodd; stroke:#aaaaaa; stroke-opacity:100%; stroke-width: 1.5pt; stroke-linejoin:round; stroke-linecap:round;" d="M23.33 13.25c3.41 2.71 7.07 6.77 10 11.5"></path>
<path style="fill:none; fill-opacity:0%; fill-rule:evenodd; stroke:#aaaaaa; stroke-opacity:100%; stroke-width: 1.5pt; stroke-linejoin:round; stroke-linecap:round;" d="M14.2 36.36c0.94 0.39 2.36 0.81 3.96 0.61c3.84-0.47 17.87-3.83 20.19-4.49c2.33-0.66 4.58 0.83 3.26 2.85C33.86 47.15 24.4 60.02 13 69"></path>
<path style="fill:none; fill-opacity:0%; fill-rule:evenodd; stroke:#aaaaaa; stroke-opacity:100%; stroke-width: 1.5pt; stroke-linejoin:round; stroke-linecap:round;" d="M30 52.61c0.12 0.29 1.65 1.53 1.77 3.39c0.57 8.93 0.06 35.7 0.06 38.75"></path>
<path style="fill:none; fill-opacity:0%; fill-rule:evenodd; stroke:#aaaaaa; stroke-opacity:100%; stroke-width: 1.5pt; stroke-linejoin:round; stroke-linecap:round;" d="M45.31 44.89c0.15 0.91 0.3 1.16 0 1.82c-0.92 2-3.76 6.92-5.61 9.29"></path>
<path style="fill:none; fill-opacity:0%; fill-rule:evenodd; stroke:#aaaaaa; stroke-opacity:100%; stroke-width: 1.5pt; stroke-linejoin:round; stroke-linecap:round;" d="M35.08 56.75c3.59 2.18 7.43 5.44 10.5 9.25"></path>
<path style="fill:none; fill-opacity:0%; fill-rule:evenodd; stroke:#aaaaaa; stroke-opacity:100%; stroke-width: 1.5pt; stroke-linejoin:round; stroke-linecap:round;" d="M70.41 16c0.5 1.02 0.68 2.31 0.46 3.15c-1.63 6.18-5.21 17.27-10.68 24.31"></path>
<path style="fill:none; fill-opacity:0%; fill-rule:evenodd; stroke:#aaaaaa; stroke-opacity:100%; stroke-width: 1.5pt; stroke-linejoin:round; stroke-linecap:round;" d="M53.8 43.87c0.59 1.21 1.19 2.22 1.19 3.83c0 1.61 0.69 35.64 0.69 45.3"></path>
<path style="fill:none; fill-opacity:0%; fill-rule:evenodd; stroke:#aaaaaa; stroke-opacity:100%; stroke-width: 1.5pt; stroke-linejoin:round; stroke-linecap:round;" d="M54.85 45.74c3.35-0.2 30.57-3.29 33.62-3.64c1.94-0.22 2.73 1.32 2.72 3.86c-0.01 4.34-1.03 32-1.66 45.29"></path>
<path style="fill:none; fill-opacity:0%; fill-rule:evenodd; stroke:#aaaaaa; stroke-opacity:100%; stroke-width: 1.5pt; stroke-linejoin:round; stroke-linecap:round;" d="M55.31 64.93c7.03-0.61 29.92-3.3 35.05-3.3"></path>
<path style="fill:none; fill-opacity:0%; fill-rule:evenodd; stroke:#aaaaaa; stroke-opacity:100%; stroke-width: 1.5pt; stroke-linejoin:round; stroke-linecap:round;" d="M56.48 89.35c8.41-0.65 24.38-2.19 33.35-2.49"></path>

<path style="fill:none; fill-opacity:0%; fill-rule:evenodd; stroke:#000000; stroke-opacity:100%; stroke-width: 3pt; stroke-linejoin:round; stroke-linecap:round;" d="M23.33 13.25c3.41 2.71 7.07 6.77 10 11.5"></path>
<path style="fill:none; fill-opacity:0%; fill-rule:evenodd; stroke:#000000; stroke-opacity:100%; stroke-width: 3pt; stroke-linejoin:round; stroke-linecap:round;" d="M14.2 36.36c0.94 0.39 2.36 0.81 3.96 0.61c3.84-0.47 17.87-3.83 20.19-4.49c2.33-0.66 4.58 0.83 3.26 2.85C33.86 47.15 24.4 60.02 13 69"></path>
<text x="5" y="20" font-size="20" fill="#999999">3</text><path style="fill:none; fill-opacity:0%; fill-rule:evenodd; stroke:#CC0000; stroke-opacity:100%; stroke-width: 3pt; stroke-linejoin:round; stroke-linecap:round;" d="M30 52.61c0.12 0.29 1.65 1.53 1.77 3.39c0.57 8.93 0.06 35.7 0.06 38.75" marker-end="url(#TriangleRed)" marker-start="url(#ArrowRed)" ></path>








</g><g transform="scale(1.3761467889908 1.3761467889908) translate(327, 0)">
<path style="fill:none; fill-rule:evenodd; stroke:#aaaaaa;  stroke-width:1pt; stroke-linecap:round;" d="m 109 0 L 0 0 L 0 109 L 109 109 L 109 0"></path><path style="fill:none; fill-opacity:0%; fill-rule:evenodd; stroke:#aaaaaa; stroke-opacity:100%; stroke-width: 1.5pt; stroke-linejoin:round; stroke-linecap:round;" d="M23.33 13.25c3.41 2.71 7.07 6.77 10 11.5"></path>
<path style="fill:none; fill-opacity:0%; fill-rule:evenodd; stroke:#aaaaaa; stroke-opacity:100%; stroke-width: 1.5pt; stroke-linejoin:round; stroke-linecap:round;" d="M14.2 36.36c0.94 0.39 2.36 0.81 3.96 0.61c3.84-0.47 17.87-3.83 20.19-4.49c2.33-0.66 4.58 0.83 3.26 2.85C33.86 47.15 24.4 60.02 13 69"></path>
<path style="fill:none; fill-opacity:0%; fill-rule:evenodd; stroke:#aaaaaa; stroke-opacity:100%; stroke-width: 1.5pt; stroke-linejoin:round; stroke-linecap:round;" d="M30 52.61c0.12 0.29 1.65 1.53 1.77 3.39c0.57 8.93 0.06 35.7 0.06 38.75"></path>
<path style="fill:none; fill-opacity:0%; fill-rule:evenodd; stroke:#aaaaaa; stroke-opacity:100%; stroke-width: 1.5pt; stroke-linejoin:round; stroke-linecap:round;" d="M45.31 44.89c0.15 0.91 0.3 1.16 0 1.82c-0.92 2-3.76 6.92-5.61 9.29"></path>
<path style="fill:none; fill-opacity:0%; fill-rule:evenodd; stroke:#aaaaaa; stroke-opacity:100%; stroke-width: 1.5pt; stroke-linejoin:round; stroke-linecap:round;" d="M35.08 56.75c3.59 2.18 7.43 5.44 10.5 9.25"></path>
<path style="fill:none; fill-opacity:0%; fill-rule:evenodd; stroke:#aaaaaa; stroke-opacity:100%; stroke-width: 1.5pt; stroke-linejoin:round; stroke-linecap:round;" d="M70.41 16c0.5 1.02 0.68 2.31 0.46 3.15c-1.63 6.18-5.21 17.27-10.68 24.31"></path>
<path style="fill:none; fill-opacity:0%; fill-rule:evenodd; stroke:#aaaaaa; stroke-opacity:100%; stroke-width: 1.5pt; stroke-linejoin:round; stroke-linecap:round;" d="M53.8 43.87c0.59 1.21 1.19 2.22 1.19 3.83c0 1.61 0.69 35.64 0.69 45.3"></path>
<path style="fill:none; fill-opacity:0%; fill-rule:evenodd; stroke:#aaaaaa; stroke-opacity:100%; stroke-width: 1.5pt; stroke-linejoin:round; stroke-linecap:round;" d="M54.85 45.74c3.35-0.2 30.57-3.29 33.62-3.64c1.94-0.22 2.73 1.32 2.72 3.86c-0.01 4.34-1.03 32-1.66 45.29"></path>
<path style="fill:none; fill-opacity:0%; fill-rule:evenodd; stroke:#aaaaaa; stroke-opacity:100%; stroke-width: 1.5pt; stroke-linejoin:round; stroke-linecap:round;" d="M55.31 64.93c7.03-0.61 29.92-3.3 35.05-3.3"></path>
<path style="fill:none; fill-opacity:0%; fill-rule:evenodd; stroke:#aaaaaa; stroke-opacity:100%; stroke-width: 1.5pt; stroke-linejoin:round; stroke-linecap:round;" d="M56.48 89.35c8.41-0.65 24.38-2.19 33.35-2.49"></path>

<path style="fill:none; fill-opacity:0%; fill-rule:evenodd; stroke:#000000; stroke-opacity:100%; stroke-width: 3pt; stroke-linejoin:round; stroke-linecap:round;" d="M23.33 13.25c3.41 2.71 7.07 6.77 10 11.5"></path>
<path style="fill:none; fill-opacity:0%; fill-rule:evenodd; stroke:#000000; stroke-opacity:100%; stroke-width: 3pt; stroke-linejoin:round; stroke-linecap:round;" d="M14.2 36.36c0.94 0.39 2.36 0.81 3.96 0.61c3.84-0.47 17.87-3.83 20.19-4.49c2.33-0.66 4.58 0.83 3.26 2.85C33.86 47.15 24.4 60.02 13 69"></path>
<path style="fill:none; fill-opacity:0%; fill-rule:evenodd; stroke:#000000; stroke-opacity:100%; stroke-width: 3pt; stroke-linejoin:round; stroke-linecap:round;" d="M30 52.61c0.12 0.29 1.65 1.53 1.77 3.39c0.57 8.93 0.06 35.7 0.06 38.75"></path>
<text x="5" y="20" font-size="20" fill="#999999">4</text><path style="fill:none; fill-opacity:0%; fill-rule:evenodd; stroke:#CC0000; stroke-opacity:100%; stroke-width: 3pt; stroke-linejoin:round; stroke-linecap:round;" d="M45.31 44.89c0.15 0.91 0.3 1.16 0 1.82c-0.92 2-3.76 6.92-5.61 9.29" marker-end="url(#TriangleRed)" marker-start="url(#ArrowRed)" ></path>







</g><g transform="scale(1.3761467889908 1.3761467889908) translate(436, 0)">
<path style="fill:none; fill-rule:evenodd; stroke:#aaaaaa;  stroke-width:1pt; stroke-linecap:round;" d="m 109 0 L 0 0 L 0 109 L 109 109 L 109 0"></path><path style="fill:none; fill-opacity:0%; fill-rule:evenodd; stroke:#aaaaaa; stroke-opacity:100%; stroke-width: 1.5pt; stroke-linejoin:round; stroke-linecap:round;" d="M23.33 13.25c3.41 2.71 7.07 6.77 10 11.5"></path>
<path style="fill:none; fill-opacity:0%; fill-rule:evenodd; stroke:#aaaaaa; stroke-opacity:100%; stroke-width: 1.5pt; stroke-linejoin:round; stroke-linecap:round;" d="M14.2 36.36c0.94 0.39 2.36 0.81 3.96 0.61c3.84-0.47 17.87-3.83 20.19-4.49c2.33-0.66 4.58 0.83 3.26 2.85C33.86 47.15 24.4 60.02 13 69"></path>
<path style="fill:none; fill-opacity:0%; fill-rule:evenodd; stroke:#aaaaaa; stroke-opacity:100%; stroke-width: 1.5pt; stroke-linejoin:round; stroke-linecap:round;" d="M30 52.61c0.12 0.29 1.65 1.53 1.77 3.39c0.57 8.93 0.06 35.7 0.06 38.75"></path>
<path style="fill:none; fill-opacity:0%; fill-rule:evenodd; stroke:#aaaaaa; stroke-opacity:100%; stroke-width: 1.5pt; stroke-linejoin:round; stroke-linecap:round;" d="M45.31 44.89c0.15 0.91 0.3 1.16 0 1.82c-0.92 2-3.76 6.92-5.61 9.29"></path>
<path style="fill:none; fill-opacity:0%; fill-rule:evenodd; stroke:#aaaaaa; stroke-opacity:100%; stroke-width: 1.5pt; stroke-linejoin:round; stroke-linecap:round;" d="M35.08 56.75c3.59 2.18 7.43 5.44 10.5 9.25"></path>
<path style="fill:none; fill-opacity:0%; fill-rule:evenodd; stroke:#aaaaaa; stroke-opacity:100%; stroke-width: 1.5pt; stroke-linejoin:round; stroke-linecap:round;" d="M70.41 16c0.5 1.02 0.68 2.31 0.46 3.15c-1.63 6.18-5.21 17.27-10.68 24.31"></path>
<path style="fill:none; fill-opacity:0%; fill-rule:evenodd; stroke:#aaaaaa; stroke-opacity:100%; stroke-width: 1.5pt; stroke-linejoin:round; stroke-linecap:round;" d="M53.8 43.87c0.59 1.21 1.19 2.22 1.19 3.83c0 1.61 0.69 35.64 0.69 45.3"></path>
<path style="fill:none; fill-opacity:0%; fill-rule:evenodd; stroke:#aaaaaa; stroke-opacity:100%; stroke-width: 1.5pt; stroke-linejoin:round; stroke-linecap:round;" d="M54.85 45.74c3.35-0.2 30.57-3.29 33.62-3.64c1.94-0.22 2.73 1.32 2.72 3.86c-0.01 4.34-1.03 32-1.66 45.29"></path>
<path style="fill:none; fill-opacity:0%; fill-rule:evenodd; stroke:#aaaaaa; stroke-opacity:100%; stroke-width: 1.5pt; stroke-linejoin:round; stroke-linecap:round;" d="M55.31 64.93c7.03-0.61 29.92-3.3 35.05-3.3"></path>
<path style="fill:none; fill-opacity:0%; fill-rule:evenodd; stroke:#aaaaaa; stroke-opacity:100%; stroke-width: 1.5pt; stroke-linejoin:round; stroke-linecap:round;" d="M56.48 89.35c8.41-0.65 24.38-2.19 33.35-2.49"></path>

<path style="fill:none; fill-opacity:0%; fill-rule:evenodd; stroke:#000000; stroke-opacity:100%; stroke-width: 3pt; stroke-linejoin:round; stroke-linecap:round;" d="M23.33 13.25c3.41 2.71 7.07 6.77 10 11.5"></path>
<path style="fill:none; fill-opacity:0%; fill-rule:evenodd; stroke:#000000; stroke-opacity:100%; stroke-width: 3pt; stroke-linejoin:round; stroke-linecap:round;" d="M14.2 36.36c0.94 0.39 2.36 0.81 3.96 0.61c3.84-0.47 17.87-3.83 20.19-4.49c2.33-0.66 4.58 0.83 3.26 2.85C33.86 47.15 24.4 60.02 13 69"></path>
<path style="fill:none; fill-opacity:0%; fill-rule:evenodd; stroke:#000000; stroke-opacity:100%; stroke-width: 3pt; stroke-linejoin:round; stroke-linecap:round;" d="M30 52.61c0.12 0.29 1.65 1.53 1.77 3.39c0.57 8.93 0.06 35.7 0.06 38.75"></path>
<path style="fill:none; fill-opacity:0%; fill-rule:evenodd; stroke:#000000; stroke-opacity:100%; stroke-width: 3pt; stroke-linejoin:round; stroke-linecap:round;" d="M45.31 44.89c0.15 0.91 0.3 1.16 0 1.82c-0.92 2-3.76 6.92-5.61 9.29"></path>
<text x="5" y="20" font-size="20" fill="#999999">5</text><path style="fill:none; fill-opacity:0%; fill-rule:evenodd; stroke:#CC0000; stroke-opacity:100%; stroke-width: 3pt; stroke-linejoin:round; stroke-linecap:round;" d="M35.08 56.75c3.59 2.18 7.43 5.44 10.5 9.25" marker-end="url(#TriangleRed)" marker-start="url(#ArrowRed)" ></path>






</g><g transform="scale(1.3761467889908 1.3761467889908) translate(0, 109)">
<path style="fill:none; fill-rule:evenodd; stroke:#aaaaaa;  stroke-width:1pt; stroke-linecap:round;" d="m 109 0 L 0 0 L 0 109 L 109 109 L 109 0"></path><path style="fill:none; fill-opacity:0%; fill-rule:evenodd; stroke:#aaaaaa; stroke-opacity:100%; stroke-width: 1.5pt; stroke-linejoin:round; stroke-linecap:round;" d="M23.33 13.25c3.41 2.71 7.07 6.77 10 11.5"></path>
<path style="fill:none; fill-opacity:0%; fill-rule:evenodd; stroke:#aaaaaa; stroke-opacity:100%; stroke-width: 1.5pt; stroke-linejoin:round; stroke-linecap:round;" d="M14.2 36.36c0.94 0.39 2.36 0.81 3.96 0.61c3.84-0.47 17.87-3.83 20.19-4.49c2.33-0.66 4.58 0.83 3.26 2.85C33.86 47.15 24.4 60.02 13 69"></path>
<path style="fill:none; fill-opacity:0%; fill-rule:evenodd; stroke:#aaaaaa; stroke-opacity:100%; stroke-width: 1.5pt; stroke-linejoin:round; stroke-linecap:round;" d="M30 52.61c0.12 0.29 1.65 1.53 1.77 3.39c0.57 8.93 0.06 35.7 0.06 38.75"></path>
<path style="fill:none; fill-opacity:0%; fill-rule:evenodd; stroke:#aaaaaa; stroke-opacity:100%; stroke-width: 1.5pt; stroke-linejoin:round; stroke-linecap:round;" d="M45.31 44.89c0.15 0.91 0.3 1.16 0 1.82c-0.92 2-3.76 6.92-5.61 9.29"></path>
<path style="fill:none; fill-opacity:0%; fill-rule:evenodd; stroke:#aaaaaa; stroke-opacity:100%; stroke-width: 1.5pt; stroke-linejoin:round; stroke-linecap:round;" d="M35.08 56.75c3.59 2.18 7.43 5.44 10.5 9.25"></path>
<path style="fill:none; fill-opacity:0%; fill-rule:evenodd; stroke:#aaaaaa; stroke-opacity:100%; stroke-width: 1.5pt; stroke-linejoin:round; stroke-linecap:round;" d="M70.41 16c0.5 1.02 0.68 2.31 0.46 3.15c-1.63 6.18-5.21 17.27-10.68 24.31"></path>
<path style="fill:none; fill-opacity:0%; fill-rule:evenodd; stroke:#aaaaaa; stroke-opacity:100%; stroke-width: 1.5pt; stroke-linejoin:round; stroke-linecap:round;" d="M53.8 43.87c0.59 1.21 1.19 2.22 1.19 3.83c0 1.61 0.69 35.64 0.69 45.3"></path>
<path style="fill:none; fill-opacity:0%; fill-rule:evenodd; stroke:#aaaaaa; stroke-opacity:100%; stroke-width: 1.5pt; stroke-linejoin:round; stroke-linecap:round;" d="M54.85 45.74c3.35-0.2 30.57-3.29 33.62-3.64c1.94-0.22 2.73 1.32 2.72 3.86c-0.01 4.34-1.03 32-1.66 45.29"></path>
<path style="fill:none; fill-opacity:0%; fill-rule:evenodd; stroke:#aaaaaa; stroke-opacity:100%; stroke-width: 1.5pt; stroke-linejoin:round; stroke-linecap:round;" d="M55.31 64.93c7.03-0.61 29.92-3.3 35.05-3.3"></path>
<path style="fill:none; fill-opacity:0%; fill-rule:evenodd; stroke:#aaaaaa; stroke-opacity:100%; stroke-width: 1.5pt; stroke-linejoin:round; stroke-linecap:round;" d="M56.48 89.35c8.41-0.65 24.38-2.19 33.35-2.49"></path>

<path style="fill:none; fill-opacity:0%; fill-rule:evenodd; stroke:#000000; stroke-opacity:100%; stroke-width: 3pt; stroke-linejoin:round; stroke-linecap:round;" d="M23.33 13.25c3.41 2.71 7.07 6.77 10 11.5"></path>
<path style="fill:none; fill-opacity:0%; fill-rule:evenodd; stroke:#000000; stroke-opacity:100%; stroke-width: 3pt; stroke-linejoin:round; stroke-linecap:round;" d="M14.2 36.36c0.94 0.39 2.36 0.81 3.96 0.61c3.84-0.47 17.87-3.83 20.19-4.49c2.33-0.66 4.58 0.83 3.26 2.85C33.86 47.15 24.4 60.02 13 69"></path>
<path style="fill:none; fill-opacity:0%; fill-rule:evenodd; stroke:#000000; stroke-opacity:100%; stroke-width: 3pt; stroke-linejoin:round; stroke-linecap:round;" d="M30 52.61c0.12 0.29 1.65 1.53 1.77 3.39c0.57 8.93 0.06 35.7 0.06 38.75"></path>
<path style="fill:none; fill-opacity:0%; fill-rule:evenodd; stroke:#000000; stroke-opacity:100%; stroke-width: 3pt; stroke-linejoin:round; stroke-linecap:round;" d="M45.31 44.89c0.15 0.91 0.3 1.16 0 1.82c-0.92 2-3.76 6.92-5.61 9.29"></path>
<path style="fill:none; fill-opacity:0%; fill-rule:evenodd; stroke:#000000; stroke-opacity:100%; stroke-width: 3pt; stroke-linejoin:round; stroke-linecap:round;" d="M35.08 56.75c3.59 2.18 7.43 5.44 10.5 9.25"></path>
<text x="5" y="20" font-size="20" fill="#999999">6</text><path style="fill:none; fill-opacity:0%; fill-rule:evenodd; stroke:#CC0000; stroke-opacity:100%; stroke-width: 3pt; stroke-linejoin:round; stroke-linecap:round;" d="M70.41 16c0.5 1.02 0.68 2.31 0.46 3.15c-1.63 6.18-5.21 17.27-10.68 24.31" marker-end="url(#TriangleRed)" marker-start="url(#ArrowRed)" ></path>





</g><g transform="scale(1.3761467889908 1.3761467889908) translate(109, 109)">
<path style="fill:none; fill-rule:evenodd; stroke:#aaaaaa;  stroke-width:1pt; stroke-linecap:round;" d="m 109 0 L 0 0 L 0 109 L 109 109 L 109 0"></path><path style="fill:none; fill-opacity:0%; fill-rule:evenodd; stroke:#aaaaaa; stroke-opacity:100%; stroke-width: 1.5pt; stroke-linejoin:round; stroke-linecap:round;" d="M23.33 13.25c3.41 2.71 7.07 6.77 10 11.5"></path>
<path style="fill:none; fill-opacity:0%; fill-rule:evenodd; stroke:#aaaaaa; stroke-opacity:100%; stroke-width: 1.5pt; stroke-linejoin:round; stroke-linecap:round;" d="M14.2 36.36c0.94 0.39 2.36 0.81 3.96 0.61c3.84-0.47 17.87-3.83 20.19-4.49c2.33-0.66 4.58 0.83 3.26 2.85C33.86 47.15 24.4 60.02 13 69"></path>
<path style="fill:none; fill-opacity:0%; fill-rule:evenodd; stroke:#aaaaaa; stroke-opacity:100%; stroke-width: 1.5pt; stroke-linejoin:round; stroke-linecap:round;" d="M30 52.61c0.12 0.29 1.65 1.53 1.77 3.39c0.57 8.93 0.06 35.7 0.06 38.75"></path>
<path style="fill:none; fill-opacity:0%; fill-rule:evenodd; stroke:#aaaaaa; stroke-opacity:100%; stroke-width: 1.5pt; stroke-linejoin:round; stroke-linecap:round;" d="M45.31 44.89c0.15 0.91 0.3 1.16 0 1.82c-0.92 2-3.76 6.92-5.61 9.29"></path>
<path style="fill:none; fill-opacity:0%; fill-rule:evenodd; stroke:#aaaaaa; stroke-opacity:100%; stroke-width: 1.5pt; stroke-linejoin:round; stroke-linecap:round;" d="M35.08 56.75c3.59 2.18 7.43 5.44 10.5 9.25"></path>
<path style="fill:none; fill-opacity:0%; fill-rule:evenodd; stroke:#aaaaaa; stroke-opacity:100%; stroke-width: 1.5pt; stroke-linejoin:round; stroke-linecap:round;" d="M70.41 16c0.5 1.02 0.68 2.31 0.46 3.15c-1.63 6.18-5.21 17.27-10.68 24.31"></path>
<path style="fill:none; fill-opacity:0%; fill-rule:evenodd; stroke:#aaaaaa; stroke-opacity:100%; stroke-width: 1.5pt; stroke-linejoin:round; stroke-linecap:round;" d="M53.8 43.87c0.59 1.21 1.19 2.22 1.19 3.83c0 1.61 0.69 35.64 0.69 45.3"></path>
<path style="fill:none; fill-opacity:0%; fill-rule:evenodd; stroke:#aaaaaa; stroke-opacity:100%; stroke-width: 1.5pt; stroke-linejoin:round; stroke-linecap:round;" d="M54.85 45.74c3.35-0.2 30.57-3.29 33.62-3.64c1.94-0.22 2.73 1.32 2.72 3.86c-0.01 4.34-1.03 32-1.66 45.29"></path>
<path style="fill:none; fill-opacity:0%; fill-rule:evenodd; stroke:#aaaaaa; stroke-opacity:100%; stroke-width: 1.5pt; stroke-linejoin:round; stroke-linecap:round;" d="M55.31 64.93c7.03-0.61 29.92-3.3 35.05-3.3"></path>
<path style="fill:none; fill-opacity:0%; fill-rule:evenodd; stroke:#aaaaaa; stroke-opacity:100%; stroke-width: 1.5pt; stroke-linejoin:round; stroke-linecap:round;" d="M56.48 89.35c8.41-0.65 24.38-2.19 33.35-2.49"></path>

<path style="fill:none; fill-opacity:0%; fill-rule:evenodd; stroke:#000000; stroke-opacity:100%; stroke-width: 3pt; stroke-linejoin:round; stroke-linecap:round;" d="M23.33 13.25c3.41 2.71 7.07 6.77 10 11.5"></path>
<path style="fill:none; fill-opacity:0%; fill-rule:evenodd; stroke:#000000; stroke-opacity:100%; stroke-width: 3pt; stroke-linejoin:round; stroke-linecap:round;" d="M14.2 36.36c0.94 0.39 2.36 0.81 3.96 0.61c3.84-0.47 17.87-3.83 20.19-4.49c2.33-0.66 4.58 0.83 3.26 2.85C33.86 47.15 24.4 60.02 13 69"></path>
<path style="fill:none; fill-opacity:0%; fill-rule:evenodd; stroke:#000000; stroke-opacity:100%; stroke-width: 3pt; stroke-linejoin:round; stroke-linecap:round;" d="M30 52.61c0.12 0.29 1.65 1.53 1.77 3.39c0.57 8.93 0.06 35.7 0.06 38.75"></path>
<path style="fill:none; fill-opacity:0%; fill-rule:evenodd; stroke:#000000; stroke-opacity:100%; stroke-width: 3pt; stroke-linejoin:round; stroke-linecap:round;" d="M45.31 44.89c0.15 0.91 0.3 1.16 0 1.82c-0.92 2-3.76 6.92-5.61 9.29"></path>
<path style="fill:none; fill-opacity:0%; fill-rule:evenodd; stroke:#000000; stroke-opacity:100%; stroke-width: 3pt; stroke-linejoin:round; stroke-linecap:round;" d="M35.08 56.75c3.59 2.18 7.43 5.44 10.5 9.25"></path>
<path style="fill:none; fill-opacity:0%; fill-rule:evenodd; stroke:#000000; stroke-opacity:100%; stroke-width: 3pt; stroke-linejoin:round; stroke-linecap:round;" d="M70.41 16c0.5 1.02 0.68 2.31 0.46 3.15c-1.63 6.18-5.21 17.27-10.68 24.31"></path>
<text x="5" y="20" font-size="20" fill="#999999">7</text><path style="fill:none; fill-opacity:0%; fill-rule:evenodd; stroke:#CC0000; stroke-opacity:100%; stroke-width: 3pt; stroke-linejoin:round; stroke-linecap:round;" d="M53.8 43.87c0.59 1.21 1.19 2.22 1.19 3.83c0 1.61 0.69 35.64 0.69 45.3" marker-end="url(#TriangleRed)" marker-start="url(#ArrowRed)" ></path>




</g><g transform="scale(1.3761467889908 1.3761467889908) translate(218, 109)">
<path style="fill:none; fill-rule:evenodd; stroke:#aaaaaa;  stroke-width:1pt; stroke-linecap:round;" d="m 109 0 L 0 0 L 0 109 L 109 109 L 109 0"></path><path style="fill:none; fill-opacity:0%; fill-rule:evenodd; stroke:#aaaaaa; stroke-opacity:100%; stroke-width: 1.5pt; stroke-linejoin:round; stroke-linecap:round;" d="M23.33 13.25c3.41 2.71 7.07 6.77 10 11.5"></path>
<path style="fill:none; fill-opacity:0%; fill-rule:evenodd; stroke:#aaaaaa; stroke-opacity:100%; stroke-width: 1.5pt; stroke-linejoin:round; stroke-linecap:round;" d="M14.2 36.36c0.94 0.39 2.36 0.81 3.96 0.61c3.84-0.47 17.87-3.83 20.19-4.49c2.33-0.66 4.58 0.83 3.26 2.85C33.86 47.15 24.4 60.02 13 69"></path>
<path style="fill:none; fill-opacity:0%; fill-rule:evenodd; stroke:#aaaaaa; stroke-opacity:100%; stroke-width: 1.5pt; stroke-linejoin:round; stroke-linecap:round;" d="M30 52.61c0.12 0.29 1.65 1.53 1.77 3.39c0.57 8.93 0.06 35.7 0.06 38.75"></path>
<path style="fill:none; fill-opacity:0%; fill-rule:evenodd; stroke:#aaaaaa; stroke-opacity:100%; stroke-width: 1.5pt; stroke-linejoin:round; stroke-linecap:round;" d="M45.31 44.89c0.15 0.91 0.3 1.16 0 1.82c-0.92 2-3.76 6.92-5.61 9.29"></path>
<path style="fill:none; fill-opacity:0%; fill-rule:evenodd; stroke:#aaaaaa; stroke-opacity:100%; stroke-width: 1.5pt; stroke-linejoin:round; stroke-linecap:round;" d="M35.08 56.75c3.59 2.18 7.43 5.44 10.5 9.25"></path>
<path style="fill:none; fill-opacity:0%; fill-rule:evenodd; stroke:#aaaaaa; stroke-opacity:100%; stroke-width: 1.5pt; stroke-linejoin:round; stroke-linecap:round;" d="M70.41 16c0.5 1.02 0.68 2.31 0.46 3.15c-1.63 6.18-5.21 17.27-10.68 24.31"></path>
<path style="fill:none; fill-opacity:0%; fill-rule:evenodd; stroke:#aaaaaa; stroke-opacity:100%; stroke-width: 1.5pt; stroke-linejoin:round; stroke-linecap:round;" d="M53.8 43.87c0.59 1.21 1.19 2.22 1.19 3.83c0 1.61 0.69 35.64 0.69 45.3"></path>
<path style="fill:none; fill-opacity:0%; fill-rule:evenodd; stroke:#aaaaaa; stroke-opacity:100%; stroke-width: 1.5pt; stroke-linejoin:round; stroke-linecap:round;" d="M54.85 45.74c3.35-0.2 30.57-3.29 33.62-3.64c1.94-0.22 2.73 1.32 2.72 3.86c-0.01 4.34-1.03 32-1.66 45.29"></path>
<path style="fill:none; fill-opacity:0%; fill-rule:evenodd; stroke:#aaaaaa; stroke-opacity:100%; stroke-width: 1.5pt; stroke-linejoin:round; stroke-linecap:round;" d="M55.31 64.93c7.03-0.61 29.92-3.3 35.05-3.3"></path>
<path style="fill:none; fill-opacity:0%; fill-rule:evenodd; stroke:#aaaaaa; stroke-opacity:100%; stroke-width: 1.5pt; stroke-linejoin:round; stroke-linecap:round;" d="M56.48 89.35c8.41-0.65 24.38-2.19 33.35-2.49"></path>

<path style="fill:none; fill-opacity:0%; fill-rule:evenodd; stroke:#000000; stroke-opacity:100%; stroke-width: 3pt; stroke-linejoin:round; stroke-linecap:round;" d="M23.33 13.25c3.41 2.71 7.07 6.77 10 11.5"></path>
<path style="fill:none; fill-opacity:0%; fill-rule:evenodd; stroke:#000000; stroke-opacity:100%; stroke-width: 3pt; stroke-linejoin:round; stroke-linecap:round;" d="M14.2 36.36c0.94 0.39 2.36 0.81 3.96 0.61c3.84-0.47 17.87-3.83 20.19-4.49c2.33-0.66 4.58 0.83 3.26 2.85C33.86 47.15 24.4 60.02 13 69"></path>
<path style="fill:none; fill-opacity:0%; fill-rule:evenodd; stroke:#000000; stroke-opacity:100%; stroke-width: 3pt; stroke-linejoin:round; stroke-linecap:round;" d="M30 52.61c0.12 0.29 1.65 1.53 1.77 3.39c0.57 8.93 0.06 35.7 0.06 38.75"></path>
<path style="fill:none; fill-opacity:0%; fill-rule:evenodd; stroke:#000000; stroke-opacity:100%; stroke-width: 3pt; stroke-linejoin:round; stroke-linecap:round;" d="M45.31 44.89c0.15 0.91 0.3 1.16 0 1.82c-0.92 2-3.76 6.92-5.61 9.29"></path>
<path style="fill:none; fill-opacity:0%; fill-rule:evenodd; stroke:#000000; stroke-opacity:100%; stroke-width: 3pt; stroke-linejoin:round; stroke-linecap:round;" d="M35.08 56.75c3.59 2.18 7.43 5.44 10.5 9.25"></path>
<path style="fill:none; fill-opacity:0%; fill-rule:evenodd; stroke:#000000; stroke-opacity:100%; stroke-width: 3pt; stroke-linejoin:round; stroke-linecap:round;" d="M70.41 16c0.5 1.02 0.68 2.31 0.46 3.15c-1.63 6.18-5.21 17.27-10.68 24.31"></path>
<path style="fill:none; fill-opacity:0%; fill-rule:evenodd; stroke:#000000; stroke-opacity:100%; stroke-width: 3pt; stroke-linejoin:round; stroke-linecap:round;" d="M53.8 43.87c0.59 1.21 1.19 2.22 1.19 3.83c0 1.61 0.69 35.64 0.69 45.3"></path>
<text x="5" y="20" font-size="20" fill="#999999">8</text><path style="fill:none; fill-opacity:0%; fill-rule:evenodd; stroke:#CC0000; stroke-opacity:100%; stroke-width: 3pt; stroke-linejoin:round; stroke-linecap:round;" d="M54.85 45.74c3.35-0.2 30.57-3.29 33.62-3.64c1.94-0.22 2.73 1.32 2.72 3.86c-0.01 4.34-1.03 32-1.66 45.29" marker-end="url(#TriangleRed)" marker-start="url(#ArrowRed)" ></path>



</g><g transform="scale(1.3761467889908 1.3761467889908) translate(327, 109)">
<path style="fill:none; fill-rule:evenodd; stroke:#aaaaaa;  stroke-width:1pt; stroke-linecap:round;" d="m 109 0 L 0 0 L 0 109 L 109 109 L 109 0"></path><path style="fill:none; fill-opacity:0%; fill-rule:evenodd; stroke:#aaaaaa; stroke-opacity:100%; stroke-width: 1.5pt; stroke-linejoin:round; stroke-linecap:round;" d="M23.33 13.25c3.41 2.71 7.07 6.77 10 11.5"></path>
<path style="fill:none; fill-opacity:0%; fill-rule:evenodd; stroke:#aaaaaa; stroke-opacity:100%; stroke-width: 1.5pt; stroke-linejoin:round; stroke-linecap:round;" d="M14.2 36.36c0.94 0.39 2.36 0.81 3.96 0.61c3.84-0.47 17.87-3.83 20.19-4.49c2.33-0.66 4.58 0.83 3.26 2.85C33.86 47.15 24.4 60.02 13 69"></path>
<path style="fill:none; fill-opacity:0%; fill-rule:evenodd; stroke:#aaaaaa; stroke-opacity:100%; stroke-width: 1.5pt; stroke-linejoin:round; stroke-linecap:round;" d="M30 52.61c0.12 0.29 1.65 1.53 1.77 3.39c0.57 8.93 0.06 35.7 0.06 38.75"></path>
<path style="fill:none; fill-opacity:0%; fill-rule:evenodd; stroke:#aaaaaa; stroke-opacity:100%; stroke-width: 1.5pt; stroke-linejoin:round; stroke-linecap:round;" d="M45.31 44.89c0.15 0.91 0.3 1.16 0 1.82c-0.92 2-3.76 6.92-5.61 9.29"></path>
<path style="fill:none; fill-opacity:0%; fill-rule:evenodd; stroke:#aaaaaa; stroke-opacity:100%; stroke-width: 1.5pt; stroke-linejoin:round; stroke-linecap:round;" d="M35.08 56.75c3.59 2.18 7.43 5.44 10.5 9.25"></path>
<path style="fill:none; fill-opacity:0%; fill-rule:evenodd; stroke:#aaaaaa; stroke-opacity:100%; stroke-width: 1.5pt; stroke-linejoin:round; stroke-linecap:round;" d="M70.41 16c0.5 1.02 0.68 2.31 0.46 3.15c-1.63 6.18-5.21 17.27-10.68 24.31"></path>
<path style="fill:none; fill-opacity:0%; fill-rule:evenodd; stroke:#aaaaaa; stroke-opacity:100%; stroke-width: 1.5pt; stroke-linejoin:round; stroke-linecap:round;" d="M53.8 43.87c0.59 1.21 1.19 2.22 1.19 3.83c0 1.61 0.69 35.64 0.69 45.3"></path>
<path style="fill:none; fill-opacity:0%; fill-rule:evenodd; stroke:#aaaaaa; stroke-opacity:100%; stroke-width: 1.5pt; stroke-linejoin:round; stroke-linecap:round;" d="M54.85 45.74c3.35-0.2 30.57-3.29 33.62-3.64c1.94-0.22 2.73 1.32 2.72 3.86c-0.01 4.34-1.03 32-1.66 45.29"></path>
<path style="fill:none; fill-opacity:0%; fill-rule:evenodd; stroke:#aaaaaa; stroke-opacity:100%; stroke-width: 1.5pt; stroke-linejoin:round; stroke-linecap:round;" d="M55.31 64.93c7.03-0.61 29.92-3.3 35.05-3.3"></path>
<path style="fill:none; fill-opacity:0%; fill-rule:evenodd; stroke:#aaaaaa; stroke-opacity:100%; stroke-width: 1.5pt; stroke-linejoin:round; stroke-linecap:round;" d="M56.48 89.35c8.41-0.65 24.38-2.19 33.35-2.49"></path>

<path style="fill:none; fill-opacity:0%; fill-rule:evenodd; stroke:#000000; stroke-opacity:100%; stroke-width: 3pt; stroke-linejoin:round; stroke-linecap:round;" d="M23.33 13.25c3.41 2.71 7.07 6.77 10 11.5"></path>
<path style="fill:none; fill-opacity:0%; fill-rule:evenodd; stroke:#000000; stroke-opacity:100%; stroke-width: 3pt; stroke-linejoin:round; stroke-linecap:round;" d="M14.2 36.36c0.94 0.39 2.36 0.81 3.96 0.61c3.84-0.47 17.87-3.83 20.19-4.49c2.33-0.66 4.58 0.83 3.26 2.85C33.86 47.15 24.4 60.02 13 69"></path>
<path style="fill:none; fill-opacity:0%; fill-rule:evenodd; stroke:#000000; stroke-opacity:100%; stroke-width: 3pt; stroke-linejoin:round; stroke-linecap:round;" d="M30 52.61c0.12 0.29 1.65 1.53 1.77 3.39c0.57 8.93 0.06 35.7 0.06 38.75"></path>
<path style="fill:none; fill-opacity:0%; fill-rule:evenodd; stroke:#000000; stroke-opacity:100%; stroke-width: 3pt; stroke-linejoin:round; stroke-linecap:round;" d="M45.31 44.89c0.15 0.91 0.3 1.16 0 1.82c-0.92 2-3.76 6.92-5.61 9.29"></path>
<path style="fill:none; fill-opacity:0%; fill-rule:evenodd; stroke:#000000; stroke-opacity:100%; stroke-width: 3pt; stroke-linejoin:round; stroke-linecap:round;" d="M35.08 56.75c3.59 2.18 7.43 5.44 10.5 9.25"></path>
<path style="fill:none; fill-opacity:0%; fill-rule:evenodd; stroke:#000000; stroke-opacity:100%; stroke-width: 3pt; stroke-linejoin:round; stroke-linecap:round;" d="M70.41 16c0.5 1.02 0.68 2.31 0.46 3.15c-1.63 6.18-5.21 17.27-10.68 24.31"></path>
<path style="fill:none; fill-opacity:0%; fill-rule:evenodd; stroke:#000000; stroke-opacity:100%; stroke-width: 3pt; stroke-linejoin:round; stroke-linecap:round;" d="M53.8 43.87c0.59 1.21 1.19 2.22 1.19 3.83c0 1.61 0.69 35.64 0.69 45.3"></path>
<path style="fill:none; fill-opacity:0%; fill-rule:evenodd; stroke:#000000; stroke-opacity:100%; stroke-width: 3pt; stroke-linejoin:round; stroke-linecap:round;" d="M54.85 45.74c3.35-0.2 30.57-3.29 33.62-3.64c1.94-0.22 2.73 1.32 2.72 3.86c-0.01 4.34-1.03 32-1.66 45.29"></path>
<text x="5" y="20" font-size="20" fill="#999999">9</text><path style="fill:none; fill-opacity:0%; fill-rule:evenodd; stroke:#CC0000; stroke-opacity:100%; stroke-width: 3pt; stroke-linejoin:round; stroke-linecap:round;" d="M55.31 64.93c7.03-0.61 29.92-3.3 35.05-3.3" marker-end="url(#TriangleRed)" marker-start="url(#ArrowRed)" ></path>


</g><g transform="scale(1.3761467889908 1.3761467889908) translate(436, 109)">
<path style="fill:none; fill-rule:evenodd; stroke:#aaaaaa;  stroke-width:1pt; stroke-linecap:round;" d="m 109 0 L 0 0 L 0 109 L 109 109 L 109 0"></path><path style="fill:none; fill-opacity:0%; fill-rule:evenodd; stroke:#aaaaaa; stroke-opacity:100%; stroke-width: 1.5pt; stroke-linejoin:round; stroke-linecap:round;" d="M23.33 13.25c3.41 2.71 7.07 6.77 10 11.5"></path>
<path style="fill:none; fill-opacity:0%; fill-rule:evenodd; stroke:#aaaaaa; stroke-opacity:100%; stroke-width: 1.5pt; stroke-linejoin:round; stroke-linecap:round;" d="M14.2 36.36c0.94 0.39 2.36 0.81 3.96 0.61c3.84-0.47 17.87-3.83 20.19-4.49c2.33-0.66 4.58 0.83 3.26 2.85C33.86 47.15 24.4 60.02 13 69"></path>
<path style="fill:none; fill-opacity:0%; fill-rule:evenodd; stroke:#aaaaaa; stroke-opacity:100%; stroke-width: 1.5pt; stroke-linejoin:round; stroke-linecap:round;" d="M30 52.61c0.12 0.29 1.65 1.53 1.77 3.39c0.57 8.93 0.06 35.7 0.06 38.75"></path>
<path style="fill:none; fill-opacity:0%; fill-rule:evenodd; stroke:#aaaaaa; stroke-opacity:100%; stroke-width: 1.5pt; stroke-linejoin:round; stroke-linecap:round;" d="M45.31 44.89c0.15 0.91 0.3 1.16 0 1.82c-0.92 2-3.76 6.92-5.61 9.29"></path>
<path style="fill:none; fill-opacity:0%; fill-rule:evenodd; stroke:#aaaaaa; stroke-opacity:100%; stroke-width: 1.5pt; stroke-linejoin:round; stroke-linecap:round;" d="M35.08 56.75c3.59 2.18 7.43 5.44 10.5 9.25"></path>
<path style="fill:none; fill-opacity:0%; fill-rule:evenodd; stroke:#aaaaaa; stroke-opacity:100%; stroke-width: 1.5pt; stroke-linejoin:round; stroke-linecap:round;" d="M70.41 16c0.5 1.02 0.68 2.31 0.46 3.15c-1.63 6.18-5.21 17.27-10.68 24.31"></path>
<path style="fill:none; fill-opacity:0%; fill-rule:evenodd; stroke:#aaaaaa; stroke-opacity:100%; stroke-width: 1.5pt; stroke-linejoin:round; stroke-linecap:round;" d="M53.8 43.87c0.59 1.21 1.19 2.22 1.19 3.83c0 1.61 0.69 35.64 0.69 45.3"></path>
<path style="fill:none; fill-opacity:0%; fill-rule:evenodd; stroke:#aaaaaa; stroke-opacity:100%; stroke-width: 1.5pt; stroke-linejoin:round; stroke-linecap:round;" d="M54.85 45.74c3.35-0.2 30.57-3.29 33.62-3.64c1.94-0.22 2.73 1.32 2.72 3.86c-0.01 4.34-1.03 32-1.66 45.29"></path>
<path style="fill:none; fill-opacity:0%; fill-rule:evenodd; stroke:#aaaaaa; stroke-opacity:100%; stroke-width: 1.5pt; stroke-linejoin:round; stroke-linecap:round;" d="M55.31 64.93c7.03-0.61 29.92-3.3 35.05-3.3"></path>
<path style="fill:none; fill-opacity:0%; fill-rule:evenodd; stroke:#aaaaaa; stroke-opacity:100%; stroke-width: 1.5pt; stroke-linejoin:round; stroke-linecap:round;" d="M56.48 89.35c8.41-0.65 24.38-2.19 33.35-2.49"></path>

<path style="fill:none; fill-opacity:0%; fill-rule:evenodd; stroke:#000000; stroke-opacity:100%; stroke-width: 3pt; stroke-linejoin:round; stroke-linecap:round;" d="M23.33 13.25c3.41 2.71 7.07 6.77 10 11.5"></path>
<path style="fill:none; fill-opacity:0%; fill-rule:evenodd; stroke:#000000; stroke-opacity:100%; stroke-width: 3pt; stroke-linejoin:round; stroke-linecap:round;" d="M14.2 36.36c0.94 0.39 2.36 0.81 3.96 0.61c3.84-0.47 17.87-3.83 20.19-4.49c2.33-0.66 4.58 0.83 3.26 2.85C33.86 47.15 24.4 60.02 13 69"></path>
<path style="fill:none; fill-opacity:0%; fill-rule:evenodd; stroke:#000000; stroke-opacity:100%; stroke-width: 3pt; stroke-linejoin:round; stroke-linecap:round;" d="M30 52.61c0.12 0.29 1.65 1.53 1.77 3.39c0.57 8.93 0.06 35.7 0.06 38.75"></path>
<path style="fill:none; fill-opacity:0%; fill-rule:evenodd; stroke:#000000; stroke-opacity:100%; stroke-width: 3pt; stroke-linejoin:round; stroke-linecap:round;" d="M45.31 44.89c0.15 0.91 0.3 1.16 0 1.82c-0.92 2-3.76 6.92-5.61 9.29"></path>
<path style="fill:none; fill-opacity:0%; fill-rule:evenodd; stroke:#000000; stroke-opacity:100%; stroke-width: 3pt; stroke-linejoin:round; stroke-linecap:round;" d="M35.08 56.75c3.59 2.18 7.43 5.44 10.5 9.25"></path>
<path style="fill:none; fill-opacity:0%; fill-rule:evenodd; stroke:#000000; stroke-opacity:100%; stroke-width: 3pt; stroke-linejoin:round; stroke-linecap:round;" d="M70.41 16c0.5 1.02 0.68 2.31 0.46 3.15c-1.63 6.18-5.21 17.27-10.68 24.31"></path>
<path style="fill:none; fill-opacity:0%; fill-rule:evenodd; stroke:#000000; stroke-opacity:100%; stroke-width: 3pt; stroke-linejoin:round; stroke-linecap:round;" d="M53.8 43.87c0.59 1.21 1.19 2.22 1.19 3.83c0 1.61 0.69 35.64 0.69 45.3"></path>
<path style="fill:none; fill-opacity:0%; fill-rule:evenodd; stroke:#000000; stroke-opacity:100%; stroke-width: 3pt; stroke-linejoin:round; stroke-linecap:round;" d="M54.85 45.74c3.35-0.2 30.57-3.29 33.62-3.64c1.94-0.22 2.73 1.32 2.72 3.86c-0.01 4.34-1.03 32-1.66 45.29"></path>
<path style="fill:none; fill-opacity:0%; fill-rule:evenodd; stroke:#000000; stroke-opacity:100%; stroke-width: 3pt; stroke-linejoin:round; stroke-linecap:round;" d="M55.31 64.93c7.03-0.61 29.92-3.3 35.05-3.3"></path>
<text x="5" y="20" font-size="20" fill="#999999">10</text><path style="fill:none; fill-opacity:0%; fill-rule:evenodd; stroke:#CC0000; stroke-opacity:100%; stroke-width: 3pt; stroke-linejoin:round; stroke-linecap:round;" d="M56.48 89.35c8.41-0.65 24.38-2.19 33.35-2.49" marker-end="url(#TriangleRed)" marker-start="url(#ArrowRed)" ></path>

</g>

</svg>  
          
