<?xml version="1.0" standalone="no"?>
<!DOCTYPE svg PUBLIC "-//W3C//DTD SVG 1.1//EN"   "http://www.w3.org/Graphics/SVG/1.1/DTD/svg11.dtd">
<svg width="751" height="301"  version="1.1" xmlns="http://www.w3.org/2000/svg">
  <defs>
    <marker id="Triangle" viewBox="0 0 10 10" refX="0" refY="5" markerUnits="strokeWidth" markerWidth="3" style="stroke-opacity:0%;fill:#aaaaaa;" markerHeight="2" orient="auto">
      <path d="M 0 0 L 10 5 L 0 10 z" />
    </marker>
    
    <marker id="Arrow" viewBox="0 0 10 10" refX="5" refY="5" markerUnits="strokeWidth" markerWidth="1.8" style="stroke-opacity:0%;fill:#770000;" markerHeight="2" orient="auto">
      <path d="M 0 4 L 6 4 L 4 1 L 10 5 L 4 9 L 6 6 L 0 6 z" />
        <circle cx="5" cy="5" r="5" />
      </marker>
    
    <marker id="TriangleRed" viewBox="0 0 10 10" refX="0" refY="5" markerUnits="strokeWidth" markerWidth="3" style="stroke-opacity:0%;fill:#CC0000;" markerHeight="2" orient="auto">
      <path d="M 0 0 L 10 5 L 0 10 z" />
    </marker>
    
    <marker id="ArrowRed" viewBox="0 0 10 10" refX="5" refY="5" markerUnits="strokeWidth" markerWidth="1.8" style="stroke-opacity:0%;fill:#CC0000;" markerHeight="2" orient="auto">
      <path d="M 0 4 L 6 4 L 4 1 L 10 5 L 4 9 L 6 6 L 0 6 z" />
        <circle cx="5" cy="5" r="5" />
      </marker>
    
  </defs>
  
  <path style="fill:#ffffff; fill-opacity:100%; fill-rule:evenodd; stroke-width:0;" d="M 0 0 L 751 0 L 751 301 L 0 301 L 0 0" />

  <g transform="scale(1.3761467889908 1.3761467889908) translate(0, 0)">
<path style="fill:none; fill-rule:evenodd; stroke:#aaaaaa;  stroke-width:1pt; stroke-linecap:round;" d="m 109 0 L 0 0 L 0 109 L 109 109 L 109 0"></path><path style="fill:none; fill-opacity:0%; fill-rule:evenodd; stroke:#aaaaaa; stroke-opacity:100%; stroke-width: 1.5pt; stroke-linejoin:round; stroke-linecap:round;" d="M20.33 12.75c3.41 2.82 7.07 7.06 10 12"></path>
<path style="fill:none; fill-opacity:0%; fill-rule:evenodd; stroke:#aaaaaa; stroke-opacity:100%; stroke-width: 1.5pt; stroke-linejoin:round; stroke-linecap:round;" d="M13.2 36.36c0.94 0.39 3.35 0.73 4.96 0.61c2.84-0.22 16.37-3.33 18.69-3.99c2.33-0.66 4.58 0.83 3.26 2.85C32.36 47.65 23.4 60.52 12 69.5"></path>
<path style="fill:none; fill-opacity:0%; fill-rule:evenodd; stroke:#aaaaaa; stroke-opacity:100%; stroke-width: 1.5pt; stroke-linejoin:round; stroke-linecap:round;" d="M29 52.11c0.12 0.29 1.65 1.53 1.77 3.39c0.57 8.93 0.06 38.2 0.06 41.25"></path>
<path style="fill:none; fill-opacity:0%; fill-rule:evenodd; stroke:#aaaaaa; stroke-opacity:100%; stroke-width: 1.5pt; stroke-linejoin:round; stroke-linecap:round;" d="M42.78 45.89c0.17 0.91 0.34 1.16 0 1.82c-1.04 2-4.25 6.92-6.33 9.29"></path>
<path style="fill:none; fill-opacity:0%; fill-rule:evenodd; stroke:#aaaaaa; stroke-opacity:100%; stroke-width: 1.5pt; stroke-linejoin:round; stroke-linecap:round;" d="M34.58 58.25c3.07 2.41 6.37 6.03 9 10.25"></path>
<path style="fill:none; fill-opacity:0%; fill-rule:evenodd; stroke:#aaaaaa; stroke-opacity:100%; stroke-width: 1.5pt; stroke-linejoin:round; stroke-linecap:round;" d="M54.56 19.16c0.69 1.09 1.15 2.72 1.51 4.16c1.42 5.68 1.83 51.34 2 52.83"></path>
<path style="fill:none; fill-opacity:0%; fill-rule:evenodd; stroke:#aaaaaa; stroke-opacity:100%; stroke-width: 1.5pt; stroke-linejoin:round; stroke-linecap:round;" d="M56.42 20.85c2.86-0.19 23.08-2.38 25.68-2.6c2.17-0.19 3.56 2.06 3.39 3.16c-0.34 2.23-0.67 51.89-0.67 53"></path>
<path style="fill:none; fill-opacity:0%; fill-rule:evenodd; stroke:#aaaaaa; stroke-opacity:100%; stroke-width: 1.5pt; stroke-linejoin:round; stroke-linecap:round;" d="M57.42 45.39c3.86 0 22.86-1.86 27.23-1.86"></path>
<path style="fill:none; fill-opacity:0%; fill-rule:evenodd; stroke:#aaaaaa; stroke-opacity:100%; stroke-width: 1.5pt; stroke-linejoin:round; stroke-linecap:round;" d="M57.92 73.6c8.83-0.85 18.58-2.1 26.9-2.49"></path>
<path style="fill:none; fill-opacity:0%; fill-rule:evenodd; stroke:#aaaaaa; stroke-opacity:100%; stroke-width: 1.5pt; stroke-linejoin:round; stroke-linecap:round;" d="M44.3 91.56c1.11 0.45 3.16 0.47 4.27 0.45c9.85-0.22 31.95-2.95 43.47-2.94c1.86 0 2.97 0.21 3.9 0.43"></path>

<text x="5" y="20" font-size="20" fill="#999999">1</text><path style="fill:none; fill-opacity:0%; fill-rule:evenodd; stroke:#CC0000; stroke-opacity:100%; stroke-width: 3pt; stroke-linejoin:round; stroke-linecap:round;" d="M20.33 12.75c3.41 2.82 7.07 7.06 10 12" marker-end="url(#TriangleRed)" marker-start="url(#ArrowRed)" ></path>










</g><g transform="scale(1.3761467889908 1.3761467889908) translate(109, 0)">
<path style="fill:none; fill-rule:evenodd; stroke:#aaaaaa;  stroke-width:1pt; stroke-linecap:round;" d="m 109 0 L 0 0 L 0 109 L 109 109 L 109 0"></path><path style="fill:none; fill-opacity:0%; fill-rule:evenodd; stroke:#aaaaaa; stroke-opacity:100%; stroke-width: 1.5pt; stroke-linejoin:round; stroke-linecap:round;" d="M20.33 12.75c3.41 2.82 7.07 7.06 10 12"></path>
<path style="fill:none; fill-opacity:0%; fill-rule:evenodd; stroke:#aaaaaa; stroke-opacity:100%; stroke-width: 1.5pt; stroke-linejoin:round; stroke-linecap:round;" d="M13.2 36.36c0.94 0.39 3.35 0.73 4.96 0.61c2.84-0.22 16.37-3.33 18.69-3.99c2.33-0.66 4.58 0.83 3.26 2.85C32.36 47.65 23.4 60.52 12 69.5"></path>
<path style="fill:none; fill-opacity:0%; fill-rule:evenodd; stroke:#aaaaaa; stroke-opacity:100%; stroke-width: 1.5pt; stroke-linejoin:round; stroke-linecap:round;" d="M29 52.11c0.12 0.29 1.65 1.53 1.77 3.39c0.57 8.93 0.06 38.2 0.06 41.25"></path>
<path style="fill:none; fill-opacity:0%; fill-rule:evenodd; stroke:#aaaaaa; stroke-opacity:100%; stroke-width: 1.5pt; stroke-linejoin:round; stroke-linecap:round;" d="M42.78 45.89c0.17 0.91 0.34 1.16 0 1.82c-1.04 2-4.25 6.92-6.33 9.29"></path>
<path style="fill:none; fill-opacity:0%; fill-rule:evenodd; stroke:#aaaaaa; stroke-opacity:100%; stroke-width: 1.5pt; stroke-linejoin:round; stroke-linecap:round;" d="M34.58 58.25c3.07 2.41 6.37 6.03 9 10.25"></path>
<path style="fill:none; fill-opacity:0%; fill-rule:evenodd; stroke:#aaaaaa; stroke-opacity:100%; stroke-width: 1.5pt; stroke-linejoin:round; stroke-linecap:round;" d="M54.56 19.16c0.69 1.09 1.15 2.72 1.51 4.16c1.42 5.68 1.83 51.34 2 52.83"></path>
<path style="fill:none; fill-opacity:0%; fill-rule:evenodd; stroke:#aaaaaa; stroke-opacity:100%; stroke-width: 1.5pt; stroke-linejoin:round; stroke-linecap:round;" d="M56.42 20.85c2.86-0.19 23.08-2.38 25.68-2.6c2.17-0.19 3.56 2.06 3.39 3.16c-0.34 2.23-0.67 51.89-0.67 53"></path>
<path style="fill:none; fill-opacity:0%; fill-rule:evenodd; stroke:#aaaaaa; stroke-opacity:100%; stroke-width: 1.5pt; stroke-linejoin:round; stroke-linecap:round;" d="M57.42 45.39c3.86 0 22.86-1.86 27.23-1.86"></path>
<path style="fill:none; fill-opacity:0%; fill-rule:evenodd; stroke:#aaaaaa; stroke-opacity:100%; stroke-width: 1.5pt; stroke-linejoin:round; stroke-linecap:round;" d="M57.92 73.6c8.83-0.85 18.58-2.1 26.9-2.49"></path>
<path style="fill:none; fill-opacity:0%; fill-rule:evenodd; stroke:#aaaaaa; stroke-opacity:100%; stroke-width: 1.5pt; stroke-linejoin:round; stroke-linecap:round;" d="M44.3 91.56c1.11 0.45 3.16 0.47 4.27 0.45c9.85-0.22 31.95-2.95 43.47-2.94c1.86 0 2.97 0.21 3.9 0.43"></path>

<path style="fill:none; fill-opacity:0%; fill-rule:evenodd; stroke:#000000; stroke-opacity:100%; stroke-width: 3pt; stroke-linejoin:round; stroke-linecap:round;" d="M20.33 12.75c3.41 2.82 7.07 7.06 10 12"></path>
<text x="5" y="20" font-size="20" fill="#999999">2</text><path style="fill:none; fill-opacity:0%; fill-rule:evenodd; stroke:#CC0000; stroke-opacity:100%; stroke-width: 3pt; stroke-linejoin:round; stroke-linecap:round;" d="M13.2 36.36c0.94 0.39 3.35 0.73 4.96 0.61c2.84-0.22 16.37-3.33 18.69-3.99c2.33-0.66 4.58 0.83 3.26 2.85C32.36 47.65 23.4 60.52 12 69.5" marker-end="url(#TriangleRed)" marker-start="url(#ArrowRed)" ></path>









</g><g transform="scale(1.3761467889908 1.3761467889908) translate(218, 0)">
<path style="fill:none; fill-rule:evenodd; stroke:#aaaaaa;  stroke-width:1pt; stroke-linecap:round;" d="m 109 0 L 0 0 L 0 109 L 109 109 L 109 0"></path><path style="fill:none; fill-opacity:0%; fill-rule:evenodd; stroke:#aaaaaa; stroke-opacity:100%; stroke-width: 1.5pt; stroke-linejoin:round; stroke-linecap:round;" d="M20.33 12.75c3.41 2.82 7.07 7.06 10 12"></path>
<path style="fill:none; fill-opacity:0%; fill-rule:evenodd; stroke:#aaaaaa; stroke-opacity:100%; stroke-width: 1.5pt; stroke-linejoin:round; stroke-linecap:round;" d="M13.2 36.36c0.94 0.39 3.35 0.73 4.96 0.61c2.84-0.22 16.37-3.33 18.69-3.99c2.33-0.66 4.58 0.83 3.26 2.85C32.36 47.65 23.4 60.52 12 69.5"></path>
<path style="fill:none; fill-opacity:0%; fill-rule:evenodd; stroke:#aaaaaa; stroke-opacity:100%; stroke-width: 1.5pt; stroke-linejoin:round; stroke-linecap:round;" d="M29 52.11c0.12 0.29 1.65 1.53 1.77 3.39c0.57 8.93 0.06 38.2 0.06 41.25"></path>
<path style="fill:none; fill-opacity:0%; fill-rule:evenodd; stroke:#aaaaaa; stroke-opacity:100%; stroke-width: 1.5pt; stroke-linejoin:round; stroke-linecap:round;" d="M42.78 45.89c0.17 0.91 0.34 1.16 0 1.82c-1.04 2-4.25 6.92-6.33 9.29"></path>
<path style="fill:none; fill-opacity:0%; fill-rule:evenodd; stroke:#aaaaaa; stroke-opacity:100%; stroke-width: 1.5pt; stroke-linejoin:round; stroke-linecap:round;" d="M34.58 58.25c3.07 2.41 6.37 6.03 9 10.25"></path>
<path style="fill:none; fill-opacity:0%; fill-rule:evenodd; stroke:#aaaaaa; stroke-opacity:100%; stroke-width: 1.5pt; stroke-linejoin:round; stroke-linecap:round;" d="M54.56 19.16c0.69 1.09 1.15 2.72 1.51 4.16c1.42 5.68 1.83 51.34 2 52.83"></path>
<path style="fill:none; fill-opacity:0%; fill-rule:evenodd; stroke:#aaaaaa; stroke-opacity:100%; stroke-width: 1.5pt; stroke-linejoin:round; stroke-linecap:round;" d="M56.42 20.85c2.86-0.19 23.08-2.38 25.68-2.6c2.17-0.19 3.56 2.06 3.39 3.16c-0.34 2.23-0.67 51.89-0.67 53"></path>
<path style="fill:none; fill-opacity:0%; fill-rule:evenodd; stroke:#aaaaaa; stroke-opacity:100%; stroke-width: 1.5pt; stroke-linejoin:round; stroke-linecap:round;" d="M57.42 45.39c3.86 0 22.86-1.86 27.23-1.86"></path>
<path style="fill:none; fill-opacity:0%; fill-rule:evenodd; stroke:#aaaaaa; stroke-opacity:100%; stroke-width: 1.5pt; stroke-linejoin:round; stroke-linecap:round;" d="M57.92 73.6c8.83-0.85 18.58-2.1 26.9-2.49"></path>
<path style="fill:none; fill-opacity:0%; fill-rule:evenodd; stroke:#aaaaaa; stroke-opacity:100%; stroke-width: 1.5pt; stroke-linejoin:round; stroke-linecap:round;" d="M44.3 91.56c1.11 0.45 3.16 0.47 4.27 0.45c9.85-0.22 31.95-2.95 43.47-2.94c1.86 0 2.97 0.21 3.9 0.43"></path>

<path style="fill:none; fill-opacity:0%; fill-rule:evenodd; stroke:#000000; stroke-opacity:100%; stroke-width: 3pt; stroke-linejoin:round; stroke-linecap:round;" d="M20.33 12.75c3.41 2.82 7.07 7.06 10 12"></path>
<path style="fill:none; fill-opacity:0%; fill-rule:evenodd; stroke:#000000; stroke-opacity:100%; stroke-width: 3pt; stroke-linejoin:round; stroke-linecap:round;" d="M13.2 36.36c0.94 0.39 3.35 0.73 4.96 0.61c2.84-0.22 16.37-3.33 18.69-3.99c2.33-0.66 4.58 0.83 3.26 2.85C32.36 47.65 23.4 60.52 12 69.5"></path>
<text x="5" y="20" font-size="20" fill="#999999">3</text><path style="fill:none; fill-opacity:0%; fill-rule:evenodd; stroke:#CC0000; stroke-opacity:100%; stroke-width: 3pt; stroke-linejoin:round; stroke-linecap:round;" d="M29 52.11c0.12 0.29 1.65 1.53 1.77 3.39c0.57 8.93 0.06 38.2 0.06 41.25" marker-end="url(#TriangleRed)" marker-start="url(#ArrowRed)" ></path>








</g><g transform="scale(1.3761467889908 1.3761467889908) translate(327, 0)">
<path style="fill:none; fill-rule:evenodd; stroke:#aaaaaa;  stroke-width:1pt; stroke-linecap:round;" d="m 109 0 L 0 0 L 0 109 L 109 109 L 109 0"></path><path style="fill:none; fill-opacity:0%; fill-rule:evenodd; stroke:#aaaaaa; stroke-opacity:100%; stroke-width: 1.5pt; stroke-linejoin:round; stroke-linecap:round;" d="M20.33 12.75c3.41 2.82 7.07 7.06 10 12"></path>
<path style="fill:none; fill-opacity:0%; fill-rule:evenodd; stroke:#aaaaaa; stroke-opacity:100%; stroke-width: 1.5pt; stroke-linejoin:round; stroke-linecap:round;" d="M13.2 36.36c0.94 0.39 3.35 0.73 4.96 0.61c2.84-0.22 16.37-3.33 18.69-3.99c2.33-0.66 4.58 0.83 3.26 2.85C32.36 47.65 23.4 60.52 12 69.5"></path>
<path style="fill:none; fill-opacity:0%; fill-rule:evenodd; stroke:#aaaaaa; stroke-opacity:100%; stroke-width: 1.5pt; stroke-linejoin:round; stroke-linecap:round;" d="M29 52.11c0.12 0.29 1.65 1.53 1.77 3.39c0.57 8.93 0.06 38.2 0.06 41.25"></path>
<path style="fill:none; fill-opacity:0%; fill-rule:evenodd; stroke:#aaaaaa; stroke-opacity:100%; stroke-width: 1.5pt; stroke-linejoin:round; stroke-linecap:round;" d="M42.78 45.89c0.17 0.91 0.34 1.16 0 1.82c-1.04 2-4.25 6.92-6.33 9.29"></path>
<path style="fill:none; fill-opacity:0%; fill-rule:evenodd; stroke:#aaaaaa; stroke-opacity:100%; stroke-width: 1.5pt; stroke-linejoin:round; stroke-linecap:round;" d="M34.58 58.25c3.07 2.41 6.37 6.03 9 10.25"></path>
<path style="fill:none; fill-opacity:0%; fill-rule:evenodd; stroke:#aaaaaa; stroke-opacity:100%; stroke-width: 1.5pt; stroke-linejoin:round; stroke-linecap:round;" d="M54.56 19.16c0.69 1.09 1.15 2.72 1.51 4.16c1.42 5.68 1.83 51.34 2 52.83"></path>
<path style="fill:none; fill-opacity:0%; fill-rule:evenodd; stroke:#aaaaaa; stroke-opacity:100%; stroke-width: 1.5pt; stroke-linejoin:round; stroke-linecap:round;" d="M56.42 20.85c2.86-0.19 23.08-2.38 25.68-2.6c2.17-0.19 3.56 2.06 3.39 3.16c-0.34 2.23-0.67 51.89-0.67 53"></path>
<path style="fill:none; fill-opacity:0%; fill-rule:evenodd; stroke:#aaaaaa; stroke-opacity:100%; stroke-width: 1.5pt; stroke-linejoin:round; stroke-linecap:round;" d="M57.42 45.39c3.86 0 22.86-1.86 27.23-1.86"></path>
<path style="fill:none; fill-opacity:0%; fill-rule:evenodd; stroke:#aaaaaa; stroke-opacity:100%; stroke-width: 1.5pt; stroke-linejoin:round; stroke-linecap:round;" d="M57.92 73.6c8.83-0.85 18.58-2.1 26.9-2.49"></path>
<path style="fill:none; fill-opacity:0%; fill-rule:evenodd; stroke:#aaaaaa; stroke-opacity:100%; stroke-width: 1.5pt; stroke-linejoin:round; stroke-linecap:round;" d="M44.3 91.56c1.11 0.45 3.16 0.47 4.27 0.45c9.85-0.22 31.95-2.95 43.47-2.94c1.86 0 2.97 0.21 3.9 0.43"></path>

<path style="fill:none; fill-opacity:0%; fill-rule:evenodd; stroke:#000000; stroke-opacity:100%; stroke-width: 3pt; stroke-linejoin:round; stroke-linecap:round;" d="M20.33 12.75c3.41 2.82 7.07 7.06 10 12"></path>
<path style="fill:none; fill-opacity:0%; fill-rule:evenodd; stroke:#000000; stroke-opacity:100%; stroke-width: 3pt; stroke-linejoin:round; stroke-linecap:round;" d="M13.2 36.36c0.94 0.39 3.35 0.73 4.96 0.61c2.84-0.22 16.37-3.33 18.69-3.99c2.33-0.66 4.58 0.83 3.26 2.85C32.36 47.65 23.4 60.52 12 69.5"></path>
<path style="fill:none; fill-opacity:0%; fill-rule:evenodd; stroke:#000000; stroke-opacity:100%; stroke-width: 3pt; stroke-linejoin:round; stroke-linecap:round;" d="M29 52.11c0.12 0.29 1.65 1.53 1.77 3.39c0.57 8.93 0.06 38.2 0.06 41.25"></path>
<text x="5" y="20" font-size="20" fill="#999999">4</text><path style="fill:none; fill-opacity:0%; fill-rule:evenodd; stroke:#CC0000; stroke-opacity:100%; stroke-width: 3pt; stroke-linejoin:round; stroke-linecap:round;" d="M42.78 45.89c0.17 0.91 0.34 1.16 0 1.82c-1.04 2-4.25 6.92-6.33 9.29" marker-end="url(#TriangleRed)" marker-start="url(#ArrowRed)" ></path>







</g><g transform="scale(1.3761467889908 1.3761467889908) translate(436, 0)">
<path style="fill:none; fill-rule:evenodd; stroke:#aaaaaa;  stroke-width:1pt; stroke-linecap:round;" d="m 109 0 L 0 0 L 0 109 L 109 109 L 109 0"></path><path style="fill:none; fill-opacity:0%; fill-rule:evenodd; stroke:#aaaaaa; stroke-opacity:100%; stroke-width: 1.5pt; stroke-linejoin:round; stroke-linecap:round;" d="M20.33 12.75c3.41 2.82 7.07 7.06 10 12"></path>
<path style="fill:none; fill-opacity:0%; fill-rule:evenodd; stroke:#aaaaaa; stroke-opacity:100%; stroke-width: 1.5pt; stroke-linejoin:round; stroke-linecap:round;" d="M13.2 36.36c0.94 0.39 3.35 0.73 4.96 0.61c2.84-0.22 16.37-3.33 18.69-3.99c2.33-0.66 4.58 0.83 3.26 2.85C32.36 47.65 23.4 60.52 12 69.5"></path>
<path style="fill:none; fill-opacity:0%; fill-rule:evenodd; stroke:#aaaaaa; stroke-opacity:100%; stroke-width: 1.5pt; stroke-linejoin:round; stroke-linecap:round;" d="M29 52.11c0.12 0.29 1.65 1.53 1.77 3.39c0.57 8.93 0.06 38.2 0.06 41.25"></path>
<path style="fill:none; fill-opacity:0%; fill-rule:evenodd; stroke:#aaaaaa; stroke-opacity:100%; stroke-width: 1.5pt; stroke-linejoin:round; stroke-linecap:round;" d="M42.78 45.89c0.17 0.91 0.34 1.16 0 1.82c-1.04 2-4.25 6.92-6.33 9.29"></path>
<path style="fill:none; fill-opacity:0%; fill-rule:evenodd; stroke:#aaaaaa; stroke-opacity:100%; stroke-width: 1.5pt; stroke-linejoin:round; stroke-linecap:round;" d="M34.58 58.25c3.07 2.41 6.37 6.03 9 10.25"></path>
<path style="fill:none; fill-opacity:0%; fill-rule:evenodd; stroke:#aaaaaa; stroke-opacity:100%; stroke-width: 1.5pt; stroke-linejoin:round; stroke-linecap:round;" d="M54.56 19.16c0.69 1.09 1.15 2.72 1.51 4.16c1.42 5.68 1.83 51.34 2 52.83"></path>
<path style="fill:none; fill-opacity:0%; fill-rule:evenodd; stroke:#aaaaaa; stroke-opacity:100%; stroke-width: 1.5pt; stroke-linejoin:round; stroke-linecap:round;" d="M56.42 20.85c2.86-0.19 23.08-2.38 25.68-2.6c2.17-0.19 3.56 2.06 3.39 3.16c-0.34 2.23-0.67 51.89-0.67 53"></path>
<path style="fill:none; fill-opacity:0%; fill-rule:evenodd; stroke:#aaaaaa; stroke-opacity:100%; stroke-width: 1.5pt; stroke-linejoin:round; stroke-linecap:round;" d="M57.42 45.39c3.86 0 22.86-1.86 27.23-1.86"></path>
<path style="fill:none; fill-opacity:0%; fill-rule:evenodd; stroke:#aaaaaa; stroke-opacity:100%; stroke-width: 1.5pt; stroke-linejoin:round; stroke-linecap:round;" d="M57.92 73.6c8.83-0.85 18.58-2.1 26.9-2.49"></path>
<path style="fill:none; fill-opacity:0%; fill-rule:evenodd; stroke:#aaaaaa; stroke-opacity:100%; stroke-width: 1.5pt; stroke-linejoin:round; stroke-linecap:round;" d="M44.3 91.56c1.11 0.45 3.16 0.47 4.27 0.45c9.85-0.22 31.95-2.95 43.47-2.94c1.86 0 2.97 0.21 3.9 0.43"></path>

<path style="fill:none; fill-opacity:0%; fill-rule:evenodd; stroke:#000000; stroke-opacity:100%; stroke-width: 3pt; stroke-linejoin:round; stroke-linecap:round;" d="M20.33 12.75c3.41 2.82 7.07 7.06 10 12"></path>
<path style="fill:none; fill-opacity:0%; fill-rule:evenodd; stroke:#000000; stroke-opacity:100%; stroke-width: 3pt; stroke-linejoin:round; stroke-linecap:round;" d="M13.2 36.36c0.94 0.39 3.35 0.73 4.96 0.61c2.84-0.22 16.37-3.33 18.69-3.99c2.33-0.66 4.58 0.83 3.26 2.85C32.36 47.65 23.4 60.52 12 69.5"></path>
<path style="fill:none; fill-opacity:0%; fill-rule:evenodd; stroke:#000000; stroke-opacity:100%; stroke-width: 3pt; stroke-linejoin:round; stroke-linecap:round;" d="M29 52.11c0.12 0.29 1.65 1.53 1.77 3.39c0.57 8.93 0.06 38.2 0.06 41.25"></path>
<path style="fill:none; fill-opacity:0%; fill-rule:evenodd; stroke:#000000; stroke-opacity:100%; stroke-width: 3pt; stroke-linejoin:round; stroke-linecap:round;" d="M42.78 45.89c0.17 0.91 0.34 1.16 0 1.82c-1.04 2-4.25 6.92-6.33 9.29"></path>
<text x="5" y="20" font-size="20" fill="#999999">5</text><path style="fill:none; fill-opacity:0%; fill-rule:evenodd; stroke:#CC0000; stroke-opacity:100%; stroke-width: 3pt; stroke-linejoin:round; stroke-linecap:round;" d="M34.58 58.25c3.07 2.41 6.37 6.03 9 10.25" marker-end="url(#TriangleRed)" marker-start="url(#ArrowRed)" ></path>






</g><g transform="scale(1.3761467889908 1.3761467889908) translate(0, 109)">
<path style="fill:none; fill-rule:evenodd; stroke:#aaaaaa;  stroke-width:1pt; stroke-linecap:round;" d="m 109 0 L 0 0 L 0 109 L 109 109 L 109 0"></path><path style="fill:none; fill-opacity:0%; fill-rule:evenodd; stroke:#aaaaaa; stroke-opacity:100%; stroke-width: 1.5pt; stroke-linejoin:round; stroke-linecap:round;" d="M20.33 12.75c3.41 2.82 7.07 7.06 10 12"></path>
<path style="fill:none; fill-opacity:0%; fill-rule:evenodd; stroke:#aaaaaa; stroke-opacity:100%; stroke-width: 1.5pt; stroke-linejoin:round; stroke-linecap:round;" d="M13.2 36.36c0.94 0.39 3.35 0.73 4.96 0.61c2.84-0.22 16.37-3.33 18.69-3.99c2.33-0.66 4.58 0.83 3.26 2.85C32.36 47.65 23.4 60.52 12 69.5"></path>
<path style="fill:none; fill-opacity:0%; fill-rule:evenodd; stroke:#aaaaaa; stroke-opacity:100%; stroke-width: 1.5pt; stroke-linejoin:round; stroke-linecap:round;" d="M29 52.11c0.12 0.29 1.65 1.53 1.77 3.39c0.57 8.93 0.06 38.2 0.06 41.25"></path>
<path style="fill:none; fill-opacity:0%; fill-rule:evenodd; stroke:#aaaaaa; stroke-opacity:100%; stroke-width: 1.5pt; stroke-linejoin:round; stroke-linecap:round;" d="M42.78 45.89c0.17 0.91 0.34 1.16 0 1.82c-1.04 2-4.25 6.92-6.33 9.29"></path>
<path style="fill:none; fill-opacity:0%; fill-rule:evenodd; stroke:#aaaaaa; stroke-opacity:100%; stroke-width: 1.5pt; stroke-linejoin:round; stroke-linecap:round;" d="M34.58 58.25c3.07 2.41 6.37 6.03 9 10.25"></path>
<path style="fill:none; fill-opacity:0%; fill-rule:evenodd; stroke:#aaaaaa; stroke-opacity:100%; stroke-width: 1.5pt; stroke-linejoin:round; stroke-linecap:round;" d="M54.56 19.16c0.69 1.09 1.15 2.72 1.51 4.16c1.42 5.68 1.83 51.34 2 52.83"></path>
<path style="fill:none; fill-opacity:0%; fill-rule:evenodd; stroke:#aaaaaa; stroke-opacity:100%; stroke-width: 1.5pt; stroke-linejoin:round; stroke-linecap:round;" d="M56.42 20.85c2.86-0.19 23.08-2.38 25.68-2.6c2.17-0.19 3.56 2.06 3.39 3.16c-0.34 2.23-0.67 51.89-0.67 53"></path>
<path style="fill:none; fill-opacity:0%; fill-rule:evenodd; stroke:#aaaaaa; stroke-opacity:100%; stroke-width: 1.5pt; stroke-linejoin:round; stroke-linecap:round;" d="M57.42 45.39c3.86 0 22.86-1.86 27.23-1.86"></path>
<path style="fill:none; fill-opacity:0%; fill-rule:evenodd; stroke:#aaaaaa; stroke-opacity:100%; stroke-width: 1.5pt; stroke-linejoin:round; stroke-linecap:round;" d="M57.92 73.6c8.83-0.85 18.58-2.1 26.9-2.49"></path>
<path style="fill:none; fill-opacity:0%; fill-rule:evenodd; stroke:#aaaaaa; stroke-opacity:100%; stroke-width: 1.5pt; stroke-linejoin:round; stroke-linecap:round;" d="M44.3 91.56c1.11 0.45 3.16 0.47 4.27 0.45c9.85-0.22 31.95-2.95 43.47-2.94c1.86 0 2.97 0.21 3.9 0.43"></path>

<path style="fill:none; fill-opacity:0%; fill-rule:evenodd; stroke:#000000; stroke-opacity:100%; stroke-width: 3pt; stroke-linejoin:round; stroke-linecap:round;" d="M20.33 12.75c3.41 2.82 7.07 7.06 10 12"></path>
<path style="fill:none; fill-opacity:0%; fill-rule:evenodd; stroke:#000000; stroke-opacity:100%; stroke-width: 3pt; stroke-linejoin:round; stroke-linecap:round;" d="M13.2 36.36c0.94 0.39 3.35 0.73 4.96 0.61c2.84-0.22 16.37-3.33 18.69-3.99c2.33-0.66 4.58 0.83 3.26 2.85C32.36 47.65 23.4 60.52 12 69.5"></path>
<path style="fill:none; fill-opacity:0%; fill-rule:evenodd; stroke:#000000; stroke-opacity:100%; stroke-width: 3pt; stroke-linejoin:round; stroke-linecap:round;" d="M29 52.11c0.12 0.29 1.65 1.53 1.77 3.39c0.57 8.93 0.06 38.2 0.06 41.25"></path>
<path style="fill:none; fill-opacity:0%; fill-rule:evenodd; stroke:#000000; stroke-opacity:100%; stroke-width: 3pt; stroke-linejoin:round; stroke-linecap:round;" d="M42.78 45.89c0.17 0.91 0.34 1.16 0 1.82c-1.04 2-4.25 6.92-6.33 9.29"></path>
<path style="fill:none; fill-opacity:0%; fill-rule:evenodd; stroke:#000000; stroke-opacity:100%; stroke-width: 3pt; stroke-linejoin:round; stroke-linecap:round;" d="M34.58 58.25c3.07 2.41 6.37 6.03 9 10.25"></path>
<text x="5" y="20" font-size="20" fill="#999999">6</text><path style="fill:none; fill-opacity:0%; fill-rule:evenodd; stroke:#CC0000; stroke-opacity:100%; stroke-width: 3pt; stroke-linejoin:round; stroke-linecap:round;" d="M54.56 19.16c0.69 1.09 1.15 2.72 1.51 4.16c1.42 5.68 1.83 51.34 2 52.83" marker-end="url(#TriangleRed)" marker-start="url(#ArrowRed)" ></path>





</g><g transform="scale(1.3761467889908 1.3761467889908) translate(109, 109)">
<path style="fill:none; fill-rule:evenodd; stroke:#aaaaaa;  stroke-width:1pt; stroke-linecap:round;" d="m 109 0 L 0 0 L 0 109 L 109 109 L 109 0"></path><path style="fill:none; fill-opacity:0%; fill-rule:evenodd; stroke:#aaaaaa; stroke-opacity:100%; stroke-width: 1.5pt; stroke-linejoin:round; stroke-linecap:round;" d="M20.33 12.75c3.41 2.82 7.07 7.06 10 12"></path>
<path style="fill:none; fill-opacity:0%; fill-rule:evenodd; stroke:#aaaaaa; stroke-opacity:100%; stroke-width: 1.5pt; stroke-linejoin:round; stroke-linecap:round;" d="M13.2 36.36c0.94 0.39 3.35 0.73 4.96 0.61c2.84-0.22 16.37-3.33 18.69-3.99c2.33-0.66 4.58 0.83 3.26 2.85C32.36 47.65 23.4 60.52 12 69.5"></path>
<path style="fill:none; fill-opacity:0%; fill-rule:evenodd; stroke:#aaaaaa; stroke-opacity:100%; stroke-width: 1.5pt; stroke-linejoin:round; stroke-linecap:round;" d="M29 52.11c0.12 0.29 1.65 1.53 1.77 3.39c0.57 8.93 0.06 38.2 0.06 41.25"></path>
<path style="fill:none; fill-opacity:0%; fill-rule:evenodd; stroke:#aaaaaa; stroke-opacity:100%; stroke-width: 1.5pt; stroke-linejoin:round; stroke-linecap:round;" d="M42.78 45.89c0.17 0.91 0.34 1.16 0 1.82c-1.04 2-4.25 6.92-6.33 9.29"></path>
<path style="fill:none; fill-opacity:0%; fill-rule:evenodd; stroke:#aaaaaa; stroke-opacity:100%; stroke-width: 1.5pt; stroke-linejoin:round; stroke-linecap:round;" d="M34.58 58.25c3.07 2.41 6.37 6.03 9 10.25"></path>
<path style="fill:none; fill-opacity:0%; fill-rule:evenodd; stroke:#aaaaaa; stroke-opacity:100%; stroke-width: 1.5pt; stroke-linejoin:round; stroke-linecap:round;" d="M54.56 19.16c0.69 1.09 1.15 2.72 1.51 4.16c1.42 5.68 1.83 51.34 2 52.83"></path>
<path style="fill:none; fill-opacity:0%; fill-rule:evenodd; stroke:#aaaaaa; stroke-opacity:100%; stroke-width: 1.5pt; stroke-linejoin:round; stroke-linecap:round;" d="M56.42 20.85c2.86-0.19 23.08-2.38 25.68-2.6c2.17-0.19 3.56 2.06 3.39 3.16c-0.34 2.23-0.67 51.89-0.67 53"></path>
<path style="fill:none; fill-opacity:0%; fill-rule:evenodd; stroke:#aaaaaa; stroke-opacity:100%; stroke-width: 1.5pt; stroke-linejoin:round; stroke-linecap:round;" d="M57.42 45.39c3.86 0 22.86-1.86 27.23-1.86"></path>
<path style="fill:none; fill-opacity:0%; fill-rule:evenodd; stroke:#aaaaaa; stroke-opacity:100%; stroke-width: 1.5pt; stroke-linejoin:round; stroke-linecap:round;" d="M57.92 73.6c8.83-0.85 18.58-2.1 26.9-2.49"></path>
<path style="fill:none; fill-opacity:0%; fill-rule:evenodd; stroke:#aaaaaa; stroke-opacity:100%; stroke-width: 1.5pt; stroke-linejoin:round; stroke-linecap:round;" d="M44.3 91.56c1.11 0.45 3.16 0.47 4.27 0.45c9.85-0.22 31.95-2.95 43.47-2.94c1.86 0 2.97 0.21 3.9 0.43"></path>

<path style="fill:none; fill-opacity:0%; fill-rule:evenodd; stroke:#000000; stroke-opacity:100%; stroke-width: 3pt; stroke-linejoin:round; stroke-linecap:round;" d="M20.33 12.75c3.41 2.82 7.07 7.06 10 12"></path>
<path style="fill:none; fill-opacity:0%; fill-rule:evenodd; stroke:#000000; stroke-opacity:100%; stroke-width: 3pt; stroke-linejoin:round; stroke-linecap:round;" d="M13.2 36.36c0.94 0.39 3.35 0.73 4.96 0.61c2.84-0.22 16.37-3.33 18.69-3.99c2.33-0.66 4.58 0.83 3.26 2.85C32.36 47.65 23.4 60.52 12 69.5"></path>
<path style="fill:none; fill-opacity:0%; fill-rule:evenodd; stroke:#000000; stroke-opacity:100%; stroke-width: 3pt; stroke-linejoin:round; stroke-linecap:round;" d="M29 52.11c0.12 0.29 1.65 1.53 1.77 3.39c0.57 8.93 0.06 38.2 0.06 41.25"></path>
<path style="fill:none; fill-opacity:0%; fill-rule:evenodd; stroke:#000000; stroke-opacity:100%; stroke-width: 3pt; stroke-linejoin:round; stroke-linecap:round;" d="M42.78 45.89c0.17 0.91 0.34 1.16 0 1.82c-1.04 2-4.25 6.92-6.33 9.29"></path>
<path style="fill:none; fill-opacity:0%; fill-rule:evenodd; stroke:#000000; stroke-opacity:100%; stroke-width: 3pt; stroke-linejoin:round; stroke-linecap:round;" d="M34.58 58.25c3.07 2.41 6.37 6.03 9 10.25"></path>
<path style="fill:none; fill-opacity:0%; fill-rule:evenodd; stroke:#000000; stroke-opacity:100%; stroke-width: 3pt; stroke-linejoin:round; stroke-linecap:round;" d="M54.56 19.16c0.69 1.09 1.15 2.72 1.51 4.16c1.42 5.68 1.83 51.34 2 52.83"></path>
<text x="5" y="20" font-size="20" fill="#999999">7</text><path style="fill:none; fill-opacity:0%; fill-rule:evenodd; stroke:#CC0000; stroke-opacity:100%; stroke-width: 3pt; stroke-linejoin:round; stroke-linecap:round;" d="M56.42 20.85c2.86-0.19 23.08-2.38 25.68-2.6c2.17-0.19 3.56 2.06 3.39 3.16c-0.34 2.23-0.67 51.89-0.67 53" marker-end="url(#TriangleRed)" marker-start="url(#ArrowRed)" ></path>




</g><g transform="scale(1.3761467889908 1.3761467889908) translate(218, 109)">
<path style="fill:none; fill-rule:evenodd; stroke:#aaaaaa;  stroke-width:1pt; stroke-linecap:round;" d="m 109 0 L 0 0 L 0 109 L 109 109 L 109 0"></path><path style="fill:none; fill-opacity:0%; fill-rule:evenodd; stroke:#aaaaaa; stroke-opacity:100%; stroke-width: 1.5pt; stroke-linejoin:round; stroke-linecap:round;" d="M20.33 12.75c3.41 2.82 7.07 7.06 10 12"></path>
<path style="fill:none; fill-opacity:0%; fill-rule:evenodd; stroke:#aaaaaa; stroke-opacity:100%; stroke-width: 1.5pt; stroke-linejoin:round; stroke-linecap:round;" d="M13.2 36.36c0.94 0.39 3.35 0.73 4.96 0.61c2.84-0.22 16.37-3.33 18.69-3.99c2.33-0.66 4.58 0.83 3.26 2.85C32.36 47.65 23.4 60.52 12 69.5"></path>
<path style="fill:none; fill-opacity:0%; fill-rule:evenodd; stroke:#aaaaaa; stroke-opacity:100%; stroke-width: 1.5pt; stroke-linejoin:round; stroke-linecap:round;" d="M29 52.11c0.12 0.29 1.65 1.53 1.77 3.39c0.57 8.93 0.06 38.2 0.06 41.25"></path>
<path style="fill:none; fill-opacity:0%; fill-rule:evenodd; stroke:#aaaaaa; stroke-opacity:100%; stroke-width: 1.5pt; stroke-linejoin:round; stroke-linecap:round;" d="M42.78 45.89c0.17 0.91 0.34 1.16 0 1.82c-1.04 2-4.25 6.92-6.33 9.29"></path>
<path style="fill:none; fill-opacity:0%; fill-rule:evenodd; stroke:#aaaaaa; stroke-opacity:100%; stroke-width: 1.5pt; stroke-linejoin:round; stroke-linecap:round;" d="M34.58 58.25c3.07 2.41 6.37 6.03 9 10.25"></path>
<path style="fill:none; fill-opacity:0%; fill-rule:evenodd; stroke:#aaaaaa; stroke-opacity:100%; stroke-width: 1.5pt; stroke-linejoin:round; stroke-linecap:round;" d="M54.56 19.16c0.69 1.09 1.15 2.72 1.51 4.16c1.42 5.68 1.83 51.34 2 52.83"></path>
<path style="fill:none; fill-opacity:0%; fill-rule:evenodd; stroke:#aaaaaa; stroke-opacity:100%; stroke-width: 1.5pt; stroke-linejoin:round; stroke-linecap:round;" d="M56.42 20.85c2.86-0.19 23.08-2.38 25.68-2.6c2.17-0.19 3.56 2.06 3.39 3.16c-0.34 2.23-0.67 51.89-0.67 53"></path>
<path style="fill:none; fill-opacity:0%; fill-rule:evenodd; stroke:#aaaaaa; stroke-opacity:100%; stroke-width: 1.5pt; stroke-linejoin:round; stroke-linecap:round;" d="M57.42 45.39c3.86 0 22.86-1.86 27.23-1.86"></path>
<path style="fill:none; fill-opacity:0%; fill-rule:evenodd; stroke:#aaaaaa; stroke-opacity:100%; stroke-width: 1.5pt; stroke-linejoin:round; stroke-linecap:round;" d="M57.92 73.6c8.83-0.85 18.58-2.1 26.9-2.49"></path>
<path style="fill:none; fill-opacity:0%; fill-rule:evenodd; stroke:#aaaaaa; stroke-opacity:100%; stroke-width: 1.5pt; stroke-linejoin:round; stroke-linecap:round;" d="M44.3 91.56c1.11 0.45 3.16 0.47 4.27 0.45c9.85-0.22 31.95-2.95 43.47-2.94c1.86 0 2.97 0.21 3.9 0.43"></path>

<path style="fill:none; fill-opacity:0%; fill-rule:evenodd; stroke:#000000; stroke-opacity:100%; stroke-width: 3pt; stroke-linejoin:round; stroke-linecap:round;" d="M20.33 12.75c3.41 2.82 7.07 7.06 10 12"></path>
<path style="fill:none; fill-opacity:0%; fill-rule:evenodd; stroke:#000000; stroke-opacity:100%; stroke-width: 3pt; stroke-linejoin:round; stroke-linecap:round;" d="M13.2 36.36c0.94 0.39 3.35 0.73 4.96 0.61c2.84-0.22 16.37-3.33 18.69-3.99c2.33-0.66 4.58 0.83 3.26 2.85C32.36 47.65 23.4 60.52 12 69.5"></path>
<path style="fill:none; fill-opacity:0%; fill-rule:evenodd; stroke:#000000; stroke-opacity:100%; stroke-width: 3pt; stroke-linejoin:round; stroke-linecap:round;" d="M29 52.11c0.12 0.29 1.65 1.53 1.77 3.39c0.57 8.93 0.06 38.2 0.06 41.25"></path>
<path style="fill:none; fill-opacity:0%; fill-rule:evenodd; stroke:#000000; stroke-opacity:100%; stroke-width: 3pt; stroke-linejoin:round; stroke-linecap:round;" d="M42.78 45.89c0.17 0.91 0.34 1.16 0 1.82c-1.04 2-4.25 6.92-6.33 9.29"></path>
<path style="fill:none; fill-opacity:0%; fill-rule:evenodd; stroke:#000000; stroke-opacity:100%; stroke-width: 3pt; stroke-linejoin:round; stroke-linecap:round;" d="M34.58 58.25c3.07 2.41 6.37 6.03 9 10.25"></path>
<path style="fill:none; fill-opacity:0%; fill-rule:evenodd; stroke:#000000; stroke-opacity:100%; stroke-width: 3pt; stroke-linejoin:round; stroke-linecap:round;" d="M54.56 19.16c0.69 1.09 1.15 2.72 1.51 4.16c1.42 5.68 1.83 51.34 2 52.83"></path>
<path style="fill:none; fill-opacity:0%; fill-rule:evenodd; stroke:#000000; stroke-opacity:100%; stroke-width: 3pt; stroke-linejoin:round; stroke-linecap:round;" d="M56.42 20.85c2.86-0.19 23.08-2.38 25.68-2.6c2.17-0.19 3.56 2.06 3.39 3.16c-0.34 2.23-0.67 51.89-0.67 53"></path>
<text x="5" y="20" font-size="20" fill="#999999">8</text><path style="fill:none; fill-opacity:0%; fill-rule:evenodd; stroke:#CC0000; stroke-opacity:100%; stroke-width: 3pt; stroke-linejoin:round; stroke-linecap:round;" d="M57.42 45.39c3.86 0 22.86-1.86 27.23-1.86" marker-end="url(#TriangleRed)" marker-start="url(#ArrowRed)" ></path>



</g><g transform="scale(1.3761467889908 1.3761467889908) translate(327, 109)">
<path style="fill:none; fill-rule:evenodd; stroke:#aaaaaa;  stroke-width:1pt; stroke-linecap:round;" d="m 109 0 L 0 0 L 0 109 L 109 109 L 109 0"></path><path style="fill:none; fill-opacity:0%; fill-rule:evenodd; stroke:#aaaaaa; stroke-opacity:100%; stroke-width: 1.5pt; stroke-linejoin:round; stroke-linecap:round;" d="M20.33 12.75c3.41 2.82 7.07 7.06 10 12"></path>
<path style="fill:none; fill-opacity:0%; fill-rule:evenodd; stroke:#aaaaaa; stroke-opacity:100%; stroke-width: 1.5pt; stroke-linejoin:round; stroke-linecap:round;" d="M13.2 36.36c0.94 0.39 3.35 0.73 4.96 0.61c2.84-0.22 16.37-3.33 18.69-3.99c2.33-0.66 4.58 0.83 3.26 2.85C32.36 47.65 23.4 60.52 12 69.5"></path>
<path style="fill:none; fill-opacity:0%; fill-rule:evenodd; stroke:#aaaaaa; stroke-opacity:100%; stroke-width: 1.5pt; stroke-linejoin:round; stroke-linecap:round;" d="M29 52.11c0.12 0.29 1.65 1.53 1.77 3.39c0.57 8.93 0.06 38.2 0.06 41.25"></path>
<path style="fill:none; fill-opacity:0%; fill-rule:evenodd; stroke:#aaaaaa; stroke-opacity:100%; stroke-width: 1.5pt; stroke-linejoin:round; stroke-linecap:round;" d="M42.78 45.89c0.17 0.91 0.34 1.16 0 1.82c-1.04 2-4.25 6.92-6.33 9.29"></path>
<path style="fill:none; fill-opacity:0%; fill-rule:evenodd; stroke:#aaaaaa; stroke-opacity:100%; stroke-width: 1.5pt; stroke-linejoin:round; stroke-linecap:round;" d="M34.58 58.25c3.07 2.41 6.37 6.03 9 10.25"></path>
<path style="fill:none; fill-opacity:0%; fill-rule:evenodd; stroke:#aaaaaa; stroke-opacity:100%; stroke-width: 1.5pt; stroke-linejoin:round; stroke-linecap:round;" d="M54.56 19.16c0.69 1.09 1.15 2.72 1.51 4.16c1.42 5.68 1.83 51.34 2 52.83"></path>
<path style="fill:none; fill-opacity:0%; fill-rule:evenodd; stroke:#aaaaaa; stroke-opacity:100%; stroke-width: 1.5pt; stroke-linejoin:round; stroke-linecap:round;" d="M56.42 20.85c2.86-0.19 23.08-2.38 25.68-2.6c2.17-0.19 3.56 2.06 3.39 3.16c-0.34 2.23-0.67 51.89-0.67 53"></path>
<path style="fill:none; fill-opacity:0%; fill-rule:evenodd; stroke:#aaaaaa; stroke-opacity:100%; stroke-width: 1.5pt; stroke-linejoin:round; stroke-linecap:round;" d="M57.42 45.39c3.86 0 22.86-1.86 27.23-1.86"></path>
<path style="fill:none; fill-opacity:0%; fill-rule:evenodd; stroke:#aaaaaa; stroke-opacity:100%; stroke-width: 1.5pt; stroke-linejoin:round; stroke-linecap:round;" d="M57.92 73.6c8.83-0.85 18.58-2.1 26.9-2.49"></path>
<path style="fill:none; fill-opacity:0%; fill-rule:evenodd; stroke:#aaaaaa; stroke-opacity:100%; stroke-width: 1.5pt; stroke-linejoin:round; stroke-linecap:round;" d="M44.3 91.56c1.11 0.45 3.16 0.47 4.27 0.45c9.85-0.22 31.95-2.95 43.47-2.94c1.86 0 2.97 0.21 3.9 0.43"></path>

<path style="fill:none; fill-opacity:0%; fill-rule:evenodd; stroke:#000000; stroke-opacity:100%; stroke-width: 3pt; stroke-linejoin:round; stroke-linecap:round;" d="M20.33 12.75c3.41 2.82 7.07 7.06 10 12"></path>
<path style="fill:none; fill-opacity:0%; fill-rule:evenodd; stroke:#000000; stroke-opacity:100%; stroke-width: 3pt; stroke-linejoin:round; stroke-linecap:round;" d="M13.2 36.36c0.94 0.39 3.35 0.73 4.96 0.61c2.84-0.22 16.37-3.33 18.69-3.99c2.33-0.66 4.58 0.83 3.26 2.85C32.36 47.65 23.4 60.52 12 69.5"></path>
<path style="fill:none; fill-opacity:0%; fill-rule:evenodd; stroke:#000000; stroke-opacity:100%; stroke-width: 3pt; stroke-linejoin:round; stroke-linecap:round;" d="M29 52.11c0.12 0.29 1.65 1.53 1.77 3.39c0.57 8.93 0.06 38.2 0.06 41.25"></path>
<path style="fill:none; fill-opacity:0%; fill-rule:evenodd; stroke:#000000; stroke-opacity:100%; stroke-width: 3pt; stroke-linejoin:round; stroke-linecap:round;" d="M42.78 45.89c0.17 0.91 0.34 1.16 0 1.82c-1.04 2-4.25 6.92-6.33 9.29"></path>
<path style="fill:none; fill-opacity:0%; fill-rule:evenodd; stroke:#000000; stroke-opacity:100%; stroke-width: 3pt; stroke-linejoin:round; stroke-linecap:round;" d="M34.58 58.25c3.07 2.41 6.37 6.03 9 10.25"></path>
<path style="fill:none; fill-opacity:0%; fill-rule:evenodd; stroke:#000000; stroke-opacity:100%; stroke-width: 3pt; stroke-linejoin:round; stroke-linecap:round;" d="M54.56 19.16c0.69 1.09 1.15 2.72 1.51 4.16c1.42 5.68 1.83 51.34 2 52.83"></path>
<path style="fill:none; fill-opacity:0%; fill-rule:evenodd; stroke:#000000; stroke-opacity:100%; stroke-width: 3pt; stroke-linejoin:round; stroke-linecap:round;" d="M56.42 20.85c2.86-0.19 23.08-2.38 25.68-2.6c2.17-0.19 3.56 2.06 3.39 3.16c-0.34 2.23-0.67 51.89-0.67 53"></path>
<path style="fill:none; fill-opacity:0%; fill-rule:evenodd; stroke:#000000; stroke-opacity:100%; stroke-width: 3pt; stroke-linejoin:round; stroke-linecap:round;" d="M57.42 45.39c3.86 0 22.86-1.86 27.23-1.86"></path>
<text x="5" y="20" font-size="20" fill="#999999">9</text><path style="fill:none; fill-opacity:0%; fill-rule:evenodd; stroke:#CC0000; stroke-opacity:100%; stroke-width: 3pt; stroke-linejoin:round; stroke-linecap:round;" d="M57.92 73.6c8.83-0.85 18.58-2.1 26.9-2.49" marker-end="url(#TriangleRed)" marker-start="url(#ArrowRed)" ></path>


</g><g transform="scale(1.3761467889908 1.3761467889908) translate(436, 109)">
<path style="fill:none; fill-rule:evenodd; stroke:#aaaaaa;  stroke-width:1pt; stroke-linecap:round;" d="m 109 0 L 0 0 L 0 109 L 109 109 L 109 0"></path><path style="fill:none; fill-opacity:0%; fill-rule:evenodd; stroke:#aaaaaa; stroke-opacity:100%; stroke-width: 1.5pt; stroke-linejoin:round; stroke-linecap:round;" d="M20.33 12.75c3.41 2.82 7.07 7.06 10 12"></path>
<path style="fill:none; fill-opacity:0%; fill-rule:evenodd; stroke:#aaaaaa; stroke-opacity:100%; stroke-width: 1.5pt; stroke-linejoin:round; stroke-linecap:round;" d="M13.2 36.36c0.94 0.39 3.35 0.73 4.96 0.61c2.84-0.22 16.37-3.33 18.69-3.99c2.33-0.66 4.58 0.83 3.26 2.85C32.36 47.65 23.4 60.52 12 69.5"></path>
<path style="fill:none; fill-opacity:0%; fill-rule:evenodd; stroke:#aaaaaa; stroke-opacity:100%; stroke-width: 1.5pt; stroke-linejoin:round; stroke-linecap:round;" d="M29 52.11c0.12 0.29 1.65 1.53 1.77 3.39c0.57 8.93 0.06 38.2 0.06 41.25"></path>
<path style="fill:none; fill-opacity:0%; fill-rule:evenodd; stroke:#aaaaaa; stroke-opacity:100%; stroke-width: 1.5pt; stroke-linejoin:round; stroke-linecap:round;" d="M42.78 45.89c0.17 0.91 0.34 1.16 0 1.82c-1.04 2-4.25 6.92-6.33 9.29"></path>
<path style="fill:none; fill-opacity:0%; fill-rule:evenodd; stroke:#aaaaaa; stroke-opacity:100%; stroke-width: 1.5pt; stroke-linejoin:round; stroke-linecap:round;" d="M34.58 58.25c3.07 2.41 6.37 6.03 9 10.25"></path>
<path style="fill:none; fill-opacity:0%; fill-rule:evenodd; stroke:#aaaaaa; stroke-opacity:100%; stroke-width: 1.5pt; stroke-linejoin:round; stroke-linecap:round;" d="M54.56 19.16c0.69 1.09 1.15 2.72 1.51 4.16c1.42 5.68 1.83 51.34 2 52.83"></path>
<path style="fill:none; fill-opacity:0%; fill-rule:evenodd; stroke:#aaaaaa; stroke-opacity:100%; stroke-width: 1.5pt; stroke-linejoin:round; stroke-linecap:round;" d="M56.42 20.85c2.86-0.19 23.08-2.38 25.68-2.6c2.17-0.19 3.56 2.06 3.39 3.16c-0.34 2.23-0.67 51.89-0.67 53"></path>
<path style="fill:none; fill-opacity:0%; fill-rule:evenodd; stroke:#aaaaaa; stroke-opacity:100%; stroke-width: 1.5pt; stroke-linejoin:round; stroke-linecap:round;" d="M57.42 45.39c3.86 0 22.86-1.86 27.23-1.86"></path>
<path style="fill:none; fill-opacity:0%; fill-rule:evenodd; stroke:#aaaaaa; stroke-opacity:100%; stroke-width: 1.5pt; stroke-linejoin:round; stroke-linecap:round;" d="M57.92 73.6c8.83-0.85 18.58-2.1 26.9-2.49"></path>
<path style="fill:none; fill-opacity:0%; fill-rule:evenodd; stroke:#aaaaaa; stroke-opacity:100%; stroke-width: 1.5pt; stroke-linejoin:round; stroke-linecap:round;" d="M44.3 91.56c1.11 0.45 3.16 0.47 4.27 0.45c9.85-0.22 31.95-2.95 43.47-2.94c1.86 0 2.97 0.21 3.9 0.43"></path>

<path style="fill:none; fill-opacity:0%; fill-rule:evenodd; stroke:#000000; stroke-opacity:100%; stroke-width: 3pt; stroke-linejoin:round; stroke-linecap:round;" d="M20.33 12.75c3.41 2.82 7.07 7.06 10 12"></path>
<path style="fill:none; fill-opacity:0%; fill-rule:evenodd; stroke:#000000; stroke-opacity:100%; stroke-width: 3pt; stroke-linejoin:round; stroke-linecap:round;" d="M13.2 36.36c0.94 0.39 3.35 0.73 4.96 0.61c2.84-0.22 16.37-3.33 18.69-3.99c2.33-0.66 4.58 0.83 3.26 2.85C32.36 47.65 23.4 60.52 12 69.5"></path>
<path style="fill:none; fill-opacity:0%; fill-rule:evenodd; stroke:#000000; stroke-opacity:100%; stroke-width: 3pt; stroke-linejoin:round; stroke-linecap:round;" d="M29 52.11c0.12 0.29 1.65 1.53 1.77 3.39c0.57 8.93 0.06 38.2 0.06 41.25"></path>
<path style="fill:none; fill-opacity:0%; fill-rule:evenodd; stroke:#000000; stroke-opacity:100%; stroke-width: 3pt; stroke-linejoin:round; stroke-linecap:round;" d="M42.78 45.89c0.17 0.91 0.34 1.16 0 1.82c-1.04 2-4.25 6.92-6.33 9.29"></path>
<path style="fill:none; fill-opacity:0%; fill-rule:evenodd; stroke:#000000; stroke-opacity:100%; stroke-width: 3pt; stroke-linejoin:round; stroke-linecap:round;" d="M34.58 58.25c3.07 2.41 6.37 6.03 9 10.25"></path>
<path style="fill:none; fill-opacity:0%; fill-rule:evenodd; stroke:#000000; stroke-opacity:100%; stroke-width: 3pt; stroke-linejoin:round; stroke-linecap:round;" d="M54.56 19.16c0.69 1.09 1.15 2.72 1.51 4.16c1.42 5.68 1.83 51.34 2 52.83"></path>
<path style="fill:none; fill-opacity:0%; fill-rule:evenodd; stroke:#000000; stroke-opacity:100%; stroke-width: 3pt; stroke-linejoin:round; stroke-linecap:round;" d="M56.42 20.85c2.86-0.19 23.08-2.38 25.68-2.6c2.17-0.19 3.56 2.06 3.39 3.16c-0.34 2.23-0.67 51.89-0.67 53"></path>
<path style="fill:none; fill-opacity:0%; fill-rule:evenodd; stroke:#000000; stroke-opacity:100%; stroke-width: 3pt; stroke-linejoin:round; stroke-linecap:round;" d="M57.42 45.39c3.86 0 22.86-1.86 27.23-1.86"></path>
<path style="fill:none; fill-opacity:0%; fill-rule:evenodd; stroke:#000000; stroke-opacity:100%; stroke-width: 3pt; stroke-linejoin:round; stroke-linecap:round;" d="M57.92 73.6c8.83-0.85 18.58-2.1 26.9-2.49"></path>
<text x="5" y="20" font-size="20" fill="#999999">10</text><path style="fill:none; fill-opacity:0%; fill-rule:evenodd; stroke:#CC0000; stroke-opacity:100%; stroke-width: 3pt; stroke-linejoin:round; stroke-linecap:round;" d="M44.3 91.56c1.11 0.45 3.16 0.47 4.27 0.45c9.85-0.22 31.95-2.95 43.47-2.94c1.86 0 2.97 0.21 3.9 0.43" marker-end="url(#TriangleRed)" marker-start="url(#ArrowRed)" ></path>

</g>

</svg>  
          
