<?xml version="1.0" standalone="no"?>
<!DOCTYPE svg PUBLIC "-//W3C//DTD SVG 1.1//EN"   "http://www.w3.org/Graphics/SVG/1.1/DTD/svg11.dtd">
<svg width="751" height="301"  version="1.1" xmlns="http://www.w3.org/2000/svg">
  <defs>
    <marker id="Triangle" viewBox="0 0 10 10" refX="0" refY="5" markerUnits="strokeWidth" markerWidth="3" style="stroke-opacity:0%;fill:#aaaaaa;" markerHeight="2" orient="auto">
      <path d="M 0 0 L 10 5 L 0 10 z" />
    </marker>
    
    <marker id="Arrow" viewBox="0 0 10 10" refX="5" refY="5" markerUnits="strokeWidth" markerWidth="1.8" style="stroke-opacity:0%;fill:#770000;" markerHeight="2" orient="auto">
      <path d="M 0 4 L 6 4 L 4 1 L 10 5 L 4 9 L 6 6 L 0 6 z" />
        <circle cx="5" cy="5" r="5" />
      </marker>
    
    <marker id="TriangleRed" viewBox="0 0 10 10" refX="0" refY="5" markerUnits="strokeWidth" markerWidth="3" style="stroke-opacity:0%;fill:#CC0000;" markerHeight="2" orient="auto">
      <path d="M 0 0 L 10 5 L 0 10 z" />
    </marker>
    
    <marker id="ArrowRed" viewBox="0 0 10 10" refX="5" refY="5" markerUnits="strokeWidth" markerWidth="1.8" style="stroke-opacity:0%;fill:#CC0000;" markerHeight="2" orient="auto">
      <path d="M 0 4 L 6 4 L 4 1 L 10 5 L 4 9 L 6 6 L 0 6 z" />
        <circle cx="5" cy="5" r="5" />
      </marker>
    
  </defs>
  
  <path style="fill:#ffffff; fill-opacity:100%; fill-rule:evenodd; stroke-width:0;" d="M 0 0 L 751 0 L 751 301 L 0 301 L 0 0" />

  <g transform="scale(1.3761467889908 1.3761467889908) translate(0, 0)">
<path style="fill:none; fill-rule:evenodd; stroke:#aaaaaa;  stroke-width:1pt; stroke-linecap:round;" d="m 109 0 L 0 0 L 0 109 L 109 109 L 109 0"></path><path style="fill:none; fill-opacity:0%; fill-rule:evenodd; stroke:#aaaaaa; stroke-opacity:100%; stroke-width: 1.5pt; stroke-linejoin:round; stroke-linecap:round;" d="M22.64 23.13c1.15 0.47 3.27 0.6 4.42 0.47c7.35-0.81 44.01-5.32 51.13-4.77c1.92 0.15 3.08 0.22 4.04 0.46"></path>
<path style="fill:none; fill-opacity:0%; fill-rule:evenodd; stroke:#aaaaaa; stroke-opacity:100%; stroke-width: 1.5pt; stroke-linejoin:round; stroke-linecap:round;" d="M17 44.74c0.5 0.84 1.02 1.54 1.24 2.6c1.74 8.35 3.33 31.4 4.52 46.41"></path>
<path style="fill:none; fill-opacity:0%; fill-rule:evenodd; stroke:#aaaaaa; stroke-opacity:100%; stroke-width: 1.5pt; stroke-linejoin:round; stroke-linecap:round;" d="M18.13 46.08c12.3-1.63 63.49-5.72 69.83-6.27c2.32-0.2 3.48 1.98 3.38 3.2c-0.59 7.24-2.59 36.99-4.5 49.94"></path>
<path style="fill:none; fill-opacity:0%; fill-rule:evenodd; stroke:#aaaaaa; stroke-opacity:100%; stroke-width: 1.5pt; stroke-linejoin:round; stroke-linecap:round;" d="M44.25 74.59c6.75-1.09 11.5-2.09 21.17-3.46"></path>
<path style="fill:none; fill-opacity:0%; fill-rule:evenodd; stroke:#aaaaaa; stroke-opacity:100%; stroke-width: 1.5pt; stroke-linejoin:round; stroke-linecap:round;" d="M39.26 25.38c1.34 0.61 2.37 2.74 2.41 3.99C42 39.5 43.25 64.25 44.15 75.98"></path>
<path style="fill:none; fill-opacity:0%; fill-rule:evenodd; stroke:#aaaaaa; stroke-opacity:100%; stroke-width: 1.5pt; stroke-linejoin:round; stroke-linecap:round;" d="M63.41 23.08c1.34 0.61 1.9 2.81 1.89 5.64C65.25 40 65.5 55.75 65 73.25"></path>

<text x="5" y="20" font-size="20" fill="#999999">1</text><path style="fill:none; fill-opacity:0%; fill-rule:evenodd; stroke:#CC0000; stroke-opacity:100%; stroke-width: 3pt; stroke-linejoin:round; stroke-linecap:round;" d="M22.64 23.13c1.15 0.47 3.27 0.6 4.42 0.47c7.35-0.81 44.01-5.32 51.13-4.77c1.92 0.15 3.08 0.22 4.04 0.46" marker-end="url(#TriangleRed)" marker-start="url(#ArrowRed)" ></path>






</g><g transform="scale(1.3761467889908 1.3761467889908) translate(109, 0)">
<path style="fill:none; fill-rule:evenodd; stroke:#aaaaaa;  stroke-width:1pt; stroke-linecap:round;" d="m 109 0 L 0 0 L 0 109 L 109 109 L 109 0"></path><path style="fill:none; fill-opacity:0%; fill-rule:evenodd; stroke:#aaaaaa; stroke-opacity:100%; stroke-width: 1.5pt; stroke-linejoin:round; stroke-linecap:round;" d="M22.64 23.13c1.15 0.47 3.27 0.6 4.42 0.47c7.35-0.81 44.01-5.32 51.13-4.77c1.92 0.15 3.08 0.22 4.04 0.46"></path>
<path style="fill:none; fill-opacity:0%; fill-rule:evenodd; stroke:#aaaaaa; stroke-opacity:100%; stroke-width: 1.5pt; stroke-linejoin:round; stroke-linecap:round;" d="M17 44.74c0.5 0.84 1.02 1.54 1.24 2.6c1.74 8.35 3.33 31.4 4.52 46.41"></path>
<path style="fill:none; fill-opacity:0%; fill-rule:evenodd; stroke:#aaaaaa; stroke-opacity:100%; stroke-width: 1.5pt; stroke-linejoin:round; stroke-linecap:round;" d="M18.13 46.08c12.3-1.63 63.49-5.72 69.83-6.27c2.32-0.2 3.48 1.98 3.38 3.2c-0.59 7.24-2.59 36.99-4.5 49.94"></path>
<path style="fill:none; fill-opacity:0%; fill-rule:evenodd; stroke:#aaaaaa; stroke-opacity:100%; stroke-width: 1.5pt; stroke-linejoin:round; stroke-linecap:round;" d="M44.25 74.59c6.75-1.09 11.5-2.09 21.17-3.46"></path>
<path style="fill:none; fill-opacity:0%; fill-rule:evenodd; stroke:#aaaaaa; stroke-opacity:100%; stroke-width: 1.5pt; stroke-linejoin:round; stroke-linecap:round;" d="M39.26 25.38c1.34 0.61 2.37 2.74 2.41 3.99C42 39.5 43.25 64.25 44.15 75.98"></path>
<path style="fill:none; fill-opacity:0%; fill-rule:evenodd; stroke:#aaaaaa; stroke-opacity:100%; stroke-width: 1.5pt; stroke-linejoin:round; stroke-linecap:round;" d="M63.41 23.08c1.34 0.61 1.9 2.81 1.89 5.64C65.25 40 65.5 55.75 65 73.25"></path>

<path style="fill:none; fill-opacity:0%; fill-rule:evenodd; stroke:#000000; stroke-opacity:100%; stroke-width: 3pt; stroke-linejoin:round; stroke-linecap:round;" d="M22.64 23.13c1.15 0.47 3.27 0.6 4.42 0.47c7.35-0.81 44.01-5.32 51.13-4.77c1.92 0.15 3.08 0.22 4.04 0.46"></path>
<text x="5" y="20" font-size="20" fill="#999999">2</text><path style="fill:none; fill-opacity:0%; fill-rule:evenodd; stroke:#CC0000; stroke-opacity:100%; stroke-width: 3pt; stroke-linejoin:round; stroke-linecap:round;" d="M17 44.74c0.5 0.84 1.02 1.54 1.24 2.6c1.74 8.35 3.33 31.4 4.52 46.41" marker-end="url(#TriangleRed)" marker-start="url(#ArrowRed)" ></path>





</g><g transform="scale(1.3761467889908 1.3761467889908) translate(218, 0)">
<path style="fill:none; fill-rule:evenodd; stroke:#aaaaaa;  stroke-width:1pt; stroke-linecap:round;" d="m 109 0 L 0 0 L 0 109 L 109 109 L 109 0"></path><path style="fill:none; fill-opacity:0%; fill-rule:evenodd; stroke:#aaaaaa; stroke-opacity:100%; stroke-width: 1.5pt; stroke-linejoin:round; stroke-linecap:round;" d="M22.64 23.13c1.15 0.47 3.27 0.6 4.42 0.47c7.35-0.81 44.01-5.32 51.13-4.77c1.92 0.15 3.08 0.22 4.04 0.46"></path>
<path style="fill:none; fill-opacity:0%; fill-rule:evenodd; stroke:#aaaaaa; stroke-opacity:100%; stroke-width: 1.5pt; stroke-linejoin:round; stroke-linecap:round;" d="M17 44.74c0.5 0.84 1.02 1.54 1.24 2.6c1.74 8.35 3.33 31.4 4.52 46.41"></path>
<path style="fill:none; fill-opacity:0%; fill-rule:evenodd; stroke:#aaaaaa; stroke-opacity:100%; stroke-width: 1.5pt; stroke-linejoin:round; stroke-linecap:round;" d="M18.13 46.08c12.3-1.63 63.49-5.72 69.83-6.27c2.32-0.2 3.48 1.98 3.38 3.2c-0.59 7.24-2.59 36.99-4.5 49.94"></path>
<path style="fill:none; fill-opacity:0%; fill-rule:evenodd; stroke:#aaaaaa; stroke-opacity:100%; stroke-width: 1.5pt; stroke-linejoin:round; stroke-linecap:round;" d="M44.25 74.59c6.75-1.09 11.5-2.09 21.17-3.46"></path>
<path style="fill:none; fill-opacity:0%; fill-rule:evenodd; stroke:#aaaaaa; stroke-opacity:100%; stroke-width: 1.5pt; stroke-linejoin:round; stroke-linecap:round;" d="M39.26 25.38c1.34 0.61 2.37 2.74 2.41 3.99C42 39.5 43.25 64.25 44.15 75.98"></path>
<path style="fill:none; fill-opacity:0%; fill-rule:evenodd; stroke:#aaaaaa; stroke-opacity:100%; stroke-width: 1.5pt; stroke-linejoin:round; stroke-linecap:round;" d="M63.41 23.08c1.34 0.61 1.9 2.81 1.89 5.64C65.25 40 65.5 55.75 65 73.25"></path>

<path style="fill:none; fill-opacity:0%; fill-rule:evenodd; stroke:#000000; stroke-opacity:100%; stroke-width: 3pt; stroke-linejoin:round; stroke-linecap:round;" d="M22.64 23.13c1.15 0.47 3.27 0.6 4.42 0.47c7.35-0.81 44.01-5.32 51.13-4.77c1.92 0.15 3.08 0.22 4.04 0.46"></path>
<path style="fill:none; fill-opacity:0%; fill-rule:evenodd; stroke:#000000; stroke-opacity:100%; stroke-width: 3pt; stroke-linejoin:round; stroke-linecap:round;" d="M17 44.74c0.5 0.84 1.02 1.54 1.24 2.6c1.74 8.35 3.33 31.4 4.52 46.41"></path>
<text x="5" y="20" font-size="20" fill="#999999">3</text><path style="fill:none; fill-opacity:0%; fill-rule:evenodd; stroke:#CC0000; stroke-opacity:100%; stroke-width: 3pt; stroke-linejoin:round; stroke-linecap:round;" d="M18.13 46.08c12.3-1.63 63.49-5.72 69.83-6.27c2.32-0.2 3.48 1.98 3.38 3.2c-0.59 7.24-2.59 36.99-4.5 49.94" marker-end="url(#TriangleRed)" marker-start="url(#ArrowRed)" ></path>




</g><g transform="scale(1.3761467889908 1.3761467889908) translate(327, 0)">
<path style="fill:none; fill-rule:evenodd; stroke:#aaaaaa;  stroke-width:1pt; stroke-linecap:round;" d="m 109 0 L 0 0 L 0 109 L 109 109 L 109 0"></path><path style="fill:none; fill-opacity:0%; fill-rule:evenodd; stroke:#aaaaaa; stroke-opacity:100%; stroke-width: 1.5pt; stroke-linejoin:round; stroke-linecap:round;" d="M22.64 23.13c1.15 0.47 3.27 0.6 4.42 0.47c7.35-0.81 44.01-5.32 51.13-4.77c1.92 0.15 3.08 0.22 4.04 0.46"></path>
<path style="fill:none; fill-opacity:0%; fill-rule:evenodd; stroke:#aaaaaa; stroke-opacity:100%; stroke-width: 1.5pt; stroke-linejoin:round; stroke-linecap:round;" d="M17 44.74c0.5 0.84 1.02 1.54 1.24 2.6c1.74 8.35 3.33 31.4 4.52 46.41"></path>
<path style="fill:none; fill-opacity:0%; fill-rule:evenodd; stroke:#aaaaaa; stroke-opacity:100%; stroke-width: 1.5pt; stroke-linejoin:round; stroke-linecap:round;" d="M18.13 46.08c12.3-1.63 63.49-5.72 69.83-6.27c2.32-0.2 3.48 1.98 3.38 3.2c-0.59 7.24-2.59 36.99-4.5 49.94"></path>
<path style="fill:none; fill-opacity:0%; fill-rule:evenodd; stroke:#aaaaaa; stroke-opacity:100%; stroke-width: 1.5pt; stroke-linejoin:round; stroke-linecap:round;" d="M44.25 74.59c6.75-1.09 11.5-2.09 21.17-3.46"></path>
<path style="fill:none; fill-opacity:0%; fill-rule:evenodd; stroke:#aaaaaa; stroke-opacity:100%; stroke-width: 1.5pt; stroke-linejoin:round; stroke-linecap:round;" d="M39.26 25.38c1.34 0.61 2.37 2.74 2.41 3.99C42 39.5 43.25 64.25 44.15 75.98"></path>
<path style="fill:none; fill-opacity:0%; fill-rule:evenodd; stroke:#aaaaaa; stroke-opacity:100%; stroke-width: 1.5pt; stroke-linejoin:round; stroke-linecap:round;" d="M63.41 23.08c1.34 0.61 1.9 2.81 1.89 5.64C65.25 40 65.5 55.75 65 73.25"></path>

<path style="fill:none; fill-opacity:0%; fill-rule:evenodd; stroke:#000000; stroke-opacity:100%; stroke-width: 3pt; stroke-linejoin:round; stroke-linecap:round;" d="M22.64 23.13c1.15 0.47 3.27 0.6 4.42 0.47c7.35-0.81 44.01-5.32 51.13-4.77c1.92 0.15 3.08 0.22 4.04 0.46"></path>
<path style="fill:none; fill-opacity:0%; fill-rule:evenodd; stroke:#000000; stroke-opacity:100%; stroke-width: 3pt; stroke-linejoin:round; stroke-linecap:round;" d="M17 44.74c0.5 0.84 1.02 1.54 1.24 2.6c1.74 8.35 3.33 31.4 4.52 46.41"></path>
<path style="fill:none; fill-opacity:0%; fill-rule:evenodd; stroke:#000000; stroke-opacity:100%; stroke-width: 3pt; stroke-linejoin:round; stroke-linecap:round;" d="M18.13 46.08c12.3-1.63 63.49-5.72 69.83-6.27c2.32-0.2 3.48 1.98 3.38 3.2c-0.59 7.24-2.59 36.99-4.5 49.94"></path>
<text x="5" y="20" font-size="20" fill="#999999">4</text><path style="fill:none; fill-opacity:0%; fill-rule:evenodd; stroke:#CC0000; stroke-opacity:100%; stroke-width: 3pt; stroke-linejoin:round; stroke-linecap:round;" d="M44.25 74.59c6.75-1.09 11.5-2.09 21.17-3.46" marker-end="url(#TriangleRed)" marker-start="url(#ArrowRed)" ></path>



</g><g transform="scale(1.3761467889908 1.3761467889908) translate(436, 0)">
<path style="fill:none; fill-rule:evenodd; stroke:#aaaaaa;  stroke-width:1pt; stroke-linecap:round;" d="m 109 0 L 0 0 L 0 109 L 109 109 L 109 0"></path><path style="fill:none; fill-opacity:0%; fill-rule:evenodd; stroke:#aaaaaa; stroke-opacity:100%; stroke-width: 1.5pt; stroke-linejoin:round; stroke-linecap:round;" d="M22.64 23.13c1.15 0.47 3.27 0.6 4.42 0.47c7.35-0.81 44.01-5.32 51.13-4.77c1.92 0.15 3.08 0.22 4.04 0.46"></path>
<path style="fill:none; fill-opacity:0%; fill-rule:evenodd; stroke:#aaaaaa; stroke-opacity:100%; stroke-width: 1.5pt; stroke-linejoin:round; stroke-linecap:round;" d="M17 44.74c0.5 0.84 1.02 1.54 1.24 2.6c1.74 8.35 3.33 31.4 4.52 46.41"></path>
<path style="fill:none; fill-opacity:0%; fill-rule:evenodd; stroke:#aaaaaa; stroke-opacity:100%; stroke-width: 1.5pt; stroke-linejoin:round; stroke-linecap:round;" d="M18.13 46.08c12.3-1.63 63.49-5.72 69.83-6.27c2.32-0.2 3.48 1.98 3.38 3.2c-0.59 7.24-2.59 36.99-4.5 49.94"></path>
<path style="fill:none; fill-opacity:0%; fill-rule:evenodd; stroke:#aaaaaa; stroke-opacity:100%; stroke-width: 1.5pt; stroke-linejoin:round; stroke-linecap:round;" d="M44.25 74.59c6.75-1.09 11.5-2.09 21.17-3.46"></path>
<path style="fill:none; fill-opacity:0%; fill-rule:evenodd; stroke:#aaaaaa; stroke-opacity:100%; stroke-width: 1.5pt; stroke-linejoin:round; stroke-linecap:round;" d="M39.26 25.38c1.34 0.61 2.37 2.74 2.41 3.99C42 39.5 43.25 64.25 44.15 75.98"></path>
<path style="fill:none; fill-opacity:0%; fill-rule:evenodd; stroke:#aaaaaa; stroke-opacity:100%; stroke-width: 1.5pt; stroke-linejoin:round; stroke-linecap:round;" d="M63.41 23.08c1.34 0.61 1.9 2.81 1.89 5.64C65.25 40 65.5 55.75 65 73.25"></path>

<path style="fill:none; fill-opacity:0%; fill-rule:evenodd; stroke:#000000; stroke-opacity:100%; stroke-width: 3pt; stroke-linejoin:round; stroke-linecap:round;" d="M22.64 23.13c1.15 0.47 3.27 0.6 4.42 0.47c7.35-0.81 44.01-5.32 51.13-4.77c1.92 0.15 3.08 0.22 4.04 0.46"></path>
<path style="fill:none; fill-opacity:0%; fill-rule:evenodd; stroke:#000000; stroke-opacity:100%; stroke-width: 3pt; stroke-linejoin:round; stroke-linecap:round;" d="M17 44.74c0.5 0.84 1.02 1.54 1.24 2.6c1.74 8.35 3.33 31.4 4.52 46.41"></path>
<path style="fill:none; fill-opacity:0%; fill-rule:evenodd; stroke:#000000; stroke-opacity:100%; stroke-width: 3pt; stroke-linejoin:round; stroke-linecap:round;" d="M18.13 46.08c12.3-1.63 63.49-5.72 69.83-6.27c2.32-0.2 3.48 1.98 3.38 3.2c-0.59 7.24-2.59 36.99-4.5 49.94"></path>
<path style="fill:none; fill-opacity:0%; fill-rule:evenodd; stroke:#000000; stroke-opacity:100%; stroke-width: 3pt; stroke-linejoin:round; stroke-linecap:round;" d="M44.25 74.59c6.75-1.09 11.5-2.09 21.17-3.46"></path>
<text x="5" y="20" font-size="20" fill="#999999">5</text><path style="fill:none; fill-opacity:0%; fill-rule:evenodd; stroke:#CC0000; stroke-opacity:100%; stroke-width: 3pt; stroke-linejoin:round; stroke-linecap:round;" d="M39.26 25.38c1.34 0.61 2.37 2.74 2.41 3.99C42 39.5 43.25 64.25 44.15 75.98" marker-end="url(#TriangleRed)" marker-start="url(#ArrowRed)" ></path>


</g><g transform="scale(1.3761467889908 1.3761467889908) translate(0, 109)">
<path style="fill:none; fill-rule:evenodd; stroke:#aaaaaa;  stroke-width:1pt; stroke-linecap:round;" d="m 109 0 L 0 0 L 0 109 L 109 109 L 109 0"></path><path style="fill:none; fill-opacity:0%; fill-rule:evenodd; stroke:#aaaaaa; stroke-opacity:100%; stroke-width: 1.5pt; stroke-linejoin:round; stroke-linecap:round;" d="M22.64 23.13c1.15 0.47 3.27 0.6 4.42 0.47c7.35-0.81 44.01-5.32 51.13-4.77c1.92 0.15 3.08 0.22 4.04 0.46"></path>
<path style="fill:none; fill-opacity:0%; fill-rule:evenodd; stroke:#aaaaaa; stroke-opacity:100%; stroke-width: 1.5pt; stroke-linejoin:round; stroke-linecap:round;" d="M17 44.74c0.5 0.84 1.02 1.54 1.24 2.6c1.74 8.35 3.33 31.4 4.52 46.41"></path>
<path style="fill:none; fill-opacity:0%; fill-rule:evenodd; stroke:#aaaaaa; stroke-opacity:100%; stroke-width: 1.5pt; stroke-linejoin:round; stroke-linecap:round;" d="M18.13 46.08c12.3-1.63 63.49-5.72 69.83-6.27c2.32-0.2 3.48 1.98 3.38 3.2c-0.59 7.24-2.59 36.99-4.5 49.94"></path>
<path style="fill:none; fill-opacity:0%; fill-rule:evenodd; stroke:#aaaaaa; stroke-opacity:100%; stroke-width: 1.5pt; stroke-linejoin:round; stroke-linecap:round;" d="M44.25 74.59c6.75-1.09 11.5-2.09 21.17-3.46"></path>
<path style="fill:none; fill-opacity:0%; fill-rule:evenodd; stroke:#aaaaaa; stroke-opacity:100%; stroke-width: 1.5pt; stroke-linejoin:round; stroke-linecap:round;" d="M39.26 25.38c1.34 0.61 2.37 2.74 2.41 3.99C42 39.5 43.25 64.25 44.15 75.98"></path>
<path style="fill:none; fill-opacity:0%; fill-rule:evenodd; stroke:#aaaaaa; stroke-opacity:100%; stroke-width: 1.5pt; stroke-linejoin:round; stroke-linecap:round;" d="M63.41 23.08c1.34 0.61 1.9 2.81 1.89 5.64C65.25 40 65.5 55.75 65 73.25"></path>

<path style="fill:none; fill-opacity:0%; fill-rule:evenodd; stroke:#000000; stroke-opacity:100%; stroke-width: 3pt; stroke-linejoin:round; stroke-linecap:round;" d="M22.64 23.13c1.15 0.47 3.27 0.6 4.42 0.47c7.35-0.81 44.01-5.32 51.13-4.77c1.92 0.15 3.08 0.22 4.04 0.46"></path>
<path style="fill:none; fill-opacity:0%; fill-rule:evenodd; stroke:#000000; stroke-opacity:100%; stroke-width: 3pt; stroke-linejoin:round; stroke-linecap:round;" d="M17 44.74c0.5 0.84 1.02 1.54 1.24 2.6c1.74 8.35 3.33 31.4 4.52 46.41"></path>
<path style="fill:none; fill-opacity:0%; fill-rule:evenodd; stroke:#000000; stroke-opacity:100%; stroke-width: 3pt; stroke-linejoin:round; stroke-linecap:round;" d="M18.13 46.08c12.3-1.63 63.49-5.72 69.83-6.27c2.32-0.2 3.48 1.98 3.38 3.2c-0.59 7.24-2.59 36.99-4.5 49.94"></path>
<path style="fill:none; fill-opacity:0%; fill-rule:evenodd; stroke:#000000; stroke-opacity:100%; stroke-width: 3pt; stroke-linejoin:round; stroke-linecap:round;" d="M44.25 74.59c6.75-1.09 11.5-2.09 21.17-3.46"></path>
<path style="fill:none; fill-opacity:0%; fill-rule:evenodd; stroke:#000000; stroke-opacity:100%; stroke-width: 3pt; stroke-linejoin:round; stroke-linecap:round;" d="M39.26 25.38c1.34 0.61 2.37 2.74 2.41 3.99C42 39.5 43.25 64.25 44.15 75.98"></path>
<text x="5" y="20" font-size="20" fill="#999999">6</text><path style="fill:none; fill-opacity:0%; fill-rule:evenodd; stroke:#CC0000; stroke-opacity:100%; stroke-width: 3pt; stroke-linejoin:round; stroke-linecap:round;" d="M63.41 23.08c1.34 0.61 1.9 2.81 1.89 5.64C65.25 40 65.5 55.75 65 73.25" marker-end="url(#TriangleRed)" marker-start="url(#ArrowRed)" ></path>

</g>

</svg>  
          
