<?xml version="1.0" standalone="no"?>
<!DOCTYPE svg PUBLIC "-//W3C//DTD SVG 1.1//EN"   "http://www.w3.org/Graphics/SVG/1.1/DTD/svg11.dtd">
<svg width="751" height="151"  version="1.1" xmlns="http://www.w3.org/2000/svg">
  <defs>
    <marker id="Triangle" viewBox="0 0 10 10" refX="0" refY="5" markerUnits="strokeWidth" markerWidth="3" style="stroke-opacity:0%;fill:#aaaaaa;" markerHeight="2" orient="auto">
      <path d="M 0 0 L 10 5 L 0 10 z" />
    </marker>
    
    <marker id="Arrow" viewBox="0 0 10 10" refX="5" refY="5" markerUnits="strokeWidth" markerWidth="1.8" style="stroke-opacity:0%;fill:#770000;" markerHeight="2" orient="auto">
      <path d="M 0 4 L 6 4 L 4 1 L 10 5 L 4 9 L 6 6 L 0 6 z" />
        <circle cx="5" cy="5" r="5" />
      </marker>
    
    <marker id="TriangleRed" viewBox="0 0 10 10" refX="0" refY="5" markerUnits="strokeWidth" markerWidth="3" style="stroke-opacity:0%;fill:#CC0000;" markerHeight="2" orient="auto">
      <path d="M 0 0 L 10 5 L 0 10 z" />
    </marker>
    
    <marker id="ArrowRed" viewBox="0 0 10 10" refX="5" refY="5" markerUnits="strokeWidth" markerWidth="1.8" style="stroke-opacity:0%;fill:#CC0000;" markerHeight="2" orient="auto">
      <path d="M 0 4 L 6 4 L 4 1 L 10 5 L 4 9 L 6 6 L 0 6 z" />
        <circle cx="5" cy="5" r="5" />
      </marker>
    
  </defs>
  
  <path style="fill:#ffffff; fill-opacity:100%; fill-rule:evenodd; stroke-width:0;" d="M 0 0 L 751 0 L 751 151 L 0 151 L 0 0" />

  <g transform="scale(1.3761467889908 1.3761467889908) translate(0, 0)">
<path style="fill:none; fill-rule:evenodd; stroke:#aaaaaa;  stroke-width:1pt; stroke-linecap:round;" d="m 109 0 L 0 0 L 0 109 L 109 109 L 109 0"></path><path style="fill:none; fill-opacity:0%; fill-rule:evenodd; stroke:#aaaaaa; stroke-opacity:100%; stroke-width: 1.5pt; stroke-linejoin:round; stroke-linecap:round;" d="M42.32 43.34c1.15 0.41 3.26 0.54 4.4 0.41C58 42.5 78.83 39.69 88.91 39.53c1.91-0.03 3.06 0.2 4.02 0.4"></path>
<path style="fill:none; fill-opacity:0%; fill-rule:evenodd; stroke:#aaaaaa; stroke-opacity:100%; stroke-width: 1.5pt; stroke-linejoin:round; stroke-linecap:round;" d="M65.78 13.88c0.57 0.46 1.79 3.42 1.9 4.33c0.12 0.91-0.07 55.21-0.19 60.92"></path>
<path style="fill:none; fill-opacity:0%; fill-rule:evenodd; stroke:#aaaaaa; stroke-opacity:100%; stroke-width: 1.5pt; stroke-linejoin:round; stroke-linecap:round;" d="M21.21 19.25c3.63 1.74 9.38 7.17 10.29 9.88"></path>
<path style="fill:none; fill-opacity:0%; fill-rule:evenodd; stroke:#aaaaaa; stroke-opacity:100%; stroke-width: 1.5pt; stroke-linejoin:round; stroke-linecap:round;" d="M13 50.75c2.25 1 3.75 0.5 4.75 0.25s9.5-3.5 11-4s3.75 1.25 2.75 2.75s-4 7.25-4.75 8.5s-0.5 3.5 1 5.25s2.75 3.75 3.5 5.25s0.75 2.75-0.75 4S21.5 81 20 81.5"></path>
<path style="fill:none; fill-opacity:0%; fill-rule:evenodd; stroke:#aaaaaa; stroke-opacity:100%; stroke-width: 1.5pt; stroke-linejoin:round; stroke-linecap:round;" d="M15.75 83.43c2.95-0.47 8.86-1.65 13.28-0.71c4.43 0.94 29.59 7.26 33.95 8.48c11.81 3.3 20.91 4.24 29.77 2.59"></path>

<text x="5" y="20" font-size="20" fill="#999999">1</text><path style="fill:none; fill-opacity:0%; fill-rule:evenodd; stroke:#CC0000; stroke-opacity:100%; stroke-width: 3pt; stroke-linejoin:round; stroke-linecap:round;" d="M42.32 43.34c1.15 0.41 3.26 0.54 4.4 0.41C58 42.5 78.83 39.69 88.91 39.53c1.91-0.03 3.06 0.2 4.02 0.4"  ></path>





</g><g transform="scale(1.3761467889908 1.3761467889908) translate(109, 0)">
<path style="fill:none; fill-rule:evenodd; stroke:#aaaaaa;  stroke-width:1pt; stroke-linecap:round;" d="m 109 0 L 0 0 L 0 109 L 109 109 L 109 0"></path><path style="fill:none; fill-opacity:0%; fill-rule:evenodd; stroke:#aaaaaa; stroke-opacity:100%; stroke-width: 1.5pt; stroke-linejoin:round; stroke-linecap:round;" d="M42.32 43.34c1.15 0.41 3.26 0.54 4.4 0.41C58 42.5 78.83 39.69 88.91 39.53c1.91-0.03 3.06 0.2 4.02 0.4"></path>
<path style="fill:none; fill-opacity:0%; fill-rule:evenodd; stroke:#aaaaaa; stroke-opacity:100%; stroke-width: 1.5pt; stroke-linejoin:round; stroke-linecap:round;" d="M65.78 13.88c0.57 0.46 1.79 3.42 1.9 4.33c0.12 0.91-0.07 55.21-0.19 60.92"></path>
<path style="fill:none; fill-opacity:0%; fill-rule:evenodd; stroke:#aaaaaa; stroke-opacity:100%; stroke-width: 1.5pt; stroke-linejoin:round; stroke-linecap:round;" d="M21.21 19.25c3.63 1.74 9.38 7.17 10.29 9.88"></path>
<path style="fill:none; fill-opacity:0%; fill-rule:evenodd; stroke:#aaaaaa; stroke-opacity:100%; stroke-width: 1.5pt; stroke-linejoin:round; stroke-linecap:round;" d="M13 50.75c2.25 1 3.75 0.5 4.75 0.25s9.5-3.5 11-4s3.75 1.25 2.75 2.75s-4 7.25-4.75 8.5s-0.5 3.5 1 5.25s2.75 3.75 3.5 5.25s0.75 2.75-0.75 4S21.5 81 20 81.5"></path>
<path style="fill:none; fill-opacity:0%; fill-rule:evenodd; stroke:#aaaaaa; stroke-opacity:100%; stroke-width: 1.5pt; stroke-linejoin:round; stroke-linecap:round;" d="M15.75 83.43c2.95-0.47 8.86-1.65 13.28-0.71c4.43 0.94 29.59 7.26 33.95 8.48c11.81 3.3 20.91 4.24 29.77 2.59"></path>

<path style="fill:none; fill-opacity:0%; fill-rule:evenodd; stroke:#000000; stroke-opacity:100%; stroke-width: 3pt; stroke-linejoin:round; stroke-linecap:round;" d="M42.32 43.34c1.15 0.41 3.26 0.54 4.4 0.41C58 42.5 78.83 39.69 88.91 39.53c1.91-0.03 3.06 0.2 4.02 0.4"></path>
<text x="5" y="20" font-size="20" fill="#999999">2</text><path style="fill:none; fill-opacity:0%; fill-rule:evenodd; stroke:#CC0000; stroke-opacity:100%; stroke-width: 3pt; stroke-linejoin:round; stroke-linecap:round;" d="M65.78 13.88c0.57 0.46 1.79 3.42 1.9 4.33c0.12 0.91-0.07 55.21-0.19 60.92"  ></path>




</g><g transform="scale(1.3761467889908 1.3761467889908) translate(218, 0)">
<path style="fill:none; fill-rule:evenodd; stroke:#aaaaaa;  stroke-width:1pt; stroke-linecap:round;" d="m 109 0 L 0 0 L 0 109 L 109 109 L 109 0"></path><path style="fill:none; fill-opacity:0%; fill-rule:evenodd; stroke:#aaaaaa; stroke-opacity:100%; stroke-width: 1.5pt; stroke-linejoin:round; stroke-linecap:round;" d="M42.32 43.34c1.15 0.41 3.26 0.54 4.4 0.41C58 42.5 78.83 39.69 88.91 39.53c1.91-0.03 3.06 0.2 4.02 0.4"></path>
<path style="fill:none; fill-opacity:0%; fill-rule:evenodd; stroke:#aaaaaa; stroke-opacity:100%; stroke-width: 1.5pt; stroke-linejoin:round; stroke-linecap:round;" d="M65.78 13.88c0.57 0.46 1.79 3.42 1.9 4.33c0.12 0.91-0.07 55.21-0.19 60.92"></path>
<path style="fill:none; fill-opacity:0%; fill-rule:evenodd; stroke:#aaaaaa; stroke-opacity:100%; stroke-width: 1.5pt; stroke-linejoin:round; stroke-linecap:round;" d="M21.21 19.25c3.63 1.74 9.38 7.17 10.29 9.88"></path>
<path style="fill:none; fill-opacity:0%; fill-rule:evenodd; stroke:#aaaaaa; stroke-opacity:100%; stroke-width: 1.5pt; stroke-linejoin:round; stroke-linecap:round;" d="M13 50.75c2.25 1 3.75 0.5 4.75 0.25s9.5-3.5 11-4s3.75 1.25 2.75 2.75s-4 7.25-4.75 8.5s-0.5 3.5 1 5.25s2.75 3.75 3.5 5.25s0.75 2.75-0.75 4S21.5 81 20 81.5"></path>
<path style="fill:none; fill-opacity:0%; fill-rule:evenodd; stroke:#aaaaaa; stroke-opacity:100%; stroke-width: 1.5pt; stroke-linejoin:round; stroke-linecap:round;" d="M15.75 83.43c2.95-0.47 8.86-1.65 13.28-0.71c4.43 0.94 29.59 7.26 33.95 8.48c11.81 3.3 20.91 4.24 29.77 2.59"></path>

<path style="fill:none; fill-opacity:0%; fill-rule:evenodd; stroke:#000000; stroke-opacity:100%; stroke-width: 3pt; stroke-linejoin:round; stroke-linecap:round;" d="M42.32 43.34c1.15 0.41 3.26 0.54 4.4 0.41C58 42.5 78.83 39.69 88.91 39.53c1.91-0.03 3.06 0.2 4.02 0.4"></path>
<path style="fill:none; fill-opacity:0%; fill-rule:evenodd; stroke:#000000; stroke-opacity:100%; stroke-width: 3pt; stroke-linejoin:round; stroke-linecap:round;" d="M65.78 13.88c0.57 0.46 1.79 3.42 1.9 4.33c0.12 0.91-0.07 55.21-0.19 60.92"></path>
<text x="5" y="20" font-size="20" fill="#999999">3</text><path style="fill:none; fill-opacity:0%; fill-rule:evenodd; stroke:#CC0000; stroke-opacity:100%; stroke-width: 3pt; stroke-linejoin:round; stroke-linecap:round;" d="M21.21 19.25c3.63 1.74 9.38 7.17 10.29 9.88"  ></path>



</g><g transform="scale(1.3761467889908 1.3761467889908) translate(327, 0)">
<path style="fill:none; fill-rule:evenodd; stroke:#aaaaaa;  stroke-width:1pt; stroke-linecap:round;" d="m 109 0 L 0 0 L 0 109 L 109 109 L 109 0"></path><path style="fill:none; fill-opacity:0%; fill-rule:evenodd; stroke:#aaaaaa; stroke-opacity:100%; stroke-width: 1.5pt; stroke-linejoin:round; stroke-linecap:round;" d="M42.32 43.34c1.15 0.41 3.26 0.54 4.4 0.41C58 42.5 78.83 39.69 88.91 39.53c1.91-0.03 3.06 0.2 4.02 0.4"></path>
<path style="fill:none; fill-opacity:0%; fill-rule:evenodd; stroke:#aaaaaa; stroke-opacity:100%; stroke-width: 1.5pt; stroke-linejoin:round; stroke-linecap:round;" d="M65.78 13.88c0.57 0.46 1.79 3.42 1.9 4.33c0.12 0.91-0.07 55.21-0.19 60.92"></path>
<path style="fill:none; fill-opacity:0%; fill-rule:evenodd; stroke:#aaaaaa; stroke-opacity:100%; stroke-width: 1.5pt; stroke-linejoin:round; stroke-linecap:round;" d="M21.21 19.25c3.63 1.74 9.38 7.17 10.29 9.88"></path>
<path style="fill:none; fill-opacity:0%; fill-rule:evenodd; stroke:#aaaaaa; stroke-opacity:100%; stroke-width: 1.5pt; stroke-linejoin:round; stroke-linecap:round;" d="M13 50.75c2.25 1 3.75 0.5 4.75 0.25s9.5-3.5 11-4s3.75 1.25 2.75 2.75s-4 7.25-4.75 8.5s-0.5 3.5 1 5.25s2.75 3.75 3.5 5.25s0.75 2.75-0.75 4S21.5 81 20 81.5"></path>
<path style="fill:none; fill-opacity:0%; fill-rule:evenodd; stroke:#aaaaaa; stroke-opacity:100%; stroke-width: 1.5pt; stroke-linejoin:round; stroke-linecap:round;" d="M15.75 83.43c2.95-0.47 8.86-1.65 13.28-0.71c4.43 0.94 29.59 7.26 33.95 8.48c11.81 3.3 20.91 4.24 29.77 2.59"></path>

<path style="fill:none; fill-opacity:0%; fill-rule:evenodd; stroke:#000000; stroke-opacity:100%; stroke-width: 3pt; stroke-linejoin:round; stroke-linecap:round;" d="M42.32 43.34c1.15 0.41 3.26 0.54 4.4 0.41C58 42.5 78.83 39.69 88.91 39.53c1.91-0.03 3.06 0.2 4.02 0.4"></path>
<path style="fill:none; fill-opacity:0%; fill-rule:evenodd; stroke:#000000; stroke-opacity:100%; stroke-width: 3pt; stroke-linejoin:round; stroke-linecap:round;" d="M65.78 13.88c0.57 0.46 1.79 3.42 1.9 4.33c0.12 0.91-0.07 55.21-0.19 60.92"></path>
<path style="fill:none; fill-opacity:0%; fill-rule:evenodd; stroke:#000000; stroke-opacity:100%; stroke-width: 3pt; stroke-linejoin:round; stroke-linecap:round;" d="M21.21 19.25c3.63 1.74 9.38 7.17 10.29 9.88"></path>
<text x="5" y="20" font-size="20" fill="#999999">4</text><path style="fill:none; fill-opacity:0%; fill-rule:evenodd; stroke:#CC0000; stroke-opacity:100%; stroke-width: 3pt; stroke-linejoin:round; stroke-linecap:round;" d="M13 50.75c2.25 1 3.75 0.5 4.75 0.25s9.5-3.5 11-4s3.75 1.25 2.75 2.75s-4 7.25-4.75 8.5s-0.5 3.5 1 5.25s2.75 3.75 3.5 5.25s0.75 2.75-0.75 4S21.5 81 20 81.5"  ></path>


</g><g transform="scale(1.3761467889908 1.3761467889908) translate(436, 0)">
<path style="fill:none; fill-rule:evenodd; stroke:#aaaaaa;  stroke-width:1pt; stroke-linecap:round;" d="m 109 0 L 0 0 L 0 109 L 109 109 L 109 0"></path><path style="fill:none; fill-opacity:0%; fill-rule:evenodd; stroke:#aaaaaa; stroke-opacity:100%; stroke-width: 1.5pt; stroke-linejoin:round; stroke-linecap:round;" d="M42.32 43.34c1.15 0.41 3.26 0.54 4.4 0.41C58 42.5 78.83 39.69 88.91 39.53c1.91-0.03 3.06 0.2 4.02 0.4"></path>
<path style="fill:none; fill-opacity:0%; fill-rule:evenodd; stroke:#aaaaaa; stroke-opacity:100%; stroke-width: 1.5pt; stroke-linejoin:round; stroke-linecap:round;" d="M65.78 13.88c0.57 0.46 1.79 3.42 1.9 4.33c0.12 0.91-0.07 55.21-0.19 60.92"></path>
<path style="fill:none; fill-opacity:0%; fill-rule:evenodd; stroke:#aaaaaa; stroke-opacity:100%; stroke-width: 1.5pt; stroke-linejoin:round; stroke-linecap:round;" d="M21.21 19.25c3.63 1.74 9.38 7.17 10.29 9.88"></path>
<path style="fill:none; fill-opacity:0%; fill-rule:evenodd; stroke:#aaaaaa; stroke-opacity:100%; stroke-width: 1.5pt; stroke-linejoin:round; stroke-linecap:round;" d="M13 50.75c2.25 1 3.75 0.5 4.75 0.25s9.5-3.5 11-4s3.75 1.25 2.75 2.75s-4 7.25-4.75 8.5s-0.5 3.5 1 5.25s2.75 3.75 3.5 5.25s0.75 2.75-0.75 4S21.5 81 20 81.5"></path>
<path style="fill:none; fill-opacity:0%; fill-rule:evenodd; stroke:#aaaaaa; stroke-opacity:100%; stroke-width: 1.5pt; stroke-linejoin:round; stroke-linecap:round;" d="M15.75 83.43c2.95-0.47 8.86-1.65 13.28-0.71c4.43 0.94 29.59 7.26 33.95 8.48c11.81 3.3 20.91 4.24 29.77 2.59"></path>

<path style="fill:none; fill-opacity:0%; fill-rule:evenodd; stroke:#000000; stroke-opacity:100%; stroke-width: 3pt; stroke-linejoin:round; stroke-linecap:round;" d="M42.32 43.34c1.15 0.41 3.26 0.54 4.4 0.41C58 42.5 78.83 39.69 88.91 39.53c1.91-0.03 3.06 0.2 4.02 0.4"></path>
<path style="fill:none; fill-opacity:0%; fill-rule:evenodd; stroke:#000000; stroke-opacity:100%; stroke-width: 3pt; stroke-linejoin:round; stroke-linecap:round;" d="M65.78 13.88c0.57 0.46 1.79 3.42 1.9 4.33c0.12 0.91-0.07 55.21-0.19 60.92"></path>
<path style="fill:none; fill-opacity:0%; fill-rule:evenodd; stroke:#000000; stroke-opacity:100%; stroke-width: 3pt; stroke-linejoin:round; stroke-linecap:round;" d="M21.21 19.25c3.63 1.74 9.38 7.17 10.29 9.88"></path>
<path style="fill:none; fill-opacity:0%; fill-rule:evenodd; stroke:#000000; stroke-opacity:100%; stroke-width: 3pt; stroke-linejoin:round; stroke-linecap:round;" d="M13 50.75c2.25 1 3.75 0.5 4.75 0.25s9.5-3.5 11-4s3.75 1.25 2.75 2.75s-4 7.25-4.75 8.5s-0.5 3.5 1 5.25s2.75 3.75 3.5 5.25s0.75 2.75-0.75 4S21.5 81 20 81.5"></path>
<text x="5" y="20" font-size="20" fill="#999999">5</text><path style="fill:none; fill-opacity:0%; fill-rule:evenodd; stroke:#CC0000; stroke-opacity:100%; stroke-width: 3pt; stroke-linejoin:round; stroke-linecap:round;" d="M15.75 83.43c2.95-0.47 8.86-1.65 13.28-0.71c4.43 0.94 29.59 7.26 33.95 8.48c11.81 3.3 20.91 4.24 29.77 2.59"  ></path>

</g>

</svg>  
          
