<?xml version="1.0" standalone="no"?>
<!DOCTYPE svg PUBLIC "-//W3C//DTD SVG 1.1//EN"   "http://www.w3.org/Graphics/SVG/1.1/DTD/svg11.dtd">
<svg width="751" height="301"  version="1.1" xmlns="http://www.w3.org/2000/svg">
  <defs>
    <marker id="Triangle" viewBox="0 0 10 10" refX="0" refY="5" markerUnits="strokeWidth" markerWidth="3" style="stroke-opacity:0%;fill:#aaaaaa;" markerHeight="2" orient="auto">
      <path d="M 0 0 L 10 5 L 0 10 z" />
    </marker>
    
    <marker id="Arrow" viewBox="0 0 10 10" refX="5" refY="5" markerUnits="strokeWidth" markerWidth="1.8" style="stroke-opacity:0%;fill:#770000;" markerHeight="2" orient="auto">
      <path d="M 0 4 L 6 4 L 4 1 L 10 5 L 4 9 L 6 6 L 0 6 z" />
        <circle cx="5" cy="5" r="5" />
      </marker>
    
    <marker id="TriangleRed" viewBox="0 0 10 10" refX="0" refY="5" markerUnits="strokeWidth" markerWidth="3" style="stroke-opacity:0%;fill:#CC0000;" markerHeight="2" orient="auto">
      <path d="M 0 0 L 10 5 L 0 10 z" />
    </marker>
    
    <marker id="ArrowRed" viewBox="0 0 10 10" refX="5" refY="5" markerUnits="strokeWidth" markerWidth="1.8" style="stroke-opacity:0%;fill:#CC0000;" markerHeight="2" orient="auto">
      <path d="M 0 4 L 6 4 L 4 1 L 10 5 L 4 9 L 6 6 L 0 6 z" />
        <circle cx="5" cy="5" r="5" />
      </marker>
    
  </defs>
  
  <path style="fill:#ffffff; fill-opacity:100%; fill-rule:evenodd; stroke-width:0;" d="M 0 0 L 751 0 L 751 301 L 0 301 L 0 0" />

  <g transform="scale(1.3761467889908 1.3761467889908) translate(0, 0)">
<path style="fill:none; fill-rule:evenodd; stroke:#aaaaaa;  stroke-width:1pt; stroke-linecap:round;" d="m 109 0 L 0 0 L 0 109 L 109 109 L 109 0"></path><path style="fill:none; fill-opacity:0%; fill-rule:evenodd; stroke:#aaaaaa; stroke-opacity:100%; stroke-width: 1.5pt; stroke-linejoin:round; stroke-linecap:round;" d="M12.5 21c1.62 0.5 3.38 0.62 5.08 0.35c5.02-0.8 10.17-2.23 13.5-3.17c3.02-0.85 4.41 1.31 3.1 3.77c-1.31 2.46-6.89 14.43-9.19 17.95"></path>
<path style="fill:none; fill-opacity:0%; fill-rule:evenodd; stroke:#aaaaaa; stroke-opacity:100%; stroke-width: 1.5pt; stroke-linejoin:round; stroke-linecap:round;" d="M24.99 39.91c13.51 9.47 10.63 35.72-0.17 27.66"></path>
<path style="fill:none; fill-opacity:0%; fill-rule:evenodd; stroke:#aaaaaa; stroke-opacity:100%; stroke-width: 1.5pt; stroke-linejoin:round; stroke-linecap:round;" d="M13.79 21.85c0.93 0.93 1.43 2.27 1.43 3.43c0 0.89 0.31 42.56 0.15 60.96c-0.04 3.95-0.07 6.83-0.11 8"></path>
<path style="fill:none; fill-opacity:0%; fill-rule:evenodd; stroke:#aaaaaa; stroke-opacity:100%; stroke-width: 1.5pt; stroke-linejoin:round; stroke-linecap:round;" d="M55.69 13.25c0.05 0.51 0.1 1.32-0.09 2.05c-1.11 4.33-7.46 13.83-16.15 19.65"></path>
<path style="fill:none; fill-opacity:0%; fill-rule:evenodd; stroke:#aaaaaa; stroke-opacity:100%; stroke-width: 1.5pt; stroke-linejoin:round; stroke-linecap:round;" d="M58.43 16.24c0.94 0.14 1.9 0.08 2.63-0.09c2.81-0.65 8.7-1.85 12.22-2.73c2.41-0.61 3.94 0.62 2.98 2.84c-4.14 9.62-18.64 29.12-35.52 35.73"></path>
<path style="fill:none; fill-opacity:0%; fill-rule:evenodd; stroke:#aaaaaa; stroke-opacity:100%; stroke-width: 1.5pt; stroke-linejoin:round; stroke-linecap:round;" d="M53.03 25.59c3.41 0.61 24.1 15.26 32.98 20.89c2.47 1.56 5 2.87 7.74 3.9"></path>
<path style="fill:none; fill-opacity:0%; fill-rule:evenodd; stroke:#aaaaaa; stroke-opacity:100%; stroke-width: 1.5pt; stroke-linejoin:round; stroke-linecap:round;" d="M46.75 57c2 0.38 3.96 0.26 5.65 0.13c6.48-0.51 18.13-2.13 24.61-2.62c1.89-0.14 3.88-0.31 5.74 0.14"></path>
<path style="fill:none; fill-opacity:0%; fill-rule:evenodd; stroke:#aaaaaa; stroke-opacity:100%; stroke-width: 1.5pt; stroke-linejoin:round; stroke-linecap:round;" d="M50.41 57.87c0.74 0.74 1.09 1.88 1.02 2.93c-0.35 5.45-0.31 9.21-0.65 13.46"></path>
<path style="fill:none; fill-opacity:0%; fill-rule:evenodd; stroke:#aaaaaa; stroke-opacity:100%; stroke-width: 1.5pt; stroke-linejoin:round; stroke-linecap:round;" d="M39.25 75.64c3.12 0.49 5.26 0.35 7.65 0.05c11.35-1.44 29.62-3.5 38.58-4c2.39-0.13 4.63-0.21 7.02 0.32"></path>
<path style="fill:none; fill-opacity:0%; fill-rule:evenodd; stroke:#aaaaaa; stroke-opacity:100%; stroke-width: 1.5pt; stroke-linejoin:round; stroke-linecap:round;" d="M66.62 45.75c0.94 0.94 1.27 2.5 1.27 4.17c0 2.75-0.13 29.08-0.13 41.83c0 2.58-0.06 4.53-0.1 5.5"></path>

<text x="5" y="20" font-size="20" fill="#999999">1</text><path style="fill:none; fill-opacity:0%; fill-rule:evenodd; stroke:#CC0000; stroke-opacity:100%; stroke-width: 3pt; stroke-linejoin:round; stroke-linecap:round;" d="M12.5 21c1.62 0.5 3.38 0.62 5.08 0.35c5.02-0.8 10.17-2.23 13.5-3.17c3.02-0.85 4.41 1.31 3.1 3.77c-1.31 2.46-6.89 14.43-9.19 17.95"  ></path>










</g><g transform="scale(1.3761467889908 1.3761467889908) translate(109, 0)">
<path style="fill:none; fill-rule:evenodd; stroke:#aaaaaa;  stroke-width:1pt; stroke-linecap:round;" d="m 109 0 L 0 0 L 0 109 L 109 109 L 109 0"></path><path style="fill:none; fill-opacity:0%; fill-rule:evenodd; stroke:#aaaaaa; stroke-opacity:100%; stroke-width: 1.5pt; stroke-linejoin:round; stroke-linecap:round;" d="M12.5 21c1.62 0.5 3.38 0.62 5.08 0.35c5.02-0.8 10.17-2.23 13.5-3.17c3.02-0.85 4.41 1.31 3.1 3.77c-1.31 2.46-6.89 14.43-9.19 17.95"></path>
<path style="fill:none; fill-opacity:0%; fill-rule:evenodd; stroke:#aaaaaa; stroke-opacity:100%; stroke-width: 1.5pt; stroke-linejoin:round; stroke-linecap:round;" d="M24.99 39.91c13.51 9.47 10.63 35.72-0.17 27.66"></path>
<path style="fill:none; fill-opacity:0%; fill-rule:evenodd; stroke:#aaaaaa; stroke-opacity:100%; stroke-width: 1.5pt; stroke-linejoin:round; stroke-linecap:round;" d="M13.79 21.85c0.93 0.93 1.43 2.27 1.43 3.43c0 0.89 0.31 42.56 0.15 60.96c-0.04 3.95-0.07 6.83-0.11 8"></path>
<path style="fill:none; fill-opacity:0%; fill-rule:evenodd; stroke:#aaaaaa; stroke-opacity:100%; stroke-width: 1.5pt; stroke-linejoin:round; stroke-linecap:round;" d="M55.69 13.25c0.05 0.51 0.1 1.32-0.09 2.05c-1.11 4.33-7.46 13.83-16.15 19.65"></path>
<path style="fill:none; fill-opacity:0%; fill-rule:evenodd; stroke:#aaaaaa; stroke-opacity:100%; stroke-width: 1.5pt; stroke-linejoin:round; stroke-linecap:round;" d="M58.43 16.24c0.94 0.14 1.9 0.08 2.63-0.09c2.81-0.65 8.7-1.85 12.22-2.73c2.41-0.61 3.94 0.62 2.98 2.84c-4.14 9.62-18.64 29.12-35.52 35.73"></path>
<path style="fill:none; fill-opacity:0%; fill-rule:evenodd; stroke:#aaaaaa; stroke-opacity:100%; stroke-width: 1.5pt; stroke-linejoin:round; stroke-linecap:round;" d="M53.03 25.59c3.41 0.61 24.1 15.26 32.98 20.89c2.47 1.56 5 2.87 7.74 3.9"></path>
<path style="fill:none; fill-opacity:0%; fill-rule:evenodd; stroke:#aaaaaa; stroke-opacity:100%; stroke-width: 1.5pt; stroke-linejoin:round; stroke-linecap:round;" d="M46.75 57c2 0.38 3.96 0.26 5.65 0.13c6.48-0.51 18.13-2.13 24.61-2.62c1.89-0.14 3.88-0.31 5.74 0.14"></path>
<path style="fill:none; fill-opacity:0%; fill-rule:evenodd; stroke:#aaaaaa; stroke-opacity:100%; stroke-width: 1.5pt; stroke-linejoin:round; stroke-linecap:round;" d="M50.41 57.87c0.74 0.74 1.09 1.88 1.02 2.93c-0.35 5.45-0.31 9.21-0.65 13.46"></path>
<path style="fill:none; fill-opacity:0%; fill-rule:evenodd; stroke:#aaaaaa; stroke-opacity:100%; stroke-width: 1.5pt; stroke-linejoin:round; stroke-linecap:round;" d="M39.25 75.64c3.12 0.49 5.26 0.35 7.65 0.05c11.35-1.44 29.62-3.5 38.58-4c2.39-0.13 4.63-0.21 7.02 0.32"></path>
<path style="fill:none; fill-opacity:0%; fill-rule:evenodd; stroke:#aaaaaa; stroke-opacity:100%; stroke-width: 1.5pt; stroke-linejoin:round; stroke-linecap:round;" d="M66.62 45.75c0.94 0.94 1.27 2.5 1.27 4.17c0 2.75-0.13 29.08-0.13 41.83c0 2.58-0.06 4.53-0.1 5.5"></path>

<path style="fill:none; fill-opacity:0%; fill-rule:evenodd; stroke:#000000; stroke-opacity:100%; stroke-width: 3pt; stroke-linejoin:round; stroke-linecap:round;" d="M12.5 21c1.62 0.5 3.38 0.62 5.08 0.35c5.02-0.8 10.17-2.23 13.5-3.17c3.02-0.85 4.41 1.31 3.1 3.77c-1.31 2.46-6.89 14.43-9.19 17.95"></path>
<text x="5" y="20" font-size="20" fill="#999999">2</text><path style="fill:none; fill-opacity:0%; fill-rule:evenodd; stroke:#CC0000; stroke-opacity:100%; stroke-width: 3pt; stroke-linejoin:round; stroke-linecap:round;" d="M24.99 39.91c13.51 9.47 10.63 35.72-0.17 27.66"  ></path>









</g><g transform="scale(1.3761467889908 1.3761467889908) translate(218, 0)">
<path style="fill:none; fill-rule:evenodd; stroke:#aaaaaa;  stroke-width:1pt; stroke-linecap:round;" d="m 109 0 L 0 0 L 0 109 L 109 109 L 109 0"></path><path style="fill:none; fill-opacity:0%; fill-rule:evenodd; stroke:#aaaaaa; stroke-opacity:100%; stroke-width: 1.5pt; stroke-linejoin:round; stroke-linecap:round;" d="M12.5 21c1.62 0.5 3.38 0.62 5.08 0.35c5.02-0.8 10.17-2.23 13.5-3.17c3.02-0.85 4.41 1.31 3.1 3.77c-1.31 2.46-6.89 14.43-9.19 17.95"></path>
<path style="fill:none; fill-opacity:0%; fill-rule:evenodd; stroke:#aaaaaa; stroke-opacity:100%; stroke-width: 1.5pt; stroke-linejoin:round; stroke-linecap:round;" d="M24.99 39.91c13.51 9.47 10.63 35.72-0.17 27.66"></path>
<path style="fill:none; fill-opacity:0%; fill-rule:evenodd; stroke:#aaaaaa; stroke-opacity:100%; stroke-width: 1.5pt; stroke-linejoin:round; stroke-linecap:round;" d="M13.79 21.85c0.93 0.93 1.43 2.27 1.43 3.43c0 0.89 0.31 42.56 0.15 60.96c-0.04 3.95-0.07 6.83-0.11 8"></path>
<path style="fill:none; fill-opacity:0%; fill-rule:evenodd; stroke:#aaaaaa; stroke-opacity:100%; stroke-width: 1.5pt; stroke-linejoin:round; stroke-linecap:round;" d="M55.69 13.25c0.05 0.51 0.1 1.32-0.09 2.05c-1.11 4.33-7.46 13.83-16.15 19.65"></path>
<path style="fill:none; fill-opacity:0%; fill-rule:evenodd; stroke:#aaaaaa; stroke-opacity:100%; stroke-width: 1.5pt; stroke-linejoin:round; stroke-linecap:round;" d="M58.43 16.24c0.94 0.14 1.9 0.08 2.63-0.09c2.81-0.65 8.7-1.85 12.22-2.73c2.41-0.61 3.94 0.62 2.98 2.84c-4.14 9.62-18.64 29.12-35.52 35.73"></path>
<path style="fill:none; fill-opacity:0%; fill-rule:evenodd; stroke:#aaaaaa; stroke-opacity:100%; stroke-width: 1.5pt; stroke-linejoin:round; stroke-linecap:round;" d="M53.03 25.59c3.41 0.61 24.1 15.26 32.98 20.89c2.47 1.56 5 2.87 7.74 3.9"></path>
<path style="fill:none; fill-opacity:0%; fill-rule:evenodd; stroke:#aaaaaa; stroke-opacity:100%; stroke-width: 1.5pt; stroke-linejoin:round; stroke-linecap:round;" d="M46.75 57c2 0.38 3.96 0.26 5.65 0.13c6.48-0.51 18.13-2.13 24.61-2.62c1.89-0.14 3.88-0.31 5.74 0.14"></path>
<path style="fill:none; fill-opacity:0%; fill-rule:evenodd; stroke:#aaaaaa; stroke-opacity:100%; stroke-width: 1.5pt; stroke-linejoin:round; stroke-linecap:round;" d="M50.41 57.87c0.74 0.74 1.09 1.88 1.02 2.93c-0.35 5.45-0.31 9.21-0.65 13.46"></path>
<path style="fill:none; fill-opacity:0%; fill-rule:evenodd; stroke:#aaaaaa; stroke-opacity:100%; stroke-width: 1.5pt; stroke-linejoin:round; stroke-linecap:round;" d="M39.25 75.64c3.12 0.49 5.26 0.35 7.65 0.05c11.35-1.44 29.62-3.5 38.58-4c2.39-0.13 4.63-0.21 7.02 0.32"></path>
<path style="fill:none; fill-opacity:0%; fill-rule:evenodd; stroke:#aaaaaa; stroke-opacity:100%; stroke-width: 1.5pt; stroke-linejoin:round; stroke-linecap:round;" d="M66.62 45.75c0.94 0.94 1.27 2.5 1.27 4.17c0 2.75-0.13 29.08-0.13 41.83c0 2.58-0.06 4.53-0.1 5.5"></path>

<path style="fill:none; fill-opacity:0%; fill-rule:evenodd; stroke:#000000; stroke-opacity:100%; stroke-width: 3pt; stroke-linejoin:round; stroke-linecap:round;" d="M12.5 21c1.62 0.5 3.38 0.62 5.08 0.35c5.02-0.8 10.17-2.23 13.5-3.17c3.02-0.85 4.41 1.31 3.1 3.77c-1.31 2.46-6.89 14.43-9.19 17.95"></path>
<path style="fill:none; fill-opacity:0%; fill-rule:evenodd; stroke:#000000; stroke-opacity:100%; stroke-width: 3pt; stroke-linejoin:round; stroke-linecap:round;" d="M24.99 39.91c13.51 9.47 10.63 35.72-0.17 27.66"></path>
<text x="5" y="20" font-size="20" fill="#999999">3</text><path style="fill:none; fill-opacity:0%; fill-rule:evenodd; stroke:#CC0000; stroke-opacity:100%; stroke-width: 3pt; stroke-linejoin:round; stroke-linecap:round;" d="M13.79 21.85c0.93 0.93 1.43 2.27 1.43 3.43c0 0.89 0.31 42.56 0.15 60.96c-0.04 3.95-0.07 6.83-0.11 8"  ></path>








</g><g transform="scale(1.3761467889908 1.3761467889908) translate(327, 0)">
<path style="fill:none; fill-rule:evenodd; stroke:#aaaaaa;  stroke-width:1pt; stroke-linecap:round;" d="m 109 0 L 0 0 L 0 109 L 109 109 L 109 0"></path><path style="fill:none; fill-opacity:0%; fill-rule:evenodd; stroke:#aaaaaa; stroke-opacity:100%; stroke-width: 1.5pt; stroke-linejoin:round; stroke-linecap:round;" d="M12.5 21c1.62 0.5 3.38 0.62 5.08 0.35c5.02-0.8 10.17-2.23 13.5-3.17c3.02-0.85 4.41 1.31 3.1 3.77c-1.31 2.46-6.89 14.43-9.19 17.95"></path>
<path style="fill:none; fill-opacity:0%; fill-rule:evenodd; stroke:#aaaaaa; stroke-opacity:100%; stroke-width: 1.5pt; stroke-linejoin:round; stroke-linecap:round;" d="M24.99 39.91c13.51 9.47 10.63 35.72-0.17 27.66"></path>
<path style="fill:none; fill-opacity:0%; fill-rule:evenodd; stroke:#aaaaaa; stroke-opacity:100%; stroke-width: 1.5pt; stroke-linejoin:round; stroke-linecap:round;" d="M13.79 21.85c0.93 0.93 1.43 2.27 1.43 3.43c0 0.89 0.31 42.56 0.15 60.96c-0.04 3.95-0.07 6.83-0.11 8"></path>
<path style="fill:none; fill-opacity:0%; fill-rule:evenodd; stroke:#aaaaaa; stroke-opacity:100%; stroke-width: 1.5pt; stroke-linejoin:round; stroke-linecap:round;" d="M55.69 13.25c0.05 0.51 0.1 1.32-0.09 2.05c-1.11 4.33-7.46 13.83-16.15 19.65"></path>
<path style="fill:none; fill-opacity:0%; fill-rule:evenodd; stroke:#aaaaaa; stroke-opacity:100%; stroke-width: 1.5pt; stroke-linejoin:round; stroke-linecap:round;" d="M58.43 16.24c0.94 0.14 1.9 0.08 2.63-0.09c2.81-0.65 8.7-1.85 12.22-2.73c2.41-0.61 3.94 0.62 2.98 2.84c-4.14 9.62-18.64 29.12-35.52 35.73"></path>
<path style="fill:none; fill-opacity:0%; fill-rule:evenodd; stroke:#aaaaaa; stroke-opacity:100%; stroke-width: 1.5pt; stroke-linejoin:round; stroke-linecap:round;" d="M53.03 25.59c3.41 0.61 24.1 15.26 32.98 20.89c2.47 1.56 5 2.87 7.74 3.9"></path>
<path style="fill:none; fill-opacity:0%; fill-rule:evenodd; stroke:#aaaaaa; stroke-opacity:100%; stroke-width: 1.5pt; stroke-linejoin:round; stroke-linecap:round;" d="M46.75 57c2 0.38 3.96 0.26 5.65 0.13c6.48-0.51 18.13-2.13 24.61-2.62c1.89-0.14 3.88-0.31 5.74 0.14"></path>
<path style="fill:none; fill-opacity:0%; fill-rule:evenodd; stroke:#aaaaaa; stroke-opacity:100%; stroke-width: 1.5pt; stroke-linejoin:round; stroke-linecap:round;" d="M50.41 57.87c0.74 0.74 1.09 1.88 1.02 2.93c-0.35 5.45-0.31 9.21-0.65 13.46"></path>
<path style="fill:none; fill-opacity:0%; fill-rule:evenodd; stroke:#aaaaaa; stroke-opacity:100%; stroke-width: 1.5pt; stroke-linejoin:round; stroke-linecap:round;" d="M39.25 75.64c3.12 0.49 5.26 0.35 7.65 0.05c11.35-1.44 29.62-3.5 38.58-4c2.39-0.13 4.63-0.21 7.02 0.32"></path>
<path style="fill:none; fill-opacity:0%; fill-rule:evenodd; stroke:#aaaaaa; stroke-opacity:100%; stroke-width: 1.5pt; stroke-linejoin:round; stroke-linecap:round;" d="M66.62 45.75c0.94 0.94 1.27 2.5 1.27 4.17c0 2.75-0.13 29.08-0.13 41.83c0 2.58-0.06 4.53-0.1 5.5"></path>

<path style="fill:none; fill-opacity:0%; fill-rule:evenodd; stroke:#000000; stroke-opacity:100%; stroke-width: 3pt; stroke-linejoin:round; stroke-linecap:round;" d="M12.5 21c1.62 0.5 3.38 0.62 5.08 0.35c5.02-0.8 10.17-2.23 13.5-3.17c3.02-0.85 4.41 1.31 3.1 3.77c-1.31 2.46-6.89 14.43-9.19 17.95"></path>
<path style="fill:none; fill-opacity:0%; fill-rule:evenodd; stroke:#000000; stroke-opacity:100%; stroke-width: 3pt; stroke-linejoin:round; stroke-linecap:round;" d="M24.99 39.91c13.51 9.47 10.63 35.72-0.17 27.66"></path>
<path style="fill:none; fill-opacity:0%; fill-rule:evenodd; stroke:#000000; stroke-opacity:100%; stroke-width: 3pt; stroke-linejoin:round; stroke-linecap:round;" d="M13.79 21.85c0.93 0.93 1.43 2.27 1.43 3.43c0 0.89 0.31 42.56 0.15 60.96c-0.04 3.95-0.07 6.83-0.11 8"></path>
<text x="5" y="20" font-size="20" fill="#999999">4</text><path style="fill:none; fill-opacity:0%; fill-rule:evenodd; stroke:#CC0000; stroke-opacity:100%; stroke-width: 3pt; stroke-linejoin:round; stroke-linecap:round;" d="M55.69 13.25c0.05 0.51 0.1 1.32-0.09 2.05c-1.11 4.33-7.46 13.83-16.15 19.65"  ></path>







</g><g transform="scale(1.3761467889908 1.3761467889908) translate(436, 0)">
<path style="fill:none; fill-rule:evenodd; stroke:#aaaaaa;  stroke-width:1pt; stroke-linecap:round;" d="m 109 0 L 0 0 L 0 109 L 109 109 L 109 0"></path><path style="fill:none; fill-opacity:0%; fill-rule:evenodd; stroke:#aaaaaa; stroke-opacity:100%; stroke-width: 1.5pt; stroke-linejoin:round; stroke-linecap:round;" d="M12.5 21c1.62 0.5 3.38 0.62 5.08 0.35c5.02-0.8 10.17-2.23 13.5-3.17c3.02-0.85 4.41 1.31 3.1 3.77c-1.31 2.46-6.89 14.43-9.19 17.95"></path>
<path style="fill:none; fill-opacity:0%; fill-rule:evenodd; stroke:#aaaaaa; stroke-opacity:100%; stroke-width: 1.5pt; stroke-linejoin:round; stroke-linecap:round;" d="M24.99 39.91c13.51 9.47 10.63 35.72-0.17 27.66"></path>
<path style="fill:none; fill-opacity:0%; fill-rule:evenodd; stroke:#aaaaaa; stroke-opacity:100%; stroke-width: 1.5pt; stroke-linejoin:round; stroke-linecap:round;" d="M13.79 21.85c0.93 0.93 1.43 2.27 1.43 3.43c0 0.89 0.31 42.56 0.15 60.96c-0.04 3.95-0.07 6.83-0.11 8"></path>
<path style="fill:none; fill-opacity:0%; fill-rule:evenodd; stroke:#aaaaaa; stroke-opacity:100%; stroke-width: 1.5pt; stroke-linejoin:round; stroke-linecap:round;" d="M55.69 13.25c0.05 0.51 0.1 1.32-0.09 2.05c-1.11 4.33-7.46 13.83-16.15 19.65"></path>
<path style="fill:none; fill-opacity:0%; fill-rule:evenodd; stroke:#aaaaaa; stroke-opacity:100%; stroke-width: 1.5pt; stroke-linejoin:round; stroke-linecap:round;" d="M58.43 16.24c0.94 0.14 1.9 0.08 2.63-0.09c2.81-0.65 8.7-1.85 12.22-2.73c2.41-0.61 3.94 0.62 2.98 2.84c-4.14 9.62-18.64 29.12-35.52 35.73"></path>
<path style="fill:none; fill-opacity:0%; fill-rule:evenodd; stroke:#aaaaaa; stroke-opacity:100%; stroke-width: 1.5pt; stroke-linejoin:round; stroke-linecap:round;" d="M53.03 25.59c3.41 0.61 24.1 15.26 32.98 20.89c2.47 1.56 5 2.87 7.74 3.9"></path>
<path style="fill:none; fill-opacity:0%; fill-rule:evenodd; stroke:#aaaaaa; stroke-opacity:100%; stroke-width: 1.5pt; stroke-linejoin:round; stroke-linecap:round;" d="M46.75 57c2 0.38 3.96 0.26 5.65 0.13c6.48-0.51 18.13-2.13 24.61-2.62c1.89-0.14 3.88-0.31 5.74 0.14"></path>
<path style="fill:none; fill-opacity:0%; fill-rule:evenodd; stroke:#aaaaaa; stroke-opacity:100%; stroke-width: 1.5pt; stroke-linejoin:round; stroke-linecap:round;" d="M50.41 57.87c0.74 0.74 1.09 1.88 1.02 2.93c-0.35 5.45-0.31 9.21-0.65 13.46"></path>
<path style="fill:none; fill-opacity:0%; fill-rule:evenodd; stroke:#aaaaaa; stroke-opacity:100%; stroke-width: 1.5pt; stroke-linejoin:round; stroke-linecap:round;" d="M39.25 75.64c3.12 0.49 5.26 0.35 7.65 0.05c11.35-1.44 29.62-3.5 38.58-4c2.39-0.13 4.63-0.21 7.02 0.32"></path>
<path style="fill:none; fill-opacity:0%; fill-rule:evenodd; stroke:#aaaaaa; stroke-opacity:100%; stroke-width: 1.5pt; stroke-linejoin:round; stroke-linecap:round;" d="M66.62 45.75c0.94 0.94 1.27 2.5 1.27 4.17c0 2.75-0.13 29.08-0.13 41.83c0 2.58-0.06 4.53-0.1 5.5"></path>

<path style="fill:none; fill-opacity:0%; fill-rule:evenodd; stroke:#000000; stroke-opacity:100%; stroke-width: 3pt; stroke-linejoin:round; stroke-linecap:round;" d="M12.5 21c1.62 0.5 3.38 0.62 5.08 0.35c5.02-0.8 10.17-2.23 13.5-3.17c3.02-0.85 4.41 1.31 3.1 3.77c-1.31 2.46-6.89 14.43-9.19 17.95"></path>
<path style="fill:none; fill-opacity:0%; fill-rule:evenodd; stroke:#000000; stroke-opacity:100%; stroke-width: 3pt; stroke-linejoin:round; stroke-linecap:round;" d="M24.99 39.91c13.51 9.47 10.63 35.72-0.17 27.66"></path>
<path style="fill:none; fill-opacity:0%; fill-rule:evenodd; stroke:#000000; stroke-opacity:100%; stroke-width: 3pt; stroke-linejoin:round; stroke-linecap:round;" d="M13.79 21.85c0.93 0.93 1.43 2.27 1.43 3.43c0 0.89 0.31 42.56 0.15 60.96c-0.04 3.95-0.07 6.83-0.11 8"></path>
<path style="fill:none; fill-opacity:0%; fill-rule:evenodd; stroke:#000000; stroke-opacity:100%; stroke-width: 3pt; stroke-linejoin:round; stroke-linecap:round;" d="M55.69 13.25c0.05 0.51 0.1 1.32-0.09 2.05c-1.11 4.33-7.46 13.83-16.15 19.65"></path>
<text x="5" y="20" font-size="20" fill="#999999">5</text><path style="fill:none; fill-opacity:0%; fill-rule:evenodd; stroke:#CC0000; stroke-opacity:100%; stroke-width: 3pt; stroke-linejoin:round; stroke-linecap:round;" d="M58.43 16.24c0.94 0.14 1.9 0.08 2.63-0.09c2.81-0.65 8.7-1.85 12.22-2.73c2.41-0.61 3.94 0.62 2.98 2.84c-4.14 9.62-18.64 29.12-35.52 35.73"  ></path>






</g><g transform="scale(1.3761467889908 1.3761467889908) translate(0, 109)">
<path style="fill:none; fill-rule:evenodd; stroke:#aaaaaa;  stroke-width:1pt; stroke-linecap:round;" d="m 109 0 L 0 0 L 0 109 L 109 109 L 109 0"></path><path style="fill:none; fill-opacity:0%; fill-rule:evenodd; stroke:#aaaaaa; stroke-opacity:100%; stroke-width: 1.5pt; stroke-linejoin:round; stroke-linecap:round;" d="M12.5 21c1.62 0.5 3.38 0.62 5.08 0.35c5.02-0.8 10.17-2.23 13.5-3.17c3.02-0.85 4.41 1.31 3.1 3.77c-1.31 2.46-6.89 14.43-9.19 17.95"></path>
<path style="fill:none; fill-opacity:0%; fill-rule:evenodd; stroke:#aaaaaa; stroke-opacity:100%; stroke-width: 1.5pt; stroke-linejoin:round; stroke-linecap:round;" d="M24.99 39.91c13.51 9.47 10.63 35.72-0.17 27.66"></path>
<path style="fill:none; fill-opacity:0%; fill-rule:evenodd; stroke:#aaaaaa; stroke-opacity:100%; stroke-width: 1.5pt; stroke-linejoin:round; stroke-linecap:round;" d="M13.79 21.85c0.93 0.93 1.43 2.27 1.43 3.43c0 0.89 0.31 42.56 0.15 60.96c-0.04 3.95-0.07 6.83-0.11 8"></path>
<path style="fill:none; fill-opacity:0%; fill-rule:evenodd; stroke:#aaaaaa; stroke-opacity:100%; stroke-width: 1.5pt; stroke-linejoin:round; stroke-linecap:round;" d="M55.69 13.25c0.05 0.51 0.1 1.32-0.09 2.05c-1.11 4.33-7.46 13.83-16.15 19.65"></path>
<path style="fill:none; fill-opacity:0%; fill-rule:evenodd; stroke:#aaaaaa; stroke-opacity:100%; stroke-width: 1.5pt; stroke-linejoin:round; stroke-linecap:round;" d="M58.43 16.24c0.94 0.14 1.9 0.08 2.63-0.09c2.81-0.65 8.7-1.85 12.22-2.73c2.41-0.61 3.94 0.62 2.98 2.84c-4.14 9.62-18.64 29.12-35.52 35.73"></path>
<path style="fill:none; fill-opacity:0%; fill-rule:evenodd; stroke:#aaaaaa; stroke-opacity:100%; stroke-width: 1.5pt; stroke-linejoin:round; stroke-linecap:round;" d="M53.03 25.59c3.41 0.61 24.1 15.26 32.98 20.89c2.47 1.56 5 2.87 7.74 3.9"></path>
<path style="fill:none; fill-opacity:0%; fill-rule:evenodd; stroke:#aaaaaa; stroke-opacity:100%; stroke-width: 1.5pt; stroke-linejoin:round; stroke-linecap:round;" d="M46.75 57c2 0.38 3.96 0.26 5.65 0.13c6.48-0.51 18.13-2.13 24.61-2.62c1.89-0.14 3.88-0.31 5.74 0.14"></path>
<path style="fill:none; fill-opacity:0%; fill-rule:evenodd; stroke:#aaaaaa; stroke-opacity:100%; stroke-width: 1.5pt; stroke-linejoin:round; stroke-linecap:round;" d="M50.41 57.87c0.74 0.74 1.09 1.88 1.02 2.93c-0.35 5.45-0.31 9.21-0.65 13.46"></path>
<path style="fill:none; fill-opacity:0%; fill-rule:evenodd; stroke:#aaaaaa; stroke-opacity:100%; stroke-width: 1.5pt; stroke-linejoin:round; stroke-linecap:round;" d="M39.25 75.64c3.12 0.49 5.26 0.35 7.65 0.05c11.35-1.44 29.62-3.5 38.58-4c2.39-0.13 4.63-0.21 7.02 0.32"></path>
<path style="fill:none; fill-opacity:0%; fill-rule:evenodd; stroke:#aaaaaa; stroke-opacity:100%; stroke-width: 1.5pt; stroke-linejoin:round; stroke-linecap:round;" d="M66.62 45.75c0.94 0.94 1.27 2.5 1.27 4.17c0 2.75-0.13 29.08-0.13 41.83c0 2.58-0.06 4.53-0.1 5.5"></path>

<path style="fill:none; fill-opacity:0%; fill-rule:evenodd; stroke:#000000; stroke-opacity:100%; stroke-width: 3pt; stroke-linejoin:round; stroke-linecap:round;" d="M12.5 21c1.62 0.5 3.38 0.62 5.08 0.35c5.02-0.8 10.17-2.23 13.5-3.17c3.02-0.85 4.41 1.31 3.1 3.77c-1.31 2.46-6.89 14.43-9.19 17.95"></path>
<path style="fill:none; fill-opacity:0%; fill-rule:evenodd; stroke:#000000; stroke-opacity:100%; stroke-width: 3pt; stroke-linejoin:round; stroke-linecap:round;" d="M24.99 39.91c13.51 9.47 10.63 35.72-0.17 27.66"></path>
<path style="fill:none; fill-opacity:0%; fill-rule:evenodd; stroke:#000000; stroke-opacity:100%; stroke-width: 3pt; stroke-linejoin:round; stroke-linecap:round;" d="M13.79 21.85c0.93 0.93 1.43 2.27 1.43 3.43c0 0.89 0.31 42.56 0.15 60.96c-0.04 3.95-0.07 6.83-0.11 8"></path>
<path style="fill:none; fill-opacity:0%; fill-rule:evenodd; stroke:#000000; stroke-opacity:100%; stroke-width: 3pt; stroke-linejoin:round; stroke-linecap:round;" d="M55.69 13.25c0.05 0.51 0.1 1.32-0.09 2.05c-1.11 4.33-7.46 13.83-16.15 19.65"></path>
<path style="fill:none; fill-opacity:0%; fill-rule:evenodd; stroke:#000000; stroke-opacity:100%; stroke-width: 3pt; stroke-linejoin:round; stroke-linecap:round;" d="M58.43 16.24c0.94 0.14 1.9 0.08 2.63-0.09c2.81-0.65 8.7-1.85 12.22-2.73c2.41-0.61 3.94 0.62 2.98 2.84c-4.14 9.62-18.64 29.12-35.52 35.73"></path>
<text x="5" y="20" font-size="20" fill="#999999">6</text><path style="fill:none; fill-opacity:0%; fill-rule:evenodd; stroke:#CC0000; stroke-opacity:100%; stroke-width: 3pt; stroke-linejoin:round; stroke-linecap:round;" d="M53.03 25.59c3.41 0.61 24.1 15.26 32.98 20.89c2.47 1.56 5 2.87 7.74 3.9"  ></path>





</g><g transform="scale(1.3761467889908 1.3761467889908) translate(109, 109)">
<path style="fill:none; fill-rule:evenodd; stroke:#aaaaaa;  stroke-width:1pt; stroke-linecap:round;" d="m 109 0 L 0 0 L 0 109 L 109 109 L 109 0"></path><path style="fill:none; fill-opacity:0%; fill-rule:evenodd; stroke:#aaaaaa; stroke-opacity:100%; stroke-width: 1.5pt; stroke-linejoin:round; stroke-linecap:round;" d="M12.5 21c1.62 0.5 3.38 0.62 5.08 0.35c5.02-0.8 10.17-2.23 13.5-3.17c3.02-0.85 4.41 1.31 3.1 3.77c-1.31 2.46-6.89 14.43-9.19 17.95"></path>
<path style="fill:none; fill-opacity:0%; fill-rule:evenodd; stroke:#aaaaaa; stroke-opacity:100%; stroke-width: 1.5pt; stroke-linejoin:round; stroke-linecap:round;" d="M24.99 39.91c13.51 9.47 10.63 35.72-0.17 27.66"></path>
<path style="fill:none; fill-opacity:0%; fill-rule:evenodd; stroke:#aaaaaa; stroke-opacity:100%; stroke-width: 1.5pt; stroke-linejoin:round; stroke-linecap:round;" d="M13.79 21.85c0.93 0.93 1.43 2.27 1.43 3.43c0 0.89 0.31 42.56 0.15 60.96c-0.04 3.95-0.07 6.83-0.11 8"></path>
<path style="fill:none; fill-opacity:0%; fill-rule:evenodd; stroke:#aaaaaa; stroke-opacity:100%; stroke-width: 1.5pt; stroke-linejoin:round; stroke-linecap:round;" d="M55.69 13.25c0.05 0.51 0.1 1.32-0.09 2.05c-1.11 4.33-7.46 13.83-16.15 19.65"></path>
<path style="fill:none; fill-opacity:0%; fill-rule:evenodd; stroke:#aaaaaa; stroke-opacity:100%; stroke-width: 1.5pt; stroke-linejoin:round; stroke-linecap:round;" d="M58.43 16.24c0.94 0.14 1.9 0.08 2.63-0.09c2.81-0.65 8.7-1.85 12.22-2.73c2.41-0.61 3.94 0.62 2.98 2.84c-4.14 9.62-18.64 29.12-35.52 35.73"></path>
<path style="fill:none; fill-opacity:0%; fill-rule:evenodd; stroke:#aaaaaa; stroke-opacity:100%; stroke-width: 1.5pt; stroke-linejoin:round; stroke-linecap:round;" d="M53.03 25.59c3.41 0.61 24.1 15.26 32.98 20.89c2.47 1.56 5 2.87 7.74 3.9"></path>
<path style="fill:none; fill-opacity:0%; fill-rule:evenodd; stroke:#aaaaaa; stroke-opacity:100%; stroke-width: 1.5pt; stroke-linejoin:round; stroke-linecap:round;" d="M46.75 57c2 0.38 3.96 0.26 5.65 0.13c6.48-0.51 18.13-2.13 24.61-2.62c1.89-0.14 3.88-0.31 5.74 0.14"></path>
<path style="fill:none; fill-opacity:0%; fill-rule:evenodd; stroke:#aaaaaa; stroke-opacity:100%; stroke-width: 1.5pt; stroke-linejoin:round; stroke-linecap:round;" d="M50.41 57.87c0.74 0.74 1.09 1.88 1.02 2.93c-0.35 5.45-0.31 9.21-0.65 13.46"></path>
<path style="fill:none; fill-opacity:0%; fill-rule:evenodd; stroke:#aaaaaa; stroke-opacity:100%; stroke-width: 1.5pt; stroke-linejoin:round; stroke-linecap:round;" d="M39.25 75.64c3.12 0.49 5.26 0.35 7.65 0.05c11.35-1.44 29.62-3.5 38.58-4c2.39-0.13 4.63-0.21 7.02 0.32"></path>
<path style="fill:none; fill-opacity:0%; fill-rule:evenodd; stroke:#aaaaaa; stroke-opacity:100%; stroke-width: 1.5pt; stroke-linejoin:round; stroke-linecap:round;" d="M66.62 45.75c0.94 0.94 1.27 2.5 1.27 4.17c0 2.75-0.13 29.08-0.13 41.83c0 2.58-0.06 4.53-0.1 5.5"></path>

<path style="fill:none; fill-opacity:0%; fill-rule:evenodd; stroke:#000000; stroke-opacity:100%; stroke-width: 3pt; stroke-linejoin:round; stroke-linecap:round;" d="M12.5 21c1.62 0.5 3.38 0.62 5.08 0.35c5.02-0.8 10.17-2.23 13.5-3.17c3.02-0.85 4.41 1.31 3.1 3.77c-1.31 2.46-6.89 14.43-9.19 17.95"></path>
<path style="fill:none; fill-opacity:0%; fill-rule:evenodd; stroke:#000000; stroke-opacity:100%; stroke-width: 3pt; stroke-linejoin:round; stroke-linecap:round;" d="M24.99 39.91c13.51 9.47 10.63 35.72-0.17 27.66"></path>
<path style="fill:none; fill-opacity:0%; fill-rule:evenodd; stroke:#000000; stroke-opacity:100%; stroke-width: 3pt; stroke-linejoin:round; stroke-linecap:round;" d="M13.79 21.85c0.93 0.93 1.43 2.27 1.43 3.43c0 0.89 0.31 42.56 0.15 60.96c-0.04 3.95-0.07 6.83-0.11 8"></path>
<path style="fill:none; fill-opacity:0%; fill-rule:evenodd; stroke:#000000; stroke-opacity:100%; stroke-width: 3pt; stroke-linejoin:round; stroke-linecap:round;" d="M55.69 13.25c0.05 0.51 0.1 1.32-0.09 2.05c-1.11 4.33-7.46 13.83-16.15 19.65"></path>
<path style="fill:none; fill-opacity:0%; fill-rule:evenodd; stroke:#000000; stroke-opacity:100%; stroke-width: 3pt; stroke-linejoin:round; stroke-linecap:round;" d="M58.43 16.24c0.94 0.14 1.9 0.08 2.63-0.09c2.81-0.65 8.7-1.85 12.22-2.73c2.41-0.61 3.94 0.62 2.98 2.84c-4.14 9.62-18.64 29.12-35.52 35.73"></path>
<path style="fill:none; fill-opacity:0%; fill-rule:evenodd; stroke:#000000; stroke-opacity:100%; stroke-width: 3pt; stroke-linejoin:round; stroke-linecap:round;" d="M53.03 25.59c3.41 0.61 24.1 15.26 32.98 20.89c2.47 1.56 5 2.87 7.74 3.9"></path>
<text x="5" y="20" font-size="20" fill="#999999">7</text><path style="fill:none; fill-opacity:0%; fill-rule:evenodd; stroke:#CC0000; stroke-opacity:100%; stroke-width: 3pt; stroke-linejoin:round; stroke-linecap:round;" d="M46.75 57c2 0.38 3.96 0.26 5.65 0.13c6.48-0.51 18.13-2.13 24.61-2.62c1.89-0.14 3.88-0.31 5.74 0.14"  ></path>




</g><g transform="scale(1.3761467889908 1.3761467889908) translate(218, 109)">
<path style="fill:none; fill-rule:evenodd; stroke:#aaaaaa;  stroke-width:1pt; stroke-linecap:round;" d="m 109 0 L 0 0 L 0 109 L 109 109 L 109 0"></path><path style="fill:none; fill-opacity:0%; fill-rule:evenodd; stroke:#aaaaaa; stroke-opacity:100%; stroke-width: 1.5pt; stroke-linejoin:round; stroke-linecap:round;" d="M12.5 21c1.62 0.5 3.38 0.62 5.08 0.35c5.02-0.8 10.17-2.23 13.5-3.17c3.02-0.85 4.41 1.31 3.1 3.77c-1.31 2.46-6.89 14.43-9.19 17.95"></path>
<path style="fill:none; fill-opacity:0%; fill-rule:evenodd; stroke:#aaaaaa; stroke-opacity:100%; stroke-width: 1.5pt; stroke-linejoin:round; stroke-linecap:round;" d="M24.99 39.91c13.51 9.47 10.63 35.72-0.17 27.66"></path>
<path style="fill:none; fill-opacity:0%; fill-rule:evenodd; stroke:#aaaaaa; stroke-opacity:100%; stroke-width: 1.5pt; stroke-linejoin:round; stroke-linecap:round;" d="M13.79 21.85c0.93 0.93 1.43 2.27 1.43 3.43c0 0.89 0.31 42.56 0.15 60.96c-0.04 3.95-0.07 6.83-0.11 8"></path>
<path style="fill:none; fill-opacity:0%; fill-rule:evenodd; stroke:#aaaaaa; stroke-opacity:100%; stroke-width: 1.5pt; stroke-linejoin:round; stroke-linecap:round;" d="M55.69 13.25c0.05 0.51 0.1 1.32-0.09 2.05c-1.11 4.33-7.46 13.83-16.15 19.65"></path>
<path style="fill:none; fill-opacity:0%; fill-rule:evenodd; stroke:#aaaaaa; stroke-opacity:100%; stroke-width: 1.5pt; stroke-linejoin:round; stroke-linecap:round;" d="M58.43 16.24c0.94 0.14 1.9 0.08 2.63-0.09c2.81-0.65 8.7-1.85 12.22-2.73c2.41-0.61 3.94 0.62 2.98 2.84c-4.14 9.62-18.64 29.12-35.52 35.73"></path>
<path style="fill:none; fill-opacity:0%; fill-rule:evenodd; stroke:#aaaaaa; stroke-opacity:100%; stroke-width: 1.5pt; stroke-linejoin:round; stroke-linecap:round;" d="M53.03 25.59c3.41 0.61 24.1 15.26 32.98 20.89c2.47 1.56 5 2.87 7.74 3.9"></path>
<path style="fill:none; fill-opacity:0%; fill-rule:evenodd; stroke:#aaaaaa; stroke-opacity:100%; stroke-width: 1.5pt; stroke-linejoin:round; stroke-linecap:round;" d="M46.75 57c2 0.38 3.96 0.26 5.65 0.13c6.48-0.51 18.13-2.13 24.61-2.62c1.89-0.14 3.88-0.31 5.74 0.14"></path>
<path style="fill:none; fill-opacity:0%; fill-rule:evenodd; stroke:#aaaaaa; stroke-opacity:100%; stroke-width: 1.5pt; stroke-linejoin:round; stroke-linecap:round;" d="M50.41 57.87c0.74 0.74 1.09 1.88 1.02 2.93c-0.35 5.45-0.31 9.21-0.65 13.46"></path>
<path style="fill:none; fill-opacity:0%; fill-rule:evenodd; stroke:#aaaaaa; stroke-opacity:100%; stroke-width: 1.5pt; stroke-linejoin:round; stroke-linecap:round;" d="M39.25 75.64c3.12 0.49 5.26 0.35 7.65 0.05c11.35-1.44 29.62-3.5 38.58-4c2.39-0.13 4.63-0.21 7.02 0.32"></path>
<path style="fill:none; fill-opacity:0%; fill-rule:evenodd; stroke:#aaaaaa; stroke-opacity:100%; stroke-width: 1.5pt; stroke-linejoin:round; stroke-linecap:round;" d="M66.62 45.75c0.94 0.94 1.27 2.5 1.27 4.17c0 2.75-0.13 29.08-0.13 41.83c0 2.58-0.06 4.53-0.1 5.5"></path>

<path style="fill:none; fill-opacity:0%; fill-rule:evenodd; stroke:#000000; stroke-opacity:100%; stroke-width: 3pt; stroke-linejoin:round; stroke-linecap:round;" d="M12.5 21c1.62 0.5 3.38 0.62 5.08 0.35c5.02-0.8 10.17-2.23 13.5-3.17c3.02-0.85 4.41 1.31 3.1 3.77c-1.31 2.46-6.89 14.43-9.19 17.95"></path>
<path style="fill:none; fill-opacity:0%; fill-rule:evenodd; stroke:#000000; stroke-opacity:100%; stroke-width: 3pt; stroke-linejoin:round; stroke-linecap:round;" d="M24.99 39.91c13.51 9.47 10.63 35.72-0.17 27.66"></path>
<path style="fill:none; fill-opacity:0%; fill-rule:evenodd; stroke:#000000; stroke-opacity:100%; stroke-width: 3pt; stroke-linejoin:round; stroke-linecap:round;" d="M13.79 21.85c0.93 0.93 1.43 2.27 1.43 3.43c0 0.89 0.31 42.56 0.15 60.96c-0.04 3.95-0.07 6.83-0.11 8"></path>
<path style="fill:none; fill-opacity:0%; fill-rule:evenodd; stroke:#000000; stroke-opacity:100%; stroke-width: 3pt; stroke-linejoin:round; stroke-linecap:round;" d="M55.69 13.25c0.05 0.51 0.1 1.32-0.09 2.05c-1.11 4.33-7.46 13.83-16.15 19.65"></path>
<path style="fill:none; fill-opacity:0%; fill-rule:evenodd; stroke:#000000; stroke-opacity:100%; stroke-width: 3pt; stroke-linejoin:round; stroke-linecap:round;" d="M58.43 16.24c0.94 0.14 1.9 0.08 2.63-0.09c2.81-0.65 8.7-1.85 12.22-2.73c2.41-0.61 3.94 0.62 2.98 2.84c-4.14 9.62-18.64 29.12-35.52 35.73"></path>
<path style="fill:none; fill-opacity:0%; fill-rule:evenodd; stroke:#000000; stroke-opacity:100%; stroke-width: 3pt; stroke-linejoin:round; stroke-linecap:round;" d="M53.03 25.59c3.41 0.61 24.1 15.26 32.98 20.89c2.47 1.56 5 2.87 7.74 3.9"></path>
<path style="fill:none; fill-opacity:0%; fill-rule:evenodd; stroke:#000000; stroke-opacity:100%; stroke-width: 3pt; stroke-linejoin:round; stroke-linecap:round;" d="M46.75 57c2 0.38 3.96 0.26 5.65 0.13c6.48-0.51 18.13-2.13 24.61-2.62c1.89-0.14 3.88-0.31 5.74 0.14"></path>
<text x="5" y="20" font-size="20" fill="#999999">8</text><path style="fill:none; fill-opacity:0%; fill-rule:evenodd; stroke:#CC0000; stroke-opacity:100%; stroke-width: 3pt; stroke-linejoin:round; stroke-linecap:round;" d="M50.41 57.87c0.74 0.74 1.09 1.88 1.02 2.93c-0.35 5.45-0.31 9.21-0.65 13.46"  ></path>



</g><g transform="scale(1.3761467889908 1.3761467889908) translate(327, 109)">
<path style="fill:none; fill-rule:evenodd; stroke:#aaaaaa;  stroke-width:1pt; stroke-linecap:round;" d="m 109 0 L 0 0 L 0 109 L 109 109 L 109 0"></path><path style="fill:none; fill-opacity:0%; fill-rule:evenodd; stroke:#aaaaaa; stroke-opacity:100%; stroke-width: 1.5pt; stroke-linejoin:round; stroke-linecap:round;" d="M12.5 21c1.62 0.5 3.38 0.62 5.08 0.35c5.02-0.8 10.17-2.23 13.5-3.17c3.02-0.85 4.41 1.31 3.1 3.77c-1.31 2.46-6.89 14.43-9.19 17.95"></path>
<path style="fill:none; fill-opacity:0%; fill-rule:evenodd; stroke:#aaaaaa; stroke-opacity:100%; stroke-width: 1.5pt; stroke-linejoin:round; stroke-linecap:round;" d="M24.99 39.91c13.51 9.47 10.63 35.72-0.17 27.66"></path>
<path style="fill:none; fill-opacity:0%; fill-rule:evenodd; stroke:#aaaaaa; stroke-opacity:100%; stroke-width: 1.5pt; stroke-linejoin:round; stroke-linecap:round;" d="M13.79 21.85c0.93 0.93 1.43 2.27 1.43 3.43c0 0.89 0.31 42.56 0.15 60.96c-0.04 3.95-0.07 6.83-0.11 8"></path>
<path style="fill:none; fill-opacity:0%; fill-rule:evenodd; stroke:#aaaaaa; stroke-opacity:100%; stroke-width: 1.5pt; stroke-linejoin:round; stroke-linecap:round;" d="M55.69 13.25c0.05 0.51 0.1 1.32-0.09 2.05c-1.11 4.33-7.46 13.83-16.15 19.65"></path>
<path style="fill:none; fill-opacity:0%; fill-rule:evenodd; stroke:#aaaaaa; stroke-opacity:100%; stroke-width: 1.5pt; stroke-linejoin:round; stroke-linecap:round;" d="M58.43 16.24c0.94 0.14 1.9 0.08 2.63-0.09c2.81-0.65 8.7-1.85 12.22-2.73c2.41-0.61 3.94 0.62 2.98 2.84c-4.14 9.62-18.64 29.12-35.52 35.73"></path>
<path style="fill:none; fill-opacity:0%; fill-rule:evenodd; stroke:#aaaaaa; stroke-opacity:100%; stroke-width: 1.5pt; stroke-linejoin:round; stroke-linecap:round;" d="M53.03 25.59c3.41 0.61 24.1 15.26 32.98 20.89c2.47 1.56 5 2.87 7.74 3.9"></path>
<path style="fill:none; fill-opacity:0%; fill-rule:evenodd; stroke:#aaaaaa; stroke-opacity:100%; stroke-width: 1.5pt; stroke-linejoin:round; stroke-linecap:round;" d="M46.75 57c2 0.38 3.96 0.26 5.65 0.13c6.48-0.51 18.13-2.13 24.61-2.62c1.89-0.14 3.88-0.31 5.74 0.14"></path>
<path style="fill:none; fill-opacity:0%; fill-rule:evenodd; stroke:#aaaaaa; stroke-opacity:100%; stroke-width: 1.5pt; stroke-linejoin:round; stroke-linecap:round;" d="M50.41 57.87c0.74 0.74 1.09 1.88 1.02 2.93c-0.35 5.45-0.31 9.21-0.65 13.46"></path>
<path style="fill:none; fill-opacity:0%; fill-rule:evenodd; stroke:#aaaaaa; stroke-opacity:100%; stroke-width: 1.5pt; stroke-linejoin:round; stroke-linecap:round;" d="M39.25 75.64c3.12 0.49 5.26 0.35 7.65 0.05c11.35-1.44 29.62-3.5 38.58-4c2.39-0.13 4.63-0.21 7.02 0.32"></path>
<path style="fill:none; fill-opacity:0%; fill-rule:evenodd; stroke:#aaaaaa; stroke-opacity:100%; stroke-width: 1.5pt; stroke-linejoin:round; stroke-linecap:round;" d="M66.62 45.75c0.94 0.94 1.27 2.5 1.27 4.17c0 2.75-0.13 29.08-0.13 41.83c0 2.58-0.06 4.53-0.1 5.5"></path>

<path style="fill:none; fill-opacity:0%; fill-rule:evenodd; stroke:#000000; stroke-opacity:100%; stroke-width: 3pt; stroke-linejoin:round; stroke-linecap:round;" d="M12.5 21c1.62 0.5 3.38 0.62 5.08 0.35c5.02-0.8 10.17-2.23 13.5-3.17c3.02-0.85 4.41 1.31 3.1 3.77c-1.31 2.46-6.89 14.43-9.19 17.95"></path>
<path style="fill:none; fill-opacity:0%; fill-rule:evenodd; stroke:#000000; stroke-opacity:100%; stroke-width: 3pt; stroke-linejoin:round; stroke-linecap:round;" d="M24.99 39.91c13.51 9.47 10.63 35.72-0.17 27.66"></path>
<path style="fill:none; fill-opacity:0%; fill-rule:evenodd; stroke:#000000; stroke-opacity:100%; stroke-width: 3pt; stroke-linejoin:round; stroke-linecap:round;" d="M13.79 21.85c0.93 0.93 1.43 2.27 1.43 3.43c0 0.89 0.31 42.56 0.15 60.96c-0.04 3.95-0.07 6.83-0.11 8"></path>
<path style="fill:none; fill-opacity:0%; fill-rule:evenodd; stroke:#000000; stroke-opacity:100%; stroke-width: 3pt; stroke-linejoin:round; stroke-linecap:round;" d="M55.69 13.25c0.05 0.51 0.1 1.32-0.09 2.05c-1.11 4.33-7.46 13.83-16.15 19.65"></path>
<path style="fill:none; fill-opacity:0%; fill-rule:evenodd; stroke:#000000; stroke-opacity:100%; stroke-width: 3pt; stroke-linejoin:round; stroke-linecap:round;" d="M58.43 16.24c0.94 0.14 1.9 0.08 2.63-0.09c2.81-0.65 8.7-1.85 12.22-2.73c2.41-0.61 3.94 0.62 2.98 2.84c-4.14 9.62-18.64 29.12-35.52 35.73"></path>
<path style="fill:none; fill-opacity:0%; fill-rule:evenodd; stroke:#000000; stroke-opacity:100%; stroke-width: 3pt; stroke-linejoin:round; stroke-linecap:round;" d="M53.03 25.59c3.41 0.61 24.1 15.26 32.98 20.89c2.47 1.56 5 2.87 7.74 3.9"></path>
<path style="fill:none; fill-opacity:0%; fill-rule:evenodd; stroke:#000000; stroke-opacity:100%; stroke-width: 3pt; stroke-linejoin:round; stroke-linecap:round;" d="M46.75 57c2 0.38 3.96 0.26 5.65 0.13c6.48-0.51 18.13-2.13 24.61-2.62c1.89-0.14 3.88-0.31 5.74 0.14"></path>
<path style="fill:none; fill-opacity:0%; fill-rule:evenodd; stroke:#000000; stroke-opacity:100%; stroke-width: 3pt; stroke-linejoin:round; stroke-linecap:round;" d="M50.41 57.87c0.74 0.74 1.09 1.88 1.02 2.93c-0.35 5.45-0.31 9.21-0.65 13.46"></path>
<text x="5" y="20" font-size="20" fill="#999999">9</text><path style="fill:none; fill-opacity:0%; fill-rule:evenodd; stroke:#CC0000; stroke-opacity:100%; stroke-width: 3pt; stroke-linejoin:round; stroke-linecap:round;" d="M39.25 75.64c3.12 0.49 5.26 0.35 7.65 0.05c11.35-1.44 29.62-3.5 38.58-4c2.39-0.13 4.63-0.21 7.02 0.32"  ></path>


</g><g transform="scale(1.3761467889908 1.3761467889908) translate(436, 109)">
<path style="fill:none; fill-rule:evenodd; stroke:#aaaaaa;  stroke-width:1pt; stroke-linecap:round;" d="m 109 0 L 0 0 L 0 109 L 109 109 L 109 0"></path><path style="fill:none; fill-opacity:0%; fill-rule:evenodd; stroke:#aaaaaa; stroke-opacity:100%; stroke-width: 1.5pt; stroke-linejoin:round; stroke-linecap:round;" d="M12.5 21c1.62 0.5 3.38 0.62 5.08 0.35c5.02-0.8 10.17-2.23 13.5-3.17c3.02-0.85 4.41 1.31 3.1 3.77c-1.31 2.46-6.89 14.43-9.19 17.95"></path>
<path style="fill:none; fill-opacity:0%; fill-rule:evenodd; stroke:#aaaaaa; stroke-opacity:100%; stroke-width: 1.5pt; stroke-linejoin:round; stroke-linecap:round;" d="M24.99 39.91c13.51 9.47 10.63 35.72-0.17 27.66"></path>
<path style="fill:none; fill-opacity:0%; fill-rule:evenodd; stroke:#aaaaaa; stroke-opacity:100%; stroke-width: 1.5pt; stroke-linejoin:round; stroke-linecap:round;" d="M13.79 21.85c0.93 0.93 1.43 2.27 1.43 3.43c0 0.89 0.31 42.56 0.15 60.96c-0.04 3.95-0.07 6.83-0.11 8"></path>
<path style="fill:none; fill-opacity:0%; fill-rule:evenodd; stroke:#aaaaaa; stroke-opacity:100%; stroke-width: 1.5pt; stroke-linejoin:round; stroke-linecap:round;" d="M55.69 13.25c0.05 0.51 0.1 1.32-0.09 2.05c-1.11 4.33-7.46 13.83-16.15 19.65"></path>
<path style="fill:none; fill-opacity:0%; fill-rule:evenodd; stroke:#aaaaaa; stroke-opacity:100%; stroke-width: 1.5pt; stroke-linejoin:round; stroke-linecap:round;" d="M58.43 16.24c0.94 0.14 1.9 0.08 2.63-0.09c2.81-0.65 8.7-1.85 12.22-2.73c2.41-0.61 3.94 0.62 2.98 2.84c-4.14 9.62-18.64 29.12-35.52 35.73"></path>
<path style="fill:none; fill-opacity:0%; fill-rule:evenodd; stroke:#aaaaaa; stroke-opacity:100%; stroke-width: 1.5pt; stroke-linejoin:round; stroke-linecap:round;" d="M53.03 25.59c3.41 0.61 24.1 15.26 32.98 20.89c2.47 1.56 5 2.87 7.74 3.9"></path>
<path style="fill:none; fill-opacity:0%; fill-rule:evenodd; stroke:#aaaaaa; stroke-opacity:100%; stroke-width: 1.5pt; stroke-linejoin:round; stroke-linecap:round;" d="M46.75 57c2 0.38 3.96 0.26 5.65 0.13c6.48-0.51 18.13-2.13 24.61-2.62c1.89-0.14 3.88-0.31 5.74 0.14"></path>
<path style="fill:none; fill-opacity:0%; fill-rule:evenodd; stroke:#aaaaaa; stroke-opacity:100%; stroke-width: 1.5pt; stroke-linejoin:round; stroke-linecap:round;" d="M50.41 57.87c0.74 0.74 1.09 1.88 1.02 2.93c-0.35 5.45-0.31 9.21-0.65 13.46"></path>
<path style="fill:none; fill-opacity:0%; fill-rule:evenodd; stroke:#aaaaaa; stroke-opacity:100%; stroke-width: 1.5pt; stroke-linejoin:round; stroke-linecap:round;" d="M39.25 75.64c3.12 0.49 5.26 0.35 7.65 0.05c11.35-1.44 29.62-3.5 38.58-4c2.39-0.13 4.63-0.21 7.02 0.32"></path>
<path style="fill:none; fill-opacity:0%; fill-rule:evenodd; stroke:#aaaaaa; stroke-opacity:100%; stroke-width: 1.5pt; stroke-linejoin:round; stroke-linecap:round;" d="M66.62 45.75c0.94 0.94 1.27 2.5 1.27 4.17c0 2.75-0.13 29.08-0.13 41.83c0 2.58-0.06 4.53-0.1 5.5"></path>

<path style="fill:none; fill-opacity:0%; fill-rule:evenodd; stroke:#000000; stroke-opacity:100%; stroke-width: 3pt; stroke-linejoin:round; stroke-linecap:round;" d="M12.5 21c1.62 0.5 3.38 0.62 5.08 0.35c5.02-0.8 10.17-2.23 13.5-3.17c3.02-0.85 4.41 1.31 3.1 3.77c-1.31 2.46-6.89 14.43-9.19 17.95"></path>
<path style="fill:none; fill-opacity:0%; fill-rule:evenodd; stroke:#000000; stroke-opacity:100%; stroke-width: 3pt; stroke-linejoin:round; stroke-linecap:round;" d="M24.99 39.91c13.51 9.47 10.63 35.72-0.17 27.66"></path>
<path style="fill:none; fill-opacity:0%; fill-rule:evenodd; stroke:#000000; stroke-opacity:100%; stroke-width: 3pt; stroke-linejoin:round; stroke-linecap:round;" d="M13.79 21.85c0.93 0.93 1.43 2.27 1.43 3.43c0 0.89 0.31 42.56 0.15 60.96c-0.04 3.95-0.07 6.83-0.11 8"></path>
<path style="fill:none; fill-opacity:0%; fill-rule:evenodd; stroke:#000000; stroke-opacity:100%; stroke-width: 3pt; stroke-linejoin:round; stroke-linecap:round;" d="M55.69 13.25c0.05 0.51 0.1 1.32-0.09 2.05c-1.11 4.33-7.46 13.83-16.15 19.65"></path>
<path style="fill:none; fill-opacity:0%; fill-rule:evenodd; stroke:#000000; stroke-opacity:100%; stroke-width: 3pt; stroke-linejoin:round; stroke-linecap:round;" d="M58.43 16.24c0.94 0.14 1.9 0.08 2.63-0.09c2.81-0.65 8.7-1.85 12.22-2.73c2.41-0.61 3.94 0.62 2.98 2.84c-4.14 9.62-18.64 29.12-35.52 35.73"></path>
<path style="fill:none; fill-opacity:0%; fill-rule:evenodd; stroke:#000000; stroke-opacity:100%; stroke-width: 3pt; stroke-linejoin:round; stroke-linecap:round;" d="M53.03 25.59c3.41 0.61 24.1 15.26 32.98 20.89c2.47 1.56 5 2.87 7.74 3.9"></path>
<path style="fill:none; fill-opacity:0%; fill-rule:evenodd; stroke:#000000; stroke-opacity:100%; stroke-width: 3pt; stroke-linejoin:round; stroke-linecap:round;" d="M46.75 57c2 0.38 3.96 0.26 5.65 0.13c6.48-0.51 18.13-2.13 24.61-2.62c1.89-0.14 3.88-0.31 5.74 0.14"></path>
<path style="fill:none; fill-opacity:0%; fill-rule:evenodd; stroke:#000000; stroke-opacity:100%; stroke-width: 3pt; stroke-linejoin:round; stroke-linecap:round;" d="M50.41 57.87c0.74 0.74 1.09 1.88 1.02 2.93c-0.35 5.45-0.31 9.21-0.65 13.46"></path>
<path style="fill:none; fill-opacity:0%; fill-rule:evenodd; stroke:#000000; stroke-opacity:100%; stroke-width: 3pt; stroke-linejoin:round; stroke-linecap:round;" d="M39.25 75.64c3.12 0.49 5.26 0.35 7.65 0.05c11.35-1.44 29.62-3.5 38.58-4c2.39-0.13 4.63-0.21 7.02 0.32"></path>
<text x="5" y="20" font-size="20" fill="#999999">10</text><path style="fill:none; fill-opacity:0%; fill-rule:evenodd; stroke:#CC0000; stroke-opacity:100%; stroke-width: 3pt; stroke-linejoin:round; stroke-linecap:round;" d="M66.62 45.75c0.94 0.94 1.27 2.5 1.27 4.17c0 2.75-0.13 29.08-0.13 41.83c0 2.58-0.06 4.53-0.1 5.5"  ></path>

</g>

</svg>  
          
